<?xml version="1.0" encoding="UTF-8" standalone="no"?>
<svg
   xmlns:dc="http://purl.org/dc/elements/1.1/"
   xmlns:cc="http://creativecommons.org/ns#"
   xmlns:rdf="http://www.w3.org/1999/02/22-rdf-syntax-ns#"
   xmlns:svg="http://www.w3.org/2000/svg"
   xmlns="http://www.w3.org/2000/svg"
   xmlns:sodipodi="http://sodipodi.sourceforge.net/DTD/sodipodi-0.dtd"
   xmlns:inkscape="http://www.inkscape.org/namespaces/inkscape"
   width="16.047"
   height="16.01"
   version="1.1"
   id="svg4"
   sodipodi:docname="folder-pictures-symbolic.svg"
   inkscape:version="0.92.2 2405546, 2018-03-11">
  <metadata
     id="metadata10">
    <rdf:RDF>
      <cc:Work
         rdf:about="">
        <dc:format>image/svg+xml</dc:format>
        <dc:type
           rdf:resource="http://purl.org/dc/dcmitype/StillImage" />
      </cc:Work>
    </rdf:RDF>
  </metadata>
  <defs
     id="defs8" />
  <sodipodi:namedview
     pagecolor="#ffffff"
     bordercolor="#666666"
     borderopacity="1"
     objecttolerance="10"
     gridtolerance="10"
     guidetolerance="10"
     inkscape:pageopacity="0"
     inkscape:pageshadow="2"
     inkscape:window-width="1920"
     inkscape:window-height="1010"
     id="namedview6"
     showgrid="false"
     inkscape:zoom="32"
     inkscape:cx="3.6494483"
     inkscape:cy="9.3318971"
     inkscape:window-x="0"
     inkscape:window-y="32"
     inkscape:window-maximized="1"
     inkscape:current-layer="svg4" />
  <path
     style="color:#bebebe;overflow:visible;fill:#bebebe;fill-opacity:1;marker:none"
     d="M 6 1.0097656 C 5.45 1.0097656 4.9741785 1.4603721 5 2.0097656 L 5 3.0097656 L 1.046875 3.0097656 C 0.494875 3.0097656 0.046875 3.4597656 0.046875 4.0097656 L 0.046875 14.009766 C 0.046875 14.559766 0.494875 15.009766 1.046875 15.009766 L 15.046875 15.009766 C 15.598875 15.009766 16.046875 14.559766 16.046875 14.009766 L 16.046875 4.0097656 C 16.046875 3.4597656 15.582764 2.8773762 15.046875 3.0097656 L 11 3.0097656 L 11 2.0097656 C 11 1.4597656 10.55 1.0097656 10 1.0097656 L 6 1.0097656 z M 8 5.0097656 A 4 4 0 0 1 12 9.0097656 A 4 4 0 0 1 8 13.009766 A 4 4 0 0 1 4 9.0097656 A 4 4 0 0 1 8 5.0097656 z M 8 7.0097656 A 2 2 0 0 0 6 9.0097656 A 2 2 0 0 0 8 11.009766 A 2 2 0 0 0 10 9.0097656 A 2 2 0 0 0 8 7.0097656 z "
     id="path2" />
</svg>
