<?xml version="1.0" encoding="UTF-8" standalone="no"?>
<svg
   xmlns:dc="http://purl.org/dc/elements/1.1/"
   xmlns:cc="http://creativecommons.org/ns#"
   xmlns:rdf="http://www.w3.org/1999/02/22-rdf-syntax-ns#"
   xmlns:svg="http://www.w3.org/2000/svg"
   xmlns="http://www.w3.org/2000/svg"
   xmlns:xlink="http://www.w3.org/1999/xlink"
   style="display:inline"
   version="1.0"
   id="svg2"
   height="16"
   width="16">
  <defs
     id="defs4">
    <linearGradient
       y2="16.529612"
       x2="11.998966"
       y1="3.6813121"
       x1="11.998966"
       gradientTransform="matrix(0.9247229,0,0,1.0872097,10.939944,-2.0023588)"
       gradientUnits="userSpaceOnUse"
       id="linearGradient2428"
       xlink:href="#StandardGradient" />
    <linearGradient
       gradientUnits="userSpaceOnUse"
       y2="19.387045"
       x2="11.998966"
       y1="0.92195445"
       x1="11.998966"
       gradientTransform="scale(0.9219544,1.0846523)"
       id="StandardGradient">
      <stop
         id="stop3283"
         offset="0"
         style="stop-color:#000000;stop-opacity:0.86274511;" />
      <stop
         id="stop2651"
         offset="1"
         style="stop-color:#000000;stop-opacity:0.47058824;" />
    </linearGradient>
    <linearGradient
       y2="17.478098"
       x2="11.998966"
       y1="0.92195445"
       x1="11.998966"
       gradientTransform="matrix(0.9247229,0,0,1.0872097,-2.0600562,0.9976422)"
       gradientUnits="userSpaceOnUse"
       id="linearGradient2549"
       xlink:href="#StandardGradient" />
    <linearGradient
       y2="17.478098"
       x2="11.998966"
       y1="0.92195445"
       x1="11.998966"
       gradientTransform="matrix(0.9247229,0,0,1.0872097,-4.0600562,-3.0023583)"
       gradientUnits="userSpaceOnUse"
       id="linearGradient2418"
       xlink:href="#StandardGradient" />
    <linearGradient
       y2="17.478098"
       x2="11.998966"
       y1="0.92195445"
       x1="11.998966"
       gradientTransform="matrix(0.9247229,0,0,1.0872097,-5.0600562,-1.0023583)"
       gradientUnits="userSpaceOnUse"
       id="linearGradient2422"
       xlink:href="#StandardGradient" />
    <linearGradient
       y2="17.478098"
       x2="11.998966"
       y1="0.92195445"
       x1="11.998966"
       gradientTransform="matrix(0.9247229,0,0,1.0872097,-4.0600562,-3.0023583)"
       gradientUnits="userSpaceOnUse"
       id="linearGradient2403"
       xlink:href="#StandardGradient" />
    <linearGradient
       y2="17.478098"
       x2="11.998966"
       y1="0.92195445"
       x1="11.998966"
       gradientTransform="matrix(0.9247229,0,0,1.0872097,-4.0600562,-3.0023583)"
       gradientUnits="userSpaceOnUse"
       id="linearGradient2406"
       xlink:href="#StandardGradient" />
    <linearGradient
       y2="15.638639"
       x2="11.998966"
       y1="3.6800685"
       x1="11.998966"
       gradientTransform="matrix(0.9247229,0,0,1.0872097,-6.0600562,-2.0023583)"
       gradientUnits="userSpaceOnUse"
       id="linearGradient2409"
       xlink:href="#StandardGradient" />
    <linearGradient
       y2="15.638639"
       x2="11.998966"
       y1="2.7615263"
       x1="11.998966"
       gradientTransform="matrix(0.9247229,0,0,1.0872097,-6.0600562,-2.0023583)"
       gradientUnits="userSpaceOnUse"
       id="linearGradient2416"
       xlink:href="#StandardGradient" />
    <linearGradient
       y2="16.529612"
       x2="11.998966"
       y1="3.6813121"
       x1="11.998966"
       gradientTransform="matrix(0.9247229,0,0,1.0872097,-4.0418814,0.9976412)"
       gradientUnits="userSpaceOnUse"
       id="linearGradient2529"
       xlink:href="#StandardGradient" />
    <linearGradient
       y2="15.638639"
       x2="11.998966"
       y1="2.7615263"
       x1="11.998966"
       gradientTransform="matrix(0.9247229,0,0,1.0872097,-6.0600562,-2.0023583)"
       gradientUnits="userSpaceOnUse"
       id="linearGradient2539"
       xlink:href="#StandardGradient" />
    <linearGradient
       y2="15.638639"
       x2="11.998966"
       y1="2.7615263"
       x1="11.998966"
       gradientTransform="matrix(0.9247229,0,0,1.0872097,-6.0600562,-2.0023583)"
       gradientUnits="userSpaceOnUse"
       id="linearGradient2542"
       xlink:href="#StandardGradient" />
    <linearGradient
       y2="15.638639"
       x2="11.998966"
       y1="2.7615263"
       x1="11.998966"
       gradientTransform="matrix(0.9247229,0,0,1.0872097,-6.0600562,-2.0023583)"
       gradientUnits="userSpaceOnUse"
       id="linearGradient2412"
       xlink:href="#StandardGradient" />
    <linearGradient
       y2="15.638639"
       x2="11.998966"
       y1="2.7615263"
       x1="11.998966"
       gradientTransform="matrix(0.9247229,0,0,1.0872097,-6.0600562,-2.0023583)"
       gradientUnits="userSpaceOnUse"
       id="linearGradient2423"
       xlink:href="#StandardGradient" />
    <linearGradient
       y2="15.638639"
       x2="11.998966"
       y1="2.7615263"
       x1="11.998966"
       gradientTransform="matrix(0.9247229,0,0,1.0872097,-26.060056,-2.0023583)"
       gradientUnits="userSpaceOnUse"
       id="linearGradient2942"
       xlink:href="#StandardGradient" />
    <clipPath
       id="clipPath2949"
       clipPathUnits="userSpaceOnUse">
      <path
         id="path2951"
         d="m -20,0 0,16 16,0 0,-16 -16,0 z m 3,1 3,0 c 0.554,0 1,0.446 1,1 l 6,0 c 0.554,0 1,0.446 1,1 l -12,0 0,-1 c 0,-0.554 0.446,-1 1,-1 z m -0.5,3 4,0 6,0 1,0 C -5.669,4 -5,4.669 -5,5.5 l 0,4.5 0,1.5 c 0,0.647488 -0.396277,1.195291 -0.96875,1.40625 l 0,0.15625 -0.03125,0 0,0.4375 c 0,0.831 -0.669,1.5 -1.5,1.5 l -6,0 c -0.831,0 -1.5,-0.669 -1.5,-1.5 l 0,-0.5 -2.5,0 c -0.831,0 -1.5,-0.669 -1.5,-1.5 l 0,-1.5 0,-4.5 C -19,4.669 -18.331,4 -17.5,4 z m 5,2 C -12.777,6 -13,6.223 -13,6.5 l 0,6 c 0,0.277 0.223,0.5 0.5,0.5 l 4,0 c 0.277,0 0.5,-0.223 0.5,-0.5 l 0,-6 C -8,6.223 -8.223,6 -8.5,6 l -4,0 z"
         style="fill:#ff00ff;fill-opacity:1;stroke:none;display:inline" />
    </clipPath>
    <linearGradient
       y2="15.638639"
       x2="11.998966"
       y1="2.7615263"
       x1="11.998966"
       gradientTransform="matrix(0.9247229,0,0,1.0872097,-6.0600562,-2.0023583)"
       gradientUnits="userSpaceOnUse"
       id="linearGradient5012"
       xlink:href="#StandardGradient" />
    <linearGradient
       y2="15.638639"
       x2="11.998966"
       y1="2.7615263"
       x1="11.998966"
       gradientTransform="matrix(0.9247229,0,0,1.0872097,-6.0600562,-2.0023583)"
       gradientUnits="userSpaceOnUse"
       id="linearGradient5016"
       xlink:href="#StandardGradient" />
    <linearGradient
       y2="15.638639"
       x2="11.998966"
       y1="2.7615263"
       x1="11.998966"
       gradientTransform="matrix(0.9247229,0,0,1.0872097,-6.0600562,-2.0023583)"
       gradientUnits="userSpaceOnUse"
       id="linearGradient3176"
       xlink:href="#StandardGradient" />
    <linearGradient
       y2="15.638639"
       x2="11.998966"
       y1="2.7615263"
       x1="11.998966"
       gradientTransform="matrix(0.9247229,0,0,1.0872097,-6.0600562,-2.0023583)"
       gradientUnits="userSpaceOnUse"
       id="linearGradient3180"
       xlink:href="#StandardGradient" />
    <linearGradient
       y2="15.638639"
       x2="11.998966"
       y1="2.7615263"
       x1="11.998966"
       gradientTransform="matrix(0.9247229,0,0,1.0872097,-6.0600562,-2.0023583)"
       gradientUnits="userSpaceOnUse"
       id="linearGradient3042"
       xlink:href="#StandardGradient" />
    <linearGradient
       y2="15.638639"
       x2="11.998966"
       y1="2.7615263"
       x1="11.998966"
       gradientTransform="matrix(0.9247229,0,0,1.0872097,-6.0600562,-2.0023583)"
       gradientUnits="userSpaceOnUse"
       id="linearGradient3047"
       xlink:href="#StandardGradient" />
    <linearGradient
       y2="15.638639"
       x2="11.998966"
       y1="2.7615263"
       x1="11.998966"
       gradientTransform="matrix(0.9247229,0,0,1.0872097,-6.0600562,-2.0023583)"
       gradientUnits="userSpaceOnUse"
       id="linearGradient3052"
       xlink:href="#StandardGradient" />
    <linearGradient
       y2="15.638639"
       x2="11.998966"
       y1="2.7615263"
       x1="11.998966"
       gradientTransform="matrix(0.9247229,0,0,1.0872097,-6.0600562,-2.0023583)"
       gradientUnits="userSpaceOnUse"
       id="linearGradient3059"
       xlink:href="#StandardGradient" />
    <linearGradient
       y2="15.638639"
       x2="11.998966"
       y1="2.7615263"
       x1="11.998966"
       gradientTransform="matrix(-0.9247229,0,0,1.0872097,22.060056,-2.0023583)"
       gradientUnits="userSpaceOnUse"
       id="linearGradient3062"
       xlink:href="#StandardGradient" />
    <linearGradient
       y2="15.638639"
       x2="11.998966"
       y1="2.7615263"
       x1="11.998966"
       gradientTransform="matrix(0.9247229,0,0,1.0872097,-6.0600562,-2.0023583)"
       gradientUnits="userSpaceOnUse"
       id="linearGradient3064"
       xlink:href="#StandardGradient" />
    <linearGradient
       y2="15.638639"
       x2="11.998966"
       y1="2.7615263"
       x1="11.998966"
       gradientTransform="matrix(0.9247229,0,0,1.0872097,-6.0600562,-1.0023583)"
       gradientUnits="userSpaceOnUse"
       id="linearGradient3067"
       xlink:href="#StandardGradient" />
    <linearGradient
       y2="15.638639"
       x2="11.998966"
       y1="2.7615263"
       x1="11.998966"
       gradientTransform="matrix(0.9247229,0,0,1.0872097,-6.0600562,-2.0023583)"
       gradientUnits="userSpaceOnUse"
       id="linearGradient3071"
       xlink:href="#StandardGradient" />
    <linearGradient
       y2="15.638639"
       x2="11.998966"
       y1="2.7615263"
       x1="11.998966"
       gradientTransform="matrix(0.9247229,0,0,1.0872097,-6.0600562,-2.0023583)"
       gradientUnits="userSpaceOnUse"
       id="linearGradient3074"
       xlink:href="#StandardGradient" />
  </defs>
  <metadata
     id="metadata7">
    <rdf:RDF>
      <cc:Work
         rdf:about="">
        <dc:format>image/svg+xml</dc:format>
        <dc:type
           rdf:resource="http://purl.org/dc/dcmitype/StillImage" />
        <dc:title></dc:title>
      </cc:Work>
    </rdf:RDF>
  </metadata>
  <g
     id="layer1"
     style="display:inline">
    <path
       id="rect854"
       d="M 1 2 L 1 15 L 15 15 L 15 4 L 10 4 L 8 2 L 1 2 z M 2 3 L 7 3 L 9 5 L 14 5 L 14 6 L 2 6 L 2 3 z M 2 7 L 14 7 L 14 14 L 2 14 L 2 7 z "
       style="opacity:1;fill:#bebebe;fill-opacity:1;stroke:none;stroke-width:2;stroke-miterlimit:4;stroke-dasharray:none;stroke-opacity:0.16245488;paint-order:stroke fill markers" />
    <rect
       y="7"
       x="2"
       height="7"
       width="12"
       id="rect877"
       style="opacity:0.5;fill:#bebebe;fill-opacity:1;stroke:none;stroke-width:2.36643195;stroke-miterlimit:4;stroke-dasharray:none;stroke-opacity:0.16245488;paint-order:stroke fill markers" />
  </g>
</svg>
