<?xml version="1.0" encoding="UTF-8" standalone="no"?>
<svg
   xmlns:dc="http://purl.org/dc/elements/1.1/"
   xmlns:cc="http://creativecommons.org/ns#"
   xmlns:rdf="http://www.w3.org/1999/02/22-rdf-syntax-ns#"
   xmlns:svg="http://www.w3.org/2000/svg"
   xmlns="http://www.w3.org/2000/svg"
   xmlns:xlink="http://www.w3.org/1999/xlink"
   style="display:inline"
   id="svg2408"
   height="64"
   width="64"
   version="1.0">
  <defs
     id="defs2410">
    <linearGradient
       id="linearGradient3604">
      <stop
         offset="0"
         style="stop-color:#2f2f2f;stop-opacity:1"
         id="stop3606" />
      <stop
         offset="0.43731192"
         style="stop-color:#ffffff;stop-opacity:1"
         id="stop3608" />
      <stop
         offset="0.62138397"
         style="stop-color:#979797;stop-opacity:1"
         id="stop3610" />
      <stop
         offset="0.7723214"
         style="stop-color:#505050;stop-opacity:1"
         id="stop3612" />
      <stop
         offset="1"
         style="stop-color:#e6e6e6;stop-opacity:1"
         id="stop3614" />
    </linearGradient>
    <linearGradient
       id="linearGradient3435">
      <stop
         offset="0"
         style="stop-color:#ededed;stop-opacity:1"
         id="stop3437" />
      <stop
         offset="1"
         style="stop-color:#b0b0b0;stop-opacity:1"
         id="stop3439" />
    </linearGradient>
    <linearGradient
       id="linearGradient3387">
      <stop
         offset="0"
         style="stop-color:#a2a2a2;stop-opacity:1"
         id="stop3389" />
      <stop
         offset="1"
         style="stop-color:#ffffff;stop-opacity:1"
         id="stop3391" />
    </linearGradient>
    <linearGradient
       id="linearGradient3354">
      <stop
         offset="0"
         style="stop-color:#b4b4b4;stop-opacity:1"
         id="stop3356" />
      <stop
         offset="0.20467032"
         style="stop-color:#646464;stop-opacity:1"
         id="stop3362" />
      <stop
         offset="0.49567693"
         style="stop-color:#ffffff;stop-opacity:1"
         id="stop3364" />
      <stop
         offset="1"
         style="stop-color:#3c3c3c;stop-opacity:1"
         id="stop3358" />
    </linearGradient>
    <linearGradient
       id="linearGradient3290">
      <stop
         offset="0"
         style="stop-color:#ffffff;stop-opacity:1"
         id="stop3292" />
      <stop
         offset="0.48973215"
         style="stop-color:#8c8c8c;stop-opacity:1"
         id="stop3304" />
      <stop
         offset="0.50044644"
         style="stop-color:#cfcfcf;stop-opacity:1"
         id="stop3306" />
      <stop
         offset="0.62276787"
         style="stop-color:#ffffff;stop-opacity:1"
         id="stop3298" />
      <stop
         offset="0.81696427"
         style="stop-color:#c8c8c8;stop-opacity:1"
         id="stop3300" />
      <stop
         offset="1"
         style="stop-color:#505050;stop-opacity:1"
         id="stop3294" />
    </linearGradient>
    <linearGradient
       id="linearGradient3236">
      <stop
         offset="0"
         style="stop-color:#818181;stop-opacity:1"
         id="stop3238" />
      <stop
         offset="0.2"
         style="stop-color:#f9f9f9;stop-opacity:1"
         id="stop3242" />
      <stop
         offset="1"
         style="stop-color:#dcdcdc;stop-opacity:0"
         id="stop3240" />
    </linearGradient>
    <linearGradient
       id="linearGradient3199">
      <stop
         offset="0"
         style="stop-color:#dcdcdc;stop-opacity:1"
         id="stop3201" />
      <stop
         offset="1"
         style="stop-color:#fafafa;stop-opacity:1"
         id="stop3203" />
    </linearGradient>
    <linearGradient
       gradientTransform="scale(1.0058652,0.994169)"
       gradientUnits="userSpaceOnUse"
       id="ButtonShadow"
       y2="7.0165396"
       x2="45.447727"
       y1="92.539597"
       x1="45.447727">
      <stop
         offset="0"
         style="stop-color:#000000;stop-opacity:1"
         id="stop3750" />
      <stop
         offset="1"
         style="stop-color:#000000;stop-opacity:0.58823532"
         id="stop3752" />
    </linearGradient>
    <linearGradient
       id="linearGradient3737">
      <stop
         offset="0"
         style="stop-color:#ffffff;stop-opacity:1"
         id="stop3739" />
      <stop
         offset="1"
         style="stop-color:#ffffff;stop-opacity:0"
         id="stop3741" />
    </linearGradient>
    <linearGradient
       id="linearGradient3700">
      <stop
         offset="0"
         style="stop-color:#b4b4b4;stop-opacity:1"
         id="stop3702" />
      <stop
         offset="1"
         style="stop-color:#dcdcdc;stop-opacity:1"
         id="stop3704" />
    </linearGradient>
    <filter
       style="color-interpolation-filters:sRGB"
       id="filter3174">
      <feGaussianBlur
         stdDeviation="1.71"
         id="feGaussianBlur3176" />
    </filter>
    <linearGradient
       gradientTransform="matrix(0.65888813,0,0,0.65888813,0.671564,32.416288)"
       gradientUnits="userSpaceOnUse"
       xlink:href="#linearGradient3737"
       id="linearGradient3220"
       y2="27.428572"
       x2="87.5"
       y1="74"
       x1="19.035713" />
    <linearGradient
       gradientTransform="matrix(0.65888813,0,0,0.65888813,0.671564,32.416288)"
       gradientUnits="userSpaceOnUse"
       xlink:href="#linearGradient3236"
       id="linearGradient3234"
       y2="73"
       x2="24"
       y1="73"
       x1="6" />
    <linearGradient
       gradientTransform="matrix(-0.65888813,0,0,0.65888813,63.924824,32.416288)"
       gradientUnits="userSpaceOnUse"
       xlink:href="#linearGradient3236"
       id="linearGradient3246"
       y2="73"
       x2="24"
       y1="73"
       x1="6" />
    <linearGradient
       gradientTransform="matrix(0.65888813,0,0,0.65888813,0.671564,32.416288)"
       gradientUnits="userSpaceOnUse"
       xlink:href="#linearGradient3199"
       id="linearGradient3223"
       y2="5.8331571"
       x2="38.748035"
       y1="65.59034"
       x1="38.748035" />
    <radialGradient
       gradientTransform="matrix(0,-0.71491602,1.3177763,0,-58.628368,156.05866)"
       gradientUnits="userSpaceOnUse"
       xlink:href="#linearGradient3700"
       id="radialGradient3229"
       fy="90"
       fx="90"
       r="42"
       cy="90"
       cx="90" />
    <clipPath
       id="clipPath3235">
      <path
         style="fill:#ffffff;fill-opacity:1;fill-rule:nonzero;stroke:none"
         id="path3237"
         d="m 66,6 v 55 c 0,1.662 1.338,3 3,3 h 6 c 1.662,0 3,-1.338 3,-3 V 6 H 74 V 8 H 70 V 6 Z" />
    </clipPath>
    <filter
       style="color-interpolation-filters:sRGB"
       id="filter3243"
       height="1.0732203"
       width="1.3323077"
       y="-0.036610167"
       x="-0.16615385">
      <feGaussianBlur
         stdDeviation="0.9"
         id="feGaussianBlur3245" />
    </filter>
    <linearGradient
       gradientTransform="translate(0,-1)"
       gradientUnits="userSpaceOnUse"
       xlink:href="#linearGradient3354"
       id="linearGradient3360"
       y2="59"
       x2="75.25"
       y1="59"
       x1="68.75" />
    <linearGradient
       gradientTransform="translate(0,-1)"
       gradientUnits="userSpaceOnUse"
       xlink:href="#linearGradient3290"
       id="linearGradient3372"
       y2="54"
       x2="73"
       y1="54"
       x1="69" />
    <linearGradient
       gradientUnits="userSpaceOnUse"
       xlink:href="#linearGradient3387"
       id="linearGradient3393"
       y2="65"
       x2="79"
       y1="64.163078"
       x1="63.484772" />
    <filter
       style="color-interpolation-filters:sRGB"
       id="filter3429"
       height="1.1907072"
       width="1.3236568"
       y="-0.095353596"
       x="-0.16182838">
      <feGaussianBlur
         stdDeviation="0.53551312"
         id="feGaussianBlur3431" />
    </filter>
    <linearGradient
       gradientTransform="matrix(-1,0,0,1,144.03125,-2)"
       gradientUnits="userSpaceOnUse"
       xlink:href="#linearGradient3435"
       id="linearGradient3489"
       y2="17.5"
       x2="75.0625"
       y1="17.5"
       x1="68.96875" />
    <linearGradient
       gradientTransform="translate(0,-2)"
       gradientUnits="userSpaceOnUse"
       xlink:href="#linearGradient3435"
       id="linearGradient3516"
       y2="17.763245"
       x2="75.97097"
       y1="17.763245"
       x1="68.02903" />
    <linearGradient
       gradientTransform="matrix(1.1262691,0,0,1,-7.4019692,-49.5)"
       gradientUnits="userSpaceOnUse"
       xlink:href="#linearGradient3354"
       id="linearGradient3530"
       y2="59"
       x2="72.250572"
       y1="59"
       x1="68.75" />
    <linearGradient
       gradientTransform="matrix(-1,0,0,1,144,-4)"
       gradientUnits="userSpaceOnUse"
       xlink:href="#linearGradient3604"
       id="linearGradient3602"
       y2="54"
       x2="73"
       y1="54"
       x1="69" />
    <linearGradient
       gradientTransform="matrix(1.0058652,0,0,0.994169,100,0)"
       gradientUnits="userSpaceOnUse"
       id="ButtonShadow-0"
       y2="7.0165396"
       x2="45.447727"
       y1="92.539597"
       x1="45.447727">
      <stop
         offset="0"
         style="stop-color:#000000;stop-opacity:1"
         id="stop3750-8" />
      <stop
         offset="1"
         style="stop-color:#000000;stop-opacity:0.58823532"
         id="stop3752-5" />
    </linearGradient>
    <linearGradient
       gradientTransform="matrix(1.0238095,0,0,1.0119048,-1.1428571,-98.071429)"
       gradientUnits="userSpaceOnUse"
       xlink:href="#ButtonShadow-0"
       id="linearGradient3780"
       y2="90.238609"
       x2="32.251034"
       y1="6.1317081"
       x1="32.251034" />
    <linearGradient
       gradientTransform="matrix(1.0238095,0,0,1.0119048,-1.1428571,-98.071429)"
       gradientUnits="userSpaceOnUse"
       xlink:href="#ButtonShadow-0"
       id="linearGradient3772"
       y2="90.238609"
       x2="32.251034"
       y1="6.1317081"
       x1="32.251034" />
    <linearGradient
       gradientTransform="matrix(1.0238095,0,0,1.0119048,-1.1428571,-98.071429)"
       gradientUnits="userSpaceOnUse"
       xlink:href="#ButtonShadow-0"
       id="linearGradient3725"
       y2="90.238609"
       x2="32.251034"
       y1="6.1317081"
       x1="32.251034" />
    <linearGradient
       gradientTransform="translate(0,-97)"
       gradientUnits="userSpaceOnUse"
       xlink:href="#ButtonShadow-0"
       id="linearGradient3721"
       y2="90.238609"
       x2="32.251034"
       y1="6.1317081"
       x1="32.251034" />
    <linearGradient
       gradientTransform="matrix(1.0238095,0,0,1.0119048,-1.1428571,-98.071429)"
       gradientUnits="userSpaceOnUse"
       xlink:href="#ButtonShadow-0"
       id="linearGradient3760"
       y2="90.238609"
       x2="32.251034"
       y1="6.1317081"
       x1="32.251034" />
    <linearGradient
       y2="54"
       x2="73"
       y1="54"
       x1="69"
       gradientTransform="translate(0,-1)"
       gradientUnits="userSpaceOnUse"
       id="linearGradient932"
       xlink:href="#linearGradient3290" />
    <linearGradient
       y2="54"
       x2="73"
       y1="54"
       x1="69"
       gradientTransform="matrix(-1,0,0,1,144,-4)"
       gradientUnits="userSpaceOnUse"
       id="linearGradient934"
       xlink:href="#linearGradient3604" />
  </defs>
  <metadata
     id="metadata2413">
    <rdf:RDF>
      <cc:Work
         rdf:about="">
        <dc:format>image/svg+xml</dc:format>
        <dc:type
           rdf:resource="http://purl.org/dc/dcmitype/StillImage" />
        <dc:title></dc:title>
      </cc:Work>
    </rdf:RDF>
  </metadata>
  <g
     transform="translate(0,-32)"
     style="display:none"
     id="layer2">
    <rect
       style="opacity:0.9;fill:url(#ButtonShadow);fill-opacity:1;fill-rule:nonzero;stroke:none;filter:url(#filter3174)"
       id="rect3745"
       y="7"
       x="5"
       ry="6"
       rx="6"
       height="85"
       width="86" />
  </g>
  <g
     transform="matrix(0.65888813,0,0,0.65888813,0.671564,0.41628775)"
     style="display:inline"
     id="layer5">
    <path
       style="display:inline;opacity:0.07999998;fill:url(#linearGradient3760);fill-opacity:1;fill-rule:nonzero;stroke:none"
       id="path3786"
       transform="scale(1,-1)"
       d="m 12,-95.03125 c -5.5110903,0 -10.03125,4.52016 -10.03125,10.03125 v 71 c 0,5.5110902 4.5201598,10.03125 10.03125,10.03125 h 72 c 5.51109,0 10.03125,-4.5201597 10.03125,-10.03125 v -71 c 0,-5.51109 -4.52016,-10.03125 -10.03125,-10.03125 z" />
    <path
       style="display:inline;opacity:0.1;fill:url(#linearGradient3780);fill-opacity:1;fill-rule:nonzero;stroke:none"
       id="path3778"
       transform="scale(1,-1)"
       d="m 12,-94.03125 c -4.971633,0 -9.03125,4.059617 -9.03125,9.03125 v 71 c 0,4.9716329 4.0596171,9.03125 9.03125,9.03125 h 72 c 4.971633,0 9.03125,-4.059617 9.03125,-9.03125 v -71 c 0,-4.971633 -4.059617,-9.03125 -9.03125,-9.03125 z" />
    <path
       style="display:inline;opacity:0.2;fill:url(#linearGradient3772);fill-opacity:1;fill-rule:nonzero;stroke:none"
       id="path3770"
       transform="scale(1,-1)"
       d="m 12,-93 c -4.4091333,0 -8,3.590867 -8,8 v 71 c 0,4.4091333 3.5908667,8 8,8 h 72 c 4.409133,0 8,-3.5908667 8,-8 v -71 c 0,-4.409133 -3.590867,-8 -8,-8 z" />
    <rect
       style="display:inline;opacity:0.3;fill:url(#linearGradient3725);fill-opacity:1;fill-rule:nonzero;stroke:none"
       id="rect3723"
       transform="scale(1,-1)"
       y="-92"
       x="5"
       ry="7"
       rx="7"
       height="85"
       width="86" />
    <rect
       style="display:inline;opacity:0.45;fill:url(#linearGradient3721);fill-opacity:1;fill-rule:nonzero;stroke:none"
       id="rect3716"
       transform="scale(1,-1)"
       y="-91"
       x="6"
       ry="6"
       rx="6"
       height="84"
       width="84" />
  </g>
  <g
     transform="translate(0,-32)"
     style="display:inline"
     id="layer1">
    <path
       style="fill:url(#radialGradient3229);fill-opacity:1;fill-rule:nonzero;stroke:none;stroke-width:0.6588881"
       id="rect2419"
       d="m 8.5782215,36.369617 c -2.1901441,0 -3.9533287,1.763184 -3.9533287,3.953328 V 87.76289 c 0,2.190144 1.7631846,3.953329 3.9533287,3.953329 H 56.018167 c 2.190144,0 3.953328,-1.763185 3.953328,-3.953329 V 40.322945 c 0,-2.190144 -1.763184,-3.953328 -3.953328,-3.953328 h -5.929994 v 1.976664 h -3.953328 v -1.976664 z" />
    <path
       style="fill:url(#linearGradient3234);fill-opacity:1;fill-rule:nonzero;stroke:none;stroke-width:0.6588881"
       id="rect3222"
       d="M 4.6248928,69.314023 V 87.76289 c 0,2.190144 1.7631846,3.953329 3.9533287,3.953329 H 16.484879 V 69.314023 Z" />
    <path
       style="fill:url(#linearGradient3246);fill-opacity:1;fill-rule:nonzero;stroke:none;stroke-width:0.6588881"
       id="path3244"
       d="M 59.971495,69.314023 V 87.76289 c 0,2.190144 -1.763184,3.953329 -3.953328,3.953329 H 48.111509 V 69.314023 Z" />
    <path
       style="opacity:0.15;fill:#000000;fill-opacity:1;fill-rule:nonzero;stroke:none;stroke-width:0.6588881"
       id="rect2412"
       d="m 4.6248928,86.445114 v 1.317776 c 0,2.190144 1.7631846,3.953329 3.9533287,3.953329 H 56.018167 c 2.190144,0 3.953328,-1.763185 3.953328,-3.953329 v -1.317776 c 0,2.190144 -1.763184,3.953329 -3.953328,3.953329 H 8.5782215 c -2.1901441,0 -3.9533287,-1.763185 -3.9533287,-3.953329 z" />
    <path
       style="opacity:0.8;fill:#ffffff;fill-opacity:1;fill-rule:nonzero;stroke:none;stroke-width:0.6588881"
       id="path3187"
       d="m 4.6248928,83.809562 v 1.317776 c 0,2.190144 1.7631846,3.953329 3.9533287,3.953329 H 56.018167 c 2.190144,0 3.953328,-1.763185 3.953328,-3.953329 v -1.317776 c 0,2.190144 -1.763184,3.953328 -3.953328,3.953328 H 8.5782215 c -2.1901441,0 -3.9533287,-1.763184 -3.9533287,-3.953328 z" />
    <path
       style="opacity:0.15;fill:#000000;fill-opacity:1;fill-rule:nonzero;stroke:none;stroke-width:0.6588881"
       id="path3189"
       d="m 4.6248928,82.491785 v 1.317777 c 0,2.190144 1.7631846,3.953328 3.9533287,3.953328 H 56.018167 c 2.190144,0 3.953328,-1.763184 3.953328,-3.953328 v -1.317777 c 0,2.190144 -1.763184,3.953329 -3.953328,3.953329 H 8.5782215 c -2.1901441,0 -3.9533287,-1.763185 -3.9533287,-3.953329 z" />
    <path
       style="opacity:0.8;fill:#ffffff;fill-opacity:1;fill-rule:nonzero;stroke:none;stroke-width:0.6588881"
       id="path3191"
       d="m 4.6248928,79.856233 v 1.317776 c 0,2.190144 1.7631846,3.953329 3.9533287,3.953329 H 56.018167 c 2.190144,0 3.953328,-1.763185 3.953328,-3.953329 v -1.317776 c 0,2.190144 -1.763184,3.953329 -3.953328,3.953329 H 8.5782215 c -2.1901441,0 -3.9533287,-1.763185 -3.9533287,-3.953329 z" />
    <path
       style="opacity:0.15;fill:#000000;fill-opacity:1;fill-rule:nonzero;stroke:none;stroke-width:0.6588881"
       id="path3193"
       d="m 4.6248928,78.538457 v 1.317776 c 0,2.190144 1.7631846,3.953329 3.9533287,3.953329 H 56.018167 c 2.190144,0 3.953328,-1.763185 3.953328,-3.953329 v -1.317776 c 0,2.190144 -1.763184,3.953328 -3.953328,3.953328 H 8.5782215 c -2.1901441,0 -3.9533287,-1.763184 -3.9533287,-3.953328 z" />
    <path
       style="fill:url(#linearGradient3223);fill-opacity:1;fill-rule:nonzero;stroke:none;stroke-width:0.6588881"
       id="rect3195"
       d="m 8.5782215,36.369617 c -2.1901441,0 -3.9533287,1.763184 -3.9533287,3.953328 V 77.22068 c 0,2.190144 1.7631846,3.953329 3.9533287,3.953329 H 56.018167 c 2.190144,0 3.953328,-1.763185 3.953328,-3.953329 V 40.322945 c 0,-2.190144 -1.763184,-3.953328 -3.953328,-3.953328 h -5.929994 v 1.976664 h -3.953328 v -1.976664 z" />
    <path
       style="fill:url(#linearGradient3220);fill-opacity:1;fill-rule:nonzero;stroke:none;stroke-width:0.6588881"
       id="rect3207"
       d="m 8.5782215,36.369617 c -2.1901441,0 -3.9533287,1.763184 -3.9533287,3.953328 V 77.22068 c 0,2.190144 1.7631846,3.953329 3.9533287,3.953329 H 56.018167 c 2.190144,0 3.953328,-1.763185 3.953328,-3.953329 V 40.322945 c 0,-2.190144 -1.763184,-3.953328 -3.953328,-3.953328 h -5.929994 v 1.317776 h 5.929994 c 1.479732,0 2.635552,1.15582 2.635552,2.635552 V 77.22068 c 0,1.479733 -1.15582,2.635553 -2.635552,2.635553 H 8.5782215 c -1.4797326,0 -2.6355525,-1.15582 -2.6355525,-2.635553 V 40.322945 c 0,-1.479732 1.1558199,-2.635552 2.6355525,-2.635552 H 46.134845 v -1.317776 z" />
  </g>
  <g
     transform="matrix(0.65888813,0,0,0.65888813,0.671564,0.41628775)"
     id="layer3">
    <path
       style="fill:#252525;fill-opacity:1;fill-rule:nonzero;stroke:none"
       id="rect3201"
       d="m 66,6 v 55 c 0,1.662 1.338,3 3,3 h 6 c 1.662,0 3,-1.338 3,-3 V 6 H 74 V 8 H 70 V 6 Z" />
    <rect
       style="fill:#4d4d4d;fill-opacity:1;fill-rule:nonzero;stroke:none"
       id="rect3247"
       y="8"
       x="70"
       height="49"
       width="4" />
    <rect
       style="fill:url(#linearGradient3360);fill-opacity:1;fill-rule:nonzero;stroke:#000000;stroke-width:0.5;stroke-linecap:square;stroke-linejoin:miter;stroke-miterlimit:4;stroke-dasharray:none;stroke-dashoffset:0;stroke-opacity:0.56363639"
       id="rect3211"
       y="56"
       x="69"
       ry="1"
       rx="1"
       height="4"
       width="6" />
    <path
       style="fill:none;stroke:#000000;stroke-width:2;stroke-linecap:square;stroke-linejoin:miter;stroke-miterlimit:4;stroke-dasharray:none;stroke-dashoffset:0;stroke-opacity:1;filter:url(#filter3243)"
       id="path3231"
       clip-path="url(#clipPath3235)"
       d="m 66,6 v 55 c 0,1.662 1.338,3 3,3 h 6 c 1.662,0 3,-1.338 3,-3 V 6 H 74 V 8 H 70 V 6 Z" />
    <path
       style="fill:url(#linearGradient932);fill-opacity:1;fill-rule:nonzero;stroke:#000000;stroke-width:0.5;stroke-linecap:square;stroke-linejoin:miter;stroke-miterlimit:4;stroke-dasharray:none;stroke-dashoffset:0;stroke-opacity:0.56363639"
       id="rect3249"
       d="M 69.5,51 C 69.230226,51 69,51.217964 69,51.5 v 3 c 0,0.282036 0.230229,0.5 0.5,0.5 h 1 C 70.769774,55 71,54.782036 71,54.5 V 54 h 1.5 c 0.277,0 0.5,-0.223 0.5,-0.5 v -1 C 73,52.223 72.777,52 72.5,52 H 71 V 51.5 C 71,51.217964 70.769771,51 70.5,51 Z" />
    <use
       xlink:href="#rect3249"
       height="96"
       width="96"
       y="0"
       x="0"
       id="use3308"
       transform="translate(0,-6)" />
    <use
       xlink:href="#use3308"
       height="96"
       width="96"
       y="0"
       x="0"
       id="use3310"
       transform="translate(0,-6)" />
    <use
       xlink:href="#use3310"
       height="96"
       width="96"
       y="0"
       x="0"
       id="use3312"
       transform="translate(0,-6)" />
    <use
       xlink:href="#use3312"
       height="96"
       width="96"
       y="0"
       x="0"
       id="use3314"
       transform="translate(0,-6)" />
    <use
       xlink:href="#use3314"
       height="96"
       width="96"
       y="0"
       x="0"
       id="use3316"
       transform="translate(0,-6)" />
    <use
       xlink:href="#use3316"
       height="96"
       width="96"
       y="0"
       x="0"
       id="use3318"
       transform="translate(0,-6)" />
    <use
       xlink:href="#use3318"
       height="96"
       width="96"
       y="0"
       x="0"
       id="use3320"
       transform="translate(0,-6)" />
    <path
       style="fill:url(#linearGradient934);fill-opacity:1;fill-rule:nonzero;stroke:#000000;stroke-width:0.5;stroke-linecap:square;stroke-linejoin:miter;stroke-miterlimit:4;stroke-dasharray:none;stroke-dashoffset:0;stroke-opacity:0.56363639"
       id="path3322"
       d="m 74.5,48 c 0.269774,0 0.5,0.217964 0.5,0.5 v 3 c 0,0.282036 -0.230229,0.5 -0.5,0.5 h -1 C 73.230226,52 73,51.782036 73,51.5 V 51 H 71.5 C 71.223,51 71,50.777 71,50.5 v -1 C 71,49.223 71.223,49 71.5,49 H 73 V 48.5 C 73,48.217964 73.230229,48 73.5,48 Z" />
    <use
       xlink:href="#path3322"
       height="96"
       width="96"
       y="0"
       x="0"
       id="use3340"
       transform="translate(0,-6)" />
    <use
       xlink:href="#use3340"
       height="96"
       width="96"
       y="0"
       x="0"
       id="use3342"
       transform="translate(0,-6)" />
    <use
       xlink:href="#use3342"
       height="96"
       width="96"
       y="0"
       x="0"
       id="use3344"
       transform="translate(0,-6)" />
    <use
       xlink:href="#use3344"
       height="96"
       width="96"
       y="0"
       x="0"
       id="use3346"
       transform="translate(0,-6)" />
    <use
       xlink:href="#use3346"
       height="96"
       width="96"
       y="0"
       x="0"
       id="use3348"
       transform="translate(0,-6)" />
    <use
       xlink:href="#use3348"
       height="96"
       width="96"
       y="0"
       x="0"
       id="use3350"
       transform="translate(0,-6)" />
    <path
       style="fill:url(#linearGradient3393);fill-opacity:1;fill-rule:nonzero;stroke:none"
       id="path3376"
       d="m 65,6 v 55 c 0,2.202295 1.797705,4 4,4 h 6 c 2.202295,0 4,-1.797705 4,-4 V 6 h -1 v 55 c 0,1.662 -1.338,3 -3,3 h -6 c -1.662,0 -3,-1.338 -3,-3 V 6 Z" />
    <path
       style="fill:#000000;fill-opacity:1;fill-rule:nonzero;stroke:#000000;stroke-width:0.49999994;stroke-linecap:square;stroke-linejoin:miter;stroke-miterlimit:4;stroke-dasharray:none;stroke-dashoffset:0;stroke-opacity:0.56363639;filter:url(#filter3429)"
       id="path3433"
       transform="translate(0,-2)"
       d="m 69.5,10.53125 c -1.027701,0 -1.96875,0.765203 -1.96875,1.8125 v 10.8125 C 67.531245,24.203555 68.449331,25 69.5,25 h 5 c 1.050668,0 1.96875,-0.796448 1.96875,-1.84375 v -10.8125 c -3e-6,-1.047297 -0.941051,-1.8125 -1.96875,-1.8125 z m 1.0625,9.0625 h 2.875 v 1.75 h -2.875 z" />
    <path
       style="fill:url(#linearGradient3516);fill-opacity:1;fill-rule:nonzero;stroke:none"
       id="rect3403"
       d="M 69.229249,9.021415 C 68.54211,9.021415 68,9.503785 68,10.102963 L 67.9949,20.918451 C 67.994922,21.51763 68.537034,22 69.224171,22 h 5.583221 c 0.687139,0 1.229249,-0.48237 1.229249,-1.081549 l 0.0051,-10.815488 c 0,-0.599178 -0.542112,-1.081548 -1.229249,-1.081548 h -5.583221 z m 0.704303,7.949648 h 4.101324 v 3.118378 h -4.101324 z" />
    <path
       style="fill:url(#linearGradient3489);fill-opacity:1;fill-rule:nonzero;stroke:none"
       id="rect3470"
       d="m 74.5625,9.96875 c 0.277,0 0.5,0.223 0.5,0.5 v 10.0625 c 0,0.277 -0.223,0.5 -0.5,0.5 h -5.09375 c -0.277,0 -0.499999,-0.223 -0.5,-0.5 v -10.0625 c 0,-0.277 0.223001,-0.5 0.5,-0.5 z M 74.125,16.9375 H 70 v 3.125 h 4.125 z" />
    <rect
       style="fill:url(#linearGradient3530);fill-opacity:1;fill-rule:nonzero;stroke:#000000;stroke-width:1;stroke-linecap:square;stroke-linejoin:miter;stroke-miterlimit:4;stroke-dasharray:none;stroke-dashoffset:0;stroke-opacity:0.56363639"
       id="rect3399"
       y="7.5"
       x="70.3106"
       ry="0.5"
       rx="0.56313455"
       height="5"
       width="3.3788073" />
    <rect
       style="opacity:0.3;fill:#000000;fill-opacity:1;fill-rule:nonzero;stroke:none"
       id="rect3518"
       y="16"
       x="69.984634"
       height="1"
       width="4" />
  </g>
</svg>
