<?xml version="1.0" encoding="UTF-8" standalone="no"?>
<svg
   xmlns:dc="http://purl.org/dc/elements/1.1/"
   xmlns:cc="http://creativecommons.org/ns#"
   xmlns:rdf="http://www.w3.org/1999/02/22-rdf-syntax-ns#"
   xmlns:svg="http://www.w3.org/2000/svg"
   xmlns="http://www.w3.org/2000/svg"
   width="16"
   height="16"
   version="1.1"
   id="svg6">
  <metadata
     id="metadata12">
    <rdf:RDF>
      <cc:Work
         rdf:about="">
        <dc:format>image/svg+xml</dc:format>
        <dc:type
           rdf:resource="http://purl.org/dc/dcmitype/StillImage" />
        <dc:title></dc:title>
      </cc:Work>
    </rdf:RDF>
  </metadata>
  <defs
     id="defs10" />
  <g
     fill="#2e3436"
     id="g4"
     style="fill:#bebebe;fill-opacity:1">
    <path
       d="M3 1C1.338 1 0 2.338 0 4v7c0 1.662 1.338 3 3 3h10c1.662 0 3-1.338 3-3V4c0-1.662-1.338-3-3-3zm0 2h10c.554 0 1 .446 1 1v7c0 .554-.446 1-1 1H3c-.554 0-1-.446-1-1V4c0-.554.446-1 1-1zM8 16c3 0 4-1 4-1H4s1 1 4 1z"
       id="path2"
       style="fill:#bebebe;fill-opacity:1" />
  </g>
</svg>
