<?xml version="1.0" encoding="UTF-8" standalone="no"?>
<svg
   xmlns:dc="http://purl.org/dc/elements/1.1/"
   xmlns:cc="http://creativecommons.org/ns#"
   xmlns:rdf="http://www.w3.org/1999/02/22-rdf-syntax-ns#"
   xmlns:svg="http://www.w3.org/2000/svg"
   xmlns="http://www.w3.org/2000/svg"
   xmlns:sodipodi="http://sodipodi.sourceforge.net/DTD/sodipodi-0.dtd"
   xmlns:inkscape="http://www.inkscape.org/namespaces/inkscape"
   width="16.014"
   height="16"
   version="1.1"
   id="svg14"
   sodipodi:docname="system-log-out-symbolic.svg"
   inkscape:version="0.92.4 (unknown)">
  <metadata
     id="metadata20">
    <rdf:RDF>
      <cc:Work
         rdf:about="">
        <dc:format>image/svg+xml</dc:format>
        <dc:type
           rdf:resource="http://purl.org/dc/dcmitype/StillImage" />
      </cc:Work>
    </rdf:RDF>
  </metadata>
  <defs
     id="defs18" />
  <sodipodi:namedview
     pagecolor="#ffffff"
     bordercolor="#666666"
     borderopacity="1"
     objecttolerance="10"
     gridtolerance="10"
     guidetolerance="10"
     inkscape:pageopacity="0"
     inkscape:pageshadow="2"
     inkscape:window-width="1920"
     inkscape:window-height="1010"
     id="namedview16"
     showgrid="false"
     inkscape:zoom="14.75"
     inkscape:cx="0.14259319"
     inkscape:cy="8"
     inkscape:window-x="0"
     inkscape:window-y="32"
     inkscape:window-maximized="1"
     inkscape:current-layer="svg14" />
  <g
     color="#000"
     fill="#2e3436"
     id="g12"
     style="fill:#bebebe;fill-opacity:1">
    <path
       d="M4 1s-.459-.014-.947.23C2.564 1.475 2 2.167 2 3v10c0 .833.564 1.525 1.053 1.77.488.244.947.23.947.23h8c.833 0 1.525-.564 1.77-1.053.244-.488.23-.947.23-.947v-2a1 1 0 1 0-2 0v2H4V3h8v2a1 1 0 1 0 2 0V3c0-.833-.564-1.525-1.053-1.77C12.46.986 12 1 12 1z"
       style="line-height:normal;font-variant-ligatures:normal;font-variant-position:normal;font-variant-caps:normal;font-variant-numeric:normal;font-variant-alternates:normal;font-feature-settings:normal;text-indent:0;text-align:start;text-decoration-line:none;text-decoration-style:solid;text-decoration-color:#000;text-transform:none;text-orientation:mixed;shape-padding:0;isolation:auto;mix-blend-mode:normal;fill:#bebebe;fill-opacity:1"
       font-weight="400"
       font-family="sans-serif"
       white-space="normal"
       overflow="visible"
       fill-rule="evenodd"
       id="path2" />
    <path
       d="M8.293 5.293L5.586 8l2.707 2.707 1.414-1.414L8.414 8l1.293-1.293z"
       style="line-height:normal;font-variant-ligatures:normal;font-variant-position:normal;font-variant-caps:normal;font-variant-numeric:normal;font-variant-alternates:normal;font-feature-settings:normal;text-indent:0;text-align:start;text-decoration-line:none;text-decoration-style:solid;text-decoration-color:#000;text-transform:none;text-orientation:mixed;shape-padding:0;isolation:auto;mix-blend-mode:normal;marker:none;fill:#bebebe;fill-opacity:1"
       font-weight="400"
       font-family="sans-serif"
       white-space="normal"
       overflow="visible"
       id="path4" />
    <path
       d="M9 10h1v1H9zM9 5h1v1H9z"
       style="marker:none;fill:#bebebe;fill-opacity:1"
       overflow="visible"
       id="path6" />
    <path
       d="M9 5c.554 0 1 .446 1 1s-.446 1-1 1-1-.446-1-1 .446-1 1-1zM9 9c.554 0 1 .446 1 1s-.446 1-1 1-1-.446-1-1 .446-1 1-1z"
       style="marker:none;fill:#bebebe;fill-opacity:1"
       overflow="visible"
       id="path8" />
    <path
       d="M8 7a1 1 0 1 0 0 2h7a1 1 0 1 0 0-2z"
       style="line-height:normal;font-variant-ligatures:normal;font-variant-position:normal;font-variant-caps:normal;font-variant-numeric:normal;font-variant-alternates:normal;font-feature-settings:normal;text-indent:0;text-align:start;text-decoration-line:none;text-decoration-style:solid;text-decoration-color:#000;text-transform:none;text-orientation:mixed;shape-padding:0;isolation:auto;mix-blend-mode:normal;fill:#bebebe;fill-opacity:1"
       font-weight="400"
       font-family="sans-serif"
       white-space="normal"
       overflow="visible"
       fill-rule="evenodd"
       id="path10" />
  </g>
</svg>
