<?xml version="1.0" encoding="UTF-8" standalone="no"?>
<svg
   xmlns:dc="http://purl.org/dc/elements/1.1/"
   xmlns:cc="http://creativecommons.org/ns#"
   xmlns:rdf="http://www.w3.org/1999/02/22-rdf-syntax-ns#"
   xmlns:svg="http://www.w3.org/2000/svg"
   xmlns="http://www.w3.org/2000/svg"
   xmlns:xlink="http://www.w3.org/1999/xlink"
   version="1.1"
   id="svg18157"
   height="16"
   width="16">
  <defs
     id="defs18159">
    <linearGradient
       y2="35.581654"
       x2="42.470848"
       y1="11.952797"
       x1="42.470848"
       gradientTransform="matrix(0.89189031,0,0,1.0580283,3.1206609,5.3536023)"
       gradientUnits="userSpaceOnUse"
       id="linearGradient12489"
       xlink:href="#linearGradient3454-2-5-0-3" />
    <linearGradient
       id="linearGradient3454-2-5-0-3">
      <stop
         id="stop3456-4-9-38-1"
         style="stop-color:#ffffff;stop-opacity:1"
         offset="0" />
      <stop
         id="stop3458-39-80-3-5"
         style="stop-color:#ffffff;stop-opacity:0.23529412"
         offset="0.0097359" />
      <stop
         id="stop3460-7-0-2-4"
         style="stop-color:#ffffff;stop-opacity:0.15686275"
         offset="0.99001008" />
      <stop
         id="stop3462-0-9-8-7"
         style="stop-color:#ffffff;stop-opacity:0.39215687"
         offset="1" />
    </linearGradient>
    <linearGradient
       y2="36.657963"
       x2="22.809399"
       y1="49.629246"
       x1="22.934725"
       gradientTransform="matrix(1.1446925,0,0,0.9977536,-3.466138,1.0988397)"
       gradientUnits="userSpaceOnUse"
       id="linearGradient12487"
       xlink:href="#linearGradient6129-963-697-142-998-580-273-44-2-2" />
    <linearGradient
       id="linearGradient6129-963-697-142-998-580-273-44-2-2">
      <stop
         offset="0"
         style="stop-color:#0a0a0a;stop-opacity:0.498"
         id="stop2661-01-6-2" />
      <stop
         offset="1"
         style="stop-color:#0a0a0a;stop-opacity:0"
         id="stop2663-64-5-5" />
    </linearGradient>
    <linearGradient
       y2="43.761127"
       x2="35.792694"
       y1="17.118193"
       x1="35.792694"
       gradientTransform="matrix(1,0,0,1.0357143,2.0849371e-6,-1.5890903)"
       gradientUnits="userSpaceOnUse"
       id="linearGradient12481"
       xlink:href="#linearGradient4632-0-6-4-7" />
    <linearGradient
       id="linearGradient4632-0-6-4">
      <stop
         id="stop4634-4-4-7"
         offset="0"
         style="stop-color:#aacb7d;stop-opacity:1;" />
      <stop
         id="stop4636-3-1-5"
         offset="1"
         style="stop-color:#709937;stop-opacity:1;" />
    </linearGradient>
    <radialGradient
       r="117.14286"
       fy="486.64789"
       fx="605.71429"
       cy="486.64789"
       cx="605.71429"
       gradientTransform="matrix(-0.03079083,0,0,0.02470588,23.389752,31.94164)"
       gradientUnits="userSpaceOnUse"
       id="radialGradient12475"
       xlink:href="#linearGradient5060-820-91-9-0" />
    <linearGradient
       id="linearGradient5060-820-91-9-0">
      <stop
         offset="0"
         style="stop-color:#000000;stop-opacity:1"
         id="stop2681-778-5-1" />
      <stop
         offset="1"
         style="stop-color:#000000;stop-opacity:0"
         id="stop2683-2-86-2" />
    </linearGradient>
    <radialGradient
       r="117.14286"
       fy="486.64789"
       fx="605.71429"
       cy="486.64789"
       cx="605.71429"
       gradientTransform="matrix(0.03079083,0,0,0.02470588,24.610252,31.94164)"
       gradientUnits="userSpaceOnUse"
       id="radialGradient12471"
       xlink:href="#linearGradient5060-179-37-4-0" />
    <linearGradient
       id="linearGradient5060-179-37-4-0">
      <stop
         offset="0"
         style="stop-color:#000000;stop-opacity:1"
         id="stop2675-91-9-2" />
      <stop
         offset="1"
         style="stop-color:#000000;stop-opacity:0"
         id="stop2677-09-0-9" />
    </linearGradient>
    <linearGradient
       y2="609.50507"
       x2="302.85715"
       y1="366.64789"
       x1="302.85715"
       gradientTransform="matrix(0.07938856,0,0,0.02470588,-4.6932879,31.94164)"
       gradientUnits="userSpaceOnUse"
       id="linearGradient12467"
       xlink:href="#linearGradient5048-585-73-1-5" />
    <linearGradient
       id="linearGradient5048-585-73-1-5">
      <stop
         offset="0"
         style="stop-color:#000000;stop-opacity:0"
         id="stop2667-99-4-6" />
      <stop
         offset="0.5"
         style="stop-color:#000000;stop-opacity:1"
         id="stop2669-5-9-4" />
      <stop
         offset="1"
         style="stop-color:#000000;stop-opacity:0"
         id="stop2671-56-4-2" />
    </linearGradient>
    <linearGradient
       y2="34.143417"
       x2="21.37039"
       y1="4.2476678"
       x1="21.37039"
       gradientTransform="matrix(0.89189031,0,0,1.0580283,3.1206621,5.3535997)"
       gradientUnits="userSpaceOnUse"
       id="linearGradient12463"
       xlink:href="#linearGradient4507-0-4-7" />
    <linearGradient
       id="linearGradient4507-0-4-7">
      <stop
         offset="0"
         style="stop-color:#ffffff;stop-opacity:1"
         id="stop4509-35-6-1" />
      <stop
         offset="0.07395859"
         style="stop-color:#ffffff;stop-opacity:0.23529412"
         id="stop4511-46-3-8" />
      <stop
         offset="0.99001008"
         style="stop-color:#ffffff;stop-opacity:0.15686275"
         id="stop4513-15-5-9" />
      <stop
         offset="1"
         style="stop-color:#ffffff;stop-opacity:0.39215687"
         id="stop4515-1-1-8" />
    </linearGradient>
    <linearGradient
       id="linearGradient4646-7-4-3">
      <stop
         id="stop4648-8-0-3"
         style="stop-color:#f9f9f9;stop-opacity:1"
         offset="0" />
      <stop
         id="stop4650-1-7-3"
         style="stop-color:#d8d8d8;stop-opacity:1"
         offset="1" />
    </linearGradient>
    <linearGradient
       id="linearGradient3104-8-8-97-4-6-11-5-5">
      <stop
         id="stop3106-5-4-3-5-0-2-1-0"
         style="stop-color:#000000;stop-opacity:0.32173914"
         offset="0" />
      <stop
         id="stop3108-4-3-7-8-2-0-7-9"
         style="stop-color:#000000;stop-opacity:0.27826086"
         offset="1" />
    </linearGradient>
    <linearGradient
       xlink:href="#linearGradient3104-8-8-97-4-6-11-5-5"
       id="linearGradient18155"
       gradientUnits="userSpaceOnUse"
       gradientTransform="matrix(0.80749834,0,0,0.83374395,106.87672,-0.06984031)"
       x1="-51.786404"
       y1="53.514328"
       x2="-51.786404"
       y2="3.6336823" />
    <linearGradient
       xlink:href="#linearGradient7012-661-145-733-759-865-745"
       id="linearGradient3840"
       x1="22.559322"
       y1="16.466301"
       x2="22.559322"
       y2="44.376751"
       gradientUnits="userSpaceOnUse" />
    <radialGradient
       xlink:href="#linearGradient3484"
       id="radialGradient3070"
       gradientUnits="userSpaceOnUse"
       gradientTransform="matrix(-1.274898e-8,1.7142916,-2.159331,-1.4599595e-8,12.809361,2.8570011)"
       cx="3"
       cy="5.01718"
       fx="3"
       fy="5.01718"
       r="21" />
    <linearGradient
       xlink:href="#linearGradient6404"
       id="linearGradient3068"
       gradientUnits="userSpaceOnUse"
       gradientTransform="translate(-50.940898)"
       x1="62.988873"
       y1="13.182598"
       x2="62.988873"
       y2="16.19013" />
    <linearGradient
       xlink:href="#linearGradient3390"
       id="linearGradient3061"
       gradientUnits="userSpaceOnUse"
       gradientTransform="translate(-53.765393,-0.1141929)"
       x1="82.453476"
       y1="45.114193"
       x2="65.340263"
       y2="15.943953" />
    <linearGradient
       xlink:href="#linearGradient6129-963-697-142-998-580-273"
       id="linearGradient3056"
       gradientUnits="userSpaceOnUse"
       gradientTransform="matrix(1.1446925,0,0,0.9977536,-3.4661413,1.0988425)"
       x1="22.934725"
       y1="49.629246"
       x2="22.809399"
       y2="36.657963" />
    <radialGradient
       xlink:href="#linearGradient6087-437-184-795-110-662-495"
       id="radialGradient3053"
       gradientUnits="userSpaceOnUse"
       gradientTransform="matrix(0,1.2079744,-1.6271642,0,26.371748,8.2664685)"
       cx="7.2646537"
       cy="8.3021259"
       fx="7.2646537"
       fy="8.3021259"
       r="20.979567" />
    <linearGradient
       xlink:href="#linearGradient8265-821-176-38-919-66-249"
       id="linearGradient3050"
       gradientUnits="userSpaceOnUse"
       x1="11.566265"
       y1="22.292103"
       x2="15.214532"
       y2="33.95525" />
    <linearGradient
       x1="11.566265"
       y1="22.292103"
       x2="15.214532"
       y2="33.95525"
       id="linearGradient3466"
       xlink:href="#linearGradient8265-821-176-38-919-66-249"
       gradientUnits="userSpaceOnUse" />
    <linearGradient
       id="linearGradient8265-821-176-38-919-66-249">
      <stop
         id="stop2687"
         style="stop-color:#ffffff;stop-opacity:0.2"
         offset="0" />
      <stop
         id="stop2689"
         style="stop-color:#ffffff;stop-opacity:0"
         offset="1" />
    </linearGradient>
    <radialGradient
       cx="7.2646537"
       cy="8.3021259"
       r="20.979567"
       fx="7.2646537"
       fy="8.3021259"
       id="radialGradient2442-940-759"
       xlink:href="#linearGradient6087-437-184-795-110-662-495"
       gradientUnits="userSpaceOnUse"
       gradientTransform="matrix(0,1.2079744,-1.6271642,0,26.371748,8.2664685)" />
    <linearGradient
       id="linearGradient6087-437-184-795-110-662-495">
      <stop
         id="stop2693"
         style="stop-color:#ffffff;stop-opacity:0.40000001"
         offset="0" />
      <stop
         id="stop2695"
         style="stop-color:#ffffff;stop-opacity:0"
         offset="1" />
    </linearGradient>
    <linearGradient
       x1="22.934725"
       y1="49.629246"
       x2="22.809399"
       y2="36.657963"
       id="linearGradient6462-657-405"
       xlink:href="#linearGradient6129-963-697-142-998-580-273"
       gradientUnits="userSpaceOnUse"
       gradientTransform="matrix(1.1446925,0,0,0.9977536,-3.4661413,1.0988425)" />
    <linearGradient
       id="linearGradient6129-963-697-142-998-580-273">
      <stop
         id="stop2661"
         style="stop-color:#0a0a0a;stop-opacity:0.498"
         offset="0" />
      <stop
         id="stop2663"
         style="stop-color:#0a0a0a;stop-opacity:0"
         offset="1" />
    </linearGradient>
    <radialGradient
       cx="63.969177"
       cy="14.113381"
       r="23.097054"
       fx="63.969177"
       fy="14.113381"
       id="radialGradient3404"
       xlink:href="#linearGradient7012-661-145-733-759-865-745"
       gradientUnits="userSpaceOnUse"
       gradientTransform="matrix(1.5646925,-9.5143002e-8,6.1772287e-8,1.015888,-86.212573,8.1461173)" />
    <linearGradient
       id="linearGradient7012-661-145-733-759-865-745">
      <stop
         id="stop2699"
         style="stop-color:#aacb7d;stop-opacity:1"
         offset="0" />
      <stop
         id="stop2701"
         style="stop-color:#709937;stop-opacity:1"
         offset="1" />
    </linearGradient>
    <linearGradient
       x1="82.453476"
       y1="45.114193"
       x2="65.340263"
       y2="15.943953"
       id="linearGradient3412"
       xlink:href="#linearGradient3390"
       gradientUnits="userSpaceOnUse"
       gradientTransform="translate(-53.765393,-0.1141929)" />
    <linearGradient
       id="linearGradient3390">
      <stop
         id="stop3392"
         style="stop-color:#51751e;stop-opacity:1"
         offset="0" />
      <stop
         id="stop3394"
         style="stop-color:#51751e;stop-opacity:1"
         offset="1" />
    </linearGradient>
    <linearGradient
       x1="302.85715"
       y1="366.64789"
       x2="302.85715"
       y2="609.50507"
       id="linearGradient7596-975"
       xlink:href="#linearGradient5048-585"
       gradientUnits="userSpaceOnUse"
       gradientTransform="matrix(0.08284024,0,0,0.03705882,-5.9408285,25.412461)" />
    <linearGradient
       id="linearGradient5048-585">
      <stop
         id="stop2667"
         style="stop-color:#000000;stop-opacity:0"
         offset="0" />
      <stop
         id="stop2669"
         style="stop-color:#000000;stop-opacity:1"
         offset="0.5" />
      <stop
         id="stop2671"
         style="stop-color:#000000;stop-opacity:0"
         offset="1" />
    </linearGradient>
    <radialGradient
       cx="605.71429"
       cy="486.64789"
       r="117.14286"
       fx="605.71429"
       fy="486.64789"
       id="radialGradient7598-526"
       xlink:href="#linearGradient5060-179"
       gradientUnits="userSpaceOnUse"
       gradientTransform="matrix(0.03212956,0,0,0.03705882,24.636785,25.412461)" />
    <linearGradient
       id="linearGradient5060-179">
      <stop
         id="stop2675"
         style="stop-color:#000000;stop-opacity:1"
         offset="0" />
      <stop
         id="stop2677"
         style="stop-color:#000000;stop-opacity:0"
         offset="1" />
    </linearGradient>
    <radialGradient
       cx="605.71429"
       cy="486.64789"
       r="117.14286"
       fx="605.71429"
       fy="486.64789"
       id="radialGradient7600-312"
       xlink:href="#linearGradient5060-820"
       gradientUnits="userSpaceOnUse"
       gradientTransform="matrix(-0.03212956,0,0,0.03705882,23.363215,25.412461)" />
    <linearGradient
       id="linearGradient5060-820">
      <stop
         id="stop2681"
         style="stop-color:#000000;stop-opacity:1"
         offset="0" />
      <stop
         id="stop2683"
         style="stop-color:#000000;stop-opacity:0"
         offset="1" />
    </linearGradient>
    <linearGradient
       x1="62.988873"
       y1="13.182598"
       x2="62.988873"
       y2="16.19013"
       id="linearGradient3482"
       xlink:href="#linearGradient6404"
       gradientUnits="userSpaceOnUse"
       gradientTransform="translate(-50.940898)" />
    <linearGradient
       id="linearGradient6404">
      <stop
         id="stop6406"
         style="stop-color:#f9f9f9;stop-opacity:1"
         offset="0" />
      <stop
         id="stop6408"
         style="stop-color:#c9c9c9;stop-opacity:1"
         offset="1" />
    </linearGradient>
    <radialGradient
       cx="3"
       cy="5.01718"
       r="21"
       fx="3"
       fy="5.01718"
       id="radialGradient3470"
       xlink:href="#linearGradient3484"
       gradientUnits="userSpaceOnUse"
       gradientTransform="matrix(-1.274898e-8,1.7142916,-2.159331,-1.4599595e-8,12.809361,2.8570011)" />
    <linearGradient
       id="linearGradient3484">
      <stop
         id="stop3486"
         style="stop-color:#bdbdbd;stop-opacity:1"
         offset="0" />
      <stop
         id="stop3488"
         style="stop-color:#d0d0d0;stop-opacity:1"
         offset="1" />
    </linearGradient>
    <linearGradient
       x1="86.132919"
       y1="105.105"
       x2="84.63858"
       y2="20.895"
       id="linearGradient2606"
       xlink:href="#linearGradient5128"
       gradientUnits="userSpaceOnUse"
       gradientTransform="matrix(0.2014014,0,0,0.2014015,18.110304,20.311705)" />
    <linearGradient
       id="linearGradient5128">
      <stop
         id="stop5130"
         style="stop-color:#ffffff;stop-opacity:1"
         offset="0" />
      <stop
         id="stop5132"
         style="stop-color:#959595;stop-opacity:1"
         offset="1" />
    </linearGradient>
    <linearGradient
       x1="32.036148"
       y1="19"
       x2="32.036148"
       y2="47.012184"
       id="linearGradient3413"
       xlink:href="#linearGradient3309"
       gradientUnits="userSpaceOnUse" />
    <linearGradient
       x1="63.9995"
       y1="3.1001"
       x2="63.9995"
       y2="122.8994"
       id="linearGradient3309"
       gradientUnits="userSpaceOnUse">
      <stop
         id="stop3311"
         style="stop-color:#f6f6f6;stop-opacity:1"
         offset="0" />
      <stop
         id="stop3313"
         style="stop-color:#d2d2d2;stop-opacity:1"
         offset="1" />
    </linearGradient>
    <linearGradient
       x1="25.922546"
       y1="19"
       x2="25.922546"
       y2="47.044857"
       id="linearGradient3415"
       xlink:href="#linearGradient3397"
       gradientUnits="userSpaceOnUse" />
    <linearGradient
       id="linearGradient3397">
      <stop
         id="stop3399"
         style="stop-color:#a0a0a0;stop-opacity:1"
         offset="0" />
      <stop
         id="stop3401"
         style="stop-color:#787878;stop-opacity:1"
         offset="1" />
    </linearGradient>
    <linearGradient
       y2="36.599415"
       x2="22.934725"
       y1="49.629246"
       x1="22.934725"
       gradientTransform="matrix(2.2041262,0,0,1.9531236,44.81525,2.9681362)"
       gradientUnits="userSpaceOnUse"
       id="linearGradient5887"
       xlink:href="#linearGradient6129-963-697-142-998-580-273-44-2-2" />
    <linearGradient
       y2="119.05979"
       x2="-91"
       y1="43.999817"
       x1="-91"
       gradientTransform="matrix(0.72580649,0,0,0.74516186,116.81336,18.325446)"
       gradientUnits="userSpaceOnUse"
       id="linearGradient5883"
       xlink:href="#linearGradient4632-0-6-4-7" />
    <linearGradient
       id="linearGradient4632-0-6-4-7">
      <stop
         id="stop4634-4-4-7-5"
         offset="0"
         style="stop-color:#55a7f3;stop-opacity:1;" />
      <stop
         id="stop4636-3-1-5-3"
         offset="1"
         style="stop-color:#1374cf;stop-opacity:1;" />
    </linearGradient>
    <linearGradient
       id="linearGradient3225"
       y2="5.4565001"
       gradientUnits="userSpaceOnUse"
       x2="36.358002"
       gradientTransform="matrix(0.68673263,0,0,0.69909319,-3.6949727,22.217352)"
       y1="8.059"
       x1="32.891998">
      <stop
         id="stop8591"
         style="stop-color:#40ad78;stop-opacity:1"
         offset="0" />
      <stop
         id="stop8593"
         style="stop-color:#008150;stop-opacity:1"
         offset="1" />
    </linearGradient>
    <radialGradient
       gradientTransform="matrix(0.2951992,0,0,0.25507295,-0.1707791,21.999592)"
       gradientUnits="userSpaceOnUse"
       xlink:href="#linearGradient3737"
       id="radialGradient3619-6"
       fy="90.171875"
       fx="48"
       r="42"
       cy="90.171875"
       cx="48" />
    <linearGradient
       id="linearGradient3737">
      <stop
         id="stop3739"
         style="stop-color:#ffffff;stop-opacity:1"
         offset="0" />
      <stop
         id="stop3741"
         style="stop-color:#ffffff;stop-opacity:0"
         offset="1" />
    </linearGradient>
    <linearGradient
       gradientTransform="matrix(0,-0.32521809,0.25507296,0,1.7552829,46.951309)"
       gradientUnits="userSpaceOnUse"
       xlink:href="#linearGradient3742"
       id="linearGradient3748"
       y2="51.433136"
       x2="23.76619"
       y1="51.470146"
       x1="7.3709002" />
    <linearGradient
       id="linearGradient3742">
      <stop
         offset="0"
         style="stop-color:#004d28;stop-opacity:1"
         id="stop3744" />
      <stop
         offset="1"
         style="stop-color:#005a3c;stop-opacity:1"
         id="stop3746" />
    </linearGradient>
    <linearGradient
       gradientTransform="matrix(0.42857142,0,0,0.42857142,227.50536,-101.23132)"
       gradientUnits="userSpaceOnUse"
       xlink:href="#ButtonColor-7"
       id="linearGradient3617"
       y2="5.9877172"
       x2="48"
       y1="90"
       x1="48" />
    <linearGradient
       gradientUnits="userSpaceOnUse"
       id="ButtonColor-7"
       y2="0.99929649"
       x2="10.31979"
       y1="21"
       x1="10.31979">
      <stop
         offset="0"
         style="stop-color:#006f46;stop-opacity:1"
         id="stop3189" />
      <stop
         offset="1"
         style="stop-color:#178e63;stop-opacity:1"
         id="stop3191" />
    </linearGradient>
    <linearGradient
       gradientTransform="matrix(0.4285717,0,0,0.43033246,227.50536,-101.24189)"
       y2="63.893143"
       x2="36.357143"
       y1="6"
       x1="36.357143"
       gradientUnits="userSpaceOnUse"
       id="linearGradient2015"
       xlink:href="#linearGradient3737" />
    <linearGradient
       y2="90.238609"
       x2="32.251034"
       y1="6.1317081"
       x1="32.251034"
       gradientTransform="matrix(0.88966473,0,0,-0.88897608,103.82866,91.764071)"
       gradientUnits="userSpaceOnUse"
       id="linearGradient1974"
       xlink:href="#ButtonShadow-0" />
    <linearGradient
       x1="45.447727"
       y1="92.539597"
       x2="45.447727"
       y2="7.0165396"
       id="ButtonShadow-0"
       gradientUnits="userSpaceOnUse"
       gradientTransform="matrix(1.0058652,0,0,0.994169,100,0)">
      <stop
         id="stop3750-8"
         style="stop-color:#000000;stop-opacity:1"
         offset="0" />
      <stop
         id="stop3752-5-4"
         style="stop-color:#000000;stop-opacity:0.58823532"
         offset="1" />
    </linearGradient>
    <linearGradient
       y2="90.238609"
       x2="32.251034"
       y1="6.1317081"
       x1="32.251034"
       gradientTransform="matrix(0.88668581,0,0,-0.88621557,103.97166,91.631566)"
       gradientUnits="userSpaceOnUse"
       id="linearGradient1976"
       xlink:href="#ButtonShadow-0" />
    <linearGradient
       y2="90.238609"
       x2="32.251034"
       y1="6.1317081"
       x1="32.251034"
       gradientTransform="matrix(0.90932204,0,0,-0.90907903,1.839706,90.567956)"
       gradientUnits="userSpaceOnUse"
       id="linearGradient1978"
       xlink:href="#ButtonShadow-0" />
    <linearGradient
       x1="32.251034"
       y1="6.1317081"
       x2="32.251034"
       y2="90.238609"
       id="linearGradient3780"
       xlink:href="#ButtonShadow-0"
       gradientUnits="userSpaceOnUse"
       gradientTransform="matrix(0.88394566,0,0,-0.88394572,10.163169,89.361561)" />
    <linearGradient
       x1="32.251034"
       y1="6.1317081"
       x2="32.251034"
       y2="90.238609"
       id="linearGradient3721-0"
       xlink:href="#ButtonShadow-0"
       gradientUnits="userSpaceOnUse"
       gradientTransform="matrix(0.83742219,0,0,-0.8374222,12.396274,87.12843)" />
    <linearGradient
       id="linearGradient3225-6"
       y2="5.4565001"
       gradientUnits="userSpaceOnUse"
       x2="36.358002"
       gradientTransform="matrix(1.1538423,0,0,1.1746103,-7.1476824,6.2923109)"
       y1="8.059"
       x1="32.891998">
      <stop
         id="stop8591-7"
         style="stop-color:#497db8;stop-opacity:1"
         offset="0" />
      <stop
         id="stop8593-5"
         style="stop-color:#276096;stop-opacity:1"
         offset="1" />
    </linearGradient>
  </defs>
  <metadata
     id="metadata18162">
    <rdf:RDF>
      <cc:Work
         rdf:about="">
        <dc:format>image/svg+xml</dc:format>
        <dc:type
           rdf:resource="http://purl.org/dc/dcmitype/StillImage" />
        <dc:title></dc:title>
      </cc:Work>
    </rdf:RDF>
  </metadata>
  <g
     id="layer1"
     transform="matrix(0.7,0,0,0.7,-1.7999998,-16.5)">
    <g
       style="display:inline"
       id="layer5"
       transform="matrix(0.30783438,0,0,0.30783438,-2.1897965,20.552665)">
      <path
         id="rect3723"
         d="m 21.510559,84.057885 h 62.16399 c 3.34823,0 6.04372,-2.727212 6.04372,-6.114824 V 38.904982 L 60.619729,9.8064506 h -39.10917 c -3.34822,0 -6.04372,2.7272114 -6.04372,6.1148244 v 62.021786 c 0,3.387612 2.6955,6.114824 6.04372,6.114824 z"
         style="display:inline;opacity:0.63;fill:url(#linearGradient3780);fill-opacity:1;fill-rule:nonzero;stroke:none;stroke-width:0.86845267" />
    </g>
    <g
       id="layer1-3"
       transform="matrix(0.59517027,0,0,0.59517032,-133.64915,82.293312)"
       style="opacity:1">
      <path
         id="rect2419-1"
         d="m 232.64822,-98.6599 h 19.54285 l 13.88572,13.885715 v 19.542857 c 0,1.424571 -1.14685,2.571428 -2.57143,2.571428 h -30.85714 c -1.42458,0 -2.57143,-1.146857 -2.57143,-2.571428 v -30.857144 c 0,-1.424571 1.14685,-2.571428 2.57143,-2.571428 z"
         style="fill:url(#linearGradient3617);fill-opacity:1;fill-rule:nonzero;stroke:none;stroke-width:0.42857143" />
      <path
         style="opacity:0.3;fill:url(#linearGradient2015);fill-opacity:1;fill-rule:nonzero;stroke:none;stroke-width:0.4294512"
         id="rect3728-7"
         d="m 232.64822,-98.6599 c -1.42457,0 -2.57143,1.151568 -2.57143,2.581998 v 0.860662 28.234034 c 1.98322,4.185183 0.51348,2.977317 0.42857,0.430332 v -28.09486 -0.860668 c 0,-1.197119 0.95064,-2.151664 2.14286,-2.151664 h 0.85715 17.82858 0.85715 l 13.45714,13.326778 v 0.860667 16.919747 c -1.2063,3.165148 0.42855,3.584963 0.42855,-0.430333 v -16.919747 -0.860668 L 252.19108,-98.6599 Z" />
    </g>
    <path
       id="path4474-3-5"
       style="opacity:0.2;fill:#000000;fill-opacity:1;fill-rule:evenodd;stroke-width:0.56881213"
       d="m 13.460156,23.574305 c 1.892484,0 0.741329,8.506605 0.741329,8.506605 0,0 10.512399,-1.113452 10.512399,2.371481 0,-0.848902 -0.002,-2.614157 -0.002,-2.614157 l -8.264401,-8.264365 z" />
    <path
       style="color:#000000;display:inline;overflow:visible;visibility:visible;opacity:1;fill:url(#linearGradient3748);fill-opacity:1;fill-rule:nonzero;stroke:none;stroke-width:0.43202695;marker:none;enable-background:accumulate"
       id="rect3736"
       d="M 3.2857204,43.048691 C 3.2857204,44.129716 3.9682956,45 4.8161585,45 H 23.181412 c 0.847863,0 1.530438,-0.870284 1.530438,-1.951309 V 39.285714 H 3.2857204 Z" />
    <path
       style="opacity:0.2;fill:url(#radialGradient3619-6);fill-opacity:1;fill-rule:nonzero;stroke:none;stroke-width:0.25559649"
       id="path3615-2"
       d="M 4.816158,45 C 3.9682956,45 3.2857204,44.31462 3.2857204,43.463273 v -0.595058 c 0.010437,-3.114206 0.255072,-3.180616 0.255072,-0.256136 v 0.512242 c 0,0.712489 0.5657905,1.280605 1.2753656,1.280605 h 0.5101471 17.3449539 0.510147 c 0.709576,0 1.275366,-0.568116 1.275366,-1.280605 v -0.512242 c 0.02504,-3.471899 0.255078,-2.283853 0.255078,0.256121 v 0.595058 C 24.711844,44.31462 24.029269,45 23.181406,45 Z" />
    <g
       aria-label="DOC"
       transform="matrix(1.0042229,0,0,0.9957949,-16.0339,-23.152542)"
       style="font-style:normal;font-weight:normal;font-size:39.83179474px;line-height:1.25;font-family:sans-serif;letter-spacing:0px;word-spacing:0px;fill:#000000;fill-opacity:1;stroke:none;stroke-width:0.99579489"
       id="text1540" />
    <path
       id="path4474-3"
       style="opacity:0.2;fill:#000000;fill-opacity:1;fill-rule:evenodd;stroke-width:0.5377692"
       d="m 14.163648,23.573869 c 1.789201,0 0.69371,7.880154 0.69371,7.880154 0,0 3.488495,-0.415245 6.314417,-0.05772 1.923803,0.243391 3.540539,0.844919 3.540539,2.179404 0,-0.802577 -4.64e-4,-1.737474 -4.64e-4,-1.737474 l -8.264367,-8.264364 z" />
    <path
       id="path4474"
       style="fill:url(#linearGradient3225);fill-rule:evenodd;stroke-width:0.5066871"
       d="m 15.007914,23.579044 c 1.685788,0 0.607213,7.279305 0.607213,7.279305 0,0 9.099163,-1.117886 9.099163,1.986428 0,-0.756187 -0.0024,-1.006543 -0.0024,-1.006543 l -8.264407,-8.264365 z" />
    <g
       id="g1052"
       transform="matrix(0.19502682,0,0,0.19502682,1.8706285,22.076881)">
      <path
         style="color:#000000;display:inline;overflow:visible;visibility:visible;opacity:0.5;fill:#b6dea9;fill-opacity:1;fill-rule:nonzero;stroke:none;stroke-width:1;marker:none;enable-background:accumulate"
         id="path3764"
         d="m 46.571852,15.913289 c -17.673112,0 -32,14.326888 -32,32 0,17.673112 14.326888,32 32,32 h 70.548888 v -6 H 46.571852 c -14.359403,0 -26,-11.640597 -26,-26 0,-14.359403 11.640597,-26 26,-26 z" />
      <path
         style="color:#000000;display:inline;overflow:visible;visibility:visible;opacity:0.75;fill:#b6dea9;fill-opacity:1;fill-rule:nonzero;stroke:none;stroke-width:1;marker:none;enable-background:accumulate"
         id="path3760"
         d="m 46.571852,23.913289 c -13.254834,0 -24,10.745166 -24,24 0,13.254834 10.745166,24 24,24 h 70.548888 v -6 H 46.571852 c -9.941125,0 -18,-8.058875 -18,-18 0,-9.941125 8.058875,-18 18,-18 2.415505,0 4.707857,0.480768 6.8125,1.34375 l 2.28125,-5.5625 c -2.887691,-1.183132 -5.973083,-1.78125 -9.09375,-1.78125 z" />
      <path
         style="color:#000000;display:inline;overflow:visible;visibility:visible;fill:#b6dea9;fill-opacity:1;fill-rule:nonzero;stroke:none;stroke-width:1;marker:none;enable-background:accumulate"
         id="path3756"
         d="m 46.571852,31.913289 c -8.836556,0 -16,7.163444 -16,16 0,8.836556 7.163444,16 16,16 h 70.548888 v -6 H 46.571852 c -5.522847,0 -10,-4.477153 -10,-10 0,-5.522847 4.477153,-10 10,-10 2.761424,0 5.252856,1.127856 7.0625,2.9375 l 4.25,-4.25 c -3.000582,-3.000582 -7.069036,-4.6875 -11.3125,-4.6875 z" />
      <path
         style="color:#000000;display:inline;overflow:visible;visibility:visible;opacity:0.15;fill:#2c5e10;fill-opacity:1;fill-rule:nonzero;stroke:none;stroke-width:1;marker:none;enable-background:accumulate"
         id="path3804"
         d="m 46.571852,15.913289 c -17.673112,0 -32,14.326888 -32,32 0,17.673112 14.326888,32 32,32 h 70.548888 v -1 h -0.96875 v 0.03125 H 46.571852 c -17.154178,0 -31.03125,-13.877072 -31.03125,-31.03125 0,-16.821921 13.368648,-30.413929 30.0625,-30.9375 v 4.0625 c -14.421025,0.521297 -26,12.327778 -26,26.875 0,14.878338 12.090412,26.96875 26.96875,26.96875 h 69.580138 v 0.03125 h 0.96875 v -1 H 46.571852 c -14.359403,0 -26,-11.640597 -26,-26 0,-14.359403 11.640597,-26 26,-26 z m 0,8 c -13.254834,0 -24,10.745166 -24,24 0,13.254834 10.745166,24 24,24 h 70.548888 v -1 h -0.96875 v 0.03125 H 46.571852 c -12.7359,0 -23.03125,-10.29535 -23.03125,-23.03125 0,-12.7359 10.29535,-23.03125 23.03125,-23.03125 2.679707,0 5.30136,0.498136 7.8125,1.40625 l -1.5625,3.8125 c -1.962649,-0.690512 -4.050116,-1.15625 -6.25,-1.15625 -10.46006,0 -18.96875,8.50869 -18.96875,18.96875 0,10.46006 8.50869,18.96875 18.96875,18.96875 h 69.580138 v 0.03125 h 0.96875 v -1 H 46.571852 c -9.941125,0 -18,-8.058875 -18,-18 0,-9.941125 8.058875,-18 18,-18 2.415505,0 4.707857,0.480768 6.8125,1.34375 l 2.28125,-5.5625 c -2.887691,-1.183132 -5.973083,-1.78125 -9.09375,-1.78125 z m 0,8 c -8.836556,0 -16,7.163444 -16,16 0,8.836556 7.163444,16 16,16 h 70.548888 v -1 h -0.96875 v 0.03125 H 46.571852 c -8.317622,0 -15.03125,-6.713628 -15.03125,-15.03125 0,-8.317622 6.713628,-15.03125 15.03125,-15.03125 3.65929,0 7.140411,1.383022 9.875,3.78125 l -2.9375,2.9375 c -1.899178,-1.588333 -4.269169,-2.65625 -6.9375,-2.65625 -6.041782,0 -10.96875,4.926968 -10.96875,10.96875 0,6.041782 4.926968,10.96875 10.96875,10.96875 h 69.580138 v 0.03125 h 0.96875 v -1 H 46.571852 c -5.522847,0 -10,-4.477153 -10,-10 0,-5.522847 4.477153,-10 10,-10 2.761424,0 5.252856,1.127856 7.0625,2.9375 l 4.25,-4.25 c -3.000582,-3.000582 -7.069036,-4.6875 -11.3125,-4.6875 z" />
      <path
         style="color:#000000;display:inline;overflow:visible;visibility:visible;opacity:0.2;fill:#2b5c10;fill-opacity:1;fill-rule:nonzero;stroke:none;stroke-width:1;marker:none;enable-background:accumulate"
         id="path3794"
         d="m 46.571852,15.913289 c -17.673112,0 -32,14.326888 -32,32 0,0.166668 -0.0025,0.333936 0,0.5 0.266707,-17.442958 14.493556,-31.5 32,-31.5 z m 0,8 c -13.254834,0 -24,10.745166 -24,24 0,0.165582 -0.0033,0.335217 0,0.5 0.263839,-13.026064 10.910748,-23.5 24,-23.5 2.998381,0 5.960818,0.563551 8.75,1.65625 l 0.34375,-0.875 c -2.887691,-1.183132 -5.973083,-1.78125 -9.09375,-1.78125 z m 0,8 c -8.836556,0 -16,7.163444 -16,16 0,0.169981 0.02599,0.331297 0.03125,0.5 0.268299,-8.601453 7.302175,-15.5 15.96875,-15.5 4.007625,0 7.837935,1.523923 10.78125,4.21875 l 0.53125,-0.53125 c -3.000582,-3.000582 -7.069036,-4.6875 -11.3125,-4.6875 z m -26,16.5 c -0.0031,0.166131 0,0.33312 0,0.5 0,14.359403 11.640597,26 26,26 h 70.548888 v -1 H 46.571852 c -14.192523,0 -25.73377,-11.371127 -26,-25.5 z m 8.03125,0 c -0.0046,0.16748 -0.03125,0.331407 -0.03125,0.5 0,9.941125 8.058875,18 18,18 h 70.548888 v -1 H 46.571852 c -9.772532,0 -17.701788,-7.791975 -17.96875,-17.5 z m 8,0 c -0.0081,0.165362 -0.03125,0.332622 -0.03125,0.5 0,5.522847 4.477153,10 10,10 h 70.548888 v -1 H 46.571852 c -5.355469,0 -9.708657,-4.209049 -9.96875,-9.5 z" />
      <path
         style="color:#000000;display:inline;overflow:visible;visibility:visible;opacity:0.6;fill:#3eb66a;fill-opacity:1;fill-rule:nonzero;stroke:none;stroke-width:1;marker:none;enable-background:accumulate"
         id="path3799"
         d="m 46.571852,21.913289 c -14.359403,0 -26,11.640597 -26,26 0,0.16688 -0.0031,0.333869 0,0.5 0.26623,-14.128873 11.807477,-25.5 26,-25.5 z m 8.75,4.65625 -1.9375,4.6875 c -2.104643,-0.862982 -4.396995,-1.34375 -6.8125,-1.34375 -9.941125,0 -18,8.058875 -18,18 0,0.168593 0.02664,0.33252 0.03125,0.5 0.266962,-9.708025 8.196218,-17.5 17.96875,-17.5 2.415505,0 4.707857,0.480768 6.8125,1.34375 l 2.28125,-5.5625 c -0.113156,-0.04636 -0.229996,-0.08044 -0.34375,-0.125 z m 2.03125,10.5625 -3.71875,3.71875 c -1.809644,-1.809644 -4.301076,-2.9375 -7.0625,-2.9375 -5.522847,0 -10,4.477153 -10,10 0,0.167378 0.02312,0.334638 0.03125,0.5 0.260093,-5.290951 4.613281,-9.5 9.96875,-9.5 2.761424,0 5.252856,1.127856 7.0625,2.9375 l 4.25,-4.25 c -0.166763,-0.166763 -0.358043,-0.310166 -0.53125,-0.46875 z m -42.78125,11.28125 c -0.0025,0.166064 0,0.333332 0,0.5 0,17.673112 14.326888,32 32,32 h 70.548888 v -1 H 46.571852 c -17.506444,0 -31.733293,-14.057042 -32,-31.5 z m 8,0 c -0.0033,0.164783 0,0.334418 0,0.5 0,13.254834 10.745166,24 24,24 h 70.548888 v -1 H 46.571852 c -13.089252,0 -23.736161,-10.473936 -24,-23.5 z m 8.03125,0 c -0.0053,0.168703 -0.03125,0.330019 -0.03125,0.5 0,8.836556 7.163444,16 16,16 h 70.548888 v -1 H 46.571852 c -8.666575,0 -15.700451,-6.898547 -15.96875,-15.5 z" />
    </g>
  </g>
  <path
     style="opacity:0.3;fill:#000000;fill-opacity:1;stroke:none;stroke-width:0.15410367;stroke-linejoin:round;stroke-miterlimit:4;stroke-dasharray:none;stroke-dashoffset:0;stroke-opacity:1;paint-order:stroke fill markers"
     d="M 0.50000434,11 H 15.498295 v 1 H 0.50000434 Z"
     id="rect1270" />
</svg>
