<?xml version="1.0" encoding="UTF-8" standalone="no"?>
<svg
   xmlns:dc="http://purl.org/dc/elements/1.1/"
   xmlns:cc="http://creativecommons.org/ns#"
   xmlns:rdf="http://www.w3.org/1999/02/22-rdf-syntax-ns#"
   xmlns:svg="http://www.w3.org/2000/svg"
   xmlns="http://www.w3.org/2000/svg"
   xmlns:xlink="http://www.w3.org/1999/xlink"
   style="display:inline"
   id="svg2408"
   height="16"
   width="16"
   version="1.0">
  <defs
     id="defs2410">
    <linearGradient
       id="linearGradient1054">
      <stop
         id="stop1048"
         style="stop-color:#818181;stop-opacity:1"
         offset="0" />
      <stop
         id="stop1050"
         style="stop-color:#f9f9f9;stop-opacity:1"
         offset="0.2" />
      <stop
         id="stop1052"
         style="stop-color:#dcdcdc;stop-opacity:0"
         offset="1" />
    </linearGradient>
    <linearGradient
       id="linearGradient3329">
      <stop
         offset="0"
         style="stop-color:#a2a2a2;stop-opacity:1"
         id="stop3331" />
      <stop
         offset="1"
         style="stop-color:#ffffff;stop-opacity:1"
         id="stop3333" />
    </linearGradient>
    <linearGradient
       id="linearGradient3321">
      <stop
         offset="0"
         style="stop-color:#818181;stop-opacity:1"
         id="stop3323" />
      <stop
         offset="0.2"
         style="stop-color:#f9f9f9;stop-opacity:1"
         id="stop3325" />
      <stop
         offset="1"
         style="stop-color:#dcdcdc;stop-opacity:0"
         id="stop3327" />
    </linearGradient>
    <linearGradient
       id="linearGradient3315">
      <stop
         offset="0"
         style="stop-color:#b4b4b4;stop-opacity:1"
         id="stop3317" />
      <stop
         offset="1"
         style="stop-color:#dcdcdc;stop-opacity:1"
         id="stop3319" />
    </linearGradient>
    <linearGradient
       id="linearGradient3604">
      <stop
         offset="0"
         style="stop-color:#2f2f2f;stop-opacity:1"
         id="stop3606" />
      <stop
         offset="0.43731192"
         style="stop-color:#ffffff;stop-opacity:1"
         id="stop3608" />
      <stop
         offset="0.62138397"
         style="stop-color:#979797;stop-opacity:1"
         id="stop3610" />
      <stop
         offset="0.7723214"
         style="stop-color:#505050;stop-opacity:1"
         id="stop3612" />
      <stop
         offset="1"
         style="stop-color:#e6e6e6;stop-opacity:1"
         id="stop3614" />
    </linearGradient>
    <linearGradient
       id="linearGradient3435">
      <stop
         offset="0"
         style="stop-color:#ededed;stop-opacity:1"
         id="stop3437" />
      <stop
         offset="1"
         style="stop-color:#b0b0b0;stop-opacity:1"
         id="stop3439" />
    </linearGradient>
    <linearGradient
       id="linearGradient3354">
      <stop
         offset="0"
         style="stop-color:#b4b4b4;stop-opacity:1"
         id="stop3356" />
      <stop
         offset="0.20467032"
         style="stop-color:#646464;stop-opacity:1"
         id="stop3362" />
      <stop
         offset="0.49567693"
         style="stop-color:#ffffff;stop-opacity:1"
         id="stop3364" />
      <stop
         offset="1"
         style="stop-color:#3c3c3c;stop-opacity:1"
         id="stop3358" />
    </linearGradient>
    <linearGradient
       id="linearGradient3290">
      <stop
         offset="0"
         style="stop-color:#ffffff;stop-opacity:1"
         id="stop3292" />
      <stop
         offset="0.48973215"
         style="stop-color:#8c8c8c;stop-opacity:1"
         id="stop3304" />
      <stop
         offset="0.50044644"
         style="stop-color:#cfcfcf;stop-opacity:1"
         id="stop3306" />
      <stop
         offset="0.62276787"
         style="stop-color:#ffffff;stop-opacity:1"
         id="stop3298" />
      <stop
         offset="0.81696427"
         style="stop-color:#c8c8c8;stop-opacity:1"
         id="stop3300" />
      <stop
         offset="1"
         style="stop-color:#505050;stop-opacity:1"
         id="stop3294" />
    </linearGradient>
    <linearGradient
       id="linearGradient3199">
      <stop
         offset="0"
         style="stop-color:#dcdcdc;stop-opacity:1"
         id="stop3201" />
      <stop
         offset="1"
         style="stop-color:#fafafa;stop-opacity:1"
         id="stop3203" />
    </linearGradient>
    <linearGradient
       gradientTransform="scale(1.0058652,0.994169)"
       gradientUnits="userSpaceOnUse"
       id="ButtonShadow"
       y2="7.0165396"
       x2="45.447727"
       y1="92.539597"
       x1="45.447727">
      <stop
         offset="0"
         style="stop-color:#000000;stop-opacity:1"
         id="stop3750" />
      <stop
         offset="1"
         style="stop-color:#000000;stop-opacity:0.58823532"
         id="stop3752" />
    </linearGradient>
    <linearGradient
       id="linearGradient3737">
      <stop
         offset="0"
         style="stop-color:#ffffff;stop-opacity:1"
         id="stop3739" />
      <stop
         offset="1"
         style="stop-color:#ffffff;stop-opacity:0"
         id="stop3741" />
    </linearGradient>
    <filter
       style="color-interpolation-filters:sRGB"
       id="filter3174">
      <feGaussianBlur
         stdDeviation="1.71"
         id="feGaussianBlur3176" />
    </filter>
    <linearGradient
       gradientTransform="translate(0,-1.2553978)"
       gradientUnits="userSpaceOnUse"
       xlink:href="#linearGradient3737"
       id="linearGradient3220"
       y2="27.428572"
       x2="87.5"
       y1="74"
       x1="19.035713" />
    <linearGradient
       gradientTransform="translate(0,-1.2553978)"
       gradientUnits="userSpaceOnUse"
       xlink:href="#linearGradient3321"
       id="linearGradient3234"
       y2="73"
       x2="24"
       y1="73"
       x1="6" />
    <linearGradient
       gradientTransform="matrix(-1,0,0,1,96,-1.2553978)"
       gradientUnits="userSpaceOnUse"
       xlink:href="#linearGradient1054"
       id="linearGradient3246"
       y2="73"
       x2="24"
       y1="73"
       x1="6" />
    <linearGradient
       gradientTransform="translate(0,-1.2553978)"
       gradientUnits="userSpaceOnUse"
       xlink:href="#linearGradient3199"
       id="linearGradient3223"
       y2="5.8331571"
       x2="38.748035"
       y1="72.409348"
       x1="38.748035" />
    <radialGradient
       gradientTransform="matrix(0,-1.085034,2,0,-90,186.39766)"
       gradientUnits="userSpaceOnUse"
       xlink:href="#linearGradient3315"
       id="radialGradient3229"
       fy="90"
       fx="90"
       r="42"
       cy="90"
       cx="90" />
    <clipPath
       id="clipPath3235">
      <path
         style="fill:#ffffff;fill-opacity:1;fill-rule:nonzero;stroke:none"
         id="path3237"
         d="m 66,6 v 55 c 0,1.662 1.338,3 3,3 h 6 c 1.662,0 3,-1.338 3,-3 V 6 H 74 V 8 H 70 V 6 Z" />
    </clipPath>
    <filter
       style="color-interpolation-filters:sRGB"
       id="filter3243"
       height="1.0732203"
       width="1.3323077"
       y="-0.036610167"
       x="-0.16615385">
      <feGaussianBlur
         stdDeviation="0.9"
         id="feGaussianBlur3245" />
    </filter>
    <linearGradient
       gradientTransform="matrix(0.49408989,0,0,0.70361229,2.1700948,30.047972)"
       gradientUnits="userSpaceOnUse"
       xlink:href="#linearGradient3354"
       id="linearGradient3360"
       y2="59"
       x2="75.25"
       y1="59"
       x1="68.75" />
    <linearGradient
       gradientTransform="translate(0,-1)"
       gradientUnits="userSpaceOnUse"
       xlink:href="#linearGradient3290"
       id="linearGradient3372"
       y2="54"
       x2="73"
       y1="54"
       x1="69" />
    <linearGradient
       gradientTransform="matrix(0.50000003,0,0,0.39766823,1.7445652,49.119427)"
       gradientUnits="userSpaceOnUse"
       xlink:href="#linearGradient3329"
       id="linearGradient3393"
       y2="65"
       x2="79"
       y1="64.163078"
       x1="63.484772" />
    <filter
       style="color-interpolation-filters:sRGB"
       id="filter3429"
       height="1.1907072"
       width="1.3236568"
       y="-0.095353596"
       x="-0.16182838">
      <feGaussianBlur
         stdDeviation="0.53551312"
         id="feGaussianBlur3431" />
    </filter>
    <linearGradient
       gradientTransform="matrix(-0.43495657,0,0,0.5232543,69.067063,47.346436)"
       gradientUnits="userSpaceOnUse"
       xlink:href="#linearGradient3435"
       id="linearGradient3489"
       y2="17.5"
       x2="75.0625"
       y1="17.5"
       x1="68.96875" />
    <linearGradient
       gradientTransform="matrix(0.43495657,0,0,0.5232543,6.419721,47.346436)"
       gradientUnits="userSpaceOnUse"
       xlink:href="#linearGradient3435"
       id="linearGradient3516"
       y2="17.763245"
       x2="75.97097"
       y1="17.763245"
       x1="68.02903" />
    <linearGradient
       gradientTransform="matrix(0.56313458,0,0,0.50000003,-1.9564196,22.997622)"
       gradientUnits="userSpaceOnUse"
       xlink:href="#linearGradient3354"
       id="linearGradient3530"
       y2="59"
       x2="72.250572"
       y1="59"
       x1="68.75" />
    <linearGradient
       gradientTransform="matrix(-1,0,0,1,144,-4)"
       gradientUnits="userSpaceOnUse"
       xlink:href="#linearGradient3604"
       id="linearGradient3602"
       y2="54"
       x2="73"
       y1="54"
       x1="69" />
    <clipPath
       id="clipPath3352">
      <path
         style="fill:#ffffff;fill-opacity:1;fill-rule:nonzero;stroke:none"
         id="path3354"
         d="m 11.6875,64.375 c -2.216,0 -4,1.784 -4,4 v 33.6875 c 0,2.216 1.7839995,4 4,4 h 36.09375 c 2.216,0 4.000001,-1.784 4,-4 V 68.375 c 0,-2.216 -1.783999,-4 -4,-4 z M 18.5625,80 h 7.28125 v 1.90625 c -0.205135,0.352212 -0.433858,0.778115 -0.71875,1.28125 -0.273511,0.490577 -0.575773,1.015144 -0.90625,1.59375 -0.33049,0.578625 -0.697833,1.202249 -1.0625,1.84375 -0.364677,0.641516 -0.717686,1.295995 -1.09375,1.9375 -0.364676,0.641514 -0.748935,1.258652 -1.125,1.875 -0.376071,0.616355 -0.740476,1.177874 -1.09375,1.71875 H 26 V 94 h -8 v -1.96875 l 5,-8.71875 c 0.159539,-0.26414 0.289347,-0.498418 0.4375,-0.75 0.159538,-0.251561 0.329054,-0.529665 0.5,-0.78125 h -5.375 z M 28,80 h 1.8125 V 94 H 28 Z m 4,0 h 4.21875 c 0.440246,1.4e-5 0.847477,0.0122 1.25,0.0625 0.402509,0.03775 0.785371,0.130319 1.125,0.28125 0.339615,0.150957 0.64209,0.398204 0.90625,0.6875 0.276721,0.289321 0.498811,0.665695 0.6875,1.15625 0.125777,0.314476 0.230925,0.641715 0.28125,0.96875 0.05031,0.314475 0.06249,0.641717 0.0625,0.96875 -9e-6,0.528311 -0.06782,1.034206 -0.21875,1.5625 -0.138374,0.515731 -0.360463,0.997257 -0.6875,1.4375 -0.188688,0.264157 -0.466793,0.492735 -0.78125,0.65625 -0.314473,0.163528 -0.647806,0.274379 -1,0.375 -0.352208,0.08806 -0.697724,0.149768 -1.0625,0.1875 -0.352206,0.02516 -0.660776,0.06251 -0.9375,0.0625 H 33.8125 V 94 H 32 Z m 1.84375,1.78125 v 4.78125 h 2.09375 c 0.85534,7e-6 1.509425,-0.222477 2,-0.625 0.503137,-0.415086 0.781243,-1.020037 0.78125,-1.8125 -8e-6,-0.226406 -0.02477,-0.461073 -0.0625,-0.6875 -0.03774,-0.238983 -0.09946,-0.45498 -0.1875,-0.65625 C 38.380692,82.580003 38.263356,82.400955 38.125,82.25 37.986628,82.08649 37.826253,81.981733 37.625,81.90625 37.461472,81.843369 37.251566,81.812514 37,81.8125 36.761,81.79993 36.551095,81.78126 36.375,81.78125 Z" />
    </clipPath>
    <linearGradient
       gradientTransform="matrix(1.0058652,0,0,0.994169,100,0)"
       gradientUnits="userSpaceOnUse"
       id="ButtonShadow-0"
       y2="7.0165396"
       x2="45.447727"
       y1="92.539597"
       x1="45.447727">
      <stop
         offset="0"
         style="stop-color:#000000;stop-opacity:1"
         id="stop3750-8" />
      <stop
         offset="1"
         style="stop-color:#000000;stop-opacity:0.58823532"
         id="stop3752-5" />
    </linearGradient>
    <linearGradient
       gradientTransform="matrix(1.0238095,0,0,-1.0119048,-9.5121754,98.071429)"
       gradientUnits="userSpaceOnUse"
       xlink:href="#ButtonShadow-0"
       id="linearGradient3780"
       y2="90.238609"
       x2="32.251034"
       y1="6.1317081"
       x1="32.251034" />
    <linearGradient
       gradientTransform="matrix(1.0238095,0,0,-1.0119048,-9.5121754,98.071429)"
       gradientUnits="userSpaceOnUse"
       xlink:href="#ButtonShadow-0"
       id="linearGradient3772"
       y2="90.238609"
       x2="32.251034"
       y1="6.1317081"
       x1="32.251034" />
    <linearGradient
       gradientTransform="matrix(1.0238095,0,0,1.0119048,-9.5121754,-98.071429)"
       gradientUnits="userSpaceOnUse"
       xlink:href="#ButtonShadow-0"
       id="linearGradient3725"
       y2="90.238609"
       x2="32.251034"
       y1="6.1317081"
       x1="32.251034" />
    <linearGradient
       gradientTransform="translate(-16.738637,-97)"
       gradientUnits="userSpaceOnUse"
       xlink:href="#ButtonShadow-0"
       id="linearGradient3721"
       y2="90.238609"
       x2="32.251034"
       y1="6.1317081"
       x1="32.251034" />
    <linearGradient
       gradientTransform="matrix(1.0238095,0,0,1.0119048,-1.1428571,-98.071429)"
       gradientUnits="userSpaceOnUse"
       xlink:href="#ButtonShadow-0"
       id="linearGradient3760"
       y2="90.238609"
       x2="32.251034"
       y1="6.1317081"
       x1="32.251034" />
    <linearGradient
       y2="54"
       x2="73"
       y1="54"
       x1="69"
       gradientTransform="matrix(-0.53315586,0,0,0.68002831,76.13179,31.824214)"
       gradientUnits="userSpaceOnUse"
       id="linearGradient976"
       xlink:href="#linearGradient3604" />
    <linearGradient
       y2="54"
       x2="73"
       y1="54"
       x1="69"
       gradientTransform="matrix(-0.53315586,0,0,0.68002831,76.200149,27.800991)"
       gradientUnits="userSpaceOnUse"
       id="linearGradient980"
       xlink:href="#linearGradient3604" />
    <linearGradient
       y2="54"
       x2="73"
       y1="54"
       x1="69"
       gradientTransform="matrix(0.53315586,0,0,0.68002831,-0.6426526,29.784131)"
       gradientUnits="userSpaceOnUse"
       id="linearGradient990"
       xlink:href="#linearGradient3290" />
    <linearGradient
       y2="54"
       x2="73"
       y1="54"
       x1="69"
       gradientTransform="matrix(0.53315586,0,0,0.68002831,-0.5742937,25.760908)"
       gradientUnits="userSpaceOnUse"
       id="linearGradient994"
       xlink:href="#linearGradient3290" />
  </defs>
  <metadata
     id="metadata2413">
    <rdf:RDF>
      <cc:Work
         rdf:about="">
        <dc:format>image/svg+xml</dc:format>
        <dc:type
           rdf:resource="http://purl.org/dc/dcmitype/StillImage" />
        <dc:title></dc:title>
      </cc:Work>
    </rdf:RDF>
  </metadata>
  <g
     transform="translate(0,-80)"
     style="display:none"
     id="layer2">
    <rect
       style="opacity:0.9;fill:url(#ButtonShadow);fill-opacity:1;fill-rule:nonzero;stroke:none;filter:url(#filter3174)"
       id="rect3745"
       y="7"
       x="5"
       ry="6"
       rx="6"
       height="85"
       width="86" />
  </g>
  <g
     transform="matrix(0.23896809,0,0,0.23896809,0.52953157,-6.7094363)"
     style="display:inline"
     id="layer4" />
  <g
     transform="matrix(0.19047135,0,0,0.19047135,-1.142557,-0.90330381)"
     style="display:inline"
     id="layer1">
    <path
       style="fill:url(#radialGradient3229);fill-opacity:1;fill-rule:nonzero;stroke:none"
       id="rect2419"
       d="m 12,4.7446022 c -3.324,0 -6,2.676 -6,5.9999998 v 72 c 0,3.324 2.676,6 6,6 h 72 c 3.324,0 6,-2.676 6,-6 v -72 C 90,7.4206022 87.324,4.7446022 84,4.7446022 h -9 v 3 h -6 v -3 z" />
    <path
       style="fill:url(#linearGradient3234);fill-opacity:1;fill-rule:nonzero;stroke:none"
       id="rect3222"
       d="m 6,54.744602 v 28 c 0,3.324 2.676,6 6,6 h 12 v -34 z" />
    <path
       style="fill:url(#linearGradient3246);fill-opacity:1;fill-rule:nonzero;stroke:none"
       id="path3244"
       d="m 90,54.744602 v 28 c 0,3.324 -2.676,6 -6,6 H 72 v -34 z" />
    <path
       style="fill:url(#linearGradient3223);fill-opacity:1;fill-rule:nonzero;stroke:none"
       id="rect3195"
       d="m 12,4.7446022 c -3.324,0 -6,2.676 -6,5.9999998 v 45.615001 c 0,3.324 2.676,6 6,6 h 72 c 3.324,0 6,-2.676 6,-6 V 10.744602 C 90,7.4206022 87.324,4.7446022 84,4.7446022 h -9 v 3 h -6 v -3 z" />
    <path
       style="opacity:0.5;fill:url(#linearGradient3220);fill-opacity:1;fill-rule:nonzero;stroke:none"
       id="rect3207"
       d="m 12,4.7446022 c -3.324,0 -6,2.676 -6,5.9999998 l 5e-7,45.476507 c 0,3.324 2.676,6.276988 5.9999995,6.276988 h 72 c 3.324,0 6,-2.952988 6,-6.276988 V 10.744602 C 90,7.4206022 87.324,4.7446022 84,4.7446022 h -9 v 2 h 9 c 2.245802,0 4,1.7541975 4,3.9999998 v 41.792302 c 0,2.245802 -1.754198,4.184659 -4,4.184659 H 12 c -2.245802,0 -3.9999995,-1.938857 -3.9999995,-4.184659 L 8,10.744602 C 8,8.4987997 9.7541975,6.7446022 12,6.7446022 h 57 v -2 z" />
    <path
       style="display:inline;opacity:0.3;fill:#000000;fill-opacity:1;fill-rule:nonzero;stroke:none;stroke-width:1"
       id="path3193-6"
       d="M 6.0007106,77.496641 V 82.7446 c 0,3.324 2.676,6 6.0000004,6 h 72 c 3.324,0 6.000002,-2.676 6.000002,-6 v -5.247959 c 0,3.324 -2.676002,5.999999 -6.000002,5.999999 h -72 c -3.3240004,0 -6.0000004,-2.675999 -6.0000004,-5.999999 z" />
    <path
       style="display:inline;opacity:0.3;fill:#ffffff;fill-opacity:1;fill-rule:nonzero;stroke:none;stroke-width:1"
       id="path3193-3-7"
       d="m 5.9992876,72.241258 v 5.253208 c 0,3.324001 2.676,6.000001 6.0000004,6.000001 h 72 c 3.324,0 6.000002,-2.676 6.000002,-6.000001 v -5.253208 c 0,3.324 -2.676002,5.999999 -6.000002,5.999999 h -72 c -3.3240004,0 -6.0000004,-2.675999 -6.0000004,-5.999999 z" />
    <path
       style="display:inline;opacity:0.3;fill:#000000;fill-opacity:1;fill-rule:nonzero;stroke:none;stroke-width:1.00000417"
       id="path3193-6-3"
       d="m 5.9999996,66.996373 v 5.24796 c 0,3.324 2.676023,6 6.0000504,6 h 72.000611 c 3.324028,0 6.00005,-2.676 6.00005,-6 v -5.24796 c 0,3.324 -2.676022,6 -6.00005,6 H 12.00005 c -3.3240274,0 -6.0000504,-2.676 -6.0000504,-6 z" />
    <path
       style="display:inline;opacity:0.3;fill:#ffffff;fill-opacity:1;fill-rule:nonzero;stroke:none;stroke-width:1.00000417"
       id="path3193-3-7-6"
       d="m 5.9985766,61.740993 v 5.25321 c 0,3.324 2.676023,6 6.0000514,6 h 72.000603 c 3.324028,0 6.00006,-2.676 6.00006,-6 v -5.25321 c 0,3.324 -2.676032,6 -6.00006,6 H 11.998628 c -3.3240284,0 -6.0000514,-2.676 -6.0000514,-6 z" />
    <path
       style="display:inline;opacity:0.3;fill:#000000;fill-opacity:1;fill-rule:nonzero;stroke:none;stroke-width:1.00000417"
       id="path3193-6-3-7"
       d="m 5.9985766,56.496108 v 5.24796 c 0,3.324 2.676023,5.999999 6.0000514,5.999999 h 72.000611 c 3.32403,0 6.00005,-2.675999 6.00005,-5.999999 v -5.24796 c 0,3.324 -2.67602,6 -6.00005,6 H 11.998628 c -3.3240284,0 -6.0000514,-2.676 -6.0000514,-6 z" />
  </g>
  <g
     transform="matrix(1.1956169,0,0,0.77343504,-11.204546,-1.7087104)"
     id="g1038">
    <g
       id="layer3"
       transform="matrix(0.47793618,0,0,0.47793618,0.53212905,-22.391938)">
      <path
         d="m 34.744566,51.505433 v 21.276908 c 0,0.830999 0.669,1.499999 1.499999,1.499999 h 3 c 0.831001,0 1.500001,-0.669 1.500001,-1.499999 V 51.505433 h -2 v 1.000001 h -2 v -1.000001 z"
         id="rect3201"
         style="fill:#252525;fill-opacity:1;fill-rule:nonzero;stroke:none;stroke-width:0.5" />
      <rect
         width="2"
         height="19.46994"
         x="36.744564"
         y="52.505436"
         id="rect3247"
         style="fill:#4d4d4d;fill-opacity:1;fill-rule:nonzero;stroke:none;stroke-width:0.44572735" />
      <rect
         width="2.9645393"
         height="2.8144491"
         rx="0.49408987"
         ry="0.70361227"
         x="36.262299"
         y="70.153877"
         id="rect3211"
         style="fill:url(#linearGradient3360);fill-opacity:1;fill-rule:nonzero;stroke:#000000;stroke-width:0.29480827;stroke-linecap:square;stroke-linejoin:miter;stroke-miterlimit:4;stroke-dasharray:none;stroke-dashoffset:0;stroke-opacity:0.56363639" />
      <path
         d="m 66,6 v 41.471714 c 0,1.662 1.338,3 3,3 h 6 c 1.662,0 3,-1.338 3,-3 V 6 H 74 V 8 H 70 V 6 Z"
         clip-path="url(#clipPath3235)"
         id="path3231"
         style="fill:none;stroke:#000000;stroke-width:2;stroke-linecap:square;stroke-linejoin:miter;stroke-miterlimit:4;stroke-dasharray:none;stroke-dashoffset:0;stroke-opacity:1;filter:url(#filter3243)"
         transform="matrix(0.50000001,0,0,0.50000001,1.7445652,48.505434)" />
      <path
         style="fill:url(#linearGradient990);fill-opacity:1;fill-rule:nonzero;stroke:#000000;stroke-width:0.30106518;stroke-linecap:square;stroke-linejoin:miter;stroke-miterlimit:4;stroke-dasharray:none;stroke-dashoffset:0;stroke-opacity:0.56363639"
         id="use3312"
         d="m 36.411677,65.145594 c -0.143832,0 -0.266578,0.148219 -0.266578,0.340012 v 2.040087 c 0,0.191793 0.122748,0.340013 0.266578,0.340013 h 0.533157 c 0.143831,0 0.266578,-0.14822 0.266578,-0.340013 v -0.340017 h 0.799732 c 0.147686,0 0.266579,-0.151646 0.266579,-0.340013 v -0.68003 c 0,-0.188366 -0.118893,-0.340013 -0.266579,-0.340013 h -0.799732 v -0.340014 c 0,-0.191793 -0.122749,-0.340012 -0.266578,-0.340012 z" />
      <path
         d="m 39.077458,67.185676 c 0.14383,0 0.266576,0.148223 0.266576,0.340017 v 2.040082 c 0,0.191793 -0.122747,0.340015 -0.266576,0.340015 h -0.533157 c -0.143831,0 -0.266578,-0.148223 -0.266578,-0.340015 v -0.340012 h -0.799735 c -0.147683,0 -0.266576,-0.151646 -0.266576,-0.340014 v -0.68003 c 0,-0.188367 0.118893,-0.340013 0.266576,-0.340013 h 0.799735 v -0.340013 c 0,-0.191794 0.122748,-0.340017 0.266578,-0.340017 z"
         id="use3342"
         style="fill:url(#linearGradient976);fill-opacity:1;fill-rule:nonzero;stroke:#000000;stroke-width:0.30106518;stroke-linecap:square;stroke-linejoin:miter;stroke-miterlimit:4;stroke-dasharray:none;stroke-dashoffset:0;stroke-opacity:0.56363639" />
      <path
         d="m 34.244566,51.505433 v 21.871753 c 0,0.875782 0.898853,1.590672 1.999999,1.590672 h 3 c 1.101148,0 2.000001,-0.71489 2.000001,-1.590672 V 51.505433 h -0.5 v 21.330312 c 0,0.660924 -0.669,1.193003 -1.500001,1.193003 h -3 c -0.830999,0 -1.499999,-0.532079 -1.499999,-1.193003 V 51.505433 Z"
         id="path3376"
         style="fill:url(#linearGradient3393);fill-opacity:1;fill-rule:nonzero;stroke:none;stroke-width:0.44590816" />
      <path
         d="m 36.531437,53.113439 c -0.298876,0 -0.534671,0.252401 -0.534671,0.565924 l -0.0022,5.659252 c 9e-6,0.313524 0.235804,0.565926 0.53468,0.565926 h 2.428458 c 0.298875,0 0.53467,-0.252402 0.53467,-0.565926 l 0.0022,-5.659252 c 0,-0.313523 -0.235796,-0.565924 -0.53467,-0.565924 z"
         id="rect3403"
         style="fill:url(#linearGradient3516);fill-opacity:1;fill-rule:nonzero;stroke:none;stroke-width:0.47706693" />
      <path
         d="m 38.851169,53.609136 c 0.120483,0 0.217478,0.116686 0.217478,0.261627 v 5.265247 c 0,0.144942 -0.09699,0.261627 -0.217478,0.261627 h -2.21556 c -0.120483,0 -0.217478,-0.116685 -0.217478,-0.261627 v -5.265247 c 0,-0.144941 0.09699,-0.261627 0.217478,-0.261627 z"
         id="rect3470"
         style="fill:url(#linearGradient3489);fill-opacity:1;fill-rule:nonzero;stroke:none;stroke-width:0.47706693" />
      <rect
         width="1.6894037"
         height="2.5"
         rx="0.28156728"
         ry="0.25"
         x="36.899864"
         y="51.49762"
         id="rect3399"
         style="fill:url(#linearGradient3530);fill-opacity:1;fill-rule:nonzero;stroke:#000000;stroke-width:0.5;stroke-linecap:square;stroke-linejoin:miter;stroke-miterlimit:4;stroke-dasharray:none;stroke-dashoffset:0;stroke-opacity:0.56363639" />
      <path
         style="fill:url(#linearGradient994);fill-opacity:1;fill-rule:nonzero;stroke:#000000;stroke-width:0.30106518;stroke-linecap:square;stroke-linejoin:miter;stroke-miterlimit:4;stroke-dasharray:none;stroke-dashoffset:0;stroke-opacity:0.56363639"
         id="use3312-3"
         d="m 36.480036,61.12237 c -0.143832,0 -0.266578,0.148219 -0.266578,0.340012 v 2.040087 c 0,0.191793 0.122748,0.340013 0.266578,0.340013 h 0.533157 c 0.143831,0 0.266578,-0.14822 0.266578,-0.340013 v -0.340017 h 0.799732 c 0.147686,0 0.266579,-0.151645 0.266579,-0.340013 V 62.14241 c 0,-0.188366 -0.118893,-0.340013 -0.266579,-0.340013 h -0.799732 v -0.340015 c 0,-0.191793 -0.122749,-0.340012 -0.266578,-0.340012 z" />
      <path
         d="m 39.145817,63.162453 c 0.14383,0 0.266576,0.148223 0.266576,0.340016 v 2.040083 c 0,0.191792 -0.122747,0.340015 -0.266576,0.340015 H 38.61266 c -0.143831,0 -0.266578,-0.148223 -0.266578,-0.340015 v -0.340013 h -0.799735 c -0.147683,0 -0.266576,-0.151646 -0.266576,-0.340014 v -0.680029 c 0,-0.188368 0.118893,-0.340014 0.266576,-0.340014 h 0.799735 v -0.340013 c 0,-0.191793 0.122748,-0.340016 0.266578,-0.340016 z"
         id="use3342-7"
         style="fill:url(#linearGradient980);fill-opacity:1;fill-rule:nonzero;stroke:#000000;stroke-width:0.30106518;stroke-linecap:square;stroke-linejoin:miter;stroke-miterlimit:4;stroke-dasharray:none;stroke-dashoffset:0;stroke-opacity:0.56363639" />
    </g>
  </g>
  <path
     d="m 7.3759486,4.8584943 c 0.009,0.2404301 -0.07016,0.3572616 -0.141711,0.5638562 l -0.128673,0.063989 c -0.105188,0.2044053 0.01045,0.1297682 -0.06489,0.2922777 -0.1644,0.1459895 -0.498175,0.4566776 -0.605055,0.4851386 -0.07812,-0.0017 0.05284,-0.092151 0.06996,-0.1274791 -0.219829,0.1508658 -0.176441,0.2264981 -0.512704,0.3183505 l -0.0098,-0.021991 c -0.828914,0.3901017 -1.98051,-0.3828371 -1.965385,-1.4373053 -0.0088,0.066874 -0.02518,0.050156 -0.04349,0.077025 -0.04279,-0.5424601 0.250582,-1.0873088 0.745373,-1.3101243 0.483945,-0.2394347 1.051284,-0.1413123 1.397698,0.1820143 -0.190273,-0.2493862 -0.569328,-0.5137996 -1.018244,-0.4893188 -0.439959,0.00716 -0.851656,0.2867052 -0.988987,0.5903274 -0.225304,0.1418098 -0.251576,0.5469381 -0.349699,0.6211768 -0.132256,0.9712734 0.248492,1.3907319 0.892657,1.88443 0.101107,0.068268 0.02846,0.078716 0.042,0.1306639 -0.213959,-0.1001128 -0.409806,-0.2513766 -0.571021,-0.4365756 0.08558,0.1250915 0.177834,0.2466995 0.297154,0.3422346 -0.201918,-0.068169 -0.471506,-0.4889207 -0.550024,-0.5060375 0.347808,0.6227692 1.410934,1.0921853 1.967923,0.8592187 -0.257746,0.00955 -0.585052,0.00528 -0.874444,-0.1017052 -0.121907,-0.062595 -0.287004,-0.1920653 -0.257447,-0.2162476 0.759902,0.2837194 1.544683,0.2147554 2.202083,-0.3121805 0.167386,-0.1303657 0.350097,-0.3519876 0.402939,-0.3549729 -0.07951,0.1196181 0.01364,0.05752 -0.04747,0.1631064 0.16639,-0.2687916 -0.07255,-0.1094675 0.172162,-0.4641413 l 0.09036,0.1243945 c -0.03383,-0.2233129 0.277151,-0.4941947 0.245505,-0.8470778 0.07135,-0.1078749 0.07951,0.1162344 0.0039,0.3644265 0.104989,-0.2753601 0.02776,-0.3196443 0.05463,-0.5469381 0.02896,0.076428 0.06747,0.1575333 0.08708,0.2382404 -0.06847,-0.2662043 0.06996,-0.4481191 0.104392,-0.602866 -0.03404,-0.014927 -0.105586,0.117628 -0.122106,-0.1966431 0.0025,-0.1365356 0.03811,-0.071552 0.05175,-0.1051879 -0.02667,-0.015424 -0.09703,-0.1201158 -0.13972,-0.3208388 0.03075,-0.04727 0.0828,0.122305 0.124991,0.1291717 -0.02717,-0.1595237 -0.07384,-0.2812316 -0.07583,-0.4037359 -0.123399,-0.2577455 -0.04369,0.034432 -0.143601,-0.1106613 -0.131361,-0.4094074 0.10887,-0.095037 0.125191,-0.2809322 0.198833,0.2880975 0.312181,0.7349228 0.364427,0.9199223 -0.03981,-0.2256015 -0.103995,-0.4442377 -0.182513,-0.6557084 0.06061,0.025575 -0.09742,-0.4640419 0.07872,-0.1398195 -0.18803,-0.6911367 -0.803933,-1.3369935 -1.370676,-1.6399197 0.06916,0.063392 0.156638,0.1430042 0.12539,0.1555433 -0.282027,-0.1676839 -0.232468,-0.1809197 -0.272872,-0.2517746 -0.229384,-0.093445 -0.244709,0.00766 -0.39647,1.949e-4 C 5.7565076,1.2543323 5.6731136,1.278714 5.2747526,1.1350129 l 0.01811,0.084788 c -0.286704,-0.095535 -0.334073,0.036024 -0.643866,1.948e-4 -0.01881,-0.01463 0.09932,-0.053341 0.196643,-0.067372 -0.277251,0.036622 -0.264314,-0.054734 -0.535593,0.01005 0.06677,-0.046872 0.137629,-0.07802 0.208883,-0.1178263 -0.226,0.013735 -0.539773,0.1315599 -0.442944,0.024282 -0.368706,0.1645989 -1.023619,0.395575 -1.391131,0.7401976 L 2.6733116,1.732103 c -0.168381,0.2021167 -0.734327,0.6036625 -0.779407,0.8656872 l -0.04508,0.010448 c -0.08747,0.1483783 -0.144298,0.3164602 -0.21376,0.4690175 -0.114542,0.1953497 -0.167982,0.075234 -0.151661,0.1058849 -0.225403,0.4569759 -0.337558,0.8409076 -0.434188,1.1559742 0.06887,0.1029987 0.0017,0.6201824 0.02767,1.0340677 -0.11304971,2.0444511 1.434817,4.0292913 3.126784,4.4874631 0.247993,0.08887 0.616699,0.08568 0.930372,0.09444 -0.369999,-0.105885 -0.417767,-0.05603 -0.778412,-0.181717 -0.260033,-0.122606 -0.316956,-0.2624252 -0.50126,-0.4223462 l 0.07295,0.1288724 C 3.5660696,9.3520175 3.7172336,9.321666 3.4232646,9.2286193 l 0.07792,-0.1016055 c -0.11713,-0.00896 -0.31019,-0.1972404 -0.362933,-0.3018314 l -0.128177,0.00508 C 2.8562236,8.6405838 2.7741226,8.5035509 2.7801936,8.3973672 l -0.0414,0.073841 C 2.6919226,8.3906993 2.1724516,7.758875 2.4419386,7.9059586 2.3918826,7.8603823 2.3253066,7.8316214 2.2531576,7.7003595 l 0.05483,-0.062596 c -0.129468,-0.1668875 -0.238637,-0.3807462 -0.230278,-0.452 0.06916,0.093346 0.11713,0.1108606 0.164699,0.1268825 C 1.9149036,6.5002003 1.8964936,7.267961 1.6485996,6.4856708 l 0.05234,-0.00418 c -0.0401,-0.060808 -0.06468,-0.1263887 -0.09693,-0.1909742 l 0.02289,-0.2273931 C 1.3912506,5.7908498 1.5610246,4.9042638 1.5951606,4.4181292 1.6185436,4.2204916 1.7919036,4.010016 1.9235616,3.679922 l -0.08021,-0.013737 c 0.153454,-0.2674981 0.875938,-1.0746699 1.210709,-1.0332715 0.162111,-0.2036089 -0.03224,-8.09e-4 -0.06399,-0.051947 0.356167,-0.3685067 0.468122,-0.2603332 0.708453,-0.3267099 0.259039,-0.153752 -0.222418,0.060107 -0.09962,-0.058615 0.448119,-0.1143433 0.317455,-0.260134 0.901911,-0.3181518 0.0617,0.03503 -0.143004,0.054136 -0.194355,0.099615 0.373184,-0.1827115 1.181153,-0.1410145 1.706197,0.1013062 0.608738,0.2847146 1.293108,1.1259204 1.320176,1.9173687 l 0.03075,0.00826 c -0.01553,0.3146687 0.04816,0.6785977 -0.0624,1.0127716 l 0.07474,-0.1583293"
     id="path2536"
     style="display:inline;fill:#d70751;stroke:#d70751;stroke-width:0.08986392;stroke-miterlimit:4;stroke-dasharray:none;stroke-opacity:1" />
</svg>
