<?xml version="1.0" encoding="UTF-8" standalone="no"?>
<svg
   xmlns:dc="http://purl.org/dc/elements/1.1/"
   xmlns:cc="http://creativecommons.org/ns#"
   xmlns:rdf="http://www.w3.org/1999/02/22-rdf-syntax-ns#"
   xmlns:svg="http://www.w3.org/2000/svg"
   xmlns="http://www.w3.org/2000/svg"
   xmlns:xlink="http://www.w3.org/1999/xlink"
   version="1.1"
   id="svg18157"
   height="16"
   width="16">
  <defs
     id="defs18159">
    <linearGradient
       y2="35.581654"
       x2="42.470848"
       y1="11.952797"
       x1="42.470848"
       gradientTransform="matrix(0.89189031,0,0,1.0580283,3.1206609,5.3536023)"
       gradientUnits="userSpaceOnUse"
       id="linearGradient12489"
       xlink:href="#linearGradient3454-2-5-0-3" />
    <linearGradient
       id="linearGradient3454-2-5-0-3">
      <stop
         id="stop3456-4-9-38-1"
         style="stop-color:#ffffff;stop-opacity:1"
         offset="0" />
      <stop
         id="stop3458-39-80-3-5"
         style="stop-color:#ffffff;stop-opacity:0.23529412"
         offset="0.0097359" />
      <stop
         id="stop3460-7-0-2-4"
         style="stop-color:#ffffff;stop-opacity:0.15686275"
         offset="0.99001008" />
      <stop
         id="stop3462-0-9-8-7"
         style="stop-color:#ffffff;stop-opacity:0.39215687"
         offset="1" />
    </linearGradient>
    <linearGradient
       y2="36.657963"
       x2="22.809399"
       y1="49.629246"
       x1="22.934725"
       gradientTransform="matrix(1.1446925,0,0,0.9977536,-3.466138,1.0988397)"
       gradientUnits="userSpaceOnUse"
       id="linearGradient12487"
       xlink:href="#linearGradient6129-963-697-142-998-580-273-44-2-2" />
    <linearGradient
       id="linearGradient6129-963-697-142-998-580-273-44-2-2">
      <stop
         offset="0"
         style="stop-color:#0a0a0a;stop-opacity:0.498"
         id="stop2661-01-6-2" />
      <stop
         offset="1"
         style="stop-color:#0a0a0a;stop-opacity:0"
         id="stop2663-64-5-5" />
    </linearGradient>
    <linearGradient
       y2="43.761127"
       x2="35.792694"
       y1="17.118193"
       x1="35.792694"
       gradientTransform="matrix(1,0,0,1.0357143,2.0849371e-6,-1.5890903)"
       gradientUnits="userSpaceOnUse"
       id="linearGradient12481"
       xlink:href="#linearGradient4632-0-6-4-7" />
    <linearGradient
       id="linearGradient4632-0-6-4">
      <stop
         id="stop4634-4-4-7"
         offset="0"
         style="stop-color:#aacb7d;stop-opacity:1;" />
      <stop
         id="stop4636-3-1-5"
         offset="1"
         style="stop-color:#709937;stop-opacity:1;" />
    </linearGradient>
    <radialGradient
       r="117.14286"
       fy="486.64789"
       fx="605.71429"
       cy="486.64789"
       cx="605.71429"
       gradientTransform="matrix(-0.03079083,0,0,0.02470588,23.389752,31.94164)"
       gradientUnits="userSpaceOnUse"
       id="radialGradient12475"
       xlink:href="#linearGradient5060-820-91-9-0" />
    <linearGradient
       id="linearGradient5060-820-91-9-0">
      <stop
         offset="0"
         style="stop-color:#000000;stop-opacity:1"
         id="stop2681-778-5-1" />
      <stop
         offset="1"
         style="stop-color:#000000;stop-opacity:0"
         id="stop2683-2-86-2" />
    </linearGradient>
    <radialGradient
       r="117.14286"
       fy="486.64789"
       fx="605.71429"
       cy="486.64789"
       cx="605.71429"
       gradientTransform="matrix(0.03079083,0,0,0.02470588,24.610252,31.94164)"
       gradientUnits="userSpaceOnUse"
       id="radialGradient12471"
       xlink:href="#linearGradient5060-179-37-4-0" />
    <linearGradient
       id="linearGradient5060-179-37-4-0">
      <stop
         offset="0"
         style="stop-color:#000000;stop-opacity:1"
         id="stop2675-91-9-2" />
      <stop
         offset="1"
         style="stop-color:#000000;stop-opacity:0"
         id="stop2677-09-0-9" />
    </linearGradient>
    <linearGradient
       y2="609.50507"
       x2="302.85715"
       y1="366.64789"
       x1="302.85715"
       gradientTransform="matrix(0.07938856,0,0,0.02470588,-4.6932879,31.94164)"
       gradientUnits="userSpaceOnUse"
       id="linearGradient12467"
       xlink:href="#linearGradient5048-585-73-1-5" />
    <linearGradient
       id="linearGradient5048-585-73-1-5">
      <stop
         offset="0"
         style="stop-color:#000000;stop-opacity:0"
         id="stop2667-99-4-6" />
      <stop
         offset="0.5"
         style="stop-color:#000000;stop-opacity:1"
         id="stop2669-5-9-4" />
      <stop
         offset="1"
         style="stop-color:#000000;stop-opacity:0"
         id="stop2671-56-4-2" />
    </linearGradient>
    <linearGradient
       y2="34.143417"
       x2="21.37039"
       y1="4.2476678"
       x1="21.37039"
       gradientTransform="matrix(0.89189031,0,0,1.0580283,3.1206621,5.3535997)"
       gradientUnits="userSpaceOnUse"
       id="linearGradient12463"
       xlink:href="#linearGradient4507-0-4-7" />
    <linearGradient
       id="linearGradient4507-0-4-7">
      <stop
         offset="0"
         style="stop-color:#ffffff;stop-opacity:1"
         id="stop4509-35-6-1" />
      <stop
         offset="0.07395859"
         style="stop-color:#ffffff;stop-opacity:0.23529412"
         id="stop4511-46-3-8" />
      <stop
         offset="0.99001008"
         style="stop-color:#ffffff;stop-opacity:0.15686275"
         id="stop4513-15-5-9" />
      <stop
         offset="1"
         style="stop-color:#ffffff;stop-opacity:0.39215687"
         id="stop4515-1-1-8" />
    </linearGradient>
    <linearGradient
       id="linearGradient4646-7-4-3">
      <stop
         id="stop4648-8-0-3"
         style="stop-color:#f9f9f9;stop-opacity:1"
         offset="0" />
      <stop
         id="stop4650-1-7-3"
         style="stop-color:#d8d8d8;stop-opacity:1"
         offset="1" />
    </linearGradient>
    <linearGradient
       id="linearGradient3104-8-8-97-4-6-11-5-5">
      <stop
         id="stop3106-5-4-3-5-0-2-1-0"
         style="stop-color:#000000;stop-opacity:0.32173914"
         offset="0" />
      <stop
         id="stop3108-4-3-7-8-2-0-7-9"
         style="stop-color:#000000;stop-opacity:0.27826086"
         offset="1" />
    </linearGradient>
    <linearGradient
       xlink:href="#linearGradient3104-8-8-97-4-6-11-5-5"
       id="linearGradient18155"
       gradientUnits="userSpaceOnUse"
       gradientTransform="matrix(0.80749834,0,0,0.83374395,106.87672,-0.06984031)"
       x1="-51.786404"
       y1="53.514328"
       x2="-51.786404"
       y2="3.6336823" />
    <linearGradient
       xlink:href="#linearGradient7012-661-145-733-759-865-745"
       id="linearGradient3840"
       x1="22.559322"
       y1="16.466301"
       x2="22.559322"
       y2="44.376751"
       gradientUnits="userSpaceOnUse" />
    <radialGradient
       xlink:href="#linearGradient3484"
       id="radialGradient3070"
       gradientUnits="userSpaceOnUse"
       gradientTransform="matrix(-1.274898e-8,1.7142916,-2.159331,-1.4599595e-8,12.809361,2.8570011)"
       cx="3"
       cy="5.01718"
       fx="3"
       fy="5.01718"
       r="21" />
    <linearGradient
       xlink:href="#linearGradient6404"
       id="linearGradient3068"
       gradientUnits="userSpaceOnUse"
       gradientTransform="translate(-50.940898)"
       x1="62.988873"
       y1="13.182598"
       x2="62.988873"
       y2="16.19013" />
    <linearGradient
       xlink:href="#linearGradient3390"
       id="linearGradient3061"
       gradientUnits="userSpaceOnUse"
       gradientTransform="translate(-53.765393,-0.1141929)"
       x1="82.453476"
       y1="45.114193"
       x2="65.340263"
       y2="15.943953" />
    <linearGradient
       xlink:href="#linearGradient6129-963-697-142-998-580-273"
       id="linearGradient3056"
       gradientUnits="userSpaceOnUse"
       gradientTransform="matrix(1.1446925,0,0,0.9977536,-3.4661413,1.0988425)"
       x1="22.934725"
       y1="49.629246"
       x2="22.809399"
       y2="36.657963" />
    <radialGradient
       xlink:href="#linearGradient6087-437-184-795-110-662-495"
       id="radialGradient3053"
       gradientUnits="userSpaceOnUse"
       gradientTransform="matrix(0,1.2079744,-1.6271642,0,26.371748,8.2664685)"
       cx="7.2646537"
       cy="8.3021259"
       fx="7.2646537"
       fy="8.3021259"
       r="20.979567" />
    <linearGradient
       xlink:href="#linearGradient8265-821-176-38-919-66-249"
       id="linearGradient3050"
       gradientUnits="userSpaceOnUse"
       x1="11.566265"
       y1="22.292103"
       x2="15.214532"
       y2="33.95525" />
    <linearGradient
       x1="11.566265"
       y1="22.292103"
       x2="15.214532"
       y2="33.95525"
       id="linearGradient3466"
       xlink:href="#linearGradient8265-821-176-38-919-66-249"
       gradientUnits="userSpaceOnUse" />
    <linearGradient
       id="linearGradient8265-821-176-38-919-66-249">
      <stop
         id="stop2687"
         style="stop-color:#ffffff;stop-opacity:0.2"
         offset="0" />
      <stop
         id="stop2689"
         style="stop-color:#ffffff;stop-opacity:0"
         offset="1" />
    </linearGradient>
    <radialGradient
       cx="7.2646537"
       cy="8.3021259"
       r="20.979567"
       fx="7.2646537"
       fy="8.3021259"
       id="radialGradient2442-940-759"
       xlink:href="#linearGradient6087-437-184-795-110-662-495"
       gradientUnits="userSpaceOnUse"
       gradientTransform="matrix(0,1.2079744,-1.6271642,0,26.371748,8.2664685)" />
    <linearGradient
       id="linearGradient6087-437-184-795-110-662-495">
      <stop
         id="stop2693"
         style="stop-color:#ffffff;stop-opacity:0.40000001"
         offset="0" />
      <stop
         id="stop2695"
         style="stop-color:#ffffff;stop-opacity:0"
         offset="1" />
    </linearGradient>
    <linearGradient
       x1="22.934725"
       y1="49.629246"
       x2="22.809399"
       y2="36.657963"
       id="linearGradient6462-657-405"
       xlink:href="#linearGradient6129-963-697-142-998-580-273"
       gradientUnits="userSpaceOnUse"
       gradientTransform="matrix(1.1446925,0,0,0.9977536,-3.4661413,1.0988425)" />
    <linearGradient
       id="linearGradient6129-963-697-142-998-580-273">
      <stop
         id="stop2661"
         style="stop-color:#0a0a0a;stop-opacity:0.498"
         offset="0" />
      <stop
         id="stop2663"
         style="stop-color:#0a0a0a;stop-opacity:0"
         offset="1" />
    </linearGradient>
    <radialGradient
       cx="63.969177"
       cy="14.113381"
       r="23.097054"
       fx="63.969177"
       fy="14.113381"
       id="radialGradient3404"
       xlink:href="#linearGradient7012-661-145-733-759-865-745"
       gradientUnits="userSpaceOnUse"
       gradientTransform="matrix(1.5646925,-9.5143002e-8,6.1772287e-8,1.015888,-86.212573,8.1461173)" />
    <linearGradient
       id="linearGradient7012-661-145-733-759-865-745">
      <stop
         id="stop2699"
         style="stop-color:#aacb7d;stop-opacity:1"
         offset="0" />
      <stop
         id="stop2701"
         style="stop-color:#709937;stop-opacity:1"
         offset="1" />
    </linearGradient>
    <linearGradient
       x1="82.453476"
       y1="45.114193"
       x2="65.340263"
       y2="15.943953"
       id="linearGradient3412"
       xlink:href="#linearGradient3390"
       gradientUnits="userSpaceOnUse"
       gradientTransform="translate(-53.765393,-0.1141929)" />
    <linearGradient
       id="linearGradient3390">
      <stop
         id="stop3392"
         style="stop-color:#51751e;stop-opacity:1"
         offset="0" />
      <stop
         id="stop3394"
         style="stop-color:#51751e;stop-opacity:1"
         offset="1" />
    </linearGradient>
    <linearGradient
       x1="302.85715"
       y1="366.64789"
       x2="302.85715"
       y2="609.50507"
       id="linearGradient7596-975"
       xlink:href="#linearGradient5048-585"
       gradientUnits="userSpaceOnUse"
       gradientTransform="matrix(0.08284024,0,0,0.03705882,-5.9408285,25.412461)" />
    <linearGradient
       id="linearGradient5048-585">
      <stop
         id="stop2667"
         style="stop-color:#000000;stop-opacity:0"
         offset="0" />
      <stop
         id="stop2669"
         style="stop-color:#000000;stop-opacity:1"
         offset="0.5" />
      <stop
         id="stop2671"
         style="stop-color:#000000;stop-opacity:0"
         offset="1" />
    </linearGradient>
    <radialGradient
       cx="605.71429"
       cy="486.64789"
       r="117.14286"
       fx="605.71429"
       fy="486.64789"
       id="radialGradient7598-526"
       xlink:href="#linearGradient5060-179"
       gradientUnits="userSpaceOnUse"
       gradientTransform="matrix(0.03212956,0,0,0.03705882,24.636785,25.412461)" />
    <linearGradient
       id="linearGradient5060-179">
      <stop
         id="stop2675"
         style="stop-color:#000000;stop-opacity:1"
         offset="0" />
      <stop
         id="stop2677"
         style="stop-color:#000000;stop-opacity:0"
         offset="1" />
    </linearGradient>
    <radialGradient
       cx="605.71429"
       cy="486.64789"
       r="117.14286"
       fx="605.71429"
       fy="486.64789"
       id="radialGradient7600-312"
       xlink:href="#linearGradient5060-820"
       gradientUnits="userSpaceOnUse"
       gradientTransform="matrix(-0.03212956,0,0,0.03705882,23.363215,25.412461)" />
    <linearGradient
       id="linearGradient5060-820">
      <stop
         id="stop2681"
         style="stop-color:#000000;stop-opacity:1"
         offset="0" />
      <stop
         id="stop2683"
         style="stop-color:#000000;stop-opacity:0"
         offset="1" />
    </linearGradient>
    <linearGradient
       x1="62.988873"
       y1="13.182598"
       x2="62.988873"
       y2="16.19013"
       id="linearGradient3482"
       xlink:href="#linearGradient6404"
       gradientUnits="userSpaceOnUse"
       gradientTransform="translate(-50.940898)" />
    <linearGradient
       id="linearGradient6404">
      <stop
         id="stop6406"
         style="stop-color:#f9f9f9;stop-opacity:1"
         offset="0" />
      <stop
         id="stop6408"
         style="stop-color:#c9c9c9;stop-opacity:1"
         offset="1" />
    </linearGradient>
    <radialGradient
       cx="3"
       cy="5.01718"
       r="21"
       fx="3"
       fy="5.01718"
       id="radialGradient3470"
       xlink:href="#linearGradient3484"
       gradientUnits="userSpaceOnUse"
       gradientTransform="matrix(-1.274898e-8,1.7142916,-2.159331,-1.4599595e-8,12.809361,2.8570011)" />
    <linearGradient
       id="linearGradient3484">
      <stop
         id="stop3486"
         style="stop-color:#bdbdbd;stop-opacity:1"
         offset="0" />
      <stop
         id="stop3488"
         style="stop-color:#d0d0d0;stop-opacity:1"
         offset="1" />
    </linearGradient>
    <linearGradient
       x1="86.132919"
       y1="105.105"
       x2="84.63858"
       y2="20.895"
       id="linearGradient2606"
       xlink:href="#linearGradient5128"
       gradientUnits="userSpaceOnUse"
       gradientTransform="matrix(0.2014014,0,0,0.2014015,18.110304,20.311705)" />
    <linearGradient
       id="linearGradient5128">
      <stop
         id="stop5130"
         style="stop-color:#ffffff;stop-opacity:1"
         offset="0" />
      <stop
         id="stop5132"
         style="stop-color:#959595;stop-opacity:1"
         offset="1" />
    </linearGradient>
    <linearGradient
       x1="32.036148"
       y1="19"
       x2="32.036148"
       y2="47.012184"
       id="linearGradient3413"
       xlink:href="#linearGradient3309"
       gradientUnits="userSpaceOnUse" />
    <linearGradient
       x1="63.9995"
       y1="3.1001"
       x2="63.9995"
       y2="122.8994"
       id="linearGradient3309"
       gradientUnits="userSpaceOnUse">
      <stop
         id="stop3311"
         style="stop-color:#f6f6f6;stop-opacity:1"
         offset="0" />
      <stop
         id="stop3313"
         style="stop-color:#d2d2d2;stop-opacity:1"
         offset="1" />
    </linearGradient>
    <linearGradient
       x1="25.922546"
       y1="19"
       x2="25.922546"
       y2="47.044857"
       id="linearGradient3415"
       xlink:href="#linearGradient3397"
       gradientUnits="userSpaceOnUse" />
    <linearGradient
       id="linearGradient3397">
      <stop
         id="stop3399"
         style="stop-color:#a0a0a0;stop-opacity:1"
         offset="0" />
      <stop
         id="stop3401"
         style="stop-color:#787878;stop-opacity:1"
         offset="1" />
    </linearGradient>
    <linearGradient
       y2="36.599415"
       x2="22.934725"
       y1="49.629246"
       x1="22.934725"
       gradientTransform="matrix(2.2041262,0,0,1.9531236,44.81525,2.9681362)"
       gradientUnits="userSpaceOnUse"
       id="linearGradient5887"
       xlink:href="#linearGradient6129-963-697-142-998-580-273-44-2-2" />
    <linearGradient
       y2="119.05979"
       x2="-91"
       y1="43.999817"
       x1="-91"
       gradientTransform="matrix(0.72580649,0,0,0.74516186,116.81336,18.325446)"
       gradientUnits="userSpaceOnUse"
       id="linearGradient5883"
       xlink:href="#linearGradient4632-0-6-4-7" />
    <linearGradient
       id="linearGradient4632-0-6-4-7">
      <stop
         id="stop4634-4-4-7-5"
         offset="0"
         style="stop-color:#55a7f3;stop-opacity:1;" />
      <stop
         id="stop4636-3-1-5-3"
         offset="1"
         style="stop-color:#1374cf;stop-opacity:1;" />
    </linearGradient>
    <linearGradient
       id="linearGradient3225"
       y2="5.4565001"
       gradientUnits="userSpaceOnUse"
       x2="36.358002"
       gradientTransform="matrix(0.68673263,0,0,0.69909319,-3.6949727,22.217352)"
       y1="8.059"
       x1="32.891998">
      <stop
         id="stop8591"
         style="stop-color:#8c8c8c;stop-opacity:1"
         offset="0" />
      <stop
         id="stop8593"
         style="stop-color:#646464;stop-opacity:1"
         offset="1" />
    </linearGradient>
    <radialGradient
       gradientTransform="matrix(0.2951992,0,0,0.25507295,-0.1707791,21.999592)"
       gradientUnits="userSpaceOnUse"
       xlink:href="#linearGradient3737"
       id="radialGradient3619-6"
       fy="90.171875"
       fx="48"
       r="42"
       cy="90.171875"
       cx="48" />
    <linearGradient
       id="linearGradient3737">
      <stop
         id="stop3739"
         style="stop-color:#ffffff;stop-opacity:1"
         offset="0" />
      <stop
         id="stop3741"
         style="stop-color:#ffffff;stop-opacity:0"
         offset="1" />
    </linearGradient>
    <linearGradient
       gradientTransform="matrix(0,-0.32521809,0.25507296,0,1.7552829,46.951309)"
       gradientUnits="userSpaceOnUse"
       xlink:href="#linearGradient3742"
       id="linearGradient3748"
       y2="51.433136"
       x2="23.76619"
       y1="51.470146"
       x1="7.3709002" />
    <linearGradient
       id="linearGradient3742">
      <stop
         offset="0"
         style="stop-color:#323232;stop-opacity:1"
         id="stop3744" />
      <stop
         offset="1"
         style="stop-color:#464646;stop-opacity:1"
         id="stop3746" />
    </linearGradient>
    <linearGradient
       gradientTransform="matrix(0.42857142,0,0,0.42857142,227.50536,-101.23132)"
       gradientUnits="userSpaceOnUse"
       xlink:href="#ButtonColor-7"
       id="linearGradient3617"
       y2="5.9877172"
       x2="48"
       y1="90"
       x1="48" />
    <linearGradient
       gradientUnits="userSpaceOnUse"
       id="ButtonColor-7"
       y2="0.99929649"
       x2="10.31979"
       y1="21"
       x1="10.31979">
      <stop
         offset="0"
         style="stop-color:#505050;stop-opacity:1"
         id="stop3189" />
      <stop
         offset="1"
         style="stop-color:#787878;stop-opacity:1"
         id="stop3191" />
    </linearGradient>
    <linearGradient
       gradientTransform="matrix(0.4285717,0,0,0.43033246,227.50536,-101.24189)"
       y2="63.893143"
       x2="36.357143"
       y1="6"
       x1="36.357143"
       gradientUnits="userSpaceOnUse"
       id="linearGradient2015"
       xlink:href="#linearGradient3737" />
    <linearGradient
       y2="90.238609"
       x2="32.251034"
       y1="6.1317081"
       x1="32.251034"
       gradientTransform="matrix(0.88966473,0,0,-0.88897608,103.82866,91.764071)"
       gradientUnits="userSpaceOnUse"
       id="linearGradient1974"
       xlink:href="#ButtonShadow-0" />
    <linearGradient
       x1="45.447727"
       y1="92.539597"
       x2="45.447727"
       y2="7.0165396"
       id="ButtonShadow-0"
       gradientUnits="userSpaceOnUse"
       gradientTransform="matrix(1.0058652,0,0,0.994169,100,0)">
      <stop
         id="stop3750-8"
         style="stop-color:#000000;stop-opacity:1"
         offset="0" />
      <stop
         id="stop3752-5-4"
         style="stop-color:#000000;stop-opacity:0.58823532"
         offset="1" />
    </linearGradient>
    <linearGradient
       y2="90.238609"
       x2="32.251034"
       y1="6.1317081"
       x1="32.251034"
       gradientTransform="matrix(0.88668581,0,0,-0.88621557,103.97166,91.631566)"
       gradientUnits="userSpaceOnUse"
       id="linearGradient1976"
       xlink:href="#ButtonShadow-0" />
    <linearGradient
       y2="90.238609"
       x2="32.251034"
       y1="6.1317081"
       x1="32.251034"
       gradientTransform="matrix(0.90932204,0,0,-0.90907903,1.839706,90.567956)"
       gradientUnits="userSpaceOnUse"
       id="linearGradient1978"
       xlink:href="#ButtonShadow-0" />
    <linearGradient
       x1="32.251034"
       y1="6.1317081"
       x2="32.251034"
       y2="90.238609"
       id="linearGradient3780"
       xlink:href="#ButtonShadow-0"
       gradientUnits="userSpaceOnUse"
       gradientTransform="matrix(0.88394566,0,0,-0.88394572,10.163169,89.361561)" />
    <linearGradient
       x1="32.251034"
       y1="6.1317081"
       x2="32.251034"
       y2="90.238609"
       id="linearGradient3721-0"
       xlink:href="#ButtonShadow-0"
       gradientUnits="userSpaceOnUse"
       gradientTransform="matrix(0.83742219,0,0,-0.8374222,12.396274,87.12843)" />
    <linearGradient
       id="linearGradient3225-6"
       y2="5.4565001"
       gradientUnits="userSpaceOnUse"
       x2="36.358002"
       gradientTransform="matrix(1.1538423,0,0,1.1746103,-7.1476824,6.2923109)"
       y1="8.059"
       x1="32.891998">
      <stop
         id="stop8591-7"
         style="stop-color:#497db8;stop-opacity:1"
         offset="0" />
      <stop
         id="stop8593-5"
         style="stop-color:#276096;stop-opacity:1"
         offset="1" />
    </linearGradient>
  </defs>
  <metadata
     id="metadata18162">
    <rdf:RDF>
      <cc:Work
         rdf:about="">
        <dc:format>image/svg+xml</dc:format>
        <dc:type
           rdf:resource="http://purl.org/dc/dcmitype/StillImage" />
        <dc:title></dc:title>
      </cc:Work>
    </rdf:RDF>
  </metadata>
  <g
     id="layer1"
     transform="matrix(0.7,0,0,0.7,-1.7999998,-16.5)">
    <g
       style="display:inline"
       id="layer5"
       transform="matrix(0.30783438,0,0,0.30783438,-2.1897965,20.552665)">
      <path
         id="rect3723"
         d="m 21.510559,84.057885 h 62.16399 c 3.34823,0 6.04372,-2.727212 6.04372,-6.114824 V 38.904982 L 60.619729,9.8064506 h -39.10917 c -3.34822,0 -6.04372,2.7272114 -6.04372,6.1148244 v 62.021786 c 0,3.387612 2.6955,6.114824 6.04372,6.114824 z"
         style="display:inline;opacity:0.63;fill:url(#linearGradient3780);fill-opacity:1;fill-rule:nonzero;stroke:none;stroke-width:0.86845267" />
    </g>
    <g
       id="layer1-3"
       transform="matrix(0.59517027,0,0,0.59517032,-133.64915,82.293312)"
       style="opacity:1">
      <path
         id="rect2419-1"
         d="m 232.64822,-98.6599 h 19.54285 l 13.88572,13.885715 v 19.542857 c 0,1.424571 -1.14685,2.571428 -2.57143,2.571428 h -30.85714 c -1.42458,0 -2.57143,-1.146857 -2.57143,-2.571428 v -30.857144 c 0,-1.424571 1.14685,-2.571428 2.57143,-2.571428 z"
         style="fill:url(#linearGradient3617);fill-opacity:1;fill-rule:nonzero;stroke:none;stroke-width:0.42857143" />
      <path
         style="opacity:0.3;fill:url(#linearGradient2015);fill-opacity:1;fill-rule:nonzero;stroke:none;stroke-width:0.4294512"
         id="rect3728-7"
         d="m 232.64822,-98.6599 c -1.42457,0 -2.57143,1.151568 -2.57143,2.581998 v 0.860662 28.234034 c 1.98322,4.185183 0.51348,2.977317 0.42857,0.430332 v -28.09486 -0.860668 c 0,-1.197119 0.95064,-2.151664 2.14286,-2.151664 h 0.85715 17.82858 0.85715 l 13.45714,13.326778 v 0.860667 16.919747 c -1.2063,3.165148 0.42855,3.584963 0.42855,-0.430333 v -16.919747 -0.860668 L 252.19108,-98.6599 Z" />
    </g>
    <path
       id="path4474-3-5"
       style="opacity:0.2;fill:#000000;fill-opacity:1;fill-rule:evenodd;stroke-width:0.56881213"
       d="m 13.460156,23.574305 c 1.892484,0 0.741329,8.506605 0.741329,8.506605 0,0 10.512399,-1.113452 10.512399,2.371481 0,-0.848902 -0.002,-2.614157 -0.002,-2.614157 l -8.264401,-8.264365 z" />
    <path
       style="color:#000000;display:inline;overflow:visible;visibility:visible;opacity:1;fill:url(#linearGradient3748);fill-opacity:1;fill-rule:nonzero;stroke:none;stroke-width:0.43202695;marker:none;enable-background:accumulate"
       id="rect3736"
       d="M 3.2857204,43.048691 C 3.2857204,44.129716 3.9682956,45 4.8161585,45 H 23.181412 c 0.847863,0 1.530438,-0.870284 1.530438,-1.951309 V 39.285714 H 3.2857204 Z" />
    <path
       style="opacity:0.2;fill:url(#radialGradient3619-6);fill-opacity:1;fill-rule:nonzero;stroke:none;stroke-width:0.25559649"
       id="path3615-2"
       d="M 4.816158,45 C 3.9682956,45 3.2857204,44.31462 3.2857204,43.463273 v -0.595058 c 0.010437,-3.114206 0.255072,-3.180616 0.255072,-0.256136 v 0.512242 c 0,0.712489 0.5657905,1.280605 1.2753656,1.280605 h 0.5101471 17.3449539 0.510147 c 0.709576,0 1.275366,-0.568116 1.275366,-1.280605 v -0.512242 c 0.02504,-3.471899 0.255078,-2.283853 0.255078,0.256121 v 0.595058 C 24.711844,44.31462 24.029269,45 23.181406,45 Z" />
    <g
       aria-label="DOC"
       transform="matrix(1.0042229,0,0,0.9957949,-16.0339,-23.152542)"
       style="font-style:normal;font-weight:normal;font-size:39.83179474px;line-height:1.25;font-family:sans-serif;letter-spacing:0px;word-spacing:0px;fill:#000000;fill-opacity:1;stroke:none;stroke-width:0.99579489"
       id="text1540" />
    <g
       transform="matrix(0.63206337,0,0,0.63206337,0.28984184,20.159369)"
       id="g1515">
      <g
         transform="matrix(0.56280796,0,0,0.56280796,7.7111388,14.738124)"
         id="g5615"
         style="display:inline;opacity:0.12000002;fill:#000000">
        <path
           d="M 14.718,0.0350342 H 0.417999 L 0,5.51202 H 0.445 C 0.764999,1.41003 1.117,0.692017 4.957,0.692017 c 0.445,0 1.168,0 1.367,0 C 6.797,0.766052 6.797,1.06702 6.797,1.63702 V 15.117 c 0,0.895 -0.075,1.168 -2.161,1.168 H 3.933 v 0.5981 C 5.121,16.86 6.359,16.836 7.574,16.836 c 1.211,0 2.453,0.024 3.64,0.0471 V 16.285 h -0.691 c -2.05501,0 -2.129,-0.273 -2.129,-1.168 V 1.63702 c 0,-0.54699 0,-0.84399 0.446,-0.945003 0.195,0 0.91401,0 1.359,0 3.789,0 4.16,0.713993 4.48,4.820003 h 0.446"
           id="path5617"
           style="fill:#000000;stroke:none" />
        <path
           d="m 27.144,16.02 h -0.445 c -0.543,3.672 -0.863,5.668 -5.219,5.668 h -3.437 c -0.989,0 -1.036,-0.125 -1.036,-0.977 v -6.922 h 2.336 c 2.336,0 2.559,0.856 2.559,2.946 H 22.3 v -6.442 h -0.398 c 0,2.055 -0.223,2.895 -2.559,2.895 H 17.007 V 7.05103 c 0,-0.836 0.047,-0.961 1.036,-0.961 h 3.386 c 3.832,0 4.278,1.52301 4.625,4.79697 H 26.5 L 25.906,5.41003 H 13.367 v 0.68 c 1.754,0 2.035,0 2.035,1.11297 v 13.364 c 0,1.1131 -0.277,1.1131 -2.035,1.1131 v 0.5979 h 12.887"
           id="path5619"
           style="fill:#000000;stroke:none" />
        <path
           d="M 33.82,7.51202 37.484,2.21503 C 37.851,1.69501 38.597,0.625 40.629,0.598022 V 0 c -0.567,0.0469971 -1.508,0.0469971 -2.102,0.0469971 -0.816,0 -1.832,0 -2.449,-0.0469971 v 0.598022 c 0.793,0.073975 0.988,0.570008 0.988,0.968998 0,0.29602 -0.121,0.49603 -0.297,0.742 L 33.5,7.05103 29.836,1.68805 C 29.664,1.41803 29.64,1.34003 29.64,1.26605 c 0,-0.22302 0.27,-0.645017 1.09,-0.668028 V 0 c -0.793,0.0469971 -2.004,0.0469971 -2.82,0.0469971 -0.641,0 -1.879,0 -2.477,-0.0469971 v 0.598022 c 1.36,0 1.805,0.051026 2.352,0.820008 l 4.777,7.01599 -4.308,6.29308 c -1.063,1.539 -2.672,1.5659 -3.145,1.5659 v 0.5981 c 0.566,-0.047 1.508,-0.047 2.102,-0.047 0.668,0 1.832,0 2.449,0.047 V 16.293 c -0.766,-0.0739 -0.988,-0.57 -0.988,-0.969 0,-0.32 0.121,-0.496 0.246,-0.672 l 3.961,-5.78097 4.308,6.33197 c 0.195,0.2741 0.195,0.348 0.195,0.422 0,0.195 -0.222,0.621 -1.089,0.672 v 0.598 c 0.793,-0.047 2.004,-0.047 2.82,-0.047 0.641,0 1.879,0 2.48,0.047 v -0.598 c -1.586,0 -1.836,-0.121 -2.328,-0.8199"
           id="path5621"
           style="fill:#000000;stroke:none" />
      </g>
      <path
         d="m 24.69302,14.004366 c -0.32165,0.02036 -0.63892,0.08774 -0.877833,0.0418 a 0.10467798,0.10467798 0 0 0 -0.02089,0 c -0.609367,0.0099 -1.226396,-0.01268 -1.839268,-0.03133 a 0.10467798,0.10467798 0 0 0 -0.01045,0 c -0.347529,0.04669 -0.558864,0.311589 -0.627023,0.606123 -0.06816,0.29453 -0.02308,0.625575 0.125403,0.867382 0.09316,0.150793 0.234058,0.237052 0.376215,0.27171 0.142157,0.03466 0.293112,0.03003 0.428465,0.03133 0.135353,0.0013 0.261897,0.0097 0.355314,0.0418 0.09342,0.03214 0.159046,0.07796 0.209008,0.198558 a 0.10467798,0.10467798 0 0 0 0.01045,0.0209 l 2.351337,3.427726 c -0.78769,1.12096 -1.523561,2.284038 -2.340888,3.365026 -0.157771,0.202041 -0.360394,0.256655 -0.606122,0.29261 -0.245727,0.03595 -0.520377,0.04125 -0.773328,0.167207 a 0.10467798,0.10467798 0 0 0 -0.0209,0.01044 c -0.209759,0.158301 -0.305378,0.40678 -0.323961,0.658374 -0.01858,0.251596 0.03093,0.508469 0.156755,0.710627 a 0.10467798,0.10467798 0 0 0 0.01045,0.01044 c 0.121448,0.151413 0.309325,0.231033 0.501618,0.250811 -0.0412,0.48131 -0.286836,0.821065 -0.647923,1.034589 -0.382915,0.226427 -0.895838,0.302793 -1.369001,0.240357 a 0.10467798,0.10467798 0 0 0 -0.01045,0 h -1.74522 v -2.999265 c 0.221731,0.01111 0.455071,-0.0089 0.668824,-0.01044 0.237437,-0.0017 0.428457,0.04177 0.56432,0.167205 0.05119,0.198361 0.05082,0.479581 0.0836,0.752429 0.01713,0.142579 0.0412,0.282778 0.114955,0.407565 0.07237,0.122451 0.193271,0.223815 0.355312,0.282159 0.0031,9.33e-4 0.0073,-9.33e-4 0.01045,0 0.256674,0.09918 0.558136,0.08249 0.79423,-0.0418 0.236394,-0.124448 0.409634,-0.368162 0.386665,-0.679274 -2.63e-4,-0.0035 3.14e-4,-0.0069 0,-0.01044 -0.01422,-1.227337 0.02889,-2.469292 -0.02089,-3.699438 a 0.10467798,0.10467798 0 0 0 0,-0.02089 c -0.04697,-0.207046 -0.180583,-0.358545 -0.344863,-0.449368 -0.164278,-0.09082 -0.365407,-0.131786 -0.55387,-0.114956 -0.188462,0.01682 -0.370755,0.08684 -0.512069,0.209009 -0.141315,0.12217 -0.233147,0.303181 -0.22991,0.522519 a 0.10467798,0.10467798 0 0 0 0,0.03133 c 0.05955,0.215038 0.05953,0.379415 0.0209,0.501619 -0.03863,0.122205 -0.11381,0.206881 -0.219457,0.27171 -0.211297,0.12966 -0.553133,0.152381 -0.898733,0.09405 a 0.10467798,0.10467798 0 0 0 -0.05225,0 c -0.108119,0.03267 -0.136427,0.01863 -0.146306,0.01044 -0.0099,-0.0082 -0.02858,-0.04412 -0.03135,-0.114955 -0.0053,-0.13661 0.04054,-0.340688 0.01045,-0.522518 v -0.0209 -1.901971 c 1.011481,0.03341 2.021406,-0.106012 2.95746,0.177655 0.0033,9.34e-4 0.0072,-9.33e-4 0.01045,0 0.349562,0.201421 0.473142,0.535087 0.543419,0.930085 0.07173,0.403168 0.07994,0.857221 0.24036,1.243597 a 0.10467798,0.10467798 0 0 0 0.01045,0.01044 c 0.195407,0.307235 0.587918,0.41107 0.930084,0.344863 0.171085,-0.03311 0.327653,-0.108631 0.449368,-0.229908 0.121716,-0.121282 0.20266,-0.291163 0.198558,-0.491169 a 0.10467798,0.10467798 0 0 0 0,-0.01044 C 23.225439,19.762207 23.140928,18.64318 22.968718,17.547016 a 0.10467798,0.10467798 0 0 0 -0.01045,-0.0209 c -0.06909,-0.16822 -0.173079,-0.283633 -0.303063,-0.35531 -0.129983,-0.07168 -0.281859,-0.09476 -0.428466,-0.104504 -0.293212,-0.01947 -0.599365,0.02375 -0.825579,0 a 0.10467798,0.10467798 0 0 0 -0.01045,0 h -4.493674 c -0.08282,-0.844744 -0.0785,-1.723247 -0.229908,-2.570799 a 0.10467798,0.10467798 0 0 0 -0.01045,-0.0209 c -0.06386,-0.153732 -0.161674,-0.26606 -0.282158,-0.3344 -0.120486,-0.06834 -0.260928,-0.0923 -0.397116,-0.104504 -0.272373,-0.02442 -0.552568,0.01499 -0.762878,0 a 0.10467798,0.10467798 0 0 0 -0.01045,0 c -2.455721,0.007 -4.912533,-0.01404 -7.3675223,0.01044 a 0.10467798,0.10467798 0 0 0 -0.020901,0 c -0.2879292,0.04923 -0.4516895,0.254319 -0.5329694,0.480719 -0.08001,0.222866 -0.094292,0.471738 -0.094053,0.679275 4.1e-6,0.0033 -8.2e-6,0.0072 0,0.01044 -0.055277,0.902634 -0.1708921,1.825458 -0.1881074,2.738002 a 0.10467798,0.10467798 0 0 0 0,0.0209 c 0.1533944,0.818961 1.5601624,0.796144 1.6720632,-0.03132 0.059967,-0.427511 0.062516,-0.997293 0.1985567,-1.431705 0.068023,-0.217208 0.1696567,-0.398128 0.3135119,-0.512069 0.141803,-0.11232 0.3327746,-0.167062 0.616573,-0.135856 0.0033,6.42e-4 0.0072,-6.41e-4 0.01045,0 0.118124,0.02385 0.2413983,0.01468 0.3762153,0 0.138561,-0.01511 0.28172,-0.04048 0.397113,-0.0418 0.115395,-0.0013 0.201241,0.02481 0.22991,0.05226 0.01434,0.0137 0.0165,0.02682 0.0209,0.0627 0.0044,0.03588 0.0013,0.08971 -0.0209,0.167207 a 0.10467798,0.10467798 0 0 0 0,0.03133 v 7.022654 c -0.208189,0.03337 -0.47762,0.0024 -0.752431,0.01044 -0.1522843,0.0045 -0.2999533,0.0215 -0.4389169,0.0836 -0.1389628,0.06211 -0.2660075,0.179687 -0.344863,0.344863 -0.088721,0.234634 -0.1237034,0.531431 -0.052255,0.79423 0.071452,0.262794 0.2601776,0.503464 0.5747726,0.553869 a 0.10467798,0.10467798 0 0 0 0.0209,0 c 1.4488213,-0.01872 2.9178263,0.0088 4.3682623,-0.01044 a 0.10467798,0.10467798 0 0 0 0.03135,0 c 0.307283,-0.0917 0.473109,-0.367285 0.522519,-0.647923 0.04941,-0.28064 -1.31e-4,-0.577753 -0.135855,-0.804682 a 0.10467798,0.10467798 0 0 0 -0.01045,-0.01044 c -0.196019,-0.261824 -0.496117,-0.305585 -0.773333,-0.303067 -0.246758,0.0024 -0.485728,0.02916 -0.668825,-0.01044 v -7.31529 c 0.317848,0.01287 0.661572,-0.01896 0.971886,0 0.341595,0.02088 0.62691,0.104204 0.825581,0.355314 0.04425,0.22736 0.147319,0.480731 0.177657,0.668825 0.01588,0.09853 0.01464,0.168346 -0.01045,0.209008 -0.02509,0.04066 -0.07683,0.07297 -0.209009,0.0836 a 0.10467798,0.10467798 0 0 0 -0.0418,0.01044 c -0.231035,0.135714 -0.339461,0.374896 -0.365764,0.616572 -0.0263,0.241677 0.01634,0.496075 0.0836,0.700177 a 0.10467798,0.10467798 0 0 0 0.01045,0.0209 c 0.116074,0.224822 0.329969,0.32601 0.543421,0.365764 0.177314,0.03301 0.350931,0.02479 0.512069,0.0209 v 7.315276 c -0.201604,-0.01585 -0.421543,-0.01706 -0.627023,0.05225 -0.240958,0.08126 -0.457974,0.266534 -0.501619,0.564322 -5.31e-4,0.0034 4.08e-4,0.007 0,0.01044 -0.04624,0.225501 -0.04063,0.485573 0.05226,0.710627 0.09427,0.228397 0.29244,0.421036 0.585222,0.438916 a 0.10467798,0.10467798 0 0 0 0.01045,0 c 2.470008,0.01739 4.948663,0.01747 7.419776,0 a 0.10467798,0.10467798 0 0 0 0.0209,0 c 0.17151,-0.0311 0.304082,-0.104396 0.397115,-0.209007 0.09303,-0.104614 0.143322,-0.233698 0.177656,-0.365764 0.06867,-0.264134 0.07093,-0.559314 0.114955,-0.773328 a 0.10467798,0.10467798 0 0 0 0,-0.01044 l 0.240359,-1.68251 c 0.215131,-0.005 0.480728,0.04039 0.752428,0.03133 0.150922,-0.005 0.303416,-0.02665 0.438919,-0.09405 0.135502,-0.06738 0.250023,-0.187444 0.323962,-0.355312 a 0.10467798,0.10467798 0 0 0 0,-0.01044 c 0.0856,-0.242571 0.109443,-0.526758 0.03135,-0.783777 -0.06376,-0.209852 -0.209566,-0.404316 -0.418015,-0.501619 l 1.536207,-2.225934 c 0.517132,0.776026 1.085992,1.5555 1.546658,2.309537 -0.198711,0.131554 -0.313723,0.348935 -0.344864,0.574772 -0.03654,0.265004 0.01944,0.546409 0.135855,0.762878 a 0.10467798,0.10467798 0 0 0 0.01045,0.01044 c 0.229842,0.290351 0.569414,0.331582 0.888283,0.313511 0.318869,-0.01805 0.640114,-0.07944 0.877833,-0.03133 a 0.10467798,0.10467798 0 0 0 0.03135,0 c 0.643035,-0.06035 1.343122,0.118174 2.027376,-0.03133 a 0.10467798,0.10467798 0 0 0 0.02089,-0.01044 c 0.273693,-0.118376 0.414158,-0.379702 0.449368,-0.647926 0.0352,-0.268225 -0.02081,-0.548907 -0.146306,-0.762877 a 0.10467798,0.10467798 0 0 0 -0.01045,-0.01044 c -0.155958,-0.225619 -0.398912,-0.277434 -0.627017,-0.29261 -0.22043,-0.01468 -0.432996,-0.01167 -0.595672,-0.05225 -0.959244,-1.38243 -1.907887,-2.773188 -2.863408,-4.159255 0.686618,-0.969133 1.333794,-1.968686 2.048277,-2.905209 0.08219,-0.106462 0.185044,-0.162798 0.313511,-0.198557 0.128466,-0.03576 0.274343,-0.04776 0.428468,-0.0627 0.154122,-0.01492 0.312838,-0.03381 0.459817,-0.09405 0.146974,-0.06025 0.284841,-0.168387 0.36576,-0.344867 0.0881,-0.235121 0.123386,-0.53103 0.05226,-0.79423 -0.07114,-0.263207 -0.259209,-0.50595 -0.574779,-0.553874 a 0.10467798,0.10467798 0 0 0 -0.0209,0 c -0.92078,0.01883 -1.860594,0.02267 -2.779803,0 a 0.10467798,0.10467798 0 0 0 -0.0209,0 c -0.323344,0.06295 -0.511522,0.318889 -0.574773,0.595671 -0.06325,0.27678 -0.01917,0.579878 0.09405,0.815131 a 0.10467798,0.10467798 0 0 0 0.03135,0.0418 c 0.173546,0.128504 0.278417,0.216983 0.292609,0.26126 0.0071,0.02214 0.004,0.04731 -0.0209,0.09405 -0.02487,0.04675 -0.07773,0.112466 -0.167206,0.198557 a 0.10467798,0.10467798 0 0 0 -0.01045,0.01044 l -0.961425,1.389899 c -0.396863,-0.586405 -0.819937,-1.174736 -1.191338,-1.745214 0.212302,-0.128188 0.320506,-0.353505 0.355314,-0.585222 0.04027,-0.268076 -0.0067,-0.55274 -0.125404,-0.773329 a 0.10467798,0.10467798 0 0 0 -0.01045,-0.01044 C 25.360247,14.026049 25.01435,13.984017 24.693039,14.004366 Z"
         id="path4321"
         style="display:inline;opacity:0.119;fill:#000000;stroke:none;stroke-width:0.33441249" />
      <path
         d="m 21.98637,14.411932 a 0.32237995,0.32237995 0 0 0 -0.282161,0.323962 v 0.334412 a 0.32237995,0.32237995 0 0 0 0.323962,0.323962 c 0.377449,0 0.605391,0.0112 0.731528,0.05225 0.126136,0.04105 0.190752,0.09489 0.323962,0.282161 l 2.570796,3.75169 -2.299086,3.354575 v 0.01044 c -0.512527,0.73533 -1.267732,0.741977 -1.515305,0.741977 a 0.32237995,0.32237995 0 0 0 -0.323963,0.323963 v 0.334412 a 0.32237995,0.32237995 0 0 0 0.355313,0.323962 c 0.09981,-0.0083 0.258372,-0.0078 0.397115,-0.01044 -0.122066,0.646912 -0.266037,1.166588 -0.53297,1.473505 -0.32275,0.371091 -0.851609,0.585222 -1.933322,0.585222 h -1.933322 c -0.122771,0 -0.201486,-0.0037 -0.25081,-0.01044 -0.0045,-0.04282 -0.01045,-0.107523 -0.01045,-0.209007 v -3.574023 h 0.992787 c 0.618548,0 0.839616,0.09995 0.950985,0.250809 0.111371,0.150854 0.167207,0.499897 0.167207,1.07639 a 0.32237995,0.32237995 0 0 0 0.323961,0.323963 h 0.219459 a 0.32237995,0.32237995 0 0 0 0.323963,-0.323963 v -3.615835 a 0.32237995,0.32237995 0 0 0 -0.323962,-0.323961 h -0.219459 a 0.32237995,0.32237995 0 0 0 -0.323961,0.323961 c 0,0.566445 -0.04713,0.899553 -0.156757,1.045039 -0.109625,0.145487 -0.341936,0.25081 -0.961435,0.25081 h -0.992786 v -3.124669 c 0,-0.103986 0.0056,-0.167969 0.01045,-0.209008 0.04858,-0.007 0.12884,-0.01044 0.25081,-0.01044 h 1.90197 c 1.035292,0 1.509203,0.195637 1.787017,0.54342 0.277813,0.347779 0.394484,0.958409 0.491168,1.87062 a 0.32237995,0.32237995 0 0 0 0.323963,0.29261 h 0.250808 a 0.32237995,0.32237995 0 0 0 0.323957,-0.355313 L 22.613393,17.756087 A 0.32237995,0.32237995 0 0 0 22.28943,17.463479 H 16.531267 L 16.322259,14.735928 A 0.32237995,0.32237995 0 0 0 15.998297,14.432866 H 7.9514972 A 0.32237995,0.32237995 0 0 0 7.6275355,14.735928 L 7.387176,17.818792 a 0.32237995,0.32237995 0 0 0 0.3239628,0.344863 h 0.25081 a 0.32237995,0.32237995 0 0 0 0.323961,-0.303062 c 0.089449,-1.146646 0.2097859,-1.764296 0.4493673,-2.037825 0.1197886,-0.136769 0.271363,-0.217579 0.5538695,-0.282161 0.282506,-0.06458 0.6821041,-0.09405 1.2122444,-0.09405 h 0.700178 c 0.0024,0.02906 0.01045,0.07931 0.01045,0.209007 v 7.586985 c 0,0.121849 -0.0028,0.210766 -0.01045,0.240358 -0.0076,0.02959 0.0035,0.0013 -0.01045,0.01044 -0.02801,0.01819 -0.294529,0.0836 -0.867384,0.0836 H 9.9266207 A 0.32237995,0.32237995 0 0 0 9.6026582,23.90091 v 0.334413 a 0.32237995,0.32237995 0 0 0 0.3344125,0.323961 c 0.6668073,-0.01297 1.3564983,-0.02089 2.0378273,-0.02089 0.67907,0 1.371605,0.0079 2.037825,0.02089 a 0.32237995,0.32237995 0 0 0 0.334412,-0.323965 v -0.334414 a 0.32237995,0.32237995 0 0 0 -0.323962,-0.323961 h -0.386665 c -0.563919,0 -0.828465,-0.06505 -0.856932,-0.0836 -0.01424,-0.0093 -0.0027,0.0088 -0.01045,-0.0209 -0.0078,-0.02969 -0.01045,-0.108805 -0.01045,-0.229909 v -7.586987 c 0,-0.128377 0.0075,-0.182599 0.01045,-0.209008 h 0.679276 c 0.518445,0 0.911278,0.0304 1.191344,0.09406 0.280065,0.06363 0.442954,0.147392 0.56432,0.28216 0.21072,0.233982 0.320878,0.784209 0.407566,1.640711 h -0.376214 a 0.32237995,0.32237995 0 0 0 -0.323961,0.323961 v 0.376215 a 0.32237995,0.32237995 0 0 0 0.323961,0.323961 c 0.493513,0 0.76681,0.02846 0.794231,0.04181 0.0087,0.02578 0.0209,0.117691 0.0209,0.261258 v 7.52428 c 0,0.143778 -0.01224,0.235394 -0.0209,0.261261 -0.02679,0.01304 -0.299584,0.0418 -0.794231,0.0418 a 0.32237995,0.32237995 0 0 0 -0.323961,0.323961 v 0.334414 a 0.32237995,0.32237995 0 0 0 0.323961,0.323962 h 7.252575 a 0.32237995,0.32237995 0 0 0 0.323962,-0.282161 l 0.397116,-2.779804 c 0.380026,0.0017 0.89508,0.01037 1.170443,0.03133 a 0.32237995,0.32237995 0 0 0 0.344861,-0.323963 V 23.911345 A 0.32237995,0.32237995 0 0 0 24.43176,23.587383 c -0.147746,-0.01425 -0.191071,-0.0483 -0.219458,-0.0836 -0.0284,-0.03532 -0.0418,-0.09277 -0.0418,-0.146306 0,-0.101939 0.0057,-0.09309 0.07315,-0.188107 a 0.32237995,0.32237995 0 0 0 0,-0.01044 l 1.964673,-2.863408 2.16323,3.176919 a 0.32237995,0.32237995 0 0 0 0.01045,0.01044 c 0.01719,0.02414 0.01273,0.01766 0.0209,0.03133 -0.03221,0.02625 -0.102852,0.06261 -0.282161,0.07315 a 0.32237995,0.32237995 0 0 0 -0.30306,0.323963 v 0.334412 a 0.32237995,0.32237995 0 0 0 0.344863,0.323962 c 0.424558,-0.02515 1.095258,-0.02091 1.557107,-0.02091 0.364066,0 1.079228,-0.0027 1.379451,0.02091 A 0.32237995,0.32237995 0 0 0 31.44397,24.245736 V 23.911323 A 0.32237995,0.32237995 0 0 0 31.120008,23.58736 c -0.438305,0 -0.669241,-0.02475 -0.773329,-0.0627 -0.104087,-0.03796 -0.142721,-0.07803 -0.271709,-0.261259 l -2.947015,-4.284657 1.943772,-2.800703 c 0.211022,-0.299009 0.475122,-0.770109 1.504856,-0.78378 a 0.32237995,0.32237995 0 0 0 0.323956,-0.323964 v -0.334423 a 0.32237995,0.32237995 0 0 0 -0.355308,-0.323962 c -0.293234,0.02431 -0.818384,0.03133 -1.149544,0.03133 -0.456958,0 -1.035068,-0.0067 -1.35855,-0.03133 a 0.32237995,0.32237995 0 0 0 -0.344863,0.323962 v 0.334413 a 0.32237995,0.32237995 0 0 0 0.292612,0.323961 c 0.157171,0.01465 0.194335,0.05164 0.219458,0.0836 0.02512,0.03197 0.0418,0.0855 0.0418,0.146304 0,0.07869 -0.01303,0.10207 -0.104503,0.229909 l -1.578007,2.288635 -1.797466,-2.633497 h 0.01045 c -0.01544,-0.02425 -0.01046,-0.02434 -0.0209,-0.04181 0.0359,-0.0298 0.09858,-0.06859 0.261259,-0.07315 a 0.32237995,0.32237995 0 0 0 0.313519,-0.323962 v -0.334409 a 0.32237995,0.32237995 0 0 0 -0.344859,-0.323959 c -0.429268,0.02545 -1.110601,0.03133 -1.567559,0.03133 -0.357842,0 -1.063781,-0.0074 -1.369001,-0.03133 a 0.32237995,0.32237995 0 0 0 -0.0627,0 z"
         id="path5651"
         style="display:inline;opacity:1;fill:#ffffff;fill-opacity:1;stroke:none;stroke-width:0.33441249" />
    </g>
    <path
       id="path4474-3"
       style="opacity:0.2;fill:#000000;fill-opacity:1;fill-rule:evenodd;stroke-width:0.5377692"
       d="m 14.163648,23.573869 c 1.789201,0 0.69371,7.880154 0.69371,7.880154 0,0 3.488495,-0.415245 6.314417,-0.05772 1.923803,0.243391 3.540539,0.844919 3.540539,2.179404 0,-0.802577 -4.64e-4,-1.737474 -4.64e-4,-1.737474 l -8.264367,-8.264364 z" />
    <path
       id="path4474"
       style="fill:url(#linearGradient3225);fill-rule:evenodd;stroke-width:0.5066871"
       d="m 15.007914,23.579044 c 1.685788,0 0.607213,7.279305 0.607213,7.279305 0,0 9.099163,-1.117886 9.099163,1.986428 0,-0.756187 -0.0024,-1.006543 -0.0024,-1.006543 l -8.264407,-8.264365 z" />
  </g>
  <path
     style="opacity:0.3;fill:#000000;fill-opacity:1;stroke:none;stroke-width:0.15410367;stroke-linejoin:round;stroke-miterlimit:4;stroke-dasharray:none;stroke-dashoffset:0;stroke-opacity:1;paint-order:stroke fill markers"
     d="M 0.50000434,11 H 15.498295 v 1 H 0.50000434 Z"
     id="rect1270" />
</svg>
