<?xml version="1.0" encoding="UTF-8" standalone="no"?>
<svg
   xmlns:dc="http://purl.org/dc/elements/1.1/"
   xmlns:cc="http://creativecommons.org/ns#"
   xmlns:rdf="http://www.w3.org/1999/02/22-rdf-syntax-ns#"
   xmlns:svg="http://www.w3.org/2000/svg"
   xmlns="http://www.w3.org/2000/svg"
   xmlns:xlink="http://www.w3.org/1999/xlink"
   width="16"
   height="16"
   id="svg18157"
   version="1.1">
  <defs
     id="defs18159">
    <linearGradient
       xlink:href="#linearGradient3454-2-5-0-3"
       id="linearGradient12489"
       gradientUnits="userSpaceOnUse"
       gradientTransform="matrix(0.89189031,0,0,1.0580283,3.1206609,5.3536023)"
       x1="42.470848"
       y1="11.952797"
       x2="42.470848"
       y2="35.581654" />
    <linearGradient
       id="linearGradient3454-2-5-0-3">
      <stop
         offset="0"
         style="stop-color:#ffffff;stop-opacity:1"
         id="stop3456-4-9-38-1" />
      <stop
         offset="0.0097359"
         style="stop-color:#ffffff;stop-opacity:0.23529412"
         id="stop3458-39-80-3-5" />
      <stop
         offset="0.99001008"
         style="stop-color:#ffffff;stop-opacity:0.15686275"
         id="stop3460-7-0-2-4" />
      <stop
         offset="1"
         style="stop-color:#ffffff;stop-opacity:0.39215687"
         id="stop3462-0-9-8-7" />
    </linearGradient>
    <linearGradient
       xlink:href="#linearGradient6129-963-697-142-998-580-273-44-2-2"
       id="linearGradient12487"
       gradientUnits="userSpaceOnUse"
       gradientTransform="matrix(1.1446925,0,0,0.9977536,-3.466138,1.0988397)"
       x1="22.934725"
       y1="49.629246"
       x2="22.809399"
       y2="36.657963" />
    <linearGradient
       id="linearGradient6129-963-697-142-998-580-273-44-2-2">
      <stop
         id="stop2661-01-6-2"
         style="stop-color:#0a0a0a;stop-opacity:0.498"
         offset="0" />
      <stop
         id="stop2663-64-5-5"
         style="stop-color:#0a0a0a;stop-opacity:0"
         offset="1" />
    </linearGradient>
    <linearGradient
       xlink:href="#linearGradient4632-0-6-4-7"
       id="linearGradient12481"
       gradientUnits="userSpaceOnUse"
       gradientTransform="matrix(1,0,0,1.0357143,2.0849371e-6,-1.5890903)"
       x1="35.792694"
       y1="17.118193"
       x2="35.792694"
       y2="43.761127" />
    <linearGradient
       id="linearGradient4632-0-6-4">
      <stop
         style="stop-color:#aacb7d;stop-opacity:1;"
         offset="0"
         id="stop4634-4-4-7" />
      <stop
         style="stop-color:#709937;stop-opacity:1;"
         offset="1"
         id="stop4636-3-1-5" />
    </linearGradient>
    <radialGradient
       xlink:href="#linearGradient5060-820-91-9-0"
       id="radialGradient12475"
       gradientUnits="userSpaceOnUse"
       gradientTransform="matrix(-0.03079083,0,0,0.02470588,23.389752,31.94164)"
       cx="605.71429"
       cy="486.64789"
       fx="605.71429"
       fy="486.64789"
       r="117.14286" />
    <linearGradient
       id="linearGradient5060-820-91-9-0">
      <stop
         id="stop2681-778-5-1"
         style="stop-color:#000000;stop-opacity:1"
         offset="0" />
      <stop
         id="stop2683-2-86-2"
         style="stop-color:#000000;stop-opacity:0"
         offset="1" />
    </linearGradient>
    <radialGradient
       xlink:href="#linearGradient5060-179-37-4-0"
       id="radialGradient12471"
       gradientUnits="userSpaceOnUse"
       gradientTransform="matrix(0.03079083,0,0,0.02470588,24.610252,31.94164)"
       cx="605.71429"
       cy="486.64789"
       fx="605.71429"
       fy="486.64789"
       r="117.14286" />
    <linearGradient
       id="linearGradient5060-179-37-4-0">
      <stop
         id="stop2675-91-9-2"
         style="stop-color:#000000;stop-opacity:1"
         offset="0" />
      <stop
         id="stop2677-09-0-9"
         style="stop-color:#000000;stop-opacity:0"
         offset="1" />
    </linearGradient>
    <linearGradient
       xlink:href="#linearGradient5048-585-73-1-5"
       id="linearGradient12467"
       gradientUnits="userSpaceOnUse"
       gradientTransform="matrix(0.07938856,0,0,0.02470588,-4.6932879,31.94164)"
       x1="302.85715"
       y1="366.64789"
       x2="302.85715"
       y2="609.50507" />
    <linearGradient
       id="linearGradient5048-585-73-1-5">
      <stop
         id="stop2667-99-4-6"
         style="stop-color:#000000;stop-opacity:0"
         offset="0" />
      <stop
         id="stop2669-5-9-4"
         style="stop-color:#000000;stop-opacity:1"
         offset="0.5" />
      <stop
         id="stop2671-56-4-2"
         style="stop-color:#000000;stop-opacity:0"
         offset="1" />
    </linearGradient>
    <linearGradient
       xlink:href="#linearGradient4507-0-4-7"
       id="linearGradient12463"
       gradientUnits="userSpaceOnUse"
       gradientTransform="matrix(0.89189031,0,0,1.0580283,3.1206621,5.3535997)"
       x1="21.37039"
       y1="4.2476678"
       x2="21.37039"
       y2="34.143417" />
    <linearGradient
       id="linearGradient4507-0-4-7">
      <stop
         id="stop4509-35-6-1"
         style="stop-color:#ffffff;stop-opacity:1"
         offset="0" />
      <stop
         id="stop4511-46-3-8"
         style="stop-color:#ffffff;stop-opacity:0.23529412"
         offset="0.07395859" />
      <stop
         id="stop4513-15-5-9"
         style="stop-color:#ffffff;stop-opacity:0.15686275"
         offset="0.99001008" />
      <stop
         id="stop4515-1-1-8"
         style="stop-color:#ffffff;stop-opacity:0.39215687"
         offset="1" />
    </linearGradient>
    <linearGradient
       id="linearGradient4646-7-4-3">
      <stop
         offset="0"
         style="stop-color:#f9f9f9;stop-opacity:1"
         id="stop4648-8-0-3" />
      <stop
         offset="1"
         style="stop-color:#d8d8d8;stop-opacity:1"
         id="stop4650-1-7-3" />
    </linearGradient>
    <linearGradient
       id="linearGradient3104-8-8-97-4-6-11-5-5">
      <stop
         offset="0"
         style="stop-color:#000000;stop-opacity:0.32173914"
         id="stop3106-5-4-3-5-0-2-1-0" />
      <stop
         offset="1"
         style="stop-color:#000000;stop-opacity:0.27826086"
         id="stop3108-4-3-7-8-2-0-7-9" />
    </linearGradient>
    <linearGradient
       y2="3.6336823"
       x2="-51.786404"
       y1="53.514328"
       x1="-51.786404"
       gradientTransform="matrix(0.80749834,0,0,0.83374395,106.87672,-0.06984031)"
       gradientUnits="userSpaceOnUse"
       id="linearGradient18155"
       xlink:href="#linearGradient3104-8-8-97-4-6-11-5-5" />
    <linearGradient
       gradientUnits="userSpaceOnUse"
       y2="44.376751"
       x2="22.559322"
       y1="16.466301"
       x1="22.559322"
       id="linearGradient3840"
       xlink:href="#linearGradient7012-661-145-733-759-865-745" />
    <radialGradient
       r="21"
       fy="5.01718"
       fx="3"
       cy="5.01718"
       cx="3"
       gradientTransform="matrix(-1.274898e-8,1.7142916,-2.159331,-1.4599595e-8,12.809361,2.8570011)"
       gradientUnits="userSpaceOnUse"
       id="radialGradient3070"
       xlink:href="#linearGradient3484" />
    <linearGradient
       y2="16.19013"
       x2="62.988873"
       y1="13.182598"
       x1="62.988873"
       gradientTransform="translate(-50.940898)"
       gradientUnits="userSpaceOnUse"
       id="linearGradient3068"
       xlink:href="#linearGradient6404" />
    <linearGradient
       y2="15.943953"
       x2="65.340263"
       y1="45.114193"
       x1="82.453476"
       gradientTransform="translate(-53.765393,-0.1141929)"
       gradientUnits="userSpaceOnUse"
       id="linearGradient3061"
       xlink:href="#linearGradient3390" />
    <linearGradient
       y2="36.657963"
       x2="22.809399"
       y1="49.629246"
       x1="22.934725"
       gradientTransform="matrix(1.1446925,0,0,0.9977536,-3.4661413,1.0988425)"
       gradientUnits="userSpaceOnUse"
       id="linearGradient3056"
       xlink:href="#linearGradient6129-963-697-142-998-580-273" />
    <radialGradient
       r="20.979567"
       fy="8.3021259"
       fx="7.2646537"
       cy="8.3021259"
       cx="7.2646537"
       gradientTransform="matrix(0,1.2079744,-1.6271642,0,26.371748,8.2664685)"
       gradientUnits="userSpaceOnUse"
       id="radialGradient3053"
       xlink:href="#linearGradient6087-437-184-795-110-662-495" />
    <linearGradient
       y2="33.95525"
       x2="15.214532"
       y1="22.292103"
       x1="11.566265"
       gradientUnits="userSpaceOnUse"
       id="linearGradient3050"
       xlink:href="#linearGradient8265-821-176-38-919-66-249" />
    <linearGradient
       gradientUnits="userSpaceOnUse"
       xlink:href="#linearGradient8265-821-176-38-919-66-249"
       id="linearGradient3466"
       y2="33.95525"
       x2="15.214532"
       y1="22.292103"
       x1="11.566265" />
    <linearGradient
       id="linearGradient8265-821-176-38-919-66-249">
      <stop
         offset="0"
         style="stop-color:#ffffff;stop-opacity:0.2"
         id="stop2687" />
      <stop
         offset="1"
         style="stop-color:#ffffff;stop-opacity:0"
         id="stop2689" />
    </linearGradient>
    <radialGradient
       gradientTransform="matrix(0,1.2079744,-1.6271642,0,26.371748,8.2664685)"
       gradientUnits="userSpaceOnUse"
       xlink:href="#linearGradient6087-437-184-795-110-662-495"
       id="radialGradient2442-940-759"
       fy="8.3021259"
       fx="7.2646537"
       r="20.979567"
       cy="8.3021259"
       cx="7.2646537" />
    <linearGradient
       id="linearGradient6087-437-184-795-110-662-495">
      <stop
         offset="0"
         style="stop-color:#ffffff;stop-opacity:0.40000001"
         id="stop2693" />
      <stop
         offset="1"
         style="stop-color:#ffffff;stop-opacity:0"
         id="stop2695" />
    </linearGradient>
    <linearGradient
       gradientTransform="matrix(1.1446925,0,0,0.9977536,-3.4661413,1.0988425)"
       gradientUnits="userSpaceOnUse"
       xlink:href="#linearGradient6129-963-697-142-998-580-273"
       id="linearGradient6462-657-405"
       y2="36.657963"
       x2="22.809399"
       y1="49.629246"
       x1="22.934725" />
    <linearGradient
       id="linearGradient6129-963-697-142-998-580-273">
      <stop
         offset="0"
         style="stop-color:#0a0a0a;stop-opacity:0.498"
         id="stop2661" />
      <stop
         offset="1"
         style="stop-color:#0a0a0a;stop-opacity:0"
         id="stop2663" />
    </linearGradient>
    <radialGradient
       gradientTransform="matrix(1.5646925,-9.5143002e-8,6.1772287e-8,1.015888,-86.212573,8.1461173)"
       gradientUnits="userSpaceOnUse"
       xlink:href="#linearGradient7012-661-145-733-759-865-745"
       id="radialGradient3404"
       fy="14.113381"
       fx="63.969177"
       r="23.097054"
       cy="14.113381"
       cx="63.969177" />
    <linearGradient
       id="linearGradient7012-661-145-733-759-865-745">
      <stop
         offset="0"
         style="stop-color:#aacb7d;stop-opacity:1"
         id="stop2699" />
      <stop
         offset="1"
         style="stop-color:#709937;stop-opacity:1"
         id="stop2701" />
    </linearGradient>
    <linearGradient
       gradientTransform="translate(-53.765393,-0.1141929)"
       gradientUnits="userSpaceOnUse"
       xlink:href="#linearGradient3390"
       id="linearGradient3412"
       y2="15.943953"
       x2="65.340263"
       y1="45.114193"
       x1="82.453476" />
    <linearGradient
       id="linearGradient3390">
      <stop
         offset="0"
         style="stop-color:#51751e;stop-opacity:1"
         id="stop3392" />
      <stop
         offset="1"
         style="stop-color:#51751e;stop-opacity:1"
         id="stop3394" />
    </linearGradient>
    <linearGradient
       gradientTransform="matrix(0.08284024,0,0,0.03705882,-5.9408285,25.412461)"
       gradientUnits="userSpaceOnUse"
       xlink:href="#linearGradient5048-585"
       id="linearGradient7596-975"
       y2="609.50507"
       x2="302.85715"
       y1="366.64789"
       x1="302.85715" />
    <linearGradient
       id="linearGradient5048-585">
      <stop
         offset="0"
         style="stop-color:#000000;stop-opacity:0"
         id="stop2667" />
      <stop
         offset="0.5"
         style="stop-color:#000000;stop-opacity:1"
         id="stop2669" />
      <stop
         offset="1"
         style="stop-color:#000000;stop-opacity:0"
         id="stop2671" />
    </linearGradient>
    <radialGradient
       gradientTransform="matrix(0.03212956,0,0,0.03705882,24.636785,25.412461)"
       gradientUnits="userSpaceOnUse"
       xlink:href="#linearGradient5060-179"
       id="radialGradient7598-526"
       fy="486.64789"
       fx="605.71429"
       r="117.14286"
       cy="486.64789"
       cx="605.71429" />
    <linearGradient
       id="linearGradient5060-179">
      <stop
         offset="0"
         style="stop-color:#000000;stop-opacity:1"
         id="stop2675" />
      <stop
         offset="1"
         style="stop-color:#000000;stop-opacity:0"
         id="stop2677" />
    </linearGradient>
    <radialGradient
       gradientTransform="matrix(-0.03212956,0,0,0.03705882,23.363215,25.412461)"
       gradientUnits="userSpaceOnUse"
       xlink:href="#linearGradient5060-820"
       id="radialGradient7600-312"
       fy="486.64789"
       fx="605.71429"
       r="117.14286"
       cy="486.64789"
       cx="605.71429" />
    <linearGradient
       id="linearGradient5060-820">
      <stop
         offset="0"
         style="stop-color:#000000;stop-opacity:1"
         id="stop2681" />
      <stop
         offset="1"
         style="stop-color:#000000;stop-opacity:0"
         id="stop2683" />
    </linearGradient>
    <linearGradient
       gradientTransform="translate(-50.940898)"
       gradientUnits="userSpaceOnUse"
       xlink:href="#linearGradient6404"
       id="linearGradient3482"
       y2="16.19013"
       x2="62.988873"
       y1="13.182598"
       x1="62.988873" />
    <linearGradient
       id="linearGradient6404">
      <stop
         offset="0"
         style="stop-color:#f9f9f9;stop-opacity:1"
         id="stop6406" />
      <stop
         offset="1"
         style="stop-color:#c9c9c9;stop-opacity:1"
         id="stop6408" />
    </linearGradient>
    <radialGradient
       gradientTransform="matrix(-1.274898e-8,1.7142916,-2.159331,-1.4599595e-8,12.809361,2.8570011)"
       gradientUnits="userSpaceOnUse"
       xlink:href="#linearGradient3484"
       id="radialGradient3470"
       fy="5.01718"
       fx="3"
       r="21"
       cy="5.01718"
       cx="3" />
    <linearGradient
       id="linearGradient3484">
      <stop
         offset="0"
         style="stop-color:#bdbdbd;stop-opacity:1"
         id="stop3486" />
      <stop
         offset="1"
         style="stop-color:#d0d0d0;stop-opacity:1"
         id="stop3488" />
    </linearGradient>
    <linearGradient
       gradientTransform="matrix(0.2014014,0,0,0.2014015,18.110304,20.311705)"
       gradientUnits="userSpaceOnUse"
       xlink:href="#linearGradient5128"
       id="linearGradient2606"
       y2="20.895"
       x2="84.63858"
       y1="105.105"
       x1="86.132919" />
    <linearGradient
       id="linearGradient5128">
      <stop
         offset="0"
         style="stop-color:#ffffff;stop-opacity:1"
         id="stop5130" />
      <stop
         offset="1"
         style="stop-color:#959595;stop-opacity:1"
         id="stop5132" />
    </linearGradient>
    <linearGradient
       gradientUnits="userSpaceOnUse"
       xlink:href="#linearGradient3309"
       id="linearGradient3413"
       y2="47.012184"
       x2="32.036148"
       y1="19"
       x1="32.036148" />
    <linearGradient
       gradientUnits="userSpaceOnUse"
       id="linearGradient3309"
       y2="122.8994"
       x2="63.9995"
       y1="3.1001"
       x1="63.9995">
      <stop
         offset="0"
         style="stop-color:#f6f6f6;stop-opacity:1"
         id="stop3311" />
      <stop
         offset="1"
         style="stop-color:#d2d2d2;stop-opacity:1"
         id="stop3313" />
    </linearGradient>
    <linearGradient
       gradientUnits="userSpaceOnUse"
       xlink:href="#linearGradient3397"
       id="linearGradient3415"
       y2="47.044857"
       x2="25.922546"
       y1="19"
       x1="25.922546" />
    <linearGradient
       id="linearGradient3397">
      <stop
         offset="0"
         style="stop-color:#a0a0a0;stop-opacity:1"
         id="stop3399" />
      <stop
         offset="1"
         style="stop-color:#787878;stop-opacity:1"
         id="stop3401" />
    </linearGradient>
    <linearGradient
       xlink:href="#linearGradient6129-963-697-142-998-580-273-44-2-2"
       id="linearGradient5887"
       gradientUnits="userSpaceOnUse"
       gradientTransform="matrix(2.2041262,0,0,1.9531236,44.81525,2.9681362)"
       x1="22.934725"
       y1="49.629246"
       x2="22.934725"
       y2="36.599415" />
    <linearGradient
       xlink:href="#linearGradient4632-0-6-4-7"
       id="linearGradient5883"
       gradientUnits="userSpaceOnUse"
       gradientTransform="matrix(0.72580649,0,0,0.74516186,116.81336,18.325446)"
       x1="-91"
       y1="43.999817"
       x2="-91"
       y2="119.05979" />
    <linearGradient
       id="linearGradient4632-0-6-4-7">
      <stop
         style="stop-color:#55a7f3;stop-opacity:1;"
         offset="0"
         id="stop4634-4-4-7-5" />
      <stop
         style="stop-color:#1374cf;stop-opacity:1;"
         offset="1"
         id="stop4636-3-1-5-3" />
    </linearGradient>
    <linearGradient
       x1="32.891998"
       y1="8.059"
       gradientTransform="matrix(0.68673263,0,0,0.69909319,-3.6949727,22.217352)"
       x2="36.358002"
       gradientUnits="userSpaceOnUse"
       y2="5.4565001"
       id="linearGradient3225">
      <stop
         offset="0"
         style="stop-color:#6aa96b;stop-opacity:1"
         id="stop8591" />
      <stop
         offset="1"
         style="stop-color:#5d8a5e;stop-opacity:1"
         id="stop8593" />
    </linearGradient>
    <radialGradient
       cx="48"
       cy="90.171875"
       r="42"
       fx="48"
       fy="90.171875"
       id="radialGradient3619-6"
       xlink:href="#linearGradient3737"
       gradientUnits="userSpaceOnUse"
       gradientTransform="matrix(0.2951992,0,0,0.25507295,-0.1707791,21.999592)" />
    <linearGradient
       id="linearGradient3737">
      <stop
         offset="0"
         style="stop-color:#ffffff;stop-opacity:1"
         id="stop3739" />
      <stop
         offset="1"
         style="stop-color:#ffffff;stop-opacity:0"
         id="stop3741" />
    </linearGradient>
    <linearGradient
       x1="7.3709002"
       y1="51.470146"
       x2="23.76619"
       y2="51.433136"
       id="linearGradient3748"
       xlink:href="#linearGradient3742"
       gradientUnits="userSpaceOnUse"
       gradientTransform="matrix(0,-0.32521809,0.25507296,0,1.7552829,46.951309)" />
    <linearGradient
       id="linearGradient3742">
      <stop
         id="stop3744"
         style="stop-color:#264c23;stop-opacity:1"
         offset="0" />
      <stop
         id="stop3746"
         style="stop-color:#345f33;stop-opacity:1"
         offset="1" />
    </linearGradient>
    <linearGradient
       x1="48"
       y1="90"
       x2="48"
       y2="5.9877172"
       id="linearGradient3617"
       xlink:href="#ButtonColor-7"
       gradientUnits="userSpaceOnUse"
       gradientTransform="matrix(0.42857142,0,0,0.42857142,227.50536,-101.23132)" />
    <linearGradient
       x1="10.31979"
       y1="21"
       x2="10.31979"
       y2="0.99929649"
       id="ButtonColor-7"
       gradientUnits="userSpaceOnUse">
      <stop
         id="stop3189"
         style="stop-color:#528250;stop-opacity:1"
         offset="0" />
      <stop
         id="stop3191"
         style="stop-color:#639363;stop-opacity:1"
         offset="1" />
    </linearGradient>
    <linearGradient
       xlink:href="#linearGradient3737"
       id="linearGradient2015"
       gradientUnits="userSpaceOnUse"
       x1="36.357143"
       y1="6"
       x2="36.357143"
       y2="63.893143"
       gradientTransform="matrix(0.4285717,0,0,0.43033246,227.50536,-101.24189)" />
    <linearGradient
       xlink:href="#ButtonShadow-0"
       id="linearGradient1974"
       gradientUnits="userSpaceOnUse"
       gradientTransform="matrix(0.88966473,0,0,-0.88897608,103.82866,91.764071)"
       x1="32.251034"
       y1="6.1317081"
       x2="32.251034"
       y2="90.238609" />
    <linearGradient
       gradientTransform="matrix(1.0058652,0,0,0.994169,100,0)"
       gradientUnits="userSpaceOnUse"
       id="ButtonShadow-0"
       y2="7.0165396"
       x2="45.447727"
       y1="92.539597"
       x1="45.447727">
      <stop
         offset="0"
         style="stop-color:#000000;stop-opacity:1"
         id="stop3750-8" />
      <stop
         offset="1"
         style="stop-color:#000000;stop-opacity:0.58823532"
         id="stop3752-5-4" />
    </linearGradient>
    <linearGradient
       xlink:href="#ButtonShadow-0"
       id="linearGradient1976"
       gradientUnits="userSpaceOnUse"
       gradientTransform="matrix(0.88668581,0,0,-0.88621557,103.97166,91.631566)"
       x1="32.251034"
       y1="6.1317081"
       x2="32.251034"
       y2="90.238609" />
    <linearGradient
       xlink:href="#ButtonShadow-0"
       id="linearGradient1978"
       gradientUnits="userSpaceOnUse"
       gradientTransform="matrix(0.90932204,0,0,-0.90907903,1.839706,90.567956)"
       x1="32.251034"
       y1="6.1317081"
       x2="32.251034"
       y2="90.238609" />
    <linearGradient
       gradientTransform="matrix(0.88394566,0,0,-0.88394572,10.163169,89.361561)"
       gradientUnits="userSpaceOnUse"
       xlink:href="#ButtonShadow-0"
       id="linearGradient3780"
       y2="90.238609"
       x2="32.251034"
       y1="6.1317081"
       x1="32.251034" />
    <linearGradient
       gradientTransform="matrix(0.83742219,0,0,-0.8374222,12.396274,87.12843)"
       gradientUnits="userSpaceOnUse"
       xlink:href="#ButtonShadow-0"
       id="linearGradient3721-0"
       y2="90.238609"
       x2="32.251034"
       y1="6.1317081"
       x1="32.251034" />
    <linearGradient
       x1="32.891998"
       y1="8.059"
       gradientTransform="matrix(1.1538423,0,0,1.1746103,-7.1476824,6.2923109)"
       x2="36.358002"
       gradientUnits="userSpaceOnUse"
       y2="5.4565001"
       id="linearGradient3225-6">
      <stop
         offset="0"
         style="stop-color:#497db8;stop-opacity:1"
         id="stop8591-7" />
      <stop
         offset="1"
         style="stop-color:#276096;stop-opacity:1"
         id="stop8593-5" />
    </linearGradient>
    <clipPath
       id="clipPath4009">
      <path
         d="m 67.427683,45.744911 a 20.203051,20.203051 0 1 1 -40.406101,0 20.203051,20.203051 0 1 1 40.406101,0 z"
         transform="matrix(1.4145804,-0.81670835,0.81670835,1.4145804,-56.163288,21.858899)"
         id="path4011"
         style="fill:#ff0000;fill-opacity:1;stroke:none" />
    </clipPath>
    <filter
       style="color-interpolation-filters:sRGB"
       x="-0.085979491"
       y="-0.10866432"
       width="1.171959"
       height="1.2173285"
       id="filter4021">
      <feGaussianBlur
         id="feGaussianBlur4023"
         stdDeviation="2.3558157" />
    </filter>
    <linearGradient
       x1="27.021582"
       y1="45.744911"
       x2="94.365082"
       y2="45.744911"
       id="linearGradient4050"
       xlink:href="#linearGradient3737"
       gradientUnits="userSpaceOnUse"
       gradientTransform="matrix(0,-1.1877564,1.1877564,0,-4.766241,102.52193)" />
    <linearGradient
       x1="27.021582"
       y1="45.744911"
       x2="67.427681"
       y2="45.744911"
       id="linearGradient3960"
       xlink:href="#linearGradient3954"
       gradientUnits="userSpaceOnUse"
       gradientTransform="matrix(0,-1.1402464,1.1402464,0,-2.5928881,100.27825)" />
    <linearGradient
       id="linearGradient3954">
      <stop
         id="stop3956"
         style="stop-color:#1a1a1a;stop-opacity:1"
         offset="0" />
      <stop
         id="stop3958"
         style="stop-color:#3a3a3a;stop-opacity:1"
         offset="1" />
    </linearGradient>
    <radialGradient
       cx="47.224632"
       cy="45.744911"
       r="20.203051"
       fx="47.224632"
       fy="45.744911"
       id="radialGradient3838"
       xlink:href="#linearGradient3840-7"
       gradientUnits="userSpaceOnUse"
       gradientTransform="matrix(0.50713316,0,0,0.50713316,25.618405,23.544534)" />
    <linearGradient
       id="linearGradient3840-7">
      <stop
         id="stop3842"
         style="stop-color:#000000;stop-opacity:0"
         offset="0" />
      <stop
         id="stop3844"
         style="stop-color:#000000;stop-opacity:1"
         offset="0.82844269" />
      <stop
         id="stop3846"
         style="stop-color:#000000;stop-opacity:0"
         offset="1" />
    </linearGradient>
    <radialGradient
       cx="48"
       cy="48"
       r="27"
       fx="48"
       fy="48"
       id="radialGradient4046"
       xlink:href="#linearGradient3971"
       gradientUnits="userSpaceOnUse"
       gradientTransform="matrix(0.85320208,0,0,-0.85320208,8.6138848,87.384253)" />
    <linearGradient
       id="linearGradient3971">
      <stop
         id="stop3973"
         style="stop-color:#000000;stop-opacity:0"
         offset="0" />
      <stop
         id="stop3979"
         style="stop-color:#000000;stop-opacity:0"
         offset="0.87387264" />
      <stop
         id="stop3975"
         style="stop-color:#000000;stop-opacity:1"
         offset="1" />
    </linearGradient>
    <linearGradient
       x1="36"
       y1="48"
       x2="60"
       y2="48"
       id="linearGradient4170"
       xlink:href="#linearGradient3737"
       gradientUnits="userSpaceOnUse"
       gradientTransform="matrix(0.75232925,0,0,0.75232925,13.455777,10.318753)" />
    <linearGradient
       x1="41.712723"
       y1="36.09375"
       x2="53.529663"
       y2="59.90625"
       id="linearGradient4262"
       xlink:href="#linearGradient3737"
       gradientUnits="userSpaceOnUse"
       gradientTransform="matrix(0.75232925,0,0,0.75232925,13.455777,10.318753)" />
    <linearGradient
       x1="51.42857"
       y1="72.785713"
       x2="90.714287"
       y2="72.785713"
       id="linearGradient3188-6"
       xlink:href="#linearGradient3778"
       gradientUnits="userSpaceOnUse" />
    <linearGradient
       id="linearGradient3778">
      <stop
         id="stop3780"
         style="stop-color:#5e8a20;stop-opacity:1"
         offset="0" />
      <stop
         id="stop3782"
         style="stop-color:#a2d625;stop-opacity:1"
         offset="1" />
    </linearGradient>
    <linearGradient
       xlink:href="#linearGradient5060-820-91-9-0"
       id="linearGradient1106"
       gradientUnits="userSpaceOnUse"
       gradientTransform="matrix(0.83333333,0,0,0.83333333,-8.6666651,-5.3333307)"
       x1="65.262688"
       y1="86.849419"
       x2="65.599998"
       y2="42.399998" />
    <linearGradient
       x1="65.262688"
       y1="86.849419"
       x2="65.262688"
       y2="43.591393"
       id="linearGradient3861"
       xlink:href="#linearGradient5060-820-91-9-0"
       gradientUnits="userSpaceOnUse"
       gradientTransform="matrix(0.83333333,0,0,0.83333333,-8.6666651,-5.3333307)" />
    <linearGradient
       x1="65.262688"
       y1="64.205269"
       x2="65.262688"
       y2="43.780487"
       id="linearGradient3858"
       xlink:href="#linearGradient3737"
       gradientUnits="userSpaceOnUse"
       gradientTransform="matrix(0.83333333,0,0,0.83333333,-8.6666651,-6.3333307)" />
    <linearGradient
       xlink:href="#linearGradient5060-820-91-9-0"
       id="linearGradient1105"
       gradientUnits="userSpaceOnUse"
       gradientTransform="matrix(0.83333333,0,0,0.83333333,-8.6666651,-5.3333307)"
       x1="65.262688"
       y1="86.849419"
       x2="65.599998"
       y2="42.399998" />
  </defs>
  <metadata
     id="metadata18162">
    <rdf:RDF>
      <cc:Work
         rdf:about="">
        <dc:format>image/svg+xml</dc:format>
        <dc:type
           rdf:resource="http://purl.org/dc/dcmitype/StillImage" />
        <dc:title></dc:title>
      </cc:Work>
    </rdf:RDF>
  </metadata>
  <g
     transform="matrix(0.7,0,0,0.7,-1.7999998,-16.5)"
     id="layer1">
    <g
       transform="matrix(0.30783438,0,0,0.30783438,-2.1897965,20.552665)"
       id="layer5"
       style="display:inline">
      <path
         style="display:inline;opacity:0.63;fill:url(#linearGradient3780);fill-opacity:1;fill-rule:nonzero;stroke:none;stroke-width:0.86845267"
         d="m 21.510559,84.057885 h 62.16399 c 3.34823,0 6.04372,-2.727212 6.04372,-6.114824 V 38.904982 L 60.619729,9.8064506 h -39.10917 c -3.34822,0 -6.04372,2.7272114 -6.04372,6.1148244 v 62.021786 c 0,3.387612 2.6955,6.114824 6.04372,6.114824 z"
         id="rect3723" />
    </g>
    <g
       style="opacity:1"
       transform="matrix(0.59517027,0,0,0.59517032,-133.64915,82.293312)"
       id="layer1-3">
      <path
         style="fill:url(#linearGradient3617);fill-opacity:1;fill-rule:nonzero;stroke:none;stroke-width:0.42857143"
         d="m 232.64822,-98.6599 h 19.54285 l 13.88572,13.885715 v 19.542857 c 0,1.424571 -1.14685,2.571428 -2.57143,2.571428 h -30.85714 c -1.42458,0 -2.57143,-1.146857 -2.57143,-2.571428 v -30.857144 c 0,-1.424571 1.14685,-2.571428 2.57143,-2.571428 z"
         id="rect2419-1" />
      <path
         d="m 232.64822,-98.6599 c -1.42457,0 -2.57143,1.151568 -2.57143,2.581998 v 0.860662 28.234034 c 1.98322,4.185183 0.51348,2.977317 0.42857,0.430332 v -28.09486 -0.860668 c 0,-1.197119 0.95064,-2.151664 2.14286,-2.151664 h 0.85715 17.82858 0.85715 l 13.45714,13.326778 v 0.860667 16.919747 c -1.2063,3.165148 0.42855,3.584963 0.42855,-0.430333 v -16.919747 -0.860668 L 252.19108,-98.6599 Z"
         id="rect3728-7"
         style="opacity:0.3;fill:url(#linearGradient2015);fill-opacity:1;fill-rule:nonzero;stroke:none;stroke-width:0.4294512" />
    </g>
    <g
       transform="matrix(0.25332193,0,0,0.25332193,1.4432621,21.157861)"
       style="display:inline;fill:#6dffad;fill-opacity:1"
       id="layer3-2">
      <path
         style="font-style:normal;font-variant:normal;font-weight:bold;font-stretch:normal;font-size:48px;line-height:125%;font-family:'Liberation Sans';-inkscape-font-specification:'Abandoned Bitplane Bold';text-align:start;writing-mode:lr-tb;text-anchor:start;opacity:0.05;fill:#000000;fill-opacity:1;stroke:none"
         id="path4347"
         d="M 29.28125,32.09375 C 23.619399,31.918192 17.412953,34.404519 14.900942,39.779263 12.476916,44.583455 12.438638,50.381054 13.875,55.5 c 1.232767,3.979599 4.141753,7.360277 8.004797,8.998636 6.577742,2.54518 15.116686,1.90348 19.907863,-3.794126 1.056831,-1.591706 2.559191,-3.281145 2.64984,-5.26701 -0.243842,-1.779528 -2.390323,-1.845732 -3.695959,-2.495096 -1.341135,-0.330093 -2.611801,-1.380701 -4.022791,-1.129904 -1.837728,0.586989 -1.597302,3.152116 -3.1875,4.09375 -2.814986,2.388225 -8.197828,1.764173 -9.716976,-1.894974 -1.311727,-3.400742 -1.364752,-7.490677 0.306404,-10.777756 2.033006,-3.186757 7.097093,-3.294806 9.762161,-0.882669 1.036394,0.911066 0.954889,2.933129 2.585911,3.149149 1.871136,-0.119879 3.657812,-0.947416 5.497928,-1.341718 1.303535,-0.07489 2.439448,-1.320039 2.002072,-2.627032 C 42.499957,36.295545 37.50004,32.677591 32.178472,32.248994 31.2171,32.137529 30.248747,32.093927 29.28125,32.09375 Z m 21.5625,7 c -1.427199,0.202562 -1.766778,1.781568 -1.59375,2.996167 0,1.001278 0,2.002555 0,3.003833 -1.604817,0.105638 -3.285431,-0.211436 -4.84375,0.15625 -1.546328,0.567965 -1.158734,2.469282 -1.1875,3.774132 0.02015,1.291286 -0.341233,3.168098 1.1875,3.725868 1.558861,0.364546 3.238582,0.05265 4.84375,0.15625 0.106391,1.594267 -0.212613,3.264806 0.15625,4.8125 0.567965,1.546328 2.469282,1.158734 3.774132,1.1875 1.291286,-0.02015 3.168098,0.341233 3.725868,-1.1875 0.364361,-1.548473 0.05278,-3.217728 0.15625,-4.8125 1.594267,-0.106391 3.264806,0.212613 4.8125,-0.15625 1.546328,-0.567965 1.158734,-2.469282 1.1875,-3.774132 C 63.04235,47.684582 63.403733,45.80777 61.875,45.25 c -1.548473,-0.364361 -3.217728,-0.05278 -4.8125,-0.15625 -0.106391,-1.594267 0.212613,-3.264806 -0.15625,-4.8125 -0.567965,-1.546328 -2.469282,-1.158734 -3.774132,-1.1875 -0.762785,3e-6 -1.525599,-4e-6 -2.288368,0 z m 20,0 c -1.427199,0.202562 -1.766778,1.781568 -1.59375,2.996167 0,1.001278 0,2.002555 0,3.003833 -1.604817,0.105638 -3.285431,-0.211436 -4.84375,0.15625 -1.546328,0.567965 -1.158734,2.469282 -1.1875,3.774132 0.02015,1.291286 -0.341233,3.168098 1.1875,3.725868 1.558861,0.364546 3.238582,0.05265 4.84375,0.15625 0.106391,1.594267 -0.212613,3.264806 0.15625,4.8125 0.567965,1.546328 2.469282,1.158734 3.774132,1.1875 1.291286,-0.02015 3.168098,0.341233 3.725868,-1.1875 0.364361,-1.548473 0.05278,-3.217728 0.15625,-4.8125 1.594267,-0.106391 3.264806,0.212613 4.8125,-0.15625 1.546328,-0.567965 1.158734,-2.469282 1.1875,-3.774132 C 83.04235,47.684582 83.403733,45.80777 81.875,45.25 c -1.548473,-0.364361 -3.217728,-0.05278 -4.8125,-0.15625 -0.106391,-1.594267 0.212613,-3.264806 -0.15625,-4.8125 -0.567965,-1.546328 -2.469282,-1.158734 -3.774132,-1.1875 -0.762785,3e-6 -1.525599,-4e-6 -2.288368,0 z" />
      <path
         style="font-style:normal;font-variant:normal;font-weight:bold;font-stretch:normal;font-size:48px;line-height:125%;font-family:'Liberation Sans';-inkscape-font-specification:'Abandoned Bitplane Bold';text-align:start;writing-mode:lr-tb;text-anchor:start;opacity:0.1;fill:#000000;fill-opacity:1;stroke:none"
         id="path4342"
         d="m 29.28125,32.96875 c -2.55591,3.1e-5 -4.818087,0.366532 -6.78125,1.125 -1.933537,0.738017 -3.570119,1.823757 -4.875,3.25 -1.299226,1.405 -2.243284,3.1086 -2.875,5.0625 a 1.0333011,1.0333011 0 0 0 -0.03125,0 c -0.615337,1.948578 -0.906251,4.103413 -0.90625,6.46875 -10e-7,2.285984 0.292653,4.417353 0.90625,6.375 a 1.0333011,1.0333011 0 0 0 0.03125,0 c 0.632016,1.969557 1.573375,3.721314 2.875,5.1875 a 1.0333011,1.0333011 0 0 0 0.03125,0 c 1.327381,1.463147 2.971261,2.599217 4.9375,3.40625 a 1.0333011,1.0333011 0 0 0 0.03125,0 c 1.993917,0.803524 4.278355,1.1875 6.90625,1.1875 2.020115,0 3.796578,-0.270541 5.34375,-0.78125 a 1.0333011,1.0333011 0 0 0 0.03125,0 c 1.515901,-0.510166 2.858164,-1.178698 4,-2.03125 1.112427,-0.83063 2.052051,-1.764785 2.8125,-2.875 0.734969,-1.073093 1.32909,-2.204049 1.78125,-3.3125 A 1.0333011,1.0333011 0 0 0 42.90625,54.6875 l -5.3125,-2 A 1.0333011,1.0333011 0 0 0 36.25,53.28125 c -0.240506,0.620203 -0.528022,1.207309 -0.90625,1.8125 a 1.0333011,1.0333011 0 0 0 0,0.03125 c -0.340493,0.563549 -0.772949,1.075618 -1.3125,1.53125 a 1.0333011,1.0333011 0 0 0 -0.03125,0 c -0.502453,0.433927 -1.122856,0.797822 -1.875,1.09375 -0.671478,0.257398 -1.5401,0.406254 -2.59375,0.40625 -1.408457,4e-6 -2.552304,-0.227019 -3.46875,-0.65625 -0.935812,-0.443901 -1.654968,-1.027041 -2.25,-1.8125 -0.599372,-0.791152 -1.042104,-1.731222 -1.34375,-2.875 C 22.172265,51.6266 21.999992,50.309283 22,48.875 c -8e-6,-1.437277 0.178198,-2.709817 0.46875,-3.84375 0.0023,-0.0091 -0.0023,-0.02218 0,-0.03125 0.302755,-1.122505 0.737881,-2.06197 1.3125,-2.8125 C 24.368755,41.435501 25.083834,40.873306 26,40.46875 a 1.0333011,1.0333011 0 0 0 0.03125,0 c 0.894049,-0.406371 2.009251,-0.624977 3.375,-0.625 0.962596,2.3e-5 1.801581,0.11097 2.5,0.34375 a 1.0333011,1.0333011 0 0 0 0,0.03125 c 0.733483,0.232298 1.367641,0.537293 1.875,0.90625 0.532099,0.378414 0.953509,0.806636 1.28125,1.28125 0.33484,0.473442 0.554706,0.972796 0.71875,1.5 a 1.0333011,1.0333011 0 0 0 1.28125,0.6875 l 5.375,-1.46875 a 1.0333011,1.0333011 0 0 0 0.6875,-1.3125 c -0.413019,-1.26844 -0.962588,-2.457429 -1.71875,-3.53125 -0.747464,-1.098242 -1.688987,-2.053601 -2.84375,-2.84375 -1.152979,-0.814723 -2.507553,-1.418835 -4.03125,-1.84375 -1.537138,-0.432748 -3.276467,-0.624969 -5.25,-0.625 z m 21.78125,7 A 1.0333011,1.0333011 0 0 0 50.125,41 v 4.96875 h -5 A 1.0333011,1.0333011 0 0 0 44.09375,47 v 4 a 1.0333011,1.0333011 0 0 0 1.03125,1.03125 h 5 V 57 a 1.0333011,1.0333011 0 0 0 1.03125,1.03125 h 4 A 1.0333011,1.0333011 0 0 0 56.1875,57 v -4.96875 h 4.96875 A 1.0333011,1.0333011 0 0 0 62.1875,51 V 47 A 1.0333011,1.0333011 0 0 0 61.15625,45.96875 H 56.1875 V 41 a 1.0333011,1.0333011 0 0 0 -1.03125,-1.03125 h -4 a 1.0333011,1.0333011 0 0 0 -0.09375,0 z m 20,0 A 1.0333011,1.0333011 0 0 0 70.125,41 v 4.96875 h -5 A 1.0333011,1.0333011 0 0 0 64.09375,47 v 4 a 1.0333011,1.0333011 0 0 0 1.03125,1.03125 h 5 V 57 a 1.0333011,1.0333011 0 0 0 1.03125,1.03125 h 4 A 1.0333011,1.0333011 0 0 0 76.1875,57 v -4.96875 h 4.96875 A 1.0333011,1.0333011 0 0 0 82.1875,51 V 47 A 1.0333011,1.0333011 0 0 0 81.15625,45.96875 H 76.1875 V 41 a 1.0333011,1.0333011 0 0 0 -1.03125,-1.03125 h -4 a 1.0333011,1.0333011 0 0 0 -0.09375,0 z" />
      <path
         style="font-style:normal;font-variant:normal;font-weight:bold;font-stretch:normal;font-size:48px;line-height:125%;font-family:'Liberation Sans';-inkscape-font-specification:'Abandoned Bitplane Bold';text-align:start;writing-mode:lr-tb;text-anchor:start;opacity:0.2;fill:#000000;fill-opacity:1;stroke:none"
         id="path4338"
         d="m 29.28125,34 c -2.455186,3e-5 -4.585572,0.359081 -6.40625,1.0625 -1.806904,0.689682 -3.313799,1.672225 -4.5,2.96875 -1.18621,1.282783 -2.06315,2.85304 -2.65625,4.6875 -0.579313,1.834502 -0.875001,3.880405 -0.875,6.15625 -10e-7,2.193116 0.295687,4.214235 0.875,6.0625 0.5931,1.848283 1.487495,3.460781 2.6875,4.8125 1.213786,1.337934 2.745466,2.366381 4.59375,3.125 1.848263,0.744827 4.007098,1.125 6.53125,1.125 1.931016,0 3.61054,-0.249785 5.03125,-0.71875 1.43446,-0.482758 2.684243,-1.102585 3.71875,-1.875 1.034457,-0.772411 1.904067,-1.64935 2.59375,-2.65625 0.689627,-1.006891 1.228634,-2.045467 1.65625,-3.09375 l -5.3125,-2 c -0.262093,0.675872 -0.58623,1.337939 -1,2 -0.400022,0.662076 -0.910583,1.257118 -1.53125,1.78125 -0.606917,0.524143 -1.346141,0.950221 -2.1875,1.28125 -0.827604,0.317246 -1.82394,0.468754 -2.96875,0.46875 -1.517256,4e-6 -2.816609,-0.239651 -3.90625,-0.75 -1.075874,-0.510339 -1.935355,-1.214649 -2.625,-2.125 -0.689665,-0.910336 -1.200224,-1.994819 -1.53125,-3.25 -0.317249,-1.268954 -0.500008,-2.670245 -0.5,-4.1875 -8e-6,-1.531018 0.182751,-2.897396 0.5,-4.125 0.331026,-1.241359 0.824129,-2.304721 1.5,-3.1875 0.689644,-0.882736 1.562919,-1.562261 2.625,-2.03125 1.062054,-0.482734 2.336623,-0.718725 3.8125,-0.71875 1.048258,2.5e-5 1.984895,0.130413 2.8125,0.40625 0.827566,0.262094 1.549333,0.621144 2.15625,1.0625 0.620668,0.441402 1.131227,0.951962 1.53125,1.53125 0.399976,0.565539 0.681873,1.16058 0.875,1.78125 l 5.375,-1.46875 C 41.770015,40.938816 41.252127,39.854335 40.5625,38.875 39.886611,37.881923 39.017,36.998518 37.96875,36.28125 36.934244,35.550243 35.68446,34.993779 34.25,34.59375 32.829291,34.19378 31.18468,34.00003 29.28125,34 Z m 21.875,7 v 6 H 45.125 v 4 h 6.03125 v 6 h 4 v -6 h 6 v -4 h -6 v -6 z m 20,0 v 6 H 65.125 v 4 h 6.03125 v 6 h 4 v -6 h 6 v -4 h -6 v -6 z" />
      <path
         style="font-style:normal;font-variant:normal;font-weight:bold;font-stretch:normal;font-size:48px;line-height:125%;font-family:'Liberation Sans';-inkscape-font-specification:'Abandoned Bitplane Bold';text-align:start;writing-mode:lr-tb;text-anchor:start;fill:#acffad;fill-opacity:1;stroke:none"
         id="path4304"
         d="m 29.28125,33 c -2.455186,3e-5 -4.585572,0.359081 -6.40625,1.0625 -1.806904,0.689682 -3.313799,1.672225 -4.5,2.96875 -1.18621,1.282783 -2.06315,2.85304 -2.65625,4.6875 -0.579313,1.834502 -0.875001,3.880405 -0.875,6.15625 -10e-7,2.193116 0.295687,4.214235 0.875,6.0625 0.5931,1.848283 1.487495,3.460781 2.6875,4.8125 1.213786,1.337934 2.745466,2.366381 4.59375,3.125 1.848263,0.744827 4.007098,1.125 6.53125,1.125 1.931016,0 3.61054,-0.249785 5.03125,-0.71875 1.43446,-0.482758 2.684243,-1.102585 3.71875,-1.875 1.034457,-0.772411 1.904067,-1.64935 2.59375,-2.65625 0.689627,-1.006891 1.228634,-2.045467 1.65625,-3.09375 l -5.3125,-2 c -0.262093,0.675872 -0.58623,1.337939 -1,2 -0.400022,0.662076 -0.910583,1.257118 -1.53125,1.78125 -0.606917,0.524143 -1.346141,0.950221 -2.1875,1.28125 -0.827604,0.317246 -1.82394,0.468754 -2.96875,0.46875 -1.517256,4e-6 -2.816609,-0.239651 -3.90625,-0.75 -1.075874,-0.510339 -1.935355,-1.214649 -2.625,-2.125 -0.689665,-0.910336 -1.200224,-1.994819 -1.53125,-3.25 -0.317249,-1.268954 -0.500008,-2.670245 -0.5,-4.1875 -8e-6,-1.531018 0.182751,-2.897396 0.5,-4.125 0.331026,-1.241359 0.824129,-2.304721 1.5,-3.1875 0.689644,-0.882736 1.562919,-1.562261 2.625,-2.03125 1.062054,-0.482734 2.336623,-0.718725 3.8125,-0.71875 1.048258,2.5e-5 1.984895,0.130413 2.8125,0.40625 0.827566,0.262094 1.549333,0.621144 2.15625,1.0625 0.620668,0.441402 1.131227,0.951962 1.53125,1.53125 0.399976,0.565539 0.681873,1.16058 0.875,1.78125 l 5.375,-1.46875 C 41.770015,39.938816 41.252127,38.854335 40.5625,37.875 39.886611,36.881923 39.017,35.998518 37.96875,35.28125 36.934244,34.550243 35.68446,33.993779 34.25,33.59375 32.829291,33.19378 31.18468,33.00003 29.28125,33 Z m 21.875,7 v 6 H 45.125 v 4 h 6.03125 v 6 h 4 v -6 h 6 v -4 h -6 v -6 z m 20,0 v 6 H 65.125 v 4 h 6.03125 v 6 h 4 v -6 h 6 v -4 h -6 v -6 z" />
    </g>
    <path
       d="m 13.460156,23.574305 c 1.892484,0 0.741329,8.506605 0.741329,8.506605 0,0 10.512399,-1.113452 10.512399,2.371481 0,-0.848902 -0.002,-2.614157 -0.002,-2.614157 l -8.264401,-8.264365 z"
       style="opacity:0.2;fill:#000000;fill-opacity:1;fill-rule:evenodd;stroke-width:0.56881213"
       id="path4474-3-5" />
    <path
       d="M 3.2857204,43.048691 C 3.2857204,44.129716 3.9682956,45 4.8161585,45 H 23.181412 c 0.847863,0 1.530438,-0.870284 1.530438,-1.951309 V 39.285714 H 3.2857204 Z"
       id="rect3736"
       style="color:#000000;display:inline;overflow:visible;visibility:visible;opacity:1;fill:url(#linearGradient3748);fill-opacity:1;fill-rule:nonzero;stroke:none;stroke-width:0.43202695;marker:none;enable-background:accumulate" />
    <path
       d="M 4.816158,45 C 3.9682956,45 3.2857204,44.31462 3.2857204,43.463273 v -0.595058 c 0.010437,-3.114206 0.255072,-3.180616 0.255072,-0.256136 v 0.512242 c 0,0.712489 0.5657905,1.280605 1.2753656,1.280605 h 0.5101471 17.3449539 0.510147 c 0.709576,0 1.275366,-0.568116 1.275366,-1.280605 v -0.512242 c 0.02504,-3.471899 0.255078,-2.283853 0.255078,0.256121 v 0.595058 C 24.711844,44.31462 24.029269,45 23.181406,45 Z"
       id="path3615-2"
       style="opacity:0.2;fill:url(#radialGradient3619-6);fill-opacity:1;fill-rule:nonzero;stroke:none;stroke-width:0.25559649" />
    <g
       id="text1540"
       style="font-style:normal;font-weight:normal;font-size:39.83179474px;line-height:1.25;font-family:sans-serif;letter-spacing:0px;word-spacing:0px;fill:#000000;fill-opacity:1;stroke:none;stroke-width:0.99579489"
       transform="matrix(1.0042229,0,0,0.9957949,-16.0339,-23.152542)"
       aria-label="DOC" />
    <path
       d="m 14.163648,23.573869 c 1.789201,0 0.69371,7.880154 0.69371,7.880154 0,0 3.488495,-0.415245 6.314417,-0.05772 1.923803,0.243391 3.540539,0.844919 3.540539,2.179404 0,-0.802577 -4.64e-4,-1.737474 -4.64e-4,-1.737474 l -8.264367,-8.264364 z"
       style="opacity:0.2;fill:#000000;fill-opacity:1;fill-rule:evenodd;stroke-width:0.5377692"
       id="path4474-3" />
    <path
       d="m 15.007914,23.579044 c 1.685788,0 0.607213,7.279305 0.607213,7.279305 0,0 9.099163,-1.117886 9.099163,1.986428 0,-0.756187 -0.0024,-1.006543 -0.0024,-1.006543 l -8.264407,-8.264365 z"
       style="fill:url(#linearGradient3225);fill-rule:evenodd;stroke-width:0.5066871"
       id="path4474" />
  </g>
  <path
     id="rect1270"
     d="M 0.50000434,11 H 15.498295 v 1 H 0.50000434 Z"
     style="opacity:0.3;fill:#000000;fill-opacity:1;stroke:none;stroke-width:0.15410367;stroke-linejoin:round;stroke-miterlimit:4;stroke-dasharray:none;stroke-dashoffset:0;stroke-opacity:1;paint-order:stroke fill markers" />
</svg>
