<?xml version="1.0" encoding="UTF-8" standalone="no"?>
<svg
   xmlns:dc="http://purl.org/dc/elements/1.1/"
   xmlns:cc="http://creativecommons.org/ns#"
   xmlns:rdf="http://www.w3.org/1999/02/22-rdf-syntax-ns#"
   xmlns:svg="http://www.w3.org/2000/svg"
   xmlns="http://www.w3.org/2000/svg"
   xmlns:xlink="http://www.w3.org/1999/xlink"
   version="1.1"
   id="svg10994"
   height="22"
   width="22">
  <defs
     id="defs10996">
    <linearGradient
       y2="21.386522"
       x2="27.557428"
       y1="7.162672"
       x1="27.557428"
       gradientTransform="matrix(0.62762637,0,0,0.79043346,1.97277,-3.8155921)"
       gradientUnits="userSpaceOnUse"
       id="linearGradient4440-9"
       xlink:href="#linearGradient3454-2-5-0-3-4-1" />
    <linearGradient
       id="linearGradient3454-2-5-0-3-4-1">
      <stop
         id="stop3456-4-9-38-1-8-8"
         style="stop-color:#ffffff;stop-opacity:1"
         offset="0" />
      <stop
         id="stop3458-39-80-3-5-5-8"
         style="stop-color:#ffffff;stop-opacity:0.23529412"
         offset="0.0097359" />
      <stop
         id="stop3460-7-0-2-4-2-7"
         style="stop-color:#ffffff;stop-opacity:0.15686275"
         offset="0.99001008" />
      <stop
         id="stop3462-0-9-8-7-2-3"
         style="stop-color:#ffffff;stop-opacity:0.39215687"
         offset="1" />
    </linearGradient>
    <linearGradient
       y2="36.657963"
       x2="22.809399"
       y1="49.629246"
       x1="22.934725"
       gradientTransform="matrix(0.54761895,0,0,0.48299421,-2.10685,-7.2449071)"
       gradientUnits="userSpaceOnUse"
       id="linearGradient4436-4"
       xlink:href="#linearGradient6129-963-697-142-998-580-273-5-3" />
    <linearGradient
       id="linearGradient6129-963-697-142-998-580-273-5-3">
      <stop
         offset="0"
         style="stop-color:#0a0a0a;stop-opacity:0.498"
         id="stop2661-1-2" />
      <stop
         offset="1"
         style="stop-color:#0a0a0a;stop-opacity:0"
         id="stop2663-85-8" />
    </linearGradient>
    <linearGradient
       y2="43.761127"
       x2="35.792694"
       y1="17.118193"
       x1="35.792694"
       gradientTransform="matrix(0.4666607,0,0,0.4821427,-0.16384998,-7.4553496)"
       gradientUnits="userSpaceOnUse"
       id="linearGradient4430-9"
       xlink:href="#linearGradient4632-0-6-4-7" />
    <linearGradient
       id="linearGradient4632-0-6-4-3-4-0">
      <stop
         id="stop4634-4-4-7-7-4-8"
         offset="0"
         style="stop-color:#bababa;stop-opacity:1;" />
      <stop
         id="stop4636-3-1-5-1-3-9"
         offset="1"
         style="stop-color:#838383;stop-opacity:1;" />
    </linearGradient>
    <linearGradient
       y2="34.143417"
       x2="21.37039"
       y1="4.73244"
       x1="21.37039"
       gradientTransform="matrix(0.43131243,0,0,0.48638011,0.98956,-4.8145871)"
       gradientUnits="userSpaceOnUse"
       id="linearGradient4418-4"
       xlink:href="#linearGradient4325-0" />
    <linearGradient
       id="linearGradient4325-0">
      <stop
         id="stop4327-4"
         style="stop-color:#ffffff;stop-opacity:1"
         offset="0" />
      <stop
         id="stop4329-5"
         style="stop-color:#ffffff;stop-opacity:0.23529412"
         offset="0.1106325" />
      <stop
         id="stop4331-6"
         style="stop-color:#ffffff;stop-opacity:0.15686275"
         offset="0.99001008" />
      <stop
         id="stop4333-7"
         style="stop-color:#ffffff;stop-opacity:0.39215687"
         offset="1" />
    </linearGradient>
    <linearGradient
       id="linearGradient4646-7-4-3-5-6">
      <stop
         id="stop4648-8-0-3-6-5"
         style="stop-color:#f9f9f9;stop-opacity:1"
         offset="0" />
      <stop
         id="stop4650-1-7-3-4-8"
         style="stop-color:#d8d8d8;stop-opacity:1"
         offset="1" />
    </linearGradient>
    <linearGradient
       id="linearGradient3104-8-8-97-4-6-11-5-5-0-5">
      <stop
         id="stop3106-5-4-3-5-0-2-1-0-6-6"
         style="stop-color:#000000;stop-opacity:0.32173914"
         offset="0" />
      <stop
         id="stop3108-4-3-7-8-2-0-7-9-1-4"
         style="stop-color:#000000;stop-opacity:0.27826086"
         offset="1" />
    </linearGradient>
    <linearGradient
       xlink:href="#linearGradient3104-8-8-97-4-6-11-5-5-0-5"
       id="linearGradient10992"
       gradientUnits="userSpaceOnUse"
       gradientTransform="matrix(0.40212523,0,0,0.398023,52.35056,-7.7909371)"
       x1="-51.786404"
       y1="53.514328"
       x2="-51.786404"
       y2="3.6336823" />
    <linearGradient
       id="linearGradient4632-0-6-4-7">
      <stop
         id="stop4634-4-4-7-5"
         offset="0"
         style="stop-color:#55a7f3;stop-opacity:1;" />
      <stop
         id="stop4636-3-1-5-3"
         offset="1"
         style="stop-color:#1374cf;stop-opacity:1;" />
    </linearGradient>
  </defs>
  <metadata
     id="metadata10999">
    <rdf:RDF>
      <cc:Work
         rdf:about="">
        <dc:format>image/svg+xml</dc:format>
        <dc:type
           rdf:resource="http://purl.org/dc/dcmitype/StillImage" />
        <dc:title></dc:title>
      </cc:Work>
    </rdf:RDF>
  </metadata>
  <path
     style="display:inline;fill:#bebebe;fill-opacity:1;stroke:none;stroke-width:1.34440958"
     d="m 17.562414,0.0077577 c -0.808107,0.056386 -1.733941,0.4278053 -2.480863,1.0685484 -0.91517,0.7850754 -1.658535,2.7809333 -1.459331,3.8925693 0.102701,0.573159 0.51619,1.270563 0.912081,1.488335 0.737236,0.405541 2.080928,-0.267163 3.319979,-1.640985 1.338487,-1.484075 1.953164,-3.1193333 1.495816,-4.0452188 -0.281071,-0.5690149 -0.979573,-0.8196351 -1.787682,-0.7632489 z m -6.603475,0.8777362 c -1.1242233,0.00106 -1.7190272,0.8279211 -1.7147147,2.4042335 0.00306,1.079442 0.3656728,2.050553 0.8391167,2.289747 0.352004,0.177844 0.360805,0.161242 0.802631,0 0.731843,-0.267085 1.419408,-2.049853 1.276916,-3.2438077 C 12.046265,1.358514 11.644758,0.8848479 10.958939,0.8854939 Z M 6.5079775,2.4883164 C 6.29762,2.5201324 6.0866357,2.6617412 5.8877614,2.8699404 c -0.4008654,0.41966 -0.406212,0.648404 -0.4013161,1.450173 0.00577,0.945577 0.226366,1.461133 0.8391157,2.137097 0.4583477,0.505633 0.7888741,0.535859 1.2039481,0.07633 C 7.9791436,6.0357374 8.118753,5.2540984 7.9673083,4.3964424 7.7363445,3.0884564 7.1390492,2.3928707 6.5079775,2.4883204 Z M 3.370415,5.3504994 c -0.2182588,0.03714 -0.4149752,0.166761 -0.6202159,0.381625 -0.5386054,0.563863 -0.161891,2.114379 0.6931824,2.900345 1.0205688,0.938087 1.8446847,0.07917 1.4958147,-1.56466 C 4.6909301,5.8980144 4.0251913,5.2390874 3.370415,5.3504994 Z m 9.376206,2.060772 c -0.722732,-0.01306 -1.532653,0.05004 -2.371414,0.228975 -2.1606992,0.460966 -3.889598,1.313335 -4.9982115,2.4805576 -0.6384733,0.672228 -1.0037893,1.294539 -1.3133982,2.251585 -0.7494176,2.316568 0.6384824,5.612232 3.2834956,7.861463 0.9854436,0.83799 1.5867632,1.213032 2.5903144,1.56466 0.5203807,0.182334 0.9329947,0.224693 1.8971307,0.190813 1.105258,-0.03884 1.330037,-0.09046 2.043064,-0.45795 1.044925,-0.538535 2.229338,-1.784214 2.736247,-2.862184 0.309243,-0.657616 0.358789,-0.938645 0.32835,-1.488336 -0.05198,-0.938586 -0.400042,-1.194033 -1.532298,-1.183035 -1.616379,0.01569 -2.294952,0.407796 -2.626797,1.602823 -0.250642,0.902609 -0.527739,1.221198 -1.094499,1.221198 -0.898211,0 -1.8241644,-0.747118 -1.8241644,-1.526498 0,-0.542205 0.8351034,-1.350364 2.9186634,-2.82402 2.935144,-2.075964 3.944269,-3.338891 3.794262,-4.7321436 -0.154959,-1.439244 -1.662553,-2.288885 -3.830745,-2.327908 z"
     id="path4909" />
</svg>
