<?xml version="1.0" encoding="UTF-8" standalone="no"?>
<svg
   xmlns:dc="http://purl.org/dc/elements/1.1/"
   xmlns:cc="http://creativecommons.org/ns#"
   xmlns:rdf="http://www.w3.org/1999/02/22-rdf-syntax-ns#"
   xmlns:svg="http://www.w3.org/2000/svg"
   xmlns="http://www.w3.org/2000/svg"
   xmlns:xlink="http://www.w3.org/1999/xlink"
   version="1.1"
   id="svg10994"
   height="22"
   width="22">
  <defs
     id="defs10996">
    <linearGradient
       y2="21.386522"
       x2="27.557428"
       y1="7.162672"
       x1="27.557428"
       gradientTransform="matrix(0.62762637,0,0,0.79043346,1.97277,-3.8155921)"
       gradientUnits="userSpaceOnUse"
       id="linearGradient4440-9"
       xlink:href="#linearGradient3454-2-5-0-3-4-1" />
    <linearGradient
       id="linearGradient3454-2-5-0-3-4-1">
      <stop
         id="stop3456-4-9-38-1-8-8"
         style="stop-color:#ffffff;stop-opacity:1"
         offset="0" />
      <stop
         id="stop3458-39-80-3-5-5-8"
         style="stop-color:#ffffff;stop-opacity:0.23529412"
         offset="0.0097359" />
      <stop
         id="stop3460-7-0-2-4-2-7"
         style="stop-color:#ffffff;stop-opacity:0.15686275"
         offset="0.99001008" />
      <stop
         id="stop3462-0-9-8-7-2-3"
         style="stop-color:#ffffff;stop-opacity:0.39215687"
         offset="1" />
    </linearGradient>
    <linearGradient
       y2="36.657963"
       x2="22.809399"
       y1="49.629246"
       x1="22.934725"
       gradientTransform="matrix(0.54761895,0,0,0.48299421,-2.10685,-7.2449071)"
       gradientUnits="userSpaceOnUse"
       id="linearGradient4436-4"
       xlink:href="#linearGradient6129-963-697-142-998-580-273-5-3" />
    <linearGradient
       id="linearGradient6129-963-697-142-998-580-273-5-3">
      <stop
         offset="0"
         style="stop-color:#0a0a0a;stop-opacity:0.498"
         id="stop2661-1-2" />
      <stop
         offset="1"
         style="stop-color:#0a0a0a;stop-opacity:0"
         id="stop2663-85-8" />
    </linearGradient>
    <linearGradient
       y2="43.761127"
       x2="35.792694"
       y1="17.118193"
       x1="35.792694"
       gradientTransform="matrix(0.4666607,0,0,0.4821427,-0.16384998,-7.4553496)"
       gradientUnits="userSpaceOnUse"
       id="linearGradient4430-9"
       xlink:href="#linearGradient4632-0-6-4-7" />
    <linearGradient
       id="linearGradient4632-0-6-4-3-4-0">
      <stop
         id="stop4634-4-4-7-7-4-8"
         offset="0"
         style="stop-color:#bababa;stop-opacity:1;" />
      <stop
         id="stop4636-3-1-5-1-3-9"
         offset="1"
         style="stop-color:#838383;stop-opacity:1;" />
    </linearGradient>
    <linearGradient
       y2="34.143417"
       x2="21.37039"
       y1="4.73244"
       x1="21.37039"
       gradientTransform="matrix(0.43131243,0,0,0.48638011,0.98956,-4.8145871)"
       gradientUnits="userSpaceOnUse"
       id="linearGradient4418-4"
       xlink:href="#linearGradient4325-0" />
    <linearGradient
       id="linearGradient4325-0">
      <stop
         id="stop4327-4"
         style="stop-color:#ffffff;stop-opacity:1"
         offset="0" />
      <stop
         id="stop4329-5"
         style="stop-color:#ffffff;stop-opacity:0.23529412"
         offset="0.1106325" />
      <stop
         id="stop4331-6"
         style="stop-color:#ffffff;stop-opacity:0.15686275"
         offset="0.99001008" />
      <stop
         id="stop4333-7"
         style="stop-color:#ffffff;stop-opacity:0.39215687"
         offset="1" />
    </linearGradient>
    <linearGradient
       id="linearGradient4646-7-4-3-5-6">
      <stop
         id="stop4648-8-0-3-6-5"
         style="stop-color:#f9f9f9;stop-opacity:1"
         offset="0" />
      <stop
         id="stop4650-1-7-3-4-8"
         style="stop-color:#d8d8d8;stop-opacity:1"
         offset="1" />
    </linearGradient>
    <linearGradient
       id="linearGradient3104-8-8-97-4-6-11-5-5-0-5">
      <stop
         id="stop3106-5-4-3-5-0-2-1-0-6-6"
         style="stop-color:#000000;stop-opacity:0.32173914"
         offset="0" />
      <stop
         id="stop3108-4-3-7-8-2-0-7-9-1-4"
         style="stop-color:#000000;stop-opacity:0.27826086"
         offset="1" />
    </linearGradient>
    <linearGradient
       xlink:href="#linearGradient3104-8-8-97-4-6-11-5-5-0-5"
       id="linearGradient10992"
       gradientUnits="userSpaceOnUse"
       gradientTransform="matrix(0.40212523,0,0,0.398023,52.35056,-7.7909371)"
       x1="-51.786404"
       y1="53.514328"
       x2="-51.786404"
       y2="3.6336823" />
    <linearGradient
       id="linearGradient4632-0-6-4-7">
      <stop
         id="stop4634-4-4-7-5"
         offset="0"
         style="stop-color:#55a7f3;stop-opacity:1;" />
      <stop
         id="stop4636-3-1-5-3"
         offset="1"
         style="stop-color:#1374cf;stop-opacity:1;" />
    </linearGradient>
  </defs>
  <metadata
     id="metadata10999">
    <rdf:RDF>
      <cc:Work
         rdf:about="">
        <dc:format>image/svg+xml</dc:format>
        <dc:type
           rdf:resource="http://purl.org/dc/dcmitype/StillImage" />
        <dc:title></dc:title>
      </cc:Work>
    </rdf:RDF>
  </metadata>
  <g
     transform="matrix(1.3303168,0,0,1.335537,0.24280284,-7.8674655)"
     style="display:inline;stroke:#000000;stroke-opacity:1"
     id="layer1">
    <g
       style="fill:#bebebe;fill-opacity:1;stroke:#bebebe;stroke-width:2.91698384;stroke-miterlimit:4;stroke-dasharray:none;stroke-opacity:1"
       id="g5423"
       transform="matrix(0.07479732,0,0,0.07479732,-6.365225,-32.473303)">
      <path
         style="fill:#bebebe;fill-opacity:1;stroke:#bebebe;stroke-width:2.91698384;stroke-miterlimit:4;stroke-dasharray:none;stroke-opacity:1"
         id="path3042-0-6-4"
         d="m 177.89056,597.12767 h -0.01 c -6.6729,0 -12.10712,-5.42671 -12.11419,-12.09501 -0.01,-6.69051 5.42514,-12.12528 12.1041,-12.13236 6.68298,0 12.1162,5.42671 12.12426,12.09501 0,6.69052 -5.42512,12.1263 -12.10408,12.13337 v 0 z" />
      <path
         style="fill:#bebebe;fill-opacity:1;stroke:#bebebe;stroke-width:2.91698384;stroke-miterlimit:4;stroke-dasharray:none;stroke-opacity:1"
         id="path3056-6-4-1"
         d="m 210.60812,588.24494 c -6.23094,0 -11.30246,-5.06615 -11.30657,-11.29167 -0.01,-6.24198 5.06123,-11.31635 11.2963,-11.32148 6.23916,0 11.31068,5.0651 11.31683,11.29063 0,6.24197 -5.06224,11.31635 -11.29628,11.32252 h -0.01 z" />
      <path
         style="fill:#bebebe;fill-opacity:1;stroke:#bebebe;stroke-width:2.02264214;stroke-miterlimit:4;stroke-dasharray:none;stroke-opacity:1"
         id="path4104"
         transform="matrix(1.4421651,0,0,1.4421651,215.7232,578.60266)"
         d="m -10,-15.700835 a 7,7 0 1 1 -14,0 7,7 0 1 1 14,0 z" />
      <path
         style="fill:#bebebe;fill-opacity:1;stroke:#bebebe;stroke-width:3.61186099;stroke-miterlimit:4;stroke-dasharray:none;stroke-opacity:1"
         id="path4106"
         transform="matrix(0.80761247,0,0,0.80761247,140.73061,552.34319)"
         d="m 94,-16.522263 a 11.5,11.5 0 1 1 -23,0 11.5,11.5 0 1 1 23,0 z" />
      <path
         style="fill:#bebebe;fill-opacity:1;stroke:#bebebe;stroke-width:3.792454;stroke-miterlimit:4;stroke-dasharray:none;stroke-opacity:1"
         id="path4132"
         transform="matrix(0.76915473,0,0,0.76915473,187.18756,551.30398)"
         d="m 11,-37.522263 a 10.5,10.5 0 1 1 -21,0 10.5,10.5 0 1 1 21,0 z" />
    </g>
    <path
       style="color:#000000;font-style:normal;font-variant:normal;font-weight:normal;font-stretch:normal;font-size:medium;line-height:normal;font-family:Sans;-inkscape-font-specification:Sans;text-indent:0;text-align:start;text-decoration:none;text-decoration-line:none;letter-spacing:normal;word-spacing:normal;text-transform:none;writing-mode:lr-tb;direction:ltr;baseline-shift:baseline;text-anchor:start;display:inline;overflow:visible;visibility:visible;fill:#bebebe;fill-opacity:1;stroke:#bebebe;stroke-width:0.72727525;stroke-miterlimit:4;stroke-dasharray:none;stroke-opacity:1;marker:none;enable-background:accumulate"
       id="path3347-1"
       d="M 4.4156,13.006526 C 3.633938,14.019692 3,15.159271 3,16.539795 3,19.532163 5.270729,22 8.086218,22 c 2.815404,0 5.086218,-2.467824 5.086218,-5.460205 0,-1.380798 -0.634947,-2.484167 -1.460805,-3.533267 -0.309679,-0.324968 -0.756767,-0.276649 -1.082242,-0.06871 -0.952391,0.492805 -1.466482,0.689701 -2.543171,0.684878 -1.04133,-0.0047 -1.588446,-0.174727 -2.54089,-0.69392 -0.325474,-0.198901 -0.82005,-0.247221 -1.129728,0.07775 z m 0.678725,0.840567 c 0.987196,0.545837 1.867623,0.82277 2.991893,0.82277 1.125221,0 2.00419,-0.276937 2.991893,-0.82277 0.538952,0.759929 1.047162,1.70223 1.047162,2.692702 0,2.453449 -1.808248,4.413042 -4.039055,4.413042 -2.230914,0 -4.113854,-1.95958 -4.113854,-4.413042 0,-0.989166 0.581834,-1.932179 1.121961,-2.692702 z" />
  </g>
</svg>
