<?xml version="1.0" encoding="UTF-8" standalone="no"?>
<svg
   xmlns:dc="http://purl.org/dc/elements/1.1/"
   xmlns:cc="http://creativecommons.org/ns#"
   xmlns:rdf="http://www.w3.org/1999/02/22-rdf-syntax-ns#"
   xmlns:svg="http://www.w3.org/2000/svg"
   xmlns="http://www.w3.org/2000/svg"
   xmlns:xlink="http://www.w3.org/1999/xlink"
   width="22"
   height="22"
   id="svg10994"
   version="1.1">
  <defs
     id="defs10996">
    <linearGradient
       xlink:href="#linearGradient3454-2-5-0-3-4-1"
       id="linearGradient4440-9"
       gradientUnits="userSpaceOnUse"
       gradientTransform="matrix(0.62762637,0,0,0.79043346,1.97277,-3.8155921)"
       x1="27.557428"
       y1="7.162672"
       x2="27.557428"
       y2="21.386522" />
    <linearGradient
       id="linearGradient3454-2-5-0-3-4-1">
      <stop
         offset="0"
         style="stop-color:#ffffff;stop-opacity:1"
         id="stop3456-4-9-38-1-8-8" />
      <stop
         offset="0.0097359"
         style="stop-color:#ffffff;stop-opacity:0.23529412"
         id="stop3458-39-80-3-5-5-8" />
      <stop
         offset="0.99001008"
         style="stop-color:#ffffff;stop-opacity:0.15686275"
         id="stop3460-7-0-2-4-2-7" />
      <stop
         offset="1"
         style="stop-color:#ffffff;stop-opacity:0.39215687"
         id="stop3462-0-9-8-7-2-3" />
    </linearGradient>
    <linearGradient
       xlink:href="#linearGradient6129-963-697-142-998-580-273-5-3"
       id="linearGradient4436-4"
       gradientUnits="userSpaceOnUse"
       gradientTransform="matrix(0.54761895,0,0,0.48299421,-2.10685,-7.2449071)"
       x1="22.934725"
       y1="49.629246"
       x2="22.809399"
       y2="36.657963" />
    <linearGradient
       id="linearGradient6129-963-697-142-998-580-273-5-3">
      <stop
         id="stop2661-1-2"
         style="stop-color:#0a0a0a;stop-opacity:0.498"
         offset="0" />
      <stop
         id="stop2663-85-8"
         style="stop-color:#0a0a0a;stop-opacity:0"
         offset="1" />
    </linearGradient>
    <linearGradient
       xlink:href="#linearGradient4632-0-6-4-7"
       id="linearGradient4430-9"
       gradientUnits="userSpaceOnUse"
       gradientTransform="matrix(0.4666607,0,0,0.4821427,-0.16384998,-7.4553496)"
       x1="35.792694"
       y1="17.118193"
       x2="35.792694"
       y2="43.761127" />
    <linearGradient
       id="linearGradient4632-0-6-4-3-4-0">
      <stop
         style="stop-color:#bababa;stop-opacity:1;"
         offset="0"
         id="stop4634-4-4-7-7-4-8" />
      <stop
         style="stop-color:#838383;stop-opacity:1;"
         offset="1"
         id="stop4636-3-1-5-1-3-9" />
    </linearGradient>
    <linearGradient
       xlink:href="#linearGradient4325-0"
       id="linearGradient4418-4"
       gradientUnits="userSpaceOnUse"
       gradientTransform="matrix(0.43131243,0,0,0.48638011,0.98956,-4.8145871)"
       x1="21.37039"
       y1="4.73244"
       x2="21.37039"
       y2="34.143417" />
    <linearGradient
       id="linearGradient4325-0">
      <stop
         offset="0"
         style="stop-color:#ffffff;stop-opacity:1"
         id="stop4327-4" />
      <stop
         offset="0.1106325"
         style="stop-color:#ffffff;stop-opacity:0.23529412"
         id="stop4329-5" />
      <stop
         offset="0.99001008"
         style="stop-color:#ffffff;stop-opacity:0.15686275"
         id="stop4331-6" />
      <stop
         offset="1"
         style="stop-color:#ffffff;stop-opacity:0.39215687"
         id="stop4333-7" />
    </linearGradient>
    <linearGradient
       id="linearGradient4646-7-4-3-5-6">
      <stop
         offset="0"
         style="stop-color:#f9f9f9;stop-opacity:1"
         id="stop4648-8-0-3-6-5" />
      <stop
         offset="1"
         style="stop-color:#d8d8d8;stop-opacity:1"
         id="stop4650-1-7-3-4-8" />
    </linearGradient>
    <linearGradient
       id="linearGradient3104-8-8-97-4-6-11-5-5-0-5">
      <stop
         offset="0"
         style="stop-color:#000000;stop-opacity:0.32173914"
         id="stop3106-5-4-3-5-0-2-1-0-6-6" />
      <stop
         offset="1"
         style="stop-color:#000000;stop-opacity:0.27826086"
         id="stop3108-4-3-7-8-2-0-7-9-1-4" />
    </linearGradient>
    <linearGradient
       y2="3.6336823"
       x2="-51.786404"
       y1="53.514328"
       x1="-51.786404"
       gradientTransform="matrix(0.40212523,0,0,0.398023,52.35056,-7.7909371)"
       gradientUnits="userSpaceOnUse"
       id="linearGradient10992"
       xlink:href="#linearGradient3104-8-8-97-4-6-11-5-5-0-5" />
    <linearGradient
       id="linearGradient4632-0-6-4-7">
      <stop
         style="stop-color:#55a7f3;stop-opacity:1;"
         offset="0"
         id="stop4634-4-4-7-5" />
      <stop
         style="stop-color:#1374cf;stop-opacity:1;"
         offset="1"
         id="stop4636-3-1-5-3" />
    </linearGradient>
    <linearGradient
       y2="90.238609"
       x2="32.251034"
       y1="6.1317081"
       x1="32.251034"
       gradientTransform="matrix(1.0238095,0,0,1.0119048,-1.1428571,-98.071429)"
       gradientUnits="userSpaceOnUse"
       id="linearGradient4781"
       xlink:href="#ButtonShadow-0" />
    <linearGradient
       x1="45.447727"
       y1="92.539597"
       x2="45.447727"
       y2="7.0165396"
       id="ButtonShadow-0"
       gradientUnits="userSpaceOnUse"
       gradientTransform="matrix(1.0058652,0,0,0.994169,100,0)">
      <stop
         id="stop3750-8"
         style="stop-color:#000000;stop-opacity:1"
         offset="0" />
      <stop
         id="stop3752-5"
         style="stop-color:#000000;stop-opacity:0.58823532"
         offset="1" />
    </linearGradient>
    <linearGradient
       x1="32.251034"
       y1="6.1317081"
       x2="32.251034"
       y2="90.238609"
       id="linearGradient3721"
       xlink:href="#ButtonShadow-0"
       gradientUnits="userSpaceOnUse"
       gradientTransform="translate(0,-97)" />
    <radialGradient
       xlink:href="#linearGradient7105"
       id="radialGradient4805"
       gradientUnits="userSpaceOnUse"
       gradientTransform="matrix(0.33286729,0,0,0.14175557,-41.390963,6.0621271)"
       cx="47.757603"
       cy="25.975586"
       fx="47.757603"
       fy="25.975586"
       r="37.015839" />
    <linearGradient
       id="linearGradient7105">
      <stop
         id="stop7107"
         style="stop-color:#515151;stop-opacity:1"
         offset="0" />
      <stop
         id="stop7113"
         style="stop-color:#272727;stop-opacity:1"
         offset="1" />
    </linearGradient>
    <linearGradient
       x1="48"
       y1="90"
       x2="48"
       y2="5.9877172"
       id="linearGradient3706"
       xlink:href="#linearGradient3172"
       gradientUnits="userSpaceOnUse"
       gradientTransform="matrix(0,0.32586558,-0.32586558,0,-9.6804859,1.2594843)" />
    <linearGradient
       id="linearGradient3172">
      <stop
         id="stop3174"
         style="stop-color:#a0a0a0;stop-opacity:1"
         offset="0" />
      <stop
         id="stop3188"
         style="stop-color:#dcdcdc;stop-opacity:1"
         offset="0.1362071" />
      <stop
         id="stop3180"
         style="stop-color:#f5f5f5;stop-opacity:1"
         offset="0.3023597" />
      <stop
         id="stop3190"
         style="stop-color:#dcdcdc;stop-opacity:1"
         offset="0.61225069" />
      <stop
         id="stop3176"
         style="stop-color:#b4b4b4;stop-opacity:1"
         offset="1" />
    </linearGradient>
    <linearGradient
       x1="48"
       y1="90"
       x2="48"
       y2="5.9877172"
       id="linearGradient3536"
       xlink:href="#ButtonColor"
       gradientUnits="userSpaceOnUse"
       gradientTransform="matrix(0.32586558,0,0,0.32586558,-40.963582,1.2594843)" />
    <linearGradient
       x1="58.650177"
       y1="122"
       x2="58.650177"
       y2="5.4252338"
       id="ButtonColor"
       gradientUnits="userSpaceOnUse"
       gradientTransform="matrix(1.0172414,0,0,1.0172414,-1.1034483,-1.1034483)">
      <stop
         id="stop3189"
         style="stop-color:#000000;stop-opacity:0.15625"
         offset="0" />
      <stop
         id="stop3191"
         style="stop-color:#ffffff;stop-opacity:0"
         offset="1" />
    </linearGradient>
    <linearGradient
       x1="36.357143"
       y1="6"
       x2="36.357143"
       y2="63.893143"
       id="linearGradient3188"
       xlink:href="#linearGradient3211"
       gradientUnits="userSpaceOnUse"
       gradientTransform="matrix(0.32586558,0,0,0.32586558,-40.963582,1.2594843)" />
    <linearGradient
       id="linearGradient3211">
      <stop
         offset="0"
         style="stop-color:#ffffff;stop-opacity:1"
         id="stop3213" />
      <stop
         offset="1"
         style="stop-color:#ffffff;stop-opacity:0"
         id="stop3215" />
    </linearGradient>
    <radialGradient
       cx="48"
       cy="90.171875"
       r="42"
       fx="48"
       fy="90.171875"
       id="radialGradient2893"
       xlink:href="#linearGradient3211"
       gradientUnits="userSpaceOnUse"
       gradientTransform="matrix(0.37712844,0,0,0.32453205,-43.4242,1.3237228)" />
    <linearGradient
       x1="87.228699"
       y1="103.55167"
       x2="69.920662"
       y2="103.55167"
       id="linearGradient3659"
       xlink:href="#linearGradient4599"
       gradientUnits="userSpaceOnUse" />
    <linearGradient
       id="linearGradient4599">
      <stop
         offset="0"
         style="stop-color:#046efe;stop-opacity:1"
         id="stop4595" />
      <stop
         offset="1"
         style="stop-color:#00adff;stop-opacity:1"
         id="stop4597" />
    </linearGradient>
    <linearGradient
       x1="82.855774"
       y1="87.433334"
       x2="86.748848"
       y2="97.972473"
       id="linearGradient3661"
       xlink:href="#linearGradient4605"
       gradientUnits="userSpaceOnUse" />
    <linearGradient
       id="linearGradient4605">
      <stop
         offset="0"
         style="stop-color:#0082ff;stop-opacity:1"
         id="stop4601" />
      <stop
         offset="1"
         style="stop-color:#005aff;stop-opacity:1"
         id="stop4603" />
    </linearGradient>
    <linearGradient
       x1="52.105541"
       y1="76.541229"
       x2="61.130371"
       y2="68.295815"
       id="linearGradient3663"
       xlink:href="#linearGradient4605"
       gradientUnits="userSpaceOnUse" />
    <linearGradient
       x1="66.740204"
       y1="63.588692"
       x2="75.281227"
       y2="80.814972"
       id="linearGradient3665"
       xlink:href="#linearGradient4599"
       gradientUnits="userSpaceOnUse" />
    <linearGradient
       x1="43.245415"
       y1="104.21532"
       x2="48.193569"
       y2="93.471298"
       id="linearGradient3667"
       xlink:href="#linearGradient4599"
       gradientUnits="userSpaceOnUse" />
    <linearGradient
       x1="60.413662"
       y1="106.16137"
       x2="46.921165"
       y2="110.65887"
       id="linearGradient3669"
       xlink:href="#linearGradient4605"
       gradientUnits="userSpaceOnUse" />
    <linearGradient
       y2="90.238609"
       x2="32.251034"
       y1="6.1317081"
       x1="32.251034"
       gradientTransform="matrix(1.0238095,0,0,1.0119048,-1.1428571,-98.071429)"
       gradientUnits="userSpaceOnUse"
       id="linearGradient4666"
       xlink:href="#ButtonShadow-0" />
    <linearGradient
       y2="90.238609"
       x2="32.251034"
       y1="6.1317081"
       x1="32.251034"
       gradientTransform="matrix(1.0238095,0,0,1.0119048,-1.1428571,-98.071429)"
       gradientUnits="userSpaceOnUse"
       id="linearGradient4668"
       xlink:href="#ButtonShadow-0" />
    <linearGradient
       y2="90.238609"
       x2="32.251034"
       y1="6.1317081"
       x1="32.251034"
       gradientTransform="matrix(1.0238095,0,0,1.0119048,-1.1428571,-98.071429)"
       gradientUnits="userSpaceOnUse"
       id="linearGradient4670"
       xlink:href="#ButtonShadow-0" />
  </defs>
  <metadata
     id="metadata10999">
    <rdf:RDF>
      <cc:Work
         rdf:about="">
        <dc:format>image/svg+xml</dc:format>
        <dc:type
           rdf:resource="http://purl.org/dc/dcmitype/StillImage" />
        <dc:title></dc:title>
      </cc:Work>
    </rdf:RDF>
  </metadata>
  <g
     id="g4702"
     transform="matrix(0.73333333,0,0,0.73333333,29.569492,-1.6330582)">
    <g
       id="layer5"
       style="display:inline"
       transform="matrix(0.32586558,0,0,0.32586558,-40.963582,1.2594843)">
      <path
         d="m 12,-95.03125 c -5.5110903,0 -10.03125,4.52016 -10.03125,10.03125 v 71 c 0,5.5110902 4.5201598,10.03125 10.03125,10.03125 h 72 c 5.51109,0 10.03125,-4.5201597 10.03125,-10.03125 v -71 c 0,-5.51109 -4.52016,-10.03125 -10.03125,-10.03125 z"
         transform="scale(1,-1)"
         id="path3786"
         style="display:inline;opacity:0.07999998;fill:url(#linearGradient4666);fill-opacity:1;fill-rule:nonzero;stroke:none" />
      <path
         d="m 12,-94.03125 c -4.971633,0 -9.03125,4.059617 -9.03125,9.03125 v 71 c 0,4.9716329 4.0596171,9.03125 9.03125,9.03125 h 72 c 4.971633,0 9.03125,-4.059617 9.03125,-9.03125 v -71 c 0,-4.971633 -4.059617,-9.03125 -9.03125,-9.03125 z"
         transform="scale(1,-1)"
         id="path3778"
         style="display:inline;opacity:0.1;fill:url(#linearGradient4668);fill-opacity:1;fill-rule:nonzero;stroke:none" />
      <path
         d="m 12,-93 c -4.4091333,0 -8,3.590867 -8,8 v 71 c 0,4.4091333 3.5908667,8 8,8 h 72 c 4.409133,0 8,-3.5908667 8,-8 v -71 c 0,-4.409133 -3.590867,-8 -8,-8 z"
         transform="scale(1,-1)"
         id="path3770"
         style="display:inline;opacity:0.2;fill:url(#linearGradient4670);fill-opacity:1;fill-rule:nonzero;stroke:none" />
      <rect
         width="86"
         height="85"
         rx="7"
         ry="7"
         x="5"
         y="-92"
         transform="scale(1,-1)"
         id="rect3723"
         style="display:inline;opacity:0.3;fill:url(#linearGradient4781);fill-opacity:1;fill-rule:nonzero;stroke:none" />
      <rect
         width="84"
         height="84"
         rx="6"
         ry="6"
         x="6"
         y="-91"
         transform="scale(1,-1)"
         id="rect3716"
         style="display:inline;opacity:0.45;fill:url(#linearGradient3721);fill-opacity:1;fill-rule:nonzero;stroke:none" />
    </g>
    <path
       style="display:inline;fill:url(#radialGradient4805);fill-opacity:1;fill-rule:evenodd;stroke:none;stroke-width:0.23733139"
       d="m -35.814787,4.4971097 c -1.106449,0 -1.997203,0.8935746 -1.997203,2.0035304 -0.01064,2.0354258 0.0072,4.0698869 0.0072,6.0966799 3.211817,1.746937 7.000727,2.394193 12.648305,2.394193 5.762341,0 8.78259,-0.690541 11.983875,-2.498543 -0.0042,-1.998703 -0.0072,-3.9819732 -0.0072,-5.9923299 0,-1.1099558 -0.890753,-2.0035304 -1.997204,-2.0035304 z"
       id="path3366-2-5" />
    <path
       style="display:inline;fill:url(#linearGradient3706);fill-opacity:1;fill-rule:nonzero;stroke:none;stroke-width:0.32586557"
       d="m -37.053195,3.2146778 c -1.083177,0 -1.955193,0.8720163 -1.955193,1.9551934 V 28.632193 c 0,1.083177 0.872016,1.955193 1.955193,1.955193 h 23.462322 c 1.083177,0 1.955193,-0.872016 1.955193,-1.955193 V 5.1698712 c 0,-1.0831771 -0.872016,-1.9551934 -1.955193,-1.9551934 z m 1.548498,1.3887475 h 20.203666 c 1.083177,0 1.955193,0.8720163 1.955193,1.9551935 0,1.9618551 0.0029,3.8972772 0.007,5.8477592 -3.133948,1.764383 -6.090665,2.438264 -11.731798,2.438264 -5.528784,0 -9.237997,-0.63164 -12.382255,-2.336431 0,-1.977895 -0.01741,-3.9632727 -0.007,-5.9495922 0,-1.0831772 0.872017,-1.9551935 1.955194,-1.9551935 z"
       id="rect2419" />
    <path
       d="m -37.053195,3.2146778 c -1.083177,0 -1.955193,0.8720163 -1.955193,1.9551934 V 28.632193 c 0,1.083177 0.872016,1.955193 1.955193,1.955193 h 23.462322 c 1.083177,0 1.955193,-0.872016 1.955193,-1.955193 V 5.1698712 c 0,-1.0831771 -0.872016,-1.9551934 -1.955193,-1.9551934 z"
       id="rect3480"
       style="display:inline;fill:url(#linearGradient3536);fill-opacity:1;fill-rule:nonzero;stroke:none;stroke-width:0.32586557" />
    <path
       d="m -37.053195,3.2146778 c -1.083177,0 -1.955193,0.8720163 -1.955193,1.9551934 v 0.6517312 22.1588596 0.651731 c 0,0.109073 0.01347,0.21204 0.03055,0.315682 0.01587,0.09633 0.03162,0.194512 0.0611,0.285132 0.0032,0.0099 0.0068,0.02073 0.01018,0.03053 0.03222,0.09377 0.07654,0.178395 0.122199,0.264766 0.04712,0.08913 0.102849,0.17454 0.162933,0.254582 0.06008,0.08004 0.121801,0.154288 0.193483,0.224033 0.143363,0.13949 0.307262,0.265427 0.488798,0.356415 0.09077,0.04549 0.186875,0.08047 0.285133,0.112017 -0.08349,-0.03266 -0.158603,-0.07699 -0.234216,-0.1222 -0.0024,-0.0013 -0.0078,0.0013 -0.01018,0 -0.01041,-0.0063 -0.0203,-0.01385 -0.03055,-0.02037 -0.03923,-0.02499 -0.07528,-0.05328 -0.112017,-0.08147 -0.0346,-0.02633 -0.0695,-0.0525 -0.101833,-0.08147 -0.05798,-0.0526 -0.113225,-0.112551 -0.162932,-0.173116 -0.03506,-0.04245 -0.07117,-0.08645 -0.101833,-0.132383 -0.0082,-0.01251 -0.01253,-0.02799 -0.02037,-0.04073 -0.0211,-0.03357 -0.04244,-0.06665 -0.0611,-0.101833 -0.03291,-0.06345 -0.06702,-0.135462 -0.09165,-0.203666 -0.0026,-0.0071 -0.0077,-0.0132 -0.01018,-0.02037 -0.01037,-0.02993 -0.01167,-0.06086 -0.02037,-0.09163 -0.0099,-0.03474 -0.02294,-0.06616 -0.03055,-0.101833 -0.02375,-0.111286 -0.04073,-0.227519 -0.04073,-0.346232 V 28.306327 6.147468 5.4957368 c 0,-0.9065085 0.722819,-1.6293279 1.629328,-1.6293279 h 0.651731 22.15886 0.651731 c 0.906508,0 1.629328,0.7228194 1.629328,1.6293279 v 0.6517312 22.158859 0.651731 c 0,0.118713 -0.01698,0.234946 -0.04073,0.346232 -0.01439,0.06742 -0.0288,0.129584 -0.05092,0.193483 -0.0025,0.0072 -0.0076,0.01326 -0.01018,0.02037 -0.02044,0.05662 -0.04509,0.119739 -0.07128,0.173116 -0.01355,0.02698 -0.02576,0.05538 -0.04073,0.08147 -0.01779,0.03167 -0.04131,0.06138 -0.0611,0.09165 -0.03067,0.04593 -0.06678,0.08994 -0.101833,0.132383 -0.04666,0.05685 -0.09878,0.113075 -0.15275,0.162933 -0.0036,0.0033 -0.0065,0.0069 -0.01018,0.01017 -0.04509,0.04092 -0.0929,0.0764 -0.142566,0.112016 -0.03343,0.02382 -0.06658,0.04997 -0.101833,0.07128 -0.0024,0.0013 -0.0078,-0.0013 -0.01018,0 -0.07561,0.04521 -0.150728,0.08954 -0.234215,0.1222 0.09826,-0.03154 0.194364,-0.06652 0.285132,-0.112017 0.181536,-0.09099 0.345435,-0.216925 0.488798,-0.356415 0.07168,-0.06975 0.133399,-0.14399 0.193483,-0.224033 0.06008,-0.08004 0.115815,-0.165455 0.162933,-0.254582 0.04566,-0.08637 0.08998,-0.170992 0.122199,-0.264766 0.0034,-0.01004 0.007,-0.02043 0.01018,-0.03053 0.02948,-0.09062 0.04523,-0.188806 0.0611,-0.285132 0.01708,-0.103642 0.03055,-0.206609 0.03055,-0.315682 V 27.980462 5.8216024 5.1698712 c 0,-1.0831771 -0.872016,-1.9551934 -1.955193,-1.9551934 z"
       id="rect3728"
       style="display:inline;opacity:0.5;fill:url(#linearGradient3188);fill-opacity:1;fill-rule:nonzero;stroke:none;stroke-width:0.32586557" />
    <path
       d="m -37.053195,30.587386 c -1.083177,0 -1.955193,-0.872016 -1.955193,-1.955193 V 27.980462 5.8216024 5.1698712 c 0,-0.109074 0.01347,-0.2120407 0.03055,-0.3156822 0.01587,-0.096325 0.03162,-0.1945141 0.0611,-0.2851324 0.0032,-0.0099 0.0068,-0.020725 0.01018,-0.03055 0.03222,-0.093775 0.07654,-0.1783957 0.122199,-0.2647657 0.04712,-0.089126 0.102849,-0.1745385 0.162933,-0.2545825 0.06009,-0.080044 0.121801,-0.1542882 0.193483,-0.2240326 0.143363,-0.1394887 0.307262,-0.265426 0.488798,-0.3564155 0.09077,-0.045495 0.186875,-0.080471 0.285133,-0.1120163 -0.08349,0.032659 -0.158603,0.076993 -0.234216,0.1221996 -0.0024,0.00143 -0.0078,-0.00147 -0.01018,0 -0.0104,0.00629 -0.0203,0.013853 -0.03055,0.020367 -0.03923,0.024994 -0.07528,0.053283 -0.112017,0.081466 -0.0346,0.02633 -0.0695,0.052501 -0.101833,0.081466 -0.05798,0.052606 -0.113225,0.1125501 -0.162932,0.1731162 -0.03506,0.042446 -0.07117,0.086447 -0.101833,0.1323829 -0.0082,0.012507 -0.01253,0.027982 -0.02037,0.040733 -0.0211,0.033575 -0.04244,0.066645 -0.0611,0.101833 -0.03291,0.063448 -0.06702,0.1354627 -0.09165,0.203666 -0.0026,0.00711 -0.0077,0.013214 -0.01018,0.020367 -0.01037,0.029963 -0.01167,0.060882 -0.02037,0.09165 -0.0099,0.034743 -0.02294,0.066161 -0.03055,0.1018331 -0.02375,0.111287 -0.04073,0.227521 -0.04073,0.3462322 v 0.6517311 22.1588599 0.651731 c 0,0.906509 0.722819,1.629328 1.629328,1.629328 h 0.651731 22.15886 0.651731 c 0.906508,0 1.629328,-0.722819 1.629328,-1.629328 V 27.654596 5.4957368 4.8440057 c 0,-0.1187112 -0.01698,-0.2349452 -0.04073,-0.3462322 -0.01439,-0.067419 -0.0288,-0.1295831 -0.05092,-0.1934827 -0.0025,-0.00715 -0.0076,-0.013259 -0.01018,-0.020367 -0.02044,-0.056616 -0.04509,-0.119739 -0.07128,-0.1731161 -0.01355,-0.026982 -0.02576,-0.055382 -0.04073,-0.081466 -0.01779,-0.031677 -0.04131,-0.061377 -0.0611,-0.09165 -0.03067,-0.045936 -0.06678,-0.089937 -0.101833,-0.1323829 -0.04666,-0.056847 -0.09878,-0.1130747 -0.15275,-0.1629328 -0.0036,-0.00332 -0.0065,-0.00689 -0.01018,-0.010183 -0.04509,-0.040914 -0.0929,-0.076395 -0.142566,-0.1120163 -0.03343,-0.023837 -0.06658,-0.049976 -0.101833,-0.071283 -0.0024,-0.00147 -0.0078,0.00143 -0.01018,0 -0.07561,-0.045207 -0.150728,-0.089541 -0.234215,-0.1221996 0.09826,0.031544 0.194364,0.066522 0.285132,0.1120163 0.181536,0.09099 0.345435,0.2169268 0.488798,0.3564155 0.07168,0.069744 0.133399,0.1439886 0.193483,0.2240326 0.06008,0.080044 0.115815,0.165456 0.162933,0.2545825 0.04566,0.08637 0.08998,0.1709911 0.122199,0.2647658 0.0034,0.01003 0.007,0.020445 0.01018,0.03055 0.02948,0.090618 0.04523,0.1888078 0.0611,0.2851324 0.01708,0.1036415 0.03055,0.2066082 0.03055,0.3156822 v 0.6517311 22.1588595 0.651731 c 0,1.083177 -0.872016,1.955193 -1.955193,1.955193 z"
       id="path3615"
       style="display:inline;opacity:0.3;fill:url(#radialGradient2893);fill-opacity:1;fill-rule:nonzero;stroke:none;stroke-width:0.32586557" />
    <g
       transform="matrix(0.24139856,0,0,0.24139856,-41.331479,1.6609442)"
       id="g3350"
       style="display:inline">
      <path
         d="m 66.740086,106.88012 6.331728,-11.357102 0.0301,4.153571 13.32572,-0.03009 c 2.381109,-0.252345 4.468715,-1.220077 5.98052,-3.03994 -4.82499,9.868301 -6.214719,16.850851 -16.225668,16.855071 h -3.080572 l -0.0301,4.61507 z"
         id="path3292"
         style="display:inline;fill:url(#linearGradient3659);fill-opacity:1;stroke:none" />
      <path
         d="M 81.240116,97.921419 75.359939,87.086023 87.240708,79.892529 92.99042,91.410143 c 0.174089,2.756344 -4.276917,6.591993 -7.039556,6.562155 z"
         id="path3290"
         style="display:inline;fill:url(#linearGradient3661);fill-opacity:1;stroke:none" />
      <path
         d="m 45.109433,73.919728 6.070024,-9.095652 c 5.887367,-2.192329 9.297705,2.540579 11.45008,5.523983 L 56.90992,81.323911 Z"
         id="path3288"
         style="display:inline;fill:url(#linearGradient3663);fill-opacity:1;stroke:none" />
      <path
         d="M 69.091143,78.447225 C 67.870278,75.569484 66.239058,72.277738 64.199221,69.415642 62.37298,66.853249 60.166412,64.617611 58.494792,63.618783 l 15.352678,-0.03009 c 2.757154,0.247485 4.096834,1.8546 5.559059,4.053238 l 2.207565,3.882684 3.411713,-2.177108 -6.422024,11.437374 -13.84751,0.03009 4.33487,-2.367748 z"
         id="path3286"
         style="display:inline;fill:url(#linearGradient3665);fill-opacity:1;stroke:none" />
      <path
         d="m 47.846903,82.693623 7.342774,10.731394 -3.73163,-1.825529 -5.916252,11.938462 c -0.836067,2.24336 -0.900829,4.54314 0.05403,6.70769 -6.682019,-8.71903 -12.312877,-13.076862 -7.851823,-22.037427 l 1.373917,-2.756768 -4.117916,-2.085235 12.846904,-0.672587 z"
         id="path3284"
         style="display:inline;fill:url(#linearGradient3667);fill-opacity:1;stroke:none" />
      <path
         d="m 49.529355,99.666566 13.538353,-0.429582 -0.07542,13.840216 -12.87471,0.009 c -2.545077,-1.07352 -3.993562,-6.76734 -2.734733,-9.22628 l 2.146512,-4.192914 z"
         id="path4068"
         style="display:inline;fill:url(#linearGradient3669);fill-opacity:1;stroke:none" />
    </g>
  </g>
</svg>
