<?xml version="1.0" encoding="UTF-8" standalone="no"?>
<!-- Created with Inkscape (http://www.inkscape.org/) -->

<svg
   xmlns:dc="http://purl.org/dc/elements/1.1/"
   xmlns:cc="http://creativecommons.org/ns#"
   xmlns:rdf="http://www.w3.org/1999/02/22-rdf-syntax-ns#"
   xmlns:svg="http://www.w3.org/2000/svg"
   xmlns="http://www.w3.org/2000/svg"
   xmlns:xlink="http://www.w3.org/1999/xlink"
   xmlns:sodipodi="http://sodipodi.sourceforge.net/DTD/sodipodi-0.dtd"
   xmlns:inkscape="http://www.inkscape.org/namespaces/inkscape"
   version="1.0"
   width="96"
   height="96"
   id="svg2408"
   sodipodi:docname="gnome-netstatus-rx.svg"
   inkscape:version="0.92.1 r">
  <sodipodi:namedview
     pagecolor="#ffffff"
     bordercolor="#666666"
     borderopacity="1"
     objecttolerance="10"
     gridtolerance="10"
     guidetolerance="10"
     inkscape:pageopacity="0"
     inkscape:pageshadow="2"
     inkscape:window-width="755"
     inkscape:window-height="480"
     id="namedview63"
     showgrid="false"
     inkscape:zoom="2.4583333"
     inkscape:cx="48"
     inkscape:cy="48"
     inkscape:window-x="399"
     inkscape:window-y="340"
     inkscape:window-maximized="0"
     inkscape:current-layer="svg2408" />
  <defs
     id="defs2410">
    <linearGradient
       x1="45.447727"
       y1="92.539597"
       x2="45.447727"
       y2="7.0165396"
       id="ButtonShadow"
       gradientUnits="userSpaceOnUse"
       gradientTransform="scale(1.0058652,0.994169)">
      <stop
         id="stop3750"
         style="stop-color:#000000;stop-opacity:1"
         offset="0" />
      <stop
         id="stop3752"
         style="stop-color:#000000;stop-opacity:0.58823532"
         offset="1" />
    </linearGradient>
    <linearGradient
       id="linearGradient3737">
      <stop
         id="stop3739"
         style="stop-color:#ffffff;stop-opacity:1"
         offset="0" />
      <stop
         id="stop3741"
         style="stop-color:#ffffff;stop-opacity:0"
         offset="1" />
    </linearGradient>
    <filter
       color-interpolation-filters="sRGB"
       id="filter3174">
      <feGaussianBlur
         id="feGaussianBlur3176"
         stdDeviation="1.71" />
    </filter>
    <linearGradient
       x1="36.357143"
       y1="6"
       x2="36.357143"
       y2="63.893143"
       id="linearGradient3188"
       xlink:href="#linearGradient3737"
       gradientUnits="userSpaceOnUse" />
    <filter
       x="-0.192"
       y="-0.192"
       width="1.3839999"
       height="1.3839999"
       color-interpolation-filters="sRGB"
       id="filter3794">
      <feGaussianBlur
         id="feGaussianBlur3796"
         stdDeviation="5.28" />
    </filter>
    <linearGradient
       x1="48"
       y1="20.220806"
       x2="48"
       y2="138.66119"
       id="linearGradient3613"
       xlink:href="#linearGradient3737"
       gradientUnits="userSpaceOnUse" />
    <radialGradient
       cx="48"
       cy="90.171875"
       r="42"
       fx="48"
       fy="90.171875"
       id="radialGradient3619"
       xlink:href="#linearGradient3737"
       gradientUnits="userSpaceOnUse"
       gradientTransform="matrix(1.1573129,0,0,0.99590774,-7.5510206,0.19713193)" />
    <clipPath
       id="clipPath3613">
      <rect
         width="84"
         height="84"
         rx="6"
         ry="6"
         x="6"
         y="6"
         id="rect3615"
         style="fill:#ffffff;fill-opacity:1;fill-rule:nonzero;stroke:none" />
    </clipPath>
    <linearGradient
       id="linearGradient4081">
      <stop
         id="stop4083"
         style="stop-color:#aaaaaa;stop-opacity:1"
         offset="0" />
      <stop
         id="stop4085-9"
         style="stop-color:#f0f0f0;stop-opacity:1"
         offset="1" />
    </linearGradient>
    <linearGradient
       x1="45.447727"
       y1="92.539597"
       x2="45.447727"
       y2="7.0165396"
       id="ButtonShadow-0"
       gradientUnits="userSpaceOnUse"
       gradientTransform="matrix(1.0058652,0,0,0.994169,100,0)">
      <stop
         id="stop3750-8"
         style="stop-color:#000000;stop-opacity:1"
         offset="0" />
      <stop
         id="stop3752-5"
         style="stop-color:#000000;stop-opacity:0.58823532"
         offset="1" />
    </linearGradient>
    <linearGradient
       x1="32.251034"
       y1="6.1317081"
       x2="32.251034"
       y2="90.238609"
       id="linearGradient3780"
       xlink:href="#ButtonShadow-0"
       gradientUnits="userSpaceOnUse"
       gradientTransform="matrix(1.0238095,0,0,-1.0119048,-1.1428571,98.071429)" />
    <linearGradient
       x1="32.251034"
       y1="6.1317081"
       x2="32.251034"
       y2="90.238609"
       id="linearGradient3772"
       xlink:href="#ButtonShadow-0"
       gradientUnits="userSpaceOnUse"
       gradientTransform="matrix(1.0238095,0,0,-1.0119048,-1.1428571,98.071429)" />
    <linearGradient
       x1="32.251034"
       y1="6.1317081"
       x2="32.251034"
       y2="90.238609"
       id="linearGradient3725"
       xlink:href="#ButtonShadow-0"
       gradientUnits="userSpaceOnUse"
       gradientTransform="matrix(1.0238095,0,0,-1.0119048,-1.1428571,98.071429)" />
    <linearGradient
       x1="32.251034"
       y1="6.1317081"
       x2="32.251034"
       y2="90.238609"
       id="linearGradient3721"
       xlink:href="#ButtonShadow-0"
       gradientUnits="userSpaceOnUse"
       gradientTransform="matrix(1,0,0,-1,0,97)" />
    <linearGradient
       x1="32.251034"
       y1="6.1317081"
       x2="32.251034"
       y2="90.238609"
       id="linearGradient3016"
       xlink:href="#ButtonShadow-0"
       gradientUnits="userSpaceOnUse"
       gradientTransform="matrix(1.0238095,0,0,-1.0119048,-1.1428571,98.071429)" />
    <linearGradient
       x1="16"
       y1="48"
       x2="80"
       y2="48"
       id="linearGradient3773"
       xlink:href="#linearGradient4081"
       gradientUnits="userSpaceOnUse"
       gradientTransform="matrix(0.875,0,0,0.875,-90,-84)" />
    <linearGradient
       x1="31.725"
       y1="79.814171"
       x2="31.725"
       y2="10.985223"
       id="linearGradient3832"
       xlink:href="#linearGradient4081"
       gradientUnits="userSpaceOnUse"
       gradientTransform="matrix(0.9009009,0,0,0.9009009,3.4189189,6.0953392)" />
  </defs>
  <metadata
     id="metadata2413">
    <rdf:RDF>
      <cc:Work
         rdf:about="">
        <dc:format>image/svg+xml</dc:format>
        <dc:type
           rdf:resource="http://purl.org/dc/dcmitype/StillImage" />
        <dc:title />
      </cc:Work>
    </rdf:RDF>
  </metadata>
  <g
     id="layer2"
     style="display:none">
    <rect
       width="86"
       height="85"
       rx="6"
       ry="6"
       x="5"
       y="7"
       id="rect3745"
       style="opacity:0.9;fill:url(#ButtonShadow);fill-opacity:1;fill-rule:nonzero;stroke:none;filter:url(#filter3174)" />
  </g>
  <g
     id="layer5"
     style="display:none">
    <rect
       width="66"
       height="66"
       rx="12"
       ry="12"
       x="15"
       y="15"
       clip-path="url(#clipPath3613)"
       id="rect3171"
       style="opacity:0.1;fill:url(#linearGradient3613);fill-opacity:1;fill-rule:nonzero;stroke:#ffffff;stroke-width:0.5;stroke-linecap:round;stroke-linejoin:miter;stroke-miterlimit:4;stroke-opacity:1;stroke-dasharray:none;stroke-dashoffset:0;filter:url(#filter3794)" />
  </g>
  <g
     id="layer4">
    <path
       d="m 72.75,15.96875 c -1.012029,0 -1.998275,0.421391 -2.84375,1.09375 -0.06006,0.04776 -0.129385,0.07382 -0.1875,0.125 -0.127578,0.0728 -0.225117,0.141872 -0.25,0.15625 -0.0023,0.0013 -0.03121,-3.9e-5 -0.03125,0 L 58.125,28.6875 l -4.375,0 c -1.205044,-0.0098 -2.401437,0.465346 -3.3125,1.375 l -8.09375,8.0625 a 1.0236899,1.0236899 0 0 0 0,0.03125 1.0236899,1.0236899 0 0 0 -0.21875,0.3125 1.0236899,1.0236899 0 0 0 -0.03125,0.09375 c -1.379208,1.697031 -1.391854,4.073821 -0.03125,5.78125 0.110755,0.138987 0.152341,0.309417 0.28125,0.4375 0.0013,0.0023 -4e-5,0.03121 0,0.03125 l 9.90625,9.875 c 0.837726,0.837034 1.937025,1.301618 3.09375,1.34375 0.02083,7.59e-4 0.04164,-4.74e-4 0.0625,0 5.8e-5,7e-6 0.08447,0.03077 0.09375,0.03125 0.0209,1.8e-5 0.04158,2.69e-4 0.0625,0 a 1.0236899,1.0236899 0 0 0 0.09375,0 c 0.04322,-7.98e-4 0.0818,-0.02924 0.125,-0.03125 A 1.0236899,1.0236899 0 0 0 55.875,56 c 1.082757,-0.0735 2.142807,-0.487828 2.96875,-1.3125 l 8.125,-8.125 c 0.872497,-0.87385 1.384887,-2.043412 1.375,-3.28125 l 0,-4.40625 11.3125,-11.28125 a 1.0236899,1.0236899 0 0 0 0,-0.03125 1.0236899,1.0236899 0 0 0 0.21875,-0.3125 1.0236899,1.0236899 0 0 0 0.03125,-0.09375 c 1.491477,-1.835171 1.462537,-4.517192 -0.25,-6.21875 l -3.5625,-3.59375 -0.03125,0 c -0.09603,-0.0965 -0.210863,-0.133145 -0.3125,-0.21875 -0.04688,-0.02688 -0.124712,-0.06243 -0.125,-0.0625 -0.874965,-0.690821 -1.890029,-1.09375 -2.875,-1.09375 z"
       id="path3764"
       style="opacity:0.05;fill:#000000;fill-opacity:1;stroke:none" />
    <path
       d="m 72.75,17 c -0.913619,0 -1.857634,0.353853 -2.5625,1.0625 -0.0063,0.0063 -0.02498,-0.0064 -0.03125,0 l -11.625,11.65625 -4.78125,0 c -0.941291,-0.0076 -1.878786,0.348642 -2.59375,1.0625 l -8.09375,8.0625 0,0.03125 c -1.432848,1.423662 -1.432848,3.763838 0,5.1875 0.0064,0.0064 -0.0065,0.02491 0,0.03125 l 9.90625,9.875 c 0.70104,0.700461 1.630388,1.074891 2.59375,1.0625 -0.01189,9.8e-5 0.02369,7.16e-4 0.0625,0 0.908047,-0.01677 1.805261,-0.36883 2.5,-1.0625 l 8.125,-8.125 c 0.686249,-0.687313 1.070165,-1.602824 1.0625,-2.5625 l 0,-4.8125 11.625,-11.59375 0,-0.03125 c 1.432848,-1.423662 1.432848,-3.763838 0,-5.1875 L 75.375,18.0625 c -0.0064,-0.0066 -0.02476,0.0065 -0.03125,0 C 74.612049,17.32723 73.6441,17 72.75,17 z"
       id="path3760"
       style="opacity:0.1;fill:#000000;fill-opacity:1;stroke:none" />
    <path
       d="m 72.75,17.90625 c -0.710373,0 -1.417375,0.250005 -1.9375,0.78125 L 58.875,30.625 l -5.125,0 c -0.728573,-0.0059 -1.433067,0.246396 -1.96875,0.78125 L 43.6875,39.5 c -1.111079,1.087823 -1.111079,2.849677 0,3.9375 l 9.90625,9.90625 c 0.518965,0.518537 1.236014,0.790675 1.96875,0.78125 0.0099,-8.2e-5 0.02138,1.82e-4 0.03125,0 0.701873,-0.01296 1.390889,-0.266682 1.90625,-0.78125 l 8.125,-8.125 c 0.511925,-0.512719 0.787065,-1.209418 0.78125,-1.9375 l 0,-5.15625 11.90625,-11.90625 c 1.111079,-1.087823 1.111079,-2.849677 0,-3.9375 L 74.71875,18.6875 C 74.175733,18.132873 73.460373,17.90625 72.75,17.90625 z"
       inkscape:connector-curvature="0"
       id="path3859"
       style="opacity:0.15;fill:#000000;fill-opacity:1;stroke:none" />
    <path
       d="m 72.75,18.90625 c -0.458475,0 -0.896962,0.171332 -1.21875,0.5 L 59.3125,31.625 l -5.5625,0 c -0.45801,-0.0037 -0.925877,0.176379 -1.25,0.5 l -8.09375,8.09375 c -0.657336,0.643577 -0.657336,1.856423 0,2.5 L 54.3125,52.625 c 0.330688,0.330415 0.782663,0.511205 1.25,0.5 0.448625,-0.0037 0.901269,-0.183008 1.21875,-0.5 l 8.125,-8.125 c 0.323621,-0.324123 0.503658,-0.76074 0.5,-1.21875 l 0,-5.59375 L 77.59375,25.5 c 0.657336,-0.643577 0.657336,-1.856423 0,-2.5 L 74,19.40625 c -0.321788,-0.328668 -0.791525,-0.5 -1.25,-0.5 z"
       inkscape:connector-curvature="0"
       id="path3853"
       style="opacity:0.3;fill:#000000;fill-opacity:1;stroke:none" />
    <path
       d="m -74,16.9375 c -3.316401,0 -6.0625,2.746099 -6.0625,6.0625 l 0,50 c 0,3.316401 2.746099,6.0625 6.0625,6.0625 l 50,0 c 3.316401,0 6.0625,-2.746099 6.0625,-6.0625 l 0,-50 c 0,-3.316401 -2.746099,-6.0625 -6.0625,-6.0625 l -50,0 z"
       transform="matrix(0,-1,1,0,-90,0)"
       id="path3789"
       style="opacity:0.07999998;color:#000000;fill:#000000;fill-opacity:1;fill-rule:nonzero;stroke:none;stroke-width:1;marker:none;visibility:visible;display:inline;overflow:visible;enable-background:accumulate" />
    <path
       d="m -74,17.9375 c -2.773313,0 -5.0625,2.289187 -5.0625,5.0625 l 0,50 c 0,2.773313 2.289187,5.0625 5.0625,5.0625 l 50,0 c 2.773313,0 5.0625,-2.289187 5.0625,-5.0625 l 0,-50 c 0,-2.773313 -2.289187,-5.0625 -5.0625,-5.0625 l -50,0 z"
       transform="matrix(0,-1,1,0,-90,0)"
       id="path3785"
       style="opacity:0.1;color:#000000;fill:#000000;fill-opacity:1;fill-rule:nonzero;stroke:none;stroke-width:1;marker:none;visibility:visible;display:inline;overflow:visible;enable-background:accumulate" />
    <path
       d="m -74,19 c -2.191679,0 -4,1.808321 -4,4 l 0,50 c 0,2.191679 1.808321,4 4,4 l 50,0 c 2.191679,0 4,-1.808321 4,-4 l 0,-50 c 0,-2.191679 -1.808321,-4 -4,-4 l -50,0 z"
       transform="matrix(0,-1,1,0,-90,0)"
       id="path3781"
       style="opacity:0.15;color:#000000;fill:#000000;fill-opacity:1;fill-rule:nonzero;stroke:none;stroke-width:1;marker:none;visibility:visible;display:inline;overflow:visible;enable-background:accumulate" />
    <rect
       width="56"
       height="56"
       rx="3"
       ry="3"
       x="-77"
       y="-70"
       transform="matrix(0,-1,1,0,0,0)"
       id="rect3775"
       style="opacity:0.3;color:#000000;fill:#000000;fill-opacity:1;fill-rule:nonzero;stroke:none;stroke-width:1;marker:none;visibility:visible;display:inline;overflow:visible;enable-background:accumulate" />
    <rect
       width="56"
       height="56"
       rx="3"
       ry="3"
       x="-76"
       y="-70"
       transform="matrix(0,-1,1,0,0,0)"
       id="rect3764"
       style="color:#000000;fill:url(#linearGradient3773);fill-opacity:1;fill-rule:nonzero;stroke:none;stroke-width:1;marker:none;visibility:visible;display:inline;overflow:visible;enable-background:accumulate" />
    <path
       d="m -49.794671,45.02716 c -0.970839,0.137402 -1.8902,0.61226 -2.562356,1.323458 l -6.073728,6.050096 c -0.81477,0.784822 -1.302958,1.896342 -1.328631,3.025049 l 0,6.050097 c -3.43e-4,0.0315 -3.43e-4,0.06303 0,0.09453 l -11.360928,11.204887 c -1.189652,1.185024 -1.189652,3.163485 0,4.348509 1.189655,1.185021 3.175842,1.185021 4.365494,0 l 11.360927,-11.299424 6.073731,0 c 1.133116,-0.0255 2.24898,-0.51186 3.036866,-1.323457 l 6.073731,-6.050097 c 1.559152,-1.601306 1.559152,-4.448791 0,-6.050097 l -6.073731,-6.050093 c -0.895174,-0.930345 -2.222147,-1.43049 -3.511375,-1.323458 z"
       inkscape:connector-curvature="0"
       id="rect2911"
       style="opacity:0.3;fill:#ffffff;fill-opacity:1;stroke:none;display:inline" />
    <path
       d="m -34.230434,50.997945 c 0.970836,-0.137402 1.890199,-0.61226 2.562353,-1.323457 l 6.073731,-6.050097 c 0.814769,-0.784822 1.302958,-1.896342 1.328628,-3.025049 l 0,-6.050096 c 3.45e-4,-0.0315 3.45e-4,-0.06303 0,-0.09453 l 11.36093,-11.204888 c 1.189652,-1.185024 1.189652,-3.163485 0,-4.348509 -1.189655,-1.185023 -3.175841,-1.185023 -4.365493,0 l -11.360931,11.299424 -6.073728,0 c -1.133119,0.0255 -2.248979,0.51186 -3.036865,1.323457 l -6.073731,6.050097 c -1.559153,1.601306 -1.559153,4.448791 0,6.050097 l 6.073731,6.050094 c 0.895174,0.930344 2.222147,1.430486 3.511375,1.323457 z"
       inkscape:connector-curvature="0"
       id="path3698"
       style="opacity:0.3;fill:#ffffff;fill-opacity:1;stroke:none;display:inline" />
    <path
       d="m 72.75,17.90625 c -0.458475,0 -0.896962,0.171332 -1.21875,0.5 L 59.3125,30.625 l -5.5625,0 c -0.45801,-0.0037 -0.925877,0.176379 -1.25,0.5 l -8.09375,8.09375 c -0.657336,0.643577 -0.657336,1.856423 0,2.5 L 54.3125,51.625 c 0.330688,0.330415 0.782663,0.511205 1.25,0.5 0.448625,-0.0037 0.901269,-0.183008 1.21875,-0.5 l 8.125,-8.125 c 0.323621,-0.324123 0.503658,-0.76074 0.5,-1.21875 l 0,-5.59375 L 77.59375,24.5 c 0.657336,-0.643577 0.657336,-1.856423 0,-2.5 L 74,18.40625 c -0.321788,-0.328668 -0.791525,-0.5 -1.25,-0.5 z"
       inkscape:connector-curvature="0"
       id="path2984"
       style="fill:url(#linearGradient3832);fill-opacity:1;stroke:none" />
    <path
       d="m 40.4375,43.875 c -0.448625,0.0037 -0.901269,0.214258 -1.21875,0.53125 L 31.09375,52.5 c -0.323621,0.324123 -0.503658,0.79199 -0.5,1.25 l 0,5.5625 -12.1875,12.21875 c -0.657336,0.643577 -0.657336,1.825173 0,2.46875 L 22,77.59375 c 0.643577,0.657336 1.825173,0.657336 2.46875,0 l 12.21875,-12.1875 5.5625,0 c 0.45801,0.0037 0.925877,-0.176379 1.25,-0.5 l 8.09375,-8.125 c 0.657336,-0.643577 0.657336,-1.825173 0,-2.46875 L 41.6875,44.40625 c -0.330688,-0.330415 -0.782663,-0.542455 -1.25,-0.53125 z"
       inkscape:connector-curvature="0"
       id="path3804"
       style="opacity:0.2;fill:#ffffff;fill-opacity:1;stroke:none" />
    <path
       d="m 72.75,17.90625 c -0.458475,0 -0.896962,0.171332 -1.21875,0.5 L 59.3125,30.625 l -5.5625,0 c -0.45801,-0.0037 -0.925877,0.176379 -1.25,0.5 l -8.09375,8.09375 c -0.447494,0.438127 -0.599286,1.14343 -0.4375,1.75 0.07587,-0.284437 0.227658,-0.54455 0.4375,-0.75 L 52.5,32.125 c 0.324123,-0.323621 0.79199,-0.5037 1.25,-0.5 l 5.5625,0 12.21875,-12.21875 c 0.321788,-0.328668 0.760275,-0.5 1.21875,-0.5 0.458475,0 0.928212,0.171332 1.25,0.5 L 77.59375,23 c 0.209842,0.20545 0.361634,0.465563 0.4375,0.75 0.161786,-0.60657 0.01,-1.311873 -0.4375,-1.75 L 74,18.40625 c -0.321788,-0.328668 -0.791525,-0.5 -1.25,-0.5 z"
       inkscape:connector-curvature="0"
       id="path3835"
       style="opacity:0.75;fill:#ffffff;fill-opacity:1;stroke:none" />
    <path
       d="m 78.03125,22.75 c -0.07587,0.284437 -0.227658,0.54455 -0.4375,0.75 l -12.1875,12.1875 0,1 L 77.59375,24.5 c 0.447494,-0.438127 0.599286,-1.14343 0.4375,-1.75 z m -34.0625,17.21875 c -0.161786,0.60657 -0.01,1.311873 0.4375,1.75 L 54.3125,51.625 c 0.330688,0.330415 0.782663,0.511205 1.25,0.5 0.448625,-0.0037 0.901269,-0.183008 1.21875,-0.5 l 8.125,-8.125 c 0.323621,-0.324123 0.503658,-0.76074 0.5,-1.21875 l 0,-1 c 0.0037,0.45801 -0.176379,0.894627 -0.5,1.21875 l -8.125,8.125 c -0.317481,0.316992 -0.770125,0.4963 -1.21875,0.5 -0.467337,0.0112 -0.919312,-0.169585 -1.25,-0.5 l -9.90625,-9.90625 c -0.209842,-0.20545 -0.361634,-0.465563 -0.4375,-0.75 z"
       inkscape:connector-curvature="0"
       id="path3844"
       style="opacity:0.13999999;fill:#000000;fill-opacity:1;stroke:none" />
  </g>
</svg>
