<?xml version="1.0" encoding="UTF-8" standalone="no"?>
<!-- Created with Inkscape (http://www.inkscape.org/) -->

<svg
   xmlns:dc="http://purl.org/dc/elements/1.1/"
   xmlns:cc="http://creativecommons.org/ns#"
   xmlns:rdf="http://www.w3.org/1999/02/22-rdf-syntax-ns#"
   xmlns:svg="http://www.w3.org/2000/svg"
   xmlns="http://www.w3.org/2000/svg"
   xmlns:xlink="http://www.w3.org/1999/xlink"
   xmlns:sodipodi="http://sodipodi.sourceforge.net/DTD/sodipodi-0.dtd"
   xmlns:inkscape="http://www.inkscape.org/namespaces/inkscape"
   version="1.0"
   width="48"
   height="48"
   id="svg9481"
   sodipodi:version="0.32"
   inkscape:version="0.92.2 2405546, 2018-03-11"
   sodipodi:docname="desktop.svg"
   inkscape:output_extension="org.inkscape.output.svg.inkscape">
  <metadata
     id="metadata55">
    <rdf:RDF>
      <cc:Work
         rdf:about="">
        <dc:format>image/svg+xml</dc:format>
        <dc:type
           rdf:resource="http://purl.org/dc/dcmitype/StillImage" />
      </cc:Work>
    </rdf:RDF>
  </metadata>
  <sodipodi:namedview
     inkscape:window-height="820"
     inkscape:window-width="1680"
     inkscape:pageshadow="2"
     inkscape:pageopacity="0.0"
     guidetolerance="10.0"
     gridtolerance="10.0"
     objecttolerance="10.0"
     borderopacity="1.0"
     bordercolor="#666666"
     pagecolor="#ffffff"
     id="base"
     showgrid="false"
     inkscape:zoom="5.96875"
     inkscape:cx="-17.388232"
     inkscape:cy="26.165082"
     inkscape:window-x="0"
     inkscape:window-y="32"
     inkscape:current-layer="svg9481"
     inkscape:window-maximized="0" />
  <defs
     id="defs9483">
    <linearGradient
       id="linearGradient871">
      <stop
         offset="0"
         style="stop-color:#434a4a;stop-opacity:1"
         id="stop867" />
      <stop
         offset="1"
         style="stop-color:#353b3d;stop-opacity:1"
         id="stop869" />
    </linearGradient>
    <inkscape:perspective
       sodipodi:type="inkscape:persp3d"
       inkscape:vp_x="0 : 24 : 1"
       inkscape:vp_y="0 : 1000 : 0"
       inkscape:vp_z="48 : 24 : 1"
       inkscape:persp3d-origin="24 : 16 : 1"
       id="perspective56" />
    <linearGradient
       id="linearGradient5048-7">
      <stop
         id="stop5050-5"
         style="stop-color:#000000;stop-opacity:0"
         offset="0" />
      <stop
         id="stop5056-9"
         style="stop-color:#000000;stop-opacity:1"
         offset="0.5" />
      <stop
         id="stop5052-6"
         style="stop-color:#000000;stop-opacity:0"
         offset="1" />
    </linearGradient>
    <linearGradient
       id="linearGradient5060-6">
      <stop
         id="stop5062-3"
         style="stop-color:#000000;stop-opacity:1"
         offset="0" />
      <stop
         id="stop5064-1"
         style="stop-color:#000000;stop-opacity:0"
         offset="1" />
    </linearGradient>
    <linearGradient
       id="linearGradient3332-412-419-652-471-761-410-156-661-505">
      <stop
         id="stop8032"
         style="stop-color:#434343;stop-opacity:1;"
         offset="0" />
      <stop
         id="stop8034"
         style="stop-color:#8a8a8a;stop-opacity:1;"
         offset="1" />
    </linearGradient>
    <linearGradient
       id="linearGradient2867-449-88-871-390-598-476-591-434-148-895-534-212-357-729">
      <stop
         id="stop8022"
         style="stop-color:#aacb7d;stop-opacity:1;"
         offset="0" />
      <stop
         id="stop8028"
         style="stop-color:#709937;stop-opacity:1;"
         offset="1" />
    </linearGradient>
    <linearGradient
       id="linearGradient8265-821-176-38-919-66-249">
      <stop
         id="stop2687"
         style="stop-color:#ffffff;stop-opacity:1"
         offset="0" />
      <stop
         id="stop2689"
         style="stop-color:#ffffff;stop-opacity:0"
         offset="1" />
    </linearGradient>
    <linearGradient
       id="linearGradient3282">
      <stop
         id="stop3284"
         style="stop-color:#000000;stop-opacity:1"
         offset="0" />
      <stop
         id="stop3286"
         style="stop-color:#000000;stop-opacity:0"
         offset="1" />
    </linearGradient>
    <linearGradient
       id="linearGradient3958">
      <stop
         id="stop3960"
         style="stop-color:#a1a1a1;stop-opacity:1"
         offset="0" />
      <stop
         id="stop3962"
         style="stop-color:#4d4d4d;stop-opacity:1"
         offset="1" />
    </linearGradient>
    <linearGradient
       id="linearGradient2446-733-45">
      <stop
         id="stop3793"
         style="stop-color:#fafafa;stop-opacity:1"
         offset="0" />
      <stop
         id="stop3795"
         style="stop-color:#c5c5c5;stop-opacity:1"
         offset="1" />
    </linearGradient>
    <linearGradient
       id="linearGradient2238">
      <stop
         id="stop2240"
         style="stop-color:#ffffff;stop-opacity:1"
         offset="0" />
      <stop
         id="stop2242"
         style="stop-color:#ffffff;stop-opacity:0"
         offset="1" />
    </linearGradient>
    <linearGradient
       inkscape:collect="always"
       xlink:href="#linearGradient2238"
       id="linearGradient2434"
       gradientUnits="userSpaceOnUse"
       gradientTransform="matrix(0.9546411,0,0,0.8965269,1.087456,5.385244)"
       x1="12.578789"
       y1="2.9137428"
       x2="12.578789"
       y2="43.810863" />
    <linearGradient
       inkscape:collect="always"
       xlink:href="#linearGradient871"
       id="linearGradient2437"
       gradientUnits="userSpaceOnUse"
       gradientTransform="matrix(0.8148434,0,0,0.6596233,-2.2594711,3.2339741)"
       x1="33.579403"
       y1="5.7086449"
       x2="33.579403"
       y2="16.323294" />
    <linearGradient
       inkscape:collect="always"
       xlink:href="#linearGradient3958"
       id="linearGradient2439"
       gradientUnits="userSpaceOnUse"
       x1="16.91585"
       y1="7.0006418"
       x2="16.91585"
       y2="14" />
    <linearGradient
       inkscape:collect="always"
       xlink:href="#linearGradient3282"
       id="linearGradient2442"
       gradientUnits="userSpaceOnUse"
       gradientTransform="matrix(0.9563112,0,0,0.4680085,1.0550418,9.674819)"
       x1="24.682861"
       y1="9.2416716"
       x2="24.682861"
       y2="13.523027" />
    <linearGradient
       inkscape:collect="always"
       xlink:href="#linearGradient8265-821-176-38-919-66-249"
       id="linearGradient2445"
       gradientUnits="userSpaceOnUse"
       gradientTransform="matrix(0.9578231,0,0,1.0182827,1.0122454,1.922127)"
       x1="16.626165"
       y1="15.298182"
       x2="20.054544"
       y2="24.627615" />
    <radialGradient
       inkscape:collect="always"
       xlink:href="#linearGradient4209"
       id="radialGradient2448"
       gradientUnits="userSpaceOnUse"
       gradientTransform="matrix(-1.8187668e-8,-1.0656573,1.3967139,0,35.965186,58.558833)"
       cx="26.616697"
       cy="-2.0644982"
       fx="26.616697"
       fy="-2.0644982"
       r="23" />
    <linearGradient
       inkscape:collect="always"
       xlink:href="#linearGradient3332-412-419-652-471-761-410-156-661-505"
       id="linearGradient2450"
       gradientUnits="userSpaceOnUse"
       gradientTransform="matrix(0.9574517,0,0,0.9034707,1.0211784,4.30563)"
       x1="10.014208"
       y1="44.960102"
       x2="10.014208"
       y2="2.8764627" />
    <radialGradient
       inkscape:collect="always"
       xlink:href="#linearGradient5060-6"
       id="radialGradient2453"
       gradientUnits="userSpaceOnUse"
       gradientTransform="matrix(-6.5587303e-2,0,0,1.6470586e-2,47.692226,36.961094)"
       cx="605.71429"
       cy="486.64789"
       fx="605.71429"
       fy="486.64789"
       r="117.14286" />
    <radialGradient
       inkscape:collect="always"
       xlink:href="#linearGradient5060-6"
       id="radialGradient2456"
       gradientUnits="userSpaceOnUse"
       gradientTransform="matrix(6.5587303e-2,0,0,1.6470586e-2,0.3077845,36.961094)"
       cx="605.71429"
       cy="486.64789"
       fx="605.71429"
       fy="486.64789"
       r="117.14286" />
    <linearGradient
       inkscape:collect="always"
       xlink:href="#linearGradient5048-7"
       id="linearGradient2459"
       gradientUnits="userSpaceOnUse"
       gradientTransform="matrix(6.5587303e-2,0,0,1.6470586e-2,0.2948769,36.961094)"
       x1="302.85715"
       y1="366.64789"
       x2="302.85715"
       y2="609.50507" />
    <radialGradient
       cx="26.616697"
       cy="-2.0644982"
       r="23"
       fx="26.616697"
       fy="-2.0644982"
       id="radialGradient3322-5"
       xlink:href="#linearGradient4209"
       gradientUnits="userSpaceOnUse"
       gradientTransform="matrix(-3.438708e-8,-2.0049302,2.6407404,0,115.43332,63.719262)" />
    <linearGradient
       id="linearGradient4209">
      <stop
         offset="0"
         style="stop-color:#dcb2ff;stop-opacity:1"
         id="stop4211" />
      <stop
         offset="1"
         style="stop-color:#734f9d;stop-opacity:1"
         id="stop4213" />
    </linearGradient>
    <linearGradient
       x1="33.579403"
       y1="5.7086449"
       x2="33.579403"
       y2="16.323294"
       id="linearGradient3311-7"
       xlink:href="#linearGradient3958-6"
       gradientUnits="userSpaceOnUse"
       gradientTransform="matrix(1.5405636,0,0,1.2369262,40.625916,-16.804101)" />
    <linearGradient
       id="linearGradient3958-6">
      <stop
         id="stop3960-7"
         style="stop-color:#262626;stop-opacity:1"
         offset="0" />
      <stop
         id="stop3962-5"
         style="stop-color:#303030;stop-opacity:1"
         offset="1" />
    </linearGradient>
    <linearGradient
       x1="16.91585"
       y1="7.0006418"
       x2="16.91585"
       y2="14"
       id="linearGradient3313-0"
       xlink:href="#linearGradient3958-6"
       gradientUnits="userSpaceOnUse"
       gradientTransform="matrix(1.8906253,0,0,1.8752009,44.897729,-22.868451)" />
    <linearGradient
       x1="32.891998"
       y1="8.059"
       gradientTransform="matrix(0.20718662,0,0,0.21091579,3.7738204,25.989497)"
       x2="36.358002"
       gradientUnits="userSpaceOnUse"
       y2="5.4565001"
       id="linearGradient3225-9">
      <stop
         offset="0"
         style="stop-color:#f0f0f0;stop-opacity:1"
         id="stop8591-2" />
      <stop
         offset="1"
         style="stop-color:#b0b0b0;stop-opacity:1"
         id="stop8593-2" />
    </linearGradient>
    <radialGradient
       cx="48"
       cy="90.171875"
       r="42"
       fx="48"
       fy="90.171875"
       id="radialGradient3619-6-8"
       xlink:href="#linearGradient8265-821-176-38-919-66-249"
       gradientUnits="userSpaceOnUse"
       gradientTransform="matrix(0.08906134,0,0,0.07695529,4.8370664,25.923799)" />
    <linearGradient
       x1="7.3709002"
       y1="51.470146"
       x2="23.76619"
       y2="51.433136"
       id="linearGradient3748-3"
       xlink:href="#linearGradient3742"
       gradientUnits="userSpaceOnUse"
       gradientTransform="matrix(0,-0.09811801,0.07695529,0,5.4181584,33.45171)" />
    <linearGradient
       id="linearGradient3742">
      <stop
         id="stop3744"
         style="stop-color:#676f7d;stop-opacity:1"
         offset="0" />
      <stop
         id="stop3746"
         style="stop-color:#818791;stop-opacity:1"
         offset="1" />
    </linearGradient>
    <linearGradient
       xlink:href="#linearGradient8265-821-176-38-919-66-249"
       id="linearGradient2015-3-2"
       gradientUnits="userSpaceOnUse"
       x1="36.357143"
       y1="6"
       x2="36.357143"
       y2="63.893143"
       gradientTransform="matrix(0.07695533,0,0,0.07727151,5.4181554,25.935128)" />
    <linearGradient
       x1="48"
       y1="90"
       x2="48"
       y2="5.9877172"
       id="linearGradient3617-6-9"
       xlink:href="#ButtonColor-7"
       gradientUnits="userSpaceOnUse"
       gradientTransform="matrix(0.07695529,0,0,0.07695529,5.4181554,25.937026)" />
    <linearGradient
       x1="10.31979"
       y1="21"
       x2="10.31979"
       y2="0.99929649"
       id="ButtonColor-7"
       gradientUnits="userSpaceOnUse">
      <stop
         id="stop3189"
         style="stop-color:#e0e0e0;stop-opacity:1"
         offset="0" />
      <stop
         id="stop3191"
         style="stop-color:#f0f0f0;stop-opacity:1"
         offset="1" />
    </linearGradient>
    <linearGradient
       gradientTransform="matrix(0.88394566,0,0,-0.88394572,10.163169,89.361561)"
       gradientUnits="userSpaceOnUse"
       xlink:href="#ButtonShadow-0"
       id="linearGradient3780-9"
       y2="90.238609"
       x2="32.251034"
       y1="6.1317081"
       x1="32.251034" />
    <linearGradient
       gradientTransform="matrix(1.0058652,0,0,0.994169,100,0)"
       gradientUnits="userSpaceOnUse"
       id="ButtonShadow-0"
       y2="7.0165396"
       x2="45.447727"
       y1="92.539597"
       x1="45.447727">
      <stop
         offset="0"
         style="stop-color:#000000;stop-opacity:1"
         id="stop3750-8" />
      <stop
         offset="1"
         style="stop-color:#000000;stop-opacity:0.58823532"
         id="stop3752-5-4" />
    </linearGradient>
    <linearGradient
       x1="32.891998"
       y1="8.059"
       gradientTransform="matrix(0.20718662,0,0,0.21091579,3.7738204,17.323312)"
       x2="36.358002"
       gradientUnits="userSpaceOnUse"
       y2="5.4565001"
       id="linearGradient3225">
      <stop
         offset="0"
         style="stop-color:#f0f0f0;stop-opacity:1"
         id="stop8591" />
      <stop
         offset="1"
         style="stop-color:#b0b0b0;stop-opacity:1"
         id="stop8593" />
    </linearGradient>
    <radialGradient
       cx="48"
       cy="90.171875"
       r="42"
       fx="48"
       fy="90.171875"
       id="radialGradient3619-6"
       xlink:href="#linearGradient8265-821-176-38-919-66-249"
       gradientUnits="userSpaceOnUse"
       gradientTransform="matrix(0.08906134,0,0,0.07695529,4.8370664,17.257614)" />
    <linearGradient
       x1="7.3709002"
       y1="51.470146"
       x2="23.76619"
       y2="51.433136"
       id="linearGradient3748"
       xlink:href="#linearGradient3742"
       gradientUnits="userSpaceOnUse"
       gradientTransform="matrix(0,-0.09811801,0.07695529,0,5.4181584,24.785524)" />
    <linearGradient
       xlink:href="#linearGradient8265-821-176-38-919-66-249"
       id="linearGradient2015-3"
       gradientUnits="userSpaceOnUse"
       x1="36.357143"
       y1="6"
       x2="36.357143"
       y2="63.893143"
       gradientTransform="matrix(0.07695533,0,0,0.07727151,5.4181554,17.268943)" />
    <linearGradient
       x1="48"
       y1="90"
       x2="48"
       y2="5.9877172"
       id="linearGradient3617-6"
       xlink:href="#ButtonColor-7"
       gradientUnits="userSpaceOnUse"
       gradientTransform="matrix(0.07695529,0,0,0.07695529,5.4181554,17.270841)" />
    <linearGradient
       inkscape:collect="always"
       xlink:href="#ButtonShadow-0"
       id="linearGradient992"
       gradientUnits="userSpaceOnUse"
       gradientTransform="matrix(0.88394566,0,0,-0.88394572,10.163169,89.361561)"
       x1="32.251034"
       y1="6.1317081"
       x2="32.251034"
       y2="90.238609" />
  </defs>
  <rect
     style="opacity:0.3;fill:url(#linearGradient2459);fill-opacity:1;fill-rule:nonzero;stroke:none;stroke-width:1;marker:none;visibility:visible;display:inline;overflow:visible"
     id="rect2512"
     y="43"
     x="8.1653528"
     height="4"
     width="31.669294" />
  <path
     style="opacity:0.3;fill:url(#radialGradient2456);fill-opacity:1;fill-rule:nonzero;stroke:none;stroke-width:1;marker:none;visibility:visible;display:inline;overflow:visible"
     id="path2514"
     d="M 39.834649,43.000138 C 39.834649,43.000138 39.834649,46.999917 39.834649,46.999917 C 43.212232,47.007443 48.000002,46.10377 48,44.99977 C 48,43.89577 44.230872,43.000138 39.834649,43.000138 z" />
  <path
     style="opacity:0.3;fill:url(#radialGradient2453);fill-opacity:1;fill-rule:nonzero;stroke:none;stroke-width:1;marker:none;visibility:visible;display:inline;overflow:visible"
     id="path2516"
     d="M 8.1653532,43.000138 C 8.1653532,43.000138 8.1653532,46.999917 8.1653532,46.999917 C 4.7877688,47.007443 0,46.10377 0,44.99977 C 0,43.89577 3.7691287,43.000138 8.1653532,43.000138 z" />
  <rect
     style="fill:url(#radialGradient2448);fill-opacity:1.0;fill-rule:evenodd;stroke:url(#linearGradient2450);stroke-width:1.00213289;stroke-linecap:round;stroke-linejoin:round;stroke-miterlimit:4;stroke-dasharray:none;stroke-dashoffset:0;stroke-opacity:1"
     id="rect2573"
     y="7.5010657"
     x="1.5010662"
     ry="2.6659844"
     rx="2.6659844"
     height="36.997868"
     width="44.997868" />
  <rect
     style="opacity:0.2;fill:url(#linearGradient2442);fill-opacity:1;fill-rule:evenodd;stroke:none;stroke-width:1.00000012;stroke-linecap:butt;stroke-linejoin:miter;marker:none;marker-start:none;marker-mid:none;marker-end:none;stroke-miterlimit:4;stroke-dasharray:none;stroke-dashoffset:0;stroke-opacity:1;visibility:visible;display:inline;overflow:visible"
     id="rect1436"
     y="14"
     x="2"
     ry="0"
     rx="0"
     height="2"
     width="44" />
  <path
     style="display:inline;overflow:visible;visibility:visible;fill:url(#linearGradient2437);fill-opacity:1;fill-rule:evenodd;stroke:url(#linearGradient2439);stroke-width:1;stroke-linecap:butt;stroke-linejoin:miter;stroke-miterlimit:4;stroke-dasharray:none;stroke-dashoffset:0;stroke-opacity:1;marker:none;marker-start:none;marker-mid:none;marker-end:none"
     id="rect2311"
     d="m 4.5,7.500642 39.336231,0.00859 c 1.564925,0 2.663769,1.2611873 2.663769,2.656781 V 15 H 1.5000001 L 1.5,10.166011 c 0,-1.487521 1.2087852,-2.665369 3,-2.665369 z"
     inkscape:connector-curvature="0"
     sodipodi:nodetypes="ccsccsc" />
  <rect
     style="opacity:0.5;fill:#1a1a1a;fill-opacity:1;fill-rule:nonzero;stroke:#000000;stroke-width:1.00000024;stroke-linecap:butt;stroke-linejoin:miter;marker:none;marker-start:none;marker-mid:none;marker-end:none;stroke-miterlimit:4;stroke-dasharray:none;stroke-dashoffset:0;stroke-opacity:1;visibility:visible;display:inline;overflow:visible;enable-background:accumulate"
     id="rect9439"
     y="37.5"
     x="8.499999"
     ry="0"
     rx="0"
     height="7"
     width="31.000002" />
  <path
     style="opacity:0.2;fill:none;fill-opacity:1;fill-rule:nonzero;stroke:#ffffff;stroke-width:1.00000024;stroke-linecap:butt;stroke-linejoin:miter;marker:none;marker-start:none;marker-mid:none;marker-end:none;stroke-miterlimit:4;stroke-dasharray:none;stroke-dashoffset:0;stroke-opacity:1;visibility:visible;display:inline;overflow:visible;enable-background:accumulate"
     d="M 7.5000003,45.000002 C 7.5000003,42.384617 7.5000003,36.500002 7.5000003,36.500002 C 7.5000003,36.500002 40.500001,36.500002 40.500001,36.500002 C 40.500001,36.500002 40.500001,45.000002 40.500001,45.000002"
     id="rect2461"
     sodipodi:nodetypes="cccc" />
  <g
     transform="matrix(0.09287336,0,0,0.09287336,4.2279304,16.821076)"
     id="layer5"
     style="display:inline">
    <path
       inkscape:connector-curvature="0"
       style="display:inline;opacity:0.62999998;fill:url(#linearGradient992);fill-opacity:1;fill-rule:nonzero;stroke:none;stroke-width:0.86845267"
       d="m 21.510559,84.057885 h 62.16399 c 3.34823,0 6.04372,-2.727212 6.04372,-6.114824 V 38.904982 L 60.619729,9.8064506 h -39.10917 c -3.34822,0 -6.04372,2.7272114 -6.04372,6.1148244 v 62.021786 c 0,3.387612 2.6955,6.114824 6.04372,6.114824 z"
       id="rect3723" />
  </g>
  <path
     inkscape:connector-curvature="0"
     style="opacity:1;fill:url(#linearGradient3617-6);fill-opacity:1;fill-rule:nonzero;stroke:none;stroke-width:0.0769553"
     d="m 6.3416194,17.732571 h 3.50916 l 2.4933516,2.493352 v 3.509161 c 0,0.255799 -0.205931,0.461732 -0.461733,0.461732 H 6.3416194 c -0.255801,0 -0.461732,-0.205933 -0.461732,-0.461732 v -5.540781 c 0,-0.2558 0.205931,-0.461732 0.461732,-0.461732 z"
     id="rect2419-1" />
  <path
     inkscape:connector-curvature="0"
     d="m 6.3416194,17.732571 c -0.255799,0 -0.461732,0.206778 -0.461732,0.463629 v 0.154543 5.069769 c 0.356112,0.751502 0.0922,0.534614 0.07696,0.07727 V 18.453004 18.29846 c 0,-0.214958 0.170699,-0.386359 0.384776,-0.386359 h 0.153912 3.201342 0.153912 l 2.4163936,2.392988 v 0.154544 3.038149 c -0.216606,0.568342 0.07695,0.643725 0.07695,-0.07727 V 20.382363 20.227819 L 9.8507844,17.732571 Z"
     id="rect3728-7"
     style="opacity:1;fill:url(#linearGradient2015-3);fill-opacity:1;fill-rule:nonzero;stroke:none;stroke-width:0.07711327" />
  <path
     inkscape:connector-curvature="0"
     d="m 8.9495074,17.732702 c 0.570961,0 0.223658,2.566435 0.223658,2.566435 0,0 3.1715806,-0.335927 3.1715806,0.715475 0,-0.256114 -6.19e-4,-0.788689 -6.19e-4,-0.788689 L 9.8507664,17.732571 Z"
     style="opacity:0.2;fill:#000000;fill-opacity:1;fill-rule:evenodd;stroke-width:0.17161012"
     id="path4474-3-5" />
  <path
     inkscape:connector-curvature="0"
     d="m 5.8798894,23.608107 c 0,0.326145 0.205932,0.588709 0.461732,0.588709 h 5.5407796 c 0.255799,0 0.461731,-0.262564 0.461731,-0.588709 V 22.47282 H 5.8798894 Z"
     id="rect3736"
     style="color:#000000;display:inline;overflow:visible;visibility:visible;opacity:1;fill:url(#linearGradient3748);fill-opacity:1;fill-rule:nonzero;stroke:none;stroke-width:0.13034214;marker:none;enable-background:accumulate" />
  <path
     inkscape:connector-curvature="0"
     d="m 6.3416214,24.196816 c -0.2558,0 -0.461732,-0.206778 -0.461732,-0.463629 v -0.179529 c 0.0032,-0.939554 0.07695,-0.959588 0.07695,-0.07727 v 0.154543 c 0,0.214957 0.170698,0.386357 0.384777,0.386357 h 0.153911 5.2329546 0.153911 c 0.214079,0 0.384777,-0.1714 0.384777,-0.386357 v -0.154543 c 0.0076,-1.047469 0.07695,-0.689036 0.07695,0.07727 v 0.179528 c -1e-6,0.256856 -0.205934,0.463633 -0.461733,0.463633 z"
     id="path3615-2"
     style="opacity:0.2;fill:url(#radialGradient3619-6);fill-opacity:1;fill-rule:nonzero;stroke:none;stroke-width:0.07711324" />
  <path
     inkscape:connector-curvature="0"
     d="m 9.1617504,17.732571 c 0.5398,0 0.209292,2.377436 0.209292,2.377436 0,0 1.0524736,-0.12528 1.9050526,-0.01741 0.58041,0.07343 1.068177,0.254911 1.068177,0.657524 0,-0.242137 -1.4e-4,-0.524194 -1.4e-4,-0.524194 L 9.8507814,17.732575 Z"
     style="opacity:0.2;fill:#000000;fill-opacity:1;fill-rule:evenodd;stroke-width:0.16224448"
     id="path4474-3" />
  <path
     inkscape:connector-curvature="0"
     d="m 9.4164644,17.734133 c 0.508601,0 0.183195,2.196159 0.183195,2.196159 0,0 2.7452086,-0.337265 2.7452086,0.599304 0,-0.228141 -7.31e-4,-0.303673 -7.31e-4,-0.303673 L 9.8507824,17.732571 Z"
     style="fill:url(#linearGradient3225);fill-rule:evenodd;stroke-width:0.15286706"
     id="path4474" />
  <g
     transform="matrix(0.09287336,0,0,0.09287336,4.2279304,25.487262)"
     id="layer5-8"
     style="display:inline">
    <path
       inkscape:connector-curvature="0"
       style="display:inline;opacity:0.62999998;fill:url(#linearGradient3780-9);fill-opacity:1;fill-rule:nonzero;stroke:none;stroke-width:0.86845267"
       d="m 21.510559,84.057885 h 62.16399 c 3.34823,0 6.04372,-2.727212 6.04372,-6.114824 V 38.904982 L 60.619729,9.8064506 h -39.10917 c -3.34822,0 -6.04372,2.7272114 -6.04372,6.1148244 v 62.021786 c 0,3.387612 2.6955,6.114824 6.04372,6.114824 z"
       id="rect3723-4" />
  </g>
  <path
     inkscape:connector-curvature="0"
     style="opacity:1;fill:url(#linearGradient3617-6-9);fill-opacity:1;fill-rule:nonzero;stroke:none;stroke-width:0.0769553"
     d="m 6.3416194,26.398757 h 3.50916 l 2.4933516,2.493352 v 3.509161 c 0,0.255799 -0.205931,0.461731 -0.461733,0.461731 H 6.3416194 c -0.255801,0 -0.461732,-0.205932 -0.461732,-0.461731 v -5.540782 c 0,-0.255799 0.205931,-0.461731 0.461732,-0.461731 z"
     id="rect2419-1-5" />
  <path
     inkscape:connector-curvature="0"
     d="m 6.3416194,26.398757 c -0.255799,0 -0.461732,0.206777 -0.461732,0.463629 v 0.154543 5.06977 c 0.356112,0.751501 0.0922,0.534613 0.07696,0.07727 V 27.11919 26.964646 c 0,-0.214957 0.170699,-0.386358 0.384776,-0.386358 h 0.153912 3.201342 0.153912 l 2.4163946,2.392987 v 0.154545 3.038149 c -0.216607,0.568342 0.07695,0.643725 0.07695,-0.07727 v -3.03815 -0.154543 L 9.8507844,26.398757 Z"
     id="rect3728-7-0"
     style="opacity:1;fill:url(#linearGradient2015-3-2);fill-opacity:1;fill-rule:nonzero;stroke:none;stroke-width:0.07711327" />
  <path
     inkscape:connector-curvature="0"
     d="m 8.9495074,26.398888 c 0.570961,0 0.223658,2.566435 0.223658,2.566435 0,0 3.1715806,-0.335927 3.1715806,0.715474 0,-0.256113 -6.19e-4,-0.788688 -6.19e-4,-0.788688 L 9.8507664,26.398757 Z"
     style="opacity:0.2;fill:#000000;fill-opacity:1;fill-rule:evenodd;stroke-width:0.17161012"
     id="path4474-3-5-3" />
  <path
     inkscape:connector-curvature="0"
     d="m 5.8798894,32.274294 c 0,0.326144 0.205932,0.588708 0.461732,0.588708 h 5.5407796 c 0.255799,0 0.461731,-0.262564 0.461731,-0.588708 V 31.139006 H 5.8798894 Z"
     id="rect3736-6"
     style="color:#000000;display:inline;overflow:visible;visibility:visible;opacity:1;fill:url(#linearGradient3748-3);fill-opacity:1;fill-rule:nonzero;stroke:none;stroke-width:0.13034214;marker:none;enable-background:accumulate" />
  <path
     inkscape:connector-curvature="0"
     d="m 6.3416214,32.863002 c -0.2558,0 -0.461732,-0.206778 -0.461732,-0.46363 v -0.179528 c 0.0032,-0.939554 0.07695,-0.959589 0.07695,-0.07728 v 0.154543 c 0,0.214958 0.170698,0.386358 0.384777,0.386358 h 0.153911 5.2329546 0.153911 c 0.214079,0 0.384777,-0.1714 0.384777,-0.386358 v -0.154543 c 0.0076,-1.047469 0.07695,-0.689037 0.07695,0.07727 v 0.179528 c -1e-6,0.256855 -0.205934,0.463634 -0.461733,0.463634 z"
     id="path3615-2-1"
     style="opacity:0.2;fill:url(#radialGradient3619-6-8);fill-opacity:1;fill-rule:nonzero;stroke:none;stroke-width:0.07711324" />
  <path
     inkscape:connector-curvature="0"
     d="m 9.1617504,26.398757 c 0.5398,0 0.209292,2.377436 0.209292,2.377436 0,0 1.0524736,-0.125281 1.9050526,-0.01741 0.58041,0.07343 1.068177,0.254911 1.068177,0.657525 0,-0.242137 -1.4e-4,-0.524194 -1.4e-4,-0.524194 L 9.8507814,26.398762 Z"
     style="opacity:0.2;fill:#000000;fill-opacity:1;fill-rule:evenodd;stroke-width:0.16224448"
     id="path4474-3-0" />
  <path
     inkscape:connector-curvature="0"
     d="m 9.4164644,26.400318 c 0.508601,0 0.183195,2.19616 0.183195,2.19616 0,0 2.7452086,-0.337265 2.7452086,0.599303 0,-0.22814 -7.31e-4,-0.303672 -7.31e-4,-0.303672 L 9.8507824,26.398757 Z"
     style="fill:url(#linearGradient3225-9);fill-rule:evenodd;stroke-width:0.15286706"
     id="path4474-6" />
  <path
     inkscape:connector-curvature="0"
     d="m 6.6251054,11.305439 a 1.3125529,1.3125529 0 1 1 -2.625105,0 1.3125529,1.3125529 0 1 1 2.625105,0 z"
     id="path4371"
     style="color:#000000;display:inline;overflow:visible;visibility:visible;opacity:0.7;fill:#ffffff;fill-opacity:1;fill-rule:nonzero;stroke:none;stroke-width:1.31255317;marker:none;enable-background:accumulate" />
  <path
     inkscape:connector-curvature="0"
     d="m 44.577505,11.128952 a 1.3125534,1.3125534 0 1 1 -2.625101,0 1.3125534,1.3125534 0 1 1 2.625101,0 z"
     id="path4371-2"
     style="color:#000000;display:inline;overflow:visible;visibility:visible;opacity:0.7;fill:#ffffff;fill-opacity:1;fill-rule:nonzero;stroke:none;stroke-width:1.31255317;marker:none;enable-background:accumulate" />
  <path
     inkscape:connector-curvature="0"
     d="m 41.213093,11.128952 a 1.3125555,1.3125555 0 1 1 -2.625111,0 1.3125555,1.3125555 0 1 1 2.625111,0 z"
     id="path4371-0"
     style="color:#000000;display:inline;overflow:visible;visibility:visible;opacity:0.7;fill:#ffffff;fill-opacity:1;fill-rule:nonzero;stroke:none;stroke-width:1.31255317;marker:none;enable-background:accumulate" />
  <path
     inkscape:connector-curvature="0"
     d="m 37.848564,11.128952 a 1.3125565,1.3125565 0 1 1 -2.625113,0 1.3125565,1.3125565 0 1 1 2.625113,0 z"
     id="path4371-6"
     style="color:#000000;display:inline;overflow:visible;visibility:visible;opacity:0.7;fill:#ffffff;fill-opacity:1;fill-rule:nonzero;stroke:none;stroke-width:1.31255317;marker:none;enable-background:accumulate" />
  <text
     xml:space="preserve"
     style="font-style:normal;font-weight:normal;font-size:26.25102234px;line-height:1.25;font-family:sans-serif;letter-spacing:0px;word-spacing:0px;opacity:0.7;fill:#ffffff;fill-opacity:1;stroke:none;stroke-width:0.65627658"
     x="19.107357"
     y="12.947806"
     id="text1267"><tspan
       sodipodi:role="line"
       id="tspan1265"
       x="19.107357"
       y="12.947806"
       style="font-style:normal;font-variant:normal;font-weight:500;font-stretch:normal;font-size:3.50014424px;font-family:Ubuntu;-inkscape-font-specification:'Ubuntu Medium';fill:#ffffff;fill-opacity:1;stroke-width:0.65627658">18:30</tspan></text>
</svg>
