<?xml version="1.0" encoding="UTF-8" standalone="no"?>
<svg
   xmlns:dc="http://purl.org/dc/elements/1.1/"
   xmlns:cc="http://creativecommons.org/ns#"
   xmlns:rdf="http://www.w3.org/1999/02/22-rdf-syntax-ns#"
   xmlns:svg="http://www.w3.org/2000/svg"
   xmlns="http://www.w3.org/2000/svg"
   xmlns:xlink="http://www.w3.org/1999/xlink"
   version="1.1"
   id="svg18157"
   height="48px"
   width="48px">
  <defs
     id="defs18159">
    <linearGradient
       y2="35.581654"
       x2="42.470848"
       y1="11.952797"
       x1="42.470848"
       gradientTransform="matrix(0.89189031,0,0,1.0580283,3.1206609,5.3536023)"
       gradientUnits="userSpaceOnUse"
       id="linearGradient12489"
       xlink:href="#linearGradient3454-2-5-0-3" />
    <linearGradient
       id="linearGradient3454-2-5-0-3">
      <stop
         id="stop3456-4-9-38-1"
         style="stop-color:#ffffff;stop-opacity:1"
         offset="0" />
      <stop
         id="stop3458-39-80-3-5"
         style="stop-color:#ffffff;stop-opacity:0.23529412"
         offset="0.0097359" />
      <stop
         id="stop3460-7-0-2-4"
         style="stop-color:#ffffff;stop-opacity:0.15686275"
         offset="0.99001008" />
      <stop
         id="stop3462-0-9-8-7"
         style="stop-color:#ffffff;stop-opacity:0.39215687"
         offset="1" />
    </linearGradient>
    <linearGradient
       y2="36.657963"
       x2="22.809399"
       y1="49.629246"
       x1="22.934725"
       gradientTransform="matrix(1.1446925,0,0,0.9977536,-3.466138,1.0988397)"
       gradientUnits="userSpaceOnUse"
       id="linearGradient12487"
       xlink:href="#linearGradient6129-963-697-142-998-580-273-44-2-2" />
    <linearGradient
       id="linearGradient6129-963-697-142-998-580-273-44-2-2">
      <stop
         offset="0"
         style="stop-color:#0a0a0a;stop-opacity:0.498"
         id="stop2661-01-6-2" />
      <stop
         offset="1"
         style="stop-color:#0a0a0a;stop-opacity:0"
         id="stop2663-64-5-5" />
    </linearGradient>
    <linearGradient
       y2="43.761127"
       x2="35.792694"
       y1="17.118193"
       x1="35.792694"
       gradientTransform="matrix(1,0,0,1.0357143,2.0849371e-6,-1.5890903)"
       gradientUnits="userSpaceOnUse"
       id="linearGradient12481"
       xlink:href="#linearGradient4632-0-6-4-7" />
    <linearGradient
       id="linearGradient4632-0-6-4">
      <stop
         id="stop4634-4-4-7"
         offset="0"
         style="stop-color:#aacb7d;stop-opacity:1;" />
      <stop
         id="stop4636-3-1-5"
         offset="1"
         style="stop-color:#709937;stop-opacity:1;" />
    </linearGradient>
    <radialGradient
       r="117.14286"
       fy="486.64789"
       fx="605.71429"
       cy="486.64789"
       cx="605.71429"
       gradientTransform="matrix(-0.03079083,0,0,0.02470588,23.389752,31.94164)"
       gradientUnits="userSpaceOnUse"
       id="radialGradient12475"
       xlink:href="#linearGradient5060-820-91-9-0" />
    <linearGradient
       id="linearGradient5060-820-91-9-0">
      <stop
         offset="0"
         style="stop-color:#000000;stop-opacity:1"
         id="stop2681-778-5-1" />
      <stop
         offset="1"
         style="stop-color:#000000;stop-opacity:0"
         id="stop2683-2-86-2" />
    </linearGradient>
    <radialGradient
       r="117.14286"
       fy="486.64789"
       fx="605.71429"
       cy="486.64789"
       cx="605.71429"
       gradientTransform="matrix(0.03079083,0,0,0.02470588,24.610252,31.94164)"
       gradientUnits="userSpaceOnUse"
       id="radialGradient12471"
       xlink:href="#linearGradient5060-179-37-4-0" />
    <linearGradient
       id="linearGradient5060-179-37-4-0">
      <stop
         offset="0"
         style="stop-color:#000000;stop-opacity:1"
         id="stop2675-91-9-2" />
      <stop
         offset="1"
         style="stop-color:#000000;stop-opacity:0"
         id="stop2677-09-0-9" />
    </linearGradient>
    <linearGradient
       y2="609.50507"
       x2="302.85715"
       y1="366.64789"
       x1="302.85715"
       gradientTransform="matrix(0.07938856,0,0,0.02470588,-4.6932879,31.94164)"
       gradientUnits="userSpaceOnUse"
       id="linearGradient12467"
       xlink:href="#linearGradient5048-585-73-1-5" />
    <linearGradient
       id="linearGradient5048-585-73-1-5">
      <stop
         offset="0"
         style="stop-color:#000000;stop-opacity:0"
         id="stop2667-99-4-6" />
      <stop
         offset="0.5"
         style="stop-color:#000000;stop-opacity:1"
         id="stop2669-5-9-4" />
      <stop
         offset="1"
         style="stop-color:#000000;stop-opacity:0"
         id="stop2671-56-4-2" />
    </linearGradient>
    <linearGradient
       y2="34.143417"
       x2="21.37039"
       y1="4.2476678"
       x1="21.37039"
       gradientTransform="matrix(0.89189031,0,0,1.0580283,3.1206621,5.3535997)"
       gradientUnits="userSpaceOnUse"
       id="linearGradient12463"
       xlink:href="#linearGradient4507-0-4-7" />
    <linearGradient
       id="linearGradient4507-0-4-7">
      <stop
         offset="0"
         style="stop-color:#ffffff;stop-opacity:1"
         id="stop4509-35-6-1" />
      <stop
         offset="0.07395859"
         style="stop-color:#ffffff;stop-opacity:0.23529412"
         id="stop4511-46-3-8" />
      <stop
         offset="0.99001008"
         style="stop-color:#ffffff;stop-opacity:0.15686275"
         id="stop4513-15-5-9" />
      <stop
         offset="1"
         style="stop-color:#ffffff;stop-opacity:0.39215687"
         id="stop4515-1-1-8" />
    </linearGradient>
    <linearGradient
       id="linearGradient4646-7-4-3">
      <stop
         id="stop4648-8-0-3"
         style="stop-color:#f9f9f9;stop-opacity:1"
         offset="0" />
      <stop
         id="stop4650-1-7-3"
         style="stop-color:#d8d8d8;stop-opacity:1"
         offset="1" />
    </linearGradient>
    <linearGradient
       id="linearGradient3104-8-8-97-4-6-11-5-5">
      <stop
         id="stop3106-5-4-3-5-0-2-1-0"
         style="stop-color:#000000;stop-opacity:0.32173914"
         offset="0" />
      <stop
         id="stop3108-4-3-7-8-2-0-7-9"
         style="stop-color:#000000;stop-opacity:0.27826086"
         offset="1" />
    </linearGradient>
    <linearGradient
       xlink:href="#linearGradient3104-8-8-97-4-6-11-5-5"
       id="linearGradient18155"
       gradientUnits="userSpaceOnUse"
       gradientTransform="matrix(0.80749834,0,0,0.83374395,106.87672,-0.06984031)"
       x1="-51.786404"
       y1="53.514328"
       x2="-51.786404"
       y2="3.6336823" />
    <linearGradient
       xlink:href="#linearGradient7012-661-145-733-759-865-745"
       id="linearGradient3840"
       x1="22.559322"
       y1="16.466301"
       x2="22.559322"
       y2="44.376751"
       gradientUnits="userSpaceOnUse" />
    <radialGradient
       xlink:href="#linearGradient3484"
       id="radialGradient3070"
       gradientUnits="userSpaceOnUse"
       gradientTransform="matrix(-1.274898e-8,1.7142916,-2.159331,-1.4599595e-8,12.809361,2.8570011)"
       cx="3"
       cy="5.01718"
       fx="3"
       fy="5.01718"
       r="21" />
    <linearGradient
       xlink:href="#linearGradient6404"
       id="linearGradient3068"
       gradientUnits="userSpaceOnUse"
       gradientTransform="translate(-50.940898,0)"
       x1="62.988873"
       y1="13.182598"
       x2="62.988873"
       y2="16.19013" />
    <linearGradient
       xlink:href="#linearGradient3390"
       id="linearGradient3061"
       gradientUnits="userSpaceOnUse"
       gradientTransform="translate(-53.765393,-0.1141929)"
       x1="82.453476"
       y1="45.114193"
       x2="65.340263"
       y2="15.943953" />
    <linearGradient
       xlink:href="#linearGradient6129-963-697-142-998-580-273"
       id="linearGradient3056"
       gradientUnits="userSpaceOnUse"
       gradientTransform="matrix(1.1446925,0,0,0.9977536,-3.4661413,1.0988425)"
       x1="22.934725"
       y1="49.629246"
       x2="22.809399"
       y2="36.657963" />
    <radialGradient
       xlink:href="#linearGradient6087-437-184-795-110-662-495"
       id="radialGradient3053"
       gradientUnits="userSpaceOnUse"
       gradientTransform="matrix(0,1.2079744,-1.6271642,0,26.371748,8.2664685)"
       cx="7.2646537"
       cy="8.3021259"
       fx="7.2646537"
       fy="8.3021259"
       r="20.979567" />
    <linearGradient
       xlink:href="#linearGradient8265-821-176-38-919-66-249"
       id="linearGradient3050"
       gradientUnits="userSpaceOnUse"
       x1="11.566265"
       y1="22.292103"
       x2="15.214532"
       y2="33.95525" />
    <linearGradient
       x1="11.566265"
       y1="22.292103"
       x2="15.214532"
       y2="33.95525"
       id="linearGradient3466"
       xlink:href="#linearGradient8265-821-176-38-919-66-249"
       gradientUnits="userSpaceOnUse" />
    <linearGradient
       id="linearGradient8265-821-176-38-919-66-249">
      <stop
         id="stop2687"
         style="stop-color:#ffffff;stop-opacity:0.2"
         offset="0" />
      <stop
         id="stop2689"
         style="stop-color:#ffffff;stop-opacity:0"
         offset="1" />
    </linearGradient>
    <radialGradient
       cx="7.2646537"
       cy="8.3021259"
       r="20.979567"
       fx="7.2646537"
       fy="8.3021259"
       id="radialGradient2442-940-759"
       xlink:href="#linearGradient6087-437-184-795-110-662-495"
       gradientUnits="userSpaceOnUse"
       gradientTransform="matrix(0,1.2079744,-1.6271642,0,26.371748,8.2664685)" />
    <linearGradient
       id="linearGradient6087-437-184-795-110-662-495">
      <stop
         id="stop2693"
         style="stop-color:#ffffff;stop-opacity:0.40000001"
         offset="0" />
      <stop
         id="stop2695"
         style="stop-color:#ffffff;stop-opacity:0"
         offset="1" />
    </linearGradient>
    <linearGradient
       x1="22.934725"
       y1="49.629246"
       x2="22.809399"
       y2="36.657963"
       id="linearGradient6462-657-405"
       xlink:href="#linearGradient6129-963-697-142-998-580-273"
       gradientUnits="userSpaceOnUse"
       gradientTransform="matrix(1.1446925,0,0,0.9977536,-3.4661413,1.0988425)" />
    <linearGradient
       id="linearGradient6129-963-697-142-998-580-273">
      <stop
         id="stop2661"
         style="stop-color:#0a0a0a;stop-opacity:0.498"
         offset="0" />
      <stop
         id="stop2663"
         style="stop-color:#0a0a0a;stop-opacity:0"
         offset="1" />
    </linearGradient>
    <radialGradient
       cx="63.969177"
       cy="14.113381"
       r="23.097054"
       fx="63.969177"
       fy="14.113381"
       id="radialGradient3404"
       xlink:href="#linearGradient7012-661-145-733-759-865-745"
       gradientUnits="userSpaceOnUse"
       gradientTransform="matrix(1.5646925,-9.5143002e-8,6.1772287e-8,1.015888,-86.212573,8.1461173)" />
    <linearGradient
       id="linearGradient7012-661-145-733-759-865-745">
      <stop
         id="stop2699"
         style="stop-color:#aacb7d;stop-opacity:1"
         offset="0" />
      <stop
         id="stop2701"
         style="stop-color:#709937;stop-opacity:1"
         offset="1" />
    </linearGradient>
    <linearGradient
       x1="82.453476"
       y1="45.114193"
       x2="65.340263"
       y2="15.943953"
       id="linearGradient3412"
       xlink:href="#linearGradient3390"
       gradientUnits="userSpaceOnUse"
       gradientTransform="translate(-53.765393,-0.1141929)" />
    <linearGradient
       id="linearGradient3390">
      <stop
         id="stop3392"
         style="stop-color:#51751e;stop-opacity:1"
         offset="0" />
      <stop
         id="stop3394"
         style="stop-color:#51751e;stop-opacity:1"
         offset="1" />
    </linearGradient>
    <linearGradient
       x1="302.85715"
       y1="366.64789"
       x2="302.85715"
       y2="609.50507"
       id="linearGradient7596-975"
       xlink:href="#linearGradient5048-585"
       gradientUnits="userSpaceOnUse"
       gradientTransform="matrix(0.08284024,0,0,0.03705882,-5.9408285,25.412461)" />
    <linearGradient
       id="linearGradient5048-585">
      <stop
         id="stop2667"
         style="stop-color:#000000;stop-opacity:0"
         offset="0" />
      <stop
         id="stop2669"
         style="stop-color:#000000;stop-opacity:1"
         offset="0.5" />
      <stop
         id="stop2671"
         style="stop-color:#000000;stop-opacity:0"
         offset="1" />
    </linearGradient>
    <radialGradient
       cx="605.71429"
       cy="486.64789"
       r="117.14286"
       fx="605.71429"
       fy="486.64789"
       id="radialGradient7598-526"
       xlink:href="#linearGradient5060-179"
       gradientUnits="userSpaceOnUse"
       gradientTransform="matrix(0.03212956,0,0,0.03705882,24.636785,25.412461)" />
    <linearGradient
       id="linearGradient5060-179">
      <stop
         id="stop2675"
         style="stop-color:#000000;stop-opacity:1"
         offset="0" />
      <stop
         id="stop2677"
         style="stop-color:#000000;stop-opacity:0"
         offset="1" />
    </linearGradient>
    <radialGradient
       cx="605.71429"
       cy="486.64789"
       r="117.14286"
       fx="605.71429"
       fy="486.64789"
       id="radialGradient7600-312"
       xlink:href="#linearGradient5060-820"
       gradientUnits="userSpaceOnUse"
       gradientTransform="matrix(-0.03212956,0,0,0.03705882,23.363215,25.412461)" />
    <linearGradient
       id="linearGradient5060-820">
      <stop
         id="stop2681"
         style="stop-color:#000000;stop-opacity:1"
         offset="0" />
      <stop
         id="stop2683"
         style="stop-color:#000000;stop-opacity:0"
         offset="1" />
    </linearGradient>
    <linearGradient
       x1="62.988873"
       y1="13.182598"
       x2="62.988873"
       y2="16.19013"
       id="linearGradient3482"
       xlink:href="#linearGradient6404"
       gradientUnits="userSpaceOnUse"
       gradientTransform="translate(-50.940898,0)" />
    <linearGradient
       id="linearGradient6404">
      <stop
         id="stop6406"
         style="stop-color:#f9f9f9;stop-opacity:1"
         offset="0" />
      <stop
         id="stop6408"
         style="stop-color:#c9c9c9;stop-opacity:1"
         offset="1" />
    </linearGradient>
    <radialGradient
       cx="3"
       cy="5.01718"
       r="21"
       fx="3"
       fy="5.01718"
       id="radialGradient3470"
       xlink:href="#linearGradient3484"
       gradientUnits="userSpaceOnUse"
       gradientTransform="matrix(-1.274898e-8,1.7142916,-2.159331,-1.4599595e-8,12.809361,2.8570011)" />
    <linearGradient
       id="linearGradient3484">
      <stop
         id="stop3486"
         style="stop-color:#bdbdbd;stop-opacity:1"
         offset="0" />
      <stop
         id="stop3488"
         style="stop-color:#d0d0d0;stop-opacity:1"
         offset="1" />
    </linearGradient>
    <linearGradient
       x1="86.132919"
       y1="105.105"
       x2="84.63858"
       y2="20.895"
       id="linearGradient2606"
       xlink:href="#linearGradient5128"
       gradientUnits="userSpaceOnUse"
       gradientTransform="matrix(0.2014014,0,0,0.2014015,18.110304,20.311705)" />
    <linearGradient
       id="linearGradient5128">
      <stop
         id="stop5130"
         style="stop-color:#ffffff;stop-opacity:1"
         offset="0" />
      <stop
         id="stop5132"
         style="stop-color:#959595;stop-opacity:1"
         offset="1" />
    </linearGradient>
    <linearGradient
       x1="32.036148"
       y1="19"
       x2="32.036148"
       y2="47.012184"
       id="linearGradient3413"
       xlink:href="#linearGradient3309"
       gradientUnits="userSpaceOnUse" />
    <linearGradient
       x1="63.9995"
       y1="3.1001"
       x2="63.9995"
       y2="122.8994"
       id="linearGradient3309"
       gradientUnits="userSpaceOnUse">
      <stop
         id="stop3311"
         style="stop-color:#f6f6f6;stop-opacity:1"
         offset="0" />
      <stop
         id="stop3313"
         style="stop-color:#d2d2d2;stop-opacity:1"
         offset="1" />
    </linearGradient>
    <linearGradient
       x1="25.922546"
       y1="19"
       x2="25.922546"
       y2="47.044857"
       id="linearGradient3415"
       xlink:href="#linearGradient3397"
       gradientUnits="userSpaceOnUse" />
    <linearGradient
       id="linearGradient3397">
      <stop
         id="stop3399"
         style="stop-color:#a0a0a0;stop-opacity:1"
         offset="0" />
      <stop
         id="stop3401"
         style="stop-color:#787878;stop-opacity:1"
         offset="1" />
    </linearGradient>
    <linearGradient
       y2="36.599415"
       x2="22.934725"
       y1="49.629246"
       x1="22.934725"
       gradientTransform="matrix(2.2041262,0,0,1.9531236,44.81525,2.9681362)"
       gradientUnits="userSpaceOnUse"
       id="linearGradient5887"
       xlink:href="#linearGradient6129-963-697-142-998-580-273-44-2-2" />
    <linearGradient
       y2="119.05979"
       x2="-91"
       y1="43.999817"
       x1="-91"
       gradientTransform="matrix(0.72580649,0,0,0.74516186,116.81336,18.325446)"
       gradientUnits="userSpaceOnUse"
       id="linearGradient5883"
       xlink:href="#linearGradient4632-0-6-4-7" />
    <linearGradient
       id="linearGradient4632-0-6-4-7">
      <stop
         id="stop4634-4-4-7-5"
         offset="0"
         style="stop-color:#a064be;stop-opacity:1;" />
      <stop
         id="stop4636-3-1-5-3"
         offset="1"
         style="stop-color:#785096;stop-opacity:1;" />
    </linearGradient>
  </defs>
  <metadata
     id="metadata18162">
    <rdf:RDF>
      <cc:Work
         rdf:about="">
        <dc:format>image/svg+xml</dc:format>
        <dc:type
           rdf:resource="http://purl.org/dc/dcmitype/StillImage" />
        <dc:title></dc:title>
      </cc:Work>
    </rdf:RDF>
  </metadata>
  <g
     id="layer1">
    <path
       id="rect4251-0-0-61"
       d="m 5.5000021,8.4999997 c -0.554,0 -1,0.446 -1,1 l 0,2.0000003 -1,0 c -0.554,0 -1,0.446 -1,1 l 0,6 c 0,0.554 0.446,1 1,1 l 40.9999999,0 c 0.554,0 1,-0.446 1,-1 l 0,-6 c 0,-0.554 -0.446,-1 -1,-1 l -23,0 0,-2.0000003 c 0,-0.554 -0.446,-1 -1,-1 l -14.9999999,0 z"
       style="opacity:0.8;color:#000000;fill:none;stroke:url(#linearGradient18155);stroke-width:1;stroke-linecap:butt;stroke-linejoin:miter;stroke-miterlimit:4;stroke-opacity:1;stroke-dasharray:none;stroke-dashoffset:0;marker:none;visibility:visible;display:inline;overflow:visible;enable-background:accumulate" />
    <path
       id="rect4251-3-2"
       d="m 5.5000021,8.9999997 c -0.277,0 -0.5,0.223 -0.5,0.5 l 0,2.5000003 -1.5,0 c -0.277,0 -0.5,0.223 -0.5,0.5 l 0,6 c 0,0.277 0.223,0.5 0.5,0.5 l 40.9999999,0 c 0.277,0 0.5,-0.223 0.5,-0.5 l 0,-6 c 0,-0.277 -0.223,-0.5 -0.5,-0.5 l -23.5,0 0,-2.5000003 c 0,-0.277 -0.223,-0.5 -0.5,-0.5 l -14.9999999,0 z"
       style="color:#000000;fill:#cecece;fill-opacity:1;fill-rule:nonzero;stroke:none;stroke-width:0.99992168;marker:none;visibility:visible;display:inline;overflow:visible;enable-background:accumulate" />
    <path
       id="rect4251-9-21-7"
       d="m 5.5000021,9.4999997 0,3.0000003 -2,0 0,7 40.9999999,0 0,-7 -24,0 0,-3.0000003 -14.9999999,0 z"
       style="color:#000000;fill:none;stroke:url(#linearGradient12463);stroke-width:1;stroke-linecap:round;stroke-linejoin:round;stroke-miterlimit:4;stroke-opacity:1;stroke-dasharray:none;stroke-dashoffset:0;marker:none;visibility:visible;display:inline;overflow:visible;enable-background:accumulate" />
    <rect
       width="38.333332"
       height="6.0000005"
       x="4.8333426"
       y="41"
       id="rect4173-8-8"
       style="opacity:0.3;fill:url(#linearGradient12467);fill-opacity:1;fill-rule:nonzero;stroke:none;stroke-width:1;marker:none;visibility:visible;display:inline;overflow:visible" />
    <path
       d="m 43.166672,41.00021 c 0,0 0,5.99967 0,5.99967 1.58565,0.0113 3.83333,-1.34422 3.83333,-3.00022 0,-1.656 -1.76947,-2.99945 -3.83333,-2.99945 z"
       id="path5058-9-0"
       style="opacity:0.3;fill:url(#radialGradient12471);fill-opacity:1;fill-rule:nonzero;stroke:none;stroke-width:1;marker:none;visibility:visible;display:inline;overflow:visible" />
    <path
       d="m 4.8333321,41.00021 c 0,0 0,5.99967 0,5.99967 -1.58565,0.0113 -3.83333,-1.34422 -3.83333,-3.00022 0,-1.656 1.76947,-2.99945 3.83333,-2.99945 z"
       id="path5018-6-6"
       style="opacity:0.3;fill:url(#radialGradient12475);fill-opacity:1;fill-rule:nonzero;stroke:none;stroke-width:1;marker:none;visibility:visible;display:inline;overflow:visible" />
    <path
       d="m 2.1626121,15.50019 c -1.07231,0.12829 -0.49959,1.45416 -0.58508,2.19974 0.12444,0.48182 0.92748,26.17643 0.92748,26.17643 0,0.7414 0.35172,0.61579 1.24292,0.61579 13.1885599,0 27.7725299,0 40.9610899,0 0.96008,0.0231 0.75718,0.0121 0.75718,-0.62748 0,0 0.99298,-27.35421 1.0285,-27.7811 0,-0.44949 0.0902,-0.58338 -0.47316,-0.58338 -14.08405,0 -29.77488,0 -43.8589299,0 z"
       id="path3388-7-1"
       style="fill:url(#linearGradient12481);fill-opacity:1.0;stroke:none" />
    <path
       d="m 2.058242,16.06515 43.89648,4e-4 c 0.63416,0 1.04515,0.44461 1.04515,0.99737 l -1.03241,26.96037 c 0.0147,0.6994 -0.20909,0.97671 -0.9459,0.96204 l -41.78072,-0.0176 c -0.63416,0 -1.27363,-0.41277 -1.27363,-0.96552 L 1.013092,17.0629 c 0,-0.55276 0.41099,-0.99775 1.04515,-0.99775 z"
       id="path6127-1-4"
       style="opacity:0.4;fill:url(#linearGradient12487);fill-opacity:1;stroke:none" />
    <path
       transform="matrix(1,0,0,1.0383977,0.02211208,-1.6719603)"
       d="m 2.5,17.5 c 0.016793,0.176427 0.022163,0.517935 0.03125,0.875 0.023112,0.08641 0.025524,0.05923 0.03125,0.09375 0.011058,0.06665 0.027034,0.138257 0.03125,0.1875 0.0064,0.07474 -0.00668,0.173042 0,0.28125 0.013352,0.216416 0.045306,0.510844 0.0625,0.875 0.034388,0.728313 0.078083,1.708883 0.125,2.90625 0.093834,2.394734 0.2030642,5.55569 0.3125,8.6875 C 3.3060459,37.481691 3.4883163,43.143759 3.5,43.5 c 0.1225025,0.0036 0.071108,0 0.25,0 l 40.71875,0 c 0.0124,-0.328836 0.253182,-6.426721 0.5,-12.90625 0.126691,-3.325928 0.245386,-6.68527 0.34375,-9.21875 0.04918,-1.26674 0.09434,-2.331501 0.125,-3.09375 0.01322,-0.328618 0.02246,-0.572975 0.03125,-0.78125 L 2.5,17.5 z"
       id="path4587-3-5"
       style="opacity:0.5;color:#000000;fill:none;stroke:url(#linearGradient12489);stroke-width:0.98133707;stroke-linecap:round;stroke-linejoin:miter;stroke-miterlimit:4;stroke-opacity:1;stroke-dasharray:none;stroke-dashoffset:0;marker:none;visibility:visible;display:inline;overflow:visible;enable-background:accumulate" />
    <path
       d="m 2.1626121,15.50019 c -1.07231,0.12829 -0.49959,1.45416 -0.58508,2.19974 0.12444,0.48182 0.92748,26.17643 0.92748,26.17643 0,0.7414 0.35172,0.61579 1.24292,0.61579 13.1885599,0 27.7725299,0 40.9610899,0 0.96008,0.0231 0.75718,0.0121 0.75718,-0.62748 0,0 0.99298,-27.35421 1.0285,-27.7811 0,-0.44949 0.0902,-0.58338 -0.47316,-0.58338 -14.08405,0 -29.77488,0 -43.8589299,0 z"
       id="path3388-7-1-7"
       style="opacity:0.3;fill:none;stroke:#000000;stroke-width:1;stroke-linecap:round;stroke-linejoin:round;stroke-miterlimit:4;stroke-opacity:1;stroke-dashoffset:0" />
    <path
       style="display:inline;overflow:visible;opacity:0.9;fill:#482e89;fill-opacity:1;stroke-width:0.40201029"
       id="path3324"
       d="m 28.861926,20.830306 c -1.062909,0 -1.923578,0.861502 -1.923578,1.92354 0,1.062038 0.860669,1.92354 1.923578,1.92354 1.062909,0 1.923578,-0.861502 1.923578,-1.92354 0,-1.062038 -0.860669,-1.92354 -1.923578,-1.92354 z m -4.062382,1.506549 c -1.186277,1.54e-4 -2.389001,0.299545 -3.470512,0.833982 -0.03846,0.01908 -0.06245,0.05293 -0.07398,0.09416 -0.01169,0.04123 -0.0093,0.08476 0.01345,0.121062 l 1.560385,2.468319 c 0.03954,0.06277 0.119862,0.0893 0.188322,0.06053 0.577524,-0.244143 1.176814,-0.363186 1.782337,-0.363186 2.227328,0 4.170514,1.650453 4.519736,3.840354 0.01169,0.07353 0.07366,0.127787 0.147968,0.127787 h 2.932448 c 0.04277,0 0.08557,-0.01539 0.114338,-0.04708 0.02877,-0.03169 0.04436,-0.07157 0.04036,-0.114337 -0.158154,-1.624849 -0.852821,-3.198046 -1.950485,-4.41876 -0.04954,-0.05538 -0.132434,-0.06064 -0.195048,-0.02018 -0.442604,0.285833 -0.944785,0.437168 -1.452772,0.437168 -1.481963,0 -2.68344,-1.203957 -2.683594,-2.676814 1.54e-4,-7.75e-4 0,-0.05134 0,-0.0538 0,-0.07338 -0.05502,-0.142076 -0.12779,-0.154691 -0.463373,-0.0803 -0.91317,-0.134511 -1.345159,-0.134511 z m -4.708059,1.614159 c -0.02031,0.005 -0.04384,0.01391 -0.06053,0.0269 -1.271968,0.979648 -2.225869,2.357393 -2.690319,3.880708 -0.01816,0.05954 -0.002,0.122648 0.04708,0.161416 0.639214,0.506284 1.022321,1.285607 1.022321,2.084955 0,0.799349 -0.382953,1.578671 -1.022321,2.084957 -0.04877,0.03861 -0.06523,0.101726 -0.04708,0.161416 0.460757,1.510547 1.407141,2.883036 2.663416,3.86053 0.03369,0.02631 0.07219,0.04102 0.114338,0.03363 0.042,-0.0072 0.07796,-0.03814 0.100888,-0.07398 l 1.573836,-2.461592 c 0.04015,-0.06292 0.02924,-0.145662 -0.0269,-0.195045 -0.985976,-0.867499 -1.553659,-2.111356 -1.553659,-3.409912 0,-1.308248 0.570828,-2.555556 1.56711,-3.423363 0.05615,-0.04907 0.07347,-0.131816 0.03363,-0.195044 l -1.560387,-2.468317 c -0.02277,-0.036 -0.05889,-0.05987 -0.100887,-0.06726 -0.021,-0.0037 -0.04022,-0.005 -0.06053,0 z m -4.338139,4.223717 c -1.087803,0 -1.970659,0.883602 -1.970659,1.970619 0,1.087017 0.882856,1.963894 1.970659,1.963894 1.087804,0 1.970659,-0.876877 1.970659,-1.963894 0,-1.087017 -0.882855,-1.970619 -1.970659,-1.970619 z m 16.64635,2.5423 -2.932448,0.0067 c -0.074,1.53e-4 -0.142847,0.05487 -0.154694,0.127787 -0.35399,2.173594 -2.291835,3.813451 -4.51301,3.813451 -0.6126,0 -1.218528,-0.126494 -1.802514,-0.376637 -0.06831,-0.02907 -0.148169,-0.0085 -0.188322,0.0538 l -1.573837,2.468319 c -0.02292,0.03615 -0.02484,0.07968 -0.01345,0.121062 0.01138,0.04123 0.03567,0.07508 0.07398,0.09416 1.089972,0.545668 2.30417,0.833982 3.50414,0.833982 0.445066,0 0.909724,-0.04456 1.378789,-0.127787 0.06584,-0.01154 0.113219,-0.06148 0.121064,-0.127788 0.156304,-1.349938 1.297956,-2.367433 2.656691,-2.367433 0.42122,0 0.854744,0.106312 1.244272,0.30938 0.05923,0.03092 0.127949,0.02094 0.174871,-0.0269 1.22843,-1.252712 2.005009,-2.904325 2.179158,-4.640707 0.0043,-0.04262 -0.01143,-0.08249 -0.04035,-0.114337 -0.02892,-0.03185 -0.07157,-0.04724 -0.114339,-0.04708 z m -3.463787,5.198938 c -1.087803,0 -1.970658,0.87576 -1.970658,1.957169 0,1.081409 0.882855,1.957168 1.970658,1.957168 1.087804,0 1.97066,-0.875759 1.97066,-1.957168 0,-1.081409 -0.882856,-1.957169 -1.97066,-1.957169 z" />
  </g>
</svg>
