<?xml version="1.0" encoding="UTF-8" standalone="no"?>
<svg
   xmlns:dc="http://purl.org/dc/elements/1.1/"
   xmlns:cc="http://creativecommons.org/ns#"
   xmlns:rdf="http://www.w3.org/1999/02/22-rdf-syntax-ns#"
   xmlns:svg="http://www.w3.org/2000/svg"
   xmlns="http://www.w3.org/2000/svg"
   xmlns:xlink="http://www.w3.org/1999/xlink"
   xmlns:sodipodi="http://sodipodi.sourceforge.net/DTD/sodipodi-0.dtd"
   xmlns:inkscape="http://www.inkscape.org/namespaces/inkscape"
   width="16px"
   height="16px"
   id="svg8860"
   version="1.1"
   sodipodi:docname="folder-remote.svg"
   inkscape:version="0.92.1 r">
  <sodipodi:namedview
     pagecolor="#ffffff"
     bordercolor="#666666"
     borderopacity="1"
     objecttolerance="10"
     gridtolerance="10"
     guidetolerance="10"
     inkscape:pageopacity="0"
     inkscape:pageshadow="2"
     inkscape:window-width="1920"
     inkscape:window-height="1011"
     id="namedview57"
     showgrid="false"
     inkscape:zoom="20.85965"
     inkscape:cx="-4.5465427"
     inkscape:cy="9.5532102"
     inkscape:window-x="0"
     inkscape:window-y="32"
     inkscape:window-maximized="1"
     inkscape:current-layer="svg8860" />
  <defs
     id="defs8862">
    <linearGradient
       xlink:href="#linearGradient3454-2-5-0-3-8"
       id="linearGradient10270-0"
       gradientUnits="userSpaceOnUse"
       gradientTransform="matrix(0.89189031,0,0,0.94046961,3.14398,5.346537)"
       x1="11.350123"
       y1="0.66696572"
       x2="11.350123"
       y2="8.1721792" />
    <linearGradient
       id="linearGradient3454-2-5-0-3-8">
      <stop
         offset="0"
         style="stop-color:#ffffff;stop-opacity:1"
         id="stop3456-4-9-38-1-9" />
      <stop
         offset="0.0097359"
         style="stop-color:#ffffff;stop-opacity:0.23529412"
         id="stop3458-39-80-3-5-6" />
      <stop
         offset="0.99001008"
         style="stop-color:#ffffff;stop-opacity:0.15686275"
         id="stop3460-7-0-2-4-4" />
      <stop
         offset="1"
         style="stop-color:#ffffff;stop-opacity:0.39215687"
         id="stop3462-0-9-8-7-8" />
    </linearGradient>
    <linearGradient
       xlink:href="#linearGradient6129-963-697-142-998-580-273-44-2-2-2"
       id="linearGradient10268-4"
       gradientUnits="userSpaceOnUse"
       gradientTransform="matrix(0.38156409,0,0,0.32896952,-18.24159,0.28216731)"
       x1="76.041"
       y1="49.372032"
       x2="76.041"
       y2="35.430561" />
    <linearGradient
       id="linearGradient6129-963-697-142-998-580-273-44-2-2-2">
      <stop
         id="stop2661-01-6-2-4"
         style="stop-color:#0a0a0a;stop-opacity:0.498"
         offset="0" />
      <stop
         id="stop2663-64-5-5-3"
         style="stop-color:#0a0a0a;stop-opacity:0"
         offset="1" />
    </linearGradient>
    <linearGradient
       xlink:href="#linearGradient4291"
       id="linearGradient10262-3"
       gradientUnits="userSpaceOnUse"
       gradientTransform="matrix(0.3101469,0,0,0.30591044,-15.362929,0.46943178)"
       x1="84.30883"
       y1="16.110577"
       x2="84.30883"
       y2="42.923553" />
    <linearGradient
       id="linearGradient4632-0-6-4-4">
      <stop
         style="stop-color:#aacb7d;stop-opacity:1;"
         offset="0"
         id="stop4634-4-4-7-5" />
      <stop
         style="stop-color:#709937;stop-opacity:1;"
         offset="1"
         id="stop4636-3-1-5-4" />
    </linearGradient>
    <linearGradient
       y2="2.0612748"
       x2="-51.786404"
       y1="53.514328"
       x1="-51.786404"
       gradientTransform="matrix(0.31070043,0,0,0.27489387,20.17717,-0.10316268)"
       gradientUnits="userSpaceOnUse"
       id="linearGradient10473-4-0"
       xlink:href="#linearGradient3104-8-8-97-4-6-11-5-5-4-4" />
    <linearGradient
       id="linearGradient3104-8-8-97-4-6-11-5-5-4-4">
      <stop
         offset="0"
         style="stop-color:#000000;stop-opacity:0.32173914"
         id="stop3106-5-4-3-5-0-2-1-0-7-7" />
      <stop
         offset="1"
         style="stop-color:#000000;stop-opacity:0.27826086"
         id="stop3108-4-3-7-8-2-0-7-9-0-6" />
    </linearGradient>
    <linearGradient
       id="linearGradient4346">
      <stop
         id="stop4348"
         style="stop-color:#cecece;stop-opacity:1"
         offset="0" />
      <stop
         id="stop4350"
         style="stop-color:#c4c4c4;stop-opacity:1"
         offset="1" />
    </linearGradient>
    <linearGradient
       y2="15.385052"
       x2="62.988873"
       y1="11.645091"
       x1="62.988873"
       gradientTransform="matrix(0.33333327,0,0,0.32971018,-17.44063,-0.64784268)"
       gradientUnits="userSpaceOnUse"
       id="linearGradient8858"
       xlink:href="#linearGradient4346" />
    <linearGradient
       y2="119.05979"
       x2="-91"
       y1="43.999817"
       x1="-91"
       gradientTransform="matrix(0.72580649,0,0,0.74516186,87.157262,-7.159588)"
       gradientUnits="userSpaceOnUse"
       id="linearGradient5883"
       xlink:href="#linearGradient4632-0-6-4" />
    <linearGradient
       id="linearGradient4632-0-6-4">
      <stop
         id="stop4634-4-4-7"
         offset="0"
         style="stop-color:#55a7f3;stop-opacity:1;" />
      <stop
         id="stop4636-3-1-5"
         offset="1"
         style="stop-color:#1374cf;stop-opacity:1;" />
    </linearGradient>
    <linearGradient
       y2="44.260689"
       x2="97.538795"
       y1="8.8103228"
       x1="97.538795"
       gradientTransform="matrix(1.9348846,0,0,1.9211429,-138.39876,-32.205592)"
       gradientUnits="userSpaceOnUse"
       id="linearGradient5873"
       xlink:href="#linearGradient9235" />
    <linearGradient
       id="linearGradient9235">
      <stop
         offset="0"
         style="stop-color:#ffffff;stop-opacity:1"
         id="stop9237" />
      <stop
         offset="0.1088333"
         style="stop-color:#ffffff;stop-opacity:0.23529412"
         id="stop9239" />
      <stop
         offset="0.97909725"
         style="stop-color:#ffffff;stop-opacity:0.15686275"
         id="stop9241" />
      <stop
         offset="1"
         style="stop-color:#ffffff;stop-opacity:0.39215687"
         id="stop9243" />
    </linearGradient>
    <linearGradient
       xlink:href="#linearGradient6129-963-697-142-998-580-273-44-2-2-2"
       id="linearGradient5887"
       gradientUnits="userSpaceOnUse"
       gradientTransform="matrix(2.2041262,0,0,1.9531236,-25.373612,-54.891428)"
       x1="22.934725"
       y1="49.629246"
       x2="22.934725"
       y2="36.599415" />
    <linearGradient
       xlink:href="#linearGradient4632-0-6-4-6"
       id="linearGradient5883-3"
       gradientUnits="userSpaceOnUse"
       gradientTransform="matrix(0.72580649,0,0,0.74516186,127.1654,-61.97781)"
       x1="-91"
       y1="43.999817"
       x2="-91"
       y2="119.05979" />
    <linearGradient
       id="linearGradient4632-0-6-4-6">
      <stop
         style="stop-color:#0fbb68;stop-opacity:1"
         offset="0"
         id="stop4634-4-4-7-7" />
      <stop
         style="stop-color:#0c7643;stop-opacity:1"
         offset="1"
         id="stop4636-3-1-5-5" />
    </linearGradient>
    <linearGradient
       y2="119.05979"
       x2="-91"
       y1="43.999817"
       x1="-91"
       gradientTransform="matrix(0.72580649,0,0,0.74516186,125.0555,-60.357363)"
       gradientUnits="userSpaceOnUse"
       id="linearGradient5883-7"
       xlink:href="#linearGradient4291" />
    <linearGradient
       id="linearGradient4291">
      <stop
         id="stop4293"
         offset="0"
         style="stop-color:#a064be;stop-opacity:1" />
      <stop
         id="stop4295"
         offset="1"
         style="stop-color:#785096;stop-opacity:1" />
    </linearGradient>
  </defs>
  <metadata
     id="metadata8865">
    <rdf:RDF>
      <cc:Work
         rdf:about="">
        <dc:format>image/svg+xml</dc:format>
        <dc:type
           rdf:resource="http://purl.org/dc/dcmitype/StillImage" />
        <dc:title />
      </cc:Work>
    </rdf:RDF>
  </metadata>
  <g
     id="layer1">
    <path
       style="color:#000000;fill:url(#linearGradient8858);fill-opacity:1;fill-rule:nonzero;stroke:none;stroke-width:0.99992168;marker:none;visibility:visible;display:inline;overflow:visible;enable-background:accumulate"
       d="m 2.02332,1.976667 0,1 -1,0 0,4 14,0 0,-4 -7,0 0,-1 -6,0 z"
       id="rect4170-0" />
    <path
       style="color:#000000;display:inline;overflow:visible;visibility:visible;opacity:0.8;fill:none;stroke:url(#linearGradient10473-4-0);stroke-width:1;stroke-linecap:butt;stroke-linejoin:miter;stroke-miterlimit:4;stroke-dasharray:none;stroke-dashoffset:0;stroke-opacity:1;marker:none;enable-background:accumulate"
       d="M 15.52332,4 V 2.726667 c 0,-0.1385 -0.1115,-0.25 -0.25,-0.25 h -6.75 v -0.71875 c 0,-0.1385 -0.1115,-0.25 -0.25,-0.25 h -6.5 c -0.1385,0 -0.25,0.1115 -0.25,0.25 v 0.71875 h -0.75 c -0.1385,0 -0.25,0.1115 -0.25,0.25 V 4"
       id="rect4170" />
    <path
       d="M 1.0557148,5 C 1.7603563,5 14.453608,5.0283083 15,5.0283083 15,5.5824641 14.97349,13.995151 14.94194,13.995151 10.047812,14.011096 2.4250446,13.982609 1,13.982609 1,12.936754 1.0557334,7.15233 1.0557334,5.000009 z"
       id="rect3086"
       style="color:#000000;fill:url(#linearGradient10262-3);fill-opacity:1.0;fill-rule:nonzero;stroke:none;stroke-width:1;marker:none;visibility:visible;display:inline;overflow:visible;enable-background:accumulate" />
    <path
       d="m 0.08698,3.976647 c 0.8053,0 15.31189,0.0341 15.93634,0.0341 0,0.67729 -0.0303,10.95971 -0.0663,10.95971 -5.5933,0.02 -14.30504,-0.0148 -15.93366,-0.0148 0,-1.2783 0.0636,-8.34831 0.0636,-10.97898 z"
       id="rect3086-1"
       style="color:#000000;display:inline;overflow:visible;visibility:visible;opacity:0.4;fill:url(#linearGradient10268-4);fill-opacity:1;fill-rule:nonzero;stroke:none;stroke-width:1;marker:none;enable-background:accumulate"
       inkscape:connector-curvature="0" />
    <path
       d="m 1.57504,5.476667 c 0.65431,0 12.44092,0.0251 12.94828,0.0251 0,0.49259 -0.0246,7.97055 -0.0539,7.97055 -4.54455,0.0142 -11.62285,-0.0111 -12.9461,-0.0111 0,-0.92965 0.0517,-6.07138 0.0517,-7.98455 z"
       id="rect3086-9"
       style="color:#000000;display:inline;overflow:visible;visibility:visible;opacity:0.5;fill:none;stroke:url(#linearGradient10270-0);stroke-width:1.00000012;stroke-linecap:round;stroke-linejoin:miter;stroke-miterlimit:4;stroke-dasharray:none;stroke-dashoffset:0;stroke-opacity:1;marker:none;enable-background:accumulate"
       inkscape:connector-curvature="0" />
    <path
       d="m 0.55988,4.453367 c 0.75732,0 14.39951,0.0316 14.98675,0.0316 0,0.6186 -0.0285,10.00962 -0.0624,10.00962 -5.26001,0.0178 -13.45265,-0.014 -14.98423,-0.014 0,-1.16748 0.0599,-7.62459 0.0599,-10.02721 z"
       id="rect3086-0"
       style="opacity:0.3;color:#000000;fill:none;stroke:#000000;stroke-width:1;stroke-linecap:round;stroke-linejoin:round;stroke-miterlimit:4;stroke-opacity:1;stroke-dasharray:none;stroke-dashoffset:0;marker:none;visibility:visible;display:inline;overflow:visible;enable-background:accumulate" />
  </g>
  <g
     transform="matrix(0.15217368,0,0,0.15217368,0.7973583,1.4602132)"
     id="layer6"
     style="fill:#1b63a5;fill-opacity:1">
    <path
       d="M 48,32 C 37.25126,32 26.51351,36.11149 18.3125,44.3125 L 23.25,49.25 c 13.66835,-13.66835 35.83165,-13.66835 49.5,0 l 4.9375,-4.9375 C 69.48649,36.11149 58.74874,32 48,32 Z m 0,14 c -7.16583,0 -14.34516,2.72016 -19.8125,8.1875 l 4.96875,4.96875 c 8.20101,-8.20101 21.48649,-8.20101 29.6875,0 L 67.8125,54.1875 C 62.34516,48.72016 55.16582,46 48,46 Z m 0,14 c -3.58291,0 -7.17258,1.36008 -9.90625,4.09375 L 48,74 57.90625,64.09375 C 55.17258,61.36008 51.58291,60 48,60 Z"
       id="path3717"
       style="opacity:0.9;fill:#482e89;fill-opacity:1;stroke:none" />
    <path
       d="M 48,32 C 37.25126,32 26.51351,36.11149 18.3125,44.3125 L 23.25,49.25 c 13.66835,-13.66835 35.83165,-13.66835 49.5,0 l 4.9375,-4.9375 C 69.48649,36.11149 58.74874,32 48,32 Z m 0,1.9375 c 9.634016,0 19.191168,3.585307 26.8125,10.5 L 72.625,46.625 c -14.004357,-12.590034 -35.245643,-12.590034 -49.25,0 L 21.1875,44.4375 C 28.808832,37.522807 38.365984,33.9375 48,33.9375 Z M 48,46 c -7.16583,0 -14.34516,2.72016 -19.8125,8.1875 l 4.96875,4.96875 c 8.20101,-8.20101 21.48649,-8.20101 29.6875,0 L 67.8125,54.1875 C 62.34516,48.72016 55.16582,46 48,46 Z m 0,1.9375 c 6.055974,0 12.063379,2.183175 16.9375,6.375 l -2.21875,2.21875 c -8.505192,-7.1633 -20.932308,-7.1633 -29.4375,0 L 31.0625,54.3125 C 35.93662,50.120674 41.944017,47.9375 48,47.9375 Z M 48,60 c -3.58291,0 -7.17258,1.36008 -9.90625,4.09375 L 48,74 57.90625,64.09375 C 55.17258,61.36008 51.58291,60 48,60 Z m 0,1.9375 c 2.450727,0 4.791706,0.957137 6.875,2.4375 L 48,71.25 41.125,64.375 C 43.208294,62.894637 45.549273,61.9375 48,61.9375 Z"
       id="path3920"
       style="opacity:0.25;fill:#482e89;fill-opacity:1;stroke:none" />
    <path
       d="M 48,32 C 37.25126,32 26.51351,36.11149 18.3125,44.3125 L 23.25,49.25 c 13.66835,-13.66835 35.83165,-13.66835 49.5,0 l 4.9375,-4.9375 C 69.48649,36.11149 58.74874,32 48,32 Z m 0,1.03125 c 10.164734,0 20.283568,3.822257 28.1875,11.34375 l -3.5,3.5 c -13.860522,-13.096513 -35.514478,-13.096513 -49.375,0 l -3.5,-3.5 C 27.716432,36.853507 37.835266,33.03125 48,33.03125 Z M 48,46 c -7.16583,0 -14.34516,2.72016 -19.8125,8.1875 l 4.96875,4.96875 c 8.20101,-8.20101 21.48649,-8.20101 29.6875,0 L 67.8125,54.1875 C 62.34516,48.72016 55.16582,46 48,46 Z m 0,1.03125 c 6.583583,0 13.146038,2.430754 18.3125,7.21875 l -3.53125,3.53125 c -8.381706,-7.634738 -21.180794,-7.634738 -29.5625,0 L 29.6875,54.25 C 34.853961,49.462004 41.416407,47.03125 48,47.03125 Z M 48,60 c -3.58291,0 -7.17258,1.36008 -9.90625,4.09375 L 48,74 57.90625,64.09375 C 55.17258,61.36008 51.58291,60 48,60 Z m 0,1.03125 c 2.999513,0 5.98577,1.060256 8.40625,3.125 L 48,72.5625 39.59375,64.15625 c 2.42048,-2.064744 5.406737,-3.125 8.40625,-3.125 z"
       id="path3907"
       style="opacity:0.5;fill:#482e89;fill-opacity:1;stroke:none"
       inkscape:connector-curvature="0" />
    <path
       d="M 48,32 C 37.25126,32 26.51351,36.11149 18.3125,44.3125 l 0.5,0.5 C 26.946568,36.942243 37.470531,33 48,33 c 10.529469,0 21.053432,3.942243 29.1875,11.8125 l 0.5,-0.5 C 69.48649,36.11149 58.74874,32 48,32 Z m 0,14 c -7.16583,0 -14.34516,2.72016 -19.8125,8.1875 l 0.5,0.5 C 34.08716,49.552139 41.054605,47 48,47 c 6.945385,0 13.91284,2.552139 19.3125,7.6875 l 0.5,-0.5 C 62.34516,48.72016 55.16582,46 48,46 Z m 0,14 c -3.58291,0 -7.17258,1.36008 -9.90625,4.09375 L 38.625,64.625 C 41.286187,62.2184 44.637743,61 48,61 c 3.362257,0 6.713813,1.2184 9.375,3.625 l 0.53125,-0.53125 C 55.17258,61.36008 51.58291,60 48,60 Z"
       id="path3898"
       style="fill:#1e2832;fill-opacity:1;stroke:none"
       inkscape:connector-curvature="0" />
    <path
       d="m 48,30 c -11.258055,0 -22.51257,4.32507 -31.09375,12.90625 -0.0015,0.0015 -0.06111,0.06096 -0.0625,0.0625 -0.0014,0.0015 -0.06119,0.09215 -0.0625,0.09375 -0.0013,0.0016 -0.06127,0.06083 -0.0625,0.0625 -0.0012,0.0017 -0.06135,0.09203 -0.0625,0.09375 -0.0012,0.0017 -0.06143,0.06072 -0.0625,0.0625 -0.0011,0.0018 -0.03027,0.09192 -0.03125,0.09375 -9.77e-4,0.0018 -0.06161,0.09188 -0.0625,0.09375 -8.86e-4,0.0019 -0.03046,0.09183 -0.03125,0.09375 -7.93e-4,0.0019 -0.03055,0.0918 -0.03125,0.09375 -6.98e-4,0.002 -0.03065,0.06052 -0.03125,0.0625 -6.01e-4,0.002 -0.03075,0.09174 -0.03125,0.09375 -5.03e-4,0.002 -0.03085,0.122967 -0.03125,0.125 -4.04e-4,0.002 3.04e-4,0.0917 0,0.09375 -3.04e-4,0.0021 -0.03105,0.09169 -0.03125,0.09375 -2.03e-4,0.0021 1.02e-4,0.09168 0,0.09375 -1.02e-4,0.0021 0,0.09168 0,0.09375 0,0.0021 -1.02e-4,0.09168 0,0.09375 1.02e-4,0.0021 -2.03e-4,0.09169 0,0.09375 2.03e-4,0.0021 0.03095,0.0917 0.03125,0.09375 3.04e-4,0.0021 -4.04e-4,0.09172 0,0.09375 4.04e-4,0.002 0.03075,0.122989 0.03125,0.125 5.03e-4,0.002 0.03065,0.09177 0.03125,0.09375 6.01e-4,0.002 0.03055,0.06055 0.03125,0.0625 6.98e-4,0.002 0.03046,0.09183 0.03125,0.09375 7.93e-4,0.0019 0.03036,0.09188 0.03125,0.09375 8.86e-4,0.0019 0.06152,0.09192 0.0625,0.09375 9.77e-4,0.0018 0.03018,0.09197 0.03125,0.09375 0.0011,0.0018 0.06135,0.06078 0.0625,0.0625 0.0012,0.0017 0.06127,0.09208 0.0625,0.09375 0.0012,0.0017 0.06119,0.0609 0.0625,0.0625 0.0013,0.0016 0.06111,0.09221 0.0625,0.09375 0.0014,0.0015 0.06104,0.06103 0.0625,0.0625 l 4.9375,4.9375 c 0.0015,0.0015 0.06096,0.06111 0.0625,0.0625 0.0015,0.0014 0.09215,0.06119 0.09375,0.0625 0.0016,0.0013 0.06083,0.06127 0.0625,0.0625 0.0017,0.0012 0.09203,0.06135 0.09375,0.0625 0.0017,0.0012 0.06072,0.06144 0.0625,0.0625 0.0018,0.0011 0.09192,0.03027 0.09375,0.03125 0.0018,9.77e-4 0.09188,0.06161 0.09375,0.0625 0.0019,8.86e-4 0.09183,0.03046 0.09375,0.03125 0.0019,7.93e-4 0.0918,0.03055 0.09375,0.03125 0.002,6.98e-4 0.06052,0.03065 0.0625,0.03125 0.002,6.01e-4 0.09174,0.03075 0.09375,0.03125 0.002,5.03e-4 0.122967,0.03085 0.125,0.03125 0.002,4.04e-4 0.0917,-3.04e-4 0.09375,0 0.0021,3.04e-4 0.09169,0.03105 0.09375,0.03125 0.0021,2.03e-4 0.09168,-1.02e-4 0.09375,0 0.0021,1.02e-4 0.09168,0 0.09375,0 0.0021,0 0.09168,1.02e-4 0.09375,0 0.0021,-1.02e-4 0.09169,2.03e-4 0.09375,0 0.0021,-2.03e-4 0.0917,-0.03095 0.09375,-0.03125 0.0021,-3.04e-4 0.09172,4.04e-4 0.09375,0 0.002,-4.04e-4 0.122989,-0.03075 0.125,-0.03125 0.002,-5.03e-4 0.09177,-0.03065 0.09375,-0.03125 0.002,-6.01e-4 0.06055,-0.03055 0.0625,-0.03125 0.002,-6.98e-4 0.09183,-0.03046 0.09375,-0.03125 0.0019,-7.93e-4 0.09188,-0.03036 0.09375,-0.03125 0.0019,-8.86e-4 0.09192,-0.06152 0.09375,-0.0625 0.0018,-9.77e-4 0.09197,-0.03019 0.09375,-0.03125 0.0018,-0.0011 0.06078,-0.06135 0.0625,-0.0625 0.0017,-0.0012 0.09208,-0.06127 0.09375,-0.0625 0.0017,-0.0012 0.0609,-0.06119 0.0625,-0.0625 0.0016,-0.0013 0.09221,-0.06111 0.09375,-0.0625 0.0015,-0.0014 0.06103,-0.06103 0.0625,-0.0625 12.906109,-12.906109 33.781391,-12.906109 46.6875,0 0.0015,0.0015 0.06096,0.06111 0.0625,0.0625 0.0015,0.0014 0.09215,0.06119 0.09375,0.0625 0.0016,0.0013 0.06083,0.06127 0.0625,0.0625 0.0017,0.0012 0.09203,0.06135 0.09375,0.0625 0.0017,0.0012 0.06072,0.06144 0.0625,0.0625 0.0018,0.0011 0.09192,0.03027 0.09375,0.03125 0.0018,9.77e-4 0.09188,0.06161 0.09375,0.0625 0.0019,8.86e-4 0.09183,0.03046 0.09375,0.03125 0.0019,7.93e-4 0.0918,0.03055 0.09375,0.03125 0.002,6.98e-4 0.06052,0.03065 0.0625,0.03125 0.002,6.01e-4 0.09174,0.03075 0.09375,0.03125 0.002,5.03e-4 0.122967,0.03085 0.125,0.03125 0.002,4.04e-4 0.0917,-3.04e-4 0.09375,0 0.0021,3.04e-4 0.09169,0.03105 0.09375,0.03125 0.0021,2.03e-4 0.09168,-1.02e-4 0.09375,0 0.0021,1.02e-4 0.09168,0 0.09375,0 0.0021,0 0.09168,1.02e-4 0.09375,0 0.0021,-1.02e-4 0.09169,2.03e-4 0.09375,0 0.0021,-2.03e-4 0.0917,-0.03095 0.09375,-0.03125 0.0021,-3.04e-4 0.09172,4.04e-4 0.09375,0 0.002,-4.04e-4 0.122989,-0.03075 0.125,-0.03125 0.002,-5.03e-4 0.09177,-0.03065 0.09375,-0.03125 0.002,-6.01e-4 0.06055,-0.03055 0.0625,-0.03125 0.002,-6.98e-4 0.09183,-0.03046 0.09375,-0.03125 0.0019,-7.93e-4 0.09188,-0.03036 0.09375,-0.03125 0.0019,-8.86e-4 0.09192,-0.06152 0.09375,-0.0625 0.0018,-9.77e-4 0.09197,-0.03019 0.09375,-0.03125 0.0018,-0.0011 0.06078,-0.06135 0.0625,-0.0625 0.0017,-0.0012 0.09208,-0.06127 0.09375,-0.0625 0.0017,-0.0012 0.0609,-0.06119 0.0625,-0.0625 0.0016,-0.0013 0.09221,-0.06111 0.09375,-0.0625 0.0015,-0.0014 0.06103,-0.06103 0.0625,-0.0625 l 4.9375,-4.9375 c 0.0015,-0.0015 0.06111,-0.06096 0.0625,-0.0625 0.0014,-0.0015 0.06119,-0.09215 0.0625,-0.09375 0.0013,-0.0016 0.06127,-0.06083 0.0625,-0.0625 0.0012,-0.0017 0.06135,-0.09203 0.0625,-0.09375 0.0012,-0.0017 0.06144,-0.06072 0.0625,-0.0625 0.0011,-0.0018 0.03027,-0.09192 0.03125,-0.09375 9.77e-4,-0.0018 0.06161,-0.09188 0.0625,-0.09375 8.86e-4,-0.0019 0.03046,-0.09183 0.03125,-0.09375 7.93e-4,-0.0019 0.03055,-0.0918 0.03125,-0.09375 6.98e-4,-0.002 0.03065,-0.06052 0.03125,-0.0625 6.01e-4,-0.002 0.03075,-0.09174 0.03125,-0.09375 5.03e-4,-0.002 0.03085,-0.122967 0.03125,-0.125 4.04e-4,-0.002 -3.04e-4,-0.0917 0,-0.09375 3.04e-4,-0.0021 0.03105,-0.09169 0.03125,-0.09375 2.03e-4,-0.0021 -1.02e-4,-0.09168 0,-0.09375 1.02e-4,-0.0021 0,-0.09168 0,-0.09375 0,-0.0021 1.02e-4,-0.09168 0,-0.09375 -1.02e-4,-0.0021 2.03e-4,-0.09169 0,-0.09375 -2.03e-4,-0.0021 -0.03095,-0.0917 -0.03125,-0.09375 -3.04e-4,-0.0021 4.04e-4,-0.09172 0,-0.09375 -4.04e-4,-0.002 -0.03075,-0.122989 -0.03125,-0.125 -5.03e-4,-0.002 -0.03065,-0.09177 -0.03125,-0.09375 -6.01e-4,-0.002 -0.03055,-0.06055 -0.03125,-0.0625 -6.98e-4,-0.002 -0.03046,-0.09183 -0.03125,-0.09375 -7.93e-4,-0.0019 -0.03036,-0.09188 -0.03125,-0.09375 -8.86e-4,-0.0019 -0.06152,-0.09192 -0.0625,-0.09375 -9.77e-4,-0.0018 -0.03019,-0.09197 -0.03125,-0.09375 -0.0011,-0.0018 -0.06135,-0.06078 -0.0625,-0.0625 -0.0012,-0.0017 -0.06127,-0.09208 -0.0625,-0.09375 -0.0012,-0.0017 -0.06119,-0.0609 -0.0625,-0.0625 -0.0013,-0.0016 -0.06111,-0.09221 -0.0625,-0.09375 -0.0014,-0.0015 -0.06104,-0.06103 -0.0625,-0.0625 C 70.51257,34.32507 59.258055,30 48,30 Z m 0,2 c 10.74874,0 21.48649,4.11149 29.6875,12.3125 L 72.75,49.25 C 59.08165,35.58165 36.91835,35.58165 23.25,49.25 L 18.3125,44.3125 C 26.51351,36.11149 37.25126,32 48,32 Z m 0,12 c -7.671436,0 -15.367651,2.930151 -21.21875,8.78125 -0.0015,0.0015 -0.06111,0.06096 -0.0625,0.0625 -0.0014,0.0015 -0.06119,0.09215 -0.0625,0.09375 -0.0013,0.0016 -0.06127,0.06083 -0.0625,0.0625 -0.0012,0.0017 -0.06135,0.09203 -0.0625,0.09375 -0.0012,0.0017 -0.06143,0.06072 -0.0625,0.0625 -0.0011,0.0018 -0.03027,0.09192 -0.03125,0.09375 -9.77e-4,0.0018 -0.06161,0.09188 -0.0625,0.09375 -8.86e-4,0.0019 -0.03046,0.09183 -0.03125,0.09375 -7.93e-4,0.0019 -0.03055,0.0918 -0.03125,0.09375 -6.98e-4,0.002 -0.03065,0.06052 -0.03125,0.0625 -6.01e-4,0.002 -0.03075,0.09174 -0.03125,0.09375 -5.03e-4,0.002 -0.03085,0.122967 -0.03125,0.125 -4.04e-4,0.002 3.04e-4,0.0917 0,0.09375 -3.04e-4,0.0021 -0.03105,0.09169 -0.03125,0.09375 -2.03e-4,0.0021 1.02e-4,0.09168 0,0.09375 -1.02e-4,0.0021 0,0.09168 0,0.09375 0,0.0021 -1.02e-4,0.09168 0,0.09375 1.02e-4,0.0021 -2.03e-4,0.09169 0,0.09375 2.03e-4,0.0021 0.03095,0.0917 0.03125,0.09375 3.04e-4,0.0021 -4.04e-4,0.09172 0,0.09375 4.04e-4,0.002 0.03075,0.122989 0.03125,0.125 5.03e-4,0.002 0.03065,0.09177 0.03125,0.09375 6.01e-4,0.002 0.03055,0.06055 0.03125,0.0625 6.98e-4,0.002 0.03046,0.09183 0.03125,0.09375 7.93e-4,0.0019 0.03036,0.09188 0.03125,0.09375 8.86e-4,0.0019 0.06152,0.09192 0.0625,0.09375 9.77e-4,0.0018 0.03018,0.09197 0.03125,0.09375 0.0011,0.0018 0.06135,0.06078 0.0625,0.0625 0.0012,0.0017 0.06127,0.09208 0.0625,0.09375 0.0012,0.0017 0.06119,0.0609 0.0625,0.0625 0.0013,0.0016 0.06111,0.09221 0.0625,0.09375 0.0014,0.0015 0.06104,0.06103 0.0625,0.0625 L 31.75,60.5625 c 0.0015,0.0015 0.06096,0.06111 0.0625,0.0625 0.0015,0.0014 0.09215,0.06119 0.09375,0.0625 0.0016,0.0013 0.06083,0.06127 0.0625,0.0625 0.0017,0.0012 0.09203,0.06135 0.09375,0.0625 0.0017,0.0012 0.06072,0.06144 0.0625,0.0625 0.0018,0.0011 0.09192,0.03027 0.09375,0.03125 0.0018,9.77e-4 0.09188,0.06161 0.09375,0.0625 0.0019,8.86e-4 0.09183,0.03046 0.09375,0.03125 0.0019,7.93e-4 0.0918,0.03055 0.09375,0.03125 0.002,6.98e-4 0.06052,0.03065 0.0625,0.03125 0.002,6.01e-4 0.09174,0.03075 0.09375,0.03125 0.002,5.03e-4 0.122967,0.03085 0.125,0.03125 0.002,4.04e-4 0.0917,-3.04e-4 0.09375,0 0.0021,3.04e-4 0.09169,0.03105 0.09375,0.03125 0.0021,2.03e-4 0.09168,-1.02e-4 0.09375,0 0.0021,1.02e-4 0.09168,0 0.09375,0 0.0021,0 0.09168,1.02e-4 0.09375,0 0.0021,-1.02e-4 0.09169,2.03e-4 0.09375,0 0.0021,-2.03e-4 0.0917,-0.03095 0.09375,-0.03125 0.0021,-3.04e-4 0.09172,4.04e-4 0.09375,0 0.002,-4.04e-4 0.122989,-0.03075 0.125,-0.03125 0.002,-5.03e-4 0.09177,-0.03065 0.09375,-0.03125 0.002,-6.01e-4 0.06055,-0.03055 0.0625,-0.03125 0.002,-6.98e-4 0.09183,-0.03046 0.09375,-0.03125 0.0019,-7.93e-4 0.09188,-0.03036 0.09375,-0.03125 0.0019,-8.86e-4 0.09192,-0.06152 0.09375,-0.0625 0.0018,-9.77e-4 0.09197,-0.03019 0.09375,-0.03125 0.0018,-0.0011 0.06078,-0.06135 0.0625,-0.0625 0.0017,-0.0012 0.09208,-0.06127 0.09375,-0.0625 0.0017,-0.0012 0.0609,-0.06119 0.0625,-0.0625 0.0016,-0.0013 0.09221,-0.06111 0.09375,-0.0625 0.0015,-0.0014 0.06103,-0.06103 0.0625,-0.0625 7.439906,-7.439906 19.435094,-7.439906 26.875,0 0.0015,0.0015 0.06096,0.06111 0.0625,0.0625 0.0015,0.0014 0.09215,0.06119 0.09375,0.0625 0.0016,0.0013 0.06083,0.06127 0.0625,0.0625 0.0017,0.0012 0.09203,0.06135 0.09375,0.0625 0.0017,0.0012 0.06072,0.06144 0.0625,0.0625 0.0018,0.0011 0.09192,0.03027 0.09375,0.03125 0.0018,9.77e-4 0.09188,0.06161 0.09375,0.0625 0.0019,8.86e-4 0.09183,0.03046 0.09375,0.03125 0.0019,7.93e-4 0.0918,0.03055 0.09375,0.03125 0.002,6.98e-4 0.06052,0.03065 0.0625,0.03125 0.002,6.01e-4 0.09174,0.03075 0.09375,0.03125 0.002,5.03e-4 0.122967,0.03085 0.125,0.03125 0.002,4.04e-4 0.0917,-3.04e-4 0.09375,0 0.0021,3.04e-4 0.09169,0.03105 0.09375,0.03125 0.0021,2.03e-4 0.09168,-1.02e-4 0.09375,0 0.0021,1.02e-4 0.09168,0 0.09375,0 0.0021,0 0.09168,1.02e-4 0.09375,0 0.0021,-1.02e-4 0.09169,2.03e-4 0.09375,0 0.0021,-2.03e-4 0.0917,-0.03095 0.09375,-0.03125 0.0021,-3.04e-4 0.09172,4.04e-4 0.09375,0 0.002,-4.04e-4 0.122989,-0.03075 0.125,-0.03125 0.002,-5.03e-4 0.09177,-0.03065 0.09375,-0.03125 0.002,-6.01e-4 0.06055,-0.03055 0.0625,-0.03125 0.002,-6.98e-4 0.09183,-0.03046 0.09375,-0.03125 0.0019,-7.93e-4 0.09188,-0.03036 0.09375,-0.03125 0.0019,-8.86e-4 0.09192,-0.06152 0.09375,-0.0625 0.0018,-9.77e-4 0.09197,-0.03019 0.09375,-0.03125 0.0018,-0.0011 0.06078,-0.06135 0.0625,-0.0625 0.0017,-0.0012 0.09208,-0.06127 0.09375,-0.0625 0.0017,-0.0012 0.0609,-0.06119 0.0625,-0.0625 0.0016,-0.0013 0.09221,-0.06111 0.09375,-0.0625 0.0015,-0.0014 0.06103,-0.06103 0.0625,-0.0625 l 4.96875,-4.96875 c 0.0015,-0.0015 0.06111,-0.06096 0.0625,-0.0625 0.0014,-0.0015 0.06119,-0.09215 0.0625,-0.09375 0.0013,-0.0016 0.06127,-0.06083 0.0625,-0.0625 0.0012,-0.0017 0.06135,-0.09203 0.0625,-0.09375 0.0012,-0.0017 0.06144,-0.06072 0.0625,-0.0625 0.0011,-0.0018 0.03027,-0.09192 0.03125,-0.09375 9.77e-4,-0.0018 0.06161,-0.09188 0.0625,-0.09375 8.86e-4,-0.0019 0.03046,-0.09183 0.03125,-0.09375 7.93e-4,-0.0019 0.03055,-0.0918 0.03125,-0.09375 6.98e-4,-0.002 0.03065,-0.06052 0.03125,-0.0625 6.01e-4,-0.002 0.03075,-0.09174 0.03125,-0.09375 5.03e-4,-0.002 0.03085,-0.122967 0.03125,-0.125 4.04e-4,-0.002 -3.04e-4,-0.0917 0,-0.09375 3.04e-4,-0.0021 0.03105,-0.09169 0.03125,-0.09375 2.03e-4,-0.0021 -1.02e-4,-0.09168 0,-0.09375 1.02e-4,-0.0021 0,-0.09168 0,-0.09375 0,-0.0021 1.02e-4,-0.09168 0,-0.09375 -1.02e-4,-0.0021 2.03e-4,-0.09169 0,-0.09375 -2.03e-4,-0.0021 -0.03095,-0.0917 -0.03125,-0.09375 -3.04e-4,-0.0021 4.04e-4,-0.09172 0,-0.09375 -4.04e-4,-0.002 -0.03075,-0.122989 -0.03125,-0.125 -5.03e-4,-0.002 -0.03065,-0.09177 -0.03125,-0.09375 -6.01e-4,-0.002 -0.03055,-0.06055 -0.03125,-0.0625 -6.98e-4,-0.002 -0.03046,-0.09183 -0.03125,-0.09375 -7.93e-4,-0.0019 -0.03036,-0.09188 -0.03125,-0.09375 -8.86e-4,-0.0019 -0.06152,-0.09192 -0.0625,-0.09375 -9.77e-4,-0.0018 -0.03019,-0.09197 -0.03125,-0.09375 -0.0011,-0.0018 -0.06135,-0.06078 -0.0625,-0.0625 -0.0012,-0.0017 -0.06127,-0.09208 -0.0625,-0.09375 -0.0012,-0.0017 -0.06119,-0.0609 -0.0625,-0.0625 -0.0013,-0.0016 -0.06111,-0.09221 -0.0625,-0.09375 -0.0014,-0.0015 -0.06104,-0.06103 -0.0625,-0.0625 C 63.367651,46.930151 55.671427,44 48,44 Z m 0,2 c 7.16582,0 14.34516,2.72016 19.8125,8.1875 l -4.96875,4.96875 c -8.20101,-8.20101 -21.48649,-8.20101 -29.6875,0 L 28.1875,54.1875 C 33.65484,48.72016 40.83417,46 48,46 Z m 0,12 c -4.089027,0 -8.194979,1.569979 -11.3125,4.6875 -0.0015,0.0015 -0.06111,0.06096 -0.0625,0.0625 -0.0014,0.0015 -0.06119,0.09215 -0.0625,0.09375 -0.0013,0.0016 -0.06127,0.06083 -0.0625,0.0625 -0.0012,0.0017 -0.06135,0.09203 -0.0625,0.09375 -0.0012,0.0017 -0.06144,0.06072 -0.0625,0.0625 -0.0011,0.0018 -0.03027,0.09192 -0.03125,0.09375 -9.77e-4,0.0018 -0.06161,0.09188 -0.0625,0.09375 -8.86e-4,0.0019 -0.03046,0.09183 -0.03125,0.09375 -7.93e-4,0.0019 -0.03055,0.0918 -0.03125,0.09375 -6.98e-4,0.002 -0.03065,0.06052 -0.03125,0.0625 -6.01e-4,0.002 -0.03075,0.09174 -0.03125,0.09375 -5.03e-4,0.002 -0.03085,0.122967 -0.03125,0.125 -4.04e-4,0.002 3.04e-4,0.0917 0,0.09375 -3.04e-4,0.0021 -0.03105,0.09169 -0.03125,0.09375 -2.03e-4,0.0021 1.02e-4,0.09168 0,0.09375 -1.02e-4,0.0021 0,0.09168 0,0.09375 0,0.0021 -1.02e-4,0.09168 0,0.09375 1.02e-4,0.0021 -2.03e-4,0.09169 0,0.09375 2.03e-4,0.0021 0.03095,0.0917 0.03125,0.09375 3.04e-4,0.0021 -4.04e-4,0.09172 0,0.09375 4.04e-4,0.002 0.03075,0.122989 0.03125,0.125 5.03e-4,0.002 0.03065,0.09177 0.03125,0.09375 6.01e-4,0.002 0.03055,0.06055 0.03125,0.0625 6.98e-4,0.002 0.03046,0.09183 0.03125,0.09375 7.93e-4,0.0019 0.03036,0.09188 0.03125,0.09375 8.86e-4,0.0019 0.06152,0.09192 0.0625,0.09375 9.77e-4,0.0018 0.03019,0.09197 0.03125,0.09375 0.0011,0.0018 0.06135,0.06078 0.0625,0.0625 0.0012,0.0017 0.06127,0.09208 0.0625,0.09375 0.0012,0.0017 0.06119,0.0609 0.0625,0.0625 0.0013,0.0016 0.06111,0.09221 0.0625,0.09375 0.0014,0.0015 0.06103,0.06103 0.0625,0.0625 l 9.90625,9.90625 c 0.0015,0.0015 0.06096,0.06111 0.0625,0.0625 0.0015,0.0014 0.09215,0.06119 0.09375,0.0625 0.0016,0.0013 0.06083,0.06127 0.0625,0.0625 0.0017,0.0012 0.09203,0.06135 0.09375,0.0625 0.0017,0.0012 0.06072,0.06144 0.0625,0.0625 0.0018,0.0011 0.09192,0.03027 0.09375,0.03125 0.0018,9.77e-4 0.09188,0.06161 0.09375,0.0625 0.0019,8.86e-4 0.09183,0.03046 0.09375,0.03125 0.0019,7.93e-4 0.0918,0.03055 0.09375,0.03125 0.002,6.98e-4 0.06052,0.03065 0.0625,0.03125 0.002,6.01e-4 0.09174,0.03075 0.09375,0.03125 0.002,5.03e-4 0.122967,0.03085 0.125,0.03125 0.002,4.04e-4 0.0917,-3.04e-4 0.09375,0 0.0021,3.04e-4 0.09169,0.03105 0.09375,0.03125 0.0021,2.03e-4 0.09168,-1.02e-4 0.09375,0 0.0021,1.02e-4 0.09168,0 0.09375,0 0.0021,0 0.09168,1.02e-4 0.09375,0 0.0021,-1.02e-4 0.09169,2.03e-4 0.09375,0 0.0021,-2.03e-4 0.0917,-0.03095 0.09375,-0.03125 0.0021,-3.04e-4 0.09172,4.04e-4 0.09375,0 0.002,-4.04e-4 0.122989,-0.03075 0.125,-0.03125 0.002,-5.03e-4 0.09177,-0.03065 0.09375,-0.03125 0.002,-6.01e-4 0.06055,-0.03055 0.0625,-0.03125 0.002,-6.98e-4 0.09183,-0.03046 0.09375,-0.03125 0.0019,-7.93e-4 0.09188,-0.03036 0.09375,-0.03125 0.0019,-8.86e-4 0.09192,-0.06152 0.09375,-0.0625 0.0018,-9.77e-4 0.09197,-0.03019 0.09375,-0.03125 0.0018,-0.0011 0.06078,-0.06135 0.0625,-0.0625 0.0017,-0.0012 0.09208,-0.06127 0.09375,-0.0625 0.0017,-0.0012 0.0609,-0.06119 0.0625,-0.0625 0.0016,-0.0013 0.09221,-0.06111 0.09375,-0.0625 0.0015,-0.0014 0.06103,-0.06104 0.0625,-0.0625 L 59.3125,65.5 c 0.0015,-0.0015 0.06111,-0.06096 0.0625,-0.0625 0.0014,-0.0015 0.06119,-0.09215 0.0625,-0.09375 0.0013,-0.0016 0.06127,-0.06083 0.0625,-0.0625 0.0012,-0.0017 0.06135,-0.09203 0.0625,-0.09375 0.0012,-0.0017 0.06144,-0.06072 0.0625,-0.0625 0.0011,-0.0018 0.03027,-0.09192 0.03125,-0.09375 9.77e-4,-0.0018 0.06161,-0.09188 0.0625,-0.09375 8.86e-4,-0.0019 0.03046,-0.09183 0.03125,-0.09375 7.93e-4,-0.0019 0.03055,-0.0918 0.03125,-0.09375 6.98e-4,-0.002 0.03065,-0.06052 0.03125,-0.0625 6.01e-4,-0.002 0.03075,-0.09174 0.03125,-0.09375 5.03e-4,-0.002 0.03085,-0.122967 0.03125,-0.125 4.04e-4,-0.002 -3.04e-4,-0.0917 0,-0.09375 3.04e-4,-0.0021 0.03105,-0.09169 0.03125,-0.09375 2.03e-4,-0.0021 -1.02e-4,-0.09168 0,-0.09375 1.02e-4,-0.0021 0,-0.09168 0,-0.09375 0,-0.0021 1.02e-4,-0.09168 0,-0.09375 -1.02e-4,-0.0021 2.03e-4,-0.09169 0,-0.09375 -2.03e-4,-0.0021 -0.03095,-0.0917 -0.03125,-0.09375 -3.04e-4,-0.0021 4.04e-4,-0.09172 0,-0.09375 -4.04e-4,-0.002 -0.03075,-0.122989 -0.03125,-0.125 C 59.843247,63.59175 59.8131,63.50198 59.8125,63.5 59.811899,63.498 59.78195,63.43945 59.78125,63.4375 59.780552,63.4355 59.75079,63.34567 59.75,63.34375 59.749207,63.34185 59.71964,63.25187 59.71875,63.25 59.717864,63.2481 59.65723,63.15808 59.65625,63.15625 59.655273,63.15445 59.62606,63.06428 59.625,63.0625 59.6239,63.0607 59.56365,63.00172 59.5625,63 59.5613,62.9983 59.50123,62.90792 59.5,62.90625 59.4988,62.90455 59.43881,62.84535 59.4375,62.84375 59.4362,62.84215 59.37639,62.75154 59.375,62.75 59.3736,62.7485 59.31397,62.68897 59.3125,62.6875 56.194979,59.569979 52.089027,58 48,58 Z m 0,2 c 3.58291,0 7.17258,1.36008 9.90625,4.09375 L 48,74 38.09375,64.09375 C 40.82742,61.36008 44.41709,60 48,60 Z"
       id="path3942"
       style="opacity:0.05;fill:#482e89;fill-opacity:1;stroke:none"
       inkscape:connector-curvature="0" />
    <path
       d="m 48,30.9375 c -11.019358,0 -22.034387,4.221887 -30.4375,12.625 a 1.0613296,1.0613296 0 0 0 0,1.5 L 22.5,50 A 1.0613296,1.0613296 0 0 0 24,50 C 37.262758,36.737242 58.737242,36.737242 72,50 a 1.0613296,1.0613296 0 0 0 1.5,0 l 4.9375,-4.9375 a 1.0613296,1.0613296 0 0 0 0,-1.5 C 70.034387,35.159387 59.019358,30.9375 48,30.9375 Z M 48,32 c 10.74874,0 21.48649,4.11149 29.6875,12.3125 L 72.75,49.25 C 59.08165,35.58165 36.91835,35.58165 23.25,49.25 L 18.3125,44.3125 C 26.51351,36.11149 37.25126,32 48,32 Z m 0,12.9375 c -7.434391,0 -14.891151,2.828651 -20.5625,8.5 a 1.0613296,1.0613296 0 0 0 0,1.5 l 4.96875,4.96875 a 1.0613296,1.0613296 0 0 0 1.5,0 c 7.7958,-7.7958 20.3917,-7.7958 28.1875,0 a 1.0613296,1.0613296 0 0 0 1.5,0 L 68.5625,54.9375 a 1.0613296,1.0613296 0 0 0 0,-1.5 C 62.891151,47.766151 55.434382,44.9375 48,44.9375 Z M 48,46 c 7.16582,0 14.34516,2.72016 19.8125,8.1875 l -4.96875,4.96875 c -8.20101,-8.20101 -21.48649,-8.20101 -29.6875,0 L 28.1875,54.1875 C 33.65484,48.72016 40.83417,46 48,46 Z m 0,12.9375 c -3.851472,0 -7.718571,1.468571 -10.65625,4.40625 a 1.0613296,1.0613296 0 0 0 0,1.5 L 47.25,74.75 a 1.0613296,1.0613296 0 0 0 1.5,0 l 9.90625,-9.90625 a 1.0613296,1.0613296 0 0 0 0,-1.5 C 55.718571,60.406071 51.851472,58.9375 48,58.9375 Z M 48,60 c 3.58291,0 7.17258,1.36008 9.90625,4.09375 L 48,74 38.09375,64.09375 C 40.82742,61.36008 44.41709,60 48,60 Z"
       id="path3938"
       style="opacity:0.1;fill:#482e89;fill-opacity:1;stroke:none"
       inkscape:connector-curvature="0" />
    <path
       d="m 48,39 c -8.957912,0 -17.915825,3.415825 -24.75,10.25 l -4.4375,-4.4375 c -0.169388,0.163894 -0.332702,0.332702 -0.5,0.5 L 23.25,50.25 c 13.66835,-13.66835 35.83165,-13.66835 49.5,0 l 4.9375,-4.9375 c -0.167298,-0.167298 -0.330612,-0.336106 -0.5,-0.5 L 72.75,49.25 C 65.915825,42.415825 56.957912,39 48,39 Z m 0,14 c -5.371623,0 -10.743245,2.055745 -14.84375,6.15625 L 28.6875,54.6875 c -0.171376,0.162988 -0.331814,0.331814 -0.5,0.5 l 4.96875,4.96875 c 8.20101,-8.20101 21.48649,-8.20101 29.6875,0 L 67.8125,55.1875 c -0.168186,-0.168186 -0.328624,-0.337012 -0.5,-0.5 l -4.46875,4.46875 C 58.743245,55.055745 53.371623,53 48,53 Z m -9.375,11.625 c -0.174644,0.157936 -0.362898,0.300398 -0.53125,0.46875 L 48,75 57.90625,65.09375 C 57.737898,64.925398 57.549644,64.782936 57.375,64.625 L 48,74 Z"
       id="path3975-5"
       style="opacity:0.2;fill:#482e89;fill-opacity:1;stroke:none" />
  </g>
</svg>
