<?xml version="1.0" encoding="UTF-8" standalone="no"?>
<svg
   xmlns:dc="http://purl.org/dc/elements/1.1/"
   xmlns:cc="http://creativecommons.org/ns#"
   xmlns:rdf="http://www.w3.org/1999/02/22-rdf-syntax-ns#"
   xmlns:svg="http://www.w3.org/2000/svg"
   xmlns="http://www.w3.org/2000/svg"
   xmlns:xlink="http://www.w3.org/1999/xlink"
   version="1.0"
   width="48"
   height="48"
   id="svg9481">
  <metadata
     id="metadata55">
    <rdf:RDF>
      <cc:Work
         rdf:about="">
        <dc:format>image/svg+xml</dc:format>
        <dc:type
           rdf:resource="http://purl.org/dc/dcmitype/StillImage" />
        <dc:title></dc:title>
      </cc:Work>
    </rdf:RDF>
  </metadata>
  <defs
     id="defs9483">
    <linearGradient
       id="linearGradient5048-7">
      <stop
         id="stop5050-5"
         style="stop-color:#000000;stop-opacity:0"
         offset="0" />
      <stop
         id="stop5056-9"
         style="stop-color:#000000;stop-opacity:1"
         offset="0.5" />
      <stop
         id="stop5052-6"
         style="stop-color:#000000;stop-opacity:0"
         offset="1" />
    </linearGradient>
    <linearGradient
       id="linearGradient5060-6">
      <stop
         id="stop5062-3"
         style="stop-color:#000000;stop-opacity:1"
         offset="0" />
      <stop
         id="stop5064-1"
         style="stop-color:#000000;stop-opacity:0"
         offset="1" />
    </linearGradient>
    <linearGradient
       id="linearGradient3332-412-419-652-471-761-410-156-661-505">
      <stop
         id="stop8032"
         style="stop-color:#434343;stop-opacity:1;"
         offset="0" />
      <stop
         id="stop8034"
         style="stop-color:#8a8a8a;stop-opacity:1;"
         offset="1" />
    </linearGradient>
    <linearGradient
       id="linearGradient2867-449-88-871-390-598-476-591-434-148-895-534-212-357-729">
      <stop
         id="stop8022"
         style="stop-color:#aacb7d;stop-opacity:1;"
         offset="0" />
      <stop
         id="stop8028"
         style="stop-color:#709937;stop-opacity:1;"
         offset="1" />
    </linearGradient>
    <linearGradient
       id="linearGradient8265-821-176-38-919-66-249">
      <stop
         id="stop2687"
         style="stop-color:#ffffff;stop-opacity:1"
         offset="0" />
      <stop
         id="stop2689"
         style="stop-color:#ffffff;stop-opacity:0"
         offset="1" />
    </linearGradient>
    <linearGradient
       id="linearGradient3282">
      <stop
         id="stop3284"
         style="stop-color:#000000;stop-opacity:1"
         offset="0" />
      <stop
         id="stop3286"
         style="stop-color:#000000;stop-opacity:0"
         offset="1" />
    </linearGradient>
    <linearGradient
       id="linearGradient3958">
      <stop
         id="stop3960"
         style="stop-color:#a1a1a1;stop-opacity:1"
         offset="0" />
      <stop
         id="stop3962"
         style="stop-color:#4d4d4d;stop-opacity:1"
         offset="1" />
    </linearGradient>
    <linearGradient
       id="linearGradient2446-733-45">
      <stop
         id="stop3793"
         style="stop-color:#fafafa;stop-opacity:1"
         offset="0" />
      <stop
         id="stop3795"
         style="stop-color:#c5c5c5;stop-opacity:1"
         offset="1" />
    </linearGradient>
    <linearGradient
       id="linearGradient2238">
      <stop
         id="stop2240"
         style="stop-color:#ffffff;stop-opacity:1"
         offset="0" />
      <stop
         id="stop2242"
         style="stop-color:#ffffff;stop-opacity:0"
         offset="1" />
    </linearGradient>
    <linearGradient
       xlink:href="#linearGradient2238"
       id="linearGradient2434"
       gradientUnits="userSpaceOnUse"
       gradientTransform="matrix(0.9546411,0,0,0.8965269,1.087456,5.385244)"
       x1="12.578789"
       y1="2.9137428"
       x2="12.578789"
       y2="43.810863" />
    <linearGradient
       xlink:href="#linearGradient8265-821-176-38-919-66-249"
       id="linearGradient2445"
       gradientUnits="userSpaceOnUse"
       gradientTransform="matrix(0.9578231,0,0,1.0182827,1.0122454,1.922127)"
       x1="16.626165"
       y1="15.298182"
       x2="20.054544"
       y2="24.627615" />
    <radialGradient
       cx="26.616697"
       cy="-2.0644982"
       r="23"
       fx="26.616697"
       fy="-2.0644982"
       id="radialGradient3322-5"
       xlink:href="#linearGradient4209"
       gradientUnits="userSpaceOnUse"
       gradientTransform="matrix(-3.438708e-8,-2.0049302,2.6407404,0,115.43332,63.719262)" />
    <linearGradient
       id="linearGradient4209">
      <stop
         offset="0"
         style="stop-color:#40ecf2;stop-opacity:1"
         id="stop4211" />
      <stop
         offset="1"
         style="stop-color:#0074b6;stop-opacity:1"
         id="stop4213" />
    </linearGradient>
    <linearGradient
       x1="33.579403"
       y1="5.7086449"
       x2="33.579403"
       y2="16.323294"
       id="linearGradient3311-7"
       xlink:href="#linearGradient3958-6"
       gradientUnits="userSpaceOnUse"
       gradientTransform="matrix(1.5405636,0,0,1.2369262,40.625916,-16.804101)" />
    <linearGradient
       id="linearGradient3958-6">
      <stop
         id="stop3960-7"
         style="stop-color:#262626;stop-opacity:1"
         offset="0" />
      <stop
         id="stop3962-5"
         style="stop-color:#303030;stop-opacity:1"
         offset="1" />
    </linearGradient>
    <linearGradient
       x1="16.91585"
       y1="7.0006418"
       x2="16.91585"
       y2="14"
       id="linearGradient3313-0"
       xlink:href="#linearGradient3958-6"
       gradientUnits="userSpaceOnUse"
       gradientTransform="matrix(1.8906253,0,0,1.8752009,44.897729,-22.868451)" />
    <linearGradient
       gradientTransform="matrix(1.0238095,0,0,1.0119048,-1.1428571,-98.071429)"
       gradientUnits="userSpaceOnUse"
       xlink:href="#ButtonShadow-0"
       id="linearGradient3026"
       y2="90.238609"
       x2="32.251034"
       y1="6.1317081"
       x1="32.251034" />
    <linearGradient
       gradientTransform="matrix(1.0058652,0,0,0.994169,100,0)"
       gradientUnits="userSpaceOnUse"
       id="ButtonShadow-0"
       y2="7.0165396"
       x2="45.447727"
       y1="92.539597"
       x1="45.447727">
      <stop
         offset="0"
         style="stop-color:#000000;stop-opacity:1"
         id="stop3750-8" />
      <stop
         offset="1"
         style="stop-color:#000000;stop-opacity:0.58823532"
         id="stop3752-5" />
    </linearGradient>
    <linearGradient
       gradientTransform="translate(0,-97)"
       gradientUnits="userSpaceOnUse"
       xlink:href="#ButtonShadow-0"
       id="linearGradient3721"
       y2="90.238609"
       x2="32.251034"
       y1="6.1317081"
       x1="32.251034" />
    <linearGradient
       gradientUnits="userSpaceOnUse"
       xlink:href="#linearGradient3700"
       id="linearGradient3617"
       y2="5.9877172"
       x2="48"
       y1="90"
       x1="48" />
    <linearGradient
       id="linearGradient3700">
      <stop
         offset="0"
         style="stop-color:#167c33;stop-opacity:1"
         id="stop3702" />
      <stop
         offset="1"
         style="stop-color:#2da14e;stop-opacity:1"
         id="stop3704" />
    </linearGradient>
    <linearGradient
       gradientUnits="userSpaceOnUse"
       xlink:href="#linearGradient8265-821-176-38-919-66-249"
       id="linearGradient3188"
       y2="63.893143"
       x2="36.357143"
       y1="6"
       x1="36.357143" />
    <radialGradient
       gradientTransform="matrix(1.1573129,0,0,0.99590774,-7.5510206,0.19713193)"
       gradientUnits="userSpaceOnUse"
       xlink:href="#linearGradient8265-821-176-38-919-66-249"
       id="radialGradient3619"
       fy="90.171875"
       fx="48"
       r="42"
       cy="90.171875"
       cx="48" />
    <linearGradient
       gradientUnits="userSpaceOnUse"
       xlink:href="#linearGradient8265-821-176-38-919-66-249"
       id="linearGradient3613"
       y2="138.66119"
       x2="48"
       y1="20.220806"
       x1="48" />
    <clipPath
       id="clipPath3613">
      <rect
         style="fill:#ffffff;fill-opacity:1;fill-rule:nonzero;stroke:none"
         id="rect3615"
         y="6"
         x="6"
         ry="6"
         rx="6"
         height="84"
         width="84" />
    </clipPath>
    <filter
       style="color-interpolation-filters:sRGB"
       id="filter3794"
       height="1.3839999"
       width="1.3839999"
       y="-0.192"
       x="-0.192">
      <feGaussianBlur
         stdDeviation="5.28"
         id="feGaussianBlur3796" />
    </filter>
    <linearGradient
       xlink:href="#ButtonShadow-0"
       id="linearGradient959"
       gradientUnits="userSpaceOnUse"
       gradientTransform="matrix(1.0238095,0,0,1.0119048,-1.1428571,-98.071429)"
       x1="32.251034"
       y1="6.1317081"
       x2="32.251034"
       y2="90.238609" />
    <linearGradient
       xlink:href="#ButtonShadow-0"
       id="linearGradient961"
       gradientUnits="userSpaceOnUse"
       gradientTransform="matrix(1.0238095,0,0,1.0119048,-1.1428571,-98.071429)"
       x1="32.251034"
       y1="6.1317081"
       x2="32.251034"
       y2="90.238609" />
    <linearGradient
       xlink:href="#ButtonShadow-0"
       id="linearGradient963"
       gradientUnits="userSpaceOnUse"
       gradientTransform="matrix(1.0238095,0,0,1.0119048,-1.1428571,-98.071429)"
       x1="32.251034"
       y1="6.1317081"
       x2="32.251034"
       y2="90.238609" />
    <linearGradient
       id="linearGradient7251">
      <stop
         id="stop7253"
         offset="0"
         style="stop-color:#ffffff;stop-opacity:1;" />
      <stop
         style="stop-color:#ffffff;stop-opacity:1;"
         offset="0.5"
         id="stop7259" />
      <stop
         id="stop7255"
         offset="1"
         style="stop-color:#ffffff;stop-opacity:0.68115944;" />
    </linearGradient>
    <clipPath
       id="clipPath3613-3">
      <rect
         style="fill:#ffffff;fill-opacity:1;fill-rule:nonzero;stroke:none"
         id="rect3615-6"
         y="6"
         x="6"
         ry="6"
         rx="6"
         height="84"
         width="84" />
    </clipPath>
    <filter
       id="filter3794-7"
       height="1.3839999"
       width="1.3839999"
       y="-0.192"
       x="-0.192"
       style="color-interpolation-filters:sRGB">
      <feGaussianBlur
         stdDeviation="5.28"
         id="feGaussianBlur3796-5" />
    </filter>
    <linearGradient
       gradientTransform="translate(0,-96)"
       gradientUnits="userSpaceOnUse"
       xlink:href="#linearGradient4535"
       id="linearGradient3617-3"
       y2="5.9877172"
       x2="48"
       y1="90"
       x1="48" />
    <linearGradient
       id="linearGradient4535">
      <stop
         offset="0"
         style="stop-color:#617ec4;stop-opacity:1"
         id="stop4537" />
      <stop
         offset="1"
         style="stop-color:#244c8d;stop-opacity:1"
         id="stop4539" />
    </linearGradient>
    <radialGradient
       gradientTransform="matrix(1.1573129,0,0,0.99590774,-7.5510206,0.19713193)"
       gradientUnits="userSpaceOnUse"
       xlink:href="#linearGradient8265-821-176-38-919-66-249"
       id="radialGradient3619-5"
       fy="90.171875"
       fx="48"
       r="42"
       cy="90.171875"
       cx="48" />
    <filter
       id="filter5197"
       style="color-interpolation-filters:sRGB">
      <feGaussianBlur
         stdDeviation="1.4999053"
         id="feGaussianBlur5199" />
    </filter>
    <linearGradient
       gradientTransform="matrix(0.05254999,0,0,-0.0526412,3.8916885,82.863369)"
       gradientUnits="userSpaceOnUse"
       xlink:href="#linearGradient4760"
       id="linearGradient5009"
       y2="300.62057"
       x2="1140.4358"
       y1="974.90161"
       x1="480.53683" />
    <linearGradient
       id="linearGradient4760">
      <stop
         offset="0"
         style="stop-color:#fac45a;stop-opacity:1"
         id="stop4762" />
      <stop
         offset="0.52493125"
         style="stop-color:#f7a909;stop-opacity:1"
         id="stop4768" />
      <stop
         offset="1"
         style="stop-color:#d49109;stop-opacity:1"
         id="stop4764" />
    </linearGradient>
    <linearGradient
       gradientTransform="matrix(0.05254999,0,0,-0.0526412,3.8916876,82.863365)"
       gradientUnits="userSpaceOnUse"
       xlink:href="#linearGradient4760"
       id="linearGradient5011"
       y2="300.62057"
       x2="1140.4358"
       y1="974.90161"
       x1="480.53683" />
    <linearGradient
       gradientTransform="matrix(0.32321174,0,0,0.32377277,-195.12202,-21.919734)"
       gradientUnits="userSpaceOnUse"
       xlink:href="#linearGradient4420"
       id="linearGradient5045"
       y2="299.31668"
       x2="1086.5875"
       y1="257.30719"
       x1="1086.5875" />
    <linearGradient
       id="linearGradient4420">
      <stop
         offset="0"
         style="stop-color:#415ea4;stop-opacity:1"
         id="stop4422" />
      <stop
         offset="1"
         style="stop-color:#19458c;stop-opacity:1"
         id="stop4424" />
    </linearGradient>
    <linearGradient
       gradientUnits="userSpaceOnUse"
       xlink:href="#linearGradient8265-821-176-38-919-66-249"
       id="linearGradient3613-9"
       y2="138.66119"
       x2="48"
       y1="20.220806"
       x1="48" />
    <clipPath
       id="clipPath3613-1">
      <rect
         style="fill:#ffffff;fill-opacity:1;fill-rule:nonzero;stroke:none"
         id="rect3615-2"
         y="6"
         x="6"
         ry="6"
         rx="6"
         height="84"
         width="84" />
    </clipPath>
    <filter
       id="filter3794-70"
       height="1.3839999"
       width="1.3839999"
       y="-0.192"
       x="-0.192"
       style="color-interpolation-filters:sRGB">
      <feGaussianBlur
         stdDeviation="5.28"
         id="feGaussianBlur3796-9" />
    </filter>
    <linearGradient
       gradientUnits="userSpaceOnUse"
       xlink:href="#linearGradient8265-821-176-38-919-66-249"
       id="linearGradient3188-2"
       y2="63.893143"
       x2="36.357143"
       y1="6"
       x1="36.357143" />
    <radialGradient
       gradientTransform="matrix(1.1573129,0,0,0.99590774,-7.5510206,0.19713193)"
       gradientUnits="userSpaceOnUse"
       xlink:href="#linearGradient8265-821-176-38-919-66-249"
       id="radialGradient3619-6"
       fy="90.171875"
       fx="48"
       r="42"
       cy="90.171875"
       cx="48" />
    <linearGradient
       gradientTransform="matrix(0.44930767,0,0,0.44741484,-116.00993,-161.73218)"
       gradientUnits="userSpaceOnUse"
       xlink:href="#linearGradient3785"
       id="linearGradient4004"
       y2="520.1709"
       x2="365.97757"
       y1="408.39655"
       x1="365.51193" />
    <linearGradient
       id="linearGradient3785">
      <stop
         offset="0"
         style="stop-color:#384880;stop-opacity:1"
         id="stop3787" />
      <stop
         offset="1"
         style="stop-color:#000000;stop-opacity:1"
         id="stop3789" />
    </linearGradient>
    <linearGradient
       gradientUnits="userSpaceOnUse"
       xlink:href="#linearGradient8265-821-176-38-919-66-249"
       id="linearGradient3613-7"
       y2="138.66119"
       x2="48"
       y1="20.220806"
       x1="48" />
    <clipPath
       id="clipPath3613-9">
      <rect
         style="fill:#ffffff;fill-opacity:1;fill-rule:nonzero;stroke:none"
         id="rect3615-20"
         y="6"
         x="6"
         ry="6"
         rx="6"
         height="84"
         width="84" />
    </clipPath>
    <filter
       id="filter3794-2"
       height="1.3839999"
       width="1.3839999"
       y="-0.192"
       x="-0.192"
       style="color-interpolation-filters:sRGB">
      <feGaussianBlur
         stdDeviation="5.28"
         id="feGaussianBlur3796-3" />
    </filter>
    <linearGradient
       gradientUnits="userSpaceOnUse"
       xlink:href="#linearGradient3700-5"
       id="linearGradient3617-7"
       y2="5.9877172"
       x2="48"
       y1="90"
       x1="48" />
    <linearGradient
       id="linearGradient3700-5">
      <stop
         offset="0"
         style="stop-color:#4b61ac;stop-opacity:1"
         id="stop3702-9" />
      <stop
         offset="1"
         style="stop-color:#93a0d0;stop-opacity:1"
         id="stop3704-2" />
    </linearGradient>
    <linearGradient
       gradientUnits="userSpaceOnUse"
       xlink:href="#linearGradient8265-821-176-38-919-66-249"
       id="linearGradient3188-28"
       y2="63.893143"
       x2="36.357143"
       y1="6"
       x1="36.357143" />
    <radialGradient
       gradientTransform="matrix(1.1573129,0,0,0.99590774,-7.5510206,0.19713193)"
       gradientUnits="userSpaceOnUse"
       xlink:href="#linearGradient8265-821-176-38-919-66-249"
       id="radialGradient3619-9"
       fy="90.171875"
       fx="48"
       r="42"
       cy="90.171875"
       cx="48" />
    <linearGradient
       gradientUnits="userSpaceOnUse"
       xlink:href="#linearGradient8265-821-176-38-919-66-249"
       id="linearGradient3613-6"
       y2="138.66119"
       x2="48"
       y1="20.220806"
       x1="48" />
    <clipPath
       id="clipPath3613-12">
      <rect
         style="fill:#ffffff;fill-opacity:1;fill-rule:nonzero;stroke:none"
         id="rect3615-9"
         y="6"
         x="6"
         ry="6"
         rx="6"
         height="84"
         width="84" />
    </clipPath>
    <filter
       id="filter3794-3"
       height="1.3839999"
       width="1.3839999"
       y="-0.192"
       x="-0.192"
       style="color-interpolation-filters:sRGB">
      <feGaussianBlur
         stdDeviation="5.28"
         id="feGaussianBlur3796-1" />
    </filter>
    <linearGradient
       gradientUnits="userSpaceOnUse"
       xlink:href="#linearGradient4057"
       id="linearGradient3617-9"
       y2="5.9877172"
       x2="48"
       y1="90"
       x1="48" />
    <linearGradient
       id="linearGradient4057">
      <stop
         offset="0"
         style="stop-color:#dd481f;stop-opacity:0.94117647"
         id="stop4059" />
      <stop
         offset="1"
         style="stop-color:#ec6829;stop-opacity:0.94117647"
         id="stop4061" />
    </linearGradient>
    <linearGradient
       gradientUnits="userSpaceOnUse"
       xlink:href="#linearGradient8265-821-176-38-919-66-249"
       id="linearGradient3188-4"
       y2="63.893143"
       x2="36.357143"
       y1="6"
       x1="36.357143" />
    <radialGradient
       gradientTransform="matrix(1.1573129,0,0,0.99590774,-7.5510206,0.19713193)"
       gradientUnits="userSpaceOnUse"
       xlink:href="#linearGradient8265-821-176-38-919-66-249"
       id="radialGradient3619-7"
       fy="90.171875"
       fx="48"
       r="42"
       cy="90.171875"
       cx="48" />
    <linearGradient
       gradientUnits="userSpaceOnUse"
       xlink:href="#linearGradient3312"
       id="linearGradient4201"
       y2="72"
       x2="48"
       y1="24"
       x1="32" />
    <linearGradient
       id="linearGradient3312">
      <stop
         offset="0"
         style="stop-color:#c7f994;stop-opacity:1"
         id="stop3314" />
      <stop
         offset="1"
         style="stop-color:#87cf3e;stop-opacity:1"
         id="stop3316" />
    </linearGradient>
    <linearGradient
       gradientUnits="userSpaceOnUse"
       xlink:href="#linearGradient5060-6"
       id="linearGradient4215"
       y2="39.964417"
       x2="49.614868"
       y1="64.280525"
       x1="29.158056" />
    <linearGradient
       gradientUnits="userSpaceOnUse"
       xlink:href="#linearGradient4266"
       id="linearGradient4272"
       y2="5.8498044"
       x2="37.964287"
       y1="90.5"
       x1="37.964287" />
    <linearGradient
       id="linearGradient4266">
      <stop
         offset="0"
         style="stop-color:#47761a;stop-opacity:1"
         id="stop4268" />
      <stop
         offset="1"
         style="stop-color:#61a224;stop-opacity:1"
         id="stop4270" />
    </linearGradient>
    <linearGradient
       gradientUnits="userSpaceOnUse"
       xlink:href="#linearGradient8265-821-176-38-919-66-249"
       id="linearGradient3188-6"
       y2="63.893143"
       x2="36.357143"
       y1="6"
       x1="36.357143" />
    <radialGradient
       gradientTransform="matrix(1.1573129,0,0,0.99590774,-7.5510206,0.19713193)"
       gradientUnits="userSpaceOnUse"
       xlink:href="#linearGradient8265-821-176-38-919-66-249"
       id="radialGradient3619-1"
       fy="90.171875"
       fx="48"
       r="42"
       cy="90.171875"
       cx="48" />
    <linearGradient
       gradientUnits="userSpaceOnUse"
       xlink:href="#linearGradient3903"
       id="linearGradient3909"
       y2="5.9464455"
       x2="48"
       y1="90"
       x1="48" />
    <linearGradient
       id="linearGradient3903">
      <stop
         offset="0"
         style="stop-color:#1793d1;stop-opacity:1"
         id="stop3905" />
      <stop
         offset="1"
         style="stop-color:#6dc4ef;stop-opacity:1"
         id="stop3907" />
    </linearGradient>
    <linearGradient
       gradientUnits="userSpaceOnUse"
       xlink:href="#linearGradient8265-821-176-38-919-66-249"
       id="linearGradient3188-0"
       y2="63.893143"
       x2="36.357143"
       y1="6"
       x1="36.357143" />
    <radialGradient
       gradientTransform="matrix(1.1573129,0,0,0.99590774,-7.5510206,0.19713193)"
       gradientUnits="userSpaceOnUse"
       xlink:href="#linearGradient8265-821-176-38-919-66-249"
       id="radialGradient3619-61"
       fy="90.171875"
       fx="48"
       r="42"
       cy="90.171875"
       cx="48" />
    <linearGradient
       gradientUnits="userSpaceOnUse"
       xlink:href="#linearGradient8265-821-176-38-919-66-249"
       id="linearGradient3613-5"
       y2="138.66119"
       x2="48"
       y1="20.220806"
       x1="48" />
    <clipPath
       id="clipPath3613-5">
      <rect
         style="fill:#ffffff;fill-opacity:1;fill-rule:nonzero;stroke:none"
         id="rect3615-4"
         y="6"
         x="6"
         ry="6"
         rx="6"
         height="84"
         width="84" />
    </clipPath>
    <filter
       id="filter3794-76"
       height="1.3839999"
       width="1.3839999"
       y="-0.192"
       x="-0.192"
       style="color-interpolation-filters:sRGB">
      <feGaussianBlur
         stdDeviation="5.28"
         id="feGaussianBlur3796-56" />
    </filter>
    <radialGradient
       gradientTransform="matrix(1,0,0,1.0001879,0,-0.00901697)"
       gradientUnits="userSpaceOnUse"
       xlink:href="#linearGradient3919"
       id="radialGradient3925"
       fy="71.995491"
       fx="48"
       r="32.993801"
       cy="71.995491"
       cx="48" />
    <linearGradient
       id="linearGradient3919">
      <stop
         offset="0"
         style="stop-color:#fafafa;stop-opacity:1"
         id="stop3921" />
      <stop
         offset="1"
         style="stop-color:#f0f0f0;stop-opacity:1"
         id="stop3923" />
    </linearGradient>
    <linearGradient
       gradientTransform="matrix(-0.13677913,0,0,0.13677146,122.19582,8.5219823)"
       gradientUnits="userSpaceOnUse"
       xlink:href="#path1082_2_-8"
       id="linearGradient3060-4"
       y2="303.14029"
       x2="606.91248"
       y1="104.50665"
       x1="541.33502" />
    <linearGradient
       gradientTransform="translate(287,-83)"
       gradientUnits="userSpaceOnUse"
       id="path1082_2_-8"
       y2="129.3468"
       x2="112.49853"
       y1="6.1372099"
       x1="112.49854">
      <stop
         offset="0"
         style="stop-color:#ffffff;stop-opacity:0"
         id="stop193-9" />
      <stop
         offset="1"
         style="stop-color:#ffffff;stop-opacity:0.60465115"
         id="stop195-6" />
      <midPointStop
         offset="0"
         style="stop-color:#FFFFFF"
         id="midPointStop197-7" />
      <midPointStop
         offset="0.5"
         style="stop-color:#FFFFFF"
         id="midPointStop199-4" />
      <midPointStop
         offset="1"
         style="stop-color:#000000"
         id="midPointStop201-8" />
    </linearGradient>
    <linearGradient
       y2="90.238609"
       x2="32.251034"
       y1="6.1317081"
       x1="32.251034"
       gradientTransform="matrix(1.0238095,0,0,1.0119048,-1.1428571,-98.071429)"
       gradientUnits="userSpaceOnUse"
       id="linearGradient5599"
       xlink:href="#ButtonShadow-0" />
    <linearGradient
       y2="90.238609"
       x2="32.251034"
       y1="6.1317081"
       x1="32.251034"
       gradientTransform="matrix(1.0238095,0,0,1.0119048,-1.1428571,-98.071429)"
       gradientUnits="userSpaceOnUse"
       id="linearGradient5601"
       xlink:href="#ButtonShadow-0" />
    <linearGradient
       y2="90.238609"
       x2="32.251034"
       y1="6.1317081"
       x1="32.251034"
       gradientTransform="matrix(1.0238095,0,0,1.0119048,-1.1428571,-98.071429)"
       gradientUnits="userSpaceOnUse"
       id="linearGradient5603"
       xlink:href="#ButtonShadow-0" />
  </defs>
  <g
     transform="matrix(0.49966056,0,0,0.50514756,-21.630018,-20.103684)"
     id="g5625">
    <g
       transform="translate(43.322034,39.788136)"
       id="layer3">
      <path
         d="m 12,-95.03125 c -5.5110903,0 -10.03125,4.52016 -10.03125,10.03125 v 71 c 0,5.5110902 4.5201598,10.03125 10.03125,10.03125 h 72 c 5.51109,0 10.03125,-4.5201597 10.03125,-10.03125 v -71 c 0,-5.51109 -4.52016,-10.03125 -10.03125,-10.03125 z"
         transform="scale(1,-1)"
         id="path3786"
         style="display:inline;opacity:0.07999998;fill:url(#linearGradient5599);fill-opacity:1;fill-rule:nonzero;stroke:none" />
      <path
         d="m 12,-94.03125 c -4.971633,0 -9.03125,4.059617 -9.03125,9.03125 v 71 c 0,4.9716329 4.0596171,9.03125 9.03125,9.03125 h 72 c 4.971633,0 9.03125,-4.059617 9.03125,-9.03125 v -71 c 0,-4.971633 -4.059617,-9.03125 -9.03125,-9.03125 z"
         transform="scale(1,-1)"
         id="path3778"
         style="display:inline;opacity:0.1;fill:url(#linearGradient5601);fill-opacity:1;fill-rule:nonzero;stroke:none" />
      <path
         d="m 12,-93 c -4.4091333,0 -8,3.590867 -8,8 v 71 c 0,4.4091333 3.5908667,8 8,8 h 72 c 4.409133,0 8,-3.5908667 8,-8 v -71 c 0,-4.409133 -3.590867,-8 -8,-8 z"
         transform="scale(1,-1)"
         id="path3770"
         style="display:inline;opacity:0.2;fill:url(#linearGradient5603);fill-opacity:1;fill-rule:nonzero;stroke:none" />
      <rect
         width="86"
         height="85"
         rx="7"
         ry="7"
         x="5"
         y="-92"
         transform="scale(1,-1)"
         id="rect3723"
         style="display:inline;opacity:0.3;fill:url(#linearGradient3026);fill-opacity:1;fill-rule:nonzero;stroke:none" />
      <rect
         width="84"
         height="84"
         rx="6"
         ry="6"
         x="6"
         y="-91"
         transform="scale(1,-1)"
         id="rect3716"
         style="display:inline;opacity:0.45;fill:url(#linearGradient3721);fill-opacity:1;fill-rule:nonzero;stroke:none" />
    </g>
    <g
       transform="translate(43.322034,39.788136)"
       id="layer1">
      <rect
         width="84"
         height="84"
         rx="6"
         ry="6"
         x="6"
         y="6"
         id="rect2419"
         style="fill:url(#linearGradient3909);fill-opacity:1;fill-rule:nonzero;stroke:none" />
      <path
         d="M 12,6 C 8.676,6 6,8.676 6,12 v 2 68 2 c 0,0.334721 0.04135,0.6507 0.09375,0.96875 0.0487,0.295596 0.09704,0.596915 0.1875,0.875 0.00988,0.03038 0.020892,0.0636 0.03125,0.09375 0.098865,0.287771 0.2348802,0.547452 0.375,0.8125 0.1445918,0.273507 0.3156161,0.535615 0.5,0.78125 0.1843839,0.245635 0.3737765,0.473472 0.59375,0.6875 0.439947,0.428056 0.94291,0.814526 1.5,1.09375 0.278545,0.139612 0.5734731,0.246947 0.875,0.34375 -0.2562018,-0.100222 -0.4867109,-0.236272 -0.71875,-0.375 -0.00741,-0.0044 -0.023866,0.0045 -0.03125,0 -0.031933,-0.0193 -0.062293,-0.04251 -0.09375,-0.0625 -0.120395,-0.0767 -0.2310226,-0.163513 -0.34375,-0.25 -0.1061728,-0.0808 -0.2132809,-0.161112 -0.3125,-0.25 C 8.4783201,88.557317 8.3087904,88.373362 8.15625,88.1875 8.0486711,88.057245 7.9378561,87.922215 7.84375,87.78125 7.818661,87.74287 7.805304,87.69538 7.78125,87.65625 7.716487,87.553218 7.6510225,87.451733 7.59375,87.34375 7.4927417,87.149044 7.3880752,86.928049 7.3125,86.71875 7.30454,86.69694 7.288911,86.6782 7.28125,86.65625 7.2494249,86.5643 7.2454455,86.469419 7.21875,86.375 7.1884177,86.268382 7.1483606,86.171969 7.125,86.0625 7.0521214,85.720988 7,85.364295 7,85 V 83 15 13 C 7,10.218152 9.2181517,8 12,8 h 2 68 2 c 2.781848,0 5,2.218152 5,5 v 2 68 2 c 0,0.364295 -0.05212,0.720988 -0.125,1.0625 -0.04415,0.206893 -0.08838,0.397658 -0.15625,0.59375 -0.0077,0.02195 -0.0233,0.04069 -0.03125,0.0625 -0.06274,0.173739 -0.138383,0.367449 -0.21875,0.53125 -0.04158,0.0828 -0.07904,0.169954 -0.125,0.25 -0.0546,0.09721 -0.126774,0.18835 -0.1875,0.28125 -0.09411,0.140965 -0.204921,0.275995 -0.3125,0.40625 -0.143174,0.17445 -0.303141,0.346998 -0.46875,0.5 -0.01117,0.0102 -0.01998,0.02115 -0.03125,0.03125 -0.138386,0.125556 -0.285091,0.234436 -0.4375,0.34375 -0.102571,0.07315 -0.204318,0.153364 -0.3125,0.21875 -0.0074,0.0045 -0.02384,-0.0044 -0.03125,0 -0.232039,0.138728 -0.462548,0.274778 -0.71875,0.375 0.301527,-0.0968 0.596455,-0.204138 0.875,-0.34375 0.55709,-0.279224 1.060053,-0.665694 1.5,-1.09375 0.219973,-0.214028 0.409366,-0.441865 0.59375,-0.6875 0.184384,-0.245635 0.355408,-0.507743 0.5,-0.78125 0.14012,-0.265048 0.276135,-0.524729 0.375,-0.8125 0.01041,-0.03078 0.02133,-0.06274 0.03125,-0.09375 0.09046,-0.278085 0.1388,-0.579404 0.1875,-0.875 C 89.95865,84.6507 90,84.334721 90,84 V 82 14 12 C 90,8.676 87.324,6 84,6 Z"
         id="rect3728"
         style="opacity:0.4;fill:url(#linearGradient3188-0);fill-opacity:1;fill-rule:nonzero;stroke:none" />
      <path
         d="M 12,90 C 8.676,90 6,87.324 6,84 V 82 14 12 c 0,-0.334721 0.04135,-0.6507 0.09375,-0.96875 0.0487,-0.295596 0.09704,-0.596915 0.1875,-0.875 C 6.29113,10.12587 6.302142,10.09265 6.3125,10.0625 6.411365,9.774729 6.5473802,9.515048 6.6875,9.25 6.8320918,8.976493 7.0031161,8.714385 7.1875,8.46875 7.3718839,8.223115 7.5612765,7.995278 7.78125,7.78125 8.221197,7.353194 8.72416,6.966724 9.28125,6.6875 9.559795,6.547888 9.8547231,6.440553 10.15625,6.34375 9.9000482,6.443972 9.6695391,6.580022 9.4375,6.71875 c -0.00741,0.0044 -0.023866,-0.0045 -0.03125,0 -0.031933,0.0193 -0.062293,0.04251 -0.09375,0.0625 -0.120395,0.0767 -0.2310226,0.163513 -0.34375,0.25 -0.1061728,0.0808 -0.2132809,0.161112 -0.3125,0.25 C 8.4783201,7.442683 8.3087904,7.626638 8.15625,7.8125 8.0486711,7.942755 7.9378561,8.077785 7.84375,8.21875 7.818661,8.25713 7.805304,8.30462 7.78125,8.34375 7.716487,8.446782 7.6510225,8.548267 7.59375,8.65625 7.4927417,8.850956 7.3880752,9.071951 7.3125,9.28125 7.30454,9.30306 7.288911,9.3218 7.28125,9.34375 7.2494249,9.4357 7.2454455,9.530581 7.21875,9.625 7.1884177,9.731618 7.1483606,9.828031 7.125,9.9375 7.0521214,10.279012 7,10.635705 7,11 v 2 68 2 c 0,2.781848 2.2181517,5 5,5 h 2 68 2 c 2.781848,0 5,-2.218152 5,-5 V 81 13 11 C 89,10.635705 88.94788,10.279012 88.875,9.9375 88.83085,9.730607 88.78662,9.539842 88.71875,9.34375 88.71105,9.3218 88.69545,9.30306 88.6875,9.28125 88.62476,9.107511 88.549117,8.913801 88.46875,8.75 88.42717,8.6672 88.38971,8.580046 88.34375,8.5 88.28915,8.40279 88.216976,8.31165 88.15625,8.21875 88.06214,8.077785 87.951329,7.942755 87.84375,7.8125 87.700576,7.63805 87.540609,7.465502 87.375,7.3125 87.36383,7.3023 87.35502,7.29135 87.34375,7.28125 87.205364,7.155694 87.058659,7.046814 86.90625,6.9375 86.803679,6.86435 86.701932,6.784136 86.59375,6.71875 c -0.0074,-0.0045 -0.02384,0.0044 -0.03125,0 -0.232039,-0.138728 -0.462548,-0.274778 -0.71875,-0.375 0.301527,0.0968 0.596455,0.204138 0.875,0.34375 0.55709,0.279224 1.060053,0.665694 1.5,1.09375 0.219973,0.214028 0.409366,0.441865 0.59375,0.6875 0.184384,0.245635 0.355408,0.507743 0.5,0.78125 0.14012,0.265048 0.276135,0.524729 0.375,0.8125 0.01041,0.03078 0.02133,0.06274 0.03125,0.09375 0.09046,0.278085 0.1388,0.579404 0.1875,0.875 C 89.95865,11.3493 90,11.665279 90,12 v 2 68 2 c 0,3.324 -2.676,6 -6,6 z"
         id="path3615"
         style="opacity:0.2;fill:url(#radialGradient3619-61);fill-opacity:1;fill-rule:nonzero;stroke:none" />
    </g>
    <g
       transform="translate(43.322034,39.788136)"
       id="layer5">
      <rect
         width="66"
         height="66"
         rx="12"
         ry="12"
         x="15"
         y="15"
         clip-path="url(#clipPath3613-5)"
         id="rect3171"
         style="opacity:0.1;fill:url(#linearGradient3613-5);fill-opacity:1;fill-rule:nonzero;stroke:#ffffff;stroke-width:0.5;stroke-linecap:round;stroke-linejoin:miter;stroke-miterlimit:4;stroke-dasharray:none;stroke-dashoffset:0;stroke-opacity:1;filter:url(#filter3794-76)" />
    </g>
    <g
       transform="translate(43.322034,39.788136)"
       id="layer4">
      <path
         d="M 47.625,13.03125 A 0.96731774,0.96731774 0 0 0 47.5,13.0625 c -1.510801,0.341459 -2.272193,1.610036 -2.6875,2.71875 -0.415307,1.108714 -0.673467,2.196368 -1.03125,2.75 a 0.96731774,0.96731774 0 0 0 -0.09375,0.1875 C 41.667922,23.930878 39.353895,29.080525 37.15625,34.25 a 0.96731774,0.96731774 0 0 0 -0.09375,0.4375 c 0.0035,0.0611 -0.05822,0.19336 -0.40625,0.59375 -0.290026,0.333658 -0.679351,0.879381 -0.84375,1.59375 H 35.78125 C 28.458908,51.872645 20.137298,66.412941 12.1875,81.125 a 0.96731774,0.96731774 0 0 0 -0.09375,0.1875 c -0.730785,2.511648 2.276519,4.630944 4.375,3.28125 0.02116,-0.01361 0.04153,-0.01693 0.0625,-0.03125 8.160276,-4.677217 16.558683,-9.158522 25.6875,-11.03125 A 0.96731774,0.96731774 0 0 0 42.5,73.4375 c 0.673941,-0.363419 1.153964,-0.921292 1.375,-1.53125 0.221036,-0.609958 0.22015,-1.202881 0.15625,-1.75 C 43.903451,69.062012 43.57451,68.042808 43.59375,67.5 a 0.96731774,0.96731774 0 0 0 0,-0.0625 c -0.05185,-1.879445 0.106179,-3.935785 0.6875,-5.71875 0.571568,-1.753052 1.538902,-3.184746 3.0625,-4.125 0.57001,-0.146858 1.058221,-0.11849 1.5,0.0625 0.487726,0.199813 0.966653,0.590944 1.40625,1.125 0.879193,1.068112 1.543514,2.681126 1.875,3.9375 a 0.96731774,0.96731774 0 0 0 0,0.03125 c 0.826062,2.604244 0.454595,5.488938 0.125,8.40625 a 0.96731774,0.96731774 0 0 0 0.03125,0.375 c 0.231597,0.810127 0.751405,1.422659 1.34375,1.8125 0.592345,0.389841 1.227099,0.591443 1.84375,0.71875 1.233303,0.254615 2.423916,0.338321 3,0.65625 a 0.96731774,0.96731774 0 0 0 0.1875,0.09375 c 7.46845,2.243605 14.458902,6.192115 21.3125,9.96875 a 0.96731774,0.96731774 0 0 0 0.125,0.0625 c 2.480511,0.896288 4.829298,-2.086831 3.4375,-4.28125 L 83.5625,80.53125 C 83.54422,80.49963 83.51823,80.46917 83.5,80.4375 81.506469,76.973485 79.802561,73.164349 77.5625,69.6875 A 0.96731774,0.96731774 0 0 0 77.1875,69.375 C 76.399319,68.960689 76.129067,68.649274 76,68.375 75.870933,68.100726 75.842955,67.685558 75.9375,66.90625 a 0.96731774,0.96731774 0 0 0 -0.125,-0.5625 C 67.461519,50.444206 58.783988,34.648045 52.09375,18.03125 A 0.96731774,0.96731774 0 0 0 52,17.90625 C 51.692121,17.408124 51.424557,16.218018 50.90625,15.125 50.647097,14.578491 50.297065,14.050178 49.75,13.625 49.202935,13.199822 48.439819,12.948492 47.625,13.03125 Z"
         id="path3943"
         style="opacity:0.05;fill:#000000;fill-opacity:1;fill-rule:evenodd;stroke:none" />
      <path
         d="m 47.71875,14 c -2.211314,0.499783 -2.082924,3.478653 -3.113519,5.073392 -2.032642,5.245844 -4.382306,10.396176 -6.573981,15.551608 0.05853,1.015208 -1.33246,1.496264 -1.38112,2.680985 C 29.308959,52.342195 20.973283,66.896061 13.03125,81.59375 12.547302,83.25704 14.689354,84.644747 16,83.75 c 8.196386,-4.699629 16.698145,-9.241613 26.03125,-11.15625 2.002702,-1.079946 0.535907,-3.437 0.595463,-5.117226 -0.107782,-3.907254 0.670616,-8.624004 4.289574,-10.786369 3.417179,-1.086915 5.429869,3.05173 6.145407,5.763713 0.911297,2.872957 0.484492,5.897928 0.157056,8.796132 0.691107,2.417496 3.931666,1.631658 5.708914,2.612486 C 66.536651,76.14831 73.591629,80.165123 80.4375,83.9375 82.090069,84.534626 83.737226,82.441448 82.71875,81 80.668176,77.452485 78.957061,73.644379 76.75,70.21875 74.992466,69.294893 74.764704,68.463141 74.96875,66.78125 66.623973,50.893518 57.904927,35.102572 51.185428,18.413101 50.266818,16.926855 50.146615,13.75341 47.71875,14 Z"
         id="path3937"
         style="opacity:0.1;fill:#000000;fill-opacity:1;fill-rule:evenodd;stroke:none" />
      <path
         d="m 47.78125,15.125 a 0.88630073,0.88630073 0 0 0 -0.59375,0.53125 c -2.941104,7.210805 -4.741571,11.912959 -8,18.875 A 0.88630073,0.88630073 0 0 0 39.34375,35.5 c 0.522256,0.553591 1.235327,1.206238 1.84375,1.8125 -0.499682,-0.362231 -1.129232,-0.729374 -1.5625,-1.09375 a 0.88630073,0.88630073 0 0 0 -1.375,0.3125 C 34.078545,45.235625 27.52362,57.656342 14.21875,81.5625 a 0.88630073,0.88630073 0 0 0 1.21875,1.21875 C 25.862304,76.762831 33.888339,73.077301 41.28125,71.6875 A 0.88630073,0.88630073 0 0 0 42,70.625 C 41.696794,69.320919 41.496371,67.902127 41.5,66.4375 V 66.375 c 6.6e-5,-0.0108 -8.6e-5,-0.02045 0,-0.03125 l 0.03125,-0.25 a 0.88630073,0.88630073 0 0 0 0,-0.0625 c 0.07932,-3.202748 0.960788,-6.032509 2.25,-7.9375 1.289212,-1.904991 2.91427,-2.861054 4.59375,-2.71875 1.678383,0.142211 3.268234,1.415122 4.46875,3.5625 1.200516,2.147378 1.954347,5.108705 1.875,8.3125 -0.03012,1.215755 -0.172886,2.380997 -0.40625,3.4375 a 0.88630073,0.88630073 0 0 0 0.71875,1.0625 c 7.314758,1.430896 15.247363,5.094183 25.53125,11.03125 A 0.88630073,0.88630073 0 0 0 81.78125,81.5625 C 79.747395,77.818034 77.921672,74.465682 76.1875,71.25 a 0.88630073,0.88630073 0 0 0 -0.25,-0.28125 C 74.775197,70.067888 73.484095,68.954088 72,67.8125 c 0.190002,0.106789 0.444024,0.203839 0.625,0.3125 a 0.88630073,0.88630073 0 0 0 1.25,-1.15625 C 56.248666,34.151666 54.86515,29.860093 48.8125,15.65625 A 0.88630073,0.88630073 0 0 0 47.78125,15.125 Z"
         id="path3933"
         style="opacity:0.15;fill:#000000;fill-opacity:1;fill-rule:evenodd;stroke:none" />
      <path
         d="m 47.99379,16 c -2.937605,7.202226 -4.70943,11.913332 -7.980071,18.901467 2.005311,2.125629 4.466737,4.601031 8.464082,7.396765 C 44.180266,40.52982 41.24881,38.754378 39.058094,36.911997 34.872297,45.6463 28.314361,58.087925 15.006198,82 c 10.459768,-6.038604 18.568,-9.761477 26.124483,-11.182028 -0.324478,-1.39557 -0.508959,-2.905166 -0.49643,-4.480256 l 0.01243,-0.335082 c 0.165968,-6.701299 3.651978,-11.8546 7.781489,-11.504702 4.129521,0.349897 7.339343,6.069283 7.173375,12.770593 -0.03124,1.260963 -0.173448,2.47401 -0.42196,3.59909 C 62.654019,72.329746 70.675549,76.043093 80.993802,82 78.959242,78.254236 77.14323,74.877709 75.408991,71.661903 72.677295,69.544656 69.828009,66.789046 64.015995,63.805945 c 3.994836,1.038026 6.8551,2.235629 9.084613,3.574274 C 55.468158,34.551748 54.040314,30.189518 47.993768,16 Z"
         id="path3927"
         style="opacity:0.3;fill:#000000;fill-opacity:1;fill-rule:evenodd;stroke:none" />
      <path
         d="m 47.99379,15 c -2.937605,7.202226 -4.70943,11.913332 -7.980071,18.901467 2.005311,2.125629 4.466737,4.601031 8.464082,7.396765 C 44.180266,39.52982 41.24881,37.754378 39.058094,35.911997 34.872297,44.6463 28.314361,57.087925 15.006198,81 c 10.459768,-6.038604 18.568,-9.761477 26.124483,-11.182028 -0.324478,-1.39557 -0.508959,-2.905166 -0.49643,-4.480256 l 0.01243,-0.335082 c 0.165968,-6.701299 3.651978,-11.8546 7.781489,-11.504702 4.129521,0.349897 7.339343,6.069283 7.173375,12.770593 -0.03124,1.260963 -0.173448,2.47401 -0.42196,3.59909 C 62.654019,71.329746 70.675549,75.043093 80.993802,81 78.959242,77.254236 77.14323,73.877709 75.408991,70.661903 72.677295,68.544656 69.828009,65.789046 64.015995,62.805945 c 3.994836,1.038026 6.8551,2.235629 9.084613,3.574274 C 55.468158,33.551748 54.040314,29.189518 47.993768,15 Z"
         id="path2518"
         style="fill:url(#radialGradient3925);fill-opacity:1;fill-rule:evenodd;stroke:none" />
      <path
         d="M 66.576189,54.223835 C 52.271646,34.808435 48.955993,19.160219 48.116154,15.424302 55.746623,33.02426 55.694505,33.240091 66.576189,54.223835 Z"
         id="path2522"
         style="fill:#ffffff;fill-opacity:1;fill-rule:evenodd;stroke:none" />
      <path
         d="m 48.117892,15.297856 c -0.364265,0.895511 -0.71819,1.766658 -1.054911,2.593833 -0.37554,0.92252 -0.737198,1.80487 -1.092135,2.668296 -0.354903,0.863434 -0.706189,1.700089 -1.05491,2.531779 -0.348734,0.831726 -0.69795,1.654786 -1.054901,2.482136 -0.356938,0.827317 -0.724988,1.656673 -1.104554,2.506958 -0.379565,0.850308 -0.77485,1.730442 -1.19142,2.631063 -0.416615,0.900627 -0.84755,1.826547 -1.315534,2.804815 -0.06347,0.132768 -0.133958,0.287475 -0.198572,0.421963 1.99892,2.117253 4.452899,4.580164 8.426847,7.359533 -4.284225,-1.762932 -7.206364,-3.537568 -9.39488,-5.373824 -0.114653,0.234075 -0.216942,0.442849 -0.335093,0.682587 -0.412731,0.83752 -0.868208,1.741145 -1.327942,2.655885 -0.01914,0.03864 -0.03036,0.07292 -0.04961,0.111697 -0.116523,0.231688 -0.215281,0.433028 -0.335082,0.670177 -0.01815,0.03642 -0.04378,0.07513 -0.06204,0.111696 -1.901603,3.814293 -4.252094,8.370211 -7.27265,14.024069 8.365126,-4.715261 17.393629,-11.510991 33.78187,-5.659271 -0.822218,-1.557255 -1.573671,-3.007943 -2.283567,-4.38097 -0.709885,-1.373074 -1.373295,-2.668629 -1.985709,-3.884543 -0.61237,-1.215893 -1.183006,-2.351909 -1.712678,-3.437759 C 56.970759,35.732148 56.485274,34.698232 56.023549,33.715307 55.561802,32.732396 55.129007,31.79276 54.720434,30.885671 54.311828,29.978588 53.9241,29.10053 53.553829,28.242196 53.183525,27.383814 52.833219,26.5471 52.48651,25.710417 52.139768,24.873707 51.794357,24.045634 51.456426,23.20346 51.343379,22.921803 51.222082,22.63141 51.108925,22.347123 50.176785,20.160084 49.223624,17.895247 48.117948,15.297856 Z"
         id="path2520"
         style="fill:url(#linearGradient3060-4);fill-opacity:1;fill-rule:evenodd;stroke:none" />
    </g>
  </g>
</svg>
