<?xml version="1.0" encoding="UTF-8" standalone="no"?>
<svg
   xmlns:dc="http://purl.org/dc/elements/1.1/"
   xmlns:cc="http://creativecommons.org/ns#"
   xmlns:rdf="http://www.w3.org/1999/02/22-rdf-syntax-ns#"
   xmlns:svg="http://www.w3.org/2000/svg"
   xmlns="http://www.w3.org/2000/svg"
   xmlns:xlink="http://www.w3.org/1999/xlink"
   version="1.1"
   id="svg14288"
   height="32px"
   width="32px">
  <defs
     id="defs14290">
    <linearGradient
       y2="21.386522"
       x2="27.557428"
       y1="7.162672"
       x1="27.557428"
       gradientTransform="matrix(0.89186139,0,0,1.0539115,3.1208294,5.412539)"
       gradientUnits="userSpaceOnUse"
       id="linearGradient5926"
       xlink:href="#linearGradient3454-2-5-0-3-4" />
    <linearGradient
       id="linearGradient3454-2-5-0-3-4">
      <stop
         id="stop3456-4-9-38-1-8"
         style="stop-color:#ffffff;stop-opacity:1"
         offset="0" />
      <stop
         id="stop3458-39-80-3-5-5"
         style="stop-color:#ffffff;stop-opacity:0.23529412"
         offset="0.0097359" />
      <stop
         id="stop3460-7-0-2-4-2"
         style="stop-color:#ffffff;stop-opacity:0.15686275"
         offset="0.99001008" />
      <stop
         id="stop3462-0-9-8-7-2"
         style="stop-color:#ffffff;stop-opacity:0.39215687"
         offset="1" />
    </linearGradient>
    <linearGradient
       y2="36.657963"
       x2="22.809399"
       y1="49.629246"
       x1="22.934725"
       gradientTransform="matrix(0.7467531,0,0,0.6554922,-1.921891,1.167619)"
       gradientUnits="userSpaceOnUse"
       id="linearGradient5922"
       xlink:href="#linearGradient6129-963-697-142-998-580-273-5" />
    <linearGradient
       id="linearGradient6129-963-697-142-998-580-273-5">
      <stop
         offset="0"
         style="stop-color:#0a0a0a;stop-opacity:0.498"
         id="stop2661-1" />
      <stop
         offset="1"
         style="stop-color:#0a0a0a;stop-opacity:0"
         id="stop2663-85" />
    </linearGradient>
    <linearGradient
       y2="43.761127"
       x2="35.792694"
       y1="17.118193"
       x1="35.792694"
       gradientTransform="matrix(0.64444432,0,0,0.64285702,0.53351936,0.89285905)"
       gradientUnits="userSpaceOnUse"
       id="linearGradient5915"
       xlink:href="#linearGradient4632-0-6-4" />
    <linearGradient
       id="linearGradient4632-0-6-4-3-4">
      <stop
         id="stop4634-4-4-7-7-4"
         offset="0"
         style="stop-color:#bababa;stop-opacity:1;" />
      <stop
         id="stop4636-3-1-5-1-3"
         offset="1"
         style="stop-color:#838383;stop-opacity:1;" />
    </linearGradient>
    <linearGradient
       y2="609.50507"
       x2="302.85715"
       y1="366.64789"
       x1="302.85715"
       gradientTransform="matrix(0.05114282,0,0,0.01591575,-2.4899573,22.29927)"
       gradientUnits="userSpaceOnUse"
       id="linearGradient5905"
       xlink:href="#linearGradient5048-585-0" />
    <linearGradient
       id="linearGradient5048-585-0">
      <stop
         offset="0"
         style="stop-color:#000000;stop-opacity:0"
         id="stop2667-18" />
      <stop
         offset="0.5"
         style="stop-color:#000000;stop-opacity:1"
         id="stop2669-9" />
      <stop
         offset="1"
         style="stop-color:#000000;stop-opacity:0"
         id="stop2671-33" />
    </linearGradient>
    <radialGradient
       r="117.14286"
       fy="486.64789"
       fx="605.71429"
       cy="486.64789"
       cx="605.71429"
       gradientTransform="matrix(0.01983573,0,0,0.01591575,16.38765,22.29927)"
       gradientUnits="userSpaceOnUse"
       id="radialGradient5907"
       xlink:href="#linearGradient5060-179-67" />
    <linearGradient
       id="linearGradient5060-179-67">
      <stop
         offset="0"
         style="stop-color:#000000;stop-opacity:1"
         id="stop2675-81" />
      <stop
         offset="1"
         style="stop-color:#000000;stop-opacity:0"
         id="stop2677-2" />
    </linearGradient>
    <radialGradient
       r="117.14286"
       fy="486.64789"
       fx="605.71429"
       cy="486.64789"
       cx="605.71429"
       gradientTransform="matrix(-0.01983573,0,0,0.01591575,15.60139,22.29927)"
       gradientUnits="userSpaceOnUse"
       id="radialGradient5909"
       xlink:href="#linearGradient5060-820-4" />
    <linearGradient
       id="linearGradient5060-820-4">
      <stop
         offset="0"
         style="stop-color:#000000;stop-opacity:1"
         id="stop2681-5" />
      <stop
         offset="1"
         style="stop-color:#000000;stop-opacity:0"
         id="stop2683-00" />
    </linearGradient>
    <linearGradient
       y2="34.143417"
       x2="21.37039"
       y1="4.73244"
       x1="21.37039"
       gradientTransform="matrix(0.54383556,0,0,0.61466406,3.2688794,5.091139)"
       gradientUnits="userSpaceOnUse"
       id="linearGradient5903"
       xlink:href="#linearGradient4325" />
    <linearGradient
       id="linearGradient4325">
      <stop
         id="stop4327"
         style="stop-color:#ffffff;stop-opacity:1"
         offset="0" />
      <stop
         id="stop4329"
         style="stop-color:#ffffff;stop-opacity:0.23529412"
         offset="0.1106325" />
      <stop
         id="stop4331"
         style="stop-color:#ffffff;stop-opacity:0.15686275"
         offset="0.99001008" />
      <stop
         id="stop4333"
         style="stop-color:#ffffff;stop-opacity:0.39215687"
         offset="1" />
    </linearGradient>
    <linearGradient
       y2="16"
       x2="62.988873"
       y1="13"
       x1="62.988873"
       gradientTransform="matrix(0.61904762,0,0,0.61904762,-30.391811,1.428569)"
       gradientUnits="userSpaceOnUse"
       id="linearGradient5899"
       xlink:href="#linearGradient4646-7-4-3-5" />
    <linearGradient
       id="linearGradient4646-7-4-3-5">
      <stop
         id="stop4648-8-0-3-6"
         style="stop-color:#f9f9f9;stop-opacity:1"
         offset="0" />
      <stop
         id="stop4650-1-7-3-4"
         style="stop-color:#d8d8d8;stop-opacity:1"
         offset="1" />
    </linearGradient>
    <linearGradient
       id="linearGradient3104-8-8-97-4-6-11-5-5-0">
      <stop
         id="stop3106-5-4-3-5-0-2-1-0-6"
         style="stop-color:#000000;stop-opacity:0.32173914"
         offset="0" />
      <stop
         id="stop3108-4-3-7-8-2-0-7-9-1"
         style="stop-color:#000000;stop-opacity:0.27826086"
         offset="1" />
    </linearGradient>
    <linearGradient
       xlink:href="#linearGradient3104-8-8-97-4-6-11-5-5-0"
       id="linearGradient14236"
       gradientUnits="userSpaceOnUse"
       gradientTransform="matrix(0.50703384,0,0,0.50300255,68.029219,1.329769)"
       x1="-51.786404"
       y1="53.514328"
       x2="-51.786404"
       y2="3.6336823" />
    <linearGradient
       xlink:href="#linearGradient4632-0-6-4"
       id="linearGradient5915-3"
       gradientUnits="userSpaceOnUse"
       gradientTransform="matrix(0.6874073,0,0,0.68571418,11.543444,21.623498)"
       x1="35.792694"
       y1="17.118193"
       x2="35.792694"
       y2="43.761127" />
    <linearGradient
       id="linearGradient4632-0-6-4">
      <stop
         style="stop-color:#55a7f3;stop-opacity:1;"
         offset="0"
         id="stop4634-4-4-7" />
      <stop
         style="stop-color:#1374cf;stop-opacity:1;"
         offset="1"
         id="stop4636-3-1-5" />
    </linearGradient>
    <linearGradient
       y2="90.238609"
       x2="32.251034"
       y1="6.1317081"
       x1="32.251034"
       gradientTransform="matrix(1.0238095,0,0,1.0119048,-1.1428571,-98.071429)"
       gradientUnits="userSpaceOnUse"
       id="linearGradient5290"
       xlink:href="#ButtonShadow-0" />
    <linearGradient
       gradientTransform="matrix(1.0058652,0,0,0.994169,100,0)"
       gradientUnits="userSpaceOnUse"
       id="ButtonShadow-0"
       y2="7.0165396"
       x2="45.447727"
       y1="92.539597"
       x1="45.447727">
      <stop
         offset="0"
         style="stop-color:#000000;stop-opacity:1"
         id="stop3750-8" />
      <stop
         offset="1"
         style="stop-color:#000000;stop-opacity:0.58823532"
         id="stop3752-5" />
    </linearGradient>
    <linearGradient
       gradientTransform="translate(0,-97)"
       gradientUnits="userSpaceOnUse"
       xlink:href="#ButtonShadow-0"
       id="linearGradient3721"
       y2="90.238609"
       x2="32.251034"
       y1="6.1317081"
       x1="32.251034" />
    <linearGradient
       gradientUnits="userSpaceOnUse"
       xlink:href="#linearGradient4057"
       id="linearGradient3617-9"
       y2="5.9877172"
       x2="48"
       y1="90"
       x1="48" />
    <linearGradient
       id="linearGradient4057">
      <stop
         offset="0"
         style="stop-color:#dd481f;stop-opacity:0.94117647"
         id="stop4059" />
      <stop
         offset="1"
         style="stop-color:#ec6829;stop-opacity:0.94117647"
         id="stop4061" />
    </linearGradient>
    <linearGradient
       gradientUnits="userSpaceOnUse"
       xlink:href="#linearGradient8265-821-176-38-919-66-249"
       id="linearGradient3188-4"
       y2="63.893143"
       x2="36.357143"
       y1="6"
       x1="36.357143" />
    <linearGradient
       id="linearGradient8265-821-176-38-919-66-249">
      <stop
         id="stop2687"
         style="stop-color:#ffffff;stop-opacity:1"
         offset="0" />
      <stop
         id="stop2689"
         style="stop-color:#ffffff;stop-opacity:0"
         offset="1" />
    </linearGradient>
    <radialGradient
       gradientTransform="matrix(1.1573129,0,0,0.99590774,-7.5510206,0.19713193)"
       gradientUnits="userSpaceOnUse"
       xlink:href="#linearGradient8265-821-176-38-919-66-249"
       id="radialGradient3619-7"
       fy="90.171875"
       fx="48"
       r="42"
       cy="90.171875"
       cx="48" />
    <linearGradient
       gradientUnits="userSpaceOnUse"
       xlink:href="#linearGradient8265-821-176-38-919-66-249"
       id="linearGradient3613-6"
       y2="138.66119"
       x2="48"
       y1="20.220806"
       x1="48" />
    <clipPath
       id="clipPath3613-12">
      <rect
         style="fill:#ffffff;fill-opacity:1;fill-rule:nonzero;stroke:none"
         id="rect3615-9"
         y="6"
         x="6"
         ry="6"
         rx="6"
         height="84"
         width="84" />
    </clipPath>
    <filter
       id="filter3794-3"
       height="1.3839999"
       width="1.3839999"
       y="-0.192"
       x="-0.192"
       style="color-interpolation-filters:sRGB">
      <feGaussianBlur
         stdDeviation="5.28"
         id="feGaussianBlur3796-1" />
    </filter>
    <linearGradient
       y2="90.238609"
       x2="32.251034"
       y1="6.1317081"
       x1="32.251034"
       gradientTransform="matrix(1.0238095,0,0,1.0119048,-1.1428571,-98.071429)"
       gradientUnits="userSpaceOnUse"
       id="linearGradient5437"
       xlink:href="#ButtonShadow-0" />
    <linearGradient
       gradientTransform="translate(0,-97)"
       gradientUnits="userSpaceOnUse"
       xlink:href="#ButtonShadow-0"
       id="linearGradient3721-7"
       y2="90.238609"
       x2="32.251034"
       y1="6.1317081"
       x1="32.251034" />
    <linearGradient
       gradientUnits="userSpaceOnUse"
       xlink:href="#linearGradient4266"
       id="linearGradient4272"
       y2="5.8498044"
       x2="37.964287"
       y1="90.5"
       x1="37.964287" />
    <linearGradient
       id="linearGradient4266">
      <stop
         offset="0"
         style="stop-color:#47761a;stop-opacity:1"
         id="stop4268" />
      <stop
         offset="1"
         style="stop-color:#61a224;stop-opacity:1"
         id="stop4270" />
    </linearGradient>
    <linearGradient
       gradientUnits="userSpaceOnUse"
       xlink:href="#linearGradient8265-821-176-38-919-66-249"
       id="linearGradient3188-6"
       y2="63.893143"
       x2="36.357143"
       y1="6"
       x1="36.357143" />
    <radialGradient
       gradientTransform="matrix(1.1573129,0,0,0.99590774,-7.5510206,0.19713193)"
       gradientUnits="userSpaceOnUse"
       xlink:href="#linearGradient8265-821-176-38-919-66-249"
       id="radialGradient3619-1"
       fy="90.171875"
       fx="48"
       r="42"
       cy="90.171875"
       cx="48" />
    <linearGradient
       gradientUnits="userSpaceOnUse"
       xlink:href="#linearGradient3312"
       id="linearGradient4201"
       y2="72"
       x2="48"
       y1="24"
       x1="32" />
    <linearGradient
       id="linearGradient3312">
      <stop
         offset="0"
         style="stop-color:#c7f994;stop-opacity:1"
         id="stop3314" />
      <stop
         offset="1"
         style="stop-color:#87cf3e;stop-opacity:1"
         id="stop3316" />
    </linearGradient>
    <linearGradient
       gradientUnits="userSpaceOnUse"
       xlink:href="#linearGradient5060-179-67"
       id="linearGradient4215"
       y2="39.964417"
       x2="49.614868"
       y1="64.280525"
       x1="29.158056" />
    <linearGradient
       y2="90.238609"
       x2="32.251034"
       y1="6.1317081"
       x1="32.251034"
       gradientTransform="matrix(1.0238095,0,0,1.0119048,-1.1428571,-98.071429)"
       gradientUnits="userSpaceOnUse"
       id="linearGradient5599"
       xlink:href="#ButtonShadow-0" />
    <linearGradient
       gradientTransform="translate(0,-97)"
       gradientUnits="userSpaceOnUse"
       xlink:href="#ButtonShadow-0"
       id="linearGradient3721-9"
       y2="90.238609"
       x2="32.251034"
       y1="6.1317081"
       x1="32.251034" />
    <linearGradient
       gradientUnits="userSpaceOnUse"
       xlink:href="#linearGradient3903"
       id="linearGradient3909"
       y2="5.9464455"
       x2="48"
       y1="90"
       x1="48" />
    <linearGradient
       id="linearGradient3903">
      <stop
         offset="0"
         style="stop-color:#1793d1;stop-opacity:1"
         id="stop3905" />
      <stop
         offset="1"
         style="stop-color:#6dc4ef;stop-opacity:1"
         id="stop3907" />
    </linearGradient>
    <linearGradient
       gradientUnits="userSpaceOnUse"
       xlink:href="#linearGradient8265-821-176-38-919-66-249"
       id="linearGradient3188-0"
       y2="63.893143"
       x2="36.357143"
       y1="6"
       x1="36.357143" />
    <radialGradient
       gradientTransform="matrix(1.1573129,0,0,0.99590774,-7.5510206,0.19713193)"
       gradientUnits="userSpaceOnUse"
       xlink:href="#linearGradient8265-821-176-38-919-66-249"
       id="radialGradient3619-61"
       fy="90.171875"
       fx="48"
       r="42"
       cy="90.171875"
       cx="48" />
    <linearGradient
       gradientUnits="userSpaceOnUse"
       xlink:href="#linearGradient8265-821-176-38-919-66-249"
       id="linearGradient3613-5"
       y2="138.66119"
       x2="48"
       y1="20.220806"
       x1="48" />
    <clipPath
       id="clipPath3613-5">
      <rect
         style="fill:#ffffff;fill-opacity:1;fill-rule:nonzero;stroke:none"
         id="rect3615-4"
         y="6"
         x="6"
         ry="6"
         rx="6"
         height="84"
         width="84" />
    </clipPath>
    <filter
       id="filter3794-76"
       height="1.3839999"
       width="1.3839999"
       y="-0.192"
       x="-0.192"
       style="color-interpolation-filters:sRGB">
      <feGaussianBlur
         stdDeviation="5.28"
         id="feGaussianBlur3796-56" />
    </filter>
    <radialGradient
       gradientTransform="matrix(1,0,0,1.0001879,0,-0.00901697)"
       gradientUnits="userSpaceOnUse"
       xlink:href="#linearGradient3919"
       id="radialGradient3925"
       fy="71.995491"
       fx="48"
       r="32.993801"
       cy="71.995491"
       cx="48" />
    <linearGradient
       id="linearGradient3919">
      <stop
         offset="0"
         style="stop-color:#fafafa;stop-opacity:1"
         id="stop3921" />
      <stop
         offset="1"
         style="stop-color:#f0f0f0;stop-opacity:1"
         id="stop3923" />
    </linearGradient>
    <linearGradient
       gradientTransform="matrix(-0.13677913,0,0,0.13677146,122.19582,8.5219823)"
       gradientUnits="userSpaceOnUse"
       xlink:href="#path1082_2_-8"
       id="linearGradient3060-4"
       y2="303.14029"
       x2="606.91248"
       y1="104.50665"
       x1="541.33502" />
    <linearGradient
       gradientTransform="translate(287,-83)"
       gradientUnits="userSpaceOnUse"
       id="path1082_2_-8"
       y2="129.3468"
       x2="112.49853"
       y1="6.1372099"
       x1="112.49854">
      <stop
         offset="0"
         style="stop-color:#ffffff;stop-opacity:0"
         id="stop193-9" />
      <stop
         offset="1"
         style="stop-color:#ffffff;stop-opacity:0.60465115"
         id="stop195-6" />
      <midPointStop
         offset="0"
         style="stop-color:#FFFFFF"
         id="midPointStop197-7" />
      <midPointStop
         offset="0.5"
         style="stop-color:#FFFFFF"
         id="midPointStop199-4" />
      <midPointStop
         offset="1"
         style="stop-color:#000000"
         id="midPointStop201-8" />
    </linearGradient>
    <linearGradient
       xlink:href="#ButtonShadow-0"
       id="linearGradient1290"
       gradientUnits="userSpaceOnUse"
       gradientTransform="matrix(1.0238095,0,0,1.0119048,-1.1428571,-98.071429)"
       x1="32.251034"
       y1="6.1317081"
       x2="32.251034"
       y2="90.238609" />
    <linearGradient
       xlink:href="#ButtonShadow-0"
       id="linearGradient1292"
       gradientUnits="userSpaceOnUse"
       gradientTransform="matrix(1.0238095,0,0,1.0119048,-1.1428571,-98.071429)"
       x1="32.251034"
       y1="6.1317081"
       x2="32.251034"
       y2="90.238609" />
    <linearGradient
       xlink:href="#ButtonShadow-0"
       id="linearGradient1294"
       gradientUnits="userSpaceOnUse"
       gradientTransform="matrix(1.0238095,0,0,1.0119048,-1.1428571,-98.071429)"
       x1="32.251034"
       y1="6.1317081"
       x2="32.251034"
       y2="90.238609" />
    <linearGradient
       x1="48"
       y1="90"
       x2="48"
       y2="5.9877172"
       id="linearGradient3617-74"
       xlink:href="#linearGradient4561"
       gradientUnits="userSpaceOnUse"
       gradientTransform="translate(0,-96)" />
    <linearGradient
       id="linearGradient4561">
      <stop
         offset="0"
         style="stop-color:#004f94;stop-opacity:1"
         id="stop4557" />
      <stop
         offset="1"
         style="stop-color:#033775;stop-opacity:1"
         id="stop4559" />
    </linearGradient>
    <radialGradient
       cx="48"
       cy="90.171875"
       r="42"
       fx="48"
       fy="90.171875"
       id="radialGradient3619-2"
       xlink:href="#linearGradient8265-821-176-38-919-66-249"
       gradientUnits="userSpaceOnUse"
       gradientTransform="matrix(1.1573129,0,0,0.99590774,-7.5510206,0.19713193)" />
    <clipPath
       id="clipPath3613-7">
      <rect
         width="84"
         height="84"
         rx="6"
         ry="6"
         x="6"
         y="6"
         id="rect3615-44"
         style="fill:#ffffff;fill-opacity:1;fill-rule:nonzero;stroke:none" />
    </clipPath>
    <filter
       style="color-interpolation-filters:sRGB"
       x="-0.192"
       y="-0.192"
       width="1.3839999"
       height="1.3839999"
       id="filter3794-30">
      <feGaussianBlur
         id="feGaussianBlur3796-7"
         stdDeviation="5.28" />
    </filter>
    <linearGradient
       x1="48"
       y1="90"
       x2="48"
       y2="5.9877172"
       id="linearGradient3617-8"
       xlink:href="#linearGradient4108"
       gradientUnits="userSpaceOnUse" />
    <linearGradient
       id="linearGradient4108">
      <stop
         id="stop4110"
         style="stop-color:#8983ac;stop-opacity:1"
         offset="0" />
      <stop
         id="stop4112"
         style="stop-color:#ceccdd;stop-opacity:1"
         offset="1" />
    </linearGradient>
    <radialGradient
       cx="48"
       cy="90.171875"
       r="42"
       fx="48"
       fy="90.171875"
       id="radialGradient3619-4"
       xlink:href="#linearGradient8265-821-176-38-919-66-249"
       gradientUnits="userSpaceOnUse"
       gradientTransform="matrix(1.1573129,0,0,0.99590774,-7.5510206,0.19713193)" />
    <clipPath
       id="clipPath3613-14">
      <rect
         width="84"
         height="84"
         rx="6"
         ry="6"
         x="6"
         y="6"
         id="rect3615-92"
         style="fill:#ffffff;fill-opacity:1;fill-rule:nonzero;stroke:none" />
    </clipPath>
    <filter
       style="color-interpolation-filters:sRGB"
       x="-0.192"
       y="-0.192"
       width="1.3839999"
       height="1.3839999"
       id="filter3794-0">
      <feGaussianBlur
         id="feGaussianBlur3796-6"
         stdDeviation="5.28" />
    </filter>
    <linearGradient
       x1="783.86316"
       y1="-313.5238"
       x2="1099.6853"
       y2="1340.5599"
       id="linearGradient2994"
       xlink:href="#linearGradient3004"
       gradientUnits="userSpaceOnUse"
       gradientTransform="matrix(1.237124,0,0,1.237124,-1037.425,-1010.413)" />
    <linearGradient
       id="linearGradient3004">
      <stop
         id="stop3006"
         style="stop-color:#ffffff;stop-opacity:1"
         offset="0" />
      <stop
         id="stop7609"
         style="stop-color:#ffffff;stop-opacity:1"
         offset="0.34214258" />
      <stop
         id="stop7599"
         style="stop-color:#bebdf3;stop-opacity:1"
         offset="0.51998252" />
      <stop
         id="stop7611"
         style="stop-color:#8f82f9;stop-opacity:1"
         offset="0.75408828" />
      <stop
         id="stop7613"
         style="stop-color:#9f99c7;stop-opacity:1"
         offset="0.8711412" />
      <stop
         id="stop3008"
         style="stop-color:#524c76;stop-opacity:1"
         offset="1" />
    </linearGradient>
    <linearGradient
       x1="464.01675"
       y1="697.43707"
       x2="368.62137"
       y2="269.70941"
       id="linearGradient2986"
       xlink:href="#linearGradient3004"
       gradientUnits="userSpaceOnUse"
       gradientTransform="matrix(1.237124,0,0,1.237124,-161.0905,-377.3414)" />
    <radialGradient
       cx="49.529819"
       cy="320.08572"
       r="31.94874"
       fx="49.529819"
       fy="320.08572"
       id="radialGradient5851"
       xlink:href="#linearGradient3004"
       gradientUnits="userSpaceOnUse"
       gradientTransform="matrix(3.287367,0,0,2.519654,111.6891,-642.7214)" />
    <radialGradient
       cx="332.72311"
       cy="590.5899"
       r="218.02184"
       fx="332.72311"
       fy="590.5899"
       id="radialGradient3228"
       xlink:href="#linearGradient3004"
       gradientUnits="userSpaceOnUse"
       gradientTransform="matrix(-0.0660395,4.190266,-3.573754,-0.05626827,2168.154,-1171.421)" />
    <linearGradient
       x1="48"
       y1="90"
       x2="48"
       y2="5.9877172"
       id="linearGradient3617-2"
       xlink:href="#linearGradient3700-6"
       gradientUnits="userSpaceOnUse" />
    <linearGradient
       id="linearGradient3700-6">
      <stop
         id="stop3702-6"
         style="stop-color:#78a1bd;stop-opacity:1"
         offset="0" />
      <stop
         id="stop3704-4"
         style="stop-color:#afc8d8;stop-opacity:1"
         offset="1" />
    </linearGradient>
    <linearGradient
       x1="67.069962"
       y1="64.850754"
       x2="50.376633"
       y2="2.5504081"
       id="linearGradient3739"
       xlink:href="#linearGradient3733"
       gradientUnits="userSpaceOnUse"
       gradientTransform="matrix(0.95238098,0,0,0.95238098,2.7994163,1.616242)" />
    <linearGradient
       id="linearGradient3733">
      <stop
         id="stop3735"
         style="stop-color:#3972ac;stop-opacity:1"
         offset="0" />
      <stop
         id="stop3737"
         style="stop-color:#5b91c9;stop-opacity:1"
         offset="1" />
    </linearGradient>
    <linearGradient
       x1="50.035419"
       y1="72.402008"
       x2="50.035419"
       y2="22.69219"
       id="linearGradient3758"
       xlink:href="#linearGradient3752"
       gradientUnits="userSpaceOnUse" />
    <linearGradient
       id="linearGradient3752">
      <stop
         id="stop3754"
         style="stop-color:#0e4688;stop-opacity:1"
         offset="0" />
      <stop
         id="stop3756"
         style="stop-color:#135eb7;stop-opacity:1"
         offset="1" />
    </linearGradient>
    <linearGradient
       x1="22.03125"
       y1="48"
       x2="104"
       y2="48"
       id="linearGradient3787"
       xlink:href="#linearGradient8265-821-176-38-919-66-249"
       gradientUnits="userSpaceOnUse"
       gradientTransform="rotate(90,48,48)" />
    <linearGradient
       x1="36"
       y1="8"
       x2="36"
       y2="128.59851"
       id="linearGradient3802"
       xlink:href="#linearGradient8265-821-176-38-919-66-249"
       gradientUnits="userSpaceOnUse" />
    <linearGradient
       x1="48"
       y1="20.220806"
       x2="48"
       y2="138.66119"
       id="linearGradient3613-95"
       xlink:href="#linearGradient8265-821-176-38-919-66-249"
       gradientUnits="userSpaceOnUse" />
    <clipPath
       id="clipPath3613-0">
      <rect
         width="84"
         height="84"
         rx="6"
         ry="6"
         x="6"
         y="6"
         id="rect3615-48"
         style="fill:#ffffff;fill-opacity:1;fill-rule:nonzero;stroke:none" />
    </clipPath>
    <filter
       style="color-interpolation-filters:sRGB"
       x="-0.192"
       y="-0.192"
       width="1.3839999"
       height="1.3839999"
       id="filter3794-71">
      <feGaussianBlur
         id="feGaussianBlur3796-72"
         stdDeviation="5.28" />
    </filter>
    <radialGradient
       cx="48"
       cy="90.171875"
       r="42"
       fx="48"
       fy="90.171875"
       id="radialGradient3619-22"
       xlink:href="#linearGradient8265-821-176-38-919-66-249"
       gradientUnits="userSpaceOnUse"
       gradientTransform="matrix(1.1573129,0,0,0.99590774,-7.5510206,0.19713193)" />
    <linearGradient
       x1="36.357143"
       y1="6"
       x2="36.357143"
       y2="63.893143"
       id="linearGradient3188-59"
       xlink:href="#linearGradient8265-821-176-38-919-66-249"
       gradientUnits="userSpaceOnUse" />
    <radialGradient
       cx="48"
       cy="90.171875"
       r="42"
       fx="48"
       fy="90.171875"
       id="radialGradient3619-49"
       xlink:href="#linearGradient8265-821-176-38-919-66-249"
       gradientUnits="userSpaceOnUse"
       gradientTransform="matrix(1.1573129,0,0,0.99590774,-7.5510206,0.19713193)" />
    <linearGradient
       xlink:href="#linearGradient8265-821-176-38-919-66-249"
       id="linearGradient3047"
       gradientUnits="userSpaceOnUse"
       x1="48"
       y1="20.220806"
       x2="48"
       y2="138.66119" />
    <clipPath
       id="clipPath3613-09">
      <rect
         width="84"
         height="84"
         rx="6"
         ry="6"
         x="6"
         y="6"
         id="rect3615-1"
         style="fill:#ffffff;fill-opacity:1;fill-rule:nonzero;stroke:none" />
    </clipPath>
    <filter
       style="color-interpolation-filters:sRGB"
       x="-0.192"
       y="-0.192"
       width="1.3839999"
       height="1.3839999"
       id="filter3794-77">
      <feGaussianBlur
         id="feGaussianBlur3796-11"
         stdDeviation="5.28" />
    </filter>
    <linearGradient
       y2="81.341599"
       x2="21.0746"
       y1="22.4342"
       x1="59.7061"
       gradientUnits="userSpaceOnUse"
       id="linearGradient3017"
       xlink:href="#Grad0" />
    <linearGradient
       gradientUnits="userSpaceOnUse"
       id="Grad0"
       y1="22.4342"
       y2="81.341599"
       x1="59.7061"
       x2="21.0746">
      <stop
         offset="17.4342%"
         stop-color="#cacfd0"
         stop-opacity="1"
         id="stop7" />
      <stop
         offset="80.2632%"
         stop-color="#ffffff"
         stop-opacity="1"
         id="stop9" />
    </linearGradient>
    <linearGradient
       x1="32.251034"
       y1="6.1317081"
       x2="32.251034"
       y2="90.238609"
       id="linearGradient3721-79"
       xlink:href="#ButtonShadow-0"
       gradientUnits="userSpaceOnUse"
       gradientTransform="translate(0,-97)" />
    <linearGradient
       xlink:href="#linearGradient3925"
       id="linearGradient6410"
       gradientUnits="userSpaceOnUse"
       x1="64"
       y1="88"
       x2="64"
       y2="8" />
    <linearGradient
       id="linearGradient3925">
      <stop
         id="stop3927"
         style="stop-color:#3c6eb4;stop-opacity:1"
         offset="0" />
      <stop
         id="stop3929"
         style="stop-color:#81a4d5;stop-opacity:1"
         offset="1" />
    </linearGradient>
    <radialGradient
       cx="115.8989"
       cy="133.10451"
       r="154.62019"
       fx="115.8989"
       fy="133.10451"
       id="radialGradient2877-6"
       xlink:href="#radialGradient3897-3"
       gradientUnits="userSpaceOnUse"
       gradientTransform="matrix(0.25364919,0,0,0.25365619,16,16.000007)" />
    <radialGradient
       cx="115.8989"
       cy="133.10451"
       r="154.62019"
       fx="115.8989"
       fy="133.10451"
       id="radialGradient3897-3"
       gradientUnits="userSpaceOnUse">
      <stop
         id="stop3899-4"
         style="stop-color:#294172;stop-opacity:0.37404579"
         offset="0" />
      <stop
         id="stop3901-7"
         style="stop-color:#294172;stop-opacity:1"
         offset="1" />
    </radialGradient>
    <radialGradient
       cx="115.8989"
       cy="133.10451"
       r="154.62019"
       fx="115.8989"
       fy="133.10451"
       id="radialGradient2877"
       xlink:href="#radialGradient3897"
       gradientUnits="userSpaceOnUse"
       gradientTransform="matrix(0.25364919,0,0,0.25365619,41.830508,40.127126)" />
    <radialGradient
       cx="115.8989"
       cy="133.10451"
       r="154.62019"
       fx="115.8989"
       fy="133.10451"
       id="radialGradient3897"
       gradientUnits="userSpaceOnUse">
      <stop
         id="stop3899"
         style="stop-color:#294172;stop-opacity:0.37404579"
         offset="0" />
      <stop
         id="stop3901"
         style="stop-color:#294172;stop-opacity:1"
         offset="1" />
    </radialGradient>
    <linearGradient
       x1="36.357143"
       y1="6"
       x2="36.357143"
       y2="63.893143"
       id="linearGradient3188-597"
       xlink:href="#linearGradient8265-821-176-38-919-66-249"
       gradientUnits="userSpaceOnUse" />
    <radialGradient
       cx="48"
       cy="90.171875"
       r="42"
       fx="48"
       fy="90.171875"
       id="radialGradient3619-76"
       xlink:href="#linearGradient8265-821-176-38-919-66-249"
       gradientUnits="userSpaceOnUse"
       gradientTransform="matrix(1.1573129,0,0,0.99590774,-7.5510206,0.19713193)" />
    <linearGradient
       y2="90.238609"
       x2="32.251034"
       y1="6.1317081"
       x1="32.251034"
       gradientTransform="matrix(1.0238095,0,0,1.0119048,-1.1428571,-98.071429)"
       gradientUnits="userSpaceOnUse"
       id="linearGradient5278"
       xlink:href="#ButtonShadow-0" />
    <linearGradient
       y2="90.238609"
       x2="32.251034"
       y1="6.1317081"
       x1="32.251034"
       gradientTransform="matrix(1.0238095,0,0,1.0119048,-1.1428571,-98.071429)"
       gradientUnits="userSpaceOnUse"
       id="linearGradient5280"
       xlink:href="#ButtonShadow-0" />
    <linearGradient
       y2="90.238609"
       x2="32.251034"
       y1="6.1317081"
       x1="32.251034"
       gradientTransform="matrix(1.0238095,0,0,1.0119048,-1.1428571,-98.071429)"
       gradientUnits="userSpaceOnUse"
       id="linearGradient5282"
       xlink:href="#ButtonShadow-0" />
    <linearGradient
       y2="8"
       x2="64"
       y1="88"
       x1="64"
       gradientUnits="userSpaceOnUse"
       id="linearGradient5284"
       xlink:href="#linearGradient3925" />
  </defs>
  <metadata
     id="metadata14293">
    <rdf:RDF>
      <cc:Work
         rdf:about="">
        <dc:format>image/svg+xml</dc:format>
        <dc:type
           rdf:resource="http://purl.org/dc/dcmitype/StillImage" />
        <dc:title></dc:title>
      </cc:Work>
    </rdf:RDF>
  </metadata>
  <g
     id="g5764"
     transform="matrix(0.32586558,0,0,0.32944406,-6.4681558,-7.3539834)">
    <g
       id="g6430"
       transform="translate(-4.8813549,-1.2203391)">
      <g
         id="layer3"
         transform="translate(25.830508,24.127119)">
        <path
           style="display:inline;opacity:0.07999998;fill:url(#linearGradient5278);fill-opacity:1;fill-rule:nonzero;stroke:none"
           id="path3786"
           transform="scale(1,-1)"
           d="m 12,-95.03125 c -5.5110903,0 -10.03125,4.52016 -10.03125,10.03125 v 71 c 0,5.5110902 4.5201598,10.03125 10.03125,10.03125 h 72 c 5.51109,0 10.03125,-4.5201597 10.03125,-10.03125 v -71 c 0,-5.51109 -4.52016,-10.03125 -10.03125,-10.03125 z" />
        <path
           style="display:inline;opacity:0.1;fill:url(#linearGradient5280);fill-opacity:1;fill-rule:nonzero;stroke:none"
           id="path3778"
           transform="scale(1,-1)"
           d="m 12,-94.03125 c -4.971633,0 -9.03125,4.059617 -9.03125,9.03125 v 71 c 0,4.9716329 4.0596171,9.03125 9.03125,9.03125 h 72 c 4.971633,0 9.03125,-4.059617 9.03125,-9.03125 v -71 c 0,-4.971633 -4.059617,-9.03125 -9.03125,-9.03125 z" />
        <path
           style="display:inline;opacity:0.2;fill:url(#linearGradient5282);fill-opacity:1;fill-rule:nonzero;stroke:none"
           id="path3770"
           transform="scale(1,-1)"
           d="m 12,-93 c -4.4091333,0 -8,3.590867 -8,8 v 71 c 0,4.4091333 3.5908667,8 8,8 h 72 c 4.409133,0 8,-3.5908667 8,-8 v -71 c 0,-4.409133 -3.590867,-8 -8,-8 z" />
        <rect
           style="display:inline;opacity:0.3;fill:url(#linearGradient1290);fill-opacity:1;fill-rule:nonzero;stroke:none"
           id="rect3723"
           transform="scale(1,-1)"
           y="-92"
           x="5"
           ry="7"
           rx="7"
           height="85"
           width="86" />
        <rect
           style="display:inline;opacity:0.45;fill:url(#linearGradient3721-79);fill-opacity:1;fill-rule:nonzero;stroke:none"
           id="rect3716"
           transform="scale(1,-1)"
           y="-91"
           x="6"
           ry="6"
           rx="6"
           height="84"
           width="84" />
      </g>
      <g
         id="layer1"
         transform="translate(25.830508,24.127119)">
        <rect
           style="display:inline;fill:url(#linearGradient5284);fill-opacity:1;fill-rule:nonzero;stroke:none"
           id="rect2419-5"
           y="6"
           x="6"
           ry="6"
           rx="6"
           height="84"
           width="84" />
        <rect
           style="display:inline;fill:url(#linearGradient6410);fill-opacity:1;fill-rule:nonzero;stroke:none"
           id="rect2419-5-1"
           y="6"
           x="6"
           ry="6"
           rx="6"
           height="84"
           width="84" />
        <path
           style="display:inline;fill:url(#radialGradient2877-6);fill-opacity:1"
           id="speech-bubble-7"
           d="M 48,16 C 30.335111,16 16.012175,30.319702 16,47.983051 v 20.355932 4.40678 2.288135 C 16,77.784792 18.215207,80 20.966102,80 h 2.305084 16.033898 8.711865 C 65.683614,79.9926 80,65.668929 80,48 80,30.325744 65.673007,16 48,16 Z" />
      </g>
      <path
         style="display:inline;fill:url(#radialGradient2877);fill-opacity:1"
         id="speech-bubble"
         d="m 73.830508,40.127119 c -17.664889,0 -31.987825,14.319702 -32,31.983051 v 20.355932 4.40678 2.288135 c 0,2.750893 2.215207,4.966103 4.966102,4.966103 h 2.305084 16.033898 8.711865 c 17.666665,-0.007 31.983053,-14.331072 31.983053,-32.000001 0,-17.674256 -14.326995,-32 -32.000002,-32 z" />
      <path
         style="display:inline;fill:#5484c6;fill-opacity:1"
         id="f-script-path"
         d="m 83.474732,47.139429 c -8.474771,0 -15.344197,6.869874 -15.344197,15.34436 0,0.0029 0,0.0067 0,0.01062 v 8.121275 h -8.096172 c -0.0012,0 -0.0012,0 -0.002,0 -8.474511,0 -15.343932,6.836444 -15.343932,15.310411 0,8.475266 6.869681,15.344875 15.343932,15.344875 8.473474,0 15.343158,-6.869609 15.343158,-15.344875 0,-0.0032 0,-0.0059 0,-0.01062 v -8.154962 h 8.095914 c 0.0018,0 0.0026,0 0.0034,0 8.473474,0 15.343159,-6.802757 15.343159,-15.276723 0,-8.474486 -6.869685,-15.344361 -15.343159,-15.344361 z M 68.130535,85.940612 c -0.0064,4.465288 -3.630489,8.085251 -8.098244,8.085251 -4.472422,0 -8.131676,-3.625923 -8.131676,-8.098467 0,-4.4741 3.659254,-8.167142 8.131676,-8.167142 0.0036,0 0.0073,0 0.01063,0 h 6.939393 c 0.0023,0 0.0036,0 0.0052,0 0.631773,0 1.144085,0.511288 1.144085,1.142041 0,0.0012 -7.78e-4,0.0012 -7.78e-4,0.0029 v 7.035466 h -2.58e-4 z M 83.473954,70.615688 c -0.0026,0 -0.0052,0 -0.0076,0 h -6.944055 c -0.0015,0 -0.0034,0 -0.0041,0 -0.631773,0 -1.142789,-0.51103 -1.142789,-1.143338 v -2.59e-4 -7.001518 c 0.0076,-4.46788 3.63049,-8.086549 8.098507,-8.086549 4.47242,0 8.13245,3.626184 8.13245,8.099506 0,4.472803 -3.66003,8.132158 -8.13245,8.132158 z" />
      <path
         style="display:inline;fill:#ffffff"
         id="blue-inifity-connectors"
         d="m 68.130535,70.615688 v -8.121532 c 0,-0.0036 0,-0.0076 0,-0.01063 0,-8.474485 6.869426,-15.344359 15.344197,-15.344359 1.285571,0 2.199023,0.144861 3.388975,0.456349 1.735431,0.455056 3.152643,1.876713 3.153421,3.531598 7.74e-4,2.000581 -1.451418,3.454892 -3.621679,3.454892 -1.033951,0 -1.407625,-0.197986 -2.921495,-0.197986 -4.468015,0 -8.090991,3.61867 -8.098505,8.086549 v 7.001259 2.6e-4 c 0,0.632308 0.511015,1.143336 1.142789,1.143336 7.74e-4,0 0.0026,0 0.0041,0 h 5.31798 c 1.98187,0 3.582291,1.586732 3.583846,3.573838 0,1.987885 -1.602754,3.570988 -3.583846,3.570988 h -6.464914 v 8.154963 c 0,0.0046 0,0.0076 0,0.01218 0,8.473703 -6.869685,15.343317 -15.343158,15.343317 -1.285832,0 -2.199284,-0.14486 -3.389235,-0.45661 -1.735431,-0.45479 -3.153161,-1.877228 -3.15394,-3.531596 0,-2.000061 1.45116,-3.454889 3.622458,-3.454889 1.032913,0 1.407624,0.198242 2.920717,0.198242 4.468015,0 8.092026,-3.618925 8.099023,-8.08525 0,0 0,-7.036761 0,-7.038056 0,-0.631013 -0.512311,-1.142042 -1.144084,-1.142042 -7.75e-4,0 -0.0015,0 -0.0029,0 h -5.317722 c -1.982388,0 -3.584104,-1.581548 -3.584104,-3.569951 -5.19e-4,-1.999545 1.618301,-3.574615 3.621679,-3.574615 h 6.426303 v -2.59e-4 z" />
      <path
         style="display:inline;opacity:0.1;fill:#000000;fill-opacity:1"
         id="path3933"
         d="m 73.830508,40.127119 c -17.664889,0 -31.987825,14.305401 -32,31.96875 v 1 c 0.01217,-17.663349 14.335111,-31.96875 32,-31.96875 17.50634,0 31.733292,14.055951 32.000002,31.5 0.002,-0.166024 0,-0.333371 0,-0.5 0,-17.674256 -14.326995,-32 -32.000002,-32 z" />
      <path
         style="display:inline;opacity:0.1;fill:#ffffff;fill-opacity:1"
         id="path3942"
         d="M 105.83051,72.627119 C 105.564,90.065952 91.361816,104.11979 73.861758,104.12712 h -8.71875 -16.03125 -2.3125 c -2.750895,0 -4.96875,-2.21786 -4.96875,-4.968751 v 1.000001 c 0,2.75089 2.217855,4.96875 4.96875,4.96875 h 2.3125 16.03125 8.71875 c 17.666665,-0.007 31.968752,-14.331072 31.968752,-32.000001 0,-0.166679 0.002,-0.333926 0,-0.5 z" />
      <g
         style="display:inline"
         id="layer5"
         transform="translate(25.830508,24.127119)">
        <path
           style="opacity:0.3;fill:url(#linearGradient3188-597);fill-opacity:1;fill-rule:nonzero;stroke:none"
           id="rect3728"
           d="M 12,6 C 8.676,6 6,8.676 6,12 v 2 68 2 c 0,0.334721 0.04135,0.6507 0.09375,0.96875 0.0487,0.295596 0.09704,0.596915 0.1875,0.875 0.00988,0.03038 0.020892,0.0636 0.03125,0.09375 0.098865,0.287771 0.2348802,0.547452 0.375,0.8125 0.1445918,0.273507 0.3156161,0.535615 0.5,0.78125 0.1843839,0.245635 0.3737765,0.473472 0.59375,0.6875 0.439947,0.428056 0.94291,0.814526 1.5,1.09375 0.278545,0.139612 0.5734731,0.246947 0.875,0.34375 -0.2562018,-0.100222 -0.4867109,-0.236272 -0.71875,-0.375 -0.00741,-0.0044 -0.023866,0.0045 -0.03125,0 -0.031933,-0.0193 -0.062293,-0.04251 -0.09375,-0.0625 -0.120395,-0.0767 -0.2310226,-0.163513 -0.34375,-0.25 -0.1061728,-0.0808 -0.2132809,-0.161112 -0.3125,-0.25 C 8.4783201,88.557317 8.3087904,88.373362 8.15625,88.1875 8.0486711,88.057245 7.9378561,87.922215 7.84375,87.78125 7.818661,87.74287 7.805304,87.69538 7.78125,87.65625 7.716487,87.553218 7.6510225,87.451733 7.59375,87.34375 7.4927417,87.149044 7.3880752,86.928049 7.3125,86.71875 7.30454,86.69694 7.288911,86.6782 7.28125,86.65625 7.2494249,86.5643 7.2454455,86.469419 7.21875,86.375 7.1884177,86.268382 7.1483606,86.171969 7.125,86.0625 7.0521214,85.720988 7,85.364295 7,85 V 83 15 13 C 7,10.218152 9.2181517,8 12,8 h 2 68 2 c 2.781848,0 5,2.218152 5,5 v 2 68 2 c 0,0.364295 -0.05212,0.720988 -0.125,1.0625 -0.04415,0.206893 -0.08838,0.397658 -0.15625,0.59375 -0.0077,0.02195 -0.0233,0.04069 -0.03125,0.0625 -0.06274,0.173739 -0.138383,0.367449 -0.21875,0.53125 -0.04158,0.0828 -0.07904,0.169954 -0.125,0.25 -0.0546,0.09721 -0.126774,0.18835 -0.1875,0.28125 -0.09411,0.140965 -0.204921,0.275995 -0.3125,0.40625 -0.143174,0.17445 -0.303141,0.346998 -0.46875,0.5 -0.01117,0.0102 -0.01998,0.02115 -0.03125,0.03125 -0.138386,0.125556 -0.285091,0.234436 -0.4375,0.34375 -0.102571,0.07315 -0.204318,0.153364 -0.3125,0.21875 -0.0074,0.0045 -0.02384,-0.0044 -0.03125,0 -0.232039,0.138728 -0.462548,0.274778 -0.71875,0.375 0.301527,-0.0968 0.596455,-0.204138 0.875,-0.34375 0.55709,-0.279224 1.060053,-0.665694 1.5,-1.09375 0.219973,-0.214028 0.409366,-0.441865 0.59375,-0.6875 0.184384,-0.245635 0.355408,-0.507743 0.5,-0.78125 0.14012,-0.265048 0.276135,-0.524729 0.375,-0.8125 0.01041,-0.03078 0.02133,-0.06274 0.03125,-0.09375 0.09046,-0.278085 0.1388,-0.579404 0.1875,-0.875 C 89.95865,84.6507 90,84.334721 90,84 V 82 14 12 C 90,8.676 87.324,6 84,6 Z" />
        <path
           style="opacity:0.2;fill:url(#radialGradient3619-76);fill-opacity:1;fill-rule:nonzero;stroke:none"
           id="path3615"
           d="M 12,90 C 8.676,90 6,87.324 6,84 V 82 14 12 c 0,-0.334721 0.04135,-0.6507 0.09375,-0.96875 0.0487,-0.295596 0.09704,-0.596915 0.1875,-0.875 C 6.29113,10.12587 6.302142,10.09265 6.3125,10.0625 6.411365,9.774729 6.5473802,9.515048 6.6875,9.25 6.8320918,8.976493 7.0031161,8.714385 7.1875,8.46875 7.3718839,8.223115 7.5612765,7.995278 7.78125,7.78125 8.221197,7.353194 8.72416,6.966724 9.28125,6.6875 9.559795,6.547888 9.8547231,6.440553 10.15625,6.34375 9.9000482,6.443972 9.6695391,6.580022 9.4375,6.71875 c -0.00741,0.0044 -0.023866,-0.0045 -0.03125,0 -0.031933,0.0193 -0.062293,0.04251 -0.09375,0.0625 -0.120395,0.0767 -0.2310226,0.163513 -0.34375,0.25 -0.1061728,0.0808 -0.2132809,0.161112 -0.3125,0.25 C 8.4783201,7.442683 8.3087904,7.626638 8.15625,7.8125 8.0486711,7.942755 7.9378561,8.077785 7.84375,8.21875 7.818661,8.25713 7.805304,8.30462 7.78125,8.34375 7.716487,8.446782 7.6510225,8.548267 7.59375,8.65625 7.4927417,8.850956 7.3880752,9.071951 7.3125,9.28125 7.30454,9.30306 7.288911,9.3218 7.28125,9.34375 7.2494249,9.4357 7.2454455,9.530581 7.21875,9.625 7.1884177,9.731618 7.1483606,9.828031 7.125,9.9375 7.0521214,10.279012 7,10.635705 7,11 v 2 68 2 c 0,2.781848 2.2181517,5 5,5 h 2 68 2 c 2.781848,0 5,-2.218152 5,-5 V 81 13 11 C 89,10.635705 88.94788,10.279012 88.875,9.9375 88.83085,9.730607 88.78662,9.539842 88.71875,9.34375 88.71105,9.3218 88.69545,9.30306 88.6875,9.28125 88.62476,9.107511 88.549117,8.913801 88.46875,8.75 88.42717,8.6672 88.38971,8.580046 88.34375,8.5 88.28915,8.40279 88.216976,8.31165 88.15625,8.21875 88.06214,8.077785 87.951329,7.942755 87.84375,7.8125 87.700576,7.63805 87.540609,7.465502 87.375,7.3125 87.36383,7.3023 87.35502,7.29135 87.34375,7.28125 87.205364,7.155694 87.058659,7.046814 86.90625,6.9375 86.803679,6.86435 86.701932,6.784136 86.59375,6.71875 c -0.0074,-0.0045 -0.02384,0.0044 -0.03125,0 -0.232039,-0.138728 -0.462548,-0.274778 -0.71875,-0.375 0.301527,0.0968 0.596455,0.204138 0.875,0.34375 0.55709,0.279224 1.060053,0.665694 1.5,1.09375 0.219973,0.214028 0.409366,0.441865 0.59375,0.6875 0.184384,0.245635 0.355408,0.507743 0.5,0.78125 0.14012,0.265048 0.276135,0.524729 0.375,0.8125 0.01041,0.03078 0.02133,0.06274 0.03125,0.09375 0.09046,0.278085 0.1388,0.579404 0.1875,0.875 C 89.95865,11.3493 90,11.665279 90,12 v 2 68 2 c 0,3.324 -2.676,6 -6,6 z" />
      </g>
    </g>
  </g>
</svg>
