<?xml version="1.0" encoding="UTF-8" standalone="no"?>
<svg
   xmlns:dc="http://purl.org/dc/elements/1.1/"
   xmlns:cc="http://creativecommons.org/ns#"
   xmlns:rdf="http://www.w3.org/1999/02/22-rdf-syntax-ns#"
   xmlns:svg="http://www.w3.org/2000/svg"
   xmlns="http://www.w3.org/2000/svg"
   xmlns:xlink="http://www.w3.org/1999/xlink"
   xmlns:sodipodi="http://sodipodi.sourceforge.net/DTD/sodipodi-0.dtd"
   xmlns:inkscape="http://www.inkscape.org/namespaces/inkscape"
   id="svg2408"
   height="96"
   width="96"
   version="1.0"
   sodipodi:docname="folder-ubuntu.svg"
   inkscape:version="0.92.1 r">
  <sodipodi:namedview
     pagecolor="#ffffff"
     bordercolor="#666666"
     borderopacity="1"
     objecttolerance="10"
     gridtolerance="10"
     guidetolerance="10"
     inkscape:pageopacity="0"
     inkscape:pageshadow="2"
     inkscape:window-width="1920"
     inkscape:window-height="1011"
     id="namedview163"
     showgrid="false"
     inkscape:zoom="4.9166667"
     inkscape:cx="52.896661"
     inkscape:cy="33.098657"
     inkscape:window-x="0"
     inkscape:window-y="32"
     inkscape:window-maximized="1"
     inkscape:current-layer="layer6" />
  <defs
     id="defs2410">
    <linearGradient
       id="linearGradient3638">
      <stop
         offset="0"
         style="stop-color:#000000;stop-opacity:1"
         id="stop3640" />
      <stop
         offset="0.25925925"
         style="stop-color:#000000;stop-opacity:0.49803922"
         id="stop3646" />
      <stop
         offset="1"
         style="stop-color:#000000;stop-opacity:0"
         id="stop3642" />
    </linearGradient>
    <linearGradient
       id="linearGradient3619">
      <stop
         offset="0"
         style="stop-color:#ffffff;stop-opacity:1"
         id="stop3621" />
      <stop
         offset="0.29591838"
         style="stop-color:#ffffff;stop-opacity:0.49803922"
         id="stop3627" />
      <stop
         offset="1"
         style="stop-color:#ffffff;stop-opacity:0"
         id="stop3623" />
    </linearGradient>
    <linearGradient
       gradientTransform="scale(1.0058652,0.994169)"
       gradientUnits="userSpaceOnUse"
       id="ButtonShadow"
       y2="7.0165396"
       x2="45.447727"
       y1="92.539597"
       x1="45.447727">
      <stop
         offset="0"
         style="stop-color:#000000;stop-opacity:1"
         id="stop3750" />
      <stop
         offset="1"
         style="stop-color:#000000;stop-opacity:0.58823532"
         id="stop3752" />
    </linearGradient>
    <linearGradient
       id="linearGradient3737">
      <stop
         offset="0"
         style="stop-color:#ffffff;stop-opacity:1"
         id="stop3739" />
      <stop
         offset="1"
         style="stop-color:#ffffff;stop-opacity:0"
         id="stop3741" />
    </linearGradient>
    <filter
       id="filter3174"
       color-interpolation-filters="sRGB">
      <feGaussianBlur
         stdDeviation="1.71"
         id="feGaussianBlur3176" />
    </filter>
    <linearGradient
       gradientUnits="userSpaceOnUse"
       xlink:href="#linearGradient3737"
       id="linearGradient3188"
       y2="63.893143"
       x2="36.357143"
       y1="6"
       x1="36.357143" />
    <filter
       id="filter3794"
       color-interpolation-filters="sRGB"
       height="1.3839999"
       width="1.3839999"
       y="-0.192"
       x="-0.192">
      <feGaussianBlur
         stdDeviation="5.28"
         id="feGaussianBlur3796" />
    </filter>
    <linearGradient
       gradientUnits="userSpaceOnUse"
       xlink:href="#linearGradient3737"
       id="linearGradient3613"
       y2="138.66119"
       x2="48"
       y1="20.220806"
       x1="48" />
    <radialGradient
       gradientTransform="matrix(1.1573129,0,0,0.99590774,-7.5510206,0.19713193)"
       gradientUnits="userSpaceOnUse"
       xlink:href="#linearGradient3737"
       id="radialGradient3619"
       fy="90.171875"
       fx="48"
       r="42"
       cy="90.171875"
       cx="48" />
    <clipPath
       id="clipPath3613">
      <rect
         style="fill:#ffffff;fill-opacity:1;fill-rule:nonzero;stroke:none"
         id="rect3615"
         y="6"
         x="6"
         ry="6"
         rx="6"
         height="84"
         width="84" />
    </clipPath>
    <linearGradient
       gradientUnits="userSpaceOnUse"
       xlink:href="#linearGradient3619"
       id="linearGradient3625"
       y2="104"
       x2="40"
       y1="56.208946"
       x1="40" />
    <linearGradient
       gradientTransform="translate(0,8)"
       gradientUnits="userSpaceOnUse"
       xlink:href="#linearGradient3638"
       id="linearGradient3644"
       y2="44.090794"
       x2="16"
       y1="48"
       x1="16" />
    <linearGradient
       id="linearGradient1428">
      <stop
         offset="0"
         style="stop-color:#3465a4;stop-opacity:1"
         id="stop1430" />
      <stop
         offset="1"
         style="stop-color:#729fcf;stop-opacity:1"
         id="stop1432" />
    </linearGradient>
    <linearGradient
       gradientUnits="userSpaceOnUse"
       xlink:href="#linearGradient1428"
       id="linearGradient3733"
       y2="5.9877172"
       x2="48"
       y1="56.251743"
       x1="48" />
    <filter
       id="filter3743"
       color-interpolation-filters="sRGB">
      <feGaussianBlur
         id="feGaussianBlur3745"
         stdDeviation="0.8" />
    </filter>
    <clipPath
       id="clipPath3739">
      <path
         style="fill:#ffffff;fill-opacity:1;fill-rule:evenodd;stroke:none;display:inline"
         id="path3741"
         d="m 33,1 c -0.277,0 -0.541812,0.055313 -0.78125,0.15625 -0.37163,0.2634649 -0.714453,0.582314 -1,0.9375 C 31.081214,2.3653804 31,2.6735987 31,3 l 0,4.96875 c 0.890327,1.293115 2.373856,2.156251 4.0625,2.15625 C 37.789358,10.125 40,7.9143583 40,5.1875 40,3.4170094 39.056314,1.8714716 37.65625,1 L 33,1 z m 7.53125,0 0.5625,0.84375 0.46875,-0.25 L 42,1.5 l 1.125,0 0.25,0.59375 -0.75,0.8125 -0.40625,0.25 -0.53125,0.15625 0.25,1.09375 0.5,-0.0625 0.46875,0.0625 1.03125,0.4375 0,0.65625 L 42.90625,5.96875 42.4375,6 l -0.5,-0.03125 -0.25,1.125 L 42.21875,7.25 42.625,7.46875 43.375,8.28125 43.125,8.875 42,8.90625 41.5625,8.78125 41.09375,8.5 l -0.625,0.96875 0.375,0.3125 0.3125,0.40625 0.4375,1.03125 L 41.125,11.6875 40.09375,11.25 39.6875,11 39.375,10.5625 l -0.96875,0.65625 0.25,0.4375 0.15625,0.5 -0.03125,1.0625 L 38.15625,13.5 37.375,12.71875 37.09375,12.3125 37,11.78125 l -1.125,0.25 0.03125,0.5 -0.0625,0.5 -0.4375,1 -0.65625,0 -0.46875,-1 -0.03125,-0.5 0.03125,-0.5 -1.125,-0.25 L 33.0625,12.3125 32.78125,12.71875 32,13.5 l -0.59375,-0.28125 -0.0625,-1.0625 0.15625,-0.5 0.25,-0.4375 -0.75,-0.5 L 31,19 c 0,1.108 0.892,2 2,2 l 6.84375,0 0.28125,-0.25 0.46875,-0.25 -0.46875,-1.15625 -0.53125,0.1875 -0.5,0.03125 -1.15625,-0.25 -0.15625,-0.6875 0.96875,-0.6875 0.5,-0.15625 0.53125,-0.0625 0,-1.21875 -0.53125,-0.03125 -0.5,-0.1875 -1,-0.65625 0.15625,-0.6875 1.15625,-0.25 0.5,0 0.53125,0.1875 0.46875,-1.15625 -0.5,-0.25 -0.40625,-0.3125 -0.625,-1 0.375,-0.59375 1.15625,0.1875 0.5,0.25 0.40625,0.34375 0.84375,-0.875 -0.34375,-0.40625 -0.21875,-0.46875 -0.21875,-1.1875 0.5625,-0.375 1,0.625 0.34375,0.375 0.28125,0.5 1.125,-0.46875 L 44.65625,9.53125 44.625,9 l 0.25,-1.15625 0.6875,-0.125 0.6875,0.96875 0.15625,0.46875 0.0625,0.5625 1.21875,-0.03125 0.03125,-0.53125 0.1875,-0.5 L 48.5625,7.6875 49.25,7.8125 49.53125,8.96875 49.5,9.5 49.3125,10 50.46875,10.46875 50.71875,10 51,9.65625 51,3 C 51,1.892 50.108,1 49,1 l -8.46875,0 z m -5.5,0.3125 c 2.121665,0 3.84375,1.7220854 3.84375,3.84375 C 38.875,7.2779146 37.152915,9 35.03125,9 32.909585,9 31.1875,7.2779146 31.1875,5.15625 c 0,-2.1216646 1.722085,-3.84375 3.84375,-3.84375 z m 0,1.71875 c -1.24195,0 -2.25,0.9520473 -2.25,2.125 0,1.1729527 1.00805,2.125 2.25,2.125 1.24195,0 2.25,-0.9520473 2.25,-2.125 0,-1.1729527 -1.00805,-2.125 -2.25,-2.125 z m 12.09375,8.375 c -1.276229,0 -2.459907,0.441669 -3.40625,1.15625 l 1.8125,1.9375 c 0.461136,-0.287236 1.010845,-0.4375 1.59375,-0.4375 0.293976,0 0.575112,0.04631 0.84375,0.125 l 1.21875,-2.375 C 48.547284,11.560333 47.854584,11.40625 47.125,11.40625 z m 3.09375,0.9375 L 49,14.71875 c 0.685742,0.544483 1.11379,1.372153 1.125,2.3125 L 51,17.1875 51,12.96875 c -0.242222,-0.227764 -0.502051,-0.44206 -0.78125,-0.625 z m -7.34375,1 c -0.873486,0.993935 -1.40625,2.292591 -1.40625,3.71875 0,0.637183 0.117557,1.240877 0.3125,1.8125 L 44.1875,17.78125 C 44.1323,17.553494 44.125,17.307133 44.125,17.0625 c 0,-0.662658 0.199196,-1.28387 0.5625,-1.78125 l -1.8125,-1.9375 z m 4.25,2.75 c -0.535035,0 -0.96875,0.433715 -0.96875,0.96875 0,0.535035 0.433715,0.96875 0.96875,0.96875 0.535035,0 0.96875,-0.433715 0.96875,-0.96875 0,-0.535035 -0.433715,-0.96875 -0.96875,-0.96875 z m 2.8125,2.0625 c -0.322038,0.823782 -1.002368,1.464646 -1.84375,1.75 L 48.25,21 49,21 c 1.108,0 2,-0.892 2,-2 l 0,-0.65625 -1.0625,-0.1875 z m -5.25,0.65625 -2.4375,1.125 c 0.230479,0.390313 0.497541,0.7398 0.8125,1.0625 l 4,0 -0.125,-0.9375 c -0.933758,-0.05393 -1.735493,-0.535346 -2.25,-1.25 z" />
    </clipPath>
    <filter
       id="filter3194-1"
       color-interpolation-filters="sRGB"
       height="1.36"
       width="1.36"
       y="-0.18000001"
       x="-0.18000001">
      <feGaussianBlur
         id="feGaussianBlur3196-4"
         stdDeviation="1.2" />
    </filter>
    <clipPath
       id="clipPath2849-2">
      <rect
         style="fill:#ffffff;fill-opacity:1;fill-rule:evenodd;stroke:none;display:inline"
         id="rect2851-4"
         y="1"
         x="1"
         ry="2"
         rx="2"
         height="20"
         width="20" />
    </clipPath>
    <clipPath
       id="clipPath6183">
      <rect
         style="fill:#ffffff;fill-opacity:1;fill-rule:evenodd;stroke:none;display:inline"
         id="rect6185"
         y="0.99999988"
         x="1"
         ry="2"
         rx="2"
         height="20"
         width="20" />
    </clipPath>
    <linearGradient
       gradientUnits="userSpaceOnUse"
       id="ButtonColor-6"
       y2="0.99929649"
       x2="10.31979"
       y1="21"
       x1="10.31979">
      <stop
         offset="0"
         style="stop-color:#afafaf;stop-opacity:1"
         id="stop3189-2" />
      <stop
         offset="1"
         style="stop-color:#d8d8d8;stop-opacity:1"
         id="stop3191-6" />
    </linearGradient>
    <linearGradient
       id="linearGradient3327-8">
      <stop
         offset="0"
         style="stop-color:#000000;stop-opacity:1"
         id="stop3330-7" />
      <stop
         offset="1"
         style="stop-color:#000000;stop-opacity:0"
         id="stop3333-0" />
    </linearGradient>
    <linearGradient
       gradientTransform="matrix(1.0172414,0,0,1.0172414,-1.1034483,-1.1034483)"
       gradientUnits="userSpaceOnUse"
       id="linearGradient3764"
       y2="5.4252338"
       x2="58.650177"
       y1="122"
       x1="58.650177">
      <stop
         offset="0"
         style="stop-color:#969696;stop-opacity:1"
         id="stop3766" />
      <stop
         offset="1"
         style="stop-color:#cacaca;stop-opacity:1"
         id="stop3768" />
    </linearGradient>
    <linearGradient
       gradientUnits="userSpaceOnUse"
       xlink:href="#linearGradient3327-8"
       id="linearGradient4286"
       y2="-9.817296"
       x2="11.375"
       y1="22"
       x1="11.375" />
    <linearGradient
       gradientTransform="translate(11.119372,-6.2581977)"
       gradientUnits="userSpaceOnUse"
       xlink:href="#ButtonColor-6"
       id="linearGradient4288"
       y2="7.2536583"
       x2="-3.0607977"
       y1="27.258198"
       x1="-3.0607977" />
    <linearGradient
       gradientUnits="userSpaceOnUse"
       xlink:href="#linearGradient3764"
       id="linearGradient4290"
       y2="0.90024877"
       x2="5"
       y1="21"
       x1="5" />
    <linearGradient
       gradientUnits="userSpaceOnUse"
       xlink:href="#linearGradient3327-8"
       id="linearGradient4320"
       y2="-9.817296"
       x2="11.375"
       y1="22"
       x1="11.375" />
    <linearGradient
       gradientTransform="translate(11.119372,-6.2581977)"
       gradientUnits="userSpaceOnUse"
       xlink:href="#ButtonColor-6"
       id="linearGradient4322"
       y2="7.2536583"
       x2="-3.0607977"
       y1="27.258198"
       x1="-3.0607977" />
    <linearGradient
       gradientUnits="userSpaceOnUse"
       xlink:href="#linearGradient3764"
       id="linearGradient4324"
       y2="0.90024877"
       x2="5"
       y1="21"
       x1="5" />
    <linearGradient
       gradientUnits="userSpaceOnUse"
       xlink:href="#linearGradient3327-8"
       id="linearGradient4354"
       y2="-9.817296"
       x2="11.375"
       y1="22"
       x1="11.375" />
    <linearGradient
       gradientTransform="translate(11.119372,-6.2581977)"
       gradientUnits="userSpaceOnUse"
       xlink:href="#ButtonColor-6"
       id="linearGradient4356"
       y2="7.2536583"
       x2="-3.0607977"
       y1="27.258198"
       x1="-3.0607977" />
    <linearGradient
       gradientUnits="userSpaceOnUse"
       xlink:href="#linearGradient3764"
       id="linearGradient4358"
       y2="0.90024877"
       x2="5"
       y1="21"
       x1="5" />
    <linearGradient
       gradientTransform="matrix(1.0058652,0,0,0.994169,100,0)"
       gradientUnits="userSpaceOnUse"
       id="ButtonShadow-0"
       y2="7.0165396"
       x2="45.447727"
       y1="92.539597"
       x1="45.447727">
      <stop
         offset="0"
         style="stop-color:#000000;stop-opacity:1"
         id="stop3750-8" />
      <stop
         offset="1"
         style="stop-color:#000000;stop-opacity:0.58823532"
         id="stop3752-5-4" />
    </linearGradient>
    <linearGradient
       gradientTransform="matrix(1.0238095,0,0,1.0119048,-1.1428571,-98.071429)"
       gradientUnits="userSpaceOnUse"
       xlink:href="#ButtonShadow-0"
       id="linearGradient3780"
       y2="90.238609"
       x2="32.251034"
       y1="6.1317081"
       x1="32.251034" />
    <linearGradient
       gradientTransform="matrix(1.0238095,0,0,1.0119048,-1.1428571,-98.071429)"
       gradientUnits="userSpaceOnUse"
       xlink:href="#ButtonShadow-0"
       id="linearGradient3772"
       y2="90.238609"
       x2="32.251034"
       y1="6.1317081"
       x1="32.251034" />
    <linearGradient
       gradientTransform="matrix(1.0238095,0,0,1.0119048,-1.1428571,-98.071429)"
       gradientUnits="userSpaceOnUse"
       xlink:href="#ButtonShadow-0"
       id="linearGradient3725"
       y2="90.238609"
       x2="32.251034"
       y1="6.1317081"
       x1="32.251034" />
    <linearGradient
       gradientTransform="translate(0,-97)"
       gradientUnits="userSpaceOnUse"
       xlink:href="#ButtonShadow-0"
       id="linearGradient3721-0"
       y2="90.238609"
       x2="32.251034"
       y1="6.1317081"
       x1="32.251034" />
    <linearGradient
       gradientTransform="matrix(1.0238095,0,0,1.0119048,-1.1428571,-98.071429)"
       gradientUnits="userSpaceOnUse"
       xlink:href="#ButtonShadow-0"
       id="linearGradient3059"
       y2="90.238609"
       x2="32.251034"
       y1="6.1317081"
       x1="32.251034" />
    <linearGradient
       xlink:href="#linearGradient3327-8"
       id="linearGradient5869"
       gradientUnits="userSpaceOnUse"
       gradientTransform="matrix(2.1683519,0,0,2.2464645,141.9485,-68.590473)"
       x1="-51.786404"
       y1="53.514328"
       x2="-51.786404"
       y2="3.6336823" />
    <linearGradient
       xlink:href="#linearGradient9235"
       id="linearGradient5873"
       gradientUnits="userSpaceOnUse"
       gradientTransform="matrix(2.6658408,0,0,2.6469079,-143.33283,-66.049513)"
       x1="97.538795"
       y1="8.8103228"
       x2="97.538795"
       y2="44.260689" />
    <linearGradient
       id="linearGradient9235">
      <stop
         id="stop9237"
         style="stop-color:#ffffff;stop-opacity:1"
         offset="0" />
      <stop
         id="stop9239"
         style="stop-color:#ffffff;stop-opacity:0.23529412"
         offset="0.1088333" />
      <stop
         id="stop9241"
         style="stop-color:#ffffff;stop-opacity:0.15686275"
         offset="0.97909725" />
      <stop
         id="stop9243"
         style="stop-color:#ffffff;stop-opacity:0.39215687"
         offset="1" />
    </linearGradient>
    <linearGradient
       xlink:href="#linearGradient5048-585"
       id="linearGradient5875"
       gradientUnits="userSpaceOnUse"
       gradientTransform="matrix(0.2134205,0,0,0.06641689,-13.147881,75.518568)"
       x1="302.85715"
       y1="366.64789"
       x2="302.85715"
       y2="609.50507" />
    <linearGradient
       id="linearGradient5048-585">
      <stop
         id="stop2667"
         style="stop-color:#000000;stop-opacity:0"
         offset="0" />
      <stop
         id="stop2669"
         style="stop-color:#000000;stop-opacity:1"
         offset="0.5" />
      <stop
         id="stop2671"
         style="stop-color:#000000;stop-opacity:0"
         offset="1" />
    </linearGradient>
    <radialGradient
       xlink:href="#linearGradient3327-8"
       id="radialGradient5877"
       gradientUnits="userSpaceOnUse"
       gradientTransform="matrix(0.08277507,0,0,0.06641689,65.628912,75.518568)"
       cx="605.71429"
       cy="486.64789"
       fx="605.71429"
       fy="486.64789"
       r="117.14286" />
    <radialGradient
       xlink:href="#linearGradient3327-8"
       id="radialGradient5879"
       gradientUnits="userSpaceOnUse"
       gradientTransform="matrix(-0.08277505,0,0,0.06641689,62.347829,75.518568)"
       cx="605.71429"
       cy="486.64789"
       fx="605.71429"
       fy="486.64789"
       r="117.14286" />
    <linearGradient
       xlink:href="#linearGradient4632-0-6-4"
       id="linearGradient5883"
       gradientUnits="userSpaceOnUse"
       gradientTransform="matrix(1,0,0,1.0266674,147,-70.186593)"
       x1="-91"
       y1="43.999817"
       x2="-91"
       y2="119.05979" />
    <linearGradient
       id="linearGradient4632-0-6-4">
      <stop
         style="stop-color:#55a7f3;stop-opacity:1;"
         offset="0"
         id="stop4634-4-4-7" />
      <stop
         style="stop-color:#1374cf;stop-opacity:1;"
         offset="1"
         id="stop4636-3-1-5" />
    </linearGradient>
    <linearGradient
       xlink:href="#linearGradient6129-963-697-142-998-580-273"
       id="linearGradient5887"
       gradientUnits="userSpaceOnUse"
       gradientTransform="matrix(3.036796,0,0,2.6909701,-8.8831134,-65.364613)"
       x1="22.934725"
       y1="49.629246"
       x2="22.934725"
       y2="36.599415" />
    <linearGradient
       id="linearGradient6129-963-697-142-998-580-273">
      <stop
         id="stop2661"
         style="stop-color:#0a0a0a;stop-opacity:0.498"
         offset="0" />
      <stop
         id="stop2663"
         style="stop-color:#0a0a0a;stop-opacity:0"
         offset="1" />
    </linearGradient>
    <linearGradient
       xlink:href="#linearGradient8272"
       id="linearGradient5891"
       gradientUnits="userSpaceOnUse"
       gradientTransform="matrix(2.6658408,0,0,2.7170994,-143.33283,-69.198823)"
       x1="97.538795"
       y1="16.962049"
       x2="97.538795"
       y2="44.260689" />
    <linearGradient
       id="linearGradient8272">
      <stop
         offset="0"
         style="stop-color:#ffffff;stop-opacity:1"
         id="stop8274" />
      <stop
         offset="0.0221225"
         style="stop-color:#ffffff;stop-opacity:0.23529412"
         id="stop8276" />
      <stop
         offset="0.97909725"
         style="stop-color:#ffffff;stop-opacity:0.15686275"
         id="stop8278" />
      <stop
         offset="1"
         style="stop-color:#ffffff;stop-opacity:0.39215687"
         id="stop8280" />
    </linearGradient>
    <linearGradient
       y2="609.50507"
       x2="302.85715"
       y1="366.64789"
       x1="302.85715"
       gradientTransform="matrix(0.2134205,0,0,0.06641689,-13.147881,75.518568)"
       gradientUnits="userSpaceOnUse"
       id="linearGradient5875-2"
       xlink:href="#linearGradient5048-585" />
    <radialGradient
       r="117.14286"
       fy="486.64789"
       fx="605.71429"
       cy="486.64789"
       cx="605.71429"
       gradientTransform="matrix(0.08277507,0,0,0.06641689,65.628912,75.518568)"
       gradientUnits="userSpaceOnUse"
       id="radialGradient5877-3"
       xlink:href="#linearGradient3327-8" />
    <radialGradient
       r="117.14286"
       fy="486.64789"
       fx="605.71429"
       cy="486.64789"
       cx="605.71429"
       gradientTransform="matrix(-0.08277505,0,0,0.06641689,62.347829,75.518568)"
       gradientUnits="userSpaceOnUse"
       id="radialGradient5879-6"
       xlink:href="#linearGradient3327-8" />
    <linearGradient
       xlink:href="#linearGradient5048-585"
       id="linearGradient5875-6"
       gradientUnits="userSpaceOnUse"
       gradientTransform="matrix(0.2134205,0,0,0.06641689,-13.147881,75.518568)"
       x1="302.85715"
       y1="366.64789"
       x2="302.85715"
       y2="609.50507" />
    <radialGradient
       xlink:href="#linearGradient3327-8"
       id="radialGradient5877-0"
       gradientUnits="userSpaceOnUse"
       gradientTransform="matrix(0.08277507,0,0,0.06641689,65.628912,75.518568)"
       cx="605.71429"
       cy="486.64789"
       fx="605.71429"
       fy="486.64789"
       r="117.14286" />
    <radialGradient
       xlink:href="#linearGradient3327-8"
       id="radialGradient5879-4"
       gradientUnits="userSpaceOnUse"
       gradientTransform="matrix(-0.08277505,0,0,0.06641689,62.347829,75.518568)"
       cx="605.71429"
       cy="486.64789"
       fx="605.71429"
       fy="486.64789"
       r="117.14286" />
    <linearGradient
       xlink:href="#linearGradient3327-8"
       id="linearGradient6758"
       gradientUnits="userSpaceOnUse"
       gradientTransform="matrix(2.1683519,0,0,2.2464645,141.94852,-68.559003)"
       x1="-51.786404"
       y1="53.514328"
       x2="-51.786404"
       y2="3.6336823" />
    <linearGradient
       xlink:href="#linearGradient9235"
       id="linearGradient6755"
       gradientUnits="userSpaceOnUse"
       gradientTransform="matrix(2.6658408,0,0,2.6469079,-143.33282,-66.018043)"
       x1="97.538795"
       y1="8.8103228"
       x2="97.538795"
       y2="44.260689" />
    <linearGradient
       xlink:href="#linearGradient5048-585"
       id="linearGradient22546"
       gradientUnits="userSpaceOnUse"
       gradientTransform="matrix(0.2134205,0,0,0.06641689,-13.147881,75.518568)"
       x1="302.85715"
       y1="366.64789"
       x2="302.85715"
       y2="609.50507" />
    <radialGradient
       xlink:href="#linearGradient3327-8"
       id="radialGradient22548"
       gradientUnits="userSpaceOnUse"
       gradientTransform="matrix(0.08277507,0,0,0.06641689,65.628912,75.518568)"
       cx="605.71429"
       cy="486.64789"
       fx="605.71429"
       fy="486.64789"
       r="117.14286" />
    <radialGradient
       xlink:href="#linearGradient3327-8"
       id="radialGradient22550"
       gradientUnits="userSpaceOnUse"
       gradientTransform="matrix(-0.08277505,0,0,0.06641689,62.347829,75.518568)"
       cx="605.71429"
       cy="486.64789"
       fx="605.71429"
       fy="486.64789"
       r="117.14286" />
    <linearGradient
       y2="119.05979"
       x2="-91"
       y1="43.999817"
       x1="-91"
       gradientTransform="matrix(1,0,0,0.81333428,147,-44.693353)"
       gradientUnits="userSpaceOnUse"
       id="linearGradient6563"
       xlink:href="#linearGradient4632-0-6-4-6" />
    <linearGradient
       id="linearGradient4632-0-6-4-6">
      <stop
         style="stop-color:#5aa9f2;stop-opacity:1;"
         offset="0"
         id="stop4634-4-4-7-1" />
      <stop
         style="stop-color:#1374cf;stop-opacity:1;"
         offset="1"
         id="stop4636-3-1-5-7" />
    </linearGradient>
    <linearGradient
       y2="36.599415"
       x2="22.934725"
       y1="49.629246"
       x1="22.934725"
       gradientTransform="matrix(3.036796,0,0,2.1389772,-8.88311,-41.084763)"
       gradientUnits="userSpaceOnUse"
       id="linearGradient6618"
       xlink:href="#linearGradient6129-963-697-142-998-580-273" />
    <linearGradient
       xlink:href="#linearGradient8272"
       id="linearGradient5329-6"
       gradientUnits="userSpaceOnUse"
       gradientTransform="matrix(2.6658408,0,0,2.1374512,-143.3107,-43.449953)"
       x1="97.538795"
       y1="16.962049"
       x2="97.538795"
       y2="44.260689" />
    <radialGradient
       xlink:href="#linearGradient3327-8"
       id="radialGradient5877-38"
       gradientUnits="userSpaceOnUse"
       gradientTransform="matrix(0.08277507,0,0,0.06641689,65.628912,75.518568)"
       cx="605.71429"
       cy="486.64789"
       fx="605.71429"
       fy="486.64789"
       r="117.14286" />
    <radialGradient
       xlink:href="#linearGradient3327-8"
       id="radialGradient5879-8"
       gradientUnits="userSpaceOnUse"
       gradientTransform="matrix(-0.08277505,0,0,0.06641689,62.347829,75.518568)"
       cx="605.71429"
       cy="486.64789"
       fx="605.71429"
       fy="486.64789"
       r="117.14286" />
    <linearGradient
       y2="609.50507"
       x2="302.85715"
       y1="366.64789"
       x1="302.85715"
       gradientTransform="matrix(0.2134205,0,0,0.06641689,-13.147881,75.518568)"
       gradientUnits="userSpaceOnUse"
       id="linearGradient5875-3"
       xlink:href="#linearGradient5048-585" />
    <radialGradient
       r="117.14286"
       fy="486.64789"
       fx="605.71429"
       cy="486.64789"
       cx="605.71429"
       gradientTransform="matrix(0.08277507,0,0,0.06641689,65.628912,75.518568)"
       gradientUnits="userSpaceOnUse"
       id="radialGradient5877-2"
       xlink:href="#linearGradient3327-8" />
    <radialGradient
       r="117.14286"
       fy="486.64789"
       fx="605.71429"
       cy="486.64789"
       cx="605.71429"
       gradientTransform="matrix(-0.08277505,0,0,0.06641689,62.347829,75.518568)"
       gradientUnits="userSpaceOnUse"
       id="radialGradient5879-1"
       xlink:href="#linearGradient3327-8" />
    <linearGradient
       y2="609.50507"
       x2="302.85715"
       y1="366.64789"
       x1="302.85715"
       gradientTransform="matrix(0.2134205,0,0,0.06641689,-13.147881,75.518568)"
       gradientUnits="userSpaceOnUse"
       id="linearGradient5875-7"
       xlink:href="#linearGradient5048-585" />
    <radialGradient
       r="117.14286"
       fy="486.64789"
       fx="605.71429"
       cy="486.64789"
       cx="605.71429"
       gradientTransform="matrix(0.08277507,0,0,0.06641689,65.628912,75.518568)"
       gradientUnits="userSpaceOnUse"
       id="radialGradient5877-6"
       xlink:href="#linearGradient3327-8" />
    <radialGradient
       r="117.14286"
       fy="486.64789"
       fx="605.71429"
       cy="486.64789"
       cx="605.71429"
       gradientTransform="matrix(-0.08277505,0,0,0.06641689,62.347829,75.518568)"
       gradientUnits="userSpaceOnUse"
       id="radialGradient5879-2"
       xlink:href="#linearGradient3327-8" />
    <linearGradient
       xlink:href="#linearGradient5048-585"
       id="linearGradient5875-39"
       gradientUnits="userSpaceOnUse"
       gradientTransform="matrix(0.2134205,0,0,0.06641689,-13.147881,75.518568)"
       x1="302.85715"
       y1="366.64789"
       x2="302.85715"
       y2="609.50507" />
    <radialGradient
       xlink:href="#linearGradient3327-8"
       id="radialGradient5877-9"
       gradientUnits="userSpaceOnUse"
       gradientTransform="matrix(0.08277507,0,0,0.06641689,65.628912,75.518568)"
       cx="605.71429"
       cy="486.64789"
       fx="605.71429"
       fy="486.64789"
       r="117.14286" />
    <radialGradient
       xlink:href="#linearGradient3327-8"
       id="radialGradient5879-3"
       gradientUnits="userSpaceOnUse"
       gradientTransform="matrix(-0.08277505,0,0,0.06641689,62.347829,75.518568)"
       cx="605.71429"
       cy="486.64789"
       fx="605.71429"
       fy="486.64789"
       r="117.14286" />
    <linearGradient
       y2="609.50507"
       x2="302.85715"
       y1="366.64789"
       x1="302.85715"
       gradientTransform="matrix(0.2134205,0,0,0.06641689,-13.147881,75.518568)"
       gradientUnits="userSpaceOnUse"
       id="linearGradient5875-67"
       xlink:href="#linearGradient5048-585" />
    <radialGradient
       r="117.14286"
       fy="486.64789"
       fx="605.71429"
       cy="486.64789"
       cx="605.71429"
       gradientTransform="matrix(0.08277507,0,0,0.06641689,65.628912,75.518568)"
       gradientUnits="userSpaceOnUse"
       id="radialGradient5877-8"
       xlink:href="#linearGradient3327-8" />
    <radialGradient
       r="117.14286"
       fy="486.64789"
       fx="605.71429"
       cy="486.64789"
       cx="605.71429"
       gradientTransform="matrix(-0.08277505,0,0,0.06641689,62.347829,75.518568)"
       gradientUnits="userSpaceOnUse"
       id="radialGradient5879-7"
       xlink:href="#linearGradient3327-8" />
    <linearGradient
       y2="609.50507"
       x2="302.85715"
       y1="366.64789"
       x1="302.85715"
       gradientTransform="matrix(0.2134205,0,0,0.06641689,-13.147881,75.518568)"
       gradientUnits="userSpaceOnUse"
       id="linearGradient5875-21"
       xlink:href="#linearGradient5048-585" />
    <radialGradient
       r="117.14286"
       fy="486.64789"
       fx="605.71429"
       cy="486.64789"
       cx="605.71429"
       gradientTransform="matrix(0.08277507,0,0,0.06641689,65.628912,75.518568)"
       gradientUnits="userSpaceOnUse"
       id="radialGradient5877-1"
       xlink:href="#linearGradient3327-8" />
    <radialGradient
       r="117.14286"
       fy="486.64789"
       fx="605.71429"
       cy="486.64789"
       cx="605.71429"
       gradientTransform="matrix(-0.08277505,0,0,0.06641689,62.347829,75.518568)"
       gradientUnits="userSpaceOnUse"
       id="radialGradient5879-49"
       xlink:href="#linearGradient3327-8" />
    <linearGradient
       y2="609.50507"
       x2="302.85715"
       y1="366.64789"
       x1="302.85715"
       gradientTransform="matrix(0.2134205,0,0,0.06641689,-13.147881,75.518568)"
       gradientUnits="userSpaceOnUse"
       id="linearGradient5875-1"
       xlink:href="#linearGradient5048-585" />
    <radialGradient
       r="117.14286"
       fy="486.64789"
       fx="605.71429"
       cy="486.64789"
       cx="605.71429"
       gradientTransform="matrix(0.08277507,0,0,0.06641689,65.628912,75.518568)"
       gradientUnits="userSpaceOnUse"
       id="radialGradient5877-22"
       xlink:href="#linearGradient3327-8" />
    <radialGradient
       r="117.14286"
       fy="486.64789"
       fx="605.71429"
       cy="486.64789"
       cx="605.71429"
       gradientTransform="matrix(-0.08277505,0,0,0.06641689,62.347829,75.518568)"
       gradientUnits="userSpaceOnUse"
       id="radialGradient5879-0"
       xlink:href="#linearGradient3327-8" />
    <linearGradient
       y2="609.50507"
       x2="302.85715"
       y1="366.64789"
       x1="302.85715"
       gradientTransform="matrix(0.2134205,0,0,0.06641689,-13.147881,75.518568)"
       gradientUnits="userSpaceOnUse"
       id="linearGradient5875-9"
       xlink:href="#linearGradient5048-585" />
    <radialGradient
       r="117.14286"
       fy="486.64789"
       fx="605.71429"
       cy="486.64789"
       cx="605.71429"
       gradientTransform="matrix(0.08277507,0,0,0.06641689,65.628912,75.518568)"
       gradientUnits="userSpaceOnUse"
       id="radialGradient5877-25"
       xlink:href="#linearGradient3327-8" />
    <radialGradient
       r="117.14286"
       fy="486.64789"
       fx="605.71429"
       cy="486.64789"
       cx="605.71429"
       gradientTransform="matrix(-0.08277505,0,0,0.06641689,62.347829,75.518568)"
       gradientUnits="userSpaceOnUse"
       id="radialGradient5879-44"
       xlink:href="#linearGradient3327-8" />
    <linearGradient
       y2="609.50507"
       x2="302.85715"
       y1="366.64789"
       x1="302.85715"
       gradientTransform="matrix(0.2134205,0,0,0.06641689,-13.147881,75.518568)"
       gradientUnits="userSpaceOnUse"
       id="linearGradient5875-17"
       xlink:href="#linearGradient5048-585" />
    <radialGradient
       r="117.14286"
       fy="486.64789"
       fx="605.71429"
       cy="486.64789"
       cx="605.71429"
       gradientTransform="matrix(0.08277507,0,0,0.06641689,65.628912,75.518568)"
       gradientUnits="userSpaceOnUse"
       id="radialGradient5877-4"
       xlink:href="#linearGradient3327-8" />
    <radialGradient
       r="117.14286"
       fy="486.64789"
       fx="605.71429"
       cy="486.64789"
       cx="605.71429"
       gradientTransform="matrix(-0.08277505,0,0,0.06641689,62.347829,75.518568)"
       gradientUnits="userSpaceOnUse"
       id="radialGradient5879-69"
       xlink:href="#linearGradient3327-8" />
  </defs>
  <metadata
     id="metadata2413">
    <rdf:RDF>
      <cc:Work
         rdf:about="">
        <dc:format>image/svg+xml</dc:format>
        <dc:type
           rdf:resource="http://purl.org/dc/dcmitype/StillImage" />
        <dc:title />
      </cc:Work>
    </rdf:RDF>
  </metadata>
  <g
     style="display:none"
     id="layer2">
    <rect
       style="opacity:0.9;fill:url(#ButtonShadow);fill-opacity:1;fill-rule:nonzero;stroke:none;filter:url(#filter3174)"
       id="rect3745"
       y="7"
       x="5"
       ry="6"
       rx="6"
       height="85"
       width="86" />
  </g>
  <g
     transform="matrix(0.72580649,0,0,0.72580649,1.5542768,46.800454)"
     id="layer1">
    <path
       id="rect8678-4"
       d="m 12.999997,-42.968593 c -1.108,0 -2,0.892 -2,2 l 0,5.96875 -3.0000004,0 c -1.108,0 -2,0.892 -2,2 l 0,11 c 0,1.108 0.892,2 2,2 l 112.0000034,0 c 1.108,0 2,-0.892 2,-2 l 0,-11 c 0,-1.108 -0.892,-2 -2,-2 l -62.999999,0 0,-5.96875 c 0,-1.108 -0.892,-2 -2,-2 l -42.000004,0 z"
       style="color:#000000;display:inline;overflow:visible;visibility:visible;fill:#cecece;fill-opacity:1;fill-rule:nonzero;stroke:none;stroke-width:1.00000012;marker:none;enable-background:accumulate" />
    <path
       style="color:#000000;display:inline;overflow:visible;visibility:visible;opacity:0.8;fill:none;stroke:url(#linearGradient5869);stroke-width:1;stroke-linecap:butt;stroke-linejoin:miter;stroke-miterlimit:4;stroke-dasharray:none;stroke-dashoffset:0;stroke-opacity:1;marker:none;enable-background:accumulate"
       id="path3468"
       d="m 13.662787,-43.499683 c -1.87818,0.0205 -3.16279,0.9143 -3.16279,2.67225 l 0,5.32743 c -0.9606004,0 -1.4771004,-0.003 -2.1044004,0 -1.67856,0.008 -2.87762,0.94491 -2.87762,2.83298 0.0936,27.4976499 -0.018,28.9219399 -0.018,31.2565499 3.90581,0 117.0000034,-9.8866399 117.0000034,-14.1422999 l 0,-17.14209 c 0,-1.75796 -1.15786,-2.82564 -3.03605,-2.80514 l -61.963949,0 0,-5.19887 c 0,-1.75795 -1.18743,-2.80081 -2.94827,-2.80081 l -40.888944,0 z" />
    <path
       id="rect8678"
       d="m 13.499997,-42.499843 c -1.108,0 -2,0.892 -2,2 l 0,6 -3.0000004,0 c -1.108,0 -2,0.892 -2,2 l 0,11 c 0,1.108 0.892,2 2,2 l 111.0000034,0 c 1.108,0 2,-0.892 2,-2 l 0,-11 c 0,-1.108 -0.892,-2 -2,-2 l -62.999999,0 0,-6 c 0,-1.108 -0.892,-2 -2,-2 l -41.000004,0 z"
       style="color:#000000;display:inline;overflow:visible;visibility:visible;fill:none;stroke:url(#linearGradient5873);stroke-width:0.99999982;stroke-linecap:round;stroke-linejoin:round;stroke-miterlimit:4;stroke-dasharray:none;stroke-dashoffset:0;stroke-opacity:1;marker:none;enable-background:accumulate" />
    <g
       id="g2479"
       transform="matrix(1.0027339,0,0,0.9919518,-0.16331336,-57.066403)">
      <rect
         style="display:inline;overflow:visible;visibility:visible;opacity:0.3;fill:url(#linearGradient5875-17);fill-opacity:1;fill-rule:nonzero;stroke:none;stroke-width:1;marker:none"
         id="rect4173"
         y="99.870178"
         x="12.462574"
         height="16.129816"
         width="103.05159" />
      <path
         style="display:inline;overflow:visible;visibility:visible;opacity:0.3;fill:url(#radialGradient5877-4);fill-opacity:1;fill-rule:nonzero;stroke:none;stroke-width:1;marker:none"
         id="path5058"
         d="m 115.51417,99.870734 c 0,0 0,16.128926 0,16.128926 4.26271,0.0304 10.30516,-3.61367 10.30516,-8.0655 0,-4.45183 -4.75687,-8.063426 -10.30516,-8.063426 z" />
      <path
         style="display:inline;overflow:visible;visibility:visible;opacity:0.3;fill:url(#radialGradient5879-69);fill-opacity:1;fill-rule:nonzero;stroke:none;stroke-width:1;marker:none"
         id="path5018"
         d="m 12.462574,99.870734 c 0,0 0,16.128926 0,16.128926 -4.2627113,0.0304 -10.3051588,-3.61367 -10.3051588,-8.0655 0,-4.45183 4.7568636,-8.063426 10.3051588,-8.063426 z" />
    </g>
    <path
       style="display:inline;overflow:visible;visibility:visible;fill:url(#linearGradient5883);fill-opacity:1;fill-rule:nonzero;stroke:none;stroke-width:0.99999982;marker:none;enable-background:accumulate"
       id="path3369"
       d="m 6.2499966,-24.500053 115.4999934,0.001 c 1.66861,0 2.75001,1.18375 2.75001,2.65543 l -2.71648,71.78068 c 0.0386,1.86211 -0.55015,2.60044 -2.48884,2.56139 L 9.3616366,52.451747 c -1.66859,0 -3.35116,-1.09895 -3.35116,-2.57064 l -2.51048,-71.72469 c 0,-1.47169 1.0814,-2.65647 2.75,-2.65647 z" />
    <path
       style="opacity:0.4;fill:url(#linearGradient5887);fill-opacity:1;stroke:none"
       id="path6127"
       d="m 5.7727166,-25.000063 116.4545434,0.001 c 1.6824,0 2.77274,1.19912 2.77274,2.68993 l -2.73893,72.7129 c 0.0389,1.88629 -0.5547,2.63421 -2.50941,2.59465 L 8.9100766,52.951017 c -1.68238,0 -3.37885,-1.11323 -3.37885,-2.60404 l -2.53123,-72.65607 c 0,-1.4908 1.09034,-2.69097 2.77272,-2.69097 z" />
    <path
       id="path8263"
       d="m 6.2499966,-23.499853 c -2.84882,0.29656 -1.40933,3.76689 -1.63989,5.72017 0.78584,22.5479499 1.57466,45.09583 2.35864,67.64381 1.18868,2.48974 4.4300904,1.28205 6.6383204,1.57433 35.235146,0.0205 70.470294,0.0412 105.705433,0.0617 2.566,-0.16531 1.15721,-3.81803 1.65357,-5.65555 0.85465,-22.56949 2.54292,-67.57135 2.54292,-67.57135 0,-1.16209 -0.77992,-1.7731 -2.20738,-1.7731 -37.089309,0 -77.962299,0 -115.0516134,0 z"
       style="display:inline;overflow:visible;visibility:visible;opacity:0.5;fill:none;stroke:url(#linearGradient5891);stroke-width:0.99999988;stroke-linecap:round;stroke-linejoin:round;stroke-miterlimit:4;stroke-dasharray:none;stroke-dashoffset:0;stroke-opacity:1;marker:none;enable-background:accumulate" />
    <path
       style="display:inline;overflow:visible;visibility:visible;opacity:0.3;fill:none;stroke:#000000;stroke-width:0.99999982;stroke-linecap:round;stroke-linejoin:round;stroke-miterlimit:4;stroke-dasharray:none;stroke-dashoffset:0;stroke-opacity:1;marker:none;enable-background:accumulate"
       id="path3369-7"
       d="m 6.2499966,-24.500053 115.4999934,0.001 c 1.66861,0 2.75001,1.18375 2.75001,2.65543 l -2.71648,71.78068 c 0.0386,1.86211 -0.55015,2.60044 -2.48884,2.56139 L 9.3616366,52.451747 c -1.66859,0 -3.35116,-1.09895 -3.35116,-2.57064 l -2.51048,-71.72469 c 0,-1.47169 1.0814,-2.65647 2.75,-2.65647 z" />
  </g>
  <g
     transform="matrix(0.72580649,0,0,0.72580649,15.026907,20.697064)"
     id="layer6"
     style="fill:#1b63a5;fill-opacity:1">
    <path
       d="m 58.15625,26.375 c -2.802802,0 -5.221983,1.742403 -6.25,4.1875 C 51.8378,30.54573 51.82279,30.48137 51.75,30.46875 50.508012,30.253515 49.276972,30.125 48.0625,30.125 c -3.281759,4.25e-4 -6.544831,0.820931 -9.5,2.28125 -0.783662,0.388759 -1.107093,0.989356 -1.25,1.5 -0.03081,0.108626 0.07104,0.314969 0.0625,0.46875 C 37.202554,34.29704 37.07049,34.196115 36.84375,34.15625 36.639596,34.1203 36.319918,34.07837 35.875,34.1875 35.77825,34.21123 35.518734,34.23315 35,34.625 l -0.03125,0 0,-0.03125 c -3.436666,2.646862 -5.977918,6.333385 -7.28125,10.4375 -0.67701,-0.224195 -1.376525,-0.40625 -2.125,-0.40625 -3.791089,0 -6.90625,3.117298 -6.90625,6.90625 0,3.788953 3.115162,6.90625 6.90625,6.90625 0.771784,0 1.492323,-0.199747 2.1875,-0.4375 1.31004,4.009336 3.809038,7.614321 7.15625,10.21875 l 0,-0.03125 0.03125,0 c 0.292423,0.223804 0.957871,0.649742 1.8125,0.5 0.230725,-0.03973 0.357442,-0.140309 0.53125,-0.21875 0.0081,0.151181 -0.09099,0.365248 -0.0625,0.46875 0.144984,0.525055 0.439283,1.111825 1.21875,1.5 2.99541,1.499577 6.325094,2.28125 9.625,2.28125 1.213895,0 2.462774,-0.124438 3.71875,-0.34375 0.760485,2.976929 3.358419,5.25 6.5625,5.25 3.782564,0 6.90625,-3.094371 6.90625,-6.875 0,-1.7442 -0.722792,-3.291568 -1.8125,-4.5 3.340302,-3.434953 5.430035,-7.939324 5.90625,-12.6875 0.06378,-0.629558 -0.213947,-1.359954 -0.625,-1.8125 -0.12818,-0.141132 -0.345511,-0.113294 -0.5,-0.21875 0.171855,-0.102846 0.342251,-0.138725 0.5,-0.3125 0.414596,-0.456716 0.682538,-1.197385 0.625,-1.8125 C 68.907989,44.929182 67.023691,40.612651 64,37.25 c -0.122592,-0.137057 -0.299654,-0.116361 -0.4375,-0.21875 0.805022,-1.11499 1.375,-2.407216 1.375,-3.875 0,-3.720502 -3.058372,-6.78125 -6.78125,-6.78125 z m 0,2 c 2.643984,0 4.78125,2.139433 4.78125,4.78125 0,2.641819 -2.137266,4.78125 -4.78125,4.78125 -2.643984,0 -4.78125,-2.139431 -4.78125,-4.78125 0,-2.641817 2.137266,-4.78125 4.78125,-4.78125 z m -10.09375,3.75 c 1.074573,0 2.191111,0.112749 3.34375,0.3125 0.181008,0.03138 0.3125,0.223713 0.3125,0.40625 0,0.0061 3.83e-4,0.1231 0,0.125 3.83e-4,3.663728 3.00112,6.65625 6.6875,6.65625 1.263617,0 2.492772,-0.382741 3.59375,-1.09375 0.155751,-0.100634 0.376776,-0.07526 0.5,0.0625 2.730438,3.036524 4.450353,6.958189 4.84375,11 0.01,0.106383 -0.02219,0.20242 -0.09375,0.28125 -0.07156,0.07883 -0.174865,0.09375 -0.28125,0.09375 l -7.3125,0 c -0.184836,0 -0.31467,-0.129582 -0.34375,-0.3125 -0.868689,-5.447375 -5.709523,-9.53125 -11.25,-9.53125 -1.506237,0 -3.000912,0.298946 -4.4375,0.90625 -0.170295,0.07156 -0.3704,-1.18e-4 -0.46875,-0.15625 l -3.875,-6.15625 C 39.22461,34.628439 39.22091,34.54006 39.25,34.4375 c 0.0287,-0.102556 0.09183,-0.20254 0.1875,-0.25 2.690258,-1.329411 5.674137,-2.062118 8.625,-2.0625 z m -11.71875,4 c 0.05051,-0.01239 0.10401,-0.0092 0.15625,0 0.104473,0.01837 0.19336,0.09795 0.25,0.1875 l 3.875,6.125 c 0.09911,0.15728 0.04593,0.377928 -0.09375,0.5 -2.47825,2.158669 -3.875,5.245734 -3.875,8.5 0,3.230157 1.391137,6.310848 3.84375,8.46875 0.13967,0.12284 0.16238,0.343486 0.0625,0.5 l -3.90625,6.125 c -0.05702,0.08916 -0.145526,0.16951 -0.25,0.1875 C 36.301395,66.73712 36.20881,66.69044 36.125,66.625 33.000016,64.193484 30.646133,60.788733 29.5,57.03125 c -0.04516,-0.148478 0.0037,-0.3102 0.125,-0.40625 1.590428,-1.259384 2.53125,-3.199121 2.53125,-5.1875 0,-1.988378 -0.941205,-3.928118 -2.53125,-5.1875 -0.122013,-0.09643 -0.17016,-0.258154 -0.125,-0.40625 1.155319,-3.789245 3.523482,-7.219377 6.6875,-9.65625 0.04152,-0.03233 0.10574,-0.05011 0.15625,-0.0625 z m 11.71875,6 c 4.55768,0 8.570046,3.383933 9.28125,7.84375 0.08945,0.562679 0.515015,1.075273 1.0625,1.46875 -0.544662,0.349809 -0.981197,0.838414 -1.09375,1.53125 -0.720438,4.423668 -4.712598,7.8125 -9.25,7.8125 -1.247985,0 -2.506551,-0.262021 -3.71875,-0.78125 -0.536578,-0.228386 -1.160232,-0.184326 -1.75,0.03125 -0.03152,-0.596911 -0.259632,-1.166236 -0.78125,-1.625 -2.025461,-1.782077 -3.15625,-4.312822 -3.15625,-6.96875 0,-2.681992 1.14071,-5.217152 3.1875,-7 0.488224,-0.426679 0.702724,-0.997499 0.75,-1.625 0.562028,0.242817 1.180249,0.328183 1.8125,0.0625 1.195138,-0.505233 2.414642,-0.75 3.65625,-0.75 z m -22.5,4.5 c 2.70591,0 4.90625,2.202298 4.90625,4.90625 0,2.703954 -2.20034,4.90625 -4.90625,4.90625 -2.70591,0 -4.90625,-2.202296 -4.90625,-4.90625 0,-2.703952 2.20034,-4.90625 4.90625,-4.90625 z m 34.09375,6.34375 7.3125,0 c 0.106386,-3.82e-4 0.2093,0.04578 0.28125,0.125 0.07195,0.07921 0.10449,0.175242 0.09375,0.28125 -0.433196,4.319248 -2.350531,8.41513 -5.40625,11.53125 -0.116718,0.11901 -0.290167,0.13942 -0.4375,0.0625 -0.968951,-0.50513 -2.045965,-0.75 -3.09375,-0.75 -3.379851,0 -6.236195,2.517029 -6.625,5.875 -0.01952,0.164933 -0.117462,0.2838 -0.28125,0.3125 -1.1668,0.207027 -2.330399,0.3125 -3.4375,0.3125 -2.984922,0 -6.007445,-0.705153 -8.71875,-2.0625 -0.09528,-0.04745 -0.15918,-0.14744 -0.1875,-0.25 -0.02833,-0.10294 -0.02577,-0.19132 0.03125,-0.28125 l 3.90625,-6.15625 c 0.09988,-0.15498 0.298839,-0.19732 0.46875,-0.125 1.452663,0.622229 2.976159,0.9375 4.5,0.9375 5.52517,0 10.338198,-4.093189 11.21875,-9.5 0.02947,-0.181388 0.190931,-0.312117 0.375,-0.3125 z m -1.8125,12.9375 c 0.164725,-0.01661 0.330881,0 0.5,0 2.70591,0 4.90625,2.153745 4.90625,4.84375 0,2.690003 -2.20034,4.875 -4.90625,4.875 -2.70591,0 -4.90625,-2.184997 -4.90625,-4.875 0,-2.52188 1.935378,-4.594567 4.40625,-4.84375 z"
       id="path4975"
       style="display:inline;overflow:visible;opacity:0.05;fill:#1b63a5;fill-opacity:1" />
    <path
       d="m 58.15625,27.34375 c -2.85604,0 -5.145433,2.122399 -5.625,4.84375 -0.176198,-0.363806 -0.431587,-0.662297 -0.9375,-0.75 -1.198636,-0.207722 -2.384656,-0.34375 -3.53125,-0.34375 -3.12121,4.04e-4 -6.267114,0.759447 -9.09375,2.15625 -0.449852,0.223163 -0.631255,0.593608 -0.71875,0.90625 -0.07772,0.273996 -0.05031,0.795641 0.15625,1.125 l 3.875,6.15625 c 0.358291,0.568791 1.087756,0.809537 1.75,0.53125 1.312288,-0.554757 2.661246,-0.8125 4.03125,-0.8125 5.034528,0 9.431135,3.717275 10.21875,8.65625 C 58.3731,50.390257 58.990199,51 59.65625,51 l 7.3125,0 C 67.171394,51 67.640439,50.958589 68,50.5625 68.248157,50.289132 68.409449,49.868281 68.375,49.5 67.96059,45.242295 66.121767,41.139267 63.25,37.9375 c -0.0055,-0.0061 0.0055,-0.02511 0,-0.03125 -0.409689,-0.440885 -0.978275,-0.507213 -1.5,-0.3125 1.314613,-1.067464 2.21875,-2.62122 2.21875,-4.4375 0,-3.197129 -2.613096,-5.8125 -5.8125,-5.8125 z m 0,1.03125 c 2.643984,0 4.78125,2.139433 4.78125,4.78125 0,2.641819 -2.137266,4.78125 -4.78125,4.78125 -2.643984,0 -4.78125,-2.139431 -4.78125,-4.78125 0,-2.641817 2.137266,-4.78125 4.78125,-4.78125 z m -10.09375,3.75 c 1.074573,0 2.191111,0.112749 3.34375,0.3125 0.181008,0.03138 0.3125,0.223713 0.3125,0.40625 0,0.0061 3.83e-4,0.1231 0,0.125 3.83e-4,3.663728 3.00112,6.65625 6.6875,6.65625 1.263617,0 2.492772,-0.382741 3.59375,-1.09375 0.155751,-0.100634 0.376776,-0.07526 0.5,0.0625 2.730438,3.036524 4.450353,6.958189 4.84375,11 0.01,0.106383 -0.02219,0.20242 -0.09375,0.28125 -0.07156,0.07883 -0.174865,0.09375 -0.28125,0.09375 l -7.3125,0 c -0.184836,0 -0.31467,-0.129582 -0.34375,-0.3125 -0.868689,-5.447375 -5.709523,-9.53125 -11.25,-9.53125 -1.506237,0 -3.000912,0.298946 -4.4375,0.90625 -0.170295,0.07156 -0.3704,-1.18e-4 -0.46875,-0.15625 l -3.875,-6.15625 C 39.22461,34.628439 39.22091,34.54006 39.25,34.4375 c 0.0287,-0.102556 0.09183,-0.20254 0.1875,-0.25 2.690258,-1.329411 5.674137,-2.062118 8.625,-2.0625 z m -11.625,2.96875 c -0.100437,-0.0049 -0.216972,1.55e-4 -0.34375,0.03125 -0.07575,0.01858 -0.228059,0.01392 -0.53125,0.25 -3.337298,2.57033 -5.843265,6.15737 -7.0625,10.15625 -0.132155,0.433383 0.133223,0.860527 0.40625,1.21875 -0.964433,-0.678152 -2.082216,-1.15625 -3.34375,-1.15625 -3.264566,0 -5.9375,2.674985 -5.9375,5.9375 0,3.262517 2.672935,5.9375 5.9375,5.9375 1.22738,0 2.300778,-0.479989 3.25,-1.125 -0.165703,0.322094 -0.420369,0.645324 -0.3125,1 1.21027,3.967749 3.705137,7.530053 7,10.09375 0.186513,0.145632 0.595369,0.368573 1.09375,0.28125 0.513907,-0.08849 0.771206,-0.364973 0.9375,-0.625 l 3.90625,-6.125 c 0.374013,-0.586086 0.307222,-1.353672 -0.25,-1.84375 -2.232713,-1.964426 -3.5,-4.752959 -3.5,-7.6875 0,-2.959656 1.275118,-5.753556 3.53125,-7.71875 C 41.72383,43.277341 41.919217,42.540285 41.5,41.875 L 37.625,35.75 c -0.169464,-0.267929 -0.431592,-0.536053 -0.9375,-0.625 -0.06522,-0.01149 -0.149563,-0.02635 -0.25,-0.03125 z M 36.34375,36.125 c 0.05051,-0.01239 0.10401,-0.0092 0.15625,0 0.104473,0.01837 0.19336,0.09795 0.25,0.1875 l 3.875,6.125 c 0.09911,0.15728 0.04593,0.377928 -0.09375,0.5 -2.47825,2.158669 -3.875,5.245734 -3.875,8.5 0,3.230157 1.391137,6.310848 3.84375,8.46875 0.13967,0.12284 0.16238,0.343486 0.0625,0.5 l -3.90625,6.125 c -0.05702,0.08916 -0.145526,0.16951 -0.25,0.1875 C 36.301395,66.73712 36.20881,66.69044 36.125,66.625 33.000016,64.193484 30.646133,60.788733 29.5,57.03125 c -0.04516,-0.148478 0.0037,-0.3102 0.125,-0.40625 1.590428,-1.259384 2.53125,-3.199121 2.53125,-5.1875 0,-1.988378 -0.941205,-3.928118 -2.53125,-5.1875 -0.122013,-0.09643 -0.17016,-0.258154 -0.125,-0.40625 1.155319,-3.789245 3.523482,-7.219377 6.6875,-9.65625 0.04152,-0.03233 0.10574,-0.05011 0.15625,-0.0625 z m -10.78125,10.5 c 2.70591,0 4.90625,2.202298 4.90625,4.90625 0,2.703954 -2.20034,4.90625 -4.90625,4.90625 -2.70591,0 -4.90625,-2.202296 -4.90625,-4.90625 0,-2.703952 2.20034,-4.90625 4.90625,-4.90625 z m 34.09375,5.3125 c -0.670311,0.0014 -1.293882,0.495802 -1.40625,1.1875 -0.798124,4.900684 -5.170838,8.625 -10.1875,8.625 -1.381829,0 -2.764879,-0.274546 -4.09375,-0.84375 -0.569653,-0.242464 -1.359104,-0.106538 -1.75,0.5 L 38.3125,67.5625 c -0.212917,0.335806 -0.228796,0.861398 -0.15625,1.125 0.08838,0.320062 0.271245,0.652142 0.71875,0.875 2.857564,1.430568 6.040422,2.1875 9.1875,2.1875 1.172495,0 2.401491,-0.126661 3.625,-0.34375 0.285555,-0.05004 0.54738,-0.211943 0.75,-0.4375 0.122558,3.145693 2.723263,5.6875 5.90625,5.6875 3.260177,0 5.9375,-2.654788 5.9375,-5.90625 0,-2.022786 -1.088222,-3.725489 -2.65625,-4.78125 0.383441,0.01446 0.781394,-0.05712 1.0625,-0.34375 3.22076,-3.284423 5.23065,-7.601153 5.6875,-12.15625 C 68.41305,53.093216 68.246522,52.677657 68,52.40625 67.733363,52.112672 67.375353,51.93604 66.96875,51.9375 l -7.3125,0 z m 0,1.03125 7.3125,0 c 0.106386,-3.82e-4 0.2093,0.04578 0.28125,0.125 0.07195,0.07921 0.10449,0.175242 0.09375,0.28125 -0.433196,4.319248 -2.350531,8.41513 -5.40625,11.53125 -0.116718,0.11901 -0.290167,0.13942 -0.4375,0.0625 -0.968951,-0.50513 -2.045965,-0.75 -3.09375,-0.75 -3.379851,0 -6.236195,2.517029 -6.625,5.875 -0.01952,0.164933 -0.117462,0.2838 -0.28125,0.3125 -1.1668,0.207027 -2.330399,0.3125 -3.4375,0.3125 -2.984922,0 -6.007445,-0.705153 -8.71875,-2.0625 -0.09528,-0.04745 -0.15918,-0.14744 -0.1875,-0.25 -0.02833,-0.10294 -0.02577,-0.19132 0.03125,-0.28125 l 3.90625,-6.15625 c 0.09988,-0.15498 0.298839,-0.19732 0.46875,-0.125 1.452663,0.622229 2.976159,0.9375 4.5,0.9375 5.52517,0 10.338198,-4.093189 11.21875,-9.5 0.02947,-0.181388 0.190931,-0.312117 0.375,-0.3125 z m -1.8125,12.9375 c 0.164725,-0.01661 0.330881,0 0.5,0 2.70591,0 4.90625,2.153745 4.90625,4.84375 0,2.690003 -2.20034,4.875 -4.90625,4.875 -2.70591,0 -4.90625,-2.184997 -4.90625,-4.875 0,-2.52188 1.935378,-4.594567 4.40625,-4.84375 z"
       id="path4964"
       style="display:inline;overflow:visible;opacity:0.1;fill:#1b63a5;fill-opacity:1" />
    <path
       d="m 58.161417,28.368764 c -2.643984,0 -4.784898,2.142985 -4.784898,4.784802 0,2.641819 2.140914,4.784803 4.784898,4.784803 2.643984,0 4.784898,-2.142984 4.784898,-4.784803 0,-2.641817 -2.140914,-4.784802 -4.784898,-4.784802 z m -10.10517,3.747538 c -2.950863,3.82e-4 -5.942635,0.745118 -8.632893,2.074529 -0.09567,0.04746 -0.155333,0.131665 -0.184034,0.234221 -0.02909,0.10256 -0.02318,0.210831 0.03346,0.301142 l 3.881456,6.139938 c 0.09835,0.156132 0.298157,0.222132 0.468452,0.150571 1.436588,-0.607304 2.927321,-0.903424 4.433558,-0.903424 5.540477,0 10.374149,4.1055 11.242838,9.552875 0.02908,0.182918 0.183233,0.317872 0.368069,0.317872 l 7.29446,0 c 0.106385,0 0.212856,-0.03828 0.284417,-0.117111 0.07156,-0.07883 0.110332,-0.178028 0.100381,-0.284411 -0.393397,-4.041811 -2.121381,-7.955138 -4.851819,-10.991662 -0.123224,-0.137763 -0.329431,-0.150834 -0.485182,-0.0502 -1.100978,0.711009 -2.350152,1.087455 -3.613769,1.087455 -3.68638,0 -6.675052,-2.994844 -6.675435,-6.658572 3.83e-4,-0.0019 0,-0.127718 0,-0.13384 0,-0.182537 -0.136869,-0.353413 -0.317877,-0.384792 -1.152639,-0.199751 -2.27151,-0.334596 -3.346083,-0.334596 z m -11.711289,4.015219 c -0.05051,0.01239 -0.109052,0.03459 -0.150573,0.06692 -3.164018,2.436873 -5.536846,5.86401 -6.692165,9.653255 -0.04516,0.148096 -0.0049,0.305088 0.117113,0.401522 1.590045,1.259382 2.543022,3.197946 2.543022,5.186324 0,1.988379 -0.952594,3.926941 -2.543022,5.186325 -0.12131,0.09605 -0.16227,0.253044 -0.117113,0.401522 1.146133,3.757483 3.50026,7.171549 6.625244,9.603065 0.08381,0.06544 0.179561,0.102022 0.284416,0.08365 0.104474,-0.01799 0.193937,-0.09487 0.250957,-0.18403 l 3.914916,-6.123209 c 0.09988,-0.156514 0.07275,-0.362333 -0.06692,-0.485173 -2.452613,-2.157902 -3.864726,-5.251993 -3.864726,-8.48215 0,-3.254266 1.419936,-6.356941 3.898186,-8.51561 0.13968,-0.122072 0.182767,-0.327892 0.08366,-0.485172 l -3.88146,-6.139942 c -0.05664,-0.08955 -0.146484,-0.148932 -0.250957,-0.1673 -0.05224,-0.0092 -0.100059,-0.01239 -0.150574,0 z M 25.553843,46.63801 c -2.70591,0 -4.902011,2.19796 -4.902011,4.901912 0,2.703954 2.196101,4.885184 4.902011,4.885184 2.70591,0 4.902011,-2.18123 4.902011,-4.885184 0,-2.703952 -2.196101,-4.901912 -4.902011,-4.901912 z m 41.407771,6.323969 -7.29446,0.01673 c -0.184069,3.83e-4 -0.355332,0.136484 -0.384799,0.317872 -0.880552,5.406811 -5.700938,9.485954 -11.226108,9.485954 -1.523841,0 -3.031087,-0.314655 -4.48375,-0.936884 -0.169911,-0.07232 -0.368571,-0.02114 -0.468451,0.13384 l -3.914917,6.13994 c -0.05702,0.08993 -0.06179,0.198201 -0.03346,0.301141 0.02832,0.10256 0.08875,0.186769 0.184035,0.234221 2.711305,1.357347 5.731622,2.074529 8.716544,2.074529 1.107101,0 2.262936,-0.110844 3.429736,-0.317871 0.163788,-0.0287 0.281631,-0.152938 0.301147,-0.317871 0.388805,-3.357971 3.228662,-5.888988 6.608513,-5.888988 1.047785,0 2.126175,0.264453 3.095126,0.769583 0.147333,0.07692 0.318273,0.05209 0.434991,-0.06692 3.055719,-3.11612 4.987457,-7.224505 5.420653,-11.543753 0.01074,-0.106008 -0.02843,-0.205198 -0.100381,-0.284412 -0.07195,-0.07922 -0.178031,-0.117493 -0.284417,-0.117111 z M 58.345451,65.89433 c -2.70591,0 -4.90201,2.178449 -4.90201,4.868454 0,2.690003 2.1961,4.868452 4.90201,4.868452 2.70591,0 4.902011,-2.178449 4.902011,-4.868452 0,-2.690005 -2.196101,-4.868454 -4.902011,-4.868454 z"
       id="path3324"
       style="display:inline;overflow:visible;opacity:0.9;fill:#00508c;fill-opacity:1" />
    <path
       d="m 58.15625,28.375 c -2.643984,0 -4.78125,2.139433 -4.78125,4.78125 0,2.641819 2.137266,4.78125 4.78125,4.78125 2.643984,0 4.78125,-2.139431 4.78125,-4.78125 0,-2.641817 -2.137266,-4.78125 -4.78125,-4.78125 z m 0,0.96875 c 2.115013,0 3.8125,1.699552 3.8125,3.8125 0,2.112951 -1.697487,3.8125 -3.8125,3.8125 -2.115013,0 -3.8125,-1.699549 -3.8125,-3.8125 0,-2.112948 1.697487,-3.8125 3.8125,-3.8125 z M 48.0625,32.125 c -2.950863,3.82e-4 -5.934742,0.733089 -8.625,2.0625 -0.09567,0.04746 -0.158799,0.147444 -0.1875,0.25 -0.02909,0.10256 -0.02539,0.190939 0.03125,0.28125 l 3.875,6.15625 c 0.09835,0.156132 0.298455,0.227811 0.46875,0.15625 1.436588,-0.607304 2.931263,-0.90625 4.4375,-0.90625 5.540477,0 10.381311,4.083875 11.25,9.53125 0.02908,0.182918 0.158914,0.3125 0.34375,0.3125 l 7.3125,0 c 0.106385,0 0.209689,-0.01492 0.28125,-0.09375 0.07156,-0.07883 0.103701,-0.174867 0.09375,-0.28125 -0.393397,-4.041811 -2.113312,-7.963476 -4.84375,-11 -0.123224,-0.137763 -0.344249,-0.163134 -0.5,-0.0625 -1.100978,0.711009 -2.330133,1.09375 -3.59375,1.09375 -3.68638,0 -6.687117,-2.992522 -6.6875,-6.65625 3.83e-4,-0.0019 0,-0.118878 0,-0.125 0,-0.182537 -0.131492,-0.374871 -0.3125,-0.40625 C 50.253611,32.237749 49.137073,32.125 48.0625,32.125 Z m 0,0.96875 c 0.878031,0 1.824075,0.132953 2.78125,0.28125 0.226643,4.000927 3.490566,7.21875 7.5625,7.21875 1.26485,0 2.477564,-0.388718 3.59375,-1 2.274819,2.650907 3.710685,5.962793 4.1875,9.40625 l -6.09375,0 c -1.168307,-5.659111 -6.192504,-9.84375 -12.03125,-9.84375 -1.463936,0 -2.907895,0.286542 -4.3125,0.8125 L 40.53125,34.8125 c 2.389444,-1.073593 4.972948,-1.718419 7.53125,-1.71875 z M 36.34375,36.125 c -0.05051,0.01239 -0.114729,0.03017 -0.15625,0.0625 -3.164018,2.436873 -5.532181,5.867005 -6.6875,9.65625 -0.04516,0.148096 0.003,0.309816 0.125,0.40625 1.590045,1.259382 2.53125,3.199122 2.53125,5.1875 0,1.988379 -0.940822,3.928116 -2.53125,5.1875 -0.12131,0.09605 -0.170157,0.257772 -0.125,0.40625 1.146133,3.757483 3.500016,7.162234 6.625,9.59375 0.08381,0.06544 0.176395,0.112122 0.28125,0.09375 0.104474,-0.01799 0.19298,-0.09834 0.25,-0.1875 l 3.90625,-6.125 c 0.09988,-0.156514 0.07717,-0.37716 -0.0625,-0.5 -2.452613,-2.157902 -3.84375,-5.238593 -3.84375,-8.46875 0,-3.254266 1.39675,-6.341331 3.875,-8.5 0.13968,-0.122072 0.192857,-0.34272 0.09375,-0.5 l -3.875,-6.125 c -0.05664,-0.08955 -0.145527,-0.169132 -0.25,-0.1875 -0.05224,-0.0092 -0.105735,-0.01239 -0.15625,0 z m -0.03125,1.34375 3.21875,5.09375 c -2.451596,2.32153 -3.84375,5.510965 -3.84375,8.875 0,3.342003 1.385449,6.523854 3.8125,8.84375 l -3.25,5.0625 C 33.62479,63.134193 31.6065,60.235646 30.5625,57 c 1.575462,-1.440197 2.5625,-3.443469 2.5625,-5.5625 0,-2.119146 -0.987367,-4.122353 -2.5625,-5.5625 1.053159,-3.26727 3.091915,-6.190033 5.75,-8.40625 z m -10.75,9.15625 c -2.70591,0 -4.90625,2.202298 -4.90625,4.90625 0,2.703954 2.20034,4.90625 4.90625,4.90625 2.70591,0 4.90625,-2.202296 4.90625,-4.90625 0,-2.703952 -2.20034,-4.90625 -4.90625,-4.90625 z m 0,0.96875 c 2.173857,0 3.9375,1.765513 3.9375,3.9375 0,2.17199 -1.763642,3.9375 -3.9375,3.9375 -2.173858,0 -3.9375,-1.76551 -3.9375,-3.9375 0,-2.171987 1.763643,-3.9375 3.9375,-3.9375 z m 34.09375,5.375 c -0.184069,3.83e-4 -0.345533,0.131112 -0.375,0.3125 -0.880552,5.406811 -5.69358,9.5 -11.21875,9.5 -1.523841,0 -3.047337,-0.315271 -4.5,-0.9375 -0.169911,-0.07232 -0.36887,-0.02998 -0.46875,0.125 L 39.1875,68.125 c -0.05702,0.08993 -0.05958,0.17831 -0.03125,0.28125 0.02832,0.10256 0.09222,0.202548 0.1875,0.25 2.711305,1.357347 5.733828,2.0625 8.71875,2.0625 1.107101,0 2.2707,-0.105473 3.4375,-0.3125 0.163788,-0.0287 0.261734,-0.147567 0.28125,-0.3125 0.388805,-3.357971 3.245149,-5.875 6.625,-5.875 1.047785,0 2.124799,0.24487 3.09375,0.75 0.147333,0.07692 0.320782,0.05651 0.4375,-0.0625 3.055719,-3.11612 4.973054,-7.212002 5.40625,-11.53125 0.01074,-0.106008 -0.0218,-0.202036 -0.09375,-0.28125 -0.07195,-0.07922 -0.174864,-0.125382 -0.28125,-0.125 l -7.3125,0 z m 0.40625,0.96875 6.1875,0 C 65.733072,57.677983 64.078775,61.206768 61.46875,63.96875 60.483807,63.541221 59.437814,63.25 58.40625,63.25 c -3.684389,0 -6.762523,2.64237 -7.4375,6.21875 C 49.984532,69.623912 48.988047,69.75 48.0625,69.75 45.450417,69.75 42.821341,69.100163 40.40625,68 l 3.25,-5.09375 c 1.431105,0.548547 2.909753,0.84375 4.40625,0.84375 5.825022,0 10.820137,-4.193678 12,-9.8125 z m -2.21875,11.96875 c -2.470872,0.249183 -4.40625,2.32187 -4.40625,4.84375 0,2.690003 2.20034,4.875 4.90625,4.875 2.70591,0 4.90625,-2.184997 4.90625,-4.875 0,-2.690005 -2.20034,-4.84375 -4.90625,-4.84375 -0.169119,0 -0.335275,-0.01661 -0.5,0 z m 0.5,0.96875 c 2.185587,0 3.9375,1.719718 3.9375,3.875 0,2.15528 -1.759463,3.90625 -3.9375,3.90625 -2.178037,0 -3.9375,-1.75097 -3.9375,-3.90625 0,-2.155282 1.751913,-3.875 3.9375,-3.875 z m -18.3125,1.71875 c -0.0089,0.02197 0.01126,0.04475 0,0.0625 l -0.03125,0 0.03125,-0.0625 z"
       id="path4923"
       style="display:inline;overflow:visible;opacity:0.5;fill:#00508c;fill-opacity:0" />
    <path
       d="m 58.15625,28.375 c -2.643984,0 -4.78125,2.139433 -4.78125,4.78125 0,0.170901 0.04502,0.333719 0.0625,0.5 0.252665,-2.404116 2.245807,-4.28125 4.71875,-4.28125 2.472943,0 4.466085,1.877134 4.71875,4.28125 0.01748,-0.166281 0.0625,-0.329099 0.0625,-0.5 0,-2.641817 -2.137266,-4.78125 -4.78125,-4.78125 z m -10.09375,3.75 c -2.950863,3.82e-4 -5.934742,0.733089 -8.625,2.0625 -0.09567,0.04746 -0.158799,0.147444 -0.1875,0.25 -0.02909,0.10256 -0.02539,0.190939 0.03125,0.28125 l 0.25,0.40625 c 2.663788,-1.298062 5.617598,-1.999623 8.53125,-2 1.074573,0 2.191111,0.112749 3.34375,0.3125 0.181008,0.03138 0.3125,0.223713 0.3125,0.40625 0,0.0061 3.83e-4,0.1231 0,0.125 3.83e-4,3.663728 3.00112,6.65625 6.6875,6.65625 1.263617,0 2.492772,-0.382741 3.59375,-1.09375 0.155751,-0.100634 0.376776,-0.07526 0.5,0.0625 2.570512,2.85867 4.233537,6.49276 4.75,10.28125 0.07156,-0.07883 0.103701,-0.174867 0.09375,-0.28125 -0.393397,-4.041811 -2.113312,-7.963476 -4.84375,-11 -0.123224,-0.137763 -0.344249,-0.163134 -0.5,-0.0625 -1.100978,0.711009 -2.330133,1.09375 -3.59375,1.09375 -3.68638,0 -6.687117,-2.992522 -6.6875,-6.65625 3.83e-4,-0.0019 0,-0.118878 0,-0.125 0,-0.182537 -0.131492,-0.374871 -0.3125,-0.40625 C 50.253611,32.237749 49.137073,32.125 48.0625,32.125 Z m -11.71875,4 c -0.05051,0.01239 -0.114729,0.03017 -0.15625,0.0625 -3.164018,2.436873 -5.532181,5.867005 -6.6875,9.65625 -0.04516,0.148096 0.003,0.309816 0.125,0.40625 0.0233,0.01846 0.03947,0.04375 0.0625,0.0625 1.209374,-3.576565 3.485271,-6.803107 6.5,-9.125 0.04152,-0.03233 0.10574,-0.05011 0.15625,-0.0625 0.05051,-0.01239 0.10401,-0.0092 0.15625,0 0.104473,0.01837 0.19336,0.09795 0.25,0.1875 l 3.65625,5.75 c 0.04434,-0.03986 0.07996,-0.08576 0.125,-0.125 0.13968,-0.122072 0.192857,-0.34272 0.09375,-0.5 l -3.875,-6.125 c -0.05664,-0.08955 -0.145527,-0.169132 -0.25,-0.1875 -0.05224,-0.0092 -0.105735,-0.01239 -0.15625,0 z m -10.78125,10.5 c -2.70591,0 -4.90625,2.202298 -4.90625,4.90625 0,0.168997 0.0145,0.335492 0.03125,0.5 0.25118,-2.469463 2.338209,-4.40625 4.875,-4.40625 2.536791,0 4.62382,1.936787 4.875,4.40625 0.01675,-0.164508 0.03125,-0.331003 0.03125,-0.5 0,-2.703952 -2.20034,-4.90625 -4.90625,-4.90625 z m 6.5625,5.3125 c -0.143643,1.810907 -1.042223,3.533156 -2.5,4.6875 -0.12131,0.09605 -0.170157,0.257772 -0.125,0.40625 0.05516,0.180846 0.126789,0.352066 0.1875,0.53125 1.548632,-1.26041 2.46875,-3.165761 2.46875,-5.125 0,-0.165842 -0.01817,-0.335216 -0.03125,-0.5 z m 4.5625,0 c -0.0074,0.166076 -0.03125,0.333019 -0.03125,0.5 0,3.156769 1.337003,6.162455 3.6875,8.3125 l 0.21875,-0.34375 c 0.09988,-0.156514 0.07717,-0.37716 -0.0625,-0.5 -2.326766,-2.047177 -3.675949,-4.919583 -3.8125,-7.96875 z m 22.96875,1.03125 c -0.184069,3.83e-4 -0.345533,0.131112 -0.375,0.3125 -0.880552,5.406811 -5.69358,9.5 -11.21875,9.5 -1.523841,0 -3.047337,-0.315271 -4.5,-0.9375 -0.169911,-0.07232 -0.36887,-0.02998 -0.46875,0.125 L 39.1875,68.125 c -0.05702,0.08993 -0.05958,0.17831 -0.03125,0.28125 0.02832,0.10256 0.09222,0.202548 0.1875,0.25 0.04178,0.02092 0.08307,0.04189 0.125,0.0625 l 3.625,-5.75 c 0.09988,-0.15498 0.298839,-0.19732 0.46875,-0.125 1.452663,0.622229 2.976159,0.9375 4.5,0.9375 5.52517,0 10.338198,-4.093189 11.21875,-9.5 0.02947,-0.181388 0.190931,-0.312117 0.375,-0.3125 l 7.3125,0 c 0.106386,-3.82e-4 0.2093,0.04578 0.28125,0.125 0.03384,-0.241786 0.06935,-0.475487 0.09375,-0.71875 0.01074,-0.106008 -0.0218,-0.202036 -0.09375,-0.28125 -0.07195,-0.07922 -0.174864,-0.125382 -0.28125,-0.125 l -7.3125,0 z m -1.8125,12.9375 c -2.470872,0.249183 -4.40625,2.32187 -4.40625,4.84375 0,0.168125 0.0145,0.336278 0.03125,0.5 0.25118,-2.455827 2.338209,-4.34375 4.875,-4.34375 2.536791,0 4.62382,1.887923 4.875,4.34375 0.01675,-0.163722 0.03125,-0.331875 0.03125,-0.5 0,-2.690005 -2.20034,-4.84375 -4.90625,-4.84375 -0.169119,0 -0.335275,-0.01661 -0.5,0 z"
       id="path4914"
       style="display:inline;overflow:visible;fill:#00508c;fill-opacity:0" />
  </g>
</svg>
