<?xml version="1.0" encoding="UTF-8" standalone="no"?>
<!-- Created with Inkscape (http://www.inkscape.org/) -->

<svg
   xmlns:dc="http://purl.org/dc/elements/1.1/"
   xmlns:cc="http://creativecommons.org/ns#"
   xmlns:rdf="http://www.w3.org/1999/02/22-rdf-syntax-ns#"
   xmlns:svg="http://www.w3.org/2000/svg"
   xmlns="http://www.w3.org/2000/svg"
   xmlns:sodipodi="http://sodipodi.sourceforge.net/DTD/sodipodi-0.dtd"
   xmlns:inkscape="http://www.inkscape.org/namespaces/inkscape"
   id="svg7384"
   height="16"
   width="16"
   version="1.1"
   inkscape:version="0.91 r13725"
   sodipodi:docname="zoom-original-symbolic.svg">
  <defs
     id="defs10" />
  <sodipodi:namedview
     pagecolor="#ffffff"
     bordercolor="#666666"
     borderopacity="1"
     objecttolerance="10"
     gridtolerance="10"
     guidetolerance="10"
     inkscape:pageopacity="0"
     inkscape:pageshadow="2"
     inkscape:window-width="1152"
     inkscape:window-height="715"
     id="namedview8"
     showgrid="true"
     inkscape:zoom="29.5"
     inkscape:cx="7.6018261"
     inkscape:cy="8.0438477"
     inkscape:window-x="680"
     inkscape:window-y="119"
     inkscape:window-maximized="0"
     inkscape:current-layer="svg7384"
     inkscape:snap-global="true">
    <inkscape:grid
       type="xygrid"
       id="grid4138" />
  </sodipodi:namedview>
  <metadata
     id="metadata90">
    <rdf:RDF>
      <cc:Work
         rdf:about="">
        <dc:format>image/svg+xml</dc:format>
        <dc:type
           rdf:resource="http://purl.org/dc/dcmitype/StillImage" />
        <dc:title>Gnome Symbolic Icon Theme</dc:title>
      </cc:Work>
    </rdf:RDF>
  </metadata>
  <title
     id="title9167">Gnome Symbolic Icon Theme</title>
  <g
     id="layer11"
     transform="translate(-41 -667)">
    <path
       id="path5254"
       style="block-progression:tb;text-indent:0;color:#000000;enable-background:new;text-transform:none;fill:#bebebe"
       d="m47.508 668c-3.0289 0-5.5107 2.479-5.5107 5.5045 0 3.0254 2.4819 5.5045 5.5107 5.5045 3.0289 0 5.5107-2.479 5.5107-5.5045 0-3.0254-2.4819-5.5045-5.5107-5.5045zm0 2.0089c1.9474 0 3.4995 1.5504 3.4995 3.4955s-1.5522 3.4955-3.4995 3.4955c-1.9474 0-3.4995-1.5504-3.4995-3.4955 0-1.9452 1.5522-3.4955 3.4995-3.4955z" />
    <path
       id="path5256"
       style="block-progression:tb;text-indent:0;color:#000000;enable-background:new;text-transform:none;fill:#bebebe"
       d="m50.812 676a1.0001 1.0001 0 0 0 -0.5 1.7188l4 4a1.0055 1.0055 0 1 0 1.4062 -1.4375l-4-4a1.0001 1.0001 0 0 0 -0.906 -0.28z" />
  </g>
  <g
     transform="matrix(0.61338037,0,0,0.61338037,1.7499633,0.74399524)"
     style="font-style:normal;font-variant:normal;font-weight:bold;font-stretch:normal;font-size:11.25px;line-height:125%;font-family:'Noto Sans';-inkscape-font-specification:'Noto Sans, Bold';text-align:start;letter-spacing:0px;word-spacing:0px;writing-mode:lr-tb;text-anchor:start;fill:#bebebe;fill-opacity:1;stroke:none;stroke-width:1px;stroke-linecap:butt;stroke-linejoin:miter;stroke-opacity:1"
     id="flowRoot4163">
    <path
       d="m 8.6472168,13.410269 -1.6973877,0 0,-4.6472168 0.016479,-0.7635498 0.027466,-0.8349609 Q 6.5708008,7.5875151 6.4060059,7.719351 L 5.4831543,8.4609282 4.6646729,7.4391997 7.2519531,5.3792631 l 1.3952637,0 0,8.0310059 z"
       style="fill:#bebebe;fill-opacity:1"
       id="path4176"
       inkscape:connector-curvature="0" />
  </g>
</svg>
