<?xml version="1.0" encoding="UTF-8" standalone="no"?>
<svg
   xmlns:dc="http://purl.org/dc/elements/1.1/"
   xmlns:cc="http://creativecommons.org/ns#"
   xmlns:rdf="http://www.w3.org/1999/02/22-rdf-syntax-ns#"
   xmlns:svg="http://www.w3.org/2000/svg"
   xmlns="http://www.w3.org/2000/svg"
   xmlns:xlink="http://www.w3.org/1999/xlink"
   style="display:inline"
   id="svg2408"
   height="96"
   width="96"
   version="1.0">
  <defs
     id="defs2410">
    <linearGradient
       id="linearGradient3668">
      <stop
         offset="0"
         style="stop-color:#dacaef;stop-opacity:1"
         id="stop3670" />
      <stop
         offset="1"
         style="stop-color:#ece3f7;stop-opacity:1"
         id="stop3672" />
    </linearGradient>
    <linearGradient
       id="linearGradient3712">
      <stop
         offset="0"
         style="stop-color:#5e4389;stop-opacity:1"
         id="stop3714" />
      <stop
         offset="1"
         style="stop-color:#8568b5;stop-opacity:1"
         id="stop3716" />
    </linearGradient>
    <linearGradient
       gradientTransform="scale(1.0058652,0.994169)"
       gradientUnits="userSpaceOnUse"
       id="ButtonShadow"
       y2="7.0165396"
       x2="45.447727"
       y1="92.539597"
       x1="45.447727">
      <stop
         offset="0"
         style="stop-color:#000000;stop-opacity:1"
         id="stop3750" />
      <stop
         offset="1"
         style="stop-color:#000000;stop-opacity:0.58823532"
         id="stop3752" />
    </linearGradient>
    <linearGradient
       id="linearGradient3700">
      <stop
         offset="0"
         style="stop-color:#ebebeb;stop-opacity:1"
         id="stop3702" />
      <stop
         offset="1"
         style="stop-color:#fafafa;stop-opacity:1"
         id="stop3704" />
    </linearGradient>
    <linearGradient
       gradientUnits="userSpaceOnUse"
       xlink:href="#linearGradient3700"
       id="linearGradient3706"
       y2="5.9877172"
       x2="48"
       y1="90"
       x1="48" />
    <filter
       id="filter3174"
       color-interpolation-filters="sRGB">
      <feGaussianBlur
         stdDeviation="1.71"
         id="feGaussianBlur3176" />
    </filter>
    <linearGradient
       gradientTransform="matrix(1.0058652,0,0,0.994169,100,0)"
       gradientUnits="userSpaceOnUse"
       id="ButtonShadow-0"
       y2="7.0165396"
       x2="45.447727"
       y1="92.539597"
       x1="45.447727">
      <stop
         offset="0"
         style="stop-color:#000000;stop-opacity:1"
         id="stop3750-8" />
      <stop
         offset="1"
         style="stop-color:#000000;stop-opacity:0.58823532"
         id="stop3752-5" />
    </linearGradient>
    <linearGradient
       gradientTransform="matrix(1.0238095,0,0,1.0119048,-1.1428571,-98.071429)"
       gradientUnits="userSpaceOnUse"
       xlink:href="#ButtonShadow-0"
       id="linearGradient3780"
       y2="90.238609"
       x2="32.251034"
       y1="6.1317081"
       x1="32.251034" />
    <linearGradient
       gradientTransform="matrix(1.0238095,0,0,1.0119048,-1.1428571,-98.071429)"
       gradientUnits="userSpaceOnUse"
       xlink:href="#ButtonShadow-0"
       id="linearGradient3772"
       y2="90.238609"
       x2="32.251034"
       y1="6.1317081"
       x1="32.251034" />
    <linearGradient
       gradientTransform="matrix(1.0238095,0,0,1.0119048,-1.1428571,-98.071429)"
       gradientUnits="userSpaceOnUse"
       xlink:href="#ButtonShadow-0"
       id="linearGradient3725"
       y2="90.238609"
       x2="32.251034"
       y1="6.1317081"
       x1="32.251034" />
    <linearGradient
       gradientTransform="translate(0,-97)"
       gradientUnits="userSpaceOnUse"
       xlink:href="#ButtonShadow-0"
       id="linearGradient3721"
       y2="90.238609"
       x2="32.251034"
       y1="6.1317081"
       x1="32.251034" />
    <linearGradient
       gradientTransform="matrix(1.0238095,0,0,1.0119048,-1.1428571,-98.071429)"
       gradientUnits="userSpaceOnUse"
       xlink:href="#ButtonShadow-0"
       id="linearGradient3760"
       y2="90.238609"
       x2="32.251034"
       y1="6.1317081"
       x1="32.251034" />
    <linearGradient
       id="linearGradient3737-1">
      <stop
         offset="0"
         style="stop-color:#ffffff;stop-opacity:1"
         id="stop3739-9" />
      <stop
         offset="1"
         style="stop-color:#ffffff;stop-opacity:0"
         id="stop3741-3" />
    </linearGradient>
    <radialGradient
       gradientTransform="matrix(1.1573129,0,0,0.99590774,-7.551021,0.1971319)"
       gradientUnits="userSpaceOnUse"
       xlink:href="#linearGradient3737-0"
       id="radialGradient2886"
       fy="90.171875"
       fx="48"
       r="42"
       cy="90.171875"
       cx="48" />
    <linearGradient
       id="linearGradient3737-0">
      <stop
         offset="0"
         style="stop-color:#ffffff;stop-opacity:1"
         id="stop3739-6" />
      <stop
         offset="1"
         style="stop-color:#ffffff;stop-opacity:0"
         id="stop3741-0" />
    </linearGradient>
    <linearGradient
       gradientUnits="userSpaceOnUse"
       xlink:href="#linearGradient3737-1"
       id="linearGradient3923"
       y2="63.893143"
       x2="36.357143"
       y1="6"
       x1="36.357143" />
    <linearGradient
       gradientUnits="userSpaceOnUse"
       xlink:href="#linearGradient3712"
       id="linearGradient3718"
       y2="18.129204"
       x2="48.810036"
       y1="78.173363"
       x1="48.810036" />
    <linearGradient
       gradientUnits="userSpaceOnUse"
       xlink:href="#linearGradient3668"
       id="linearGradient3674"
       y2="44.550011"
       x2="34.5369"
       y1="60.062107"
       x1="61.40464" />
    <linearGradient
       id="linearGradient3737-9">
      <stop
         offset="0"
         style="stop-color:#ffffff;stop-opacity:1"
         id="stop3739-2" />
      <stop
         offset="1"
         style="stop-color:#ffffff;stop-opacity:0"
         id="stop3741-1" />
    </linearGradient>
    <clipPath
       id="clipPath3613">
      <rect
         style="fill:#ffffff;fill-opacity:1;fill-rule:nonzero;stroke:none"
         id="rect3615"
         y="6"
         x="6"
         ry="6"
         rx="6"
         height="84"
         width="84" />
    </clipPath>
    <filter
       id="filter3794"
       color-interpolation-filters="sRGB"
       height="1.3839999"
       width="1.3839999"
       y="-0.192"
       x="-0.192">
      <feGaussianBlur
         stdDeviation="5.28"
         id="feGaussianBlur3796" />
    </filter>
    <linearGradient
       gradientUnits="userSpaceOnUse"
       xlink:href="#linearGradient3737-9"
       id="linearGradient3707"
       y2="138.66119"
       x2="48"
       y1="20.220806"
       x1="48" />
  </defs>
  <metadata
     id="metadata2413">
    <rdf:RDF>
      <cc:Work
         rdf:about="">
        <dc:format>image/svg+xml</dc:format>
        <dc:type
           rdf:resource="http://purl.org/dc/dcmitype/StillImage" />
        <dc:title></dc:title>
      </cc:Work>
    </rdf:RDF>
  </metadata>
  <g
     style="display:inline"
     id="layer7">
    <path
       d="M 12,95.03125 C 6.48891,95.03125 1.96875,90.51109 1.96875,85 l 0,-71 C 1.96875,8.4889098 6.48891,3.96875 12,3.96875 l 46,0 L 94.03125,40 l 0,45 c 0,5.51109 -4.52016,10.03125 -10.03125,10.03125 z"
       id="path3786"
       style="display:inline;opacity:0.07999998;fill:#000000;fill-opacity:1;fill-rule:nonzero;stroke:none" />
    <path
       style="display:inline;opacity:0.1;fill:#000000;fill-opacity:1;fill-rule:nonzero;stroke:none"
       id="path3778"
       d="M 12,94.03125 C 7.028367,94.03125 2.96875,89.971633 2.96875,85 l 0,-71 C 2.96875,9.0283671 7.0283671,4.96875 12,4.96875 l 46,0 L 93.03125,40 l 0,45 c 0,4.971633 -4.059617,9.03125 -9.03125,9.03125 z" />
    <path
       d="M 12,93 C 7.5908667,93 4,89.409133 4,85 L 4,14 C 4,9.5908667 7.5908667,6 12,6 l 46,0 34,34 0,45 c 0,4.409133 -3.590867,8 -8,8 z"
       id="path3770"
       style="display:inline;opacity:1;fill:#164e8e;fill-opacity:1;fill-rule:nonzero;stroke:none" />
  </g>
  <g
     id="layer5" />
  <g
     style="display:none"
     id="layer2">
    <rect
       style="opacity:0.9;fill:url(#ButtonShadow);fill-opacity:1;fill-rule:nonzero;stroke:none;filter:url(#filter3174)"
       id="rect3745"
       y="7"
       x="5"
       ry="6"
       rx="6"
       height="85"
       width="86" />
  </g>
  <g
     transform="matrix(1,0,0,1.013697,0,0.76727147)"
     style="display:inline"
     id="layer1" />
  <g
     id="layer3">
    <path
       id="rect4263"
       d="M 57.995739,5.9954837 91.997421,39.983051 57.871247,39.980672 Z"
       style="opacity:1;fill:#1a6cb2;fill-opacity:1" />
  </g>
  <g
     id="layer4">
    <path
       style="display:inline;opacity:0.3;fill:#000000;fill-opacity:1;fill-rule:nonzero;stroke:none"
       id="path3770-3"
       d="m 12.030853,92.9176 c -4.409133,0 -8,-3.59086 -8,-8 l 0,-9 87.999997,0 0,9 c 0,4.40914 -3.59086,8 -7.999997,8 z" />
    <path
       id="rect4263-5"
       d="m 66.20203,39.974967 25.797379,10e-4 -0.187492,22.640398 z"
       style="display:inline;opacity:0.3;fill:#000000;fill-opacity:1" />
  </g>
  <g
     id="layer8">
    <g
       id="text4413"
       style="font-style:normal;font-weight:normal;font-size:40px;line-height:125%;font-family:sans-serif;letter-spacing:0px;word-spacing:0px;display:inline;fill:#000000;fill-opacity:1;stroke:none;stroke-width:1px;stroke-linecap:butt;stroke-linejoin:miter;stroke-opacity:1">
      <path
         id="path4218"
         style="font-style:normal;font-variant:normal;font-weight:bold;font-stretch:normal;font-size:15px;font-family:sans-serif;-inkscape-font-specification:'sans-serif Bold';fill:#ffffff;fill-opacity:1"
         d="m 33.373535,78.98867 3.588867,0 2.490235,5.852051 2.504883,-5.852051 3.581542,0 0,10.935059 -2.666015,0 0,-7.998047 -2.519531,5.895996 -1.78711,0 -2.519531,-5.895996 0,7.998047 -2.67334,0 0,-10.935059 z" />
      <path
         id="path4220"
         style="font-style:normal;font-variant:normal;font-weight:bold;font-stretch:normal;font-size:15px;font-family:sans-serif;-inkscape-font-specification:'sans-serif Bold';fill:#ffffff;fill-opacity:1"
         d="m 48.314941,78.98867 4.680176,0 q 2.087403,0 3.200684,0.930176 1.120605,0.922852 1.120605,2.636719 0,1.721191 -1.120605,2.651367 -1.113281,0.922852 -3.200684,0.922852 l -1.860351,0 0,3.793945 -2.819825,0 0,-10.935059 z m 2.819825,2.043457 0,3.0542 1.560058,0 q 0.820313,0 1.26709,-0.395508 0.446777,-0.402832 0.446777,-1.135254 0,-0.732422 -0.446777,-1.12793 -0.446777,-0.395508 -1.26709,-0.395508 l -1.560058,0 z" />
      <path
         id="path4222"
         style="font-style:normal;font-variant:normal;font-weight:bold;font-stretch:normal;font-size:15px;font-family:sans-serif;-inkscape-font-specification:'sans-serif Bold';fill:#ffffff;fill-opacity:1"
         d="m 64.911621,84.027733 q 1.105957,0.285644 1.677246,0.996094 0.578613,0.703125 0.578613,1.794433 0,1.625977 -1.245117,2.475586 -1.245117,0.842285 -3.632812,0.842285 -0.842285,0 -1.691895,-0.13916 -0.842285,-0.131836 -1.669922,-0.402832 l 0,-2.175293 q 0.791016,0.395508 1.567383,0.600586 0.783692,0.197754 1.538086,0.197754 1.120606,0 1.713867,-0.388184 0.600586,-0.388183 0.600586,-1.113281 0,-0.74707 -0.615234,-1.12793 -0.60791,-0.388183 -1.801758,-0.388183 l -1.12793,0 0,-1.816406 1.186524,0 q 1.062012,0 1.582031,-0.32959 0.52002,-0.336914 0.52002,-1.018067 0,-0.629882 -0.505372,-0.974121 -0.505371,-0.344238 -1.428222,-0.344238 -0.681153,0 -1.376953,0.153809 -0.695801,0.153808 -1.384278,0.454101 l 0,-2.06543 q 0.834961,-0.234375 1.655274,-0.351562 0.820312,-0.117188 1.611328,-0.117188 2.131348,0 3.186035,0.703125 1.062012,0.695801 1.062012,2.102051 0,0.959473 -0.505371,1.574707 -0.505371,0.60791 -1.494141,0.856934 z" />
    </g>
    <path
       id="path11"
       d="m 38.994631,25.428559 -4.975872,-5.405094 c 0,0 0.113135,24.845606 0.11846,29.024068 -3.099725,-1.685814 -7.518217,-1.264359 -11.175366,1.386743 -4.731162,3.412443 -6.376216,9.231267 -3.643536,12.983559 2.746259,3.765901 8.78257,4.024178 13.513757,0.611755 3.725119,-2.705454 5.805202,-6.9472 5.057461,-10.427585 -0.02727,-0.108779 -0.06801,-0.217536 -0.09516,-0.326334 l 0.13979,-20.369684 c 0.496976,-1.475472 1.305145,-2.032863 4.698406,2.249512 3.909781,6.358271 -0.242773,15.791902 -0.242773,15.791902 0,0 0.671594,-0.594854 1.478642,-1.466117 2.948444,-3.183051 4.265252,-8.865938 2.531103,-14.261774 -1.492782,-3.215162 -6.223493,-8.506625 -7.404942,-9.790936 z"
       style="opacity:1;fill:#8aa6c6;fill-opacity:1;fill-rule:nonzero;stroke:none" />
  </g>
</svg>
