<?xml version="1.0" encoding="UTF-8" standalone="no"?>
<!-- Created with Inkscape (http://www.inkscape.org/) -->

<svg
   xmlns:svg="http://www.w3.org/2000/svg"
   xmlns="http://www.w3.org/2000/svg"
   xmlns:xlink="http://www.w3.org/1999/xlink"
   version="1.0"
   width="96"
   height="96"
   id="svg2408">
  <defs
     id="defs2410">
    <linearGradient
       id="linearGradient3179">
      <stop
         id="stop3181"
         style="stop-color:#000000;stop-opacity:0.56910568"
         offset="0" />
      <stop
         id="stop3187"
         style="stop-color:#000000;stop-opacity:0"
         offset="0.07017544" />
      <stop
         id="stop3194"
         style="stop-color:#750202;stop-opacity:0.09019608"
         offset="0.20271669" />
      <stop
         id="stop3200"
         style="stop-color:#e47b04;stop-opacity:0.13725491"
         offset="0.26648945" />
      <stop
         id="stop3190"
         style="stop-color:#ffc906;stop-opacity:0.18431373"
         offset="0.35024518" />
      <stop
         id="stop3198"
         style="stop-color:#b76403;stop-opacity:0.13725489"
         offset="0.43899667" />
      <stop
         id="stop3192"
         style="stop-color:#700000;stop-opacity:0.09019608"
         offset="0.49777371" />
      <stop
         id="stop3196"
         style="stop-color:#fda100;stop-opacity:0.19215687"
         offset="0.65896344" />
      <stop
         id="stop3183"
         style="stop-color:#7c0000;stop-opacity:0.60975611"
         offset="1" />
    </linearGradient>
    <filter
       color-interpolation-filters="sRGB"
       id="filter3208">
      <feGaussianBlur
         stdDeviation="1.31"
         id="feGaussianBlur3210" />
    </filter>
    <linearGradient
       id="linearGradient3348">
      <stop
         id="stop3350"
         style="stop-color:#e0c693;stop-opacity:1"
         offset="0" />
      <stop
         id="stop3356"
         style="stop-color:#c0984f;stop-opacity:1"
         offset="0.71691591" />
      <stop
         id="stop3352"
         style="stop-color:#a67315;stop-opacity:1"
         offset="1" />
    </linearGradient>
    <linearGradient
       id="linearGradient3187">
      <stop
         id="stop3189"
         style="stop-color:#c6953a;stop-opacity:1"
         offset="0" />
      <stop
         id="stop3191"
         style="stop-color:#dec18c;stop-opacity:1"
         offset="1" />
    </linearGradient>
    <linearGradient
       x1="45.447727"
       y1="80.471962"
       x2="45.447727"
       y2="7.0165396"
       id="ButtonShadow"
       gradientUnits="userSpaceOnUse"
       gradientTransform="matrix(1.0058652,0,0,0.994169,0,12)">
      <stop
         id="stop3750"
         style="stop-color:#000000;stop-opacity:1"
         offset="0" />
      <stop
         id="stop3752"
         style="stop-color:#000000;stop-opacity:0.58823532"
         offset="1" />
    </linearGradient>
    <linearGradient
       id="linearGradient3737">
      <stop
         id="stop3739"
         style="stop-color:#ffffff;stop-opacity:1"
         offset="0" />
      <stop
         id="stop3741"
         style="stop-color:#ffffff;stop-opacity:0"
         offset="1" />
    </linearGradient>
    <linearGradient
       x1="48"
       y1="78"
       x2="48"
       y2="5.9877172"
       id="linearGradient3706"
       xlink:href="#linearGradient3187"
       gradientUnits="userSpaceOnUse"
       gradientTransform="translate(0,12)" />
    <filter
       x="-0.29508197"
       y="-0.46153846"
       width="1.5901639"
       height="1.9230769"
       color-interpolation-filters="sRGB"
       id="filter3179">
      <feGaussianBlur
         id="feGaussianBlur3181"
         stdDeviation="6.6964288" />
    </filter>
    <filter
       color-interpolation-filters="sRGB"
       id="filter3174">
      <feGaussianBlur
         id="feGaussianBlur3176"
         stdDeviation="1.71" />
    </filter>
    <linearGradient
       x1="36.357143"
       y1="18"
       x2="36.357143"
       y2="73.994667"
       id="linearGradient3188"
       xlink:href="#linearGradient3737"
       gradientUnits="userSpaceOnUse" />
    <linearGradient
       x1="23.607143"
       y1="6"
       x2="23.607143"
       y2="58.466385"
       id="linearGradient4010"
       xlink:href="#linearGradient3737"
       gradientUnits="userSpaceOnUse" />
    <linearGradient
       x1="45.447727"
       y1="80.471962"
       x2="45.447727"
       y2="5.297224"
       id="linearGradient4018"
       xlink:href="#ButtonShadow"
       gradientUnits="userSpaceOnUse"
       gradientTransform="matrix(1.0058652,0,0,0.994169,0,12)" />
    <linearGradient
       x1="34.85965"
       y1="17.736111"
       x2="34.85965"
       y2="32.012737"
       id="linearGradient4023"
       xlink:href="#linearGradient3348"
       gradientUnits="userSpaceOnUse"
       gradientTransform="matrix(0.72,0,0,0.72,1.92,-5.52)" />
    <linearGradient
       x1="45.5"
       y1="0.48100731"
       x2="45.5"
       y2="96.024994"
       id="linearGradient2600"
       xlink:href="#linearGradient3179"
       gradientUnits="userSpaceOnUse"
       gradientTransform="matrix(0.7053571,0,0,0.7053571,34.928572,14.589286)" />
    <linearGradient
       id="linearGradient3737-5">
      <stop
         id="stop3739-0"
         style="stop-color:#ffffff;stop-opacity:1"
         offset="0" />
      <stop
         id="stop3741-4"
         style="stop-color:#ffffff;stop-opacity:0"
         offset="1" />
    </linearGradient>
    <radialGradient
       cx="48"
       cy="90.171875"
       r="42"
       fx="48"
       fy="90.171875"
       id="radialGradient3662"
       xlink:href="#linearGradient3737-5"
       gradientUnits="userSpaceOnUse"
       gradientTransform="matrix(1.1573129,0,0,0.99590774,-7.551021,0.197132)" />
    <linearGradient
       x1="26.5"
       y1="90.312759"
       x2="26.5"
       y2="6.9171443"
       id="linearGradient3671"
       xlink:href="#ButtonShadow-1"
       gradientUnits="userSpaceOnUse" />
    <linearGradient
       x1="45.447727"
       y1="80.471962"
       x2="45.447727"
       y2="7.0165396"
       id="ButtonShadow-1"
       gradientUnits="userSpaceOnUse"
       gradientTransform="matrix(1.0058652,0,0,0.994169,0,12)">
      <stop
         id="stop3750-7"
         style="stop-color:#000000;stop-opacity:1"
         offset="0" />
      <stop
         id="stop3752-2"
         style="stop-color:#000000;stop-opacity:0.58823532"
         offset="1" />
    </linearGradient>
    <linearGradient
       x1="26.5"
       y1="90.312759"
       x2="26.5"
       y2="6.9171443"
       id="linearGradient3692"
       xlink:href="#ButtonShadow-1"
       gradientUnits="userSpaceOnUse"
       gradientTransform="matrix(1.0277778,0,0,1.0127315,-1.333333,0.03087956)" />
    <linearGradient
       x1="26.5"
       y1="90.312759"
       x2="26.5"
       y2="6.9171443"
       id="linearGradient3701"
       xlink:href="#ButtonShadow-1"
       gradientUnits="userSpaceOnUse"
       gradientTransform="matrix(1.0277778,0,0,1.0127315,-1.333333,0.03087963)" />
    <linearGradient
       x1="26.5"
       y1="90.312759"
       x2="26.5"
       y2="6.9171443"
       id="linearGradient3709"
       xlink:href="#ButtonShadow-1"
       gradientUnits="userSpaceOnUse"
       gradientTransform="matrix(1.0277778,0,0,1.0127315,-1.333333,0.03087963)" />
    <linearGradient
       x1="26.5"
       y1="90.312759"
       x2="26.5"
       y2="6.9171443"
       id="linearGradient2946"
       xlink:href="#ButtonShadow-1"
       gradientUnits="userSpaceOnUse"
       gradientTransform="matrix(1.0277778,0,0,1.0127315,-1.333333,0.03087963)" />
  </defs>
  <g
     id="layer2"
     style="display:none">
    <path
       d="M 14.96875,8.8028918 C 13.32891,8.8028918 12,10.085142 12,11.677892 L 12,19 c -3.324,0 -7,2.676 -7,6 l 0,61 c 0,3.324 2.676,6 6,6 l 74,0 c 3.324,0 6,-2.676 6,-6 l 0,-61 c 0,-3.324 -3.747429,-6 -7.071429,-6 l 0,-0.134608 c 0,-2.389125 -1.97774,-4.3125 -4.4375,-4.3125 l -43.334821,0 -1.46875,-2.875 C 33.954141,10.253293 33.35859,8.8028918 31.71875,8.8028918 l -16.75,0 z"
       id="rect3745"
       style="opacity:0.9;fill:url(#linearGradient4018);fill-opacity:1;fill-rule:nonzero;stroke:none;filter:url(#filter3174)" />
  </g>
  <g
     id="layer6"
     style="display:inline">
    <path
       d="M 13.96875,4 C 10.667823,4 7.875,6.6931198 7.875,10.03125 l 0,7.0625 c -3.4360632,1.560695 -6,4.840711 -6,8.90625 l 0,59 c 0,5.561299 4.5637001,10.125 10.125,10.125 l 72,0 c 5.561299,0 10.125,-4.563701 10.125,-10.125 l 0,-59 c 0,-4.090756 -2.593768,-7.389362 -6.0625,-8.9375 -0.160383,-3.993445 -3.473555,-7.21875 -7.5,-7.21875 l -42.5,0 L 37.4375,8.625 C 37.135051,8.028958 36.735432,7.0401877 35.9375,6.0625 35.034313,4.9558457 33.554045,4 31.71875,4 l -17.75,0 z"
       transform="matrix(0.99728997,0,0,0.99862826,0.13008131,0.00548696)"
       id="path3715"
       style="opacity:0.07999998;fill:url(#linearGradient2946);fill-opacity:1;fill-rule:nonzero;stroke:none;display:inline" />
    <path
       d="m 13.96875,4.96875 c -2.783187,0 -5.125,2.2572798 -5.125,5.0625 l 0,7.3125 0,0.3125 c -3.4368535,1.290325 -6,4.439736 -6,8.34375 l 0,59 c 0,5.039918 4.1163315,9.15625 9.15625,9.15625 l 72,0 c 5.039918,0 9.15625,-4.116332 9.15625,-9.15625 l 0,-59 c 0,-3.904014 -2.563147,-7.053425 -6,-8.34375 l 0,-0.3125 c 0,-3.602656 -2.985437,-6.53125 -6.59375,-6.53125 l -43.09375,0 -0.875,-1.75 C 36.26366,8.4119848 35.884179,7.5098749 35.1875,6.65625 34.437476,5.737263 33.22926,4.96875 31.71875,4.96875 l -17.75,0 z"
       transform="matrix(0.99653979,0,0,0.99789769,0.16609001,0.04169586)"
       id="path3707"
       style="opacity:0.1;fill:url(#linearGradient3709);fill-opacity:1;fill-rule:nonzero;stroke:none;display:inline" />
    <path
       d="M 13.96875,6 C 11.736726,6 9.875,7.7965069 9.875,10.03125 l 0,7.3125 0,0.96875 c -3.4279042,0.950944 -6,3.959493 -6,7.6875 l 0,59 c 0,4.483833 3.6411665,8.125 8.125,8.125 l 72,0 c 4.483833,0 8.125,-3.641167 8.125,-8.125 l 0,-59 c 0,-3.728007 -2.572096,-6.736556 -6,-7.6875 l 0,-0.96875 c 0,-3.037808 -2.505776,-5.5 -5.5625,-5.5 l -43.71875,0 -1.15625,-2.3125 C 35.33448,8.8355471 34.9882,8.0255499 34.40625,7.3125 33.8243,6.5994501 32.873904,6 31.71875,6 l -17.75,0 z"
       transform="matrix(0.99716714,0,0,0.99856528,0.13597731,0.00860826)"
       id="path3698"
       style="opacity:0.2;fill:url(#linearGradient3701);fill-opacity:1;fill-rule:nonzero;stroke:none;display:inline" />
    <path
       d="M 13.96875,7.125 C 12.32891,7.125 11,8.4154163 11,10.03125 l 0,7.3125 0,1.75 C 7.602692,19.579354 5,22.464233 5,26 l 0,59 c 0,3.878 3.122,7 7,7 l 72,0 c 3.878,0 7,-3.122 7,-7 l 0,-59 c 0,-3.535767 -2.602692,-6.420646 -6,-6.90625 l 0,-1.75 c 0,-2.42375 -1.97774,-4.375 -4.4375,-4.375 l -44.40625,0 -1.46875,-2.9375 C 33.954141,8.5860044 33.35859,7.125 31.71875,7.125 l -17.75,0 z"
       id="path3679"
       style="opacity:0.3;fill:url(#linearGradient3692);fill-opacity:1;fill-rule:nonzero;stroke:none;display:inline" />
    <path
       d="M 14.875,7 C 13.27948,7 12,8.27948 12,9.875 L 12,17.09375 12,19 c -3.324,0 -6,2.676 -6,6 l 0,60 c 0,3.324 2.676,6 6,6 l 72,0 c 3.324,0 6,-2.676 6,-6 l 0,-60 c 0,-3.324 -2.676,-6 -6,-6 l 0,-1.90625 C 84,14.70047 82.08078,12.75 79.6875,12.75 l -43.21875,0 -1.4375,-2.875 C 34.317712,8.4479235 33.75177,7 32.15625,7 L 14.875,7 z"
       id="path2885"
       style="opacity:0.45;fill:url(#linearGradient3671);fill-opacity:1;fill-rule:nonzero;stroke:none;display:inline" />
  </g>
  <g
     id="layer3"
     style="display:inline">
    <path
       d="M 14.88,6 C 13.28448,6 12,7.28448 12,8.88 l 0,7.2 0,50.4 0,4.32 c 0,2.39328 1.92672,4.32 4.32,4.32 l 63.36,0 c 2.39328,0 4.32,-1.92672 4.32,-4.32 l 0,-54.72 c 0,-2.39328 -1.92672,-4.32 -4.32,-4.32 l -43.2,0 -1.44,-2.88 C 34.326462,7.4529235 33.75552,6 32.16,6 L 14.88,6 z"
       id="rect3325"
       style="fill:url(#linearGradient4023);fill-opacity:1;fill-rule:nonzero;stroke:none;display:inline" />
    <path
       d="M 14.875,6 C 13.27948,6 12,7.27948 12,8.875 l 0,7.21875 0,50.375 0,4.34375 c 0,2.393277 1.91922,4.3125 4.3125,4.3125 l 63.375,0 C 82.08078,75.124997 84,73.20578 84,70.8125 L 84,16.09375 C 84,13.70047 82.08078,11.75 79.6875,11.75 l -43.21875,0 -1.4375,-2.875 C 34.317711,7.4479234 33.75177,6 32.15625,6 L 14.875,6 z m 0,1.9375 17.28125,0 c 0.48716,0 0.660447,0.1126732 0.96875,0.5 0.308303,0.3873268 0.629671,1.0718434 1,1.8125 l 1.4375,2.875 c 0.173379,0.341986 0.522842,0.558894 0.90625,0.5625 l 43.21875,0 c 1.835408,0 3.28125,1.468154 3.28125,3.3125 l 0,54.71875 c 0,1.844346 -1.436902,3.281248 -3.28125,3.28125 l -63.375,0 c -1.844346,0 -3.28125,-1.436907 -3.28125,-3.28125 l 0,-4.34375 0,-50.375 0,-7.21875 c 0,-1.0465864 0.797164,-1.84375 1.84375,-1.84375 z"
       id="path3997"
       style="opacity:0.3;fill:url(#linearGradient4010);fill-opacity:1;fill-rule:nonzero;stroke:none;display:inline" />
  </g>
  <g
     id="layer1">
    <rect
       width="84"
       height="72"
       rx="6"
       ry="6"
       x="6"
       y="18"
       id="rect2419"
       style="fill:url(#linearGradient3706);fill-opacity:1;fill-rule:nonzero;stroke:none" />
    <path
       d="m 12,18 c -3.324,0 -6,2.676 -6,6 l 0,2 0,56 0,2 c 0,0.334721 0.04135,0.6507 0.09375,0.96875 0.0487,0.295596 0.09704,0.596915 0.1875,0.875 0.00988,0.03038 0.020892,0.0636 0.03125,0.09375 0.098865,0.287771 0.2348802,0.547452 0.375,0.8125 0.1445918,0.273507 0.3156161,0.535615 0.5,0.78125 0.1843839,0.245635 0.3737765,0.473472 0.59375,0.6875 0.439947,0.428056 0.94291,0.814526 1.5,1.09375 0.278545,0.139612 0.5734731,0.246947 0.875,0.34375 -0.2562018,-0.100222 -0.4867109,-0.236272 -0.71875,-0.375 -0.00741,-0.0044 -0.023866,0.0045 -0.03125,0 -0.031933,-0.0193 -0.062293,-0.04251 -0.09375,-0.0625 -0.120395,-0.0767 -0.2310226,-0.163513 -0.34375,-0.25 -0.1061728,-0.0808 -0.2132809,-0.161112 -0.3125,-0.25 C 8.4783201,88.557317 8.3087904,88.373362 8.15625,88.1875 8.0486711,88.057245 7.9378561,87.922215 7.84375,87.78125 7.818661,87.74287 7.805304,87.69538 7.78125,87.65625 7.716487,87.553218 7.6510225,87.451733 7.59375,87.34375 7.4927417,87.149044 7.3880752,86.928049 7.3125,86.71875 7.30454,86.69694 7.288911,86.6782 7.28125,86.65625 7.2494249,86.5643 7.2454455,86.469419 7.21875,86.375 7.1884177,86.268382 7.1483606,86.171969 7.125,86.0625 7.0521214,85.720988 7,85.364295 7,85 L 7,83 7,27 7,25 c 0,-2.781848 2.2181517,-5 5,-5 l 2,0 68,0 2,0 c 2.781848,0 5,2.218152 5,5 l 0,2 0,56 0,2 c 0,0.364295 -0.05212,0.720988 -0.125,1.0625 -0.04415,0.206893 -0.08838,0.397658 -0.15625,0.59375 -0.0077,0.02195 -0.0233,0.04069 -0.03125,0.0625 -0.06274,0.173739 -0.138383,0.367449 -0.21875,0.53125 -0.04158,0.0828 -0.07904,0.169954 -0.125,0.25 -0.0546,0.09721 -0.126774,0.18835 -0.1875,0.28125 -0.09411,0.140965 -0.204921,0.275995 -0.3125,0.40625 -0.143174,0.17445 -0.303141,0.346998 -0.46875,0.5 -0.01117,0.0102 -0.01998,0.02115 -0.03125,0.03125 -0.138386,0.125556 -0.285091,0.234436 -0.4375,0.34375 -0.102571,0.07315 -0.204318,0.153364 -0.3125,0.21875 -0.0074,0.0045 -0.02384,-0.0044 -0.03125,0 -0.232039,0.138728 -0.462548,0.274778 -0.71875,0.375 0.301527,-0.0968 0.596455,-0.204138 0.875,-0.34375 0.55709,-0.279224 1.060053,-0.665694 1.5,-1.09375 0.219973,-0.214028 0.409366,-0.441865 0.59375,-0.6875 0.184384,-0.245635 0.355408,-0.507743 0.5,-0.78125 0.14012,-0.265048 0.276135,-0.524729 0.375,-0.8125 0.01041,-0.03078 0.02133,-0.06274 0.03125,-0.09375 0.09046,-0.278085 0.1388,-0.579404 0.1875,-0.875 C 89.95865,84.6507 90,84.334721 90,84 l 0,-2 0,-56 0,-2 c 0,-3.324 -2.676,-6 -6,-6 l -72,0 z"
       id="rect3728"
       style="opacity:0.5;fill:url(#linearGradient3188);fill-opacity:1;fill-rule:nonzero;stroke:none" />
    <rect
       width="54.464287"
       height="34.82143"
       rx="9"
       ry="9"
       x="13.306199"
       y="13.887781"
       transform="matrix(1.0880985,0,0,1.1015333,-1.1722568,10.589928)"
       id="rect2399"
       style="opacity:0.15;fill:#fff9dc;fill-opacity:1;fill-rule:nonzero;stroke:none;filter:url(#filter3179)" />
    <path
       d="M 12,90 C 8.676,90 6,87.324 6,84 L 6,82 6,26 6,24 c 0,-0.334721 0.04135,-0.6507 0.09375,-0.96875 0.0487,-0.295596 0.09704,-0.596915 0.1875,-0.875 0.00988,-0.03038 0.020892,-0.0636 0.03125,-0.09375 0.098865,-0.287771 0.2348802,-0.547452 0.375,-0.8125 0.1445918,-0.273507 0.3156161,-0.535615 0.5,-0.78125 0.1843839,-0.245635 0.3737765,-0.473472 0.59375,-0.6875 0.439947,-0.428056 0.94291,-0.814526 1.5,-1.09375 0.278545,-0.139612 0.5734731,-0.246947 0.875,-0.34375 -0.2562018,0.100222 -0.4867109,0.236272 -0.71875,0.375 -0.00741,0.0044 -0.023866,-0.0045 -0.03125,0 -0.031933,0.0193 -0.062293,0.04251 -0.09375,0.0625 -0.120395,0.0767 -0.2310226,0.163513 -0.34375,0.25 -0.1061728,0.0808 -0.2132809,0.161112 -0.3125,0.25 -0.1779299,0.161433 -0.3474596,0.345388 -0.5,0.53125 -0.1075789,0.130255 -0.2183939,0.265285 -0.3125,0.40625 -0.025089,0.03838 -0.038446,0.08587 -0.0625,0.125 -0.064763,0.103032 -0.1302275,0.204517 -0.1875,0.3125 -0.1010083,0.194706 -0.2056748,0.415701 -0.28125,0.625 C 7.30454,21.30306 7.288911,21.3218 7.28125,21.34375 7.2494249,21.4357 7.2454455,21.530581 7.21875,21.625 7.1884177,21.731618 7.1483606,21.828031 7.125,21.9375 7.0521214,22.279012 7,22.635705 7,23 l 0,2 0,56 0,2 c 0,2.781848 2.2181517,5 5,5 l 2,0 68,0 2,0 c 2.781848,0 5,-2.218152 5,-5 l 0,-2 0,-56 0,-2 c 0,-0.364295 -0.05212,-0.720988 -0.125,-1.0625 -0.04415,-0.206893 -0.08838,-0.397658 -0.15625,-0.59375 -0.0077,-0.02195 -0.0233,-0.04069 -0.03125,-0.0625 -0.06274,-0.173739 -0.138383,-0.367449 -0.21875,-0.53125 -0.04158,-0.0828 -0.07904,-0.169954 -0.125,-0.25 -0.0546,-0.09721 -0.126774,-0.18835 -0.1875,-0.28125 -0.09411,-0.140965 -0.204921,-0.275995 -0.3125,-0.40625 -0.143174,-0.17445 -0.303141,-0.346998 -0.46875,-0.5 -0.01117,-0.0102 -0.01998,-0.02115 -0.03125,-0.03125 -0.138386,-0.125556 -0.285091,-0.234436 -0.4375,-0.34375 -0.102571,-0.07315 -0.204318,-0.153364 -0.3125,-0.21875 -0.0074,-0.0045 -0.02384,0.0044 -0.03125,0 -0.232039,-0.138728 -0.462548,-0.274778 -0.71875,-0.375 0.301527,0.0968 0.596455,0.204138 0.875,0.34375 0.55709,0.279224 1.060053,0.665694 1.5,1.09375 0.219973,0.214028 0.409366,0.441865 0.59375,0.6875 0.184384,0.245635 0.355408,0.507743 0.5,0.78125 0.14012,0.265048 0.276135,0.524729 0.375,0.8125 0.01041,0.03078 0.02133,0.06274 0.03125,0.09375 0.09046,0.278085 0.1388,0.579404 0.1875,0.875 C 89.95865,23.3493 90,23.665279 90,24 l 0,2 0,56 0,2 c 0,3.324 -2.676,6 -6,6 l -72,0 z"
       id="path3615"
       style="opacity:0.2;fill:url(#radialGradient3662);fill-opacity:1;fill-rule:nonzero;stroke:none" />
  </g>
  <g
     id="layer4">
    <path
       d="m 43.071429,3 c 1.662,0 3,1.338 3,3 l 0,71 0,20 17,-24 17,24 0,-3 0,-17 0,-71 c 0,-1.662 -1.338,-3 -3,-3 l -34,0 z"
       transform="matrix(0.7053571,0,0,0.7053571,23.592475,14.589286)"
       id="path3202"
       style="fill:#000000;fill-opacity:1;stroke:none;display:inline;filter:url(#filter3208)" />
    <path
       d="m 53,15 c -1.662,0 -3,1.338 -3,3 l 0,0.03125 30,0 L 80,18 c 0,-1.662 -1.338,-3 -3,-3 l -24,0 z"
       id="rect3196"
       style="fill:#550000;fill-opacity:1;stroke:none;display:inline" />
    <path
       d="m 53,15 c 1.662,0 3,1.338 3,3 l 0,5 0.09375,0 0,45.1875 0,14.125 12,-16.9375 11.96875,16.9375 0,-2.125 0,-12 L 80,18 c 0,-1.662 -1.338,-3 -3,-3 l -1.03125,0 -22,0 L 53,15 z"
       id="rect3204"
       style="fill:#aa0000;fill-opacity:1;stroke:none;display:inline" />
    <path
       d="m 54.889005,15 c 1.172304,0 3.116071,0.273584 3.116071,2.116071 L 58,75.609181 68.080358,62 l 9.880801,13.609181 0.0051,-58.49311 C 77.966235,15.943768 77.022467,15 75.850163,15 l -20.961158,0 z"
       id="path3173"
       style="fill:#ff8f00;fill-opacity:1;stroke:none;display:inline" />
    <path
       d="m 56.821429,15 c 1.172304,0 3.116072,0.139692 3.116072,2.116071 l 0,52.556336 L 68.08036,58.369308 76,69.672407 76,17.116071 C 76,15.943768 75.05623,15 73.88393,15 l -17.062501,0 z"
       id="path3175"
       style="fill:#d40000;fill-opacity:1;stroke:none;display:inline" />
    <path
       d="m 53,15 c 1.662,0 3,1.338 3,3 l 0,5 0.09375,0 0,45.1875 0,14.125 12,-16.9375 11.96875,16.9375 0,-2.125 0,-12 L 80,18 C 80,16.404025 78.75722,15.131797 77.1875,15.03125 77.11988,15.012462 77.06373,15.00275 77,15 L 53.96875,15 53,15 z"
       id="path3177"
       style="fill:url(#linearGradient2600);fill-opacity:1;stroke:none;display:inline" />
  </g>
</svg>
