<?xml version="1.0" encoding="UTF-8" standalone="no"?>
<svg
   xmlns:dc="http://purl.org/dc/elements/1.1/"
   xmlns:cc="http://creativecommons.org/ns#"
   xmlns:rdf="http://www.w3.org/1999/02/22-rdf-syntax-ns#"
   xmlns:svg="http://www.w3.org/2000/svg"
   xmlns="http://www.w3.org/2000/svg"
   xmlns:xlink="http://www.w3.org/1999/xlink"
   xmlns:sodipodi="http://sodipodi.sourceforge.net/DTD/sodipodi-0.dtd"
   xmlns:inkscape="http://www.inkscape.org/namespaces/inkscape"
   version="1.0"
   width="64"
   height="64"
   id="svg2408"
   style="display:inline"
   sodipodi:docname="application-vnd.flatpak.svg"
   inkscape:version="0.92.2 2405546, 2018-03-11">
  <sodipodi:namedview
     pagecolor="#ffffff"
     bordercolor="#666666"
     borderopacity="1"
     objecttolerance="10"
     gridtolerance="10"
     guidetolerance="10"
     inkscape:pageopacity="0"
     inkscape:pageshadow="2"
     inkscape:window-width="1920"
     inkscape:window-height="1010"
     id="namedview126"
     showgrid="false"
     inkscape:zoom="10.429825"
     inkscape:cx="34.591127"
     inkscape:cy="15.626781"
     inkscape:window-x="0"
     inkscape:window-y="32"
     inkscape:window-maximized="1"
     inkscape:current-layer="layer1" />
  <defs
     id="defs2410">
    <linearGradient
       id="linearGradient941">
      <stop
         offset="0"
         style="stop-color:#824b00;stop-opacity:1"
         id="stop934" />
      <stop
         offset="0.2"
         style="stop-color:#aa630a;stop-opacity:1"
         id="stop936" />
      <stop
         offset="1"
         style="stop-color:#a0620c;stop-opacity:0"
         id="stop938" />
    </linearGradient>
    <linearGradient
       id="linearGradient3329">
      <stop
         id="stop3331"
         style="stop-color:#b2822c;stop-opacity:1"
         offset="0" />
      <stop
         id="stop3333"
         style="stop-color:#cc9946;stop-opacity:1"
         offset="1" />
    </linearGradient>
    <linearGradient
       id="linearGradient3321">
      <stop
         id="stop3323"
         style="stop-color:#824b00;stop-opacity:1"
         offset="0" />
      <stop
         id="stop3325"
         style="stop-color:#aa630a;stop-opacity:1"
         offset="0.2" />
      <stop
         id="stop3327"
         style="stop-color:#a0620c;stop-opacity:0"
         offset="1" />
    </linearGradient>
    <linearGradient
       id="linearGradient3315">
      <stop
         id="stop3317"
         style="stop-color:#9c5915;stop-opacity:1"
         offset="0" />
      <stop
         id="stop3319"
         style="stop-color:#a06a11;stop-opacity:1"
         offset="1" />
    </linearGradient>
    <linearGradient
       id="linearGradient3604">
      <stop
         id="stop3606"
         style="stop-color:#2f2f2f;stop-opacity:1"
         offset="0" />
      <stop
         id="stop3608"
         style="stop-color:#ffffff;stop-opacity:1"
         offset="0.43731192" />
      <stop
         id="stop3610"
         style="stop-color:#979797;stop-opacity:1"
         offset="0.62138397" />
      <stop
         id="stop3612"
         style="stop-color:#505050;stop-opacity:1"
         offset="0.7723214" />
      <stop
         id="stop3614"
         style="stop-color:#e6e6e6;stop-opacity:1"
         offset="1" />
    </linearGradient>
    <linearGradient
       id="linearGradient3435">
      <stop
         id="stop3437"
         style="stop-color:#ededed;stop-opacity:1"
         offset="0" />
      <stop
         id="stop3439"
         style="stop-color:#b0b0b0;stop-opacity:1"
         offset="1" />
    </linearGradient>
    <linearGradient
       id="linearGradient3354">
      <stop
         id="stop3356"
         style="stop-color:#b4b4b4;stop-opacity:1"
         offset="0" />
      <stop
         id="stop3362"
         style="stop-color:#646464;stop-opacity:1"
         offset="0.20467032" />
      <stop
         id="stop3364"
         style="stop-color:#ffffff;stop-opacity:1"
         offset="0.49567693" />
      <stop
         id="stop3358"
         style="stop-color:#3c3c3c;stop-opacity:1"
         offset="1" />
    </linearGradient>
    <linearGradient
       id="linearGradient3290">
      <stop
         id="stop3292"
         style="stop-color:#ffffff;stop-opacity:1"
         offset="0" />
      <stop
         id="stop3304"
         style="stop-color:#8c8c8c;stop-opacity:1"
         offset="0.48973215" />
      <stop
         id="stop3306"
         style="stop-color:#cfcfcf;stop-opacity:1"
         offset="0.50044644" />
      <stop
         id="stop3298"
         style="stop-color:#ffffff;stop-opacity:1"
         offset="0.62276787" />
      <stop
         id="stop3300"
         style="stop-color:#c8c8c8;stop-opacity:1"
         offset="0.81696427" />
      <stop
         id="stop3294"
         style="stop-color:#505050;stop-opacity:1"
         offset="1" />
    </linearGradient>
    <linearGradient
       id="linearGradient3199">
      <stop
         id="stop3201"
         style="stop-color:#9a6820;stop-opacity:1"
         offset="0" />
      <stop
         id="stop3203"
         style="stop-color:#d6a151;stop-opacity:1"
         offset="1" />
    </linearGradient>
    <linearGradient
       x1="45.447727"
       y1="92.539597"
       x2="45.447727"
       y2="7.0165396"
       id="ButtonShadow"
       gradientUnits="userSpaceOnUse"
       gradientTransform="scale(1.0058652,0.994169)">
      <stop
         id="stop3750"
         style="stop-color:#000000;stop-opacity:1"
         offset="0" />
      <stop
         id="stop3752"
         style="stop-color:#000000;stop-opacity:0.58823532"
         offset="1" />
    </linearGradient>
    <linearGradient
       id="linearGradient3737">
      <stop
         id="stop3739"
         style="stop-color:#ffffff;stop-opacity:1"
         offset="0" />
      <stop
         id="stop3741"
         style="stop-color:#ffffff;stop-opacity:0"
         offset="1" />
    </linearGradient>
    <filter
       id="filter3174"
       style="color-interpolation-filters:sRGB">
      <feGaussianBlur
         id="feGaussianBlur3176"
         stdDeviation="1.71" />
    </filter>
    <linearGradient
       x1="19.035713"
       y1="74"
       x2="87.5"
       y2="27.428572"
       id="linearGradient3220"
       xlink:href="#linearGradient3737"
       gradientUnits="userSpaceOnUse" />
    <linearGradient
       x1="6"
       y1="73"
       x2="24"
       y2="73"
       id="linearGradient3234"
       xlink:href="#linearGradient3321"
       gradientUnits="userSpaceOnUse" />
    <linearGradient
       x1="6"
       y1="73"
       x2="24"
       y2="73"
       id="linearGradient3246"
       xlink:href="#linearGradient941"
       gradientUnits="userSpaceOnUse"
       gradientTransform="matrix(-1,0,0,1,96,0)" />
    <linearGradient
       x1="38.748035"
       y1="72.409348"
       x2="38.748035"
       y2="5.8331571"
       id="linearGradient3223"
       xlink:href="#linearGradient3199"
       gradientUnits="userSpaceOnUse" />
    <radialGradient
       cx="90"
       cy="90"
       r="42"
       fx="90"
       fy="90"
       id="radialGradient3229"
       xlink:href="#linearGradient3315"
       gradientUnits="userSpaceOnUse"
       gradientTransform="matrix(0,-1.085034,2,0,-90,187.65306)" />
    <clipPath
       id="clipPath3235">
      <path
         d="m 66,6 v 55 c 0,1.662 1.338,3 3,3 h 6 c 1.662,0 3,-1.338 3,-3 V 6 H 74 V 8 H 70 V 6 Z"
         id="path3237"
         style="fill:#ffffff;fill-opacity:1;fill-rule:nonzero;stroke:none" />
    </clipPath>
    <filter
       x="-0.16615385"
       y="-0.036610167"
       width="1.3323077"
       height="1.0732203"
       id="filter3243"
       style="color-interpolation-filters:sRGB">
      <feGaussianBlur
         id="feGaussianBlur3245"
         stdDeviation="0.9" />
    </filter>
    <linearGradient
       x1="68.75"
       y1="59"
       x2="75.25"
       y2="59"
       id="linearGradient3360"
       xlink:href="#linearGradient3354"
       gradientUnits="userSpaceOnUse"
       gradientTransform="translate(0,-1)" />
    <linearGradient
       x1="69"
       y1="54"
       x2="73"
       y2="54"
       id="linearGradient3372"
       xlink:href="#linearGradient3290"
       gradientUnits="userSpaceOnUse"
       gradientTransform="translate(0,-1)" />
    <linearGradient
       x1="63.484772"
       y1="64.163078"
       x2="79"
       y2="65"
       id="linearGradient3393"
       xlink:href="#linearGradient3329"
       gradientUnits="userSpaceOnUse" />
    <filter
       x="-0.16182838"
       y="-0.095353596"
       width="1.3236568"
       height="1.1907072"
       id="filter3429"
       style="color-interpolation-filters:sRGB">
      <feGaussianBlur
         id="feGaussianBlur3431"
         stdDeviation="0.53551312" />
    </filter>
    <linearGradient
       x1="68.96875"
       y1="17.5"
       x2="75.0625"
       y2="17.5"
       id="linearGradient3489"
       xlink:href="#linearGradient3435"
       gradientUnits="userSpaceOnUse"
       gradientTransform="matrix(-1,0,0,1,144.03125,-2)" />
    <linearGradient
       x1="68.02903"
       y1="17.763245"
       x2="75.97097"
       y2="17.763245"
       id="linearGradient3516"
       xlink:href="#linearGradient3435"
       gradientUnits="userSpaceOnUse"
       gradientTransform="translate(0,-2)" />
    <linearGradient
       x1="68.75"
       y1="59"
       x2="72.250572"
       y2="59"
       id="linearGradient3530"
       xlink:href="#linearGradient3354"
       gradientUnits="userSpaceOnUse"
       gradientTransform="matrix(1.1262691,0,0,1,-7.4019692,-49.5)" />
    <linearGradient
       x1="69"
       y1="54"
       x2="73"
       y2="54"
       id="linearGradient3602"
       xlink:href="#linearGradient3604"
       gradientUnits="userSpaceOnUse"
       gradientTransform="matrix(-1,0,0,1,144,-4)" />
    <clipPath
       id="clipPath3352">
      <path
         d="m 11.6875,64.375 c -2.216,0 -4,1.784 -4,4 v 33.6875 c 0,2.216 1.7839995,4 4,4 h 36.09375 c 2.216,0 4.000001,-1.784 4,-4 V 68.375 c 0,-2.216 -1.783999,-4 -4,-4 z M 18.5625,80 h 7.28125 v 1.90625 c -0.205135,0.352212 -0.433858,0.778115 -0.71875,1.28125 -0.273511,0.490577 -0.575773,1.015144 -0.90625,1.59375 -0.33049,0.578625 -0.697833,1.202249 -1.0625,1.84375 -0.364677,0.641516 -0.717686,1.295995 -1.09375,1.9375 -0.364676,0.641514 -0.748935,1.258652 -1.125,1.875 -0.376071,0.616355 -0.740476,1.177874 -1.09375,1.71875 H 26 V 94 h -8 v -1.96875 l 5,-8.71875 c 0.159539,-0.26414 0.289347,-0.498418 0.4375,-0.75 0.159538,-0.251561 0.329054,-0.529665 0.5,-0.78125 h -5.375 z M 28,80 h 1.8125 V 94 H 28 Z m 4,0 h 4.21875 c 0.440246,1.4e-5 0.847477,0.0122 1.25,0.0625 0.402509,0.03775 0.785371,0.130319 1.125,0.28125 0.339615,0.150957 0.64209,0.398204 0.90625,0.6875 0.276721,0.289321 0.498811,0.665695 0.6875,1.15625 0.125777,0.314476 0.230925,0.641715 0.28125,0.96875 0.05031,0.314475 0.06249,0.641717 0.0625,0.96875 -9e-6,0.528311 -0.06782,1.034206 -0.21875,1.5625 -0.138374,0.515731 -0.360463,0.997257 -0.6875,1.4375 -0.188688,0.264157 -0.466793,0.492735 -0.78125,0.65625 -0.314473,0.163528 -0.647806,0.274379 -1,0.375 -0.352208,0.08806 -0.697724,0.149768 -1.0625,0.1875 -0.352206,0.02516 -0.660776,0.06251 -0.9375,0.0625 H 33.8125 V 94 H 32 Z m 1.84375,1.78125 v 4.78125 h 2.09375 c 0.85534,7e-6 1.509425,-0.222477 2,-0.625 0.503137,-0.415086 0.781243,-1.020037 0.78125,-1.8125 -8e-6,-0.226406 -0.02477,-0.461073 -0.0625,-0.6875 -0.03774,-0.238983 -0.09946,-0.45498 -0.1875,-0.65625 C 38.380692,82.580003 38.263356,82.400955 38.125,82.25 37.986628,82.08649 37.826253,81.981733 37.625,81.90625 37.461472,81.843369 37.251566,81.812514 37,81.8125 36.761,81.79993 36.551095,81.78126 36.375,81.78125 Z"
         id="path3354"
         style="fill:#ffffff;fill-opacity:1;fill-rule:nonzero;stroke:none" />
    </clipPath>
    <linearGradient
       x1="45.447727"
       y1="92.539597"
       x2="45.447727"
       y2="7.0165396"
       id="ButtonShadow-0"
       gradientUnits="userSpaceOnUse"
       gradientTransform="matrix(1.0058652,0,0,0.994169,100,0)">
      <stop
         id="stop3750-8"
         style="stop-color:#000000;stop-opacity:1"
         offset="0" />
      <stop
         id="stop3752-5"
         style="stop-color:#000000;stop-opacity:0.58823532"
         offset="1" />
    </linearGradient>
    <linearGradient
       x1="32.251034"
       y1="6.1317081"
       x2="32.251034"
       y2="90.238609"
       id="linearGradient3780"
       xlink:href="#ButtonShadow-0"
       gradientUnits="userSpaceOnUse"
       gradientTransform="matrix(1.0238095,0,0,1.0119048,-1.1428571,-98.071429)" />
    <linearGradient
       x1="32.251034"
       y1="6.1317081"
       x2="32.251034"
       y2="90.238609"
       id="linearGradient3772"
       xlink:href="#ButtonShadow-0"
       gradientUnits="userSpaceOnUse"
       gradientTransform="matrix(1.0238095,0,0,1.0119048,-1.1428571,-98.071429)" />
    <linearGradient
       x1="32.251034"
       y1="6.1317081"
       x2="32.251034"
       y2="90.238609"
       id="linearGradient3725"
       xlink:href="#ButtonShadow-0"
       gradientUnits="userSpaceOnUse"
       gradientTransform="matrix(1.0238095,0,0,1.0119048,-1.1428571,-98.071429)" />
    <linearGradient
       x1="32.251034"
       y1="6.1317081"
       x2="32.251034"
       y2="90.238609"
       id="linearGradient3721"
       xlink:href="#ButtonShadow-0"
       gradientUnits="userSpaceOnUse"
       gradientTransform="translate(0,-97)" />
    <linearGradient
       x1="32.251034"
       y1="6.1317081"
       x2="32.251034"
       y2="90.238609"
       id="linearGradient3760"
       xlink:href="#ButtonShadow-0"
       gradientUnits="userSpaceOnUse"
       gradientTransform="matrix(1.0238095,0,0,1.0119048,-1.1428571,-98.071429)" />
    <linearGradient
       xlink:href="#linearGradient3290"
       id="linearGradient940"
       gradientUnits="userSpaceOnUse"
       gradientTransform="translate(0,-1)"
       x1="69"
       y1="54"
       x2="73"
       y2="54" />
    <linearGradient
       xlink:href="#linearGradient3604"
       id="linearGradient942"
       gradientUnits="userSpaceOnUse"
       gradientTransform="matrix(-1,0,0,1,144,-4)"
       x1="69"
       y1="54"
       x2="73"
       y2="54" />
  </defs>
  <metadata
     id="metadata2413">
    <rdf:RDF>
      <cc:Work
         rdf:about="">
        <dc:format>image/svg+xml</dc:format>
        <dc:type
           rdf:resource="http://purl.org/dc/dcmitype/StillImage" />
        <dc:title />
      </cc:Work>
    </rdf:RDF>
  </metadata>
  <g
     id="layer2"
     style="display:none"
     transform="translate(0,-32)">
    <rect
       width="86"
       height="85"
       rx="6"
       ry="6"
       x="5"
       y="7"
       id="rect3745"
       style="opacity:0.9;fill:url(#ButtonShadow);fill-opacity:1;fill-rule:nonzero;stroke:none;filter:url(#filter3174)" />
  </g>
  <g
     id="layer4"
     style="display:inline"
     transform="matrix(0.65888813,0,0,0.65888813,0.671564,0.41628775)">
    <path
       d="m 12,-95.03125 c -5.5110903,0 -10.03125,4.52016 -10.03125,10.03125 v 71 c 0,5.5110902 4.5201598,10.03125 10.03125,10.03125 h 72 c 5.51109,0 10.03125,-4.5201597 10.03125,-10.03125 v -71 c 0,-5.51109 -4.52016,-10.03125 -10.03125,-10.03125 z"
       transform="scale(1,-1)"
       id="path3786"
       style="display:inline;opacity:0.07999998;fill:url(#linearGradient3760);fill-opacity:1;fill-rule:nonzero;stroke:none" />
    <path
       d="m 12,-94.03125 c -4.971633,0 -9.03125,4.059617 -9.03125,9.03125 v 71 c 0,4.9716329 4.0596171,9.03125 9.03125,9.03125 h 72 c 4.971633,0 9.03125,-4.059617 9.03125,-9.03125 v -71 c 0,-4.971633 -4.059617,-9.03125 -9.03125,-9.03125 z"
       transform="scale(1,-1)"
       id="path3778"
       style="display:inline;opacity:0.1;fill:url(#linearGradient3780);fill-opacity:1;fill-rule:nonzero;stroke:none" />
    <path
       d="m 12,-93 c -4.4091333,0 -8,3.590867 -8,8 v 71 c 0,4.4091333 3.5908667,8 8,8 h 72 c 4.409133,0 8,-3.5908667 8,-8 v -71 c 0,-4.409133 -3.590867,-8 -8,-8 z"
       transform="scale(1,-1)"
       id="path3770"
       style="display:inline;opacity:0.2;fill:url(#linearGradient3772);fill-opacity:1;fill-rule:nonzero;stroke:none" />
    <rect
       width="86"
       height="85"
       rx="7"
       ry="7"
       x="5"
       y="-92"
       transform="scale(1,-1)"
       id="rect3723"
       style="display:inline;opacity:0.3;fill:url(#linearGradient3725);fill-opacity:1;fill-rule:nonzero;stroke:none" />
    <rect
       width="84"
       height="84"
       rx="6"
       ry="6"
       x="6"
       y="-91"
       transform="scale(1,-1)"
       id="rect3716"
       style="display:inline;opacity:0.45;fill:url(#linearGradient3721);fill-opacity:1;fill-rule:nonzero;stroke:none" />
  </g>
  <g
     id="layer1"
     style="display:inline"
     transform="matrix(0.65888813,0,0,0.65888813,0.671564,0.41628775)">
    <path
       d="M 12,6 C 8.676,6 6,8.676 6,12 v 72 c 0,3.324 2.676,6 6,6 h 72 c 3.324,0 6,-2.676 6,-6 V 12 C 90,8.676 87.324,6 84,6 H 75 V 9 H 69 V 6 Z"
       id="rect2419"
       style="fill:url(#radialGradient3229);fill-opacity:1;fill-rule:nonzero;stroke:none" />
    <path
       d="m 6,56 v 28 c 0,3.324 2.676,6 6,6 H 24 V 56 Z"
       id="rect3222"
       style="fill:url(#linearGradient3234);fill-opacity:1;fill-rule:nonzero;stroke:none" />
    <path
       d="m 90,56 v 28 c 0,3.324 -2.676,6 -6,6 H 72 V 56 Z"
       id="path3244"
       style="fill:url(#linearGradient3246);fill-opacity:1;fill-rule:nonzero;stroke:none" />
    <path
       d="m 5.9999997,81.999998 v 2 c 0,3.323997 2.6760006,6.000004 6.0000003,6.000004 h 72 c 3.324,0 6,-2.676007 6,-6.000004 v -2 c 0,3.323997 -2.676,6.000004 -6,6.000004 H 12 c -3.3239997,0 -6.0000003,-2.676007 -6.0000003,-6.000004 z"
       id="rect2412"
       style="opacity:0.3;fill:#502d16;fill-opacity:1;fill-rule:nonzero;stroke:none"
       inkscape:connector-curvature="0" />
    <path
       d="m 5.9999997,78.000004 v 1.999997 c 0,3.323997 2.6760006,5.999994 6.0000003,5.999994 h 72 c 3.324,0 6,-2.675997 6,-5.999994 v -1.999997 c 0,3.323997 -2.676,5.999994 -6,5.999994 H 12 c -3.3239997,0 -6.0000003,-2.675997 -6.0000003,-5.999994 z"
       id="path3187"
       style="opacity:0.3;fill:#ffffff;fill-opacity:1;fill-rule:nonzero;stroke:none"
       inkscape:connector-curvature="0" />
    <path
       d="m 5.9999997,76.000004 v 2 c 0,3.323997 2.6760006,5.999994 6.0000003,5.999994 h 72 c 3.324,0 6,-2.675997 6,-5.999994 v -2 c 0,3.323997 -2.676,5.999994 -6,5.999994 H 12 c -3.3239997,0 -6.0000003,-2.675997 -6.0000003,-5.999994 z"
       id="path3189"
       style="opacity:0.3;fill:#502d16;fill-opacity:1;fill-rule:nonzero;stroke:none"
       inkscape:connector-curvature="0" />
    <path
       d="m 5.9999997,72 v 1.999997 c 0,3.324007 2.6760006,6.000004 6.0000003,6.000004 h 72 c 3.324,0 6,-2.675997 6,-6.000004 V 72 c 0,3.323997 -2.676,6.000004 -6,6.000004 H 12 C 8.6760003,78.000004 5.9999997,75.323997 5.9999997,72 Z"
       id="path3191"
       style="opacity:0.3;fill:#ffffff;fill-opacity:1;fill-rule:nonzero;stroke:none"
       inkscape:connector-curvature="0" />
    <path
       d="m 5.9999997,70 v 2 c 0,3.323997 2.6760006,6.000004 6.0000003,6.000004 h 72 c 3.324,0 6,-2.676007 6,-6.000004 v -2 c 0,3.323997 -2.676,6.000004 -6,6.000004 H 12 C 8.6760003,76.000004 5.9999997,73.323997 5.9999997,70 Z"
       id="path3193"
       style="opacity:0.3;fill:#502d16;fill-opacity:1;fill-rule:nonzero;stroke:none"
       inkscape:connector-curvature="0" />
    <path
       d="M 12,6 C 8.676,6 6,8.676 6,12 v 56 c 0,3.324 2.676,6 6,6 h 72 c 3.324,0 6,-2.676 6,-6 V 12 C 90,8.676 87.324,6 84,6 H 75 V 9 H 69 V 6 Z"
       id="rect3195"
       style="fill:url(#linearGradient3223);fill-opacity:1;fill-rule:nonzero;stroke:none" />
    <path
       d="M 12,6 C 8.676,6 6,8.676 6,12 v 56 c 0,3.324 2.676,6 6,6 h 72 c 3.324,0 6,-2.676 6,-6 V 12 C 90,8.676 87.324,6 84,6 h -9 v 2 h 9 c 2.245802,0 4,1.7541975 4,4 v 56 c 0,2.245802 -1.754198,4 -4,4 H 12 C 9.7541975,72 8,70.245802 8,68 V 12 C 8,9.7541975 9.7541975,8 12,8 H 69 V 6 Z"
       id="rect3207"
       style="opacity:0.3;fill:#ffffff;fill-opacity:1;fill-rule:nonzero;stroke:none" />
  </g>
  <g
     id="layer3"
     transform="matrix(0.65888813,0,0,0.65888813,0.671564,0.41628775)">
    <path
       d="m 66,6 v 55 c 0,1.662 1.338,3 3,3 h 6 c 1.662,0 3,-1.338 3,-3 V 6 H 74 V 8 H 70 V 6 Z"
       id="rect3201"
       style="fill:#252525;fill-opacity:1;fill-rule:nonzero;stroke:none" />
    <rect
       width="4"
       height="49"
       x="70"
       y="8"
       id="rect3247"
       style="fill:#4d4d4d;fill-opacity:1;fill-rule:nonzero;stroke:none" />
    <rect
       width="6"
       height="4"
       rx="1"
       ry="1"
       x="69"
       y="56"
       id="rect3211"
       style="fill:url(#linearGradient3360);fill-opacity:1;fill-rule:nonzero;stroke:#000000;stroke-width:0.5;stroke-linecap:square;stroke-linejoin:miter;stroke-miterlimit:4;stroke-dasharray:none;stroke-dashoffset:0;stroke-opacity:0.56363639" />
    <path
       d="m 66,6 v 55 c 0,1.662 1.338,3 3,3 h 6 c 1.662,0 3,-1.338 3,-3 V 6 H 74 V 8 H 70 V 6 Z"
       clip-path="url(#clipPath3235)"
       id="path3231"
       style="fill:none;stroke:#000000;stroke-width:2;stroke-linecap:square;stroke-linejoin:miter;stroke-miterlimit:4;stroke-dasharray:none;stroke-dashoffset:0;stroke-opacity:1;filter:url(#filter3243)" />
    <path
       d="M 69.5,51 C 69.230226,51 69,51.217964 69,51.5 v 3 c 0,0.282036 0.230229,0.5 0.5,0.5 h 1 C 70.769774,55 71,54.782036 71,54.5 V 54 h 1.5 c 0.277,0 0.5,-0.223 0.5,-0.5 v -1 C 73,52.223 72.777,52 72.5,52 H 71 V 51.5 C 71,51.217964 70.769771,51 70.5,51 Z"
       id="rect3249"
       style="fill:url(#linearGradient940);fill-opacity:1;fill-rule:nonzero;stroke:#000000;stroke-width:0.5;stroke-linecap:square;stroke-linejoin:miter;stroke-miterlimit:4;stroke-dasharray:none;stroke-dashoffset:0;stroke-opacity:0.56363639" />
    <use
       transform="translate(0,-6)"
       id="use3308"
       x="0"
       y="0"
       width="96"
       height="96"
       xlink:href="#rect3249" />
    <use
       transform="translate(0,-6)"
       id="use3310"
       x="0"
       y="0"
       width="96"
       height="96"
       xlink:href="#use3308" />
    <use
       transform="translate(0,-6)"
       id="use3312"
       x="0"
       y="0"
       width="96"
       height="96"
       xlink:href="#use3310" />
    <use
       transform="translate(0,-6)"
       id="use3314"
       x="0"
       y="0"
       width="96"
       height="96"
       xlink:href="#use3312" />
    <use
       transform="translate(0,-6)"
       id="use3316"
       x="0"
       y="0"
       width="96"
       height="96"
       xlink:href="#use3314" />
    <use
       transform="translate(0,-6)"
       id="use3318"
       x="0"
       y="0"
       width="96"
       height="96"
       xlink:href="#use3316" />
    <use
       transform="translate(0,-6)"
       id="use3320"
       x="0"
       y="0"
       width="96"
       height="96"
       xlink:href="#use3318" />
    <path
       d="m 74.5,48 c 0.269774,0 0.5,0.217964 0.5,0.5 v 3 c 0,0.282036 -0.230229,0.5 -0.5,0.5 h -1 C 73.230226,52 73,51.782036 73,51.5 V 51 H 71.5 C 71.223,51 71,50.777 71,50.5 v -1 C 71,49.223 71.223,49 71.5,49 H 73 V 48.5 C 73,48.217964 73.230229,48 73.5,48 Z"
       id="path3322"
       style="fill:url(#linearGradient942);fill-opacity:1;fill-rule:nonzero;stroke:#000000;stroke-width:0.5;stroke-linecap:square;stroke-linejoin:miter;stroke-miterlimit:4;stroke-dasharray:none;stroke-dashoffset:0;stroke-opacity:0.56363639" />
    <use
       transform="translate(0,-6)"
       id="use3340"
       x="0"
       y="0"
       width="96"
       height="96"
       xlink:href="#path3322" />
    <use
       transform="translate(0,-6)"
       id="use3342"
       x="0"
       y="0"
       width="96"
       height="96"
       xlink:href="#use3340" />
    <use
       transform="translate(0,-6)"
       id="use3344"
       x="0"
       y="0"
       width="96"
       height="96"
       xlink:href="#use3342" />
    <use
       transform="translate(0,-6)"
       id="use3346"
       x="0"
       y="0"
       width="96"
       height="96"
       xlink:href="#use3344" />
    <use
       transform="translate(0,-6)"
       id="use3348"
       x="0"
       y="0"
       width="96"
       height="96"
       xlink:href="#use3346" />
    <use
       transform="translate(0,-6)"
       id="use3350"
       x="0"
       y="0"
       width="96"
       height="96"
       xlink:href="#use3348" />
    <path
       d="m 65,6 v 55 c 0,2.202295 1.797705,4 4,4 h 6 c 2.202295,0 4,-1.797705 4,-4 V 6 h -1 v 55 c 0,1.662 -1.338,3 -3,3 h -6 c -1.662,0 -3,-1.338 -3,-3 V 6 Z"
       id="path3376"
       style="fill:url(#linearGradient3393);fill-opacity:1;fill-rule:nonzero;stroke:none" />
    <path
       d="m 69.5,10.53125 c -1.027701,0 -1.96875,0.765203 -1.96875,1.8125 v 10.8125 C 67.531245,24.203555 68.449331,25 69.5,25 h 5 c 1.050668,0 1.96875,-0.796448 1.96875,-1.84375 v -10.8125 c -3e-6,-1.047297 -0.941051,-1.8125 -1.96875,-1.8125 z m 1.0625,9.0625 h 2.875 v 1.75 h -2.875 z"
       transform="translate(0,-2)"
       id="path3433"
       style="fill:#000000;fill-opacity:1;fill-rule:nonzero;stroke:#000000;stroke-width:0.49999994;stroke-linecap:square;stroke-linejoin:miter;stroke-miterlimit:4;stroke-dasharray:none;stroke-dashoffset:0;stroke-opacity:0.56363639;filter:url(#filter3429)" />
    <path
       d="M 69.229249,9.021415 C 68.54211,9.021415 68,9.503785 68,10.102963 L 67.9949,20.918451 C 67.994922,21.51763 68.537034,22 69.224171,22 h 5.583221 c 0.687139,0 1.229249,-0.48237 1.229249,-1.081549 l 0.0051,-10.815488 c 0,-0.599178 -0.542112,-1.081548 -1.229249,-1.081548 h -5.583221 z m 0.704303,7.949648 h 4.101324 v 3.118378 h -4.101324 z"
       id="rect3403"
       style="fill:url(#linearGradient3516);fill-opacity:1;fill-rule:nonzero;stroke:none" />
    <path
       d="m 74.5625,9.96875 c 0.277,0 0.5,0.223 0.5,0.5 v 10.0625 c 0,0.277 -0.223,0.5 -0.5,0.5 h -5.09375 c -0.277,0 -0.499999,-0.223 -0.5,-0.5 v -10.0625 c 0,-0.277 0.223001,-0.5 0.5,-0.5 z M 74.125,16.9375 H 70 v 3.125 h 4.125 z"
       id="rect3470"
       style="fill:url(#linearGradient3489);fill-opacity:1;fill-rule:nonzero;stroke:none" />
    <rect
       width="3.3788073"
       height="5"
       rx="0.56313455"
       ry="0.5"
       x="70.3106"
       y="7.5"
       id="rect3399"
       style="fill:url(#linearGradient3530);fill-opacity:1;fill-rule:nonzero;stroke:#000000;stroke-width:1;stroke-linecap:square;stroke-linejoin:miter;stroke-miterlimit:4;stroke-dasharray:none;stroke-dashoffset:0;stroke-opacity:0.56363639" />
    <rect
       width="4"
       height="1"
       x="69.984634"
       y="16"
       id="rect3518"
       style="opacity:0.3;fill:#000000;fill-opacity:1;fill-rule:nonzero;stroke:none" />
  </g>
  <g
     style="display:inline"
     id="g1060"
     transform="matrix(0.74372867,0,0,0.74372867,1.1497595,-3.9977196)">
    <g
       id="g1085"
       transform="matrix(1.0666667,0,0,1.0666667,-3.1382292,-2.3332103)">
      <path
         style="display:inline;opacity:1;fill:#dac5a6;fill-opacity:1;stroke:none;stroke-width:12.69229889;stroke-linejoin:round;stroke-miterlimit:4;stroke-dasharray:none;stroke-dashoffset:0;stroke-opacity:1;paint-order:stroke fill markers"
         d="m 15.358715,34.353155 18.602071,-12 v 16.33729 l -18.602071,12 z"
         id="rect1008-7"
         inkscape:connector-curvature="0"
         sodipodi:nodetypes="ccccc" />
      <path
         style="opacity:1;fill:#fffff9;fill-opacity:1;stroke:none;stroke-width:12.69229889;stroke-linejoin:round;stroke-miterlimit:4;stroke-dasharray:none;stroke-dashoffset:0;stroke-opacity:1;paint-order:stroke fill markers"
         d="m 15.358715,34.353155 18.602071,12 v 16.33729 l -18.602071,-12 z"
         id="rect1008"
         inkscape:connector-curvature="0"
         sodipodi:nodetypes="ccccc" />
      <path
         style="display:inline;opacity:1;fill:#fffff9;fill-opacity:1;stroke:none;stroke-width:12.69229889;stroke-linejoin:round;stroke-miterlimit:4;stroke-dasharray:none;stroke-dashoffset:0;stroke-opacity:1;paint-order:stroke fill markers"
         d="m 33.960786,22.353155 18.602071,12 v 16.33729 l -18.602071,-12 z"
         id="rect1008-3"
         inkscape:connector-curvature="0"
         sodipodi:nodetypes="ccccc" />
      <path
         style="display:inline;opacity:1;fill:#dac5a6;fill-opacity:1;stroke:none;stroke-width:12.69229889;stroke-linejoin:round;stroke-miterlimit:4;stroke-dasharray:none;stroke-dashoffset:0;stroke-opacity:1;paint-order:stroke fill markers"
         d="m 33.960786,46.353155 18.602071,-12 v 16.33729 l -18.602071,12 z"
         id="rect1008-7-5"
         inkscape:connector-curvature="0"
         sodipodi:nodetypes="ccccc" />
    </g>
  </g>
</svg>
