<?xml version="1.0" encoding="UTF-8" standalone="no"?>
<svg
   xmlns:dc="http://purl.org/dc/elements/1.1/"
   xmlns:cc="http://creativecommons.org/ns#"
   xmlns:rdf="http://www.w3.org/1999/02/22-rdf-syntax-ns#"
   xmlns:svg="http://www.w3.org/2000/svg"
   xmlns="http://www.w3.org/2000/svg"
   xmlns:xlink="http://www.w3.org/1999/xlink"
   xmlns:sodipodi="http://sodipodi.sourceforge.net/DTD/sodipodi-0.dtd"
   xmlns:inkscape="http://www.inkscape.org/namespaces/inkscape"
   version="1.1"
   id="svg8860"
   height="16px"
   width="16px"
   sodipodi:docname="server.svg"
   inkscape:version="0.92.1 r">
  <sodipodi:namedview
     pagecolor="#ffffff"
     bordercolor="#666666"
     borderopacity="1"
     objecttolerance="10"
     gridtolerance="10"
     guidetolerance="10"
     inkscape:pageopacity="0"
     inkscape:pageshadow="2"
     inkscape:window-width="1920"
     inkscape:window-height="1011"
     id="namedview151"
     showgrid="false"
     inkscape:zoom="29.5"
     inkscape:cx="8.3527527"
     inkscape:cy="10.515088"
     inkscape:window-x="0"
     inkscape:window-y="32"
     inkscape:window-maximized="1"
     inkscape:current-layer="layer3" />
  <defs
     id="defs8862">
    <linearGradient
       id="linearGradient5095">
      <stop
         id="stop5085"
         style="stop-color:#1a1a1a;stop-opacity:1"
         offset="0" />
      <stop
         id="stop5089"
         style="stop-color:#cdff01;stop-opacity:1"
         offset="0.50099206" />
      <stop
         id="stop5093"
         style="stop-color:#1a1a1a;stop-opacity:1"
         offset="1" />
    </linearGradient>
    <linearGradient
       y2="8.1721792"
       x2="11.350123"
       y1="0.66696572"
       x1="11.350123"
       gradientTransform="matrix(0.89189031,0,0,0.94046961,3.14398,5.346537)"
       gradientUnits="userSpaceOnUse"
       id="linearGradient10270-0"
       xlink:href="#linearGradient3454-2-5-0-3-8" />
    <linearGradient
       id="linearGradient3454-2-5-0-3-8">
      <stop
         id="stop3456-4-9-38-1-9"
         style="stop-color:#ffffff;stop-opacity:1"
         offset="0" />
      <stop
         id="stop3458-39-80-3-5-6"
         style="stop-color:#ffffff;stop-opacity:0.23529412"
         offset="0.0097359" />
      <stop
         id="stop3460-7-0-2-4-4"
         style="stop-color:#ffffff;stop-opacity:0.15686275"
         offset="0.99001008" />
      <stop
         id="stop3462-0-9-8-7-8"
         style="stop-color:#ffffff;stop-opacity:0.39215687"
         offset="1" />
    </linearGradient>
    <linearGradient
       y2="35.430561"
       x2="76.041"
       y1="49.372032"
       x1="76.041"
       gradientTransform="matrix(0.38156409,0,0,0.32896952,-18.24159,0.28216731)"
       gradientUnits="userSpaceOnUse"
       id="linearGradient10268-4"
       xlink:href="#linearGradient6129-963-697-142-998-580-273-44-2-2-2" />
    <linearGradient
       id="linearGradient6129-963-697-142-998-580-273-44-2-2-2">
      <stop
         offset="0"
         style="stop-color:#0a0a0a;stop-opacity:0.498"
         id="stop2661-01-6-2-4" />
      <stop
         offset="1"
         style="stop-color:#0a0a0a;stop-opacity:0"
         id="stop2663-64-5-5-3" />
    </linearGradient>
    <linearGradient
       y2="42.923553"
       x2="84.30883"
       y1="16.110577"
       x1="84.30883"
       gradientTransform="matrix(0.3101469,0,0,0.30591044,-15.362929,0.46943178)"
       gradientUnits="userSpaceOnUse"
       id="linearGradient10262-3"
       xlink:href="#linearGradient4632-0-6-4" />
    <linearGradient
       id="linearGradient4632-0-6-4-4">
      <stop
         id="stop4634-4-4-7-5"
         offset="0"
         style="stop-color:#aacb7d;stop-opacity:1;" />
      <stop
         id="stop4636-3-1-5-4"
         offset="1"
         style="stop-color:#709937;stop-opacity:1;" />
    </linearGradient>
    <linearGradient
       xlink:href="#linearGradient3104-8-8-97-4-6-11-5-5-4-4"
       id="linearGradient10473-4-0"
       gradientUnits="userSpaceOnUse"
       gradientTransform="matrix(0.31070043,0,0,0.27489387,20.17717,-0.10316268)"
       x1="-51.786404"
       y1="53.514328"
       x2="-51.786404"
       y2="2.0612748" />
    <linearGradient
       id="linearGradient3104-8-8-97-4-6-11-5-5-4-4">
      <stop
         id="stop3106-5-4-3-5-0-2-1-0-7-7"
         style="stop-color:#000000;stop-opacity:0.32173914"
         offset="0" />
      <stop
         id="stop3108-4-3-7-8-2-0-7-9-0-6"
         style="stop-color:#000000;stop-opacity:0.27826086"
         offset="1" />
    </linearGradient>
    <linearGradient
       id="linearGradient4346">
      <stop
         offset="0"
         style="stop-color:#cecece;stop-opacity:1"
         id="stop4348" />
      <stop
         offset="1"
         style="stop-color:#c4c4c4;stop-opacity:1"
         id="stop4350" />
    </linearGradient>
    <linearGradient
       xlink:href="#linearGradient4346"
       id="linearGradient8858"
       gradientUnits="userSpaceOnUse"
       gradientTransform="matrix(0.33333327,0,0,0.32971018,-17.44063,-0.64784268)"
       x1="62.988873"
       y1="11.645091"
       x2="62.988873"
       y2="15.385052" />
    <linearGradient
       xlink:href="#linearGradient4632-0-6-4"
       id="linearGradient5883"
       gradientUnits="userSpaceOnUse"
       gradientTransform="matrix(0.72580649,0,0,0.74516186,87.157262,-7.159588)"
       x1="-91"
       y1="43.999817"
       x2="-91"
       y2="119.05979" />
    <linearGradient
       id="linearGradient4632-0-6-4">
      <stop
         style="stop-color:#55a7f3;stop-opacity:1;"
         offset="0"
         id="stop4634-4-4-7" />
      <stop
         style="stop-color:#1374cf;stop-opacity:1;"
         offset="1"
         id="stop4636-3-1-5" />
    </linearGradient>
    <linearGradient
       xlink:href="#linearGradient9235"
       id="linearGradient5873"
       gradientUnits="userSpaceOnUse"
       gradientTransform="matrix(1.9348846,0,0,1.9211429,-138.39876,-32.205592)"
       x1="97.538795"
       y1="8.8103228"
       x2="97.538795"
       y2="44.260689" />
    <linearGradient
       id="linearGradient9235">
      <stop
         id="stop9237"
         style="stop-color:#ffffff;stop-opacity:1"
         offset="0" />
      <stop
         id="stop9239"
         style="stop-color:#ffffff;stop-opacity:0.23529412"
         offset="0.1088333" />
      <stop
         id="stop9241"
         style="stop-color:#ffffff;stop-opacity:0.15686275"
         offset="0.97909725" />
      <stop
         id="stop9243"
         style="stop-color:#ffffff;stop-opacity:0.39215687"
         offset="1" />
    </linearGradient>
    <linearGradient
       gradientTransform="matrix(0.19047617,0,0,0.19047617,8.0435813,41.128334)"
       gradientUnits="userSpaceOnUse"
       xlink:href="#linearGradient4941"
       id="linearGradient8096"
       y2="5.9877172"
       x2="48"
       y1="90"
       x1="48" />
    <linearGradient
       id="linearGradient4941">
      <stop
         offset="0"
         style="stop-color:#0a0a0a;stop-opacity:1"
         id="stop4943" />
      <stop
         offset="1"
         style="stop-color:#3c3c3c;stop-opacity:1"
         id="stop4945" />
    </linearGradient>
    <linearGradient
       gradientTransform="matrix(0.38095235,0,0,0.38095235,6.9007243,23.985477)"
       gradientUnits="userSpaceOnUse"
       xlink:href="#linearGradient3175"
       id="linearGradient8186"
       y2="48"
       x2="23.892857"
       y1="70.750648"
       x1="23.892857" />
    <linearGradient
       gradientTransform="scale(1.0058652,0.994169)"
       gradientUnits="userSpaceOnUse"
       id="linearGradient3175"
       y2="7.0165396"
       x2="45.447727"
       y1="92.539597"
       x1="45.447727">
      <stop
         offset="0"
         style="stop-color:#000000;stop-opacity:1"
         id="stop3177" />
      <stop
         offset="1"
         style="stop-color:#000000;stop-opacity:0"
         id="stop3179" />
    </linearGradient>
    <radialGradient
       gradientTransform="matrix(-0.41896884,0,0,-0.13293303,57.887319,47.46325)"
       gradientUnits="userSpaceOnUse"
       xlink:href="#linearGradient3265"
       id="radialGradient8206"
       fy="29.289238"
       fx="85.651291"
       r="21"
       cy="29.289238"
       cx="85.651291" />
    <linearGradient
       id="linearGradient3265">
      <stop
         offset="0"
         style="stop-color:#52acf6;stop-opacity:1"
         id="stop3267" />
      <stop
         offset="1"
         style="stop-color:#0060ff;stop-opacity:1"
         id="stop3269" />
    </linearGradient>
    <radialGradient
       gradientTransform="matrix(0.9608637,-4.7530864e-8,1.9945394e-8,0.4445363,-6.931412,51.245871)"
       gradientUnits="userSpaceOnUse"
       xlink:href="#linearGradient3737"
       id="radialGradient8208"
       fy="24.191805"
       fx="23.865416"
       r="27"
       cy="24.191805"
       cx="23.865416" />
    <linearGradient
       id="linearGradient3737">
      <stop
         offset="0"
         style="stop-color:#ffffff;stop-opacity:1"
         id="stop3739" />
      <stop
         offset="1"
         style="stop-color:#ffffff;stop-opacity:0"
         id="stop3741" />
    </linearGradient>
    <linearGradient
       gradientTransform="matrix(0.38095235,0,0,0.38095235,6.9007243,23.985477)"
       gradientUnits="userSpaceOnUse"
       xlink:href="#linearGradient3737"
       id="linearGradient8178"
       y2="74.355659"
       x2="22.428572"
       y1="48"
       x1="22.428572" />
    <filter
       id="filter6045"
       style="color-interpolation-filters:sRGB">
      <feGaussianBlur
         id="feGaussianBlur6047"
         stdDeviation="0.1903125" />
    </filter>
    <linearGradient
       gradientTransform="matrix(0.5294087,0,0,0.5263158,0.3530346,43.552631)"
       gradientUnits="userSpaceOnUse"
       xlink:href="#linearGradient5847"
       id="linearGradient8664"
       y2="82.013863"
       x2="38.473213"
       y1="72"
       x1="38.473213" />
    <linearGradient
       id="linearGradient5847">
      <stop
         offset="0"
         style="stop-color:#333333;stop-opacity:1"
         id="stop5849" />
      <stop
         offset="0.43065301"
         style="stop-color:#333333;stop-opacity:1"
         id="stop5857" />
      <stop
         offset="0.55547994"
         style="stop-color:#000000;stop-opacity:1"
         id="stop5855" />
      <stop
         offset="1"
         style="stop-color:#000000;stop-opacity:1"
         id="stop5851" />
    </linearGradient>
    <linearGradient
       gradientTransform="matrix(0.5294087,0,0,0.5263158,0.3530346,43.552631)"
       gradientUnits="userSpaceOnUse"
       xlink:href="#linearGradient5892"
       id="linearGradient8666"
       y2="83.043022"
       x2="39"
       y1="73"
       x1="39" />
    <linearGradient
       id="linearGradient5892">
      <stop
         offset="0"
         style="stop-color:#484848;stop-opacity:1"
         id="stop5894" />
      <stop
         offset="1"
         style="stop-color:#5d5d5d;stop-opacity:1"
         id="stop5896" />
    </linearGradient>
    <linearGradient
       gradientTransform="matrix(1,0,0,0.5263333,-15.000002,42.92621)"
       gradientUnits="userSpaceOnUse"
       xlink:href="#linearGradient3175"
       id="linearGradient8668"
       y2="76.5"
       x2="34"
       y1="76.5"
       x1="33" />
    <linearGradient
       gradientTransform="matrix(1,0,0,0.5263158,-57,42.927631)"
       gradientUnits="userSpaceOnUse"
       xlink:href="#linearGradient3175"
       id="linearGradient8670"
       y2="76.5"
       x2="34"
       y1="76.5"
       x1="33" />
    <filter
       id="filter6036"
       style="color-interpolation-filters:sRGB">
      <feGaussianBlur
         id="feGaussianBlur6038"
         stdDeviation="0.285" />
    </filter>
    <linearGradient
       gradientTransform="matrix(0.5294087,0,0,0.5263158,0.3530346,42.927631)"
       gradientUnits="userSpaceOnUse"
       xlink:href="#linearGradient5892"
       id="linearGradient8672"
       y2="42"
       x2="39"
       y1="72"
       x1="39" />
    <linearGradient
       gradientTransform="matrix(1,0,0,0.6666667,48.000005,-72)"
       gradientUnits="userSpaceOnUse"
       xlink:href="#linearGradient3175"
       id="linearGradient8674"
       y2="76.5"
       x2="34"
       y1="76.5"
       x1="33" />
    <linearGradient
       gradientUnits="userSpaceOnUse"
       xlink:href="#linearGradient6059"
       id="linearGradient8676"
       y2="48"
       x2="42.850594"
       y1="48"
       x1="36.925404" />
    <linearGradient
       id="linearGradient6059">
      <stop
         offset="0"
         style="stop-color:#000000;stop-opacity:0.42629483"
         id="stop6061" />
      <stop
         offset="1"
         style="stop-color:#ffffff;stop-opacity:0.31707317"
         id="stop6063" />
    </linearGradient>
    <linearGradient
       gradientUnits="userSpaceOnUse"
       xlink:href="#linearGradient6069"
       id="linearGradient8678"
       y2="48"
       x2="43.64254"
       y1="48"
       x1="34.139206" />
    <linearGradient
       id="linearGradient6069">
      <stop
         offset="0"
         style="stop-color:#ffffff;stop-opacity:1"
         id="stop6071" />
      <stop
         offset="1"
         style="stop-color:#7c7c7c;stop-opacity:1"
         id="stop6073" />
    </linearGradient>
    <linearGradient
       gradientTransform="matrix(0.5555555,0,0,0.5,-0.6666667,45.999997)"
       gradientUnits="userSpaceOnUse"
       xlink:href="#linearGradient3303"
       id="linearGradient8680"
       y2="31"
       x2="48"
       y1="31"
       x1="30" />
    <linearGradient
       id="linearGradient3303">
      <stop
         offset="0"
         style="stop-color:#1a1a1a;stop-opacity:1"
         id="stop3305" />
      <stop
         offset="0.25049603"
         style="stop-color:#1a1a1a;stop-opacity:1"
         id="stop3313" />
      <stop
         offset="0.50099206"
         style="stop-color:#cdff01;stop-opacity:1"
         id="stop3311" />
      <stop
         offset="0.75049603"
         style="stop-color:#1a1a1a;stop-opacity:1"
         id="stop3315" />
      <stop
         offset="1"
         style="stop-color:#1a1a1a;stop-opacity:1"
         id="stop3307" />
    </linearGradient>
    <linearGradient
       gradientTransform="matrix(0.5555555,0,0,0.5,-0.6666667,45.999997)"
       gradientUnits="userSpaceOnUse"
       xlink:href="#linearGradient3339"
       id="linearGradient8684"
       y2="32"
       x2="39"
       y1="34"
       x1="39" />
    <linearGradient
       id="linearGradient3339">
      <stop
         offset="0"
         style="stop-color:#4f4f4f;stop-opacity:1"
         id="stop3341" />
      <stop
         offset="1"
         style="stop-color:#a2a2a2;stop-opacity:1"
         id="stop3343" />
    </linearGradient>
    <filter
       id="filter4749"
       style="color-interpolation-filters:sRGB">
      <feGaussianBlur
         id="feGaussianBlur4747"
         stdDeviation="0.1903125" />
    </filter>
    <filter
       id="filter4789"
       style="color-interpolation-filters:sRGB">
      <feGaussianBlur
         id="feGaussianBlur4787"
         stdDeviation="0.285" />
    </filter>
    <filter
       id="filter4861"
       style="color-interpolation-filters:sRGB">
      <feGaussianBlur
         id="feGaussianBlur4859"
         stdDeviation="0.1903125" />
    </filter>
    <filter
       id="filter4901"
       style="color-interpolation-filters:sRGB">
      <feGaussianBlur
         id="feGaussianBlur4899"
         stdDeviation="0.285" />
    </filter>
    <filter
       id="filter4974"
       style="color-interpolation-filters:sRGB">
      <feGaussianBlur
         id="feGaussianBlur4972"
         stdDeviation="0.1903125" />
    </filter>
    <filter
       id="filter5014"
       style="color-interpolation-filters:sRGB">
      <feGaussianBlur
         id="feGaussianBlur5012"
         stdDeviation="0.285" />
    </filter>
    <filter
       id="filter5086"
       style="color-interpolation-filters:sRGB">
      <feGaussianBlur
         id="feGaussianBlur5084"
         stdDeviation="0.1903125" />
    </filter>
    <filter
       id="filter5126"
       style="color-interpolation-filters:sRGB">
      <feGaussianBlur
         id="feGaussianBlur5124"
         stdDeviation="0.285" />
    </filter>
    <linearGradient
       gradientTransform="matrix(0,0.29463346,-0.2946335,0,25.447894,44.693588)"
       gradientUnits="userSpaceOnUse"
       xlink:href="#linearGradient6151"
       id="linearGradient8714"
       y2="48"
       x2="43.210567"
       y1="48"
       x1="34.571178" />
    <linearGradient
       id="linearGradient6151">
      <stop
         offset="0"
         style="stop-color:#5b5b5b;stop-opacity:1"
         id="stop6153" />
      <stop
         offset="1"
         style="stop-color:#0a0a0a;stop-opacity:1"
         id="stop6155" />
    </linearGradient>
    <linearGradient
       gradientTransform="matrix(0,0.19413168,-0.19413168,0,20.6068,45.190626)"
       gradientUnits="userSpaceOnUse"
       xlink:href="#linearGradient6151"
       id="linearGradient8729"
       y2="48"
       x2="43.416267"
       y1="48"
       x1="34.365479" />
    <linearGradient
       y2="42"
       x2="39"
       y1="72"
       x1="39"
       gradientTransform="matrix(0.5294087,0,0,0.72742223,0.3530346,34.481788)"
       gradientUnits="userSpaceOnUse"
       id="linearGradient5050"
       xlink:href="#linearGradient5892" />
    <linearGradient
       y2="48"
       x2="42.850594"
       y1="48"
       x1="36.925404"
       gradientUnits="userSpaceOnUse"
       id="linearGradient5052"
       xlink:href="#linearGradient6059" />
    <linearGradient
       y2="48"
       x2="43.64254"
       y1="48"
       x1="34.139206"
       gradientUnits="userSpaceOnUse"
       id="linearGradient5054"
       xlink:href="#linearGradient6069" />
    <linearGradient
       y2="31"
       x2="48"
       y1="31"
       x1="30"
       gradientTransform="matrix(0.5555555,0,0,0.5,-0.6666667,45.999997)"
       gradientUnits="userSpaceOnUse"
       id="linearGradient5058"
       xlink:href="#linearGradient3303" />
    <linearGradient
       gradientTransform="matrix(0,0.19413168,-0.19413168,0,24.165777,40.246662)"
       gradientUnits="userSpaceOnUse"
       xlink:href="#linearGradient5095"
       id="linearGradient8729-3"
       y2="48"
       x2="43.416267"
       y1="48"
       x1="34.365479" />
    <linearGradient
       gradientTransform="matrix(0,0.19413168,-0.19413168,0,28.09798,40.263612)"
       gradientUnits="userSpaceOnUse"
       xlink:href="#linearGradient5095"
       id="linearGradient8729-3-3"
       y2="48"
       x2="43.416267"
       y1="48"
       x1="34.365479" />
    <linearGradient
       gradientTransform="matrix(0,0.19413168,-0.19413168,0,31.928488,40.29751)"
       gradientUnits="userSpaceOnUse"
       xlink:href="#linearGradient5095"
       id="linearGradient8729-3-1"
       y2="48"
       x2="43.416267"
       y1="48"
       x1="34.365479" />
  </defs>
  <metadata
     id="metadata8865">
    <rdf:RDF>
      <cc:Work
         rdf:about="">
        <dc:format>image/svg+xml</dc:format>
        <dc:type
           rdf:resource="http://purl.org/dc/dcmitype/StillImage" />
        <dc:title />
      </cc:Work>
    </rdf:RDF>
  </metadata>
  <g
     style="display:inline"
     id="layer3"
     transform="translate(-9.1694896,-42.288138)">
    <rect
       style="fill:url(#linearGradient8096);fill-opacity:1;fill-rule:nonzero;stroke:none;stroke-width:0.38095236"
       id="rect8039"
       y="42.271194"
       x="9.1864367"
       ry="2.2857141"
       rx="2.2857141"
       height="15.999998"
       width="15.999998" />
    <path
       style="fill:url(#linearGradient8186);fill-opacity:1;fill-rule:nonzero;stroke:none;stroke-width:0.38095236"
       id="rect8166"
       d="m 11.472152,42.27119 c -1.266285,0 -2.2857137,1.019428 -2.2857137,2.285714 v 11.42857 c 0,1.266286 1.0194287,2.285716 2.2857137,2.285714 h 11.428571 c 1.266286,0 2.285714,-1.019427 2.285714,-2.285714 v -11.42857 c 0,-1.266286 -1.019428,-2.285714 -2.285714,-2.285714 z m 0,0.380952 h 11.428571 c 1.058638,0 1.904762,0.846124 1.904762,1.904762 v 11.42857 c 0,1.05864 -0.846124,1.904762 -1.904762,1.904762 H 11.472152 c -1.058636,10e-7 -1.9047613,-0.846124 -1.9047613,-1.904762 v -11.42857 c 0,-1.058638 0.8461243,-1.904762 1.9047613,-1.904762 z" />
    <rect
       style="fill:url(#radialGradient8206);fill-opacity:1;fill-rule:nonzero;stroke:#2f2485;stroke-width:0.4523606;stroke-linecap:square;stroke-linejoin:miter;stroke-miterlimit:4;stroke-dasharray:none;stroke-dashoffset:0;stroke-opacity:1"
       id="rect8190"
       y="43.582878"
       x="14.106758"
       height="2.7099602"
       width="7.9285913" />
    <rect
       style="opacity:0.5;fill:#000000;fill-opacity:1;fill-rule:nonzero;stroke:none;stroke-width:0.38095236"
       id="rect8480"
       y="42.271187"
       x="12.995961"
       height="6.0952377"
       width="0.38095236" />
    <path
       style="opacity:0.4;fill:#000000;fill-opacity:1;fill-rule:nonzero;stroke:none;stroke-width:0.38095236"
       id="rect8482"
       d="m 24.04358,42.580714 v 5.785713 h 0.380952 V 42.854523 C 24.307689,42.749922 24.180349,42.659655 24.04358,42.580714 Z" />
    <path
       style="opacity:0.15;fill:url(#linearGradient8178);fill-opacity:1;fill-rule:nonzero;stroke:none;stroke-width:0.38095236"
       id="rect8160"
       d="m 11.472152,42.27119 c -1.266285,0 -2.2857137,1.019428 -2.2857137,2.285714 v 11.42857 c 0,1.13709 0.8201257,2.070428 1.9047617,2.25 C 10.220042,58.059048 9.5673907,57.292735 9.5673907,56.366427 V 44.937856 c 0,-1.058637 0.8461243,-1.904761 1.9047613,-1.904761 h 11.428571 c 1.058638,0 1.904762,0.846124 1.904762,1.904761 v 11.428571 c 0,0.926309 -0.652652,1.69262 -1.52381,1.869047 1.084636,-0.179573 1.904762,-1.112908 1.904762,-2.25 v -11.42857 c 0,-1.266286 -1.019428,-2.285714 -2.285714,-2.285714 z" />
    <g
       transform="matrix(0.38095235,0,0,0.38095235,6.9007243,23.985477)"
       id="g8638">
      <path
         style="fill:#999999;fill-opacity:1;fill-rule:nonzero;stroke:none"
         id="path8490"
         d="m 18.336386,69.391447 c -0.04391,0.308622 -0.210923,0.578128 -0.463232,0.740132 v 2.43421 c 0.291983,0.187479 0.479776,0.517136 0.479776,0.888158 1e-6,0.371023 -0.187793,0.70068 -0.479776,0.888158 v 2.434211 c 0.291983,0.187478 0.479776,0.517135 0.479776,0.888158 1e-6,0.371022 -0.187793,0.700679 -0.479776,0.888158 v 2.43421 c 0.291983,0.187479 0.479776,0.517136 0.479776,0.888158 1e-6,0.371023 -0.187793,0.70068 -0.479776,0.888158 v 1.052632 h 0.49632 c 0.07953,-0.502989 0.514104,-0.888158 1.042274,-0.888158 0.52817,0 0.962748,0.385169 1.042273,0.888158 h 2.150723 c 0.07953,-0.502989 0.514104,-0.888158 1.042273,-0.888158 0.275103,0 0.523066,0.10841 0.711393,0.279605 v -2.664474 c -0.188327,0.171195 -0.43629,0.279606 -0.711393,0.279606 -0.584466,0 -1.058817,-0.471579 -1.058817,-1.052632 1e-6,-0.581053 0.47435,-1.052632 1.058817,-1.052632 0.275103,0 0.523066,0.108411 0.711393,0.279606 v -2.664474 c -0.188327,0.171195 -0.43629,0.279605 -0.711393,0.279605 -0.584466,0 -1.058817,-0.471579 -1.058817,-1.052631 1e-6,-0.581053 0.47435,-1.052632 1.058817,-1.052632 0.275103,0 0.523066,0.108411 0.711393,0.279605 v -2.664473 c -0.188327,0.171194 -0.43629,0.279605 -0.711393,0.279605 -0.584466,0 -1.058817,-0.471579 -1.058817,-1.052632 1e-6,-0.581052 0.47435,-1.052631 1.058817,-1.052631 0.275103,0 0.523066,0.10841 0.711393,0.279605 v -1.184211 h -1.786754 c -0.07267,0.5108 -0.508517,0.904606 -1.042273,0.904606 -0.533756,0 -0.969606,-0.393806 -1.042274,-0.904606 z m 1.075362,0.904606 c 0.584468,0 1.058817,0.471579 1.058817,1.052631 1e-6,0.581053 -0.47435,1.052632 -1.058817,1.052632 -0.584467,0 -1.058818,-0.471579 -1.058818,-1.052632 1e-6,-0.581052 0.474351,-1.052631 1.058818,-1.052631 z m 2.117635,2.105263 c 0.584467,0 1.058817,0.471579 1.058817,1.052631 1e-6,0.581053 -0.47435,1.052632 -1.058817,1.052632 -0.584467,0 -1.058818,-0.471579 -1.058818,-1.052632 1e-6,-0.581052 0.47435,-1.052631 1.058818,-1.052631 z m -2.117635,2.105263 c 0.584468,0 1.058817,0.471579 1.058817,1.052632 1e-6,0.581052 -0.47435,1.052631 -1.058817,1.052631 -0.584467,0 -1.058818,-0.471579 -1.058818,-1.052631 1e-6,-0.581053 0.474351,-1.052632 1.058818,-1.052632 z m 2.117635,2.105263 c 0.584467,0 1.058817,0.471579 1.058817,1.052632 1e-6,0.581052 -0.47435,1.052631 -1.058817,1.052631 -0.584467,0 -1.058818,-0.471579 -1.058818,-1.052631 1e-6,-0.581053 0.47435,-1.052632 1.058818,-1.052632 z m -2.117635,2.105263 c 0.584468,0 1.058817,0.471579 1.058817,1.052632 1e-6,0.581053 -0.47435,1.052632 -1.058817,1.052632 -0.584467,0 -1.058818,-0.471579 -1.058818,-1.052632 1e-6,-0.581053 0.474351,-1.052632 1.058818,-1.052632 z m 2.117635,2.105264 c 0.584467,0 1.058817,0.471579 1.058817,1.052631 1e-6,0.581053 -0.47435,1.052632 -1.058817,1.052632 -0.584467,0 -1.058818,-0.471579 -1.058818,-1.052632 1e-6,-0.581052 0.47435,-1.052631 1.058818,-1.052631 z" />
      <path
         style="fill:none;stroke:#000000;stroke-width:1.89444184;stroke-linecap:square;stroke-linejoin:miter;stroke-miterlimit:4;stroke-dasharray:none;stroke-dashoffset:0;stroke-opacity:1;filter:url(#filter6045)"
         id="path8504"
         transform="matrix(0.5294087,0,0,0.5263158,0.3530346,42.927631)"
         d="M 34,68.96875 V 75 c 0,0.554 0.446,1 1,1 0.554,0 1,-0.446 1,-1 v -6.03125 z m 4,0 V 75 c 0,0.554 0.446,1 1,1 0.554,0 1,-0.446 1,-1 v -6.03125 z m 4,0 V 75 c 0,0.554 0.446,1 1,1 0.554,0 1,-0.446 1,-1 v -6.03125 z" />
      <rect
         style="fill:#000000;fill-opacity:1;fill-rule:nonzero;stroke:none"
         id="rect8506"
         y="62"
         x="16"
         height="26"
         width="10" />
      <rect
         style="fill:#000000;fill-opacity:1;fill-rule:nonzero;stroke:none"
         id="rect8512"
         y="81"
         x="17"
         height="1"
         width="1" />
      <path
         style="fill:none;stroke:#000000;stroke-width:1.89444184;stroke-linecap:square;stroke-linejoin:miter;stroke-miterlimit:4;stroke-dasharray:none;stroke-dashoffset:0;stroke-opacity:1;filter:url(#filter6036)"
         id="path8530"
         transform="matrix(0.5294087,0,0,0.5263158,0.3530346,42.927631)"
         d="M 34,51.5 V 67 c 0,0.554 0.446,1 1,1 0.554,0 1,-0.446 1,-1 V 53.28125 C 35.212562,52.833764 34.518369,52.238163 34,51.5 Z m 10,0 c -0.518369,0.738163 -1.212562,1.333764 -2,1.78125 V 67 c 0,0.554 0.446,1 1,1 0.554,0 1,-0.446 1,-1 z M 38,54 v 13 c 0,0.554 0.446,1 1,1 0.554,0 1,-0.446 1,-1 V 54 c -0.327491,0.05456 -0.657101,0.09375 -1,0.09375 -0.342899,0 -0.672508,-0.03919 -1,-0.09375 z" />
      <path
         style="opacity:0.7;fill:#000000;fill-opacity:1;fill-rule:nonzero;stroke:none"
         id="path8636"
         d="M 19,75.84375 V 82.5 c 0,0.277 0.223,0.5 0.5,0.5 0.277,0 0.5,-0.223 0.5,-0.5 v -6.25 c -0.358059,-0.08471 -0.682581,-0.238403 -1,-0.40625 z m 4,0 c -0.317419,0.167847 -0.641941,0.321539 -1,0.40625 v 6.25 c 0,0.277 0.223,0.5 0.5,0.5 0.277,0 0.5,-0.223 0.5,-0.5 z" />
      <path
         style="fill:url(#linearGradient5050);fill-opacity:1;fill-rule:nonzero;stroke:none;stroke-width:1.17562842"
         id="path8532"
         d="m 16.9375,65.03125 v 22.070445 h 8.125 V 65.03125 Z" />
      <path
         style="fill:url(#linearGradient5052);fill-opacity:1;fill-rule:nonzero;stroke:none"
         id="path8536"
         transform="matrix(0,0.7282863,-0.7325661,0,56.163147,39.867098)"
         d="m 42.850595,48 a 3.959722,3.959722 0 1 1 -7.919444,0 3.959722,3.959722 0 1 1 7.919444,0 z" />
      <path
         style="fill:#c6c6c6;fill-opacity:1;fill-rule:nonzero;stroke:#000000;stroke-width:2.14327526;stroke-linecap:square;stroke-linejoin:miter;stroke-miterlimit:4;stroke-dasharray:none;stroke-dashoffset:0;stroke-opacity:1"
         id="path8538"
         transform="matrix(0.4679446,0,0,0.4652108,2.8011987,45.860671)"
         d="m 42.850595,48 a 3.959722,3.959722 0 1 1 -7.919444,0 3.959722,3.959722 0 1 1 7.919444,0 z" />
      <path
         style="fill:none;stroke:url(#linearGradient5054);stroke-width:3.00058484;stroke-linecap:square;stroke-linejoin:miter;stroke-miterlimit:4;stroke-dasharray:none;stroke-dashoffset:0;stroke-opacity:1"
         id="path8542"
         transform="matrix(0,0.3322934,-0.3342462,0,37.043788,55.267608)"
         d="m 42.850595,48 a 3.959722,3.959722 0 1 1 -7.919444,0 3.959722,3.959722 0 1 1 7.919444,0 z" />
      <path
         style="opacity:0.42629484;fill:#000000;fill-opacity:1;fill-rule:nonzero;stroke:none"
         id="path8544"
         d="m 20.999974,67.401316 c -0.440612,0 -0.810657,0.367883 -0.810657,0.805921 0,0.365031 0.271486,0.665088 0.612129,0.756579 v 0.263158 h 0.363968 v -0.246711 c 0.362838,-0.07326 0.628672,-0.389744 0.628673,-0.773026 0,-0.438038 -0.353502,-0.805921 -0.794113,-0.805921 z m 0,0.263158 c 0.29739,0 0.529409,0.24711 0.529409,0.542763 -1e-6,0.295652 -0.232019,0.526316 -0.529409,0.526316 -0.29739,-10e-7 -0.545953,-0.230664 -0.545953,-0.526316 10e-7,-0.295653 0.248563,-0.542763 0.545953,-0.542763 z" />
      <rect
         style="fill:#000000;fill-opacity:1;fill-rule:nonzero;stroke:none"
         id="rect8498"
         y="62"
         x="16"
         height="0.50000006"
         width="10">
        <rect
           style="fill:url(#linearGradient5058);fill-opacity:1;fill-rule:nonzero;stroke:none"
           id="rect8496"
           y="61"
           x="16"
           height="1.0000001"
           width="10" />
      </rect>
    </g>
    <use
       xlink:href="#g8638"
       height="96"
       width="96"
       y="0"
       x="0"
       id="use8686"
       transform="translate(3.8095235)" />
    <use
       xlink:href="#use8686"
       height="96"
       width="96"
       y="0"
       x="0"
       id="use8688"
       transform="translate(3.8095235)" />
    <path
       style="fill:url(#linearGradient8714);fill-opacity:1;fill-rule:nonzero;stroke:#000000;stroke-width:0.38095236;stroke-linecap:square;stroke-linejoin:miter;stroke-miterlimit:4;stroke-dasharray:none;stroke-dashoffset:0;stroke-opacity:1"
       id="path8692"
       d="m 11.305486,57.318807 a 1.1666667,1.1666666 0 1 1 0,-2.333333 1.1666667,1.1666666 0 1 1 0,2.333333 z" />
    <path
       style="fill:url(#linearGradient8729);fill-opacity:1;fill-rule:nonzero;stroke:#000000;stroke-width:0.38095233;stroke-linecap:square;stroke-linejoin:miter;stroke-miterlimit:4;stroke-dasharray:none;stroke-dashoffset:0;stroke-opacity:1"
       id="path8704"
       d="m 11.288479,53.509284 a 0.7687075,0.7687075 0 1 1 0,-1.537415 0.7687075,0.7687075 0 1 1 0,1.537415 z" />
    <path
       style="display:inline;fill:#a0ff1a;fill-opacity:1;fill-rule:nonzero;stroke:#1a1a1a;stroke-width:0.1;stroke-linecap:square;stroke-linejoin:miter;stroke-miterlimit:4;stroke-dasharray:none;stroke-dashoffset:0;stroke-opacity:1"
       id="path8704-5-9"
       d="m 18.779659,48.58227 a 0.76870752,0.76870752 0 1 1 0,-1.537415 0.76870752,0.76870752 0 1 1 0,1.537415 z" />
    <path
       style="display:inline;fill:#a0ff1a;fill-opacity:1;fill-rule:nonzero;stroke:#1a1a1a;stroke-width:0.1;stroke-linecap:square;stroke-linejoin:miter;stroke-miterlimit:4;stroke-dasharray:none;stroke-dashoffset:0;stroke-opacity:1"
       id="path8704-5-9-6"
       d="m 22.472686,48.639138 a 0.76870752,0.76870752 0 1 1 0,-1.537415 0.76870752,0.76870752 0 1 1 0,1.537415 z" />
    <path
       style="display:inline;fill:#a0ff1a;fill-opacity:1;fill-rule:nonzero;stroke:#1a1a1a;stroke-width:0.1;stroke-linecap:square;stroke-linejoin:miter;stroke-miterlimit:4;stroke-dasharray:none;stroke-dashoffset:0;stroke-opacity:1"
       id="path8704-5-9-0"
       d="m 14.922223,48.631569 a 0.76870752,0.76870752 0 1 1 0,-1.537415 0.76870752,0.76870752 0 1 1 0,1.537415 z" />
  </g>
</svg>
