<?xml version="1.0" encoding="UTF-8" standalone="no"?>
<svg
   xmlns:dc="http://purl.org/dc/elements/1.1/"
   xmlns:cc="http://creativecommons.org/ns#"
   xmlns:rdf="http://www.w3.org/1999/02/22-rdf-syntax-ns#"
   xmlns:svg="http://www.w3.org/2000/svg"
   xmlns="http://www.w3.org/2000/svg"
   xmlns:xlink="http://www.w3.org/1999/xlink"
   version="1.0"
   width="24"
   height="24"
   id="svg2408"
   style="display:inline">
  <defs
     id="defs2410">
    <linearGradient
       id="linearGradient1523">
      <stop
         offset="0"
         style="stop-color:#818181;stop-opacity:1"
         id="stop1517" />
      <stop
         offset="0.2"
         style="stop-color:#f9f9f9;stop-opacity:1"
         id="stop1519" />
      <stop
         offset="1"
         style="stop-color:#dcdcdc;stop-opacity:0"
         id="stop1521" />
    </linearGradient>
    <linearGradient
       id="linearGradient3329">
      <stop
         id="stop3331"
         style="stop-color:#a2a2a2;stop-opacity:1"
         offset="0" />
      <stop
         id="stop3333"
         style="stop-color:#ffffff;stop-opacity:1"
         offset="1" />
    </linearGradient>
    <linearGradient
       id="linearGradient3321">
      <stop
         id="stop3323"
         style="stop-color:#818181;stop-opacity:1"
         offset="0" />
      <stop
         id="stop3325"
         style="stop-color:#f9f9f9;stop-opacity:1"
         offset="0.2" />
      <stop
         id="stop3327"
         style="stop-color:#dcdcdc;stop-opacity:0"
         offset="1" />
    </linearGradient>
    <linearGradient
       id="linearGradient3315">
      <stop
         id="stop3317"
         style="stop-color:#b4b4b4;stop-opacity:1"
         offset="0" />
      <stop
         id="stop3319"
         style="stop-color:#dcdcdc;stop-opacity:1"
         offset="1" />
    </linearGradient>
    <linearGradient
       id="linearGradient3604">
      <stop
         id="stop3606"
         style="stop-color:#2f2f2f;stop-opacity:1"
         offset="0" />
      <stop
         id="stop3608"
         style="stop-color:#ffffff;stop-opacity:1"
         offset="0.43731192" />
      <stop
         id="stop3610"
         style="stop-color:#979797;stop-opacity:1"
         offset="0.62138397" />
      <stop
         id="stop3612"
         style="stop-color:#505050;stop-opacity:1"
         offset="0.7723214" />
      <stop
         id="stop3614"
         style="stop-color:#e6e6e6;stop-opacity:1"
         offset="1" />
    </linearGradient>
    <linearGradient
       id="linearGradient3435">
      <stop
         id="stop3437"
         style="stop-color:#ededed;stop-opacity:1"
         offset="0" />
      <stop
         id="stop3439"
         style="stop-color:#b0b0b0;stop-opacity:1"
         offset="1" />
    </linearGradient>
    <linearGradient
       id="linearGradient3354">
      <stop
         id="stop3356"
         style="stop-color:#b4b4b4;stop-opacity:1"
         offset="0" />
      <stop
         id="stop3362"
         style="stop-color:#646464;stop-opacity:1"
         offset="0.20467032" />
      <stop
         id="stop3364"
         style="stop-color:#ffffff;stop-opacity:1"
         offset="0.49567693" />
      <stop
         id="stop3358"
         style="stop-color:#3c3c3c;stop-opacity:1"
         offset="1" />
    </linearGradient>
    <linearGradient
       id="linearGradient3290">
      <stop
         id="stop3292"
         style="stop-color:#ffffff;stop-opacity:1"
         offset="0" />
      <stop
         id="stop3304"
         style="stop-color:#8c8c8c;stop-opacity:1"
         offset="0.48973215" />
      <stop
         id="stop3306"
         style="stop-color:#cfcfcf;stop-opacity:1"
         offset="0.50044644" />
      <stop
         id="stop3298"
         style="stop-color:#ffffff;stop-opacity:1"
         offset="0.62276787" />
      <stop
         id="stop3300"
         style="stop-color:#c8c8c8;stop-opacity:1"
         offset="0.81696427" />
      <stop
         id="stop3294"
         style="stop-color:#505050;stop-opacity:1"
         offset="1" />
    </linearGradient>
    <linearGradient
       id="linearGradient3199">
      <stop
         id="stop3201"
         style="stop-color:#dcdcdc;stop-opacity:1"
         offset="0" />
      <stop
         id="stop3203"
         style="stop-color:#fafafa;stop-opacity:1"
         offset="1" />
    </linearGradient>
    <linearGradient
       x1="45.447727"
       y1="92.539597"
       x2="45.447727"
       y2="7.0165396"
       id="ButtonShadow"
       gradientUnits="userSpaceOnUse"
       gradientTransform="scale(1.0058652,0.994169)">
      <stop
         id="stop3750"
         style="stop-color:#000000;stop-opacity:1"
         offset="0" />
      <stop
         id="stop3752"
         style="stop-color:#000000;stop-opacity:0.58823532"
         offset="1" />
    </linearGradient>
    <linearGradient
       id="linearGradient3737">
      <stop
         id="stop3739"
         style="stop-color:#ffffff;stop-opacity:1"
         offset="0" />
      <stop
         id="stop3741"
         style="stop-color:#ffffff;stop-opacity:0"
         offset="1" />
    </linearGradient>
    <filter
       id="filter3174"
       style="color-interpolation-filters:sRGB">
      <feGaussianBlur
         id="feGaussianBlur3176"
         stdDeviation="1.71" />
    </filter>
    <linearGradient
       x1="19.035713"
       y1="74"
       x2="87.5"
       y2="27.428572"
       id="linearGradient3220"
       xlink:href="#linearGradient3737"
       gradientUnits="userSpaceOnUse"
       gradientTransform="translate(4.184659,-2.0923298)" />
    <linearGradient
       x1="6"
       y1="73"
       x2="24"
       y2="73"
       id="linearGradient3234"
       xlink:href="#linearGradient1523"
       gradientUnits="userSpaceOnUse"
       gradientTransform="translate(4.184659,-2.0923298)" />
    <linearGradient
       x1="6"
       y1="73"
       x2="24"
       y2="73"
       id="linearGradient3246"
       xlink:href="#linearGradient3321"
       gradientUnits="userSpaceOnUse"
       gradientTransform="matrix(-1,0,0,1,100.18466,-2.0923298)" />
    <linearGradient
       x1="38.748035"
       y1="72.409348"
       x2="38.748035"
       y2="5.8331571"
       id="linearGradient3223"
       xlink:href="#linearGradient3199"
       gradientUnits="userSpaceOnUse"
       gradientTransform="translate(4.184659,-2.0923298)" />
    <radialGradient
       cx="90"
       cy="90"
       r="42"
       fx="90"
       fy="90"
       id="radialGradient3229"
       xlink:href="#linearGradient3315"
       gradientUnits="userSpaceOnUse"
       gradientTransform="matrix(0,-1.085034,2,0,-85.815341,185.56073)" />
    <clipPath
       id="clipPath3235">
      <path
         d="m 66,6 v 55 c 0,1.662 1.338,3 3,3 h 6 c 1.662,0 3,-1.338 3,-3 V 6 H 74 V 8 H 70 V 6 Z"
         id="path3237"
         style="fill:#ffffff;fill-opacity:1;fill-rule:nonzero;stroke:none" />
    </clipPath>
    <filter
       x="-0.16615385"
       y="-0.036610167"
       width="1.3323077"
       height="1.0732203"
       id="filter3243"
       style="color-interpolation-filters:sRGB">
      <feGaussianBlur
         id="feGaussianBlur3245"
         stdDeviation="0.9" />
    </filter>
    <linearGradient
       x1="68.75"
       y1="59"
       x2="75.25"
       y2="59"
       id="linearGradient3360"
       xlink:href="#linearGradient3354"
       gradientUnits="userSpaceOnUse"
       gradientTransform="matrix(0.49408989,0,0,0.70361229,0.42009484,36.415006)" />
    <linearGradient
       x1="69"
       y1="54"
       x2="73"
       y2="54"
       id="linearGradient3372"
       xlink:href="#linearGradient3290"
       gradientUnits="userSpaceOnUse"
       gradientTransform="translate(0,-1)" />
    <linearGradient
       x1="63.484772"
       y1="64.163078"
       x2="79"
       y2="65"
       id="linearGradient3393"
       xlink:href="#linearGradient3329"
       gradientUnits="userSpaceOnUse"
       gradientTransform="matrix(0.50000003,0,0,0.50000003,-0.00543479,48.505436)" />
    <filter
       x="-0.16182838"
       y="-0.095353596"
       width="1.3236568"
       height="1.1907072"
       id="filter3429"
       style="color-interpolation-filters:sRGB">
      <feGaussianBlur
         id="feGaussianBlur3431"
         stdDeviation="0.53551312" />
    </filter>
    <linearGradient
       x1="68.96875"
       y1="17.5"
       x2="75.0625"
       y2="17.5"
       id="linearGradient3489"
       xlink:href="#linearGradient3435"
       gradientUnits="userSpaceOnUse"
       gradientTransform="matrix(-0.43495657,0,0,0.5232543,67.317063,47.346436)" />
    <linearGradient
       x1="68.02903"
       y1="17.763245"
       x2="75.97097"
       y2="17.763245"
       id="linearGradient3516"
       xlink:href="#linearGradient3435"
       gradientUnits="userSpaceOnUse"
       gradientTransform="matrix(0.43495657,0,0,0.5232543,4.669721,47.346436)" />
    <linearGradient
       x1="68.75"
       y1="59"
       x2="72.250572"
       y2="59"
       id="linearGradient3530"
       xlink:href="#linearGradient3354"
       gradientUnits="userSpaceOnUse"
       gradientTransform="matrix(0.56313458,0,0,0.50000003,-3.7064196,22.997622)" />
    <linearGradient
       x1="69"
       y1="54"
       x2="73"
       y2="54"
       id="linearGradient3602"
       xlink:href="#linearGradient3604"
       gradientUnits="userSpaceOnUse"
       gradientTransform="matrix(-1,0,0,1,144,-4)" />
    <clipPath
       id="clipPath3352">
      <path
         d="m 11.6875,64.375 c -2.216,0 -4,1.784 -4,4 v 33.6875 c 0,2.216 1.7839995,4 4,4 h 36.09375 c 2.216,0 4.000001,-1.784 4,-4 V 68.375 c 0,-2.216 -1.783999,-4 -4,-4 z M 18.5625,80 h 7.28125 v 1.90625 c -0.205135,0.352212 -0.433858,0.778115 -0.71875,1.28125 -0.273511,0.490577 -0.575773,1.015144 -0.90625,1.59375 -0.33049,0.578625 -0.697833,1.202249 -1.0625,1.84375 -0.364677,0.641516 -0.717686,1.295995 -1.09375,1.9375 -0.364676,0.641514 -0.748935,1.258652 -1.125,1.875 -0.376071,0.616355 -0.740476,1.177874 -1.09375,1.71875 H 26 V 94 h -8 v -1.96875 l 5,-8.71875 c 0.159539,-0.26414 0.289347,-0.498418 0.4375,-0.75 0.159538,-0.251561 0.329054,-0.529665 0.5,-0.78125 h -5.375 z M 28,80 h 1.8125 V 94 H 28 Z m 4,0 h 4.21875 c 0.440246,1.4e-5 0.847477,0.0122 1.25,0.0625 0.402509,0.03775 0.785371,0.130319 1.125,0.28125 0.339615,0.150957 0.64209,0.398204 0.90625,0.6875 0.276721,0.289321 0.498811,0.665695 0.6875,1.15625 0.125777,0.314476 0.230925,0.641715 0.28125,0.96875 0.05031,0.314475 0.06249,0.641717 0.0625,0.96875 -9e-6,0.528311 -0.06782,1.034206 -0.21875,1.5625 -0.138374,0.515731 -0.360463,0.997257 -0.6875,1.4375 -0.188688,0.264157 -0.466793,0.492735 -0.78125,0.65625 -0.314473,0.163528 -0.647806,0.274379 -1,0.375 -0.352208,0.08806 -0.697724,0.149768 -1.0625,0.1875 -0.352206,0.02516 -0.660776,0.06251 -0.9375,0.0625 H 33.8125 V 94 H 32 Z m 1.84375,1.78125 v 4.78125 h 2.09375 c 0.85534,7e-6 1.509425,-0.222477 2,-0.625 0.503137,-0.415086 0.781243,-1.020037 0.78125,-1.8125 -8e-6,-0.226406 -0.02477,-0.461073 -0.0625,-0.6875 -0.03774,-0.238983 -0.09946,-0.45498 -0.1875,-0.65625 C 38.380692,82.580003 38.263356,82.400955 38.125,82.25 37.986628,82.08649 37.826253,81.981733 37.625,81.90625 37.461472,81.843369 37.251566,81.812514 37,81.8125 36.761,81.79993 36.551095,81.78126 36.375,81.78125 Z"
         id="path3354"
         style="fill:#ffffff;fill-opacity:1;fill-rule:nonzero;stroke:none" />
    </clipPath>
    <linearGradient
       x1="45.447727"
       y1="92.539597"
       x2="45.447727"
       y2="7.0165396"
       id="ButtonShadow-0"
       gradientUnits="userSpaceOnUse"
       gradientTransform="matrix(1.0058652,0,0,0.994169,100,0)">
      <stop
         id="stop3750-8"
         style="stop-color:#000000;stop-opacity:1"
         offset="0" />
      <stop
         id="stop3752-5"
         style="stop-color:#000000;stop-opacity:0.58823532"
         offset="1" />
    </linearGradient>
    <linearGradient
       x1="32.251034"
       y1="6.1317081"
       x2="32.251034"
       y2="90.238609"
       id="linearGradient3780"
       xlink:href="#ButtonShadow-0"
       gradientUnits="userSpaceOnUse"
       gradientTransform="matrix(1.0238095,0,0,1.0119048,-1.1428571,-98.071429)" />
    <linearGradient
       x1="32.251034"
       y1="6.1317081"
       x2="32.251034"
       y2="90.238609"
       id="linearGradient3772"
       xlink:href="#ButtonShadow-0"
       gradientUnits="userSpaceOnUse"
       gradientTransform="matrix(1.0238095,0,0,1.0119048,-1.1428571,-98.071429)" />
    <linearGradient
       x1="32.251034"
       y1="6.1317081"
       x2="32.251034"
       y2="90.238609"
       id="linearGradient3725"
       xlink:href="#ButtonShadow-0"
       gradientUnits="userSpaceOnUse"
       gradientTransform="matrix(1.0238095,0,0,1.0119048,-1.1428571,-98.071429)" />
    <linearGradient
       x1="32.251034"
       y1="6.1317081"
       x2="32.251034"
       y2="90.238609"
       id="linearGradient3721"
       xlink:href="#ButtonShadow-0"
       gradientUnits="userSpaceOnUse"
       gradientTransform="translate(0,-97)" />
    <linearGradient
       x1="32.251034"
       y1="6.1317081"
       x2="32.251034"
       y2="90.238609"
       id="linearGradient3760"
       xlink:href="#ButtonShadow-0"
       gradientUnits="userSpaceOnUse"
       gradientTransform="matrix(1.0238095,0,0,1.0119048,-1.1428571,-98.071429)" />
    <linearGradient
       xlink:href="#linearGradient3290"
       id="linearGradient1564"
       gradientUnits="userSpaceOnUse"
       gradientTransform="matrix(0.53315586,0,0,0.68002831,-2.3926526,37.944471)"
       x1="69"
       y1="54"
       x2="73"
       y2="54" />
    <linearGradient
       xlink:href="#linearGradient3604"
       id="linearGradient1566"
       gradientUnits="userSpaceOnUse"
       gradientTransform="matrix(-0.53315586,0,0,0.68002831,74.38179,35.904384)"
       x1="69"
       y1="54"
       x2="73"
       y2="54" />
    <linearGradient
       x1="32"
       y1="68.071426"
       x2="32"
       y2="45.192421"
       id="linearGradient3350"
       xlink:href="#linearGradient3344"
       gradientUnits="userSpaceOnUse"
       gradientTransform="matrix(0.50514756,0,0,0.50514756,-29.381734,-35.623605)" />
    <linearGradient
       id="linearGradient3344">
      <stop
         id="stop3346"
         style="stop-color:#000000;stop-opacity:1"
         offset="0" />
      <stop
         id="stop3348"
         style="stop-color:#000000;stop-opacity:0"
         offset="1" />
    </linearGradient>
    <linearGradient
       x1="19.472399"
       y1="40"
       x2="28.056534"
       y2="54.86816"
       id="linearGradient3333"
       xlink:href="#linearGradient3737"
       gradientUnits="userSpaceOnUse"
       gradientTransform="matrix(0.50514756,0,0,0.50514756,-29.381734,-35.623605)" />
    <linearGradient
       x1="25.975256"
       y1="40"
       x2="25.975256"
       y2="64.019806"
       id="linearGradient3318"
       xlink:href="#linearGradient3312"
       gradientUnits="userSpaceOnUse"
       gradientTransform="matrix(0.50514756,0,0,0.50514756,-29.381734,-35.623605)" />
    <linearGradient
       id="linearGradient3312">
      <stop
         id="stop3314"
         style="stop-color:#323232;stop-opacity:1"
         offset="0" />
      <stop
         id="stop3316"
         style="stop-color:#141414;stop-opacity:1"
         offset="1" />
    </linearGradient>
  </defs>
  <metadata
     id="metadata2413">
    <rdf:RDF>
      <cc:Work
         rdf:about="">
        <dc:format>image/svg+xml</dc:format>
        <dc:type
           rdf:resource="http://purl.org/dc/dcmitype/StillImage" />
        <dc:title></dc:title>
      </cc:Work>
    </rdf:RDF>
  </metadata>
  <g
     id="layer2"
     style="display:none"
     transform="translate(0,-72)">
    <rect
       width="86"
       height="85"
       rx="6"
       ry="6"
       x="5"
       y="7"
       id="rect3745"
       style="opacity:0.9;fill:url(#ButtonShadow);fill-opacity:1;fill-rule:nonzero;stroke:none;filter:url(#filter3174)" />
  </g>
  <g
     id="layer4"
     style="display:inline"
     transform="matrix(0.23896809,0,0,0.23896809,0.52953157,1.2905637)">
    <path
       d="m 12,-95.03125 c -5.5110903,0 -10.03125,4.52016 -10.03125,10.03125 v 71 c 0,5.5110902 4.5201598,10.03125 10.03125,10.03125 h 72 c 5.51109,0 10.03125,-4.5201597 10.03125,-10.03125 v -71 c 0,-5.51109 -4.52016,-10.03125 -10.03125,-10.03125 z"
       transform="scale(1,-1)"
       id="path3786"
       style="display:inline;opacity:0.07999998;fill:url(#linearGradient3760);fill-opacity:1;fill-rule:nonzero;stroke:none" />
    <path
       d="m 12,-94.03125 c -4.971633,0 -9.03125,4.059617 -9.03125,9.03125 v 71 c 0,4.9716329 4.0596171,9.03125 9.03125,9.03125 h 72 c 4.971633,0 9.03125,-4.059617 9.03125,-9.03125 v -71 c 0,-4.971633 -4.059617,-9.03125 -9.03125,-9.03125 z"
       transform="scale(1,-1)"
       id="path3778"
       style="display:inline;opacity:0.1;fill:url(#linearGradient3780);fill-opacity:1;fill-rule:nonzero;stroke:none" />
    <path
       d="m 12,-93 c -4.4091333,0 -8,3.590867 -8,8 v 71 c 0,4.4091333 3.5908667,8 8,8 h 72 c 4.409133,0 8,-3.5908667 8,-8 v -71 c 0,-4.409133 -3.590867,-8 -8,-8 z"
       transform="scale(1,-1)"
       id="path3770"
       style="display:inline;opacity:0.2;fill:url(#linearGradient3772);fill-opacity:1;fill-rule:nonzero;stroke:none" />
    <rect
       width="86"
       height="85"
       rx="7"
       ry="7"
       x="5"
       y="-92"
       transform="scale(1,-1)"
       id="rect3723"
       style="display:inline;opacity:0.3;fill:url(#linearGradient3725);fill-opacity:1;fill-rule:nonzero;stroke:none" />
    <rect
       width="84"
       height="84"
       rx="6"
       ry="6"
       x="6"
       y="-91"
       transform="scale(1,-1)"
       id="rect3716"
       style="display:inline;opacity:0.45;fill:url(#linearGradient3721);fill-opacity:1;fill-rule:nonzero;stroke:none" />
  </g>
  <g
     id="layer1"
     style="display:inline"
     transform="matrix(0.23896809,0,0,0.23896809,-0.47046843,0.992872)">
    <path
       d="m 16.184659,3.9076702 c -3.324,0 -6,2.676 -6,5.9999998 v 72 c 0,3.324 2.676,6 6,6 h 72 c 3.324,0 6,-2.676 6,-6 v -72 c 0,-3.3239998 -2.676,-5.9999998 -6,-5.9999998 h -9 v 3 h -6 v -3 z"
       id="rect2419"
       style="fill:url(#radialGradient3229);fill-opacity:1;fill-rule:nonzero;stroke:none" />
    <path
       d="m 10.184659,53.90767 v 28 c 0,3.324 2.676,6 6,6 h 12 v -34 z"
       id="rect3222"
       style="fill:url(#linearGradient3234);fill-opacity:1;fill-rule:nonzero;stroke:none" />
    <path
       d="m 94.184659,53.90767 v 28 c 0,3.324 -2.676,6 -6,6 h -12 v -34 z"
       id="path3244"
       style="fill:url(#linearGradient3246);fill-opacity:1;fill-rule:nonzero;stroke:none" />
    <path
       d="m 10.184659,56.808662 v 4.185372 c 0,3.324 2.676,6 6,6 h 72.000004 c 3.324,0 6,-2.676 6,-6 v -4.185372 c 0,3.324 -2.676,6 -6,6 H 16.184659 c -3.324,0 -6,-2.676 -6,-6 z"
       id="path3193"
       style="opacity:0.3;fill:#000000;fill-opacity:1;fill-rule:nonzero;stroke:none" />
    <path
       d="m 16.184659,3.9076702 c -3.324,0 -6,2.676 -6,5.9999998 v 42.787784 c 0,3.324 2.676,6 6,6 h 72 c 3.324,0 6,-2.676 6,-6 V 9.90767 c 0,-3.3239998 -2.676,-5.9999998 -6,-5.9999998 h -9 v 3 h -6 v -3 z"
       id="rect3195"
       style="fill:url(#linearGradient3223);fill-opacity:1;fill-rule:nonzero;stroke:none" />
    <path
       d="m 16.184659,3.9076702 c -3.324,0 -6,2.676 -6,5.9999998 l 10e-7,42.440057 c 0,3.324 2.676,6.276988 5.999999,6.276988 h 72 c 3.324,0 6,-2.952988 6,-6.276988 V 9.90767 c 0,-3.3239998 -2.676,-5.9999998 -6,-5.9999998 h -9 v 2 h 9 c 2.245802,0 4,1.7541975 4,3.9999998 v 40.347727 c 0,2.245802 -1.754198,4.184659 -4,4.184659 h -72 c -2.245802,0 -3.999999,-1.938857 -3.999999,-4.184659 l -10e-7,-40.347727 c 0,-2.2458023 1.754198,-3.9999998 4,-3.9999998 h 57 v -2 z"
       id="rect3207"
       style="opacity:0.5;fill:url(#linearGradient3220);fill-opacity:1;fill-rule:nonzero;stroke:none" />
    <path
       d="m 10.183236,60.993321 v 4.185372 c 0,3.324 2.676,6 6,6 h 72 c 3.324,0 6.000002,-2.676 6.000002,-6 v -4.185372 c 0,3.324 -2.676002,5.999999 -6.000002,5.999999 h -72 c -3.324,0 -6,-2.675999 -6,-5.999999 z"
       id="path3193-3"
       style="display:inline;opacity:0.3;fill:#ffffff;fill-opacity:1;fill-rule:nonzero;stroke:none;stroke-width:1" />
    <path
       d="m 10.18537,69.362639 v 4.185372 c 0,3.324 2.676,6 6,6 h 72 c 3.324,0 6.000002,-2.676 6.000002,-6 v -4.185372 c 0,3.324 -2.676002,5.999999 -6.000002,5.999999 h -72 c -3.324,0 -6,-2.675999 -6,-5.999999 z"
       id="path3193-6"
       style="display:inline;opacity:0.3;fill:#000000;fill-opacity:1;fill-rule:nonzero;stroke:none;stroke-width:1" />
    <path
       d="m 10.183947,73.547298 v 4.185371 c 0,3.324001 2.676,6.000001 6,6.000001 h 72 c 3.324,0 6.000002,-2.676 6.000002,-6.000001 v -4.185371 c 0,3.324 -2.676002,5.999999 -6.000002,5.999999 h -72 c -3.324,0 -6,-2.675999 -6,-5.999999 z"
       id="path3193-3-7"
       style="display:inline;opacity:0.3;fill:#ffffff;fill-opacity:1;fill-rule:nonzero;stroke:none;stroke-width:1" />
  </g>
  <g
     id="g1038"
     transform="matrix(1.1956169,0,0,0.77343504,-4.204546,0.17714896)">
    <g
       transform="matrix(0.47793618,0,0,0.47793618,0.53212905,-22.391938)"
       id="layer3">
      <path
         style="fill:#252525;fill-opacity:1;fill-rule:nonzero;stroke:none;stroke-width:0.5"
         id="rect3201"
         d="m 32.994566,51.505433 v 27.500002 c 0,0.830999 0.669,1.499999 1.499999,1.499999 h 3 c 0.831001,0 1.500001,-0.669 1.500001,-1.499999 V 51.505433 h -2 v 1.000001 h -2 v -1.000001 z" />
      <rect
         style="fill:#4d4d4d;fill-opacity:1;fill-rule:nonzero;stroke:none;stroke-width:0.5"
         id="rect3247"
         y="52.505436"
         x="34.994564"
         height="24.5"
         width="2" />
      <rect
         style="fill:url(#linearGradient3360);fill-opacity:1;fill-rule:nonzero;stroke:#000000;stroke-width:0.29480827;stroke-linecap:square;stroke-linejoin:miter;stroke-miterlimit:4;stroke-dasharray:none;stroke-dashoffset:0;stroke-opacity:0.56363639"
         id="rect3211"
         y="76.520912"
         x="34.512299"
         ry="0.70361227"
         rx="0.49408987"
         height="2.8144491"
         width="2.9645393" />
      <path
         transform="matrix(0.50000001,0,0,0.50000001,-0.00543478,48.505434)"
         style="fill:none;stroke:#000000;stroke-width:2;stroke-linecap:square;stroke-linejoin:miter;stroke-miterlimit:4;stroke-dasharray:none;stroke-dashoffset:0;stroke-opacity:1;filter:url(#filter3243)"
         id="path3231"
         clip-path="url(#clipPath3235)"
         d="m 66,6 v 55 c 0,1.662 1.338,3 3,3 h 6 c 1.662,0 3,-1.338 3,-3 V 6 H 74 V 8 H 70 V 6 Z" />
      <path
         d="m 34.661677,73.305932 c -0.143832,0 -0.266578,0.14822 -0.266578,0.340013 v 2.040087 c 0,0.191792 0.122748,0.340012 0.266578,0.340012 h 0.533157 c 0.143831,0 0.266578,-0.14822 0.266578,-0.340012 v -0.340017 h 0.799732 c 0.147686,0 0.266579,-0.151645 0.266579,-0.340013 v -0.680029 c 0,-0.188366 -0.118893,-0.340013 -0.266579,-0.340013 h -0.799732 v -0.340015 c 0,-0.191793 -0.122749,-0.340013 -0.266578,-0.340013 z"
         id="use3308"
         style="fill:url(#linearGradient1564);fill-opacity:1;fill-rule:nonzero;stroke:#000000;stroke-width:0.30106518;stroke-linecap:square;stroke-linejoin:miter;stroke-miterlimit:4;stroke-dasharray:none;stroke-dashoffset:0;stroke-opacity:0.56363639" />
      <use
         xlink:href="#use3308"
         height="96"
         width="96"
         y="0"
         x="0"
         id="use3310"
         transform="translate(0,-4.0801695)" />
      <use
         xlink:href="#use3310"
         height="96"
         width="96"
         y="0"
         x="0"
         id="use3312"
         transform="translate(0,-4.0801695)" />
      <path
         d="m 37.327458,71.265846 c 0.14383,0 0.266576,0.148223 0.266576,0.340016 v 2.040083 c 0,0.191792 -0.122747,0.340015 -0.266576,0.340015 h -0.533157 c -0.143831,0 -0.266578,-0.148223 -0.266578,-0.340015 v -0.340013 h -0.799735 c -0.147683,0 -0.266576,-0.151646 -0.266576,-0.340014 v -0.680029 c 0,-0.188368 0.118893,-0.340014 0.266576,-0.340014 h 0.799735 v -0.340013 c 0,-0.191793 0.122748,-0.340016 0.266578,-0.340016 z"
         id="use3340"
         style="fill:url(#linearGradient1566);fill-opacity:1;fill-rule:nonzero;stroke:#000000;stroke-width:0.30106518;stroke-linecap:square;stroke-linejoin:miter;stroke-miterlimit:4;stroke-dasharray:none;stroke-dashoffset:0;stroke-opacity:0.56363639" />
      <use
         xlink:href="#use3340"
         height="96"
         width="96"
         y="0"
         x="0"
         id="use3342"
         transform="translate(0,-4.0801695)" />
      <path
         style="fill:url(#linearGradient3393);fill-opacity:1;fill-rule:nonzero;stroke:none;stroke-width:0.5"
         id="path3376"
         d="m 32.494566,51.505433 v 27.500002 c 0,1.101147 0.898853,2 1.999999,2 h 3 c 1.101148,0 2.000001,-0.898853 2.000001,-2 V 51.505433 h -0.5 v 27.500002 c 0,0.830999 -0.669,1.499999 -1.500001,1.499999 h -3 c -0.830999,0 -1.499999,-0.669 -1.499999,-1.499999 V 51.505433 Z" />
      <path
         style="fill:url(#linearGradient3516);fill-opacity:1;fill-rule:nonzero;stroke:none;stroke-width:0.47706693"
         id="rect3403"
         d="m 34.781437,53.113439 c -0.298876,0 -0.534671,0.252401 -0.534671,0.565924 l -0.0022,5.659252 c 9e-6,0.313524 0.235804,0.565926 0.53468,0.565926 h 2.428458 c 0.298875,0 0.53467,-0.252402 0.53467,-0.565926 l 0.0022,-5.659252 c 0,-0.313523 -0.235796,-0.565924 -0.53467,-0.565924 z" />
      <path
         style="fill:url(#linearGradient3489);fill-opacity:1;fill-rule:nonzero;stroke:none;stroke-width:0.47706693"
         id="rect3470"
         d="m 37.101169,53.609136 c 0.120483,0 0.217478,0.116686 0.217478,0.261627 v 5.265247 c 0,0.144942 -0.09699,0.261627 -0.217478,0.261627 h -2.21556 c -0.120483,0 -0.217478,-0.116685 -0.217478,-0.261627 v -5.265247 c 0,-0.144941 0.09699,-0.261627 0.217478,-0.261627 z" />
      <rect
         style="fill:url(#linearGradient3530);fill-opacity:1;fill-rule:nonzero;stroke:#000000;stroke-width:0.5;stroke-linecap:square;stroke-linejoin:miter;stroke-miterlimit:4;stroke-dasharray:none;stroke-dashoffset:0;stroke-opacity:0.56363639"
         id="rect3399"
         y="51.49762"
         x="35.149864"
         ry="0.25"
         rx="0.28156728"
         height="2.5"
         width="1.6894037" />
      <use
         style="display:inline"
         xlink:href="#use3310"
         height="96"
         width="96"
         y="0"
         x="0"
         id="use3312-3"
         transform="translate(0.06835893,-8.1033929)" />
      <use
         style="display:inline"
         xlink:href="#use3340"
         height="96"
         width="96"
         y="0"
         x="0"
         id="use3342-7"
         transform="translate(0.06835893,-8.1033929)" />
    </g>
  </g>
  <path
     d="M 6.338905,7 C 5.901595,7.000006 5.529651,7.09327 5.231003,7.28125 4.932352,7.464023 4.687401,7.698648 4.506079,7.991072 4.324755,8.278282 4.203096,8.608441 4.1231003,8.96875 4.0431043,9.329068 3.9999996,9.676919 4,10.026786 c -4e-7,0.355093 0.037772,0.716339 0.1231003,1.071429 0.085328,0.34987 0.2320227,0.668909 0.4240117,0.950892 0.191988,0.281986 0.434618,0.50549 0.738602,0.683036 C 5.589695,12.909689 5.961639,13 6.393617,13 6.612269,13 6.811793,12.9519 7.009118,12.852679 7.21177,12.758689 7.415937,12.662475 7.597264,12.558036 v 0.348214 h 0.75228 V 9.919643 H 6.243161 v 0.723215 h 1.340426 v 1.058035 c -0.07466,0.07832 -0.163888,0.151624 -0.259879,0.214285 -0.096,0.06266 -0.202599,0.113719 -0.31459,0.160715 -0.106664,0.04699 -0.210943,0.08103 -0.328267,0.107143 -0.111997,0.02611 -0.22161,0.04018 -0.328268,0.04018 -0.303985,10e-7 -0.563303,-0.07034 -0.765957,-0.200893 C 5.383969,11.886554 5.230561,11.714102 5.107903,11.500002 4.990574,11.285905 4.901354,11.043108 4.848024,10.776787 c -0.048,-0.266315 -0.06839,-0.523857 -0.06839,-0.790178 0,-0.266316 0.0204,-0.53725 0.06839,-0.803571 C 4.901354,8.916723 4.990575,8.673927 5.107903,8.459823 5.230561,8.240506 5.389302,8.068054 5.586626,7.937502 5.78928,7.801736 6.03492,7.736614 6.338905,7.736609 c 0.191987,4e-6 0.359073,0.03109 0.492402,0.09375 0.138656,0.05745 0.259625,0.139586 0.355623,0.254464 0.101324,0.114887 0.1822,0.253304 0.2462,0.415179 0.06933,0.161885 0.129811,0.345455 0.177812,0.549107 L 8.281155,8.82143 C 8.222485,8.54989 8.149956,8.309369 8.048632,8.084821 7.952632,7.860283 7.82564,7.65742 7.665654,7.495535 7.510991,7.333661 7.323514,7.217484 7.104863,7.133928 6.886206,7.045158 6.632219,7.000005 6.338905,7 Z m 3.173253,0 v 0.763393 h 2.530395 C 11.962553,7.871214 11.88469,7.990402 11.81003,8.098215 11.7407,8.206036 11.665845,8.30644 11.591185,8.419643 L 9.25228,12.15625 V 13 H 13 v -0.790179 h -2.886018 c 0.165323,-0.231804 0.343765,-0.472455 0.519757,-0.736607 0.175987,-0.26415 0.349097,-0.528637 0.519756,-0.803571 0.175988,-0.274929 0.349098,-0.555422 0.519757,-0.830357 0.170655,-0.27493 0.324063,-0.542197 0.478723,-0.790179 C 12.30663,8.801133 12.447992,8.576319 12.575988,8.366072 12.70931,8.150443 12.821935,7.967913 12.917933,7.816965 V 7 Z"
     id="path2538"
     style="font-style:normal;font-variant:normal;font-weight:bold;font-stretch:normal;font-size:18.27676201px;line-height:120.00000477%;font-family:BabelSans;-inkscape-font-specification:'BabelSans Bold';text-align:start;writing-mode:lr-tb;text-anchor:start;display:inline;fill:#333333;fill-opacity:1;stroke:none;stroke-width:0.43310669" />
</svg>
