<?xml version="1.0" encoding="UTF-8" standalone="no"?>
<!-- Created with Inkscape (http://www.inkscape.org/) -->
<svg id="svg7384" xmlns:rdf="http://www.w3.org/1999/02/22-rdf-syntax-ns#" xmlns="http://www.w3.org/2000/svg" height="17.001" width="16" version="1.1" xmlns:cc="http://creativecommons.org/ns#" xmlns:dc="http://purl.org/dc/elements/1.1/">
 <metadata id="metadata90">
  <rdf:RDF>
   <cc:Work rdf:about="">
    <dc:format>image/svg+xml</dc:format>
    <dc:type rdf:resource="http://purl.org/dc/dcmitype/StillImage"/>
    <dc:title>Gnome Symbolic Icon Theme</dc:title>
   </cc:Work>
  </rdf:RDF>
 </metadata>
 <title id="title9167">Gnome Symbolic Icon Theme</title>
 <g id="layer11" transform="translate(-103 -669)">
  <path id="path27838" style="block-progression:tb;text-indent:0;color:#bebebe;text-transform:none;fill:#bebebe" d="m105.84 669c-1.0855 0.0845-1.8627 0.94343-1.8438 2.0312v12.938c-0.0172 1.1595 0.87136 2.0482 2.0312 2.0312h9.9375c1.1602 0.0172 2.0481-0.87208 2.0312-2.0312v-9.97c-0.008-0.53261-0.2464-1.0006-0.625-1.375-0.007-0.007 0.007-0.0243 0-0.0312l-2.9375-2.9688c-0.01-0.0103-0.0212-0.0212-0.0312-0.0312-0.38-0.37-0.88-0.58-1.41-0.59h-6.9375c-0.0105-0.00033-0.0208 0.0002-0.0312 0-0.0314-0.0006-0.0624-0.0006-0.0937 0-0.0105 0.0002-0.0208-0.00033-0.0312 0v0.8125l-0.0625-0.8125zm0.15625 2h0.0312 6.9375 0.0312v0.0312l2.9688 2.9688h0.0312v0.0312 9.9375 0.0312h-0.0312-9.9375-0.0312v-0.0312-12.938-0.0312z"/>
  <path id="rect11749-5-0-3-8" style="block-progression:tb;text-indent:0;color:#bebebe;text-transform:none;fill:#bebebe" d="m111 674.88c-2.2408 0-4.0625 1.8217-4.0625 4.0625s1.8217 4.0625 4.0625 4.0625 4.0625-1.8217 4.0625-4.0625-1.8217-4.0625-4.0625-4.0625zm0 1c1.7041 0 3.0625 1.3584 3.0625 3.0625s-1.3584 3.0625-3.0625 3.0625-3.0625-1.3584-3.0625-3.0625 1.3584-3.0625 3.0625-3.0625z"/>
  <path id="rect11749-5-0-3-3-0" style="block-progression:tb;text-indent:0;color:#bebebe;text-transform:none;fill:#bebebe" d="m111 676.94c-1.0994 0-2 0.90065-2 2s0.90065 2 2 2 2-0.90065 2-2-0.90065-2-2-2zm0 1c0.56265 0 1 0.43735 1 1s-0.43735 1-1 1-1-0.43735-1-1 0.43735-1 1-1z"/>
  <path id="path4624-6" style="fill:#bebebe" d="m109.33 675.6c-0.76818 0.30889-1.3637 0.91476-1.6689 1.6848l1.9073 0.95366c0.12816-0.32566 0.37765-0.59537 0.69936-0.73114l-0.93777-1.9073zm3.3378 0-0.93777 1.9073c0.32171 0.13577 0.5712 0.40548 0.69936 0.73114l1.9073-0.95366c-0.30524-0.77005-0.90073-1.3759-1.6689-1.6848zm-3.0994 4.069-1.9073 0.95366c0.30877 0.75714 0.9099 1.3478 1.6689 1.653l0.95366-1.9073c-0.31881-0.12998-0.58152-0.3825-0.71525-0.69935zm2.861 0c-0.13373 0.31685-0.39644 0.56937-0.71525 0.69935l0.95366 1.9073c0.75901-0.3052 1.3601-0.89588 1.6689-1.653l-1.9073-0.95366z"/>
 </g>
</svg>
