<?xml version="1.0" encoding="UTF-8" standalone="no"?>
<!-- Created with Inkscape (http://www.inkscape.org/) -->
<svg id="svg7384" xmlns:rdf="http://www.w3.org/1999/02/22-rdf-syntax-ns#" xmlns="http://www.w3.org/2000/svg" height="16" width="16" version="1.1" xmlns:cc="http://creativecommons.org/ns#" xmlns:dc="http://purl.org/dc/elements/1.1/">
 <metadata id="metadata90">
  <rdf:RDF>
   <cc:Work rdf:about="">
    <dc:format>image/svg+xml</dc:format>
    <dc:type rdf:resource="http://purl.org/dc/dcmitype/StillImage"/>
    <dc:title>Gnome Symbolic Icon Theme</dc:title>
   </cc:Work>
  </rdf:RDF>
 </metadata>
 <title id="title9167">Gnome Symbolic Icon Theme</title>
 <g id="layer11" transform="translate(-303.03 -649.03)">
  <path id="rect7213" style="fill:#bebebe" d="m307.72 651.26c-3.5822 0-4.6658 1.3998-4.6658 1.3998v10.049s1.0836-1.0767 4.6658-1.0767c2.9161 0 4.4722 1.0767 7.1782 1.0767 2.0892 0 3.1943-1.3998 3.1943-1.3998v-10.049s-1.141 1.0408-3.2302 1.0408c-3.3734 0-3.9762-1.0408-7.1423-1.0408zm2.9314 2.7715c1.3288 0 2.375 1.0804 2.375 2.4375s-1.0462 2.4688-2.375 2.4688-2.4062-1.1116-2.4062-2.4688c0-1.3571 1.0775-2.4375 2.4062-2.4375zm-4.5625 0.96875 0.96875 1.0312-0.9375-0.0312 0.9375 1-0.96875-0.0312 0.96875 1.0312-1-0.0312 0.0312-1h-0.0312l0.0312-0.9688h-0.0312zm4.5625 0c-0.794 0-1.4688 0.6578-1.4688 1.4688 0 0.81095 0.67475 1.4688 1.4688 1.4688 0.79399 0 1.4375-0.6578 1.4375-1.4688 0-0.81095-0.64351-1.4688-1.4375-1.4688zm4.375 0v1l0.0312 0.96875h-0.0312l0.0312 1-1 0.0312 0.96875-1.0312-0.96875 0.0312 0.9375-1-0.9375 0.0312zm-7.9375 2.9688 0.96875 1.0312-1-0.0312zm6.9375 0 0.0312 1-1 0.0312zm-5.9375 1 0.96875 1.0312-1-0.0312zm4.9375 0 0.0312 1-1 0.0312z"/>
 </g>
</svg>
