<?xml version="1.0" encoding="UTF-8" standalone="no"?>
<svg
   xmlns:dc="http://purl.org/dc/elements/1.1/"
   xmlns:cc="http://creativecommons.org/ns#"
   xmlns:rdf="http://www.w3.org/1999/02/22-rdf-syntax-ns#"
   xmlns:svg="http://www.w3.org/2000/svg"
   xmlns="http://www.w3.org/2000/svg"
   xmlns:xlink="http://www.w3.org/1999/xlink"
   style="display:inline"
   id="svg2408"
   height="48"
   width="48"
   version="1.0">
  <defs
     id="defs2410">
    <linearGradient
       id="linearGradient3604">
      <stop
         offset="0"
         style="stop-color:#2f2f2f;stop-opacity:1"
         id="stop3606" />
      <stop
         offset="0.43731192"
         style="stop-color:#ffffff;stop-opacity:1"
         id="stop3608" />
      <stop
         offset="0.62138397"
         style="stop-color:#979797;stop-opacity:1"
         id="stop3610" />
      <stop
         offset="0.7723214"
         style="stop-color:#505050;stop-opacity:1"
         id="stop3612" />
      <stop
         offset="1"
         style="stop-color:#e6e6e6;stop-opacity:1"
         id="stop3614" />
    </linearGradient>
    <linearGradient
       id="linearGradient3435">
      <stop
         offset="0"
         style="stop-color:#ededed;stop-opacity:1"
         id="stop3437" />
      <stop
         offset="1"
         style="stop-color:#b0b0b0;stop-opacity:1"
         id="stop3439" />
    </linearGradient>
    <linearGradient
       id="linearGradient3387">
      <stop
         offset="0"
         style="stop-color:#a2a2a2;stop-opacity:1"
         id="stop3389" />
      <stop
         offset="1"
         style="stop-color:#ffffff;stop-opacity:1"
         id="stop3391" />
    </linearGradient>
    <linearGradient
       id="linearGradient3354">
      <stop
         offset="0"
         style="stop-color:#b4b4b4;stop-opacity:1"
         id="stop3356" />
      <stop
         offset="0.20467032"
         style="stop-color:#646464;stop-opacity:1"
         id="stop3362" />
      <stop
         offset="0.49567693"
         style="stop-color:#ffffff;stop-opacity:1"
         id="stop3364" />
      <stop
         offset="1"
         style="stop-color:#3c3c3c;stop-opacity:1"
         id="stop3358" />
    </linearGradient>
    <linearGradient
       id="linearGradient3290">
      <stop
         offset="0"
         style="stop-color:#ffffff;stop-opacity:1"
         id="stop3292" />
      <stop
         offset="0.48973215"
         style="stop-color:#8c8c8c;stop-opacity:1"
         id="stop3304" />
      <stop
         offset="0.50044644"
         style="stop-color:#cfcfcf;stop-opacity:1"
         id="stop3306" />
      <stop
         offset="0.62276787"
         style="stop-color:#ffffff;stop-opacity:1"
         id="stop3298" />
      <stop
         offset="0.81696427"
         style="stop-color:#c8c8c8;stop-opacity:1"
         id="stop3300" />
      <stop
         offset="1"
         style="stop-color:#505050;stop-opacity:1"
         id="stop3294" />
    </linearGradient>
    <linearGradient
       id="linearGradient3236">
      <stop
         offset="0"
         style="stop-color:#818181;stop-opacity:1"
         id="stop3238" />
      <stop
         offset="0.2"
         style="stop-color:#f9f9f9;stop-opacity:1"
         id="stop3242" />
      <stop
         offset="1"
         style="stop-color:#dcdcdc;stop-opacity:0"
         id="stop3240" />
    </linearGradient>
    <linearGradient
       id="linearGradient3199">
      <stop
         offset="0"
         style="stop-color:#dcdcdc;stop-opacity:1"
         id="stop3201" />
      <stop
         offset="1"
         style="stop-color:#fafafa;stop-opacity:1"
         id="stop3203" />
    </linearGradient>
    <linearGradient
       gradientTransform="scale(1.0058652,0.994169)"
       gradientUnits="userSpaceOnUse"
       id="ButtonShadow"
       y2="7.0165396"
       x2="45.447727"
       y1="92.539597"
       x1="45.447727">
      <stop
         offset="0"
         style="stop-color:#000000;stop-opacity:1"
         id="stop3750" />
      <stop
         offset="1"
         style="stop-color:#000000;stop-opacity:0.58823532"
         id="stop3752" />
    </linearGradient>
    <linearGradient
       id="linearGradient3737">
      <stop
         offset="0"
         style="stop-color:#ffffff;stop-opacity:1"
         id="stop3739" />
      <stop
         offset="1"
         style="stop-color:#ffffff;stop-opacity:0"
         id="stop3741" />
    </linearGradient>
    <linearGradient
       id="linearGradient3700">
      <stop
         offset="0"
         style="stop-color:#b4b4b4;stop-opacity:1"
         id="stop3702" />
      <stop
         offset="1"
         style="stop-color:#dcdcdc;stop-opacity:1"
         id="stop3704" />
    </linearGradient>
    <filter
       style="color-interpolation-filters:sRGB"
       id="filter3174">
      <feGaussianBlur
         stdDeviation="1.71"
         id="feGaussianBlur3176" />
    </filter>
    <linearGradient
       gradientUnits="userSpaceOnUse"
       xlink:href="#linearGradient3737"
       id="linearGradient3220"
       y2="27.428572"
       x2="87.5"
       y1="74"
       x1="19.035713" />
    <linearGradient
       gradientUnits="userSpaceOnUse"
       xlink:href="#linearGradient3236"
       id="linearGradient3234"
       y2="73"
       x2="24"
       y1="73"
       x1="6" />
    <linearGradient
       gradientTransform="matrix(-1,0,0,1,96,0)"
       gradientUnits="userSpaceOnUse"
       xlink:href="#linearGradient3236"
       id="linearGradient3246"
       y2="73"
       x2="24"
       y1="73"
       x1="6" />
    <linearGradient
       gradientUnits="userSpaceOnUse"
       xlink:href="#linearGradient3199"
       id="linearGradient3223"
       y2="5.8331571"
       x2="38.748035"
       y1="65.59034"
       x1="38.748035" />
    <radialGradient
       gradientTransform="matrix(0,-1.085034,2,0,-90,187.65306)"
       gradientUnits="userSpaceOnUse"
       xlink:href="#linearGradient3700"
       id="radialGradient3229"
       fy="90"
       fx="90"
       r="42"
       cy="90"
       cx="90" />
    <clipPath
       id="clipPath3235">
      <path
         style="fill:#ffffff;fill-opacity:1;fill-rule:nonzero;stroke:none"
         id="path3237"
         d="m 66,6 v 55 c 0,1.662 1.338,3 3,3 h 6 c 1.662,0 3,-1.338 3,-3 V 6 H 74 V 8 H 70 V 6 Z" />
    </clipPath>
    <filter
       style="color-interpolation-filters:sRGB"
       id="filter3243"
       height="1.0732203"
       width="1.3323077"
       y="-0.036610167"
       x="-0.16615385">
      <feGaussianBlur
         stdDeviation="0.9"
         id="feGaussianBlur3245" />
    </filter>
    <linearGradient
       gradientTransform="translate(0,-1)"
       gradientUnits="userSpaceOnUse"
       xlink:href="#linearGradient3354"
       id="linearGradient3360"
       y2="59"
       x2="75.25"
       y1="59"
       x1="68.75" />
    <linearGradient
       gradientTransform="translate(0,-1)"
       gradientUnits="userSpaceOnUse"
       xlink:href="#linearGradient3290"
       id="linearGradient3372"
       y2="54"
       x2="73"
       y1="54"
       x1="69" />
    <linearGradient
       gradientUnits="userSpaceOnUse"
       xlink:href="#linearGradient3387"
       id="linearGradient3393"
       y2="65"
       x2="79"
       y1="64.163078"
       x1="63.484772" />
    <filter
       style="color-interpolation-filters:sRGB"
       id="filter3429"
       height="1.1907072"
       width="1.3236568"
       y="-0.095353596"
       x="-0.16182838">
      <feGaussianBlur
         stdDeviation="0.53551312"
         id="feGaussianBlur3431" />
    </filter>
    <linearGradient
       gradientTransform="matrix(-1,0,0,1,144.03125,-2)"
       gradientUnits="userSpaceOnUse"
       xlink:href="#linearGradient3435"
       id="linearGradient3489"
       y2="17.5"
       x2="75.0625"
       y1="17.5"
       x1="68.96875" />
    <linearGradient
       gradientTransform="translate(0,-2)"
       gradientUnits="userSpaceOnUse"
       xlink:href="#linearGradient3435"
       id="linearGradient3516"
       y2="17.763245"
       x2="75.97097"
       y1="17.763245"
       x1="68.02903" />
    <linearGradient
       gradientTransform="matrix(1.1262691,0,0,1,-7.4019692,-49.5)"
       gradientUnits="userSpaceOnUse"
       xlink:href="#linearGradient3354"
       id="linearGradient3530"
       y2="59"
       x2="72.250572"
       y1="59"
       x1="68.75" />
    <linearGradient
       gradientTransform="matrix(-1,0,0,1,144,-4)"
       gradientUnits="userSpaceOnUse"
       xlink:href="#linearGradient3604"
       id="linearGradient3602"
       y2="54"
       x2="73"
       y1="54"
       x1="69" />
    <clipPath
       id="clipPath3321">
      <path
         style="fill:#ffffff;fill-opacity:1;fill-rule:nonzero;stroke:none"
         id="path3323"
         d="m 10.6875,67.90625 c -2.216,0 -4,1.784 -4,4 v 32.40625 c 0,2.216 1.784,4 4,4 h 39.09375 c 2.216,0 4,-1.784 4,-4 V 71.90625 c 0,-2.216 -1.784,-4 -4,-4 z M 23.34375,80 c 0.670141,1.4e-5 1.250428,0.105379 1.75,0.3125 0.499557,0.194965 0.927891,0.466044 1.28125,0.84375 0.365526,0.377732 0.655669,0.851077 0.875,1.375 0.231496,0.523945 0.397209,1.085163 0.53125,1.71875 L 26.25,84.78125 C 26.140331,84.306063 26.00214,83.877732 25.84375,83.5 c -0.146222,-0.377709 -0.331003,-0.70068 -0.5625,-0.96875 -0.219329,-0.268048 -0.49571,-0.459708 -0.8125,-0.59375 -0.304619,-0.146202 -0.686364,-0.21874 -1.125,-0.21875 -0.694522,1.2e-5 -1.255742,0.151965 -1.71875,0.46875 -0.45083,0.304623 -0.813511,0.707011 -1.09375,1.21875 -0.268062,0.499574 -0.471907,1.0661 -0.59375,1.6875 -0.109663,0.621418 -0.156251,1.253596 -0.15625,1.875 -2e-6,0.621416 0.04659,1.222347 0.15625,1.84375 0.121843,0.621414 0.325687,1.187941 0.59375,1.6875 0.28024,0.499568 0.630735,0.901955 1.09375,1.21875 0.463007,0.304615 1.055478,0.468751 1.75,0.46875 0.243684,2e-6 0.494119,-0.03283 0.75,-0.09375 0.268052,-0.06092 0.506302,-0.140338 0.75,-0.25 0.255867,-0.109659 0.499421,-0.228784 0.71875,-0.375 0.219312,-0.146212 0.423159,-0.31723 0.59375,-0.5 V 88.5 H 23.125 v -1.6875 h 4.8125 v 6.96875 h -1.71875 v -0.8125 C 25.804468,93.212441 25.338003,93.43693 24.875,93.65625 24.424166,93.887756 23.96831,93.999999 23.46875,94 22.4818,93.999999 21.632013,93.789273 20.9375,93.375 20.24298,92.960727 19.68864,92.439216 19.25,91.78125 18.811357,91.123289 18.476202,90.378866 18.28125,89.5625 18.086297,88.733958 17.999999,87.89105 18,87.0625 c -1e-6,-0.816355 0.09848,-1.62801 0.28125,-2.46875 0.182767,-0.840721 0.460726,-1.611091 0.875,-2.28125 0.414271,-0.682321 0.973915,-1.229779 1.65625,-1.65625 C 21.494828,80.217621 22.344615,80.000014 23.34375,80 Z m 7.25,0 H 38.375 v 1.90625 c -0.219329,0.352214 -0.476646,0.778116 -0.78125,1.28125 -0.292435,0.490577 -0.615406,1.015142 -0.96875,1.59375 -0.353357,0.578624 -0.70385,1.202246 -1.09375,1.84375 -0.389909,0.641515 -0.785416,1.295997 -1.1875,1.9375 -0.389908,0.641514 -0.785416,1.25865 -1.1875,1.875 -0.402091,0.616355 -0.809782,1.177872 -1.1875,1.71875 H 38.5625 V 94 H 30 v -1.96875 l 5.34375,-8.71875 c 0.170577,-0.264139 0.341595,-0.498416 0.5,-0.75 0.170577,-0.251561 0.348477,-0.529667 0.53125,-0.78125 h -5.78125 z" />
    </clipPath>
    <linearGradient
       gradientTransform="matrix(1.0058652,0,0,0.994169,100,0)"
       gradientUnits="userSpaceOnUse"
       id="ButtonShadow-0"
       y2="7.0165396"
       x2="45.447727"
       y1="92.539597"
       x1="45.447727">
      <stop
         offset="0"
         style="stop-color:#000000;stop-opacity:1"
         id="stop3750-8" />
      <stop
         offset="1"
         style="stop-color:#000000;stop-opacity:0.58823532"
         id="stop3752-5" />
    </linearGradient>
    <linearGradient
       gradientTransform="matrix(1.0238095,0,0,1.0119048,-1.1428571,-98.071429)"
       gradientUnits="userSpaceOnUse"
       xlink:href="#ButtonShadow-0"
       id="linearGradient3780"
       y2="90.238609"
       x2="32.251034"
       y1="6.1317081"
       x1="32.251034" />
    <linearGradient
       gradientTransform="matrix(1.0238095,0,0,1.0119048,-1.1428571,-98.071429)"
       gradientUnits="userSpaceOnUse"
       xlink:href="#ButtonShadow-0"
       id="linearGradient3772"
       y2="90.238609"
       x2="32.251034"
       y1="6.1317081"
       x1="32.251034" />
    <linearGradient
       gradientTransform="matrix(1.0238095,0,0,1.0119048,-1.1428571,-98.071429)"
       gradientUnits="userSpaceOnUse"
       xlink:href="#ButtonShadow-0"
       id="linearGradient3725"
       y2="90.238609"
       x2="32.251034"
       y1="6.1317081"
       x1="32.251034" />
    <linearGradient
       gradientTransform="translate(0,-97)"
       gradientUnits="userSpaceOnUse"
       xlink:href="#ButtonShadow-0"
       id="linearGradient3721"
       y2="90.238609"
       x2="32.251034"
       y1="6.1317081"
       x1="32.251034" />
    <linearGradient
       gradientTransform="matrix(1.0238095,0,0,1.0119048,-1.1428571,-98.071429)"
       gradientUnits="userSpaceOnUse"
       xlink:href="#ButtonShadow-0"
       id="linearGradient3760"
       y2="90.238609"
       x2="32.251034"
       y1="6.1317081"
       x1="32.251034" />
    <linearGradient
       y2="54"
       x2="73"
       y1="54"
       x1="69"
       gradientTransform="translate(0,-1)"
       gradientUnits="userSpaceOnUse"
       id="linearGradient948"
       xlink:href="#linearGradient3290" />
    <linearGradient
       y2="54"
       x2="73"
       y1="54"
       x1="69"
       gradientTransform="matrix(-1,0,0,1,144,-4)"
       gradientUnits="userSpaceOnUse"
       id="linearGradient950"
       xlink:href="#linearGradient3604" />
  </defs>
  <metadata
     id="metadata2413">
    <rdf:RDF>
      <cc:Work
         rdf:about="">
        <dc:format>image/svg+xml</dc:format>
        <dc:type
           rdf:resource="http://purl.org/dc/dcmitype/StillImage" />
        <dc:title></dc:title>
      </cc:Work>
    </rdf:RDF>
  </metadata>
  <g
     transform="translate(0,-48)"
     style="display:none"
     id="layer2">
    <rect
       style="opacity:0.9;fill:url(#ButtonShadow);fill-opacity:1;fill-rule:nonzero;stroke:none;filter:url(#filter3174)"
       id="rect3745"
       y="7"
       x="5"
       ry="6"
       rx="6"
       height="85"
       width="86" />
  </g>
  <g
     transform="matrix(0.50514756,0,0,0.50514756,0.00549074,-0.50480406)"
     style="display:inline"
     id="layer7">
    <path
       style="display:inline;opacity:0.07999998;fill:url(#linearGradient3760);fill-opacity:1;fill-rule:nonzero;stroke:none"
       id="path3786"
       transform="scale(1,-1)"
       d="m 12,-95.03125 c -5.5110903,0 -10.03125,4.52016 -10.03125,10.03125 v 71 c 0,5.5110902 4.5201598,10.03125 10.03125,10.03125 h 72 c 5.51109,0 10.03125,-4.5201597 10.03125,-10.03125 v -71 c 0,-5.51109 -4.52016,-10.03125 -10.03125,-10.03125 z" />
    <path
       style="display:inline;opacity:0.1;fill:url(#linearGradient3780);fill-opacity:1;fill-rule:nonzero;stroke:none"
       id="path3778"
       transform="scale(1,-1)"
       d="m 12,-94.03125 c -4.971633,0 -9.03125,4.059617 -9.03125,9.03125 v 71 c 0,4.9716329 4.0596171,9.03125 9.03125,9.03125 h 72 c 4.971633,0 9.03125,-4.059617 9.03125,-9.03125 v -71 c 0,-4.971633 -4.059617,-9.03125 -9.03125,-9.03125 z" />
    <path
       style="display:inline;opacity:0.2;fill:url(#linearGradient3772);fill-opacity:1;fill-rule:nonzero;stroke:none"
       id="path3770"
       transform="scale(1,-1)"
       d="m 12,-93 c -4.4091333,0 -8,3.590867 -8,8 v 71 c 0,4.4091333 3.5908667,8 8,8 h 72 c 4.409133,0 8,-3.5908667 8,-8 v -71 c 0,-4.409133 -3.590867,-8 -8,-8 z" />
    <rect
       style="display:inline;opacity:0.3;fill:url(#linearGradient3725);fill-opacity:1;fill-rule:nonzero;stroke:none"
       id="rect3723"
       transform="scale(1,-1)"
       y="-92"
       x="5"
       ry="7"
       rx="7"
       height="85"
       width="86" />
    <rect
       style="display:inline;opacity:0.45;fill:url(#linearGradient3721);fill-opacity:1;fill-rule:nonzero;stroke:none"
       id="rect3716"
       transform="scale(1,-1)"
       y="-91"
       x="6"
       ry="6"
       rx="6"
       height="84"
       width="84" />
  </g>
  <g
     transform="matrix(0.50514756,0,0,0.50514756,0.00549074,-0.50480406)"
     style="display:inline"
     id="layer1">
    <path
       style="fill:url(#radialGradient3229);fill-opacity:1;fill-rule:nonzero;stroke:none"
       id="rect2419"
       d="M 12,6 C 8.676,6 6,8.676 6,12 v 72 c 0,3.324 2.676,6 6,6 h 72 c 3.324,0 6,-2.676 6,-6 V 12 C 90,8.676 87.324,6 84,6 H 75 V 9 H 69 V 6 Z" />
    <path
       style="fill:url(#linearGradient3234);fill-opacity:1;fill-rule:nonzero;stroke:none"
       id="rect3222"
       d="m 6,56 v 28 c 0,3.324 2.676,6 6,6 H 24 V 56 Z" />
    <path
       style="fill:url(#linearGradient3246);fill-opacity:1;fill-rule:nonzero;stroke:none"
       id="path3244"
       d="m 90,56 v 28 c 0,3.324 -2.676,6 -6,6 H 72 V 56 Z" />
    <path
       style="opacity:0.15;fill:#000000;fill-opacity:1;fill-rule:nonzero;stroke:none"
       id="rect2412"
       d="m 6,82 v 2 c 0,3.324 2.676,6 6,6 h 72 c 3.324,0 6,-2.676 6,-6 v -2 c 0,3.324 -2.676,6 -6,6 H 12 C 8.676,88 6,85.324 6,82 Z" />
    <path
       style="opacity:0.8;fill:#ffffff;fill-opacity:1;fill-rule:nonzero;stroke:none"
       id="path3187"
       d="m 6,78 v 2 c 0,3.324 2.676,6 6,6 h 72 c 3.324,0 6,-2.676 6,-6 v -2 c 0,3.324 -2.676,6 -6,6 H 12 C 8.676,84 6,81.324 6,78 Z" />
    <path
       style="opacity:0.15;fill:#000000;fill-opacity:1;fill-rule:nonzero;stroke:none"
       id="path3189"
       d="m 6,76 v 2 c 0,3.324 2.676,6 6,6 h 72 c 3.324,0 6,-2.676 6,-6 v -2 c 0,3.324 -2.676,6 -6,6 H 12 C 8.676,82 6,79.324 6,76 Z" />
    <path
       style="opacity:0.8;fill:#ffffff;fill-opacity:1;fill-rule:nonzero;stroke:none"
       id="path3191"
       d="m 6,72 v 2 c 0,3.324 2.676,6 6,6 h 72 c 3.324,0 6,-2.676 6,-6 v -2 c 0,3.324 -2.676,6 -6,6 H 12 C 8.676,78 6,75.324 6,72 Z" />
    <path
       style="opacity:0.15;fill:#000000;fill-opacity:1;fill-rule:nonzero;stroke:none"
       id="path3193"
       d="m 6,70 v 2 c 0,3.324 2.676,6 6,6 h 72 c 3.324,0 6,-2.676 6,-6 v -2 c 0,3.324 -2.676,6 -6,6 H 12 C 8.676,76 6,73.324 6,70 Z" />
    <path
       style="fill:url(#linearGradient3223);fill-opacity:1;fill-rule:nonzero;stroke:none"
       id="rect3195"
       d="M 12,6 C 8.676,6 6,8.676 6,12 v 56 c 0,3.324 2.676,6 6,6 h 72 c 3.324,0 6,-2.676 6,-6 V 12 C 90,8.676 87.324,6 84,6 H 75 V 9 H 69 V 6 Z" />
    <path
       style="fill:url(#linearGradient3220);fill-opacity:1;fill-rule:nonzero;stroke:none"
       id="rect3207"
       d="M 12,6 C 8.676,6 6,8.676 6,12 v 56 c 0,3.324 2.676,6 6,6 h 72 c 3.324,0 6,-2.676 6,-6 V 12 C 90,8.676 87.324,6 84,6 h -9 v 2 h 9 c 2.245802,0 4,1.7541975 4,4 v 56 c 0,2.245802 -1.754198,4 -4,4 H 12 C 9.7541975,72 8,70.245802 8,68 V 12 C 8,9.7541975 9.7541975,8 12,8 H 69 V 6 Z" />
  </g>
  <g
     transform="matrix(0.50514756,0,0,0.50514756,0.00549074,-0.50480406)"
     style="display:inline"
     id="layer3">
    <path
       style="font-style:normal;font-variant:normal;font-weight:bold;font-stretch:normal;font-size:18.27676201px;line-height:120.00000477%;font-family:BabelSans;-inkscape-font-specification:'BabelSans Bold';text-align:start;writing-mode:lr-tb;text-anchor:start;opacity:0.05;fill:none;stroke:#ffffff;stroke-width:6;stroke-linecap:butt;stroke-linejoin:miter;stroke-miterlimit:4;stroke-dasharray:none;stroke-opacity:1"
       id="path3775"
       transform="translate(0,-30)"
       d="m 23.34375,80 c -0.999135,1.4e-5 -1.848922,0.217621 -2.53125,0.65625 -0.682335,0.426471 -1.241979,0.973929 -1.65625,1.65625 -0.414274,0.670159 -0.692233,1.440529 -0.875,2.28125 -0.182768,0.84074 -0.281251,1.652395 -0.28125,2.46875 -1e-6,0.82855 0.0863,1.671458 0.28125,2.5 0.194952,0.816366 0.530107,1.560789 0.96875,2.21875 0.43864,0.657966 0.99298,1.179477 1.6875,1.59375 0.694513,0.414273 1.5443,0.624999 2.53125,0.625 0.49956,-10e-7 0.955416,-0.112244 1.40625,-0.34375 0.463003,-0.21932 0.929468,-0.443809 1.34375,-0.6875 v 0.8125 H 27.9375 V 86.8125 H 23.125 V 88.5 h 3.0625 v 2.46875 c -0.170591,0.18277 -0.374438,0.353788 -0.59375,0.5 -0.219329,0.146216 -0.462883,0.265341 -0.71875,0.375 -0.243698,0.109662 -0.481948,0.189079 -0.75,0.25 -0.255881,0.06092 -0.506316,0.09375 -0.75,0.09375 -0.694522,10e-7 -1.286993,-0.164135 -1.75,-0.46875 C 21.161985,91.401955 20.81149,90.999568 20.53125,90.5 20.263187,90.000441 20.059343,89.433914 19.9375,88.8125 c -0.109663,-0.621403 -0.156252,-1.222334 -0.15625,-1.84375 -1e-6,-0.621404 0.04659,-1.253582 0.15625,-1.875 0.121843,-0.6214 0.325688,-1.187926 0.59375,-1.6875 0.280239,-0.511739 0.64292,-0.914127 1.09375,-1.21875 0.463008,-0.316785 1.024228,-0.468738 1.71875,-0.46875 0.438636,1e-5 0.820381,0.07255 1.125,0.21875 0.31679,0.134042 0.593171,0.325702 0.8125,0.59375 0.231497,0.26807 0.416278,0.591041 0.5625,0.96875 0.15839,0.377732 0.296581,0.806063 0.40625,1.28125 L 27.78125,84.25 C 27.647209,83.616413 27.481496,83.055195 27.25,82.53125 27.030669,82.007327 26.740526,81.533982 26.375,81.15625 26.021641,80.778544 25.593307,80.507465 25.09375,80.3125 24.594178,80.105379 24.013891,80.000014 23.34375,80 Z m 7.25,0 v 1.78125 H 36.375 c -0.182773,0.251583 -0.360673,0.529689 -0.53125,0.78125 -0.158405,0.251584 -0.329423,0.485861 -0.5,0.75 L 30,92.03125 V 94 h 8.5625 v -1.84375 h -6.59375 c 0.377718,-0.540878 0.785409,-1.102395 1.1875,-1.71875 0.402084,-0.61635 0.797592,-1.233486 1.1875,-1.875 0.402084,-0.641503 0.797591,-1.295985 1.1875,-1.9375 0.3899,-0.641504 0.740393,-1.265126 1.09375,-1.84375 0.353344,-0.578608 0.676315,-1.103173 0.96875,-1.59375 0.304604,-0.503134 0.561921,-0.929036 0.78125,-1.28125 V 80 Z" />
    <path
       style="font-style:normal;font-variant:normal;font-weight:bold;font-stretch:normal;font-size:18.27676201px;line-height:120.00000477%;font-family:BabelSans;-inkscape-font-specification:'BabelSans Bold';text-align:start;writing-mode:lr-tb;text-anchor:start;opacity:0.2;fill:none;stroke:#ffffff;stroke-width:4;stroke-linecap:butt;stroke-linejoin:miter;stroke-miterlimit:4;stroke-dasharray:none;stroke-opacity:1"
       id="path3771"
       clip-path="url(#clipPath3321)"
       transform="translate(0,-30)"
       d="m 23.34375,80 c -0.999135,1.4e-5 -1.848922,0.217621 -2.53125,0.65625 -0.682335,0.426471 -1.241979,0.973929 -1.65625,1.65625 -0.414274,0.670159 -0.692233,1.440529 -0.875,2.28125 -0.182768,0.84074 -0.281251,1.652395 -0.28125,2.46875 -1e-6,0.82855 0.0863,1.671458 0.28125,2.5 0.194952,0.816366 0.530107,1.560789 0.96875,2.21875 0.43864,0.657966 0.99298,1.179477 1.6875,1.59375 0.694513,0.414273 1.5443,0.624999 2.53125,0.625 0.49956,-10e-7 0.955416,-0.112244 1.40625,-0.34375 0.463003,-0.21932 0.929468,-0.443809 1.34375,-0.6875 v 0.8125 H 27.9375 V 86.8125 H 23.125 V 88.5 h 3.0625 v 2.46875 c -0.170591,0.18277 -0.374438,0.353788 -0.59375,0.5 -0.219329,0.146216 -0.462883,0.265341 -0.71875,0.375 -0.243698,0.109662 -0.481948,0.189079 -0.75,0.25 -0.255881,0.06092 -0.506316,0.09375 -0.75,0.09375 -0.694522,10e-7 -1.286993,-0.164135 -1.75,-0.46875 C 21.161985,91.401955 20.81149,90.999568 20.53125,90.5 20.263187,90.000441 20.059343,89.433914 19.9375,88.8125 c -0.109663,-0.621403 -0.156252,-1.222334 -0.15625,-1.84375 -1e-6,-0.621404 0.04659,-1.253582 0.15625,-1.875 0.121843,-0.6214 0.325688,-1.187926 0.59375,-1.6875 0.280239,-0.511739 0.64292,-0.914127 1.09375,-1.21875 0.463008,-0.316785 1.024228,-0.468738 1.71875,-0.46875 0.438636,1e-5 0.820381,0.07255 1.125,0.21875 0.31679,0.134042 0.593171,0.325702 0.8125,0.59375 0.231497,0.26807 0.416278,0.591041 0.5625,0.96875 0.15839,0.377732 0.296581,0.806063 0.40625,1.28125 L 27.78125,84.25 C 27.647209,83.616413 27.481496,83.055195 27.25,82.53125 27.030669,82.007327 26.740526,81.533982 26.375,81.15625 26.021641,80.778544 25.593307,80.507465 25.09375,80.3125 24.594178,80.105379 24.013891,80.000014 23.34375,80 Z m 7.25,0 v 1.78125 H 36.375 c -0.182773,0.251583 -0.360673,0.529689 -0.53125,0.78125 -0.158405,0.251584 -0.329423,0.485861 -0.5,0.75 L 30,92.03125 V 94 h 8.5625 v -1.84375 h -6.59375 c 0.377718,-0.540878 0.785409,-1.102395 1.1875,-1.71875 0.402084,-0.61635 0.797592,-1.233486 1.1875,-1.875 0.402084,-0.641503 0.797591,-1.295985 1.1875,-1.9375 0.3899,-0.641504 0.740393,-1.265126 1.09375,-1.84375 0.353344,-0.578608 0.676315,-1.103173 0.96875,-1.59375 0.304604,-0.503134 0.561921,-0.929036 0.78125,-1.28125 V 80 Z" />
    <path
       style="font-style:normal;font-variant:normal;font-weight:bold;font-stretch:normal;font-size:18.27676201px;line-height:120.00000477%;font-family:BabelSans;-inkscape-font-specification:'BabelSans Bold';text-align:start;writing-mode:lr-tb;text-anchor:start;opacity:0.6;fill:none;stroke:#ffffff;stroke-width:2;stroke-linecap:butt;stroke-linejoin:miter;stroke-miterlimit:4;stroke-dasharray:none;stroke-opacity:1"
       id="path3310"
       clip-path="url(#clipPath3321)"
       transform="translate(0,-30)"
       d="m 23.34375,80 c -0.999135,1.4e-5 -1.848922,0.217621 -2.53125,0.65625 -0.682335,0.426471 -1.241979,0.973929 -1.65625,1.65625 -0.414274,0.670159 -0.692233,1.440529 -0.875,2.28125 -0.182768,0.84074 -0.281251,1.652395 -0.28125,2.46875 -1e-6,0.82855 0.0863,1.671458 0.28125,2.5 0.194952,0.816366 0.530107,1.560789 0.96875,2.21875 0.43864,0.657966 0.99298,1.179477 1.6875,1.59375 0.694513,0.414273 1.5443,0.624999 2.53125,0.625 0.49956,-10e-7 0.955416,-0.112244 1.40625,-0.34375 0.463003,-0.21932 0.929468,-0.443809 1.34375,-0.6875 v 0.8125 H 27.9375 V 86.8125 H 23.125 V 88.5 h 3.0625 v 2.46875 c -0.170591,0.18277 -0.374438,0.353788 -0.59375,0.5 -0.219329,0.146216 -0.462883,0.265341 -0.71875,0.375 -0.243698,0.109662 -0.481948,0.189079 -0.75,0.25 -0.255881,0.06092 -0.506316,0.09375 -0.75,0.09375 -0.694522,10e-7 -1.286993,-0.164135 -1.75,-0.46875 C 21.161985,91.401955 20.81149,90.999568 20.53125,90.5 20.263187,90.000441 20.059343,89.433914 19.9375,88.8125 c -0.109663,-0.621403 -0.156252,-1.222334 -0.15625,-1.84375 -1e-6,-0.621404 0.04659,-1.253582 0.15625,-1.875 0.121843,-0.6214 0.325688,-1.187926 0.59375,-1.6875 0.280239,-0.511739 0.64292,-0.914127 1.09375,-1.21875 0.463008,-0.316785 1.024228,-0.468738 1.71875,-0.46875 0.438636,1e-5 0.820381,0.07255 1.125,0.21875 0.31679,0.134042 0.593171,0.325702 0.8125,0.59375 0.231497,0.26807 0.416278,0.591041 0.5625,0.96875 0.15839,0.377732 0.296581,0.806063 0.40625,1.28125 L 27.78125,84.25 C 27.647209,83.616413 27.481496,83.055195 27.25,82.53125 27.030669,82.007327 26.740526,81.533982 26.375,81.15625 26.021641,80.778544 25.593307,80.507465 25.09375,80.3125 24.594178,80.105379 24.013891,80.000014 23.34375,80 Z m 7.25,0 v 1.78125 H 36.375 c -0.182773,0.251583 -0.360673,0.529689 -0.53125,0.78125 -0.158405,0.251584 -0.329423,0.485861 -0.5,0.75 L 30,92.03125 V 94 h 8.5625 v -1.84375 h -6.59375 c 0.377718,-0.540878 0.785409,-1.102395 1.1875,-1.71875 0.402084,-0.61635 0.797592,-1.233486 1.1875,-1.875 0.402084,-0.641503 0.797591,-1.295985 1.1875,-1.9375 0.3899,-0.641504 0.740393,-1.265126 1.09375,-1.84375 0.353344,-0.578608 0.676315,-1.103173 0.96875,-1.59375 0.304604,-0.503134 0.561921,-0.929036 0.78125,-1.28125 V 80 Z" />
    <path
       style="fill:#252525;fill-opacity:1;fill-rule:nonzero;stroke:none"
       id="rect3201"
       d="m 66,6 v 55 c 0,1.662 1.338,3 3,3 h 6 c 1.662,0 3,-1.338 3,-3 V 6 H 74 V 8 H 70 V 6 Z" />
    <rect
       style="fill:#4d4d4d;fill-opacity:1;fill-rule:nonzero;stroke:none"
       id="rect3247"
       y="8"
       x="70"
       height="49"
       width="4" />
    <rect
       style="fill:url(#linearGradient3360);fill-opacity:1;fill-rule:nonzero;stroke:#000000;stroke-width:0.5;stroke-linecap:square;stroke-linejoin:miter;stroke-miterlimit:4;stroke-dasharray:none;stroke-dashoffset:0;stroke-opacity:0.56363639"
       id="rect3211"
       y="56"
       x="69"
       ry="1"
       rx="1"
       height="4"
       width="6" />
    <path
       style="fill:none;stroke:#000000;stroke-width:2;stroke-linecap:square;stroke-linejoin:miter;stroke-miterlimit:4;stroke-dasharray:none;stroke-dashoffset:0;stroke-opacity:1;filter:url(#filter3243)"
       id="path3231"
       clip-path="url(#clipPath3235)"
       d="m 66,6 v 55 c 0,1.662 1.338,3 3,3 h 6 c 1.662,0 3,-1.338 3,-3 V 6 H 74 V 8 H 70 V 6 Z" />
    <path
       style="fill:url(#linearGradient948);fill-opacity:1;fill-rule:nonzero;stroke:#000000;stroke-width:0.5;stroke-linecap:square;stroke-linejoin:miter;stroke-miterlimit:4;stroke-dasharray:none;stroke-dashoffset:0;stroke-opacity:0.56363639"
       id="rect3249"
       d="M 69.5,51 C 69.230226,51 69,51.217964 69,51.5 v 3 c 0,0.282036 0.230229,0.5 0.5,0.5 h 1 C 70.769774,55 71,54.782036 71,54.5 V 54 h 1.5 c 0.277,0 0.5,-0.223 0.5,-0.5 v -1 C 73,52.223 72.777,52 72.5,52 H 71 V 51.5 C 71,51.217964 70.769771,51 70.5,51 Z" />
    <use
       xlink:href="#rect3249"
       height="96"
       width="96"
       y="0"
       x="0"
       id="use3308"
       transform="translate(0,-6)" />
    <use
       xlink:href="#use3308"
       height="96"
       width="96"
       y="0"
       x="0"
       id="use3310"
       transform="translate(0,-6)" />
    <use
       xlink:href="#use3310"
       height="96"
       width="96"
       y="0"
       x="0"
       id="use3312"
       transform="translate(0,-6)" />
    <use
       xlink:href="#use3312"
       height="96"
       width="96"
       y="0"
       x="0"
       id="use3314"
       transform="translate(0,-6)" />
    <use
       xlink:href="#use3314"
       height="96"
       width="96"
       y="0"
       x="0"
       id="use3316"
       transform="translate(0,-6)" />
    <use
       xlink:href="#use3316"
       height="96"
       width="96"
       y="0"
       x="0"
       id="use3318"
       transform="translate(0,-6)" />
    <use
       xlink:href="#use3318"
       height="96"
       width="96"
       y="0"
       x="0"
       id="use3320"
       transform="translate(0,-6)" />
    <path
       style="fill:url(#linearGradient950);fill-opacity:1;fill-rule:nonzero;stroke:#000000;stroke-width:0.5;stroke-linecap:square;stroke-linejoin:miter;stroke-miterlimit:4;stroke-dasharray:none;stroke-dashoffset:0;stroke-opacity:0.56363639"
       id="path3322"
       d="m 74.5,48 c 0.269774,0 0.5,0.217964 0.5,0.5 v 3 c 0,0.282036 -0.230229,0.5 -0.5,0.5 h -1 C 73.230226,52 73,51.782036 73,51.5 V 51 H 71.5 C 71.223,51 71,50.777 71,50.5 v -1 C 71,49.223 71.223,49 71.5,49 H 73 V 48.5 C 73,48.217964 73.230229,48 73.5,48 Z" />
    <use
       xlink:href="#path3322"
       height="96"
       width="96"
       y="0"
       x="0"
       id="use3340"
       transform="translate(0,-6)" />
    <use
       xlink:href="#use3340"
       height="96"
       width="96"
       y="0"
       x="0"
       id="use3342"
       transform="translate(0,-6)" />
    <use
       xlink:href="#use3342"
       height="96"
       width="96"
       y="0"
       x="0"
       id="use3344"
       transform="translate(0,-6)" />
    <use
       xlink:href="#use3344"
       height="96"
       width="96"
       y="0"
       x="0"
       id="use3346"
       transform="translate(0,-6)" />
    <use
       xlink:href="#use3346"
       height="96"
       width="96"
       y="0"
       x="0"
       id="use3348"
       transform="translate(0,-6)" />
    <use
       xlink:href="#use3348"
       height="96"
       width="96"
       y="0"
       x="0"
       id="use3350"
       transform="translate(0,-6)" />
    <path
       style="fill:url(#linearGradient3393);fill-opacity:1;fill-rule:nonzero;stroke:none"
       id="path3376"
       d="m 65,6 v 55 c 0,2.202295 1.797705,4 4,4 h 6 c 2.202295,0 4,-1.797705 4,-4 V 6 h -1 v 55 c 0,1.662 -1.338,3 -3,3 h -6 c -1.662,0 -3,-1.338 -3,-3 V 6 Z" />
    <path
       style="fill:#000000;fill-opacity:1;fill-rule:nonzero;stroke:#000000;stroke-width:0.49999994;stroke-linecap:square;stroke-linejoin:miter;stroke-miterlimit:4;stroke-dasharray:none;stroke-dashoffset:0;stroke-opacity:0.56363639;filter:url(#filter3429)"
       id="path3433"
       transform="translate(0,-2)"
       d="m 69.5,10.53125 c -1.027701,0 -1.96875,0.765203 -1.96875,1.8125 v 10.8125 C 67.531245,24.203555 68.449331,25 69.5,25 h 5 c 1.050668,0 1.96875,-0.796448 1.96875,-1.84375 v -10.8125 c -3e-6,-1.047297 -0.941051,-1.8125 -1.96875,-1.8125 z m 1.0625,9.0625 h 2.875 v 1.75 h -2.875 z" />
    <path
       style="fill:url(#linearGradient3516);fill-opacity:1;fill-rule:nonzero;stroke:none"
       id="rect3403"
       d="M 69.229249,9.021415 C 68.54211,9.021415 68,9.503785 68,10.102963 L 67.9949,20.918451 C 67.994922,21.51763 68.537034,22 69.224171,22 h 5.583221 c 0.687139,0 1.229249,-0.48237 1.229249,-1.081549 l 0.0051,-10.815488 c 0,-0.599178 -0.542112,-1.081548 -1.229249,-1.081548 h -5.583221 z m 0.704303,7.949648 h 4.101324 v 3.118378 h -4.101324 z" />
    <path
       style="fill:url(#linearGradient3489);fill-opacity:1;fill-rule:nonzero;stroke:none"
       id="rect3470"
       d="m 74.5625,9.96875 c 0.277,0 0.5,0.223 0.5,0.5 v 10.0625 c 0,0.277 -0.223,0.5 -0.5,0.5 h -5.09375 c -0.277,0 -0.499999,-0.223 -0.5,-0.5 v -10.0625 c 0,-0.277 0.223001,-0.5 0.5,-0.5 z M 74.125,16.9375 H 70 v 3.125 h 4.125 z" />
    <rect
       style="fill:url(#linearGradient3530);fill-opacity:1;fill-rule:nonzero;stroke:#000000;stroke-width:1;stroke-linecap:square;stroke-linejoin:miter;stroke-miterlimit:4;stroke-dasharray:none;stroke-dashoffset:0;stroke-opacity:0.56363639"
       id="rect3399"
       y="7.5"
       x="70.3106"
       ry="0.5"
       rx="0.56313455"
       height="5"
       width="3.3788073" />
    <rect
       style="opacity:0.3;fill:#000000;fill-opacity:1;fill-rule:nonzero;stroke:none"
       id="rect3518"
       y="16"
       x="69.984634"
       height="1"
       width="4" />
    <path
       style="font-style:normal;font-variant:normal;font-weight:bold;font-stretch:normal;font-size:18.27676201px;line-height:120.00000477%;font-family:BabelSans;-inkscape-font-specification:'BabelSans Bold';text-align:start;writing-mode:lr-tb;text-anchor:start;fill:#333333;fill-opacity:1;stroke:none"
       id="path2538"
       d="m 23.34375,50 c -0.999135,1.4e-5 -1.848922,0.217621 -2.53125,0.65625 -0.682335,0.426471 -1.241979,0.973929 -1.65625,1.65625 -0.414274,0.670159 -0.692233,1.440529 -0.875,2.28125 -0.182768,0.84074 -0.281251,1.652395 -0.28125,2.46875 -1e-6,0.82855 0.0863,1.671458 0.28125,2.5 0.194952,0.816366 0.530107,1.560789 0.96875,2.21875 0.43864,0.657966 0.99298,1.179477 1.6875,1.59375 0.694513,0.414273 1.5443,0.624999 2.53125,0.625 0.49956,-10e-7 0.955416,-0.112244 1.40625,-0.34375 0.463003,-0.21932 0.929468,-0.443809 1.34375,-0.6875 v 0.8125 H 27.9375 V 56.8125 H 23.125 V 58.5 h 3.0625 v 2.46875 c -0.170591,0.18277 -0.374438,0.353788 -0.59375,0.5 -0.219329,0.146216 -0.462883,0.265341 -0.71875,0.375 -0.243698,0.109662 -0.481948,0.189079 -0.75,0.25 -0.255881,0.06092 -0.506316,0.09375 -0.75,0.09375 -0.694522,10e-7 -1.286993,-0.164135 -1.75,-0.46875 C 21.161985,61.401955 20.81149,60.999568 20.53125,60.5 20.263187,60.000441 20.059343,59.433914 19.9375,58.8125 c -0.109663,-0.621403 -0.156252,-1.222334 -0.15625,-1.84375 -1e-6,-0.621404 0.04659,-1.253582 0.15625,-1.875 0.121843,-0.6214 0.325688,-1.187926 0.59375,-1.6875 0.280239,-0.511739 0.64292,-0.914127 1.09375,-1.21875 0.463008,-0.316785 1.024228,-0.468738 1.71875,-0.46875 0.438636,1e-5 0.820381,0.07255 1.125,0.21875 0.31679,0.134042 0.593171,0.325702 0.8125,0.59375 0.231497,0.26807 0.416278,0.591041 0.5625,0.96875 0.15839,0.377732 0.296581,0.806063 0.40625,1.28125 L 27.78125,54.25 C 27.647209,53.616413 27.481496,53.055195 27.25,52.53125 27.030669,52.007327 26.740526,51.533982 26.375,51.15625 26.021641,50.778544 25.593307,50.507465 25.09375,50.3125 24.594178,50.105379 24.013891,50.000014 23.34375,50 Z m 7.25,0 v 1.78125 H 36.375 c -0.182773,0.251583 -0.360673,0.529689 -0.53125,0.78125 -0.158405,0.251584 -0.329423,0.485861 -0.5,0.75 L 30,62.03125 V 64 h 8.5625 v -1.84375 h -6.59375 c 0.377718,-0.540878 0.785409,-1.102395 1.1875,-1.71875 0.402084,-0.61635 0.797592,-1.233486 1.1875,-1.875 0.402084,-0.641503 0.797591,-1.295985 1.1875,-1.9375 0.3899,-0.641504 0.740393,-1.265126 1.09375,-1.84375 0.353344,-0.578608 0.676315,-1.103173 0.96875,-1.59375 0.304604,-0.503134 0.561921,-0.929036 0.78125,-1.28125 V 50 Z" />
    <path
       style="font-style:normal;font-variant:normal;font-weight:bold;font-stretch:normal;font-size:18.27676201px;line-height:120.00000477%;font-family:BabelSans;-inkscape-font-specification:'BabelSans Bold';text-align:start;writing-mode:lr-tb;text-anchor:start;opacity:0.4;fill:#000000;fill-opacity:1;stroke:none"
       id="path2535"
       d="m 23.34375,50 c -0.999135,1.4e-5 -1.848922,0.217621 -2.53125,0.65625 -0.682335,0.426471 -1.241979,0.973929 -1.65625,1.65625 -0.414274,0.670159 -0.692233,1.440529 -0.875,2.28125 -0.182768,0.84074 -0.281251,1.652395 -0.28125,2.46875 0,0.165813 0.02416,0.333267 0.03125,0.5 0.03165,-0.648399 0.104744,-1.300568 0.25,-1.96875 0.182767,-0.840721 0.460726,-1.611091 0.875,-2.28125 0.414271,-0.682321 0.973915,-1.229779 1.65625,-1.65625 0.682328,-0.438629 1.532115,-0.656236 2.53125,-0.65625 0.670141,1.4e-5 1.250428,0.105379 1.75,0.3125 0.499557,0.194965 0.927891,0.466044 1.28125,0.84375 0.365526,0.377732 0.655669,0.851077 0.875,1.375 0.11187,0.253195 0.227505,0.506686 0.3125,0.78125 L 27.78125,54.25 C 27.647209,53.616413 27.481496,53.055195 27.25,52.53125 27.030669,52.007327 26.740526,51.533982 26.375,51.15625 26.021641,50.778544 25.593307,50.507465 25.09375,50.3125 24.594178,50.105379 24.013891,50.000014 23.34375,50 Z m 7.25,0 v 1 H 38.375 v -1 z m 5.09375,2.78125 c -0.115652,0.172292 -0.224018,0.345845 -0.34375,0.53125 L 30,62.03125 v 1 l 5.34375,-8.71875 c 0.170577,-0.264139 0.341595,-0.498416 0.5,-0.75 0.170577,-0.251561 0.348477,-0.529667 0.53125,-0.78125 z M 23.125,56.8125 v 1 h 4.8125 v -1 z m -3.3125,0.65625 c -0.007,0.166994 -0.03125,0.334131 -0.03125,0.5 -2e-6,0.621416 0.04659,1.222347 0.15625,1.84375 0.121843,0.621414 0.325687,1.187941 0.59375,1.6875 0.28024,0.499568 0.630735,0.901955 1.09375,1.21875 0.463007,0.304615 1.055478,0.468751 1.75,0.46875 0.243684,2e-6 0.494119,-0.03283 0.75,-0.09375 0.268052,-0.06092 0.506302,-0.140338 0.75,-0.25 0.255867,-0.109659 0.499421,-0.228784 0.71875,-0.375 0.219312,-0.146212 0.423159,-0.31723 0.59375,-0.5 v -1 c -0.170591,0.18277 -0.374438,0.353788 -0.59375,0.5 -0.219329,0.146216 -0.462883,0.265341 -0.71875,0.375 -0.243698,0.109662 -0.481948,0.189079 -0.75,0.25 -0.255881,0.06092 -0.506316,0.09375 -0.75,0.09375 -0.694522,10e-7 -1.286993,-0.164135 -1.75,-0.46875 C 21.161985,61.401955 20.81149,60.999568 20.53125,60.5 20.263187,60.000441 20.059343,59.433914 19.9375,58.8125 19.85711,58.356965 19.831593,57.918417 19.8125,57.46875 Z m 12.84375,4.6875 c -0.232668,0.334823 -0.468087,0.685809 -0.6875,1 h 6.59375 v -1 z" />
  </g>
</svg>
