<?xml version="1.0" encoding="UTF-8" standalone="no"?>
<svg
   xmlns:dc="http://purl.org/dc/elements/1.1/"
   xmlns:cc="http://creativecommons.org/ns#"
   xmlns:rdf="http://www.w3.org/1999/02/22-rdf-syntax-ns#"
   xmlns:svg="http://www.w3.org/2000/svg"
   xmlns="http://www.w3.org/2000/svg"
   xmlns:xlink="http://www.w3.org/1999/xlink"
   width="48px"
   height="48px"
   id="svg18157"
   version="1.1">
  <defs
     id="defs18159">
    <linearGradient
       xlink:href="#linearGradient3454-2-5-0-3"
       id="linearGradient12489"
       gradientUnits="userSpaceOnUse"
       gradientTransform="matrix(0.89189031,0,0,1.0580283,3.1206609,5.3536023)"
       x1="42.470848"
       y1="11.952797"
       x2="42.470848"
       y2="35.581654" />
    <linearGradient
       id="linearGradient3454-2-5-0-3">
      <stop
         offset="0"
         style="stop-color:#ffffff;stop-opacity:1"
         id="stop3456-4-9-38-1" />
      <stop
         offset="0.0097359"
         style="stop-color:#ffffff;stop-opacity:0.23529412"
         id="stop3458-39-80-3-5" />
      <stop
         offset="0.99001008"
         style="stop-color:#ffffff;stop-opacity:0.15686275"
         id="stop3460-7-0-2-4" />
      <stop
         offset="1"
         style="stop-color:#ffffff;stop-opacity:0.39215687"
         id="stop3462-0-9-8-7" />
    </linearGradient>
    <linearGradient
       xlink:href="#linearGradient6129-963-697-142-998-580-273-44-2-2"
       id="linearGradient12487"
       gradientUnits="userSpaceOnUse"
       gradientTransform="matrix(1.1446925,0,0,0.9977536,-3.466138,1.0988397)"
       x1="22.934725"
       y1="49.629246"
       x2="22.809399"
       y2="36.657963" />
    <linearGradient
       id="linearGradient6129-963-697-142-998-580-273-44-2-2">
      <stop
         id="stop2661-01-6-2"
         style="stop-color:#0a0a0a;stop-opacity:0.498"
         offset="0" />
      <stop
         id="stop2663-64-5-5"
         style="stop-color:#0a0a0a;stop-opacity:0"
         offset="1" />
    </linearGradient>
    <linearGradient
       xlink:href="#linearGradient4632-0-6-4-7"
       id="linearGradient12481"
       gradientUnits="userSpaceOnUse"
       gradientTransform="matrix(1,0,0,1.0357143,2.0849371e-6,-1.5890903)"
       x1="35.792694"
       y1="17.118193"
       x2="35.792694"
       y2="43.761127" />
    <linearGradient
       id="linearGradient4632-0-6-4">
      <stop
         style="stop-color:#aacb7d;stop-opacity:1;"
         offset="0"
         id="stop4634-4-4-7" />
      <stop
         style="stop-color:#709937;stop-opacity:1;"
         offset="1"
         id="stop4636-3-1-5" />
    </linearGradient>
    <radialGradient
       xlink:href="#linearGradient5060-820-91-9-0"
       id="radialGradient12475"
       gradientUnits="userSpaceOnUse"
       gradientTransform="matrix(-0.03079083,0,0,0.02470588,23.389752,31.94164)"
       cx="605.71429"
       cy="486.64789"
       fx="605.71429"
       fy="486.64789"
       r="117.14286" />
    <linearGradient
       id="linearGradient5060-820-91-9-0">
      <stop
         id="stop2681-778-5-1"
         style="stop-color:#000000;stop-opacity:1"
         offset="0" />
      <stop
         id="stop2683-2-86-2"
         style="stop-color:#000000;stop-opacity:0"
         offset="1" />
    </linearGradient>
    <radialGradient
       xlink:href="#linearGradient5060-179-37-4-0"
       id="radialGradient12471"
       gradientUnits="userSpaceOnUse"
       gradientTransform="matrix(0.03079083,0,0,0.02470588,24.610252,31.94164)"
       cx="605.71429"
       cy="486.64789"
       fx="605.71429"
       fy="486.64789"
       r="117.14286" />
    <linearGradient
       id="linearGradient5060-179-37-4-0">
      <stop
         id="stop2675-91-9-2"
         style="stop-color:#000000;stop-opacity:1"
         offset="0" />
      <stop
         id="stop2677-09-0-9"
         style="stop-color:#000000;stop-opacity:0"
         offset="1" />
    </linearGradient>
    <linearGradient
       xlink:href="#linearGradient5048-585-73-1-5"
       id="linearGradient12467"
       gradientUnits="userSpaceOnUse"
       gradientTransform="matrix(0.07938856,0,0,0.02470588,-4.6932879,31.94164)"
       x1="302.85715"
       y1="366.64789"
       x2="302.85715"
       y2="609.50507" />
    <linearGradient
       id="linearGradient5048-585-73-1-5">
      <stop
         id="stop2667-99-4-6"
         style="stop-color:#000000;stop-opacity:0"
         offset="0" />
      <stop
         id="stop2669-5-9-4"
         style="stop-color:#000000;stop-opacity:1"
         offset="0.5" />
      <stop
         id="stop2671-56-4-2"
         style="stop-color:#000000;stop-opacity:0"
         offset="1" />
    </linearGradient>
    <linearGradient
       xlink:href="#linearGradient4507-0-4-7"
       id="linearGradient12463"
       gradientUnits="userSpaceOnUse"
       gradientTransform="matrix(0.89189031,0,0,1.0580283,3.1206621,5.3535997)"
       x1="21.37039"
       y1="4.2476678"
       x2="21.37039"
       y2="34.143417" />
    <linearGradient
       id="linearGradient4507-0-4-7">
      <stop
         id="stop4509-35-6-1"
         style="stop-color:#ffffff;stop-opacity:1"
         offset="0" />
      <stop
         id="stop4511-46-3-8"
         style="stop-color:#ffffff;stop-opacity:0.23529412"
         offset="0.07395859" />
      <stop
         id="stop4513-15-5-9"
         style="stop-color:#ffffff;stop-opacity:0.15686275"
         offset="0.99001008" />
      <stop
         id="stop4515-1-1-8"
         style="stop-color:#ffffff;stop-opacity:0.39215687"
         offset="1" />
    </linearGradient>
    <linearGradient
       id="linearGradient4646-7-4-3">
      <stop
         offset="0"
         style="stop-color:#f9f9f9;stop-opacity:1"
         id="stop4648-8-0-3" />
      <stop
         offset="1"
         style="stop-color:#d8d8d8;stop-opacity:1"
         id="stop4650-1-7-3" />
    </linearGradient>
    <linearGradient
       id="linearGradient3104-8-8-97-4-6-11-5-5">
      <stop
         offset="0"
         style="stop-color:#000000;stop-opacity:0.32173914"
         id="stop3106-5-4-3-5-0-2-1-0" />
      <stop
         offset="1"
         style="stop-color:#000000;stop-opacity:0.27826086"
         id="stop3108-4-3-7-8-2-0-7-9" />
    </linearGradient>
    <linearGradient
       y2="3.6336823"
       x2="-51.786404"
       y1="53.514328"
       x1="-51.786404"
       gradientTransform="matrix(0.80749834,0,0,0.83374395,106.87672,-0.06984031)"
       gradientUnits="userSpaceOnUse"
       id="linearGradient18155"
       xlink:href="#linearGradient3104-8-8-97-4-6-11-5-5" />
    <linearGradient
       gradientUnits="userSpaceOnUse"
       y2="44.376751"
       x2="22.559322"
       y1="16.466301"
       x1="22.559322"
       id="linearGradient3840"
       xlink:href="#linearGradient7012-661-145-733-759-865-745" />
    <radialGradient
       r="21"
       fy="5.01718"
       fx="3"
       cy="5.01718"
       cx="3"
       gradientTransform="matrix(-1.274898e-8,1.7142916,-2.159331,-1.4599595e-8,12.809361,2.8570011)"
       gradientUnits="userSpaceOnUse"
       id="radialGradient3070"
       xlink:href="#linearGradient3484" />
    <linearGradient
       y2="16.19013"
       x2="62.988873"
       y1="13.182598"
       x1="62.988873"
       gradientTransform="translate(-50.940898,0)"
       gradientUnits="userSpaceOnUse"
       id="linearGradient3068"
       xlink:href="#linearGradient6404" />
    <linearGradient
       y2="15.943953"
       x2="65.340263"
       y1="45.114193"
       x1="82.453476"
       gradientTransform="translate(-53.765393,-0.1141929)"
       gradientUnits="userSpaceOnUse"
       id="linearGradient3061"
       xlink:href="#linearGradient3390" />
    <linearGradient
       y2="36.657963"
       x2="22.809399"
       y1="49.629246"
       x1="22.934725"
       gradientTransform="matrix(1.1446925,0,0,0.9977536,-3.4661413,1.0988425)"
       gradientUnits="userSpaceOnUse"
       id="linearGradient3056"
       xlink:href="#linearGradient6129-963-697-142-998-580-273" />
    <radialGradient
       r="20.979567"
       fy="8.3021259"
       fx="7.2646537"
       cy="8.3021259"
       cx="7.2646537"
       gradientTransform="matrix(0,1.2079744,-1.6271642,0,26.371748,8.2664685)"
       gradientUnits="userSpaceOnUse"
       id="radialGradient3053"
       xlink:href="#linearGradient6087-437-184-795-110-662-495" />
    <linearGradient
       y2="33.95525"
       x2="15.214532"
       y1="22.292103"
       x1="11.566265"
       gradientUnits="userSpaceOnUse"
       id="linearGradient3050"
       xlink:href="#linearGradient8265-821-176-38-919-66-249" />
    <linearGradient
       gradientUnits="userSpaceOnUse"
       xlink:href="#linearGradient8265-821-176-38-919-66-249"
       id="linearGradient3466"
       y2="33.95525"
       x2="15.214532"
       y1="22.292103"
       x1="11.566265" />
    <linearGradient
       id="linearGradient8265-821-176-38-919-66-249">
      <stop
         offset="0"
         style="stop-color:#ffffff;stop-opacity:0.2"
         id="stop2687" />
      <stop
         offset="1"
         style="stop-color:#ffffff;stop-opacity:0"
         id="stop2689" />
    </linearGradient>
    <radialGradient
       gradientTransform="matrix(0,1.2079744,-1.6271642,0,26.371748,8.2664685)"
       gradientUnits="userSpaceOnUse"
       xlink:href="#linearGradient6087-437-184-795-110-662-495"
       id="radialGradient2442-940-759"
       fy="8.3021259"
       fx="7.2646537"
       r="20.979567"
       cy="8.3021259"
       cx="7.2646537" />
    <linearGradient
       id="linearGradient6087-437-184-795-110-662-495">
      <stop
         offset="0"
         style="stop-color:#ffffff;stop-opacity:0.40000001"
         id="stop2693" />
      <stop
         offset="1"
         style="stop-color:#ffffff;stop-opacity:0"
         id="stop2695" />
    </linearGradient>
    <linearGradient
       gradientTransform="matrix(1.1446925,0,0,0.9977536,-3.4661413,1.0988425)"
       gradientUnits="userSpaceOnUse"
       xlink:href="#linearGradient6129-963-697-142-998-580-273"
       id="linearGradient6462-657-405"
       y2="36.657963"
       x2="22.809399"
       y1="49.629246"
       x1="22.934725" />
    <linearGradient
       id="linearGradient6129-963-697-142-998-580-273">
      <stop
         offset="0"
         style="stop-color:#0a0a0a;stop-opacity:0.498"
         id="stop2661" />
      <stop
         offset="1"
         style="stop-color:#0a0a0a;stop-opacity:0"
         id="stop2663" />
    </linearGradient>
    <radialGradient
       gradientTransform="matrix(1.5646925,-9.5143002e-8,6.1772287e-8,1.015888,-86.212573,8.1461173)"
       gradientUnits="userSpaceOnUse"
       xlink:href="#linearGradient7012-661-145-733-759-865-745"
       id="radialGradient3404"
       fy="14.113381"
       fx="63.969177"
       r="23.097054"
       cy="14.113381"
       cx="63.969177" />
    <linearGradient
       id="linearGradient7012-661-145-733-759-865-745">
      <stop
         offset="0"
         style="stop-color:#aacb7d;stop-opacity:1"
         id="stop2699" />
      <stop
         offset="1"
         style="stop-color:#709937;stop-opacity:1"
         id="stop2701" />
    </linearGradient>
    <linearGradient
       gradientTransform="translate(-53.765393,-0.1141929)"
       gradientUnits="userSpaceOnUse"
       xlink:href="#linearGradient3390"
       id="linearGradient3412"
       y2="15.943953"
       x2="65.340263"
       y1="45.114193"
       x1="82.453476" />
    <linearGradient
       id="linearGradient3390">
      <stop
         offset="0"
         style="stop-color:#51751e;stop-opacity:1"
         id="stop3392" />
      <stop
         offset="1"
         style="stop-color:#51751e;stop-opacity:1"
         id="stop3394" />
    </linearGradient>
    <linearGradient
       gradientTransform="matrix(0.08284024,0,0,0.03705882,-5.9408285,25.412461)"
       gradientUnits="userSpaceOnUse"
       xlink:href="#linearGradient5048-585"
       id="linearGradient7596-975"
       y2="609.50507"
       x2="302.85715"
       y1="366.64789"
       x1="302.85715" />
    <linearGradient
       id="linearGradient5048-585">
      <stop
         offset="0"
         style="stop-color:#000000;stop-opacity:0"
         id="stop2667" />
      <stop
         offset="0.5"
         style="stop-color:#000000;stop-opacity:1"
         id="stop2669" />
      <stop
         offset="1"
         style="stop-color:#000000;stop-opacity:0"
         id="stop2671" />
    </linearGradient>
    <radialGradient
       gradientTransform="matrix(0.03212956,0,0,0.03705882,24.636785,25.412461)"
       gradientUnits="userSpaceOnUse"
       xlink:href="#linearGradient5060-179"
       id="radialGradient7598-526"
       fy="486.64789"
       fx="605.71429"
       r="117.14286"
       cy="486.64789"
       cx="605.71429" />
    <linearGradient
       id="linearGradient5060-179">
      <stop
         offset="0"
         style="stop-color:#000000;stop-opacity:1"
         id="stop2675" />
      <stop
         offset="1"
         style="stop-color:#000000;stop-opacity:0"
         id="stop2677" />
    </linearGradient>
    <radialGradient
       gradientTransform="matrix(-0.03212956,0,0,0.03705882,23.363215,25.412461)"
       gradientUnits="userSpaceOnUse"
       xlink:href="#linearGradient5060-820"
       id="radialGradient7600-312"
       fy="486.64789"
       fx="605.71429"
       r="117.14286"
       cy="486.64789"
       cx="605.71429" />
    <linearGradient
       id="linearGradient5060-820">
      <stop
         offset="0"
         style="stop-color:#000000;stop-opacity:1"
         id="stop2681" />
      <stop
         offset="1"
         style="stop-color:#000000;stop-opacity:0"
         id="stop2683" />
    </linearGradient>
    <linearGradient
       gradientTransform="translate(-50.940898,0)"
       gradientUnits="userSpaceOnUse"
       xlink:href="#linearGradient6404"
       id="linearGradient3482"
       y2="16.19013"
       x2="62.988873"
       y1="13.182598"
       x1="62.988873" />
    <linearGradient
       id="linearGradient6404">
      <stop
         offset="0"
         style="stop-color:#f9f9f9;stop-opacity:1"
         id="stop6406" />
      <stop
         offset="1"
         style="stop-color:#c9c9c9;stop-opacity:1"
         id="stop6408" />
    </linearGradient>
    <radialGradient
       gradientTransform="matrix(-1.274898e-8,1.7142916,-2.159331,-1.4599595e-8,12.809361,2.8570011)"
       gradientUnits="userSpaceOnUse"
       xlink:href="#linearGradient3484"
       id="radialGradient3470"
       fy="5.01718"
       fx="3"
       r="21"
       cy="5.01718"
       cx="3" />
    <linearGradient
       id="linearGradient3484">
      <stop
         offset="0"
         style="stop-color:#bdbdbd;stop-opacity:1"
         id="stop3486" />
      <stop
         offset="1"
         style="stop-color:#d0d0d0;stop-opacity:1"
         id="stop3488" />
    </linearGradient>
    <linearGradient
       gradientTransform="matrix(0.2014014,0,0,0.2014015,18.110304,20.311705)"
       gradientUnits="userSpaceOnUse"
       xlink:href="#linearGradient5128"
       id="linearGradient2606"
       y2="20.895"
       x2="84.63858"
       y1="105.105"
       x1="86.132919" />
    <linearGradient
       id="linearGradient5128">
      <stop
         offset="0"
         style="stop-color:#ffffff;stop-opacity:1"
         id="stop5130" />
      <stop
         offset="1"
         style="stop-color:#959595;stop-opacity:1"
         id="stop5132" />
    </linearGradient>
    <linearGradient
       gradientUnits="userSpaceOnUse"
       xlink:href="#linearGradient3309"
       id="linearGradient3413"
       y2="47.012184"
       x2="32.036148"
       y1="19"
       x1="32.036148" />
    <linearGradient
       gradientUnits="userSpaceOnUse"
       id="linearGradient3309"
       y2="122.8994"
       x2="63.9995"
       y1="3.1001"
       x1="63.9995">
      <stop
         offset="0"
         style="stop-color:#f6f6f6;stop-opacity:1"
         id="stop3311" />
      <stop
         offset="1"
         style="stop-color:#d2d2d2;stop-opacity:1"
         id="stop3313" />
    </linearGradient>
    <linearGradient
       gradientUnits="userSpaceOnUse"
       xlink:href="#linearGradient3397"
       id="linearGradient3415"
       y2="47.044857"
       x2="25.922546"
       y1="19"
       x1="25.922546" />
    <linearGradient
       id="linearGradient3397">
      <stop
         offset="0"
         style="stop-color:#a0a0a0;stop-opacity:1"
         id="stop3399" />
      <stop
         offset="1"
         style="stop-color:#787878;stop-opacity:1"
         id="stop3401" />
    </linearGradient>
    <linearGradient
       xlink:href="#linearGradient6129-963-697-142-998-580-273-44-2-2"
       id="linearGradient5887"
       gradientUnits="userSpaceOnUse"
       gradientTransform="matrix(2.2041262,0,0,1.9531236,44.81525,2.9681362)"
       x1="22.934725"
       y1="49.629246"
       x2="22.934725"
       y2="36.599415" />
    <linearGradient
       xlink:href="#linearGradient4632-0-6-4-7"
       id="linearGradient5883"
       gradientUnits="userSpaceOnUse"
       gradientTransform="matrix(0.72580649,0,0,0.74516186,116.81336,18.325446)"
       x1="-91"
       y1="43.999817"
       x2="-91"
       y2="119.05979" />
    <linearGradient
       id="linearGradient4632-0-6-4-7">
      <stop
         style="stop-color:#55a7f3;stop-opacity:1;"
         offset="0"
         id="stop4634-4-4-7-5" />
      <stop
         style="stop-color:#1374cf;stop-opacity:1;"
         offset="1"
         id="stop4636-3-1-5-3" />
    </linearGradient>
    <linearGradient
       x1="32.891998"
       y1="8.059"
       gradientTransform="matrix(1.1538423,0,0,1.1746103,-5.728901,4.7207932)"
       x2="36.358002"
       gradientUnits="userSpaceOnUse"
       y2="5.4565001"
       id="linearGradient3225">
      <stop
         offset="0"
         style="stop-color:#ae4be3;stop-opacity:1"
         id="stop8591" />
      <stop
         offset="1"
         style="stop-color:#8234c8;stop-opacity:1"
         id="stop8593" />
    </linearGradient>
    <radialGradient
       cx="48"
       cy="90.171875"
       r="42"
       fx="48"
       fy="90.171875"
       id="radialGradient3619-6"
       xlink:href="#linearGradient3737"
       gradientUnits="userSpaceOnUse"
       gradientTransform="matrix(0.49599117,0,0,0.42857136,0.1924192,4.3549156)" />
    <linearGradient
       id="linearGradient3737">
      <stop
         offset="0"
         style="stop-color:#ffffff;stop-opacity:1"
         id="stop3739" />
      <stop
         offset="1"
         style="stop-color:#ffffff;stop-opacity:0"
         id="stop3741" />
    </linearGradient>
    <linearGradient
       x1="7.3709002"
       y1="51.470146"
       x2="23.76619"
       y2="51.433136"
       id="linearGradient3748"
       xlink:href="#linearGradient3742"
       gradientUnits="userSpaceOnUse"
       gradientTransform="matrix(0,-0.54642861,0.42857142,0,3.428572,46.278573)" />
    <linearGradient
       id="linearGradient3742">
      <stop
         id="stop3744"
         style="stop-color:#3e0e78;stop-opacity:1"
         offset="0" />
      <stop
         id="stop3746"
         style="stop-color:#591f9a;stop-opacity:1"
         offset="1" />
    </linearGradient>
    <linearGradient
       x1="48"
       y1="90"
       x2="48"
       y2="5.9877172"
       id="linearGradient3617"
       xlink:href="#ButtonColor-7"
       gradientUnits="userSpaceOnUse"
       gradientTransform="matrix(0.42857142,0,0,0.42857142,227.50536,-101.23132)" />
    <linearGradient
       x1="10.31979"
       y1="21"
       x2="10.31979"
       y2="0.99929649"
       id="ButtonColor-7"
       gradientUnits="userSpaceOnUse">
      <stop
         id="stop3189"
         style="stop-color:#7831a8;stop-opacity:1"
         offset="0" />
      <stop
         id="stop3191"
         style="stop-color:#935fc4;stop-opacity:1"
         offset="1" />
    </linearGradient>
    <linearGradient
       xlink:href="#linearGradient3737"
       id="linearGradient2015"
       gradientUnits="userSpaceOnUse"
       x1="36.357143"
       y1="6"
       x2="36.357143"
       y2="63.893143"
       gradientTransform="matrix(0.4285717,0,0,0.43033246,227.50536,-101.24189)" />
    <linearGradient
       xlink:href="#ButtonShadow-0"
       id="linearGradient1974"
       gradientUnits="userSpaceOnUse"
       gradientTransform="matrix(0.88966473,0,0,-0.88897608,103.82866,91.764071)"
       x1="32.251034"
       y1="6.1317081"
       x2="32.251034"
       y2="90.238609" />
    <linearGradient
       gradientTransform="matrix(1.0058652,0,0,0.994169,100,0)"
       gradientUnits="userSpaceOnUse"
       id="ButtonShadow-0"
       y2="7.0165396"
       x2="45.447727"
       y1="92.539597"
       x1="45.447727">
      <stop
         offset="0"
         style="stop-color:#000000;stop-opacity:1"
         id="stop3750-8" />
      <stop
         offset="1"
         style="stop-color:#000000;stop-opacity:0.58823532"
         id="stop3752-5-4" />
    </linearGradient>
    <linearGradient
       xlink:href="#ButtonShadow-0"
       id="linearGradient1976"
       gradientUnits="userSpaceOnUse"
       gradientTransform="matrix(0.88668581,0,0,-0.88621557,103.97166,91.631566)"
       x1="32.251034"
       y1="6.1317081"
       x2="32.251034"
       y2="90.238609" />
    <linearGradient
       xlink:href="#ButtonShadow-0"
       id="linearGradient1978"
       gradientUnits="userSpaceOnUse"
       gradientTransform="matrix(0.90932204,0,0,-0.90907903,8.9451063,90.567956)"
       x1="32.251034"
       y1="6.1317081"
       x2="32.251034"
       y2="90.238609" />
    <linearGradient
       gradientTransform="matrix(0.88394566,0,0,-0.88394572,10.163169,89.361561)"
       gradientUnits="userSpaceOnUse"
       xlink:href="#ButtonShadow-0"
       id="linearGradient3780"
       y2="90.238609"
       x2="32.251034"
       y1="6.1317081"
       x1="32.251034" />
    <linearGradient
       gradientTransform="matrix(0.83742219,0,0,-0.8374222,12.396274,87.12843)"
       gradientUnits="userSpaceOnUse"
       xlink:href="#ButtonShadow-0"
       id="linearGradient3721-0"
       y2="90.238609"
       x2="32.251034"
       y1="6.1317081"
       x1="32.251034" />
    <linearGradient
       x1="32.891998"
       y1="8.059"
       gradientTransform="matrix(1.1538423,0,0,1.1746103,-7.1476824,6.2923109)"
       x2="36.358002"
       gradientUnits="userSpaceOnUse"
       y2="5.4565001"
       id="linearGradient3225-6">
      <stop
         offset="0"
         style="stop-color:#497db8;stop-opacity:1"
         id="stop8591-7" />
      <stop
         offset="1"
         style="stop-color:#276096;stop-opacity:1"
         id="stop8593-5" />
    </linearGradient>
    <filter
       height="1.3366547"
       y="-0.16832735"
       width="1.0631227"
       x="-0.031561375"
       id="filter4711">
      <feGaussianBlur
         id="feGaussianBlur4713"
         stdDeviation="0.42081834" />
    </filter>
    <linearGradient
       y2="12"
       x2="15.5"
       y1="12"
       x1="0.5"
       gradientUnits="userSpaceOnUse"
       id="linearGradient1105"
       xlink:href="#linearGradient_SkyBlue" />
    <linearGradient
       id="linearGradient_SkyBlue">
      <stop
         style="stop-color:#729fcf;stop-opacity:1;"
         offset="0"
         id="stop3832" />
      <stop
         style="stop-color:#204a87;stop-opacity:1;"
         offset="1"
         id="stop3834" />
    </linearGradient>
    <linearGradient
       y2="12"
       x2="15.5"
       y1="12"
       x1="0.5"
       gradientTransform="matrix(1.9333311,0,0,1.8571429,-69.466666,6.7143)"
       gradientUnits="userSpaceOnUse"
       id="linearGradient1107"
       xlink:href="#linearGradient3820" />
    <linearGradient
       id="linearGradient3820">
      <stop
         id="stop3823"
         offset="0"
         style="stop-color:#e1b6ff;stop-opacity:1" />
      <stop
         id="stop3825"
         offset="1"
         style="stop-color:#ca87ff;stop-opacity:1" />
    </linearGradient>
    <linearGradient
       y2="24"
       x2="-39.96875"
       y1="24"
       x1="-68.03125"
       gradientUnits="userSpaceOnUse"
       id="linearGradient1109"
       xlink:href="#linearGradient3829" />
    <linearGradient
       id="linearGradient3829">
      <stop
         id="stop3831"
         offset="0"
         style="stop-color:#ffd3ff;stop-opacity:0.60000002" />
      <stop
         id="stop3833"
         offset="1"
         style="stop-color:#ffffff;stop-opacity:0.20784314;" />
    </linearGradient>
    <linearGradient
       y2="29"
       x2="-54"
       y1="29"
       x1="-69"
       gradientUnits="userSpaceOnUse"
       id="linearGradient1111"
       xlink:href="#linearGradient4365" />
    <linearGradient
       id="linearGradient4365">
      <stop
         style="stop-color:#ffd3ff;stop-opacity:0.80000001"
         offset="0"
         id="stop4367" />
      <stop
         style="stop-color:#ffffff;stop-opacity:0;"
         offset="1"
         id="stop4369" />
    </linearGradient>
    <linearGradient
       y2="12"
       x2="15.5"
       y1="12"
       x1="0.5"
       gradientUnits="userSpaceOnUse"
       id="linearGradient4635"
       xlink:href="#linearGradient1151" />
    <linearGradient
       id="linearGradient1151">
      <stop
         id="stop1147"
         offset="0"
         style="stop-color:#d58dff;stop-opacity:1" />
      <stop
         id="stop1149"
         offset="1"
         style="stop-color:#b168eb;stop-opacity:1" />
    </linearGradient>
    <linearGradient
       y2="12"
       x2="15.5"
       y1="12"
       x1="0.5"
       gradientUnits="userSpaceOnUse"
       id="linearGradient1069"
       xlink:href="#linearGradient_SkyBlue" />
    <linearGradient
       y2="12"
       x2="15.5"
       y1="12"
       x1="0.5"
       gradientTransform="matrix(1.9333311,0,0,1.8571429,-69.466666,6.7143)"
       gradientUnits="userSpaceOnUse"
       id="linearGradient1071"
       xlink:href="#linearGradient3820" />
    <linearGradient
       y2="24"
       x2="-39.96875"
       y1="24"
       x1="-68.03125"
       gradientUnits="userSpaceOnUse"
       id="linearGradient1073"
       xlink:href="#linearGradient3829" />
    <linearGradient
       y2="29"
       x2="-54"
       y1="29"
       x1="-69"
       gradientUnits="userSpaceOnUse"
       id="linearGradient1075"
       xlink:href="#linearGradient4365" />
    <linearGradient
       y2="12"
       x2="15.5"
       y1="12"
       x1="0.5"
       gradientTransform="matrix(1.9333311,0,0,1.8571429,-69.466666,6.7143)"
       gradientUnits="userSpaceOnUse"
       id="linearGradient1077"
       xlink:href="#linearGradient3820" />
    <linearGradient
       y2="24"
       x2="-39.96875"
       y1="24"
       x1="-68.03125"
       gradientUnits="userSpaceOnUse"
       id="linearGradient1079"
       xlink:href="#linearGradient3829" />
    <linearGradient
       y2="29"
       x2="-54"
       y1="29"
       x1="-69"
       gradientUnits="userSpaceOnUse"
       id="linearGradient1081"
       xlink:href="#linearGradient4365" />
  </defs>
  <metadata
     id="metadata18162">
    <rdf:RDF>
      <cc:Work
         rdf:about="">
        <dc:format>image/svg+xml</dc:format>
        <dc:type
           rdf:resource="http://purl.org/dc/dcmitype/StillImage" />
        <dc:title></dc:title>
      </cc:Work>
    </rdf:RDF>
  </metadata>
  <g
     id="layer1"
     transform="matrix(1.05,0,0,1.05,-1.1999998,-2.2499999)">
    <g
       transform="matrix(0.51177463,0,0,0.51177463,-2.915536,0.9813072)"
       id="layer5"
       style="display:inline">
      <path
         d="m 20.618253,86.01187 c -3.916074,0 -7.105399,-3.225978 -7.105399,-7.187076 V 15.039542 c 0,-3.961099 3.189325,-7.1870759 7.105399,-7.1870759 H 61.848275 L 91.672258,37.676449 v 41.148345 c 0,3.961098 -3.189315,7.187076 -7.1054,7.187076 z"
         id="path3770"
         style="display:inline;opacity:0.2;fill:url(#linearGradient1978);fill-opacity:1;fill-rule:nonzero;stroke:none;stroke-width:0.89326495" />
      <path
         style="display:inline;opacity:0.3;fill:url(#linearGradient3780);fill-opacity:1;fill-rule:nonzero;stroke:none;stroke-width:0.86845267"
         d="m 21.510559,84.057885 h 62.16399 c 3.34823,0 6.04372,-2.727212 6.04372,-6.114824 V 38.904982 L 60.619729,9.8064506 h -39.10917 c -3.34822,0 -6.04372,2.7272114 -6.04372,6.1148244 v 62.021786 c 0,3.387612 2.6955,6.114824 6.04372,6.114824 z"
         id="rect3723" />
    </g>
    <g
       style="opacity:1"
       transform="translate(-224.07679,105.6599)"
       id="layer1-3">
      <path
         style="fill:url(#linearGradient3617);fill-opacity:1;fill-rule:nonzero;stroke:none;stroke-width:0.42857143"
         d="m 232.64822,-98.6599 h 19.54285 l 13.88572,13.885715 v 19.542857 c 0,1.424571 -1.14685,2.571428 -2.57143,2.571428 h -30.85714 c -1.42458,0 -2.57143,-1.146857 -2.57143,-2.571428 v -30.857144 c 0,-1.424571 1.14685,-2.571428 2.57143,-2.571428 z"
         id="rect2419-1" />
      <path
         d="m 232.64822,-98.6599 c -1.42457,0 -2.57143,1.151568 -2.57143,2.581998 v 0.860662 28.234034 c 1.98322,4.185183 0.51348,2.977317 0.42857,0.430332 v -28.09486 -0.860668 c 0,-1.197119 0.95064,-2.151664 2.14286,-2.151664 h 0.85715 17.82858 0.85715 l 13.45714,13.326778 v 0.860667 16.919747 c -1.2063,3.165148 0.42855,3.584963 0.42855,-0.430333 v -16.919747 -0.860668 L 252.19108,-98.6599 Z"
         id="rect3728-7"
         style="opacity:0.3;fill:url(#linearGradient2015);fill-opacity:1;fill-rule:nonzero;stroke:none;stroke-width:0.4294512" />
    </g>
    <g
       id="g5449"
       style="display:inline"
       transform="matrix(0.77110103,0,0,0.59542451,64.643739,-594.93555)">
      <ellipse
         style="fill:#2e3436;fill-opacity:1;stroke:none;filter:url(#filter4711)"
         id="path4623"
         transform="matrix(0.94062515,0,0,1.4962728,-3.206242,1026.9106)"
         cx="-54"
         cy="13"
         rx="16"
         ry="3" />
      <path
         id="path4418"
         transform="matrix(1.9333311,0,0,1.8571429,-69.466666,1021.0765)"
         d="m 8,8.5 c -4.1421358,0 -7.5,0.8954304 -7.5,2 v 3 c 0,1.10457 3.3578642,2 7.5,2 4.142136,0 7.5,-0.89543 7.5,-2 v -3 c 0,-1.1045696 -3.357864,-2 -7.5,-2 z"
         style="fill:url(#linearGradient1069);fill-opacity:1;stroke:none" />
      <path
         style="fill:url(#linearGradient1071);fill-opacity:1;stroke:none"
         d="M -68.09375,25.375 C -68.34848,25.650661 -68.5,25.923144 -68.5,26.21875 v 5.5625 c 0,2.051344 6.49188,3.71875 14.5,3.71875 8.00812,0 14.5,-1.667406 14.5,-3.71875 v -5.5625 c 0,-0.295606 -0.151521,-0.568089 -0.40625,-0.84375 -0.133219,0.103735 -0.281453,0.218099 -0.4375,0.3125 -0.805562,0.487325 -1.905303,0.874679 -3.25,1.21875 C -46.283144,27.594394 -49.95468,28 -54,28 c -4.04532,0 -7.716856,-0.405606 -10.40625,-1.09375 -1.344697,-0.344071 -2.444438,-0.731425 -3.25,-1.21875 -0.156047,-0.0944 -0.304281,-0.208765 -0.4375,-0.3125 z"
         transform="translate(0,1014.3622)"
         id="path4528" />
      <path
         style="color:#000000;font-style:normal;font-variant:normal;font-weight:normal;font-stretch:normal;font-size:medium;line-height:normal;font-family:'Bitstream Vera Sans';-inkscape-font-specification:'Bitstream Vera Sans';text-indent:0;text-align:start;text-decoration:none;text-decoration-line:none;letter-spacing:normal;word-spacing:normal;text-transform:none;writing-mode:lr-tb;direction:ltr;text-anchor:start;display:inline;overflow:visible;visibility:visible;fill:url(#linearGradient1073);fill-opacity:1;stroke:none;stroke-width:1.58323538;marker:none;enable-background:accumulate"
         d="m -54,18 c -3.967299,0 -7.594691,0.406336 -10.15625,1.0625 -1.280779,0.328082 -2.305938,0.692334 -2.96875,1.09375 -0.662812,0.401416 -0.875,0.797954 -0.875,1.0625 v 5.5625 c 0,0.264546 0.212188,0.661084 0.875,1.0625 0.662812,0.401416 1.687971,0.765669 2.96875,1.09375 C -61.594691,29.593664 -57.967299,30 -54,30 c 3.9673,0 7.594691,-0.406336 10.15625,-1.0625 1.28078,-0.328081 2.305938,-0.692334 2.96875,-1.09375 0.662812,-0.401416 0.875,-0.797954 0.875,-1.0625 v -5.5625 c 0,-0.264546 -0.212188,-0.661084 -0.875,-1.0625 -0.662812,-0.401416 -1.68797,-0.765668 -2.96875,-1.09375 C -46.405309,18.406336 -50.0327,18 -54,18 Z m 0,1 c 3.893777,0 7.407034,0.375816 9.84375,1 1.218358,0.312093 2.197793,0.715746 2.71875,1.03125 0.390718,0.236628 0.440654,0.370108 0.4375,0.3125 v 5.3125 c 0.0032,-0.05761 -0.04678,0.07587 -0.4375,0.3125 -0.520957,0.315504 -1.500392,0.719157 -2.71875,1.03125 -2.436714,0.624184 -5.949973,1 -9.84375,1 -3.893777,0 -7.407035,-0.375816 -9.84375,-1 -1.218358,-0.312093 -2.197792,-0.715746 -2.71875,-1.03125 -0.390718,-0.236628 -0.440654,-0.370108 -0.4375,-0.3125 v -5.3125 c -0.0032,0.05761 0.04678,-0.07587 0.4375,-0.3125 0.520958,-0.315504 1.500392,-0.719157 2.71875,-1.03125 2.436715,-0.624184 5.949973,-1 9.84375,-1 z"
         transform="translate(0,1019.3622)"
         id="path4494" />
      <path
         style="fill:none;stroke:#9c5cd0;stroke-width:0.52774519;stroke-opacity:1"
         d="m 8,8.5 c -4.1421358,0 -7.5,0.8954304 -7.5,2 v 3 c 0,1.10457 3.3578642,2 7.5,2 4.142136,0 7.5,-0.89543 7.5,-2 v -3 c 0,-1.1045696 -3.357864,-2 -7.5,-2 z"
         transform="matrix(1.9333311,0,0,1.8571428,-69.466666,1021.0765)"
         id="path4424" />
      <path
         style="color:#000000;font-style:normal;font-variant:normal;font-weight:normal;font-stretch:normal;font-size:medium;line-height:normal;font-family:'Bitstream Vera Sans';-inkscape-font-specification:'Bitstream Vera Sans';text-indent:0;text-align:start;text-decoration:none;text-decoration-line:none;letter-spacing:normal;word-spacing:normal;text-transform:none;writing-mode:lr-tb;direction:ltr;text-anchor:start;display:inline;overflow:visible;visibility:visible;fill:url(#linearGradient1075);fill-opacity:1;stroke:none;stroke-width:1.58323538;marker:none;enable-background:accumulate"
         d="m -66.625,28.09375 c -0.298856,0.196392 -0.377901,0.302233 -0.375,0.25 V 29 c 0.712406,0.330662 1.586349,0.616947 2.59375,0.875 2.686403,0.688144 6.365429,1.09375 10.40625,1.09375 4.040821,0 7.719848,-0.405606 10.40625,-1.09375 C -42.586349,29.616947 -41.712406,29.330662 -41,29 v -0.65625 c 0.0029,0.05223 -0.07615,-0.05361 -0.375,-0.25 -0.636677,0.299404 -1.472588,0.588576 -2.46875,0.84375 -2.561559,0.656164 -6.18895,1.09375 -10.15625,1.09375 -3.967299,0 -7.594691,-0.437586 -10.15625,-1.09375 -0.996161,-0.255174 -1.832073,-0.544346 -2.46875,-0.84375 z"
         transform="translate(0,1012.3622)"
         id="path4543" />
      <path
         style="fill:url(#linearGradient1105);fill-opacity:1;stroke:none"
         d="m 8,8.5 c -4.1421358,0 -7.5,0.8954304 -7.5,2 v 3 c 0,1.10457 3.3578642,2 7.5,2 4.142136,0 7.5,-0.89543 7.5,-2 v -3 c 0,-1.1045696 -3.357864,-2 -7.5,-2 z"
         transform="matrix(1.9333311,0,0,1.8571429,-69.466666,1013.0765)"
         id="path4585" />
      <path
         id="path4587"
         transform="translate(0,1006.3622)"
         d="M -68.09375,25.375 C -68.34848,25.650661 -68.5,25.923144 -68.5,26.21875 v 5.5625 c 0,2.051344 6.49188,3.71875 14.5,3.71875 8.00812,0 14.5,-1.667406 14.5,-3.71875 v -5.5625 c 0,-0.295606 -0.151521,-0.568089 -0.40625,-0.84375 -0.133219,0.103735 -0.281453,0.218099 -0.4375,0.3125 -0.805562,0.487325 -1.905303,0.874679 -3.25,1.21875 C -46.283144,27.594394 -49.95468,28 -54,28 c -4.04532,0 -7.716856,-0.405606 -10.40625,-1.09375 -1.344697,-0.344071 -2.444438,-0.731425 -3.25,-1.21875 -0.156047,-0.0944 -0.304281,-0.208765 -0.4375,-0.3125 z"
         style="fill:url(#linearGradient1077);fill-opacity:1;stroke:none" />
      <path
         id="path4589"
         transform="translate(0,1011.3622)"
         d="m -54,18 c -3.967299,0 -7.594691,0.406336 -10.15625,1.0625 -1.280779,0.328082 -2.305938,0.692334 -2.96875,1.09375 -0.662812,0.401416 -0.875,0.797954 -0.875,1.0625 v 5.5625 c 0,0.264546 0.212188,0.661084 0.875,1.0625 0.662812,0.401416 1.687971,0.765669 2.96875,1.09375 C -61.594691,29.593664 -57.967299,30 -54,30 c 3.9673,0 7.594691,-0.406336 10.15625,-1.0625 1.28078,-0.328081 2.305938,-0.692334 2.96875,-1.09375 0.662812,-0.401416 0.875,-0.797954 0.875,-1.0625 v -5.5625 c 0,-0.264546 -0.212188,-0.661084 -0.875,-1.0625 -0.662812,-0.401416 -1.68797,-0.765668 -2.96875,-1.09375 C -46.405309,18.406336 -50.0327,18 -54,18 Z m 0,1 c 3.893777,0 7.407034,0.375816 9.84375,1 1.218358,0.312093 2.197793,0.715746 2.71875,1.03125 0.390718,0.236628 0.440654,0.370108 0.4375,0.3125 v 5.3125 c 0.0032,-0.05761 -0.04678,0.07587 -0.4375,0.3125 -0.520957,0.315504 -1.500392,0.719157 -2.71875,1.03125 -2.436714,0.624184 -5.949973,1 -9.84375,1 -3.893777,0 -7.407035,-0.375816 -9.84375,-1 -1.218358,-0.312093 -2.197792,-0.715746 -2.71875,-1.03125 -0.390718,-0.236628 -0.440654,-0.370108 -0.4375,-0.3125 v -5.3125 c -0.0032,0.05761 0.04678,-0.07587 0.4375,-0.3125 0.520958,-0.315504 1.500392,-0.719157 2.71875,-1.03125 2.436715,-0.624184 5.949973,-1 9.84375,-1 z"
         style="color:#000000;font-style:normal;font-variant:normal;font-weight:normal;font-stretch:normal;font-size:medium;line-height:normal;font-family:'Bitstream Vera Sans';-inkscape-font-specification:'Bitstream Vera Sans';text-indent:0;text-align:start;text-decoration:none;text-decoration-line:none;letter-spacing:normal;word-spacing:normal;text-transform:none;writing-mode:lr-tb;direction:ltr;text-anchor:start;display:inline;overflow:visible;visibility:visible;opacity:1;fill:url(#linearGradient1079);fill-opacity:1;stroke:none;stroke-width:1.58323538;marker:none;enable-background:accumulate" />
      <path
         id="path4591"
         transform="matrix(1.9333311,0,0,1.8571428,-69.466666,1013.0765)"
         d="m 8,8.5 c -4.1421358,0 -7.5,0.8954304 -7.5,2 v 3 c 0,1.10457 3.3578642,2 7.5,2 4.142136,0 7.5,-0.89543 7.5,-2 v -3 c 0,-1.1045696 -3.357864,-2 -7.5,-2 z"
         style="fill:none;stroke:#9c5cd0;stroke-width:0.52774519;stroke-opacity:1" />
      <path
         id="path4593"
         transform="translate(0,1004.3622)"
         d="m -66.625,28.09375 c -0.298856,0.196392 -0.377901,0.302233 -0.375,0.25 V 29 c 0.712406,0.330662 1.586349,0.616947 2.59375,0.875 2.686403,0.688144 6.365429,1.09375 10.40625,1.09375 4.040821,0 7.719848,-0.405606 10.40625,-1.09375 C -42.586349,29.616947 -41.712406,29.330662 -41,29 v -0.65625 c 0.0029,0.05223 -0.07615,-0.05361 -0.375,-0.25 -0.636677,0.299404 -1.472588,0.588576 -2.46875,0.84375 -2.561559,0.656164 -6.18895,1.09375 -10.15625,1.09375 -3.967299,0 -7.594691,-0.437586 -10.15625,-1.09375 -0.996161,-0.255174 -1.832073,-0.544346 -2.46875,-0.84375 z"
         style="color:#000000;font-style:normal;font-variant:normal;font-weight:normal;font-stretch:normal;font-size:medium;line-height:normal;font-family:'Bitstream Vera Sans';-inkscape-font-specification:'Bitstream Vera Sans';text-indent:0;text-align:start;text-decoration:none;text-decoration-line:none;letter-spacing:normal;word-spacing:normal;text-transform:none;writing-mode:lr-tb;direction:ltr;text-anchor:start;display:inline;overflow:visible;visibility:visible;fill:url(#linearGradient1081);fill-opacity:1;stroke:none;stroke-width:1.58323538;marker:none;enable-background:accumulate" />
      <path
         id="path4605"
         transform="matrix(1.9333311,0,0,1.8571429,-69.466666,1005.0765)"
         d="m 8,8.5 c -4.1421358,0 -7.5,0.8954304 -7.5,2 v 3 c 0,1.10457 3.3578642,2 7.5,2 4.142136,0 7.5,-0.89543 7.5,-2 v -3 c 0,-1.1045696 -3.357864,-2 -7.5,-2 z"
         style="fill:url(#linearGradient4635);fill-opacity:1;stroke:none" />
      <path
         style="fill:url(#linearGradient1107);fill-opacity:1;stroke:none"
         d="M -68.09375,25.375 C -68.34848,25.650661 -68.5,25.923144 -68.5,26.21875 v 5.5625 c 0,2.051344 6.49188,3.71875 14.5,3.71875 8.00812,0 14.5,-1.667406 14.5,-3.71875 v -5.5625 c 0,-0.295606 -0.151521,-0.568089 -0.40625,-0.84375 -0.133219,0.103735 -0.281453,0.218099 -0.4375,0.3125 -0.805562,0.487325 -1.905303,0.874679 -3.25,1.21875 C -46.283144,27.594394 -49.95468,28 -54,28 c -4.04532,0 -7.716856,-0.405606 -10.40625,-1.09375 -1.344697,-0.344071 -2.444438,-0.731425 -3.25,-1.21875 -0.156047,-0.0944 -0.304281,-0.208765 -0.4375,-0.3125 z"
         transform="translate(0,998.3622)"
         id="path4607" />
      <path
         style="color:#000000;font-style:normal;font-variant:normal;font-weight:normal;font-stretch:normal;font-size:medium;line-height:normal;font-family:'Bitstream Vera Sans';-inkscape-font-specification:'Bitstream Vera Sans';text-indent:0;text-align:start;text-decoration:none;text-decoration-line:none;letter-spacing:normal;word-spacing:normal;text-transform:none;writing-mode:lr-tb;direction:ltr;text-anchor:start;display:inline;overflow:visible;visibility:visible;fill:url(#linearGradient1109);fill-opacity:1;stroke:none;stroke-width:1.58323538;marker:none;enable-background:accumulate"
         d="m -54,18 c -3.967299,0 -7.594691,0.406336 -10.15625,1.0625 -1.280779,0.328082 -2.305938,0.692334 -2.96875,1.09375 -0.662812,0.401416 -0.875,0.797954 -0.875,1.0625 v 5.5625 c 0,0.264546 0.212188,0.661084 0.875,1.0625 0.662812,0.401416 1.687971,0.765669 2.96875,1.09375 C -61.594691,29.593664 -57.967299,30 -54,30 c 3.9673,0 7.594691,-0.406336 10.15625,-1.0625 1.28078,-0.328081 2.305938,-0.692334 2.96875,-1.09375 0.662812,-0.401416 0.875,-0.797954 0.875,-1.0625 v -5.5625 c 0,-0.264546 -0.212188,-0.661084 -0.875,-1.0625 -0.662812,-0.401416 -1.68797,-0.765668 -2.96875,-1.09375 C -46.405309,18.406336 -50.0327,18 -54,18 Z m 0,1 c 3.893777,0 7.407034,0.375816 9.84375,1 1.218358,0.312093 2.197793,0.715746 2.71875,1.03125 0.390718,0.236628 0.440654,0.370108 0.4375,0.3125 v 5.3125 c 0.0032,-0.05761 -0.04678,0.07587 -0.4375,0.3125 -0.520957,0.315504 -1.500392,0.719157 -2.71875,1.03125 -2.436714,0.624184 -5.949973,1 -9.84375,1 -3.893777,0 -7.407035,-0.375816 -9.84375,-1 -1.218358,-0.312093 -2.197792,-0.715746 -2.71875,-1.03125 -0.390718,-0.236628 -0.440654,-0.370108 -0.4375,-0.3125 v -5.3125 c -0.0032,0.05761 0.04678,-0.07587 0.4375,-0.3125 0.520958,-0.315504 1.500392,-0.719157 2.71875,-1.03125 2.436715,-0.624184 5.949973,-1 9.84375,-1 z"
         transform="translate(0,1003.3622)"
         id="path4609" />
      <path
         style="fill:none;stroke:#9c5cd0;stroke-width:0.52774519;stroke-opacity:1"
         d="m 8,8.5 c -4.1421358,0 -7.5,0.8954304 -7.5,2 v 3 c 0,1.10457 3.3578642,2 7.5,2 4.142136,0 7.5,-0.89543 7.5,-2 v -3 c 0,-1.1045696 -3.357864,-2 -7.5,-2 z"
         transform="matrix(1.9333311,0,0,1.8571428,-69.466666,1005.0765)"
         id="path4611" />
      <path
         style="color:#000000;font-style:normal;font-variant:normal;font-weight:normal;font-stretch:normal;font-size:medium;line-height:normal;font-family:'Bitstream Vera Sans';-inkscape-font-specification:'Bitstream Vera Sans';text-indent:0;text-align:start;text-decoration:none;text-decoration-line:none;letter-spacing:normal;word-spacing:normal;text-transform:none;writing-mode:lr-tb;direction:ltr;text-anchor:start;display:inline;overflow:visible;visibility:visible;fill:url(#linearGradient1111);fill-opacity:1;stroke:none;stroke-width:1.58323538;marker:none;enable-background:accumulate"
         d="m -66.625,28.09375 c -0.298856,0.196392 -0.377901,0.302233 -0.375,0.25 V 29 c 0.712406,0.330662 1.586349,0.616947 2.59375,0.875 2.686403,0.688144 6.365429,1.09375 10.40625,1.09375 4.040821,0 7.719848,-0.405606 10.40625,-1.09375 C -42.586349,29.616947 -41.712406,29.330662 -41,29 v -0.65625 c 0.0029,0.05223 -0.07615,-0.05361 -0.375,-0.25 -0.636677,0.299404 -1.472588,0.588576 -2.46875,0.84375 -2.561559,0.656164 -6.18895,1.09375 -10.15625,1.09375 -3.967299,0 -7.594691,-0.437586 -10.15625,-1.09375 -0.996161,-0.255174 -1.832073,-0.544346 -2.46875,-0.84375 z"
         transform="translate(0,996.3622)"
         id="path4613" />
    </g>
    <path
       d="m 23.095,7.0007336 c 3.179734,0 1.245573,14.2927244 1.245573,14.2927244 0,0 17.662844,-1.870813 17.662844,3.984542 C 42.003417,23.851681 42,20.885715 42,20.885715 L 28.11428,7 Z"
       style="opacity:0.2;fill:#000000;fill-opacity:1;fill-rule:evenodd;stroke-width:0.95571315"
       id="path4474-3-5" />
    <path
       d="M 6,39.721429 C 6,41.537756 7.146857,43 8.571429,43 H 39.428571 C 40.853143,43 42,41.537756 42,39.721429 V 33.571428 H 6 Z"
       id="rect3736"
       style="color:#000000;display:inline;overflow:visible;visibility:visible;opacity:1;fill:url(#linearGradient3748);fill-opacity:1;fill-rule:nonzero;stroke:none;stroke-width:0.72588795;marker:none;enable-background:accumulate" />
    <path
       d="M 8.5714282,43 C 7.146857,43 6,41.848431 6,40.418006 V 39.418194 C 6.017537,34.185733 6.4285697,34.07415 6.4285697,38.987836 v 0.860665 c 0,1.197119 0.9506364,2.151662 2.1428585,2.151662 h 0.8571448 29.142844 0.857145 c 1.192222,0 2.142858,-0.954543 2.142858,-2.151662 V 38.987836 C 41.61349,33.154382 42,35.150526 42,39.418169 v 0.999812 C 41.99999,41.848431 40.853133,43 39.428562,43 Z"
       id="path3615-2"
       style="opacity:0.2;fill:url(#radialGradient3619-6);fill-opacity:1;fill-rule:nonzero;stroke:none;stroke-width:0.42945099" />
    <g
       id="text1540"
       style="font-style:normal;font-weight:normal;font-size:39.83179474px;line-height:1.25;font-family:sans-serif;letter-spacing:0px;word-spacing:0px;fill:#000000;fill-opacity:1;stroke:none;stroke-width:0.99579489"
       transform="matrix(1.0042229,0,0,0.9957949,-16.0339,-23.152542)"
       aria-label="DOC" />
    <path
       d="m 24.277,7 c 3.0062,0 1.165566,13.240168 1.165566,13.240168 0,0 16.558213,-1.970967 16.558213,3.564832 C 42.000779,22.456522 42,20.885715 42,20.885715 L 28.11428,7 Z"
       style="opacity:0.2;fill:#000000;fill-opacity:1;fill-rule:evenodd;stroke-width:0.90355515"
       id="path4474-3" />
    <path
       d="m 25.695529,7.0086975 c 2.832447,0 1.020233,12.2306245 1.020233,12.2306245 0,0 15.288338,-1.878262 15.288338,3.337578 C 42.0041,21.306362 42,20.885715 42,20.885715 L 28.11428,7 Z"
       style="fill:url(#linearGradient3225);fill-rule:evenodd;stroke-width:0.85133129"
       id="path4474" />
    <g
       aria-label="MDB"
       style="font-style:normal;font-weight:normal;font-size:40px;line-height:1.25;font-family:sans-serif;letter-spacing:0px;word-spacing:0px;display:inline;fill:#000000;fill-opacity:1;stroke:none"
       id="text4544"
       transform="matrix(0.42458459,0,0,0.42458459,3.2356961,2.7442099)">
      <path
         d="m 30.960276,78.43763 h 3.828125 l 2.65625,6.242187 2.671875,-6.242187 h 3.820312 v 11.664062 h -2.84375 v -8.53125 l -2.6875,6.289063 h -1.90625 l -2.6875,-6.289063 v 8.53125 h -2.851562 z"
         style="font-style:normal;font-variant:normal;font-weight:bold;font-stretch:normal;font-size:16px;font-family:sans-serif;-inkscape-font-specification:'sans-serif Bold';fill:#ffffff;fill-opacity:1"
         id="path4572" />
      <path
         d="m 49.905588,80.711067 v 7.117188 h 1.078125 q 1.84375,0 2.8125,-0.914063 0.976563,-0.914062 0.976563,-2.65625 0,-1.734375 -0.96875,-2.640625 -0.96875,-0.90625 -2.820313,-0.90625 z M 46.897776,78.43763 h 3.171875 q 2.65625,0 3.953125,0.382812 1.304687,0.375 2.234375,1.28125 0.820312,0.789063 1.21875,1.820313 0.398437,1.03125 0.398437,2.335937 0,1.320313 -0.398437,2.359375 -0.398438,1.03125 -1.21875,1.820313 -0.9375,0.90625 -2.25,1.289062 -1.3125,0.375 -3.9375,0.375 h -3.171875 z"
         style="font-style:normal;font-variant:normal;font-weight:bold;font-stretch:normal;font-size:16px;font-family:sans-serif;-inkscape-font-specification:'sans-serif Bold';fill:#ffffff;fill-opacity:1"
         id="path4574" />
      <path
         d="m 64.850901,82.953255 q 0.710937,0 1.078125,-0.3125 0.367187,-0.3125 0.367187,-0.921875 0,-0.601563 -0.367187,-0.914063 -0.367188,-0.320312 -1.078125,-0.320312 h -1.664063 v 2.46875 z m 0.101562,5.101562 q 0.90625,0 1.359375,-0.382812 0.460938,-0.382813 0.460938,-1.15625 0,-0.757813 -0.453125,-1.132813 -0.453125,-0.382812 -1.367188,-0.382812 h -1.765625 v 3.054687 z m 2.796875,-4.195312 q 0.96875,0.28125 1.5,1.039062 0.53125,0.757813 0.53125,1.859375 0,1.6875 -1.140625,2.515625 -1.140625,0.828125 -3.46875,0.828125 H 60.179026 V 78.43763 h 4.515625 q 2.429687,0 3.515625,0.734375 1.09375,0.734375 1.09375,2.351562 0,0.851563 -0.398438,1.453125 -0.398437,0.59375 -1.15625,0.882813 z"
         style="font-style:normal;font-variant:normal;font-weight:bold;font-stretch:normal;font-size:16px;font-family:sans-serif;-inkscape-font-specification:'sans-serif Bold';fill:#ffffff;fill-opacity:1"
         id="path4576" />
    </g>
  </g>
  <path
     id="rect1270"
     d="M 5.1000001,33 H 42.9 v 1 H 5.1000001 Z"
     style="opacity:0.3;fill:#000000;fill-opacity:1;stroke:none;stroke-width:0.24464579;stroke-linejoin:round;stroke-miterlimit:4;stroke-dasharray:none;stroke-dashoffset:0;stroke-opacity:1;paint-order:stroke fill markers" />
  <path
     id="rect1270-3"
     d="M 5.1000001,32 H 42.9 v 1 H 5.1000001 Z"
     style="opacity:0.1;fill:#ffffff;fill-opacity:1;stroke:none;stroke-width:0.24464579;stroke-linejoin:round;stroke-miterlimit:4;stroke-dasharray:none;stroke-dashoffset:0;stroke-opacity:1;paint-order:stroke fill markers" />
</svg>
