<?xml version="1.0" encoding="UTF-8" standalone="no"?>
<svg
   xmlns:dc="http://purl.org/dc/elements/1.1/"
   xmlns:cc="http://creativecommons.org/ns#"
   xmlns:rdf="http://www.w3.org/1999/02/22-rdf-syntax-ns#"
   xmlns:svg="http://www.w3.org/2000/svg"
   xmlns="http://www.w3.org/2000/svg"
   xmlns:xlink="http://www.w3.org/1999/xlink"
   width="48px"
   height="48px"
   id="svg18157"
   version="1.1">
  <defs
     id="defs18159">
    <linearGradient
       xlink:href="#linearGradient3454-2-5-0-3"
       id="linearGradient12489"
       gradientUnits="userSpaceOnUse"
       gradientTransform="matrix(0.89189031,0,0,1.0580283,3.1206609,5.3536023)"
       x1="42.470848"
       y1="11.952797"
       x2="42.470848"
       y2="35.581654" />
    <linearGradient
       id="linearGradient3454-2-5-0-3">
      <stop
         offset="0"
         style="stop-color:#ffffff;stop-opacity:1"
         id="stop3456-4-9-38-1" />
      <stop
         offset="0.0097359"
         style="stop-color:#ffffff;stop-opacity:0.23529412"
         id="stop3458-39-80-3-5" />
      <stop
         offset="0.99001008"
         style="stop-color:#ffffff;stop-opacity:0.15686275"
         id="stop3460-7-0-2-4" />
      <stop
         offset="1"
         style="stop-color:#ffffff;stop-opacity:0.39215687"
         id="stop3462-0-9-8-7" />
    </linearGradient>
    <linearGradient
       xlink:href="#linearGradient6129-963-697-142-998-580-273-44-2-2"
       id="linearGradient12487"
       gradientUnits="userSpaceOnUse"
       gradientTransform="matrix(1.1446925,0,0,0.9977536,-3.466138,1.0988397)"
       x1="22.934725"
       y1="49.629246"
       x2="22.809399"
       y2="36.657963" />
    <linearGradient
       id="linearGradient6129-963-697-142-998-580-273-44-2-2">
      <stop
         id="stop2661-01-6-2"
         style="stop-color:#0a0a0a;stop-opacity:0.498"
         offset="0" />
      <stop
         id="stop2663-64-5-5"
         style="stop-color:#0a0a0a;stop-opacity:0"
         offset="1" />
    </linearGradient>
    <linearGradient
       xlink:href="#linearGradient4632-0-6-4-7"
       id="linearGradient12481"
       gradientUnits="userSpaceOnUse"
       gradientTransform="matrix(1,0,0,1.0357143,2.0849371e-6,-1.5890903)"
       x1="35.792694"
       y1="17.118193"
       x2="35.792694"
       y2="43.761127" />
    <linearGradient
       id="linearGradient4632-0-6-4">
      <stop
         style="stop-color:#aacb7d;stop-opacity:1;"
         offset="0"
         id="stop4634-4-4-7" />
      <stop
         style="stop-color:#709937;stop-opacity:1;"
         offset="1"
         id="stop4636-3-1-5" />
    </linearGradient>
    <radialGradient
       xlink:href="#linearGradient5060-820-91-9-0"
       id="radialGradient12475"
       gradientUnits="userSpaceOnUse"
       gradientTransform="matrix(-0.03079083,0,0,0.02470588,23.389752,31.94164)"
       cx="605.71429"
       cy="486.64789"
       fx="605.71429"
       fy="486.64789"
       r="117.14286" />
    <linearGradient
       id="linearGradient5060-820-91-9-0">
      <stop
         id="stop2681-778-5-1"
         style="stop-color:#000000;stop-opacity:1"
         offset="0" />
      <stop
         id="stop2683-2-86-2"
         style="stop-color:#000000;stop-opacity:0"
         offset="1" />
    </linearGradient>
    <radialGradient
       xlink:href="#linearGradient5060-179-37-4-0"
       id="radialGradient12471"
       gradientUnits="userSpaceOnUse"
       gradientTransform="matrix(0.03079083,0,0,0.02470588,24.610252,31.94164)"
       cx="605.71429"
       cy="486.64789"
       fx="605.71429"
       fy="486.64789"
       r="117.14286" />
    <linearGradient
       id="linearGradient5060-179-37-4-0">
      <stop
         id="stop2675-91-9-2"
         style="stop-color:#000000;stop-opacity:1"
         offset="0" />
      <stop
         id="stop2677-09-0-9"
         style="stop-color:#000000;stop-opacity:0"
         offset="1" />
    </linearGradient>
    <linearGradient
       xlink:href="#linearGradient5048-585-73-1-5"
       id="linearGradient12467"
       gradientUnits="userSpaceOnUse"
       gradientTransform="matrix(0.07938856,0,0,0.02470588,-4.6932879,31.94164)"
       x1="302.85715"
       y1="366.64789"
       x2="302.85715"
       y2="609.50507" />
    <linearGradient
       id="linearGradient5048-585-73-1-5">
      <stop
         id="stop2667-99-4-6"
         style="stop-color:#000000;stop-opacity:0"
         offset="0" />
      <stop
         id="stop2669-5-9-4"
         style="stop-color:#000000;stop-opacity:1"
         offset="0.5" />
      <stop
         id="stop2671-56-4-2"
         style="stop-color:#000000;stop-opacity:0"
         offset="1" />
    </linearGradient>
    <linearGradient
       xlink:href="#linearGradient4507-0-4-7"
       id="linearGradient12463"
       gradientUnits="userSpaceOnUse"
       gradientTransform="matrix(0.89189031,0,0,1.0580283,3.1206621,5.3535997)"
       x1="21.37039"
       y1="4.2476678"
       x2="21.37039"
       y2="34.143417" />
    <linearGradient
       id="linearGradient4507-0-4-7">
      <stop
         id="stop4509-35-6-1"
         style="stop-color:#ffffff;stop-opacity:1"
         offset="0" />
      <stop
         id="stop4511-46-3-8"
         style="stop-color:#ffffff;stop-opacity:0.23529412"
         offset="0.07395859" />
      <stop
         id="stop4513-15-5-9"
         style="stop-color:#ffffff;stop-opacity:0.15686275"
         offset="0.99001008" />
      <stop
         id="stop4515-1-1-8"
         style="stop-color:#ffffff;stop-opacity:0.39215687"
         offset="1" />
    </linearGradient>
    <linearGradient
       id="linearGradient4646-7-4-3">
      <stop
         offset="0"
         style="stop-color:#f9f9f9;stop-opacity:1"
         id="stop4648-8-0-3" />
      <stop
         offset="1"
         style="stop-color:#d8d8d8;stop-opacity:1"
         id="stop4650-1-7-3" />
    </linearGradient>
    <linearGradient
       id="linearGradient3104-8-8-97-4-6-11-5-5">
      <stop
         offset="0"
         style="stop-color:#000000;stop-opacity:0.32173914"
         id="stop3106-5-4-3-5-0-2-1-0" />
      <stop
         offset="1"
         style="stop-color:#000000;stop-opacity:0.27826086"
         id="stop3108-4-3-7-8-2-0-7-9" />
    </linearGradient>
    <linearGradient
       y2="3.6336823"
       x2="-51.786404"
       y1="53.514328"
       x1="-51.786404"
       gradientTransform="matrix(0.80749834,0,0,0.83374395,106.87672,-0.06984031)"
       gradientUnits="userSpaceOnUse"
       id="linearGradient18155"
       xlink:href="#linearGradient3104-8-8-97-4-6-11-5-5" />
    <linearGradient
       gradientUnits="userSpaceOnUse"
       y2="44.376751"
       x2="22.559322"
       y1="16.466301"
       x1="22.559322"
       id="linearGradient3840"
       xlink:href="#linearGradient7012-661-145-733-759-865-745" />
    <radialGradient
       r="21"
       fy="5.01718"
       fx="3"
       cy="5.01718"
       cx="3"
       gradientTransform="matrix(-1.274898e-8,1.7142916,-2.159331,-1.4599595e-8,12.809361,2.8570011)"
       gradientUnits="userSpaceOnUse"
       id="radialGradient3070"
       xlink:href="#linearGradient3484" />
    <linearGradient
       y2="16.19013"
       x2="62.988873"
       y1="13.182598"
       x1="62.988873"
       gradientTransform="translate(-50.940898,0)"
       gradientUnits="userSpaceOnUse"
       id="linearGradient3068"
       xlink:href="#linearGradient6404" />
    <linearGradient
       y2="15.943953"
       x2="65.340263"
       y1="45.114193"
       x1="82.453476"
       gradientTransform="translate(-53.765393,-0.1141929)"
       gradientUnits="userSpaceOnUse"
       id="linearGradient3061"
       xlink:href="#linearGradient3390" />
    <linearGradient
       y2="36.657963"
       x2="22.809399"
       y1="49.629246"
       x1="22.934725"
       gradientTransform="matrix(1.1446925,0,0,0.9977536,-3.4661413,1.0988425)"
       gradientUnits="userSpaceOnUse"
       id="linearGradient3056"
       xlink:href="#linearGradient6129-963-697-142-998-580-273" />
    <radialGradient
       r="20.979567"
       fy="8.3021259"
       fx="7.2646537"
       cy="8.3021259"
       cx="7.2646537"
       gradientTransform="matrix(0,1.2079744,-1.6271642,0,26.371748,8.2664685)"
       gradientUnits="userSpaceOnUse"
       id="radialGradient3053"
       xlink:href="#linearGradient6087-437-184-795-110-662-495" />
    <linearGradient
       y2="33.95525"
       x2="15.214532"
       y1="22.292103"
       x1="11.566265"
       gradientUnits="userSpaceOnUse"
       id="linearGradient3050"
       xlink:href="#linearGradient8265-821-176-38-919-66-249" />
    <linearGradient
       gradientUnits="userSpaceOnUse"
       xlink:href="#linearGradient8265-821-176-38-919-66-249"
       id="linearGradient3466"
       y2="33.95525"
       x2="15.214532"
       y1="22.292103"
       x1="11.566265" />
    <linearGradient
       id="linearGradient8265-821-176-38-919-66-249">
      <stop
         offset="0"
         style="stop-color:#ffffff;stop-opacity:0.2"
         id="stop2687" />
      <stop
         offset="1"
         style="stop-color:#ffffff;stop-opacity:0"
         id="stop2689" />
    </linearGradient>
    <radialGradient
       gradientTransform="matrix(0,1.2079744,-1.6271642,0,26.371748,8.2664685)"
       gradientUnits="userSpaceOnUse"
       xlink:href="#linearGradient6087-437-184-795-110-662-495"
       id="radialGradient2442-940-759"
       fy="8.3021259"
       fx="7.2646537"
       r="20.979567"
       cy="8.3021259"
       cx="7.2646537" />
    <linearGradient
       id="linearGradient6087-437-184-795-110-662-495">
      <stop
         offset="0"
         style="stop-color:#ffffff;stop-opacity:0.40000001"
         id="stop2693" />
      <stop
         offset="1"
         style="stop-color:#ffffff;stop-opacity:0"
         id="stop2695" />
    </linearGradient>
    <linearGradient
       gradientTransform="matrix(1.1446925,0,0,0.9977536,-3.4661413,1.0988425)"
       gradientUnits="userSpaceOnUse"
       xlink:href="#linearGradient6129-963-697-142-998-580-273"
       id="linearGradient6462-657-405"
       y2="36.657963"
       x2="22.809399"
       y1="49.629246"
       x1="22.934725" />
    <linearGradient
       id="linearGradient6129-963-697-142-998-580-273">
      <stop
         offset="0"
         style="stop-color:#0a0a0a;stop-opacity:0.498"
         id="stop2661" />
      <stop
         offset="1"
         style="stop-color:#0a0a0a;stop-opacity:0"
         id="stop2663" />
    </linearGradient>
    <radialGradient
       gradientTransform="matrix(1.5646925,-9.5143002e-8,6.1772287e-8,1.015888,-86.212573,8.1461173)"
       gradientUnits="userSpaceOnUse"
       xlink:href="#linearGradient7012-661-145-733-759-865-745"
       id="radialGradient3404"
       fy="14.113381"
       fx="63.969177"
       r="23.097054"
       cy="14.113381"
       cx="63.969177" />
    <linearGradient
       id="linearGradient7012-661-145-733-759-865-745">
      <stop
         offset="0"
         style="stop-color:#aacb7d;stop-opacity:1"
         id="stop2699" />
      <stop
         offset="1"
         style="stop-color:#709937;stop-opacity:1"
         id="stop2701" />
    </linearGradient>
    <linearGradient
       gradientTransform="translate(-53.765393,-0.1141929)"
       gradientUnits="userSpaceOnUse"
       xlink:href="#linearGradient3390"
       id="linearGradient3412"
       y2="15.943953"
       x2="65.340263"
       y1="45.114193"
       x1="82.453476" />
    <linearGradient
       id="linearGradient3390">
      <stop
         offset="0"
         style="stop-color:#51751e;stop-opacity:1"
         id="stop3392" />
      <stop
         offset="1"
         style="stop-color:#51751e;stop-opacity:1"
         id="stop3394" />
    </linearGradient>
    <linearGradient
       gradientTransform="matrix(0.08284024,0,0,0.03705882,-5.9408285,25.412461)"
       gradientUnits="userSpaceOnUse"
       xlink:href="#linearGradient5048-585"
       id="linearGradient7596-975"
       y2="609.50507"
       x2="302.85715"
       y1="366.64789"
       x1="302.85715" />
    <linearGradient
       id="linearGradient5048-585">
      <stop
         offset="0"
         style="stop-color:#000000;stop-opacity:0"
         id="stop2667" />
      <stop
         offset="0.5"
         style="stop-color:#000000;stop-opacity:1"
         id="stop2669" />
      <stop
         offset="1"
         style="stop-color:#000000;stop-opacity:0"
         id="stop2671" />
    </linearGradient>
    <radialGradient
       gradientTransform="matrix(0.03212956,0,0,0.03705882,24.636785,25.412461)"
       gradientUnits="userSpaceOnUse"
       xlink:href="#linearGradient5060-179"
       id="radialGradient7598-526"
       fy="486.64789"
       fx="605.71429"
       r="117.14286"
       cy="486.64789"
       cx="605.71429" />
    <linearGradient
       id="linearGradient5060-179">
      <stop
         offset="0"
         style="stop-color:#000000;stop-opacity:1"
         id="stop2675" />
      <stop
         offset="1"
         style="stop-color:#000000;stop-opacity:0"
         id="stop2677" />
    </linearGradient>
    <radialGradient
       gradientTransform="matrix(-0.03212956,0,0,0.03705882,23.363215,25.412461)"
       gradientUnits="userSpaceOnUse"
       xlink:href="#linearGradient5060-820"
       id="radialGradient7600-312"
       fy="486.64789"
       fx="605.71429"
       r="117.14286"
       cy="486.64789"
       cx="605.71429" />
    <linearGradient
       id="linearGradient5060-820">
      <stop
         offset="0"
         style="stop-color:#000000;stop-opacity:1"
         id="stop2681" />
      <stop
         offset="1"
         style="stop-color:#000000;stop-opacity:0"
         id="stop2683" />
    </linearGradient>
    <linearGradient
       gradientTransform="translate(-50.940898,0)"
       gradientUnits="userSpaceOnUse"
       xlink:href="#linearGradient6404"
       id="linearGradient3482"
       y2="16.19013"
       x2="62.988873"
       y1="13.182598"
       x1="62.988873" />
    <linearGradient
       id="linearGradient6404">
      <stop
         offset="0"
         style="stop-color:#f9f9f9;stop-opacity:1"
         id="stop6406" />
      <stop
         offset="1"
         style="stop-color:#c9c9c9;stop-opacity:1"
         id="stop6408" />
    </linearGradient>
    <radialGradient
       gradientTransform="matrix(-1.274898e-8,1.7142916,-2.159331,-1.4599595e-8,12.809361,2.8570011)"
       gradientUnits="userSpaceOnUse"
       xlink:href="#linearGradient3484"
       id="radialGradient3470"
       fy="5.01718"
       fx="3"
       r="21"
       cy="5.01718"
       cx="3" />
    <linearGradient
       id="linearGradient3484">
      <stop
         offset="0"
         style="stop-color:#bdbdbd;stop-opacity:1"
         id="stop3486" />
      <stop
         offset="1"
         style="stop-color:#d0d0d0;stop-opacity:1"
         id="stop3488" />
    </linearGradient>
    <linearGradient
       gradientTransform="matrix(0.2014014,0,0,0.2014015,18.110304,20.311705)"
       gradientUnits="userSpaceOnUse"
       xlink:href="#linearGradient5128"
       id="linearGradient2606"
       y2="20.895"
       x2="84.63858"
       y1="105.105"
       x1="86.132919" />
    <linearGradient
       id="linearGradient5128">
      <stop
         offset="0"
         style="stop-color:#ffffff;stop-opacity:1"
         id="stop5130" />
      <stop
         offset="1"
         style="stop-color:#959595;stop-opacity:1"
         id="stop5132" />
    </linearGradient>
    <linearGradient
       gradientUnits="userSpaceOnUse"
       xlink:href="#linearGradient3309"
       id="linearGradient3413"
       y2="47.012184"
       x2="32.036148"
       y1="19"
       x1="32.036148" />
    <linearGradient
       gradientUnits="userSpaceOnUse"
       id="linearGradient3309"
       y2="122.8994"
       x2="63.9995"
       y1="3.1001"
       x1="63.9995">
      <stop
         offset="0"
         style="stop-color:#f6f6f6;stop-opacity:1"
         id="stop3311" />
      <stop
         offset="1"
         style="stop-color:#d2d2d2;stop-opacity:1"
         id="stop3313" />
    </linearGradient>
    <linearGradient
       gradientUnits="userSpaceOnUse"
       xlink:href="#linearGradient3397"
       id="linearGradient3415"
       y2="47.044857"
       x2="25.922546"
       y1="19"
       x1="25.922546" />
    <linearGradient
       id="linearGradient3397">
      <stop
         offset="0"
         style="stop-color:#a0a0a0;stop-opacity:1"
         id="stop3399" />
      <stop
         offset="1"
         style="stop-color:#787878;stop-opacity:1"
         id="stop3401" />
    </linearGradient>
    <linearGradient
       xlink:href="#linearGradient6129-963-697-142-998-580-273-44-2-2"
       id="linearGradient5887"
       gradientUnits="userSpaceOnUse"
       gradientTransform="matrix(2.2041262,0,0,1.9531236,44.81525,2.9681362)"
       x1="22.934725"
       y1="49.629246"
       x2="22.934725"
       y2="36.599415" />
    <linearGradient
       xlink:href="#linearGradient4632-0-6-4-7"
       id="linearGradient5883"
       gradientUnits="userSpaceOnUse"
       gradientTransform="matrix(0.72580649,0,0,0.74516186,116.81336,18.325446)"
       x1="-91"
       y1="43.999817"
       x2="-91"
       y2="119.05979" />
    <linearGradient
       id="linearGradient4632-0-6-4-7">
      <stop
         style="stop-color:#55a7f3;stop-opacity:1;"
         offset="0"
         id="stop4634-4-4-7-5" />
      <stop
         style="stop-color:#1374cf;stop-opacity:1;"
         offset="1"
         id="stop4636-3-1-5-3" />
    </linearGradient>
    <linearGradient
       x1="32.891998"
       y1="8.059"
       gradientTransform="matrix(1.1538423,0,0,1.1746103,-5.728901,4.7207932)"
       x2="36.358002"
       gradientUnits="userSpaceOnUse"
       y2="5.4565001"
       id="linearGradient3225">
      <stop
         offset="0"
         style="stop-color:#1e75cc;stop-opacity:1"
         id="stop8591" />
      <stop
         offset="1"
         style="stop-color:#1160a3;stop-opacity:1"
         id="stop8593" />
    </linearGradient>
    <radialGradient
       cx="48"
       cy="90.171875"
       r="42"
       fx="48"
       fy="90.171875"
       id="radialGradient3619-6"
       xlink:href="#linearGradient3737"
       gradientUnits="userSpaceOnUse"
       gradientTransform="matrix(0.49599117,0,0,0.42857136,0.1924192,4.3549156)" />
    <linearGradient
       id="linearGradient3737">
      <stop
         offset="0"
         style="stop-color:#ffffff;stop-opacity:1"
         id="stop3739" />
      <stop
         offset="1"
         style="stop-color:#ffffff;stop-opacity:0"
         id="stop3741" />
    </linearGradient>
    <linearGradient
       x1="7.3709002"
       y1="51.470146"
       x2="23.76619"
       y2="51.433136"
       id="linearGradient3748"
       xlink:href="#linearGradient3742"
       gradientUnits="userSpaceOnUse"
       gradientTransform="matrix(0,-0.54642861,0.42857142,0,3.428572,46.278573)" />
    <linearGradient
       id="linearGradient3742">
      <stop
         id="stop3744"
         style="stop-color:#002a70;stop-opacity:1"
         offset="0" />
      <stop
         id="stop3746"
         style="stop-color:#003a7e;stop-opacity:1"
         offset="1" />
    </linearGradient>
    <linearGradient
       x1="48"
       y1="90"
       x2="48"
       y2="5.9877172"
       id="linearGradient3617"
       xlink:href="#ButtonColor-7"
       gradientUnits="userSpaceOnUse"
       gradientTransform="matrix(0.42857142,0,0,0.42857142,227.50536,-101.23132)" />
    <linearGradient
       x1="10.31979"
       y1="21"
       x2="10.31979"
       y2="0.99929649"
       id="ButtonColor-7"
       gradientUnits="userSpaceOnUse">
      <stop
         id="stop3189"
         style="stop-color:#00498e;stop-opacity:1"
         offset="0" />
      <stop
         id="stop3191"
         style="stop-color:#0d5ea7;stop-opacity:1"
         offset="1" />
    </linearGradient>
    <linearGradient
       xlink:href="#linearGradient3737"
       id="linearGradient2015"
       gradientUnits="userSpaceOnUse"
       x1="36.357143"
       y1="6"
       x2="36.357143"
       y2="63.893143"
       gradientTransform="matrix(0.4285717,0,0,0.43033246,227.50536,-101.24189)" />
    <linearGradient
       xlink:href="#ButtonShadow-0"
       id="linearGradient1974"
       gradientUnits="userSpaceOnUse"
       gradientTransform="matrix(0.88966473,0,0,-0.88897608,103.82866,91.764071)"
       x1="32.251034"
       y1="6.1317081"
       x2="32.251034"
       y2="90.238609" />
    <linearGradient
       gradientTransform="matrix(1.0058652,0,0,0.994169,100,0)"
       gradientUnits="userSpaceOnUse"
       id="ButtonShadow-0"
       y2="7.0165396"
       x2="45.447727"
       y1="92.539597"
       x1="45.447727">
      <stop
         offset="0"
         style="stop-color:#000000;stop-opacity:1"
         id="stop3750-8" />
      <stop
         offset="1"
         style="stop-color:#000000;stop-opacity:0.58823532"
         id="stop3752-5-4" />
    </linearGradient>
    <linearGradient
       xlink:href="#ButtonShadow-0"
       id="linearGradient1976"
       gradientUnits="userSpaceOnUse"
       gradientTransform="matrix(0.88668581,0,0,-0.88621557,103.97166,91.631566)"
       x1="32.251034"
       y1="6.1317081"
       x2="32.251034"
       y2="90.238609" />
    <linearGradient
       xlink:href="#ButtonShadow-0"
       id="linearGradient1978"
       gradientUnits="userSpaceOnUse"
       gradientTransform="matrix(0.90932204,0,0,-0.90907903,8.9451063,90.567956)"
       x1="32.251034"
       y1="6.1317081"
       x2="32.251034"
       y2="90.238609" />
    <linearGradient
       gradientTransform="matrix(0.88394566,0,0,-0.88394572,10.163169,89.361561)"
       gradientUnits="userSpaceOnUse"
       xlink:href="#ButtonShadow-0"
       id="linearGradient3780"
       y2="90.238609"
       x2="32.251034"
       y1="6.1317081"
       x1="32.251034" />
    <linearGradient
       gradientTransform="matrix(0.83742219,0,0,-0.8374222,12.396274,87.12843)"
       gradientUnits="userSpaceOnUse"
       xlink:href="#ButtonShadow-0"
       id="linearGradient3721-0"
       y2="90.238609"
       x2="32.251034"
       y1="6.1317081"
       x1="32.251034" />
    <linearGradient
       x1="32.891998"
       y1="8.059"
       gradientTransform="matrix(1.1538423,0,0,1.1746103,-7.1476824,6.2923109)"
       x2="36.358002"
       gradientUnits="userSpaceOnUse"
       y2="5.4565001"
       id="linearGradient3225-6">
      <stop
         offset="0"
         style="stop-color:#497db8;stop-opacity:1"
         id="stop8591-7" />
      <stop
         offset="1"
         style="stop-color:#276096;stop-opacity:1"
         id="stop8593-5" />
    </linearGradient>
    <radialGradient
       gradientTransform="matrix(4.5608932,-0.80134104,0.40815326,2.3230351,-148.56388,-20.727491)"
       gradientUnits="userSpaceOnUse"
       xlink:href="#linearGradient1466"
       id="radialGradient4112-4"
       fy="36.95731"
       fx="41.752941"
       r="19"
       cy="36.95731"
       cx="41.752941" />
    <linearGradient
       id="linearGradient1466">
      <stop
         id="stop1460"
         style="stop-color:#b3d1ff;stop-opacity:1"
         offset="0" />
      <stop
         id="stop1462"
         style="stop-color:#b3d1ff;stop-opacity:1"
         offset="0.5" />
      <stop
         id="stop1464"
         style="stop-color:#b3d1ff;stop-opacity:1"
         offset="1" />
    </linearGradient>
    <linearGradient
       gradientTransform="matrix(1.7265738,0,0,1.7265738,-16.503444,-52.029722)"
       gradientUnits="userSpaceOnUse"
       xlink:href="#linearGradient1458"
       id="linearGradient4128-4-3"
       y2="70"
       x2="36"
       y1="61"
       x1="31" />
    <linearGradient
       id="linearGradient1458">
      <stop
         id="stop1454"
         style="stop-color:#b3e1ff;stop-opacity:1"
         offset="0" />
      <stop
         id="stop1456"
         style="stop-color:#f0ffff;stop-opacity:0"
         offset="1" />
    </linearGradient>
    <linearGradient
       x1="21.197924"
       y1="48.041809"
       x2="21.197924"
       y2="79.518021"
       id="linearGradient3803"
       xlink:href="#linearGradient3792"
       gradientUnits="userSpaceOnUse"
       spreadMethod="reflect"
       gradientTransform="translate(-2.1846,-3.506686)" />
    <linearGradient
       id="linearGradient3792">
      <stop
         id="stop3794"
         style="stop-color:#75a6ea;stop-opacity:1"
         offset="0" />
      <stop
         id="stop3796"
         style="stop-color:#70c5ff;stop-opacity:1"
         offset="1" />
    </linearGradient>
  </defs>
  <metadata
     id="metadata18162">
    <rdf:RDF>
      <cc:Work
         rdf:about="">
        <dc:format>image/svg+xml</dc:format>
        <dc:type
           rdf:resource="http://purl.org/dc/dcmitype/StillImage" />
        <dc:title></dc:title>
      </cc:Work>
    </rdf:RDF>
  </metadata>
  <g
     transform="matrix(1.05,0,0,1.05,-1.1999998,-2.2499999)"
     id="layer1">
    <g
       transform="matrix(0.51177463,0,0,0.51177463,-2.915536,0.9813072)"
       id="layer5"
       style="display:inline">
      <path
         d="m 20.618253,86.01187 c -3.916074,0 -7.105399,-3.225978 -7.105399,-7.187076 V 15.039542 c 0,-3.961099 3.189325,-7.1870759 7.105399,-7.1870759 H 61.848275 L 91.672258,37.676449 v 41.148345 c 0,3.961098 -3.189315,7.187076 -7.1054,7.187076 z"
         id="path3770"
         style="display:inline;opacity:0.2;fill:url(#linearGradient1978);fill-opacity:1;fill-rule:nonzero;stroke:none;stroke-width:0.89326495" />
      <path
         style="display:inline;opacity:0.3;fill:url(#linearGradient3780);fill-opacity:1;fill-rule:nonzero;stroke:none;stroke-width:0.86845267"
         d="m 21.510559,84.057885 h 62.16399 c 3.34823,0 6.04372,-2.727212 6.04372,-6.114824 V 38.904982 L 60.619729,9.8064506 h -39.10917 c -3.34822,0 -6.04372,2.7272114 -6.04372,6.1148244 v 62.021786 c 0,3.387612 2.6955,6.114824 6.04372,6.114824 z"
         id="rect3723" />
    </g>
    <g
       style="opacity:1"
       transform="translate(-224.07679,105.6599)"
       id="layer1-3">
      <path
         style="fill:url(#linearGradient3617);fill-opacity:1;fill-rule:nonzero;stroke:none;stroke-width:0.42857143"
         d="m 232.64822,-98.6599 h 19.54285 l 13.88572,13.885715 v 19.542857 c 0,1.424571 -1.14685,2.571428 -2.57143,2.571428 h -30.85714 c -1.42458,0 -2.57143,-1.146857 -2.57143,-2.571428 v -30.857144 c 0,-1.424571 1.14685,-2.571428 2.57143,-2.571428 z"
         id="rect2419-1" />
      <path
         d="m 232.64822,-98.6599 c -1.42457,0 -2.57143,1.151568 -2.57143,2.581998 v 0.860662 28.234034 c 1.98322,4.185183 0.51348,2.977317 0.42857,0.430332 v -28.09486 -0.860668 c 0,-1.197119 0.95064,-2.151664 2.14286,-2.151664 h 0.85715 17.82858 0.85715 l 13.45714,13.326778 v 0.860667 16.919747 c -1.2063,3.165148 0.42855,3.584963 0.42855,-0.430333 v -16.919747 -0.860668 L 252.19108,-98.6599 Z"
         id="rect3728-7"
         style="opacity:0.3;fill:url(#linearGradient2015);fill-opacity:1;fill-rule:nonzero;stroke:none;stroke-width:0.4294512" />
    </g>
    <g
       transform="matrix(0.40178968,0,0,0.34139566,-55.552134,33.535744)"
       style="display:inline"
       id="layer3-5">
      <path
         style="opacity:0.29300005;fill:url(#linearGradient3803);fill-opacity:1;stroke:none"
         d="m 16.966797,9.0878906 c -1.377301,0 -1.257716,20.4645864 -1.474609,35.8652344 H 18.625 C 18.301315,30.794408 18.413825,9.0878906 16.966797,9.0878906 Z M 18.625,44.953125 c 0.154547,6.760258 0.400647,11.955078 0.978516,11.955078 1.040629,0 1.185069,-6.346168 1.421875,-11.955078 z m 2.400391,0 h 2.171875 c -0.143436,-4.760457 -0.384921,-8.369141 -0.958985,-8.369141 -0.78671,0 -1.026865,3.962989 -1.21289,8.369141 z m 2.171875,0 c 0.320831,10.64803 0.103309,27.69269 1.677734,27.496094 1.264664,-0.157922 1.421183,-14.140145 1.546875,-27.496094 z m 3.224609,0 h 2.169922 c -0.09359,-12.466097 -0.20137,-23.978955 -1.080078,-23.910156 -0.886223,0.06938 -0.975242,11.732675 -1.089844,23.910156 z m 2.169922,0 c 0.111763,14.887144 0.203208,31.161912 1.556641,31.082031 1.67393,-0.09879 1.41081,-18.375701 1.601562,-31.082031 z m 3.158203,0 h 2.458984 c -0.159855,-5.977906 -0.351525,-11.955078 -1.423828,-11.955078 -0.714519,0 -0.934453,5.247096 -1.035156,11.955078 z m 2.458984,0 c 0.15886,5.940686 0.284734,11.882565 1.210938,11.955078 0.691913,0.05417 0.99096,-5.240271 1.179687,-11.955078 z m 2.390625,0 h 2.802735 C 39.160079,31.991341 39.154555,16.261719 38.056641,16.261719 c -1.146462,0 -1.119856,16.694884 -1.457032,28.691406 z m 2.802735,0 c 0.167744,8.974731 0.446684,16.653068 1.291015,16.736328 1.336663,0.131812 1.167352,-9.381968 1.373047,-16.736328 z m 2.664062,0 h 2.675782 c -0.09936,-4.131172 -0.161184,-8.482167 -1.41211,-8.369141 -0.866092,0.07826 -1.136226,3.812486 -1.263672,8.369141 z m 2.675782,0 c 0.08831,3.671626 0.205938,7.171875 1.224609,7.171875 0.636632,0 0.909793,-3.087672 1.068359,-7.171875 z m 2.292968,0 h 2.884766 c -0.142606,-11.954847 -0.285399,-23.910156 -1.31836,-23.910156 -1.497721,0 -1.210415,14.74088 -1.566406,23.910156 z m 2.884766,0 c 0.142606,11.954847 0.285404,23.908203 1.318359,23.908203 0.930366,0 1.215653,-11.238197 1.386719,-23.908203 z m 2.705078,0 h 2 V 14.75 C 54.442757,11.370948 54.205451,9.2011814 53.875,9.0878906 52.872459,8.7441797 52.851982,28.141685 52.625,44.953125 Z m -37.132812,0 h -2.699219 c 0.195181,7.883933 0.346859,16.736328 1.537109,16.736328 0.777947,0 1.031312,-7.448995 1.16211,-16.736328 z m -2.699219,0 c -0.155404,-6.277211 -0.337979,-11.955078 -1.09961,-11.955078 -0.637105,0 -0.823113,5.380649 -0.949218,11.955078 z m -2.048828,0 H 7.765625 c 0.063264,11.954847 0.1166056,23.908203 1.2910156,23.908203 1.4402884,0 1.4873574,-13.47387 1.6875004,-23.908203 z m -2.978516,0 C 7.7023613,32.998278 7.63074,21.042969 6.421875,21.042969 c -2.34779,0 -1.0538787,23.910156 -2.6367188,23.910156 z M 55.277344,45.125 c 0.1916,14.819825 0.415575,28.618337 1.234375,28.519531 C 57.643527,73.507957 57.685155,57.0592 58.029297,45.125 Z m 5.085937,0 c 0.153975,5.917926 0.35296,11.783203 1.419922,11.783203 0.945468,0 1.193192,-5.46845 1.320313,-11.783203 z m 5.332031,0 c 0.10691,10.005514 0.212811,20.150391 1.361329,20.150391 1.109824,0 1.277494,-9.799767 1.371093,-20.150391 z m 5.50586,0 c 0.145392,5.264521 0.411974,9.390625 1.128906,9.390625 0.932775,0 1.172919,-4.584654 1.359375,-9.390625 z m 5.011719,0 c 0.225055,7.233806 0.34734,15.369141 1.388671,15.369141 0.928783,0 1.148983,-7.490703 1.322266,-15.369141 z m 5.117187,0 c 0.118545,12.234409 0.162111,26.128906 1.544922,26.128906 1.271817,0 1.420821,-13.037821 1.501953,-26.128906 z"
         transform="translate(153.91341,-81.510263)"
         id="path3801" />
    </g>
    <path
       d="m 23.095,7.0007336 c 3.179734,0 1.245573,14.2927244 1.245573,14.2927244 0,0 17.662844,-1.870813 17.662844,3.984542 C 42.003417,23.851681 42,20.885715 42,20.885715 L 28.11428,7 Z"
       style="opacity:0.2;fill:#000000;fill-opacity:1;fill-rule:evenodd;stroke-width:0.95571315"
       id="path4474-3-5" />
    <path
       d="M 6,39.721429 C 6,41.537756 7.146857,43 8.571429,43 H 39.428571 C 40.853143,43 42,41.537756 42,39.721429 V 33.571428 H 6 Z"
       id="rect3736"
       style="color:#000000;display:inline;overflow:visible;visibility:visible;opacity:1;fill:url(#linearGradient3748);fill-opacity:1;fill-rule:nonzero;stroke:none;stroke-width:0.72588795;marker:none;enable-background:accumulate" />
    <path
       d="M 8.5714282,43 C 7.146857,43 6,41.848431 6,40.418006 V 39.418194 C 6.017537,34.185733 6.4285697,34.07415 6.4285697,38.987836 v 0.860665 c 0,1.197119 0.9506364,2.151662 2.1428585,2.151662 h 0.8571448 29.142844 0.857145 c 1.192222,0 2.142858,-0.954543 2.142858,-2.151662 V 38.987836 C 41.61349,33.154382 42,35.150526 42,39.418169 v 0.999812 C 41.99999,41.848431 40.853133,43 39.428562,43 Z"
       id="path3615-2"
       style="opacity:0.2;fill:url(#radialGradient3619-6);fill-opacity:1;fill-rule:nonzero;stroke:none;stroke-width:0.42945099" />
    <g
       id="text1540"
       style="font-style:normal;font-weight:normal;font-size:39.83179474px;line-height:1.25;font-family:sans-serif;letter-spacing:0px;word-spacing:0px;fill:#000000;fill-opacity:1;stroke:none;stroke-width:0.99579489"
       transform="matrix(1.0042229,0,0,0.9957949,-16.0339,-23.152542)"
       aria-label="DOC" />
    <path
       d="m 24.277,7 c 3.0062,0 1.165566,13.240168 1.165566,13.240168 0,0 16.558213,-1.970967 16.558213,3.564832 C 42.000779,22.456522 42,20.885715 42,20.885715 L 28.11428,7 Z"
       style="opacity:0.2;fill:#000000;fill-opacity:1;fill-rule:evenodd;stroke-width:0.90355515"
       id="path4474-3" />
    <path
       d="m 25.695529,7.0086975 c 2.832447,0 1.020233,12.2306245 1.020233,12.2306245 0,0 15.288338,-1.878262 15.288338,3.337578 C 42.0041,21.306362 42,20.885715 42,20.885715 L 28.11428,7 Z"
       style="fill:url(#linearGradient3225);fill-rule:evenodd;stroke-width:0.85133129"
       id="path4474" />
    <g
       style="display:inline"
       id="g4093"
       transform="matrix(0.24377344,0,0,0.24377344,3.6240531,11.544923)">
      <g
         transform="matrix(0.8620318,0,0,0.8620318,7.855678,6.3841364)"
         id="g1472">
        <g
           transform="matrix(1.9534141,0,0,1.9534141,-10.754156,-45.940692)"
           style="display:inline"
           id="layer8">
          <path
             style="opacity:1;fill:#6e93b6;fill-opacity:1;fill-rule:nonzero;stroke:none"
             d="m 38.994631,25.428559 -4.975872,-5.405094 c 0,0 0.113135,24.845606 0.11846,29.024068 -3.099725,-1.685814 -7.518217,-1.264359 -11.175366,1.386743 -4.731162,3.412443 -6.376216,9.231267 -3.643536,12.983559 2.746259,3.765901 8.78257,4.024178 13.513757,0.611755 3.725119,-2.705454 5.805202,-6.9472 5.057461,-10.427585 -0.02727,-0.108779 -0.06801,-0.217536 -0.09516,-0.326334 l 0.13979,-20.369684 c 0.496976,-1.475472 1.305145,-2.032863 4.698406,2.249512 3.909781,6.358271 -0.242773,15.791902 -0.242773,15.791902 0,0 0.671594,-0.594854 1.478642,-1.466117 2.948444,-3.183051 4.265252,-8.865938 2.531103,-14.261774 -1.492782,-3.215162 -6.223493,-8.506625 -7.404942,-9.790936 z"
             id="path11" />
        </g>
        <path
           d="M 76.859862,17.877279 C 70.628816,8.9296348 63.109793,1.0982381 55.698554,-6.8265728 l 0.231402,56.6239798 c 0.97997,0.369273 1.902183,0.800467 2.712315,1.356157 V 16.321968 c 0,-5.424632 0.03076,-9.2079316 4.302347,-6.126253 7.485907,5.40061 9.551683,6.837095 13.915244,7.681564 z"
           id="path3814"
           style="display:inline;opacity:0.7;fill:url(#radialGradient4112-4);fill-opacity:1;stroke:none;stroke-width:1.35615778" />
        <path
           d="m 52.559494,55.017847 c 2.107921,4.276518 -2.493502,8.928749 -9.335931,12.30142 -6.842427,3.372672 -13.334772,4.188625 -15.442694,-0.0879 -2.10792,-4.276518 1.730157,-10.477412 8.572586,-13.850084 6.842428,-3.372672 14.098119,-2.639961 16.206039,1.636557 z"
           id="path3891-5"
           style="color:#000000;display:inline;overflow:visible;visibility:visible;fill:url(#linearGradient4128-4-3);fill-opacity:1;fill-rule:nonzero;stroke:none;stroke-width:2.58986068;marker:none;enable-background:accumulate" />
      </g>
    </g>
  </g>
  <path
     id="rect1270"
     d="M 5.1000001,33 H 42.9 v 1 H 5.1000001 Z"
     style="opacity:0.3;fill:#000000;fill-opacity:1;stroke:none;stroke-width:0.24464579;stroke-linejoin:round;stroke-miterlimit:4;stroke-dasharray:none;stroke-dashoffset:0;stroke-opacity:1;paint-order:stroke fill markers" />
  <path
     id="rect1270-3"
     d="M 5.1000001,32 H 42.9 v 1 H 5.1000001 Z"
     style="opacity:0.1;fill:#ffffff;fill-opacity:1;stroke:none;stroke-width:0.24464577;stroke-linejoin:round;stroke-miterlimit:4;stroke-dasharray:none;stroke-dashoffset:0;stroke-opacity:1;paint-order:stroke fill markers" />
  <g
     style="font-style:normal;font-weight:normal;font-size:40px;line-height:125%;font-family:sans-serif;letter-spacing:0px;word-spacing:0px;display:inline;fill:#000000;fill-opacity:1;stroke:none;stroke-width:1px;stroke-linecap:butt;stroke-linejoin:miter;stroke-opacity:1"
     id="text4534"
     transform="matrix(0.4755347,0,0,0.4755347,0.40261736,-2.2358903)">
    <path
       d="m 30.696777,79.564941 h 2.702637 l 1.889648,7.946778 1.875,-7.946778 h 2.717286 l 1.875,7.946778 1.889648,-7.946778 H 46.32666 L 43.748535,90.5 H 40.496582 L 38.511719,82.187012 36.548828,90.5 h -3.251953 z"
       style="font-style:normal;font-variant:normal;font-weight:bold;font-stretch:normal;font-size:15px;font-family:sans-serif;-inkscape-font-specification:'sans-serif Bold';fill:#ffffff;fill-opacity:1"
       id="path4539" />
    <path
       d="m 54.141602,88.507812 h -4.40918 L 49.036621,90.5 h -2.834473 l 4.050293,-10.935059 h 3.361817 L 57.664551,90.5 h -2.834473 z m -3.706055,-2.028808 h 2.995605 l -1.49414,-4.350586 z"
       style="font-style:normal;font-variant:normal;font-weight:bold;font-stretch:normal;font-size:15px;font-family:sans-serif;-inkscape-font-specification:'sans-serif Bold';fill:#ffffff;fill-opacity:1"
       id="path4541" />
    <path
       d="m 56.77832,79.564941 h 2.834473 l 2.900391,8.071289 2.893066,-8.071289 h 2.834473 L 64.19043,90.5 h -3.361817 z"
       style="font-style:normal;font-variant:normal;font-weight:bold;font-stretch:normal;font-size:15px;font-family:sans-serif;-inkscape-font-specification:'sans-serif Bold';fill:#ffffff;fill-opacity:1"
       id="path4543" />
  </g>
</svg>
