<?xml version="1.0" encoding="UTF-8" standalone="no"?>
<svg
   xmlns:dc="http://purl.org/dc/elements/1.1/"
   xmlns:cc="http://creativecommons.org/ns#"
   xmlns:rdf="http://www.w3.org/1999/02/22-rdf-syntax-ns#"
   xmlns:svg="http://www.w3.org/2000/svg"
   xmlns="http://www.w3.org/2000/svg"
   xmlns:xlink="http://www.w3.org/1999/xlink"
   style="display:inline"
   id="svg2408"
   height="48"
   width="48"
   version="1.0">
  <defs
     id="defs2410">
    <linearGradient
       id="linearGradient3604">
      <stop
         offset="0"
         style="stop-color:#2f2f2f;stop-opacity:1"
         id="stop3606" />
      <stop
         offset="0.43731192"
         style="stop-color:#ffffff;stop-opacity:1"
         id="stop3608" />
      <stop
         offset="0.62138397"
         style="stop-color:#979797;stop-opacity:1"
         id="stop3610" />
      <stop
         offset="0.7723214"
         style="stop-color:#505050;stop-opacity:1"
         id="stop3612" />
      <stop
         offset="1"
         style="stop-color:#e6e6e6;stop-opacity:1"
         id="stop3614" />
    </linearGradient>
    <linearGradient
       id="linearGradient3435">
      <stop
         offset="0"
         style="stop-color:#ededed;stop-opacity:1"
         id="stop3437" />
      <stop
         offset="1"
         style="stop-color:#b0b0b0;stop-opacity:1"
         id="stop3439" />
    </linearGradient>
    <linearGradient
       id="linearGradient3387">
      <stop
         offset="0"
         style="stop-color:#a2a2a2;stop-opacity:1"
         id="stop3389" />
      <stop
         offset="1"
         style="stop-color:#ffffff;stop-opacity:1"
         id="stop3391" />
    </linearGradient>
    <linearGradient
       id="linearGradient3354">
      <stop
         offset="0"
         style="stop-color:#b4b4b4;stop-opacity:1"
         id="stop3356" />
      <stop
         offset="0.20467032"
         style="stop-color:#646464;stop-opacity:1"
         id="stop3362" />
      <stop
         offset="0.49567693"
         style="stop-color:#ffffff;stop-opacity:1"
         id="stop3364" />
      <stop
         offset="1"
         style="stop-color:#3c3c3c;stop-opacity:1"
         id="stop3358" />
    </linearGradient>
    <linearGradient
       id="linearGradient3290">
      <stop
         offset="0"
         style="stop-color:#ffffff;stop-opacity:1"
         id="stop3292" />
      <stop
         offset="0.48973215"
         style="stop-color:#8c8c8c;stop-opacity:1"
         id="stop3304" />
      <stop
         offset="0.50044644"
         style="stop-color:#cfcfcf;stop-opacity:1"
         id="stop3306" />
      <stop
         offset="0.62276787"
         style="stop-color:#ffffff;stop-opacity:1"
         id="stop3298" />
      <stop
         offset="0.81696427"
         style="stop-color:#c8c8c8;stop-opacity:1"
         id="stop3300" />
      <stop
         offset="1"
         style="stop-color:#505050;stop-opacity:1"
         id="stop3294" />
    </linearGradient>
    <linearGradient
       id="linearGradient3236">
      <stop
         offset="0"
         style="stop-color:#818181;stop-opacity:1"
         id="stop3238" />
      <stop
         offset="0.2"
         style="stop-color:#f9f9f9;stop-opacity:1"
         id="stop3242" />
      <stop
         offset="1"
         style="stop-color:#dcdcdc;stop-opacity:0"
         id="stop3240" />
    </linearGradient>
    <linearGradient
       id="linearGradient3199">
      <stop
         offset="0"
         style="stop-color:#dcdcdc;stop-opacity:1"
         id="stop3201" />
      <stop
         offset="1"
         style="stop-color:#fafafa;stop-opacity:1"
         id="stop3203" />
    </linearGradient>
    <linearGradient
       gradientTransform="scale(1.0058652,0.994169)"
       gradientUnits="userSpaceOnUse"
       id="ButtonShadow"
       y2="7.0165396"
       x2="45.447727"
       y1="92.539597"
       x1="45.447727">
      <stop
         offset="0"
         style="stop-color:#000000;stop-opacity:1"
         id="stop3750" />
      <stop
         offset="1"
         style="stop-color:#000000;stop-opacity:0.58823532"
         id="stop3752" />
    </linearGradient>
    <linearGradient
       id="linearGradient3737">
      <stop
         offset="0"
         style="stop-color:#ffffff;stop-opacity:1"
         id="stop3739" />
      <stop
         offset="1"
         style="stop-color:#ffffff;stop-opacity:0"
         id="stop3741" />
    </linearGradient>
    <linearGradient
       id="linearGradient3700">
      <stop
         offset="0"
         style="stop-color:#b4b4b4;stop-opacity:1"
         id="stop3702" />
      <stop
         offset="1"
         style="stop-color:#dcdcdc;stop-opacity:1"
         id="stop3704" />
    </linearGradient>
    <filter
       id="filter3174"
       style="color-interpolation-filters:sRGB">
      <feGaussianBlur
         stdDeviation="1.71"
         id="feGaussianBlur3176" />
    </filter>
    <linearGradient
       gradientUnits="userSpaceOnUse"
       xlink:href="#linearGradient3737"
       id="linearGradient3220"
       y2="27.428572"
       x2="87.5"
       y1="74"
       x1="19.035713" />
    <linearGradient
       gradientUnits="userSpaceOnUse"
       xlink:href="#linearGradient3236"
       id="linearGradient3234"
       y2="73"
       x2="24"
       y1="73"
       x1="6" />
    <linearGradient
       gradientTransform="matrix(-1,0,0,1,96,0)"
       gradientUnits="userSpaceOnUse"
       xlink:href="#linearGradient3236"
       id="linearGradient3246"
       y2="73"
       x2="24"
       y1="73"
       x1="6" />
    <linearGradient
       gradientUnits="userSpaceOnUse"
       xlink:href="#linearGradient3199"
       id="linearGradient3223"
       y2="5.8331571"
       x2="38.748035"
       y1="65.59034"
       x1="38.748035" />
    <radialGradient
       gradientTransform="matrix(0,-1.085034,2,0,-90,187.65306)"
       gradientUnits="userSpaceOnUse"
       xlink:href="#linearGradient3700"
       id="radialGradient3229"
       fy="90"
       fx="90"
       r="42"
       cy="90"
       cx="90" />
    <clipPath
       id="clipPath3235">
      <path
         style="fill:#ffffff;fill-opacity:1;fill-rule:nonzero;stroke:none"
         id="path3237"
         d="m 66,6 v 55 c 0,1.662 1.338,3 3,3 h 6 c 1.662,0 3,-1.338 3,-3 V 6 H 74 V 8 H 70 V 6 Z" />
    </clipPath>
    <filter
       id="filter3243"
       height="1.0732203"
       width="1.3323077"
       y="-0.036610167"
       x="-0.16615385"
       style="color-interpolation-filters:sRGB">
      <feGaussianBlur
         stdDeviation="0.9"
         id="feGaussianBlur3245" />
    </filter>
    <linearGradient
       gradientTransform="translate(0,-1)"
       gradientUnits="userSpaceOnUse"
       xlink:href="#linearGradient3354"
       id="linearGradient3360"
       y2="59"
       x2="75.25"
       y1="59"
       x1="68.75" />
    <linearGradient
       gradientTransform="translate(0,-1)"
       gradientUnits="userSpaceOnUse"
       xlink:href="#linearGradient3290"
       id="linearGradient3372"
       y2="54"
       x2="73"
       y1="54"
       x1="69" />
    <linearGradient
       gradientUnits="userSpaceOnUse"
       xlink:href="#linearGradient3387"
       id="linearGradient3393"
       y2="65"
       x2="79"
       y1="64.163078"
       x1="63.484772" />
    <filter
       id="filter3429"
       height="1.1907072"
       width="1.3236568"
       y="-0.095353596"
       x="-0.16182838"
       style="color-interpolation-filters:sRGB">
      <feGaussianBlur
         stdDeviation="0.53551312"
         id="feGaussianBlur3431" />
    </filter>
    <linearGradient
       gradientTransform="matrix(-1,0,0,1,144.03125,-2)"
       gradientUnits="userSpaceOnUse"
       xlink:href="#linearGradient3435"
       id="linearGradient3489"
       y2="17.5"
       x2="75.0625"
       y1="17.5"
       x1="68.96875" />
    <linearGradient
       gradientTransform="translate(0,-2)"
       gradientUnits="userSpaceOnUse"
       xlink:href="#linearGradient3435"
       id="linearGradient3516"
       y2="17.763245"
       x2="75.97097"
       y1="17.763245"
       x1="68.02903" />
    <linearGradient
       gradientTransform="matrix(1.1262691,0,0,1,-7.4019692,-49.5)"
       gradientUnits="userSpaceOnUse"
       xlink:href="#linearGradient3354"
       id="linearGradient3530"
       y2="59"
       x2="72.250572"
       y1="59"
       x1="68.75" />
    <linearGradient
       gradientTransform="matrix(-1,0,0,1,144,-4)"
       gradientUnits="userSpaceOnUse"
       xlink:href="#linearGradient3604"
       id="linearGradient3602"
       y2="54"
       x2="73"
       y1="54"
       x1="69" />
    <linearGradient
       gradientTransform="matrix(1.0058652,0,0,0.994169,100,0)"
       gradientUnits="userSpaceOnUse"
       id="ButtonShadow-0"
       y2="7.0165396"
       x2="45.447727"
       y1="92.539597"
       x1="45.447727">
      <stop
         offset="0"
         style="stop-color:#000000;stop-opacity:1"
         id="stop3750-8" />
      <stop
         offset="1"
         style="stop-color:#000000;stop-opacity:0.58823532"
         id="stop3752-5" />
    </linearGradient>
    <linearGradient
       gradientTransform="matrix(1.0238095,0,0,1.0119048,-1.1428571,-98.071429)"
       gradientUnits="userSpaceOnUse"
       xlink:href="#ButtonShadow-0"
       id="linearGradient3780"
       y2="90.238609"
       x2="32.251034"
       y1="6.1317081"
       x1="32.251034" />
    <linearGradient
       gradientTransform="matrix(1.0238095,0,0,1.0119048,-1.1428571,-98.071429)"
       gradientUnits="userSpaceOnUse"
       xlink:href="#ButtonShadow-0"
       id="linearGradient3772"
       y2="90.238609"
       x2="32.251034"
       y1="6.1317081"
       x1="32.251034" />
    <linearGradient
       gradientTransform="matrix(1.0238095,0,0,1.0119048,-1.1428571,-98.071429)"
       gradientUnits="userSpaceOnUse"
       xlink:href="#ButtonShadow-0"
       id="linearGradient3725"
       y2="90.238609"
       x2="32.251034"
       y1="6.1317081"
       x1="32.251034" />
    <linearGradient
       gradientTransform="translate(0,-97)"
       gradientUnits="userSpaceOnUse"
       xlink:href="#ButtonShadow-0"
       id="linearGradient3721"
       y2="90.238609"
       x2="32.251034"
       y1="6.1317081"
       x1="32.251034" />
    <linearGradient
       gradientTransform="matrix(1.0238095,0,0,1.0119048,-1.1428571,-98.071429)"
       gradientUnits="userSpaceOnUse"
       xlink:href="#ButtonShadow-0"
       id="linearGradient3760"
       y2="90.238609"
       x2="32.251034"
       y1="6.1317081"
       x1="32.251034" />
    <linearGradient
       gradientUnits="userSpaceOnUse"
       xlink:href="#linearGradient3737"
       id="linearGradient3613"
       y2="138.66119"
       x2="48"
       y1="20.220806"
       x1="48" />
    <clipPath
       id="clipPath3613">
      <rect
         style="fill:#ffffff;fill-opacity:1;fill-rule:nonzero;stroke:none"
         id="rect3615"
         y="6"
         x="6"
         ry="6"
         rx="6"
         height="84"
         width="84" />
    </clipPath>
    <filter
       id="filter3794"
       height="1.3839999"
       width="1.3839999"
       y="-0.192"
       x="-0.192"
       style="color-interpolation-filters:sRGB">
      <feGaussianBlur
         stdDeviation="5.28"
         id="feGaussianBlur3796" />
    </filter>
    <linearGradient
       gradientUnits="userSpaceOnUse"
       xlink:href="#linearGradient3700-7"
       id="linearGradient3617"
       y2="5.9877172"
       x2="48"
       y1="90"
       x1="48" />
    <linearGradient
       id="linearGradient3700-7">
      <stop
         offset="0"
         style="stop-color:#d70751;stop-opacity:1"
         id="stop3702-5" />
      <stop
         offset="1"
         style="stop-color:#e7466b;stop-opacity:1"
         id="stop3704-3" />
    </linearGradient>
    <linearGradient
       gradientUnits="userSpaceOnUse"
       xlink:href="#linearGradient3737"
       id="linearGradient3188"
       y2="63.893143"
       x2="36.357143"
       y1="6"
       x1="36.357143" />
    <radialGradient
       gradientTransform="matrix(1.1573129,0,0,0.99590774,-7.5510206,0.19713193)"
       gradientUnits="userSpaceOnUse"
       xlink:href="#linearGradient3737"
       id="radialGradient3619"
       fy="90.171875"
       fx="48"
       r="42"
       cy="90.171875"
       cx="48" />
    <linearGradient
       xlink:href="#linearGradient3290"
       id="linearGradient959"
       gradientUnits="userSpaceOnUse"
       gradientTransform="translate(0,-1)"
       x1="69"
       y1="54"
       x2="73"
       y2="54" />
    <linearGradient
       xlink:href="#linearGradient3604"
       id="linearGradient961"
       gradientUnits="userSpaceOnUse"
       gradientTransform="matrix(-1,0,0,1,144,-4)"
       x1="69"
       y1="54"
       x2="73"
       y2="54" />
  </defs>
  <metadata
     id="metadata2413">
    <rdf:RDF>
      <cc:Work
         rdf:about="">
        <dc:format>image/svg+xml</dc:format>
        <dc:type
           rdf:resource="http://purl.org/dc/dcmitype/StillImage" />
        <dc:title></dc:title>
      </cc:Work>
    </rdf:RDF>
  </metadata>
  <g
     style="display:none"
     id="layer2"
     transform="translate(0,-48)">
    <rect
       style="opacity:0.9;fill:url(#ButtonShadow);fill-opacity:1;fill-rule:nonzero;stroke:none;filter:url(#filter3174)"
       id="rect3745"
       y="7"
       x="5"
       ry="6"
       rx="6"
       height="85"
       width="86" />
  </g>
  <g
     style="display:inline"
     id="layer5"
     transform="matrix(0.50514756,0,0,0.50514756,0.00549074,-0.50480406)">
    <path
       style="display:inline;opacity:0.07999998;fill:url(#linearGradient3760);fill-opacity:1;fill-rule:nonzero;stroke:none"
       id="path3786"
       transform="scale(1,-1)"
       d="m 12,-95.03125 c -5.5110903,0 -10.03125,4.52016 -10.03125,10.03125 v 71 c 0,5.5110902 4.5201598,10.03125 10.03125,10.03125 h 72 c 5.51109,0 10.03125,-4.5201597 10.03125,-10.03125 v -71 c 0,-5.51109 -4.52016,-10.03125 -10.03125,-10.03125 z" />
    <path
       style="display:inline;opacity:0.1;fill:url(#linearGradient3780);fill-opacity:1;fill-rule:nonzero;stroke:none"
       id="path3778"
       transform="scale(1,-1)"
       d="m 12,-94.03125 c -4.971633,0 -9.03125,4.059617 -9.03125,9.03125 v 71 c 0,4.9716329 4.0596171,9.03125 9.03125,9.03125 h 72 c 4.971633,0 9.03125,-4.059617 9.03125,-9.03125 v -71 c 0,-4.971633 -4.059617,-9.03125 -9.03125,-9.03125 z" />
    <path
       style="display:inline;opacity:0.2;fill:url(#linearGradient3772);fill-opacity:1;fill-rule:nonzero;stroke:none"
       id="path3770"
       transform="scale(1,-1)"
       d="m 12,-93 c -4.4091333,0 -8,3.590867 -8,8 v 71 c 0,4.4091333 3.5908667,8 8,8 h 72 c 4.409133,0 8,-3.5908667 8,-8 v -71 c 0,-4.409133 -3.590867,-8 -8,-8 z" />
    <rect
       style="display:inline;opacity:0.3;fill:url(#linearGradient3725);fill-opacity:1;fill-rule:nonzero;stroke:none"
       id="rect3723"
       transform="scale(1,-1)"
       y="-92"
       x="5"
       ry="7"
       rx="7"
       height="85"
       width="86" />
    <rect
       style="display:inline;opacity:0.45;fill:url(#linearGradient3721);fill-opacity:1;fill-rule:nonzero;stroke:none"
       id="rect3716"
       transform="scale(1,-1)"
       y="-91"
       x="6"
       ry="6"
       rx="6"
       height="84"
       width="84" />
  </g>
  <g
     style="display:inline"
     id="layer1"
     transform="matrix(0.50514756,0,0,0.50514756,0.00549074,-0.50480406)">
    <path
       style="fill:url(#radialGradient3229);fill-opacity:1;fill-rule:nonzero;stroke:none"
       id="rect2419"
       d="M 12,6 C 8.676,6 6,8.676 6,12 v 72 c 0,3.324 2.676,6 6,6 h 72 c 3.324,0 6,-2.676 6,-6 V 12 C 90,8.676 87.324,6 84,6 H 75 V 9 H 69 V 6 Z" />
    <path
       style="fill:url(#linearGradient3234);fill-opacity:1;fill-rule:nonzero;stroke:none"
       id="rect3222"
       d="m 6,56 v 28 c 0,3.324 2.676,6 6,6 H 24 V 56 Z" />
    <path
       style="fill:url(#linearGradient3246);fill-opacity:1;fill-rule:nonzero;stroke:none"
       id="path3244"
       d="m 90,56 v 28 c 0,3.324 -2.676,6 -6,6 H 72 V 56 Z" />
    <path
       style="opacity:0.15;fill:#000000;fill-opacity:1;fill-rule:nonzero;stroke:none"
       id="rect2412"
       d="m 6,82 v 2 c 0,3.324 2.676,6 6,6 h 72 c 3.324,0 6,-2.676 6,-6 v -2 c 0,3.324 -2.676,6 -6,6 H 12 C 8.676,88 6,85.324 6,82 Z" />
    <path
       style="opacity:0.8;fill:#ffffff;fill-opacity:1;fill-rule:nonzero;stroke:none"
       id="path3187"
       d="m 6,78 v 2 c 0,3.324 2.676,6 6,6 h 72 c 3.324,0 6,-2.676 6,-6 v -2 c 0,3.324 -2.676,6 -6,6 H 12 C 8.676,84 6,81.324 6,78 Z" />
    <path
       style="opacity:0.15;fill:#000000;fill-opacity:1;fill-rule:nonzero;stroke:none"
       id="path3189"
       d="m 6,76 v 2 c 0,3.324 2.676,6 6,6 h 72 c 3.324,0 6,-2.676 6,-6 v -2 c 0,3.324 -2.676,6 -6,6 H 12 C 8.676,82 6,79.324 6,76 Z" />
    <path
       style="opacity:0.8;fill:#ffffff;fill-opacity:1;fill-rule:nonzero;stroke:none"
       id="path3191"
       d="m 6,72 v 2 c 0,3.324 2.676,6 6,6 h 72 c 3.324,0 6,-2.676 6,-6 v -2 c 0,3.324 -2.676,6 -6,6 H 12 C 8.676,78 6,75.324 6,72 Z" />
    <path
       style="opacity:0.15;fill:#000000;fill-opacity:1;fill-rule:nonzero;stroke:none"
       id="path3193"
       d="m 6,70 v 2 c 0,3.324 2.676,6 6,6 h 72 c 3.324,0 6,-2.676 6,-6 v -2 c 0,3.324 -2.676,6 -6,6 H 12 C 8.676,76 6,73.324 6,70 Z" />
    <path
       style="fill:url(#linearGradient3223);fill-opacity:1;fill-rule:nonzero;stroke:none"
       id="rect3195"
       d="M 12,6 C 8.676,6 6,8.676 6,12 v 56 c 0,3.324 2.676,6 6,6 h 72 c 3.324,0 6,-2.676 6,-6 V 12 C 90,8.676 87.324,6 84,6 H 75 V 9 H 69 V 6 Z" />
    <path
       style="fill:url(#linearGradient3220);fill-opacity:1;fill-rule:nonzero;stroke:none"
       id="rect3207"
       d="M 12,6 C 8.676,6 6,8.676 6,12 v 56 c 0,3.324 2.676,6 6,6 h 72 c 3.324,0 6,-2.676 6,-6 V 12 C 90,8.676 87.324,6 84,6 h -9 v 2 h 9 c 2.245802,0 4,1.7541975 4,4 v 56 c 0,2.245802 -1.754198,4 -4,4 H 12 C 9.7541975,72 8,70.245802 8,68 V 12 C 8,9.7541975 9.7541975,8 12,8 H 69 V 6 Z" />
  </g>
  <g
     id="layer3"
     transform="matrix(0.50514756,0,0,0.50514756,0.00549074,-0.50480406)">
    <path
       style="fill:#252525;fill-opacity:1;fill-rule:nonzero;stroke:none"
       id="rect3201"
       d="m 66,6 v 55 c 0,1.662 1.338,3 3,3 h 6 c 1.662,0 3,-1.338 3,-3 V 6 H 74 V 8 H 70 V 6 Z" />
    <rect
       style="fill:#4d4d4d;fill-opacity:1;fill-rule:nonzero;stroke:none"
       id="rect3247"
       y="8"
       x="70"
       height="49"
       width="4" />
    <rect
       style="fill:url(#linearGradient3360);fill-opacity:1;fill-rule:nonzero;stroke:#000000;stroke-width:0.5;stroke-linecap:square;stroke-linejoin:miter;stroke-miterlimit:4;stroke-dasharray:none;stroke-dashoffset:0;stroke-opacity:0.56363639"
       id="rect3211"
       y="56"
       x="69"
       ry="1"
       rx="1"
       height="4"
       width="6" />
    <path
       style="fill:none;stroke:#000000;stroke-width:2;stroke-linecap:square;stroke-linejoin:miter;stroke-miterlimit:4;stroke-dasharray:none;stroke-dashoffset:0;stroke-opacity:1;filter:url(#filter3243)"
       id="path3231"
       clip-path="url(#clipPath3235)"
       d="m 66,6 v 55 c 0,1.662 1.338,3 3,3 h 6 c 1.662,0 3,-1.338 3,-3 V 6 H 74 V 8 H 70 V 6 Z" />
    <path
       style="fill:url(#linearGradient959);fill-opacity:1;fill-rule:nonzero;stroke:#000000;stroke-width:0.5;stroke-linecap:square;stroke-linejoin:miter;stroke-miterlimit:4;stroke-dasharray:none;stroke-dashoffset:0;stroke-opacity:0.56363639"
       id="rect3249"
       d="M 69.5,51 C 69.230226,51 69,51.217964 69,51.5 v 3 c 0,0.282036 0.230229,0.5 0.5,0.5 h 1 C 70.769774,55 71,54.782036 71,54.5 V 54 h 1.5 c 0.277,0 0.5,-0.223 0.5,-0.5 v -1 C 73,52.223 72.777,52 72.5,52 H 71 V 51.5 C 71,51.217964 70.769771,51 70.5,51 Z" />
    <use
       xlink:href="#rect3249"
       height="96"
       width="96"
       y="0"
       x="0"
       id="use3308"
       transform="translate(0,-6)" />
    <use
       xlink:href="#use3308"
       height="96"
       width="96"
       y="0"
       x="0"
       id="use3310"
       transform="translate(0,-6)" />
    <use
       xlink:href="#use3310"
       height="96"
       width="96"
       y="0"
       x="0"
       id="use3312"
       transform="translate(0,-6)" />
    <use
       xlink:href="#use3312"
       height="96"
       width="96"
       y="0"
       x="0"
       id="use3314"
       transform="translate(0,-6)" />
    <use
       xlink:href="#use3314"
       height="96"
       width="96"
       y="0"
       x="0"
       id="use3316"
       transform="translate(0,-6)" />
    <use
       xlink:href="#use3316"
       height="96"
       width="96"
       y="0"
       x="0"
       id="use3318"
       transform="translate(0,-6)" />
    <use
       xlink:href="#use3318"
       height="96"
       width="96"
       y="0"
       x="0"
       id="use3320"
       transform="translate(0,-6)" />
    <path
       style="fill:url(#linearGradient961);fill-opacity:1;fill-rule:nonzero;stroke:#000000;stroke-width:0.5;stroke-linecap:square;stroke-linejoin:miter;stroke-miterlimit:4;stroke-dasharray:none;stroke-dashoffset:0;stroke-opacity:0.56363639"
       id="path3322"
       d="m 74.5,48 c 0.269774,0 0.5,0.217964 0.5,0.5 v 3 c 0,0.282036 -0.230229,0.5 -0.5,0.5 h -1 C 73.230226,52 73,51.782036 73,51.5 V 51 H 71.5 C 71.223,51 71,50.777 71,50.5 v -1 C 71,49.223 71.223,49 71.5,49 H 73 V 48.5 C 73,48.217964 73.230229,48 73.5,48 Z" />
    <use
       xlink:href="#path3322"
       height="96"
       width="96"
       y="0"
       x="0"
       id="use3340"
       transform="translate(0,-6)" />
    <use
       xlink:href="#use3340"
       height="96"
       width="96"
       y="0"
       x="0"
       id="use3342"
       transform="translate(0,-6)" />
    <use
       xlink:href="#use3342"
       height="96"
       width="96"
       y="0"
       x="0"
       id="use3344"
       transform="translate(0,-6)" />
    <use
       xlink:href="#use3344"
       height="96"
       width="96"
       y="0"
       x="0"
       id="use3346"
       transform="translate(0,-6)" />
    <use
       xlink:href="#use3346"
       height="96"
       width="96"
       y="0"
       x="0"
       id="use3348"
       transform="translate(0,-6)" />
    <use
       xlink:href="#use3348"
       height="96"
       width="96"
       y="0"
       x="0"
       id="use3350"
       transform="translate(0,-6)" />
    <path
       style="fill:url(#linearGradient3393);fill-opacity:1;fill-rule:nonzero;stroke:none"
       id="path3376"
       d="m 65,6 v 55 c 0,2.202295 1.797705,4 4,4 h 6 c 2.202295,0 4,-1.797705 4,-4 V 6 h -1 v 55 c 0,1.662 -1.338,3 -3,3 h -6 c -1.662,0 -3,-1.338 -3,-3 V 6 Z" />
    <path
       style="fill:#000000;fill-opacity:1;fill-rule:nonzero;stroke:#000000;stroke-width:0.49999994;stroke-linecap:square;stroke-linejoin:miter;stroke-miterlimit:4;stroke-dasharray:none;stroke-dashoffset:0;stroke-opacity:0.56363639;filter:url(#filter3429)"
       id="path3433"
       transform="translate(0,-2)"
       d="m 69.5,10.53125 c -1.027701,0 -1.96875,0.765203 -1.96875,1.8125 v 10.8125 C 67.531245,24.203555 68.449331,25 69.5,25 h 5 c 1.050668,0 1.96875,-0.796448 1.96875,-1.84375 v -10.8125 c -3e-6,-1.047297 -0.941051,-1.8125 -1.96875,-1.8125 z m 1.0625,9.0625 h 2.875 v 1.75 h -2.875 z" />
    <path
       style="fill:url(#linearGradient3516);fill-opacity:1;fill-rule:nonzero;stroke:none"
       id="rect3403"
       d="M 69.229249,9.021415 C 68.54211,9.021415 68,9.503785 68,10.102963 L 67.9949,20.918451 C 67.994922,21.51763 68.537034,22 69.224171,22 h 5.583221 c 0.687139,0 1.229249,-0.48237 1.229249,-1.081549 l 0.0051,-10.815488 c 0,-0.599178 -0.542112,-1.081548 -1.229249,-1.081548 h -5.583221 z m 0.704303,7.949648 h 4.101324 v 3.118378 h -4.101324 z" />
    <path
       style="fill:url(#linearGradient3489);fill-opacity:1;fill-rule:nonzero;stroke:none"
       id="rect3470"
       d="m 74.5625,9.96875 c 0.277,0 0.5,0.223 0.5,0.5 v 10.0625 c 0,0.277 -0.223,0.5 -0.5,0.5 h -5.09375 c -0.277,0 -0.499999,-0.223 -0.5,-0.5 v -10.0625 c 0,-0.277 0.223001,-0.5 0.5,-0.5 z M 74.125,16.9375 H 70 v 3.125 h 4.125 z" />
    <rect
       style="fill:url(#linearGradient3530);fill-opacity:1;fill-rule:nonzero;stroke:#000000;stroke-width:1;stroke-linecap:square;stroke-linejoin:miter;stroke-miterlimit:4;stroke-dasharray:none;stroke-dashoffset:0;stroke-opacity:0.56363639"
       id="rect3399"
       y="7.5"
       x="70.3106"
       ry="0.5"
       rx="0.56313455"
       height="5"
       width="3.3788073" />
    <rect
       style="opacity:0.3;fill:#000000;fill-opacity:1;fill-rule:nonzero;stroke:none"
       id="rect3518"
       y="16"
       x="69.984634"
       height="1"
       width="4" />
  </g>
  <path
     style="display:inline;fill:#d70751;stroke:none;stroke-width:0.25892857;stroke-miterlimit:4;stroke-dasharray:none;stroke-opacity:1"
     id="path2536"
     d="m 25.753276,14.298158 c 0.01949,0.523155 -0.152659,0.77737 -0.30835,1.226902 l -0.279983,0.139234 c -0.22888,0.444768 0.02273,0.282365 -0.141183,0.635971 -0.35772,0.317661 -1.083988,0.993692 -1.316549,1.055621 -0.169982,-0.0037 0.114982,-0.200514 0.152226,-0.277384 -0.478331,0.328271 -0.383921,0.49284 -1.115602,0.692703 l -0.02122,-0.04785 c -1.803759,0.848829 -4.309533,-0.83302 -4.27662,-3.127453 -0.01906,0.145513 -0.05478,0.109135 -0.09463,0.1676 -0.09311,-1.180347 0.545243,-2.365891 1.621867,-2.850718 1.053023,-0.52099 2.287504,-0.307484 3.041272,0.396047 -0.414019,-0.542643 -1.238811,-1.117984 -2.215614,-1.064716 -0.957312,0.01559 -1.853129,0.623846 -2.151951,1.284502 -0.490241,0.308566 -0.547407,1.190091 -0.760914,1.351628 -0.287777,2.113408 0.540696,3.026114 1.942344,4.100358 0.220002,0.148545 0.06193,0.171281 0.09138,0.284314 -0.465556,-0.217837 -0.891703,-0.546974 -1.242494,-0.949951 0.186223,0.272188 0.386954,0.536797 0.646583,0.744673 -0.439356,-0.148329 -1.025957,-1.06385 -1.196805,-1.101094 0.7568,1.355092 3.070071,2.376501 4.282033,1.869586 -0.560833,0.02079 -1.273024,0.01148 -1.902717,-0.221302 -0.265258,-0.136202 -0.624495,-0.417918 -0.560182,-0.470536 1.653482,0.617349 3.361098,0.467289 4.791545,-0.679278 0.364217,-0.283665 0.76178,-0.765895 0.876761,-0.772391 -0.173013,0.260279 0.02967,0.125159 -0.103288,0.354906 0.362052,-0.584868 -0.157856,-0.238192 0.37461,-1.009932 l 0.196617,0.270672 c -0.07362,-0.48591 0.603057,-1.075326 0.534198,-1.843169 0.155258,-0.234727 0.173014,0.252916 0.0084,0.792961 0.228448,-0.59916 0.06041,-0.695519 0.118879,-1.190091 0.06301,0.166301 0.146813,0.342779 0.189471,0.518391 -0.148978,-0.579238 0.152226,-0.975069 0.227148,-1.311785 -0.07406,-0.03248 -0.229747,0.255948 -0.265692,-0.427879 0.0054,-0.297089 0.08293,-0.155691 0.1126,-0.22888 -0.05803,-0.03356 -0.211125,-0.261361 -0.304019,-0.698117 0.06691,-0.102856 0.180159,0.266125 0.271971,0.281066 -0.05911,-0.34711 -0.160671,-0.611936 -0.165002,-0.878494 -0.268506,-0.560833 -0.09506,0.07492 -0.312464,-0.24079 -0.285829,-0.890836 0.236893,-0.206793 0.272405,-0.611285 0.432643,0.626876 0.679279,1.59913 0.792962,2.001673 -0.08662,-0.49089 -0.226283,-0.966623 -0.397132,-1.426766 0.131872,0.05565 -0.21199,-1.009715 0.171283,-0.304235 -0.40904,-1.5038541 -1.749192,-2.9091837 -2.982375,-3.5683246 0.150494,0.1379348 0.340831,0.3111648 0.272838,0.3384481 -0.613668,-0.3648656 -0.505832,-0.3936652 -0.593746,-0.54784 -0.49912,-0.2033289 -0.532466,0.01667 -0.862687,4.329e-4 -0.941938,-0.4997689 -1.123398,-0.446717 -1.990197,-0.7593976 l 0.03941,0.1844902 c -0.623845,-0.2078761 -0.726917,0.078386 -1.400999,4.335e-4 -0.04093,-0.031833 0.216104,-0.1160648 0.427878,-0.1465966 -0.603274,0.079686 -0.575124,-0.1190957 -1.165405,0.021869 0.145296,-0.1019893 0.299471,-0.1697654 0.454512,-0.2563807 -0.491757,0.029886 -1.1745,0.2862632 -0.963809,0.052835 -0.802272,0.3581536 -2.227307,0.8607371 -3.02698,1.6106071 L 15.52074,7.4954131 c -0.366382,0.4397886 -1.597831,1.3135182 -1.695923,1.8836612 l -0.09809,0.022734 c -0.190337,0.3228579 -0.31398,0.6885897 -0.465124,1.0205417 -0.249234,0.425064 -0.365514,0.163702 -0.330002,0.230396 -0.490458,0.994341 -0.734496,1.829743 -0.944755,2.515301 0.149844,0.224117 0.0037,1.349464 0.0602,2.250043 -0.245987,4.448551 3.12204,8.767394 6.803614,9.764336 0.539612,0.193368 1.341884,0.186439 2.024411,0.205491 -0.805087,-0.230395 -0.909025,-0.121909 -1.693758,-0.3954 -0.565813,-0.266774 -0.689672,-0.57101 -1.0907,-0.918984 l 0.158722,0.280415 c -0.786032,-0.27825 -0.457111,-0.344292 -1.096763,-0.546754 l 0.169549,-0.221085 c -0.254865,-0.01949 -0.674948,-0.429178 -0.789713,-0.656759 l -0.278901,0.01105 c -0.334767,-0.412721 -0.51341,-0.710893 -0.500201,-0.941939 l -0.09008,0.160671 c -0.10199,-0.175179 -1.232316,-1.549976 -0.645933,-1.229934 -0.108918,-0.09917 -0.253782,-0.161753 -0.410771,-0.447367 l 0.119311,-0.136202 c -0.281715,-0.363134 -0.519256,-0.828473 -0.501067,-0.983515 0.150493,0.203113 0.254864,0.241223 0.358369,0.276086 -0.712625,-1.767813 -0.752685,-0.09723 -1.29208,-1.799428 l 0.113899,-0.0091 c -0.08726,-0.132305 -0.14075,-0.275003 -0.210908,-0.415536 l 0.0498,-0.494788 c -0.512761,-0.592447 -0.143347,-2.521582 -0.06907,-3.579369 0.05088,-0.430043 0.428095,-0.88802 0.714574,-1.606276 l -0.17453,-0.02989 c 0.333902,-0.582053 1.905966,-2.3383898 2.634398,-2.2483107 0.35274,-0.443036 -0.07016,-0.00176 -0.139234,-0.1130321 0.774989,-0.8018396 1.018594,-0.5664627 1.541533,-0.710893 0.563647,-0.3345513 -0.483962,0.1307884 -0.216755,-0.127541 0.975069,-0.2488018 0.690756,-0.5660297 1.962482,-0.6922709 0.134253,0.076221 -0.311165,0.117796 -0.422899,0.2167543 0.812016,-0.397563 2.570086,-0.3068345 3.712539,0.2204352 1.324561,0.6195146 2.813691,2.4499062 2.872589,4.1720302 l 0.06691,0.01797 c -0.03378,0.684692 0.104804,1.47657 -0.13577,2.203704 l 0.162621,-0.344511" />
  <g
     style="display:inline"
     id="g2608"
     transform="matrix(0.2165377,0,0,0.2165377,8,3.7899882)">
    <path
       id="path2550"
       d="m 13.437,125.506 c -0.045,0.047 -0.045,7.506 -0.138,9.453 -0.092,1.574 -0.232,4.957 -3.568,4.957 -3.429,0 -4.263,-3.939 -4.541,-5.652 -0.324,-1.9 -0.324,-3.477 -0.324,-4.17 0,-2.225 0.139,-8.436 5.375,-8.436 1.576,0 2.456,0.465 3.151,0.834 z M 0,130.975 c 0,13.066 6.951,13.066 7.97,13.066 2.873,0 4.727,-1.576 5.514,-4.309 l 0.093,4.123 c 0.881,-0.047 1.761,-0.139 3.197,-0.139 0.51,0 0.926,0 1.298,0.047 0.371,0 0.741,0.045 1.158,0.092 -0.741,-1.482 -1.297,-4.818 -1.297,-12.049 0,-7.043 0,-18.951 0.602,-22.566 -1.667,0.789 -3.105,1.299 -6.256,1.576 1.251,1.344 1.251,2.039 1.251,8.154 -0.879,-0.277 -1.992,-0.602 -3.892,-0.602 C 1.344,118.369 0,125.598 0,130.975" />
    <path
       id="path2552"
       d="m 25.13,128.609 c 0.047,-3.846 0.835,-7.275 4.124,-7.275 3.615,0 3.891,3.984 3.799,7.275 z m 12.51,0.465 c 0,-5.422 -1.065,-10.752 -7.923,-10.752 -9.452,0 -9.452,10.475 -9.452,12.697 0,9.406 4.216,13.113 11.306,13.113 3.149,0 4.68,-0.461 5.514,-0.695 -0.046,-1.668 0.185,-2.734 0.465,-4.17 -0.975,0.604 -2.226,1.391 -5.006,1.391 -7.229,0 -7.322,-6.582 -7.322,-8.852 H 37.55 l 0.09,-2.732" />
    <path
       id="path2554"
       d="m 52.715,131.066 c 0,4.309 -0.787,10.102 -6.162,10.102 -0.742,0 -1.668,-0.141 -2.27,-0.279 -0.093,-1.668 -0.093,-4.541 -0.093,-7.877 0,-3.986 0.416,-6.068 0.742,-7.09 0.972,-3.289 3.15,-3.334 3.566,-3.334 3.522,0 4.217,4.865 4.217,8.478 z m -13.298,5.051 c 0,3.43 0,5.375 -0.556,6.857 1.9,0.742 4.262,1.158 7.09,1.158 1.807,0 7.043,0 9.869,-5.791 1.344,-2.688 1.807,-6.303 1.807,-9.037 0,-1.668 -0.186,-5.328 -1.529,-7.646 -1.296,-2.176 -3.382,-3.289 -5.605,-3.289 -4.449,0 -5.746,3.707 -6.44,5.607 0,-2.363 0.045,-10.611 0.415,-14.828 -3.011,1.391 -4.866,1.621 -6.857,1.807 1.807,0.74 1.807,3.801 1.807,13.764 v 11.398" />
    <path
       id="path2556"
       d="m 66.535,143.855 c -0.928,-0.139 -1.578,-0.232 -2.922,-0.232 -1.48,0 -2.502,0.094 -3.566,0.232 0.463,-0.881 0.648,-1.299 0.787,-4.309 0.186,-4.125 0.232,-15.154 -0.092,-17.471 -0.232,-1.762 -0.648,-2.039 -1.297,-2.502 3.799,-0.371 4.865,-0.648 6.625,-1.482 -0.369,2.037 -0.418,3.059 -0.418,6.162 -0.091,15.989 -0.138,17.702 0.883,19.602" />
    <path
       id="path2558"
       d="m 81.373,130.74 c -0.092,2.92 -0.139,4.959 -0.928,6.58 -0.973,2.086 -2.594,2.688 -3.799,2.688 -2.783,0 -3.383,-2.316 -3.383,-4.586 0,-4.355 3.893,-4.682 5.652,-4.682 z m -12.744,5.701 c 0,2.92 0.881,5.838 3.477,7.09 1.158,0.51 2.316,0.51 2.688,0.51 4.264,0 5.699,-3.152 6.58,-5.098 -0.047,2.039 0,3.289 0.139,4.912 0.834,-0.047 1.668,-0.139 3.059,-0.139 0.787,0 1.529,0.092 2.316,0.139 -0.51,-0.787 -0.787,-1.252 -0.928,-3.059 -0.092,-1.76 -0.092,-3.521 -0.092,-5.977 l 0.047,-9.453 c 0,-3.523 -0.928,-6.998 -7.879,-6.998 -4.586,0 -7.273,1.391 -8.617,2.086 0.557,1.02 1.02,1.898 1.436,3.893 1.809,-1.576 4.172,-2.41 6.58,-2.41 3.848,0 3.848,2.549 3.848,6.162 -0.881,-0.045 -1.623,-0.137 -2.875,-0.137 -5.887,10e-4 -9.779,2.268 -9.779,8.479" />
    <path
       id="path2560"
       d="m 108.063,139.268 c 0.047,1.576 0.047,3.244 0.695,4.588 -1.021,-0.092 -1.623,-0.232 -3.521,-0.232 -1.113,0 -1.715,0.094 -2.596,0.232 0.184,-0.602 0.279,-0.834 0.371,-1.623 0.139,-1.064 0.232,-4.633 0.232,-5.885 v -5.004 c 0,-2.178 0,-5.33 -0.141,-6.441 -0.092,-0.787 -0.322,-2.918 -3.012,-2.918 -2.641,0 -3.521,1.945 -3.846,3.521 -0.369,1.621 -0.369,3.383 -0.369,10.24 0.045,5.932 0.045,6.486 0.508,8.109 -0.787,-0.092 -1.76,-0.184 -3.15,-0.184 -1.113,0 -1.854,0.045 -2.779,0.184 0.324,-0.742 0.51,-1.113 0.602,-3.707 0.094,-2.549 0.279,-15.061 -0.141,-18.025 -0.23,-1.809 -0.695,-2.225 -1.203,-2.688 3.754,-0.186 4.957,-0.789 6.117,-1.389 v 4.91 c 0.555,-1.438 1.713,-4.635 6.348,-4.635 5.793,0 5.838,4.217 5.885,6.996 v 13.951" />
    <path
       style="fill:#d70751"
       id="path2562"
       d="m 66.926,111.533 -3.838,3.836 -3.836,-3.836 3.836,-3.836 3.838,3.836" />
  </g>
</svg>
