<?xml version="1.0" encoding="UTF-8" standalone="no"?>
<svg
   xmlns:dc="http://purl.org/dc/elements/1.1/"
   xmlns:cc="http://creativecommons.org/ns#"
   xmlns:rdf="http://www.w3.org/1999/02/22-rdf-syntax-ns#"
   xmlns:svg="http://www.w3.org/2000/svg"
   xmlns="http://www.w3.org/2000/svg"
   xmlns:xlink="http://www.w3.org/1999/xlink"
   xmlns:sodipodi="http://sodipodi.sourceforge.net/DTD/sodipodi-0.dtd"
   xmlns:inkscape="http://www.inkscape.org/namespaces/inkscape"
   version="1.1"
   id="svg18157"
   height="48px"
   width="48px"
   sodipodi:docname="text-x-java.svg"
   inkscape:version="0.92.2 2405546, 2018-03-11">
  <sodipodi:namedview
     pagecolor="#ffffff"
     bordercolor="#666666"
     borderopacity="1"
     objecttolerance="10"
     gridtolerance="10"
     guidetolerance="10"
     inkscape:pageopacity="0"
     inkscape:pageshadow="2"
     inkscape:window-width="1920"
     inkscape:window-height="1011"
     id="namedview152"
     showgrid="false"
     inkscape:zoom="13.906433"
     inkscape:cx="13.980615"
     inkscape:cy="21.054868"
     inkscape:window-x="0"
     inkscape:window-y="32"
     inkscape:window-maximized="1"
     inkscape:current-layer="svg18157" />
  <defs
     id="defs18159">
    <linearGradient
       y2="35.581654"
       x2="42.470848"
       y1="11.952797"
       x1="42.470848"
       gradientTransform="matrix(0.89189031,0,0,1.0580283,3.1206609,5.3536023)"
       gradientUnits="userSpaceOnUse"
       id="linearGradient12489"
       xlink:href="#linearGradient3454-2-5-0-3" />
    <linearGradient
       id="linearGradient3454-2-5-0-3">
      <stop
         id="stop3456-4-9-38-1"
         style="stop-color:#ffffff;stop-opacity:1"
         offset="0" />
      <stop
         id="stop3458-39-80-3-5"
         style="stop-color:#ffffff;stop-opacity:0.23529412"
         offset="0.0097359" />
      <stop
         id="stop3460-7-0-2-4"
         style="stop-color:#ffffff;stop-opacity:0.15686275"
         offset="0.99001008" />
      <stop
         id="stop3462-0-9-8-7"
         style="stop-color:#ffffff;stop-opacity:0.39215687"
         offset="1" />
    </linearGradient>
    <linearGradient
       y2="36.657963"
       x2="22.809399"
       y1="49.629246"
       x1="22.934725"
       gradientTransform="matrix(1.1446925,0,0,0.9977536,-3.466138,1.0988397)"
       gradientUnits="userSpaceOnUse"
       id="linearGradient12487"
       xlink:href="#linearGradient6129-963-697-142-998-580-273-44-2-2" />
    <linearGradient
       id="linearGradient6129-963-697-142-998-580-273-44-2-2">
      <stop
         offset="0"
         style="stop-color:#0a0a0a;stop-opacity:0.498"
         id="stop2661-01-6-2" />
      <stop
         offset="1"
         style="stop-color:#0a0a0a;stop-opacity:0"
         id="stop2663-64-5-5" />
    </linearGradient>
    <linearGradient
       y2="43.761127"
       x2="35.792694"
       y1="17.118193"
       x1="35.792694"
       gradientTransform="matrix(1,0,0,1.0357143,2.0849371e-6,-1.5890903)"
       gradientUnits="userSpaceOnUse"
       id="linearGradient12481"
       xlink:href="#linearGradient4632-0-6-4-7" />
    <linearGradient
       id="linearGradient4632-0-6-4">
      <stop
         id="stop4634-4-4-7"
         offset="0"
         style="stop-color:#aacb7d;stop-opacity:1;" />
      <stop
         id="stop4636-3-1-5"
         offset="1"
         style="stop-color:#709937;stop-opacity:1;" />
    </linearGradient>
    <radialGradient
       r="117.14286"
       fy="486.64789"
       fx="605.71429"
       cy="486.64789"
       cx="605.71429"
       gradientTransform="matrix(-0.03079083,0,0,0.02470588,23.389752,31.94164)"
       gradientUnits="userSpaceOnUse"
       id="radialGradient12475"
       xlink:href="#linearGradient5060-820-91-9-0" />
    <linearGradient
       id="linearGradient5060-820-91-9-0">
      <stop
         offset="0"
         style="stop-color:#000000;stop-opacity:1"
         id="stop2681-778-5-1" />
      <stop
         offset="1"
         style="stop-color:#000000;stop-opacity:0"
         id="stop2683-2-86-2" />
    </linearGradient>
    <radialGradient
       r="117.14286"
       fy="486.64789"
       fx="605.71429"
       cy="486.64789"
       cx="605.71429"
       gradientTransform="matrix(0.03079083,0,0,0.02470588,24.610252,31.94164)"
       gradientUnits="userSpaceOnUse"
       id="radialGradient12471"
       xlink:href="#linearGradient5060-179-37-4-0" />
    <linearGradient
       id="linearGradient5060-179-37-4-0">
      <stop
         offset="0"
         style="stop-color:#000000;stop-opacity:1"
         id="stop2675-91-9-2" />
      <stop
         offset="1"
         style="stop-color:#000000;stop-opacity:0"
         id="stop2677-09-0-9" />
    </linearGradient>
    <linearGradient
       y2="609.50507"
       x2="302.85715"
       y1="366.64789"
       x1="302.85715"
       gradientTransform="matrix(0.07938856,0,0,0.02470588,-4.6932879,31.94164)"
       gradientUnits="userSpaceOnUse"
       id="linearGradient12467"
       xlink:href="#linearGradient5048-585-73-1-5" />
    <linearGradient
       id="linearGradient5048-585-73-1-5">
      <stop
         offset="0"
         style="stop-color:#000000;stop-opacity:0"
         id="stop2667-99-4-6" />
      <stop
         offset="0.5"
         style="stop-color:#000000;stop-opacity:1"
         id="stop2669-5-9-4" />
      <stop
         offset="1"
         style="stop-color:#000000;stop-opacity:0"
         id="stop2671-56-4-2" />
    </linearGradient>
    <linearGradient
       y2="34.143417"
       x2="21.37039"
       y1="4.2476678"
       x1="21.37039"
       gradientTransform="matrix(0.89189031,0,0,1.0580283,3.1206621,5.3535997)"
       gradientUnits="userSpaceOnUse"
       id="linearGradient12463"
       xlink:href="#linearGradient4507-0-4-7" />
    <linearGradient
       id="linearGradient4507-0-4-7">
      <stop
         offset="0"
         style="stop-color:#ffffff;stop-opacity:1"
         id="stop4509-35-6-1" />
      <stop
         offset="0.07395859"
         style="stop-color:#ffffff;stop-opacity:0.23529412"
         id="stop4511-46-3-8" />
      <stop
         offset="0.99001008"
         style="stop-color:#ffffff;stop-opacity:0.15686275"
         id="stop4513-15-5-9" />
      <stop
         offset="1"
         style="stop-color:#ffffff;stop-opacity:0.39215687"
         id="stop4515-1-1-8" />
    </linearGradient>
    <linearGradient
       id="linearGradient4646-7-4-3">
      <stop
         id="stop4648-8-0-3"
         style="stop-color:#f9f9f9;stop-opacity:1"
         offset="0" />
      <stop
         id="stop4650-1-7-3"
         style="stop-color:#d8d8d8;stop-opacity:1"
         offset="1" />
    </linearGradient>
    <linearGradient
       id="linearGradient3104-8-8-97-4-6-11-5-5">
      <stop
         id="stop3106-5-4-3-5-0-2-1-0"
         style="stop-color:#000000;stop-opacity:0.32173914"
         offset="0" />
      <stop
         id="stop3108-4-3-7-8-2-0-7-9"
         style="stop-color:#000000;stop-opacity:0.27826086"
         offset="1" />
    </linearGradient>
    <linearGradient
       xlink:href="#linearGradient3104-8-8-97-4-6-11-5-5"
       id="linearGradient18155"
       gradientUnits="userSpaceOnUse"
       gradientTransform="matrix(0.80749834,0,0,0.83374395,106.87672,-0.06984031)"
       x1="-51.786404"
       y1="53.514328"
       x2="-51.786404"
       y2="3.6336823" />
    <linearGradient
       xlink:href="#linearGradient7012-661-145-733-759-865-745"
       id="linearGradient3840"
       x1="22.559322"
       y1="16.466301"
       x2="22.559322"
       y2="44.376751"
       gradientUnits="userSpaceOnUse" />
    <radialGradient
       xlink:href="#linearGradient3484"
       id="radialGradient3070"
       gradientUnits="userSpaceOnUse"
       gradientTransform="matrix(-1.274898e-8,1.7142916,-2.159331,-1.4599595e-8,12.809361,2.8570011)"
       cx="3"
       cy="5.01718"
       fx="3"
       fy="5.01718"
       r="21" />
    <linearGradient
       xlink:href="#linearGradient6404"
       id="linearGradient3068"
       gradientUnits="userSpaceOnUse"
       gradientTransform="translate(-50.940898,0)"
       x1="62.988873"
       y1="13.182598"
       x2="62.988873"
       y2="16.19013" />
    <linearGradient
       xlink:href="#linearGradient3390"
       id="linearGradient3061"
       gradientUnits="userSpaceOnUse"
       gradientTransform="translate(-53.765393,-0.1141929)"
       x1="82.453476"
       y1="45.114193"
       x2="65.340263"
       y2="15.943953" />
    <linearGradient
       xlink:href="#linearGradient6129-963-697-142-998-580-273"
       id="linearGradient3056"
       gradientUnits="userSpaceOnUse"
       gradientTransform="matrix(1.1446925,0,0,0.9977536,-3.4661413,1.0988425)"
       x1="22.934725"
       y1="49.629246"
       x2="22.809399"
       y2="36.657963" />
    <radialGradient
       xlink:href="#linearGradient6087-437-184-795-110-662-495"
       id="radialGradient3053"
       gradientUnits="userSpaceOnUse"
       gradientTransform="matrix(0,1.2079744,-1.6271642,0,26.371748,8.2664685)"
       cx="7.2646537"
       cy="8.3021259"
       fx="7.2646537"
       fy="8.3021259"
       r="20.979567" />
    <linearGradient
       xlink:href="#linearGradient8265-821-176-38-919-66-249"
       id="linearGradient3050"
       gradientUnits="userSpaceOnUse"
       x1="11.566265"
       y1="22.292103"
       x2="15.214532"
       y2="33.95525" />
    <linearGradient
       x1="11.566265"
       y1="22.292103"
       x2="15.214532"
       y2="33.95525"
       id="linearGradient3466"
       xlink:href="#linearGradient8265-821-176-38-919-66-249"
       gradientUnits="userSpaceOnUse" />
    <linearGradient
       id="linearGradient8265-821-176-38-919-66-249">
      <stop
         id="stop2687"
         style="stop-color:#ffffff;stop-opacity:0.2"
         offset="0" />
      <stop
         id="stop2689"
         style="stop-color:#ffffff;stop-opacity:0"
         offset="1" />
    </linearGradient>
    <radialGradient
       cx="7.2646537"
       cy="8.3021259"
       r="20.979567"
       fx="7.2646537"
       fy="8.3021259"
       id="radialGradient2442-940-759"
       xlink:href="#linearGradient6087-437-184-795-110-662-495"
       gradientUnits="userSpaceOnUse"
       gradientTransform="matrix(0,1.2079744,-1.6271642,0,26.371748,8.2664685)" />
    <linearGradient
       id="linearGradient6087-437-184-795-110-662-495">
      <stop
         id="stop2693"
         style="stop-color:#ffffff;stop-opacity:0.40000001"
         offset="0" />
      <stop
         id="stop2695"
         style="stop-color:#ffffff;stop-opacity:0"
         offset="1" />
    </linearGradient>
    <linearGradient
       x1="22.934725"
       y1="49.629246"
       x2="22.809399"
       y2="36.657963"
       id="linearGradient6462-657-405"
       xlink:href="#linearGradient6129-963-697-142-998-580-273"
       gradientUnits="userSpaceOnUse"
       gradientTransform="matrix(1.1446925,0,0,0.9977536,-3.4661413,1.0988425)" />
    <linearGradient
       id="linearGradient6129-963-697-142-998-580-273">
      <stop
         id="stop2661"
         style="stop-color:#0a0a0a;stop-opacity:0.498"
         offset="0" />
      <stop
         id="stop2663"
         style="stop-color:#0a0a0a;stop-opacity:0"
         offset="1" />
    </linearGradient>
    <radialGradient
       cx="63.969177"
       cy="14.113381"
       r="23.097054"
       fx="63.969177"
       fy="14.113381"
       id="radialGradient3404"
       xlink:href="#linearGradient7012-661-145-733-759-865-745"
       gradientUnits="userSpaceOnUse"
       gradientTransform="matrix(1.5646925,-9.5143002e-8,6.1772287e-8,1.015888,-86.212573,8.1461173)" />
    <linearGradient
       id="linearGradient7012-661-145-733-759-865-745">
      <stop
         id="stop2699"
         style="stop-color:#aacb7d;stop-opacity:1"
         offset="0" />
      <stop
         id="stop2701"
         style="stop-color:#709937;stop-opacity:1"
         offset="1" />
    </linearGradient>
    <linearGradient
       x1="82.453476"
       y1="45.114193"
       x2="65.340263"
       y2="15.943953"
       id="linearGradient3412"
       xlink:href="#linearGradient3390"
       gradientUnits="userSpaceOnUse"
       gradientTransform="translate(-53.765393,-0.1141929)" />
    <linearGradient
       id="linearGradient3390">
      <stop
         id="stop3392"
         style="stop-color:#51751e;stop-opacity:1"
         offset="0" />
      <stop
         id="stop3394"
         style="stop-color:#51751e;stop-opacity:1"
         offset="1" />
    </linearGradient>
    <linearGradient
       x1="302.85715"
       y1="366.64789"
       x2="302.85715"
       y2="609.50507"
       id="linearGradient7596-975"
       xlink:href="#linearGradient5048-585"
       gradientUnits="userSpaceOnUse"
       gradientTransform="matrix(0.08284024,0,0,0.03705882,-5.9408285,25.412461)" />
    <linearGradient
       id="linearGradient5048-585">
      <stop
         id="stop2667"
         style="stop-color:#000000;stop-opacity:0"
         offset="0" />
      <stop
         id="stop2669"
         style="stop-color:#000000;stop-opacity:1"
         offset="0.5" />
      <stop
         id="stop2671"
         style="stop-color:#000000;stop-opacity:0"
         offset="1" />
    </linearGradient>
    <radialGradient
       cx="605.71429"
       cy="486.64789"
       r="117.14286"
       fx="605.71429"
       fy="486.64789"
       id="radialGradient7598-526"
       xlink:href="#linearGradient5060-179"
       gradientUnits="userSpaceOnUse"
       gradientTransform="matrix(0.03212956,0,0,0.03705882,24.636785,25.412461)" />
    <linearGradient
       id="linearGradient5060-179">
      <stop
         id="stop2675"
         style="stop-color:#000000;stop-opacity:1"
         offset="0" />
      <stop
         id="stop2677"
         style="stop-color:#000000;stop-opacity:0"
         offset="1" />
    </linearGradient>
    <radialGradient
       cx="605.71429"
       cy="486.64789"
       r="117.14286"
       fx="605.71429"
       fy="486.64789"
       id="radialGradient7600-312"
       xlink:href="#linearGradient5060-820"
       gradientUnits="userSpaceOnUse"
       gradientTransform="matrix(-0.03212956,0,0,0.03705882,23.363215,25.412461)" />
    <linearGradient
       id="linearGradient5060-820">
      <stop
         id="stop2681"
         style="stop-color:#000000;stop-opacity:1"
         offset="0" />
      <stop
         id="stop2683"
         style="stop-color:#000000;stop-opacity:0"
         offset="1" />
    </linearGradient>
    <linearGradient
       x1="62.988873"
       y1="13.182598"
       x2="62.988873"
       y2="16.19013"
       id="linearGradient3482"
       xlink:href="#linearGradient6404"
       gradientUnits="userSpaceOnUse"
       gradientTransform="translate(-50.940898,0)" />
    <linearGradient
       id="linearGradient6404">
      <stop
         id="stop6406"
         style="stop-color:#f9f9f9;stop-opacity:1"
         offset="0" />
      <stop
         id="stop6408"
         style="stop-color:#c9c9c9;stop-opacity:1"
         offset="1" />
    </linearGradient>
    <radialGradient
       cx="3"
       cy="5.01718"
       r="21"
       fx="3"
       fy="5.01718"
       id="radialGradient3470"
       xlink:href="#linearGradient3484"
       gradientUnits="userSpaceOnUse"
       gradientTransform="matrix(-1.274898e-8,1.7142916,-2.159331,-1.4599595e-8,12.809361,2.8570011)" />
    <linearGradient
       id="linearGradient3484">
      <stop
         id="stop3486"
         style="stop-color:#bdbdbd;stop-opacity:1"
         offset="0" />
      <stop
         id="stop3488"
         style="stop-color:#d0d0d0;stop-opacity:1"
         offset="1" />
    </linearGradient>
    <linearGradient
       x1="86.132919"
       y1="105.105"
       x2="84.63858"
       y2="20.895"
       id="linearGradient2606"
       xlink:href="#linearGradient5128"
       gradientUnits="userSpaceOnUse"
       gradientTransform="matrix(0.2014014,0,0,0.2014015,18.110304,20.311705)" />
    <linearGradient
       id="linearGradient5128">
      <stop
         id="stop5130"
         style="stop-color:#ffffff;stop-opacity:1"
         offset="0" />
      <stop
         id="stop5132"
         style="stop-color:#959595;stop-opacity:1"
         offset="1" />
    </linearGradient>
    <linearGradient
       x1="32.036148"
       y1="19"
       x2="32.036148"
       y2="47.012184"
       id="linearGradient3413"
       xlink:href="#linearGradient3309"
       gradientUnits="userSpaceOnUse" />
    <linearGradient
       x1="63.9995"
       y1="3.1001"
       x2="63.9995"
       y2="122.8994"
       id="linearGradient3309"
       gradientUnits="userSpaceOnUse">
      <stop
         id="stop3311"
         style="stop-color:#f6f6f6;stop-opacity:1"
         offset="0" />
      <stop
         id="stop3313"
         style="stop-color:#d2d2d2;stop-opacity:1"
         offset="1" />
    </linearGradient>
    <linearGradient
       x1="25.922546"
       y1="19"
       x2="25.922546"
       y2="47.044857"
       id="linearGradient3415"
       xlink:href="#linearGradient3397"
       gradientUnits="userSpaceOnUse" />
    <linearGradient
       id="linearGradient3397">
      <stop
         id="stop3399"
         style="stop-color:#a0a0a0;stop-opacity:1"
         offset="0" />
      <stop
         id="stop3401"
         style="stop-color:#787878;stop-opacity:1"
         offset="1" />
    </linearGradient>
    <linearGradient
       y2="36.599415"
       x2="22.934725"
       y1="49.629246"
       x1="22.934725"
       gradientTransform="matrix(2.2041262,0,0,1.9531236,44.81525,2.9681362)"
       gradientUnits="userSpaceOnUse"
       id="linearGradient5887"
       xlink:href="#linearGradient6129-963-697-142-998-580-273-44-2-2" />
    <linearGradient
       y2="119.05979"
       x2="-91"
       y1="43.999817"
       x1="-91"
       gradientTransform="matrix(0.72580649,0,0,0.74516186,116.81336,18.325446)"
       gradientUnits="userSpaceOnUse"
       id="linearGradient5883"
       xlink:href="#linearGradient4632-0-6-4-7" />
    <linearGradient
       id="linearGradient4632-0-6-4-7">
      <stop
         id="stop4634-4-4-7-5"
         offset="0"
         style="stop-color:#55a7f3;stop-opacity:1;" />
      <stop
         id="stop4636-3-1-5-3"
         offset="1"
         style="stop-color:#1374cf;stop-opacity:1;" />
    </linearGradient>
    <linearGradient
       id="linearGradient3225"
       y2="5.4565001"
       gradientUnits="userSpaceOnUse"
       x2="36.358002"
       gradientTransform="matrix(1.1538423,0,0,1.1746103,-5.728901,4.7207932)"
       y1="8.059"
       x1="32.891998">
      <stop
         id="stop8591"
         style="stop-color:#d6dfea;stop-opacity:1"
         offset="0" />
      <stop
         id="stop8593"
         style="stop-color:#b3bccc;stop-opacity:1"
         offset="1" />
    </linearGradient>
    <radialGradient
       gradientTransform="matrix(0.49599117,0,0,0.42857136,0.1924192,4.3549156)"
       gradientUnits="userSpaceOnUse"
       xlink:href="#linearGradient3737"
       id="radialGradient3619-6"
       fy="90.171875"
       fx="48"
       r="42"
       cy="90.171875"
       cx="48" />
    <linearGradient
       id="linearGradient3737">
      <stop
         id="stop3739"
         style="stop-color:#ffffff;stop-opacity:1"
         offset="0" />
      <stop
         id="stop3741"
         style="stop-color:#ffffff;stop-opacity:0"
         offset="1" />
    </linearGradient>
    <linearGradient
       gradientTransform="matrix(0,-0.54642861,0.42857142,0,3.428572,46.278573)"
       gradientUnits="userSpaceOnUse"
       xlink:href="#linearGradient3742"
       id="linearGradient3748"
       y2="51.433136"
       x2="23.76619"
       y1="51.470146"
       x1="7.3709002" />
    <linearGradient
       id="linearGradient3742">
      <stop
         offset="0"
         style="stop-color:#676f7d;stop-opacity:1"
         id="stop3744" />
      <stop
         offset="1"
         style="stop-color:#818791;stop-opacity:1"
         id="stop3746" />
    </linearGradient>
    <linearGradient
       gradientTransform="matrix(0.42857142,0,0,0.42857142,227.50536,-101.23132)"
       gradientUnits="userSpaceOnUse"
       xlink:href="#ButtonColor-7"
       id="linearGradient3617"
       y2="5.9877172"
       x2="48"
       y1="90"
       x1="48" />
    <linearGradient
       gradientUnits="userSpaceOnUse"
       id="ButtonColor-7"
       y2="0.99929649"
       x2="10.31979"
       y1="21"
       x1="10.31979">
      <stop
         offset="0"
         style="stop-color:#adb6c2;stop-opacity:1"
         id="stop3189" />
      <stop
         offset="1"
         style="stop-color:#c1c8d4;stop-opacity:1"
         id="stop3191" />
    </linearGradient>
    <linearGradient
       gradientTransform="matrix(0.4285717,0,0,0.43033246,227.50536,-101.24189)"
       y2="63.893143"
       x2="36.357143"
       y1="6"
       x1="36.357143"
       gradientUnits="userSpaceOnUse"
       id="linearGradient2015"
       xlink:href="#linearGradient3737" />
    <linearGradient
       y2="90.238609"
       x2="32.251034"
       y1="6.1317081"
       x1="32.251034"
       gradientTransform="matrix(0.88966473,0,0,-0.88897608,103.82866,91.764071)"
       gradientUnits="userSpaceOnUse"
       id="linearGradient1974"
       xlink:href="#ButtonShadow-0" />
    <linearGradient
       x1="45.447727"
       y1="92.539597"
       x2="45.447727"
       y2="7.0165396"
       id="ButtonShadow-0"
       gradientUnits="userSpaceOnUse"
       gradientTransform="matrix(1.0058652,0,0,0.994169,100,0)">
      <stop
         id="stop3750-8"
         style="stop-color:#000000;stop-opacity:1"
         offset="0" />
      <stop
         id="stop3752-5-4"
         style="stop-color:#000000;stop-opacity:0.58823532"
         offset="1" />
    </linearGradient>
    <linearGradient
       y2="90.238609"
       x2="32.251034"
       y1="6.1317081"
       x1="32.251034"
       gradientTransform="matrix(0.88668581,0,0,-0.88621557,103.97166,91.631566)"
       gradientUnits="userSpaceOnUse"
       id="linearGradient1976"
       xlink:href="#ButtonShadow-0" />
    <linearGradient
       y2="90.238609"
       x2="32.251034"
       y1="6.1317081"
       x1="32.251034"
       gradientTransform="matrix(0.90932204,0,0,-0.90907903,8.9451063,90.567956)"
       gradientUnits="userSpaceOnUse"
       id="linearGradient1978"
       xlink:href="#ButtonShadow-0" />
    <linearGradient
       x1="32.251034"
       y1="6.1317081"
       x2="32.251034"
       y2="90.238609"
       id="linearGradient3780"
       xlink:href="#ButtonShadow-0"
       gradientUnits="userSpaceOnUse"
       gradientTransform="matrix(0.88394566,0,0,-0.88394572,10.163169,89.361561)" />
    <linearGradient
       x1="32.251034"
       y1="6.1317081"
       x2="32.251034"
       y2="90.238609"
       id="linearGradient3721-0"
       xlink:href="#ButtonShadow-0"
       gradientUnits="userSpaceOnUse"
       gradientTransform="matrix(0.83742219,0,0,-0.8374222,12.396274,87.12843)" />
    <linearGradient
       id="linearGradient3225-6"
       y2="5.4565001"
       gradientUnits="userSpaceOnUse"
       x2="36.358002"
       gradientTransform="matrix(1.1538423,0,0,1.1746103,-7.1476824,6.2923109)"
       y1="8.059"
       x1="32.891998">
      <stop
         id="stop8591-7"
         style="stop-color:#497db8;stop-opacity:1"
         offset="0" />
      <stop
         id="stop8593-5"
         style="stop-color:#276096;stop-opacity:1"
         offset="1" />
    </linearGradient>
    <linearGradient
       gradientTransform="matrix(1.231823,0,0,1.231823,-157.81615,7.1708322)"
       gradientUnits="userSpaceOnUse"
       xlink:href="#linearGradient3763"
       id="linearGradient3724"
       y2="7"
       x2="62"
       y1="60"
       x1="64" />
    <linearGradient
       id="linearGradient3763">
      <stop
         offset="0"
         style="stop-color:#ff7700;stop-opacity:1"
         id="stop3765" />
      <stop
         offset="1"
         style="stop-color:#ffb15d;stop-opacity:1"
         id="stop3767" />
    </linearGradient>
    <clipPath
       id="clipPath3716">
      <path
         inkscape:connector-curvature="0"
         style="display:inline;fill:#ff00ff;fill-opacity:1;fill-rule:nonzero;stroke:none"
         id="path3718"
         d="m -118,6 c -3.324,0 -6,2.676 -6,6 v 72 c 0,3.324 2.676,6 6,6 h 72 c 3.324,0 6,-2.676 6,-6 V 12 c 0,-3.324 -2.676,-6 -6,-6 z m 42.53125,9.4375 c 0,0 6.742786,6.784262 -6.4375,17.1875 -10.569721,8.348428 -2.406258,13.091934 0,18.53125 -6.170339,-5.566626 -10.691951,-10.439321 -7.65625,-15 4.457852,-6.693689 16.821977,-9.970594 14.09375,-20.71875 z m 8.125,13.34375 c -14.197756,8.233791 -11.545654,10.600025 -8.125,15.40625 3.661158,5.156183 -4.3125,9.25 -4.3125,9.25 0,0 3.954627,-3.226804 0.8125,-6.84375 -10.643745,-12.265213 11.625144,-17.8125 11.625,-17.8125 z m 3.59375,21.875 c 6.598371,-0.338475 10.187997,8.957958 -4.59375,12.84375 -1.44e-4,0 0.16215,-0.192534 0.21875,-0.34375 12.215092,-6.34575 6.567276,-12.446464 2.625,-11.625 -0.964039,0.201189 -1.40625,0.375 -1.40625,0.375 0,0 0.378571,-0.570411 1.0625,-0.8125 0.731171,-0.256932 1.41116,-0.40248 2.09375,-0.4375 z m -26.40625,0.625 c 0.519115,-0.01358 0.8125,0 0.8125,0 0,0 -11.82939,2.822105 -4.1875,3.84375 3.227673,0.431901 9.630792,0.315402 15.625,-0.1875 4.897387,-0.41102 9.8125,-1.25 9.8125,-1.25 0,0 -1.719415,0.709928 -2.96875,1.5625 -12.017218,3.160705 -35.24553,1.700167 -28.5625,-1.53125 4.236968,-2.049735 7.911406,-2.39676 9.46875,-2.4375 z m -1.9375,7.40625 c 0,0 -2.823626,2.059601 1.4375,2.5 5.511613,0.569005 9.87295,0.637302 17.40625,-0.8125 0,0 1.050477,1.047931 2.6875,1.625 -15.407629,4.506818 -32.55548,0.346355 -21.53125,-3.3125 z m 1.53125,7.125 c 0,0 -2.476708,1.449143 1.78125,1.9375 5.159208,0.589021 7.816289,0.511854 13.5,-0.5625 0,0 1.474997,0.907513 3.5625,1.71875 -12.745505,5.460632 -28.85383,-0.296827 -18.84375,-3.09375 z m -6.46875,4.71875 c 0.614519,0.02364 1.14585,0.147618 1.46875,0.375 0,0 -0.852618,-0.05906 -2.28125,0.25 -1.370161,0.295952 -5.69609,1.676512 -3.375,2.6875 6.461397,2.810602 29.707491,2.165274 37.0625,-0.0625 3.867966,-1.173437 2.03125,-2.71875 2.03125,-2.71875 6.739204,3.040884 -14.609199,9.149373 -40.59375,4.9375 -8.33743,-1.353006 1.38587,-5.63424 5.6875,-5.46875 z M -58,74.375 c -0.426144,5.547328 -18.43383,6.718207 -30.15625,5.96875 -7.704246,-0.495845 -9.1875,-1.71875 -9.1875,-1.71875 7.318718,1.208433 19.649918,1.415115 29.65625,-0.46875 C -58.817879,76.487689 -58,74.375 -58,74.375 Z" />
    </clipPath>
    <filter
       id="filter3720"
       height="1.2501658"
       width="1.3393171"
       y="-0.1250829"
       x="-0.16965857"
       style="color-interpolation-filters:sRGB">
      <feGaussianBlur
         stdDeviation="3.3931715"
         id="feGaussianBlur3722" />
    </filter>
    <linearGradient
       y2="7"
       x2="62"
       y1="60"
       x1="64"
       gradientTransform="matrix(1.231823,0,0,1.231823,-27.816151,7.1708322)"
       gradientUnits="userSpaceOnUse"
       id="linearGradient1050"
       xlink:href="#linearGradient3763" />
    <linearGradient
       inkscape:collect="always"
       xlink:href="#linearGradient3763"
       id="linearGradient1000"
       gradientUnits="userSpaceOnUse"
       gradientTransform="matrix(1.231823,0,0,1.231823,-27.816151,7.1708322)"
       x1="64"
       y1="60"
       x2="62"
       y2="7" />
  </defs>
  <metadata
     id="metadata18162">
    <rdf:RDF>
      <cc:Work
         rdf:about="">
        <dc:format>image/svg+xml</dc:format>
        <dc:type
           rdf:resource="http://purl.org/dc/dcmitype/StillImage" />
        <dc:title></dc:title>
      </cc:Work>
    </rdf:RDF>
  </metadata>
  <g
     transform="matrix(1.05,0,0,1.05,-1.1999998,-2.2499999)"
     id="layer1">
    <g
       style="display:inline"
       id="layer5"
       transform="matrix(0.51177463,0,0,0.51177463,-2.915536,0.9813072)">
      <path
         style="display:inline;opacity:0.2;fill:url(#linearGradient1978);fill-opacity:1;fill-rule:nonzero;stroke:none;stroke-width:0.89326495"
         id="path3770"
         d="m 20.618253,86.01187 c -3.916074,0 -7.105399,-3.225978 -7.105399,-7.187076 V 15.039542 c 0,-3.961099 3.189325,-7.1870759 7.105399,-7.1870759 H 61.848275 L 91.672258,37.676449 v 41.148345 c 0,3.961098 -3.189315,7.187076 -7.1054,7.187076 z" />
      <path
         id="rect3723"
         d="m 21.510559,84.057885 h 62.16399 c 3.34823,0 6.04372,-2.727212 6.04372,-6.114824 V 38.904982 L 60.619729,9.8064506 h -39.10917 c -3.34822,0 -6.04372,2.7272114 -6.04372,6.1148244 v 62.021786 c 0,3.387612 2.6955,6.114824 6.04372,6.114824 z"
         style="display:inline;opacity:0.3;fill:url(#linearGradient3780);fill-opacity:1;fill-rule:nonzero;stroke:none;stroke-width:0.86845267" />
    </g>
    <g
       id="layer1-3"
       transform="translate(-224.07679,105.6599)"
       style="opacity:1">
      <path
         id="rect2419-1"
         d="m 232.64822,-98.6599 h 19.54285 l 13.88572,13.885715 v 19.542857 c 0,1.424571 -1.14685,2.571428 -2.57143,2.571428 h -30.85714 c -1.42458,0 -2.57143,-1.146857 -2.57143,-2.571428 v -30.857144 c 0,-1.424571 1.14685,-2.571428 2.57143,-2.571428 z"
         style="fill:url(#linearGradient3617);fill-opacity:1;fill-rule:nonzero;stroke:none;stroke-width:0.42857143" />
      <path
         style="opacity:0.3;fill:url(#linearGradient2015);fill-opacity:1;fill-rule:nonzero;stroke:none;stroke-width:0.4294512"
         id="rect3728-7"
         d="m 232.64822,-98.6599 c -1.42457,0 -2.57143,1.151568 -2.57143,2.581998 v 0.860662 28.234034 c 1.98322,4.185183 0.51348,2.977317 0.42857,0.430332 v -28.09486 -0.860668 c 0,-1.197119 0.95064,-2.151664 2.14286,-2.151664 h 0.85715 17.82858 0.85715 l 13.45714,13.326778 v 0.860667 16.919747 c -1.2063,3.165148 0.42855,3.584963 0.42855,-0.430333 v -16.919747 -0.860668 L 252.19108,-98.6599 Z" />
    </g>
    <path
       id="path4474-3-5"
       style="opacity:0.2;fill:#000000;fill-opacity:1;fill-rule:evenodd;stroke-width:0.95571315"
       d="m 23.095,7.0007336 c 3.179734,0 1.245573,14.2927244 1.245573,14.2927244 0,0 17.662844,-1.870813 17.662844,3.984542 C 42.003417,23.851681 42,20.885715 42,20.885715 L 28.11428,7 Z" />
    <path
       style="color:#000000;display:inline;overflow:visible;visibility:visible;opacity:1;fill:url(#linearGradient3748);fill-opacity:1;fill-rule:nonzero;stroke:none;stroke-width:0.72588795;marker:none;enable-background:accumulate"
       id="rect3736"
       d="M 6,39.721429 C 6,41.537756 7.146857,43 8.571429,43 H 39.428571 C 40.853143,43 42,41.537756 42,39.721429 V 33.571428 H 6 Z" />
    <path
       style="opacity:0.2;fill:url(#radialGradient3619-6);fill-opacity:1;fill-rule:nonzero;stroke:none;stroke-width:0.42945099"
       id="path3615-2"
       d="M 8.5714282,43 C 7.146857,43 6,41.848431 6,40.418006 V 39.418194 C 6.017537,34.185733 6.4285697,34.07415 6.4285697,38.987836 v 0.860665 c 0,1.197119 0.9506364,2.151662 2.1428585,2.151662 h 0.8571448 29.142844 0.857145 c 1.192222,0 2.142858,-0.954543 2.142858,-2.151662 V 38.987836 C 41.61349,33.154382 42,35.150526 42,39.418169 v 0.999812 C 41.99999,41.848431 40.853133,43 39.428562,43 Z" />
    <g
       aria-label="DOC"
       transform="matrix(1.0042229,0,0,0.9957949,-16.0339,-23.152542)"
       style="font-style:normal;font-weight:normal;font-size:39.83179474px;line-height:1.25;font-family:sans-serif;letter-spacing:0px;word-spacing:0px;fill:#000000;fill-opacity:1;stroke:none;stroke-width:0.99579489"
       id="text1540" />
    <path
       id="path4474-3"
       style="opacity:0.2;fill:#000000;fill-opacity:1;fill-rule:evenodd;stroke-width:0.90355515"
       d="m 24.277,7 c 3.0062,0 1.165566,13.240168 1.165566,13.240168 0,0 16.558213,-1.970967 16.558213,3.564832 C 42.000779,22.456522 42,20.885715 42,20.885715 L 28.11428,7 Z" />
    <path
       id="path4474"
       style="fill:url(#linearGradient3225);fill-rule:evenodd;stroke-width:0.85133129"
       d="m 25.695529,7.0086975 c 2.832447,0 1.020233,12.2306245 1.020233,12.2306245 0,0 15.288338,-1.878262 15.288338,3.337578 C 42.0041,21.306362 42,20.885715 42,20.885715 L 28.11428,7 Z" />
  </g>
  <path
     style="opacity:0.3;fill:#000000;fill-opacity:1;stroke:none;stroke-width:0.24464579;stroke-linejoin:round;stroke-miterlimit:4;stroke-dasharray:none;stroke-dashoffset:0;stroke-opacity:1;paint-order:stroke fill markers"
     d="M 5.1000001,33 H 42.9 v 1 H 5.1000001 Z"
     id="rect1270" />
  <path
     style="opacity:0.3;fill:#ffffff;fill-opacity:1;stroke:none;stroke-width:0.24464579;stroke-linejoin:round;stroke-miterlimit:4;stroke-dasharray:none;stroke-dashoffset:0;stroke-opacity:1;paint-order:stroke fill markers"
     d="M 5.1000001,32 H 42.9 v 1 H 5.1000001 Z"
     id="rect1270-3" />
  <g
     style="display:inline"
     id="layer4"
     transform="matrix(0.36279095,0,0,0.31943803,-0.75255383,3.6669742)">
    <path
       style="opacity:0.6;fill:url(#linearGradient3724);fill-opacity:1;fill-rule:evenodd;stroke:#ffffff;stroke-width:2;stroke-miterlimit:4;stroke-dasharray:none;filter:url(#filter3720)"
       id="path3707"
       clip-path="url(#clipPath3716)"
       transform="translate(130)"
       d="m -75.476487,15.447143 c 2.728227,10.748156 -9.631123,14.016333 -14.088975,20.710022 -3.035701,4.560679 1.49006,9.446216 7.660399,15.012842 -2.406258,-5.439316 -10.569721,-10.205905 0,-18.554333 13.180286,-10.403238 6.428576,-17.168531 6.428576,-17.168531 z m 8.122332,13.319085 c 1.44e-4,0 -22.269074,5.557725 -11.625329,17.822938 3.142127,3.616946 -0.808384,6.852015 -0.808384,6.852015 0,0 7.972539,-4.082489 4.311381,-9.238672 -3.420654,-4.806225 -6.075424,-7.20249 8.122332,-15.436281 z m 3.61848,21.903351 c -0.68259,0.03502 -1.386025,0.166507 -2.117196,0.423439 -0.683929,0.242089 -1.03935,0.808384 -1.03935,0.808384 0,0 0.421762,-0.183755 1.385801,-0.384944 3.942276,-0.821464 9.597468,5.279579 -2.617624,11.625329 -0.0566,0.151216 -0.231111,0.34645 -0.230967,0.34645 14.781747,-3.885792 11.217707,-13.157133 4.619336,-12.818658 z m -26.407204,0.615911 c -1.557344,0.04074 -5.23267,0.375417 -9.469638,2.425152 -6.683033,3.231417 16.545675,4.700484 28.562893,1.539779 1.249335,-0.852572 2.964075,-1.578274 2.964075,-1.578274 0,0 -4.918703,0.859298 -9.81609,1.270318 -5.994208,0.502902 -12.40108,0.624374 -15.628753,0.192473 -7.641888,-1.021645 4.195897,-3.849448 4.195897,-3.849448 0,0 -0.289269,-0.01358 -0.808384,0 z m -1.963218,7.390938 c -11.024233,3.658855 6.149272,7.817342 21.556901,3.310524 -1.637023,-0.577069 -2.694613,-1.616767 -2.694613,-1.616767 -7.5333,1.449802 -11.887885,1.377389 -17.399498,0.808384 -4.261126,-0.440399 -1.46279,-2.502141 -1.46279,-2.502141 z m 1.539779,7.121476 c -10.010082,2.796923 6.116784,8.578684 18.862289,3.118052 -2.087503,-0.811237 -3.579986,-1.732251 -3.579986,-1.732251 -5.683711,1.074354 -8.35235,1.166439 -13.511558,0.577418 -4.257958,-0.488357 -1.770745,-1.963219 -1.770745,-1.963219 z m -6.467071,4.73482 c -4.301631,-0.16549 -14.034611,4.113208 -5.697181,5.466214 25.984551,4.211873 47.350866,-1.886407 40.611662,-4.927291 0,0 1.82776,1.521175 -2.040206,2.694612 -7.355009,2.227774 -30.608779,2.887592 -37.070176,0.07699 -2.32109,-1.010988 2.017357,-2.39866 3.387518,-2.694612 1.428632,-0.309057 2.271173,-0.230967 2.271173,-0.230967 -0.3229,-0.227382 -0.848271,-0.361304 -1.46279,-0.384946 z M -58,74.382171 c 0,0 -0.830984,2.103896 -9.700605,3.772457 -10.006332,1.883865 -22.322021,1.670367 -29.640739,0.461934 0,0 1.495931,1.236406 9.200177,1.732251 C -76.418747,81.09827 -58.426144,79.929499 -58,74.382171 Z"
       inkscape:connector-curvature="0" />
    <path
       style="fill:url(#linearGradient1000);fill-opacity:1;fill-rule:evenodd"
       id="path2907"
       d="m 54.523513,15.447143 c 2.728227,10.748156 -9.631123,14.016333 -14.088975,20.710022 -3.035701,4.560679 1.49006,9.446216 7.660399,15.012842 -2.406258,-5.439316 -10.569721,-10.205905 0,-18.554333 13.180286,-10.403238 6.428576,-17.168531 6.428576,-17.168531 z m 8.122332,13.319085 c 1.44e-4,0 -22.269074,5.557725 -11.625329,17.822938 3.142127,3.616946 -0.808384,6.852015 -0.808384,6.852015 0,0 7.972539,-4.082489 4.311381,-9.238672 -3.420654,-4.806225 -6.075424,-7.20249 8.122332,-15.436281 z m 3.61848,21.903351 c -0.68259,0.03502 -1.386025,0.166507 -2.117196,0.423439 -0.683929,0.242089 -1.03935,0.808384 -1.03935,0.808384 0,0 0.421762,-0.183755 1.385801,-0.384944 3.942276,-0.821464 9.597468,5.279579 -2.617624,11.625329 -0.0566,0.151216 -0.231111,0.34645 -0.230967,0.34645 14.781747,-3.885792 11.217707,-13.157133 4.619336,-12.818658 z M 39.857121,51.28549 c -1.557344,0.04074 -5.23267,0.375417 -9.469638,2.425152 -6.683034,3.231417 16.545675,4.700484 28.562893,1.539779 1.249335,-0.852572 2.964075,-1.578274 2.964075,-1.578274 0,0 -4.918703,0.859298 -9.81609,1.270318 -5.994208,0.502902 -12.40108,0.624374 -15.628753,0.192473 -7.641888,-1.021645 4.195897,-3.849448 4.195897,-3.849448 0,0 -0.289269,-0.01358 -0.808384,0 z m -1.963218,7.390938 c -11.024233,3.658855 6.149272,7.817342 21.556901,3.310524 -1.637023,-0.577069 -2.694613,-1.616767 -2.694613,-1.616767 -7.5333,1.449802 -11.887885,1.377389 -17.399498,0.808384 -4.261126,-0.440399 -1.46279,-2.502141 -1.46279,-2.502141 z m 1.539779,7.121476 c -10.010078,2.796923 6.116784,8.578684 18.862289,3.118052 -2.087503,-0.811237 -3.579986,-1.732251 -3.579986,-1.732251 -5.683711,1.074354 -8.35235,1.166439 -13.511558,0.577418 -4.257958,-0.488357 -1.770745,-1.963219 -1.770745,-1.963219 z m -6.467071,4.73482 c -4.30163,-0.16549 -14.034609,4.113208 -5.697181,5.466214 25.984551,4.211873 47.350866,-1.886407 40.611662,-4.927291 0,0 1.82776,1.521175 -2.040206,2.694612 -7.355009,2.227774 -30.608779,2.887592 -37.070171,0.07699 -2.321097,-1.010988 2.017352,-2.39866 3.387513,-2.694612 1.428632,-0.309057 2.271173,-0.230967 2.271173,-0.230967 -0.3229,-0.227382 -0.848271,-0.361304 -1.46279,-0.384946 z M 72,74.382171 c 0,0 -0.830984,2.103896 -9.700605,3.772457 -10.006332,1.883865 -22.322021,1.670367 -29.640739,0.461934 0,0 1.495931,1.236406 9.200177,1.732251 C 53.581253,81.09827 71.573856,79.929499 72,74.382171 Z"
       inkscape:connector-curvature="0" />
    <path
       style="opacity:0.8;fill:#ffc049;fill-opacity:1;fill-rule:evenodd"
       id="path3783"
       d="m 54.53125,16.4375 c 0.208687,0.822148 0.301329,1.604252 0.34375,2.34375 0.02439,-0.635588 0.0086,-1.301235 -0.09375,-2 -0.0043,-0.0056 0.0042,-0.02577 0,-0.03125 -0.158874,-0.205307 -0.25,-0.3125 -0.25,-0.3125 z m 1.6875,4.3125 c -0.178242,2.953179 -1.968359,7.015546 -8.125,11.875 -4.189931,3.309391 -5.421986,6.051285 -5.25,8.5 0.200936,-2.196099 1.616658,-4.630228 5.25,-7.5 6.88076,-5.431004 8.312117,-9.871885 8.125,-12.875 z m 6.4375,9.03125 c 3.6e-5,0 -1.39109,0.318569 -3.3125,1.03125 -0.02733,0.01749 -0.0666,0.01382 -0.09375,0.03125 -6.032133,3.873872 -7.7185,6.307991 -7.40625,8.53125 0.323823,-2.357091 3.062976,-5.099521 10.8125,-9.59375 z M 39.5,39.8125 c -0.285069,3.797225 3.606914,7.844832 8.59375,12.34375 -0.300782,-0.679915 -0.692138,-1.332799 -1.125,-2 C 46.94866,50.12528 46.92652,50.09346 46.90625,50.0625 42.92767,46.383641 39.843077,43.006279 39.5,39.8125 Z m 8.6875,0.90625 c -0.165914,2.001157 0.598479,4.287685 2.84375,6.875 0.726473,0.836253 1.051573,1.646087 1.15625,2.40625 0.129168,-1.022739 -0.0977,-2.187736 -1.15625,-3.40625 -1.873546,-2.158962 -2.708805,-4.125419 -2.84375,-5.875 z m 7.25,6.71875 c -0.267838,2.236986 -2.263752,4.03763 -3.71875,5.0625 -0.598964,1.18466 -1.5,1.9375 -1.5,1.9375 0,0 5.748508,-2.944092 5.21875,-7 z M 66.25,51.65625 c -0.68259,0.03502 -1.362579,0.180568 -2.09375,0.4375 -0.683929,0.242089 -1.0625,0.8125 -1.0625,0.8125 0,0 0.442211,-0.173811 1.40625,-0.375 1.971138,-0.410732 4.370304,0.909204 4.75,3.125 0.215929,-2.024805 -1.172217,-3.48995 -2.8125,-4 -0.06131,0.0015 -0.12564,-0.0032 -0.1875,0 z m -26.40625,0.625 c -0.873765,0.02286 -2.411422,0.166093 -4.34375,0.625 -1.306244,0.569006 -2.110391,1.198375 -1.21875,1.6875 1.396876,-1.1178 6.375,-2.3125 6.375,-2.3125 0,0 -0.293385,-0.01358 -0.8125,0 z m 22.0625,2.40625 c 0,0 -1.21395,0.182177 -2.71875,0.40625 -0.08234,0.05285 -0.170845,0.102233 -0.25,0.15625 -9.817638,2.582183 -27.108469,2.06566 -29.46875,0.03125 -2.91066,2.812427 18.202608,3.931911 29.46875,0.96875 1.249335,-0.852572 2.96875,-1.5625 2.96875,-1.5625 z M 71.9375,55.75 c -0.240424,2.306386 -2.326467,4.918251 -7.375,6.8125 -0.783904,0.524168 -1.664353,1.062224 -2.6875,1.59375 C 61.8184,64.307466 61.656106,64.5 61.65625,64.5 69.724889,62.378934 72.311024,58.641531 71.9375,55.75 Z M 37.90625,59.6875 C 37.584986,59.794125 37.274113,59.892753 37,60 c 0.0025,0.14514 0.04446,0.301031 0.15625,0.4375 0.262783,-0.433363 0.75,-0.75 0.75,-0.75 z M 34.5625,61.59375 C 32.84082,64.526594 46.721682,66.719448 59.4375,63 58.907236,62.813076 58.48617,62.576696 58.09375,62.34375 47.267221,65.145733 36.018433,63.868915 34.5625,61.59375 Z m 4.875,5.21875 c -0.224282,0.06267 -0.426628,0.121996 -0.625,0.1875 0.04321,0.05914 0.109904,0.09891 0.1875,0.15625 0.204034,-0.212944 0.4375,-0.34375 0.4375,-0.34375 z m -2.96875,1.59375 c -1.686972,2.825554 11.217799,6.03915 21.8125,1.5 -0.432333,-0.168012 -0.814183,-0.331728 -1.1875,-0.5 -9.067872,3.347054 -19.323858,1.367991 -20.625,-1 z m -3.5,3.125 C 32.016226,71.494605 30.792481,71.680842 29.5625,72 c -1.106452,0.491678 -1.939585,1.116151 -1.15625,1.65625 0.0055,-0.0049 0.0256,0.0049 0.03125,0 0.80156,-0.69098 2.850166,-1.312388 3.71875,-1.5 1.428632,-0.309057 2.28125,-0.25 2.28125,-0.25 -0.3229,-0.227382 -0.854231,-0.351359 -1.46875,-0.375 z M 67.875,72.0625 c 0,0 0.155387,0.151649 0.28125,0.375 0.03336,-0.05512 0.07253,-0.102786 0.09375,-0.15625 -0.1173,-0.06669 -0.232944,-0.154651 -0.375,-0.21875 z m 1.09375,0.8125 c -0.205547,0.326635 -0.623741,0.639902 -1.1875,0.96875 -0.0159,0.01313 -0.04572,0.0181 -0.0625,0.03125 -0.376367,0.295054 -0.949283,0.625412 -1.875,0.90625 C 65.650764,74.8397 65.401787,74.88124 65.1875,74.9375 58.449506,77.164596 43.825117,78.681619 27.28125,76 25.500862,75.711077 24.548714,75.296482 24.1875,74.8125 23.661926,75.694738 24.339145,76.522552 27.28125,77 51.146634,80.868374 71.091404,76.044246 68.96875,72.875 Z M 72,75.375 c 0,0 -0.174369,0.348347 -0.9375,0.875 -0.02503,0.02529 -0.0678,0.03747 -0.09375,0.0625 -3.430678,3.308986 -14.853354,4.39104 -24.46875,4.21875 -0.01062,-1.9e-4 -0.02064,1.93e-4 -0.03125,0 -5.244554,0.03105 -10.153141,-0.302033 -13.8125,-0.90625 0,0 1.483254,1.222905 9.1875,1.71875 C 53.56617,82.093207 71.573856,80.922328 72,75.375 Z"
       inkscape:connector-curvature="0" />
    <path
       style="fill:url(#linearGradient1050);fill-opacity:1;fill-rule:evenodd"
       id="path3672"
       d="m 54.523513,15.447143 c 2.728227,10.748156 -9.631123,14.016333 -14.088975,20.710022 -3.035701,4.560679 1.49006,9.446216 7.660399,15.012842 -2.406258,-5.439316 -10.569721,-10.205905 0,-18.554333 13.180286,-10.403238 6.428576,-17.168531 6.428576,-17.168531 z m 8.122332,13.319085 c 1.44e-4,0 -22.269074,5.557725 -11.625329,17.822938 3.142127,3.616946 -0.808384,6.852015 -0.808384,6.852015 0,0 7.972539,-4.082489 4.311381,-9.238672 -3.420654,-4.806225 -6.075424,-7.20249 8.122332,-15.436281 z m 3.61848,21.903351 c -0.68259,0.03502 -1.386025,0.166507 -2.117196,0.423439 -0.683929,0.242089 -1.03935,0.808384 -1.03935,0.808384 0,0 0.421762,-0.183755 1.385801,-0.384944 3.942276,-0.821464 9.597468,5.279579 -2.617624,11.625329 -0.0566,0.151216 -0.231111,0.34645 -0.230967,0.34645 14.781747,-3.885792 11.217707,-13.157133 4.619336,-12.818658 z M 39.857121,51.28549 c -1.557344,0.04074 -5.23267,0.375417 -9.469638,2.425152 -6.683034,3.231417 16.545675,4.700484 28.562893,1.539779 1.249335,-0.852572 2.964075,-1.578274 2.964075,-1.578274 0,0 -4.918703,0.859298 -9.81609,1.270318 -5.994208,0.502902 -12.40108,0.624374 -15.628753,0.192473 -7.641888,-1.021645 4.195897,-3.849448 4.195897,-3.849448 0,0 -0.289269,-0.01358 -0.808384,0 z m -1.963218,7.390938 c -11.024233,3.658855 6.149272,7.817342 21.556901,3.310524 -1.637023,-0.577069 -2.694613,-1.616767 -2.694613,-1.616767 -7.5333,1.449802 -11.887885,1.377389 -17.399498,0.808384 -4.261126,-0.440399 -1.46279,-2.502141 -1.46279,-2.502141 z m 1.539779,7.121476 c -10.010078,2.796923 6.116784,8.578684 18.862289,3.118052 -2.087503,-0.811237 -3.579986,-1.732251 -3.579986,-1.732251 -5.683711,1.074354 -8.35235,1.166439 -13.511558,0.577418 -4.257958,-0.488357 -1.770745,-1.963219 -1.770745,-1.963219 z m -6.467071,4.73482 c -4.30163,-0.16549 -14.034609,4.113208 -5.697181,5.466214 25.984551,4.211873 47.350866,-1.886407 40.611662,-4.927291 0,0 1.82776,1.521175 -2.040206,2.694612 -7.355009,2.227774 -30.608779,2.887592 -37.070171,0.07699 -2.321097,-1.010988 2.017352,-2.39866 3.387513,-2.694612 1.428632,-0.309057 2.271173,-0.230967 2.271173,-0.230967 -0.3229,-0.227382 -0.848271,-0.361304 -1.46279,-0.384946 z M 72,74.382171 c 0,0 -0.830984,2.103896 -9.700605,3.772457 -10.006332,1.883865 -22.322021,1.670367 -29.640739,0.461934 0,0 1.495931,1.236406 9.200177,1.732251 C 53.581253,81.09827 71.573856,79.929499 72,74.382171 Z"
       inkscape:connector-curvature="0" />
    <path
       style="fill:#d45500;fill-opacity:1;fill-rule:evenodd"
       id="path2931"
       d="m 54.53125,15.4375 c 0.113552,0.447351 0.187064,0.890278 0.25,1.3125 0.0042,0.0055 -0.0043,0.02563 0,0.03125 0.452221,0.589077 1.312188,1.957559 1.4375,3.96875 0.203342,-3.369058 -1.6875,-5.3125 -1.6875,-5.3125 z m 0.34375,3.34375 c -0.314136,8.185623 -10.477252,11.428489 -14.4375,17.375 -0.779798,1.171528 -1.055299,2.373312 -0.9375,3.59375 0.07653,-0.880317 0.368306,-1.738623 0.9375,-2.59375 4.116862,-6.181675 14.949658,-9.44685 14.4375,-18.375 z m 7.78125,10 c 1.19e-4,0 -15.100437,3.747591 -14.46875,11.9375 0.421043,-5.078383 6.914778,-8.325605 11.0625,-9.875 0.02715,-0.01743 0.06642,-0.01376 0.09375,-0.03125 0.999106,-0.6396 2.063504,-1.306912 3.3125,-2.03125 z m -10.8125,10.625 c -0.2512,1.948501 1.141862,3.609536 2.6875,5.78125 0.546941,0.770283 0.81321,1.537672 0.90625,2.25 0.120579,-1.007074 -0.09235,-2.103745 -0.90625,-3.25 -1.274659,-1.790973 -2.457916,-3.232807 -2.6875,-4.78125 z m -9,1.90625 c -0.19794,3.272734 2.261302,5.998662 4.0625,8.75 0.02027,0.03096 0.04241,0.06278 0.0625,0.09375 0.371584,0.342899 0.739104,0.651861 1.125,1 -1.428716,-3.229594 -4.888335,-6.197915 -5.25,-9.84375 z M 52.1875,50 c -0.254244,2.013083 -1.96875,3.4375 -1.96875,3.4375 0,0 0.663519,-0.3483 1.5,-0.9375 0.355928,-0.703972 0.59849,-1.557828 0.46875,-2.5 z M 66.25,50.65625 c -0.68259,0.03502 -1.362579,0.180568 -2.09375,0.4375 -0.683929,0.242089 -1.0625,0.8125 -1.0625,0.8125 0,0 0.442211,-0.173811 1.40625,-0.375 0.636283,-0.132584 1.294311,-0.075 1.9375,0.125 2.908877,-0.07099 5.195643,1.737658 5.5,4.09375 0.299475,-2.872863 -2.291197,-5.267969 -5.6875,-5.09375 z m -26.40625,0.625 c -1.557344,0.04074 -5.231782,0.387765 -9.46875,2.4375 -1.223234,0.591465 -1.435056,1.106703 -0.90625,1.5625 0.194044,-0.187495 0.48856,-0.360536 0.90625,-0.5625 1.85977,-0.899708 3.613269,-1.45348 5.125,-1.8125 2.000481,-0.871418 5.15625,-1.625 5.15625,-1.625 0,0 -0.293385,-0.01358 -0.8125,0 z m 22.0625,2.40625 c 0,0 -4.915113,0.83898 -9.8125,1.25 -5.994208,0.502902 -12.397327,0.619401 -15.625,0.1875 -1.110687,-0.148488 -1.803649,-0.320682 -2.1875,-0.53125 -0.750133,0.600267 -0.482463,1.174302 2.1875,1.53125 3.227673,0.431901 9.630792,0.315402 15.625,-0.1875 2.724729,-0.228677 5.206581,-0.56274 7.09375,-0.84375 1.217221,-0.781246 2.71875,-1.40625 2.71875,-1.40625 z M 69.25,55.71875 c -0.254915,2.091021 -2.209256,4.753892 -7.375,7.4375 C 61.8184,63.307466 61.656106,63.5 61.65625,63.5 c 1.065118,-0.279996 2.02591,-0.60719 2.90625,-0.9375 3.850778,-2.574876 4.968001,-5.006296 4.6875,-6.84375 z M 37.90625,58.6875 C 34.912076,59.681242 33.996912,60.709914 34.5625,61.59375 34.866169,61.076457 35.630786,60.535706 37,60 36.98871,59.340976 37.90625,58.6875 37.90625,58.6875 Z M 56.75,60.375 c -7.5333,1.449802 -11.894637,1.381505 -17.40625,0.8125 -1.290871,-0.133415 -1.918305,-0.42139 -2.1875,-0.75 -0.384311,0.633777 -0.343193,1.488446 2.1875,1.75 5.511613,0.569005 9.87295,0.637302 17.40625,-0.8125 0,0 0.524696,0.482548 1.34375,0.96875 C 58.546725,62.226517 58.986797,62.131833 59.4375,62 57.800477,61.422931 56.75,60.375 56.75,60.375 Z m -17.3125,5.4375 c -2.676068,0.747722 -3.464669,1.691211 -2.96875,2.59375 0.296997,-0.497448 1.048066,-0.978407 2.34375,-1.40625 -0.414769,-0.567666 0.625,-1.1875 0.625,-1.1875 z M 39,67.15625 c -0.448874,0.468477 -0.708596,1.258005 2.21875,1.59375 5.159208,0.589021 7.816289,0.511854 13.5,-0.5625 0,0 0.945772,0.574527 2.375,1.21875 0.404,-0.149121 0.789203,-0.329355 1.1875,-0.5 -2.087503,-0.811237 -3.5625,-1.71875 -3.5625,-1.71875 -5.683711,1.074354 -8.340792,1.151521 -13.5,0.5625 C 39.999622,67.610175 39.32992,67.400046 39,67.15625 Z m -6.03125,3.375 c -3.383053,-0.130151 -10.111575,2.498779 -8.78125,4.28125 0.634014,-1.064267 3.01046,-2.198945 5.375,-2.8125 0.914638,-0.406441 2.012442,-0.718189 2.59375,-0.84375 1.428632,-0.309057 2.28125,-0.25 2.28125,-0.25 -0.3229,-0.227382 -0.854231,-0.351359 -1.46875,-0.375 z M 67.875,71.0625 c 0,0 0.641902,0.546228 0.375,1.21875 0.336534,0.191336 0.578982,0.385068 0.71875,0.59375 0.405047,-0.64366 0.07859,-1.283513 -1.09375,-1.8125 z m 0.28125,1.375 c -0.260222,0.429953 -0.901215,0.915604 -2.3125,1.34375 -7.355009,2.227774 -30.601108,2.873102 -37.0625,0.0625 -0.135397,-0.05897 -0.251764,-0.126254 -0.34375,-0.1875 -0.0056,0.0049 -0.02573,-0.0049 -0.03125,0 -0.447036,0.394659 -0.464325,0.82192 0.375,1.1875 6.291854,2.736856 28.45371,2.181672 36.40625,0.09375 1.037388,-0.342886 1.89211,-0.697627 2.53125,-1.0625 0.01678,-0.01315 0.0466,-0.01812 0.0625,-0.03125 0.670644,-0.553725 0.563794,-1.071224 0.375,-1.40625 z M 72,74.375 c 0,0 -0.817879,2.112689 -9.6875,3.78125 -10.006332,1.883865 -22.337532,1.677183 -29.65625,0.46875 0,0 1.483254,1.222905 9.1875,1.71875 1.455669,0.09307 3.021599,0.158304 4.625,0.1875 0.01061,1.93e-4 0.02063,-1.9e-4 0.03125,0 5.235621,-0.0325 10.8191,-0.434906 15.8125,-1.375 5.127606,-0.96461 7.509238,-2.078758 8.65625,-2.84375 C 70.9947,76.28747 71.03747,76.27529 71.0625,76.25 71.618164,75.688609 71.946732,75.068416 72,74.375 Z"
       inkscape:connector-curvature="0" />
  </g>
  <g
     id="text1103"
     style="font-style:normal;font-weight:normal;font-size:38.74303818px;line-height:1.25;font-family:sans-serif;letter-spacing:0px;word-spacing:0px;fill:#000000;fill-opacity:1;stroke:none;stroke-width:0.96857595"
     aria-label="JAVA"
     transform="matrix(0.5,0,0,0.5,-1.5e-6,-0.999998)">
    <path
       inkscape:connector-curvature="0"
       id="path1124"
       style="font-style:normal;font-variant:normal;font-weight:bold;font-stretch:normal;font-size:12.91434574px;font-family:sans-serif;-inkscape-font-specification:'sans-serif Bold';fill:#ffffff;fill-opacity:1;stroke-width:0.96857595"
       d="m 33.910671,71.999996 h 2.427745 v 8.500262 q 0,1.759328 -0.958486,2.629533 -0.952181,0.870205 -2.888072,0.870205 h -0.491855 v -1.834998 h 0.37835 q 0.7567,0 1.141356,-0.422491 0.390962,-0.42249 0.390962,-1.242249 z" />
    <path
       inkscape:connector-curvature="0"
       id="path1126"
       style="font-style:normal;font-variant:normal;font-weight:bold;font-stretch:normal;font-size:12.91434574px;font-family:sans-serif;-inkscape-font-specification:'sans-serif Bold';fill:#ffffff;fill-opacity:1;stroke-width:0.96857595"
       d="M 44.441412,79.699418 H 40.6453 l -0.599054,1.715186 h -2.440357 l 3.487125,-9.414608 h 2.894378 l 3.487125,9.414608 H 45.03416 Z M 41.25066,77.952702 h 2.579086 l -1.28639,-3.745665 z" />
    <path
       inkscape:connector-curvature="0"
       id="path1128"
       style="font-style:normal;font-variant:normal;font-weight:bold;font-stretch:normal;font-size:12.91434574px;font-family:sans-serif;-inkscape-font-specification:'sans-serif Bold';fill:#ffffff;fill-opacity:1;stroke-width:0.96857595"
       d="m 46.724123,71.999996 h 2.440358 l 2.49711,6.949028 2.490804,-6.949028 h 2.440357 l -3.487126,9.414608 h -2.894377 z" />
    <path
       inkscape:connector-curvature="0"
       id="path1130"
       style="font-style:normal;font-variant:normal;font-weight:bold;font-stretch:normal;font-size:12.91434574px;font-family:sans-serif;-inkscape-font-specification:'sans-serif Bold';fill:#ffffff;fill-opacity:1;stroke-width:0.96857595"
       d="m 62.665269,79.699418 h -3.796112 l -0.599054,1.715186 h -2.440357 l 3.487125,-9.414608 h 2.894378 l 3.487125,9.414608 h -2.440357 z m -3.190752,-1.746716 h 2.579086 l -1.28639,-3.745665 z" />
  </g>
</svg>
