<?xml version="1.0" encoding="UTF-8" standalone="no"?>
<!-- Created with Inkscape (http://www.inkscape.org/) -->

<svg
   xmlns:dc="http://purl.org/dc/elements/1.1/"
   xmlns:cc="http://creativecommons.org/ns#"
   xmlns:rdf="http://www.w3.org/1999/02/22-rdf-syntax-ns#"
   xmlns:svg="http://www.w3.org/2000/svg"
   xmlns="http://www.w3.org/2000/svg"
   xmlns:xlink="http://www.w3.org/1999/xlink"
   xmlns:sodipodi="http://sodipodi.sourceforge.net/DTD/sodipodi-0.dtd"
   xmlns:inkscape="http://www.inkscape.org/namespaces/inkscape"
   version="1.0"
   width="64"
   height="64"
   id="svg9481"
   sodipodi:version="0.32"
   inkscape:version="0.92.2 2405546, 2018-03-11"
   sodipodi:docname="desktop.svg"
   inkscape:output_extension="org.inkscape.output.svg.inkscape">
  <metadata
     id="metadata55">
    <rdf:RDF>
      <cc:Work
         rdf:about="">
        <dc:format>image/svg+xml</dc:format>
        <dc:type
           rdf:resource="http://purl.org/dc/dcmitype/StillImage" />
        <dc:title />
      </cc:Work>
    </rdf:RDF>
  </metadata>
  <sodipodi:namedview
     inkscape:window-height="820"
     inkscape:window-width="1680"
     inkscape:pageshadow="2"
     inkscape:pageopacity="0.0"
     guidetolerance="10.0"
     gridtolerance="10.0"
     objecttolerance="10.0"
     borderopacity="1.0"
     bordercolor="#666666"
     pagecolor="#ffffff"
     id="base"
     showgrid="false"
     inkscape:zoom="2.984375"
     inkscape:cx="5.4505845"
     inkscape:cy="32.630979"
     inkscape:window-x="0"
     inkscape:window-y="32"
     inkscape:current-layer="svg9481"
     inkscape:window-maximized="0" />
  <defs
     id="defs9483">
    <linearGradient
       id="linearGradient871">
      <stop
         offset="0"
         style="stop-color:#434a4a;stop-opacity:1"
         id="stop867" />
      <stop
         offset="1"
         style="stop-color:#353b3d;stop-opacity:1"
         id="stop869" />
    </linearGradient>
    <inkscape:perspective
       sodipodi:type="inkscape:persp3d"
       inkscape:vp_x="0 : 24 : 1"
       inkscape:vp_y="0 : 1000 : 0"
       inkscape:vp_z="48 : 24 : 1"
       inkscape:persp3d-origin="24 : 16 : 1"
       id="perspective56" />
    <linearGradient
       id="linearGradient5048-7">
      <stop
         id="stop5050-5"
         style="stop-color:#000000;stop-opacity:0"
         offset="0" />
      <stop
         id="stop5056-9"
         style="stop-color:#000000;stop-opacity:1"
         offset="0.5" />
      <stop
         id="stop5052-6"
         style="stop-color:#000000;stop-opacity:0"
         offset="1" />
    </linearGradient>
    <linearGradient
       id="linearGradient5060-6">
      <stop
         id="stop5062-3"
         style="stop-color:#000000;stop-opacity:1"
         offset="0" />
      <stop
         id="stop5064-1"
         style="stop-color:#000000;stop-opacity:0"
         offset="1" />
    </linearGradient>
    <linearGradient
       id="linearGradient3332-412-419-652-471-761-410-156-661-505">
      <stop
         id="stop8032"
         style="stop-color:#434343;stop-opacity:1;"
         offset="0" />
      <stop
         id="stop8034"
         style="stop-color:#8a8a8a;stop-opacity:1;"
         offset="1" />
    </linearGradient>
    <linearGradient
       id="linearGradient2867-449-88-871-390-598-476-591-434-148-895-534-212-357-729">
      <stop
         id="stop8022"
         style="stop-color:#aacb7d;stop-opacity:1;"
         offset="0" />
      <stop
         id="stop8028"
         style="stop-color:#709937;stop-opacity:1;"
         offset="1" />
    </linearGradient>
    <linearGradient
       id="linearGradient8265-821-176-38-919-66-249">
      <stop
         id="stop2687"
         style="stop-color:#ffffff;stop-opacity:1"
         offset="0" />
      <stop
         id="stop2689"
         style="stop-color:#ffffff;stop-opacity:0"
         offset="1" />
    </linearGradient>
    <linearGradient
       id="linearGradient3282">
      <stop
         id="stop3284"
         style="stop-color:#000000;stop-opacity:1"
         offset="0" />
      <stop
         id="stop3286"
         style="stop-color:#000000;stop-opacity:0"
         offset="1" />
    </linearGradient>
    <linearGradient
       id="linearGradient3958">
      <stop
         id="stop3960"
         style="stop-color:#a1a1a1;stop-opacity:1"
         offset="0" />
      <stop
         id="stop3962"
         style="stop-color:#4d4d4d;stop-opacity:1"
         offset="1" />
    </linearGradient>
    <linearGradient
       id="linearGradient2446-733-45">
      <stop
         id="stop3793"
         style="stop-color:#fafafa;stop-opacity:1"
         offset="0" />
      <stop
         id="stop3795"
         style="stop-color:#c5c5c5;stop-opacity:1"
         offset="1" />
    </linearGradient>
    <linearGradient
       id="linearGradient2238">
      <stop
         id="stop2240"
         style="stop-color:#ffffff;stop-opacity:1"
         offset="0" />
      <stop
         id="stop2242"
         style="stop-color:#ffffff;stop-opacity:0"
         offset="1" />
    </linearGradient>
    <linearGradient
       inkscape:collect="always"
       xlink:href="#linearGradient2238"
       id="linearGradient2434"
       gradientUnits="userSpaceOnUse"
       gradientTransform="matrix(0.9546411,0,0,0.8965269,1.087456,5.385244)"
       x1="12.578789"
       y1="2.9137428"
       x2="12.578789"
       y2="43.810863" />
    <linearGradient
       inkscape:collect="always"
       xlink:href="#linearGradient871"
       id="linearGradient2437"
       gradientUnits="userSpaceOnUse"
       gradientTransform="matrix(1.0864578,0,0,0.87949771,-3.0126281,3.6452966)"
       x1="33.579403"
       y1="5.7086449"
       x2="33.579403"
       y2="16.323294" />
    <linearGradient
       inkscape:collect="always"
       xlink:href="#linearGradient3958"
       id="linearGradient2439"
       gradientUnits="userSpaceOnUse"
       x1="16.91585"
       y1="7.0006418"
       x2="16.91585"
       y2="14"
       gradientTransform="matrix(1.3333333,0,0,1.3333333,0,-0.66666863)" />
    <linearGradient
       inkscape:collect="always"
       xlink:href="#linearGradient3282"
       id="linearGradient2442"
       gradientUnits="userSpaceOnUse"
       gradientTransform="matrix(1.2750816,0,0,0.62401132,1.4067224,12.23309)"
       x1="24.682861"
       y1="9.2416716"
       x2="24.682861"
       y2="13.523027" />
    <linearGradient
       inkscape:collect="always"
       xlink:href="#linearGradient8265-821-176-38-919-66-249"
       id="linearGradient2445"
       gradientUnits="userSpaceOnUse"
       gradientTransform="matrix(0.9578231,0,0,1.0182827,1.0122454,1.922127)"
       x1="16.626165"
       y1="15.298182"
       x2="20.054544"
       y2="24.627615" />
    <radialGradient
       inkscape:collect="always"
       xlink:href="#linearGradient4209"
       id="radialGradient2448"
       gradientUnits="userSpaceOnUse"
       gradientTransform="matrix(-2.4250223e-8,-1.4208764,1.8622852,0,47.95358,77.411774)"
       cx="26.616697"
       cy="-2.0644982"
       fx="26.616697"
       fy="-2.0644982"
       r="23" />
    <linearGradient
       inkscape:collect="always"
       xlink:href="#linearGradient3332-412-419-652-471-761-410-156-661-505"
       id="linearGradient2450"
       gradientUnits="userSpaceOnUse"
       gradientTransform="matrix(1.2766022,0,0,1.2046276,1.3615712,5.0741713)"
       x1="10.014208"
       y1="44.960102"
       x2="10.014208"
       y2="2.8764627" />
    <radialGradient
       inkscape:collect="always"
       xlink:href="#linearGradient5060-6"
       id="radialGradient2453"
       gradientUnits="userSpaceOnUse"
       gradientTransform="matrix(-0.08744973,0,0,0.02196079,63.589633,48.614789)"
       cx="605.71429"
       cy="486.64789"
       fx="605.71429"
       fy="486.64789"
       r="117.14286" />
    <radialGradient
       inkscape:collect="always"
       xlink:href="#linearGradient5060-6"
       id="radialGradient2456"
       gradientUnits="userSpaceOnUse"
       gradientTransform="matrix(0.08744973,0,0,0.02196079,0.41037932,48.614789)"
       cx="605.71429"
       cy="486.64789"
       fx="605.71429"
       fy="486.64789"
       r="117.14286" />
    <linearGradient
       inkscape:collect="always"
       xlink:href="#linearGradient5048-7"
       id="linearGradient2459"
       gradientUnits="userSpaceOnUse"
       gradientTransform="matrix(0.08744973,0,0,0.02196079,0.39316919,48.614789)"
       x1="302.85715"
       y1="366.64789"
       x2="302.85715"
       y2="609.50507" />
    <radialGradient
       cx="26.616697"
       cy="-2.0644982"
       r="23"
       fx="26.616697"
       fy="-2.0644982"
       id="radialGradient3322-5"
       xlink:href="#linearGradient4209"
       gradientUnits="userSpaceOnUse"
       gradientTransform="matrix(-3.438708e-8,-2.0049302,2.6407404,0,115.43332,63.719262)" />
    <linearGradient
       id="linearGradient4209">
      <stop
         offset="0"
         style="stop-color:#dcb2ff;stop-opacity:1"
         id="stop4211" />
      <stop
         offset="1"
         style="stop-color:#734f9d;stop-opacity:1"
         id="stop4213" />
    </linearGradient>
    <linearGradient
       x1="33.579403"
       y1="5.7086449"
       x2="33.579403"
       y2="16.323294"
       id="linearGradient3311-7"
       xlink:href="#linearGradient3958-6"
       gradientUnits="userSpaceOnUse"
       gradientTransform="matrix(1.5405636,0,0,1.2369262,40.625916,-16.804101)" />
    <linearGradient
       id="linearGradient3958-6">
      <stop
         id="stop3960-7"
         style="stop-color:#262626;stop-opacity:1"
         offset="0" />
      <stop
         id="stop3962-5"
         style="stop-color:#303030;stop-opacity:1"
         offset="1" />
    </linearGradient>
    <linearGradient
       x1="16.91585"
       y1="7.0006418"
       x2="16.91585"
       y2="14"
       id="linearGradient3313-0"
       xlink:href="#linearGradient3958-6"
       gradientUnits="userSpaceOnUse"
       gradientTransform="matrix(1.8906253,0,0,1.8752009,44.897729,-22.868451)" />
    <linearGradient
       x1="32.891998"
       y1="8.059"
       gradientTransform="matrix(0.2676951,0,0,0.27251337,5.55742,33.56223)"
       x2="36.358002"
       gradientUnits="userSpaceOnUse"
       y2="5.4565001"
       id="linearGradient3225-9">
      <stop
         offset="0"
         style="stop-color:#f0f0f0;stop-opacity:1"
         id="stop8591-2" />
      <stop
         offset="1"
         style="stop-color:#b0b0b0;stop-opacity:1"
         id="stop8593-2" />
    </linearGradient>
    <radialGradient
       cx="48"
       cy="90.171875"
       r="42"
       fx="48"
       fy="90.171875"
       id="radialGradient3619-6-8"
       xlink:href="#linearGradient8265-821-176-38-919-66-249"
       gradientUnits="userSpaceOnUse"
       gradientTransform="matrix(0.11507154,0,0,0.09942994,6.93119,33.477345)" />
    <linearGradient
       x1="7.3709002"
       y1="51.470146"
       x2="23.76619"
       y2="51.433136"
       id="linearGradient3748-3"
       xlink:href="#linearGradient3742"
       gradientUnits="userSpaceOnUse"
       gradientTransform="matrix(0,-0.1267732,0.09942994,0,7.68199,43.203769)" />
    <linearGradient
       id="linearGradient3742">
      <stop
         id="stop3744"
         style="stop-color:#676f7d;stop-opacity:1"
         offset="0" />
      <stop
         id="stop3746"
         style="stop-color:#818791;stop-opacity:1"
         offset="1" />
    </linearGradient>
    <linearGradient
       xlink:href="#linearGradient8265-821-176-38-919-66-249"
       id="linearGradient2015-3-2"
       gradientUnits="userSpaceOnUse"
       x1="36.357143"
       y1="6"
       x2="36.357143"
       y2="63.893143"
       gradientTransform="matrix(0.09943,0,0,0.09983851,7.68198,33.491983)" />
    <linearGradient
       x1="48"
       y1="90"
       x2="48"
       y2="5.9877172"
       id="linearGradient3617-6-9"
       xlink:href="#ButtonColor-7"
       gradientUnits="userSpaceOnUse"
       gradientTransform="matrix(0.09942994,0,0,0.09942995,7.68198,33.494435)" />
    <linearGradient
       x1="10.31979"
       y1="21"
       x2="10.31979"
       y2="0.99929649"
       id="ButtonColor-7"
       gradientUnits="userSpaceOnUse">
      <stop
         id="stop3189"
         style="stop-color:#e0e0e0;stop-opacity:1"
         offset="0" />
      <stop
         id="stop3191"
         style="stop-color:#f0f0f0;stop-opacity:1"
         offset="1" />
    </linearGradient>
    <linearGradient
       gradientTransform="matrix(0.88394566,0,0,-0.88394572,10.163169,89.361561)"
       gradientUnits="userSpaceOnUse"
       xlink:href="#ButtonShadow-0"
       id="linearGradient3780-9"
       y2="90.238609"
       x2="32.251034"
       y1="6.1317081"
       x1="32.251034" />
    <linearGradient
       gradientTransform="matrix(1.0058652,0,0,0.994169,100,0)"
       gradientUnits="userSpaceOnUse"
       id="ButtonShadow-0"
       y2="7.0165396"
       x2="45.447727"
       y1="92.539597"
       x1="45.447727">
      <stop
         offset="0"
         style="stop-color:#000000;stop-opacity:1"
         id="stop3750-8" />
      <stop
         offset="1"
         style="stop-color:#000000;stop-opacity:0.58823532"
         id="stop3752-5-4" />
    </linearGradient>
    <linearGradient
       x1="32.891998"
       y1="8.059"
       gradientTransform="matrix(0.2676951,0,0,0.27251337,5.55742,22.365102)"
       x2="36.358002"
       gradientUnits="userSpaceOnUse"
       y2="5.4565001"
       id="linearGradient3225">
      <stop
         offset="0"
         style="stop-color:#f0f0f0;stop-opacity:1"
         id="stop8591" />
      <stop
         offset="1"
         style="stop-color:#b0b0b0;stop-opacity:1"
         id="stop8593" />
    </linearGradient>
    <radialGradient
       cx="48"
       cy="90.171875"
       r="42"
       fx="48"
       fy="90.171875"
       id="radialGradient3619-6"
       xlink:href="#linearGradient8265-821-176-38-919-66-249"
       gradientUnits="userSpaceOnUse"
       gradientTransform="matrix(0.11507154,0,0,0.09942994,6.93119,22.280217)" />
    <linearGradient
       x1="7.3709002"
       y1="51.470146"
       x2="23.76619"
       y2="51.433136"
       id="linearGradient3748"
       xlink:href="#linearGradient3742"
       gradientUnits="userSpaceOnUse"
       gradientTransform="matrix(0,-0.1267732,0.09942994,0,7.68199,32.00664)" />
    <linearGradient
       xlink:href="#linearGradient8265-821-176-38-919-66-249"
       id="linearGradient2015-3"
       gradientUnits="userSpaceOnUse"
       x1="36.357143"
       y1="6"
       x2="36.357143"
       y2="63.893143"
       gradientTransform="matrix(0.09943,0,0,0.09983851,7.68198,22.294855)" />
    <linearGradient
       x1="48"
       y1="90"
       x2="48"
       y2="5.9877172"
       id="linearGradient3617-6"
       xlink:href="#ButtonColor-7"
       gradientUnits="userSpaceOnUse"
       gradientTransform="matrix(0.09942994,0,0,0.09942995,7.68198,22.297307)" />
    <linearGradient
       inkscape:collect="always"
       xlink:href="#ButtonShadow-0"
       id="linearGradient992"
       gradientUnits="userSpaceOnUse"
       gradientTransform="matrix(0.88394566,0,0,-0.88394572,10.163169,89.361561)"
       x1="32.251034"
       y1="6.1317081"
       x2="32.251034"
       y2="90.238609" />
  </defs>
  <rect
     style="display:inline;overflow:visible;visibility:visible;opacity:0.3;fill:url(#linearGradient2459);fill-opacity:1;fill-rule:nonzero;stroke:none;stroke-width:1.33333337;marker:none"
     id="rect2512"
     y="56.666668"
     x="10.887137"
     height="5.3333335"
     width="42.225727" />
  <path
     style="display:inline;overflow:visible;visibility:visible;opacity:0.3;fill:url(#radialGradient2456);fill-opacity:1;fill-rule:nonzero;stroke:none;stroke-width:1.33333337;marker:none"
     id="path2514"
     d="m 53.112865,56.66685 c 0,0 0,5.333038 0,5.333038 4.503444,0.01 10.887138,-1.194862 10.887135,-2.666862 0,-1.472 -5.025504,-2.666176 -10.887135,-2.666176 z"
     inkscape:connector-curvature="0" />
  <path
     style="display:inline;overflow:visible;visibility:visible;opacity:0.3;fill:url(#radialGradient2453);fill-opacity:1;fill-rule:nonzero;stroke:none;stroke-width:1.33333337;marker:none"
     id="path2516"
     d="m 10.887138,56.66685 c 0,0 0,5.333038 0,5.333038 C 6.3836917,62.009923 0,60.805026 0,59.333026 0,57.861026 5.0255049,56.66685 10.887138,56.66685 Z"
     inkscape:connector-curvature="0" />
  <rect
     style="fill:url(#radialGradient2448);fill-opacity:1;fill-rule:evenodd;stroke:url(#linearGradient2450);stroke-width:1.33617723;stroke-linecap:round;stroke-linejoin:round;stroke-miterlimit:4;stroke-dasharray:none;stroke-dashoffset:0;stroke-opacity:1"
     id="rect2573"
     y="9.334753"
     x="2.0014217"
     ry="3.5546458"
     rx="3.5546458"
     height="49.33049"
     width="59.997158" />
  <rect
     style="display:inline;overflow:visible;visibility:visible;opacity:0.2;fill:url(#linearGradient2442);fill-opacity:1;fill-rule:evenodd;stroke:none;stroke-width:1.33333349;stroke-linecap:butt;stroke-linejoin:miter;stroke-miterlimit:4;stroke-dasharray:none;stroke-dashoffset:0;stroke-opacity:1;marker:none;marker-start:none;marker-mid:none;marker-end:none"
     id="rect1436"
     y="17.999998"
     x="2.6666667"
     ry="0"
     rx="0"
     height="2.6666667"
     width="58.666668" />
  <path
     style="display:inline;overflow:visible;visibility:visible;fill:url(#linearGradient2437);fill-opacity:1;fill-rule:evenodd;stroke:url(#linearGradient2439);stroke-width:1.33333337;stroke-linecap:butt;stroke-linejoin:miter;stroke-miterlimit:4;stroke-dasharray:none;stroke-dashoffset:0;stroke-opacity:1;marker:none;marker-start:none;marker-mid:none;marker-end:none"
     id="rect2311"
     d="m 6,9.3341876 52.448308,0.01147 C 60.534875,9.3456546 62,11.027238 62,12.88803 v 6.445302 H 2.0000001 L 2,12.888014 C 2,10.904652 3.6117136,9.3341876 6,9.3341876 Z"
     inkscape:connector-curvature="0"
     sodipodi:nodetypes="ccsccsc" />
  <rect
     style="display:inline;overflow:visible;visibility:visible;opacity:0.5;fill:#1a1a1a;fill-opacity:1;fill-rule:nonzero;stroke:#000000;stroke-width:1.33333361;stroke-linecap:butt;stroke-linejoin:miter;stroke-miterlimit:4;stroke-dasharray:none;stroke-dashoffset:0;stroke-opacity:1;marker:none;marker-start:none;marker-mid:none;marker-end:none;enable-background:accumulate"
     id="rect9439"
     y="49.333332"
     x="11.333332"
     ry="0"
     rx="0"
     height="9.333333"
     width="41.333336" />
  <path
     style="display:inline;overflow:visible;visibility:visible;opacity:0.2;fill:none;fill-opacity:1;fill-rule:nonzero;stroke:#ffffff;stroke-width:1.33333361;stroke-linecap:butt;stroke-linejoin:miter;stroke-miterlimit:4;stroke-dasharray:none;stroke-dashoffset:0;stroke-opacity:1;marker:none;marker-start:none;marker-mid:none;marker-end:none;enable-background:accumulate"
     d="m 10,59.333335 c 0,-3.48718 0,-11.333333 0,-11.333333 0,0 44.000001,0 44.000001,0 0,0 0,11.333333 0,11.333333"
     id="rect2461"
     sodipodi:nodetypes="cccc"
     inkscape:connector-curvature="0" />
  <g
     transform="matrix(0.11999686,0,0,0.11999686,6.14415,21.716189)"
     id="layer5"
     style="display:inline">
    <path
       inkscape:connector-curvature="0"
       style="display:inline;opacity:0.62999998;fill:url(#linearGradient992);fill-opacity:1;fill-rule:nonzero;stroke:none;stroke-width:0.86845267"
       d="m 21.510559,84.057885 h 62.16399 c 3.34823,0 6.04372,-2.727212 6.04372,-6.114824 V 38.904982 L 60.619729,9.8064506 h -39.10917 c -3.34822,0 -6.04372,2.7272114 -6.04372,6.1148244 v 62.021786 c 0,3.387612 2.6955,6.114824 6.04372,6.114824 z"
       id="rect3723" />
  </g>
  <path
     inkscape:connector-curvature="0"
     style="opacity:1;fill:url(#linearGradient3617-6);fill-opacity:1;fill-rule:nonzero;stroke:none;stroke-width:0.09942995"
     d="m 8.87514,22.893884 h 4.53401 l 3.22153,3.221531 v 4.534006 c 0,0.330504 -0.26607,0.596579 -0.59658,0.596579 H 8.87514 c -0.3305,0 -0.59658,-0.266075 -0.59658,-0.596579 v -7.158957 c 0,-0.330505 0.26608,-0.59658 0.59658,-0.59658 z"
     id="rect2419-1" />
  <path
     inkscape:connector-curvature="0"
     d="m 8.87514,22.893884 c -0.3305,0 -0.59658,0.267168 -0.59658,0.599032 v 0.199677 6.550386 c 0.46012,0.970976 0.11913,0.690747 0.0994,0.09984 v -6.518097 -0.199678 c 0,-0.277736 0.22055,-0.499194 0.49715,-0.499194 h 0.19886 4.13629 0.19886 l 3.1221,3.091856 v 0.199678 3.925435 c -0.27986,0.734325 0.0994,0.831723 0.0994,-0.09984 v -3.925436 -0.199678 l -3.22153,-3.223981 z"
     id="rect3728-7"
     style="opacity:1;fill:url(#linearGradient2015-3);fill-opacity:1;fill-rule:nonzero;stroke:none;stroke-width:0.09963406" />
  <path
     inkscape:connector-curvature="0"
     d="m 12.24466,22.894054 c 0.73771,0 0.28898,3.315958 0.28898,3.315958 0,0 4.09783,-0.434034 4.09783,0.924427 0,-0.330911 -8e-4,-1.019024 -8e-4,-1.019024 l -3.22154,-3.22153 z"
     style="opacity:0.2;fill:#000000;fill-opacity:1;fill-rule:evenodd;stroke-width:0.22172855"
     id="path4474-3-5" />
  <path
     inkscape:connector-curvature="0"
     d="m 8.27856,30.48536 c 0,0.421395 0.26608,0.76064 0.59658,0.76064 h 7.15896 c 0.33051,0 0.59658,-0.339245 0.59658,-0.76064 V 29.018515 H 8.27856 Z"
     id="rect3736"
     style="color:#000000;display:inline;overflow:visible;visibility:visible;opacity:1;fill:url(#linearGradient3748);fill-opacity:1;fill-rule:nonzero;stroke:none;stroke-width:0.16840833;marker:none;enable-background:accumulate" />
  <path
     inkscape:connector-curvature="0"
     d="m 8.87514,31.246 c -0.3305,0 -0.59658,-0.267167 -0.59658,-0.599031 v -0.23196 c 0.004,-1.213948 0.0994,-1.239834 0.0994,-0.09984 v 0.199677 c 0,0.277735 0.22055,0.499192 0.49715,0.499192 h 0.19886 6.76124 0.19886 c 0.2766,0 0.49715,-0.221457 0.49715,-0.499192 v -0.199677 c 0.01,-1.35338 0.0994,-0.890268 0.0994,0.09984 v 0.231959 c 0,0.33187 -0.26608,0.599037 -0.59658,0.599037 z"
     id="path3615-2"
     style="opacity:0.2;fill:url(#radialGradient3619-6);fill-opacity:1;fill-rule:nonzero;stroke:none;stroke-width:0.09963402" />
  <path
     inkscape:connector-curvature="0"
     d="m 12.51889,22.893885 c 0.69745,0 0.27041,3.071761 0.27041,3.071761 0,0 1.35985,-0.161867 2.46142,-0.0225 0.74992,0.09488 1.38014,0.329358 1.38014,0.849553 0,-0.312852 -1.8e-4,-0.677284 -1.8e-4,-0.677284 l -3.22153,-3.22153 z"
     style="opacity:0.2;fill:#000000;fill-opacity:1;fill-rule:evenodd;stroke-width:0.20962769"
     id="path4474-3" />
  <path
     inkscape:connector-curvature="0"
     d="m 12.84799,22.895902 c 0.65714,0 0.2367,2.837544 0.2367,2.837544 0,0 3.54694,-0.435763 3.54694,0.77433 0,-0.29477 -9.4e-4,-0.392361 -9.4e-4,-0.392361 l -3.22154,-3.22153 z"
     style="fill:url(#linearGradient3225);fill-rule:evenodd;stroke-width:0.19751161"
     id="path4474" />
  <g
     transform="matrix(0.11999686,0,0,0.11999686,6.14415,32.913318)"
     id="layer5-8"
     style="display:inline">
    <path
       inkscape:connector-curvature="0"
       style="display:inline;opacity:0.62999998;fill:url(#linearGradient3780-9);fill-opacity:1;fill-rule:nonzero;stroke:none;stroke-width:0.86845267"
       d="m 21.510559,84.057885 h 62.16399 c 3.34823,0 6.04372,-2.727212 6.04372,-6.114824 V 38.904982 L 60.619729,9.8064506 h -39.10917 c -3.34822,0 -6.04372,2.7272114 -6.04372,6.1148244 v 62.021786 c 0,3.387612 2.6955,6.114824 6.04372,6.114824 z"
       id="rect3723-4" />
  </g>
  <path
     inkscape:connector-curvature="0"
     style="opacity:1;fill:url(#linearGradient3617-6-9);fill-opacity:1;fill-rule:nonzero;stroke:none;stroke-width:0.09942995"
     d="m 8.87514,34.091013 h 4.53401 l 3.22153,3.221531 v 4.534006 c 0,0.330504 -0.26607,0.596579 -0.59658,0.596579 H 8.87514 c -0.3305,0 -0.59658,-0.266075 -0.59658,-0.596579 v -7.158958 c 0,-0.330505 0.26608,-0.596579 0.59658,-0.596579 z"
     id="rect2419-1-5" />
  <path
     inkscape:connector-curvature="0"
     d="m 8.87514,34.091013 c -0.3305,0 -0.59658,0.267167 -0.59658,0.599031 v 0.199677 6.550388 c 0.46012,0.970975 0.11913,0.690746 0.0994,0.09984 v -6.518097 -0.199679 c 0,-0.277735 0.22055,-0.499193 0.49715,-0.499193 h 0.19886 4.13629 0.19886 l 3.1221,3.091855 v 0.199679 3.925435 c -0.27986,0.734326 0.0994,0.831724 0.0994,-0.09984 v -3.925436 -0.199678 l -3.22153,-3.223981 z"
     id="rect3728-7-0"
     style="opacity:1;fill:url(#linearGradient2015-3-2);fill-opacity:1;fill-rule:nonzero;stroke:none;stroke-width:0.09963406" />
  <path
     inkscape:connector-curvature="0"
     d="m 12.24466,34.091183 c 0.73771,0 0.28898,3.315958 0.28898,3.315958 0,0 4.09783,-0.434034 4.09783,0.924427 0,-0.330911 -8e-4,-1.019024 -8e-4,-1.019024 l -3.22154,-3.221531 z"
     style="opacity:0.2;fill:#000000;fill-opacity:1;fill-rule:evenodd;stroke-width:0.22172855"
     id="path4474-3-5-3" />
  <path
     inkscape:connector-curvature="0"
     d="m 8.27856,41.68249 c 0,0.421395 0.26608,0.76064 0.59658,0.76064 h 7.15896 c 0.33051,0 0.59658,-0.339245 0.59658,-0.76064 V 40.215644 H 8.27856 Z"
     id="rect3736-6"
     style="color:#000000;display:inline;overflow:visible;visibility:visible;opacity:1;fill:url(#linearGradient3748-3);fill-opacity:1;fill-rule:nonzero;stroke:none;stroke-width:0.16840833;marker:none;enable-background:accumulate" />
  <path
     inkscape:connector-curvature="0"
     d="m 8.87514,42.44313 c -0.3305,0 -0.59658,-0.267168 -0.59658,-0.599032 v -0.231959 c 0.004,-1.213949 0.0994,-1.239836 0.0994,-0.09985 v 0.199677 c 0,0.277736 0.22055,0.499193 0.49715,0.499193 h 0.19886 6.76124 0.19886 c 0.2766,0 0.49715,-0.221457 0.49715,-0.499193 v -0.199677 c 0.01,-1.35338 0.0994,-0.890269 0.0994,0.09984 v 0.231959 c 0,0.33187 -0.26608,0.599038 -0.59658,0.599038 z"
     id="path3615-2-1"
     style="opacity:0.2;fill:url(#radialGradient3619-6-8);fill-opacity:1;fill-rule:nonzero;stroke:none;stroke-width:0.09963402" />
  <path
     inkscape:connector-curvature="0"
     d="m 12.51889,34.091013 c 0.69745,0 0.27041,3.071762 0.27041,3.071762 0,0 1.35985,-0.161868 2.46142,-0.0225 0.74992,0.09488 1.38014,0.329357 1.38014,0.849553 0,-0.312852 -1.8e-4,-0.677284 -1.8e-4,-0.677284 l -3.22153,-3.22153 z"
     style="opacity:0.2;fill:#000000;fill-opacity:1;fill-rule:evenodd;stroke-width:0.20962769"
     id="path4474-3-0" />
  <path
     inkscape:connector-curvature="0"
     d="m 12.84799,34.093031 c 0.65714,0 0.2367,2.837544 0.2367,2.837544 0,0 3.54694,-0.435763 3.54694,0.774329 0,-0.294769 -9.4e-4,-0.39236 -9.4e-4,-0.39236 l -3.22154,-3.221531 z"
     style="fill:url(#linearGradient3225-9);fill-rule:evenodd;stroke-width:0.19751161"
     id="path4474-6" />
  <path
     inkscape:connector-curvature="0"
     d="m 8.42614,14.440381 a 1.70057,1.70057 0 1 1 -3.40114,0 1.70057,1.70057 0 1 1 3.40114,0 z"
     id="path4371"
     style="color:#000000;display:inline;overflow:visible;visibility:visible;opacity:0.7;fill:#ffffff;fill-opacity:1;fill-rule:nonzero;stroke:none;stroke-width:1.70056915;marker:none;enable-background:accumulate" />
  <path
     inkscape:connector-curvature="0"
     d="m 57.597999,14.211721 a 1.7005695,1.7005695 0 1 1 -3.401131,0 1.7005695,1.7005695 0 1 1 3.401131,0 z"
     id="path4371-2"
     style="color:#000000;display:inline;overflow:visible;visibility:visible;opacity:0.7;fill:#ffffff;fill-opacity:1;fill-rule:nonzero;stroke:none;stroke-width:1.70056915;marker:none;enable-background:accumulate" />
  <path
     inkscape:connector-curvature="0"
     d="m 53.239002,14.211721 a 1.7005722,1.7005722 0 1 1 -3.401143,0 1.7005722,1.7005722 0 1 1 3.401143,0 z"
     id="path4371-0"
     style="color:#000000;display:inline;overflow:visible;visibility:visible;opacity:0.7;fill:#ffffff;fill-opacity:1;fill-rule:nonzero;stroke:none;stroke-width:1.70056915;marker:none;enable-background:accumulate" />
  <path
     inkscape:connector-curvature="0"
     d="m 48.879854,14.211721 a 1.700573,1.700573 0 1 1 -3.401144,0 1.700573,1.700573 0 1 1 3.401144,0 z"
     id="path4371-6"
     style="color:#000000;display:inline;overflow:visible;visibility:visible;opacity:0.7;fill:#ffffff;fill-opacity:1;fill-rule:nonzero;stroke:none;stroke-width:1.70056915;marker:none;enable-background:accumulate" />
  <text
     xml:space="preserve"
     style="font-style:normal;font-weight:normal;font-size:34.01132965px;line-height:1.25;font-family:sans-serif;letter-spacing:0px;word-spacing:0px;opacity:0.7;fill:#ffffff;fill-opacity:1;stroke:none;stroke-width:0.85028458"
     x="24.598377"
     y="15.843676"
     id="text1267"><tspan
       sodipodi:role="line"
       id="tspan1265"
       x="24.598377"
       y="15.843676"
       style="font-style:normal;font-variant:normal;font-weight:500;font-stretch:normal;font-size:4.53485441px;font-family:Ubuntu;-inkscape-font-specification:'Ubuntu Medium';fill:#ffffff;fill-opacity:1;stroke-width:0.85028458">18:30</tspan></text>
</svg>
