<?xml version="1.0" encoding="UTF-8" standalone="no"?>
<svg
   xmlns:dc="http://purl.org/dc/elements/1.1/"
   xmlns:cc="http://creativecommons.org/ns#"
   xmlns:rdf="http://www.w3.org/1999/02/22-rdf-syntax-ns#"
   xmlns:svg="http://www.w3.org/2000/svg"
   xmlns="http://www.w3.org/2000/svg"
   xmlns:xlink="http://www.w3.org/1999/xlink"
   xmlns:sodipodi="http://sodipodi.sourceforge.net/DTD/sodipodi-0.dtd"
   xmlns:inkscape="http://www.inkscape.org/namespaces/inkscape"
   version="1.1"
   id="svg18157"
   height="64"
   width="64"
   sodipodi:docname="folder-wine.svg"
   inkscape:version="0.92.2 5c3e80d, 2017-08-06">
  <sodipodi:namedview
     pagecolor="#ffffff"
     bordercolor="#666666"
     borderopacity="1"
     objecttolerance="10"
     gridtolerance="10"
     guidetolerance="10"
     inkscape:pageopacity="0"
     inkscape:pageshadow="2"
     inkscape:window-width="1920"
     inkscape:window-height="1011"
     id="namedview127"
     showgrid="false"
     inkscape:zoom="4.9166668"
     inkscape:cx="73.847091"
     inkscape:cy="14.398841"
     inkscape:window-x="0"
     inkscape:window-y="32"
     inkscape:window-maximized="1"
     inkscape:current-layer="g4656" />
  <defs
     id="defs18159">
    <linearGradient
       y2="35.581654"
       x2="42.470848"
       y1="11.952797"
       x1="42.470848"
       gradientTransform="matrix(1.201539,0,0,1.4800876,3.8867086,-12.080801)"
       gradientUnits="userSpaceOnUse"
       id="linearGradient12489"
       xlink:href="#linearGradient3454-2-5-0-3" />
    <linearGradient
       id="linearGradient3454-2-5-0-3">
      <stop
         id="stop3456-4-9-38-1"
         style="stop-color:#ffffff;stop-opacity:1"
         offset="0" />
      <stop
         id="stop3458-39-80-3-5"
         style="stop-color:#ffffff;stop-opacity:0.23529412"
         offset="0.0097359" />
      <stop
         id="stop3460-7-0-2-4"
         style="stop-color:#ffffff;stop-opacity:0.15686275"
         offset="0.99001008" />
      <stop
         id="stop3462-0-9-8-7"
         style="stop-color:#ffffff;stop-opacity:0.39215687"
         offset="1" />
    </linearGradient>
    <linearGradient
       y2="36.657963"
       x2="22.809399"
       y1="49.629246"
       x1="22.934725"
       gradientTransform="matrix(1.5421097,0,0,1.3441562,-5.0167007,-15.837241)"
       gradientUnits="userSpaceOnUse"
       id="linearGradient12487"
       xlink:href="#linearGradient6129-963-697-142-998-580-273-44-2-2" />
    <linearGradient
       id="linearGradient6129-963-697-142-998-580-273-44-2-2">
      <stop
         offset="0"
         style="stop-color:#0a0a0a;stop-opacity:0.498"
         id="stop2661-01-6-2" />
      <stop
         offset="1"
         style="stop-color:#0a0a0a;stop-opacity:0"
         id="stop2663-64-5-5" />
    </linearGradient>
    <linearGradient
       y2="43.761127"
       x2="35.792694"
       y1="17.118193"
       x1="35.792694"
       gradientTransform="matrix(1.3471825,0,0,1.3952962,-0.34717739,-19.458374)"
       gradientUnits="userSpaceOnUse"
       id="linearGradient12481"
       xlink:href="#linearGradient4632-0-6-4-7" />
    <linearGradient
       id="linearGradient4632-0-6-4">
      <stop
         id="stop4634-4-4-7"
         offset="0"
         style="stop-color:#aacb7d;stop-opacity:1;" />
      <stop
         id="stop4636-3-1-5"
         offset="1"
         style="stop-color:#709937;stop-opacity:1;" />
    </linearGradient>
    <radialGradient
       r="117.14286"
       fy="486.64789"
       fx="605.71429"
       cy="486.64789"
       cx="605.71429"
       gradientTransform="matrix(-0.04148087,0,0,0.03328333,31.163084,25.713639)"
       gradientUnits="userSpaceOnUse"
       id="radialGradient12475"
       xlink:href="#linearGradient5060-820-91-9-0" />
    <linearGradient
       id="linearGradient5060-820-91-9-0">
      <stop
         offset="0"
         style="stop-color:#000000;stop-opacity:1"
         id="stop2681-778-5-1" />
      <stop
         offset="1"
         style="stop-color:#000000;stop-opacity:0"
         id="stop2683-2-86-2" />
    </linearGradient>
    <radialGradient
       r="117.14286"
       fy="486.64789"
       fx="605.71429"
       cy="486.64789"
       cx="605.71429"
       gradientTransform="matrix(0.04148087,0,0,0.03328333,32.807321,25.713639)"
       gradientUnits="userSpaceOnUse"
       id="radialGradient12471"
       xlink:href="#linearGradient5060-179-37-4-0" />
    <linearGradient
       id="linearGradient5060-179-37-4-0">
      <stop
         offset="0"
         style="stop-color:#000000;stop-opacity:1"
         id="stop2675-91-9-2" />
      <stop
         offset="1"
         style="stop-color:#000000;stop-opacity:0"
         id="stop2677-09-0-9" />
    </linearGradient>
    <linearGradient
       y2="609.50507"
       x2="302.85715"
       y1="366.64789"
       x1="302.85715"
       gradientTransform="matrix(0.10695088,0,0,0.03328333,-6.6698955,25.713639)"
       gradientUnits="userSpaceOnUse"
       id="linearGradient12467"
       xlink:href="#linearGradient5048-585-73-1-5" />
    <linearGradient
       id="linearGradient5048-585-73-1-5">
      <stop
         offset="0"
         style="stop-color:#000000;stop-opacity:0"
         id="stop2667-99-4-6" />
      <stop
         offset="0.5"
         style="stop-color:#000000;stop-opacity:1"
         id="stop2669-5-9-4" />
      <stop
         offset="1"
         style="stop-color:#000000;stop-opacity:0"
         id="stop2671-56-4-2" />
    </linearGradient>
    <linearGradient
       y2="34.143417"
       x2="21.37039"
       y1="4.2476678"
       x1="21.37039"
       gradientTransform="matrix(1.201539,0,0,1.4253572,3.8569212,-10.105303)"
       gradientUnits="userSpaceOnUse"
       id="linearGradient12463"
       xlink:href="#linearGradient4507-0-4-7" />
    <linearGradient
       id="linearGradient4507-0-4-7">
      <stop
         offset="0"
         style="stop-color:#ffffff;stop-opacity:1"
         id="stop4509-35-6-1" />
      <stop
         offset="0.07395859"
         style="stop-color:#ffffff;stop-opacity:0.23529412"
         id="stop4511-46-3-8" />
      <stop
         offset="0.99001008"
         style="stop-color:#ffffff;stop-opacity:0.15686275"
         id="stop4513-15-5-9" />
      <stop
         offset="1"
         style="stop-color:#ffffff;stop-opacity:0.39215687"
         id="stop4515-1-1-8" />
    </linearGradient>
    <linearGradient
       id="linearGradient4646-7-4-3">
      <stop
         id="stop4648-8-0-3"
         style="stop-color:#f9f9f9;stop-opacity:1"
         offset="0" />
      <stop
         id="stop4650-1-7-3"
         style="stop-color:#d8d8d8;stop-opacity:1"
         offset="1" />
    </linearGradient>
    <linearGradient
       id="linearGradient3104-8-8-97-4-6-11-5-5">
      <stop
         id="stop3106-5-4-3-5-0-2-1-0"
         style="stop-color:#000000;stop-opacity:0.32173914"
         offset="0" />
      <stop
         id="stop3108-4-3-7-8-2-0-7-9"
         style="stop-color:#000000;stop-opacity:0.27826086"
         offset="1" />
    </linearGradient>
    <linearGradient
       xlink:href="#linearGradient3104-8-8-97-4-6-11-5-5"
       id="linearGradient18155"
       gradientUnits="userSpaceOnUse"
       gradientTransform="matrix(1.0878476,0,0,1.1232053,143.63527,-17.411667)"
       x1="-51.786404"
       y1="53.514328"
       x2="-51.786404"
       y2="3.6336823" />
    <linearGradient
       xlink:href="#linearGradient7012-661-145-733-759-865-745"
       id="linearGradient3840"
       x1="22.559322"
       y1="16.466301"
       x2="22.559322"
       y2="44.376751"
       gradientUnits="userSpaceOnUse" />
    <radialGradient
       xlink:href="#linearGradient3484"
       id="radialGradient3070"
       gradientUnits="userSpaceOnUse"
       gradientTransform="matrix(-1.274898e-8,1.7142916,-2.159331,-1.4599595e-8,12.809361,2.8570011)"
       cx="3"
       cy="5.01718"
       fx="3"
       fy="5.01718"
       r="21" />
    <linearGradient
       xlink:href="#linearGradient6404"
       id="linearGradient3068"
       gradientUnits="userSpaceOnUse"
       gradientTransform="translate(-50.940898)"
       x1="62.988873"
       y1="13.182598"
       x2="62.988873"
       y2="16.19013" />
    <linearGradient
       xlink:href="#linearGradient3390"
       id="linearGradient3061"
       gradientUnits="userSpaceOnUse"
       gradientTransform="translate(-53.765393,-0.1141929)"
       x1="82.453476"
       y1="45.114193"
       x2="65.340263"
       y2="15.943953" />
    <linearGradient
       xlink:href="#linearGradient6129-963-697-142-998-580-273"
       id="linearGradient3056"
       gradientUnits="userSpaceOnUse"
       gradientTransform="matrix(1.1446925,0,0,0.9977536,-3.4661413,1.0988425)"
       x1="22.934725"
       y1="49.629246"
       x2="22.809399"
       y2="36.657963" />
    <radialGradient
       xlink:href="#linearGradient6087-437-184-795-110-662-495"
       id="radialGradient3053"
       gradientUnits="userSpaceOnUse"
       gradientTransform="matrix(0,1.2079744,-1.6271642,0,26.371748,8.2664685)"
       cx="7.2646537"
       cy="8.3021259"
       fx="7.2646537"
       fy="8.3021259"
       r="20.979567" />
    <linearGradient
       xlink:href="#linearGradient8265-821-176-38-919-66-249"
       id="linearGradient3050"
       gradientUnits="userSpaceOnUse"
       x1="11.566265"
       y1="22.292103"
       x2="15.214532"
       y2="33.95525" />
    <linearGradient
       x1="11.566265"
       y1="22.292103"
       x2="15.214532"
       y2="33.95525"
       id="linearGradient3466"
       xlink:href="#linearGradient8265-821-176-38-919-66-249"
       gradientUnits="userSpaceOnUse" />
    <linearGradient
       id="linearGradient8265-821-176-38-919-66-249">
      <stop
         id="stop2687"
         style="stop-color:#ffffff;stop-opacity:0.2"
         offset="0" />
      <stop
         id="stop2689"
         style="stop-color:#ffffff;stop-opacity:0"
         offset="1" />
    </linearGradient>
    <radialGradient
       cx="7.2646537"
       cy="8.3021259"
       r="20.979567"
       fx="7.2646537"
       fy="8.3021259"
       id="radialGradient2442-940-759"
       xlink:href="#linearGradient6087-437-184-795-110-662-495"
       gradientUnits="userSpaceOnUse"
       gradientTransform="matrix(0,1.2079744,-1.6271642,0,26.371748,8.2664685)" />
    <linearGradient
       id="linearGradient6087-437-184-795-110-662-495">
      <stop
         id="stop2693"
         style="stop-color:#ffffff;stop-opacity:0.40000001"
         offset="0" />
      <stop
         id="stop2695"
         style="stop-color:#ffffff;stop-opacity:0"
         offset="1" />
    </linearGradient>
    <linearGradient
       x1="22.934725"
       y1="49.629246"
       x2="22.809399"
       y2="36.657963"
       id="linearGradient6462-657-405"
       xlink:href="#linearGradient6129-963-697-142-998-580-273"
       gradientUnits="userSpaceOnUse"
       gradientTransform="matrix(1.1446925,0,0,0.9977536,-3.4661413,1.0988425)" />
    <linearGradient
       id="linearGradient6129-963-697-142-998-580-273">
      <stop
         id="stop2661"
         style="stop-color:#0a0a0a;stop-opacity:0.498"
         offset="0" />
      <stop
         id="stop2663"
         style="stop-color:#0a0a0a;stop-opacity:0"
         offset="1" />
    </linearGradient>
    <radialGradient
       cx="63.969177"
       cy="14.113381"
       r="23.097054"
       fx="63.969177"
       fy="14.113381"
       id="radialGradient3404"
       xlink:href="#linearGradient7012-661-145-733-759-865-745"
       gradientUnits="userSpaceOnUse"
       gradientTransform="matrix(1.5646925,-9.5143002e-8,6.1772287e-8,1.015888,-86.212573,8.1461173)" />
    <linearGradient
       id="linearGradient7012-661-145-733-759-865-745">
      <stop
         id="stop2699"
         style="stop-color:#aacb7d;stop-opacity:1"
         offset="0" />
      <stop
         id="stop2701"
         style="stop-color:#709937;stop-opacity:1"
         offset="1" />
    </linearGradient>
    <linearGradient
       x1="82.453476"
       y1="45.114193"
       x2="65.340263"
       y2="15.943953"
       id="linearGradient3412"
       xlink:href="#linearGradient3390"
       gradientUnits="userSpaceOnUse"
       gradientTransform="translate(-53.765393,-0.1141929)" />
    <linearGradient
       id="linearGradient3390">
      <stop
         id="stop3392"
         style="stop-color:#51751e;stop-opacity:1"
         offset="0" />
      <stop
         id="stop3394"
         style="stop-color:#51751e;stop-opacity:1"
         offset="1" />
    </linearGradient>
    <linearGradient
       x1="302.85715"
       y1="366.64789"
       x2="302.85715"
       y2="609.50507"
       id="linearGradient7596-975"
       xlink:href="#linearGradient5048-585"
       gradientUnits="userSpaceOnUse"
       gradientTransform="matrix(0.08284024,0,0,0.03705882,-5.9408285,25.412461)" />
    <linearGradient
       id="linearGradient5048-585">
      <stop
         id="stop2667"
         style="stop-color:#000000;stop-opacity:0"
         offset="0" />
      <stop
         id="stop2669"
         style="stop-color:#000000;stop-opacity:1"
         offset="0.5" />
      <stop
         id="stop2671"
         style="stop-color:#000000;stop-opacity:0"
         offset="1" />
    </linearGradient>
    <radialGradient
       cx="605.71429"
       cy="486.64789"
       r="117.14286"
       fx="605.71429"
       fy="486.64789"
       id="radialGradient7598-526"
       xlink:href="#linearGradient5060-179"
       gradientUnits="userSpaceOnUse"
       gradientTransform="matrix(0.03212956,0,0,0.03705882,24.636785,25.412461)" />
    <linearGradient
       id="linearGradient5060-179">
      <stop
         id="stop2675"
         style="stop-color:#000000;stop-opacity:1"
         offset="0" />
      <stop
         id="stop2677"
         style="stop-color:#000000;stop-opacity:0"
         offset="1" />
    </linearGradient>
    <radialGradient
       cx="605.71429"
       cy="486.64789"
       r="117.14286"
       fx="605.71429"
       fy="486.64789"
       id="radialGradient7600-312"
       xlink:href="#linearGradient5060-820"
       gradientUnits="userSpaceOnUse"
       gradientTransform="matrix(-0.03212956,0,0,0.03705882,23.363215,25.412461)" />
    <linearGradient
       id="linearGradient5060-820">
      <stop
         id="stop2681"
         style="stop-color:#000000;stop-opacity:1"
         offset="0" />
      <stop
         id="stop2683"
         style="stop-color:#000000;stop-opacity:0"
         offset="1" />
    </linearGradient>
    <linearGradient
       x1="62.988873"
       y1="13.182598"
       x2="62.988873"
       y2="16.19013"
       id="linearGradient3482"
       xlink:href="#linearGradient6404"
       gradientUnits="userSpaceOnUse"
       gradientTransform="translate(-50.940898)" />
    <linearGradient
       id="linearGradient6404">
      <stop
         id="stop6406"
         style="stop-color:#f9f9f9;stop-opacity:1"
         offset="0" />
      <stop
         id="stop6408"
         style="stop-color:#c9c9c9;stop-opacity:1"
         offset="1" />
    </linearGradient>
    <radialGradient
       cx="3"
       cy="5.01718"
       r="21"
       fx="3"
       fy="5.01718"
       id="radialGradient3470"
       xlink:href="#linearGradient3484"
       gradientUnits="userSpaceOnUse"
       gradientTransform="matrix(-1.274898e-8,1.7142916,-2.159331,-1.4599595e-8,12.809361,2.8570011)" />
    <linearGradient
       id="linearGradient3484">
      <stop
         id="stop3486"
         style="stop-color:#bdbdbd;stop-opacity:1"
         offset="0" />
      <stop
         id="stop3488"
         style="stop-color:#d0d0d0;stop-opacity:1"
         offset="1" />
    </linearGradient>
    <linearGradient
       x1="86.132919"
       y1="105.105"
       x2="84.63858"
       y2="20.895"
       id="linearGradient2606"
       xlink:href="#linearGradient5128"
       gradientUnits="userSpaceOnUse"
       gradientTransform="matrix(0.2014014,0,0,0.2014015,18.110304,20.311705)" />
    <linearGradient
       id="linearGradient5128">
      <stop
         id="stop5130"
         style="stop-color:#ffffff;stop-opacity:1"
         offset="0" />
      <stop
         id="stop5132"
         style="stop-color:#959595;stop-opacity:1"
         offset="1" />
    </linearGradient>
    <linearGradient
       x1="32.036148"
       y1="19"
       x2="32.036148"
       y2="47.012184"
       id="linearGradient3413"
       xlink:href="#linearGradient3309"
       gradientUnits="userSpaceOnUse" />
    <linearGradient
       x1="63.9995"
       y1="3.1001"
       x2="63.9995"
       y2="122.8994"
       id="linearGradient3309"
       gradientUnits="userSpaceOnUse">
      <stop
         id="stop3311"
         style="stop-color:#f6f6f6;stop-opacity:1"
         offset="0" />
      <stop
         id="stop3313"
         style="stop-color:#d2d2d2;stop-opacity:1"
         offset="1" />
    </linearGradient>
    <linearGradient
       x1="25.922546"
       y1="19"
       x2="25.922546"
       y2="47.044857"
       id="linearGradient3415"
       xlink:href="#linearGradient3397"
       gradientUnits="userSpaceOnUse" />
    <linearGradient
       id="linearGradient3397">
      <stop
         id="stop3399"
         style="stop-color:#a0a0a0;stop-opacity:1"
         offset="0" />
      <stop
         id="stop3401"
         style="stop-color:#787878;stop-opacity:1"
         offset="1" />
    </linearGradient>
    <linearGradient
       y2="36.599415"
       x2="22.934725"
       y1="49.629246"
       x1="22.934725"
       gradientTransform="matrix(2.2041262,0,0,1.9531236,44.81525,2.9681362)"
       gradientUnits="userSpaceOnUse"
       id="linearGradient5887"
       xlink:href="#linearGradient6129-963-697-142-998-580-273-44-2-2" />
    <linearGradient
       y2="119.05979"
       x2="-91"
       y1="43.999817"
       x1="-91"
       gradientTransform="matrix(0.72580649,0,0,0.74516186,116.81336,18.325446)"
       gradientUnits="userSpaceOnUse"
       id="linearGradient5883"
       xlink:href="#linearGradient4632-0-6-4-7" />
    <linearGradient
       id="linearGradient4632-0-6-4-7">
      <stop
         id="stop4634-4-4-7-5"
         offset="0"
         style="stop-color:#a064be;stop-opacity:1;" />
      <stop
         id="stop4636-3-1-5-3"
         offset="1"
         style="stop-color:#785096;stop-opacity:1;" />
    </linearGradient>
  </defs>
  <metadata
     id="metadata18162">
    <rdf:RDF>
      <cc:Work
         rdf:about="">
        <dc:format>image/svg+xml</dc:format>
        <dc:type
           rdf:resource="http://purl.org/dc/dcmitype/StillImage" />
        <dc:title></dc:title>
      </cc:Work>
    </rdf:RDF>
  </metadata>
  <g
     id="layer1"
     transform="translate(0,16)">
    <path
       id="rect4251-0-0-61"
       d="m 7.0623263,-5.8665279 c -0.7463391,0 -1.3471825,0.6008434 -1.3471825,1.3471825 V -1.82498 H 4.3679613 c -0.7463391,0 -1.3471824,0.6008434 -1.3471824,1.34718245 V 7.6052974 c 0,0.7463391 0.6008433,1.3471825 1.3471824,1.3471825 H 59.602443 c 0.746339,0 1.347183,-0.6008434 1.347183,-1.3471825 v -8.08309495 c 0,-0.74633905 -0.600844,-1.34718245 -1.347183,-1.34718245 H 28.617246 v -2.6943654 c 0,-0.7463391 -0.600843,-1.3471825 -1.347182,-1.3471825 z"
       style="color:#000000;display:inline;overflow:visible;visibility:visible;opacity:0.8;fill:none;stroke:url(#linearGradient18155);stroke-width:1.34718251;stroke-linecap:butt;stroke-linejoin:miter;stroke-miterlimit:4;stroke-dasharray:none;stroke-dashoffset:0;stroke-opacity:1;marker:none;enable-background:accumulate"
       inkscape:connector-curvature="0" />
    <path
       id="rect4251-3-2"
       d="m 7.0623263,-5.1929366 c -0.3731695,0 -0.6735912,0.3004217 -0.6735912,0.6735912 v 3.3679566 H 4.3679613 c -0.3731695,0 -0.6735912,0.3004217 -0.6735912,0.67359125 V 7.6052974 c 0,0.3731696 0.3004217,0.6735913 0.6735912,0.6735913 H 59.602443 c 0.37317,0 0.673591,-0.3004217 0.673591,-0.6735913 v -8.08309495 c 0,-0.37316955 -0.300421,-0.67359125 -0.673591,-0.67359125 H 27.943655 v -3.3679566 c 0,-0.3731695 -0.300422,-0.6735912 -0.673591,-0.6735912 z"
       style="color:#000000;display:inline;overflow:visible;visibility:visible;fill:#cecece;fill-opacity:1;fill-rule:nonzero;stroke:none;stroke-width:1.34707701;marker:none;enable-background:accumulate"
       inkscape:connector-curvature="0" />
    <path
       id="rect4251-9-21-7"
       d="m 7.0623263,-4.5193454 v 4.04154785 H 4.3679613 V 8.9524799 H 59.602443 V -0.47779755 H 27.270064 V -4.5193454 Z"
       style="color:#000000;display:inline;overflow:visible;visibility:visible;fill:none;stroke:url(#linearGradient12463);stroke-width:1.34718251;stroke-linecap:round;stroke-linejoin:round;stroke-miterlimit:4;stroke-dasharray:none;stroke-dashoffset:0;stroke-opacity:1;marker:none;enable-background:accumulate"
       inkscape:connector-curvature="0" />
    <rect
       width="51.641994"
       height="8.0830956"
       x="6.1642141"
       y="37.916904"
       id="rect4173-8-8"
       style="display:inline;overflow:visible;visibility:visible;opacity:0.3;fill:url(#linearGradient12467);fill-opacity:1;fill-rule:nonzero;stroke:none;stroke-width:1.34718251;marker:none" />
    <path
       d="m 57.806204,37.917186 c 0,0 0,8.08265 0,8.08265 2.13616,0.01522 5.164195,-1.810909 5.164195,-4.041844 0,-2.230934 -2.383799,-4.040806 -5.164195,-4.040806 z"
       id="path5058-9-0"
       style="display:inline;overflow:visible;visibility:visible;opacity:0.3;fill:url(#radialGradient12471);fill-opacity:1;fill-rule:nonzero;stroke:none;stroke-width:1.34718251;marker:none"
       inkscape:connector-curvature="0" />
    <path
       d="m 6.1642002,37.917186 c 0,0 0,8.08265 0,8.08265 -2.1361599,0.01522 -5.1641951,-1.810909 -5.1641951,-4.041844 0,-2.230934 2.383799,-4.040806 5.1641951,-4.040806 z"
       id="path5018-6-6"
       style="display:inline;overflow:visible;visibility:visible;opacity:0.3;fill:url(#radialGradient12475);fill-opacity:1;fill-rule:nonzero;stroke:none;stroke-width:1.34718251;marker:none"
       inkscape:connector-curvature="0" />
    <path
       d="M 2.566253,3.5640059 C 1.1216557,3.7368359 1.8932141,5.5230248 1.7780434,6.5274571 1.9456868,7.1765566 3.0275282,41.791885 3.0275282,41.791885 c 0,0.998801 0.4738311,0.829581 1.6744401,0.829581 17.7673967,0 37.4146657,0 55.1820627,0 1.293403,0.03112 1.02006,0.0163 1.02006,-0.84533 0,0 1.337725,-36.851112 1.385577,-37.4262108 0,-0.605545 0.121516,-0.7859193 -0.637433,-0.7859193 -18.973785,0 -40.112197,0 -59.085982,0 z"
       id="path3388-7-1"
       style="fill:url(#linearGradient12481);fill-opacity:1;stroke:none;stroke-width:1.34718251"
       inkscape:connector-curvature="0" />
    <path
       d="M 2.4256474,4.3251101 61.562217,4.325649 c 0.854329,0 1.408007,0.5989708 1.408007,1.3436394 L 61.57938,41.989826 c 0.0198,0.94222 -0.281683,1.315807 -1.2743,1.296044 L 4.0188254,43.262159 c -0.8543293,0 -1.715812,-0.556076 -1.715812,-1.300731 L 1.0176396,5.6692615 c 0,-0.7446686 0.5536785,-1.3441514 1.4080078,-1.3441514 z"
       id="path6127-1-4"
       style="opacity:0.4;fill:url(#linearGradient12487);fill-opacity:1;stroke:none;stroke-width:1.34718251"
       inkscape:connector-curvature="0" />
    <path
       d="M 3.050565,4.9109317 C 3.073188,5.1577374 3.080423,5.6354768 3.092664,6.134979 3.1238,6.2558589 3.127049,6.217837 3.134763,6.2661269 c 0.014897,0.093237 0.03642,0.1934093 0.042099,0.2622959 0.00862,0.1045546 -0.009,0.2420704 0,0.3934437 0.017988,0.3027468 0.061035,0.7146254 0.084199,1.2240473 0.046327,1.0188457 0.105192,2.3905752 0.1683978,4.0655852 0.1264115,3.35002 0.2735645,7.771917 0.4209945,12.153041 0.2860014,8.499002 0.5315528,16.419733 0.5472929,16.918082 0.1650332,0.005 0.095795,0 0.3367956,0 H 59.59013 c 0.0167,-0.460012 0.341082,-8.990412 0.673591,-18.054697 0.170676,-4.652678 0.33058,-9.352099 0.463094,-12.896213 0.06625,-1.7720562 0.127094,-3.2615623 0.168398,-4.3278809 0.01781,-0.4597074 0.03026,-0.8015412 0.0421,-1.0928994 z"
       id="path4587-3-5"
       style="color:#000000;display:inline;overflow:visible;visibility:visible;opacity:0.5;fill:none;stroke:url(#linearGradient12489);stroke-width:1.34718263;stroke-linecap:round;stroke-linejoin:miter;stroke-miterlimit:4;stroke-dasharray:none;stroke-dashoffset:0;stroke-opacity:1;marker:none;enable-background:accumulate"
       inkscape:connector-curvature="0" />
    <path
       d="M 2.566253,3.5640059 C 1.1216557,3.7368359 1.8932141,5.5230248 1.7780434,6.5274571 1.9456868,7.1765566 3.0275282,41.791885 3.0275282,41.791885 c 0,0.998801 0.4738311,0.829581 1.6744401,0.829581 17.7673967,0 37.4146657,0 55.1820627,0 1.293403,0.03112 1.02006,0.0163 1.02006,-0.84533 0,0 1.337725,-36.851112 1.385577,-37.4262108 0,-0.605545 0.121516,-0.7859193 -0.637433,-0.7859193 -18.973785,0 -40.112197,0 -59.085982,0 z"
       id="path3388-7-1-7"
       style="opacity:0.3;fill:none;stroke:#000000;stroke-width:1.34718251;stroke-linecap:round;stroke-linejoin:round;stroke-miterlimit:4;stroke-dashoffset:0;stroke-opacity:1"
       inkscape:connector-curvature="0" />
    <g
       id="g4656"
       style="fill:#1b63a5;fill-opacity:1"
       transform="matrix(0.34475807,0,0,0.34475807,7.9143866,13.123942)">
      <path
         d="m 63.980756,-6.2351335 c -4.315602,0.066052 -9.228243,1.1577349 -15.139059,3.58291 a 3.2086554,3.2086554 0 0 0 -1.867151,2.0690055 l -7.468602,25.484083 a 3.2086554,3.2086554 0 0 0 0.403708,2.674567 3.2086554,3.2086554 0 0 0 -1.71576,2.018541 l -7.317213,25.332693 a 3.2086554,3.2086554 0 0 0 4.289401,3.885692 c 7.161539,-2.937604 12.060033,-3.443545 15.845548,-2.876422 3.785516,0.567124 6.686179,2.235635 9.840389,4.339864 a 3.2086554,3.2086554 0 0 0 2.775495,0.403708 3.2086554,3.2086554 0 0 0 1.312052,1.766224 c 3.378919,2.273066 7.298441,4.546838 12.464492,5.298671 5.166048,0.751831 11.344968,-0.04605 19.226604,-3.28013 a 3.2086554,3.2086554 0 0 0 1.867151,-2.069005 l 7.165819,-24.676666 a 3.2086554,3.2086554 0 0 0 -0.60556,-2.926885 c 0.11023,-0.04812 0.19198,-0.05175 0.30278,-0.100931 a 3.2086554,3.2086554 0 0 0 1.76622,-2.018541 l 7.41814,-25.3831562 a 3.2086554,3.2086554 0 0 0 -4.2894,-3.8856921 C 103.10997,6.3330552 98.18351,6.8368153 94.359802,6.2798173 90.536094,5.7228193 87.597377,4.0813084 84.46895,1.9904179 A 3.2086554,3.2086554 0 0 0 81.996237,1.5362463 3.2086554,3.2086554 0 0 0 80.583258,-0.6841503 C 76.342235,-3.5299129 71.15977,-6.3450421 63.980756,-6.2351376 Z m 0.05047,3.2296652 c 6.363657,-0.097428 10.712567,2.2627075 14.785811,4.9958902 L 71.398898,27.373578 c -3.923236,-2.622195 -8.13187,-5.05291 -14.129789,-5.096817 -3.955542,-0.03086 -8.703719,1.082376 -14.684887,3.532447 L 50.052824,0.3251252 c 5.641671,-2.3147465 10.160201,-3.2721527 13.978398,-3.3305935 z m 18.671503,7.670457 c 6.504029,4.3469816 13.740098,7.8753623 28.764211,1.7157595 L 104.0488,31.763905 C 89.644457,38.157356 81.783829,34.571441 75.284587,30.199536 Z M 55.351492,27.12126 c 6.358227,-0.153458 10.723788,2.108347 14.785815,4.844499 L 62.61824,57.601233 C 56.095067,53.249506 49.008982,49.659973 33.954955,55.835009 l 7.317212,-25.332693 h 0.100931 c 5.622826,-2.297831 10.163461,-3.288979 13.978398,-3.381056 z m 18.72197,7.367675 c 6.518387,4.350541 13.191055,7.518228 28.511898,2.321323 L 95.419536,61.486925 C 80.38226,67.657211 73.216995,64.151381 66.705787,59.771164 Z"
         id="path5235"
         style="opacity:0.05;fill:#1b63a5;fill-opacity:1;stroke-width:1.614833"
         inkscape:connector-curvature="0" />
      <path
         d="m 64.031219,-3.0054683 c -3.818197,0.058441 -8.336726,1.015847 -13.978398,3.3305935 L 42.584219,25.809208 c 5.981169,-2.450071 10.729346,-3.563306 14.684888,-3.532447 5.997919,0.0439 10.206552,2.474622 14.129788,5.096817 L 78.817034,1.9904219 C 74.743791,-0.7427608 70.394881,-3.1028898 64.031219,-3.0054683 Z m 18.671507,7.670457 -7.418139,25.5345473 c 6.499242,4.371905 14.35987,7.95782 28.764213,1.564369 L 111.46694,6.3807482 C 96.442824,12.540351 89.206755,9.0119703 82.702726,4.6649887 Z M 55.351492,27.12126 c -3.814937,0.09208 -8.355572,1.083225 -13.978398,3.381056 h -0.100931 l -7.317212,25.332693 c 15.054027,-6.175036 22.140112,-2.585503 28.663285,1.766224 L 70.137307,31.965759 C 66.07528,29.229607 61.709719,26.9678 55.351492,27.12126 Z m 18.72197,7.367675 -7.367675,25.282229 c 6.511208,4.380217 13.676473,7.886047 28.713749,1.715761 L 102.58536,36.810258 C 87.264517,42.007163 80.591849,38.839476 74.073462,34.488935 Z"
         id="path5142"
         style="opacity:0.9;fill:#482e89;fill-opacity:1;stroke-width:1.614833"
         inkscape:connector-curvature="0" />
    </g>
  </g>
</svg>
