<?xml version="1.0" encoding="UTF-8" standalone="no"?>
<svg
   xmlns:dc="http://purl.org/dc/elements/1.1/"
   xmlns:cc="http://creativecommons.org/ns#"
   xmlns:rdf="http://www.w3.org/1999/02/22-rdf-syntax-ns#"
   xmlns:svg="http://www.w3.org/2000/svg"
   xmlns="http://www.w3.org/2000/svg"
   xmlns:xlink="http://www.w3.org/1999/xlink"
   xmlns:sodipodi="http://sodipodi.sourceforge.net/DTD/sodipodi-0.dtd"
   xmlns:inkscape="http://www.inkscape.org/namespaces/inkscape"
   id="svg3359"
   version="1.1"
   width="96"
   height="96"
   sodipodi:docname="desktop.svg"
   inkscape:version="0.92.2 2405546, 2018-03-11">
  <sodipodi:namedview
     pagecolor="#ffffff"
     bordercolor="#666666"
     borderopacity="1"
     objecttolerance="10"
     gridtolerance="10"
     guidetolerance="10"
     inkscape:pageopacity="0"
     inkscape:pageshadow="2"
     inkscape:window-width="1920"
     inkscape:window-height="1011"
     id="namedview81"
     showgrid="false"
     inkscape:zoom="3.4766083"
     inkscape:cx="45.449975"
     inkscape:cy="17.37206"
     inkscape:window-x="0"
     inkscape:window-y="32"
     inkscape:window-maximized="1"
     inkscape:current-layer="svg3359" />
  <metadata
     id="metadata3484">
    <rdf:RDF>
      <cc:Work
         rdf:about="">
        <dc:format>image/svg+xml</dc:format>
        <dc:type
           rdf:resource="http://purl.org/dc/dcmitype/StillImage" />
        <dc:title />
      </cc:Work>
    </rdf:RDF>
  </metadata>
  <defs
     id="defs3361">
    <linearGradient
       id="linearGradient894">
      <stop
         id="stop890"
         style="stop-color:#434a4a;stop-opacity:1"
         offset="0" />
      <stop
         id="stop892"
         style="stop-color:#353b3d;stop-opacity:1"
         offset="1" />
    </linearGradient>
    <linearGradient
       id="linearGradient4562">
      <stop
         id="stop4558"
         style="stop-color:#dcb2ff;stop-opacity:1"
         offset="0" />
      <stop
         id="stop4560"
         style="stop-color:#734f9d;stop-opacity:1"
         offset="1" />
    </linearGradient>
    <linearGradient
       stop-color="#fff"
       id="a">
      <stop
         id="stop3364"
         offset="0" />
      <stop
         id="stop3366"
         offset="1"
         stop-opacity="0" />
    </linearGradient>
    <linearGradient
       x1="45.448"
       y1="92.54"
       gradientTransform="matrix(1.0059 0 0 .99417 100 0)"
       x2="45.448"
       gradientUnits="userSpaceOnUse"
       y2="7.0165"
       id="b">
      <stop
         id="stop3369"
         offset="0" />
      <stop
         id="stop3371"
         offset="1"
         stop-opacity=".58824" />
    </linearGradient>
    <linearGradient
       x1="32.251"
       y1="90"
       gradientTransform="translate(0,1)"
       x2="32.251"
       gradientUnits="userSpaceOnUse"
       xlink:href="#b"
       y2="6"
       id="q" />
    <linearGradient
       x1="32.251"
       y1="90"
       gradientTransform="matrix(1.0238 0 0 1.0119 -1.1429 .929)"
       x2="32.251"
       gradientUnits="userSpaceOnUse"
       xlink:href="#b"
       y2="5.9996"
       id="p" />
    <linearGradient
       x1="32.251"
       y1="6.1317"
       gradientTransform="matrix(1.0238,0,0,-1.0119,-1.1429,98.071)"
       x2="32.251"
       gradientUnits="userSpaceOnUse"
       xlink:href="#b"
       y2="90.239"
       id="o" />
    <linearGradient
       x1="32"
       y1="46"
       gradientTransform="translate(0,-64)"
       x2="32"
       gradientUnits="userSpaceOnUse"
       xlink:href="#a"
       y2="-24"
       id="n" />
    <radialGradient
       r="35.938"
       gradientTransform="matrix(-.0022617 -1.2346 1.3856 0 70.085 140.27)"
       cx="56.066"
       cy="-15.871"
       gradientUnits="userSpaceOnUse"
       id="d">
      <stop
         id="stop3378"
         offset="0"
         stop-color="#909090" />
      <stop
         id="stop3380"
         offset="1"
         stop-color="#8f8f8f" />
    </radialGradient>
    <radialGradient
       r="42"
       gradientTransform="matrix(1.1573 0 0 .99591 -7.551 .19713)"
       cx="48"
       cy="90.172"
       stop-color="#fff"
       gradientUnits="userSpaceOnUse"
       id="c">
      <stop
         id="stop3383"
         offset="0" />
      <stop
         id="stop3385"
         offset="1"
         stop-opacity="0" />
    </radialGradient>
    <linearGradient
       x1="43.179"
       y1="13"
       gradientTransform="matrix(1.0294,0,0,1.0294,-1.4118,-1.4118)"
       x2="43.179"
       gradientUnits="userSpaceOnUse"
       y2="83.295"
       id="m">
      <stop
         id="stop3388"
         offset="0"
         stop-color="#919191" />
      <stop
         id="stop3390"
         offset="1"
         stop-color="#fdfdfd" />
    </linearGradient>
    <linearGradient
       x1="36.357"
       y1="6"
       x2="36.357"
       gradientUnits="userSpaceOnUse"
       xlink:href="#a"
       y2="63.893"
       id="l" />
    <linearGradient
       x1="48"
       y1="90"
       x2="48"
       gradientUnits="userSpaceOnUse"
       y2="5.9877"
       id="k">
      <stop
         id="stop3394"
         offset="0"
         stop-color="#b4b4b4" />
      <stop
         id="stop3396"
         offset="1"
         stop-color="#e6e6e6" />
    </linearGradient>
    <linearGradient
       x1="65.156"
       y1="16.125"
       gradientTransform="translate(1)"
       x2="65.156"
       gradientUnits="userSpaceOnUse"
       xlink:href="#a"
       y2="69.688"
       id="j" />
    <linearGradient
       x1="65.156"
       y1="16.125"
       x2="65.156"
       gradientUnits="userSpaceOnUse"
       y2="69.688"
       id="i">
      <stop
         id="stop3400"
         offset="0"
         stop-color="#b7b7b7" />
      <stop
         id="stop3402"
         offset="1"
         stop-opacity="0"
         stop-color="#e7e7e7" />
    </linearGradient>
    <linearGradient
       x1="76.451"
       y1="8.0625"
       x2="76.451"
       gradientUnits="userSpaceOnUse"
       stop-color="#fff"
       y2="72.766"
       id="h">
      <stop
         id="stop3405"
         offset="0" />
      <stop
         id="stop3407"
         offset="1"
         stop-opacity="0" />
    </linearGradient>
    <linearGradient
       x1="32"
       y1="46"
       gradientTransform="translate(32,-64)"
       x2="32"
       gradientUnits="userSpaceOnUse"
       xlink:href="#a"
       y2="-24"
       id="g" />
    <linearGradient
       x1="32"
       y1="46"
       gradientTransform="translate(32,-96)"
       x2="32"
       gradientUnits="userSpaceOnUse"
       xlink:href="#a"
       y2="-24"
       id="f" />
    <linearGradient
       x1="32"
       y1="46"
       gradientTransform="translate(0,-96)"
       x2="32"
       gradientUnits="userSpaceOnUse"
       xlink:href="#a"
       y2="-24"
       id="e" />
    <linearGradient
       x1="32"
       y1="46"
       gradientTransform="translate(0,-64)"
       x2="32"
       gradientUnits="userSpaceOnUse"
       xlink:href="#a-6"
       y2="-24"
       id="n-9" />
    <linearGradient
       stop-color="#fff"
       id="a-6">
      <stop
         id="stop3364-3"
         offset="0" />
      <stop
         id="stop3366-6"
         offset="1"
         stop-opacity="0" />
    </linearGradient>
    <linearGradient
       gradientTransform="matrix(1.8576982,0,0,2.1334786,3.16029,-0.41680291)"
       gradientUnits="userSpaceOnUse"
       xlink:href="#a"
       id="linearGradient3308"
       y2="43.810863"
       x2="12.578789"
       y1="2.9137428"
       x1="12.578789" />
    <linearGradient
       gradientTransform="matrix(1.5405634,0,0,1.5104382,-1.899508,-3.6304027)"
       gradientUnits="userSpaceOnUse"
       xlink:href="#linearGradient3958"
       id="linearGradient3311"
       y2="16.323294"
       x2="33.579403"
       y1="5.7086449"
       x1="33.579403" />
    <linearGradient
       id="linearGradient3958">
      <stop
         offset="0"
         style="stop-color:#262626;stop-opacity:1"
         id="stop3960" />
      <stop
         offset="1"
         style="stop-color:#303030;stop-opacity:1"
         id="stop3962" />
    </linearGradient>
    <linearGradient
       gradientTransform="matrix(1.890625,0,0,2.2898496,2.372305,-11.035717)"
       gradientUnits="userSpaceOnUse"
       xlink:href="#linearGradient3958"
       id="linearGradient3313"
       y2="14"
       x2="16.91585"
       y1="7.0006418"
       x1="16.91585" />
    <linearGradient
       gradientTransform="matrix(1.8338353,0,0,0.80366569,3.747744,12.87934)"
       gradientUnits="userSpaceOnUse"
       xlink:href="#linearGradient3282"
       id="linearGradient3316"
       y2="13.523027"
       x2="24.682861"
       y1="9.2416716"
       x1="24.682861" />
    <linearGradient
       id="linearGradient3282">
      <stop
         offset="0"
         style="stop-color:#000000;stop-opacity:1"
         id="stop3284" />
      <stop
         offset="1"
         style="stop-color:#000000;stop-opacity:0"
         id="stop3286" />
    </linearGradient>
    <radialGradient
       gradientTransform="matrix(-3.4387076e-8,-2.4482651,2.6407402,0,70.36965,123.44181)"
       gradientUnits="userSpaceOnUse"
       xlink:href="#linearGradient2867-449-88-871-390-598-476-591-434-148-895-534-212-357-729"
       id="radialGradient3322"
       fy="-2.0644982"
       fx="26.616697"
       r="23"
       cy="-2.0644982"
       cx="26.616697" />
    <linearGradient
       id="linearGradient2867-449-88-871-390-598-476-591-434-148-895-534-212-357-729">
      <stop
         offset="0"
         style="stop-color:#20ee8f;stop-opacity:1"
         id="stop8022" />
      <stop
         offset="1"
         style="stop-color:#00927c;stop-opacity:1"
         id="stop8028" />
    </linearGradient>
    <radialGradient
       gradientTransform="matrix(-0.10165992,0,0,0.04596042,172.66998,67.85037)"
       gradientUnits="userSpaceOnUse"
       xlink:href="#linearGradient3282"
       id="radialGradient3327"
       fy="486.64789"
       fx="605.71429"
       r="117.14286"
       cy="486.64789"
       cx="605.71429" />
    <radialGradient
       gradientTransform="matrix(0.10165998,0,0,0.04596042,18.82463,67.85037)"
       gradientUnits="userSpaceOnUse"
       xlink:href="#linearGradient3282"
       id="radialGradient3330"
       fy="486.64789"
       fx="605.71429"
       r="117.14286"
       cy="486.64789"
       cx="605.71429" />
    <linearGradient
       gradientTransform="matrix(0.13396816,0,0,0.04596042,-0.672625,67.85037)"
       gradientUnits="userSpaceOnUse"
       xlink:href="#linearGradient5048-7"
       id="linearGradient3333"
       y2="609.50507"
       x2="302.85715"
       y1="366.64789"
       x1="302.85715" />
    <linearGradient
       id="linearGradient5048-7">
      <stop
         offset="0"
         style="stop-color:#000000;stop-opacity:0"
         id="stop5050-5" />
      <stop
         offset="0.5"
         style="stop-color:#000000;stop-opacity:1"
         id="stop5056-9" />
      <stop
         offset="1"
         style="stop-color:#000000;stop-opacity:0"
         id="stop5052-6" />
    </linearGradient>
    <linearGradient
       x1="32"
       y1="46"
       gradientTransform="translate(89.655802,-71.016172)"
       x2="32"
       gradientUnits="userSpaceOnUse"
       xlink:href="#a"
       y2="-24"
       id="n-3" />
    <linearGradient
       gradientTransform="matrix(1.8576984,0,0,1.7471456,3.3800414,10.350978)"
       gradientUnits="userSpaceOnUse"
       xlink:href="#a"
       id="linearGradient3308-8"
       y2="43.810863"
       x2="12.578789"
       y1="2.9137428"
       x1="12.578789" />
    <linearGradient
       gradientTransform="matrix(1.5405636,0,0,1.2369262,-1.6797562,7.7193021)"
       gradientUnits="userSpaceOnUse"
       xlink:href="#linearGradient894"
       id="linearGradient3311-7"
       y2="16.323294"
       x2="33.579403"
       y1="5.7086449"
       x1="33.579403" />
    <linearGradient
       gradientTransform="matrix(1.8906253,0,0,1.8752009,2.5920569,1.6549511)"
       gradientUnits="userSpaceOnUse"
       xlink:href="#linearGradient3958"
       id="linearGradient3313-0"
       y2="14"
       x2="16.91585"
       y1="7.0006418"
       x1="16.91585" />
    <linearGradient
       gradientTransform="matrix(1.8338355,0,0,0.65813693,3.9674968,21.239441)"
       gradientUnits="userSpaceOnUse"
       xlink:href="#linearGradient3282"
       id="linearGradient3316-2"
       y2="13.523027"
       x2="24.682861"
       y1="9.2416716"
       x1="24.682861" />
    <radialGradient
       gradientTransform="matrix(-3.438708e-8,-2.0049302,2.6407404,0,70.589407,111.78112)"
       gradientUnits="userSpaceOnUse"
       xlink:href="#linearGradient4562"
       id="radialGradient3322-5"
       fy="-2.0644982"
       fx="26.616697"
       r="23"
       cy="-2.0644982"
       cx="26.616697" />
    <radialGradient
       gradientTransform="matrix(-0.10165993,0,0,0.03763786,76.889735,66.256253)"
       gradientUnits="userSpaceOnUse"
       xlink:href="#linearGradient3282"
       id="radialGradient3327-2"
       fy="486.64789"
       fx="605.71429"
       r="117.14286"
       cy="486.64789"
       cx="605.71429" />
    <radialGradient
       gradientTransform="matrix(0.10166,0,0,0.03763786,19.044388,66.256253)"
       gradientUnits="userSpaceOnUse"
       xlink:href="#linearGradient3282"
       id="radialGradient3330-8"
       fy="486.64789"
       fx="605.71429"
       r="117.14286"
       cy="486.64789"
       cx="605.71429" />
    <linearGradient
       gradientTransform="matrix(0.13396817,0,0,0.03763786,-0.45287254,66.256253)"
       gradientUnits="userSpaceOnUse"
       xlink:href="#linearGradient5048-7"
       id="linearGradient3333-9"
       y2="609.50507"
       x2="302.85715"
       y1="366.64789"
       x1="302.85715" />
    <linearGradient
       x1="32.891998"
       y1="8.059"
       gradientTransform="matrix(0.36836795,0,0,0.37499824,8.638896,50.012942)"
       x2="36.358002"
       gradientUnits="userSpaceOnUse"
       y2="5.4565001"
       id="linearGradient3225-9">
      <stop
         offset="0"
         style="stop-color:#f0f0f0;stop-opacity:1"
         id="stop8591-2" />
      <stop
         offset="1"
         style="stop-color:#b0b0b0;stop-opacity:1"
         id="stop8593-2" />
    </linearGradient>
    <radialGradient
       cx="48"
       cy="90.171875"
       r="42"
       fx="48"
       fy="90.171875"
       id="radialGradient3619-6-8"
       xlink:href="#a"
       gradientUnits="userSpaceOnUse"
       gradientTransform="matrix(0.15834682,0,0,0.13682283,10.529297,49.896134)" />
    <linearGradient
       x1="7.3709002"
       y1="51.470146"
       x2="23.76619"
       y2="51.433136"
       id="linearGradient3748-3"
       xlink:href="#linearGradient3742"
       gradientUnits="userSpaceOnUse"
       gradientTransform="matrix(0,-0.17444915,0.13682283,0,11.56245,63.280401)" />
    <linearGradient
       id="linearGradient3742">
      <stop
         id="stop3744"
         style="stop-color:#676f7d;stop-opacity:1"
         offset="0" />
      <stop
         id="stop3746"
         style="stop-color:#818791;stop-opacity:1"
         offset="1" />
    </linearGradient>
    <linearGradient
       xlink:href="#a"
       id="linearGradient2015-3-2"
       gradientUnits="userSpaceOnUse"
       x1="36.357143"
       y1="6"
       x2="36.357143"
       y2="63.893143"
       gradientTransform="matrix(0.13682292,0,0,0.13738506,11.562446,49.916277)" />
    <linearGradient
       x1="48"
       y1="90"
       x2="48"
       y2="5.9877172"
       id="linearGradient3617-6-9"
       xlink:href="#ButtonColor-7"
       gradientUnits="userSpaceOnUse"
       gradientTransform="matrix(0.13682284,0,0,0.13682285,11.562446,49.919651)" />
    <linearGradient
       x1="10.31979"
       y1="21"
       x2="10.31979"
       y2="0.99929649"
       id="ButtonColor-7"
       gradientUnits="userSpaceOnUse">
      <stop
         id="stop3189"
         style="stop-color:#e0e0e0;stop-opacity:1"
         offset="0" />
      <stop
         id="stop3191"
         style="stop-color:#f0f0f0;stop-opacity:1"
         offset="1" />
    </linearGradient>
    <linearGradient
       gradientTransform="matrix(0.88394566,0,0,-0.88394572,10.163169,89.361561)"
       gradientUnits="userSpaceOnUse"
       xlink:href="#ButtonShadow-0"
       id="linearGradient3780-9"
       y2="90.238609"
       x2="32.251034"
       y1="6.1317081"
       x1="32.251034" />
    <linearGradient
       gradientTransform="matrix(1.0058652,0,0,0.994169,100,0)"
       gradientUnits="userSpaceOnUse"
       id="ButtonShadow-0"
       y2="7.0165396"
       x2="45.447727"
       y1="92.539597"
       x1="45.447727">
      <stop
         offset="0"
         style="stop-color:#000000;stop-opacity:1"
         id="stop3750-8" />
      <stop
         offset="1"
         style="stop-color:#000000;stop-opacity:0.58823532"
         id="stop3752-5-4" />
    </linearGradient>
    <linearGradient
       x1="32.891998"
       y1="8.059"
       gradientTransform="matrix(0.36836795,0,0,0.37499824,8.638896,33.012942)"
       x2="36.358002"
       gradientUnits="userSpaceOnUse"
       y2="5.4565001"
       id="linearGradient3225">
      <stop
         offset="0"
         style="stop-color:#f0f0f0;stop-opacity:1"
         id="stop8591" />
      <stop
         offset="1"
         style="stop-color:#b0b0b0;stop-opacity:1"
         id="stop8593" />
    </linearGradient>
    <radialGradient
       cx="48"
       cy="90.171875"
       r="42"
       fx="48"
       fy="90.171875"
       id="radialGradient3619-6"
       xlink:href="#a"
       gradientUnits="userSpaceOnUse"
       gradientTransform="matrix(0.15834682,0,0,0.13682283,10.529297,32.896134)" />
    <linearGradient
       x1="7.3709002"
       y1="51.470146"
       x2="23.76619"
       y2="51.433136"
       id="linearGradient3748"
       xlink:href="#linearGradient3742"
       gradientUnits="userSpaceOnUse"
       gradientTransform="matrix(0,-0.17444915,0.13682283,0,11.56245,46.2804)" />
    <linearGradient
       xlink:href="#a"
       id="linearGradient2015-3"
       gradientUnits="userSpaceOnUse"
       x1="36.357143"
       y1="6"
       x2="36.357143"
       y2="63.893143"
       gradientTransform="matrix(0.13682292,0,0,0.13738506,11.562446,32.916277)" />
    <linearGradient
       x1="48"
       y1="90"
       x2="48"
       y2="5.9877172"
       id="linearGradient3617-6"
       xlink:href="#ButtonColor-7"
       gradientUnits="userSpaceOnUse"
       gradientTransform="matrix(0.13682284,0,0,0.13682285,11.562446,32.919651)" />
    <linearGradient
       inkscape:collect="always"
       xlink:href="#ButtonShadow-0"
       id="linearGradient1015"
       gradientUnits="userSpaceOnUse"
       gradientTransform="matrix(0.88394566,0,0,-0.88394572,10.163169,89.361561)"
       x1="32.251034"
       y1="6.1317081"
       x2="32.251034"
       y2="90.238609" />
  </defs>
  <rect
     style="display:inline;overflow:visible;visibility:visible;opacity:0.3;fill:url(#linearGradient3333-9);fill-opacity:1;fill-rule:nonzero;stroke:none;stroke-width:1;marker:none"
     id="rect2512"
     y="80.056091"
     x="15.623315"
     height="9.140626"
     width="64.687508" />
  <path
     style="display:inline;overflow:visible;visibility:visible;opacity:0.3;fill:url(#radialGradient3330-8);fill-opacity:1;fill-rule:nonzero;stroke:none;stroke-width:1;marker:none"
     id="path2514"
     d="m 80.310811,80.056412 c 0,0 0,9.1401 0,9.1401 5.235236,0.0172 12.656259,-2.04782 12.65625,-4.57064 0,-2.52281 -5.842134,-4.56946 -12.65625,-4.56946 z" />
  <path
     style="display:inline;overflow:visible;visibility:visible;opacity:0.3;fill:url(#radialGradient3327-2);fill-opacity:1;fill-rule:nonzero;stroke:none;stroke-width:1;marker:none"
     id="path2516"
     d="m 15.623312,80.056412 c 0,0 0,9.1401 0,9.1401 -5.235236,0.0172 -12.6562504,-2.04782 -12.6562504,-4.57064 0,-2.52281 5.8421282,-4.56946 12.6562504,-4.56946 z" />
  <rect
     style="fill:url(#radialGradient3322-5);fill-opacity:1;fill-rule:evenodd;stroke:#505050;stroke-width:0.70462477;stroke-linecap:round;stroke-linejoin:round;stroke-miterlimit:4;stroke-dasharray:none;stroke-dashoffset:0;stroke-opacity:1"
     id="rect2573"
     y="15.720916"
     x="5.428751"
     ry="4.9218755"
     rx="4.9218755"
     height="69.60788"
     width="85.07663" />
  <rect
     style="display:inline;overflow:visible;visibility:visible;opacity:0.2;fill:url(#linearGradient3316-2);fill-opacity:1;fill-rule:evenodd;stroke:none;stroke-width:1.00000012;stroke-linecap:butt;stroke-linejoin:miter;stroke-miterlimit:4;stroke-dasharray:none;stroke-dashoffset:0;stroke-opacity:1;marker:none;marker-start:none;marker-mid:none;marker-end:none"
     id="rect1436"
     y="27.321726"
     x="5.7795625"
     ry="0"
     rx="0"
     height="2.8125002"
     width="84.375" />
  <path
     style="display:inline;overflow:visible;visibility:visible;fill:url(#linearGradient3311-7);fill-opacity:1;fill-rule:evenodd;stroke:url(#linearGradient3313-0);stroke-width:0.70312506;stroke-linecap:butt;stroke-linejoin:miter;stroke-miterlimit:4;stroke-dasharray:none;stroke-dashoffset:0;stroke-opacity:1;marker:none;marker-start:none;marker-mid:none;marker-end:none"
     id="rect2311"
     d="m 11.09987,15.720163 c 0,0 74.370069,0.0161 74.370069,0.0161 2.958686,0 5.036185,2.36498 5.036185,4.981997 0,0 0,6.251899 0,6.251899 0,0 -85.078129,0 -85.078129,0 0,0 0,-6.251899 0,-6.251899 0,-2.789401 2.2853597,-4.998101 5.671875,-4.998101 z" />
  <rect
     style="opacity:0.4;fill:none;fill-opacity:1;fill-rule:evenodd;stroke:url(#linearGradient3308-8);stroke-width:0.70574868;stroke-linecap:round;stroke-linejoin:round;stroke-miterlimit:4;stroke-dasharray:none;stroke-dashoffset:0;stroke-opacity:1"
     id="rect2601"
     y="16.424635"
     x="6.1324339"
     ry="4.21875"
     rx="4.21875"
     height="68.200493"
     width="83.669258" />
  <rect
     style="display:inline;overflow:visible;visibility:visible;opacity:0.68399999;fill:#1a1a1a;fill-opacity:1;fill-rule:nonzero;stroke:#000000;stroke-width:0.70312524;stroke-linecap:butt;stroke-linejoin:miter;stroke-miterlimit:4;stroke-dasharray:none;stroke-dashoffset:0;stroke-opacity:1;marker:none;marker-start:none;marker-mid:none;marker-end:none;enable-background:accumulate"
     id="rect9439"
     y="71.970146"
     x="18.787376"
     ry="0"
     rx="0"
     height="13.359377"
     width="58.359383" />
  <path
     id="rect2429"
     d="m 18.08425,85.681102 c 0,0 0,-14.414071 0,-14.414071 0,0 59.765623,0 59.765623,0 0,0 0,14.414071 0,14.414071"
     style="display:inline;overflow:visible;visibility:visible;opacity:0.2;fill:none;fill-opacity:1;fill-rule:nonzero;stroke:#ffffff;stroke-width:0.70312524;stroke-linecap:butt;stroke-linejoin:miter;stroke-miterlimit:4;stroke-dasharray:none;stroke-dashoffset:0;stroke-opacity:1;marker:none;marker-start:none;marker-mid:none;marker-end:none;enable-background:accumulate" />
  <path
     inkscape:connector-curvature="0"
     d="m 14.577,22.268919 a 2,2 0 1 1 -4,0 2,2 0 1 1 4,0 z"
     id="path4371"
     style="color:#000000;display:inline;overflow:visible;visibility:visible;opacity:0.7;fill:#ffffff;fill-opacity:1;fill-rule:nonzero;stroke:none;stroke-width:2;marker:none;enable-background:accumulate" />
  <g
     transform="matrix(0.16512441,0,0,0.16512441,9.446283,32.119991)"
     id="layer5"
     style="display:inline">
    <path
       inkscape:connector-curvature="0"
       style="display:inline;opacity:0.62999998;fill:url(#linearGradient1015);fill-opacity:1;fill-rule:nonzero;stroke:none;stroke-width:0.86845267"
       d="m 21.510559,84.057885 h 62.16399 c 3.34823,0 6.04372,-2.727212 6.04372,-6.114824 V 38.904982 L 60.619729,9.8064506 h -39.10917 c -3.34822,0 -6.04372,2.7272114 -6.04372,6.1148244 v 62.021786 c 0,3.387612 2.6955,6.114824 6.04372,6.114824 z"
       id="rect3723" />
  </g>
  <path
     inkscape:connector-curvature="0"
     style="opacity:1;fill:url(#linearGradient3617-6);fill-opacity:1;fill-rule:nonzero;stroke:none;stroke-width:0.13682285"
     d="m 13.204321,33.740585 h 6.23912 l 4.433062,4.433061 v 6.239122 c 0,0.454798 -0.366136,0.820936 -0.820938,0.820936 h -9.851244 c -0.454801,0 -0.820937,-0.366138 -0.820937,-0.820936 v -9.851246 c 0,-0.454799 0.366136,-0.820937 0.820937,-0.820937 z"
     id="rect2419-1" />
  <path
     inkscape:connector-curvature="0"
     d="m 13.204321,33.740585 c -0.454798,0 -0.820937,0.367642 -0.820937,0.824311 v 0.27477 9.013809 c 0.63315,1.336133 0.16393,0.950518 0.136823,0.137384 v -8.969376 -0.274772 c 0,-0.382184 0.303495,-0.686926 0.684114,-0.686926 h 0.273648 5.691834 0.273647 l 4.296236,4.254618 v 0.274772 5.401684 c -0.385115,1.010485 0.136817,1.144512 0.136817,-0.137385 v -5.401685 -0.274771 l -4.433059,-4.436433 z"
     id="rect3728-7"
     style="opacity:1;fill:url(#linearGradient2015-3);fill-opacity:1;fill-rule:nonzero;stroke:none;stroke-width:0.13710372" />
  <path
     inkscape:connector-curvature="0"
     d="m 17.841022,33.740819 c 1.015141,0 0.397654,4.563 0.397654,4.563 0,0 5.63892,-0.597263 5.63892,1.272079 0,-0.455358 -0.0011,-1.402252 -0.0011,-1.402252 l -4.433079,-4.43306 z"
     style="opacity:0.2;fill:#000000;fill-opacity:1;fill-rule:evenodd;stroke-width:0.30511463"
     id="path4474-3-5" />
  <path
     inkscape:connector-curvature="0"
     d="m 12.383387,44.187009 c 0,0.57987 0.366137,1.046696 0.820937,1.046696 h 9.851244 c 0.4548,0 0.820937,-0.466826 0.820937,-1.046696 V 42.168523 H 12.383387 Z"
     id="rect3736"
     style="color:#000000;display:inline;overflow:visible;visibility:visible;opacity:1;fill:url(#linearGradient3748);fill-opacity:1;fill-rule:nonzero;stroke:none;stroke-width:0.23174213;marker:none;enable-background:accumulate" />
  <path
     inkscape:connector-curvature="0"
     d="m 13.204324,45.233705 c -0.4548,0 -0.820937,-0.367642 -0.820937,-0.824311 v -0.319193 c 0.0056,-1.670481 0.136822,-1.706103 0.136822,-0.137393 v 0.27477 c 0,0.382184 0.303494,0.686925 0.684115,0.686925 h 0.273646 9.303948 0.273647 c 0.380621,0 0.684114,-0.304741 0.684114,-0.686925 v -0.27477 c 0.01343,-1.862349 0.136826,-1.225074 0.136826,0.137385 v 0.319193 c -3e-6,0.456677 -0.366141,0.824319 -0.82094,0.824319 z"
     id="path3615-2"
     style="opacity:0.2;fill:url(#radialGradient3619-6);fill-opacity:1;fill-rule:nonzero;stroke:none;stroke-width:0.13710366" />
  <path
     inkscape:connector-curvature="0"
     d="m 18.21838,33.740586 c 0.959739,0 0.37211,4.226967 0.37211,4.226967 0,0 1.871252,-0.222741 3.387096,-0.03096 1.03194,0.130557 1.899168,0.45322 1.899168,1.169047 0,-0.430507 -2.49e-4,-0.931992 -2.49e-4,-0.931992 l -4.433061,-4.43306 z"
     style="opacity:0.2;fill:#000000;fill-opacity:1;fill-rule:evenodd;stroke-width:0.28846297"
     id="path4474-3" />
  <path
     inkscape:connector-curvature="0"
     d="m 18.671249,33.743362 c 0.904269,0 0.325713,3.904667 0.325713,3.904667 0,0 4.880852,-0.599641 4.880852,1.065534 0,-0.405624 -0.0013,-0.539917 -0.0013,-0.539917 l -4.433067,-4.43306 z"
     style="fill:url(#linearGradient3225);fill-rule:evenodd;stroke-width:0.27179036"
     id="path4474" />
  <g
     transform="matrix(0.16512441,0,0,0.16512441,9.446283,49.119991)"
     id="layer5-8"
     style="display:inline">
    <path
       inkscape:connector-curvature="0"
       style="display:inline;opacity:0.62999998;fill:url(#linearGradient3780-9);fill-opacity:1;fill-rule:nonzero;stroke:none;stroke-width:0.86845267"
       d="m 21.510559,84.057885 h 62.16399 c 3.34823,0 6.04372,-2.727212 6.04372,-6.114824 V 38.904982 L 60.619729,9.8064506 h -39.10917 c -3.34822,0 -6.04372,2.7272114 -6.04372,6.1148244 v 62.021786 c 0,3.387612 2.6955,6.114824 6.04372,6.114824 z"
       id="rect3723-4" />
  </g>
  <path
     inkscape:connector-curvature="0"
     style="opacity:1;fill:url(#linearGradient3617-6-9);fill-opacity:1;fill-rule:nonzero;stroke:none;stroke-width:0.13682285"
     d="m 13.204321,50.740585 h 6.23912 l 4.433062,4.433061 v 6.239123 c 0,0.454798 -0.366136,0.820936 -0.820938,0.820936 h -9.851244 c -0.454801,0 -0.820937,-0.366138 -0.820937,-0.820936 v -9.851247 c 0,-0.454799 0.366136,-0.820937 0.820937,-0.820937 z"
     id="rect2419-1-5" />
  <path
     inkscape:connector-curvature="0"
     d="m 13.204321,50.740585 c -0.454798,0 -0.820937,0.367642 -0.820937,0.824311 v 0.27477 9.01381 c 0.63315,1.336133 0.16393,0.950518 0.136823,0.137384 v -8.969377 -0.274772 c 0,-0.382184 0.303495,-0.686926 0.684114,-0.686926 h 0.273648 5.691834 0.273647 l 4.296236,4.254618 v 0.274772 5.401685 c -0.385115,1.010485 0.136817,1.144512 0.136817,-0.137385 v -5.401686 -0.274771 l -4.433059,-4.436433 z"
     id="rect3728-7-0"
     style="opacity:1;fill:url(#linearGradient2015-3-2);fill-opacity:1;fill-rule:nonzero;stroke:none;stroke-width:0.13710372" />
  <path
     inkscape:connector-curvature="0"
     d="m 17.841022,50.740819 c 1.015141,0 0.397654,4.563 0.397654,4.563 0,0 5.63892,-0.597263 5.63892,1.272079 0,-0.455358 -0.0011,-1.402252 -0.0011,-1.402252 l -4.433079,-4.43306 z"
     style="opacity:0.2;fill:#000000;fill-opacity:1;fill-rule:evenodd;stroke-width:0.30511463"
     id="path4474-3-5-3" />
  <path
     inkscape:connector-curvature="0"
     d="m 12.383387,61.18701 c 0,0.57987 0.366137,1.046696 0.820937,1.046696 h 9.851244 c 0.4548,0 0.820937,-0.466826 0.820937,-1.046696 V 59.168523 H 12.383387 Z"
     id="rect3736-6"
     style="color:#000000;display:inline;overflow:visible;visibility:visible;opacity:1;fill:url(#linearGradient3748-3);fill-opacity:1;fill-rule:nonzero;stroke:none;stroke-width:0.23174213;marker:none;enable-background:accumulate" />
  <path
     inkscape:connector-curvature="0"
     d="m 13.204324,62.233706 c -0.4548,0 -0.820937,-0.367642 -0.820937,-0.824311 v -0.319193 c 0.0056,-1.670482 0.136822,-1.706104 0.136822,-0.137393 v 0.27477 c 0,0.382184 0.303494,0.686925 0.684115,0.686925 h 0.273646 9.303948 0.273647 c 0.380621,0 0.684114,-0.304741 0.684114,-0.686925 v -0.27477 c 0.01343,-1.86235 0.136826,-1.225075 0.136826,0.137385 v 0.319193 c -3e-6,0.456677 -0.366141,0.824319 -0.82094,0.824319 z"
     id="path3615-2-1"
     style="opacity:0.2;fill:url(#radialGradient3619-6-8);fill-opacity:1;fill-rule:nonzero;stroke:none;stroke-width:0.13710366" />
  <path
     inkscape:connector-curvature="0"
     d="m 18.21838,50.740586 c 0.959739,0 0.37211,4.226967 0.37211,4.226967 0,0 1.871252,-0.222741 3.387096,-0.03096 1.03194,0.130557 1.899168,0.45322 1.899168,1.169047 0,-0.430507 -2.49e-4,-0.931992 -2.49e-4,-0.931992 l -4.433061,-4.43306 z"
     style="opacity:0.2;fill:#000000;fill-opacity:1;fill-rule:evenodd;stroke-width:0.28846297"
     id="path4474-3-0" />
  <path
     inkscape:connector-curvature="0"
     d="m 18.671249,50.743362 c 0.904269,0 0.325713,3.904667 0.325713,3.904667 0,0 4.880852,-0.599641 4.880852,1.065534 0,-0.405624 -0.0013,-0.539917 -0.0013,-0.539917 l -4.433067,-4.43306 z"
     style="fill:url(#linearGradient3225-9);fill-rule:evenodd;stroke-width:0.27179036"
     id="path4474-6" />
  <path
     inkscape:connector-curvature="0"
     d="m 85.350448,22 a 2,2 0 1 1 -4,0 2,2 0 1 1 4,0 z"
     id="path4371-2"
     style="color:#000000;display:inline;overflow:visible;visibility:visible;opacity:0.7;fill:#ffffff;fill-opacity:1;fill-rule:nonzero;stroke:none;stroke-width:2;marker:none;enable-background:accumulate" />
  <path
     inkscape:connector-curvature="0"
     d="m 80.223924,22 a 2,2 0 1 1 -4,0 2,2 0 1 1 4,0 z"
     id="path4371-0"
     style="color:#000000;display:inline;overflow:visible;visibility:visible;opacity:0.7;fill:#ffffff;fill-opacity:1;fill-rule:nonzero;stroke:none;stroke-width:2;marker:none;enable-background:accumulate" />
  <path
     inkscape:connector-curvature="0"
     d="m 75.097236,22 a 2,2 0 1 1 -4,0 2,2 0 1 1 4,0 z"
     id="path4371-6"
     style="color:#000000;display:inline;overflow:visible;visibility:visible;opacity:0.7;fill:#ffffff;fill-opacity:1;fill-rule:nonzero;stroke:none;stroke-width:2;marker:none;enable-background:accumulate" />
  <text
     xml:space="preserve"
     style="font-style:normal;font-weight:normal;font-size:40px;line-height:1.25;font-family:sans-serif;letter-spacing:0px;word-spacing:0px;opacity:0.7;fill:#ffffff;fill-opacity:1;stroke:none"
     x="39.244663"
     y="23.919302"
     id="text1267"><tspan
       sodipodi:role="line"
       id="tspan1265"
       x="39.244663"
       y="23.919302"
       style="font-style:normal;font-variant:normal;font-weight:500;font-stretch:normal;font-size:5.33333349px;font-family:Ubuntu;-inkscape-font-specification:'Ubuntu Medium';fill:#ffffff;fill-opacity:1">18:30</tspan></text>
</svg>
