<?xml version="1.0" encoding="UTF-8" standalone="no"?>
<svg
   xmlns:dc="http://purl.org/dc/elements/1.1/"
   xmlns:cc="http://creativecommons.org/ns#"
   xmlns:rdf="http://www.w3.org/1999/02/22-rdf-syntax-ns#"
   xmlns:svg="http://www.w3.org/2000/svg"
   xmlns="http://www.w3.org/2000/svg"
   xmlns:xlink="http://www.w3.org/1999/xlink"
   id="svg2408"
   height="96"
   width="96"
   version="1.0">
  <defs
     id="defs2410">
    <linearGradient
       gradientTransform="matrix(0,0.7058823,-0.8125,0,101.62499,4.0000002)"
       gradientUnits="userSpaceOnUse"
       xlink:href="#linearGradient3767"
       id="linearGradient3421"
       y2="65.999985"
       x2="16.919882"
       y1="65.999985"
       x1="85.000008" />
    <linearGradient
       id="linearGradient3767">
      <stop
         offset="0"
         style="stop-color:#4d4d4d;stop-opacity:0.70731705"
         id="stop3769" />
      <stop
         offset="1"
         style="stop-color:#4d4d4d;stop-opacity:0.25203252"
         id="stop3771" />
    </linearGradient>
    <linearGradient
       id="linearGradient3313">
      <stop
         offset="0"
         style="stop-color:#4dbeff;stop-opacity:1"
         id="stop3315" />
      <stop
         offset="0.67213112"
         style="stop-color:#1379ff;stop-opacity:0.65040648"
         id="stop4186" />
      <stop
         offset="1"
         style="stop-color:#0066ff;stop-opacity:0"
         id="stop3317" />
    </linearGradient>
    <linearGradient
       id="linearGradient4327">
      <stop
         offset="0"
         style="stop-color:#f0f0f0;stop-opacity:1"
         id="stop4329" />
      <stop
         offset="1"
         style="stop-color:#b4b4b4;stop-opacity:1"
         id="stop4331" />
    </linearGradient>
    <linearGradient
       id="linearGradient3322">
      <stop
         offset="0"
         style="stop-color:#7a7a7a;stop-opacity:1"
         id="stop3324" />
      <stop
         offset="0.2032043"
         style="stop-color:#f9f9f9;stop-opacity:1"
         id="stop3326" />
      <stop
         offset="0.42969123"
         style="stop-color:#c9c9c9;stop-opacity:1"
         id="stop3328" />
      <stop
         offset="1"
         style="stop-color:#dedede;stop-opacity:0"
         id="stop3330" />
    </linearGradient>
    <linearGradient
       id="linearGradient3448">
      <stop
         offset="0"
         style="stop-color:#000000;stop-opacity:1"
         id="stop3450" />
      <stop
         offset="1"
         style="stop-color:#000000;stop-opacity:0"
         id="stop3452" />
    </linearGradient>
    <linearGradient
       id="linearGradient3273">
      <stop
         offset="0"
         style="stop-color:#7a7a7a;stop-opacity:1"
         id="stop3275" />
      <stop
         offset="0.14636412"
         style="stop-color:#f9f9f9;stop-opacity:1"
         id="stop3281" />
      <stop
         offset="0.37253973"
         style="stop-color:#c9c9c9;stop-opacity:1"
         id="stop3283" />
      <stop
         offset="1"
         style="stop-color:#dedede;stop-opacity:0"
         id="stop3277" />
    </linearGradient>
    <linearGradient
       id="linearGradient3220">
      <stop
         offset="0"
         style="stop-color:#ffffff;stop-opacity:1"
         id="stop3222" />
      <stop
         offset="1"
         style="stop-color:#bfbfbf;stop-opacity:0"
         id="stop3224" />
    </linearGradient>
    <linearGradient
       gradientTransform="scale(1.0058652,0.994169)"
       gradientUnits="userSpaceOnUse"
       id="ButtonShadow"
       y2="7.0165396"
       x2="45.447727"
       y1="92.539597"
       x1="45.447727">
      <stop
         offset="0"
         style="stop-color:#000000;stop-opacity:1"
         id="stop3750" />
      <stop
         offset="1"
         style="stop-color:#000000;stop-opacity:0.58823532"
         id="stop3752" />
    </linearGradient>
    <linearGradient
       id="linearGradient3737">
      <stop
         offset="0"
         style="stop-color:#ffffff;stop-opacity:1"
         id="stop3739" />
      <stop
         offset="1"
         style="stop-color:#ffffff;stop-opacity:0"
         id="stop3741" />
    </linearGradient>
    <filter
       id="filter3174"
       color-interpolation-filters="sRGB">
      <feGaussianBlur
         stdDeviation="1.71"
         id="feGaussianBlur3176" />
    </filter>
    <linearGradient
       gradientUnits="userSpaceOnUse"
       xlink:href="#linearGradient3737"
       id="linearGradient3188"
       y2="63.893143"
       x2="36.357143"
       y1="6"
       x1="36.357143" />
    <linearGradient
       gradientUnits="userSpaceOnUse"
       xlink:href="#linearGradient4327"
       id="linearGradient3179"
       y2="78.000145"
       x2="46"
       y1="6"
       x1="46" />
    <linearGradient
       gradientUnits="userSpaceOnUse"
       xlink:href="#linearGradient3322"
       id="linearGradient3279"
       y2="77.09375"
       x2="32"
       y1="77.09375"
       x1="6" />
    <linearGradient
       gradientTransform="matrix(-1,0,0,1,96.030615,0)"
       gradientUnits="userSpaceOnUse"
       xlink:href="#linearGradient3273"
       id="linearGradient3287"
       y2="77.09375"
       x2="32.030617"
       y1="77.09375"
       x1="6" />
    <linearGradient
       gradientTransform="matrix(-1,0,0,1,96,-2)"
       gradientUnits="userSpaceOnUse"
       xlink:href="#linearGradient3448"
       id="linearGradient3454"
       y2="75.5"
       x2="45.219246"
       y1="75.5"
       x1="6" />
    <linearGradient
       gradientUnits="userSpaceOnUse"
       xlink:href="#linearGradient3448"
       id="linearGradient3460"
       y2="90"
       x2="48"
       y1="77.09375"
       x1="48" />
    <linearGradient
       gradientTransform="matrix(1,0,0,-1,0,84)"
       gradientUnits="userSpaceOnUse"
       xlink:href="#linearGradient3220"
       id="linearGradient3551"
       y2="68.516502"
       x2="109.1929"
       y1="8.046936"
       x1="18.742928" />
    <linearGradient
       gradientTransform="matrix(1.1165614,0,0,1.1165614,0.8046986,-5.6759082)"
       gradientUnits="userSpaceOnUse"
       xlink:href="#linearGradient3220"
       id="linearGradient3781"
       y2="39.82095"
       x2="46.594883"
       y1="69.394279"
       x1="15.656256" />
    <clipPath
       id="clipPath3785">
      <rect
         style="fill:#ffffff;fill-opacity:1;fill-rule:nonzero;stroke:none"
         id="rect3787"
         y="6"
         x="6"
         ry="6"
         rx="6"
         height="72"
         width="84" />
    </clipPath>
    <filter
       id="filter3829"
       color-interpolation-filters="sRGB"
       height="1.3598239"
       width="1.2453564"
       y="-0.17991199"
       x="-0.12267826">
      <feGaussianBlur
         stdDeviation="3.5487715"
         id="feGaussianBlur3831" />
    </filter>
    <radialGradient
       gradientTransform="matrix(1.0666667,0,0,0.06666667,-3.2,77.4)"
       gradientUnits="userSpaceOnUse"
       xlink:href="#linearGradient3313"
       id="radialGradient4138"
       fy="84"
       fx="48"
       r="30"
       cy="84"
       cx="48" />
    <filter
       id="filter4180"
       color-interpolation-filters="sRGB"
       height="3.8298349"
       width="1.2288935"
       y="-1.4149175"
       x="-0.11444673">
      <feGaussianBlur
         stdDeviation="3.5372897"
         id="feGaussianBlur4182" />
    </filter>
    <linearGradient
       gradientUnits="userSpaceOnUse"
       xlink:href="#linearGradient3448"
       id="linearGradient4196"
       y2="82.00309"
       x2="43.05357"
       y1="80.14286"
       x1="43.05357" />
    <clipPath
       id="clipPath3532">
      <path
         style="fill:#ffffff;fill-opacity:1;fill-rule:nonzero;stroke:none;display:inline"
         id="path3534"
         d="m 12,-14 c -3.324,0 -6,2.676 -6,6 l 0,58 c 0,3.324 2.676,6 6,6 l 72,0 c 3.324,0 6,-2.676 6,-6 l 0,-58 c 0,-3.324 -2.676,-6 -6,-6 l -72,0 z M 65.28125,-4 74,3.5625 63.0625,12.90625 54.34375,5.4375 65.28125,-4 z m -33.3125,0.375 3.34375,2.8125 -10,8.65625 L 22,4.96875 31.96875,-3.625 z M 38.625,2.0625 41.9375,4.90625 31.96875,13.5 28.65625,10.65625 38.625,2.0625 z m 9.21875,7.3125 c 5.900686,-10e-7 10.6875,4.133876 10.6875,9.21875 -2e-6,5.084874 -4.78613,9.1875 -10.6875,9.1875 -5.901368,-5.9e-4 -10.6875,-4.103216 -10.6875,-9.1875 0,-5.084285 4.786131,-9.21875 10.6875,-9.21875 z m 0,4.0625 c -3.304793,-2e-6 -6,2.30988 -6,5.15625 -6.84e-4,2.848144 2.695206,5.15625 6,5.15625 3.306164,-1e-6 5.96875,-2.308106 5.96875,-5.15625 -2e-6,-2.84637 -2.662587,-5.15625 -5.96875,-5.15625 z m -7.0625,18.40625 14.125,0 0,4.0625 -14.125,0 0,-4.0625 z m 0,8.09375 14.125,0 0,4.0625 -14.125,0 0,-4.0625 z" />
    </clipPath>
    <filter
       id="filter3548"
       color-interpolation-filters="sRGB"
       height="1.2496001"
       width="1.231111"
       y="-0.1248"
       x="-0.11555556">
      <feGaussianBlur
         stdDeviation="2.6"
         id="feGaussianBlur3550" />
    </filter>
    <linearGradient
       gradientTransform="matrix(1.0058652,0,0,0.994169,100,0)"
       gradientUnits="userSpaceOnUse"
       id="ButtonShadow-0"
       y2="7.0165396"
       x2="45.447727"
       y1="92.539597"
       x1="45.447727">
      <stop
         offset="0"
         style="stop-color:#000000;stop-opacity:1"
         id="stop3750-8" />
      <stop
         offset="1"
         style="stop-color:#000000;stop-opacity:0.58823532"
         id="stop3752-5" />
    </linearGradient>
    <linearGradient
       gradientTransform="matrix(1.0238095,0,0,1.0119048,-1.1428571,-98.071429)"
       gradientUnits="userSpaceOnUse"
       xlink:href="#ButtonShadow-0"
       id="linearGradient3780"
       y2="90.238609"
       x2="32.251034"
       y1="6.1317081"
       x1="32.251034" />
    <linearGradient
       gradientTransform="matrix(1.0238095,0,0,1.0119048,-1.1428571,-98.071429)"
       gradientUnits="userSpaceOnUse"
       xlink:href="#ButtonShadow-0"
       id="linearGradient3772"
       y2="90.238609"
       x2="32.251034"
       y1="6.1317081"
       x1="32.251034" />
    <linearGradient
       gradientTransform="matrix(1.0238095,0,0,1.0119048,-1.1428571,-98.071429)"
       gradientUnits="userSpaceOnUse"
       xlink:href="#ButtonShadow-0"
       id="linearGradient3725"
       y2="90.238609"
       x2="32.251034"
       y1="6.1317081"
       x1="32.251034" />
    <linearGradient
       gradientTransform="translate(0,-97)"
       gradientUnits="userSpaceOnUse"
       xlink:href="#ButtonShadow-0"
       id="linearGradient3721"
       y2="90.238609"
       x2="32.251034"
       y1="6.1317081"
       x1="32.251034" />
    <linearGradient
       gradientTransform="matrix(1.0238095,0,0,1.0119048,-1.1428571,-98.071429)"
       gradientUnits="userSpaceOnUse"
       xlink:href="#ButtonShadow-0"
       id="linearGradient2918"
       y2="90.238609"
       x2="32.251034"
       y1="6.1317081"
       x1="32.251034" />
    <linearGradient
       x1="35.103001"
       y1="6.8540001"
       gradientTransform="matrix(0.87940215,0,0,0.83190062,16.933068,8.681426)"
       x2="35.103001"
       gradientUnits="userSpaceOnUse"
       xlink:href="#linearGradient3737"
       y2="34.886002"
       id="o" />
    <linearGradient
       x1="62.339001"
       y1="48"
       x2="62.339001"
       gradientUnits="userSpaceOnUse"
       xlink:href="#linearGradient3737"
       y2="-6.5482001"
       id="n"
       gradientTransform="matrix(0.83190062,0,0,0.83190062,7.677338,0.770218)" />
    <linearGradient
       x1="48.799999"
       y1="16"
       gradientTransform="matrix(-0.55806389,0,0,-0.58926017,83.327048,78.413998)"
       x2="59.751999"
       gradientUnits="userSpaceOnUse"
       y2="56.875"
       id="m">
      <stop
         id="stop21"
         offset="0" />
      <stop
         id="stop23"
         offset="1"
         stop-opacity="0" />
    </linearGradient>
    <radialGradient
       r="23"
       gradientTransform="matrix(1.106511,-6.2338473e-8,7.9572958e-8,1.4124841,-5.504956,-30.466819)"
       cx="48"
       cy="66.449997"
       gradientUnits="userSpaceOnUse"
       id="d">
      <stop
         id="stop26"
         offset="0"
         stop-color="#2782e9" />
      <stop
         id="stop28"
         offset="1"
         stop-color="#193693" />
    </radialGradient>
  </defs>
  <metadata
     id="metadata2413">
    <rdf:RDF>
      <cc:Work
         rdf:about="">
        <dc:format>image/svg+xml</dc:format>
        <dc:type
           rdf:resource="http://purl.org/dc/dcmitype/StillImage" />
        <dc:title></dc:title>
      </cc:Work>
    </rdf:RDF>
  </metadata>
  <g
     style="display:none"
     id="layer2">
    <rect
       style="opacity:0.9;fill:url(#ButtonShadow);fill-opacity:1;fill-rule:nonzero;stroke:none;filter:url(#filter3174)"
       id="rect3745"
       y="7"
       x="5"
       ry="6"
       rx="6"
       height="85"
       width="86" />
  </g>
  <g
     style="display:inline"
     id="layer8">
    <path
       style="opacity:0.07999998;fill:url(#linearGradient2918);fill-opacity:1;fill-rule:nonzero;stroke:none;display:inline"
       id="path3786"
       transform="scale(1,-1)"
       d="m 12,-95.03125 c -5.5110903,0 -10.03125,4.52016 -10.03125,10.03125 l 0,71 c 0,5.5110902 4.5201598,10.03125 10.03125,10.03125 l 72,0 c 5.51109,0 10.03125,-4.5201597 10.03125,-10.03125 l 0,-71 c 0,-5.51109 -4.52016,-10.03125 -10.03125,-10.03125 l -72,0 z" />
    <path
       style="opacity:0.1;fill:url(#linearGradient3780);fill-opacity:1;fill-rule:nonzero;stroke:none;display:inline"
       id="path3778"
       transform="scale(1,-1)"
       d="m 12,-94.03125 c -4.971633,0 -9.03125,4.059617 -9.03125,9.03125 l 0,71 c 0,4.9716329 4.0596171,9.03125 9.03125,9.03125 l 72,0 c 4.971633,0 9.03125,-4.059617 9.03125,-9.03125 l 0,-71 c 0,-4.971633 -4.059617,-9.03125 -9.03125,-9.03125 l -72,0 z" />
    <path
       style="opacity:0.2;fill:url(#linearGradient3772);fill-opacity:1;fill-rule:nonzero;stroke:none;display:inline"
       id="path3770"
       transform="scale(1,-1)"
       d="m 12,-93 c -4.4091333,0 -8,3.590867 -8,8 l 0,71 c 0,4.4091333 3.5908667,8 8,8 l 72,0 c 4.409133,0 8,-3.5908667 8,-8 l 0,-71 c 0,-4.409133 -3.590867,-8 -8,-8 l -72,0 z" />
    <rect
       style="opacity:0.3;fill:url(#linearGradient3725);fill-opacity:1;fill-rule:nonzero;stroke:none;display:inline"
       id="rect3723"
       transform="scale(1,-1)"
       y="-92"
       x="5"
       ry="7"
       rx="7"
       height="85"
       width="86" />
    <rect
       style="opacity:0.45;fill:url(#linearGradient3721);fill-opacity:1;fill-rule:nonzero;stroke:none;display:inline"
       id="rect3716"
       transform="scale(1,-1)"
       y="-91"
       x="6"
       ry="6"
       rx="6"
       height="84"
       width="84" />
  </g>
  <g
     id="layer1">
    <path
       style="opacity:0.5;fill:url(#linearGradient3188);fill-opacity:1;fill-rule:nonzero;stroke:none"
       id="rect3728"
       d="M 12,6 C 8.676,6 6,8.676 6,12 l 0,2 0,68 0,2 c 0,0.334721 0.04135,0.6507 0.09375,0.96875 0.0487,0.295596 0.09704,0.596915 0.1875,0.875 0.00988,0.03038 0.020892,0.0636 0.03125,0.09375 0.098865,0.287771 0.2348802,0.547452 0.375,0.8125 0.1445918,0.273507 0.3156161,0.535615 0.5,0.78125 0.1843839,0.245635 0.3737765,0.473472 0.59375,0.6875 0.439947,0.428056 0.94291,0.814526 1.5,1.09375 0.278545,0.139612 0.5734731,0.246947 0.875,0.34375 -0.2562018,-0.100222 -0.4867109,-0.236272 -0.71875,-0.375 -0.00741,-0.0044 -0.023866,0.0045 -0.03125,0 -0.031933,-0.0193 -0.062293,-0.04251 -0.09375,-0.0625 -0.120395,-0.0767 -0.2310226,-0.163513 -0.34375,-0.25 -0.1061728,-0.0808 -0.2132809,-0.161112 -0.3125,-0.25 -0.1779299,-0.161433 -0.3474596,-0.345388 -0.5,-0.53125 -0.1075789,-0.130255 -0.2183939,-0.265285 -0.3125,-0.40625 -0.025089,-0.03838 -0.038446,-0.08587 -0.0625,-0.125 -0.064763,-0.103032 -0.1302275,-0.204517 -0.1875,-0.3125 -0.1010083,-0.194706 -0.2056748,-0.415701 -0.28125,-0.625 -0.00796,-0.02181 -0.023589,-0.04055 -0.03125,-0.0625 C 7.2494249,86.5643 7.2454455,86.469419 7.21875,86.375 7.1884177,86.268382 7.1483606,86.171969 7.125,86.0625 7.0521214,85.720988 7,85.364295 7,85 L 7,83 7,15 7,13 C 7,10.218152 9.2181517,8 12,8 l 2,0 68,0 2,0 c 2.781848,0 5,2.218152 5,5 l 0,2 0,68 0,2 c 0,0.364295 -0.05212,0.720988 -0.125,1.0625 -0.04415,0.206893 -0.08838,0.397658 -0.15625,0.59375 -0.0077,0.02195 -0.0233,0.04069 -0.03125,0.0625 -0.06274,0.173739 -0.138383,0.367449 -0.21875,0.53125 -0.04158,0.0828 -0.07904,0.169954 -0.125,0.25 -0.0546,0.09721 -0.126774,0.18835 -0.1875,0.28125 -0.09411,0.140965 -0.204921,0.275995 -0.3125,0.40625 -0.143174,0.17445 -0.303141,0.346998 -0.46875,0.5 -0.01117,0.0102 -0.01998,0.02115 -0.03125,0.03125 -0.138386,0.125556 -0.285091,0.234436 -0.4375,0.34375 -0.102571,0.07315 -0.204318,0.153364 -0.3125,0.21875 -0.0074,0.0045 -0.02384,-0.0044 -0.03125,0 -0.232039,0.138728 -0.462548,0.274778 -0.71875,0.375 0.301527,-0.0968 0.596455,-0.204138 0.875,-0.34375 0.55709,-0.279224 1.060053,-0.665694 1.5,-1.09375 0.219973,-0.214028 0.409366,-0.441865 0.59375,-0.6875 0.184384,-0.245635 0.355408,-0.507743 0.5,-0.78125 0.14012,-0.265048 0.276135,-0.524729 0.375,-0.8125 0.01041,-0.03078 0.02133,-0.06274 0.03125,-0.09375 0.09046,-0.278085 0.1388,-0.579404 0.1875,-0.875 C 89.95865,84.6507 90,84.334721 90,84 l 0,-2 0,-68 0,-2 C 90,8.676 87.324,6 84,6 L 12,6 z" />
    <path
       style="fill:#cacaca;fill-opacity:1;fill-rule:nonzero;stroke:none"
       id="rect3243"
       d="M 90,64.1875 90,84 c 0,3.324 -2.676,6 -6,6 L 12,90 C 8.676,90 6,87.324 6,84 l 0,-19.8125 84,0 z" />
    <path
       style="fill:#999999;fill-opacity:1;fill-rule:nonzero;stroke:none"
       id="path3309"
       d="m 6,73 0,1 c 0,3.324 2.676,6 6,6 l 72,0 c 3.324,0 6,-2.676 6,-6 l 0,-1 c 0,3.324 -2.676,6 -6,6 L 12,79 C 8.676,79 6,76.324 6,73 z" />
    <path
       style="opacity:0.8;fill:url(#linearGradient3287);fill-opacity:1;fill-rule:nonzero;stroke:none"
       id="path3285"
       d="m 90.030615,64.1875 0,19.8125 c 0,3.324 -2.676,6 -6,6 L 64,90 l 0,-25.8125 26.030615,0 z" />
    <path
       style="opacity:0.8;fill:url(#linearGradient3279);fill-opacity:1;fill-rule:nonzero;stroke:none"
       id="path3263"
       d="M 6,64.1875 6,84 c 0,3.324 2.676,6 6,6 l 20,0 0,-25.8125 -26,0 z" />
    <path
       style="opacity:0.2;fill:url(#linearGradient3460);fill-opacity:1;fill-rule:nonzero;stroke:none"
       id="path3299"
       d="M 90,64.1875 90,84 c 0,3.324 -2.676,6 -6,6 L 12,90 C 8.676,90 6,87.324 6,84 l 0,-19.8125 84,0 z" />
    <path
       style="fill:#252525;fill-opacity:1;fill-rule:nonzero;stroke:none"
       id="path3298"
       d="m 6,74 0,6 c 0,3.324 2.676,6 6,6 l 72,0 c 3.324,0 6,-2.676 6,-6 l 0,-6 c 0,3.324 -2.676,6 -6,6 L 12,80 C 8.676,80 6,77.324 6,74 z" />
    <path
       style="fill:#ececec;fill-opacity:1;fill-rule:nonzero;stroke:none"
       id="path3304"
       d="m 6,80 0,1 c 0,3.324 2.676,6 6,6 l 72,0 c 3.324,0 6,-2.676 6,-6 l 0,-1 c 0,3.324 -2.676,6 -6,6 L 12,86 C 8.676,86 6,83.324 6,80 z" />
    <path
       style="fill:url(#linearGradient4196);fill-opacity:1;fill-rule:nonzero;stroke:none"
       id="path4132"
       d="m 6,74 0,2 c 0,3.324 2.676,6 6,6 l 72,0 c 3.324,0 6,-2.676 6,-6 l 0,-2 c 0,3.324 -2.676,6 -6,6 L 12,80 C 8.676,80 6,77.324 6,74 z" />
  </g>
  <g
     style="display:inline"
     id="layer3">
    <rect
       style="fill:url(#linearGradient3179);fill-opacity:1;fill-rule:nonzero;stroke:none"
       id="rect3171"
       y="6"
       x="6"
       ry="6"
       rx="6"
       height="70"
       width="84" />
    <path
       style="opacity:0.7;fill:url(#linearGradient3551);fill-opacity:1;fill-rule:nonzero;stroke:none"
       id="rect3213"
       d="M 12,76 C 8.676,76 6,73.324 6,70 L 6,12 C 6,8.676 8.676,6 12,6 l 72,0 c 3.324,0 6,2.676 6,6 l 0,58 c 0,3.324 -2.676,6 -6,6 l -72,0 z m 0,-2 72,0 c 2.781848,0 5,-2.195392 5,-4.9375 l 0,-57.125 C 89,9.195393 86.781848,6.999999 84,7 L 12,7 C 9.2181517,7 7,9.195389 7,11.9375 l 0,57.125 C 7,71.804608 9.2181517,74 12,74 z" />
    <path
       style="opacity:0.1;fill:url(#linearGradient3454);fill-opacity:1;fill-rule:nonzero;stroke:none"
       id="path3443"
       d="m 90,70 0,1 c 0,3.324 -2.676,6 -6,6 L 12,77 C 8.676,77 6,74.324 6,71 l 0,-1 c 0,2.984862 2.152831,5.43487 5,5.90625 C 11.326884,75.971636 11.652269,76 12,76 l 72,0 c 0.166304,0 0.337194,-0.01811 0.5,-0.03125 0.04161,-0.0041 0.08371,0.0051 0.125,0 0.127873,-0.01291 0.249673,-0.04175 0.375,-0.0625 C 87.847169,75.43487 90,72.984862 90,70 z" />
    <path
       style="opacity:0.3;fill:url(#linearGradient3781);fill-opacity:1;fill-rule:evenodd;stroke:none;filter:url(#filter3829)"
       id="path3295"
       clip-path="url(#clipPath3785)"
       transform="translate(0,-2)"
       d="M 72.785673,73.316552 C 37.497632,71.660468 32.655921,60.569503 56.214438,35.565764 29.558784,43.997531 16.947902,55.85465 7.5798689,63.939487 -2.370079,72.601777 6.9889853,83.779979 17.934257,82.851623 c 11.343001,-0.0075 45.801874,-2.097861 54.851416,-9.535071 z" />
  </g>
  <g
     style="display:inline"
     id="layer5">
    <rect
       style="opacity:0.6;fill:#0066ff;fill-opacity:1;fill-rule:nonzero;stroke:none;display:inline;filter:url(#filter4180)"
       id="rect3323"
       y="80.000008"
       x="10.910714"
       ry="5.9999933"
       rx="6.7435069"
       height="5.9999933"
       width="74.178574" />
    <rect
       style="fill:url(#radialGradient4138);fill-opacity:1;fill-rule:nonzero;stroke:none;display:inline"
       id="rect3311"
       y="81"
       x="16"
       ry="4"
       rx="5.818182"
       height="4"
       width="64" />
  </g>
  <path
     id="path63"
     d="m 47.608568,11.533348 c -5.50361,0 -10.98109,1.077727 -14.87022,5.615329 -3.88415,4.531779 -5.97929,12.060895 -5.97929,24.38467 0,12.324609 2.09514,19.853309 5.97929,24.384672 3.88913,4.537602 9.36636,5.615329 14.87022,5.615329 5.5036,0 10.98109,-1.077727 14.87022,-5.615329 3.88331,-4.531363 5.97804,-12.060063 5.97804,-24.384672 0,-12.324607 -2.09473,-19.853307 -5.97887,-24.38467 -3.88913,-4.538018 -9.36637,-5.615329 -14.87022,-5.615329 z"
     style="opacity:0.1;stroke-width:0.8319006" />
  <path
     id="path65"
     d="m 47.608568,12.468404 c -5.38198,0 -10.48694,1.038379 -14.14231,5.303367 -3.65546,4.264988 -5.77131,11.545948 -5.77131,23.760744 0,12.21563 2.11585,19.496424 5.77131,23.760746 3.65545,4.264989 8.75991,5.303367 14.14231,5.303367 5.38198,0 10.48694,-1.038378 14.14231,-5.303367 3.65537,-4.26349 5.77173,-11.544284 5.77173,-23.759914 0,-12.215628 -2.11636,-19.496422 -5.77173,-23.760745 -3.65537,-4.265154 -8.75991,-5.304198 -14.14231,-5.304198 z"
     style="opacity:0.2;stroke-width:0.8319006" />
  <path
     id="path67"
     d="m 66.742278,41.533347 c 0,24.244081 -8.5719,28.284622 -19.13371,28.284622 -10.56181,0 -19.13371,-4.040541 -19.13371,-28.284622 0,-24.244079 8.5719,-28.28462 19.13371,-28.28462 10.56181,0 19.13371,4.040624 19.13371,28.28462 z"
     style="opacity:0.4;stroke-width:0.8319006" />
  <path
     id="path69"
     d="m 66.742278,40.701447 c 0,24.24408 -8.5719,28.284621 -19.13371,28.284621 -10.56181,0 -19.13371,-4.040541 -19.13371,-28.284621 0,-24.24408 8.5719,-28.284621 19.13371,-28.284621 10.56181,0 19.13371,4.040625 19.13371,28.284621 z"
     style="fill:url(#d);stroke-width:0.8319006" />
  <path
     id="path71"
     d="m 47.608568,12.416826 c -10.56181,0 -19.13371,4.040542 -19.13371,28.284621 0,24.24408 8.5719,28.284621 19.13371,28.284621 10.56181,0 19.13371,-4.040541 19.13371,-28.284621 0,-24.24408 -8.5719,-28.284621 -19.13371,-28.284621 z m 0,1.221896 c 5.12368,0 9.41795,0.935555 12.5825,4.627447 3.1643,3.691892 5.32932,10.458655 5.32932,22.435527 0,11.976874 -2.16511,18.743554 -5.32932,22.435529 -3.1643,3.691891 -7.45882,4.627447 -12.5825,4.627447 -5.12368,0 -9.41795,-0.935556 -12.5825,-4.627447 -3.16455,-3.693639 -5.32915,-10.460319 -5.32915,-22.437193 0,-11.976872 2.1651,-18.743552 5.32932,-22.435527 3.1643,-3.691892 7.45882,-4.627447 12.5825,-4.627447 z"
     style="opacity:0.87000002;fill:#103876;stroke-width:0.8319006" />
  <path
     id="path73"
     d="m 47.611058,68.986068 c 10.56182,0 19.13122,-4.040541 19.13122,-28.284621 0,-9.848872 -1.41423,-16.360157 -3.80178,-20.62448 1.70315,4.202096 2.68571,10.075148 2.68571,18.266873 0,24.244081 -8.56941,28.284622 -19.13122,28.284622 -6.27112,0 -11.83961,-1.42829 -15.32944,-7.66039 3.33759,8.234152 9.45289,10.017747 16.44585,10.017747 z"
     style="opacity:0.2;fill:url(#m);stroke-width:0.8319006" />
  <path
     id="path75"
     d="m 46.060398,18.240131 v 17.969052 l -7.58776,-7.587765 -2.71799,2.755754 9.28651,9.286506 -9.36221,9.362211 2.75575,2.717985 7.62554,-7.625534 v 18.044757 l 13.47679,-13.477622 -9.1351,-9.135933 9.09766,-9.059398 z m 3.51079,8.606843 4.64325,4.71879 -4.64325,4.643253 z m 0,17.931617 4.64325,4.756476 -4.64325,4.643254 z"
     style="fill:url(#n);fill-rule:evenodd;stroke-width:0.8319006" />
  <path
     style="opacity:0.5;fill:url(#o);stroke-width:0.8319006"
     id="path77"
     d="m 63.348128,29.089778 a 15.545727,14.706339 0 1 1 -31.09145,0 15.545727,14.706339 0 1 1 31.09145,0 z" />
  <path
     id="path79"
     d="m 30.554608,39.869546 c -0.002,0.280001 0,0.545768 0,0.831901 0,11.876214 2.1636,18.438246 5.12134,21.888969 2.95824,3.451556 6.91726,4.315901 11.93279,4.315901 5.01469,0 8.97454,-0.864345 11.93278,-4.315901 2.9574,-3.450723 5.12118,-10.012755 5.12118,-21.888969 0,-0.286133 0.002,-0.5519 0,-0.831901 -0.10066,11.341302 -2.23449,17.689535 -5.12118,21.057069 -2.95824,3.451556 -6.91809,4.315901 -11.93278,4.315901 -5.01553,0 -8.97455,-0.864345 -11.93279,-4.315901 -2.88669,-3.367534 -5.02052,-9.715767 -5.12118,-21.057069 z"
     style="opacity:0.25;fill:#ffffff;stroke-width:0.8319006" />
  <path
     id="path81"
     d="m 47.608568,12.416826 c -10.56181,0 -19.13122,4.040625 -19.13122,28.284621 0,9.848872 1.41423,16.360158 3.80187,20.62448 -1.70315,-4.202096 -2.68571,-10.075148 -2.68571,-18.266874 0,-24.244079 8.56941,-28.28462 19.13122,-28.28462 6.27103,0 11.83961,1.42829 15.32943,7.66039 -3.33758,-8.234152 -9.45288,-10.017747 -16.44584,-10.017747 z"
     style="opacity:0;stroke-width:0.8319006" />
</svg>
