<?xml version="1.0" encoding="UTF-8" standalone="no"?>
<svg
   xmlns:dc="http://purl.org/dc/elements/1.1/"
   xmlns:cc="http://creativecommons.org/ns#"
   xmlns:rdf="http://www.w3.org/1999/02/22-rdf-syntax-ns#"
   xmlns:svg="http://www.w3.org/2000/svg"
   xmlns="http://www.w3.org/2000/svg"
   xmlns:xlink="http://www.w3.org/1999/xlink"
   xmlns:sodipodi="http://sodipodi.sourceforge.net/DTD/sodipodi-0.dtd"
   xmlns:inkscape="http://www.inkscape.org/namespaces/inkscape"
   id="svg2408"
   height="96"
   width="96"
   version="1.0"
   sodipodi:docname="folder-system.svg"
   inkscape:version="0.92.1 r">
  <sodipodi:namedview
     pagecolor="#ffffff"
     bordercolor="#666666"
     borderopacity="1"
     objecttolerance="10"
     gridtolerance="10"
     guidetolerance="10"
     inkscape:pageopacity="0"
     inkscape:pageshadow="2"
     inkscape:window-width="1680"
     inkscape:window-height="981"
     id="namedview160"
     showgrid="false"
     inkscape:zoom="9.8333334"
     inkscape:cx="39.261457"
     inkscape:cy="38.592336"
     inkscape:window-x="0"
     inkscape:window-y="32"
     inkscape:window-maximized="1"
     inkscape:current-layer="layer6" />
  <defs
     id="defs2410">
    <linearGradient
       id="linearGradient3638">
      <stop
         offset="0"
         style="stop-color:#000000;stop-opacity:1"
         id="stop3640" />
      <stop
         offset="0.25925925"
         style="stop-color:#000000;stop-opacity:0.49803922"
         id="stop3646" />
      <stop
         offset="1"
         style="stop-color:#000000;stop-opacity:0"
         id="stop3642" />
    </linearGradient>
    <linearGradient
       id="linearGradient3619">
      <stop
         offset="0"
         style="stop-color:#ffffff;stop-opacity:1"
         id="stop3621" />
      <stop
         offset="0.29591838"
         style="stop-color:#ffffff;stop-opacity:0.49803922"
         id="stop3627" />
      <stop
         offset="1"
         style="stop-color:#ffffff;stop-opacity:0"
         id="stop3623" />
    </linearGradient>
    <linearGradient
       gradientTransform="scale(1.0058652,0.994169)"
       gradientUnits="userSpaceOnUse"
       id="ButtonShadow"
       y2="7.0165396"
       x2="45.447727"
       y1="92.539597"
       x1="45.447727">
      <stop
         offset="0"
         style="stop-color:#000000;stop-opacity:1"
         id="stop3750" />
      <stop
         offset="1"
         style="stop-color:#000000;stop-opacity:0.58823532"
         id="stop3752" />
    </linearGradient>
    <linearGradient
       id="linearGradient3737">
      <stop
         offset="0"
         style="stop-color:#ffffff;stop-opacity:1"
         id="stop3739" />
      <stop
         offset="1"
         style="stop-color:#ffffff;stop-opacity:0"
         id="stop3741" />
    </linearGradient>
    <filter
       id="filter3174"
       color-interpolation-filters="sRGB">
      <feGaussianBlur
         stdDeviation="1.71"
         id="feGaussianBlur3176" />
    </filter>
    <linearGradient
       gradientUnits="userSpaceOnUse"
       xlink:href="#linearGradient3737"
       id="linearGradient3188"
       y2="63.893143"
       x2="36.357143"
       y1="6"
       x1="36.357143" />
    <filter
       id="filter3794"
       color-interpolation-filters="sRGB"
       height="1.3839999"
       width="1.3839999"
       y="-0.192"
       x="-0.192">
      <feGaussianBlur
         stdDeviation="5.28"
         id="feGaussianBlur3796" />
    </filter>
    <linearGradient
       gradientUnits="userSpaceOnUse"
       xlink:href="#linearGradient3737"
       id="linearGradient3613"
       y2="138.66119"
       x2="48"
       y1="20.220806"
       x1="48" />
    <radialGradient
       gradientTransform="matrix(1.1573129,0,0,0.99590774,-7.5510206,0.19713193)"
       gradientUnits="userSpaceOnUse"
       xlink:href="#linearGradient3737"
       id="radialGradient3619"
       fy="90.171875"
       fx="48"
       r="42"
       cy="90.171875"
       cx="48" />
    <clipPath
       id="clipPath3613">
      <rect
         style="fill:#ffffff;fill-opacity:1;fill-rule:nonzero;stroke:none"
         id="rect3615"
         y="6"
         x="6"
         ry="6"
         rx="6"
         height="84"
         width="84" />
    </clipPath>
    <linearGradient
       gradientUnits="userSpaceOnUse"
       xlink:href="#linearGradient3619"
       id="linearGradient3625"
       y2="104"
       x2="40"
       y1="56.208946"
       x1="40" />
    <linearGradient
       gradientTransform="translate(0,8)"
       gradientUnits="userSpaceOnUse"
       xlink:href="#linearGradient3638"
       id="linearGradient3644"
       y2="44.090794"
       x2="16"
       y1="48"
       x1="16" />
    <linearGradient
       id="linearGradient1428">
      <stop
         offset="0"
         style="stop-color:#3465a4;stop-opacity:1"
         id="stop1430" />
      <stop
         offset="1"
         style="stop-color:#729fcf;stop-opacity:1"
         id="stop1432" />
    </linearGradient>
    <linearGradient
       gradientUnits="userSpaceOnUse"
       xlink:href="#linearGradient1428"
       id="linearGradient3733"
       y2="5.9877172"
       x2="48"
       y1="56.251743"
       x1="48" />
    <filter
       id="filter3743"
       color-interpolation-filters="sRGB">
      <feGaussianBlur
         id="feGaussianBlur3745"
         stdDeviation="0.8" />
    </filter>
    <clipPath
       id="clipPath3739">
      <path
         style="fill:#ffffff;fill-opacity:1;fill-rule:evenodd;stroke:none;display:inline"
         id="path3741"
         d="m 33,1 c -0.277,0 -0.541812,0.055313 -0.78125,0.15625 -0.37163,0.2634649 -0.714453,0.582314 -1,0.9375 C 31.081214,2.3653804 31,2.6735987 31,3 l 0,4.96875 c 0.890327,1.293115 2.373856,2.156251 4.0625,2.15625 C 37.789358,10.125 40,7.9143583 40,5.1875 40,3.4170094 39.056314,1.8714716 37.65625,1 L 33,1 z m 7.53125,0 0.5625,0.84375 0.46875,-0.25 L 42,1.5 l 1.125,0 0.25,0.59375 -0.75,0.8125 -0.40625,0.25 -0.53125,0.15625 0.25,1.09375 0.5,-0.0625 0.46875,0.0625 1.03125,0.4375 0,0.65625 L 42.90625,5.96875 42.4375,6 l -0.5,-0.03125 -0.25,1.125 L 42.21875,7.25 42.625,7.46875 43.375,8.28125 43.125,8.875 42,8.90625 41.5625,8.78125 41.09375,8.5 l -0.625,0.96875 0.375,0.3125 0.3125,0.40625 0.4375,1.03125 L 41.125,11.6875 40.09375,11.25 39.6875,11 39.375,10.5625 l -0.96875,0.65625 0.25,0.4375 0.15625,0.5 -0.03125,1.0625 L 38.15625,13.5 37.375,12.71875 37.09375,12.3125 37,11.78125 l -1.125,0.25 0.03125,0.5 -0.0625,0.5 -0.4375,1 -0.65625,0 -0.46875,-1 -0.03125,-0.5 0.03125,-0.5 -1.125,-0.25 L 33.0625,12.3125 32.78125,12.71875 32,13.5 l -0.59375,-0.28125 -0.0625,-1.0625 0.15625,-0.5 0.25,-0.4375 -0.75,-0.5 L 31,19 c 0,1.108 0.892,2 2,2 l 6.84375,0 0.28125,-0.25 0.46875,-0.25 -0.46875,-1.15625 -0.53125,0.1875 -0.5,0.03125 -1.15625,-0.25 -0.15625,-0.6875 0.96875,-0.6875 0.5,-0.15625 0.53125,-0.0625 0,-1.21875 -0.53125,-0.03125 -0.5,-0.1875 -1,-0.65625 0.15625,-0.6875 1.15625,-0.25 0.5,0 0.53125,0.1875 0.46875,-1.15625 -0.5,-0.25 -0.40625,-0.3125 -0.625,-1 0.375,-0.59375 1.15625,0.1875 0.5,0.25 0.40625,0.34375 0.84375,-0.875 -0.34375,-0.40625 -0.21875,-0.46875 -0.21875,-1.1875 0.5625,-0.375 1,0.625 0.34375,0.375 0.28125,0.5 1.125,-0.46875 L 44.65625,9.53125 44.625,9 l 0.25,-1.15625 0.6875,-0.125 0.6875,0.96875 0.15625,0.46875 0.0625,0.5625 1.21875,-0.03125 0.03125,-0.53125 0.1875,-0.5 L 48.5625,7.6875 49.25,7.8125 49.53125,8.96875 49.5,9.5 49.3125,10 50.46875,10.46875 50.71875,10 51,9.65625 51,3 C 51,1.892 50.108,1 49,1 l -8.46875,0 z m -5.5,0.3125 c 2.121665,0 3.84375,1.7220854 3.84375,3.84375 C 38.875,7.2779146 37.152915,9 35.03125,9 32.909585,9 31.1875,7.2779146 31.1875,5.15625 c 0,-2.1216646 1.722085,-3.84375 3.84375,-3.84375 z m 0,1.71875 c -1.24195,0 -2.25,0.9520473 -2.25,2.125 0,1.1729527 1.00805,2.125 2.25,2.125 1.24195,0 2.25,-0.9520473 2.25,-2.125 0,-1.1729527 -1.00805,-2.125 -2.25,-2.125 z m 12.09375,8.375 c -1.276229,0 -2.459907,0.441669 -3.40625,1.15625 l 1.8125,1.9375 c 0.461136,-0.287236 1.010845,-0.4375 1.59375,-0.4375 0.293976,0 0.575112,0.04631 0.84375,0.125 l 1.21875,-2.375 C 48.547284,11.560333 47.854584,11.40625 47.125,11.40625 z m 3.09375,0.9375 L 49,14.71875 c 0.685742,0.544483 1.11379,1.372153 1.125,2.3125 L 51,17.1875 51,12.96875 c -0.242222,-0.227764 -0.502051,-0.44206 -0.78125,-0.625 z m -7.34375,1 c -0.873486,0.993935 -1.40625,2.292591 -1.40625,3.71875 0,0.637183 0.117557,1.240877 0.3125,1.8125 L 44.1875,17.78125 C 44.1323,17.553494 44.125,17.307133 44.125,17.0625 c 0,-0.662658 0.199196,-1.28387 0.5625,-1.78125 l -1.8125,-1.9375 z m 4.25,2.75 c -0.535035,0 -0.96875,0.433715 -0.96875,0.96875 0,0.535035 0.433715,0.96875 0.96875,0.96875 0.535035,0 0.96875,-0.433715 0.96875,-0.96875 0,-0.535035 -0.433715,-0.96875 -0.96875,-0.96875 z m 2.8125,2.0625 c -0.322038,0.823782 -1.002368,1.464646 -1.84375,1.75 L 48.25,21 49,21 c 1.108,0 2,-0.892 2,-2 l 0,-0.65625 -1.0625,-0.1875 z m -5.25,0.65625 -2.4375,1.125 c 0.230479,0.390313 0.497541,0.7398 0.8125,1.0625 l 4,0 -0.125,-0.9375 c -0.933758,-0.05393 -1.735493,-0.535346 -2.25,-1.25 z" />
    </clipPath>
    <filter
       id="filter3194-1"
       color-interpolation-filters="sRGB"
       height="1.36"
       width="1.36"
       y="-0.18000001"
       x="-0.18000001">
      <feGaussianBlur
         id="feGaussianBlur3196-4"
         stdDeviation="1.2" />
    </filter>
    <clipPath
       id="clipPath2849-2">
      <rect
         style="fill:#ffffff;fill-opacity:1;fill-rule:evenodd;stroke:none;display:inline"
         id="rect2851-4"
         y="1"
         x="1"
         ry="2"
         rx="2"
         height="20"
         width="20" />
    </clipPath>
    <clipPath
       id="clipPath6183">
      <rect
         style="fill:#ffffff;fill-opacity:1;fill-rule:evenodd;stroke:none;display:inline"
         id="rect6185"
         y="0.99999988"
         x="1"
         ry="2"
         rx="2"
         height="20"
         width="20" />
    </clipPath>
    <linearGradient
       gradientUnits="userSpaceOnUse"
       id="ButtonColor-6"
       y2="0.99929649"
       x2="10.31979"
       y1="21"
       x1="10.31979">
      <stop
         offset="0"
         style="stop-color:#afafaf;stop-opacity:1"
         id="stop3189-2" />
      <stop
         offset="1"
         style="stop-color:#d8d8d8;stop-opacity:1"
         id="stop3191-6" />
    </linearGradient>
    <linearGradient
       id="linearGradient3327-8">
      <stop
         offset="0"
         style="stop-color:#000000;stop-opacity:1"
         id="stop3330-7" />
      <stop
         offset="1"
         style="stop-color:#000000;stop-opacity:0"
         id="stop3333-0" />
    </linearGradient>
    <linearGradient
       gradientTransform="matrix(1.0172414,0,0,1.0172414,-1.1034483,-1.1034483)"
       gradientUnits="userSpaceOnUse"
       id="linearGradient3764"
       y2="5.4252338"
       x2="58.650177"
       y1="122"
       x1="58.650177">
      <stop
         offset="0"
         style="stop-color:#969696;stop-opacity:1"
         id="stop3766" />
      <stop
         offset="1"
         style="stop-color:#cacaca;stop-opacity:1"
         id="stop3768" />
    </linearGradient>
    <linearGradient
       gradientUnits="userSpaceOnUse"
       xlink:href="#linearGradient3327-8"
       id="linearGradient4286"
       y2="-9.817296"
       x2="11.375"
       y1="22"
       x1="11.375" />
    <linearGradient
       gradientTransform="translate(11.119372,-6.2581977)"
       gradientUnits="userSpaceOnUse"
       xlink:href="#ButtonColor-6"
       id="linearGradient4288"
       y2="7.2536583"
       x2="-3.0607977"
       y1="27.258198"
       x1="-3.0607977" />
    <linearGradient
       gradientUnits="userSpaceOnUse"
       xlink:href="#linearGradient3764"
       id="linearGradient4290"
       y2="0.90024877"
       x2="5"
       y1="21"
       x1="5" />
    <linearGradient
       gradientUnits="userSpaceOnUse"
       xlink:href="#linearGradient3327-8"
       id="linearGradient4320"
       y2="-9.817296"
       x2="11.375"
       y1="22"
       x1="11.375" />
    <linearGradient
       gradientTransform="translate(11.119372,-6.2581977)"
       gradientUnits="userSpaceOnUse"
       xlink:href="#ButtonColor-6"
       id="linearGradient4322"
       y2="7.2536583"
       x2="-3.0607977"
       y1="27.258198"
       x1="-3.0607977" />
    <linearGradient
       gradientUnits="userSpaceOnUse"
       xlink:href="#linearGradient3764"
       id="linearGradient4324"
       y2="0.90024877"
       x2="5"
       y1="21"
       x1="5" />
    <linearGradient
       gradientUnits="userSpaceOnUse"
       xlink:href="#linearGradient3327-8"
       id="linearGradient4354"
       y2="-9.817296"
       x2="11.375"
       y1="22"
       x1="11.375" />
    <linearGradient
       gradientTransform="translate(11.119372,-6.2581977)"
       gradientUnits="userSpaceOnUse"
       xlink:href="#ButtonColor-6"
       id="linearGradient4356"
       y2="7.2536583"
       x2="-3.0607977"
       y1="27.258198"
       x1="-3.0607977" />
    <linearGradient
       gradientUnits="userSpaceOnUse"
       xlink:href="#linearGradient3764"
       id="linearGradient4358"
       y2="0.90024877"
       x2="5"
       y1="21"
       x1="5" />
    <linearGradient
       gradientTransform="matrix(1.0058652,0,0,0.994169,100,0)"
       gradientUnits="userSpaceOnUse"
       id="ButtonShadow-0"
       y2="7.0165396"
       x2="45.447727"
       y1="92.539597"
       x1="45.447727">
      <stop
         offset="0"
         style="stop-color:#000000;stop-opacity:1"
         id="stop3750-8" />
      <stop
         offset="1"
         style="stop-color:#000000;stop-opacity:0.58823532"
         id="stop3752-5-4" />
    </linearGradient>
    <linearGradient
       gradientTransform="matrix(1.0238095,0,0,1.0119048,-1.1428571,-98.071429)"
       gradientUnits="userSpaceOnUse"
       xlink:href="#ButtonShadow-0"
       id="linearGradient3780"
       y2="90.238609"
       x2="32.251034"
       y1="6.1317081"
       x1="32.251034" />
    <linearGradient
       gradientTransform="matrix(1.0238095,0,0,1.0119048,-1.1428571,-98.071429)"
       gradientUnits="userSpaceOnUse"
       xlink:href="#ButtonShadow-0"
       id="linearGradient3772"
       y2="90.238609"
       x2="32.251034"
       y1="6.1317081"
       x1="32.251034" />
    <linearGradient
       gradientTransform="matrix(1.0238095,0,0,1.0119048,-1.1428571,-98.071429)"
       gradientUnits="userSpaceOnUse"
       xlink:href="#ButtonShadow-0"
       id="linearGradient3725"
       y2="90.238609"
       x2="32.251034"
       y1="6.1317081"
       x1="32.251034" />
    <linearGradient
       gradientTransform="translate(0,-97)"
       gradientUnits="userSpaceOnUse"
       xlink:href="#ButtonShadow-0"
       id="linearGradient3721-0"
       y2="90.238609"
       x2="32.251034"
       y1="6.1317081"
       x1="32.251034" />
    <linearGradient
       gradientTransform="matrix(1.0238095,0,0,1.0119048,-1.1428571,-98.071429)"
       gradientUnits="userSpaceOnUse"
       xlink:href="#ButtonShadow-0"
       id="linearGradient3059"
       y2="90.238609"
       x2="32.251034"
       y1="6.1317081"
       x1="32.251034" />
    <linearGradient
       xlink:href="#linearGradient3327-8"
       id="linearGradient5869"
       gradientUnits="userSpaceOnUse"
       gradientTransform="matrix(2.1683519,0,0,2.2464645,141.9485,-68.590473)"
       x1="-51.786404"
       y1="53.514328"
       x2="-51.786404"
       y2="3.6336823" />
    <linearGradient
       xlink:href="#linearGradient9235"
       id="linearGradient5873"
       gradientUnits="userSpaceOnUse"
       gradientTransform="matrix(2.6658408,0,0,2.6469079,-143.33283,-66.049513)"
       x1="97.538795"
       y1="8.8103228"
       x2="97.538795"
       y2="44.260689" />
    <linearGradient
       id="linearGradient9235">
      <stop
         id="stop9237"
         style="stop-color:#ffffff;stop-opacity:1"
         offset="0" />
      <stop
         id="stop9239"
         style="stop-color:#ffffff;stop-opacity:0.23529412"
         offset="0.1088333" />
      <stop
         id="stop9241"
         style="stop-color:#ffffff;stop-opacity:0.15686275"
         offset="0.97909725" />
      <stop
         id="stop9243"
         style="stop-color:#ffffff;stop-opacity:0.39215687"
         offset="1" />
    </linearGradient>
    <linearGradient
       xlink:href="#linearGradient5048-585"
       id="linearGradient5875"
       gradientUnits="userSpaceOnUse"
       gradientTransform="matrix(0.2134205,0,0,0.06641689,-13.147881,75.518568)"
       x1="302.85715"
       y1="366.64789"
       x2="302.85715"
       y2="609.50507" />
    <linearGradient
       id="linearGradient5048-585">
      <stop
         id="stop2667"
         style="stop-color:#000000;stop-opacity:0"
         offset="0" />
      <stop
         id="stop2669"
         style="stop-color:#000000;stop-opacity:1"
         offset="0.5" />
      <stop
         id="stop2671"
         style="stop-color:#000000;stop-opacity:0"
         offset="1" />
    </linearGradient>
    <radialGradient
       xlink:href="#linearGradient3327-8"
       id="radialGradient5877"
       gradientUnits="userSpaceOnUse"
       gradientTransform="matrix(0.08277507,0,0,0.06641689,65.628912,75.518568)"
       cx="605.71429"
       cy="486.64789"
       fx="605.71429"
       fy="486.64789"
       r="117.14286" />
    <radialGradient
       xlink:href="#linearGradient3327-8"
       id="radialGradient5879"
       gradientUnits="userSpaceOnUse"
       gradientTransform="matrix(-0.08277505,0,0,0.06641689,62.347829,75.518568)"
       cx="605.71429"
       cy="486.64789"
       fx="605.71429"
       fy="486.64789"
       r="117.14286" />
    <linearGradient
       xlink:href="#linearGradient4632-0-6-4"
       id="linearGradient5883"
       gradientUnits="userSpaceOnUse"
       gradientTransform="matrix(1,0,0,1.0266674,147,-70.186593)"
       x1="-91"
       y1="43.999817"
       x2="-91"
       y2="119.05979" />
    <linearGradient
       id="linearGradient4632-0-6-4">
      <stop
         style="stop-color:#55a7f3;stop-opacity:1;"
         offset="0"
         id="stop4634-4-4-7" />
      <stop
         style="stop-color:#1374cf;stop-opacity:1;"
         offset="1"
         id="stop4636-3-1-5" />
    </linearGradient>
    <linearGradient
       xlink:href="#linearGradient6129-963-697-142-998-580-273"
       id="linearGradient5887"
       gradientUnits="userSpaceOnUse"
       gradientTransform="matrix(3.036796,0,0,2.6909701,-8.8831134,-65.364613)"
       x1="22.934725"
       y1="49.629246"
       x2="22.934725"
       y2="36.599415" />
    <linearGradient
       id="linearGradient6129-963-697-142-998-580-273">
      <stop
         id="stop2661"
         style="stop-color:#0a0a0a;stop-opacity:0.498"
         offset="0" />
      <stop
         id="stop2663"
         style="stop-color:#0a0a0a;stop-opacity:0"
         offset="1" />
    </linearGradient>
    <linearGradient
       xlink:href="#linearGradient8272"
       id="linearGradient5891"
       gradientUnits="userSpaceOnUse"
       gradientTransform="matrix(2.6658408,0,0,2.7170994,-143.33283,-69.198823)"
       x1="97.538795"
       y1="16.962049"
       x2="97.538795"
       y2="44.260689" />
    <linearGradient
       id="linearGradient8272">
      <stop
         offset="0"
         style="stop-color:#ffffff;stop-opacity:1"
         id="stop8274" />
      <stop
         offset="0.0221225"
         style="stop-color:#ffffff;stop-opacity:0.23529412"
         id="stop8276" />
      <stop
         offset="0.97909725"
         style="stop-color:#ffffff;stop-opacity:0.15686275"
         id="stop8278" />
      <stop
         offset="1"
         style="stop-color:#ffffff;stop-opacity:0.39215687"
         id="stop8280" />
    </linearGradient>
    <linearGradient
       y2="609.50507"
       x2="302.85715"
       y1="366.64789"
       x1="302.85715"
       gradientTransform="matrix(0.2134205,0,0,0.06641689,-13.147881,75.518568)"
       gradientUnits="userSpaceOnUse"
       id="linearGradient5875-2"
       xlink:href="#linearGradient5048-585" />
    <radialGradient
       r="117.14286"
       fy="486.64789"
       fx="605.71429"
       cy="486.64789"
       cx="605.71429"
       gradientTransform="matrix(0.08277507,0,0,0.06641689,65.628912,75.518568)"
       gradientUnits="userSpaceOnUse"
       id="radialGradient5877-3"
       xlink:href="#linearGradient3327-8" />
    <radialGradient
       r="117.14286"
       fy="486.64789"
       fx="605.71429"
       cy="486.64789"
       cx="605.71429"
       gradientTransform="matrix(-0.08277505,0,0,0.06641689,62.347829,75.518568)"
       gradientUnits="userSpaceOnUse"
       id="radialGradient5879-6"
       xlink:href="#linearGradient3327-8" />
    <linearGradient
       xlink:href="#linearGradient5048-585"
       id="linearGradient5875-6"
       gradientUnits="userSpaceOnUse"
       gradientTransform="matrix(0.2134205,0,0,0.06641689,-13.147881,75.518568)"
       x1="302.85715"
       y1="366.64789"
       x2="302.85715"
       y2="609.50507" />
    <radialGradient
       xlink:href="#linearGradient3327-8"
       id="radialGradient5877-0"
       gradientUnits="userSpaceOnUse"
       gradientTransform="matrix(0.08277507,0,0,0.06641689,65.628912,75.518568)"
       cx="605.71429"
       cy="486.64789"
       fx="605.71429"
       fy="486.64789"
       r="117.14286" />
    <radialGradient
       xlink:href="#linearGradient3327-8"
       id="radialGradient5879-4"
       gradientUnits="userSpaceOnUse"
       gradientTransform="matrix(-0.08277505,0,0,0.06641689,62.347829,75.518568)"
       cx="605.71429"
       cy="486.64789"
       fx="605.71429"
       fy="486.64789"
       r="117.14286" />
    <linearGradient
       xlink:href="#linearGradient3327-8"
       id="linearGradient6758"
       gradientUnits="userSpaceOnUse"
       gradientTransform="matrix(2.1683519,0,0,2.2464645,141.94852,-68.559003)"
       x1="-51.786404"
       y1="53.514328"
       x2="-51.786404"
       y2="3.6336823" />
    <linearGradient
       xlink:href="#linearGradient9235"
       id="linearGradient6755"
       gradientUnits="userSpaceOnUse"
       gradientTransform="matrix(2.6658408,0,0,2.6469079,-143.33282,-66.018043)"
       x1="97.538795"
       y1="8.8103228"
       x2="97.538795"
       y2="44.260689" />
    <linearGradient
       xlink:href="#linearGradient5048-585"
       id="linearGradient22546"
       gradientUnits="userSpaceOnUse"
       gradientTransform="matrix(0.2134205,0,0,0.06641689,-13.147881,75.518568)"
       x1="302.85715"
       y1="366.64789"
       x2="302.85715"
       y2="609.50507" />
    <radialGradient
       xlink:href="#linearGradient3327-8"
       id="radialGradient22548"
       gradientUnits="userSpaceOnUse"
       gradientTransform="matrix(0.08277507,0,0,0.06641689,65.628912,75.518568)"
       cx="605.71429"
       cy="486.64789"
       fx="605.71429"
       fy="486.64789"
       r="117.14286" />
    <radialGradient
       xlink:href="#linearGradient3327-8"
       id="radialGradient22550"
       gradientUnits="userSpaceOnUse"
       gradientTransform="matrix(-0.08277505,0,0,0.06641689,62.347829,75.518568)"
       cx="605.71429"
       cy="486.64789"
       fx="605.71429"
       fy="486.64789"
       r="117.14286" />
    <linearGradient
       y2="119.05979"
       x2="-91"
       y1="43.999817"
       x1="-91"
       gradientTransform="matrix(1,0,0,0.81333428,147,-44.693353)"
       gradientUnits="userSpaceOnUse"
       id="linearGradient6563"
       xlink:href="#linearGradient4632-0-6-4-6" />
    <linearGradient
       id="linearGradient4632-0-6-4-6">
      <stop
         style="stop-color:#5aa9f2;stop-opacity:1;"
         offset="0"
         id="stop4634-4-4-7-1" />
      <stop
         style="stop-color:#1374cf;stop-opacity:1;"
         offset="1"
         id="stop4636-3-1-5-7" />
    </linearGradient>
    <linearGradient
       y2="36.599415"
       x2="22.934725"
       y1="49.629246"
       x1="22.934725"
       gradientTransform="matrix(3.036796,0,0,2.1389772,-8.88311,-41.084763)"
       gradientUnits="userSpaceOnUse"
       id="linearGradient6618"
       xlink:href="#linearGradient6129-963-697-142-998-580-273" />
    <linearGradient
       xlink:href="#linearGradient8272"
       id="linearGradient5329-6"
       gradientUnits="userSpaceOnUse"
       gradientTransform="matrix(2.6658408,0,0,2.1374512,-143.3107,-43.449953)"
       x1="97.538795"
       y1="16.962049"
       x2="97.538795"
       y2="44.260689" />
    <radialGradient
       xlink:href="#linearGradient3327-8"
       id="radialGradient5877-38"
       gradientUnits="userSpaceOnUse"
       gradientTransform="matrix(0.08277507,0,0,0.06641689,65.628912,75.518568)"
       cx="605.71429"
       cy="486.64789"
       fx="605.71429"
       fy="486.64789"
       r="117.14286" />
    <radialGradient
       xlink:href="#linearGradient3327-8"
       id="radialGradient5879-8"
       gradientUnits="userSpaceOnUse"
       gradientTransform="matrix(-0.08277505,0,0,0.06641689,62.347829,75.518568)"
       cx="605.71429"
       cy="486.64789"
       fx="605.71429"
       fy="486.64789"
       r="117.14286" />
    <linearGradient
       y2="609.50507"
       x2="302.85715"
       y1="366.64789"
       x1="302.85715"
       gradientTransform="matrix(0.2134205,0,0,0.06641689,-13.147881,75.518568)"
       gradientUnits="userSpaceOnUse"
       id="linearGradient5875-3"
       xlink:href="#linearGradient5048-585" />
    <radialGradient
       r="117.14286"
       fy="486.64789"
       fx="605.71429"
       cy="486.64789"
       cx="605.71429"
       gradientTransform="matrix(0.08277507,0,0,0.06641689,65.628912,75.518568)"
       gradientUnits="userSpaceOnUse"
       id="radialGradient5877-2"
       xlink:href="#linearGradient3327-8" />
    <radialGradient
       r="117.14286"
       fy="486.64789"
       fx="605.71429"
       cy="486.64789"
       cx="605.71429"
       gradientTransform="matrix(-0.08277505,0,0,0.06641689,62.347829,75.518568)"
       gradientUnits="userSpaceOnUse"
       id="radialGradient5879-1"
       xlink:href="#linearGradient3327-8" />
    <linearGradient
       y2="609.50507"
       x2="302.85715"
       y1="366.64789"
       x1="302.85715"
       gradientTransform="matrix(0.2134205,0,0,0.06641689,-13.147881,75.518568)"
       gradientUnits="userSpaceOnUse"
       id="linearGradient5875-7"
       xlink:href="#linearGradient5048-585" />
    <radialGradient
       r="117.14286"
       fy="486.64789"
       fx="605.71429"
       cy="486.64789"
       cx="605.71429"
       gradientTransform="matrix(0.08277507,0,0,0.06641689,65.628912,75.518568)"
       gradientUnits="userSpaceOnUse"
       id="radialGradient5877-6"
       xlink:href="#linearGradient3327-8" />
    <radialGradient
       r="117.14286"
       fy="486.64789"
       fx="605.71429"
       cy="486.64789"
       cx="605.71429"
       gradientTransform="matrix(-0.08277505,0,0,0.06641689,62.347829,75.518568)"
       gradientUnits="userSpaceOnUse"
       id="radialGradient5879-2"
       xlink:href="#linearGradient3327-8" />
    <linearGradient
       xlink:href="#linearGradient5048-585"
       id="linearGradient5875-39"
       gradientUnits="userSpaceOnUse"
       gradientTransform="matrix(0.2134205,0,0,0.06641689,-13.147881,75.518568)"
       x1="302.85715"
       y1="366.64789"
       x2="302.85715"
       y2="609.50507" />
    <radialGradient
       xlink:href="#linearGradient3327-8"
       id="radialGradient5877-9"
       gradientUnits="userSpaceOnUse"
       gradientTransform="matrix(0.08277507,0,0,0.06641689,65.628912,75.518568)"
       cx="605.71429"
       cy="486.64789"
       fx="605.71429"
       fy="486.64789"
       r="117.14286" />
    <radialGradient
       xlink:href="#linearGradient3327-8"
       id="radialGradient5879-3"
       gradientUnits="userSpaceOnUse"
       gradientTransform="matrix(-0.08277505,0,0,0.06641689,62.347829,75.518568)"
       cx="605.71429"
       cy="486.64789"
       fx="605.71429"
       fy="486.64789"
       r="117.14286" />
    <linearGradient
       y2="609.50507"
       x2="302.85715"
       y1="366.64789"
       x1="302.85715"
       gradientTransform="matrix(0.2134205,0,0,0.06641689,-13.147881,75.518568)"
       gradientUnits="userSpaceOnUse"
       id="linearGradient5875-67"
       xlink:href="#linearGradient5048-585" />
    <radialGradient
       r="117.14286"
       fy="486.64789"
       fx="605.71429"
       cy="486.64789"
       cx="605.71429"
       gradientTransform="matrix(0.08277507,0,0,0.06641689,65.628912,75.518568)"
       gradientUnits="userSpaceOnUse"
       id="radialGradient5877-8"
       xlink:href="#linearGradient3327-8" />
    <radialGradient
       r="117.14286"
       fy="486.64789"
       fx="605.71429"
       cy="486.64789"
       cx="605.71429"
       gradientTransform="matrix(-0.08277505,0,0,0.06641689,62.347829,75.518568)"
       gradientUnits="userSpaceOnUse"
       id="radialGradient5879-7"
       xlink:href="#linearGradient3327-8" />
    <linearGradient
       y2="609.50507"
       x2="302.85715"
       y1="366.64789"
       x1="302.85715"
       gradientTransform="matrix(0.2134205,0,0,0.06641689,-13.147881,75.518568)"
       gradientUnits="userSpaceOnUse"
       id="linearGradient5875-21"
       xlink:href="#linearGradient5048-585" />
    <radialGradient
       r="117.14286"
       fy="486.64789"
       fx="605.71429"
       cy="486.64789"
       cx="605.71429"
       gradientTransform="matrix(0.08277507,0,0,0.06641689,65.628912,75.518568)"
       gradientUnits="userSpaceOnUse"
       id="radialGradient5877-1"
       xlink:href="#linearGradient3327-8" />
    <radialGradient
       r="117.14286"
       fy="486.64789"
       fx="605.71429"
       cy="486.64789"
       cx="605.71429"
       gradientTransform="matrix(-0.08277505,0,0,0.06641689,62.347829,75.518568)"
       gradientUnits="userSpaceOnUse"
       id="radialGradient5879-49"
       xlink:href="#linearGradient3327-8" />
    <linearGradient
       y2="609.50507"
       x2="302.85715"
       y1="366.64789"
       x1="302.85715"
       gradientTransform="matrix(0.2134205,0,0,0.06641689,-13.147881,75.518568)"
       gradientUnits="userSpaceOnUse"
       id="linearGradient5875-1"
       xlink:href="#linearGradient5048-585" />
    <radialGradient
       r="117.14286"
       fy="486.64789"
       fx="605.71429"
       cy="486.64789"
       cx="605.71429"
       gradientTransform="matrix(0.08277507,0,0,0.06641689,65.628912,75.518568)"
       gradientUnits="userSpaceOnUse"
       id="radialGradient5877-22"
       xlink:href="#linearGradient3327-8" />
    <radialGradient
       r="117.14286"
       fy="486.64789"
       fx="605.71429"
       cy="486.64789"
       cx="605.71429"
       gradientTransform="matrix(-0.08277505,0,0,0.06641689,62.347829,75.518568)"
       gradientUnits="userSpaceOnUse"
       id="radialGradient5879-0"
       xlink:href="#linearGradient3327-8" />
    <linearGradient
       y2="609.50507"
       x2="302.85715"
       y1="366.64789"
       x1="302.85715"
       gradientTransform="matrix(0.2134205,0,0,0.06641689,-13.147881,75.518568)"
       gradientUnits="userSpaceOnUse"
       id="linearGradient5875-9"
       xlink:href="#linearGradient5048-585" />
    <radialGradient
       r="117.14286"
       fy="486.64789"
       fx="605.71429"
       cy="486.64789"
       cx="605.71429"
       gradientTransform="matrix(0.08277507,0,0,0.06641689,65.628912,75.518568)"
       gradientUnits="userSpaceOnUse"
       id="radialGradient5877-25"
       xlink:href="#linearGradient3327-8" />
    <radialGradient
       r="117.14286"
       fy="486.64789"
       fx="605.71429"
       cy="486.64789"
       cx="605.71429"
       gradientTransform="matrix(-0.08277505,0,0,0.06641689,62.347829,75.518568)"
       gradientUnits="userSpaceOnUse"
       id="radialGradient5879-44"
       xlink:href="#linearGradient3327-8" />
  </defs>
  <metadata
     id="metadata2413">
    <rdf:RDF>
      <cc:Work
         rdf:about="">
        <dc:format>image/svg+xml</dc:format>
        <dc:type
           rdf:resource="http://purl.org/dc/dcmitype/StillImage" />
        <dc:title />
      </cc:Work>
    </rdf:RDF>
  </metadata>
  <g
     style="display:none"
     id="layer2">
    <rect
       style="opacity:0.9;fill:url(#ButtonShadow);fill-opacity:1;fill-rule:nonzero;stroke:none;filter:url(#filter3174)"
       id="rect3745"
       y="7"
       x="5"
       ry="6"
       rx="6"
       height="85"
       width="86" />
  </g>
  <g
     transform="matrix(0.72580649,0,0,0.72580649,1.5542743,46.800461)"
     id="layer1">
    <path
       id="rect8678-4"
       d="m 12.999997,-42.968593 c -1.108,0 -2,0.892 -2,2 l 0,5.96875 -3.0000004,0 c -1.108,0 -2,0.892 -2,2 l 0,11 c 0,1.108 0.892,2 2,2 l 112.0000034,0 c 1.108,0 2,-0.892 2,-2 l 0,-11 c 0,-1.108 -0.892,-2 -2,-2 l -62.999999,0 0,-5.96875 c 0,-1.108 -0.892,-2 -2,-2 l -42.000004,0 z"
       style="color:#000000;display:inline;overflow:visible;visibility:visible;fill:#cecece;fill-opacity:1;fill-rule:nonzero;stroke:none;stroke-width:1.00000012;marker:none;enable-background:accumulate" />
    <path
       style="color:#000000;display:inline;overflow:visible;visibility:visible;opacity:0.8;fill:none;stroke:url(#linearGradient5869);stroke-width:1;stroke-linecap:butt;stroke-linejoin:miter;stroke-miterlimit:4;stroke-dasharray:none;stroke-dashoffset:0;stroke-opacity:1;marker:none;enable-background:accumulate"
       id="path3468"
       d="m 13.662787,-43.499683 c -1.87818,0.0205 -3.16279,0.9143 -3.16279,2.67225 l 0,5.32743 c -0.9606004,0 -1.4771004,-0.003 -2.1044004,0 -1.67856,0.008 -2.87762,0.94491 -2.87762,2.83298 0.0936,27.4976499 -0.018,28.9219399 -0.018,31.2565499 3.90581,0 117.0000034,-9.8866399 117.0000034,-14.1422999 l 0,-17.14209 c 0,-1.75796 -1.15786,-2.82564 -3.03605,-2.80514 l -61.963949,0 0,-5.19887 c 0,-1.75795 -1.18743,-2.80081 -2.94827,-2.80081 l -40.888944,0 z" />
    <path
       id="rect8678"
       d="m 13.499997,-42.499843 c -1.108,0 -2,0.892 -2,2 l 0,6 -3.0000004,0 c -1.108,0 -2,0.892 -2,2 l 0,11 c 0,1.108 0.892,2 2,2 l 111.0000034,0 c 1.108,0 2,-0.892 2,-2 l 0,-11 c 0,-1.108 -0.892,-2 -2,-2 l -62.999999,0 0,-6 c 0,-1.108 -0.892,-2 -2,-2 l -41.000004,0 z"
       style="color:#000000;display:inline;overflow:visible;visibility:visible;fill:none;stroke:url(#linearGradient5873);stroke-width:0.99999982;stroke-linecap:round;stroke-linejoin:round;stroke-miterlimit:4;stroke-dasharray:none;stroke-dashoffset:0;stroke-opacity:1;marker:none;enable-background:accumulate" />
    <g
       id="g2479"
       transform="matrix(1.0027339,0,0,0.9919518,-0.16331336,-57.066403)">
      <rect
         style="display:inline;overflow:visible;visibility:visible;opacity:0.3;fill:url(#linearGradient5875-9);fill-opacity:1;fill-rule:nonzero;stroke:none;stroke-width:1;marker:none"
         id="rect4173"
         y="99.870178"
         x="12.462574"
         height="16.129816"
         width="103.05159" />
      <path
         style="display:inline;overflow:visible;visibility:visible;opacity:0.3;fill:url(#radialGradient5877-25);fill-opacity:1;fill-rule:nonzero;stroke:none;stroke-width:1;marker:none"
         id="path5058"
         d="m 115.51417,99.870734 c 0,0 0,16.128926 0,16.128926 4.26271,0.0304 10.30516,-3.61367 10.30516,-8.0655 0,-4.45183 -4.75687,-8.063426 -10.30516,-8.063426 z" />
      <path
         style="display:inline;overflow:visible;visibility:visible;opacity:0.3;fill:url(#radialGradient5879-44);fill-opacity:1;fill-rule:nonzero;stroke:none;stroke-width:1;marker:none"
         id="path5018"
         d="m 12.462574,99.870734 c 0,0 0,16.128926 0,16.128926 -4.2627113,0.0304 -10.3051588,-3.61367 -10.3051588,-8.0655 0,-4.45183 4.7568636,-8.063426 10.3051588,-8.063426 z" />
    </g>
    <path
       style="display:inline;overflow:visible;visibility:visible;fill:url(#linearGradient5883);fill-opacity:1;fill-rule:nonzero;stroke:none;stroke-width:0.99999982;marker:none;enable-background:accumulate"
       id="path3369"
       d="m 6.2499966,-24.500053 115.4999934,0.001 c 1.66861,0 2.75001,1.18375 2.75001,2.65543 l -2.71648,71.78068 c 0.0386,1.86211 -0.55015,2.60044 -2.48884,2.56139 L 9.3616366,52.451747 c -1.66859,0 -3.35116,-1.09895 -3.35116,-2.57064 l -2.51048,-71.72469 c 0,-1.47169 1.0814,-2.65647 2.75,-2.65647 z" />
    <path
       style="opacity:0.4;fill:url(#linearGradient5887);fill-opacity:1;stroke:none"
       id="path6127"
       d="m 5.7727166,-25.000063 116.4545434,0.001 c 1.6824,0 2.77274,1.19912 2.77274,2.68993 l -2.73893,72.7129 c 0.0389,1.88629 -0.5547,2.63421 -2.50941,2.59465 L 8.9100766,52.951017 c -1.68238,0 -3.37885,-1.11323 -3.37885,-2.60404 l -2.53123,-72.65607 c 0,-1.4908 1.09034,-2.69097 2.77272,-2.69097 z" />
    <path
       id="path8263"
       d="m 6.2499966,-23.499853 c -2.84882,0.29656 -1.40933,3.76689 -1.63989,5.72017 0.78584,22.5479499 1.57466,45.09583 2.35864,67.64381 1.18868,2.48974 4.4300904,1.28205 6.6383204,1.57433 35.235146,0.0205 70.470294,0.0412 105.705433,0.0617 2.566,-0.16531 1.15721,-3.81803 1.65357,-5.65555 0.85465,-22.56949 2.54292,-67.57135 2.54292,-67.57135 0,-1.16209 -0.77992,-1.7731 -2.20738,-1.7731 -37.089309,0 -77.962299,0 -115.0516134,0 z"
       style="display:inline;overflow:visible;visibility:visible;opacity:0.5;fill:none;stroke:url(#linearGradient5891);stroke-width:0.99999988;stroke-linecap:round;stroke-linejoin:round;stroke-miterlimit:4;stroke-dasharray:none;stroke-dashoffset:0;stroke-opacity:1;marker:none;enable-background:accumulate" />
    <path
       style="display:inline;overflow:visible;visibility:visible;opacity:0.3;fill:none;stroke:#000000;stroke-width:0.99999982;stroke-linecap:round;stroke-linejoin:round;stroke-miterlimit:4;stroke-dasharray:none;stroke-dashoffset:0;stroke-opacity:1;marker:none;enable-background:accumulate"
       id="path3369-7"
       d="m 6.2499966,-24.500053 115.4999934,0.001 c 1.66861,0 2.75001,1.18375 2.75001,2.65543 l -2.71648,71.78068 c 0.0386,1.86211 -0.55015,2.60044 -2.48884,2.56139 L 9.3616366,52.451747 c -1.66859,0 -3.35116,-1.09895 -3.35116,-2.57064 l -2.51048,-71.72469 c 0,-1.47169 1.0814,-2.65647 2.75,-2.65647 z" />
  </g>
  <g
     transform="matrix(0.72580649,0,0,0.72580649,14.314793,19.365101)"
     id="layer6"
     style="fill:#1b63a5;fill-opacity:1">
    <path
       d="m 45.825935,76.78619 c -0.994078,0 -1.798989,-0.824633 -1.798989,-1.835696 v -3.561253 c -1.77747,-0.473584 -3.475849,-1.188928 -5.029805,-2.092693 l -2.533269,2.533261 c -0.357467,0.357466 -0.78567,0.54679 -1.248267,0.550709 -0.462598,0.0039 -0.933532,-0.162538 -1.284986,-0.513995 l -4.956386,-4.956382 c -0.702909,-0.702914 -0.678213,-1.81833 0.03664,-2.533261 l 2.533264,-2.53326 C 30.640374,60.289666 29.925032,58.591284 29.451436,56.813811 H 25.89019 c -1.011064,0 -1.8357,-0.80491 -1.8357,-1.798983 v -6.975646 c 0,-0.994074 0.824636,-1.798984 1.8357,-1.798984 h 3.561246 c 0.473596,-1.777476 1.188938,-3.475857 2.092698,-5.02981 l -2.533264,-2.53326 c -0.714929,-0.71493 -0.739623,-1.830346 -0.03664,-2.533261 l 4.956386,-4.956383 c 0.702908,-0.702914 1.818328,-0.678213 2.533253,0.03673 l 2.533269,2.533262 c 1.553956,-0.903766 3.252335,-1.619106 5.029805,-2.092692 V 28.10353 c 0,-1.011063 0.804911,-1.835697 1.798989,-1.835697 h 6.975646 c 0.994069,0 1.798981,0.824634 1.798981,1.835697 v 3.561254 c 1.777469,0.473586 3.475847,1.188926 5.029806,2.092692 l 2.533264,-2.533262 c 0.714927,-0.714929 1.830347,-0.739629 2.533265,-0.03673 l 4.956377,4.956383 c 0.702908,0.702915 0.678213,1.818331 -0.03665,2.533261 l -2.533256,2.53326 c 0.903761,1.553953 1.6191,3.252334 2.092688,5.02981 h 3.561258 c 1.011054,0 1.835695,0.804908 1.835695,1.798984 v 6.975646 c 0,0.994072 -0.824641,1.798983 -1.835695,1.798983 h -3.561258 c -0.473585,1.777473 -1.188922,3.475855 -2.092683,5.029809 l 2.533254,2.53326 c 0.714927,0.714931 0.739631,1.830347 0.03665,2.533261 l -4.956376,4.956382 c -0.70292,0.702915 -1.818337,0.678217 -2.533266,-0.03673 l -2.533266,-2.533262 c -1.553957,0.903766 -3.252335,1.61911 -5.029804,2.092696 v 3.561249 c 0,1.011065 -0.804911,1.835697 -1.798981,1.835697 h -6.975646 z m 3.487819,-17.622686 c 4.215352,0 7.636501,-3.421152 7.636501,-7.636501 0,-4.215345 -3.421149,-7.636496 -7.636501,-7.636496 -4.215345,0 -7.6365,3.421151 -7.6365,7.636496 0,4.215349 3.421155,7.636501 7.6365,7.636501 z"
       id="rect3267"
       style="display:block;overflow:visible;visibility:visible;opacity:0.9;fill:#00508c;fill-opacity:1;fill-rule:nonzero;stroke:none;stroke-width:1.14814806;marker:none;enable-background:accumulate"
       inkscape:connector-curvature="0" />
    <path
       d="m 45.833422,26.267674 c -0.994078,0 -1.793981,0.818797 -1.793981,1.829861 v 3.552083 c -1.77747,0.473586 -3.505071,1.213132 -5.059028,2.116898 l -2.511574,-2.547453 c -0.714925,-0.714943 -1.844545,-0.738794 -2.547453,-0.03588 l -4.951389,4.951389 c -0.702986,0.702914 -0.679049,1.832523 0.03588,2.547453 l 2.547453,2.511574 c -0.90376,1.553953 -1.643302,3.281552 -2.116898,5.059028 h -3.552083 c -1.011064,0 -1.829861,0.799908 -1.829861,1.793981 v 6.960648 c 0,0.994073 0.818797,1.793981 1.829861,1.793981 h 3.552083 c 0.473596,1.777473 1.213138,3.505074 2.116898,5.059028 l -2.547453,2.511574 c -0.71485,0.714931 -0.738789,1.844539 -0.03588,2.547453 l 4.951389,4.951389 c 0.351454,0.351456 0.829068,0.506218 1.291666,0.502315 0.462597,-0.0039 0.89832,-0.180729 1.255787,-0.538195 l 2.511574,-2.547453 c 1.553957,0.903764 3.281558,1.643314 5.059028,2.116898 v 3.552083 c 0,1.011062 0.799903,1.829861 1.793981,1.829861 h 6.960648 c 0.99407,0 1.793981,-0.818796 1.793981,-1.829861 v -3.552083 c 1.777469,-0.473586 3.505071,-1.213132 5.059028,-2.116898 l 2.511574,2.547453 c 0.714929,0.714946 1.844534,0.738794 2.547453,0.03588 l 4.951389,-4.951389 c 0.702982,-0.702914 0.679047,-1.832522 -0.03588,-2.547453 l -2.547453,-2.511574 c 0.903761,-1.553954 1.643313,-3.281555 2.116898,-5.059028 h 3.552083 c 1.011053,0 1.829861,-0.799909 1.829861,-1.793981 v -6.960648 c 0,-0.994076 -0.818808,-1.793981 -1.829861,-1.793981 H 69.19106 c -0.473588,-1.777476 -1.213137,-3.505075 -2.116898,-5.059028 l 2.547453,-2.511574 c 0.714862,-0.71493 0.738788,-1.844539 0.03588,-2.547453 l -4.951389,-4.951389 c -0.702918,-0.7029 -1.832527,-0.679049 -2.547453,0.03588 l -2.511574,2.547453 C 58.09312,32.86275 56.365521,32.123204 54.588051,31.649618 v -3.552083 c 0,-1.011064 -0.799912,-1.829861 -1.793981,-1.829861 z m 0,1.148148 h 6.960648 c 0.363596,0 0.645833,0.276227 0.645833,0.681713 v 3.552083 a 1.1482629,1.1482629 0 0 0 0.861111,1.112269 c 1.668974,0.444677 3.302414,1.154568 4.771991,2.009259 a 1.1482629,1.1482629 0 0 0 1.399305,-0.215278 l 2.511574,-2.511574 c 0.296365,-0.296366 0.638157,-0.294707 0.896991,-0.03588 l 4.951389,4.951389 c 0.2588,0.258803 0.26047,0.600612 -0.03588,0.896991 l -2.511574,2.511574 a 1.1482629,1.1482629 0 0 0 -0.215278,1.399305 c 0.854686,1.469572 1.564579,3.103012 2.009259,4.771991 a 1.1482629,1.1482629 0 0 0 1.112269,0.861111 h 3.552083 c 0.405474,0 0.681713,0.282234 0.681713,0.645833 v 6.960648 c 0,0.363593 -0.276242,0.645833 -0.681713,0.645833 H 69.19106 A 1.1482629,1.1482629 0 0 0 68.078791,56.5142 c -0.444676,1.668973 -1.154572,3.302416 -2.009259,4.771991 a 1.1482629,1.1482629 0 0 0 0.215278,1.399305 l 2.511574,2.511574 c 0.2964,0.296403 0.294728,0.638166 0.03588,0.896991 l -4.951389,4.951388 c -0.258843,0.258841 -0.600618,0.2605 -0.896991,-0.03588 L 60.47231,68.497996 a 1.1482629,1.1482629 0 0 0 -1.399305,-0.215278 c -1.469573,0.85469 -3.103018,1.564581 -4.771991,2.009259 a 1.1482629,1.1482629 0 0 0 -0.861111,1.112269 v 3.552083 c 0,0.405488 -0.282234,0.681713 -0.645833,0.681713 h -6.960648 c -0.36361,0 -0.645833,-0.276223 -0.645833,-0.681713 v -3.552083 a 1.1482629,1.1482629 0 0 0 -0.861111,-1.112269 c -1.668971,-0.444675 -3.302415,-1.154569 -4.771991,-2.009259 a 1.1482629,1.1482629 0 0 0 -1.399305,0.215278 l -2.511574,2.511574 c -0.161458,0.161457 -0.254375,0.213785 -0.430556,0.215278 -0.199882,0.0017 -0.363579,-0.07654 -0.466435,-0.179399 l -4.951388,-4.951388 c -0.258798,-0.2588 -0.260469,-0.600609 0.03588,-0.896991 l 2.511573,-2.511574 A 1.1482629,1.1482629 0 0 0 32.55796,61.286191 C 31.703276,59.81662 30.99339,58.183183 30.548701,56.5142 a 1.1482629,1.1482629 0 0 0 -1.112269,-0.861111 h -3.552083 c -0.405489,0 -0.681713,-0.28223 -0.681713,-0.645833 v -6.960648 c 0,-0.363604 0.276224,-0.645833 0.681713,-0.645833 h 3.552083 a 1.1482629,1.1482629 0 0 0 1.112269,-0.861111 c 0.444689,-1.668985 1.154575,-3.302421 2.009259,-4.771991 a 1.1482629,1.1482629 0 0 0 -0.215278,-1.399305 l -2.511574,-2.511574 c -0.296401,-0.296402 -0.294731,-0.638166 -0.03588,-0.896991 l 4.951388,-4.951389 c 0.25882,-0.258822 0.600629,-0.260489 0.896991,0.03588 l 2.511574,2.511574 a 1.1482629,1.1482629 0 0 0 1.399305,0.215278 c 1.469575,-0.85469 3.103018,-1.564582 4.771991,-2.009259 a 1.1482629,1.1482629 0 0 0 0.861111,-1.112269 v -3.552083 c 0,-0.405493 0.282223,-0.681713 0.645834,-0.681713 z m 3.480324,15.320601 c -4.83763,0 -8.790509,3.952879 -8.790509,8.790509 0,4.837633 3.952879,8.790509 8.790509,8.790509 4.837636,0 8.790509,-3.952877 8.790509,-8.790509 0,-4.837629 -3.952872,-8.790509 -8.790509,-8.790509 z m 0,1.148148 c 4.215352,0 7.642361,3.427016 7.642361,7.642361 0,4.215349 -3.427009,7.642361 -7.642361,7.642361 -4.215345,0 -7.642361,-3.427012 -7.642361,-7.642361 0,-4.215345 3.427016,-7.642361 7.642361,-7.642361 z"
       id="path4713"
       style="display:block;overflow:visible;visibility:visible;opacity:0.5;fill:#00508c;fill-opacity:0;fill-rule:nonzero;stroke:none;stroke-width:1.14814806;marker:none;enable-background:accumulate"
       inkscape:connector-curvature="0" />
  </g>
</svg>
