<?xml version="1.0" encoding="UTF-8" standalone="no"?>
<svg xmlns="http://www.w3.org/2000/svg" height="96" width="96" version="1.1" xmlns:xlink="http://www.w3.org/1999/xlink">
 <defs>
  <linearGradient id="a" stop-color="#fff">
   <stop offset="0"/>
   <stop stop-opacity="0" offset="1"/>
  </linearGradient>
  <filter id="ah" height="1.384" width="1.384" color-interpolation-filters="sRGB" y="-.192" x="-.192">
   <feGaussianBlur stdDeviation="5.28"/>
  </filter>
  <linearGradient id="d" y2="138.66" xlink:href="#a" gradientUnits="userSpaceOnUse" x2="48" y1="20.221" x1="48"/>
  <clipPath id="af">
   <rect rx="6" ry="6" height="84" width="84" y="6" x="6" fill="#fff"/>
  </clipPath>
  <linearGradient id="e" y2="5.9877" gradientUnits="userSpaceOnUse" x2="48" y1="90" x1="48">
   <stop stop-color="#555a75" offset="0"/>
   <stop stop-color="#8b8fa5" offset="1"/>
  </linearGradient>
  <linearGradient id="c" y2="7.0165" gradientUnits="userSpaceOnUse" x2="45.448" gradientTransform="matrix(1.0059 0 0 .99417 100 0)" y1="92.54" x1="45.448">
   <stop offset="0"/>
   <stop stop-opacity=".58824" offset="1"/>
  </linearGradient>
  <clipPath id="ag">
   <rect rx="6" ry="6" height="84" width="84" y="6" x="6" fill="#f0f"/>
  </clipPath>
  <linearGradient id="b">
   <stop offset="0"/>
   <stop stop-opacity="0" offset="1"/>
  </linearGradient>
  <linearGradient id="ac" y2="6" xlink:href="#c" gradientUnits="userSpaceOnUse" x2="32.251" gradientTransform="translate(0,1)" y1="90" x1="32.251"/>
  <linearGradient id="aa" y2="5.9996" xlink:href="#c" gradientUnits="userSpaceOnUse" x2="32.251" gradientTransform="matrix(1.0238 0 0 1.0119 -1.1429 .929)" y1="90" x1="32.251"/>
  <linearGradient id="z" y2="90.239" xlink:href="#c" gradientUnits="userSpaceOnUse" x2="32.251" gradientTransform="matrix(1.0238,0,0,-1.0119,-1.1429,98.071)" y1="6.1317" x1="32.251"/>
  <radialGradient id="i" xlink:href="#a" gradientUnits="userSpaceOnUse" cy="90.172" cx="48" gradientTransform="matrix(1.1573 0 0 .99591 -7.551 .19713)" r="42"/>
  <linearGradient id="y" y2="63.893" xlink:href="#a" gradientUnits="userSpaceOnUse" x2="36.357" y1="6" x1="36.357"/>
  <linearGradient id="x" stop-color="#9797ff" y2="45.977" gradientUnits="userSpaceOnUse" x2="46.112" y1="90.424" x1="46.112">
   <stop offset="0"/>
   <stop stop-opacity="0" offset="1"/>
  </linearGradient>
  <linearGradient id="w" y2="45.977" gradientUnits="userSpaceOnUse" x2="46.112" y1="90.424" x1="46.112">
   <stop stop-color="#6565ff" offset="0"/>
   <stop stop-color="#7171ff" stop-opacity="0" offset="1"/>
  </linearGradient>
  <linearGradient id="v" y2="45.977" gradientUnits="userSpaceOnUse" x2="46.112" y1="90.424" x1="46.112">
   <stop stop-color="#5252e2" offset="0"/>
   <stop stop-color="#5656ee" stop-opacity="0" offset="1"/>
  </linearGradient>
  <radialGradient id="h" xlink:href="#b" gradientUnits="userSpaceOnUse" cy="70.319" cx="49.422" gradientTransform="matrix(1.6115 0 0 .99596 -47.716 23.025)" r="21.228"/>
  <radialGradient id="g" xlink:href="#b" gradientUnits="userSpaceOnUse" cy="70.319" cx="49.422" gradientTransform="matrix(1.1381 0 0 .70338 -34.32 13.598)" r="21.228"/>
  <linearGradient id="u" stop-color="#fff" y2="86.111" gradientUnits="userSpaceOnUse" x2="35.838" gradientTransform="translate(-23,-31)" y1="56.924" x1="35.838">
   <stop offset="0"/>
   <stop stop-opacity="0" offset="1"/>
  </linearGradient>
  <linearGradient id="t" y2="38.688" xlink:href="#a" gradientUnits="userSpaceOnUse" x2="45.967" gradientTransform="translate(46.277,18.233)" y1="18.874" x1="45.967"/>
  <linearGradient id="s" y2="76.55" xlink:href="#a" gradientUnits="userSpaceOnUse" x2="75.918" gradientTransform="matrix(-1,0,0,1,148.59,-34)" y1="63.139" x1="75.918"/>
  <linearGradient id="r" y2="91.666" xlink:href="#a" gradientUnits="userSpaceOnUse" x2="46.77" gradientTransform="translate(46,-75)" y1="78.496" x1="46.77"/>
  <linearGradient id="q" y2="76.55" xlink:href="#a" gradientUnits="userSpaceOnUse" x2="75.918" gradientTransform="translate(-55,-41)" y1="63.139" x1="75.918"/>
  <linearGradient id="p" y2="33.077" xlink:href="#a" gradientUnits="userSpaceOnUse" x2="45.634" gradientTransform="matrix(-.96032 .27889 .27889 .96032 101.44 15.295)" y1="13.056" x1="39.819"/>
  <linearGradient id="o" y2="44.915" xlink:href="#a" gradientUnits="userSpaceOnUse" x2="76.758" gradientTransform="translate(12.348,-14.675)" y1="27.41" x1="76.758"/>
  <linearGradient id="n" y2="38.688" xlink:href="#a" gradientUnits="userSpaceOnUse" x2="45.967" gradientTransform="translate(-24.723,-5.7668)" y1="18.874" x1="45.967"/>
  <linearGradient id="m" y2="44.721" xlink:href="#a" gradientUnits="userSpaceOnUse" x2="38.535" gradientTransform="translate(-1.977,-2.023)" y1="8.6325" x1="38.535"/>
  <linearGradient id="l" y2="73.401" xlink:href="#a" gradientUnits="userSpaceOnUse" x2="29.3" gradientTransform="matrix(-1,0,0,1,96.25,-27)" y1="52.948" x1="29.3"/>
  <linearGradient id="k" y2="76.55" xlink:href="#a" gradientUnits="userSpaceOnUse" x2="75.918" gradientTransform="translate(-5,-60)" y1="63.139" x1="75.918"/>
  <linearGradient id="j" y2="91.666" xlink:href="#a" gradientUnits="userSpaceOnUse" x2="46.77" gradientTransform="translate(10,-63)" y1="78.496" x1="46.77"/>
  <radialGradient id="f" xlink:href="#b" gradientUnits="userSpaceOnUse" cy="70.319" cx="49.422" gradientTransform="matrix(1.6806 0 0 1.0387 7.2143 -2.3058)" r="21.228"/>
 </defs>
 <g fill="url(#z)">
  <path opacity="0.08" d="m12 95.031c-5.5111 0-10.031-4.52-10.031-10.031v-71c0-5.5111 4.5202-10.031 10.031-10.031h72c5.5111 0 10.031 4.5202 10.031 10.031v71c0 5.5111-4.5202 10.031-10.031 10.031h-72z"/>
  <path opacity=".1" d="m12 94.031c-4.9716 0-9.0312-4.0596-9.0312-9.0312v-71c0-4.9718 4.0596-9.0314 9.0312-9.0314h72c4.9716 0 9.0312 4.0596 9.0312 9.0312v71c0 4.9716-4.0596 9.0312-9.0312 9.0312h-72z"/>
  <path opacity=".2" d="m12 93c-4.4091 0-8-3.591-8-8v-71c0-4.4091 3.5909-8 8-8h72c4.4091 0 8 3.5909 8 8v71c0 4.4091-3.5909 8-8 8h-72z"/>
 </g>
 <rect opacity=".3" rx="7" ry="7" height="85" width="86" y="7" x="5" fill="url(#aa)"/>
 <rect opacity=".45" rx="6" ry="6" height="84" width="84" y="7" x="6" fill="url(#ac)"/>
 <rect rx="6" ry="6" height="84" width="84" y="6" x="6" fill="url(#e)"/>
 <g clip-path="url(#ag)">
  <path opacity=".1" d="m46.088 63.06a24.16 14.932 0 0 1 -48.32 0 24.16 14.932 0 1 1 48.32 0z" fill="url(#g)"/>
  <path opacity=".1" d="m66.138 93.061a34.21 21.143 0 0 1 -68.419 0 34.21 21.143 0 1 1 68.419 0z" fill="url(#h)"/>
  <path opacity=".2" d="m41.594 44.344a0.64494 0.64494 0 0 0 -0.15625 0.0625c-1.0101 0.39169-1.5399 1.2395-1.9688 1.9375-0.42885 0.69796-0.78391 1.25-1.3438 1.4688a0.64494 0.64494 0 0 0 -0.125 0.063c-0.35109 0.2623-1.0993 0.53362-1.7812 0.9375-0.34099 0.20194-0.67812 0.44601-0.9375 0.8125-0.18368 0.25953-0.20495 0.64752-0.25 1-0.0017 0.01308-0.02981 0.01808-0.03125 0.03125-1.1195 1.7765-2.6767 3.5137-4.8125 4.3125-2.1623 0.774-1.8991 4.2566 0.40625 4.7188v0.03125c0.0099 0.0019 0.02125-0.0018 0.03125 0 1.1546 0.25354 2.2632 0.10174 3.1562 0.15625 0.90184 0.05505 1.539 0.20825 2.125 1.0938a0.64494 0.64494 0 0 0 0.1875 0.1875c0.9417 0.5924 1.977 0.43929 2.6562 0.4375 0.33961-0.000895 0.57933 0.0535 0.65625 0.09375 0.02685 0.01405 0.04589 0.07923 0.0625 0.09375-0.33231 0.40669-0.5447 0.84145-0.5625 1.2812-0.02287 0.56526 0.1911 1.0476 0.40625 1.4688 0.21515 0.42111 0.43422 0.78595 0.59375 1.0938 0.11902 0.22965 0.14078 0.3555 0.15625 0.46875-0.56324 0.67522-1.397 1.2124-2.3125 1.8438-0.80613 0.55593-1.5631 1.3323-2.0312 2.3438-0.919-0.344-1.833-0.399-2.563-0.469-0.89-0.084-1.477-0.19-2.094-1.031a0.64494 0.64494 0 0 0 -0.312 -0.219c-0.91824-0.35308-1.731-0.34388-2.3125 0.09375-0.58152 0.43762-0.76052 1.1381-0.75 1.8125 0.02104 1.3489 0.68826 2.8746 1.9062 3.5938 0.11139 0.06473 0.1108 0.08614 0.15625 0.125-0.04043 0.02751-0.0638 0.06319-0.28125 0.21875-0.29807 0.21324-0.71616 0.45404-1.0625 0.8125-0.20271 0.2098-0.33642 0.48898-0.4375 0.8125-1.5151-0.0012-3.2928-0.01904-4.9062 0.125a0.64494 0.64494 0 0 0 -0.03125 0.03125c-0.91524 0.15436-1.5062 0.88999-1.6562 1.6562-0.14138 0.72174 0.04175 1.4931 0.53125 2.0938h-0.03125c0.01586 0.02765 0.04605 0.03558 0.0625 0.0625 0.01243 0.02035 0.01849 0.04256 0.03125 0.0625 0.69662 1.0887 1.8609 1.5871 2.625 2.0938 0.3983 0.26413 0.68166 0.53714 0.8125 0.78125s0.16864 0.50838 0 1.0312a0.64494 0.64494 0 0 0 0.03125 0.46875c0.23704 0.50395 0.64151 0.7952 1.0312 1.0625 0.3179 0.21803 0.60242 0.37221 0.84375 0.53125-0.09322 0.02826-0.12407 0.0642-0.25 0.09375a0.64494 0.64494 0 0 0 -0.21875 0.09375c-0.92599 0.68552-1.0112 1.7364-1.125 2.2812-0.05691 0.27241-0.09718 0.40432-0.1875 0.5s-0.28498 0.22438-0.75 0.28125a0.64494 0.64494 0 0 0 -0.25 0.09375c-0.43746 0.29228-1.2053 0.69959-1.8125 1.2812-0.30358 0.29083-0.56942 0.62124-0.71875 1.0625s-0.1526 0.97057 0.0625 1.4688a0.64494 0.64494 0 0 0 0.0625 0.125c0.66304 0.96386 1.0904 2.4714 2.3125 3.5a0.64494 0.64494 0 0 0 0.09375 0.0625c0.86288 0.47074 1.8083 0.19551 2.4062-0.28125 0.597-0.478 1.002-1.12 1.312-1.595a0.64494 0.64494 0 0 0 0.031 -0.032c0.95563-1.8373 2.4091-2.4534 4.375-2.9375a0.64494 0.64494 0 0 0 0.3125 -0.1875c0.43331-0.44029 0.61114-0.97454 0.625-1.4375s-0.09768-0.83126-0.15625-1.125-0.06238-0.48102-0.03125-0.5625 0.1075-0.20178 0.53125-0.375a0.64494 0.64494 0 0 0 0.28125 -0.25c0.43551-0.66737 0.59736-1.3527 0.46875-1.9688-0.12861-0.61601-0.50224-1.0908-0.90625-1.5-0.75557-0.76532-1.6709-1.362-2.1875-1.875-0.04165-0.26561-0.08948-0.7403-0.03125-1.0312 0.01418-0.07086 0.01829-0.03504 0.03125-0.0625a0.64494 0.64494 0 0 0 0.1875 0.0625c1.3828 0.30598 2.6994-0.26008 3.5-1.1875 0.69635-0.8067 0.92752-1.9881 0.40625-3.0312 0.59851-0.69503 0.94946-1.4213 1.2188-1.8125 0.16117-0.23414 0.26102-0.31566 0.4375-0.375s0.47965-0.09053 1.0312 0.0625a0.64494 0.64494 0 0 0 0.25 0.03125c1.5696-0.13969 2.5476-1.1342 3.2188-2.125 0.67116-0.99082 1.1624-2.026 1.8438-2.625a0.64494 0.64494 0 0 0 0.1875 -0.375c0.02577-0.17368 0.0718-0.19636 0.0625-0.1875-0.0093 0.0089-0.01961 0.0051 0.0625 0 0.16422-0.01019 0.60198 0.0924 1.0938 0.21875 0.49177 0.12635 1.066 0.27759 1.6875 0.125 0.62154-0.15259 1.171-0.72668 1.375-1.5625a0.64494 0.64494 0 0 0 0.033 -0.093c0.111-1.246-0.536-2.245-1.157-3.062-0.542-0.715-0.992-1.328-1.281-1.969 0.05467-0.03146 0.04597-0.05826 0.15625-0.09375 0.27307-0.08788 0.68759-0.15729 1.1562-0.21875 0.91807-0.1204 2.1123-0.29195 2.8125-1.2812l0.03125 0.03125c0.01559-0.01918 0.0165-0.04292 0.03125-0.0625 0.13245-0.17581 0.12187-0.39449 0.1875-0.59375 0.28988 0.33841 0.55724 0.72848 0.84375 1.125 0.57302 0.79304 1.2841 1.6793 2.625 2.125a0.64494 0.64494 0 0 0 0.625 -0.125c0.44495-0.37119 0.60673-0.37382 0.8125-0.3125s0.54088 0.32762 0.90625 0.6875 0.76551 0.80228 1.3125 1.1562c0.36213 0.23435 0.8222 0.34993 1.3125 0.40625-0.01171 0.0523 0.01547 0.1877 0 0.21875-0.05092 0.10222-0.12011 0.16208-0.3125 0.25-0.38479 0.17584-1.1897 0.28941-2.0312 0.59375a0.64494 0.64494 0 0 0 -0.15625 0.0625c-0.63432 0.44418-1.5207 0.74072-2.4062 1.125-0.76901 0.3337-1.5123 0.83418-2.0312 1.625-0.60745 0.07813-1.4471 0.07097-2.2812 0.28125-0.45716 0.11525-0.91991 0.30332-1.3125 0.625s-0.6785 0.79217-0.78125 1.375a0.64494 0.64494 0 0 0 -0.03125 0.09375c-0.04172 0.57326 0.15531 1.0856 0.46875 1.4688 0.31344 0.38319 0.72876 0.61876 1.1562 0.78125 0.77933 0.29623 1.5842 0.34464 2.25 0.34375 0.85392 0.38337 1.3002 1.1466 1.75 2.1562 0.45739 1.0266 0.87589 2.2612 1.9375 3.125a0.64494 0.64494 0 0 0 0.15625 0.09375c0.98352 0.41984 1.903 1.1818 2.9688 1.7812 0.97159 0.54646 2.1472 0.86178 3.5 0.5625 0.52625 0.28174 0.73351 0.54351 0.8125 0.84375 0.08506 0.32333 0.02987 0.76393-0.125 1.3125-0.30319 1.0739-1.0104 2.4403-0.65625 3.875 0.0077 0.031-0.0087 0.06267 0 0.09375h0.03125c0.32892 1.7649 2.8384 2.1533 3.75 0.625l0.031 0.032c0.01457-0.01912 0.01727-0.04315 0.03125-0.0625s0.01784-0.04293 0.03125-0.0625c0.4827-0.70462 0.63794-1.5389 0.875-2.0938 0.12512-0.29285 0.27031-0.48951 0.375-0.5625 0.03069-0.02139 0.12083 0.01408 0.15625 0 0.09337 0.35309 0.20144 0.95037 0.21875 1.7812 0.01998 0.95898 0.01642 2.0115 0.375 2.9375-0.10433 1.0606 0.12167 2.3211 0.75 3.3125 0.33784 0.53305 0.81822 0.99302 1.4688 1.1562 0.65053 0.16323 1.3815-0.04383 2.0312-0.59375a0.64494 0.64494 0 0 0 0.187 -0.219c0.95574-1.9809 0.6541-4.2301 0.5-6.125a0.64494 0.64494 0 0 0 -0.031 -0.156c-0.27644-0.81574-0.36073-1.4027-0.25-1.8125 0.11073-0.40982 0.35346-0.74826 1.125-1.0938a0.64494 0.64494 0 0 0 0.3125 -0.25c0.46039-0.76028 0.31795-1.6735-0.125-2.2812-0.35268-0.48391-0.91998-0.76083-1.5312-0.875-0.13495-0.33366-0.23505-0.78166-0.53125-1.2812-0.3558-0.60009-1.0555-1.2404-2-1.1875a0.64494 0.64494 0 0 0 -0.1875 0.0625c-0.87324 0.33509-1.4054 1.0798-1.75 1.3438-0.17229 0.13199-0.18202 0.06518-0.09375 0.09375 0.07 0.022-0.069-0.116-0.188-0.345-0.008-0.02984-0.02292-0.06372-0.03125-0.09375-0.29034-1.0466-0.79668-2.2081-1.625-3.0625-0.70537-0.72759-1.7488-1.1655-2.875-1-0.14605-0.43285-0.38181-0.85139-0.71875-1.1875-0.46005-0.45891-1.1946-0.68802-1.9375-0.5v-0.029c-0.06576 0.0006-0.09844 0.05199-0.15625 0.0625-0.03061 0.0056-0.06522-0.0079-0.09375 0v0.03125c-0.29249 0.08441-0.52015 0.24858-0.65625 0.40625-0.03451 0.03998-0.06299 0.05412-0.09375 0.09375-0.65502-0.87511-1.3291-1.6275-1.6875-2.5 0.1322-0.07042 0.35548-0.18651 0.6875-0.28125 0.38919-0.11105 0.85232-0.23846 1.2812-0.375 0.42009-0.13373 0.81486-0.28584 1.1562-0.625h0.03125v0.03125c0.20928-0.20903 0.3314-0.28647 0.40625-0.3125s0.09417-0.02308 0.1875 0c0.18666 0.04617 0.59702 0.28692 1.2188 0.4375a0.64494 0.64494 0 0 0 0.188 0.032c0.694-0.027 1.294-0.303 1.719-0.719 0.42479-0.41536 0.67511-0.94545 0.8125-1.5 0.25027-1.0102 0.11087-2.0933-0.21875-3 0.000886-0.01777-0.000876-0.04453 0-0.0625 0.047-0.96412 0.05649-2.1966-0.1875-3.3438-0.17577-0.82638-0.54972-1.643-1.1875-2.1875 0.30475-0.4132 0.50494-0.893 0.46875-1.375-0.06145-0.81848-0.64868-1.6554-1.5938-1.8438v-0.03c-0.02081-0.0057-0.0417 0.0055-0.0625 0-2.5317-0.67506-4.9964 0.03567-7.125-0.25a0.64494 0.64494 0 0 0 -0.0625 -0.03125c-0.66-0.018-1.141-0.482-1.782-1.187-0.583-0.643-1.313-1.401-2.374-1.719-0.351-0.284-0.679-0.754-1.157-1.188-0.238-0.216-0.526-0.439-0.906-0.531-0.37058-0.0898-0.80286-0.03476-1.2188 0.125-0.01056 0.0041-0.0207-0.0042-0.03125 0v0.03125c-0.73337 0.30449-1.1881 0.96064-1.25 1.625-0.06307 0.6774 0.16751 1.3802 0.65625 1.875 0.13702 0.31674 0.30157 0.62292 0.5 0.90625 0.05793 0.08272 0.09801 0.13864 0.15625 0.21875-0.991-0.03079-2.0491 0.17574-2.7812 0.125-0.40714-0.02822-0.67432-0.11316-0.8125-0.25s-0.24724-0.38213-0.21875-1a0.64494 0.64494 0 0 0 -0.0625 -0.25c-0.269-0.744-0.925-1.108-1.562-1.312s-1.335-0.301-1.875-0.406c-0.54-0.106-0.88-0.288-0.875-0.281 0.01682-0.08006 0.12664-0.29999 0.34375-0.59375a0.64494 0.64494 0 0 0 0.09375 -0.1875c0.331-1.062 1.042-1.942 1.812-2.906 0.73016-0.91418 1.4814-1.9181 1.9062-3.1875 0.02214-0.03014 0.04116-0.06271 0.0625-0.09375 0.01022-0.03259 0.02152-0.06078 0.03125-0.09375 0.31103-0.48005 0.55035-1.044 0.5625-1.6562 0.01313-0.66162-0.31568-1.3781-1-1.7812-0.0068-0.004 0.0069-0.02729 0-0.03125-0.021-0.015-0.04-0.017-0.062-0.031-0.504-0.321-1.026-0.285-1.344-0.281a0.64494 0.64494 0 0 0 -0.0625 0z" fill="url(#v)"/>
  <path opacity=".2" d="m41.656 45a0.94159 0.94159 0 0 0 -0.21875 0.0625c0.01016-0.0043-0.10354 0.06758-0.09375 0.0625 0.0098-0.0051-0.1031 0.06835-0.09375 0.0625 0.0093-0.0058-0.1026 0.06907-0.09375 0.0625 0.0089-0.0066-0.10205 0.06976-0.09375 0.0625 0.0083-0.0073-0.10144 0.10165-0.09375 0.09375 0.0077-0.0079-0.10078 0.10224-0.09375 0.09375 0.007-0.0085-0.06883 0.10277-0.0625 0.09375 0.0063-0.009-0.06809 0.10325-0.0625 0.09375-1.5548 2.06-0.71204 1.9292-4.4062 3.8125a0.94159 0.94159 0 0 0 -0.03125 0.03125c0.0062-0.0034-0.06851 0.03498-0.0625 0.03125 0.006-0.0037-0.06831 0.03529-0.0625 0.03125 0.0058-0.004-0.06809 0.06683-0.0625 0.0625 0.0056-0.0043-0.03662 0.03586-0.03125 0.03125 0.0054-0.0046-0.06762 0.06738-0.0625 0.0625 0.0051-0.0049-0.06737 0.03639-0.0625 0.03125 0.0049-0.0051-0.0671 0.06788-0.0625 0.0625 0.0046-0.0054-0.03556 0.06811-0.03125 0.0625 0.0043-0.0056-0.06652 0.06832-0.0625 0.0625 0.004-0.0058-0.03497 0.06852-0.03125 0.0625 0.0037-0.006-0.03465 0.0687-0.03125 0.0625s-0.03433 0.06887-0.03125 0.0625c0.0031-0.0064-0.034 0.10027-0.03125 0.09375 0.0027-0.0065-0.03366 0.06915-0.03125 0.0625 0.0024-0.0067-0.03332 0.06927-0.03125 0.0625 0.0021-0.0068-0.0017 0.06936 0 0.0625 0.0017-0.0069-0.03261 0.10069-0.03125 0.09375 0.0014-0.0069-0.001 0.0695 0 0.0625s-0.03189 0.1008-0.03125 0.09375c0.000643-0.007-0.00028 0.06957 0 0.0625 0.00028-0.0071 0.000083 0.06957 0 0.0625-0.000083-0.0071 0.000445 0.10081 0 0.09375-0.000445-0.0071 0.000807 0.06953 0 0.0625-0.000807-0.007 0.03242 0.10073 0.03125 0.09375-0.0012-0.007 0.0015 0.06941 0 0.0625-0.0015-0.0069 0.03313 0.06932 0.03125 0.0625-0.07298 0.07014-0.11835 0.08087-0.3125 0.25-0.30726 0.26766-0.68023 0.60733-1.0312 1.0938-0.21082 0.29214-0.2621 0.64077-0.34375 0.96875-0.623 0.30981-1.2228 0.65098-1.6875 1-0.64448 0.48402-1.1819 0.85005-1.7812 1.0312 0.0064-0.0019-0.06882 0.03345-0.0625 0.03125 0.0063-0.0022-0.06871 0.03375-0.0625 0.03125 0.0062-0.0025-0.06858 0.03405-0.0625 0.03125 0.0061-0.0028-0.06844 0.03434-0.0625 0.03125 0.0059-0.0031-0.06828 0.03463-0.0625 0.03125 0.0058-0.0034-0.06811 0.03491-0.0625 0.03125 0.0056-0.0037-0.06792 0.03517-0.0625 0.03125 0.0054-0.0039-0.06773 0.03543-0.0625 0.03125 0.0052-0.0042-0.03627 0.06693-0.03125 0.0625 0.005-0.0044-0.0673 0.06717-0.0625 0.0625 0.0048-0.0047-0.06706 0.03615-0.0625 0.03125 0.0046-0.0049-0.03557 0.06761-0.03125 0.0625 0.0043-0.0051-0.06657 0.06782-0.0625 0.0625 0.0041-0.0053-0.03506 0.03676-0.03125 0.03125 0.0038-0.0055-0.03478 0.06819-0.03125 0.0625 0.0035-0.0057-0.0345 0.06835-0.03125 0.0625-0.20358 0.35732-0.39304 0.8787-0.28125 1.4375 0.12779 0.6388 0.57534 1.0151 0.9375 1.2188 0.60671 0.34108 1.2535 0.39791 1.7812 0.40625 0.54182 0.0085 1.0653-0.03525 1.5-0.0625 0.43914-0.02753 0.91281-0.02454 0.84375-0.03125a0.94159 0.94159 0 0 0 0.03125 0c-0.0081-0.000483 0.10191 0 0.09375 0-0.0027 0 0.01746 0.000435 0.03125 0 0.0509 0.000248 0.08631 0.01082 0.25 0.125s0.40345 0.34648 0.71875 0.625c0.30348 0.26808 0.72639 0.63147 1.3438 0.875 0.65667 0.25903 1.3919 0.26129 2.125 0.0625-0.27498 0.06599-0.28474 0.031-0.28125 0.03125 0.0035 0.000251 0.02135 0.0538 0.28125 0-0.07427 0.0152 0.27074 0.01277 0.59375 0.15625s0.66128 0.36376 0.84375 0.5625c0.03917 0.04267 0.0067 0.01844 0.03125 0.0625 0.0075-0.0047-0.06972 0.06765-0.0625 0.0625 0.0072-0.0052-0.10062 0.03686-0.09375 0.03125 0.0069-0.0056-0.069 0.06854-0.0625 0.0625 0.0065-0.006-0.06859 0.06894-0.0625 0.0625 0.007-0.006-0.068 0.101-0.062 0.094a0.94159 0.94159 0 0 0 -0.03125 0.03125c-0.34549 0.47501-0.51928 1.0556-0.46875 1.625 0.05081 0.57262 0.30862 0.9929 0.5 1.2812 0.27749 0.41808 0.55793 0.64142 0.84375 0.90625-0.02012 0.03018-0.03472 0.06816-0.03125 0.0625 0.0056-0.0092-0.06741 0.10335-0.0625 0.09375 0.0049-0.0096-0.06664 0.13496-0.0625 0.125 0.0041-0.01-0.0346 0.104-0.03125 0.09375 0.0033-0.01025-0.03379 0.13548-0.03125 0.125 0.0025-0.01048-0.03296 0.1044-0.03125 0.09375 0.02022-0.12436-0.07324 0.15561-0.4375 0.46875-0.3963 0.34069-0.95631 0.75067-1.5625 1.1562-0.61051 0.40846-1.2975 0.85712-1.9062 1.4688-0.394 0.396-0.587 0.944-0.782 1.469-0.008 0.022-0.023 0.04-0.031 0.062 0.0255-0.0092-0.05924-0.02377-0.34375-0.15625-0.35159-0.16372-0.9103-0.4246-1.5938-0.5-0.46902-0.05174-0.89883 0.12883-1.3438 0.28125-0.08103-0.03656-0.19572-0.06916-0.28125-0.125-0.29107-0.19005-0.65972-0.48554-1-0.75-0.34243-0.26613-0.61946-0.47345-0.90625-0.65625-0.09924-0.06325-0.28444-0.17032-0.4375-0.21875 0.10044 0.03179-0.06786-0.03498-0.28125-0.0625s-0.49213 0.0078-0.71875 0.09375c-0.36232 0.13742-0.58891 0.31638-0.78125 0.6875-0.15099 0.29135-0.16468 0.56904-0.15625 0.75 0.01016 0.21792 0.0414 0.44856 0.15625 0.65625s0.19351 0.31732 0.09375 0.15625c0.09423 0.15215 0.16708 0.20245 0.15625 0.1875l0.032-0.031c0.16427 0.53757 0.34632 1.0849 0.65625 1.4375 0.44417 0.50529 0.90512 0.937 1.125 1.2188 0.23332 0.29898 0.19676 0.3237 0.21875 0.21875 0.03454-0.16488-0.08519 0.18527-0.90625 0.6875a0.94159 0.94159 0 0 0 -0.25 0.25 0.94159 0.94159 0 0 0 -0.0625 0.09375c-0.44772 0.3472-0.81916 0.76598-0.875 1.375-0.004 0.04329 0.002 0.05173 0 0.09375-1.9383-0.2599-3.7309 0.03218-5.0938 0.03125a0.94159 0.94159 0 0 0 -0.03125 0c0.0077-0.000178-0.0702 0.000611-0.0625 0s-0.1014 0.001-0.09375 0c0.0077-0.001-0.10133 0.03272-0.09375 0.03125 0.0076-0.0015-0.06999 0.0019-0.0625 0 0.0075-0.0019-0.10112 0.03356-0.09375 0.03125 0.0074-0.0023-0.06973 0.03397-0.0625 0.03125 0.0072-0.0027-0.10082 0.03437-0.09375 0.03125 0.0071-0.0031-0.06938 0.03476-0.0625 0.03125 0.0069-0.0035-0.06917 0.03514-0.0625 0.03125 0.0067-0.0039-0.1002 0.06676-0.09375 0.0625 0.0064-0.0043-0.0687 0.03586-0.0625 0.03125 0.0062-0.0046-0.06843 0.06745-0.0625 0.0625 0.0059-0.0049-0.06814 0.06777-0.0625 0.0625 0.0056-0.0053-0.06784 0.03683-0.0625 0.03125 0.0053-0.0056-0.03627 0.06837-0.03125 0.0625 0.005-0.0059-0.06718 0.06864-0.0625 0.0625 0.0047-0.0061-0.06683 0.10015-0.0625 0.09375 0.0043-0.0064-0.03521 0.06913-0.03125 0.0625 0.004-0.0066-0.03484 0.06934-0.03125 0.0625 0.0036-0.0068-0.03445 0.06953-0.03125 0.0625 0.0032-0.007-0.03405 0.10095-0.03125 0.09375s-0.03364 0.06984-0.03125 0.0625c0.0024-0.0073-0.03323 0.10122-0.03125 0.09375 0.002-0.0075-0.0328 0.07006-0.03125 0.0625 0.0016-0.0076-0.0011 0.10139 0 0.09375 0.0011-0.0076-0.000699 0.10144 0 0.09375 0.000699-0.0077-0.03152 0.07022-0.03125 0.0625 0.000268-0.0077 0.000165 0.10147 0 0.09375-0.000165-0.0077 0.03185 0.10145 0.03125 0.09375-0.000597-0.0077 0.001 0.07015 0 0.0625-0.001-0.0077 0.0015 0.10134 0 0.09375-0.0015-0.0076 0.03313 0.06999 0.03125 0.0625 0.38198 1.5826 1.6916 2.3519 2.5938 2.8438 0.8815 0.48055 1.441 0.86923 1.5938 1.1562-0.06167 0.10704-0.18647 0.25507-0.25 0.5625-0.09505 0.45995-0.0093 0.88509 0.28125 1.3438 0.41087 0.64874 1.0678 0.85883 1.6562 0.96875 0.0094 0.0018 0.02189-0.0017 0.03125 0 0.03328 0.01827 0.1894 0.1423 0.34375 0.3125 0.14984 0.16524 0.2518 0.36172 0.28125 0.4375-0.0015 0.000918-0.05654 0.02241-0.15625 0.0625-0.01741 0.007-0.0096-0.0075-0.03125 0a0.94159 0.94159 0 0 0 -0.0625 0.03125 0.94159 0.94159 0 0 0 -0.09375 0c-0.42615 0.13634-0.88922 0.3109-1.2812 0.6875-0.56061 0.53854-0.76002 1.1873-0.4375 1.9688 0.0078 0.01897 0.02296 0.0129 0.03125 0.03125-0.99902 0.55818-2.2241 1.1281-3.4375 2.2188-0.01189 0.01069-0.01938 0.02046-0.03125 0.03125-0.02936 0.02699-0.06807 0.06805-0.0625 0.0625 0.0084-0.0083-0.10137 0.10276-0.09375 0.09375 0.0076-0.009-0.10057 0.10338-0.09375 0.09375 0.0068-0.0096-0.06847 0.10393-0.0625 0.09375 0.006-0.01018-0.06758 0.13565-0.0625 0.125 0.0051-0.01065-0.0354 0.1048-0.03125 0.09375 0.0041-0.01104-0.03444 0.13636-0.03125 0.125 0.0032-0.01136-0.03346 0.13659-0.03125 0.125 0.0022-0.01159-0.03246 0.13674-0.03125 0.125 0.0012-0.01174-0.000201 0.1368 0 0.125s0.000809 0.13677 0 0.125 0.0018 0.13666 0 0.125 0.03405 0.13646 0.03125 0.125 0.03502 0.13618 0.03125 0.125c-0.0038-0.01118 0.06721 0.13582 0.0625 0.125-0.0047-0.01082 0.06812 0.10412 0.0625 0.09375a0.94159 0.94159 0 0 0 0 0.03125l1.5625 2.6875c-0.0042-0.0073 0.03588 0.06956 0.03125 0.0625-0.0046-0.0071 0.06755 0.10051 0.0625 0.09375-0.0051-0.0068 0.06796 0.06894 0.0625 0.0625-0.0055-0.0064 0.06834 0.0686 0.0625 0.0625-0.0058-0.0061 0.06871 0.06823 0.0625 0.0625-0.0062-0.0057 0.06904 0.06784 0.0625 0.0625-0.0065-0.0053 0.06936 0.06743 0.0625 0.0625-0.0069-0.0049 0.1009 0.03575 0.09375 0.03125-0.0071-0.0045 0.06991 0.06655 0.0625 0.0625-0.0074-0.004 0.10139 0.03484 0.09375 0.03125-0.0076-0.0036 0.07035 0.03436 0.0625 0.03125-0.0078-0.0031 0.10178 0.03388 0.09375 0.03125-0.008-0.0026 0.10192 0.03338 0.09375 0.03125-0.0082-0.0021 0.10204 0.03288 0.09375 0.03125-0.0083-0.0016 0.07087 0.0011 0.0625 0-0.0084-0.0011 0.10217 0.03185 0.09375 0.03125-0.0084-0.000602 0.10219 0.000085 0.09375 0-0.0084-0.000085 0.10218-0.000432 0.09375 0-0.0084 0.000432 0.10214-0.0322 0.09375-0.03125-0.0084 0.000948 0.10207-0.0015 0.09375 0-0.0083 0.0015 0.10196-0.03322 0.09375-0.03125-0.0082 0.002 0.07058-0.0025 0.0625 0-0.0081 0.0025 0.10166-0.03421 0.09375-0.03125-0.0079 0.003 0.10146-0.03468 0.09375-0.03125-0.0077 0.0034 0.06999-0.0664 0.0625-0.0625-0.0075 0.0039 0.10099-0.0356 0.09375-0.03125-0.0072 0.0044 0.06946-0.06729 0.0625-0.0625-0.007 0.0048 0.1004-0.03645 0.09375-0.03125-0.0067 0.0052 0.06882-0.0681 0.0625-0.0625-0.0063 0.0056 0.06846-0.06848 0.0625-0.0625-0.006 0.006 0.06809-0.06883 0.0625-0.0625-0.0056 0.0063 0.06769-0.06916 0.0625-0.0625 1.0797-1.3856 2.0678-2.7157 3.1562-3.8438 0.04013-0.01021 0.06343-0.02303 0.125-0.03125 0.254-0.03389 0.65875-0.04667 1.0938-0.09375 0.22016-0.02382 0.50926-0.0686 0.8125-0.1875 0.36511-0.14316 0.89141-0.49244 1.0625-1.1562 0.159-0.623-0.07-1.195-0.282-1.531-0.05-0.079-0.132-0.145-0.188-0.219 0.06968-0.0518 0.11327-0.1015 0.1875-0.15625 0.35722-0.26348 0.98872-0.68874 1.2812-1.5312 0.19183-0.55248 0.18088-1.1442-0.1875-1.7188-0.2512-0.39176-0.55793-0.57615-0.84375-0.75 0.01154 0.01275 0.03021-0.000118-0.09375-0.09375-0.02314-0.02244-0.0072-0.02078-0.0625-0.0625-0.0056-0.0042-0.02564 0.0042-0.03125 0-0.61892-0.46668-1.5165-1.198-1.9688-1.7188-0.06346-0.07306-0.05557-0.02509-0.09375-0.09375-0.0021 0.0022-0.01119-0.01861 0-0.03125 0.01679-0.01896 0.03418-0.03474 0.03125-0.03125-0.0049 0.0058 0.06705-0.06858 0.0625-0.0625-0.0046 0.0061 0.03546-0.06882 0.03125-0.0625-0.0042 0.0063 0.06636-0.10029 0.0625-0.09375-0.0039 0.0065 0.03474-0.06924 0.03125-0.0625-0.0035 0.0067 0.03437-0.06943 0.03125-0.0625-0.0031 0.0069 0.03398-0.10084 0.03125-0.09375-0.0027 0.0071 0.03358-0.06973 0.03125-0.0625-0.0023 0.0072 0.03318-0.1011 0.03125-0.09375-0.0019 0.0073 0.0015-0.06994 0-0.0625-0.0015 0.0074 0.03236-0.10126 0.03125-0.09375 0.0514-0.3934-0.10229-0.65651-0.21875-0.9375 0.51397 0.0286 0.89638 0.12259 1.4375 0.09375 0.75157-0.04006 1.633-0.08352 2.4062-0.71875 0.58473-0.48039 0.85313-1.1336 0.625-1.9375-0.11293-0.39798-0.35372-0.56149-0.5625-0.78125 0.07738-0.08713 0.2293-0.28297 0.5-0.5625 0.31443-0.32468 0.83073-0.82171 1.0625-1.625 0.06157-0.21339-0.02739-0.41142-0.03125-0.625 0.26049 0.02354 0.60822-0.0401 0.9375-0.09375 1.2071 0.14385 2.4111-0.11913 3.3125-0.84375 0.71789-0.57713 1.0644-1.3922 1.25-2.25 0.36825-0.1877 0.74394-0.33785 1-0.6875 0.39844-0.54407 0.58233-1.0819 0.71875-1.4375 0.09349-0.24373 0.10594-0.25706 0.125-0.3125 0.45582 0.20356 1.0341 0.50862 1.75 0.625 0.24709 0.04017 0.54736 0.04078 0.8125 0 0.032-0.0049 0.3446-0.05203 0.65625-0.25 0.35657-0.2265 0.55916-0.46086 0.6875-0.875 0.19589-0.63214-0.07035-1.2546-0.21875-1.5-0.148-0.242-0.285-0.345-0.407-0.467-0.023-0.038-0.018-0.012-0.031-0.031-0.013-0.013-0.019-0.05-0.031-0.063-0.016-0.025-0.047-0.037-0.063-0.062-0.528-0.84-1.144-1.666-1.593-2.406-0.269-0.442-0.277-0.655-0.344-0.938 0.322-0.089 0.604-0.206 1.031-0.25 0.80588-0.08384 1.9017-0.16815 3.0312-0.78125a0.94159 0.94159 0 0 0 0.03125 0c-0.0078 0.0043 0.07-0.03604 0.0625-0.03125-0.0075 0.0048 0.10092-0.06776 0.09375-0.0625-0.0072 0.0053 0.06932-0.06821 0.0625-0.0625-0.0068 0.0057 0.06894-0.06864 0.0625-0.0625-0.0064 0.0061 0.06853-0.06904 0.0625-0.0625-0.006 0.0065 0.06809-0.06942 0.0625-0.0625-0.0056 0.0069 0.06763-0.10101 0.0625-0.09375-0.0051 0.0073 0.06715-0.07008 0.0625-0.0625-0.0047 0.0076 0.03541-0.10161 0.03125-0.09375-0.0042 0.0079 0.06614-0.10186 0.0625-0.09375-0.0036 0.0081 0.03436-0.07083 0.03125-0.0625-0.0031 0.0083 0.03382-0.10227 0.03125-0.09375-0.0026 0.0085 0.03326-0.10241 0.03125-0.09375-0.002 0.0087 0.0014-0.10253 0-0.09375-0.0014 0.0088 0.03213-0.1026 0.03125-0.09375-0.000879 0.0089 0.000307-0.10264 0-0.09375-0.000307 0.0089-0.000267-0.10264 0-0.09375 0.000267 0.0089-0.00084-0.1026 0-0.09375 0.00084 0.0089-0.03266-0.10253-0.03125-0.09375 0.0014 0.0088-0.002-0.10242 0-0.09375 0.002 0.0087-0.03378-0.10228-0.03125-0.09375 0.0025 0.0085-0.03432-0.1021-0.03125-0.09375 0.0031 0.0083-0.03486-0.10188-0.03125-0.09375 0.0036 0.0081-0.03537-0.10163-0.03125-0.09375 0.0041 0.0079-0.06712-0.0701-0.0625-0.0625 0.0046 0.0076-0.0676-0.10104-0.0625-0.09375 0.49158 0.53659 0.97225 1.0619 1.5625 1.5a0.94159 0.94159 0 0 0 0.09375 0.0625c-0.0093-0.0055 0.10343 0.03609 0.09375 0.03125-0.0048-0.0024 0.0055 0.01951 0.03125 0.03125-0.25851-0.12812-0.11611-0.05425-0.0625 0s0.11748 0.11877 0.1875 0.21875c0.16625 0.23739 0.41094 0.64736 0.6875 1.0312 0.22102 0.30679 0.62201 0.90449 1.4062 1.125 0.54391 0.15293 1.036 0.0698 1.5-0.25 0.23515-0.16207 0.28296-0.26557 0.375-0.40625 0.07129 0.05828 0.08625 0.05526 0.21875 0.21875 0.25142 0.31023 0.56449 0.79617 1.0312 1.25 0.4655 0.45261 1.1905 0.9626 2.1562 0.96875 0.48916-0.0055 0.48896 0.05443 0.53125 0.125 0.03999 0.06673 0.12108 0.31258-0.0625 0.75-0.01 0.02233-0.03382 0.06865-0.03125 0.0625 0.0034-0.0082-0.03419 0.10213-0.03125 0.09375 0.0029-0.0084-0.0024 0.07104 0 0.0625 0.0024-0.0085-0.03318 0.10242-0.03125 0.09375 0.0019-0.0087-0.03267 0.07127-0.03125 0.0625 0.0014-0.0088-0.000904 0.10258 0 0.09375 0.000904-0.0088-0.000383 0.10262 0 0.09375a0.94159 0.94159 0 0 0 0 0.0625c0.01114 0.33736 0.05158 0.10514 0.03125 0.125 0.05881-0.05747-0.09419 0.06619-0.4375 0.15625-0.60406 0.15846-1.9332 0.19846-3.0625 1.125a0.94159 0.94159 0 0 0 -0.028 0.033c0.0067-0.0061-0.03314 0.03334-0.0625 0.0625-0.0073 0.0073-0.02723-0.0039-0.03125 0 0.0685-0.07043-0.02974 0.01801-0.28125 0.09375s-0.62877 0.16144-1.0312 0.28125c-0.40314 0.12-0.99959 0.34033-1.4688 0.90625-0.20234 0.24408-0.17133 0.51698-0.25 0.78125-0.28799 0.09051-0.58406 0.18296-1.0625 0.21875-0.72905 0.05454-1.7208 0.0577-2.7188 0.59375 0.0087-0.0046-0.10213 0.06769-0.09375 0.0625 0.0084-0.0052-0.07053 0.06823-0.0625 0.0625 0.008-0.0057-0.10138 0.03749-0.09375 0.03125 0.0076-0.0062-0.06971 0.06923-0.0625 0.0625 0.0072-0.0067-0.06926 0.06968-0.0625 0.0625 0.0068-0.0072-0.06878 0.10136-0.0625 0.09375 0.0063-0.0076-0.06826 0.0705-0.0625 0.0625 0.0058-0.008-0.03648 0.10211-0.03125 0.09375 0.0052-0.0084-0.06717 0.07118-0.0625 0.0625 0.0047-0.0087-0.03535 0.10272-0.03125 0.09375 0.0041-0.009-0.03475 0.10297-0.03125 0.09375 0.0035-0.0092-0.03415 0.07193-0.03125 0.0625 0.0029-0.0094-0.03352 0.10334-0.03125 0.09375 0.0023-0.0096-0.0329 0.10347-0.03125 0.09375 0.0016-0.0097-0.001 0.10356 0 0.09375 0.001-0.0098-0.000365 0.1036 0 0.09375 0.000365-0.0099 0.000279 0.10361 0 0.09375-0.000279-0.0099 0.000921 0.10357 0 0.09375-0.000921-0.0098 0.0016 0.10349 0 0.09375-0.0016-0.0097 0.03344 0.10336 0.03125 0.09375-0.0022-0.0096 0.0028 0.1032 0 0.09375-0.0028-0.0095 0.03467 0.103 0.03125 0.09375-0.0034-0.0092 0.06652 0.0715 0.0625 0.0625-0.004-0.009 0.03585 0.10247 0.03125 0.09375-0.0046-0.0087 0.03641 0.10215 0.03125 0.09375-0.0052-0.0084 0.0682 0.07055 0.0625 0.0625-0.0057-0.008 0.06871 0.10141 0.0625 0.09375-0.0062-0.0077 0.06919 0.06974 0.0625 0.0625-0.0067-0.0072 0.06965 0.06929 0.0625 0.0625-0.0072-0.0068 0.07008 0.06881 0.0625 0.0625-0.0076-0.0063 0.07048 0.0683 0.0625 0.0625-0.008-0.0058 0.10209 0.03652 0.09375 0.03125a0.94159 0.94159 0 0 0 0.031 0.032c0.90305 0.53318 1.8127 0.50818 2.4062 0.53125 0.51532 0.02003 0.80372 0.12036 0.9375 0.1875 0.47366 0.80654 1.0275 1.6169 1.7812 2.4062 0.07345 1.0704 0.4554 2.0347 1.2188 2.6562 0.71116 0.57902 1.5067 0.81233 2.25 1.0312 0.14696 0.31021 0.26699 0.64447 0.65625 0.9375 0.50738 0.38195 1.0945 0.5532 1.625 0.59375 0.76408 0.05841 1.3379-0.12522 1.875-0.25 0.75646 0.38378 1.5087 1.143 1.7188 1.8438-0.01313 0.42696-0.18168 0.978-0.46875 1.7188-0.31358 0.80915-0.72284 1.902-0.5 3.1875-0.0017-0.01046 0.03367 0.10407 0.03125 0.09375-0.0024-0.01032 0.03439 0.10387 0.03125 0.09375-0.0031-0.01012 0.03509 0.10363 0.03125 0.09375-0.0038-0.0099 0.03577 0.10333 0.03125 0.09375-0.0045-0.0096 0.06768 0.10299 0.0625 0.09375-0.0052-0.0092 0.03707 0.10261 0.03125 0.09375-0.0058-0.0089 0.06893 0.07093 0.0625 0.0625-0.0064-0.0084 0.0695 0.10171 0.0625 0.09375-0.007-0.008 0.07004 0.06995 0.0625 0.0625-0.0075-0.0074 0.10179 0.0694 0.09375 0.0625-0.008-0.0069 0.07101 0.06882 0.0625 0.0625-0.0085-0.0063 0.10268 0.06821 0.09375 0.0625-0.0089-0.0057 0.10306 0.06757 0.09375 0.0625-0.0093-0.0051 0.07214 0.03565 0.0625 0.03125-0.0096-0.0044 0.10368 0.03496 0.09375 0.03125-0.0099-0.0037 0.10391 0.03426 0.09375 0.03125-0.01016-0.003 0.13535 0.03354 0.125 0.03125-0.01035-0.0023 0.10423 0.03281 0.09375 0.03125-0.01048-0.0016 0.10432 0.000822 0.09375 0-0.01056-0.000822 0.10435 0.000079 0.09375 0s0.10433-0.000664 0.09375 0 0.10425-0.0014 0.09375 0 0.13538-0.03339 0.125-0.03125c-0.01038 0.0021 0.10395-0.0029 0.09375 0s0.10373-0.03482 0.09375-0.03125c-0.01 0.0036 0.10345-0.06676 0.09375-0.0625-0.0097 0.0043 0.10313-0.03618 0.09375-0.03125-0.0094 0.0049 0.07151-0.06807 0.0625-0.0625-0.009 0.0056 0.10235-0.03744 0.09375-0.03125-0.0086 0.0062 0.1019-0.06928 0.09375-0.0625-0.0081 0.0068 0.07015-0.06983 0.0625-0.0625-0.0077 0.0073 0.06962-0.1016 0.0625-0.09375 0.63961-0.70466 0.72692-1.4667 0.90625-1.9688 0.19681-0.55096 0.55992-1.0558 0.53125-1.0312 0.01757-0.0153 0.0347-0.03441 0.03125-0.03125-0.0057 0.0053 0.06797-0.06805 0.0625-0.0625-0.0055 0.0056 0.03643-0.06833 0.03125-0.0625-0.0052 0.0058 0.06737-0.03734 0.0625-0.03125-0.0049 0.0061 0.0358-0.06883 0.03125-0.0625-0.0023 0.0032 0.01978-0.01439 0.03125-0.03125 0.09101 0.0034 0.33922 0.0021 0.75 0a0.94159 0.94159 0 0 0 0.222 -0.029c-0.0075 0.0017 0.06988-0.002 0.0625 0 0.10257-0.02072 0.188-0.02664 0.28125-0.03125-0.0063 0.02958-0.0012 0.06906 0 0.0625 0.0018-0.0098-0.03237 0.10368-0.03125 0.09375a0.94159 0.94159 0 0 0 0 0.03125c-0.15409 1.9136 0.16071 3.701 0.5 5.375-0.0011 0.0094 0.0011 0.02173 0 0.03125-0.0011 0.0095 0.001 0.02162 0 0.03125-0.02835 0.2602-0.07829 0.51583-0.03125 0.84375 0.07409 0.51647 0.24628 0.97906 0.375 1.3438 0.04734 0.13411 0.07832 0.37138 0.25 0.65625 0.12479 0.20708 0.24283 0.30906 0.34375 0.40625 0.09755 0.09395 0.45015 0.3968 0.9375 0.4375 0.66685 0.05569 1.0253-0.2402 1.2812-0.53125 0.17872-0.20323 0.30121-0.49567 0.34375-0.625 0.07383-0.22444 0.09641-0.48801 0.125-0.78125 0.0046-0.04763 0.0281-0.07554 0.03125-0.125a0.94159 0.94159 0 0 0 -0.03125 -0.25 0.94159 0.94159 0 0 0 0 -0.03125c0.34966-2.2438-0.07267-4.3015-0.34375-6.125 0.000337 0.003 0.0019-0.01869 0-0.03125-0.0044-0.0293-0.03249-0.06938-0.03125-0.0625 0.0018 0.0098-0.0024-0.10345 0-0.09375s-0.03431-0.10326-0.03125-0.09375c0.000918 0.0029 0.0043-0.01931 0-0.03125 0.16877-0.14136 0.76431-0.40206 1.3438-0.9375-0.0079 0.0074 0.10113-0.0704 0.09375-0.0625-0.0074 0.0079 0.0693-0.10216 0.0625-0.09375-0.0068 0.0084 0.06868-0.07137 0.0625-0.0625-0.0062 0.0089 0.06803-0.10304 0.0625-0.09375-0.0055 0.0093 0.0361-0.10341 0.03125-0.09375-0.0049 0.0097 0.06665-0.10373 0.0625-0.09375-0.0041 0.01 0.03467-0.104 0.03125-0.09375-0.0034 0.01026 0.03393-0.10422 0.03125-0.09375-0.0027 0.01047 0.0019-0.10439 0-0.09375s0.03241-0.13575 0.03125-0.125c-0.0012 0.01075 0.00039-0.10456 0-0.09375s-0.000384-0.10456 0-0.09375-0.0012-0.1045 0-0.09375-0.03317-0.13564-0.03125-0.125c0.0019 0.01064-0.0027-0.10422 0-0.09375s-0.03467-0.10401-0.03125-0.09375c0.0034 0.01026-0.03539-0.10374-0.03125-0.09375 0.0041 0.01-0.06735-0.10341-0.0625-0.09375 0.0048 0.0097-0.03678-0.10304-0.03125-0.09375 0.0055 0.0093-0.06868-0.10262-0.0625-0.09375 0.0062 0.0089-0.06929-0.07091-0.0625-0.0625 0.0068 0.0084-0.06988-0.10165-0.0625-0.09375 0.0074 0.0079-0.07043-0.06985-0.0625-0.0625 0.0079 0.0074-0.10218-0.06927-0.09375-0.0625 0.0084 0.0068-0.10264-0.06865-0.09375-0.0625 0.0089 0.0061-0.07181-0.068-0.0625-0.0625 0.0093 0.0055-0.10343-0.03607-0.09375-0.03125 0.0097 0.0048-0.10375-0.06661-0.09375-0.0625 0.01 0.0041-0.10402-0.03464-0.09375-0.03125 0.01027 0.0034-0.10423-0.0339-0.09375-0.03125 0.01048 0.0026-0.13564-0.03314-0.125-0.03125 0.0071 0.0013-0.03012 0.0046-0.0625 0-0.01876-0.0023-0.01337 0.0026-0.03125 0-0.3719-0.0537-0.58943-0.18366-0.59375-0.1875-0.07356-0.06549-0.05133 0.08767-0.0625-0.3125a0.94159 0.94159 0 0 0 0 -0.09375c0.000906 0.0076-0.0013-0.07009 0-0.0625 0.0013 0.0076-0.03293-0.07001-0.03125-0.0625 0.0017 0.0075-0.0021-0.06992 0-0.0625 0.0021 0.0074-0.03368-0.10105-0.03125-0.09375 0.0024 0.0073-0.03405-0.06967-0.03125-0.0625 0.0028 0.0072-0.03441-0.06952-0.03125-0.0625 0.0013 0.0028 0.0067-0.01744 0-0.03125-0.0051-0.01182-0.02619-0.01941-0.03125-0.03125 0.0035 0.0068-0.03511-0.06916-0.03125-0.0625-0.062-0.146-0.112-0.288-0.218-0.468-0.0041-0.0069-0.31836-0.51825-0.75-0.71875-0.52871-0.24561-0.86388-0.18055-1.3125 0.0625-0.33805 0.18314-0.5652 0.44999-0.65625 0.625-0.13195 0.25365-0.18056 0.5551-0.1875 0.59375-0.0031 0.01724 0.0028 0.01465 0 0.03125-0.33597 0.05698-0.76843 0.12068-0.90625 0.125-0.0013-0.0098-0.000504-0.03405 0-0.03125 0.0021 0.01192-0.0031-0.10546 0-0.09375s-0.03527-0.13642-0.03125-0.125c0.004 0.01142-0.06742-0.10482-0.0625-0.09375 0.0049 0.01107-0.03704-0.10439-0.03125-0.09375 0.0058 0.01064-0.06912-0.10389-0.0625-0.09375 0.0066 0.01014-0.06991-0.10333-0.0625-0.09375 0.007 0.009-0.102-0.103-0.094-0.094a0.94159 0.94159 0 0 0 -0.0625 -0.0625c-0.0047-0.0043-0.16289-0.23638-0.3125-0.59375s-0.29942-0.83986-0.5-1.3125c-0.20771-0.48942-0.52516-1.1187-1.1875-1.5625-0.69029-0.46248-1.5995-0.50156-2.4375-0.21875v-0.03125c0.0021-0.000683-0.02519-0.0023-0.03125 0-0.09347-0.24685-0.2017-0.47242-0.25-0.75a0.94159 0.94159 0 0 0 -0.03125 -0.0625c0.003 0.0118-0.03518-0.13652-0.03125-0.125 0.0039 0.01152-0.0361-0.10491-0.03125-0.09375 0.0048 0.01116-0.06823-0.13574-0.0625-0.125 0.0057 0.01074-0.06907-0.10399-0.0625-0.09375 0.0066 0.01024-0.06988-0.10343-0.0625-0.09375 0.0074 0.0097-0.07063-0.1028-0.0625-0.09375 0.0081 0.0091-0.10258-0.07087-0.09375-0.0625 0.0088 0.0084-0.07198-0.10138-0.0625-0.09375 0.0095 0.0076-0.10381-0.06934-0.09375-0.0625 0.01006 0.0068-0.13558-0.06851-0.125-0.0625 0.01058 0.006-0.10478-0.06764-0.09375-0.0625 0.01103 0.0051-0.10516-0.03549-0.09375-0.03125 0.01141 0.0042-0.13671-0.03455-0.125-0.03125s-0.10569-0.0336-0.09375-0.03125c0.01194 0.0024-0.13709-0.03263-0.125-0.03125 0.01209 0.0014-0.13716-0.000405-0.125 0s-0.10591 0.000575-0.09375 0-0.13707 0.0016-0.125 0-0.13691 0.03377-0.125 0.03125c0.01191-0.0025-0.10542 0.03472-0.09375 0.03125 0.01167-0.0035-0.13635 0.03565-0.125 0.03125s-0.10471 0.06779-0.09375 0.0625c0.01096-0.0053-0.10425 0.03741-0.09375 0.03125 0.0105-0.0062-0.10372 0.06948-0.09375 0.0625 0.01-0.007-0.10312 0.10151-0.09375 0.09375 0.0094-0.0078-0.10247 0.07099-0.09375 0.0625 0.0087-0.0085-0.10176 0.10292-0.09375 0.09375 0.008-0.0092-0.06974 0.10353-0.0625 0.09375 0.0072-0.0098-0.06893 0.10408-0.0625 0.09375 0.0064-0.01033-0.06808 0.10456-0.0625 0.09375 0.0056-0.01081-0.03594 0.10498-0.03125 0.09375 0.0047-0.01123-0.06627 0.13657-0.0625 0.125a0.94159 0.94159 0 0 0 0 0.03125c0.0077-0.02663-0.01402 0.05081-0.125 0.125-0.05994 0.04007-0.11975 0.04028-0.1875 0.0625-0.000524-0.01498-0.000232-0.03454 0-0.03125 0.000695 0.0099-0.0013-0.10357 0-0.09375 0.0013 0.0098-0.03323-0.10346-0.03125-0.09375 0.002 0.0097-0.0026-0.10331 0-0.09375 0.0026 0.0096-0.03448-0.10311-0.03125-0.09375 0.0032 0.0094-0.03509-0.10288-0.03125-0.09375 0.0038 0.0091-0.06693-0.07136-0.0625-0.0625 0.0044 0.0089-0.03625-0.1023-0.03125-0.09375 0.005 0.0086-0.06805-0.10196-0.0625-0.09375 0.0056 0.0082-0.03733-0.07032-0.03125-0.0625 0.0061 0.0078-0.06908-0.06991-0.0625-0.0625 0.0066 0.0074-0.06955-0.10071-0.0625-0.09375 0.007 0.007-0.10124-0.06898-0.09375-0.0625 0.0075 0.0065-0.0704-0.03723-0.0625-0.03125 0.0079 0.006-0.07077-0.06795-0.0625-0.0625-0.296-0.19866-0.48277-0.40999-0.6875-0.78125s-0.41468-0.90272-0.75-1.5a0.94159 0.94159 0 0 0 -0.031 -0.032c0.0044 0.0068-0.03602-0.06908-0.03125-0.0625 0.0048 0.0066-0.06762-0.06881-0.0625-0.0625 0.0051 0.0063-0.0367-0.06853-0.03125-0.0625 0.0055 0.006-0.06827-0.06823-0.0625-0.0625 0.0058 0.0057-0.06857-0.06791-0.0625-0.0625 0.0061 0.0054-0.06885-0.03633-0.0625-0.03125 0.0063 0.0051-0.06911-0.06723-0.0625-0.0625 0.004 0.0028-0.01113-0.01764-0.03125-0.03125 0.04398-0.07362 0.04499-0.08588 0.09375-0.15625 1.5717-0.54392 3.1689-1.1449 4.7188-1.9375a0.94159 0.94159 0 0 0 0.032 -0.032c-0.0091 0.0051 0.07119-0.03693 0.0625-0.03125-0.0033 0.0022 0.01527-0.01996 0.03125-0.03125 0.07165 0.07304 0.1101 0.13965 0.1875 0.21875a0.94159 0.94159 0 0 0 0.03125 0.03125c-0.008-0.0076 0.1023 0.06951 0.09375 0.0625-0.0085-0.007 0.07154 0.06886 0.0625 0.0625-0.009-0.0064 0.10323 0.06819 0.09375 0.0625-0.0095-0.0057 0.10362 0.06748 0.09375 0.0625-0.0099-0.005 0.10395 0.03549 0.09375 0.03125-0.0102-0.0042 0.10424 0.03474 0.09375 0.03125-0.01049-0.0035 0.13571 0.03396 0.125 0.03125-0.01071-0.0027 0.10463 0.03317 0.09375 0.03125-0.01088-0.0019 0.10474 0.0011 0.09375 0-0.011-0.0011 0.1048 0.000313 0.09375 0s0.13604-0.000495 0.125 0 0.10472-0.0013 0.09375 0c-0.01098 0.0013 0.1046-0.0021 0.09375 0s0.13567-0.03414 0.125-0.03125c-0.01067 0.0029 0.10418-0.03491 0.09375-0.03125-0.01043 0.0037 0.10388-0.03566 0.09375-0.03125 0.7697-0.33843 1.2356-1.0246 1.375-1.7188 0.11666-0.58103 0.05432-1.1013-0.03125-1.5625-0.08-0.435-0.207-0.876-0.28-1.218-0.0667-0.30879-0.0874-0.53399-0.09375-0.5625 0.02455-0.23572 0.02297-0.24862 0-0.03125 0.000766-0.0072-0.000791-0.0239 0-0.03125 0.07202-0.66902 0.23838-1.7366-0.03125-2.8438-0.145-0.593-0.476-1.275-1.157-1.719-0.212-0.138-0.436-0.161-0.656-0.218-0.0072 0.0019 0.06955-0.03354 0.0625-0.03125-0.0071 0.0023 0.06943-0.03388 0.0625-0.03125-0.0069 0.0026 0.06929-0.03422 0.0625-0.03125-0.0068 0.003 0.06914-0.03455 0.0625-0.03125-0.0066 0.0033 0.06897-0.03487 0.0625-0.03125-0.0065 0.0036 0.06879-0.03518 0.0625-0.03125-0.0063 0.0039 0.06858-0.03549 0.0625-0.03125-0.0061 0.0042 0.06837-0.03578 0.0625-0.03125-0.0059 0.0045 0.06814-0.06731 0.0625-0.0625-0.0056 0.0048 0.03665-0.03633 0.03125-0.03125-0.0054 0.0051 0.06764-0.06784 0.0625-0.0625-0.0051 0.0053 0.03612-0.03684 0.03125-0.03125-0.0049 0.0056 0.06709-0.06832 0.0625-0.0625-0.0046 0.0058 0.03555-0.06854 0.03125-0.0625-0.0043 0.006 0.0665-0.06874 0.0625-0.0625-0.004 0.0062 0.03494-0.06893 0.03125-0.0625-0.0037 0.0064 0.03462-0.0691 0.03125-0.0625-0.0034 0.0066 0.03429-0.06926 0.03125-0.0625-0.003 0.0068 0.03396-0.0694 0.03125-0.0625-0.0027 0.0069 0.0024-0.06953 0-0.0625-0.0024 0.007 0.03327-0.06963 0.03125-0.0625-0.002 0.0071 0.03292-0.06972 0.03125-0.0625-0.0017 0.0072 0.0013-0.0698 0-0.0625s0.000949-0.1011 0-0.09375c-0.000949 0.0074 0.03184-0.06989 0.03125-0.0625-0.000587 0.0074 0.000223-0.06991 0-0.0625-0.000223 0.0074-0.00014-0.06991 0-0.0625 0.00014 0.0074-0.000504-0.10115 0-0.09375s-0.03212-0.06986-0.03125-0.0625c0.000866 0.0074-0.0012-0.06981 0-0.0625 0.0012 0.0073-0.0016-0.06974 0-0.0625 0.0016 0.0072-0.03319-0.06966-0.03125-0.0625 0.0019 0.0072-0.0023-0.1008 0-0.09375 0.0023 0.0071-0.03388-0.06943-0.03125-0.0625 0.0026 0.0069-0.03422-0.06929-0.03125-0.0625 0.003 0.0068-0.03455-0.06914-0.03125-0.0625 0.0033 0.0066-0.03487-0.06897-0.03125-0.0625 0.0036 0.0065-0.03518-0.06879-0.03125-0.0625 0.0039 0.0063-0.03549-0.06858-0.03125-0.0625 0.0042 0.0061-0.06703-0.03712-0.0625-0.03125 0.0045 0.0059-0.03606-0.06814-0.03125-0.0625 0.0048 0.0056-0.06758-0.0679-0.0625-0.0625 0.0051 0.0054-0.03659-0.03639-0.03125-0.03125 0.0053 0.0051-0.06809-0.06737-0.0625-0.0625 0.0056 0.0049-0.06832-0.03584-0.0625-0.03125 0.0058 0.0046-0.03729-0.0668-0.03125-0.0625 0.006 0.0043-0.06874-0.03525-0.0625-0.03125 0.0062 0.004-0.06893-0.03494-0.0625-0.03125 0.0064 0.0037-0.0691-0.03462-0.0625-0.03125 0.0066 0.0034-0.06926-0.03429-0.0625-0.03125 0.0068 0.003-0.0694-0.03396-0.0625-0.03125 0.0069 0.0027-0.06953-0.03361-0.0625-0.03125 0.007 0.0024-0.10088-0.03327-0.09375-0.03125 0.0071 0.002-0.06972-0.0017-0.0625 0 0.0072 0.0017-0.0698-0.03256-0.0625-0.03125 0.0073 0.0013-0.06985-0.000949-0.0625 0-1.381-0.36003-2.6806-0.27138-3.7812-0.1875-1.1292 0.08605-2.1266 0.12179-2.5625 0a0.94159 0.94159 0 0 0 -0.03125 0c0.0083 0.0019-0.10216-0.03269-0.09375-0.03125 0.0084 0.0014-0.07098-0.000962-0.0625 0 0.0085 0.000962-0.10227-0.000482-0.09375 0 0.0085 0.000482-0.07103-0.03125-0.0625-0.03125 0.0085 0-0.10227 0.03173-0.09375 0.03125 0.0085-0.000482-0.10223 0.000962-0.09375 0 0.0085-0.000962-0.07091 0.0014-0.0625 0 0.005-0.000863-0.03749-0.005-0.0625 0-0.368 0.07541-0.57531 0.10136-0.65625 0.09375-0.08094-0.0076-0.03848-0.01059-0.125-0.0625-0.06691-0.04015-0.50441-0.46061-1.125-1.0625l-0.032-0.032c-0.084-0.239-0.079-0.471-0.375-0.75-0.38738-0.3653-0.84171-0.55311-1.1562-0.65625-0.5565-0.18248-0.79902-0.29795-0.75-0.25-0.0045-0.0036-0.02947-0.02958-0.03125-0.03125-0.17784-0.20372-0.39192-0.39268-0.59375-0.59375-0.14317-0.14264-0.2725-0.25483-0.40625-0.375-0.01588-0.01427-0.01515-0.04841-0.03125-0.0625-0.05847-0.14151-0.0325-0.07335-0.03125-0.0625-0.01628-0.02502-0.02638-0.02367-0.03125-0.03125-0.0037-0.0075-0.0014-0.0337 0-0.03125 0.0068 0.01223-0.10165-0.13655-0.09375-0.125s-0.07144-0.10452-0.0625-0.09375c0.0089 0.01077-0.10364-0.10364-0.09375-0.09375 0.0099 0.0099-0.10452-0.10269-0.09375-0.09375 0.01077 0.0089-0.1053-0.0704-0.09375-0.0625s-0.13723-0.10055-0.125-0.09375-0.1378-0.06814-0.125-0.0625v0.02c0.18366 0.08327-0.1093-0.1167-0.40625-0.15625-0.04803-0.0064-0.23825-0.03528-0.4375 0-0.19959 0.03534-0.40097 0.11137-0.625 0.28125-0.42253 0.32042-0.53499 0.75738-0.5625 1-0.01635 0.14456-0.02913 0.241 0 0.40625a0.94159 0.94159 0 0 0 0.3125 0.53125 0.94159 0.94159 0 0 0 0.03125 0.03125 0.94159 0.94159 0 0 0 0 0.0625 0.94159 0.94159 0 0 0 0.09375 0.1875c0.0042 0.01097 0.02448 0.01772 0.03125 0.03125 0.002 0.0082 0.02697 0.02044 0.03125 0.03125 0.0038 0.0079-0.0038 0.02332 0 0.03125 0.03209 0.04722-0.0011 0.02621 0.0625 0.09375 0.01256 0.02563 0.04977 0.03694 0.0625 0.0625 0.44584 0.89554 0.98037 1.7566 1.625 2.5312 0.01897 0.02279 0.04336 0.03984 0.0625 0.0625-0.025-0.017-0.068-0.035-0.063-0.031a0.94159 0.94159 0 0 0 0 -0.03125c-1.1653-0.73038-2.3907-0.43324-3.3125-0.375-0.93293 0.05894-1.8003-0.009-2.0312-0.09375a0.94159 0.94159 0 0 0 -0.0625 0 0.94159 0.94159 0 0 0 -0.094 -0.063c-0.000299-0.000821-0.03094 0.000852-0.03125 0-0.02847-0.0792-0.03468-0.26605-0.09375-0.5625-0.06448-0.32364-0.16797-1.0501-0.78125-1.625-0.5389-0.50515-1.2381-0.63774-1.9375-0.65625-0.84319-0.34626-1.7192-0.53877-2.1875-0.71875-0.002-0.000764 0.002-0.03049 0-0.03125-0.0038 0.0063 0.06591-0.06903 0.0625-0.0625a0.94159 0.94159 0 0 0 0.03125 -0.0625c0.71831-1.7058 1.143-3.0899 2.125-3.9375a0.94159 0.94159 0 0 0 0.21875 -0.3125 0.94159 0.94159 0 0 0 0.03125 -0.0625c0.51482-0.49973 0.94454-1.0572 1.25-1.6562 0.40335-0.79101 0.74954-1.6625 1.0938-2.375-0.0041 0.0085 0.03475-0.10249 0.03125-0.09375-0.0035 0.0087 0.06539-0.1027 0.0625-0.09375-0.0029 0.009 0.0023-0.10288 0-0.09375-0.0023 0.0091 0.0329-0.10301 0.03125-0.09375-0.0016 0.0093 0.03226-0.1031 0.03125-0.09375-0.001 0.0094 0.000369-0.10315 0-0.09375s-0.000273-0.1344 0-0.125-0.000914-0.10312 0-0.09375c0.000914 0.0094-0.0328-0.10303-0.03125-0.09375 0.0016 0.0093-0.0022-0.1029 0-0.09375 0.0022 0.0092-0.03405-0.10273-0.03125-0.09375 0.0028 0.009-0.03466-0.10252-0.03125-0.09375 0.0034 0.0088-0.0665-0.10227-0.0625-0.09375 0.004 0.0085-0.03582-0.10198-0.03125-0.09375 0.0046 0.0082-0.06762-0.10164-0.0625-0.09375 0.0051 0.0079-0.06815-0.10128-0.0625-0.09375 0.006 0.008-0.069-0.069-0.063-0.062l-0.062-0.062c0.0066 0.0067-0.06956-0.09997-0.0625-0.09375 0.0071 0.0062-0.10122-0.06823-0.09375-0.0625 0.0075 0.0057-0.07034-0.0677-0.0625-0.0625 0.0078 0.0052-0.10193-0.03591-0.09375-0.03125 0.0082 0.0047-0.10222-0.06659-0.09375-0.0625 0.0085 0.0041-0.10248-0.03475-0.09375-0.03125 0.0087 0.0035-0.1027-0.03415-0.09375-0.03125 0.009 0.0029-0.10288-0.03353-0.09375-0.03125 0.0091 0.0023-0.10301-0.0329-0.09375-0.03125 0.0093 0.0016-0.1031-0.001-0.09375 0 0.0094 0.001-0.10315-0.000374-0.09375 0 0.0071 0.00028-0.06466 0.000283-0.09375 0 0.0027 0.000161-0.01746 0.000382-0.03125 0 0.0063-0.000179-0.03075-0.0019-0.0625 0 0.0027 0-0.01746-0.000435-0.03125 0 0.0062-0.000606-0.03095-0.0041-0.0625 0a0.94159 0.94159 0 0 0 -0.03125 0 0.94159 0.94159 0 0 0 -0.0625 0zm6.0312 10.625c-0.003 0.01267 0.03629 0.09884 0.03125 0.125h-0.031c-0.0012-0.05297-0.0024-0.10185 0-0.125zm0.625 0.28125-0.28125 0.21875v-0.09375l0.28125-0.125zm-13.781 21.438h0.03125c0.0053 0.0069-0.0052 0.02377 0 0.03125-0.0037-0.0034-0.02755 0.0034-0.03125 0-0.0052-0.0047 0.0051-0.02659 0-0.03125z" fill="url(#w)"/>
  <path opacity=".1" d="m125.95 70.733a35.677 22.05 0 0 1 -71.353 0 35.677 22.05 0 1 1 71.353 0z" fill="url(#f)"/>
  <path opacity=".3" d="m54.094 15.5c-1.259 0-2.334 0.69184-2.9062 1.7188-1.9182 0.13278-3.6115 1.0249-4.7812 2.4062-0.53405-0.72001-1.3784-1.1875-2.3438-1.1875-1.6188 0-2.9375 1.3187-2.9375 2.9375 0 0.44432 0.10432 0.84141 0.28125 1.2188-1.5885 0.35705-2.7812 1.7412-2.7812 3.4375 0 1.9656 1.5656 3.5625 3.5312 3.5625 1.5444 0 2.8512-0.99995 3.3438-2.375 1.141 2.241 3.467 3.781 6.155 3.781 1.0952 0 2.1424-0.26513 3.0625-0.71875 0.57196 0.52723 1.3483 0.84375 2.1875 0.84375 1.6569 0 2.9848-1.2636 3.1562-2.875 0.30913 0.04735 0.61513 0.09375 0.9375 0.09375 1.5171 0 2.9214-0.56524 4-1.4688 0.71605 0.81008 1.7713 1.3125 2.9375 1.3125 2.1584 0 3.9062-1.7479 3.9062-3.9062 0-2.1584-1.7479-3.9062-3.9062-3.9062-0.31601 0-0.64322 0.0542-0.9375 0.125-0.71569-2.64-3.1335-4.5938-6-4.5938-1.5007 0-2.8639 0.55146-3.9375 1.4375-0.552-1.092-1.661-1.844-2.968-1.844z" fill="url(#j)"/>
  <path opacity=".2" d="m72.938 2.6562c-3.5005 0-6.464 2.1862-7.625 5.2812-2.9227 0.05208-5.2812 2.4399-5.2812 5.375 0 2.9677 2.4073 5.375 5.375 5.375 1.1753 0 2.2405-0.3911 3.125-1.0312 1.2736 0.82112 2.7782 1.3125 4.4062 1.3125 0.41217 0 0.82299-0.03481 1.2188-0.09375 0.4608 0.55836 1.157 0.9375 1.9375 0.9375 1.11 0 2.0426-0.72039 2.375-1.7188 0.573 0.1721 1.1834 0.28125 1.8125 0.28125 3.4688 0 6.2812-2.8125 6.2812-6.2812 0-2.9051-1.9776-5.3448-4.6562-6.0625 0.02473-0.15323 0.0625-0.30854 0.0625-0.46875 0-1.6188-1.3187-2.9062-2.9375-2.9062-0.86619 0-1.6509 0.37137-2.1875 0.96875-1.157-0.6279-2.497-0.9682-3.906-0.9682z" fill="url(#k)"/>
  <path opacity=".5" d="m68.812 20.156c2.1969 0 4 1.7719 4 3.9688 0 0.74779-0.2349 1.4337-0.59375 2.0312 0.39647 0.46247 0.79097 0.9255 1.125 1.4375 0.68153-0.13582 1.4015-0.1875 2.125-0.1875 2.3423 0 4.4861 0.73926 6.2188 2 1.1746-2.4369 3.5287-4.0938 6.25-4.0938 3.8928 0 7.0625 3.3927 7.0625 7.5938 0 1.9117-0.67101 3.6637-1.75 5 1.4288 1.6503 2.3125 3.7998 2.3125 6.125 0 5.2417-4.3854 9.4688-9.7812 9.4688-1.8794 0-3.6351-0.51283-5.125-1.4062-1.1591 1.3147-2.6697 2.3513-4.375 2.9062-2.5789 2.6941-6.226 4.375-10.25 4.375-4.2967 0-8.152-1.917-10.75-4.9375-1.905-0.36612-3.6277-1.2715-5.0312-2.5-0.15556 0.01128-0.31031 0.03125-0.46875 0.03125-2.1099 0-3.9859-1.0224-5.1562-2.5938-0.34661 0.04367-0.70314 0.09375-1.0625 0.09375-4.3553 0-7.875-3.3208-7.875-7.4062 0-4.0855 3.5197-7.4062 7.875-7.4062 0.08406 0 0.16657 0.0288 0.25 0.03125 0.13822-2.2711 2.0844-4.0625 4.5-4.0625 0.05453 0 0.10219 0.02943 0.15625 0.03125 1.8914-5.4662 7.0468-9.375 13.156-9.375 1.3663 0 2.6895 0.19651 3.9375 0.5625 0.71942-1.026 1.9018-1.6875 3.25-1.6875z" fill="url(#l)"/>
  <path opacity=".2" d="m50.585 5.9145c-1.4261 0-2.5938 1.1364-2.5938 2.5625 0 0.94222 0.49623 1.7678 1.25 2.2188-0.42979 0.62326-0.75196 1.3181-0.96875 2.0625-0.78008-0.26481-1.587-0.45761-2.4375-0.53125 0.02776-0.15383 0.0625-0.30692 0.0625-0.46875 0-1.4646-1.1917-2.6563-2.6562-2.6563-1.0731 0-1.9888 0.64566-2.4062 1.5625-1.0616-1.0864-2.5256-1.7778-4.1562-1.8125 0-1.3104-1.0646-2.375-2.375-2.375-1.2339 0-2.2293 0.95203-2.3438 2.1562-0.37719-0.13609-0.79464-0.21875-1.2188-0.21875-1.9656 0-3.5625 1.5969-3.5625 3.5625 0 0.06439 0.02787 0.12395 0.03125 0.1875-0.60789-0.07841-1.2167-0.125-1.8438-0.125-1.6687 0-3.2477 0.28484-4.75 0.78125-1.1385-1.0802-2.6817-1.75-4.375-1.75-3.5073 0-6.3438 2.8364-6.3438 6.3438 0 0.5261 0.06691 1.0424 0.1875 1.5312-2.156 0.28208-3.8125 2.1108-3.8125 4.3438 0 0.43842 0.06804 0.85044 0.1875 1.25-0.21782 0.19014-0.4268 0.38341-0.625 0.59375-0.87625-0.74992-2.0137-1.2188-3.2812-1.2188-2.7365 0-4.9375 2.1291-4.9375 4.75s2.201 4.75 4.9375 4.75c0.4111 0 0.80555-0.06587 1.1875-0.15625 0.96074 3.7711 4.3659 6.5625 8.4375 6.5625 1.2797 0 2.4989-0.28622 3.5938-0.78125 2.6219 2.1439 5.9427 3.4375 9.5938 3.4375 4.9332 0 9.314-2.3606 12.094-6 0.73405 0.43 1.5878 0.6875 2.5 0.6875 2.4273 0 4.4496-1.727 4.875-4.0312 0.03081 0.000267 0.06288 0 0.09375 0 3.6133 0 6.7751-1.8405 8.6562-4.625 1.2675 1.3 3.0409 2.0938 5 2.0938 3.5372 0 6.4807-2.6191 6.9375-6.0312 0.4459 0.10707 0.89626 0.1875 1.375 0.1875 3.2761 0 5.9375-2.6614 5.9375-5.9375s-2.6614-5.9375-5.9375-5.9375c-0.34246 0-0.67439 0.03796-1 0.09375-0.49243-0.49025-1.1345-0.78125-1.8438-0.78125-0.73343 0-1.4081 0.32335-1.9062 0.84375-0.77547-3.1324-3.5965-5.4687-6.9688-5.4687-0.73385 0-1.4269 0.13939-2.0938 0.34375-0.26558-1.1435-1.2757-2-2.5-2z" fill="url(#m)"/>
  <path opacity=".5" d="m25.09 12.889c-1.7951 0-3.2871 1.3348-3.5312 3.0625-0.99024 0.39781-1.8962 0.90849-2.7188 1.5625-0.48316-0.50848-1.1494-0.84375-1.9062-0.84375-1.4646 0-2.6562 1.1917-2.6562 2.6562 0 0.01073-0.000127 0.02055 0 0.03125-1.0357 0.06809-2.0271 0.26679-2.9688 0.59375-0.55027-0.63705-1.3734-1.0312-2.2812-1.0312-1.6368 0-2.9673 1.3085-3 2.9375-0.04347-0.0022-0.08097-0.03125-0.125-0.03125-1.2037 0-2.2233 0.86986-2.4688 2-2.4536 0.16605-4.5626 1.5198-5.7812 3.5-0.4926-0.20835-1.0253-0.3125-1.5938-0.3125-2.274 0-4.125 1.851-4.125 4.125s1.851 4.0938 4.125 4.0938c0.53425 0 1.0316-0.09607 1.5-0.28125 1.2861 2.1833 3.6578 3.625 6.375 3.625 0.87777 0 1.7188-0.15691 2.5-0.4375 2.0858 2.4103 5.156 3.9375 8.5938 3.9375 3.5742 0 6.7584-1.6406 8.8438-4.2188 1.2151 1.3833 2.9829 2.2812 4.9688 2.2812 1.5447 0 2.9666-0.55175 4.0938-1.4375 1.0575 0.54918 2.2573 0.875 3.5312 0.875 1.5489 0 2.9813-0.46094 4.1875-1.25 0.49805 0.25713 1.0571 0.40625 1.6562 0.40625 1.7433 0 3.213-1.236 3.5625-2.875 0.23611 1.5401 1.5501 2.7188 3.1562 2.7188 1.7729 0 3.2188-1.4146 3.2188-3.1875 0-1.6151-1.1974-2.9623-2.75-3.1875 0.04583-0.25866 0.09375-0.54069 0.09375-0.8125 0-2.5052-2.026-4.5312-4.5312-4.5312-0.84007 0-1.6378 0.25822-2.3125 0.65625-0.22397-0.31986-0.4498-0.65593-0.71875-0.9375 0.10594-0.25048 0.15625-0.52343 0.15625-0.8125 0-1.1563-0.93749-2.0938-2.0938-2.0938-0.09318 0-0.19129 0.01945-0.28125 0.03125-0.01718-1.7967-1.4805-3.25-3.2812-3.25-0.47744 0-0.93457 0.09784-1.3438 0.28125-1.4251-2.523-3.8275-4.4148-6.6875-5.1875-0.40134-1.5259-1.7544-2.6562-3.4062-2.6562z" fill="url(#n)"/>
  <path opacity=".4" d="m82.629 8.7626c-3.0264 0.30734-5.375 2.8925-5.375 6 0 0.50225 0.07128 0.97124 0.1875 1.4375-1.3556-0.82923-2.9508-1.3125-4.6562-1.3125-0.69713 0-1.3801 0.09893-2.0312 0.25-0.47506-1.3625-1.7568-2.3438-3.2812-2.3438-1.9271 0-3.4688 1.5729-3.4688 3.5 0 0.92305 0.35225 1.751 0.9375 2.375-0.19649-0.02238-0.39127 0-0.59375 0-2.8907 0-5.25 2.3281-5.25 5.2188s2.3593 5.25 5.25 5.25c0.40398 0 0.77855-0.06962 1.1562-0.15625 1.0117 1.427 2.4356 2.5193 4.0938 3.1562-0.0042 0.11543-0.03125 0.2273-0.03125 0.34375 0 5.2417 4.2583 9.4688 9.5 9.4688 1.5304 0 2.9698-0.3566 4.25-1 2.6246 1.7834 5.8064 2.8438 9.2187 2.8438 6.8387 0 12.693-4.2051 15.156-10.156 4.7852-0.59661 8.5-4.647 8.5-9.5938 0-5.3573-4.3302-9.7188-9.6875-9.7188-1.1595 0-2.2818 0.22061-3.3125 0.59375-0.85422-0.73119-1.7894-1.3932-2.7812-1.9375 0.0827-0.23333 0.15625-0.48833 0.15625-0.75 0-1.2333-1.0167-2.2188-2.25-2.2188-0.94828 0-1.7699 0.57244-2.0938 1.4062-1.0568-0.24278-2.1573-0.40621-3.2812-0.4375-0.31043-1.2856-1.4628-2.2187-2.8437-2.2187-1.1744 0-2.1886 0.6901-2.6562 1.6875-1.0788-1.0542-2.5545-1.6875-4.1875-1.6875-0.20716 0-0.42324-0.02049-0.625 0z" fill="url(#o)"/>
  <path opacity=".5" d="m53.176 37.577c1.3695-0.39771 2.8078 0.36799 3.2055 1.7375 0.26277 0.90483 0.01648 1.8361-0.58162 2.4793 0.58655 0.47866 1.0897 1.0561 1.5055 1.7105 0.67528-0.47186 1.3964-0.88205 2.1926-1.19-0.06956-0.13999-0.14562-0.27731-0.19075-0.43272-0.40846-1.4065 0.40358-2.8832 1.8101-3.2917 1.0305-0.29927 2.09 0.06539 2.7465 0.82944 0.71646-1.3394 1.9296-2.4116 3.4859-2.8997-0.36546-1.2584 0.35998-2.5777 1.6184-2.9431 1.1849-0.34412 2.4063 0.29254 2.8521 1.4171 0.32427-0.23589 0.70211-0.43169 1.1094-0.54996 1.8877-0.54819 3.8665 0.53996 4.4147 2.4276 0.01796 0.06184 0.0078 0.1268 0.02228 0.18878 0.5619-0.24483 1.1335-0.45935 1.7357-0.63424 1.6025-0.46537 3.1983-0.63221 4.7794-0.57446 0.79208-1.3548 2.0873-2.4285 3.7134-2.9007 3.3682-0.97815 6.8831 0.9547 7.8612 4.3229 0.14672 0.50522 0.22646 1.0197 0.24699 1.5228 2.1491-0.3304 4.2499 0.9638 4.8727 3.1082 0.12227 0.42102 0.17183 0.83567 0.16855 1.2527 0.2622 0.12185 0.51679 0.24917 0.76579 0.39589 0.63234-0.96454 1.5939-1.732 2.8112-2.0855 2.6279-0.76317 5.3354 0.66766 6.0663 3.1845 0.73092 2.5169-0.78897 5.1754-3.4169 5.9385-0.39479 0.11465-0.79196 0.1614-1.184 0.18113 0.12908 3.8894-2.3625 7.5197-6.2725 8.6552-1.2289 0.3569-2.4795 0.42203-3.669 0.252-1.92 2.7901-4.7482 4.9584-8.2544 5.9767-4.7374 1.3758-9.6028 0.33061-13.287-2.3892-0.58501 0.61766-1.3331 1.103-2.2091 1.3574-2.331 0.67695-4.7547-0.41753-5.8058-2.5117-0.02951 0.0088-0.06039 0.01754-0.09003 0.02614-3.47 1.0077-7.0196 0.12201-9.6027-2.0274-0.85466 1.6019-2.3363 2.8588-4.2177 3.4051-3.3969 0.98648-6.954-0.7078-8.3443-3.8572-0.39834 0.22718-0.80841 0.43002-1.2682 0.56353-3.1461 0.91365-6.4442-0.89994-7.3578-4.046-0.91365-3.1461 0.89994-6.4442 4.046-7.3578 0.32887-0.09551 0.65822-0.15163 0.98647-0.18886 0.33617-0.60813 0.87158-1.0666 1.5527-1.2644 0.70433-0.20454 1.4424-0.08217 2.0659 0.27864-0.12887-3.2244 1.9287-6.2548 5.1671-7.1953 0.70473-0.20466 1.4091-0.26407 2.1065-0.25381-0.06387-1.1722 0.66728-2.2764 1.843-2.6179z" fill="url(#p)"/>
  <path opacity=".5" d="m22.938 21.656c-3.5005 0-6.464 2.1862-7.625 5.2812-2.9227 0.05208-5.2812 2.4399-5.2812 5.375 0 2.9677 2.4073 5.375 5.375 5.375 1.1753 0 2.2405-0.3911 3.125-1.0312 1.2736 0.82112 2.7782 1.3125 4.4062 1.3125 0.41217 0 0.82299-0.03481 1.2188-0.09375 0.4608 0.55836 1.157 0.9375 1.9375 0.9375 1.11 0 2.0426-0.72039 2.375-1.7188 0.573 0.1721 1.1834 0.28125 1.8125 0.28125 3.4688 0 6.2812-2.8125 6.2812-6.2812 0-2.9051-1.9776-5.3448-4.6562-6.0625 0.02473-0.15323 0.0625-0.30854 0.0625-0.46875 0-1.6188-1.3187-2.9062-2.9375-2.9062-0.86619 0-1.6509 0.37137-2.1875 0.96875-1.1569-0.62848-2.4971-0.96875-3.9062-0.96875z" fill="url(#q)"/>
  <path opacity=".3" d="m90.094 3.5c-1.259 0-2.334 0.6918-2.906 1.7188-1.918 0.1328-3.612 1.0249-4.781 2.4062-0.534-0.72-1.379-1.1875-2.344-1.1875-1.6188 0-2.9375 1.3187-2.9375 2.9375 0 0.44432 0.10432 0.84141 0.28125 1.2188-1.5885 0.35705-2.7812 1.7412-2.7812 3.4375 0 1.9656 1.5656 3.5625 3.5312 3.5625 1.5444 0 2.8512-0.99995 3.3438-2.375 1.141 2.241 3.467 3.781 6.155 3.781 1.0952 0 2.1424-0.26513 3.0625-0.71875 0.57196 0.52723 1.3483 0.84375 2.1875 0.84375 1.6569 0 2.9848-1.2636 3.1562-2.875 0.30913 0.04735 0.61513 0.09375 0.9375 0.09375 1.5171 0 2.9214-0.56524 4-1.4688 0.71605 0.81008 1.7713 1.3125 2.9375 1.3125 2.1584 0 3.9062-1.7479 3.9062-3.9062 0-2.1584-1.7479-3.9063-3.9062-3.9063-0.31601 0-0.64322 0.0542-0.9375 0.125-0.71569-2.64-3.1335-4.5938-6-4.5938-1.5007 0-2.8639 0.55146-3.9375 1.4375-0.55212-1.0915-1.662-1.8438-2.9687-1.8438z" fill="url(#r)"/>
  <path opacity=".3" d="m70.656 28.656c3.5005 0 6.464 2.1862 7.625 5.2812 2.9227 0.05208 5.2812 2.4399 5.2812 5.375 0 2.9677-2.4073 5.375-5.375 5.375-1.1753 0-2.2405-0.3911-3.125-1.0312-1.2736 0.82112-2.7782 1.3125-4.4062 1.3125-0.41217 0-0.82299-0.03481-1.2188-0.09375-0.4608 0.55836-1.157 0.9375-1.9375 0.9375-1.11 0-2.0426-0.72039-2.375-1.7188-0.573 0.1721-1.1834 0.28125-1.8125 0.28125-3.4688 0-6.2812-2.8125-6.2812-6.2812 0-2.9051 1.9776-5.3448 4.6562-6.0625-0.02473-0.15323-0.0625-0.30854-0.0625-0.46875 0-1.6188 1.3187-2.9062 2.9375-2.9062 0.86619 0 1.6509 0.37137 2.1875 0.96875 1.1569-0.62848 2.4971-0.96875 3.9062-0.96875z" fill="url(#s)"/>
  <path opacity=".5" d="m96.09 36.889c-1.7951 0-3.2871 1.3348-3.5312 3.0625-0.99024 0.39781-1.8962 0.90849-2.7188 1.5625-0.48316-0.50848-1.1494-0.84375-1.9062-0.84375-1.4646 0-2.6562 1.1917-2.6562 2.6562 0 0.01073-0.000127 0.02055 0 0.03125-1.0357 0.06809-2.0271 0.26679-2.9688 0.59375-0.55027-0.63705-1.3734-1.0312-2.2812-1.0312-1.6368 0-2.9673 1.3085-3 2.9375-0.04347-0.0022-0.08097-0.03125-0.125-0.03125-1.2037 0-2.2233 0.86986-2.4688 2-2.4536 0.16605-4.5626 1.5198-5.7812 3.5-0.4926-0.20835-1.0253-0.3125-1.5938-0.3125-2.274 0-4.125 1.851-4.125 4.125s1.851 4.0938 4.125 4.0938c0.53425 0 1.0316-0.09607 1.5-0.28125 1.2861 2.1833 3.6578 3.625 6.375 3.625 0.87777 0 1.7188-0.15691 2.5-0.4375 2.0858 2.4103 5.156 3.9375 8.5938 3.9375 3.5742 0 6.7584-1.6406 8.8438-4.2188 1.215 1.3833 2.9829 2.2812 4.9688 2.2812 1.5447 0 2.9666-0.55175 4.0938-1.4375 1.0575 0.54918 2.2573 0.875 3.5312 0.875 1.5489 0 2.9813-0.46094 4.1875-1.25 0.49805 0.25713 1.0571 0.40625 1.6562 0.40625 1.7433 0 3.213-1.236 3.5625-2.875 0.23611 1.5401 1.5501 2.7188 3.1562 2.7188 1.7729 0 3.2188-1.4146 3.2188-3.1875 0-1.6151-1.1974-2.9623-2.75-3.1875 0.0458-0.25866 0.0937-0.54069 0.0937-0.8125 0-2.5052-2.026-4.5312-4.5312-4.5312-0.84008 0-1.6378 0.25822-2.3125 0.65625-0.22398-0.31986-0.44981-0.65593-0.71875-0.9375 0.10594-0.25048 0.15625-0.52343 0.15625-0.8125 0-1.1563-0.93749-2.0938-2.0938-2.0938-0.0932 0-0.1913 0.01945-0.28125 0.03125-0.0172-1.7967-1.4805-3.25-3.2812-3.25-0.47744 0-0.93457 0.09784-1.3438 0.28125-1.4251-2.523-3.8275-4.4148-6.6875-5.1875-0.40134-1.5259-1.7544-2.6562-3.4062-2.6562z" fill="url(#t)"/>
  <path opacity=".5" d="m7.5 22.312c-0.95045 0-1.8285 0.30559-2.5312 0.8125-0.58004-0.08942-1.1762-0.15625-1.7812-0.15625-2.6437 0-5.0504 0.91554-7 2.4062-0.2252-0.03559-0.45167-0.0625-0.6875-0.0625-2.3125 0-4.1875 1.7719-4.1875 3.9688 0 0.82384 0.26727 1.5839 0.71875 2.2188-0.268 0.97769-0.40625 1.9997-0.40625 3.0625 0 1.0735 0.13301 2.1073 0.40625 3.0938-0.61992-0.27902-1.3073-0.4375-2.0312-0.4375-2.7365 0-4.9375 2.201-4.9375 4.9375s2.201 4.9688 4.9375 4.9688c0.36612 0 0.719-0.04965 1.0625-0.125-0.000643 0.04129 0 0.08355 0 0.125 0 4.3167 3.4958 7.8125 7.8125 7.8125 2.786 0 5.2097-1.4621 6.5938-3.6562 2.0411 1.841 4.7536 2.9688 7.7188 2.9688 4.015 0 7.533-2.072 9.5938-5.1875 1.2942 0.97115 2.8824 1.5625 4.625 1.5625 2.725 0 5.1192-1.4353 6.5-3.5625 0.69317 0.55616 1.5421 0.90625 2.5 0.90625 1.3093 0 2.4789-0.6295 3.2188-1.5938 0.32267 0.20323 0.71549 0.34375 1.125 0.34375 1.1563 0 2.0938-0.93749 2.0938-2.0938s-0.93749-2.0938-2.0938-2.0938c-0.18067 0-0.36401 0.01947-0.53125 0.0625-0.508-1.456-1.82-2.527-3.407-2.688-0.086-1.348-1.192-2.406-2.562-2.406-0.3812 0-0.73681 0.07047-1.0625 0.21875-1.4183-1.5835-3.4881-2.5938-5.7812-2.5938-1.0245 0-1.9799 0.20126-2.875 0.5625-0.22426-2.3734-2.2241-4.25-4.6562-4.25-0.28018 0-0.54588 0.04651-0.8125 0.09375 0.03207-0.21766 0.0625-0.42967 0.0625-0.65625 0-2.5052-2.0573-4.5312-4.5625-4.5312-0.93946 0-1.8073 0.2609-2.5312 0.75-0.12466-0.14758-0.24323-0.29637-0.375-0.4375 0.01212-0.12327 0.03125-0.24872 0.03125-0.375 0-2.1969-1.875-3.9688-4.1875-3.9688z" fill="url(#u)"/>
  <path opacity=".7" d="m41.812 45.938a0.52804 0.52804 0 0 0 -0.25 0.21875c-1.6201 2.0986-0.9471 2.2329-4.7812 4.1875a0.52804 0.52804 0 0 0 -0.1875 0.75c0.13252 0.22071 0.09425 0.24105 0 0.40625s-0.35377 0.39275-0.65625 0.65625-0.62904 0.55336-0.90625 0.9375c-0.19716 0.27321-0.31558 0.64933-0.34375 1.0312-0.72112 0.29462-1.3181 0.70678-1.875 1.125-0.64801 0.48667-1.2728 0.94873-2.0625 1.1875a0.52804 0.52804 0 0 0 -0.3125 0.25c-0.13372 0.2347-0.21315 0.49682-0.15625 0.78125 0.0569 0.28444 0.26634 0.47996 0.46875 0.59375 0.40483 0.22759 0.83659 0.27373 1.3125 0.28125 0.47591 0.0075 0.98932-0.0344 1.4375-0.0625s0.84392-0.04642 1-0.03125a0.52804 0.52804 0 0 0 0.0625 0c0.57423 0.0028 0.99184 0.43706 1.5938 0.96875 0.30096 0.26584 0.6188 0.54372 1.0625 0.71875 0.43566 0.17186 0.98955 0.19146 1.5625 0.03125 0.0075-0.0018 0.02352 0.0016 0.03125 0 0.58495-0.11973 1.7115 0.37668 2.3125 1.0312 0.30446 0.33161 0.43918 0.67656 0.4375 0.875-0.0017 0.19844-0.04292 0.36124-0.5 0.5625a0.52804 0.52804 0 0 0 -0.21875 0.15625c-0.2128 0.29257-0.3098 0.647-0.28125 0.96875 0.02855 0.32176 0.18358 0.60242 0.34375 0.84375 0.32035 0.48266 0.76006 0.85612 1.125 1.1875 0.18247 0.16569 0.33518 0.32052 0.4375 0.4375 0.01248 0.01427-0.01019 0.01808 0 0.03125-0.09065 0.03617-0.15646 0.05347-0.375 0.09375a0.52804 0.52804 0 0 0 -0.4375 0.4375c-0.04671 0.2873-0.30083 0.64511-0.75 1.0312-0.44917 0.38614-1.0355 0.80346-1.6562 1.2188-0.6207 0.41529-1.2761 0.83624-1.7812 1.3438-0.42093 0.42292-0.70451 0.94674-0.8125 1.5312-0.27029 0.23986-0.44742 0.32047-0.625 0.3125-0.195-0.01-0.443-0.125-0.781-0.282-0.33765-0.15723-0.77384-0.35027-1.2812-0.40625-0.42539-0.04693-0.90608 0.06601-1.4062 0.3125 0.0054-0.01058-0.30452-0.10325-0.625-0.3125-0.33983-0.22189-0.72016-0.51519-1.0625-0.78125s-0.62448-0.48524-0.84375-0.625c-0.05482-0.03494-0.0966-0.0551-0.21875-0.09375-0.06107-0.01933-0.16213-0.08073-0.375 0-0.10644 0.04037-0.22304 0.13768-0.28125 0.25s-0.06559 0.21489-0.0625 0.28125c0.01237 0.26546 0.08533 0.2797 0.125 0.34375 0.02536 0.04095 0.06257 0.08197 0.09375 0.125 0.05882 0.52048 0.32992 0.97252 0.65625 1.3438 0.3942 0.44844 0.85226 0.86047 1.1562 1.25 0.30399 0.38953 0.43652 0.70634 0.375 1s-0.3849 0.7451-1.3125 1.3125v0.03125c-0.42409 0.20959-0.71653 0.60372-0.75 0.96875-0.03729 0.40665 0.06759 0.75093 0.125 1 0.0035 0.01533-0.0032 0.01669 0 0.03125-0.07444-0.01253-0.10208 0.002-0.21875-0.03125a0.52804 0.52804 0 0 0 -0.03125 0c-2.0783-0.57346-4.0994-0.03002-5.9062-0.03125a0.52804 0.52804 0 0 0 -0.5 0.65625c0.2841 1.1771 1.2567 1.7767 2.125 2.25 0.86826 0.47333 1.649 0.87191 2 1.5312a0.52804 0.52804 0 0 0 0.1875 0.1875c0.09039 0.05897 0.09665 0.10017 0.09375 0.09375-0.01137 0.05857-0.12362 0.23171-0.25 0.46875-0.06319 0.11852-0.14989 0.2555-0.1875 0.4375s-0.0068 0.44817 0.125 0.65625c0.24321 0.38401 0.65844 0.50639 1.2188 0.59375 0.4682 0.18914 1.0932 0.85052 1.25 1.4062 0.0784 0.27786 0.08216 0.50657-0.03125 0.6875s-0.37341 0.39426-0.9375 0.53125a0.52804 0.52804 0 0 0 -0.03125 0c-0.37909 0.12128-0.6785 0.24997-0.90625 0.46875s-0.33854 0.64724-0.21875 0.9375 0.3457 0.43838 0.5625 0.59375c0.01106 0.0079 0.02001 0.0234 0.03125 0.03125-1.2184 0.9378-2.8989 1.4309-4.2812 2.6875a0.52804 0.52804 0 0 0 -0.125 0.65625l1.5625 2.6875a0.52804 0.52804 0 0 0 0.875 0.0625c1.091-1.4001 2.0974-2.7893 3.2812-4a0.52804 0.52804 0 0 0 0.03125 -0.03125c0.03866-0.04342 0.25508-0.14231 0.59375-0.1875s0.75012-0.05318 1.125-0.09375c0.18744-0.02028 0.37161-0.05015 0.5625-0.125s0.42272-0.23142 0.5-0.53125-0.02321-0.57004-0.15625-0.78125-0.3038-0.4072-0.5625-0.65625a0.52804 0.52804 0 0 0 -0.03125 0c-0.12609-0.11532-0.12539-0.16034-0.125-0.15625 0.000388 0.0041 0.0038-0.01233 0.0625-0.09375 0.11738-0.16285 0.49684-0.43983 0.875-0.71875s0.78045-0.55144 0.96875-1.0938c0.092-0.271 0.075-0.639-0.096-0.906-0.157-0.245-0.419-0.418-0.719-0.594-0.018-0.014-0.043-0.048-0.062-0.063-0.613-0.462-1.579-1.178-2.157-1.843-0.297-0.343-0.445-0.667-0.468-0.844-0.024-0.177-0.033-0.246 0.281-0.437a0.52804 0.52804 0 0 0 0.25 -0.375c0.03851-0.29473-0.06363-0.55067-0.1875-0.75s-0.3002-0.37169-0.46875-0.53125c-0.24562-0.23252-0.4977-0.4026-0.75-0.59375 0.87554 0.12736 2.2258 0.28666 3.5 0.21875 0.73377-0.03911 1.3815-0.09453 1.875-0.5 0.24677-0.20274 0.41006-0.62492 0.3125-0.96875-0.08753-0.30846-0.32358-0.53381-0.59375-0.78125-0.0093-0.01204 0.0083-0.02008 0-0.03125-0.02445-0.02212-0.03682-0.04012-0.0625-0.0625-0.09886-0.16097-0.07227-0.27469 0.03125-0.46875 0.12631-0.23678 0.4514-0.56564 0.78125-0.90625 0.32985-0.3406 0.69105-0.68951 0.84375-1.2188 0.07635-0.26462 0.05623-0.5858-0.0625-0.875-0.09732-0.23704-0.28542-0.43084-0.5-0.625 0.09571-0.0059 0.09601 0.0075 0.28125 0.03125 0.35016 0.04496 0.76143 0.11444 1.1875 0.15625 0.34019 0.03338 0.69051 0.03552 1.0312-0.09375 1.016 0.12107 1.9242-0.08675 2.5938-0.625 0.5988-0.4814 0.91406-1.227 1.0312-2.0938 0.44826-0.13184 0.83176-0.37242 1.0625-0.6875 0.30014-0.40984 0.44869-0.84058 0.59375-1.2188 0.14506-0.37817 0.27344-0.68858 0.40625-0.8125s0.25029-0.19865 0.6875-0.09375c0.43534 0.19525 1.1783 0.52191 1.8125 0.625 0.16672 0.0271 0.31326 0.02872 0.5 0 0.09337-0.01436 0.19796-0.02099 0.3125-0.09375s0.23383-0.22198 0.28125-0.375c0.096-0.306-0.015-0.538-0.124-0.718-0.093-0.153-0.246-0.298-0.406-0.469-0.019-0.03-0.044-0.063-0.063-0.094-0.497-0.802-1.151-1.637-1.656-2.468-0.47181-0.77664-0.73422-1.4879-0.65625-2.0938 0.65828-0.34721 1.3175-0.45374 2.0625-0.53125 0.82863-0.08621 1.7594-0.15253 2.6875-0.65625a0.52804 0.52804 0 0 0 0.031 -0.907c-0.77876-0.48811-1.7568-0.31275-2.75-0.25-0.99317 0.06275-1.9868 0.07523-2.5625-0.1875a0.52804 0.52804 0 0 0 -0.033 -0.031c-0.31444-0.11077-0.41082-0.23928-0.5-0.4375s-0.15024-0.46864-0.21875-0.8125-0.14635-0.7935-0.5-1.125c-0.32952-0.30888-0.84652-0.44378-1.4688-0.4375-0.786-0.361-1.847-0.536-2.531-0.843-0.364-0.163-0.55-0.324-0.594-0.437-0.045-0.114-0.058-0.32 0.281-0.782a0.52804 0.52804 0 0 0 0.0625 -0.09375c0.69074-1.6403 1.1328-3.2091 2.375-4.2812v-0.03125c0.54751-0.39152 0.91845-1.0073 1.2812-1.7188 0.37857-0.74241 0.73225-1.5955 1.0938-2.3438a0.52804 0.52804 0 0 0 -0.5625 -0.75 0.52804 0.52804 0 0 0 -0.0625 0zm6.2812 9.4062c-0.06597 0.01168-0.1494 0.04116-0.21875 0.09375-0.1387 0.10518-0.17788 0.25887-0.1875 0.34375-0.008 0.07073-0.0056 0.12448 0 0.15625l0.34375 0.03125a0.48828 0.48828 0 0 0 -0.0625 0.40625c0.01586 0.01577 0.01839 0.04885 0.03125 0.0625s0.01885 0.04953 0.03125 0.0625c0.01653 0.0173 0.01482 0.01497 0.03125 0.03125 0.79671 1.6822 1.9711 3.2009 3.4688 4.3125a0.48828 0.48828 0 0 0 0.0625 0.03125c0.06931 0.03435 0.29252 0.23498 0.5 0.53125 0.20748 0.29626 0.42314 0.67642 0.65625 1s0.45526 0.65444 0.90625 0.78125c0.22549 0.0634 0.51381 0.01624 0.71875-0.125 0.15073-0.10388 0.24394-0.27764 0.34375-0.4375 0.40261-0.32023 0.55837-0.29106 0.75-0.21875s0.4651 0.30471 0.75 0.65625 0.58662 0.7847 0.96875 1.1562c0.38213 0.37155 0.87678 0.71478 1.5 0.71875 0.69881-0.0078 1.1203 0.22095 1.3438 0.59375 0.22341 0.3728 0.27475 0.93909 0 1.5938a0.48828 0.48828 0 0 0 -0.0625 0.21875c0.01558 0.47175-0.07883 0.67647-0.25 0.84375-0.17118 0.16728-0.45475 0.27296-0.84375 0.375-0.77799 0.20408-1.89 0.25756-2.7188 0.9375a0.48828 0.48828 0 0 0 -0.032 0.031c-0.29894 0.30737-0.99384 0.40922-1.7188 0.625-0.36245 0.10789-0.74499 0.24845-1.0312 0.59375-0.20919 0.25234-0.2963 0.61122-0.3125 1-0.4437 0.18912-0.99095 0.29398-1.6562 0.34375-0.7546 0.05645-1.5745 0.08682-2.3438 0.5a0.48828 0.48828 0 0 0 -0.032 0.844c0.64653 0.38173 1.3481 0.38213 1.9688 0.40625 0.58994 0.02293 1.0941 0.08163 1.4688 0.3125 0.56615 0.98917 1.1448 1.9202 2.0625 2.8125-0.03968 1.0083 0.33203 1.8253 0.96875 2.3438 0.6574 0.53524 1.4817 0.81517 2.2812 1.0312 0.15856 0.35606 0.326 0.70469 0.59375 0.90625 0.34489 0.25963 0.73238 0.37624 1.125 0.40625 0.71956 0.05501 1.4302-0.14859 2.0625-0.28125 1.073 0.47554 2.1664 1.5031 2.4375 2.6875 0.01298 0.69003-0.2583 1.4026-0.5625 2.1875-0.3042 0.78493-0.61263 1.6772-0.4375 2.6875a0.48828 0.48828 0 0 0 0.84375 0.25c0.40652-0.44787 0.50249-1.0508 0.71875-1.6562 0.21626-0.60542 0.48602-1.1845 0.78125-1.4375a0.48828 0.48828 0 0 0 0.125 -0.15625c0.13321-0.27345 0.22513-0.30469 0.46875-0.34375s0.61729 0.0021 1.0312 0a0.48828 0.48828 0 0 0 0.092 -0.032c0.56854-0.11484 1.0959-0.04751 1.3125 0.09375 0.1083 0.07063 0.15616 0.1518 0.1875 0.28125s0.01399 0.33903-0.09375 0.65625a0.48828 0.48828 0 0 0 -0.03125 0.125c-0.14246 1.7691 0.16182 3.49 0.5 5.1562 0.002 0.0099-0.002 0.02132 0 0.03125-0.04502 0.28913-0.07694 0.58776-0.03125 0.90625 0.05828 0.40626 0.18937 0.80741 0.3125 1.1562 0.06157 0.17442 0.10206 0.32698 0.1875 0.46875 0.04272 0.07089 0.11316 0.14715 0.1875 0.21875s0.18592 0.17171 0.375 0.1875 0.37662-0.11398 0.46875-0.21875 0.12502-0.1863 0.15625-0.28125c0.06247-0.18989 0.10674-0.40062 0.125-0.6875h-0.033c0.43927-2.1742-0.04861-4.2504-0.34375-6.25a0.48828 0.48828 0 0 0 -0.03125 -0.125c-0.11237-0.27734-0.08076-0.42086-0.03125-0.5625s0.16755-0.28991 0.34375-0.4375c0.3524-0.29518 0.89918-0.52431 1.3125-0.90625a0.48828 0.48828 0 0 0 -0.28125 -0.84375c-0.51766-0.06356-0.89517-0.20165-1.125-0.40625s-0.35986-0.45768-0.375-1a0.48828 0.48828 0 0 0 -0.0625 -0.1875c-0.082-0.188-0.149-0.351-0.219-0.469-0.07-0.119-0.105-0.233-0.344-0.344-0.11919-0.05537-0.3249-0.04668-0.46875 0.03125s-0.21444 0.18165-0.25 0.25c-0.07111 0.13669-0.07671 0.21759-0.09375 0.3125-0.03409 0.18983-0.03057 0.38974-0.0625 0.5625-0.01383 0.07487-0.01385 0.0752-0.03125 0.125-0.63866 0.06516-1.309 0.24575-1.7812 0.25-0.27731 0.0025-0.47783-0.03848-0.59375-0.125s-0.22918-0.23745-0.28125-0.625a0.48828 0.48828 0 0 0 -0.125 -0.281c-0.427-0.393-0.695-1.352-1.063-2.219-0.184-0.433-0.42-0.872-0.843-1.156-0.424-0.284-0.997-0.344-1.626-0.125a0.48828 0.48828 0 0 0 -0.125 0.0625c-0.28738 0.21164-0.4435 0.23341-0.53125 0.21875s-0.19363-0.08358-0.3125-0.25c-0.237-0.334-0.441-1.017-0.531-1.532a0.48828 0.48828 0 0 0 -0.937 -0.031c-0.14927 0.51847-0.79432 0.91047-1.3438 0.9375-0.27471 0.01352-0.49334-0.06659-0.625-0.1875s-0.21883-0.30506-0.1875-0.71875a0.48828 0.48828 0 0 0 -0.219 -0.437c-0.899-0.604-1.112-1.514-1.719-2.594a0.48828 0.48828 0 0 0 -0.343 -0.219c-0.304-0.063-0.395-0.155-0.438-0.219-0.04284-0.06337-0.06352-0.14753-0.03125-0.3125 0.0613-0.31339 0.37964-0.80459 0.6875-1.125 1.6416-0.56011 3.2914-1.1902 4.875-2a0.48828 0.48828 0 0 0 0.1875 -0.1875c0.14152-0.2277 0.24994-0.30041 0.28125-0.3125s0.0395-0.01 0.125 0.03125c0.171 0.08244 0.50609 0.43618 0.84375 0.78125a0.48828 0.48828 0 0 0 0.532 0.095c0.44834-0.19713 0.72997-0.6202 0.8125-1.0312 0.08253-0.41105 0.04455-0.81017-0.03125-1.2188-0.14937-0.80517-0.39353-1.6403-0.375-2.0312 0.000927-0.0089-0.000948-0.02228 0-0.03125 0.07345-0.69507 0.21084-1.6967 0-2.5625-0.10678-0.43847-0.33367-0.88488-0.75-1.1562-0.37347-0.24343-0.88208-0.25163-1.4375-0.15625-0.0097-0.0013-0.02163 0.0015-0.03125 0-0.56771-0.09076-0.94143-0.55818-1.4375-1.0938-0.0979-0.1057-0.23464-0.20703-0.34375-0.3125 0.96535-0.1582 1.938-0.33014 2.6562-0.34375a0.48839 0.48839 0 1 0 0.125 -0.96875c-1.24-0.348-2.469-0.274-3.594-0.188-1.126 0.086-2.151 0.171-2.875-0.031a0.48828 0.48828 0 0 0 -0.219 0c-0.83442 0.17098-1.1513 0.09673-1.4688-0.09375-0.31747-0.19048-0.68494-0.61041-1.3125-1.2188-0.09852-0.28671-0.18855-0.57418-0.375-0.75-0.249-0.234-0.527-0.354-0.782-0.437-0.492-0.161-0.881-0.23-1.124-0.469-0.008-0.009-0.024-0.022-0.032-0.031-0.149-0.178-0.369-0.401-0.594-0.625-0.19792-0.19718-0.34878-0.34529-0.5-0.46875-0.06802-0.11781-0.14891-0.23224-0.15625-0.25a0.48828 0.48828 0 0 0 -0.25 -0.25c-0.039-0.018-0.072-0.051-0.156-0.062-0.04175-0.0056-0.09028-0.01168-0.15625 0zm0.5 0.34375c0.0015 0.002 0.01033-0.0077 0.03125 0.03125 0.0026 0.0049-0.0047 0.02118 0 0.03125a0.48828 0.48828 0 0 0 -0.0625 0l0.03125-0.0625z" fill="url(#x)"/>
  <path d="m41.965 46.481c-0.73995 1.5317-1.4166 3.3365-2.2541 3.8859-1.382 1.1928-1.8443 2.8741-2.5183 4.4748-1.5812 2.1544 1.931 2.2464 3.1821 2.8954 2.4404-0.10843 0.84382 2.1754 2.5831 2.7881 1.5262 0.69651 4.2706-0.20035 5.2604 0.42005-1.6313 0.88542-3.3241 0.26614-5.0003 1.3094-0.47695 1.7442 1.517 3.7168 2.4517 5.2638 1.5247 1.5635-1.0518 0.62967-1.8195 0.27851-2.2007-0.52804-1.279 2.7378-3.324 2.8757-0.07948 1.8725-1.3124 2.8609-3.2171 2.5958-0.8075 0.53649-3.9219-0.93203-2.9117 0.74126 1.931 1.5243-2.2027 2.6168-0.97818 4.2065 2.2557 1.966-3.7611 1.4145-5.1326 1.1676-2.3257-0.15994 1.4263 1.345 1.294 2.3576-1.7412 1.0627 1.1806 3.1267 2.3777 4.0311 2.3924 1.334-2.491 2.178-0.98468 3.5557 1.9303 1.8582-1.3086 0.76586-2.0893 1.6426-1.2225 1.2502-2.2556 2.6871-3.3367 4.0746l-1.5551-2.6936c1.4452-1.3137 3.5297-1.7365 4.8821-3.1711-1.0453-0.52294-1.6263-1.0395-0.26436-1.4753 2.6058-0.63282 1.1241-3.0718-0.20355-3.6081-2.3459-0.33278 0.31019-1.4013-0.89307-2.1863-0.90613-1.7023-3.638-1.7718-4.0941-3.6611 1.9043 0.0013 3.8555-0.52482 5.7561-0.000392 2.0948 0.59706-0.15443-1.5798 1.2887-2.0699 3.9557-2.4197-0.8733-3.9073-0.68112-5.598-0.81585-1.0765 1.928 1.6168 2.7817 1.6497 2.0778-1.2986 2.9527 1.3615 4.5349-0.16802 0.01722-2.2132 4.7726-3.4276 5.0886-5.3713 2.9306-0.54012-2.0879-2.1589-0.89843-3.7943 2.3202-1.0216-0.82563-3.8465-2.6274-3.4171-1.9473 0.56891-2.448-1.7584-4.091-1.7665-0.97997-0.09525-4.4511 0.59262-3.6791-0.7624 1.7813-0.53856 2.7241-1.9943 4.2921-2.478-0.35467-1.6329 2.6824-2.2416 1.8315-3.6587 3.8723-1.974 3.3795-2.3012 4.949-4.3341z" fill="#fff"/>
  <path d="m48.194 55.963c-0.32258-0.45354 1.0708 1.0374 1.3643 1.3959 0.74881 0.79724 2.0326 0.28637 2.3065 1.6829 1.2142 1.177 1.4332 1.7784 3.2172 1.4128 1.7174 0.47981 4.1987-0.4183 6.4748 0.22099-1.3181 0.02497-3.4504 0.52006-4.4904 0.60552 1.68-0.20566 2.0117 1.9031 3.5935 2.1204 2.2198-0.51708 1.8914 1.961 1.7445 3.3681-0.08142 1.1534 1.1475 3.3667-0.09276 3.912-0.64033-0.65439-1.3122-1.5253-2.0112-0.40075-1.6028 0.81965-3.2662 1.4536-4.9476 2.0227-0.75677 0.74315-1.5373 2.2227 0.0021 2.5411 0.56743 1.0107 0.81305 2.0584 1.8645 2.7641-0.15815 2.0884 2.6808 1.6684 3.1256 0.12334 0.1894 1.0886 0.70034 2.9157 2.1155 1.8736 2.1449-0.74657 1.838 2.2395 3.0461 3.3516 0.25454 1.8945 2.1881 0.96087 3.4407 0.92721 0.38072-0.447 0.08539-2.1669 0.69931-0.75371 0.03557 1.274 0.80637 1.7548 1.9524 1.8955-0.56409 0.52126-2.3271 0.98208-1.7381 2.4357 0.3019 2.0455 0.79174 4.112 0.35822 6.1746-0.13507 2.1217-1.0849-1.045-0.82595-1.8372-0.33802-1.661-0.60563-3.3399-0.46849-5.043 0.5135-1.5119-0.67538-1.9242-1.9659-1.6635-0.7448 0.0037-1.5349-0.18193-1.9283 0.62562-0.86524 0.74141-1.0866 2.6009-1.5682 3.1314-0.30027-1.7321 1.0807-3.1348 1.0496-4.7882-0.28182-1.4837-1.5874-2.6691-2.8515-3.1904-1.388 0.27301-3.0664 0.81957-3.6068-0.92639-1.6432-0.42731-3.3655-1.181-3.0974-3.2105-0.97498-0.91173-1.5389-1.8582-2.1558-2.9382-1.038-0.71947-2.5169-0.17806-3.5075-0.76296 1.2964-0.69636 3.0563-0.23888 4.2326-0.90411-0.27219-1.9765 2.0031-1.2875 2.9526-2.2638 1.3049-1.0706 4.068-0.26988 3.9928-2.5483 0.64254-1.531-0.1237-2.8943-1.7892-2.8758-1.8328-0.01168-2.339-3.7439-4.2807-2.1994-0.8272 1.6043-1.6653-1.3576-2.5877-1.8147-1.5715-1.1664-2.8311-2.7673-3.5831-4.5872-0.10399-0.04715-0.03233 0.07433-0.03624 0.12325z" fill="#fff"/>
 </g>
 <rect opacity=".1" clip-path="url(#af)" rx="12" ry="12" height="66" filter="url(#ah)" width="66" stroke="#fff" stroke-linecap="round" y="15" x="15" stroke-width=".5" fill="url(#d)"/>
 <path opacity=".4" d="m12 6c-3.324 0-6 2.676-6 6v72c0 0.33472 0.04135 0.6507 0.09375 0.96875 0.0487 0.2956 0.09704 0.59692 0.1875 0.875 0.00988 0.03038 0.020892 0.0636 0.03125 0.09375 0.098865 0.28777 0.23488 0.54745 0.375 0.8125 0.14459 0.27351 0.31562 0.53562 0.5 0.78125 0.18438 0.24564 0.37378 0.47347 0.59375 0.6875 0.43995 0.42806 0.94291 0.81453 1.5 1.0938 0.27854 0.13961 0.57347 0.24695 0.875 0.34375-0.2562-0.10022-0.48671-0.23627-0.71875-0.375-0.00741-0.0044-0.023866 0.0045-0.03125 0-0.0319-0.019-0.0622-0.042-0.0937-0.062-0.1204-0.077-0.231-0.164-0.3437-0.25-0.1062-0.081-0.2133-0.161-0.3126-0.25-0.1778-0.162-0.3473-0.346-0.4999-0.531-0.1075-0.131-0.2183-0.266-0.3124-0.407-0.0251-0.038-0.0385-0.086-0.0626-0.125-0.0647-0.103-0.1302-0.204-0.1874-0.312-0.1011-0.195-0.2057-0.416-0.2813-0.625-0.008-0.022-0.0236-0.041-0.0313-0.063-0.0318-0.092-0.0358-0.187-0.0624-0.281-0.0304-0.107-0.0704-0.203-0.0938-0.313-0.0729-0.341-0.125-0.698-0.125-1.062v-72c0-2.782 2.2182-5 5-5h72c2.7818 0 5 2.2182 5 5v72c0 0.3643-0.05212 0.72099-0.125 1.0625-0.04415 0.20689-0.08838 0.39766-0.15625 0.59375-0.0077 0.02195-0.0233 0.04069-0.03125 0.0625-0.06274 0.17374-0.13838 0.36745-0.21875 0.53125-0.04158 0.0828-0.07904 0.16995-0.125 0.25-0.0546 0.09721-0.12677 0.18835-0.1875 0.28125-0.09411 0.14096-0.20492 0.276-0.3125 0.40625-0.14317 0.17445-0.30314 0.347-0.46875 0.5-0.01117 0.0102-0.01998 0.02115-0.03125 0.03125-0.13839 0.12556-0.28509 0.23444-0.4375 0.34375-0.10257 0.07315-0.20432 0.15336-0.3125 0.21875-0.0074 0.0045-0.02384-0.0044-0.03125 0-0.23204 0.13873-0.46255 0.27478-0.71875 0.375 0.30153-0.0968 0.59646-0.20414 0.875-0.34375 0.55709-0.27922 1.0601-0.66569 1.5-1.0938 0.21997-0.21403 0.40937-0.44186 0.59375-0.6875s0.35541-0.50774 0.5-0.78125c0.14012-0.26505 0.27614-0.52473 0.375-0.8125 0.01041-0.03078 0.02133-0.06274 0.03125-0.09375 0.09046-0.27808 0.1388-0.5794 0.1875-0.875 0.053-0.318 0.094-0.634 0.094-0.969v-72c0-3.324-2.676-6-6-6h-72z" fill="url(#y)"/>
 <path opacity=".2" d="m12 90c-3.324 0-6-2.676-6-6v-72c0-0.33472 0.04135-0.6507 0.09375-0.96875 0.0487-0.2956 0.09704-0.59692 0.1875-0.875 0.0099-0.03 0.0209-0.063 0.0313-0.094 0.0989-0.2873 0.2349-0.547 0.375-0.812 0.1446-0.2735 0.3156-0.5356 0.5-0.7812 0.1844-0.2457 0.3738-0.4735 0.5937-0.6876 0.44-0.428 0.943-0.8145 1.5-1.0937 0.2786-0.1396 0.5735-0.2469 0.8748-0.3437-0.256 0.1002-0.4865 0.2362-0.7185 0.375-0.00741 0.0044-0.023866-0.0045-0.03125 0-0.031933 0.0193-0.062293 0.04251-0.09375 0.0625-0.1204 0.0767-0.23102 0.16351-0.34375 0.25-0.10617 0.0808-0.21328 0.16111-0.3125 0.25-0.1779 0.1614-0.3474 0.3453-0.5 0.5312-0.1075 0.1303-0.2183 0.2653-0.3124 0.4063-0.0251 0.0383-0.0385 0.0858-0.0626 0.125-0.0647 0.103-0.1302 0.2045-0.1874 0.3124-0.1011 0.1948-0.2057 0.4158-0.2813 0.625-0.008 0.0219-0.0236 0.0406-0.0313 0.0626-0.0318 0.0919-0.0358 0.1868-0.0624 0.2812-0.0304 0.1066-0.0704 0.203-0.0938 0.3125-0.0729 0.3415-0.125 0.6985-0.125 1.0625v72c0 2.7818 2.2182 5 5 5h72c2.7818 0 5-2.2182 5-5v-72c0-0.364-0.052-0.721-0.125-1.0625-0.044-0.2069-0.088-0.3977-0.156-0.5937-0.008-0.022-0.024-0.0407-0.031-0.0626-0.063-0.1737-0.139-0.3674-0.219-0.5312-0.042-0.0828-0.079-0.17-0.125-0.25-0.055-0.0972-0.127-0.1884-0.188-0.2812-0.094-0.141-0.205-0.276-0.312-0.4063-0.143-0.1745-0.303-0.347-0.469-0.5-0.011-0.0102-0.02-0.0211-0.031-0.0313-0.139-0.1255-0.285-0.2344-0.438-0.3437-0.102-0.0731-0.204-0.1534-0.312-0.2187-0.0074-0.0045-0.02384 0.0044-0.03125 0-0.23204-0.13873-0.46255-0.27478-0.71875-0.375 0.30153 0.0968 0.59646 0.20414 0.875 0.34375 0.55709 0.27922 1.0601 0.66569 1.5 1.0938 0.21997 0.21403 0.40937 0.44186 0.59375 0.6875s0.35541 0.50774 0.5 0.78125c0.14012 0.26505 0.27614 0.52473 0.375 0.8125 0.01041 0.03078 0.02133 0.06274 0.03125 0.09375 0.09046 0.27808 0.1388 0.5794 0.1875 0.875 0.053 0.318 0.094 0.634 0.094 0.969v72c0 3.324-2.676 6-6 6h-72z" fill="url(#i)"/>
</svg>
