<?xml version="1.0" encoding="UTF-8" standalone="no"?>
<svg
   xmlns:dc="http://purl.org/dc/elements/1.1/"
   xmlns:cc="http://creativecommons.org/ns#"
   xmlns:rdf="http://www.w3.org/1999/02/22-rdf-syntax-ns#"
   xmlns:svg="http://www.w3.org/2000/svg"
   xmlns="http://www.w3.org/2000/svg"
   xmlns:xlink="http://www.w3.org/1999/xlink"
   xmlns:sodipodi="http://sodipodi.sourceforge.net/DTD/sodipodi-0.dtd"
   xmlns:inkscape="http://www.inkscape.org/namespaces/inkscape"
   version="1.1"
   id="svg18157"
   height="22"
   width="22"
   sodipodi:docname="multipart-encrypted.svg"
   inkscape:version="0.92.2 2405546, 2018-03-11">
  <sodipodi:namedview
     pagecolor="#ffffff"
     bordercolor="#666666"
     borderopacity="1"
     objecttolerance="10"
     gridtolerance="10"
     guidetolerance="10"
     inkscape:pageopacity="0"
     inkscape:pageshadow="2"
     inkscape:window-width="1920"
     inkscape:window-height="1011"
     id="namedview151"
     showgrid="false"
     inkscape:zoom="19.666667"
     inkscape:cx="6.2814269"
     inkscape:cy="14.340727"
     inkscape:window-x="0"
     inkscape:window-y="32"
     inkscape:window-maximized="1"
     inkscape:current-layer="layer1" />
  <defs
     id="defs18159">
    <linearGradient
       y2="35.581654"
       x2="42.470848"
       y1="11.952797"
       x1="42.470848"
       gradientTransform="matrix(0.89189031,0,0,1.0580283,3.1206609,5.3536023)"
       gradientUnits="userSpaceOnUse"
       id="linearGradient12489"
       xlink:href="#linearGradient3454-2-5-0-3" />
    <linearGradient
       id="linearGradient3454-2-5-0-3">
      <stop
         id="stop3456-4-9-38-1"
         style="stop-color:#ffffff;stop-opacity:1"
         offset="0" />
      <stop
         id="stop3458-39-80-3-5"
         style="stop-color:#ffffff;stop-opacity:0.23529412"
         offset="0.0097359" />
      <stop
         id="stop3460-7-0-2-4"
         style="stop-color:#ffffff;stop-opacity:0.15686275"
         offset="0.99001008" />
      <stop
         id="stop3462-0-9-8-7"
         style="stop-color:#ffffff;stop-opacity:0.39215687"
         offset="1" />
    </linearGradient>
    <linearGradient
       y2="36.657963"
       x2="22.809399"
       y1="49.629246"
       x1="22.934725"
       gradientTransform="matrix(1.1446925,0,0,0.9977536,-3.466138,1.0988397)"
       gradientUnits="userSpaceOnUse"
       id="linearGradient12487"
       xlink:href="#linearGradient6129-963-697-142-998-580-273-44-2-2" />
    <linearGradient
       id="linearGradient6129-963-697-142-998-580-273-44-2-2">
      <stop
         offset="0"
         style="stop-color:#0a0a0a;stop-opacity:0.498"
         id="stop2661-01-6-2" />
      <stop
         offset="1"
         style="stop-color:#0a0a0a;stop-opacity:0"
         id="stop2663-64-5-5" />
    </linearGradient>
    <linearGradient
       y2="43.761127"
       x2="35.792694"
       y1="17.118193"
       x1="35.792694"
       gradientTransform="matrix(1,0,0,1.0357143,2.0849371e-6,-1.5890903)"
       gradientUnits="userSpaceOnUse"
       id="linearGradient12481"
       xlink:href="#linearGradient4632-0-6-4-7" />
    <linearGradient
       id="linearGradient4632-0-6-4">
      <stop
         id="stop4634-4-4-7"
         offset="0"
         style="stop-color:#aacb7d;stop-opacity:1;" />
      <stop
         id="stop4636-3-1-5"
         offset="1"
         style="stop-color:#709937;stop-opacity:1;" />
    </linearGradient>
    <radialGradient
       r="117.14286"
       fy="486.64789"
       fx="605.71429"
       cy="486.64789"
       cx="605.71429"
       gradientTransform="matrix(-0.03079083,0,0,0.02470588,23.389752,31.94164)"
       gradientUnits="userSpaceOnUse"
       id="radialGradient12475"
       xlink:href="#linearGradient5060-820-91-9-0" />
    <linearGradient
       id="linearGradient5060-820-91-9-0">
      <stop
         offset="0"
         style="stop-color:#000000;stop-opacity:1"
         id="stop2681-778-5-1" />
      <stop
         offset="1"
         style="stop-color:#000000;stop-opacity:0"
         id="stop2683-2-86-2" />
    </linearGradient>
    <radialGradient
       r="117.14286"
       fy="486.64789"
       fx="605.71429"
       cy="486.64789"
       cx="605.71429"
       gradientTransform="matrix(0.03079083,0,0,0.02470588,24.610252,31.94164)"
       gradientUnits="userSpaceOnUse"
       id="radialGradient12471"
       xlink:href="#linearGradient5060-179-37-4-0" />
    <linearGradient
       id="linearGradient5060-179-37-4-0">
      <stop
         offset="0"
         style="stop-color:#000000;stop-opacity:1"
         id="stop2675-91-9-2" />
      <stop
         offset="1"
         style="stop-color:#000000;stop-opacity:0"
         id="stop2677-09-0-9" />
    </linearGradient>
    <linearGradient
       y2="609.50507"
       x2="302.85715"
       y1="366.64789"
       x1="302.85715"
       gradientTransform="matrix(0.07938856,0,0,0.02470588,-4.6932879,31.94164)"
       gradientUnits="userSpaceOnUse"
       id="linearGradient12467"
       xlink:href="#linearGradient5048-585-73-1-5" />
    <linearGradient
       id="linearGradient5048-585-73-1-5">
      <stop
         offset="0"
         style="stop-color:#000000;stop-opacity:0"
         id="stop2667-99-4-6" />
      <stop
         offset="0.5"
         style="stop-color:#000000;stop-opacity:1"
         id="stop2669-5-9-4" />
      <stop
         offset="1"
         style="stop-color:#000000;stop-opacity:0"
         id="stop2671-56-4-2" />
    </linearGradient>
    <linearGradient
       y2="34.143417"
       x2="21.37039"
       y1="4.2476678"
       x1="21.37039"
       gradientTransform="matrix(0.89189031,0,0,1.0580283,3.1206621,5.3535997)"
       gradientUnits="userSpaceOnUse"
       id="linearGradient12463"
       xlink:href="#linearGradient4507-0-4-7" />
    <linearGradient
       id="linearGradient4507-0-4-7">
      <stop
         offset="0"
         style="stop-color:#ffffff;stop-opacity:1"
         id="stop4509-35-6-1" />
      <stop
         offset="0.07395859"
         style="stop-color:#ffffff;stop-opacity:0.23529412"
         id="stop4511-46-3-8" />
      <stop
         offset="0.99001008"
         style="stop-color:#ffffff;stop-opacity:0.15686275"
         id="stop4513-15-5-9" />
      <stop
         offset="1"
         style="stop-color:#ffffff;stop-opacity:0.39215687"
         id="stop4515-1-1-8" />
    </linearGradient>
    <linearGradient
       id="linearGradient4646-7-4-3">
      <stop
         id="stop4648-8-0-3"
         style="stop-color:#f9f9f9;stop-opacity:1"
         offset="0" />
      <stop
         id="stop4650-1-7-3"
         style="stop-color:#d8d8d8;stop-opacity:1"
         offset="1" />
    </linearGradient>
    <linearGradient
       id="linearGradient3104-8-8-97-4-6-11-5-5">
      <stop
         id="stop3106-5-4-3-5-0-2-1-0"
         style="stop-color:#000000;stop-opacity:0.32173914"
         offset="0" />
      <stop
         id="stop3108-4-3-7-8-2-0-7-9"
         style="stop-color:#000000;stop-opacity:0.27826086"
         offset="1" />
    </linearGradient>
    <linearGradient
       xlink:href="#linearGradient3104-8-8-97-4-6-11-5-5"
       id="linearGradient18155"
       gradientUnits="userSpaceOnUse"
       gradientTransform="matrix(0.80749834,0,0,0.83374395,106.87672,-0.06984031)"
       x1="-51.786404"
       y1="53.514328"
       x2="-51.786404"
       y2="3.6336823" />
    <linearGradient
       xlink:href="#linearGradient7012-661-145-733-759-865-745"
       id="linearGradient3840"
       x1="22.559322"
       y1="16.466301"
       x2="22.559322"
       y2="44.376751"
       gradientUnits="userSpaceOnUse" />
    <radialGradient
       xlink:href="#linearGradient3484"
       id="radialGradient3070"
       gradientUnits="userSpaceOnUse"
       gradientTransform="matrix(-1.274898e-8,1.7142916,-2.159331,-1.4599595e-8,12.809361,2.8570011)"
       cx="3"
       cy="5.01718"
       fx="3"
       fy="5.01718"
       r="21" />
    <linearGradient
       xlink:href="#linearGradient6404"
       id="linearGradient3068"
       gradientUnits="userSpaceOnUse"
       gradientTransform="translate(-50.940898)"
       x1="62.988873"
       y1="13.182598"
       x2="62.988873"
       y2="16.19013" />
    <linearGradient
       xlink:href="#linearGradient3390"
       id="linearGradient3061"
       gradientUnits="userSpaceOnUse"
       gradientTransform="translate(-53.765393,-0.1141929)"
       x1="82.453476"
       y1="45.114193"
       x2="65.340263"
       y2="15.943953" />
    <linearGradient
       xlink:href="#linearGradient6129-963-697-142-998-580-273"
       id="linearGradient3056"
       gradientUnits="userSpaceOnUse"
       gradientTransform="matrix(1.1446925,0,0,0.9977536,-3.4661413,1.0988425)"
       x1="22.934725"
       y1="49.629246"
       x2="22.809399"
       y2="36.657963" />
    <radialGradient
       xlink:href="#linearGradient6087-437-184-795-110-662-495"
       id="radialGradient3053"
       gradientUnits="userSpaceOnUse"
       gradientTransform="matrix(0,1.2079744,-1.6271642,0,26.371748,8.2664685)"
       cx="7.2646537"
       cy="8.3021259"
       fx="7.2646537"
       fy="8.3021259"
       r="20.979567" />
    <linearGradient
       xlink:href="#linearGradient8265-821-176-38-919-66-249"
       id="linearGradient3050"
       gradientUnits="userSpaceOnUse"
       x1="11.566265"
       y1="22.292103"
       x2="15.214532"
       y2="33.95525" />
    <linearGradient
       x1="11.566265"
       y1="22.292103"
       x2="15.214532"
       y2="33.95525"
       id="linearGradient3466"
       xlink:href="#linearGradient8265-821-176-38-919-66-249"
       gradientUnits="userSpaceOnUse" />
    <linearGradient
       id="linearGradient8265-821-176-38-919-66-249">
      <stop
         id="stop2687"
         style="stop-color:#ffffff;stop-opacity:0.2"
         offset="0" />
      <stop
         id="stop2689"
         style="stop-color:#ffffff;stop-opacity:0"
         offset="1" />
    </linearGradient>
    <radialGradient
       cx="7.2646537"
       cy="8.3021259"
       r="20.979567"
       fx="7.2646537"
       fy="8.3021259"
       id="radialGradient2442-940-759"
       xlink:href="#linearGradient6087-437-184-795-110-662-495"
       gradientUnits="userSpaceOnUse"
       gradientTransform="matrix(0,1.2079744,-1.6271642,0,26.371748,8.2664685)" />
    <linearGradient
       id="linearGradient6087-437-184-795-110-662-495">
      <stop
         id="stop2693"
         style="stop-color:#ffffff;stop-opacity:0.40000001"
         offset="0" />
      <stop
         id="stop2695"
         style="stop-color:#ffffff;stop-opacity:0"
         offset="1" />
    </linearGradient>
    <linearGradient
       x1="22.934725"
       y1="49.629246"
       x2="22.809399"
       y2="36.657963"
       id="linearGradient6462-657-405"
       xlink:href="#linearGradient6129-963-697-142-998-580-273"
       gradientUnits="userSpaceOnUse"
       gradientTransform="matrix(1.1446925,0,0,0.9977536,-3.4661413,1.0988425)" />
    <linearGradient
       id="linearGradient6129-963-697-142-998-580-273">
      <stop
         id="stop2661"
         style="stop-color:#0a0a0a;stop-opacity:0.498"
         offset="0" />
      <stop
         id="stop2663"
         style="stop-color:#0a0a0a;stop-opacity:0"
         offset="1" />
    </linearGradient>
    <radialGradient
       cx="63.969177"
       cy="14.113381"
       r="23.097054"
       fx="63.969177"
       fy="14.113381"
       id="radialGradient3404"
       xlink:href="#linearGradient7012-661-145-733-759-865-745"
       gradientUnits="userSpaceOnUse"
       gradientTransform="matrix(1.5646925,-9.5143002e-8,6.1772287e-8,1.015888,-86.212573,8.1461173)" />
    <linearGradient
       id="linearGradient7012-661-145-733-759-865-745">
      <stop
         id="stop2699"
         style="stop-color:#aacb7d;stop-opacity:1"
         offset="0" />
      <stop
         id="stop2701"
         style="stop-color:#709937;stop-opacity:1"
         offset="1" />
    </linearGradient>
    <linearGradient
       x1="82.453476"
       y1="45.114193"
       x2="65.340263"
       y2="15.943953"
       id="linearGradient3412"
       xlink:href="#linearGradient3390"
       gradientUnits="userSpaceOnUse"
       gradientTransform="translate(-53.765393,-0.1141929)" />
    <linearGradient
       id="linearGradient3390">
      <stop
         id="stop3392"
         style="stop-color:#51751e;stop-opacity:1"
         offset="0" />
      <stop
         id="stop3394"
         style="stop-color:#51751e;stop-opacity:1"
         offset="1" />
    </linearGradient>
    <linearGradient
       x1="302.85715"
       y1="366.64789"
       x2="302.85715"
       y2="609.50507"
       id="linearGradient7596-975"
       xlink:href="#linearGradient5048-585"
       gradientUnits="userSpaceOnUse"
       gradientTransform="matrix(0.08284024,0,0,0.03705882,-5.9408285,25.412461)" />
    <linearGradient
       id="linearGradient5048-585">
      <stop
         id="stop2667"
         style="stop-color:#000000;stop-opacity:0"
         offset="0" />
      <stop
         id="stop2669"
         style="stop-color:#000000;stop-opacity:1"
         offset="0.5" />
      <stop
         id="stop2671"
         style="stop-color:#000000;stop-opacity:0"
         offset="1" />
    </linearGradient>
    <radialGradient
       cx="605.71429"
       cy="486.64789"
       r="117.14286"
       fx="605.71429"
       fy="486.64789"
       id="radialGradient7598-526"
       xlink:href="#linearGradient5060-179"
       gradientUnits="userSpaceOnUse"
       gradientTransform="matrix(0.03212956,0,0,0.03705882,24.636785,25.412461)" />
    <linearGradient
       id="linearGradient5060-179">
      <stop
         id="stop2675"
         style="stop-color:#000000;stop-opacity:1"
         offset="0" />
      <stop
         id="stop2677"
         style="stop-color:#000000;stop-opacity:0"
         offset="1" />
    </linearGradient>
    <radialGradient
       cx="605.71429"
       cy="486.64789"
       r="117.14286"
       fx="605.71429"
       fy="486.64789"
       id="radialGradient7600-312"
       xlink:href="#linearGradient5060-820"
       gradientUnits="userSpaceOnUse"
       gradientTransform="matrix(-0.03212956,0,0,0.03705882,23.363215,25.412461)" />
    <linearGradient
       id="linearGradient5060-820">
      <stop
         id="stop2681"
         style="stop-color:#000000;stop-opacity:1"
         offset="0" />
      <stop
         id="stop2683"
         style="stop-color:#000000;stop-opacity:0"
         offset="1" />
    </linearGradient>
    <linearGradient
       x1="62.988873"
       y1="13.182598"
       x2="62.988873"
       y2="16.19013"
       id="linearGradient3482"
       xlink:href="#linearGradient6404"
       gradientUnits="userSpaceOnUse"
       gradientTransform="translate(-50.940898)" />
    <linearGradient
       id="linearGradient6404">
      <stop
         id="stop6406"
         style="stop-color:#f9f9f9;stop-opacity:1"
         offset="0" />
      <stop
         id="stop6408"
         style="stop-color:#c9c9c9;stop-opacity:1"
         offset="1" />
    </linearGradient>
    <radialGradient
       cx="3"
       cy="5.01718"
       r="21"
       fx="3"
       fy="5.01718"
       id="radialGradient3470"
       xlink:href="#linearGradient3484"
       gradientUnits="userSpaceOnUse"
       gradientTransform="matrix(-1.274898e-8,1.7142916,-2.159331,-1.4599595e-8,12.809361,2.8570011)" />
    <linearGradient
       id="linearGradient3484">
      <stop
         id="stop3486"
         style="stop-color:#bdbdbd;stop-opacity:1"
         offset="0" />
      <stop
         id="stop3488"
         style="stop-color:#d0d0d0;stop-opacity:1"
         offset="1" />
    </linearGradient>
    <linearGradient
       x1="86.132919"
       y1="105.105"
       x2="84.63858"
       y2="20.895"
       id="linearGradient2606"
       xlink:href="#linearGradient5128"
       gradientUnits="userSpaceOnUse"
       gradientTransform="matrix(0.2014014,0,0,0.2014015,18.110304,20.311705)" />
    <linearGradient
       id="linearGradient5128">
      <stop
         id="stop5130"
         style="stop-color:#ffffff;stop-opacity:1"
         offset="0" />
      <stop
         id="stop5132"
         style="stop-color:#959595;stop-opacity:1"
         offset="1" />
    </linearGradient>
    <linearGradient
       x1="32.036148"
       y1="19"
       x2="32.036148"
       y2="47.012184"
       id="linearGradient3413"
       xlink:href="#linearGradient3309"
       gradientUnits="userSpaceOnUse" />
    <linearGradient
       x1="63.9995"
       y1="3.1001"
       x2="63.9995"
       y2="122.8994"
       id="linearGradient3309"
       gradientUnits="userSpaceOnUse">
      <stop
         id="stop3311"
         style="stop-color:#f6f6f6;stop-opacity:1"
         offset="0" />
      <stop
         id="stop3313"
         style="stop-color:#d2d2d2;stop-opacity:1"
         offset="1" />
    </linearGradient>
    <linearGradient
       x1="25.922546"
       y1="19"
       x2="25.922546"
       y2="47.044857"
       id="linearGradient3415"
       xlink:href="#linearGradient3397"
       gradientUnits="userSpaceOnUse" />
    <linearGradient
       id="linearGradient3397">
      <stop
         id="stop3399"
         style="stop-color:#a0a0a0;stop-opacity:1"
         offset="0" />
      <stop
         id="stop3401"
         style="stop-color:#787878;stop-opacity:1"
         offset="1" />
    </linearGradient>
    <linearGradient
       y2="36.599415"
       x2="22.934725"
       y1="49.629246"
       x1="22.934725"
       gradientTransform="matrix(2.2041262,0,0,1.9531236,44.81525,2.9681362)"
       gradientUnits="userSpaceOnUse"
       id="linearGradient5887"
       xlink:href="#linearGradient6129-963-697-142-998-580-273-44-2-2" />
    <linearGradient
       y2="119.05979"
       x2="-91"
       y1="43.999817"
       x1="-91"
       gradientTransform="matrix(0.72580649,0,0,0.74516186,116.81336,18.325446)"
       gradientUnits="userSpaceOnUse"
       id="linearGradient5883"
       xlink:href="#linearGradient4632-0-6-4-7" />
    <linearGradient
       id="linearGradient4632-0-6-4-7">
      <stop
         id="stop4634-4-4-7-5"
         offset="0"
         style="stop-color:#55a7f3;stop-opacity:1;" />
      <stop
         id="stop4636-3-1-5-3"
         offset="1"
         style="stop-color:#1374cf;stop-opacity:1;" />
    </linearGradient>
    <linearGradient
       id="linearGradient3225"
       y2="5.4565001"
       gradientUnits="userSpaceOnUse"
       x2="36.358002"
       gradientTransform="matrix(0.90659037,0,0,0.92290809,-6.5012794,16.209194)"
       y1="8.059"
       x1="32.891998">
      <stop
         id="stop8591"
         style="stop-color:#8c8c8c;stop-opacity:1"
         offset="0" />
      <stop
         id="stop8593"
         style="stop-color:#646464;stop-opacity:1"
         offset="1" />
    </linearGradient>
    <radialGradient
       gradientTransform="matrix(0.38970735,0,0,0.33673464,-1.8488136,15.921719)"
       gradientUnits="userSpaceOnUse"
       xlink:href="#linearGradient3737"
       id="radialGradient3619-6"
       fy="90.171875"
       fx="48"
       r="42"
       cy="90.171875"
       cx="48" />
    <linearGradient
       id="linearGradient3737">
      <stop
         id="stop3739"
         style="stop-color:#ffffff;stop-opacity:1"
         offset="0" />
      <stop
         id="stop3741"
         style="stop-color:#ffffff;stop-opacity:0"
         offset="1" />
    </linearGradient>
    <linearGradient
       gradientTransform="matrix(0,-0.42933676,0.33673468,0,0.69387786,48.861735)"
       gradientUnits="userSpaceOnUse"
       xlink:href="#linearGradient3742"
       id="linearGradient3748"
       y2="51.433136"
       x2="23.76619"
       y1="51.470146"
       x1="7.3709002" />
    <linearGradient
       id="linearGradient3742">
      <stop
         offset="0"
         style="stop-color:#323232;stop-opacity:1"
         id="stop3744" />
      <stop
         offset="1"
         style="stop-color:#464646;stop-opacity:1"
         id="stop3746" />
    </linearGradient>
    <linearGradient
       gradientTransform="matrix(0.42857142,0,0,0.42857142,227.50536,-101.23132)"
       gradientUnits="userSpaceOnUse"
       xlink:href="#ButtonColor-7"
       id="linearGradient3617"
       y2="5.9877172"
       x2="48"
       y1="90"
       x1="48" />
    <linearGradient
       gradientUnits="userSpaceOnUse"
       id="ButtonColor-7"
       y2="0.99929649"
       x2="10.31979"
       y1="21"
       x1="10.31979">
      <stop
         offset="0"
         style="stop-color:#505050;stop-opacity:1"
         id="stop3189" />
      <stop
         offset="1"
         style="stop-color:#787878;stop-opacity:1"
         id="stop3191" />
    </linearGradient>
    <linearGradient
       gradientTransform="matrix(0.4285717,0,0,0.43033246,227.50536,-101.24189)"
       y2="63.893143"
       x2="36.357143"
       y1="6"
       x1="36.357143"
       gradientUnits="userSpaceOnUse"
       id="linearGradient2015"
       xlink:href="#linearGradient3737" />
    <linearGradient
       y2="90.238609"
       x2="32.251034"
       y1="6.1317081"
       x1="32.251034"
       gradientTransform="matrix(0.88966473,0,0,-0.88897608,103.82866,91.764071)"
       gradientUnits="userSpaceOnUse"
       id="linearGradient1974"
       xlink:href="#ButtonShadow-0" />
    <linearGradient
       x1="45.447727"
       y1="92.539597"
       x2="45.447727"
       y2="7.0165396"
       id="ButtonShadow-0"
       gradientUnits="userSpaceOnUse"
       gradientTransform="matrix(1.0058652,0,0,0.994169,100,0)">
      <stop
         id="stop3750-8"
         style="stop-color:#000000;stop-opacity:1"
         offset="0" />
      <stop
         id="stop3752-5-4"
         style="stop-color:#000000;stop-opacity:0.58823532"
         offset="1" />
    </linearGradient>
    <linearGradient
       y2="90.238609"
       x2="32.251034"
       y1="6.1317081"
       x1="32.251034"
       gradientTransform="matrix(0.88668581,0,0,-0.88621557,103.97166,91.631566)"
       gradientUnits="userSpaceOnUse"
       id="linearGradient1976"
       xlink:href="#ButtonShadow-0" />
    <linearGradient
       y2="90.238609"
       x2="32.251034"
       y1="6.1317081"
       x1="32.251034"
       gradientTransform="matrix(0.90932204,0,0,-0.90907903,8.9451063,90.567956)"
       gradientUnits="userSpaceOnUse"
       id="linearGradient1978"
       xlink:href="#ButtonShadow-0" />
    <linearGradient
       x1="32.251034"
       y1="6.1317081"
       x2="32.251034"
       y2="90.238609"
       id="linearGradient3780"
       xlink:href="#ButtonShadow-0"
       gradientUnits="userSpaceOnUse"
       gradientTransform="matrix(0.88394566,0,0,-0.88394572,10.163169,89.361561)" />
    <linearGradient
       x1="32.251034"
       y1="6.1317081"
       x2="32.251034"
       y2="90.238609"
       id="linearGradient3721-0"
       xlink:href="#ButtonShadow-0"
       gradientUnits="userSpaceOnUse"
       gradientTransform="matrix(0.83742219,0,0,-0.8374222,12.396274,87.12843)" />
    <linearGradient
       id="linearGradient3225-6"
       y2="5.4565001"
       gradientUnits="userSpaceOnUse"
       x2="36.358002"
       gradientTransform="matrix(1.1538423,0,0,1.1746103,-7.1476824,6.2923109)"
       y1="8.059"
       x1="32.891998">
      <stop
         id="stop8591-7"
         style="stop-color:#497db8;stop-opacity:1"
         offset="0" />
      <stop
         id="stop8593-5"
         style="stop-color:#276096;stop-opacity:1"
         offset="1" />
    </linearGradient>
    <clipPath
       id="clipPath3776">
      <path
         d="m -88,6 c -3.324,0 -6,2.676 -6,6 v 72 c 0,3.324 2.676,6 6,6 h 72 c 3.324,0 6,-2.676 6,-6 V 12 c 0,-3.324 -2.676,-6 -6,-6 z m 14.78125,18 h 4.40625 c 0.944132,1.3e-5 1.646705,0.342872 2.15625,1.09375 0.404619,0.605567 0.656238,1.330757 0.65625,2.09375 v 5.6875 c -1.2e-5,0.763003 -0.25163,1.449916 -0.65625,2.03125 C -67.165796,35.645027 -67.868369,36 -68.8125,36 h -4.40625 c -0.929155,0 -1.677969,-0.35497 -2.1875,-1.09375 C -75.810883,34.324914 -76,33.638004 -76,32.875 v -5.6875 c 10e-7,-0.762992 0.189117,-1.488183 0.59375,-2.09375 0.509531,-0.750878 1.258345,-1.093738 2.1875,-1.09375 z m 11.25,0 H -57.875 V 35 H -54 v 1 h -10 v -1 h 3.875 V 25 h -1.84375 z m 12.75,0 h 4.40625 c 0.944132,1.3e-5 1.646705,0.342872 2.15625,1.09375 0.404619,0.605567 0.656238,1.330757 0.65625,2.09375 v 5.6875 c -1.2e-5,0.763003 -0.25163,1.449916 -0.65625,2.03125 C -43.165796,35.645027 -43.868369,36 -44.8125,36 h -4.40625 c -0.929155,0 -1.677969,-0.35497 -2.1875,-1.09375 C -51.810883,34.324914 -52,33.638004 -52,32.875 v -5.6875 c 10e-7,-0.762992 0.189117,-1.488183 0.59375,-2.09375 0.509531,-0.750878 1.258345,-1.093738 2.1875,-1.09375 z m 12,0 h 4.40625 c 0.944132,1.3e-5 1.646705,0.342872 2.15625,1.09375 0.404619,0.605567 0.656238,1.330757 0.65625,2.09375 v 5.6875 c -1.2e-5,0.763003 -0.25163,1.449916 -0.65625,2.03125 C -31.165796,35.645027 -31.868369,36 -32.8125,36 h -4.40625 c -0.929155,0 -1.677969,-0.35497 -2.1875,-1.09375 C -39.810883,34.324914 -40,33.638004 -40,32.875 v -5.6875 c 10e-7,-0.762992 0.189117,-1.488183 0.59375,-2.09375 0.509531,-0.750878 1.258345,-1.093738 2.1875,-1.09375 z m -34.875,1 c -0.614442,1.2e-5 -1.107805,0.260482 -1.4375,0.78125 -0.254769,0.411788 -0.406252,0.897591 -0.40625,1.40625 v 5.6875 c -2e-6,0.363335 0.100134,0.704251 0.25,1.03125 l 4.53125,-8.78125 c -0.209815,-0.08476 -0.432739,-0.124989 -0.6875,-0.125 z m 24,0 c -0.614442,1.2e-5 -1.107805,0.260482 -1.4375,0.78125 -0.254769,0.411788 -0.406252,0.897591 -0.40625,1.40625 v 5.6875 c -2e-6,0.363335 0.100134,0.704251 0.25,1.03125 l 4.53125,-8.78125 c -0.209815,-0.08476 -0.432739,-0.124989 -0.6875,-0.125 z m 12,0 c -0.614442,1.2e-5 -1.107805,0.260482 -1.4375,0.78125 -0.254769,0.411788 -0.406252,0.897591 -0.40625,1.40625 v 5.6875 c -2e-6,0.363335 0.100134,0.704251 0.25,1.03125 l 4.53125,-8.78125 c -0.209815,-0.08476 -0.432739,-0.124989 -0.6875,-0.125 z m -32.15625,1.15625 -4.5,8.75 c 0.194818,0.07266 0.43145,0.125001 0.65625,0.125 h 2.25 c 0.614432,2e-6 1.06028,-0.260469 1.375,-0.78125 0.254761,-0.399664 0.406243,-0.878441 0.40625,-1.375 v -5.6875 c -7e-6,-0.351212 -0.05263,-0.692128 -0.1875,-1.03125 z m 24,0 -4.5,8.75 c 0.194818,0.07266 0.43145,0.125001 0.65625,0.125 h 2.25 c 0.614432,2e-6 1.06028,-0.260469 1.375,-0.78125 0.254761,-0.399664 0.406243,-0.878441 0.40625,-1.375 v -5.6875 c -7e-6,-0.351212 -0.05263,-0.692128 -0.1875,-1.03125 z m 12,0 -4.5,8.75 c 0.194818,0.07266 0.43145,0.125001 0.65625,0.125 h 2.25 c 0.614432,2e-6 1.06028,-0.260469 1.375,-0.78125 0.254761,-0.399664 0.406243,-0.878441 0.40625,-1.375 v -5.6875 c -7e-6,-0.351212 -0.05263,-0.692128 -0.1875,-1.03125 z M -73.96875,42 H -69.875 V 53 H -66 v 1 h -10 v -1 h 3.875 V 43 h -1.84375 z m 12,0 H -57.875 V 53 H -54 v 1 h -10 v -1 h 3.875 V 43 h -1.84375 z m 12.75,0 h 4.40625 c 0.944132,1.3e-5 1.646705,0.342872 2.15625,1.09375 0.404619,0.605567 0.656238,1.330757 0.65625,2.09375 v 5.6875 c -1.2e-5,0.763003 -0.25163,1.449916 -0.65625,2.03125 C -43.165796,53.645027 -43.868369,54 -44.8125,54 h -4.40625 c -0.929155,0 -1.677969,-0.35497 -2.1875,-1.09375 C -51.810883,52.324914 -52,51.638004 -52,50.875 v -5.6875 c 10e-7,-0.762992 0.189117,-1.488183 0.59375,-2.09375 0.509531,-0.750878 1.258345,-1.093738 2.1875,-1.09375 z m 11.25,0 H -33.875 V 53 H -30 v 1 h -10 v -1 h 3.875 V 43 h -1.84375 z m -10.125,1 c -0.614442,1.2e-5 -1.107805,0.260482 -1.4375,0.78125 -0.254769,0.411788 -0.406252,0.897591 -0.40625,1.40625 v 5.6875 c -2e-6,0.363335 0.100134,0.704251 0.25,1.03125 l 4.53125,-8.78125 c -0.209815,-0.08476 -0.432739,-0.124989 -0.6875,-0.125 z m 3.84375,1.15625 -4.5,8.75 c 0.194818,0.07266 0.43145,0.125001 0.65625,0.125 h 2.25 c 0.614432,2e-6 1.06028,-0.260469 1.375,-0.78125 0.254761,-0.399664 0.406243,-0.878441 0.40625,-1.375 v -5.6875 c -7e-6,-0.351212 -0.05263,-0.692128 -0.1875,-1.03125 z M -73.96875,60 H -69.875 V 71 H -66 v 1 h -10 v -1 h 3.875 V 61 h -1.84375 z m 12.75,0 h 4.40625 c 0.944132,1.3e-5 1.646705,0.342872 2.15625,1.09375 0.404619,0.605567 0.656238,1.330757 0.65625,2.09375 v 5.6875 c -1.2e-5,0.763003 -0.25163,1.449916 -0.65625,2.03125 C -55.165796,71.645027 -55.868369,72 -56.8125,72 h -4.40625 c -0.929155,0 -1.677969,-0.35497 -2.1875,-1.09375 C -63.810883,70.324914 -64,69.638004 -64,68.875 v -5.6875 c 10e-7,-0.762992 0.189117,-1.488183 0.59375,-2.09375 0.509531,-0.750878 1.258345,-1.093738 2.1875,-1.09375 z m 12,0 h 4.40625 c 0.944132,1.3e-5 1.646705,0.342872 2.15625,1.09375 0.404619,0.605567 0.656238,1.330757 0.65625,2.09375 v 5.6875 c -1.2e-5,0.763003 -0.25163,1.449916 -0.65625,2.03125 C -43.165796,71.645027 -43.868369,72 -44.8125,72 h -4.40625 c -0.929155,0 -1.677969,-0.35497 -2.1875,-1.09375 C -51.810883,70.324914 -52,69.638004 -52,68.875 v -5.6875 c 10e-7,-0.762992 0.189117,-1.488183 0.59375,-2.09375 0.509531,-0.750878 1.258345,-1.093738 2.1875,-1.09375 z m 11.25,0 H -33.875 V 71 H -30 v 1 h -10 v -1 h 3.875 V 61 h -1.84375 z m -22.125,1 c -0.614442,1.2e-5 -1.107805,0.260482 -1.4375,0.78125 -0.254769,0.411788 -0.406252,0.897591 -0.40625,1.40625 v 5.6875 c -2e-6,0.363335 0.100134,0.704251 0.25,1.03125 l 4.53125,-8.78125 c -0.209815,-0.08476 -0.432739,-0.124989 -0.6875,-0.125 z m 12,0 c -0.614442,1.2e-5 -1.107805,0.260482 -1.4375,0.78125 -0.254769,0.411788 -0.406252,0.897591 -0.40625,1.40625 v 5.6875 c -2e-6,0.363335 0.100134,0.704251 0.25,1.03125 l 4.53125,-8.78125 c -0.209815,-0.08476 -0.432739,-0.124989 -0.6875,-0.125 z m -8.15625,1.15625 -4.5,8.75 c 0.194818,0.07266 0.43145,0.125001 0.65625,0.125 h 2.25 c 0.614432,2e-6 1.06028,-0.260469 1.375,-0.78125 0.254761,-0.399664 0.406243,-0.878441 0.40625,-1.375 v -5.6875 c -7e-6,-0.351212 -0.05263,-0.692128 -0.1875,-1.03125 z m 12,0 -4.5,8.75 c 0.194818,0.07266 0.43145,0.125001 0.65625,0.125 h 2.25 c 0.614432,2e-6 1.06028,-0.260469 1.375,-0.78125 0.254761,-0.399664 0.406243,-0.878441 0.40625,-1.375 v -5.6875 c -7e-6,-0.351212 -0.05263,-0.692128 -0.1875,-1.03125 z"
         inkscape:connector-curvature="0"
         id="path3779"
         style="fill:#ff00ff;fill-opacity:1;fill-rule:nonzero;stroke:none" />
    </clipPath>
    <filter
       style="color-interpolation-filters:sRGB"
       x="-0.14713043"
       y="-0.141"
       width="1.2942609"
       height="1.2819999"
       id="filter3785">
      <feGaussianBlur
         id="feGaussianBlur3787"
         stdDeviation="2.82" />
    </filter>
  </defs>
  <metadata
     id="metadata18162">
    <rdf:RDF>
      <cc:Work
         rdf:about="">
        <dc:format>image/svg+xml</dc:format>
        <dc:type
           rdf:resource="http://purl.org/dc/dcmitype/StillImage" />
        <dc:title></dc:title>
      </cc:Work>
    </rdf:RDF>
  </metadata>
  <g
     id="layer1"
     transform="matrix(0.7,0,0,0.7,-0.79999983,-11.5)">
    <g
       style="display:inline"
       id="layer5"
       transform="matrix(0.40210864,0,0,0.40210864,-4.2907784,13.271027)">
      <path
         style="display:inline;opacity:0.32900002;fill:url(#linearGradient1978);fill-opacity:1;fill-rule:nonzero;stroke:none;stroke-width:0.89326495"
         id="path3770"
         d="m 20.618253,86.01187 c -3.916074,0 -7.105399,-3.225978 -7.105399,-7.187076 V 15.039542 c 0,-3.961099 3.189325,-7.1870759 7.105399,-7.1870759 H 61.848275 L 91.672258,37.676449 v 41.148345 c 0,3.961098 -3.189315,7.187076 -7.1054,7.187076 z"
         inkscape:connector-curvature="0" />
      <path
         id="rect3723"
         d="m 21.510559,84.057885 h 62.16399 c 3.34823,0 6.04372,-2.727212 6.04372,-6.114824 V 38.904982 L 60.619729,9.8064506 h -39.10917 c -3.34822,0 -6.04372,2.7272114 -6.04372,6.1148244 v 62.021786 c 0,3.387612 2.6955,6.114824 6.04372,6.114824 z"
         style="display:inline;opacity:0.41199999;fill:url(#linearGradient3780);fill-opacity:1;fill-rule:nonzero;stroke:none;stroke-width:0.86845267"
         inkscape:connector-curvature="0" />
    </g>
    <g
       id="layer1-3"
       transform="matrix(0.78571428,0,0,0.78571428,-178.06033,95.518491)"
       style="opacity:1">
      <path
         id="rect2419-1"
         d="m 232.64822,-98.6599 h 19.54285 l 13.88572,13.885715 v 19.542857 c 0,1.424571 -1.14685,2.571428 -2.57143,2.571428 h -30.85714 c -1.42458,0 -2.57143,-1.146857 -2.57143,-2.571428 v -30.857144 c 0,-1.424571 1.14685,-2.571428 2.57143,-2.571428 z"
         style="fill:url(#linearGradient3617);fill-opacity:1;fill-rule:nonzero;stroke:none;stroke-width:0.42857143"
         inkscape:connector-curvature="0" />
      <path
         style="opacity:0.3;fill:url(#linearGradient2015);fill-opacity:1;fill-rule:nonzero;stroke:none;stroke-width:0.4294512"
         id="rect3728-7"
         d="m 232.64822,-98.6599 c -1.42457,0 -2.57143,1.151568 -2.57143,2.581998 v 0.860662 28.234034 c 1.98322,4.185183 0.51348,2.977317 0.42857,0.430332 v -28.09486 -0.860668 c 0,-1.197119 0.95064,-2.151664 2.14286,-2.151664 h 0.85715 17.82858 0.85715 l 13.45714,13.326778 v 0.860667 16.919747 c -1.2063,3.165148 0.42855,3.584963 0.42855,-0.430333 v -16.919747 -0.860668 L 252.19108,-98.6599 Z"
         inkscape:connector-curvature="0" />
    </g>
    <g
       id="g1013"
       transform="matrix(1.0057143,0,0,1.0057143,-4.1842463,13.060147)">
      <path
         d="m -73.21875,24 c -0.929155,1.2e-5 -1.677969,0.342872 -2.1875,1.09375 -0.404633,0.605567 -0.593749,1.330758 -0.59375,2.09375 v 5.6875 c 0,0.763004 0.189117,1.449914 0.59375,2.03125 0.509531,0.73878 1.258345,1.09375 2.1875,1.09375 h 4.40625 c 0.944131,0 1.646704,-0.354973 2.15625,-1.09375 0.40462,-0.581334 0.656238,-1.268247 0.65625,-2.03125 v -5.6875 c -1.2e-5,-0.762993 -0.251631,-1.488183 -0.65625,-2.09375 C -67.165795,24.342872 -67.868368,24.000013 -68.8125,24 Z m 11.25,0 v 1 H -60.125 V 35 H -64 v 1 h 10 v -1 h -3.875 V 24 Z m 12.75,0 c -0.929155,1.2e-5 -1.677969,0.342872 -2.1875,1.09375 -0.404633,0.605567 -0.593749,1.330758 -0.59375,2.09375 v 5.6875 c 0,0.763004 0.189117,1.449914 0.59375,2.03125 0.509531,0.73878 1.258345,1.09375 2.1875,1.09375 h 4.40625 c 0.944131,0 1.646704,-0.354973 2.15625,-1.09375 0.40462,-0.581334 0.656238,-1.268247 0.65625,-2.03125 v -5.6875 c -1.2e-5,-0.762993 -0.251631,-1.488183 -0.65625,-2.09375 C -43.165795,24.342872 -43.868368,24.000013 -44.8125,24 Z m -22.875,1 h 2.25 c 0.254761,1.1e-5 0.477685,0.04024 0.6875,0.125 l -4.53125,8.78125 c -0.149866,-0.326999 -0.250002,-0.667915 -0.25,-1.03125 v -5.6875 c -2e-6,-0.508659 0.151481,-0.994462 0.40625,-1.40625 0.329695,-0.520768 0.823058,-0.781238 1.4375,-0.78125 z m 24,0 h 2.25 c 0.254761,1.1e-5 0.477685,0.04024 0.6875,0.125 l -4.53125,8.78125 c -0.149866,-0.326999 -0.250002,-0.667915 -0.25,-1.03125 v -5.6875 c -2e-6,-0.508659 0.151481,-0.994462 0.40625,-1.40625 0.329695,-0.520768 0.823058,-0.781238 1.4375,-0.78125 z M -68.25,26.15625 c 0.134869,0.339122 0.187493,0.680038 0.1875,1.03125 v 5.6875 c -7e-6,0.496559 -0.151489,0.975336 -0.40625,1.375 -0.31472,0.520781 -0.760568,0.781252 -1.375,0.78125 h -2.25 c -0.2248,10e-7 -0.461432,-0.05234 -0.65625,-0.125 z m 24,0 c 0.134869,0.339122 0.187493,0.680038 0.1875,1.03125 v 5.6875 c -7e-6,0.496559 -0.151489,0.975336 -0.40625,1.375 -0.31472,0.520781 -0.760568,0.781252 -1.375,0.78125 h -2.25 c -0.2248,10e-7 -0.461432,-0.05234 -0.65625,-0.125 z M -73.96875,42 v 1 H -72.125 V 53 H -76 v 1 h 10 v -1 h -3.875 V 42 Z m 12,0 v 1 H -60.125 V 53 H -64 v 1 h 10 v -1 h -3.875 V 42 Z m 12.75,0 c -0.929155,1.2e-5 -1.677969,0.342872 -2.1875,1.09375 -0.404633,0.605567 -0.593749,1.330758 -0.59375,2.09375 v 5.6875 c 0,0.763004 0.189117,1.449914 0.59375,2.03125 0.509531,0.73878 1.258345,1.09375 2.1875,1.09375 h 4.40625 c 0.944131,0 1.646704,-0.354973 2.15625,-1.09375 0.40462,-0.581334 0.656238,-1.268247 0.65625,-2.03125 v -5.6875 c -1.2e-5,-0.762993 -0.251631,-1.488183 -0.65625,-2.09375 C -43.165795,42.342872 -43.868368,42.000013 -44.8125,42 Z m 1.125,1 h 2.25 c 0.254761,1.1e-5 0.477685,0.04024 0.6875,0.125 l -4.53125,8.78125 c -0.149866,-0.326999 -0.250002,-0.667915 -0.25,-1.03125 v -5.6875 c -2e-6,-0.508659 0.151481,-0.994462 0.40625,-1.40625 0.329695,-0.520768 0.823058,-0.781238 1.4375,-0.78125 z m 3.84375,1.15625 c 0.134869,0.339122 0.187493,0.680038 0.1875,1.03125 v 5.6875 c -7e-6,0.496559 -0.151489,0.975336 -0.40625,1.375 -0.31472,0.520781 -0.760568,0.781252 -1.375,0.78125 h -2.25 c -0.2248,10e-7 -0.461432,-0.05234 -0.65625,-0.125 z"
         inkscape:connector-curvature="0"
         transform="matrix(0.40626627,0,0,0.40626627,39.625847,0.99921956)"
         clip-path="url(#clipPath3776)"
         id="path3699"
         style="font-style:normal;font-variant:normal;font-weight:normal;font-stretch:normal;font-size:16px;line-height:100%;font-family:Unispace;-inkscape-font-specification:Unispace;text-align:start;writing-mode:lr-tb;text-anchor:start;display:inline;opacity:0.6;fill:none;stroke:#aaaaaa;stroke-width:2;stroke-miterlimit:4;stroke-dasharray:none;stroke-opacity:1;filter:url(#filter3785)"
         sodipodi:nodetypes="cccscssccccccccccccccccccccscsscccccccccccccccccccccccccccccccccccccccccccccccccccccccccccccccscsscccccccccccccccccccccc" />
      <g
         transform="matrix(0.40626627,0,0,0.40626627,1.4368164,0.99921956)"
         id="g2467"
         style="display:inline;fill:#dcdcdc;fill-opacity:1">
        <path
           d="m 20.782258,24 c -0.929155,1.2e-5 -1.667888,0.351484 -2.177419,1.102362 C 18.200206,25.707929 18.000001,26.41811 18,27.181102 v 5.700788 c 0,0.763004 0.200206,1.434412 0.604839,2.015748 C 19.11437,35.636418 19.853103,36 20.782258,36 h 4.395161 c 0.944131,0 1.667874,-0.363585 2.17742,-1.102362 C 27.759459,34.316304 27.999988,33.644893 28,32.88189 v -5.700788 c -1.2e-5,-0.762993 -0.240542,-1.473173 -0.645161,-2.07874 C 26.845294,24.351484 26.121551,24.000013 25.177419,24 Z m 1.109674,1.007874 h 2.27927 c 0.254761,1.1e-5 0.475669,0.04122 0.685484,0.125984 l -4.537334,8.787402 c -0.149866,-0.326999 -0.241938,-0.676035 -0.241936,-1.03937 v -5.700788 c -2e-6,-0.508659 0.148457,-0.974038 0.403226,-1.385826 0.329695,-0.520768 0.796848,-0.78739 1.41129,-0.787402 z m 3.85185,1.133858 c 0.134869,0.339122 0.201606,0.688158 0.201613,1.03937 v 5.700788 c -7e-6,0.496559 -0.148464,0.954666 -0.403225,1.35433 -0.31472,0.520781 -0.756536,0.787404 -1.370968,0.787402 h -2.27927 c -0.2248,10e-7 -0.450343,-0.05332 -0.645161,-0.125984 z"
           inkscape:connector-curvature="0"
           id="path2439"
           style="font-style:normal;font-variant:normal;font-weight:normal;font-stretch:normal;font-size:16px;line-height:100%;font-family:Unispace;-inkscape-font-specification:Unispace;text-align:start;writing-mode:lr-tb;text-anchor:start;fill:#dcdcdc;fill-opacity:1;stroke:none" />
        <path
           d="M 40,36 H 30 v -0.996979 h 3.860465 V 25.015106 H 32.035006 V 24 h 4.076237 V 35.003021 H 40 V 36"
           inkscape:connector-curvature="0"
           id="flowRoot2412"
           style="font-style:normal;font-variant:normal;font-weight:normal;font-stretch:normal;font-size:16px;line-height:100%;font-family:Unispace;-inkscape-font-specification:Unispace;text-align:start;writing-mode:lr-tb;text-anchor:start;fill:#dcdcdc;fill-opacity:1;stroke:none" />
        <path
           d="m 44.782258,24 c -0.929155,1.2e-5 -1.667888,0.351484 -2.177419,1.102362 C 42.200206,25.707929 42.000001,26.41811 42,27.181102 v 5.700788 c 0,0.763004 0.200206,1.434412 0.604839,2.015748 C 43.11437,35.636418 43.853103,36 44.782258,36 h 4.395161 c 0.944131,0 1.667874,-0.363585 2.17742,-1.102362 C 51.759459,34.316304 51.999988,33.644893 52,32.88189 v -5.700788 c -1.2e-5,-0.762993 -0.240542,-1.473173 -0.645161,-2.07874 C 50.845294,24.351484 50.121551,24.000013 49.177419,24 Z m 1.109674,1.007874 h 2.27927 c 0.254761,1.1e-5 0.475669,0.04122 0.685484,0.125984 l -4.537334,8.787402 c -0.149866,-0.326999 -0.241938,-0.676035 -0.241936,-1.03937 v -5.700788 c -2e-6,-0.508659 0.148457,-0.974038 0.403226,-1.385826 0.329695,-0.520768 0.796848,-0.78739 1.41129,-0.787402 z m 3.85185,1.133858 c 0.134869,0.339122 0.201606,0.688158 0.201613,1.03937 v 5.700788 c -7e-6,0.496559 -0.148464,0.954666 -0.403225,1.35433 -0.31472,0.520781 -0.756536,0.787404 -1.370968,0.787402 h -2.27927 c -0.2248,10e-7 -0.450343,-0.05332 -0.645161,-0.125984 z"
           inkscape:connector-curvature="0"
           id="path2447"
           style="font-style:normal;font-variant:normal;font-weight:normal;font-stretch:normal;font-size:16px;line-height:100%;font-family:Unispace;-inkscape-font-specification:Unispace;text-align:start;writing-mode:lr-tb;text-anchor:start;fill:#dcdcdc;fill-opacity:1;stroke:none" />
        <path
           d="M 28,54 H 18 v -0.996979 h 3.860465 V 43.015106 H 20.035006 V 42 h 4.076237 V 53.003021 H 28 V 54"
           inkscape:connector-curvature="0"
           id="path2451"
           style="font-style:normal;font-variant:normal;font-weight:normal;font-stretch:normal;font-size:16px;line-height:100%;font-family:Unispace;-inkscape-font-specification:Unispace;text-align:start;writing-mode:lr-tb;text-anchor:start;fill:#dcdcdc;fill-opacity:1;stroke:none" />
        <path
           d="M 40,54 H 30 v -0.996979 h 3.860465 V 43.015106 H 32.035006 V 42 h 4.076237 V 53.003021 H 40 V 54"
           inkscape:connector-curvature="0"
           id="path2453"
           style="font-style:normal;font-variant:normal;font-weight:normal;font-stretch:normal;font-size:16px;line-height:100%;font-family:Unispace;-inkscape-font-specification:Unispace;text-align:start;writing-mode:lr-tb;text-anchor:start;fill:#dcdcdc;fill-opacity:1;stroke:none" />
        <path
           d="m 44.782258,42 c -0.929155,1.2e-5 -1.667888,0.351484 -2.177419,1.102362 C 42.200206,43.707929 42.000001,44.41811 42,45.181102 v 5.700788 c 0,0.763004 0.200206,1.434412 0.604839,2.015748 C 43.11437,53.636418 43.853103,54 44.782258,54 h 4.395161 c 0.944131,0 1.667874,-0.363585 2.17742,-1.102362 C 51.759459,52.316304 51.999988,51.644893 52,50.88189 v -5.700788 c -1.2e-5,-0.762993 -0.240542,-1.473173 -0.645161,-2.07874 C 50.845294,42.351484 50.121551,42.000013 49.177419,42 Z m 1.109674,1.007874 h 2.27927 c 0.254761,1.1e-5 0.475669,0.04122 0.685484,0.125984 l -4.537334,8.787402 c -0.149866,-0.326999 -0.241938,-0.676035 -0.241936,-1.03937 v -5.700788 c -2e-6,-0.508659 0.148457,-0.974038 0.403226,-1.385826 0.329695,-0.520768 0.796848,-0.78739 1.41129,-0.787402 z m 3.85185,1.133858 c 0.134869,0.339122 0.201606,0.688158 0.201613,1.03937 v 5.700788 c -7e-6,0.496559 -0.148464,0.954666 -0.403225,1.35433 -0.31472,0.520781 -0.756536,0.787404 -1.370968,0.787402 h -2.27927 c -0.2248,10e-7 -0.450343,-0.05332 -0.645161,-0.125984 z"
           inkscape:connector-curvature="0"
           id="path2455"
           style="font-style:normal;font-variant:normal;font-weight:normal;font-stretch:normal;font-size:16px;line-height:100%;font-family:Unispace;-inkscape-font-specification:Unispace;text-align:start;writing-mode:lr-tb;text-anchor:start;fill:#dcdcdc;fill-opacity:1;stroke:none" />
      </g>
    </g>
    <path
       id="path4474-3-5"
       style="opacity:0.2;fill:#000000;fill-opacity:1;fill-rule:evenodd;stroke-width:0.75091749"
       d="m 16.146071,18.000576 c 2.498363,0 0.978665,11.229997 0.978665,11.229997 0,0 13.877949,-1.469924 13.877949,3.130712 0,-1.120679 -0.0027,-3.451081 -0.0027,-3.451081 L 20.089791,18 Z"
       inkscape:connector-curvature="0" />
    <path
       style="color:#000000;display:inline;overflow:visible;visibility:visible;opacity:1;fill:url(#linearGradient3748);fill-opacity:1;fill-rule:nonzero;stroke:none;stroke-width:0.57034051;marker:none;enable-background:accumulate"
       id="rect3736"
       d="m 2.7142856,43.709693 c 0,1.427115 0.901102,2.576021 2.0204085,2.576021 H 28.979591 C 30.098898,46.285714 31,45.136808 31,43.709693 v -5.85255 H 2.7142856 Z"
       inkscape:connector-curvature="0" />
    <path
       style="opacity:0.2;fill:url(#radialGradient3619-6);fill-opacity:1;fill-rule:nonzero;stroke:none;stroke-width:0.33742577"
       id="path3615-2"
       d="m 4.7346935,46.285714 c -1.1193059,0 -2.0204079,-0.904805 -2.0204079,-2.02871 V 43.471437 C 2.7280646,39.360218 3.051019,39.272546 3.051019,43.133299 v 0.676237 c 0,0.940593 0.7469286,1.690591 1.6836745,1.690591 h 0.6734709 22.8979486 0.673471 c 0.936746,0 1.683674,-0.749998 1.683674,-1.690591 V 43.133299 C 30.696318,38.549871 31,40.11827 31,43.471418 v 0.785566 c -8e-6,1.123925 -0.90111,2.02873 -2.020416,2.02873 z"
       inkscape:connector-curvature="0" />
    <g
       aria-label="DOC"
       transform="matrix(1.0042229,0,0,0.9957949,-16.0339,-23.152542)"
       style="font-style:normal;font-weight:normal;font-size:39.83179474px;line-height:1.25;font-family:sans-serif;letter-spacing:0px;word-spacing:0px;fill:#000000;fill-opacity:1;stroke:none;stroke-width:0.99579489"
       id="text1540" />
    <path
       id="path4474-3"
       style="opacity:0.2;fill:#000000;fill-opacity:1;fill-rule:evenodd;stroke-width:0.7099362"
       d="m 17.074786,18 c 2.362014,0 0.915801,10.402988 0.915801,10.402988 0,0 4.605338,-0.548185 8.335981,-0.0762 2.53971,0.321312 4.674044,1.11542 4.674044,2.877141 C 31.000612,30.144407 31,28.910202 31,28.910202 L 20.089791,18 Z"
       inkscape:connector-curvature="0" />
    <path
       id="path4474"
       style="fill:url(#linearGradient3225);fill-rule:evenodd;stroke-width:0.66890317"
       d="m 18.189344,18.006833 c 2.225494,0 0.801612,9.609776 0.801612,9.609776 0,0 12.012265,-1.475777 12.012265,2.622383 0,-0.99828 -0.0032,-1.328788 -0.0032,-1.328788 L 20.089791,18 Z"
       inkscape:connector-curvature="0" />
  </g>
  <path
     style="opacity:0.3;fill:#000000;fill-opacity:1;stroke:none;stroke-width:0.17706165;stroke-linejoin:round;stroke-miterlimit:4;stroke-dasharray:none;stroke-dashoffset:0;stroke-opacity:1;paint-order:stroke fill markers"
     d="m 1.1,15 h 19.8 v 1 H 1.1 Z"
     id="rect1270"
     inkscape:connector-curvature="0" />
</svg>
