<?xml version="1.0" encoding="UTF-8" standalone="no"?>
<svg
   xmlns:dc="http://purl.org/dc/elements/1.1/"
   xmlns:cc="http://creativecommons.org/ns#"
   xmlns:rdf="http://www.w3.org/1999/02/22-rdf-syntax-ns#"
   xmlns:svg="http://www.w3.org/2000/svg"
   xmlns="http://www.w3.org/2000/svg"
   xmlns:xlink="http://www.w3.org/1999/xlink"
   style="display:inline"
   version="1.0"
   id="svg2"
   height="16"
   width="16">
  <defs
     id="defs4">
    <linearGradient
       y2="16.529612"
       x2="11.998966"
       y1="3.6813121"
       x1="11.998966"
       gradientTransform="matrix(0.9247229,0,0,1.0872097,10.939944,-2.0023588)"
       gradientUnits="userSpaceOnUse"
       id="linearGradient2428"
       xlink:href="#StandardGradient" />
    <linearGradient
       gradientUnits="userSpaceOnUse"
       y2="19.387045"
       x2="11.998966"
       y1="0.92195445"
       x1="11.998966"
       gradientTransform="scale(0.9219544,1.0846523)"
       id="StandardGradient">
      <stop
         id="stop3283"
         offset="0"
         style="stop-color:#000000;stop-opacity:0.86274511;" />
      <stop
         id="stop2651"
         offset="1"
         style="stop-color:#000000;stop-opacity:0.47058824;" />
    </linearGradient>
    <linearGradient
       y2="17.478098"
       x2="11.998966"
       y1="0.92195445"
       x1="11.998966"
       gradientTransform="matrix(0.9247229,0,0,1.0872097,-2.0600562,0.9976422)"
       gradientUnits="userSpaceOnUse"
       id="linearGradient2549"
       xlink:href="#StandardGradient" />
    <linearGradient
       y2="17.478098"
       x2="11.998966"
       y1="0.92195445"
       x1="11.998966"
       gradientTransform="matrix(0.9247229,0,0,1.0872097,-4.0600562,-3.0023583)"
       gradientUnits="userSpaceOnUse"
       id="linearGradient2418"
       xlink:href="#StandardGradient" />
    <linearGradient
       y2="17.478098"
       x2="11.998966"
       y1="0.92195445"
       x1="11.998966"
       gradientTransform="matrix(0.9247229,0,0,1.0872097,-5.0600562,-1.0023583)"
       gradientUnits="userSpaceOnUse"
       id="linearGradient2422"
       xlink:href="#StandardGradient" />
    <linearGradient
       y2="17.478098"
       x2="11.998966"
       y1="0.92195445"
       x1="11.998966"
       gradientTransform="matrix(0.9247229,0,0,1.0872097,-4.0600562,-3.0023583)"
       gradientUnits="userSpaceOnUse"
       id="linearGradient2403"
       xlink:href="#StandardGradient" />
    <linearGradient
       y2="17.478098"
       x2="11.998966"
       y1="0.92195445"
       x1="11.998966"
       gradientTransform="matrix(0.9247229,0,0,1.0872097,-4.0600562,-3.0023583)"
       gradientUnits="userSpaceOnUse"
       id="linearGradient2406"
       xlink:href="#StandardGradient" />
    <linearGradient
       y2="15.638639"
       x2="11.998966"
       y1="3.6800685"
       x1="11.998966"
       gradientTransform="matrix(0.9247229,0,0,1.0872097,-6.0600562,-2.0023583)"
       gradientUnits="userSpaceOnUse"
       id="linearGradient2409"
       xlink:href="#StandardGradient" />
    <linearGradient
       y2="15.638639"
       x2="11.998966"
       y1="2.7615263"
       x1="11.998966"
       gradientTransform="matrix(0.9247229,0,0,1.0872097,-6.0600562,-2.0023583)"
       gradientUnits="userSpaceOnUse"
       id="linearGradient2416"
       xlink:href="#StandardGradient" />
    <linearGradient
       y2="16.529612"
       x2="11.998966"
       y1="3.6813121"
       x1="11.998966"
       gradientTransform="matrix(0.9247229,0,0,1.0872097,-4.0418814,0.9976412)"
       gradientUnits="userSpaceOnUse"
       id="linearGradient2529"
       xlink:href="#StandardGradient" />
    <linearGradient
       y2="15.638639"
       x2="11.998966"
       y1="2.7615263"
       x1="11.998966"
       gradientTransform="matrix(0.9247229,0,0,1.0872097,-6.0600562,-2.0023583)"
       gradientUnits="userSpaceOnUse"
       id="linearGradient2539"
       xlink:href="#StandardGradient" />
    <linearGradient
       y2="15.638639"
       x2="11.998966"
       y1="2.7615263"
       x1="11.998966"
       gradientTransform="matrix(0.9247229,0,0,1.0872097,-6.0600562,-2.0023583)"
       gradientUnits="userSpaceOnUse"
       id="linearGradient2542"
       xlink:href="#StandardGradient" />
    <linearGradient
       y2="15.638639"
       x2="11.998966"
       y1="2.7615263"
       x1="11.998966"
       gradientTransform="matrix(0.9247229,0,0,1.0872097,-6.0600562,-2.0023583)"
       gradientUnits="userSpaceOnUse"
       id="linearGradient2412"
       xlink:href="#StandardGradient" />
    <linearGradient
       y2="15.638639"
       x2="11.998966"
       y1="2.7615263"
       x1="11.998966"
       gradientTransform="matrix(0.9247229,0,0,1.0872097,-6.0600562,-2.0023583)"
       gradientUnits="userSpaceOnUse"
       id="linearGradient2423"
       xlink:href="#StandardGradient" />
    <linearGradient
       y2="15.638639"
       x2="11.998966"
       y1="2.7615263"
       x1="11.998966"
       gradientTransform="matrix(0.9247229,0,0,1.0872097,-26.060056,-2.0023583)"
       gradientUnits="userSpaceOnUse"
       id="linearGradient2942"
       xlink:href="#StandardGradient" />
    <clipPath
       id="clipPath2949"
       clipPathUnits="userSpaceOnUse">
      <path
         id="path2951"
         d="m -20,0 0,16 16,0 0,-16 -16,0 z m 3,1 3,0 c 0.554,0 1,0.446 1,1 l 6,0 c 0.554,0 1,0.446 1,1 l -12,0 0,-1 c 0,-0.554 0.446,-1 1,-1 z m -0.5,3 4,0 6,0 1,0 C -5.669,4 -5,4.669 -5,5.5 l 0,4.5 0,1.5 c 0,0.647488 -0.396277,1.195291 -0.96875,1.40625 l 0,0.15625 -0.03125,0 0,0.4375 c 0,0.831 -0.669,1.5 -1.5,1.5 l -6,0 c -0.831,0 -1.5,-0.669 -1.5,-1.5 l 0,-0.5 -2.5,0 c -0.831,0 -1.5,-0.669 -1.5,-1.5 l 0,-1.5 0,-4.5 C -19,4.669 -18.331,4 -17.5,4 z m 5,2 C -12.777,6 -13,6.223 -13,6.5 l 0,6 c 0,0.277 0.223,0.5 0.5,0.5 l 4,0 c 0.277,0 0.5,-0.223 0.5,-0.5 l 0,-6 C -8,6.223 -8.223,6 -8.5,6 l -4,0 z"
         style="fill:#ff00ff;fill-opacity:1;stroke:none;display:inline" />
    </clipPath>
    <linearGradient
       y2="15.638639"
       x2="11.998966"
       y1="2.7615263"
       x1="11.998966"
       gradientTransform="matrix(0.9247229,0,0,1.0872097,-6.0600562,-2.0023583)"
       gradientUnits="userSpaceOnUse"
       id="linearGradient5012"
       xlink:href="#StandardGradient" />
    <linearGradient
       y2="15.638639"
       x2="11.998966"
       y1="2.7615263"
       x1="11.998966"
       gradientTransform="matrix(0.9247229,0,0,1.0872097,-6.0600562,-2.0023583)"
       gradientUnits="userSpaceOnUse"
       id="linearGradient5016"
       xlink:href="#StandardGradient" />
    <linearGradient
       y2="15.638639"
       x2="11.998966"
       y1="2.7615263"
       x1="11.998966"
       gradientTransform="matrix(0.9247229,0,0,1.0872097,-6.0600562,-2.0023583)"
       gradientUnits="userSpaceOnUse"
       id="linearGradient3176"
       xlink:href="#StandardGradient" />
    <linearGradient
       y2="15.638639"
       x2="11.998966"
       y1="2.7615263"
       x1="11.998966"
       gradientTransform="matrix(0.9247229,0,0,1.0872097,-6.0600562,-2.0023583)"
       gradientUnits="userSpaceOnUse"
       id="linearGradient3180"
       xlink:href="#StandardGradient" />
    <linearGradient
       y2="15.638639"
       x2="11.998966"
       y1="2.7615263"
       x1="11.998966"
       gradientTransform="matrix(0.9247229,0,0,1.0872097,-6.0600562,-2.0023583)"
       gradientUnits="userSpaceOnUse"
       id="linearGradient3042"
       xlink:href="#StandardGradient" />
    <linearGradient
       y2="15.638639"
       x2="11.998966"
       y1="2.7615263"
       x1="11.998966"
       gradientTransform="matrix(0.9247229,0,0,1.0872097,-6.0600562,-2.0023583)"
       gradientUnits="userSpaceOnUse"
       id="linearGradient3047"
       xlink:href="#StandardGradient" />
    <linearGradient
       y2="15.638639"
       x2="11.998966"
       y1="2.7615263"
       x1="11.998966"
       gradientTransform="matrix(0.9247229,0,0,1.0872097,-6.0600562,-2.0023583)"
       gradientUnits="userSpaceOnUse"
       id="linearGradient3052"
       xlink:href="#StandardGradient" />
    <linearGradient
       y2="15.638639"
       x2="11.998966"
       y1="2.7615263"
       x1="11.998966"
       gradientTransform="matrix(0.9247229,0,0,1.0872097,-6.0600562,-2.0023583)"
       gradientUnits="userSpaceOnUse"
       id="linearGradient3059"
       xlink:href="#StandardGradient" />
    <linearGradient
       y2="15.638639"
       x2="11.998966"
       y1="2.7615263"
       x1="11.998966"
       gradientTransform="matrix(-0.9247229,0,0,1.0872097,22.060056,-2.0023583)"
       gradientUnits="userSpaceOnUse"
       id="linearGradient3062"
       xlink:href="#StandardGradient" />
    <linearGradient
       y2="15.638639"
       x2="11.998966"
       y1="2.7615263"
       x1="11.998966"
       gradientTransform="matrix(0.9247229,0,0,1.0872097,-6.0600562,-2.0023583)"
       gradientUnits="userSpaceOnUse"
       id="linearGradient3064"
       xlink:href="#StandardGradient" />
    <linearGradient
       y2="15.638639"
       x2="11.998966"
       y1="2.7615263"
       x1="11.998966"
       gradientTransform="matrix(0.9247229,0,0,1.0872097,-6.0600562,-1.0023583)"
       gradientUnits="userSpaceOnUse"
       id="linearGradient3067"
       xlink:href="#StandardGradient" />
    <linearGradient
       y2="15.638639"
       x2="11.998966"
       y1="2.7615263"
       x1="11.998966"
       gradientTransform="matrix(0.9247229,0,0,1.0872097,-6.0600562,-2.0023583)"
       gradientUnits="userSpaceOnUse"
       id="linearGradient3071"
       xlink:href="#StandardGradient" />
    <linearGradient
       y2="15.638639"
       x2="11.998966"
       y1="2.7615263"
       x1="11.998966"
       gradientTransform="matrix(0.9247229,0,0,1.0872097,-6.0600562,-2.0023583)"
       gradientUnits="userSpaceOnUse"
       id="linearGradient3074"
       xlink:href="#StandardGradient" />
  </defs>
  <metadata
     id="metadata7">
    <rdf:RDF>
      <cc:Work
         rdf:about="">
        <dc:format>image/svg+xml</dc:format>
        <dc:type
           rdf:resource="http://purl.org/dc/dcmitype/StillImage" />
        <dc:title></dc:title>
      </cc:Work>
    </rdf:RDF>
  </metadata>
  <path
     style="opacity:1;fill:#bebebe;fill-opacity:1;stroke-width:0.44616079"
     d="M 0.94270802,0.99988135 C 0.42039201,0.99988135 0,1.4235265 0,1.9498847 V 14.049996 C 0,14.576355 0.42039201,15 0.94270802,15 H 15.057292 C 15.579608,15 16,14.576355 16,14.049996 V 4.3049077 C 16,3.7785498 15.579608,2.9998655 15.057292,2.9998814 L 7.2742255,3.0001186 C 6.114034,2.9883205 5.4814165,1.0062875 4.3906251,0.99988135 Z M 1.5720245,1.9996438 h 2.3003706 c 1.1901601,0.014036 1.9392085,2.0009154 3.1413794,2.0002375 L 14.427976,3.9996441 C 14.7448,3.999634 15.000025,4.307196 15.000025,4.5761186 V 5 H 0.99997551 V 2.5761189 c 0,-0.3192743 0.25522599,-0.5764751 0.57204899,-0.5764751 z M 1.5720245,6 H 14.427975 c 0.316824,0 0.572049,0.2579628 0.572049,0.5772374 v 6.8465256 c 0,0.319274 -0.255225,0.576475 -0.572049,0.576475 H 1.5720245 c -0.316822,0 -0.57204799,-0.257201 -0.57204799,-0.576475 V 6.5772373 C 0.99997651,6.2579627 1.2552025,6 1.5720245,6 Z"
     id="rect4155" />
  <path
     id="path4170"
     d="M 1.4609375 6 C 1.1441145 6 0.88867188 6.2588504 0.88867188 6.578125 L 0.88867188 13.423828 C 0.88867188 13.743102 1.1441145 14 1.4609375 14 L 11 14 L 11 13 L 13 13 L 13 14 L 14.539062 14 C 14.855887 14 15.111328 13.743102 15.111328 13.423828 L 15.111328 6.578125 C 15.111328 6.2588504 14.855888 6 14.539062 6 L 1.4609375 6 z M 11 8 L 13 8 L 13 12 L 11 12 L 11 8 z "
     style="opacity:0.5;fill:#bebebe;fill-opacity:1;stroke-width:0.44616079" />
  <path
     style="color:#bebebe;display:inline;overflow:visible;visibility:visible;fill:#f57900;fill-opacity:1;fill-rule:nonzero;stroke:none;stroke-width:2;marker:none"
     id="rect6718-3"
     d="m 8.875,7.0000001 c -0.49245,0 -0.875,0.38256 -0.875,0.875 V 14.125 C 8,14.61744 8.38255,15 8.875,15 h 6.25 C 15.61745,15 16,14.61744 16,14.125 V 7.8750001 c 0,-0.49244 -0.38255,-0.875 -0.875,-0.875 z M 11,8 h 2 v 4 h -2 z m 0,5 h 2 v 1 h -2 z"
     class="warning" />
</svg>
