<?xml version="1.0" encoding="UTF-8" standalone="no"?>
<svg
   xmlns:dc="http://purl.org/dc/elements/1.1/"
   xmlns:cc="http://creativecommons.org/ns#"
   xmlns:rdf="http://www.w3.org/1999/02/22-rdf-syntax-ns#"
   xmlns:svg="http://www.w3.org/2000/svg"
   xmlns="http://www.w3.org/2000/svg"
   xmlns:xlink="http://www.w3.org/1999/xlink"
   style="display:inline"
   version="1.0"
   id="svg2"
   height="96"
   width="96">
  <defs
     id="defs4">
    <linearGradient
       id="linearGradient4081-7">
      <stop
         id="stop4083-8"
         offset="0"
         style="stop-color:#aaaaaa;stop-opacity:1;" />
      <stop
         id="stop4085-6"
         offset="1"
         style="stop-color:#f0f0f0;stop-opacity:1;" />
    </linearGradient>
    <linearGradient
       y2="-63.998234"
       x2="134.22911"
       y1="12.015744"
       x1="134.22911"
       gradientTransform="translate(-66,0)"
       gradientUnits="userSpaceOnUse"
       id="linearGradient4505"
       xlink:href="#linearGradient4081-7" />
  </defs>
  <metadata
     id="metadata7">
    <rdf:RDF>
      <cc:Work
         rdf:about="">
        <dc:format>image/svg+xml</dc:format>
        <dc:type
           rdf:resource="http://purl.org/dc/dcmitype/StillImage" />
        <dc:title></dc:title>
      </cc:Work>
    </rdf:RDF>
  </metadata>
  <g
     transform="translate(0,74)"
     style="display:inline"
     id="layer1">
    <path
       id="rect4985-67-4-7-7"
       d="m 46.98438,-24.908208 33.22265,-36.078125 c 0.85221,-0.925008 0.99185,-2.208557 0.53906,-3.240234 -0.45279,-1.031667 -1.49238,-1.793968 -2.74804,-1.792969 l -25.47071,0 -0.01172,0 -0.0019,0 -5e-5,5e-6 c -0.03328,3.08e-4 -0.06653,0.0023 -0.09961,0.0059 -0.09411,0.01102 -0.186177,0.03535 -0.27344,0.07227 -0.55347,0.07177 -1.05585,0.292504 -1.48828,0.644531 -0.002,0.0018 -0.0058,0.0021 -0.0078,0.0039 -0.128873,0.05536 -0.244659,0.137212 -0.33984,0.240235 l -35.019534,38.029296 c -0.04495,0.04928 -0.08487,0.102932 -0.11914,0.160157 -0.739997,0.937723 -0.694581,2.18425 -0.142578,3.224609 3.521487,4.77719 8.157786,9.253408 12.300287,13.7515127"
       style="color:#000000;font-style:normal;font-variant:normal;font-weight:normal;font-stretch:normal;font-size:medium;line-height:normal;font-family:sans-serif;text-indent:0;text-align:start;text-decoration:none;text-decoration-line:none;text-decoration-style:solid;text-decoration-color:#000000;letter-spacing:normal;word-spacing:normal;text-transform:none;direction:ltr;block-progression:tb;writing-mode:lr-tb;baseline-shift:baseline;text-anchor:start;white-space:normal;clip-rule:nonzero;display:inline;overflow:visible;visibility:visible;opacity:0.07999998;isolation:auto;mix-blend-mode:normal;color-interpolation:sRGB;color-interpolation-filters:linearRGB;solid-color:#000000;solid-opacity:1;fill:#000000;fill-opacity:1;fill-rule:nonzero;stroke:none;stroke-width:2;stroke-linecap:butt;stroke-linejoin:round;stroke-miterlimit:4;stroke-dasharray:none;stroke-dashoffset:0;stroke-opacity:1;marker:none;color-rendering:auto;image-rendering:auto;shape-rendering:auto;text-rendering:auto;enable-background:new" />
    <path
       id="rect4985-67-4-7"
       d="m 45.27729,-24.533203 34.19336,-37.130859 c 0.56418,-0.612376 0.65264,-1.491956 0.35938,-2.160157 -0.29327,-0.6682 -0.99939,-1.195974 -1.83203,-1.195312 l -25.48243,0 -0.0019,0 c -0.55822,-2.5e-5 -1.09233,0.234052 -1.4707,0.644531 l -0.0019,0 -35.019536,38.029297 0,0.002 c -0.698447,0.760113 -0.696797,1.950907 0.0039,2.708984 l -5e-4,0 -5e-4,0 -5e-4,0 -5e-4,0 c 4.012206,4.356853 8.024414,8.713704 12.03662,13.070557"
       style="color:#000000;font-style:normal;font-variant:normal;font-weight:normal;font-stretch:normal;font-size:medium;line-height:normal;font-family:sans-serif;text-indent:0;text-align:start;text-decoration:none;text-decoration-line:none;text-decoration-style:solid;text-decoration-color:#000000;letter-spacing:normal;word-spacing:normal;text-transform:none;direction:ltr;block-progression:tb;writing-mode:lr-tb;baseline-shift:baseline;text-anchor:start;white-space:normal;clip-rule:nonzero;display:inline;overflow:visible;visibility:visible;opacity:0.1;isolation:auto;mix-blend-mode:normal;color-interpolation:sRGB;color-interpolation-filters:linearRGB;solid-color:#000000;solid-opacity:1;fill:#000000;fill-opacity:1;fill-rule:nonzero;stroke:none;stroke-width:2;stroke-linecap:butt;stroke-linejoin:round;stroke-miterlimit:4;stroke-dasharray:none;stroke-dashoffset:0;stroke-opacity:1;marker:none;color-rendering:auto;image-rendering:auto;shape-rendering:auto;text-rendering:auto;enable-background:new" />
    <path
       id="rect4985-67-4"
       d="m 38.67578,-19.191516 5.01563,-5.097656 c 0.008,-0.0083 0.0158,-0.01679 0.0234,-0.02539 l 35.01954,-38.027344 c 0.59068,-0.641146 0.13543,-1.678427 -0.73633,-1.677734 l -25.48435,-10e-7 c -0.27971,-2.74e-4 -0.54675,0.116601 -0.73633,0.322266 l -35.019528,38.029296 c -0.352325,0.383432 -0.351475,0.973055 0.002,1.355469 l 12.036622,13.071228"
       style="color:#000000;font-style:normal;font-variant:normal;font-weight:normal;font-stretch:normal;font-size:medium;line-height:normal;font-family:sans-serif;text-indent:0;text-align:start;text-decoration:none;text-decoration-line:none;text-decoration-style:solid;text-decoration-color:#000000;letter-spacing:normal;word-spacing:normal;text-transform:none;direction:ltr;block-progression:tb;writing-mode:lr-tb;baseline-shift:baseline;text-anchor:start;white-space:normal;clip-rule:nonzero;display:inline;overflow:visible;visibility:visible;opacity:0.15;isolation:auto;mix-blend-mode:normal;color-interpolation:sRGB;color-interpolation-filters:linearRGB;solid-color:#000000;solid-opacity:1;fill:#000000;fill-opacity:1;fill-rule:nonzero;stroke:none;stroke-width:2;stroke-linecap:butt;stroke-linejoin:round;stroke-miterlimit:4;stroke-dasharray:none;stroke-dashoffset:0;stroke-opacity:1;marker:none;color-rendering:auto;image-rendering:auto;shape-rendering:auto;text-rendering:auto;enable-background:new" />
    <path
       id="rect4985-67-9"
       d="m 30.10143,-11.902077 12.8773,-13.089284 35.01946,-38.02834 -25.4853,0 -35.018694,38.02834 12.31248,13.297386 -7.93e-4,7.92e-4"
       style="color:#000000;display:inline;overflow:visible;visibility:visible;opacity:0.3;fill:#000000;fill-opacity:1;fill-rule:nonzero;stroke:none;stroke-width:1;marker:none;enable-background:new" />
    <path
       id="rect4985-67"
       d="m 30.10143,-12.901972 12.8773,-13.089284 35.01946,-38.02834 -25.4853,0 -35.018694,38.02834 12.31248,13.297386 -7.93e-4,7.92e-4"
       style="color:#000000;display:inline;overflow:visible;visibility:visible;fill:url(#linearGradient4505);fill-opacity:1;fill-rule:nonzero;stroke:none;stroke-width:1;marker:none;enable-background:new" />
    <path
       id="path4509"
       d="m 52.51367,-64.01964 -35.019529,38.027343 0.923828,0.998047 34.095701,-37.02539 23.64258,0 1.8418,-2 -25.48438,0 z"
       style="color:#000000;display:inline;overflow:visible;visibility:visible;opacity:0.6;fill:#ffffff;fill-opacity:1;fill-rule:nonzero;stroke:none;stroke-width:1;marker:none;enable-background:new" />
    <path
       id="path4592"
       d="m 29.805883,-12.69308 22.706987,24.730185 25.4853,0 -32.79433,-35.621395 -15.10241,10.68232"
       style="color:#000000;display:inline;overflow:visible;visibility:visible;opacity:0.3;fill:#ffffff;fill-opacity:1;fill-rule:nonzero;stroke:none;stroke-width:1;marker:none;enable-background:new" />
  </g>
</svg>
