<?xml version="1.0" encoding="UTF-8" standalone="no"?>
<svg xmlns="http://www.w3.org/2000/svg" height="96" width="96" version="1.1" xmlns:xlink="http://www.w3.org/1999/xlink">
 <defs>
  <linearGradient id="e">
   <stop offset="0"/>
   <stop stop-opacity="0" offset="1"/>
  </linearGradient>
  <linearGradient id="a" stop-color="#fff">
   <stop offset="0"/>
   <stop stop-opacity="0" offset="1"/>
  </linearGradient>
  <filter id="ad" height="1.384" width="1.384" color-interpolation-filters="sRGB" y="-.192" x="-.192">
   <feGaussianBlur stdDeviation="5.28"/>
  </filter>
  <clipPath id="ab">
   <rect rx="6" ry="6" height="84" width="84" y="6" x="6" fill="#fff"/>
  </clipPath>
  <clipPath id="ac">
   <path d="m20.156 18c-1.187 0-2.156 0.892-2.156 2v70h60v-70c0-1.108-0.96911-2-2.1562-2h-55.688z" fill="#f0f"/>
  </clipPath>
  <filter id="ae" height="1.168" width="1.224" color-interpolation-filters="sRGB" y="-0.084" x="-.112">
   <feGaussianBlur stdDeviation="2.8"/>
  </filter>
  <linearGradient id="d">
   <stop stop-color="#818181" offset="0"/>
   <stop stop-color="#f9f9f9" offset=".2"/>
   <stop stop-color="#dcdcdc" stop-opacity="0" offset="1"/>
  </linearGradient>
  <linearGradient id="b" y2="7.0165" gradientUnits="userSpaceOnUse" x2="45.448" gradientTransform="matrix(1.0059 0 0 .99417 100 0)" y1="92.54" x1="45.448">
   <stop offset="0"/>
   <stop stop-opacity=".58824" offset="1"/>
  </linearGradient>
  <linearGradient id="aa" stop-color="#fff" y2="15.672" gradientUnits="userSpaceOnUse" x2="19" y1="54" x1="19">
   <stop offset="0"/>
   <stop stop-opacity="0" offset="1"/>
  </linearGradient>
  <linearGradient id="z" y2="46.896" xlink:href="#e" gradientUnits="userSpaceOnUse" x2="11" gradientTransform="matrix(1 0 0 .58612 10 -14.334)" y1="84" x1="11"/>
  <linearGradient id="y" y2="11.465" gradientUnits="userSpaceOnUse" x2="48" gradientTransform="matrix(.9038 0 0 .9038 4.6178 4.6178)" y1="61.848" x1="48">
   <stop stop-color="#0c0c0c" offset="0"/>
   <stop stop-color="#2c2c2c" offset=".08693"/>
   <stop stop-color="#353535" offset=".09784"/>
   <stop stop-color="#383838" offset=".59720"/>
   <stop stop-color="#484848" offset=".60162"/>
   <stop stop-color="#151515" offset="1"/>
  </linearGradient>
  <linearGradient id="x" stop-color="#fff6d5" y2="73.433" gradientUnits="userSpaceOnUse" x2="51.466" y1="25.606" x1="51.466">
   <stop offset="0"/>
   <stop stop-opacity="0" offset="1"/>
  </linearGradient>
  <linearGradient id="w" y2="120.01" gradientUnits="userSpaceOnUse" x2="68.458" gradientTransform="matrix(-.25893 0 0 -.25893 64.571 56.571)" y1="8" x1="68.458">
   <stop stop-color="#ba0000" offset="0"/>
   <stop stop-color="#ff331e" offset="1"/>
  </linearGradient>
  <radialGradient id="i" xlink:href="#a" gradientUnits="userSpaceOnUse" cy="62.5" cx="48" gradientTransform="matrix(1 0 0 .030612 .17857 60.83)" r="28"/>
  <linearGradient id="v" y2="56.171" xlink:href="#e" gradientUnits="userSpaceOnUse" x2="27.829" y1="65.136" x1="27.829"/>
  <linearGradient id="u" y2="69.628" xlink:href="#a" gradientUnits="userSpaceOnUse" x2="27.321" gradientTransform="translate(1 .53571)" y1="61.397" x1="27.321"/>
  <linearGradient id="t" y2="73" xlink:href="#d" gradientUnits="userSpaceOnUse" x2="24" gradientTransform="matrix(-1,0,0,1,96,0)" y1="73" x1="6"/>
  <linearGradient id="s" y2="61.4" gradientUnits="userSpaceOnUse" x2="58.929" y1="72.179" x1="58.929">
   <stop offset="0"/>
   <stop stop-color="#1f1f1f" offset="1"/>
  </linearGradient>
  <linearGradient id="r" y2="73" xlink:href="#d" gradientUnits="userSpaceOnUse" x2="24" y1="73" x1="6"/>
  <linearGradient id="q" y2="6" xlink:href="#b" gradientUnits="userSpaceOnUse" x2="32.251" gradientTransform="translate(0,1)" y1="90" x1="32.251"/>
  <linearGradient id="p" y2="5.9996" xlink:href="#b" gradientUnits="userSpaceOnUse" x2="32.251" gradientTransform="matrix(1.0238 0 0 1.0119 -1.1429 .929)" y1="90" x1="32.251"/>
  <linearGradient id="o" y2="90.239" xlink:href="#b" gradientUnits="userSpaceOnUse" x2="32.251" gradientTransform="matrix(1.0238,0,0,-1.0119,-1.1429,98.071)" y1="6.1317" x1="32.251"/>
  <linearGradient id="n" y2="138.66" xlink:href="#a" gradientUnits="userSpaceOnUse" x2="48" y1="20.221" x1="48"/>
  <radialGradient id="h" xlink:href="#a" gradientUnits="userSpaceOnUse" cy="90.172" cx="48" gradientTransform="matrix(1.1573 0 0 .99591 -7.551 .19713)" r="42"/>
  <linearGradient id="m" y2="63.893" xlink:href="#a" gradientUnits="userSpaceOnUse" x2="36.357" y1="6" x1="36.357"/>
  <linearGradient id="l" y2="51.892" gradientUnits="userSpaceOnUse" x2="48" y1="66.469" x1="48">
   <stop stop-color="#969696" offset="0"/>
   <stop stop-color="#808080" stop-opacity="0" offset="1"/>
  </linearGradient>
  <linearGradient id="k" y2="5.9877" gradientUnits="userSpaceOnUse" x2="48" y1="90" x1="48">
   <stop stop-color="#bebebe" offset="0"/>
   <stop stop-color="#e6e6e6" offset="1"/>
  </linearGradient>
  <radialGradient id="g" gradientUnits="userSpaceOnUse" cy="64.02" cx="12" gradientTransform="matrix(1.0714 0 0 .4375 -.85714 4.4375)" r="4">
   <stop stop-color="#59d338" offset="0"/>
   <stop stop-color="#289140" offset="1"/>
  </radialGradient>
  <radialGradient id="f" gradientUnits="userSpaceOnUse" cy="85.062" cx="18.089" gradientTransform="matrix(1.1923 0 0 1.1923 -9.5766 -52.412)" r="2.0893">
   <stop stop-color="#c1ff97" offset="0"/>
   <stop stop-color="#30c700" offset="1"/>
  </radialGradient>
  <linearGradient id="j" y2="85.062" gradientUnits="userSpaceOnUse" x2="20.179" gradientTransform="matrix(0 1.6709 1.6638 0 -129.54 18.783)" y1="85.062" x1="16">
   <stop stop-color="#767676" offset="0"/>
   <stop stop-color="#fdfdfd" offset="1"/>
  </linearGradient>
 </defs>
 <g fill="url(#o)">
  <path opacity="0.08" d="m12 95.031c-5.5111 0-10.031-4.52-10.031-10.031v-71c0-5.5111 4.5202-10.031 10.031-10.031h72c5.5111 0 10.031 4.5202 10.031 10.031v71c0 5.5111-4.5202 10.031-10.031 10.031h-72z"/>
  <path opacity=".1" d="m12 94.031c-4.9716 0-9.0312-4.0596-9.0312-9.0312v-71c0-4.9718 4.0596-9.0314 9.0312-9.0314h72c4.9716 0 9.0312 4.0596 9.0312 9.0312v71c0 4.9716-4.0596 9.0312-9.0312 9.0312h-72z"/>
  <path opacity=".2" d="m12 93c-4.4091 0-8-3.591-8-8v-71c0-4.4091 3.5909-8 8-8h72c4.4091 0 8 3.5909 8 8v71c0 4.4091-3.5909 8-8 8h-72z"/>
 </g>
 <rect opacity=".3" rx="7" ry="7" height="85" width="86" y="7" x="5" fill="url(#p)"/>
 <rect opacity=".45" rx="6" ry="6" height="84" width="84" y="7" x="6" fill="url(#q)"/>
 <rect opacity="0.98" rx="5.4" ry="5.42" height="76" width="76" y="10" x="10" fill="url(#y)"/>
 <path opacity=".2" d="m21 13.8v42.2h1v-42.2h-1zm3 0v42.2h1v-42.2h-1zm3 0v42.2h1v-42.2h-1zm3 0v42.2h1v-42.2h-1zm3 0v42.2h1v-42.2h-1zm3 0v42.2h1v-42.2h-1zm3 0v42.2h1v-42.2h-1zm3 0v42.2h1v-42.2h-1zm3 0v42.2h1v-42.2h-1zm3 0v42.2h1v-42.2h-1zm3 0v42.2h1v-42.2h-1zm3 0v42.2h1v-42.2h-1zm3 0v42.2h1v-42.2h-1zm3 0v42.2h1v-42.2h-1zm3 0v42.2h1v-42.2h-1zm3 0v42.2h1v-42.2h-1zm3 0v42.2h1v-42.2h-1zm3 0v42.2h1v-42.2h-1zm3 0v42.2h1v-42.2h-1z" fill="url(#z)"/>
 <path opacity=".1" d="m19 14v42h1v-42h-1zm3 0v42h1v-42h-1zm3 0v42h1v-42h-1zm3 0v42h1v-42h-1zm3 0v42h1v-42h-1zm3 0v42h1v-42h-1zm3 0v42h1v-42h-1zm3 0v42h1v-42h-1zm3 0v42h1v-42h-1zm3 0v42h1v-42h-1zm3 0v42h1v-42h-1zm3 0v42h1v-42h-1zm3 0v42h1v-42h-1zm3 0v42h1v-42h-1zm3 0v42h1v-42h-1zm3 0v42h1v-42h-1zm3 0v42h1v-42h-1zm3 0v42h1v-42h-1zm3 0v42h1v-42h-1zm3 0v42h1v-42h-1z" fill="url(#aa)"/>
 <rect opacity="0.98" height="1" width="66" y="48" x="15" fill="#111"/>
 <rect opacity="0.98" height="4" width="8" y="49" x="44" fill="#111"/>
 <rect opacity="0.98" rx=".5" ry=".5" height="1" width="54" y="16" x="21"/>
 <rect opacity=".1" clip-path="url(#ab)" rx="12" ry="12" height="66" filter="url(#ad)" width="66" stroke="#fff" stroke-linecap="round" y="15" x="15" stroke-width=".5" fill="url(#n)"/>
 <rect opacity=".7" transform="translate(0,-4)" clip-path="url(#ac)" rx="2.1429" ry="2" height="80" filter="url(#ae)" width="60" stroke="#000" y="18" x="18" stroke-width="2" fill="none"/>
 <path opacity=".1" d="m48 24.062c-9.34 0-16.938 7.598-16.938 16.938s7.598 16.938 16.938 16.938 16.938-7.598 16.938-16.938-7.598-16.938-16.938-16.938zm1.5 10.375c2.5647 0.58049 4.482 2.4978 5.0625 5.0625l-5.062-5.062zm-8.1562 7.625 5.5938 5.5938c-2.923-0.465-5.129-2.671-5.594-5.594z"/>
 <path opacity=".15" d="m48 25.094c-8.773 0-15.906 7.1332-15.906 15.906 0 8.773 7.1332 15.906 15.906 15.906 8.773 0 15.906-7.1332 15.906-15.906 0-8.773-7.1332-15.906-15.906-15.906zm0 8c4.3785 0 7.9062 3.5277 7.9062 7.9062 0 0.37998-0.15087 0.752-0.21875 1.125l-8.812-8.813c0.373-0.067 0.744-0.218 1.125-0.218zm-7.625 6.5 9.0312 9.0312c-0.464 0.101-0.918 0.281-1.406 0.281-4.3785 0-7.9062-3.5277-7.9062-7.9062 0-0.48671 0.18002-0.9417 0.28125-1.4062z"/>
 <path opacity=".3" d="m48 25.969c-8.2964 0-15.031 6.7348-15.031 15.031 0 8.2964 6.7348 15.031 15.031 15.031 8.2964 0 15.031-6.7348 15.031-15.031 0-8.2964-6.7348-15.031-15.031-15.031zm0 6.25c4.8536 0 8.7812 3.9276 8.7812 8.7812 0 1.0266-0.24246 1.9913-0.5625 2.9062l-11.125-11.125c0.914-0.32 1.877-0.562 2.906-0.562zm-8.125 5.625 11.281 11.281c-0.987 0.388-2.027 0.656-3.156 0.656-4.8536 0-8.7812-3.9276-8.7812-8.7812 0-1.126 0.26857-2.1684 0.65625-3.1562z"/>
 <path d="m12 6c-3.324 0-6 2.676-6 6v62c0 3.324 2.676 6 6 6h72c3.324 0 6-2.676 6-6v-62c0-3.324-2.676-6-6-6h-72zm8.1562 8h55.688c1.187 0 2.156 0.892 2.156 2v32l-2 2v12h-56v-12l-2-2v-32c0-1.108 0.96911-2 2.1562-2z" fill="url(#k)"/>
 <path opacity="0.98" d="m6 50v24c0 3.324 2.676 6 6 6h72c3.324 0 6-2.676 6-6v-24c0 3.324-2.676 6-6 6h-8v6h-56v-6h-8c-3.324 0-6-2.676-6-6z" fill="url(#l)"/>
 <path opacity=".5" d="m12 6c-3.324 0-6 2.676-6 6v72c0 0.33472 0.04135 0.6507 0.09375 0.96875 0.0487 0.2956 0.09704 0.59692 0.1875 0.875 0.00988 0.03038 0.020892 0.0636 0.03125 0.09375 0.098865 0.28777 0.23488 0.54745 0.375 0.8125 0.14459 0.27351 0.31562 0.53562 0.5 0.78125 0.18438 0.24564 0.37378 0.47347 0.59375 0.6875 0.43995 0.42806 0.94291 0.81453 1.5 1.0938 0.27854 0.13961 0.57347 0.24695 0.875 0.34375-0.2562-0.10022-0.48671-0.23627-0.71875-0.375-0.00741-0.0044-0.023866 0.0045-0.03125 0-0.0319-0.019-0.0622-0.042-0.0937-0.062-0.1204-0.077-0.231-0.164-0.3437-0.25-0.1062-0.081-0.2133-0.161-0.3126-0.25-0.1778-0.162-0.3473-0.346-0.4999-0.531-0.1075-0.131-0.2183-0.266-0.3124-0.407-0.0251-0.038-0.0385-0.086-0.0626-0.125-0.0647-0.103-0.1302-0.204-0.1874-0.312-0.1011-0.195-0.2057-0.416-0.2813-0.625-0.008-0.022-0.0236-0.041-0.0313-0.063-0.0318-0.092-0.0358-0.187-0.0624-0.281-0.0304-0.107-0.0704-0.203-0.0938-0.313-0.0729-0.341-0.125-0.698-0.125-1.062v-72c0-2.782 2.2182-5 5-5h72c2.7818 0 5 2.2182 5 5v72c0 0.3643-0.05212 0.72099-0.125 1.0625-0.04415 0.20689-0.08838 0.39766-0.15625 0.59375-0.0077 0.02195-0.0233 0.04069-0.03125 0.0625-0.06274 0.17374-0.13838 0.36745-0.21875 0.53125-0.04158 0.0828-0.07904 0.16995-0.125 0.25-0.0546 0.09721-0.12677 0.18835-0.1875 0.28125-0.09411 0.14096-0.20492 0.276-0.3125 0.40625-0.14317 0.17445-0.30314 0.347-0.46875 0.5-0.01117 0.0102-0.01998 0.02115-0.03125 0.03125-0.13839 0.12556-0.28509 0.23444-0.4375 0.34375-0.10257 0.07315-0.20432 0.15336-0.3125 0.21875-0.0074 0.0045-0.02384-0.0044-0.03125 0-0.23204 0.13873-0.46255 0.27478-0.71875 0.375 0.30153-0.0968 0.59646-0.20414 0.875-0.34375 0.55709-0.27922 1.0601-0.66569 1.5-1.0938 0.21997-0.21403 0.40937-0.44186 0.59375-0.6875s0.35541-0.50774 0.5-0.78125c0.14012-0.26505 0.27614-0.52473 0.375-0.8125 0.01041-0.03078 0.02133-0.06274 0.03125-0.09375 0.09046-0.27808 0.1388-0.5794 0.1875-0.875 0.053-0.318 0.094-0.634 0.094-0.969v-72c0-3.324-2.676-6-6-6h-72z" fill="url(#m)"/>
 <path opacity="0.98" d="m6 72v12c0 3.324 2.676 6 6 6h72c3.324 0 6-2.676 6-6v-12c0 3.324-2.676 6-6 6h-72c-3.324 0-6-2.676-6-6z" fill="#424242"/>
 <path opacity=".2" d="m12 90c-3.324 0-6-2.676-6-6v-72c0-0.33472 0.04135-0.6507 0.09375-0.96875 0.0487-0.2956 0.09704-0.59692 0.1875-0.875 0.0099-0.03 0.0209-0.063 0.0313-0.094 0.0989-0.2873 0.2349-0.547 0.375-0.812 0.1446-0.2735 0.3156-0.5356 0.5-0.7812 0.1844-0.2457 0.3738-0.4735 0.5937-0.6876 0.44-0.428 0.943-0.8145 1.5-1.0937 0.2786-0.1396 0.5735-0.2469 0.8748-0.3437-0.256 0.1002-0.4865 0.2362-0.7185 0.375-0.00741 0.0044-0.023866-0.0045-0.03125 0-0.031933 0.0193-0.062293 0.04251-0.09375 0.0625-0.1204 0.0767-0.23102 0.16351-0.34375 0.25-0.10617 0.0808-0.21328 0.16111-0.3125 0.25-0.1779 0.1614-0.3474 0.3453-0.5 0.5312-0.1075 0.1303-0.2183 0.2653-0.3124 0.4063-0.0251 0.0383-0.0385 0.0858-0.0626 0.125-0.0647 0.103-0.1302 0.2045-0.1874 0.3124-0.1011 0.1948-0.2057 0.4158-0.2813 0.625-0.008 0.0219-0.0236 0.0406-0.0313 0.0626-0.0318 0.0919-0.0358 0.1868-0.0624 0.2812-0.0304 0.1066-0.0704 0.203-0.0938 0.3125-0.0729 0.3415-0.125 0.6985-0.125 1.0625v72c0 2.7818 2.2182 5 5 5h72c2.7818 0 5-2.2182 5-5v-72c0-0.364-0.052-0.721-0.125-1.0625-0.044-0.2069-0.088-0.3977-0.156-0.5937-0.008-0.022-0.024-0.0407-0.031-0.0626-0.063-0.1737-0.139-0.3674-0.219-0.5312-0.042-0.0828-0.079-0.17-0.125-0.25-0.055-0.0972-0.127-0.1884-0.188-0.2812-0.094-0.141-0.205-0.276-0.312-0.4063-0.143-0.1745-0.303-0.347-0.469-0.5-0.011-0.0102-0.02-0.0211-0.031-0.0313-0.139-0.1255-0.285-0.2344-0.438-0.3437-0.102-0.0731-0.204-0.1534-0.312-0.2187-0.0074-0.0045-0.02384 0.0044-0.03125 0-0.23204-0.13873-0.46255-0.27478-0.71875-0.375 0.30153 0.0968 0.59646 0.20414 0.875 0.34375 0.55709 0.27922 1.0601 0.66569 1.5 1.0938 0.21997 0.21403 0.40937 0.44186 0.59375 0.6875s0.35541 0.50774 0.5 0.78125c0.14012 0.26505 0.27614 0.52473 0.375 0.8125 0.01041 0.03078 0.02133 0.06274 0.03125 0.09375 0.09046 0.27808 0.1388 0.5794 0.1875 0.875 0.053 0.318 0.094 0.634 0.094 0.969v72c0 3.324-2.676 6-6 6h-72z" fill="url(#h)"/>
 <path opacity=".6" d="m19.156 13c-1.187 0-2.156 0.892-2.156 2v32l1 1v-32c0-1.108 0.96911-2 2.1562-2h55.688c1.187 0 2.156 0.892 2.156 2v32l1-1v-32c0-1.108-0.96911-2-2.1562-2h-57.688zm-0.156 36v6l-1 1h2v-6l-1-1zm58 0-1 1v6h2l-1-1v-6z" fill="#fff"/>
 <g fill="#666">
  <path d="m42.075 9.044h1.4943v0.42027h-0.88724v0.34155h0.75782v0.39492h-0.75782v0.79918h-0.607v-1.9559"/>
  <path d="m44.845 10.677h-0.688l-0.096 0.323h-0.61773l0.73514-1.9559h0.65909l0.735 1.956h-0.632l-0.096-0.323m-0.127-0.423-0.216-0.7028-0.215 0.7028h0.43094"/>
  <path d="m45.764 9.044h1.6197v0.4176h-1.014v0.31087h0.94061v0.39892h-0.941v0.38558h1.0433v0.44295h-1.6491v-1.9559"/>
  <path d="m47.744 9.044h0.56436l0.73648 1.082v-1.082h0.5697v1.9559h-0.5697l-0.73247-1.074v1.074h-0.568v-1.956"/>
  <path d="m49.969 9.044h1.7104v0.39092l-1.0967 1.1447h1.1367v0.42027h-1.8559v-0.4056l1.0847-1.1327h-0.9793v-0.4176"/>
  <path d="m53.197 10.677h-0.688l-0.095 0.323h-0.61773l0.73514-1.9559h0.65909l0.735 1.956h-0.632l-0.096-0.323m-0.127-0.423-0.216-0.7028-0.215 0.7028h0.43095"/>
 </g>
 <path opacity=".15" d="m6 50v34c0 3.324 2.676 6 6 6h12v-34h-12c-3.324 0-6-2.676-6-6z" fill="url(#r)"/>
 <path d="m20 62c0 5.54 12.488 10 28 10s28-4.46 28-10h-56z" fill="url(#s)"/>
 <path opacity=".15" d="m90 50c0 3.324-2.676 6-6 6h-12v34h12c3.324 0 6-2.676 6-6v-34z" fill="url(#t)"/>
 <path opacity=".6" d="m21 62.536c0 2.2329 2.0623 4.2768 5.5 5.9375 6.264-2.5934 14.152-4.6463 23.062-5.9375h-28.562z" fill="url(#u)"/>
 <path d="m20 56v6c0 5.54 12.488 10 28 10s28-4.46 28-10v-6h-1v5.9995c0 1.0055-0.56954 2.0455-1.8438 3.125-1.2742 1.0795-3.234 2.1237-5.6875 3-4.907 1.753-11.81 2.875-19.469 2.875s-14.562-1.122-19.469-2.875c-2.4535-0.87626-4.4133-1.9205-5.6875-3-1.274-1.079-1.844-2.12-1.844-3.125v-6h-1z" fill="url(#v)"/>
 <rect y="61" width="54" x="21" height="1"/>
 <path opacity=".4" d="m19 56v7c0 5.54 12.934 10 29 10s29-4.46 29-10v-7h-1v6c0 5.54-12.488 10-28 10s-28-4.46-28-10v-6h-1z" fill="#fff"/>
 <path opacity=".3" d="m6 71v2c0 3.324 2.676 6 6 6h72c3.324 0 6-2.676 6-6v-2c0 3.324-2.676 6-6 6h-72c-3.324 0-6-2.676-6-6z"/>
 <path opacity=".5" d="m6 49v1c0 3.324 2.676 6 6 6h8v-1h-8c-3.324 0-6-2.676-6-6zm84 0c0 3.324-2.676 6-6 6h-8v1h8c3.324 0 6-2.676 6-6v-1z" fill="#fff"/>
 <path d="m20.179 61.886c0 0.57611 0.06646 1.1531 0.15625 1.7143h55.688c0.08979-0.56119 0.15625-1.1382 0.15625-1.7143h-56z" fill="url(#i)"/>
 <path d="m48 54.5c8.004 0 14.5-6.496 14.5-14.5s-6.496-14.5-14.5-14.5-14.5 6.496-14.5 14.5 6.496 14.5 14.5 14.5zm0-5.1786c-5.1454 0-9.3214-4.176-9.3214-9.3214 0-1.3905 0.31101-2.7064 0.8577-3.892l12.364 12.356c-1.187 0.548-2.507 0.857-3.9 0.857zm8.35-5.194-12.485-12.477c1.247-0.62 2.649-0.971 4.135-0.971 5.1454 0 9.3214 4.176 9.3214 9.3214 0 1.4832-0.35382 2.8814-0.97098 4.1267z" stroke="#a00000" stroke-linecap="round" fill="url(#w)"/>
 <path opacity=".6" d="m48 25.5c-8.004 0-14.5 6.496-14.5 14.5 0 0.17044 0.02541 0.33097 0.03125 0.5 0.26856-7.7685 6.6352-14 14.469-14 7.8336 0 14.2 6.2315 14.469 14 0.006-0.169 0.031-0.33 0.031-0.5 0-8.004-6.496-14.5-14.5-14.5zm-3.4062 6.875c-0.23899 0.09514-0.48979 0.16755-0.71875 0.28125l12.469 12.469c0.617-1.245 0.968-2.642 0.968-4.125 0-0.21451-0.01697-0.41409-0.03125-0.625-0.05492 1.3421-0.37332 2.6116-0.9375 3.75l-11.75-11.75zm-5.875 8.2812c-0.005 0.115-0.031 0.228-0.031 0.344 0 5.1454 4.1671 9.3125 9.3125 9.3125 1.3932 0 2.7189-0.29512 3.9062-0.84375l-0.719-0.719c-0.99378 0.36285-2.0684 0.5625-3.1875 0.5625-4.9202 0-8.9376-3.8231-9.2812-8.6562z" fill="url(#x)"/>
 <rect opacity=".4" rx="1" ry="1" height="4" width="8" y="31" x="8" fill="#fff"/>
 <rect rx=".53571" ry=".4375" height="3.5" width="7.5" stroke="#008033" y="30.25" x="8.25" stroke-width=".5" fill="url(#g)"/>
 <path opacity="0.18" d="m8.75 36c-0.4155 0-0.75 0.334-0.75 0.75v2.5c0 0.416 0.3345 0.75 0.75 0.75-0.4155 0-0.75 0.334-0.75 0.75v2.5c0 0.416 0.3345 0.75 0.75 0.75h2.5c0.416 0 0.75-0.334 0.75-0.75 0 0.416 0.334 0.75 0.75 0.75h2.5c0.416 0 0.75-0.334 0.75-0.75v-2.5c0-0.416-0.334-0.75-0.75-0.75 0.416 0 0.75-0.334 0.75-0.75v-2.5c0-0.416-0.334-0.75-0.75-0.75h-2.5c-0.416 0-0.75 0.334-0.75 0.75 0-0.416-0.334-0.75-0.75-0.75h-2.5zm3.25 3.25c0 0.416 0.334 0.75 0.75 0.75-0.416 0-0.75 0.334-0.75 0.75 0-0.416-0.334-0.75-0.75-0.75 0.416 0 0.75-0.334 0.75-0.75z"/>
 <rect rx=".5" ry=".5" height="3" width="3" y="40" x="8" fill="#fff"/>
 <path d="m11.986 52.5a3.4909 3.491 0 1 0 0 -6.982 3.4909 3.491 0 1 0 0 6.982z" fill="url(#j)"/>
 <path d="m14.482 49.006a2.491 2.491 0 1 1 -4.982 0 2.491 2.491 0 1 1 4.982 0z" stroke-opacity="0.53" stroke="#000" stroke-linecap="square" fill="url(#f)"/>
 <rect height="1" width="1" y="25" x="8" fill="#ff7600"/>
 <g fill="#4d4d4d">
  <path d="m10.638 26-0.394-0.696c0.0021 0.01882 0.0041 0.03763 0.0058 0.05645 0.0017 0.01625 0.003 0.03378 0.0038 0.0526 0.0013 0.01882 0.0019 0.03678 0.0019 0.05388v0.53304h-0.16806v-0.9038h0.21617l0.39962 0.70174c-0.0021-0.01796-0.0041-0.03678-0.0058-0.05645-0.0017-0.01668-0.0032-0.03549-0.0045-0.05645-0.000856-0.02095-0.0013-0.04212-0.0013-0.0635v-0.52534h0.16806v0.9038h-0.22194"/>
  <path d="m11.325 26.013c-0.05003 0-0.09515-0.0073-0.13534-0.02181-0.03977-0.01497-0.07377-0.03742-0.10199-0.06735-0.02822-0.03036-0.04982-0.06821-0.06479-0.11354-0.01497-0.04576-0.02245-0.09921-0.02245-0.16036 0-0.06628 0.0088-0.12209 0.0263-0.16742 0.01796-0.04533 0.04191-0.08189 0.07184-0.10969 0.03036-0.02822 0.06521-0.04854 0.10456-0.06094 0.03934-0.0124 0.08082-0.0186 0.12444-0.0186 0.05474 0.000001 0.10135 0.0096 0.13983 0.02886 0.03891 0.01882 0.07077 0.04533 0.09558 0.07954 0.0248 0.03421 0.04298 0.07526 0.05452 0.12316 0.01155 0.04747 0.01732 0.10006 0.01732 0.1578v0.0051h-0.44516c0 0.02908 0.0026 0.05623 0.0077 0.08146 0.0051 0.0248 0.01347 0.0464 0.02502 0.06479 0.01154 0.01796 0.02651 0.03229 0.0449 0.04298 0.01839 0.01026 0.04062 0.01539 0.06671 0.01539 0.03164 0 0.05752-0.0066 0.07761-0.01988 0.0201-0.01368 0.03442-0.03464 0.04298-0.06286l0.16998 0.01475c-0.0077 0.01967-0.0186 0.04062-0.03271 0.06286-0.01369 0.02224-0.03207 0.04276-0.05517 0.06158-0.02309 0.01839-0.05196 0.03378-0.08659 0.04618-0.03421 0.01197-0.0759 0.01796-0.12508 0.01796m0-0.60616c-0.01839 0.000001-0.03571 0.0032-0.05196 0.0096-0.01582 0.006-0.02972 0.01582-0.04169 0.02951-0.01155 0.01326-0.02095 0.03058-0.02822 0.05196-0.0073 0.02138-0.01133 0.04704-0.01219 0.07697h0.26941c-0.0034-0.05602-0.01689-0.09793-0.04041-0.12572-0.02352-0.02822-0.05517-0.04233-0.09493-0.04234"/>
  <path d="m11.95 26.012c-0.05303 0-0.09387-0.01433-0.12252-0.04298-0.02865-0.02908-0.04298-0.07291-0.04298-0.1315v-0.41h-0.087v-0.122h0.09686l0.05645-0.16293h0.11289v0.16293h0.1315v0.12188h-0.1315v0.36049c0 0.03378 0.0064 0.0588 0.01924 0.07505 0.01283 0.01582 0.03271 0.02373 0.05965 0.02373 0.01112 0 0.02117-0.000855 0.03015-0.0026 0.009-0.0017 0.01903-0.0038 0.03015-0.0064v0.11161c-0.02224 0.0073-0.04576 0.01262-0.07056 0.01604-0.0248 0.0038-0.05196 0.0058-0.08146 0.0058"/>
  <path d="m12.962 26h-0.19051l-0.11033-0.42335c-0.0034-0.01326-0.0068-0.02801-0.01026-0.04426-0.0034-0.01668-0.0066-0.03229-0.0096-0.04682l-0.01026-0.05132c-0.0038 0.01711-0.0077 0.03421-0.01155 0.05132-0.0034 0.01454-0.0071 0.03015-0.0109 0.04682-0.0038 0.01668-0.0075 0.03186-0.0109 0.04554l-0.112 0.421h-0.19051l-0.1796-0.69404h0.16934l0.08788 0.40796c0.0026 0.01155 0.0053 0.02459 0.0083 0.03913 0.003 0.01411 0.0058 0.02737 0.0083 0.03977 0.003 0.01454 0.0062 0.02908 0.0096 0.04362 0.003-0.01625 0.006-0.03207 0.009-0.04747 0.0026-0.01326 0.0053-0.02673 0.0083-0.04041s0.0056-0.02523 0.0077-0.03464l0.10904-0.40796h0.19308l0.10648 0.40796c0.003 0.01112 0.006 0.02373 0.009 0.03785 0.003 0.01411 0.0058 0.02737 0.0083 0.03977 0.003 0.01454 0.006 0.02951 0.009 0.0449 0.0034-0.0154 0.0066-0.03036 0.0096-0.0449 0.0026-0.0124 0.0053-0.02566 0.0083-0.03977s0.0058-0.02673 0.0083-0.03785l0.09173-0.40796h0.16678l-0.183 0.694"/>
  <path d="m13.892 25.652c-0.000001 0.05303-0.0075 0.10156-0.02245 0.14561-0.01454 0.04405-0.03656 0.0821-0.06607 0.11418-0.02951 0.03165-0.06628 0.05645-0.11033 0.07441-0.04405 0.01753-0.09536 0.0263-0.15395 0.0263-0.05645 0-0.10627-0.0088-0.14946-0.0263-0.04319-0.01753-0.07954-0.04212-0.10904-0.07377-0.02908-0.03165-0.0511-0.06949-0.06607-0.11354-0.01497-0.04447-0.02245-0.09344-0.02245-0.14689 0-0.05174 0.0071-0.09942 0.02117-0.14304 0.01454-0.04405 0.03635-0.0821 0.06543-0.11418 0.02908-0.03207 0.06564-0.05709 0.10969-0.07505s0.09557-0.02694 0.15459-0.02694c0.06243 0.000001 0.11567 0.009 0.15972 0.02694 0.04405 0.01796 0.07997 0.04298 0.10776 0.07505 0.02822 0.03165 0.04875 0.06949 0.06158 0.11354 0.01326 0.04362 0.01988 0.09151 0.01988 0.14368m-0.18858 0c-0.000001-0.08253-0.01347-0.1424-0.04041-0.1796s-0.06607-0.0558-0.11738-0.05581c-0.05303 0.000001-0.09365 0.01882-0.12187 0.05645s-0.04234 0.09729-0.04233 0.17896c-0.000001 0.04148 0.0036 0.07719 0.0109 0.10712 0.0077 0.02993 0.01839 0.05452 0.03207 0.07377 0.01368 0.01924 0.03015 0.03357 0.04939 0.04298 0.01924 0.009 0.04041 0.01347 0.0635 0.01347 0.02651 0 0.05003-0.0045 0.07056-0.01347 0.02095-0.0094 0.03849-0.02373 0.0526-0.04298 0.01411-0.01924 0.0248-0.04383 0.03207-0.07377 0.0073-0.02993 0.0109-0.06564 0.01091-0.10712"/>
  <path d="m14.035 26v-0.53112c0-0.01497-0.000214-0.03079-0.000642-0.04747 0-0.01668-0.000427-0.0325-0.0013-0.04747-0.000427-0.01539-0.000855-0.02908-0.0013-0.04105-0.000428-0.0124-0.0011-0.02138-0.0019-0.02694h0.17191c0.000855 0.0051 0.0017 0.01411 0.0026 0.02694 0.000855 0.0124 0.0017 0.02609 0.0026 0.04105 0.000855 0.01497 0.0015 0.02994 0.0019 0.0449 0.000855 0.01454 0.0013 0.0263 0.0013 0.03528h0.0026c0.009-0.02523 0.01796-0.04768 0.02694-0.06735 0.009-0.0201 0.01946-0.03699 0.03143-0.05067 0.0124-0.01411 0.02715-0.0248 0.04426-0.03207 0.0171-0.0077 0.03827-0.01154 0.0635-0.01155 0.01069 0.000001 0.02117 0.0011 0.03143 0.0032 0.01069 0.0017 0.01882 0.0038 0.02438 0.0064v0.15074c-0.01155-0.0026-0.02331-0.0047-0.03528-0.0064-0.01155-0.0021-0.02544-0.0032-0.04169-0.0032-0.0449 0.000001-0.07997 0.01817-0.1052 0.05452-0.0248 0.03635-0.0372 0.09023-0.0372 0.16164v0.34061h-0.18025"/>
  <path d="m14.989 26-0.18538-0.31431-0.07761 0.05388v0.26h-0.18025v-0.9519h0.18025v0.54523l0.2476-0.28737h0.19372l-0.24375 0.27069 0.262 0.423h-0.197"/>
 </g>
 <rect height="1" width="1" y="27" x="8" fill="#f00"/>
 <g fill="#4d4d4d">
  <path d="m10.088 28v-0.9038h0.71072v0.14625h-0.52149v0.22707h0.48237v0.14625h-0.48237v0.23798h0.54779v0.147h-0.738"/>
  <path d="m10.969 28v-0.53112c0-0.01497-0.000214-0.03079-0.000641-0.04747 0-0.01668-0.000428-0.0325-0.0013-0.04747-0.000428-0.01539-0.000855-0.02908-0.0013-0.04105-0.000428-0.0124-0.0011-0.02138-0.0019-0.02694h0.17191c0.000855 0.0051 0.0017 0.01411 0.0026 0.02694 0.000855 0.0124 0.0017 0.02609 0.0026 0.04105 0.000855 0.01497 0.0015 0.02994 0.0019 0.0449 0.000855 0.01454 0.0013 0.0263 0.0013 0.03528h0.0026c0.009-0.02523 0.01796-0.04768 0.02694-0.06735 0.009-0.0201 0.01946-0.03699 0.03143-0.05067 0.0124-0.01411 0.02715-0.0248 0.04426-0.03207 0.01711-0.0077 0.03827-0.01154 0.0635-0.01155 0.01069 0.000001 0.02117 0.0011 0.03143 0.0032 0.01069 0.0017 0.01882 0.0038 0.02438 0.0064v0.15074c-0.01155-0.0026-0.02331-0.0047-0.03528-0.0064-0.01155-0.0021-0.02544-0.0032-0.04169-0.0032-0.0449 0.000001-0.07997 0.01817-0.1052 0.05452-0.0248 0.03635-0.0372 0.09023-0.0372 0.16164v0.34061h-0.18025"/>
  <path d="m11.48 28v-0.53112c0-0.01497-0.000214-0.03079-0.000642-0.04747 0-0.01668-0.000427-0.0325-0.0013-0.04747-0.000428-0.01539-0.000856-0.02908-0.0013-0.04105-0.000428-0.0124-0.0011-0.02138-0.0019-0.02694h0.17191c0.000855 0.0051 0.0017 0.01411 0.0026 0.02694 0.000855 0.0124 0.0017 0.02609 0.0026 0.04105 0.000855 0.01497 0.0015 0.02994 0.0019 0.0449 0.000855 0.01454 0.0013 0.0263 0.0013 0.03528h0.0026c0.009-0.02523 0.01796-0.04768 0.02694-0.06735 0.009-0.0201 0.01946-0.03699 0.03143-0.05067 0.0124-0.01411 0.02715-0.0248 0.04426-0.03207 0.0171-0.0077 0.03827-0.01154 0.0635-0.01155 0.01069 0.000001 0.02117 0.0011 0.03143 0.0032 0.01069 0.0017 0.01882 0.0038 0.02437 0.0064v0.15074c-0.01155-0.0026-0.02331-0.0047-0.03528-0.0064-0.01155-0.0021-0.02544-0.0032-0.04169-0.0032-0.0449 0.000001-0.07997 0.01817-0.1052 0.05452-0.0248 0.03635-0.0372 0.09023-0.0372 0.16164v0.34061h-0.18025"/>
  <path d="m12.65 27.652c-0.000001 0.05303-0.0075 0.10156-0.02245 0.14561-0.01454 0.04405-0.03656 0.0821-0.06607 0.11418-0.02951 0.03165-0.06628 0.05645-0.11033 0.07441-0.04405 0.01753-0.09536 0.0263-0.15395 0.0263-0.05645 0-0.10627-0.0088-0.14946-0.0263-0.04319-0.01753-0.07954-0.04212-0.10904-0.07377-0.02908-0.03165-0.0511-0.06949-0.06607-0.11354-0.01497-0.04447-0.02245-0.09344-0.02245-0.14689-0.000001-0.05174 0.0071-0.09942 0.02117-0.14304 0.01454-0.04405 0.03635-0.0821 0.06543-0.11418 0.02908-0.03207 0.06564-0.05709 0.10969-0.07505s0.09558-0.02694 0.15459-0.02694c0.06243 0.000001 0.11567 0.009 0.15972 0.02694 0.04405 0.01796 0.07997 0.04298 0.10776 0.07505 0.02822 0.03165 0.04875 0.06949 0.06158 0.11354 0.01326 0.04362 0.01988 0.09151 0.01989 0.14368m-0.18858 0c-0.000001-0.08253-0.01347-0.1424-0.04041-0.1796s-0.06607-0.0558-0.11738-0.05581c-0.05303 0.000001-0.09365 0.01882-0.12187 0.05645s-0.04234 0.09729-0.04233 0.17896c-0.000001 0.04148 0.0036 0.07719 0.0109 0.10712 0.0077 0.02993 0.01839 0.05452 0.03207 0.07377 0.01368 0.01924 0.03015 0.03357 0.04939 0.04298 0.01924 0.009 0.04041 0.01347 0.0635 0.01347 0.02651 0 0.05003-0.0045 0.07056-0.01347 0.02095-0.0094 0.03849-0.02373 0.0526-0.04298 0.01411-0.01924 0.0248-0.04383 0.03207-0.07377 0.0073-0.02993 0.0109-0.06564 0.0109-0.10712"/>
  <path d="m12.793 28v-0.53112c0-0.01497-0.000214-0.03079-0.000642-0.04747 0-0.01668-0.000427-0.0325-0.0013-0.04747-0.000427-0.01539-0.000855-0.02908-0.0013-0.04105-0.000427-0.0124-0.0011-0.02138-0.0019-0.02694h0.17191c0.000855 0.0051 0.0017 0.01411 0.0026 0.02694 0.000855 0.0124 0.0017 0.02609 0.0026 0.04105 0.000855 0.01497 0.0015 0.02994 0.0019 0.0449 0.000855 0.01454 0.0013 0.0263 0.0013 0.03528h0.0026c0.009-0.02523 0.01796-0.04768 0.02694-0.06735 0.009-0.0201 0.01946-0.03699 0.03143-0.05067 0.0124-0.01411 0.02715-0.0248 0.04426-0.03207 0.01711-0.0077 0.03827-0.01154 0.0635-0.01155 0.01069 0.000001 0.02117 0.0011 0.03143 0.0032 0.01069 0.0017 0.01882 0.0038 0.02437 0.0064v0.15074c-0.01155-0.0026-0.02331-0.0047-0.03528-0.0064-0.01155-0.0021-0.02544-0.0032-0.04169-0.0032-0.0449 0.000001-0.07997 0.01817-0.1052 0.05452-0.0248 0.03635-0.0372 0.09023-0.0372 0.16164v0.34061h-0.18025"/>
 </g>
 <rect height="1" width="1" y="23" x="8" fill="#ff7600"/>
 <g fill="#4d4d4d">
  <path d="m10.831 23.382c-0.000001 0.03892-0.0066 0.07655-0.01989 0.11289-0.01283 0.03592-0.03271 0.06778-0.05965 0.09558s-0.06115 0.05003-0.10263 0.06671c-0.04148 0.01625-0.09066 0.02437-0.14753 0.02437h-0.2245v0.31816h-0.18923v-0.9038h0.40603c0.05773 0.000001 0.10776 0.0071 0.1501 0.02117 0.04233 0.01369 0.0774 0.03314 0.1052 0.05837 0.02779 0.02523 0.04832 0.05538 0.06158 0.09044 0.01368 0.03507 0.02052 0.07377 0.02053 0.1161m-0.19051 0.0032c-0.000001-0.04661-0.01411-0.08189-0.04234-0.10584-0.0278-0.02437-0.0697-0.03656-0.12572-0.03656h-0.194v0.29314h0.20077c0.02822 0 0.05238-0.0036 0.07248-0.01091 0.02053-0.0073 0.03742-0.01753 0.05067-0.03079 0.01368-0.01326 0.02373-0.02908 0.03015-0.04747 0.0064-0.01881 0.0096-0.03934 0.0096-0.06158"/>
  <path d="m11.629 23.652c-0.000001 0.05303-0.0075 0.10156-0.02245 0.14561-0.01454 0.04405-0.03656 0.0821-0.06607 0.11418-0.02951 0.03165-0.06628 0.05645-0.11033 0.07441-0.04405 0.01753-0.09536 0.0263-0.15395 0.0263-0.05645 0-0.10627-0.0088-0.14946-0.0263-0.04319-0.01753-0.07954-0.04212-0.10904-0.07377-0.02908-0.03165-0.0511-0.06949-0.06607-0.11354-0.01497-0.04447-0.02245-0.09344-0.02245-0.14689 0-0.05174 0.0071-0.09942 0.02117-0.14304 0.01454-0.04405 0.03635-0.0821 0.06543-0.11418 0.02908-0.03207 0.06564-0.05709 0.10969-0.07505s0.09558-0.02694 0.15459-0.02694c0.06243 0.000001 0.11567 0.009 0.15972 0.02694 0.04405 0.01796 0.07997 0.04298 0.10776 0.07505 0.02822 0.03165 0.04875 0.06949 0.06158 0.11354 0.01326 0.04362 0.01988 0.09151 0.01989 0.14368m-0.18858 0c0-0.08253-0.01347-0.1424-0.04041-0.1796s-0.06607-0.0558-0.11738-0.05581c-0.05303 0.000001-0.09365 0.01882-0.12187 0.05645s-0.04234 0.09729-0.04234 0.17896c0 0.04148 0.0036 0.07719 0.01091 0.10712 0.0077 0.02993 0.01839 0.05452 0.03207 0.07377 0.01368 0.01924 0.03015 0.03357 0.04939 0.04298 0.01924 0.009 0.04041 0.01347 0.0635 0.01347 0.02651 0 0.05003-0.0045 0.07056-0.01347 0.02095-0.0094 0.03849-0.02373 0.0526-0.04298 0.01411-0.01924 0.0248-0.04383 0.03207-0.07377 0.0073-0.02993 0.0109-0.06564 0.0109-0.10712"/>
  <path d="m12.523 24h-0.19051l-0.11033-0.42335c-0.0034-0.01326-0.0068-0.02801-0.01026-0.04426-0.0034-0.01668-0.0066-0.03229-0.0096-0.04682l-0.01026-0.05132c-0.0038 0.01711-0.0077 0.03421-0.01155 0.05132-0.0034 0.01454-0.0071 0.03015-0.0109 0.04682-0.0038 0.01668-0.0075 0.03186-0.0109 0.04554l-0.112 0.421h-0.19051l-0.1796-0.69404h0.16934l0.08788 0.40796c0.0026 0.01155 0.0053 0.02459 0.0083 0.03913 0.003 0.01411 0.0058 0.02737 0.0083 0.03977 0.003 0.01454 0.0062 0.02908 0.0096 0.04362 0.003-0.01625 0.006-0.03207 0.009-0.04747 0.0026-0.01326 0.0053-0.02673 0.0083-0.04041s0.0056-0.02523 0.0077-0.03464l0.10904-0.40796h0.19308l0.10648 0.40796c0.003 0.01112 0.006 0.02373 0.009 0.03785 0.003 0.01411 0.0058 0.02737 0.0083 0.03977 0.003 0.01454 0.006 0.02951 0.009 0.0449 0.0034-0.0154 0.0066-0.03036 0.0096-0.0449 0.0026-0.0124 0.0053-0.02566 0.0083-0.03977s0.0058-0.02673 0.0083-0.03785l0.09173-0.40796h0.16678l-0.182 0.694"/>
  <path d="m13.078 24.013c-0.05003 0-0.09515-0.0073-0.13534-0.02181-0.03977-0.01497-0.07377-0.03742-0.10199-0.06735-0.02822-0.03036-0.04982-0.06821-0.06479-0.11354-0.01497-0.04576-0.02245-0.09921-0.02245-0.16036 0-0.06628 0.0088-0.12209 0.0263-0.16742 0.01796-0.04533 0.04191-0.08189 0.07184-0.10969 0.03036-0.02822 0.06521-0.04854 0.10456-0.06094 0.03934-0.0124 0.08082-0.0186 0.12444-0.0186 0.05474 0.000001 0.10135 0.0096 0.13984 0.02886 0.03891 0.01882 0.07077 0.04533 0.09558 0.07954 0.0248 0.03421 0.04298 0.07526 0.05452 0.12316 0.01154 0.04747 0.01732 0.10006 0.01732 0.1578v0.0051h-0.44516c-0.000001 0.02908 0.0026 0.05623 0.0077 0.08146 0.0051 0.0248 0.01347 0.0464 0.02502 0.06479 0.01155 0.01796 0.02651 0.03229 0.0449 0.04298 0.01839 0.01026 0.04063 0.01539 0.06671 0.01539 0.03164 0 0.05752-0.0066 0.07761-0.01988 0.0201-0.01368 0.03442-0.03464 0.04298-0.06286l0.16998 0.01475c-0.0077 0.01967-0.0186 0.04062-0.03271 0.06286-0.01368 0.02224-0.03207 0.04276-0.05516 0.06158-0.02309 0.01839-0.05196 0.03378-0.0866 0.04618-0.03421 0.01197-0.07591 0.01796-0.12508 0.01796m0-0.60616c-0.01839 0.000001-0.03571 0.0032-0.05196 0.0096-0.01582 0.006-0.02972 0.01582-0.04169 0.02951-0.01155 0.01326-0.02095 0.03058-0.02822 0.05196-0.0073 0.02138-0.01133 0.04704-0.01219 0.07697h0.26941c-0.003-0.057-0.017-0.099-0.04-0.127-0.024-0.028-0.055-0.042-0.095-0.042"/>
  <path d="m13.525 24v-0.53112c0-0.01497-0.000214-0.03079-0.000641-0.04747 0-0.01668-0.000428-0.0325-0.0013-0.04747-0.000428-0.01539-0.000856-0.02908-0.0013-0.04105-0.000428-0.0124-0.0011-0.02138-0.0019-0.02694h0.17191c0.000855 0.0051 0.0017 0.01411 0.0026 0.02694 0.000855 0.0124 0.0017 0.02609 0.0026 0.04105 0.000855 0.01497 0.0015 0.02994 0.0019 0.0449 0.000855 0.01454 0.0013 0.0263 0.0013 0.03528h0.0026c0.009-0.02523 0.01796-0.04768 0.02694-0.06735 0.009-0.0201 0.01946-0.03699 0.03143-0.05067 0.0124-0.01411 0.02715-0.0248 0.04426-0.03207 0.01711-0.0077 0.03827-0.01154 0.0635-0.01155 0.01069 0.000001 0.02117 0.0011 0.03143 0.0032 0.01069 0.0017 0.01882 0.0038 0.02437 0.0064v0.15074c-0.01155-0.0026-0.02331-0.0047-0.03528-0.0064-0.01155-0.0021-0.02544-0.0032-0.04169-0.0032-0.0449 0.000001-0.07997 0.01817-0.1052 0.05452-0.0248 0.03635-0.0372 0.09023-0.0372 0.16164v0.34061h-0.18025"/>
 </g>
 <g fill="#fff">
  <rect rx=".5" ry=".5" height="3" width="3" y="40" x="12"/>
  <rect rx=".5" ry=".5" height="3" width="3" y="36" x="8"/>
  <rect rx=".5" ry=".5" height="3" width="3" y="36" x="12"/>
 </g>
</svg>
