<?xml version="1.0" encoding="UTF-8" standalone="no"?>
<svg
   xmlns:dc="http://purl.org/dc/elements/1.1/"
   xmlns:cc="http://creativecommons.org/ns#"
   xmlns:rdf="http://www.w3.org/1999/02/22-rdf-syntax-ns#"
   xmlns:svg="http://www.w3.org/2000/svg"
   xmlns="http://www.w3.org/2000/svg"
   xmlns:xlink="http://www.w3.org/1999/xlink"
   id="svg9481"
   height="64"
   width="64"
   version="1.0">
  <metadata
     id="metadata55">
    <rdf:RDF>
      <cc:Work
         rdf:about="">
        <dc:format>image/svg+xml</dc:format>
        <dc:type
           rdf:resource="http://purl.org/dc/dcmitype/StillImage" />
        <dc:title></dc:title>
      </cc:Work>
    </rdf:RDF>
  </metadata>
  <defs
     id="defs9483">
    <linearGradient
       id="linearGradient5048-7">
      <stop
         offset="0"
         style="stop-color:#000000;stop-opacity:0"
         id="stop5050-5" />
      <stop
         offset="0.5"
         style="stop-color:#000000;stop-opacity:1"
         id="stop5056-9" />
      <stop
         offset="1"
         style="stop-color:#000000;stop-opacity:0"
         id="stop5052-6" />
    </linearGradient>
    <linearGradient
       id="linearGradient5060-6">
      <stop
         offset="0"
         style="stop-color:#000000;stop-opacity:1"
         id="stop5062-3" />
      <stop
         offset="1"
         style="stop-color:#000000;stop-opacity:0"
         id="stop5064-1" />
    </linearGradient>
    <linearGradient
       id="linearGradient3332-412-419-652-471-761-410-156-661-505">
      <stop
         offset="0"
         style="stop-color:#434343;stop-opacity:1;"
         id="stop8032" />
      <stop
         offset="1"
         style="stop-color:#8a8a8a;stop-opacity:1;"
         id="stop8034" />
    </linearGradient>
    <linearGradient
       id="linearGradient2867-449-88-871-390-598-476-591-434-148-895-534-212-357-729">
      <stop
         offset="0"
         style="stop-color:#aacb7d;stop-opacity:1;"
         id="stop8022" />
      <stop
         offset="1"
         style="stop-color:#709937;stop-opacity:1;"
         id="stop8028" />
    </linearGradient>
    <linearGradient
       id="linearGradient8265-821-176-38-919-66-249">
      <stop
         offset="0"
         style="stop-color:#ffffff;stop-opacity:1"
         id="stop2687" />
      <stop
         offset="1"
         style="stop-color:#ffffff;stop-opacity:0"
         id="stop2689" />
    </linearGradient>
    <linearGradient
       id="linearGradient3282">
      <stop
         offset="0"
         style="stop-color:#000000;stop-opacity:1"
         id="stop3284" />
      <stop
         offset="1"
         style="stop-color:#000000;stop-opacity:0"
         id="stop3286" />
    </linearGradient>
    <linearGradient
       id="linearGradient3958">
      <stop
         offset="0"
         style="stop-color:#a1a1a1;stop-opacity:1"
         id="stop3960" />
      <stop
         offset="1"
         style="stop-color:#4d4d4d;stop-opacity:1"
         id="stop3962" />
    </linearGradient>
    <linearGradient
       id="linearGradient2446-733-45">
      <stop
         offset="0"
         style="stop-color:#fafafa;stop-opacity:1"
         id="stop3793" />
      <stop
         offset="1"
         style="stop-color:#c5c5c5;stop-opacity:1"
         id="stop3795" />
    </linearGradient>
    <linearGradient
       id="linearGradient2238">
      <stop
         offset="0"
         style="stop-color:#ffffff;stop-opacity:1"
         id="stop2240" />
      <stop
         offset="1"
         style="stop-color:#ffffff;stop-opacity:0"
         id="stop2242" />
    </linearGradient>
    <linearGradient
       y2="43.810863"
       x2="12.578789"
       y1="2.9137428"
       x1="12.578789"
       gradientTransform="matrix(0.9546411,0,0,0.8965269,1.087456,5.385244)"
       gradientUnits="userSpaceOnUse"
       id="linearGradient2434"
       xlink:href="#linearGradient2238" />
    <linearGradient
       y2="24.627615"
       x2="20.054544"
       y1="15.298182"
       x1="16.626165"
       gradientTransform="matrix(0.9578231,0,0,1.0182827,1.0122454,1.922127)"
       gradientUnits="userSpaceOnUse"
       id="linearGradient2445"
       xlink:href="#linearGradient8265-821-176-38-919-66-249" />
    <radialGradient
       gradientTransform="matrix(-3.438708e-8,-2.0049302,2.6407404,0,115.43332,63.719262)"
       gradientUnits="userSpaceOnUse"
       xlink:href="#linearGradient4209"
       id="radialGradient3322-5"
       fy="-2.0644982"
       fx="26.616697"
       r="23"
       cy="-2.0644982"
       cx="26.616697" />
    <linearGradient
       id="linearGradient4209">
      <stop
         id="stop4211"
         style="stop-color:#40ecf2;stop-opacity:1"
         offset="0" />
      <stop
         id="stop4213"
         style="stop-color:#0074b6;stop-opacity:1"
         offset="1" />
    </linearGradient>
    <linearGradient
       gradientTransform="matrix(1.5405636,0,0,1.2369262,40.625916,-16.804101)"
       gradientUnits="userSpaceOnUse"
       xlink:href="#linearGradient3958-6"
       id="linearGradient3311-7"
       y2="16.323294"
       x2="33.579403"
       y1="5.7086449"
       x1="33.579403" />
    <linearGradient
       id="linearGradient3958-6">
      <stop
         offset="0"
         style="stop-color:#262626;stop-opacity:1"
         id="stop3960-7" />
      <stop
         offset="1"
         style="stop-color:#303030;stop-opacity:1"
         id="stop3962-5" />
    </linearGradient>
    <linearGradient
       gradientTransform="matrix(1.8906253,0,0,1.8752009,44.897729,-22.868451)"
       gradientUnits="userSpaceOnUse"
       xlink:href="#linearGradient3958-6"
       id="linearGradient3313-0"
       y2="14"
       x2="16.91585"
       y1="7.0006418"
       x1="16.91585" />
    <linearGradient
       x1="32.251034"
       y1="6.1317081"
       x2="32.251034"
       y2="90.238609"
       id="linearGradient3026"
       xlink:href="#ButtonShadow-0"
       gradientUnits="userSpaceOnUse"
       gradientTransform="matrix(1.0238095,0,0,1.0119048,-1.1428571,-98.071429)" />
    <linearGradient
       x1="45.447727"
       y1="92.539597"
       x2="45.447727"
       y2="7.0165396"
       id="ButtonShadow-0"
       gradientUnits="userSpaceOnUse"
       gradientTransform="matrix(1.0058652,0,0,0.994169,100,0)">
      <stop
         id="stop3750-8"
         style="stop-color:#000000;stop-opacity:1"
         offset="0" />
      <stop
         id="stop3752-5"
         style="stop-color:#000000;stop-opacity:0.58823532"
         offset="1" />
    </linearGradient>
    <linearGradient
       x1="32.251034"
       y1="6.1317081"
       x2="32.251034"
       y2="90.238609"
       id="linearGradient3721"
       xlink:href="#ButtonShadow-0"
       gradientUnits="userSpaceOnUse"
       gradientTransform="translate(0,-97)" />
    <linearGradient
       x1="48"
       y1="90"
       x2="48"
       y2="5.9877172"
       id="linearGradient3617"
       xlink:href="#linearGradient3700"
       gradientUnits="userSpaceOnUse" />
    <linearGradient
       id="linearGradient3700">
      <stop
         id="stop3702"
         style="stop-color:#167c33;stop-opacity:1"
         offset="0" />
      <stop
         id="stop3704"
         style="stop-color:#2da14e;stop-opacity:1"
         offset="1" />
    </linearGradient>
    <linearGradient
       x1="36.357143"
       y1="6"
       x2="36.357143"
       y2="63.893143"
       id="linearGradient3188"
       xlink:href="#linearGradient8265-821-176-38-919-66-249"
       gradientUnits="userSpaceOnUse" />
    <radialGradient
       cx="48"
       cy="90.171875"
       r="42"
       fx="48"
       fy="90.171875"
       id="radialGradient3619"
       xlink:href="#linearGradient8265-821-176-38-919-66-249"
       gradientUnits="userSpaceOnUse"
       gradientTransform="matrix(1.1573129,0,0,0.99590774,-7.5510206,0.19713193)" />
    <linearGradient
       x1="48"
       y1="20.220806"
       x2="48"
       y2="138.66119"
       id="linearGradient3613"
       xlink:href="#linearGradient8265-821-176-38-919-66-249"
       gradientUnits="userSpaceOnUse" />
    <clipPath
       id="clipPath3613">
      <rect
         width="84"
         height="84"
         rx="6"
         ry="6"
         x="6"
         y="6"
         id="rect3615"
         style="fill:#ffffff;fill-opacity:1;fill-rule:nonzero;stroke:none" />
    </clipPath>
    <filter
       x="-0.192"
       y="-0.192"
       width="1.3839999"
       height="1.3839999"
       id="filter3794"
       style="color-interpolation-filters:sRGB">
      <feGaussianBlur
         id="feGaussianBlur3796"
         stdDeviation="5.28" />
    </filter>
    <linearGradient
       y2="90.238609"
       x2="32.251034"
       y1="6.1317081"
       x1="32.251034"
       gradientTransform="matrix(1.0238095,0,0,1.0119048,-1.1428571,-98.071429)"
       gradientUnits="userSpaceOnUse"
       id="linearGradient959"
       xlink:href="#ButtonShadow-0" />
    <linearGradient
       y2="90.238609"
       x2="32.251034"
       y1="6.1317081"
       x1="32.251034"
       gradientTransform="matrix(1.0238095,0,0,1.0119048,-1.1428571,-98.071429)"
       gradientUnits="userSpaceOnUse"
       id="linearGradient961"
       xlink:href="#ButtonShadow-0" />
    <linearGradient
       y2="90.238609"
       x2="32.251034"
       y1="6.1317081"
       x1="32.251034"
       gradientTransform="matrix(1.0238095,0,0,1.0119048,-1.1428571,-98.071429)"
       gradientUnits="userSpaceOnUse"
       id="linearGradient963"
       xlink:href="#ButtonShadow-0" />
    <radialGradient
       xlink:href="#linearGradient7251"
       id="radialGradient8144"
       gradientUnits="userSpaceOnUse"
       gradientTransform="matrix(1,0,0,1.00921,0,-2.6183)"
       cx="-349.68817"
       cy="284.43408"
       fx="-349.68817"
       fy="284.43408"
       r="174.46933" />
    <linearGradient
       id="linearGradient7251">
      <stop
         style="stop-color:#ffffff;stop-opacity:1;"
         offset="0"
         id="stop7253" />
      <stop
         id="stop7259"
         offset="0.5"
         style="stop-color:#ffffff;stop-opacity:1;" />
      <stop
         style="stop-color:#ffffff;stop-opacity:0.68115944;"
         offset="1"
         id="stop7255" />
    </linearGradient>
    <radialGradient
       xlink:href="#linearGradient7251"
       id="radialGradient8134"
       gradientUnits="userSpaceOnUse"
       gradientTransform="matrix(1,0,0,1.00921,0,-2.6183)"
       cx="-349.68817"
       cy="284.43408"
       fx="-349.68817"
       fy="284.43408"
       r="174.46933" />
    <radialGradient
       xlink:href="#linearGradient7251"
       id="radialGradient8136"
       gradientUnits="userSpaceOnUse"
       gradientTransform="matrix(1,0,0,1.00921,0,-2.6183)"
       cx="-349.68817"
       cy="284.43408"
       fx="-349.68817"
       fy="284.43408"
       r="174.46933" />
    <radialGradient
       xlink:href="#linearGradient7251"
       id="radialGradient8138"
       gradientUnits="userSpaceOnUse"
       gradientTransform="matrix(1,0,0,1.00921,0,-2.6183)"
       cx="-349.68817"
       cy="284.43408"
       fx="-349.68817"
       fy="284.43408"
       r="174.46933" />
    <radialGradient
       xlink:href="#linearGradient7251"
       id="radialGradient8140"
       gradientUnits="userSpaceOnUse"
       gradientTransform="matrix(1,0,0,1.00921,0,-2.6183)"
       cx="-349.68817"
       cy="284.43408"
       fx="-349.68817"
       fy="284.43408"
       r="174.46933" />
    <radialGradient
       r="174.46933"
       fy="284.43408"
       fx="-349.68817"
       cy="284.43408"
       cx="-349.68817"
       gradientTransform="matrix(1,0,0,1.00921,0,-2.6183)"
       gradientUnits="userSpaceOnUse"
       id="radialGradient3263"
       xlink:href="#linearGradient7251" />
    <clipPath
       id="clipPath3613-3">
      <rect
         width="84"
         height="84"
         rx="6"
         ry="6"
         x="6"
         y="6"
         id="rect3615-6"
         style="fill:#ffffff;fill-opacity:1;fill-rule:nonzero;stroke:none" />
    </clipPath>
    <filter
       style="color-interpolation-filters:sRGB"
       x="-0.192"
       y="-0.192"
       width="1.3839999"
       height="1.3839999"
       id="filter3794-7">
      <feGaussianBlur
         id="feGaussianBlur3796-5"
         stdDeviation="5.28" />
    </filter>
    <linearGradient
       x1="48"
       y1="90"
       x2="48"
       y2="5.9877172"
       id="linearGradient3617-3"
       xlink:href="#linearGradient4535"
       gradientUnits="userSpaceOnUse"
       gradientTransform="translate(0,-96)" />
    <linearGradient
       id="linearGradient4535">
      <stop
         id="stop4537"
         style="stop-color:#617ec4;stop-opacity:1"
         offset="0" />
      <stop
         id="stop4539"
         style="stop-color:#244c8d;stop-opacity:1"
         offset="1" />
    </linearGradient>
    <radialGradient
       cx="48"
       cy="90.171875"
       r="42"
       fx="48"
       fy="90.171875"
       id="radialGradient3619-5"
       xlink:href="#linearGradient8265-821-176-38-919-66-249"
       gradientUnits="userSpaceOnUse"
       gradientTransform="matrix(1.1573129,0,0,0.99590774,-7.5510206,0.19713193)" />
    <linearGradient
       xlink:href="#ButtonShadow-0"
       id="linearGradient4686"
       gradientUnits="userSpaceOnUse"
       gradientTransform="matrix(1.0238095,0,0,1.0119048,-1.1428571,-98.071429)"
       x1="32.251034"
       y1="6.1317081"
       x2="32.251034"
       y2="90.238609" />
    <linearGradient
       xlink:href="#ButtonShadow-0"
       id="linearGradient4688"
       gradientUnits="userSpaceOnUse"
       gradientTransform="matrix(1.0238095,0,0,1.0119048,-1.1428571,-98.071429)"
       x1="32.251034"
       y1="6.1317081"
       x2="32.251034"
       y2="90.238609" />
    <linearGradient
       xlink:href="#ButtonShadow-0"
       id="linearGradient4690"
       gradientUnits="userSpaceOnUse"
       gradientTransform="matrix(1.0238095,0,0,1.0119048,-1.1428571,-98.071429)"
       x1="32.251034"
       y1="6.1317081"
       x2="32.251034"
       y2="90.238609" />
  </defs>
  <g
     id="g4710"
     transform="matrix(0.65173116,0,0,0.65888812,-20.491974,-21.140502)">
    <g
       id="layer3"
       transform="translate(32.542373,32.669492)">
      <path
         style="display:inline;opacity:0.07999998;fill:url(#linearGradient4686);fill-opacity:1;fill-rule:nonzero;stroke:none"
         id="path3786"
         transform="scale(1,-1)"
         d="m 12,-95.03125 c -5.5110903,0 -10.03125,4.52016 -10.03125,10.03125 v 71 c 0,5.5110902 4.5201598,10.03125 10.03125,10.03125 h 72 c 5.51109,0 10.03125,-4.5201597 10.03125,-10.03125 v -71 c 0,-5.51109 -4.52016,-10.03125 -10.03125,-10.03125 z" />
      <path
         style="display:inline;opacity:0.1;fill:url(#linearGradient4688);fill-opacity:1;fill-rule:nonzero;stroke:none"
         id="path3778"
         transform="scale(1,-1)"
         d="m 12,-94.03125 c -4.971633,0 -9.03125,4.059617 -9.03125,9.03125 v 71 c 0,4.9716329 4.0596171,9.03125 9.03125,9.03125 h 72 c 4.971633,0 9.03125,-4.059617 9.03125,-9.03125 v -71 c 0,-4.971633 -4.059617,-9.03125 -9.03125,-9.03125 z" />
      <path
         style="display:inline;opacity:0.2;fill:url(#linearGradient4690);fill-opacity:1;fill-rule:nonzero;stroke:none"
         id="path3770"
         transform="scale(1,-1)"
         d="m 12,-93 c -4.4091333,0 -8,3.590867 -8,8 v 71 c 0,4.4091333 3.5908667,8 8,8 h 72 c 4.409133,0 8,-3.5908667 8,-8 v -71 c 0,-4.409133 -3.590867,-8 -8,-8 z" />
      <rect
         style="display:inline;opacity:0.3;fill:url(#linearGradient3026);fill-opacity:1;fill-rule:nonzero;stroke:none"
         id="rect3723"
         transform="scale(1,-1)"
         y="-92"
         x="5"
         ry="7"
         rx="7"
         height="85"
         width="86" />
      <rect
         style="display:inline;opacity:0.45;fill:url(#linearGradient3721);fill-opacity:1;fill-rule:nonzero;stroke:none"
         id="rect3716"
         transform="scale(1,-1)"
         y="-91"
         x="6"
         ry="6"
         rx="6"
         height="84"
         width="84" />
    </g>
    <g
       id="layer1"
       transform="translate(32.542373,32.669492)">
      <rect
         style="fill:url(#linearGradient3617-3);fill-opacity:1;fill-rule:nonzero;stroke:none"
         id="rect2419"
         transform="scale(1,-1)"
         y="-90"
         x="6"
         ry="6"
         rx="6"
         height="84"
         width="84" />
      <path
         style="opacity:0.4;fill:url(#linearGradient3188);fill-opacity:1;fill-rule:nonzero;stroke:none"
         id="rect3728"
         d="M 12,6 C 8.676,6 6,8.676 6,12 v 2 68 2 c 0,0.334721 0.04135,0.6507 0.09375,0.96875 0.0487,0.295596 0.09704,0.596915 0.1875,0.875 0.00988,0.03038 0.020892,0.0636 0.03125,0.09375 0.098865,0.287771 0.2348802,0.547452 0.375,0.8125 0.1445918,0.273507 0.3156161,0.535615 0.5,0.78125 0.1843839,0.245635 0.3737765,0.473472 0.59375,0.6875 0.439947,0.428056 0.94291,0.814526 1.5,1.09375 0.278545,0.139612 0.5734731,0.246947 0.875,0.34375 -0.2562018,-0.100222 -0.4867109,-0.236272 -0.71875,-0.375 -0.00741,-0.0044 -0.023866,0.0045 -0.03125,0 -0.031933,-0.0193 -0.062293,-0.04251 -0.09375,-0.0625 -0.120395,-0.0767 -0.2310226,-0.163513 -0.34375,-0.25 -0.1061728,-0.0808 -0.2132809,-0.161112 -0.3125,-0.25 C 8.4783201,88.557317 8.3087904,88.373362 8.15625,88.1875 8.0486711,88.057245 7.9378561,87.922215 7.84375,87.78125 7.818661,87.74287 7.805304,87.69538 7.78125,87.65625 7.716487,87.553218 7.6510225,87.451733 7.59375,87.34375 7.4927417,87.149044 7.3880752,86.928049 7.3125,86.71875 7.30454,86.69694 7.288911,86.6782 7.28125,86.65625 7.2494249,86.5643 7.2454455,86.469419 7.21875,86.375 7.1884177,86.268382 7.1483606,86.171969 7.125,86.0625 7.0521214,85.720988 7,85.364295 7,85 V 83 15 13 C 7,10.218152 9.2181517,8 12,8 h 2 68 2 c 2.781848,0 5,2.218152 5,5 v 2 68 2 c 0,0.364295 -0.05212,0.720988 -0.125,1.0625 -0.04415,0.206893 -0.08838,0.397658 -0.15625,0.59375 -0.0077,0.02195 -0.0233,0.04069 -0.03125,0.0625 -0.06274,0.173739 -0.138383,0.367449 -0.21875,0.53125 -0.04158,0.0828 -0.07904,0.169954 -0.125,0.25 -0.0546,0.09721 -0.126774,0.18835 -0.1875,0.28125 -0.09411,0.140965 -0.204921,0.275995 -0.3125,0.40625 -0.143174,0.17445 -0.303141,0.346998 -0.46875,0.5 -0.01117,0.0102 -0.01998,0.02115 -0.03125,0.03125 -0.138386,0.125556 -0.285091,0.234436 -0.4375,0.34375 -0.102571,0.07315 -0.204318,0.153364 -0.3125,0.21875 -0.0074,0.0045 -0.02384,-0.0044 -0.03125,0 -0.232039,0.138728 -0.462548,0.274778 -0.71875,0.375 0.301527,-0.0968 0.596455,-0.204138 0.875,-0.34375 0.55709,-0.279224 1.060053,-0.665694 1.5,-1.09375 0.219973,-0.214028 0.409366,-0.441865 0.59375,-0.6875 0.184384,-0.245635 0.355408,-0.507743 0.5,-0.78125 0.14012,-0.265048 0.276135,-0.524729 0.375,-0.8125 0.01041,-0.03078 0.02133,-0.06274 0.03125,-0.09375 0.09046,-0.278085 0.1388,-0.579404 0.1875,-0.875 C 89.95865,84.6507 90,84.334721 90,84 V 82 14 12 C 90,8.676 87.324,6 84,6 Z" />
      <path
         style="opacity:0.2;fill:url(#radialGradient3619-5);fill-opacity:1;fill-rule:nonzero;stroke:none"
         id="path3615"
         d="M 12,90 C 8.676,90 6,87.324 6,84 V 82 14 12 c 0,-0.334721 0.04135,-0.6507 0.09375,-0.96875 0.0487,-0.295596 0.09704,-0.596915 0.1875,-0.875 C 6.29113,10.12587 6.302142,10.09265 6.3125,10.0625 6.411365,9.774729 6.5473802,9.515048 6.6875,9.25 6.8320918,8.976493 7.0031161,8.714385 7.1875,8.46875 7.3718839,8.223115 7.5612765,7.995278 7.78125,7.78125 8.221197,7.353194 8.72416,6.966724 9.28125,6.6875 9.559795,6.547888 9.8547231,6.440553 10.15625,6.34375 9.9000482,6.443972 9.6695391,6.580022 9.4375,6.71875 c -0.00741,0.0044 -0.023866,-0.0045 -0.03125,0 -0.031933,0.0193 -0.062293,0.04251 -0.09375,0.0625 -0.120395,0.0767 -0.2310226,0.163513 -0.34375,0.25 -0.1061728,0.0808 -0.2132809,0.161112 -0.3125,0.25 C 8.4783201,7.442683 8.3087904,7.626638 8.15625,7.8125 8.0486711,7.942755 7.9378561,8.077785 7.84375,8.21875 7.818661,8.25713 7.805304,8.30462 7.78125,8.34375 7.716487,8.446782 7.6510225,8.548267 7.59375,8.65625 7.4927417,8.850956 7.3880752,9.071951 7.3125,9.28125 7.30454,9.30306 7.288911,9.3218 7.28125,9.34375 7.2494249,9.4357 7.2454455,9.530581 7.21875,9.625 7.1884177,9.731618 7.1483606,9.828031 7.125,9.9375 7.0521214,10.279012 7,10.635705 7,11 v 2 68 2 c 0,2.781848 2.2181517,5 5,5 h 2 68 2 c 2.781848,0 5,-2.218152 5,-5 V 81 13 11 C 89,10.635705 88.94788,10.279012 88.875,9.9375 88.83085,9.730607 88.78662,9.539842 88.71875,9.34375 88.71105,9.3218 88.69545,9.30306 88.6875,9.28125 88.62476,9.107511 88.549117,8.913801 88.46875,8.75 88.42717,8.6672 88.38971,8.580046 88.34375,8.5 88.28915,8.40279 88.216976,8.31165 88.15625,8.21875 88.06214,8.077785 87.951329,7.942755 87.84375,7.8125 87.700576,7.63805 87.540609,7.465502 87.375,7.3125 87.36383,7.3023 87.35502,7.29135 87.34375,7.28125 87.205364,7.155694 87.058659,7.046814 86.90625,6.9375 86.803679,6.86435 86.701932,6.784136 86.59375,6.71875 c -0.0074,-0.0045 -0.02384,0.0044 -0.03125,0 -0.232039,-0.138728 -0.462548,-0.274778 -0.71875,-0.375 0.301527,0.0968 0.596455,0.204138 0.875,0.34375 0.55709,0.279224 1.060053,0.665694 1.5,1.09375 0.219973,0.214028 0.409366,0.441865 0.59375,0.6875 0.184384,0.245635 0.355408,0.507743 0.5,0.78125 0.14012,0.265048 0.276135,0.524729 0.375,0.8125 0.01041,0.03078 0.02133,0.06274 0.03125,0.09375 0.09046,0.278085 0.1388,0.579404 0.1875,0.875 C 89.95865,11.3493 90,11.665279 90,12 v 2 68 2 c 0,3.324 -2.676,6 -6,6 z" />
    </g>
    <g
       id="layer5"
       transform="translate(32.542373,32.669492)">
      <rect
         style="opacity:0.1;fill:url(#linearGradient3613);fill-opacity:1;fill-rule:nonzero;stroke:#ffffff;stroke-width:0.5;stroke-linecap:round;stroke-linejoin:miter;stroke-miterlimit:4;stroke-dasharray:none;stroke-dashoffset:0;stroke-opacity:1;filter:url(#filter3794-7)"
         id="rect3171"
         clip-path="url(#clipPath3613-3)"
         y="15"
         x="15"
         ry="12"
         rx="12"
         height="66"
         width="66" />
    </g>
    <g
       id="g7239"
       transform="matrix(-0.21993215,-0.04973216,-0.05121438,0.21356697,18.808259,0.91015353)"
       style="fill:url(#radialGradient8144);fill-opacity:1">
      <path
         id="path7241"
         d="m -506.25366,308.19843 c -39.482,-45.46999 -3.8907,-35.25183 13.7488,-89.11367 16.84641,-51.44043 116.31385,190.3941 163.79538,86.60268 -25.60133,91.54221 -137.68701,48.41296 -177.54418,2.51099 z"
         style="fill:url(#radialGradient8134);fill-opacity:1;fill-rule:evenodd;stroke:none" />
      <path
         style="fill:url(#radialGradient8136);fill-opacity:1;fill-rule:evenodd;stroke:none"
         d="m -371.78643,452.23948 c -55.44514,23.49861 -34.72877,-7.19314 -80.50352,-40.61353 -43.71695,-31.91789 217.01851,-51.78607 132.97961,-129.017 79.15057,52.63641 3.49583,145.90856 -52.47609,169.63053 z"
         id="path7243" />
      <path
         id="path7245"
         d="m -193.23008,368.86226 c 5.21501,59.99293 -17.57287,30.80622 -63.50272,64.01313 -43.86499,31.71409 17.81093,-222.39965 -81.6095,-166.33957 74.51907,-59.01112 139.84756,41.76349 145.11222,102.32644 z"
         style="fill:url(#radialGradient8138);fill-opacity:1;fill-rule:evenodd;stroke:none" />
      <path
         style="fill:url(#radialGradient8140);fill-opacity:1;fill-rule:evenodd;stroke:none"
         d="m -217.36156,173.28976 c 58.66819,13.57906 23.86814,26.23244 41.25667,80.17582 16.60688,51.51828 -206.01075,-85.66447 -183.41704,26.21348 -33.09526,-89.10727 82.9347,-120.0973 142.16037,-106.3893 z"
         id="path7247" />
      <path
         id="path7249"
         d="m -410.80165,135.79109 c 31.04392,-51.600607 32.32419,-14.59368 89.00075,-14.46175 54.1286,0.12596 -145.13258,169.45609 -31.74848,182.5404 -94.97305,3.93979 -88.59108,-115.9877 -57.25227,-168.07865 z"
         style="fill:url(#radialGradient3263);fill-opacity:1;fill-rule:evenodd;stroke:none" />
    </g>
  </g>
</svg>
