<?xml version="1.0" encoding="UTF-8" standalone="no"?>
<svg
   xmlns:dc="http://purl.org/dc/elements/1.1/"
   xmlns:cc="http://creativecommons.org/ns#"
   xmlns:rdf="http://www.w3.org/1999/02/22-rdf-syntax-ns#"
   xmlns:svg="http://www.w3.org/2000/svg"
   xmlns="http://www.w3.org/2000/svg"
   xmlns:xlink="http://www.w3.org/1999/xlink"
   id="svg2408"
   height="96"
   width="96"
   version="1.0">
  <defs
     id="defs2410">
    <linearGradient
       id="linearGradient993">
      <stop
         id="stop989"
         offset="0"
         style="stop-color:#ff432d;stop-opacity:1" />
      <stop
         id="stop991"
         offset="1"
         style="stop-color:#ea0000;stop-opacity:0.99277979" />
    </linearGradient>
    <linearGradient
       id="linearGradient929">
      <stop
         style="stop-color:#fefefe;stop-opacity:1"
         offset="0"
         id="stop925" />
      <stop
         style="stop-color:#c8c8c8;stop-opacity:1"
         offset="1"
         id="stop927" />
    </linearGradient>
    <linearGradient
       id="linearGradient916">
      <stop
         style="stop-color:#fefefe;stop-opacity:1;"
         offset="0"
         id="stop912" />
      <stop
         id="stop920"
         offset="0.57634538"
         style="stop-color:#f5f5f5;stop-opacity:1" />
      <stop
         style="stop-color:#c8c8c8;stop-opacity:1"
         offset="1"
         id="stop914" />
    </linearGradient>
    <linearGradient
       id="linearGradient3888">
      <stop
         offset="0"
         style="stop-color:#717249;stop-opacity:1"
         id="stop3890" />
      <stop
         offset="1"
         style="stop-color:#717249;stop-opacity:0"
         id="stop3892" />
    </linearGradient>
    <linearGradient
       id="linearGradient3465">
      <stop
         offset="0"
         style="stop-color:#ccc7c1;stop-opacity:1"
         id="stop3467" />
      <stop
         offset="1"
         style="stop-color:#fefefd;stop-opacity:0.58015269"
         id="stop3469" />
    </linearGradient>
    <linearGradient
       id="linearGradient3720">
      <stop
         offset="0"
         style="stop-color:#928075;stop-opacity:1"
         id="stop3722" />
      <stop
         offset="1"
         style="stop-color:#5b4f48;stop-opacity:1"
         id="stop3724" />
    </linearGradient>
    <linearGradient
       id="linearGradient3762">
      <stop
         offset="0"
         style="stop-color:#c06517;stop-opacity:1"
         id="stop3764" />
      <stop
         offset="1"
         style="stop-color:#e88b3b;stop-opacity:1"
         id="stop3766" />
    </linearGradient>
    <linearGradient
       id="linearGradient3770">
      <stop
         offset="0"
         style="stop-color:#802b27;stop-opacity:1"
         id="stop3772" />
      <stop
         offset="1"
         style="stop-color:#a93833;stop-opacity:1"
         id="stop3774" />
    </linearGradient>
    <linearGradient
       id="linearGradient3778">
      <stop
         offset="0"
         style="stop-color:#323232;stop-opacity:1"
         id="stop3780" />
      <stop
         offset="1"
         style="stop-color:#505050;stop-opacity:1"
         id="stop3782" />
    </linearGradient>
    <linearGradient
       id="linearGradient3187">
      <stop
         offset="0"
         style="stop-color:#bac9d4;stop-opacity:1"
         id="stop3189" />
      <stop
         offset="1"
         style="stop-color:#ddecf2;stop-opacity:1"
         id="stop3191" />
    </linearGradient>
    <linearGradient
       gradientTransform="scale(1.0058652,0.994169)"
       gradientUnits="userSpaceOnUse"
       id="ButtonShadow"
       y2="7.0165396"
       x2="45.447727"
       y1="92.539597"
       x1="45.447727">
      <stop
         offset="0"
         style="stop-color:#000000;stop-opacity:1"
         id="stop3750" />
      <stop
         offset="1"
         style="stop-color:#000000;stop-opacity:0.58823532"
         id="stop3752" />
    </linearGradient>
    <linearGradient
       id="linearGradient3737">
      <stop
         offset="0"
         style="stop-color:#fefefe;stop-opacity:1"
         id="stop3739" />
      <stop
         offset="1"
         style="stop-color:#fefefe;stop-opacity:0"
         id="stop3741" />
    </linearGradient>
    <linearGradient
       gradientUnits="userSpaceOnUse"
       xlink:href="#linearGradient3187"
       id="linearGradient3706"
       y2="5.9877172"
       x2="48"
       y1="90"
       x1="48" />
    <filter
       id="filter3174"
       color-interpolation-filters="sRGB">
      <feGaussianBlur
         stdDeviation="1.71"
         id="feGaussianBlur3176" />
    </filter>
    <linearGradient
       gradientUnits="userSpaceOnUse"
       xlink:href="#linearGradient3737"
       id="linearGradient3188"
       y2="63.893143"
       x2="36.357143"
       y1="6"
       x1="36.357143" />
    <linearGradient
       gradientTransform="matrix(0.7499999,0,0,0.7500001,-2.9999963,-36.750022)"
       gradientUnits="userSpaceOnUse"
       xlink:href="#linearGradient3778"
       id="linearGradient3735"
       y2="112.00001"
       x2="30.246527"
       y1="102"
       x1="30.246527" />
    <linearGradient
       gradientTransform="matrix(0.7499999,0,0,0.7500001,15.000004,-36.750022)"
       gradientUnits="userSpaceOnUse"
       xlink:href="#linearGradient3778"
       id="linearGradient3738"
       y2="112.00001"
       x2="30.246527"
       y1="102"
       x1="30.246527" />
    <linearGradient
       gradientTransform="matrix(0.7499999,0,0,0.7500001,33.000006,-36.750022)"
       gradientUnits="userSpaceOnUse"
       xlink:href="#linearGradient3778"
       id="linearGradient3740"
       y2="112.00001"
       x2="30.246527"
       y1="102"
       x1="30.246527" />
    <linearGradient
       gradientTransform="matrix(0.7499999,0,0,0.7500001,3.0000056,-0.7500124)"
       gradientUnits="userSpaceOnUse"
       xlink:href="#linearGradient3770"
       id="linearGradient3742"
       y2="64.000008"
       x2="93.746803"
       y1="54"
       x1="93.746803" />
    <linearGradient
       gradientTransform="matrix(0.7499999,0,0,0.7500001,-2.9999963,-24.750019)"
       gradientUnits="userSpaceOnUse"
       xlink:href="#linearGradient3778"
       id="linearGradient3754"
       y2="112.00001"
       x2="30.246527"
       y1="102"
       x1="30.246527" />
    <linearGradient
       gradientTransform="matrix(0.7499999,0,0,0.7500001,15.000004,-24.750019)"
       gradientUnits="userSpaceOnUse"
       xlink:href="#linearGradient3778"
       id="linearGradient3756"
       y2="112.00001"
       x2="30.246527"
       y1="102"
       x1="30.246527" />
    <linearGradient
       gradientTransform="matrix(0.7499999,0,0,0.7500001,33.000006,-24.750019)"
       gradientUnits="userSpaceOnUse"
       xlink:href="#linearGradient3778"
       id="linearGradient3758"
       y2="112.00001"
       x2="30.246527"
       y1="102"
       x1="30.246527" />
    <linearGradient
       gradientTransform="matrix(0.7499999,0,0,0.7500001,3.0000056,-0.7500124)"
       gradientUnits="userSpaceOnUse"
       xlink:href="#linearGradient3720"
       id="linearGradient3761"
       y2="70"
       x2="96"
       y1="80"
       x1="96" />
    <linearGradient
       gradientTransform="matrix(0.7499999,0,0,0.7500001,-2.9999963,-12.750023)"
       gradientUnits="userSpaceOnUse"
       xlink:href="#linearGradient3778"
       id="linearGradient3773"
       y2="112.00001"
       x2="30.246527"
       y1="102"
       x1="30.246527" />
    <linearGradient
       gradientTransform="matrix(0.7499999,0,0,0.7500001,15.000004,-12.750023)"
       gradientUnits="userSpaceOnUse"
       xlink:href="#linearGradient3778"
       id="linearGradient3775"
       y2="112.00001"
       x2="30.246527"
       y1="102"
       x1="30.246527" />
    <linearGradient
       gradientTransform="matrix(0.7499999,0,0,0.7500001,33.000006,-12.750023)"
       gradientUnits="userSpaceOnUse"
       xlink:href="#linearGradient3778"
       id="linearGradient3777"
       y2="112.00001"
       x2="30.246527"
       y1="102"
       x1="30.246527" />
    <linearGradient
       gradientTransform="matrix(0.7499999,0,0,0.7500001,3.0000056,-0.75002)"
       gradientUnits="userSpaceOnUse"
       xlink:href="#linearGradient3720"
       id="linearGradient3779"
       y2="85.996765"
       x2="95.745689"
       y1="96"
       x1="95.745689" />
    <linearGradient
       gradientTransform="matrix(0.7499999,0,0,0.7500001,-2.9999963,-0.7500239)"
       gradientUnits="userSpaceOnUse"
       xlink:href="#linearGradient3778"
       id="linearGradient3791"
       y2="112.00001"
       x2="30.246527"
       y1="102"
       x1="30.246527" />
    <linearGradient
       gradientTransform="matrix(0.7499999,0,0,0.7500001,-0.9999944,-159.75)"
       gradientUnits="userSpaceOnUse"
       xlink:href="#linearGradient3720"
       id="linearGradient3793"
       y2="112"
       x2="53.333332"
       y1="102"
       x1="53.333332" />
    <linearGradient
       gradientTransform="matrix(0.7499999,0,0,0.7500001,1.0000094,-0.7500239)"
       gradientUnits="userSpaceOnUse"
       xlink:href="#linearGradient3720"
       id="linearGradient3795"
       y2="102"
       x2="74.666664"
       y1="112"
       x1="74.666664" />
    <linearGradient
       gradientTransform="matrix(0.7499999,0,0,0.7500001,3.0000056,-0.7500239)"
       gradientUnits="userSpaceOnUse"
       xlink:href="#linearGradient3762"
       id="linearGradient3797"
       y2="112.04894"
       x2="94.746246"
       y1="102"
       x1="94.746246" />
    <linearGradient
       gradientTransform="matrix(1.025,0,0,1.0625,-9.5999986,-3.9999969)"
       gradientUnits="userSpaceOnUse"
       xlink:href="#linearGradient3465"
       id="linearGradient3812"
       y2="35.770973"
       x2="64"
       y1="15.5"
       x1="64" />
    <linearGradient
       id="linearGradient3737-1">
      <stop
         offset="0"
         style="stop-color:#fefefe;stop-opacity:1"
         id="stop3739-7" />
      <stop
         offset="1"
         style="stop-color:#fefefe;stop-opacity:0"
         id="stop3741-2" />
    </linearGradient>
    <radialGradient
       gradientTransform="matrix(1.1573129,0,0,0.99590774,-7.551021,0.197132)"
       gradientUnits="userSpaceOnUse"
       xlink:href="#linearGradient3737-1"
       id="radialGradient2855"
       fy="90.171875"
       fx="48"
       r="42"
       cy="90.171875"
       cx="48" />
    <linearGradient
       gradientTransform="matrix(1.0058652,0,0,0.994169,100,0)"
       gradientUnits="userSpaceOnUse"
       id="ButtonShadow-0"
       y2="7.0165396"
       x2="45.447727"
       y1="92.539597"
       x1="45.447727">
      <stop
         offset="0"
         style="stop-color:#000000;stop-opacity:1"
         id="stop3750-8" />
      <stop
         offset="1"
         style="stop-color:#000000;stop-opacity:0.58823532"
         id="stop3752-5" />
    </linearGradient>
    <linearGradient
       gradientTransform="matrix(1.0238095,0,0,-1.0119048,-1.1428571,98.071429)"
       gradientUnits="userSpaceOnUse"
       xlink:href="#ButtonShadow-0"
       id="linearGradient3780"
       y2="90.238609"
       x2="32.251034"
       y1="6.1317081"
       x1="32.251034" />
    <linearGradient
       gradientTransform="matrix(1.0238095,0,0,-1.0119048,-1.1428571,98.071429)"
       gradientUnits="userSpaceOnUse"
       xlink:href="#ButtonShadow-0"
       id="linearGradient3772"
       y2="90.238609"
       x2="32.251034"
       y1="6.1317081"
       x1="32.251034" />
    <linearGradient
       gradientTransform="matrix(1.0238095,0,0,1.0119048,-1.1428571,-98.071429)"
       gradientUnits="userSpaceOnUse"
       xlink:href="#ButtonShadow-0"
       id="linearGradient3725"
       y2="90.238609"
       x2="32.251034"
       y1="6.1317081"
       x1="32.251034" />
    <linearGradient
       gradientTransform="translate(0,-97)"
       gradientUnits="userSpaceOnUse"
       xlink:href="#ButtonShadow-0"
       id="linearGradient3721"
       y2="90.238609"
       x2="32.251034"
       y1="6.1317081"
       x1="32.251034" />
    <linearGradient
       gradientTransform="matrix(1.0238095,0,0,-1.0119048,-1.1428571,98.071429)"
       gradientUnits="userSpaceOnUse"
       xlink:href="#ButtonShadow-0"
       id="linearGradient2918"
       y2="90.238609"
       x2="32.251034"
       y1="6.1317081"
       x1="32.251034" />
    <linearGradient
       gradientUnits="userSpaceOnUse"
       xlink:href="#linearGradient3888"
       id="linearGradient3894"
       y2="39"
       x2="34"
       y1="14"
       x1="34" />
    <linearGradient
       gradientUnits="userSpaceOnUse"
       xlink:href="#linearGradient3888"
       id="linearGradient3902"
       y2="49"
       x2="37"
       y1="16"
       x1="37" />
    <radialGradient
       xlink:href="#linearGradient916"
       id="radialGradient918"
       cx="25.181768"
       cy="25.483049"
       fx="25.181768"
       fy="25.483049"
       r="6.5932508"
       gradientUnits="userSpaceOnUse" />
    <linearGradient
       xlink:href="#linearGradient929"
       id="linearGradient931"
       x1="50.07032"
       y1="23.667904"
       x2="50.087269"
       y2="27.379768"
       gradientUnits="userSpaceOnUse" />
    <radialGradient
       gradientTransform="translate(44.174164,-2.9988142e-4)"
       xlink:href="#linearGradient916"
       id="radialGradient918-6"
       cx="25.181768"
       cy="25.483049"
       fx="25.181768"
       fy="25.483049"
       r="6.5932508"
       gradientUnits="userSpaceOnUse" />
    <radialGradient
       gradientTransform="translate(44.789358,43.265702)"
       xlink:href="#linearGradient916"
       id="radialGradient918-6-6"
       cx="25.181768"
       cy="25.483049"
       fx="25.181768"
       fy="25.483049"
       r="6.5932508"
       gradientUnits="userSpaceOnUse" />
    <linearGradient
       gradientTransform="translate(0.61519404,43.266002)"
       xlink:href="#linearGradient929"
       id="linearGradient931-2"
       x1="50.07032"
       y1="23.667904"
       x2="50.087269"
       y2="27.379768"
       gradientUnits="userSpaceOnUse" />
    <radialGradient
       gradientTransform="translate(0.61519404,43.266002)"
       xlink:href="#linearGradient916"
       id="radialGradient918-9"
       cx="25.181768"
       cy="25.483049"
       fx="25.181768"
       fy="25.483049"
       r="6.5932508"
       gradientUnits="userSpaceOnUse" />
    <linearGradient
       gradientTransform="rotate(90,25.273179,25.619585)"
       xlink:href="#linearGradient929"
       id="linearGradient931-6"
       x1="50.07032"
       y1="23.667904"
       x2="50.087269"
       y2="27.379768"
       gradientUnits="userSpaceOnUse" />
    <linearGradient
       gradientTransform="rotate(90,47.149362,47.640024)"
       xlink:href="#linearGradient929"
       id="linearGradient931-6-8"
       x1="50.07032"
       y1="23.667904"
       x2="50.087269"
       y2="27.379768"
       gradientUnits="userSpaceOnUse" />
    <radialGradient
       gradientTransform="translate(-17.678145,-13.1498)"
       xlink:href="#linearGradient916"
       id="radialGradient918-0"
       cx="25.181768"
       cy="25.483049"
       fx="25.181768"
       fy="25.483049"
       r="6.5932508"
       gradientUnits="userSpaceOnUse" />
    <radialGradient
       gradientTransform="translate(26.496019,-13.1501)"
       xlink:href="#linearGradient916"
       id="radialGradient918-6-5"
       cx="25.181768"
       cy="25.483049"
       fx="25.181768"
       fy="25.483049"
       r="6.5932508"
       gradientUnits="userSpaceOnUse" />
    <linearGradient
       gradientTransform="rotate(90,44.88519,32.226052)"
       xlink:href="#linearGradient929"
       id="linearGradient931-6-8-9"
       x1="50.07032"
       y1="23.667904"
       x2="50.087269"
       y2="27.379768"
       gradientUnits="userSpaceOnUse" />
    <linearGradient
       gradientTransform="rotate(90,23.009007,10.205612)"
       xlink:href="#linearGradient929"
       id="linearGradient931-6-89"
       x1="50.07032"
       y1="23.667904"
       x2="50.087269"
       y2="27.379768"
       gradientUnits="userSpaceOnUse" />
    <radialGradient
       gradientTransform="translate(27.111213,30.115902)"
       xlink:href="#linearGradient916"
       id="radialGradient918-6-6-7"
       cx="25.181768"
       cy="25.483049"
       fx="25.181768"
       fy="25.483049"
       r="6.5932508"
       gradientUnits="userSpaceOnUse" />
    <linearGradient
       gradientTransform="translate(-17.062951,30.116202)"
       xlink:href="#linearGradient929"
       id="linearGradient931-2-3"
       x1="50.07032"
       y1="23.667904"
       x2="50.087269"
       y2="27.379768"
       gradientUnits="userSpaceOnUse" />
    <radialGradient
       gradientTransform="translate(-17.062951,30.116202)"
       xlink:href="#linearGradient916"
       id="radialGradient918-9-6"
       cx="25.181768"
       cy="25.483049"
       fx="25.181768"
       fy="25.483049"
       r="6.5932508"
       gradientUnits="userSpaceOnUse" />
    <linearGradient
       gradientTransform="translate(-17.678145,-13.1498)"
       xlink:href="#linearGradient929"
       id="linearGradient931-1"
       x1="50.07032"
       y1="23.667904"
       x2="50.087269"
       y2="27.379768"
       gradientUnits="userSpaceOnUse" />
    <linearGradient
       gradientTransform="matrix(0.3886687,0.3886687,-0.70710678,0.70710678,-2.2786485,-34.137372)"
       xlink:href="#linearGradient929"
       id="linearGradient931-6-89-4"
       x1="50.07032"
       y1="23.667904"
       x2="50.087269"
       y2="27.379768"
       gradientUnits="userSpaceOnUse" />
    <linearGradient
       gradientTransform="matrix(-0.3886687,0.3886687,0.70710677,0.70710677,60.361736,-33.617391)"
       xlink:href="#linearGradient929"
       id="linearGradient931-6-89-4-6"
       x1="50.07032"
       y1="23.667904"
       x2="50.087269"
       y2="27.379768"
       gradientUnits="userSpaceOnUse" />
    <linearGradient
       gradientTransform="matrix(-0.3886687,-0.3886687,0.70710677,-0.70710677,61.624545,100.57677)"
       xlink:href="#linearGradient929"
       id="linearGradient931-6-89-4-3"
       x1="50.07032"
       y1="23.667904"
       x2="50.087269"
       y2="27.379768"
       gradientUnits="userSpaceOnUse" />
    <linearGradient
       gradientTransform="matrix(0.3886687,-0.3886687,-0.70710675,-0.70710675,-2.2043657,100.94819)"
       xlink:href="#linearGradient929"
       id="linearGradient931-6-89-4-6-6"
       x1="50.07032"
       y1="23.667904"
       x2="50.087269"
       y2="27.379768"
       gradientUnits="userSpaceOnUse" />
    <linearGradient
       gradientUnits="userSpaceOnUse"
       xlink:href="#linearGradient3187"
       id="linearGradient3706-3"
       y2="5.9877172"
       x2="48"
       y1="90"
       x1="48"
       gradientTransform="translate(-128.94915,-11.38983)" />
    <linearGradient
       gradientUnits="userSpaceOnUse"
       y2="73.01165"
       x2="60.191742"
       y1="25.01165"
       x1="59.818867"
       id="linearGradient995"
       xlink:href="#linearGradient993" />
  </defs>
  <metadata
     id="metadata2413">
    <rdf:RDF>
      <cc:Work
         rdf:about="">
        <dc:format>image/svg+xml</dc:format>
        <dc:type
           rdf:resource="http://purl.org/dc/dcmitype/StillImage" />
        <dc:title></dc:title>
      </cc:Work>
    </rdf:RDF>
  </metadata>
  <g
     style="display:none"
     id="layer2">
    <rect
       style="opacity:0.9;fill:url(#ButtonShadow);fill-opacity:1;fill-rule:nonzero;stroke:none;filter:url(#filter3174)"
       id="rect3745"
       y="7"
       x="5"
       ry="6"
       rx="6"
       height="85"
       width="86" />
  </g>
  <g
     style="display:inline"
     id="layer5">
    <path
       style="display:inline;opacity:0.07999998;fill:url(#linearGradient2918);fill-opacity:1;fill-rule:nonzero;stroke:none"
       id="path3786"
       d="M 12,95.03125 C 6.4889097,95.03125 1.96875,90.51109 1.96875,85 l 0,-71 C 1.96875,8.4889098 6.4889098,3.96875 12,3.96875 l 72,0 c 5.51109,0 10.03125,4.5201597 10.03125,10.03125 l 0,71 c 0,5.51109 -4.52016,10.03125 -10.03125,10.03125 l -72,0 z" />
    <path
       style="display:inline;opacity:0.1;fill:url(#linearGradient3780);fill-opacity:1;fill-rule:nonzero;stroke:none"
       id="path3778"
       d="M 12,94.03125 C 7.028367,94.03125 2.96875,89.971633 2.96875,85 l 0,-71 C 2.96875,9.0283671 7.0283671,4.96875 12,4.96875 l 72,0 c 4.971633,0 9.03125,4.059617 9.03125,9.03125 l 0,71 c 0,4.971633 -4.059617,9.03125 -9.03125,9.03125 l -72,0 z" />
    <path
       style="display:inline;opacity:0.2;fill:url(#linearGradient3772);fill-opacity:1;fill-rule:nonzero;stroke:none"
       id="path3770"
       d="M 12,93 C 7.5908667,93 4,89.409133 4,85 L 4,14 C 4,9.5908667 7.5908667,6 12,6 l 72,0 c 4.409133,0 8,3.5908667 8,8 l 0,71 c 0,4.409133 -3.590867,8 -8,8 l -72,0 z" />
    <rect
       style="display:inline;opacity:0.3;fill:url(#linearGradient3725);fill-opacity:1;fill-rule:nonzero;stroke:none"
       id="rect3723"
       transform="scale(1,-1)"
       y="-92"
       x="5"
       ry="7"
       rx="7"
       height="85"
       width="86" />
    <rect
       style="display:inline;opacity:0.45;fill:url(#linearGradient3721);fill-opacity:1;fill-rule:nonzero;stroke:none"
       id="rect3716"
       transform="scale(1,-1)"
       y="-91"
       x="6"
       ry="6"
       rx="6"
       height="84"
       width="84" />
  </g>
  <g
     style="display:inline"
     id="layer1">
    <path
       style="fill:url(#linearGradient3706);fill-opacity:1;fill-rule:nonzero;stroke:none"
       id="rect2419"
       d="M 12,6 C 8.676,6 6,8.676 6,12 l 0,72 c 0,3.324 2.676,6 6,6 l 72,0 c 3.324,0 6,-2.676 6,-6 L 90,12 C 90,8.676 87.324,6 84,6 Z" />
    <path
       style="opacity:0.5;fill:url(#linearGradient3188);fill-opacity:1;fill-rule:nonzero;stroke:none"
       id="rect3728"
       d="M 12,6 C 8.676,6 6,8.676 6,12 l 0,2 0,68 0,2 c 0,0.334721 0.04135,0.6507 0.09375,0.96875 0.0487,0.295596 0.09704,0.596915 0.1875,0.875 0.00988,0.03038 0.020892,0.0636 0.03125,0.09375 0.098865,0.287771 0.2348802,0.547452 0.375,0.8125 0.1445918,0.273507 0.3156161,0.535615 0.5,0.78125 0.1843839,0.245635 0.3737765,0.473472 0.59375,0.6875 0.439947,0.428056 0.94291,0.814526 1.5,1.09375 0.278545,0.139612 0.5734731,0.246947 0.875,0.34375 -0.2562018,-0.100222 -0.4867109,-0.236272 -0.71875,-0.375 -0.00741,-0.0044 -0.023866,0.0045 -0.03125,0 -0.031933,-0.0193 -0.062293,-0.04251 -0.09375,-0.0625 -0.120395,-0.0767 -0.2310226,-0.163513 -0.34375,-0.25 -0.1061728,-0.0808 -0.2132809,-0.161112 -0.3125,-0.25 C 8.4783201,88.557317 8.3087904,88.373362 8.15625,88.1875 8.0486711,88.057245 7.9378561,87.922215 7.84375,87.78125 7.818661,87.74287 7.805304,87.69538 7.78125,87.65625 7.716487,87.553218 7.6510225,87.451733 7.59375,87.34375 7.4927417,87.149044 7.3880752,86.928049 7.3125,86.71875 7.30454,86.69694 7.288911,86.6782 7.28125,86.65625 7.2494249,86.5643 7.2454455,86.469419 7.21875,86.375 7.1884177,86.268382 7.1483606,86.171969 7.125,86.0625 7.0521214,85.720988 7,85.364295 7,85 L 7,83 7,15 7,13 C 7,10.218152 9.2181517,8 12,8 l 2,0 68,0 2,0 c 2.781848,0 5,2.218152 5,5 l 0,2 0,68 0,2 c 0,0.364295 -0.05212,0.720988 -0.125,1.0625 -0.04415,0.206893 -0.08838,0.397658 -0.15625,0.59375 -0.0077,0.02195 -0.0233,0.04069 -0.03125,0.0625 -0.06274,0.173739 -0.138383,0.367449 -0.21875,0.53125 -0.04158,0.0828 -0.07904,0.169954 -0.125,0.25 -0.0546,0.09721 -0.126774,0.18835 -0.1875,0.28125 -0.09411,0.140965 -0.204921,0.275995 -0.3125,0.40625 -0.143174,0.17445 -0.303141,0.346998 -0.46875,0.5 -0.01117,0.0102 -0.01998,0.02115 -0.03125,0.03125 -0.138386,0.125556 -0.285091,0.234436 -0.4375,0.34375 -0.102571,0.07315 -0.204318,0.153364 -0.3125,0.21875 -0.0074,0.0045 -0.02384,-0.0044 -0.03125,0 -0.232039,0.138728 -0.462548,0.274778 -0.71875,0.375 0.301527,-0.0968 0.596455,-0.204138 0.875,-0.34375 0.55709,-0.279224 1.060053,-0.665694 1.5,-1.09375 0.219973,-0.214028 0.409366,-0.441865 0.59375,-0.6875 0.184384,-0.245635 0.355408,-0.507743 0.5,-0.78125 0.14012,-0.265048 0.276135,-0.524729 0.375,-0.8125 0.01041,-0.03078 0.02133,-0.06274 0.03125,-0.09375 0.09046,-0.278085 0.1388,-0.579404 0.1875,-0.875 C 89.95865,84.6507 90,84.334721 90,84 l 0,-2 0,-68 0,-2 C 90,8.676 87.324,6 84,6 L 12,6 Z" />
    <path
       style="opacity:0.5;fill:url(#radialGradient2855);fill-opacity:1;fill-rule:nonzero;stroke:none"
       id="path3615"
       d="M 12,90 C 8.676,90 6,87.324 6,84 L 6,82 6,14 6,12 c 0,-0.334721 0.04135,-0.6507 0.09375,-0.96875 0.0487,-0.295596 0.09704,-0.596915 0.1875,-0.875 C 6.29115,10.12587 6.30214,10.09265 6.3125,10.0625 6.41136,9.774729 6.54738,9.515048 6.6875,9.25 6.832092,8.976493 7.003116,8.714385 7.1875,8.46875 7.371884,8.223115 7.561276,7.995278 7.78125,7.78125 8.221197,7.353194 8.72416,6.966724 9.28125,6.6875 9.559795,6.547888 9.854723,6.440553 10.15625,6.34375 9.900048,6.443972 9.669539,6.580022 9.4375,6.71875 c -0.0074,0.0044 -0.02387,-0.0045 -0.03125,0 -0.03193,0.0193 -0.06229,0.04251 -0.09375,0.0625 -0.120395,0.0767 -0.231023,0.163513 -0.34375,0.25 -0.106173,0.0808 -0.213281,0.161112 -0.3125,0.25 C 8.47832,7.442683 8.30879,7.626638 8.15625,7.8125 8.048671,7.942755 7.937856,8.077785 7.84375,8.21875 7.81866,8.25713 7.8053,8.30462 7.78125,8.34375 7.71649,8.446782 7.651022,8.548267 7.59375,8.65625 7.492742,8.850956 7.388075,9.071951 7.3125,9.28125 7.3045,9.30306 7.28891,9.3218 7.28125,9.34375 7.24943,9.4357 7.24545,9.530581 7.21875,9.625 7.18842,9.731618 7.14836,9.828031 7.125,9.9375 7.052121,10.279012 7,10.635705 7,11 l 0,2 0,68 0,2 c 0,2.781848 2.218152,5 5,5 l 2,0 68,0 2,0 c 2.781848,0 5,-2.218152 5,-5 l 0,-2 0,-68 0,-2 C 89,10.635705 88.94788,10.279012 88.875,9.9375 88.83085,9.730607 88.78662,9.539842 88.71875,9.34375 88.71105,9.3218 88.69545,9.30306 88.6875,9.28125 88.62476,9.107511 88.549117,8.913801 88.46875,8.75 88.42717,8.6672 88.38971,8.580046 88.34375,8.5 88.28915,8.40279 88.216976,8.31165 88.15625,8.21875 88.06214,8.077785 87.951329,7.942755 87.84375,7.8125 87.700576,7.63805 87.540609,7.465502 87.375,7.3125 87.36383,7.3023 87.35502,7.29135 87.34375,7.28125 87.205364,7.155694 87.058659,7.046814 86.90625,6.9375 86.803679,6.86435 86.701932,6.784136 86.59375,6.71875 c -0.0074,-0.0045 -0.02384,0.0044 -0.03125,0 -0.232039,-0.138728 -0.462548,-0.274778 -0.71875,-0.375 0.301527,0.0968 0.596455,0.204138 0.875,0.34375 0.55709,0.279224 1.060053,0.665694 1.5,1.09375 0.219973,0.214028 0.409366,0.441865 0.59375,0.6875 0.184384,0.245635 0.355408,0.507743 0.5,0.78125 0.14012,0.265048 0.276135,0.524729 0.375,0.8125 0.01041,0.03078 0.02133,0.06274 0.03125,0.09375 0.09046,0.278085 0.1388,0.579404 0.1875,0.875 C 89.95865,11.3493 90,11.665279 90,12 l 0,2 0,68 0,2 c 0,3.324 -2.676,6 -6,6 l -72,0 z" />
    <path
       id="rect971-3"
       d="M 14.610613,42.176999 29.532934,27.254672 c 3.90201,-3.90201 10.02515,-4.061531 13.72901,-0.35767 l 15.637663,15.637667 c 3.703862,3.703862 3.544342,9.826999 -0.357668,13.72901 L 43.619614,71.186005 c -3.90201,3.902013 -10.02515,4.061531 -13.72901,0.35767 L 14.252933,55.906009 c -3.70386,-3.703861 -3.54434,-9.826997 0.35768,-13.72901 z"
       style="display:inline;opacity:1;fill:none;fill-opacity:1;stroke:#6b6f78;stroke-width:4;stroke-miterlimit:4;stroke-dasharray:none;stroke-opacity:1;paint-order:stroke fill markers" />
    <path
       id="rect971"
       d="m 38.039648,41.96831 14.92232,-14.922327 c 3.90201,-3.90201 10.02515,-4.061531 13.72901,-0.35767 L 82.328641,42.32598 c 3.703862,3.703862 3.544342,9.826999 -0.357668,13.72901 L 67.048648,70.977316 c -3.90201,3.902013 -10.02515,4.061531 -13.72901,0.35767 L 37.681968,55.69732 c -3.70386,-3.703861 -3.54434,-9.826997 0.35768,-13.72901 z"
       style="opacity:1;fill:url(#linearGradient995);fill-opacity:1;stroke:none;stroke-width:1.61742997;stroke-miterlimit:4;stroke-dasharray:none;stroke-opacity:0.16245488;paint-order:stroke fill markers" />
  </g>
</svg>
