<?xml version="1.0" encoding="UTF-8" standalone="no"?>
<svg
   xmlns:dc="http://purl.org/dc/elements/1.1/"
   xmlns:cc="http://creativecommons.org/ns#"
   xmlns:rdf="http://www.w3.org/1999/02/22-rdf-syntax-ns#"
   xmlns:svg="http://www.w3.org/2000/svg"
   xmlns="http://www.w3.org/2000/svg"
   xmlns:xlink="http://www.w3.org/1999/xlink"
   id="svg2408"
   height="96"
   width="96"
   version="1.0">
  <defs
     id="defs2410">
    <linearGradient
       id="linearGradient4560">
      <stop
         id="stop4552"
         style="stop-color:#ffb737;stop-opacity:1"
         offset="0" />
      <stop
         id="stop4554"
         style="stop-color:#f5e6aa;stop-opacity:1"
         offset="0.34920636" />
      <stop
         id="stop4556"
         style="stop-color:#e0bf55;stop-opacity:1"
         offset="0.5714286" />
      <stop
         id="stop4558"
         style="stop-color:#a36800;stop-opacity:1"
         offset="1" />
    </linearGradient>
    <linearGradient
       id="linearGradient4550">
      <stop
         id="stop4542"
         style="stop-color:#ffb737;stop-opacity:1"
         offset="0" />
      <stop
         id="stop4544"
         style="stop-color:#f5c787;stop-opacity:1"
         offset="0.34920636" />
      <stop
         id="stop4546"
         style="stop-color:#ffbf46;stop-opacity:1"
         offset="0.5714286" />
      <stop
         id="stop4548"
         style="stop-color:#a36800;stop-opacity:1"
         offset="1" />
    </linearGradient>
    <linearGradient
       id="linearGradient4088">
      <stop
         offset="0"
         style="stop-color:#d5b742;stop-opacity:1"
         id="stop4090" />
      <stop
         offset="0.34920636"
         style="stop-color:#f5e6aa;stop-opacity:1"
         id="stop4094" />
      <stop
         offset="0.5714286"
         style="stop-color:#e0bf55;stop-opacity:1"
         id="stop4096" />
      <stop
         offset="1"
         style="stop-color:#8a6e24;stop-opacity:1"
         id="stop4092" />
    </linearGradient>
    <linearGradient
       gradientTransform="scale(1.0058652,0.994169)"
       gradientUnits="userSpaceOnUse"
       id="ButtonShadow"
       y2="7.0165396"
       x2="45.447727"
       y1="92.539597"
       x1="45.447727">
      <stop
         offset="0"
         style="stop-color:#000000;stop-opacity:1"
         id="stop3750" />
      <stop
         offset="1"
         style="stop-color:#000000;stop-opacity:0.58823532"
         id="stop3752" />
    </linearGradient>
    <linearGradient
       id="linearGradient3737">
      <stop
         offset="0"
         style="stop-color:#fefefe;stop-opacity:1"
         id="stop3739" />
      <stop
         offset="1"
         style="stop-color:#fefefe;stop-opacity:0"
         id="stop3741" />
    </linearGradient>
    <linearGradient
       id="linearGradient3700">
      <stop
         offset="0"
         style="stop-color:#4c6d37;stop-opacity:1"
         id="stop3702" />
      <stop
         offset="1"
         style="stop-color:#75ac54;stop-opacity:1"
         id="stop3704" />
    </linearGradient>
    <filter
       id="filter3174"
       color-interpolation-filters="sRGB">
      <feGaussianBlur
         stdDeviation="1.71"
         id="feGaussianBlur3176" />
    </filter>
    <linearGradient
       gradientUnits="userSpaceOnUse"
       xlink:href="#linearGradient3737"
       id="linearGradient3188"
       y2="63.893143"
       x2="36.357143"
       y1="6"
       x1="36.357143" />
    <filter
       id="filter3794"
       color-interpolation-filters="sRGB"
       height="1.3839999"
       width="1.3839999"
       y="-0.192"
       x="-0.192">
      <feGaussianBlur
         stdDeviation="5.28"
         id="feGaussianBlur3796" />
    </filter>
    <linearGradient
       gradientUnits="userSpaceOnUse"
       xlink:href="#linearGradient3737"
       id="linearGradient3613"
       y2="138.66119"
       x2="48"
       y1="20.220806"
       x1="48" />
    <radialGradient
       gradientTransform="matrix(1.1573129,0,0,0.99590774,-7.5510206,0.19713193)"
       gradientUnits="userSpaceOnUse"
       xlink:href="#linearGradient3737"
       id="radialGradient3619"
       fy="90.171875"
       fx="48"
       r="42"
       cy="90.171875"
       cx="48" />
    <clipPath
       id="clipPath3613">
      <rect
         style="fill:#fefefe;fill-opacity:1;fill-rule:nonzero;stroke:none"
         id="rect3615"
         y="6"
         x="6"
         ry="6"
         rx="6"
         height="84"
         width="84" />
    </clipPath>
    <linearGradient
       gradientUnits="userSpaceOnUse"
       xlink:href="#linearGradient3700"
       id="linearGradient3617"
       y2="5.9877172"
       x2="48"
       y1="90"
       x1="48" />
    <linearGradient
       gradientTransform="matrix(1.0058652,0,0,0.994169,100,0)"
       gradientUnits="userSpaceOnUse"
       id="ButtonShadow-0"
       y2="7.0165396"
       x2="45.447727"
       y1="92.539597"
       x1="45.447727">
      <stop
         offset="0"
         style="stop-color:#000000;stop-opacity:1"
         id="stop3750-8" />
      <stop
         offset="1"
         style="stop-color:#000000;stop-opacity:0.58823532"
         id="stop3752-5" />
    </linearGradient>
    <linearGradient
       gradientTransform="matrix(1.0238095,0,0,1.0119048,-1.1428571,-98.071429)"
       gradientUnits="userSpaceOnUse"
       xlink:href="#ButtonShadow-0"
       id="linearGradient3780"
       y2="90.238609"
       x2="32.251034"
       y1="6.1317081"
       x1="32.251034" />
    <linearGradient
       gradientTransform="matrix(1.0238095,0,0,1.0119048,-1.1428571,-98.071429)"
       gradientUnits="userSpaceOnUse"
       xlink:href="#ButtonShadow-0"
       id="linearGradient3772"
       y2="90.238609"
       x2="32.251034"
       y1="6.1317081"
       x1="32.251034" />
    <linearGradient
       gradientTransform="matrix(1.0238095,0,0,1.0119048,-1.1428571,-98.071429)"
       gradientUnits="userSpaceOnUse"
       xlink:href="#ButtonShadow-0"
       id="linearGradient3725"
       y2="90.238609"
       x2="32.251034"
       y1="6.1317081"
       x1="32.251034" />
    <linearGradient
       gradientTransform="translate(0,-97)"
       gradientUnits="userSpaceOnUse"
       xlink:href="#ButtonShadow-0"
       id="linearGradient3721"
       y2="90.238609"
       x2="32.251034"
       y1="6.1317081"
       x1="32.251034" />
    <linearGradient
       gradientTransform="matrix(1.0238095,0,0,1.0119048,-1.1428571,-98.071429)"
       gradientUnits="userSpaceOnUse"
       xlink:href="#ButtonShadow-0"
       id="linearGradient3026"
       y2="90.238609"
       x2="32.251034"
       y1="6.1317081"
       x1="32.251034" />
    <linearGradient
       id="linearGradient3737-4">
      <stop
         offset="0"
         style="stop-color:#fffec0;stop-opacity:1"
         id="stop3739-4" />
      <stop
         offset="1"
         style="stop-color:#fefefe;stop-opacity:0"
         id="stop3741-3" />
    </linearGradient>
    <linearGradient
       gradientUnits="userSpaceOnUse"
       xlink:href="#linearGradient3737-4"
       id="linearGradient3146"
       y2="109.10714"
       x2="48"
       y1="6"
       x1="48" />
    <linearGradient
       gradientTransform="matrix(0.88888883,0,0,0.88888883,5.3333362,71.111107)"
       gradientUnits="userSpaceOnUse"
       xlink:href="#linearGradient4088"
       id="linearGradient4053"
       y2="8.8750048"
       x2="37.875"
       y1="-62"
       x1="37.875" />
    <linearGradient
       gradientUnits="userSpaceOnUse"
       y2="76.919449"
       x2="49.405365"
       y1="20.783854"
       x1="49.243378"
       id="linearGradient4555"
       xlink:href="#linearGradient4088" />
    <linearGradient
       gradientUnits="userSpaceOnUse"
       y2="76.919449"
       x2="49.405365"
       y1="20.783854"
       x1="49.243378"
       id="linearGradient4563"
       xlink:href="#linearGradient4088" />
    <linearGradient
       y2="76.919449"
       x2="49.405365"
       y1="20.783854"
       x1="49.243378"
       gradientUnits="userSpaceOnUse"
       id="linearGradient4670"
       xlink:href="#linearGradient4550" />
    <linearGradient
       y2="76.919449"
       x2="49.405365"
       y1="20.783854"
       x1="49.243378"
       gradientUnits="userSpaceOnUse"
       id="linearGradient4672"
       xlink:href="#linearGradient4550" />
    <linearGradient
       gradientUnits="userSpaceOnUse"
       y2="53.64502"
       x2="-56.287418"
       y1="-3.738492"
       x1="-56.221893"
       id="linearGradient4566"
       xlink:href="#linearGradient4550" />
    <linearGradient
       gradientUnits="userSpaceOnUse"
       y2="53.64502"
       x2="-56.287418"
       y1="-3.738492"
       x1="-56.221893"
       id="linearGradient4574"
       xlink:href="#linearGradient4550" />
    <linearGradient
       y2="53.64502"
       x2="-56.287418"
       y1="-3.738492"
       x1="-56.221893"
       gradientUnits="userSpaceOnUse"
       id="linearGradient4576"
       xlink:href="#linearGradient4550" />
    <linearGradient
       gradientUnits="userSpaceOnUse"
       y2="53.64502"
       x2="-56.287418"
       y1="-3.738492"
       x1="-56.221893"
       id="linearGradient4566-1"
       xlink:href="#linearGradient4550" />
    <filter
       height="1.1490313"
       y="-0.074515634"
       width="1.2350225"
       x="-0.11751127"
       id="filter4754"
       style="color-interpolation-filters:sRGB">
      <feGaussianBlur
         id="feGaussianBlur4756"
         stdDeviation="2.1733726" />
    </filter>
  </defs>
  <metadata
     id="metadata2413">
    <rdf:RDF>
      <cc:Work
         rdf:about="">
        <dc:format>image/svg+xml</dc:format>
        <dc:type
           rdf:resource="http://purl.org/dc/dcmitype/StillImage" />
        <dc:title></dc:title>
      </cc:Work>
    </rdf:RDF>
  </metadata>
  <g
     style="display:none"
     id="layer2">
    <rect
       style="opacity:0.9;fill:url(#ButtonShadow);fill-opacity:1;fill-rule:nonzero;stroke:none;filter:url(#filter3174)"
       id="rect3745"
       y="7"
       x="5"
       ry="6"
       rx="6"
       height="85"
       width="86" />
  </g>
  <g
     id="layer3">
    <path
       style="opacity:0.07999998;fill:url(#linearGradient3026);fill-opacity:1;fill-rule:nonzero;stroke:none;display:inline"
       id="path3786"
       transform="scale(1,-1)"
       d="m 12,-95.03125 c -5.5110903,0 -10.03125,4.52016 -10.03125,10.03125 l 0,71 c 0,5.5110902 4.5201598,10.03125 10.03125,10.03125 l 72,0 c 5.51109,0 10.03125,-4.5201597 10.03125,-10.03125 l 0,-71 c 0,-5.51109 -4.52016,-10.03125 -10.03125,-10.03125 l -72,0 z" />
    <path
       style="opacity:0.1;fill:url(#linearGradient3780);fill-opacity:1;fill-rule:nonzero;stroke:none;display:inline"
       id="path3778"
       transform="scale(1,-1)"
       d="m 12,-94.03125 c -4.971633,0 -9.03125,4.059617 -9.03125,9.03125 l 0,71 c 0,4.9716329 4.0596171,9.03125 9.03125,9.03125 l 72,0 c 4.971633,0 9.03125,-4.059617 9.03125,-9.03125 l 0,-71 c 0,-4.971633 -4.059617,-9.03125 -9.03125,-9.03125 l -72,0 z" />
    <path
       style="opacity:0.2;fill:url(#linearGradient3772);fill-opacity:1;fill-rule:nonzero;stroke:none;display:inline"
       id="path3770"
       transform="scale(1,-1)"
       d="m 12,-93 c -4.4091333,0 -8,3.590867 -8,8 l 0,71 c 0,4.4091333 3.5908667,8 8,8 l 72,0 c 4.409133,0 8,-3.5908667 8,-8 l 0,-71 c 0,-4.409133 -3.590867,-8 -8,-8 l -72,0 z" />
    <rect
       style="opacity:0.3;fill:url(#linearGradient3725);fill-opacity:1;fill-rule:nonzero;stroke:none;display:inline"
       id="rect3723"
       transform="scale(1,-1)"
       y="-92"
       x="5"
       ry="7"
       rx="7"
       height="85"
       width="86" />
    <rect
       style="opacity:0.45;fill:url(#linearGradient3721);fill-opacity:1;fill-rule:nonzero;stroke:none;display:inline"
       id="rect3716"
       transform="scale(1,-1)"
       y="-91"
       x="6"
       ry="6"
       rx="6"
       height="84"
       width="84" />
  </g>
  <g
     id="layer1">
    <rect
       style="fill:url(#linearGradient3617);fill-opacity:1;fill-rule:nonzero;stroke:none"
       id="rect2419"
       y="6"
       x="6"
       ry="6"
       rx="6"
       height="84"
       width="84" />
    <path
       style="opacity:0.5;fill:url(#linearGradient3188);fill-opacity:1;fill-rule:nonzero;stroke:none"
       id="rect3728"
       d="M 12,6 C 8.676,6 6,8.676 6,12 l 0,2 0,68 0,2 c 0,0.334721 0.04135,0.6507 0.09375,0.96875 0.0487,0.295596 0.09704,0.596915 0.1875,0.875 0.00988,0.03038 0.020892,0.0636 0.03125,0.09375 0.098865,0.287771 0.2348802,0.547452 0.375,0.8125 0.1445918,0.273507 0.3156161,0.535615 0.5,0.78125 0.1843839,0.245635 0.3737765,0.473472 0.59375,0.6875 0.439947,0.428056 0.94291,0.814526 1.5,1.09375 0.278545,0.139612 0.5734731,0.246947 0.875,0.34375 -0.2562018,-0.100222 -0.4867109,-0.236272 -0.71875,-0.375 -0.00741,-0.0044 -0.023866,0.0045 -0.03125,0 -0.031933,-0.0193 -0.062293,-0.04251 -0.09375,-0.0625 -0.120395,-0.0767 -0.2310226,-0.163513 -0.34375,-0.25 -0.1061728,-0.0808 -0.2132809,-0.161112 -0.3125,-0.25 C 8.4783201,88.557317 8.3087904,88.373362 8.15625,88.1875 8.0486711,88.057245 7.9378561,87.922215 7.84375,87.78125 7.818661,87.74287 7.805304,87.69538 7.78125,87.65625 7.716487,87.553218 7.6510225,87.451733 7.59375,87.34375 7.4927417,87.149044 7.3880752,86.928049 7.3125,86.71875 7.30454,86.69694 7.288911,86.6782 7.28125,86.65625 7.2494249,86.5643 7.2454455,86.469419 7.21875,86.375 7.1884177,86.268382 7.1483606,86.171969 7.125,86.0625 7.0521214,85.720988 7,85.364295 7,85 L 7,83 7,15 7,13 C 7,10.218152 9.2181517,8 12,8 l 2,0 68,0 2,0 c 2.781848,0 5,2.218152 5,5 l 0,2 0,68 0,2 c 0,0.364295 -0.05212,0.720988 -0.125,1.0625 -0.04415,0.206893 -0.08838,0.397658 -0.15625,0.59375 -0.0077,0.02195 -0.0233,0.04069 -0.03125,0.0625 -0.06274,0.173739 -0.138383,0.367449 -0.21875,0.53125 -0.04158,0.0828 -0.07904,0.169954 -0.125,0.25 -0.0546,0.09721 -0.126774,0.18835 -0.1875,0.28125 -0.09411,0.140965 -0.204921,0.275995 -0.3125,0.40625 -0.143174,0.17445 -0.303141,0.346998 -0.46875,0.5 -0.01117,0.0102 -0.01998,0.02115 -0.03125,0.03125 -0.138386,0.125556 -0.285091,0.234436 -0.4375,0.34375 -0.102571,0.07315 -0.204318,0.153364 -0.3125,0.21875 -0.0074,0.0045 -0.02384,-0.0044 -0.03125,0 -0.232039,0.138728 -0.462548,0.274778 -0.71875,0.375 0.301527,-0.0968 0.596455,-0.204138 0.875,-0.34375 0.55709,-0.279224 1.060053,-0.665694 1.5,-1.09375 0.219973,-0.214028 0.409366,-0.441865 0.59375,-0.6875 0.184384,-0.245635 0.355408,-0.507743 0.5,-0.78125 0.14012,-0.265048 0.276135,-0.524729 0.375,-0.8125 0.01041,-0.03078 0.02133,-0.06274 0.03125,-0.09375 0.09046,-0.278085 0.1388,-0.579404 0.1875,-0.875 C 89.95865,84.6507 90,84.334721 90,84 l 0,-2 0,-68 0,-2 C 90,8.676 87.324,6 84,6 L 12,6 z" />
    <path
       style="opacity:0.2;fill:url(#radialGradient3619);fill-opacity:1;fill-rule:nonzero;stroke:none"
       id="path3615"
       d="M 12,90 C 8.676,90 6,87.324 6,84 L 6,82 6,14 6,12 c 0,-0.334721 0.04135,-0.6507 0.09375,-0.96875 0.0487,-0.295596 0.09704,-0.596915 0.1875,-0.875 C 6.29113,10.12587 6.302142,10.09265 6.3125,10.0625 6.411365,9.774729 6.5473802,9.515048 6.6875,9.25 6.8320918,8.976493 7.0031161,8.714385 7.1875,8.46875 7.3718839,8.223115 7.5612765,7.995278 7.78125,7.78125 8.221197,7.353194 8.72416,6.966724 9.28125,6.6875 9.559795,6.547888 9.8547231,6.440553 10.15625,6.34375 9.9000482,6.443972 9.6695391,6.580022 9.4375,6.71875 c -0.00741,0.0044 -0.023866,-0.0045 -0.03125,0 -0.031933,0.0193 -0.062293,0.04251 -0.09375,0.0625 -0.120395,0.0767 -0.2310226,0.163513 -0.34375,0.25 -0.1061728,0.0808 -0.2132809,0.161112 -0.3125,0.25 C 8.4783201,7.442683 8.3087904,7.626638 8.15625,7.8125 8.0486711,7.942755 7.9378561,8.077785 7.84375,8.21875 7.818661,8.25713 7.805304,8.30462 7.78125,8.34375 7.716487,8.446782 7.6510225,8.548267 7.59375,8.65625 7.4927417,8.850956 7.3880752,9.071951 7.3125,9.28125 7.30454,9.30306 7.288911,9.3218 7.28125,9.34375 7.2494249,9.4357 7.2454455,9.530581 7.21875,9.625 7.1884177,9.731618 7.1483606,9.828031 7.125,9.9375 7.0521214,10.279012 7,10.635705 7,11 l 0,2 0,68 0,2 c 0,2.781848 2.2181517,5 5,5 l 2,0 68,0 2,0 c 2.781848,0 5,-2.218152 5,-5 l 0,-2 0,-68 0,-2 C 89,10.635705 88.94788,10.279012 88.875,9.9375 88.83085,9.730607 88.78662,9.539842 88.71875,9.34375 88.71105,9.3218 88.69545,9.30306 88.6875,9.28125 88.62476,9.107511 88.549117,8.913801 88.46875,8.75 88.42717,8.6672 88.38971,8.580046 88.34375,8.5 88.28915,8.40279 88.216976,8.31165 88.15625,8.21875 88.06214,8.077785 87.951329,7.942755 87.84375,7.8125 87.700576,7.63805 87.540609,7.465502 87.375,7.3125 87.36383,7.3023 87.35502,7.29135 87.34375,7.28125 87.205364,7.155694 87.058659,7.046814 86.90625,6.9375 86.803679,6.86435 86.701932,6.784136 86.59375,6.71875 c -0.0074,-0.0045 -0.02384,0.0044 -0.03125,0 -0.232039,-0.138728 -0.462548,-0.274778 -0.71875,-0.375 0.301527,0.0968 0.596455,0.204138 0.875,0.34375 0.55709,0.279224 1.060053,0.665694 1.5,1.09375 0.219973,0.214028 0.409366,0.441865 0.59375,0.6875 0.184384,0.245635 0.355408,0.507743 0.5,0.78125 0.14012,0.265048 0.276135,0.524729 0.375,0.8125 0.01041,0.03078 0.02133,0.06274 0.03125,0.09375 0.09046,0.278085 0.1388,0.579404 0.1875,0.875 C 89.95865,11.3493 90,11.665279 90,12 l 0,2 0,68 0,2 c 0,3.324 -2.676,6 -6,6 l -72,0 z" />
    <path
       style="opacity:0.3;fill:url(#linearGradient3146);fill-opacity:1;stroke:none"
       id="path4141"
       d="M 20.875,6 46.65625,46.65625 6,20.5 6,39 46.21875,48 6,56.75 6,75.125 46.65625,49.34375 20.5,90 39,90 48,49.78125 56.75,90 75.125,90 49.34375,49.34375 90,75.5 90,57 49.78125,48 90,39.25 90,20.875 49.34375,46.65625 75.5,6 57,6 48,46.21875 39.25,6 20.875,6 z" />
  </g>
  <g
     id="layer5">
    <rect
       style="opacity:0.1;fill:url(#linearGradient3613);fill-opacity:1;fill-rule:nonzero;stroke:#fefefe;stroke-width:0.5;stroke-linecap:round;stroke-linejoin:miter;stroke-miterlimit:4;stroke-opacity:1;stroke-dasharray:none;stroke-dashoffset:0;filter:url(#filter3794)"
       id="rect3171"
       clip-path="url(#clipPath3613)"
       y="15"
       x="15"
       ry="12"
       rx="12"
       height="66"
       width="66" />
  </g>
  <g
     transform="matrix(0.85714287,0,0,0.85714287,98.008696,29.733656)"
     id="text4554-6"
     style="font-style:normal;font-weight:normal;font-size:76.8171463px;line-height:1.25;font-family:sans-serif;letter-spacing:0px;word-spacing:0px;fill:#000000;fill-opacity:0.43621401;stroke:url(#linearGradient4566-1);stroke-width:2;stroke-miterlimit:4;stroke-dasharray:none;stroke-opacity:1;filter:url(#filter4754)"
     aria-label="B">
    <path
       id="path4556-2"
       style="fill:#000000;fill-opacity:0.43621401;stroke:none;stroke-width:2;stroke-miterlimit:4;stroke-dasharray:none;stroke-opacity:1"
       d="m -67.819558,26.137886 v 20.517079 h 12.152712 c 4.07591,0 7.089083,-0.837687 9.039518,-2.51306 1.975441,-1.70038 2.963161,-4.288458 2.963161,-7.764233 0,-3.500782 -0.98772,-6.076357 -2.963161,-7.726725 -1.950435,-1.675374 -4.963608,-2.513061 -9.039518,-2.513061 z m 0,-23.0301406 V 19.986513 h 11.215003 c 3.700826,0 6.45144,-0.687654 8.251842,-2.062961 1.825407,-1.400312 2.738111,-3.525786 2.738111,-6.376423 0,-2.8256307 -0.912704,-4.9386023 -2.738111,-6.3389148 -1.800402,-1.4003125 -4.551016,-2.1004688 -8.251842,-2.1004688 z m -12.243359,-6.2263898 h 9.505247 l -1.6e-4,-7.9999996 h 6.839 l -2.6e-4,7.9999996 h 4.83858 l -3.2e-4,-7.9999996 h 6.42 l -3.9e-4,7.9999996 h 0.41929 c 2.792059,0 6.227283,1.2002679 9.352981,3.6008037 3.125697,2.4005358 4.688546,5.8137977 4.688546,10.2397857 0,3.425765 -0.800178,6.151373 -2.400535,8.176825 -1.600357,2.025452 -3.950882,3.288234 -7.051574,3.788346 3.725831,0.800179 6.613976,2.475553 8.664434,5.026122 2.075463,2.525563 3.113195,5.688769 3.113195,9.489618 0,5.001116 -1.70038,8.864478 -5.101139,11.590087 -3.400759,2.725608 -5.091102,4.088412 -11.265808,4.088412 h -0.419 v 6 h -5.42 l 3.95e-4,-6 h -5.838605 l 2.1e-4,6 -5.839,-8.2e-5 1.85e-4,-5.999918 h -5.838605 l -4.666667,5.78e-4 v -6.2265 h 4.666667 V 3.1072673 h -4.666667 z" />
  </g>
  <g
     transform="matrix(0.85714287,0,0,0.85714287,96.328918,27.469967)"
     id="text4554"
     style="font-style:normal;font-weight:normal;font-size:76.8171463px;line-height:1.25;font-family:sans-serif;letter-spacing:0px;word-spacing:0px;fill:url(#linearGradient4566);fill-opacity:1;stroke:url(#linearGradient4574);stroke-width:2;stroke-miterlimit:4;stroke-dasharray:none;stroke-opacity:1"
     aria-label="B">
    <path
       id="path4556"
       style="fill:url(#linearGradient4576);fill-opacity:1;stroke:none;stroke-width:2;stroke-miterlimit:4;stroke-dasharray:none;stroke-opacity:1"
       d="m -67.819558,26.137886 v 20.517079 h 12.152712 c 4.07591,0 7.089083,-0.837687 9.039518,-2.51306 1.975441,-1.70038 2.963161,-4.288458 2.963161,-7.764233 0,-3.500782 -0.98772,-6.076357 -2.963161,-7.726725 -1.950435,-1.675374 -4.963608,-2.513061 -9.039518,-2.513061 z m 0,-23.0301406 V 19.986513 h 11.215003 c 3.700826,0 6.45144,-0.687654 8.251842,-2.062961 1.825407,-1.400312 2.738111,-3.525786 2.738111,-6.376423 0,-2.8256307 -0.912704,-4.9386023 -2.738111,-6.3389148 -1.800402,-1.4003125 -4.551016,-2.1004688 -8.251842,-2.1004688 z m -12.243359,-6.2263898 h 9.505247 l -1.6e-4,-7.9999996 h 6.839 l -2.6e-4,7.9999996 h 4.83858 l -3.2e-4,-7.9999996 h 6.42 l -3.9e-4,7.9999996 h 0.41929 c 2.792059,0 6.227283,1.2002679 9.352981,3.6008037 3.125697,2.4005358 4.688546,5.8137977 4.688546,10.2397857 0,3.425765 -0.800178,6.151373 -2.400535,8.176825 -1.600357,2.025452 -3.950882,3.288234 -7.051574,3.788346 3.725831,0.800179 6.613976,2.475553 8.664434,5.026122 2.075463,2.525563 3.113195,5.688769 3.113195,9.489618 0,5.001116 -1.70038,8.864478 -5.101139,11.590087 -3.400759,2.725608 -5.091102,4.088412 -11.265808,4.088412 h -0.419 v 6 h -5.42 l 3.95e-4,-6 h -5.838605 l 2.1e-4,6 -5.839,-8.2e-5 1.85e-4,-5.999918 h -5.838605 l -4.666667,5.78e-4 v -6.2265 h 4.666667 V 3.1072673 h -4.666667 z" />
  </g>
</svg>
