<?xml version="1.0" encoding="UTF-8" standalone="no"?>
<!-- Created with Inkscape (http://www.inkscape.org/) -->

<svg
   xmlns:dc="http://purl.org/dc/elements/1.1/"
   xmlns:cc="http://creativecommons.org/ns#"
   xmlns:rdf="http://www.w3.org/1999/02/22-rdf-syntax-ns#"
   xmlns:svg="http://www.w3.org/2000/svg"
   xmlns="http://www.w3.org/2000/svg"
   xmlns:xlink="http://www.w3.org/1999/xlink"
   xmlns:sodipodi="http://sodipodi.sourceforge.net/DTD/sodipodi-0.dtd"
   xmlns:inkscape="http://www.inkscape.org/namespaces/inkscape"
   version="1.0"
   width="96"
   height="96"
   id="svg2408"
   inkscape:version="0.91 r"
   sodipodi:docname="bleachbit.svg">
  <sodipodi:namedview
     pagecolor="#ffffff"
     bordercolor="#666666"
     borderopacity="1"
     objecttolerance="10"
     gridtolerance="10"
     guidetolerance="10"
     inkscape:pageopacity="0"
     inkscape:pageshadow="2"
     inkscape:window-width="1535"
     inkscape:window-height="876"
     id="namedview75"
     showgrid="false"
     inkscape:zoom="1"
     inkscape:cx="61.823293"
     inkscape:cy="53.008766"
     inkscape:window-x="65"
     inkscape:window-y="24"
     inkscape:window-maximized="1"
     inkscape:current-layer="svg2408"
     showguides="true" />
  <defs
     id="defs2410">
    <linearGradient
       inkscape:collect="always"
       id="linearGradient4213">
      <stop
         style="stop-color:#000000;stop-opacity:1;"
         offset="0"
         id="stop4215" />
      <stop
         style="stop-color:#000000;stop-opacity:0;"
         offset="1"
         id="stop4217" />
    </linearGradient>
    <linearGradient
       id="linearGradient4209">
      <stop
         offset="0"
         style="stop-color:#000000;stop-opacity:1"
         id="stop4211" />
      <stop
         offset="1"
         style="stop-color:#ffffff;stop-opacity:0"
         id="stop4213" />
    </linearGradient>
    <linearGradient
       inkscape:collect="always"
       id="linearGradient4245">
      <stop
         style="stop-color:#ffffff;stop-opacity:1"
         offset="0"
         id="stop4247" />
      <stop
         style="stop-color:#ffffff;stop-opacity:0"
         offset="1"
         id="stop4249" />
    </linearGradient>
    <linearGradient
       id="linearGradient4232">
      <stop
         offset="0"
         style="stop-color:#5d5d5d;stop-opacity:1"
         id="stop4234" />
      <stop
         offset="1"
         style="stop-color:#212121;stop-opacity:1"
         id="stop4236" />
    </linearGradient>
    <linearGradient
       x1="45.447727"
       y1="92.539597"
       x2="45.447727"
       y2="7.0165396"
       id="ButtonShadow"
       gradientUnits="userSpaceOnUse"
       gradientTransform="scale(1.0058652,0.994169)">
      <stop
         id="stop3750"
         style="stop-color:#000000;stop-opacity:1"
         offset="0" />
      <stop
         id="stop3752"
         style="stop-color:#000000;stop-opacity:0.58823532"
         offset="1" />
    </linearGradient>
    <linearGradient
       id="linearGradient3737">
      <stop
         id="stop3739"
         style="stop-color:#ffffff;stop-opacity:1"
         offset="0" />
      <stop
         id="stop3741"
         style="stop-color:#ffffff;stop-opacity:0"
         offset="1" />
    </linearGradient>
    <linearGradient
       id="linearGradient3700">
      <stop
         id="stop3702"
         style="stop-color:#bf1313;stop-opacity:1"
         offset="0" />
      <stop
         id="stop3704"
         style="stop-color:#ff5b35;stop-opacity:1"
         offset="1" />
    </linearGradient>
    <filter
       color-interpolation-filters="sRGB"
       id="filter3174">
      <feGaussianBlur
         id="feGaussianBlur3176"
         stdDeviation="1.71" />
    </filter>
    <linearGradient
       x1="36.357143"
       y1="6"
       x2="36.357143"
       y2="63.893143"
       id="linearGradient3188"
       xlink:href="#linearGradient3737"
       gradientUnits="userSpaceOnUse" />
    <filter
       x="-0.192"
       y="-0.192"
       width="1.3839999"
       height="1.3839999"
       color-interpolation-filters="sRGB"
       id="filter3794">
      <feGaussianBlur
         id="feGaussianBlur3796"
         stdDeviation="5.28" />
    </filter>
    <linearGradient
       x1="48"
       y1="20.220806"
       x2="48"
       y2="138.66119"
       id="linearGradient3613"
       xlink:href="#linearGradient3737"
       gradientUnits="userSpaceOnUse" />
    <radialGradient
       cx="48"
       cy="90.171875"
       r="42"
       fx="48"
       fy="90.171875"
       id="radialGradient3619"
       xlink:href="#linearGradient3737"
       gradientUnits="userSpaceOnUse"
       gradientTransform="matrix(1.1573129,0,0,0.99590774,-7.5510206,0.19713193)" />
    <clipPath
       id="clipPath3613">
      <rect
         width="84"
         height="84"
         rx="6"
         ry="6"
         x="6"
         y="6"
         id="rect3615"
         style="fill:#ffffff;fill-opacity:1;fill-rule:nonzero;stroke:none" />
    </clipPath>
    <linearGradient
       x1="48"
       y1="90"
       x2="48"
       y2="5.9877172"
       id="linearGradient3617"
       xlink:href="#linearGradient3700"
       gradientUnits="userSpaceOnUse" />
    <linearGradient
       x1="45.447727"
       y1="92.539597"
       x2="45.447727"
       y2="7.0165396"
       id="ButtonShadow-0"
       gradientUnits="userSpaceOnUse"
       gradientTransform="matrix(1.0058652,0,0,0.994169,100,0)">
      <stop
         id="stop3750-8"
         style="stop-color:#000000;stop-opacity:1"
         offset="0" />
      <stop
         id="stop3752-5"
         style="stop-color:#000000;stop-opacity:0.58823532"
         offset="1" />
    </linearGradient>
    <linearGradient
       x1="32.251034"
       y1="6.1317081"
       x2="32.251034"
       y2="90.238609"
       id="linearGradient3780"
       xlink:href="#ButtonShadow-0"
       gradientUnits="userSpaceOnUse"
       gradientTransform="matrix(1.0238095,0,0,-1.0119048,-1.1428571,98.071429)" />
    <linearGradient
       x1="32.251034"
       y1="6.1317081"
       x2="32.251034"
       y2="90.238609"
       id="linearGradient3772"
       xlink:href="#ButtonShadow-0"
       gradientUnits="userSpaceOnUse"
       gradientTransform="matrix(1.0238095,0,0,-1.0119048,-1.1428571,98.071429)" />
    <linearGradient
       x1="32.251034"
       y1="6.1317081"
       x2="32.251034"
       y2="90.238609"
       id="linearGradient3725"
       xlink:href="#ButtonShadow-0"
       gradientUnits="userSpaceOnUse"
       gradientTransform="matrix(1.0238095,0,0,1.0119048,-1.1428571,-98.071429)" />
    <linearGradient
       x1="32.251034"
       y1="6.1317081"
       x2="32.251034"
       y2="90.238609"
       id="linearGradient3721"
       xlink:href="#ButtonShadow-0"
       gradientUnits="userSpaceOnUse"
       gradientTransform="translate(0,-97)" />
    <linearGradient
       x1="32.251034"
       y1="6.1317081"
       x2="32.251034"
       y2="90.238609"
       id="linearGradient3026"
       xlink:href="#ButtonShadow-0"
       gradientUnits="userSpaceOnUse"
       gradientTransform="matrix(1.0238095,0,0,-1.0119048,-1.1428571,98.071429)" />
    <linearGradient
       inkscape:collect="always"
       xlink:href="#linearGradient4295"
       id="linearGradient4257"
       gradientUnits="userSpaceOnUse"
       gradientTransform="matrix(0.29837204,0,0,0.29684839,23.108259,9.2094068)"
       x1="60.486027"
       y1="169.5625"
       x2="110.94"
       y2="159.17" />
    <linearGradient
       id="linearGradient4295">
      <stop
         offset="0"
         stop-opacity=".71765"
         stop-color="#ffd287"
         id="stop4299"
         style="stop-color:#ffb87d;stop-opacity:1" />
      <stop
         offset="1"
         stop-color="#ffcb8b"
         id="stop4301" />
    </linearGradient>
    <linearGradient
       inkscape:collect="always"
       xlink:href="#linearGradient4232"
       id="linearGradient4263"
       gradientUnits="userSpaceOnUse"
       gradientTransform="matrix(0.29837204,0,0,0.29684839,23.278719,9.6646565)"
       x1="163.86353"
       y1="21.589359"
       x2="106.38776"
       y2="167.39952" />
    <linearGradient
       inkscape:collect="always"
       xlink:href="#linearGradient4245"
       id="linearGradient4251"
       x1="69.057976"
       y1="6.1759281"
       x2="54.77459"
       y2="56.861904"
       gradientUnits="userSpaceOnUse" />
    <linearGradient
       inkscape:collect="always"
       xlink:href="#linearGradient4209"
       id="linearGradient4199"
       x1="58.472698"
       y1="63.78336"
       x2="64.34137"
       y2="66.585457"
       gradientUnits="userSpaceOnUse" />
    <linearGradient
       inkscape:collect="always"
       xlink:href="#linearGradient4213"
       id="linearGradient4219"
       x1="46.810825"
       y1="74.620186"
       x2="79.899368"
       y2="51.804909"
       gradientUnits="userSpaceOnUse" />
  </defs>
  <metadata
     id="metadata2413">
    <rdf:RDF>
      <cc:Work
         rdf:about="">
        <dc:format>image/svg+xml</dc:format>
        <dc:type
           rdf:resource="http://purl.org/dc/dcmitype/StillImage" />
        <dc:title />
      </cc:Work>
    </rdf:RDF>
  </metadata>
  <g
     id="layer2"
     style="display:none">
    <rect
       width="86"
       height="85"
       rx="6"
       ry="6"
       x="5"
       y="7"
       id="rect3745"
       style="opacity:0.9;fill:url(#ButtonShadow);fill-opacity:1;fill-rule:nonzero;stroke:none;filter:url(#filter3174)" />
  </g>
  <g
     id="layer5"
     style="display:none">
    <rect
       width="66"
       height="66"
       rx="12"
       ry="12"
       x="15"
       y="15"
       clip-path="url(#clipPath3613)"
       id="rect3171"
       style="opacity:0.1;fill:url(#linearGradient3613);fill-opacity:1;fill-rule:nonzero;stroke:#ffffff;stroke-width:0.5;stroke-linecap:round;stroke-linejoin:miter;stroke-miterlimit:4;stroke-opacity:1;stroke-dasharray:none;stroke-dashoffset:0;filter:url(#filter3794)" />
  </g>
  <g
     transform="matrix(2.2137709,0,0,2.2024662,-2.4098819,-4.8982702)"
     id="g4326"
     style="fill:#00ac00;fill-opacity:1" />
  <path
     style="display:inline;opacity:0.07999998;fill:url(#linearGradient3026);fill-opacity:1;fill-rule:nonzero;stroke:none"
     id="path3786"
     d="M 12,95.03125 C 6.4889097,95.03125 1.96875,90.51109 1.96875,85 l 0,-71 C 1.96875,8.4889098 6.4889098,3.96875 12,3.96875 l 72,0 c 5.51109,0 10.03125,4.5201597 10.03125,10.03125 l 0,71 c 0,5.51109 -4.52016,10.03125 -10.03125,10.03125 l -72,0 z"
     inkscape:connector-curvature="0" />
  <path
     style="display:inline;opacity:0.1;fill:url(#linearGradient3780);fill-opacity:1;fill-rule:nonzero;stroke:none"
     id="path3778"
     d="M 12,94.03125 C 7.028367,94.03125 2.96875,89.971633 2.96875,85 l 0,-71 C 2.96875,9.0283671 7.0283671,4.96875 12,4.96875 l 72,0 c 4.971633,0 9.03125,4.059617 9.03125,9.03125 l 0,71 c 0,4.971633 -4.059617,9.03125 -9.03125,9.03125 l -72,0 z"
     inkscape:connector-curvature="0" />
  <path
     style="display:inline;opacity:0.2;fill:url(#linearGradient3772);fill-opacity:1;fill-rule:nonzero;stroke:none"
     id="path3770"
     d="M 12,93 C 7.5908667,93 4,89.409133 4,85 L 4,14 C 4,9.5908667 7.5908667,6 12,6 l 72,0 c 4.409133,0 8,3.5908667 8,8 l 0,71 c 0,4.409133 -3.590867,8 -8,8 l -72,0 z"
     inkscape:connector-curvature="0" />
  <rect
     style="display:inline;opacity:0.3;fill:url(#linearGradient3725);fill-opacity:1;fill-rule:nonzero;stroke:none"
     id="rect3723"
     transform="scale(1,-1)"
     y="-92"
     x="5"
     ry="7"
     rx="7"
     height="85"
     width="86" />
  <rect
     style="display:inline;opacity:0.45;fill:url(#linearGradient3721);fill-opacity:1;fill-rule:nonzero;stroke:none"
     id="rect3716"
     transform="scale(1,-1)"
     y="-91"
     x="6"
     ry="6"
     rx="6"
     height="84"
     width="84" />
  <rect
     style="fill:url(#linearGradient3617);fill-opacity:1;fill-rule:nonzero;stroke:none"
     id="rect2419"
     y="6"
     x="6"
     ry="6"
     rx="6"
     height="84"
     width="84" />
  <path
     style="opacity:0.5;fill:url(#linearGradient4219);fill-opacity:1;stroke:none;stroke-width:0.13478px;stroke-opacity:0.88889005"
     d="m 88.187374,44.162219 c 0.133069,1.473861 -3.131902,-2.998554 -3.131902,-2.998554 l -9.323441,9.626512 -9.009547,-4.267341 -1.178662,10.783422 -0.112651,0.170288 0.01149,-0.0886 -3.48602,1.770265 -2.413629,1.064687 -2.139449,0.587127 -2.256675,0.35974 -2.221953,-0.01236 -1.171661,-0.248261 -0.241424,0.197563 -0.506739,0.64187 -0.733743,1.157807 -1.124512,1.983457 -0.742648,1.544517 -0.79751,2.292053 -0.329722,1.003079 0.09333,0.474131 1.397208,1.089744 -1.918844,0.545122 -0.288185,0.293677 -0.269656,1.226559 -0.09666,1.369412 c -0.08808,1.73079 2.551744,0.316836 2.551744,0.316836 0,0 0.02561,-0.151551 -0.447456,0.414376 l -0.175728,-0.203864 1.310148,-0.295266 0.354483,0.981419 -1.040051,-0.693231 1.605377,0.249409 c 0.977814,0.712435 0.435181,2.522618 2.132017,1.722376 l 1.444779,-0.640153 3.173162,-0.744321 1.578813,-1.083652 2.998246,-2.256497 2.408965,-1.858518 1.257496,-0.99793 0.05504,0.04478 0.143035,-0.126404 c 5.644984,-3.720567 14.238397,-7.245521 18.453398,-11.718323 0.611599,-0.649006 -3.83641,-4.104572 -3.18689,-4.659728 l 7.624215,-6.913268 z"
     id="path4205"
     inkscape:connector-curvature="0"
     sodipodi:nodetypes="ccccccccccccccccccccccccccccccccccccccccccsccc" />
  <path
     style="opacity:0.35;fill:url(#linearGradient3188);fill-opacity:1;fill-rule:nonzero;stroke:none"
     id="rect3728"
     inkscape:connector-curvature="0"
     d="M 12,6 C 8.676,6 6,8.676 6,12 l 0,2 0,68 0,2 c 0,0.334721 0.04135,0.6507 0.09375,0.96875 0.0487,0.295596 0.09704,0.596915 0.1875,0.875 0.00988,0.03038 0.020892,0.0636 0.03125,0.09375 0.098865,0.287771 0.2348802,0.547452 0.375,0.8125 0.1445918,0.273507 0.3156161,0.535615 0.5,0.78125 0.1843839,0.245635 0.3737765,0.473472 0.59375,0.6875 0.439947,0.428056 0.94291,0.814526 1.5,1.09375 0.278545,0.139612 0.5734731,0.246947 0.875,0.34375 -0.2562018,-0.100222 -0.4867109,-0.236272 -0.71875,-0.375 -0.00741,-0.0044 -0.023866,0.0045 -0.03125,0 -0.031933,-0.0193 -0.062293,-0.04251 -0.09375,-0.0625 -0.120395,-0.0767 -0.2310226,-0.163513 -0.34375,-0.25 -0.1061728,-0.0808 -0.2132809,-0.161112 -0.3125,-0.25 C 8.4783201,88.557317 8.3087904,88.373362 8.15625,88.1875 8.0486711,88.057245 7.9378561,87.922215 7.84375,87.78125 7.818661,87.74287 7.805304,87.69538 7.78125,87.65625 7.716487,87.553218 7.6510225,87.451733 7.59375,87.34375 7.4927417,87.149044 7.3880752,86.928049 7.3125,86.71875 7.30454,86.69694 7.288911,86.6782 7.28125,86.65625 7.2494249,86.5643 7.2454455,86.469419 7.21875,86.375 7.1884177,86.268382 7.1483606,86.171969 7.125,86.0625 7.0521214,85.720988 7,85.364295 7,85 L 7,83 7,15 7,13 C 7,10.218152 9.2181517,8 12,8 l 2,0 68,0 2,0 c 2.781848,0 5,2.218152 5,5 l 0,2 0,68 0,2 c 0,0.364295 -0.05212,0.720988 -0.125,1.0625 -0.04415,0.206893 -0.08838,0.397658 -0.15625,0.59375 -0.0077,0.02195 -0.0233,0.04069 -0.03125,0.0625 -0.06274,0.173739 -0.138383,0.367449 -0.21875,0.53125 -0.04158,0.0828 -0.07904,0.169954 -0.125,0.25 -0.0546,0.09721 -0.126774,0.18835 -0.1875,0.28125 -0.09411,0.140965 -0.204921,0.275995 -0.3125,0.40625 -0.143174,0.17445 -0.303141,0.346998 -0.46875,0.5 -0.01117,0.0102 -0.01998,0.02115 -0.03125,0.03125 -0.138386,0.125556 -0.285091,0.234436 -0.4375,0.34375 -0.102571,0.07315 -0.204318,0.153364 -0.3125,0.21875 -0.0074,0.0045 -0.02384,-0.0044 -0.03125,0 -0.232039,0.138728 -0.462548,0.274778 -0.71875,0.375 0.301527,-0.0968 0.596455,-0.204138 0.875,-0.34375 0.55709,-0.279224 1.060053,-0.665694 1.5,-1.09375 0.219973,-0.214028 0.409366,-0.441865 0.59375,-0.6875 0.184384,-0.245635 0.355408,-0.507743 0.5,-0.78125 0.14012,-0.265048 0.276135,-0.524729 0.375,-0.8125 0.01041,-0.03078 0.02133,-0.06274 0.03125,-0.09375 0.09046,-0.278085 0.1388,-0.579404 0.1875,-0.875 C 89.95865,84.6507 90,84.334721 90,84 l 0,-2 0,-68 0,-2 C 90,8.676 87.324,6 84,6 L 12,6 Z" />
  <path
     style="opacity:0.2;fill:url(#radialGradient3619);fill-opacity:1;fill-rule:nonzero;stroke:none"
     id="path3615"
     inkscape:connector-curvature="0"
     d="M 12,90 C 8.676,90 6,87.324 6,84 L 6,82 6,14 6,12 c 0,-0.334721 0.04135,-0.6507 0.09375,-0.96875 0.0487,-0.295596 0.09704,-0.596915 0.1875,-0.875 C 6.29113,10.12587 6.302142,10.09265 6.3125,10.0625 6.411365,9.774729 6.5473802,9.515048 6.6875,9.25 6.8320918,8.976493 7.0031161,8.714385 7.1875,8.46875 7.3718839,8.223115 7.5612765,7.995278 7.78125,7.78125 8.221197,7.353194 8.72416,6.966724 9.28125,6.6875 9.559795,6.547888 9.8547231,6.440553 10.15625,6.34375 9.9000482,6.443972 9.6695391,6.580022 9.4375,6.71875 c -0.00741,0.0044 -0.023866,-0.0045 -0.03125,0 -0.031933,0.0193 -0.062293,0.04251 -0.09375,0.0625 -0.120395,0.0767 -0.2310226,0.163513 -0.34375,0.25 -0.1061728,0.0808 -0.2132809,0.161112 -0.3125,0.25 C 8.4783201,7.442683 8.3087904,7.626638 8.15625,7.8125 8.0486711,7.942755 7.9378561,8.077785 7.84375,8.21875 7.818661,8.25713 7.805304,8.30462 7.78125,8.34375 7.716487,8.446782 7.6510225,8.548267 7.59375,8.65625 7.4927417,8.850956 7.3880752,9.071951 7.3125,9.28125 7.30454,9.30306 7.288911,9.3218 7.28125,9.34375 7.2494249,9.4357 7.2454455,9.530581 7.21875,9.625 7.1884177,9.731618 7.1483606,9.828031 7.125,9.9375 7.0521214,10.279012 7,10.635705 7,11 l 0,2 0,68 0,2 c 0,2.781848 2.2181517,5 5,5 l 2,0 68,0 2,0 c 2.781848,0 5,-2.218152 5,-5 l 0,-2 0,-68 0,-2 C 89,10.635705 88.94788,10.279012 88.875,9.9375 88.83085,9.730607 88.78662,9.539842 88.71875,9.34375 88.71105,9.3218 88.69545,9.30306 88.6875,9.28125 88.62476,9.107511 88.549117,8.913801 88.46875,8.75 88.42717,8.6672 88.38971,8.580046 88.34375,8.5 88.28915,8.40279 88.216976,8.31165 88.15625,8.21875 88.06214,8.077785 87.951329,7.942755 87.84375,7.8125 87.700576,7.63805 87.540609,7.465502 87.375,7.3125 87.36383,7.3023 87.35502,7.29135 87.34375,7.28125 87.205364,7.155694 87.058659,7.046814 86.90625,6.9375 86.803679,6.86435 86.701932,6.784136 86.59375,6.71875 c -0.0074,-0.0045 -0.02384,0.0044 -0.03125,0 -0.232039,-0.138728 -0.462548,-0.274778 -0.71875,-0.375 0.301527,0.0968 0.596455,0.204138 0.875,0.34375 0.55709,0.279224 1.060053,0.665694 1.5,1.09375 0.219973,0.214028 0.409366,0.441865 0.59375,0.6875 0.184384,0.245635 0.355408,0.507743 0.5,0.78125 0.14012,0.265048 0.276135,0.524729 0.375,0.8125 0.01041,0.03078 0.02133,0.06274 0.03125,0.09375 0.09046,0.278085 0.1388,0.579404 0.1875,0.875 C 89.95865,11.3493 90,11.665279 90,12 l 0,2 0,68 0,2 c 0,3.324 -2.676,6 -6,6 l -72,0 z" />
  <path
     id="path4337"
     d="m 70.460938,16.005859 c -0.152702,-0.0078 -0.305795,-0.0056 -0.458985,0.0059 -1.470232,0.109797 -2.824239,1.053394 -3.730469,2.49414 a 2.0002,2.0002 0 0 0 -0.07227,0.123047 l -2.97461,5.578125 a 2.0002,2.0002 0 0 0 -0.05664,0.117188 l -2.556641,5.65039 -3.125,6.169922 a 2.0002,2.0002 0 0 0 -0.05664,0.121094 l -1.39648,3.275351 -0.574219,-0.240235 -3.472656,-1.488281 a 2.0002,2.0002 0 0 0 -0.789062,-0.162109 l -0.851563,0 a 2.0002,2.0002 0 0 0 -0.539062,0.07422 l -0.726563,0.203125 a 2.0002,2.0002 0 0 0 -1.048828,0.710938 l -1.171875,1.53125 a 2.0002,2.0002 0 0 0 -0.0039,0.0039 l -3.398438,4.464844 a 2.0002,2.0002 0 0 0 -0.18164,0.289062 l -3.449219,3.914063 -2.685547,2.597656 -2.957031,1.974609 -3.634766,1.904297 -4.21289,1.558594 -2.666016,0.617188 a 2.0002,2.0002 0 0 0 -1.445313,1.314453 l -0.121093,0.361328 a 2.0002,2.0002 0 0 0 -0.07617,0.960937 l 0.160156,0.966797 a 2.0002,2.0002 0 0 0 0.117188,0.421875 l 0.648437,1.609375 a 2.0002,2.0002 0 0 0 0.07813,0.169922 l 1.375,2.658203 a 2.0002,2.0002 0 0 0 0.121094,0.205078 l 1.335937,1.970703 a 2.0002,2.0002 0 0 0 0.212891,0.261719 l 2.589844,2.697266 a 2.0002,2.0002 0 0 0 0.0332,0.0332 l 1.171875,1.166016 a 2.0002,2.0002 0 0 0 0.753896,0.47071 l 1.050781,0.365234 a 2.0002,2.0002 0 0 0 0.582031,0.109375 l -0.01758,0.214844 a 2.0002,2.0002 0 0 0 0.763672,1.736328 l 1.699219,1.326172 a 2.0002,2.0002 0 0 0 0.232422,0.15625 l 2.304687,1.328125 a 2.0002,2.0002 0 0 0 0.02734,0.01758 c 1.149485,0.637499 2.317561,0.749864 3.386719,0.619141 A 2.0002,2.0002 0 0 0 42.548828,80 l 2.832031,0 a 2.0002,2.0002 0 0 0 0.316407,-0.02539 l 1.496093,-0.240234 a 2.0002,2.0002 0 0 0 0.191407,-0.04102 2.0002,2.0002 0 0 0 0.599609,0.103516 l 3.078125,0.03906 a 2.0002,2.0002 0 0 0 0.07227,0 c 3.994065,-0.09356 6.706566,-2.469095 8.714843,-4.556641 a 2.0002,2.0002 0 0 0 0.08008,-0.08984 l 2.023437,-2.375 A 2.0002,2.0002 0 0 0 62.097656,72.625 l 1.578125,-2.375 a 2.0002,2.0002 0 0 0 0.09375,-0.158203 l 1.171875,-2.171875 a 2.0002,2.0002 0 0 0 0.07617,-0.154297 l 1.863281,-4.306641 a 2.0002,2.0002 0 0 0 0.01953,-0.04687 l 1.414062,-3.501953 a 2.0002,2.0002 0 0 0 0.01953,-0.05273 l 0.203125,-0.548828 -1.199218,0 a 2.0002,2.0002 0 0 0 1.941406,-1.523438 l 0.05469,-0.222656 a 2.0002,2.0002 0 0 0 0.0332,-0.154297 l 0.742187,-4.554687 0.609375,-3.679688 a 2.0002,2.0002 0 0 0 0.02148,-0.171875 l 0.06055,-0.787109 a 2.0002,2.0002 0 0 0 -0.234375,-1.103516 l -0.445312,-0.826172 a 2.0002,2.0002 0 0 0 -0.929688,-0.871094 l -2.996094,-1.367187 a 2.0002,2.0002 0 0 0 -0.04297,-0.01758 L 65,43.535156 l 1.214844,-2.998047 1.595703,-3.865234 a 2.0002,2.0002 0 0 0 0.01953,-0.04883 l 1.992188,-5.207031 1.535156,-3.675782 a 2.0002,2.0002 0 0 0 0.01172,-0.03125 l 1.314453,-3.298828 a 2.0002,2.0002 0 0 0 0.03711,-0.09961 l 1.080078,-3.197266 a 2.0002,2.0002 0 0 0 0.03516,-0.117187 c 0.3376,-1.246667 0.12839,-2.595751 -0.619141,-3.56836 -0.654089,-0.851032 -1.686951,-1.367501 -2.755859,-1.421875 z m -0.310547,2 c 1.202155,-0.08978 2.159937,0.974137 1.755859,2.466797 l -1.080078,3.197266 -1.314453,3.298828 -1.546875,3.705078 -2.001953,5.234375 -1.59961,3.871094 -1.777343,4.384765 -0.142579,0.226563 0.121094,0.05273 1.0625,0.679688 1.738281,0.744141 2.996094,1.367187 0.445313,0.826172 -0.06055,0.787109 -0.609375,3.681641 -0.744141,4.556641 -0.05469,0.222656 -0.191407,0 -0.6875,1.853515 -1.414062,3.501953 -1.863281,4.306641 -1.171875,2.171875 -1.578125,2.375 -2.023438,2.375 c -1.924059,2.000002 -4.071258,3.867241 -7.320312,3.94336 L 48.00976,77.796874 48.576166,76.912108 46.876947,77.759765 45.380859,78 42.548828,78 c -0.08879,-0.872022 1.355469,-3.347656 1.355469,-3.347656 0,0 -2.685156,3.26645 -5.666016,1.613281 l -2.304687,-1.328125 -1.699219,-1.326172 0.03906,-0.484375 2.832031,-1.931641 -4.773438,0.04297 -1.050781,-0.365234 -1.171875,-1.166016 -2.589844,-2.697265 -1.335937,-1.970704 -1.375,-2.658203 L 24.160156,60.771484 24,59.804688 l 0.121094,-0.361329 2.789062,-0.646484 4.453125,-1.646484 3.84375,-2.013672 3.195313,-2.134766 2.871094,-2.777344 L 44.996094,46 l 0.138672,0.08984 -0.08594,-0.240235 3.398438,-4.464843 1.171875,-1.53125 0.726562,-0.203125 0.851563,0 3.480468,1.492187 2.416016,1.011719 2.175781,-5.105469 3.146485,-6.208984 2.574218,-5.691406 2.97461,-5.578126 c 0.655174,-1.041615 1.464253,-1.510586 2.185547,-1.564453 z"
     style="color:#000000;font-style:normal;font-variant:normal;font-weight:normal;font-stretch:normal;font-size:medium;line-height:normal;font-family:sans-serif;text-indent:0;text-align:start;text-decoration:none;text-decoration-line:none;text-decoration-style:solid;text-decoration-color:#000000;letter-spacing:normal;word-spacing:normal;text-transform:none;direction:ltr;block-progression:tb;writing-mode:lr-tb;baseline-shift:baseline;text-anchor:start;white-space:normal;clip-rule:nonzero;display:inline;overflow:visible;visibility:visible;opacity:0.1;isolation:auto;mix-blend-mode:normal;color-interpolation:sRGB;color-interpolation-filters:linearRGB;solid-color:#000000;solid-opacity:1;fill:#000000;fill-opacity:1;fill-rule:nonzero;stroke:none;stroke-width:4;stroke-linecap:round;stroke-linejoin:round;stroke-miterlimit:4;stroke-dasharray:none;stroke-dashoffset:0;stroke-opacity:1;color-rendering:auto;image-rendering:auto;shape-rendering:auto;text-rendering:auto;enable-background:accumulate"
     inkscape:connector-curvature="0" />
  <path
     id="path4356"
     d="m 70.076172,17.007812 c -1.095757,0.08184 -2.17633,0.788115 -2.957031,2.029297 l -0.01953,0.03125 -3.007812,5.638672 -2.578125,5.701172 -3.150391,6.21875 -1.800781,4.220703 -1.494141,-0.625 -3.666015,-1.572265 -1.19336,0 -1.18164,0.330078 -1.375,1.796875 -3.728516,4.898437 0.0078,0.01953 -3.382813,3.837891 -2.777344,2.6875 -3.076172,2.054688 -3.738281,1.958984 -4.333984,1.603516 -3.271485,0.757812 -0.378906,1.126953 0.21875,1.320313 0.707032,1.755859 1.423828,2.751953 1.417968,2.089844 2.65625,2.767578 1.341797,1.333985 1.429688,0.498046 1.652343,-0.01563 -0.505859,0.345703 -0.121094,1.498047 2.179688,1.701172 2.373047,1.367188 0.0078,0.0039 c 1.432952,0.794707 2.792045,0.567294 3.939453,0.136719 -0.06978,0.255999 -0.17283,0.48886 -0.138671,0.824218 L 41.644531,79 l 3.816407,0 1.359374,-0.21875 4.273438,0.05469 0.01758,0 c 3.621561,-0.08484 6.051409,-2.206226 8.017578,-4.25 l 0.02148,-0.02148 2.082031,-2.443359 1.634766,-2.462891 1.214843,-2.25 1.884766,-4.357422 1.423828,-3.527343 0.451172,-1.214844 0.279297,0 0.251953,-1.023438 0.75,-4.59375 0.617187,-3.722656 0.08594,-1.125 -0.744141,-1.378906 -3.3125,-1.511719 -1.673828,-0.716797 -0.365234,-0.234375 1.558593,-3.84375 1.603516,-3.880859 2,-5.232422 1.544922,-3.699219 1.328125,-3.330078 1.097656,-3.251953 0.0078,-0.0293 c 0.26977,-0.996532 0.0961,-1.990292 -0.447266,-2.697266 -0.543113,-0.707007 -1.434358,-1.097502 -2.347656,-1.029297 z m 0.07422,0.998047 c 1.202155,-0.08978 2.159937,0.974137 1.755859,2.466797 l -1.080078,3.197266 -1.314453,3.298828 -1.546875,3.705078 -2.001953,5.234375 -1.59961,3.871094 -1.777343,4.384765 -0.142579,0.226563 0.121094,0.05273 1.0625,0.679688 1.738281,0.744141 2.996094,1.367187 0.445313,0.826172 -0.06055,0.787109 -0.609375,3.681641 -0.744141,4.556641 -0.05469,0.222656 -0.191407,0 -0.6875,1.853515 -1.414062,3.501953 -1.863281,4.306641 -1.171875,2.171875 -1.578125,2.375 -2.023438,2.375 c -1.924059,2.000002 -4.071258,3.867239 -7.320312,3.94336 l -3.078125,-0.03906 0.566406,-0.884766 -1.699219,0.847657 L 45.380859,78 42.548828,78 c -0.08879,-0.872022 1.355469,-3.347656 1.355469,-3.347656 0,0 -2.685156,3.26645 -5.666016,1.613281 l -2.304687,-1.328125 -1.699219,-1.326172 0.03906,-0.484375 2.832031,-1.931641 -4.773438,0.04297 -1.050781,-0.365234 -1.171875,-1.166016 -2.589844,-2.697265 -1.335937,-1.970704 -1.375,-2.658203 L 24.160156,60.771484 24,59.804688 l 0.121094,-0.361329 2.789062,-0.646484 4.453125,-1.646484 3.84375,-2.013672 3.195313,-2.134766 2.871094,-2.777344 L 44.996094,46 l 0.138672,0.08984 -0.08594,-0.240235 3.398438,-4.464843 1.171875,-1.53125 0.726562,-0.203125 0.851563,0 3.480468,1.492187 2.416016,1.011719 2.175781,-5.105469 3.146485,-6.208984 2.574218,-5.691406 2.97461,-5.578126 c 0.655174,-1.041615 1.464253,-1.510583 2.185547,-1.564453 z"
     style="color:#000000;font-style:normal;font-variant:normal;font-weight:normal;font-stretch:normal;font-size:medium;line-height:normal;font-family:sans-serif;text-indent:0;text-align:start;text-decoration:none;text-decoration-line:none;text-decoration-style:solid;text-decoration-color:#000000;letter-spacing:normal;word-spacing:normal;text-transform:none;direction:ltr;block-progression:tb;writing-mode:lr-tb;baseline-shift:baseline;text-anchor:start;white-space:normal;clip-rule:nonzero;display:inline;overflow:visible;visibility:visible;opacity:0.15;isolation:auto;mix-blend-mode:normal;color-interpolation:sRGB;color-interpolation-filters:linearRGB;solid-color:#000000;solid-opacity:1;fill:#000000;fill-opacity:1;fill-rule:nonzero;stroke:none;stroke-width:2;stroke-linecap:butt;stroke-linejoin:miter;stroke-miterlimit:4;stroke-dasharray:none;stroke-dashoffset:0;stroke-opacity:1;color-rendering:auto;image-rendering:auto;shape-rendering:auto;text-rendering:auto;enable-background:accumulate"
     inkscape:connector-curvature="0" />
  <path
     inkscape:connector-curvature="0"
     style="opacity:0.3;fill:#000000;fill-opacity:1;stroke:none;stroke-width:0.13478px;stroke-opacity:0.88889005"
     d="m 70.150286,19.00586 c -0.721294,0.05387 -1.530373,0.522838 -2.185547,1.564453 l -2.97461,5.578126 -2.574218,5.691406 -3.146485,6.208984 -2.175781,5.105469 -2.416016,-1.011719 -3.480468,-1.492187 -0.851563,0 -0.726562,0.203125 -1.171875,1.53125 -3.398438,4.464843 0.08594,0.240235 -0.138674,-0.08984 -3.722656,4.224609 -2.871094,2.777344 -3.195313,2.134766 -3.84375,2.013672 -4.453125,1.646484 -2.789062,0.646484 -0.121094,0.361329 0.160156,0.966796 0.648438,1.609375 1.375,2.658203 1.335937,1.970704 2.589844,2.697265 1.171875,1.166016 1.050781,0.365234 4.773438,-0.04297 -2.832031,1.931641 -0.03906,0.484375 1.699219,1.326172 2.304687,1.328125 c 2.98086,1.653169 5.666016,-1.613281 5.666016,-1.613281 0,0 -1.444263,2.475634 -1.355469,3.347656 l 2.832031,0 1.496094,-0.240234 1.699219,-0.847657 -0.566406,0.884766 3.078125,0.03906 c 3.249054,-0.07612 5.396253,-1.943358 7.320312,-3.94336 l 2.023438,-2.375 1.578125,-2.375 1.171875,-2.171875 1.863281,-4.306641 1.414062,-3.501953 0.6875,-1.853515 0.191407,0 0.05469,-0.222656 0.744141,-4.556641 0.609375,-3.681641 0.06055,-0.787109 -0.445313,-0.826172 -2.996094,-1.367187 -1.738281,-0.744141 -1.0625,-0.679688 -0.121094,-0.05273 0.142579,-0.226563 1.777343,-4.384765 1.59961,-3.871094 2.001953,-5.234375 1.546875,-3.705078 1.314453,-3.298828 1.080078,-3.197266 c 0.404078,-1.49266 -0.553704,-2.556574 -1.755859,-2.466797 z"
     id="path4343" />
  <path
     sodipodi:nodetypes="ccccccccccccccccccccccccccccccccccccccccc"
     inkscape:connector-curvature="0"
     id="path4425"
     d="m 44.996244,45.999712 -3.722768,4.224262 -2.870984,2.778891 -3.195266,2.133639 -3.843833,2.013193 -4.453485,1.647548 -2.788833,0.645255 -0.121071,0.361341 0.159989,0.96788 0.648564,1.608833 1.37496,2.658445 1.336046,1.970174 2.589939,2.697163 1.171742,1.165758 1.050676,0.365643 4.773444,-0.04301 -2.832071,1.931459 -0.03892,0.486091 1.699242,1.324922 2.304571,1.329221 c 2.98086,1.653169 5.665192,-1.61418 5.665192,-1.61418 0,0 -1.443188,2.475741 -1.354394,3.347764 l 2.832071,0 1.496024,-0.240895 1.699244,-0.847434 -0.566415,0.886149 3.078525,0.03872 c 3.249054,-0.07612 5.396086,-1.94465 7.320146,-3.944652 l 2.023523,-2.374534 1.578178,-2.374534 1.171742,-2.172354 1.863546,-4.305993 1.413871,-3.501578 0.851784,-2.297102 L 59.826778,55.6183 59.580323,55.89791 59.723,55.6183 53.492446,51.351022 50.253941,49.337831 47.300806,47.488103 Z"
     style="fill:url(#linearGradient4257);stroke:none;stroke-width:0.13478px;stroke-opacity:0.88889005" />
  <path
     sodipodi:nodetypes="ccccccccccccccccccccccccccccccccccc"
     inkscape:connector-curvature="0"
     id="path4429"
     d="m 67.964117,19.570116 -2.974755,5.579295 -2.572643,5.691138 -3.147705,6.207342 -2.174858,5.106108 -2.416988,-1.010897 -3.480637,-1.492688 -0.851781,0 -0.726394,0.202186 -1.171742,1.531403 -3.398484,4.465155 0.159989,0.443074 0.363198,0.524808 2.507786,1.488385 3.156353,1.93146 c 3.80682,2.307345 6.019174,5.323059 10.126908,6.480527 l 5.114358,0.591651 0.860431,0 0.05621,-0.223689 0.743688,-4.555491 0.609652,-3.682248 0.06052,-0.78721 -0.445347,-0.825925 -2.996374,-1.367938 -1.738156,-0.744194 -1.063648,-0.679665 -0.121071,-0.05163 0.142678,-0.227989 1.777071,-4.383425 1.599795,-3.871521 2.001906,-5.235159 1.547911,-3.703757 1.314426,-3.299398 1.079679,-3.197314 c 0.646525,-2.388256 -2.194846,-3.680039 -3.941978,-0.902398 z"
     style="fill:url(#linearGradient4263);fill-opacity:1.0" />
  <g
     transform="matrix(2.2137709,0,0,2.2024662,-2.4099869,-4.8985578)"
     id="g4350"
     style="opacity:0.3;fill:#0000ff;fill-opacity:1" />
  <path
     style="color:#000000;font-style:normal;font-variant:normal;font-weight:normal;font-stretch:normal;font-size:medium;line-height:normal;font-family:sans-serif;text-indent:0;text-align:start;text-decoration:none;text-decoration-line:none;text-decoration-style:solid;text-decoration-color:#000000;letter-spacing:normal;word-spacing:normal;text-transform:none;direction:ltr;block-progression:tb;writing-mode:lr-tb;baseline-shift:baseline;text-anchor:start;white-space:normal;clip-rule:nonzero;display:inline;overflow:visible;visibility:visible;opacity:0.2;isolation:auto;mix-blend-mode:normal;color-interpolation:sRGB;color-interpolation-filters:linearRGB;solid-color:#000000;solid-opacity:1;fill:url(#linearGradient4251);fill-opacity:1;fill-rule:nonzero;stroke:none;stroke-width:2;stroke-linecap:round;stroke-linejoin:round;stroke-miterlimit:4;stroke-dasharray:none;stroke-dashoffset:0;stroke-opacity:1;color-rendering:auto;image-rendering:auto;shape-rendering:auto;text-rendering:auto;enable-background:accumulate"
     d="M 70.150391 18.005859 C 69.429097 18.059726 68.620018 18.528697 67.964844 19.570312 L 64.990234 25.148438 L 62.416016 30.839844 L 59.269531 37.048828 L 57.09375 42.154297 L 54.677734 41.142578 L 51.197266 39.650391 L 50.345703 39.650391 L 49.619141 39.853516 L 48.447266 41.384766 L 45.048828 45.849609 L 45.208984 46.292969 L 45.572266 46.816406 L 48.080078 48.304688 L 51.236328 50.236328 C 55.043148 52.543673 57.255547 55.559329 61.363281 56.716797 L 66.476562 57.308594 L 67.337891 57.308594 L 67.392578 57.085938 L 68.136719 52.529297 L 68.746094 48.847656 L 68.806641 48.060547 L 68.361328 47.234375 L 65.365234 45.867188 L 63.626953 45.123047 L 62.564453 44.443359 L 62.443359 44.390625 L 62.585938 44.162109 L 64.363281 39.779297 L 65.962891 35.908203 L 67.964844 30.673828 L 69.511719 26.96875 L 70.826172 23.669922 L 71.90625 20.472656 C 72.310328 18.979996 71.352546 17.916082 70.150391 18.005859 z M 70.210938 18.998047 C 70.332425 18.990702 70.439292 19.007306 70.525391 19.035156 C 70.869262 19.146387 71.15203 19.417876 70.941406 20.205078 L 69.886719 23.324219 L 68.585938 26.591797 L 67.041016 30.287109 A 1.0001 1.0001 0 0 0 67.029297 30.316406 L 65.033203 35.539062 L 63.4375 39.398438 A 1.0001 1.0001 0 0 0 63.435547 39.404297 L 61.691406 43.707031 L 61.595703 43.861328 A 1.0001 1.0001 0 0 0 62.050781 45.310547 L 62.095703 45.330078 L 63.089844 45.964844 A 1.0001 1.0001 0 0 0 63.234375 46.041016 L 64.960938 46.78125 L 67.640625 48.003906 L 67.787109 48.277344 L 67.753906 48.726562 L 67.150391 52.367188 A 1.0001 1.0001 0 0 0 67.150391 52.369141 L 66.507812 56.304688 L 61.589844 55.738281 C 57.859076 54.668022 55.728133 51.792607 51.757812 49.384766 L 51.753906 49.380859 L 48.601562 47.453125 A 1.0001 1.0001 0 0 0 48.589844 47.445312 L 46.269531 46.068359 L 46.207031 45.978516 L 49.242188 41.990234 L 50.208984 40.726562 L 50.480469 40.650391 L 50.990234 40.650391 L 54.283203 42.0625 A 1.0001 1.0001 0 0 0 54.291016 42.066406 L 56.708984 43.076172 A 1.0001 1.0001 0 0 0 58.013672 42.544922 L 60.175781 37.470703 L 63.308594 31.292969 A 1.0001 1.0001 0 0 0 63.328125 31.251953 L 65.886719 25.591797 L 68.814453 20.099609 C 69.342998 19.262243 69.846476 19.020082 70.210938 18.998047 z "
     id="path4240" />
  <path
     style="opacity:0.15;fill:url(#linearGradient4199);fill-opacity:1"
     d="M 65.365234 45.867188 C 65.365234 45.867188 61.792882 53.032766 61.392578 56.480469 C 56.631753 67.127305 48.576172 76.912109 48.576172 76.912109 L 48.009766 77.796875 L 51.087891 77.835938 C 54.336945 77.759817 56.484143 75.89258 58.408203 73.892578 L 60.431641 71.517578 L 62.009766 69.142578 L 63.181641 66.970703 L 65.044922 62.664062 L 66.458984 59.162109 L 67.146484 57.308594 L 67.337891 57.308594 L 67.392578 57.085938 L 68.136719 52.529297 L 68.746094 48.847656 L 68.806641 48.060547 L 68.361328 47.234375 L 65.365234 45.867188 z "
     id="path4191" />
  <path
     style="opacity:0.05;fill:#000000;fill-opacity:1"
     d="M 65.365234 45.867188 C 65.365234 45.867188 61.792882 53.032766 61.392578 56.480469 C 56.631753 67.127305 48.576172 76.912109 48.576172 76.912109 L 48.009766 77.796875 L 51.087891 77.835938 C 51.129337 77.834966 51.165942 77.825769 51.207031 77.824219 L 49 77.796875 L 49.566406 76.912109 C 49.566406 76.912109 57.621988 67.127305 62.382812 56.480469 C 62.751502 53.305051 65.696783 47.218188 66.177734 46.238281 L 65.365234 45.867188 z "
     id="path4204" />
</svg>
