<?xml version="1.0" encoding="UTF-8" standalone="no"?>
<svg
   xmlns:dc="http://purl.org/dc/elements/1.1/"
   xmlns:cc="http://creativecommons.org/ns#"
   xmlns:rdf="http://www.w3.org/1999/02/22-rdf-syntax-ns#"
   xmlns:svg="http://www.w3.org/2000/svg"
   xmlns="http://www.w3.org/2000/svg"
   xmlns:xlink="http://www.w3.org/1999/xlink"
   version="1.0"
   width="96"
   height="96"
   id="svg2408"
   style="display:inline">
  <defs
     id="defs2410">
    <linearGradient
       id="linearGradient924">
      <stop
         style="stop-color:#8ac24a;stop-opacity:1"
         offset="0"
         id="stop920" />
      <stop
         style="stop-color:#679046;stop-opacity:1"
         offset="1"
         id="stop922" />
    </linearGradient>
    <linearGradient
       id="linearGradient899">
      <stop
         id="stop895"
         style="stop-color:#ffc014;stop-opacity:1"
         offset="0" />
      <stop
         id="stop897"
         style="stop-color:#e58400;stop-opacity:1"
         offset="1" />
    </linearGradient>
    <linearGradient
       id="linearGradient3849">
      <stop
         style="stop-color:#fefefe;stop-opacity:1;"
         offset="0"
         id="stop3851" />
      <stop
         style="stop-color:#c6c6c6;stop-opacity:1;"
         offset="1"
         id="stop3853" />
    </linearGradient>
    <linearGradient
       x1="45.447727"
       y1="92.539597"
       x2="45.447727"
       y2="7.0165396"
       id="ButtonShadow"
       gradientUnits="userSpaceOnUse"
       gradientTransform="matrix(1.0058652,0,0,0.994169,100,0)">
      <stop
         id="stop3750"
         style="stop-color:#000000;stop-opacity:1"
         offset="0" />
      <stop
         id="stop3752"
         style="stop-color:#000000;stop-opacity:0.58823532"
         offset="1" />
    </linearGradient>
    <linearGradient
       id="linearGradient3737">
      <stop
         id="stop3739"
         style="stop-color:#fefefe;stop-opacity:1"
         offset="0" />
      <stop
         id="stop3741"
         style="stop-color:#fefefe;stop-opacity:0"
         offset="1" />
    </linearGradient>
    <linearGradient
       id="linearGradient3700">
      <stop
         id="stop3702"
         style="stop-color:#70a83e;stop-opacity:1"
         offset="0" />
      <stop
         id="stop3704"
         style="stop-color:#9fd058;stop-opacity:1"
         offset="1" />
    </linearGradient>
    <filter
       color-interpolation-filters="sRGB"
       id="filter3174">
      <feGaussianBlur
         id="feGaussianBlur3176"
         stdDeviation="1.71" />
    </filter>
    <linearGradient
       x1="36.357143"
       y1="6"
       x2="36.357143"
       y2="63.893143"
       id="linearGradient3188"
       xlink:href="#linearGradient3737"
       gradientUnits="userSpaceOnUse" />
    <filter
       x="-0.192"
       y="-0.192"
       width="1.3839999"
       height="1.3839999"
       color-interpolation-filters="sRGB"
       id="filter3794">
      <feGaussianBlur
         id="feGaussianBlur3796"
         stdDeviation="5.28" />
    </filter>
    <linearGradient
       x1="48"
       y1="20.220806"
       x2="48"
       y2="138.66119"
       id="linearGradient3613"
       xlink:href="#linearGradient3737"
       gradientUnits="userSpaceOnUse" />
    <radialGradient
       cx="48"
       cy="90.171875"
       r="42"
       fx="48"
       fy="90.171875"
       id="radialGradient3619"
       xlink:href="#linearGradient3737"
       gradientUnits="userSpaceOnUse"
       gradientTransform="matrix(1.1573129,0,0,0.99590774,-7.5510206,0.19713193)" />
    <clipPath
       id="clipPath3613">
      <rect
         width="84"
         height="84"
         rx="6"
         ry="6"
         x="6"
         y="6"
         id="rect3615"
         style="fill:#fefefe;fill-opacity:1;fill-rule:nonzero;stroke:none" />
    </clipPath>
    <linearGradient
       x1="48"
       y1="90"
       x2="48"
       y2="5.9877172"
       id="linearGradient3617"
       xlink:href="#linearGradient3700"
       gradientUnits="userSpaceOnUse" />
    <linearGradient
       x1="48"
       y1="90"
       x2="48"
       y2="5.9877172"
       id="linearGradient3878"
       xlink:href="#linearGradient3700"
       gradientUnits="userSpaceOnUse" />
    <linearGradient
       id="linearGradient3700-4">
      <stop
         id="stop3702-4"
         style="stop-color:#70a83e;stop-opacity:1"
         offset="0" />
      <stop
         id="stop3704-4"
         style="stop-color:#9fd058;stop-opacity:1"
         offset="1" />
    </linearGradient>
    <clipPath
       id="clipPath2973">
      <rect
         width="84"
         height="84"
         rx="6"
         ry="6"
         x="6"
         y="6"
         id="rect2975"
         style="fill:url(#linearGradient2977);fill-opacity:1;fill-rule:nonzero;stroke:none" />
    </clipPath>
    <linearGradient
       x1="48"
       y1="90"
       x2="48"
       y2="5.9877172"
       id="linearGradient2977"
       xlink:href="#linearGradient3700-4"
       gradientUnits="userSpaceOnUse" />
    <linearGradient
       x1="48"
       y1="90"
       x2="48"
       y2="5.9877172"
       id="linearGradient3708"
       xlink:href="#linearGradient899"
       gradientUnits="userSpaceOnUse"
       gradientTransform="translate(0,-96)" />
    <linearGradient
       id="linearGradient2867-449-88-871-390-598-476-591-434-148">
      <stop
         id="stop4631"
         style="stop-color:#f61414;stop-opacity:1;"
         offset="0" />
      <stop
         id="stop4633"
         style="stop-color:#8d0000;stop-opacity:1;"
         offset="1" />
    </linearGradient>
    <linearGradient
       id="linearGradient3202">
      <stop
         id="stop3204"
         style="stop-color:#fefefe;stop-opacity:1"
         offset="0" />
      <stop
         id="stop3206"
         style="stop-color:#ced3d6;stop-opacity:1"
         offset="1" />
    </linearGradient>
    <linearGradient
       x1="116.29638"
       y1="32.374962"
       x2="116.29638"
       y2="226.17993"
       id="linearGradient2928"
       xlink:href="#linearGradient3202"
       gradientUnits="userSpaceOnUse"
       gradientTransform="matrix(0.32811093,0,0,0.34059034,6.3606404,3.973393)" />
    <linearGradient
       x1="32.251034"
       y1="6.1317081"
       x2="32.251034"
       y2="90.238609"
       id="linearGradient3721"
       xlink:href="#ButtonShadow"
       gradientUnits="userSpaceOnUse"
       gradientTransform="translate(0,-97)" />
    <linearGradient
       x1="32.251034"
       y1="6.1317081"
       x2="32.251034"
       y2="90.238609"
       id="linearGradient3725"
       xlink:href="#ButtonShadow"
       gradientUnits="userSpaceOnUse"
       gradientTransform="matrix(1.0238095,0,0,1.0119048,-1.1428571,-98.071429)" />
    <linearGradient
       x1="32.251034"
       y1="6.1317081"
       x2="32.251034"
       y2="90.238609"
       id="linearGradient3772"
       xlink:href="#ButtonShadow"
       gradientUnits="userSpaceOnUse"
       gradientTransform="matrix(1.0238095,0,0,1.0119048,-1.1428571,-98.071429)" />
    <linearGradient
       x1="32.251034"
       y1="6.1317081"
       x2="32.251034"
       y2="90.238609"
       id="linearGradient3780"
       xlink:href="#ButtonShadow"
       gradientUnits="userSpaceOnUse"
       gradientTransform="matrix(1.0238095,0,0,1.0119048,-1.1428571,-98.071429)" />
    <linearGradient
       x1="32.251034"
       y1="6.1317081"
       x2="32.251034"
       y2="90.238609"
       id="linearGradient3788"
       xlink:href="#ButtonShadow"
       gradientUnits="userSpaceOnUse"
       gradientTransform="matrix(1.0238095,0,0,1.0119048,-1.1428571,-98.071429)" />
    <clipPath
       clipPathUnits="userSpaceOnUse"
       id="clipPath3841">
      <rect
         style="fill:url(#linearGradient3845);fill-opacity:1;fill-rule:nonzero;stroke:none"
         id="rect3843"
         transform="scale(1,-1)"
         y="-98.027832"
         x="5.2821541"
         ry="6.5570955"
         rx="5.5600619"
         height="91.799339"
         width="77.840866" />
    </clipPath>
    <linearGradient
       xlink:href="#linearGradient2867-449-88-871-390-598-476-591-434-148"
       id="linearGradient3845"
       gradientUnits="userSpaceOnUse"
       gradientTransform="matrix(0.92667696,0,0,1.0928493,-0.27790789,-104.58493)"
       x1="48"
       y1="90"
       x2="48"
       y2="5.9877172" />
    <radialGradient
       xlink:href="#linearGradient924"
       id="radialGradient926-3"
       cx="40.199158"
       cy="-1.5012965"
       fx="40.199158"
       fy="-1.5012965"
       r="23.715782"
       gradientTransform="matrix(1.4635271,-0.01133976,0.00383667,0.49516645,-11.211385,30.004287)"
       gradientUnits="userSpaceOnUse" />
    <radialGradient
       xlink:href="#linearGradient924"
       id="radialGradient926-35"
       cx="35.652405"
       cy="-7.0837426"
       fx="35.652405"
       fy="-7.0837426"
       r="23.715782"
       gradientTransform="matrix(0.92733103,0.00560172,-0.00739673,1.2244829,15.997759,64.541046)"
       gradientUnits="userSpaceOnUse" />
    <radialGradient
       xlink:href="#linearGradient924"
       id="radialGradient926-1"
       cx="54.054287"
       cy="-26.675997"
       fx="54.054287"
       fy="-26.675997"
       r="23.715782"
       gradientTransform="matrix(0.60228508,0.23584548,-0.41456659,1.0586901,-23.194739,68.798802)"
       gradientUnits="userSpaceOnUse" />
    <radialGradient
       xlink:href="#linearGradient924"
       id="radialGradient926-1-9"
       cx="54.054287"
       cy="-26.675997"
       fx="54.054287"
       fy="-26.675997"
       r="23.715782"
       gradientTransform="matrix(-0.60228508,0.23584548,0.41456659,1.0586901,119.1235,68.725612)"
       gradientUnits="userSpaceOnUse" />
    <radialGradient
       xlink:href="#linearGradient924"
       id="radialGradient926-1-9-6"
       cx="54.054287"
       cy="-26.675997"
       fx="54.054287"
       fy="-26.675997"
       r="23.715782"
       gradientTransform="matrix(-0.60228508,0.23584548,0.41456659,1.0586901,119.27026,68.375951)"
       gradientUnits="userSpaceOnUse" />
  </defs>
  <metadata
     id="metadata2413">
    <rdf:RDF>
      <cc:Work
         rdf:about="">
        <dc:format>image/svg+xml</dc:format>
        <dc:type
           rdf:resource="http://purl.org/dc/dcmitype/StillImage" />
        <dc:title></dc:title>
      </cc:Work>
    </rdf:RDF>
  </metadata>
  <g
     id="layer2"
     style="display:none">
    <rect
       width="86"
       height="85"
       rx="6"
       ry="6"
       x="105"
       y="7"
       id="rect3745"
       style="opacity:0.9;fill:url(#ButtonShadow);fill-opacity:1;fill-rule:nonzero;stroke:none;filter:url(#filter3174)" />
  </g>
  <g
     id="layer3">
    <path
       d="m 12,-95.03125 c -5.5110903,0 -10.03125,4.52016 -10.03125,10.03125 l 0,71 c 0,5.5110902 4.5201598,10.03125 10.03125,10.03125 l 72,0 c 5.51109,0 10.03125,-4.5201597 10.03125,-10.03125 l 0,-71 c 0,-5.51109 -4.52016,-10.03125 -10.03125,-10.03125 l -72,0 z"
       transform="scale(1,-1)"
       id="path3786"
       style="opacity:0.07999998;fill:url(#linearGradient3788);fill-opacity:1;fill-rule:nonzero;stroke:none;display:inline" />
    <path
       d="m 12,-94.03125 c -4.971633,0 -9.03125,4.059617 -9.03125,9.03125 l 0,71 c 0,4.9716329 4.0596171,9.03125 9.03125,9.03125 l 72,0 c 4.971633,0 9.03125,-4.059617 9.03125,-9.03125 l 0,-71 c 0,-4.971633 -4.059617,-9.03125 -9.03125,-9.03125 l -72,0 z"
       transform="scale(1,-1)"
       id="path3778"
       style="opacity:0.1;fill:url(#linearGradient3780);fill-opacity:1;fill-rule:nonzero;stroke:none;display:inline" />
    <path
       d="m 12,-93 c -4.4091333,0 -8,3.590867 -8,8 l 0,71 c 0,4.4091333 3.5908667,8 8,8 l 72,0 c 4.409133,0 8,-3.5908667 8,-8 l 0,-71 c 0,-4.409133 -3.590867,-8 -8,-8 l -72,0 z"
       transform="scale(1,-1)"
       id="path3770"
       style="opacity:0.2;fill:url(#linearGradient3772);fill-opacity:1;fill-rule:nonzero;stroke:none;display:inline" />
    <rect
       width="86"
       height="85"
       rx="7"
       ry="7"
       x="5"
       y="-92"
       transform="scale(1,-1)"
       id="rect3723"
       style="opacity:0.3;fill:url(#linearGradient3725);fill-opacity:1;fill-rule:nonzero;stroke:none;display:inline" />
    <rect
       width="84"
       height="84"
       rx="6"
       ry="6"
       x="6"
       y="-91"
       transform="scale(1,-1)"
       id="rect3716"
       style="opacity:0.45;fill:url(#linearGradient3721);fill-opacity:1;fill-rule:nonzero;stroke:none;display:inline" />
  </g>
  <g
     id="layer1">
    <rect
       width="84"
       height="84"
       rx="6"
       ry="6"
       x="6"
       y="-90"
       transform="scale(1,-1)"
       id="rect2419"
       style="fill:url(#linearGradient3708);fill-opacity:1;fill-rule:nonzero;stroke:none" />
    <path
       d="M 12,6 C 8.676,6 6,8.676 6,12 l 0,2 0,68 0,2 c 0,0.334721 0.04135,0.6507 0.09375,0.96875 0.0487,0.295596 0.09704,0.596915 0.1875,0.875 0.00988,0.03038 0.020892,0.0636 0.03125,0.09375 0.098865,0.287771 0.2348802,0.547452 0.375,0.8125 0.1445918,0.273507 0.3156161,0.535615 0.5,0.78125 0.1843839,0.245635 0.3737765,0.473472 0.59375,0.6875 0.439947,0.428056 0.94291,0.814526 1.5,1.09375 0.278545,0.139612 0.5734731,0.246947 0.875,0.34375 -0.2562018,-0.100222 -0.4867109,-0.236272 -0.71875,-0.375 -0.00741,-0.0044 -0.023866,0.0045 -0.03125,0 -0.031933,-0.0193 -0.062293,-0.04251 -0.09375,-0.0625 -0.120395,-0.0767 -0.2310226,-0.163513 -0.34375,-0.25 -0.1061728,-0.0808 -0.2132809,-0.161112 -0.3125,-0.25 C 8.4783201,88.557317 8.3087904,88.373362 8.15625,88.1875 8.0486711,88.057245 7.9378561,87.922215 7.84375,87.78125 7.818661,87.74287 7.805304,87.69538 7.78125,87.65625 7.716487,87.553218 7.6510225,87.451733 7.59375,87.34375 7.4927417,87.149044 7.3880752,86.928049 7.3125,86.71875 7.30454,86.69694 7.288911,86.6782 7.28125,86.65625 7.2494249,86.5643 7.2454455,86.469419 7.21875,86.375 7.1884177,86.268382 7.1483606,86.171969 7.125,86.0625 7.0521214,85.720988 7,85.364295 7,85 L 7,83 7,15 7,13 C 7,10.218152 9.2181517,8 12,8 l 2,0 68,0 2,0 c 2.781848,0 5,2.218152 5,5 l 0,2 0,68 0,2 c 0,0.364295 -0.05212,0.720988 -0.125,1.0625 -0.04415,0.206893 -0.08838,0.397658 -0.15625,0.59375 -0.0077,0.02195 -0.0233,0.04069 -0.03125,0.0625 -0.06274,0.173739 -0.138383,0.367449 -0.21875,0.53125 -0.04158,0.0828 -0.07904,0.169954 -0.125,0.25 -0.0546,0.09721 -0.126774,0.18835 -0.1875,0.28125 -0.09411,0.140965 -0.204921,0.275995 -0.3125,0.40625 -0.143174,0.17445 -0.303141,0.346998 -0.46875,0.5 -0.01117,0.0102 -0.01998,0.02115 -0.03125,0.03125 -0.138386,0.125556 -0.285091,0.234436 -0.4375,0.34375 -0.102571,0.07315 -0.204318,0.153364 -0.3125,0.21875 -0.0074,0.0045 -0.02384,-0.0044 -0.03125,0 -0.232039,0.138728 -0.462548,0.274778 -0.71875,0.375 0.301527,-0.0968 0.596455,-0.204138 0.875,-0.34375 0.55709,-0.279224 1.060053,-0.665694 1.5,-1.09375 0.219973,-0.214028 0.409366,-0.441865 0.59375,-0.6875 0.184384,-0.245635 0.355408,-0.507743 0.5,-0.78125 0.14012,-0.265048 0.276135,-0.524729 0.375,-0.8125 0.01041,-0.03078 0.02133,-0.06274 0.03125,-0.09375 0.09046,-0.278085 0.1388,-0.579404 0.1875,-0.875 C 89.95865,84.6507 90,84.334721 90,84 l 0,-2 0,-68 0,-2 C 90,8.676 87.324,6 84,6 L 12,6 z"
       id="rect3728"
       style="opacity:0.4;fill:url(#linearGradient3188);fill-opacity:1;fill-rule:nonzero;stroke:none" />
    <path
       d="M 12,90 C 8.676,90 6,87.324 6,84 L 6,82 6,14 6,12 c 0,-0.334721 0.04135,-0.6507 0.09375,-0.96875 0.0487,-0.295596 0.09704,-0.596915 0.1875,-0.875 C 6.29113,10.12587 6.302142,10.09265 6.3125,10.0625 6.411365,9.774729 6.5473802,9.515048 6.6875,9.25 6.8320918,8.976493 7.0031161,8.714385 7.1875,8.46875 7.3718839,8.223115 7.5612765,7.995278 7.78125,7.78125 8.221197,7.353194 8.72416,6.966724 9.28125,6.6875 9.559795,6.547888 9.8547231,6.440553 10.15625,6.34375 9.9000482,6.443972 9.6695391,6.580022 9.4375,6.71875 c -0.00741,0.0044 -0.023866,-0.0045 -0.03125,0 -0.031933,0.0193 -0.062293,0.04251 -0.09375,0.0625 -0.120395,0.0767 -0.2310226,0.163513 -0.34375,0.25 -0.1061728,0.0808 -0.2132809,0.161112 -0.3125,0.25 C 8.4783201,7.442683 8.3087904,7.626638 8.15625,7.8125 8.0486711,7.942755 7.9378561,8.077785 7.84375,8.21875 7.818661,8.25713 7.805304,8.30462 7.78125,8.34375 7.716487,8.446782 7.6510225,8.548267 7.59375,8.65625 7.4927417,8.850956 7.3880752,9.071951 7.3125,9.28125 7.30454,9.30306 7.288911,9.3218 7.28125,9.34375 7.2494249,9.4357 7.2454455,9.530581 7.21875,9.625 7.1884177,9.731618 7.1483606,9.828031 7.125,9.9375 7.0521214,10.279012 7,10.635705 7,11 l 0,2 0,68 0,2 c 0,2.781848 2.2181517,5 5,5 l 2,0 68,0 2,0 c 2.781848,0 5,-2.218152 5,-5 l 0,-2 0,-68 0,-2 C 89,10.635705 88.94788,10.279012 88.875,9.9375 88.83085,9.730607 88.78662,9.539842 88.71875,9.34375 88.71105,9.3218 88.69545,9.30306 88.6875,9.28125 88.62476,9.107511 88.549117,8.913801 88.46875,8.75 88.42717,8.6672 88.38971,8.580046 88.34375,8.5 88.28915,8.40279 88.216976,8.31165 88.15625,8.21875 88.06214,8.077785 87.951329,7.942755 87.84375,7.8125 87.700576,7.63805 87.540609,7.465502 87.375,7.3125 87.36383,7.3023 87.35502,7.29135 87.34375,7.28125 87.205364,7.155694 87.058659,7.046814 86.90625,6.9375 86.803679,6.86435 86.701932,6.784136 86.59375,6.71875 c -0.0074,-0.0045 -0.02384,0.0044 -0.03125,0 -0.232039,-0.138728 -0.462548,-0.274778 -0.71875,-0.375 0.301527,0.0968 0.596455,0.204138 0.875,0.34375 0.55709,0.279224 1.060053,0.665694 1.5,1.09375 0.219973,0.214028 0.409366,0.441865 0.59375,0.6875 0.184384,0.245635 0.355408,0.507743 0.5,0.78125 0.14012,0.265048 0.276135,0.524729 0.375,0.8125 0.01041,0.03078 0.02133,0.06274 0.03125,0.09375 0.09046,0.278085 0.1388,0.579404 0.1875,0.875 C 89.95865,11.3493 90,11.665279 90,12 l 0,2 0,68 0,2 c 0,3.324 -2.676,6 -6,6 l -72,0 z"
       id="path3615"
       style="opacity:0.2;fill:url(#radialGradient3619);fill-opacity:1;fill-rule:nonzero;stroke:none" />
    <path
       id="rect917-5"
       style="display:inline;fill:url(#radialGradient926-3);fill-opacity:1;stroke:none;stroke-width:1.3"
       d="m 28.036054,25.424326 10.588158,-5.249993 18.782921,0.01893 7.783429,3.813451 4.582599,2.181872 -0.475796,6.965683 -7.393565,3.181252 -2.848861,4.46775 -20.055097,-1.490557 -11.887426,-8.441878 z" />
    <path
       id="rect917-9"
       style="display:inline;fill:url(#radialGradient926-35);fill-opacity:1;stroke:none;stroke-width:1.3"
       d="m 38.396611,40.912238 10.31277,-0.884444 8.766904,1.758329 10.62308,21.406213 2.007095,6.494797 -15.532811,7.606531 -14.230086,-0.09871 -15.231232,-7.243452 z" />
    <path
       id="rect917-0"
       style="display:inline;fill:url(#radialGradient926-1);fill-opacity:1;stroke:none;stroke-width:1.3"
       d="m 13.05027,50.420967 8.942989,-15.079423 4.344875,-2.85541 3.449342,0.965473 7.086344,7.424854 L 25.112331,69.951502 18.442503,69.675629 11.170995,67.74733 8.0983062,67.408032 9.7018607,62.648707 Z" />
    <path
       id="rect917-0-0"
       style="display:inline;fill:url(#radialGradient926-1-9-6);fill-opacity:1;stroke:none;stroke-width:1.3"
       d="m 83.025249,49.998116 -8.942989,-15.079423 -4.344875,-2.85541 -3.449342,0.965473 -7.882272,7.041449 12.557417,29.458446 7.705375,0.797207 6.235961,-3.001379 3.072689,-0.339298 -1.603555,-4.759325 z" />
    <path
       style="opacity:1;fill:#33691e;fill-opacity:1;stroke-width:0.193362"
       d="M 39.61791,78.399914 C 39.086167,78.149128 37.476435,77.220725 36.040729,76.336798 32.670648,74.261923 30.541135,73.24931 27.439787,72.246934 l -2.510069,-0.811271 -3.323897,0.355228 -3.323899,0.355223 -2.480561,-0.633171 c -1.62405,-0.414542 -2.95614,-0.893225 -3.857895,-1.386324 -0.757533,-0.414235 -1.614264,-0.753152 -1.903847,-0.753152 -0.2895837,0 -1.2625883,0.401232 -2.1622319,0.891626 -0.8996435,0.490399 -1.6783899,0.848955 -1.7305491,0.796796 -0.2254049,-0.225404 2.0092889,-8.504571 3.952572,-14.64362 2.000199,-6.318858 2.238476,-6.936307 4.514441,-11.698346 1.695144,-3.54678 3.01877,-5.994003 4.494352,-8.309518 1.150363,-1.80517 3.29292,-5.329176 4.761243,-7.831125 1.46832,-2.501947 2.788143,-4.683163 2.932938,-4.847143 0.144796,-0.163982 2.739474,-1.35243 5.765951,-2.640995 l 5.502686,-2.342847 4.060583,-0.334219 c 4.391167,-0.361429 9.253064,-0.300428 13.728638,0.172246 2.286654,0.241497 2.384889,0.272516 6.767638,2.136906 2.446019,1.040516 4.925876,2.107672 5.510793,2.371454 l 1.063489,0.479606 2.803736,4.766601 c 1.542051,2.621631 3.709315,6.204731 4.816142,7.962444 1.338271,2.125267 2.840479,4.923017 4.484347,8.351753 2.352193,4.906146 2.57236,5.472843 4.544893,11.698346 1.758854,5.551116 4.21036,14.512862 4.029125,14.728924 -0.03016,0.03593 -0.827709,-0.333879 -1.772387,-0.821789 -0.944679,-0.487905 -1.962553,-0.8871 -2.261948,-0.8871 -0.299395,0 -1.057167,0.311516 -1.683947,0.692267 -0.766469,0.465604 -1.97764,0.91677 -3.699152,1.377945 l -2.559562,0.685681 -3.450984,-0.350322 -3.450983,-0.350321 -2.253167,0.738306 c -3.410039,1.11738 -5.34417,2.013668 -8.281605,3.837761 -1.470046,0.912876 -3.270317,1.93904 -4.000599,2.28037 l -1.327783,0.620604 -2.636119,-0.162294 c -3.184796,-0.196077 -5.403905,-0.201617 -9.113718,-0.02276 -2.688929,0.12964 -2.843325,0.116504 -3.770541,-0.320794 z m 8.411208,-2.325797 c 0.903963,0.0017 2.819588,0.07293 4.256946,0.158636 3.040773,0.181321 2.670143,0.303955 6.782297,-2.244127 2.954156,-1.830535 4.924944,-2.778572 7.813466,-3.758625 1.169835,-0.396911 2.206842,-0.792719 2.304458,-0.879572 0.235579,-0.209595 -0.07237,-1.215779 -1.38363,-4.520949 -2.282962,-5.754405 -8.287418,-18.405125 -10.232981,-21.559746 -0.877182,-1.422304 -1.287819,-1.645462 -4.160147,-2.260819 -2.221659,-0.475959 -8.859118,-0.47064 -10.987881,0.0088 -3.037145,0.684037 -3.11269,0.729184 -4.156501,2.483947 -1.935363,3.25357 -6.654186,13.078333 -9.314235,19.392581 -1.06195,2.520784 -2.440103,6.295081 -2.336444,6.39874 0.03047,0.03046 1.141453,0.442321 2.468842,0.915217 3.244375,1.155834 4.557597,1.774346 7.062338,3.326275 1.165305,0.722017 2.727823,1.653171 3.472264,2.069232 l 1.353528,0.756472 2.707055,-0.144441 c 1.48888,-0.07944 3.446662,-0.143173 4.350625,-0.14163 z M 23.933984,68.974763 c 0.0458,-0.04659 0.272917,-0.65028 0.504709,-1.341547 1.716785,-5.119922 8.704589,-20.369192 11.626583,-25.372335 l 0.808544,-1.38442 -2.16309,-2.098951 c -2.086959,-2.025079 -3.903747,-3.357913 -6.637157,-4.86916 -1.483954,-0.820449 -1.163205,-0.894911 -3.890018,0.903078 -1.817324,1.198297 -1.902084,1.287776 -3.35196,3.538646 -0.872044,1.353811 -2.501558,4.429341 -3.938417,7.433336 -2.370416,4.955748 -2.521356,5.349555 -4.594945,11.988388 -3.0038106,9.617048 -2.911235,9.184206 -1.933615,9.04072 0.487953,-0.07161 0.933294,0.09501 2.078632,0.777727 1.043199,0.621836 2.103266,1.041811 3.728441,1.477129 l 2.270812,0.608255 2.704105,-0.308087 c 1.487258,-0.169445 2.741578,-0.346193 2.787376,-0.392779 z m 59.480218,-1.335311 c 1.308358,-0.740867 1.771736,-0.910801 2.271995,-0.833235 0.345629,0.05359 0.628423,0.03486 0.628423,-0.04162 0,-0.411712 -0.826083,-3.213972 -2.728287,-9.254973 -2.016572,-6.404234 -2.240192,-6.986612 -4.491862,-11.698346 -1.336923,-2.797582 -3.032804,-5.999864 -3.891323,-7.347875 l -1.521687,-2.389287 -2.19205,-1.459924 -2.192046,-1.459923 -1.01441,0.547033 c -3.195206,1.723056 -4.855593,2.942419 -7.729565,5.676471 l -1.498451,1.425498 0.683293,1.184877 c 3.202269,5.552946 10.330284,21.065077 11.78423,25.645058 0.185684,0.584916 0.416875,1.149096 0.513754,1.253732 0.09688,0.104634 1.36962,0.325499 2.828309,0.490805 l 2.652161,0.300562 2.126973,-0.554095 c 1.487845,-0.387594 2.620846,-0.833747 3.770543,-1.484768 z M 45.25806,38.213643 c 3.265543,-0.259234 7.376028,-0.0033 9.804886,0.610576 0.837666,0.211702 1.656379,0.384912 1.819358,0.384912 0.162983,0 1.17436,-0.852312 2.247511,-1.894028 2.382478,-2.312696 3.849169,-3.430742 6.647024,-5.066971 l 2.14913,-1.256847 0.0097,-1.526043 c 0.0062,-0.986024 -0.125628,-1.978177 -0.37268,-2.803737 L 67.180612,25.383812 62.29387,23.308203 57.407133,21.232591 54.216675,20.940312 c -4.022684,-0.368517 -8.280177,-0.3717 -12.388557,-0.0093 l -3.203906,0.282649 -4.917261,2.088399 -4.917262,2.088401 -0.347665,1.060141 c -0.191217,0.583076 -0.399034,1.808541 -0.461818,2.723255 l -0.114155,1.663114 2.492113,1.499366 c 2.770272,1.666724 4.141346,2.723258 6.82374,5.258304 l 1.817938,1.718073 1.74358,-0.439566 c 0.958971,-0.241763 2.990558,-0.538558 4.51464,-0.659546 z"
       id="path915" />
  </g>
</svg>
