<?xml version="1.0" encoding="UTF-8" standalone="no"?>
<svg
   xmlns:dc="http://purl.org/dc/elements/1.1/"
   xmlns:cc="http://creativecommons.org/ns#"
   xmlns:rdf="http://www.w3.org/1999/02/22-rdf-syntax-ns#"
   xmlns:svg="http://www.w3.org/2000/svg"
   xmlns="http://www.w3.org/2000/svg"
   xmlns:xlink="http://www.w3.org/1999/xlink"
   xmlns:sodipodi="http://sodipodi.sourceforge.net/DTD/sodipodi-0.dtd"
   xmlns:inkscape="http://www.inkscape.org/namespaces/inkscape"
   version="1.0"
   width="96"
   height="96"
   id="svg2408"
   sodipodi:docname="desktop-environment-gnome.svg"
   inkscape:version="0.92.2 2405546, 2018-03-11">
  <sodipodi:namedview
     pagecolor="#ffffff"
     bordercolor="#666666"
     borderopacity="1"
     objecttolerance="10"
     gridtolerance="10"
     guidetolerance="10"
     inkscape:pageopacity="0"
     inkscape:pageshadow="2"
     inkscape:window-width="1920"
     inkscape:window-height="1011"
     id="namedview87"
     showgrid="false"
     inkscape:zoom="2.4583333"
     inkscape:cx="-124.65072"
     inkscape:cy="63.687662"
     inkscape:window-x="0"
     inkscape:window-y="32"
     inkscape:window-maximized="1"
     inkscape:current-layer="svg2408" />
  <defs
     id="defs2410">
    <linearGradient
       id="linearGradient1026">
      <stop
         style="stop-color:#c9d4dc;stop-opacity:1"
         offset="0"
         id="stop1022" />
      <stop
         style="stop-color:#f0ffff;stop-opacity:1"
         offset="1"
         id="stop1024" />
    </linearGradient>
    <linearGradient
       id="linearGradient1020">
      <stop
         style="stop-color:#f3f8ff;stop-opacity:1"
         offset="0"
         id="stop1016" />
      <stop
         style="stop-color:#2e3436;stop-opacity:0;"
         offset="1"
         id="stop1018" />
    </linearGradient>
    <linearGradient
       id="linearGradient1014">
      <stop
         id="stop1010"
         offset="0"
         style="stop-color:#a5a9ab;stop-opacity:1" />
      <stop
         id="stop1012"
         offset="1"
         style="stop-color:#d7e0e4;stop-opacity:1" />
    </linearGradient>
    <linearGradient
       id="linearGradient4863">
      <stop
         offset="0"
         style="stop-color:#0072c6;stop-opacity:1"
         id="stop4859" />
      <stop
         offset="1"
         style="stop-color:#4290f9;stop-opacity:1"
         id="stop4861" />
    </linearGradient>
    <linearGradient
       id="linearGradient4844">
      <stop
         id="stop4840"
         offset="0"
         style="stop-color:#006cff;stop-opacity:1" />
      <stop
         id="stop4842"
         offset="1"
         style="stop-color:#00b205;stop-opacity:1" />
    </linearGradient>
    <linearGradient
       id="linearGradient4802">
      <stop
         style="stop-color:#ff002c;stop-opacity:1"
         offset="0"
         id="stop4798" />
      <stop
         style="stop-color:#2c33ff;stop-opacity:1"
         offset="1"
         id="stop4800" />
    </linearGradient>
    <linearGradient
       id="linearGradient4724">
      <stop
         id="stop4720"
         offset="0"
         style="stop-color:#ff7200;stop-opacity:1" />
      <stop
         id="stop4722"
         offset="1"
         style="stop-color:#e80000;stop-opacity:1" />
    </linearGradient>
    <linearGradient
       id="linearGradient4692">
      <stop
         style="stop-color:#000000;stop-opacity:1;"
         offset="0"
         id="stop4688" />
      <stop
         style="stop-color:#646464;stop-opacity:1"
         offset="1"
         id="stop4690" />
    </linearGradient>
    <linearGradient
       x1="45.447727"
       y1="92.539597"
       x2="45.447727"
       y2="7.0165396"
       id="ButtonShadow"
       gradientUnits="userSpaceOnUse"
       gradientTransform="scale(1.0058652,0.994169)">
      <stop
         id="stop3750"
         style="stop-color:#000000;stop-opacity:1"
         offset="0" />
      <stop
         id="stop3752"
         style="stop-color:#000000;stop-opacity:0.58823532"
         offset="1" />
    </linearGradient>
    <linearGradient
       id="linearGradient3737">
      <stop
         id="stop3739"
         style="stop-color:#fefefe;stop-opacity:1"
         offset="0" />
      <stop
         id="stop3741"
         style="stop-color:#fefefe;stop-opacity:0"
         offset="1" />
    </linearGradient>
    <linearGradient
       id="linearGradient3700">
      <stop
         id="stop3702"
         style="stop-color:#80aad1;stop-opacity:1"
         offset="0" />
      <stop
         id="stop3704"
         style="stop-color:#b3d7ff;stop-opacity:1"
         offset="1" />
    </linearGradient>
    <filter
       color-interpolation-filters="sRGB"
       id="filter3174">
      <feGaussianBlur
         id="feGaussianBlur3176"
         stdDeviation="1.71" />
    </filter>
    <linearGradient
       x1="36.357143"
       y1="6"
       x2="36.357143"
       y2="63.893143"
       id="linearGradient3188"
       xlink:href="#linearGradient3737"
       gradientUnits="userSpaceOnUse" />
    <filter
       x="-0.192"
       y="-0.192"
       width="1.3839999"
       height="1.3839999"
       color-interpolation-filters="sRGB"
       id="filter3794">
      <feGaussianBlur
         id="feGaussianBlur3796"
         stdDeviation="5.28" />
    </filter>
    <linearGradient
       x1="48"
       y1="20.220806"
       x2="48"
       y2="138.66119"
       id="linearGradient3613"
       xlink:href="#linearGradient3737"
       gradientUnits="userSpaceOnUse" />
    <radialGradient
       cx="48"
       cy="90.171875"
       r="42"
       fx="48"
       fy="90.171875"
       id="radialGradient3619"
       xlink:href="#linearGradient3737"
       gradientUnits="userSpaceOnUse"
       gradientTransform="matrix(1.1573129,0,0,0.99590774,-7.5510206,0.19713193)" />
    <clipPath
       id="clipPath3613">
      <rect
         width="84"
         height="84"
         rx="6"
         ry="6"
         x="6"
         y="6"
         id="rect3615"
         style="fill:#fefefe;fill-opacity:1;fill-rule:nonzero;stroke:none" />
    </clipPath>
    <linearGradient
       x1="48"
       y1="90"
       x2="48"
       y2="5.9877172"
       id="linearGradient3617"
       xlink:href="#linearGradient4863"
       gradientUnits="userSpaceOnUse" />
    <linearGradient
       x1="45.447727"
       y1="92.539597"
       x2="45.447727"
       y2="7.0165396"
       id="ButtonShadow-0"
       gradientUnits="userSpaceOnUse"
       gradientTransform="matrix(1.0058652,0,0,0.994169,100,0)">
      <stop
         id="stop3750-8"
         style="stop-color:#000000;stop-opacity:1"
         offset="0" />
      <stop
         id="stop3752-5"
         style="stop-color:#000000;stop-opacity:0.58823532"
         offset="1" />
    </linearGradient>
    <linearGradient
       x1="32.251034"
       y1="6.1317081"
       x2="32.251034"
       y2="90.238609"
       id="linearGradient3780"
       xlink:href="#ButtonShadow-0"
       gradientUnits="userSpaceOnUse"
       gradientTransform="matrix(1.0238095,0,0,1.0119048,-1.1428571,-98.071429)" />
    <linearGradient
       x1="32.251034"
       y1="6.1317081"
       x2="32.251034"
       y2="90.238609"
       id="linearGradient3772"
       xlink:href="#ButtonShadow-0"
       gradientUnits="userSpaceOnUse"
       gradientTransform="matrix(1.0238095,0,0,1.0119048,-1.1428571,-98.071429)" />
    <linearGradient
       x1="32.251034"
       y1="6.1317081"
       x2="32.251034"
       y2="90.238609"
       id="linearGradient3725"
       xlink:href="#ButtonShadow-0"
       gradientUnits="userSpaceOnUse"
       gradientTransform="matrix(1.0238095,0,0,1.0119048,-1.1428571,-98.071429)" />
    <linearGradient
       x1="32.251034"
       y1="6.1317081"
       x2="32.251034"
       y2="90.238609"
       id="linearGradient3721"
       xlink:href="#ButtonShadow-0"
       gradientUnits="userSpaceOnUse"
       gradientTransform="translate(0,-97)" />
    <linearGradient
       x1="32.251034"
       y1="6.1317081"
       x2="32.251034"
       y2="90.238609"
       id="linearGradient3026"
       xlink:href="#ButtonShadow-0"
       gradientUnits="userSpaceOnUse"
       gradientTransform="matrix(1.0238095,0,0,1.0119048,-1.1428571,-98.071429)" />
    <linearGradient
       x1="-41"
       y1="49"
       x2="72"
       y2="49"
       id="linearGradient4111"
       xlink:href="#linearGradient4086"
       gradientUnits="userSpaceOnUse"
       gradientTransform="matrix(0,1,-1,0,97,1)" />
    <linearGradient
       id="linearGradient4086">
      <stop
         id="stop4088"
         style="stop-color:#bebebe;stop-opacity:1"
         offset="0" />
      <stop
         id="stop4098"
         style="stop-color:#ebebeb;stop-opacity:1"
         offset="1" />
    </linearGradient>
    <radialGradient
       cx="48"
       cy="44"
       r="16"
       fx="48"
       fy="44"
       id="radialGradient3847-1"
       xlink:href="#linearGradient3841-9"
       gradientUnits="userSpaceOnUse" />
    <linearGradient
       id="linearGradient3841-9">
      <stop
         id="stop3843-9"
         style="stop-color:#fefefe;stop-opacity:1"
         offset="0" />
      <stop
         id="stop3849-7"
         style="stop-color:#fefefe;stop-opacity:0.33587787"
         offset="0.5" />
      <stop
         id="stop3845-4"
         style="stop-color:#000000;stop-opacity:0.16793893"
         offset="1" />
    </linearGradient>
    <linearGradient
       x1="15"
       y1="48"
       x2="120"
       y2="48"
       id="linearGradient3857-9"
       xlink:href="#linearGradient3851-2"
       gradientUnits="userSpaceOnUse"
       gradientTransform="matrix(0,-1,1,0,0,97)" />
    <linearGradient
       id="linearGradient3851-2">
      <stop
         id="stop3853-9"
         style="stop-color:#000000;stop-opacity:1"
         offset="0" />
      <stop
         id="stop3855-4"
         style="stop-color:#000000;stop-opacity:0"
         offset="1" />
    </linearGradient>
    <linearGradient
       x1="16"
       y1="49"
       x2="80"
       y2="49"
       id="linearGradient4223"
       xlink:href="#linearGradient4086"
       gradientUnits="userSpaceOnUse"
       gradientTransform="matrix(0,-1,1,0,-1,97)" />
    <linearGradient
       xlink:href="#linearGradient4692"
       id="linearGradient4694"
       x1="171.97002"
       y1="79.072037"
       x2="172.45009"
       y2="11.95339"
       gradientUnits="userSpaceOnUse"
       gradientTransform="matrix(0.3712194,0,0,0.42495552,-38.135054,30.218882)" />
    <linearGradient
       xlink:href="#linearGradient4724"
       id="linearGradient4694-3"
       x1="171.97002"
       y1="79.072037"
       x2="172.45009"
       y2="11.95339"
       gradientUnits="userSpaceOnUse"
       gradientTransform="matrix(-0.3712194,0,0,0.42495552,88.515626,30.162565)" />
    <linearGradient
       xlink:href="#linearGradient4692"
       id="linearGradient4694-0"
       x1="171.97002"
       y1="79.072037"
       x2="172.45009"
       y2="11.95339"
       gradientUnits="userSpaceOnUse"
       gradientTransform="matrix(0.3712194,0,0,0.42495552,-14.849866,30.162565)" />
    <linearGradient
       xlink:href="#linearGradient4802"
       id="linearGradient4694-3-6"
       x1="171.97002"
       y1="79.072037"
       x2="172.45009"
       y2="11.95339"
       gradientUnits="userSpaceOnUse"
       gradientTransform="matrix(-0.3712194,0,0,0.42495552,111.80082,30.106247)" />
    <linearGradient
       xlink:href="#linearGradient4692"
       id="linearGradient4694-0-2"
       x1="171.97002"
       y1="79.072037"
       x2="172.45009"
       y2="11.95339"
       gradientUnits="userSpaceOnUse"
       gradientTransform="matrix(0.3712194,0,0,0.42495552,8.4353265,30.106247)" />
    <linearGradient
       xlink:href="#linearGradient4844"
       id="linearGradient4694-3-6-3"
       x1="171.97002"
       y1="79.072037"
       x2="172.45009"
       y2="11.95339"
       gradientUnits="userSpaceOnUse"
       gradientTransform="matrix(-0.3712194,0,0,0.42495552,135.08601,30.04993)" />
    <linearGradient
       x1="48"
       y1="90"
       x2="48"
       y2="5.9877172"
       id="linearGradient3617-3"
       xlink:href="#linearGradient3700"
       gradientUnits="userSpaceOnUse" />
    <linearGradient
       x1="36.357143"
       y1="6"
       x2="36.357143"
       y2="63.893143"
       id="linearGradient3188-2"
       xlink:href="#linearGradient3737"
       gradientUnits="userSpaceOnUse" />
    <radialGradient
       cx="48"
       cy="90.171875"
       r="42"
       fx="48"
       fy="90.171875"
       id="radialGradient3619-2"
       xlink:href="#linearGradient3737"
       gradientUnits="userSpaceOnUse"
       gradientTransform="matrix(1.1573129,0,0,0.99590774,-7.5510206,0.19713193)" />
    <linearGradient
       y2="63.893143"
       x2="36.357143"
       y1="6"
       x1="36.357143"
       gradientUnits="userSpaceOnUse"
       id="linearGradient3604"
       xlink:href="#linearGradient3737"
       gradientTransform="rotate(180,47.974598,47.92982)" />
    <linearGradient
       id="linearGradient2796">
      <stop
         id="stop2798"
         offset="0"
         style="stop-color:#2e3436;stop-opacity:1;" />
      <stop
         id="stop2800"
         offset="1"
         style="stop-color:#2e3436;stop-opacity:0;" />
    </linearGradient>
    <linearGradient
       id="linearGradient3052">
      <stop
         style="stop-color:#555753;stop-opacity:1"
         offset="0"
         id="stop3054" />
      <stop
         style="stop-color:#2e3436;stop-opacity:1"
         offset="1"
         id="stop3056" />
    </linearGradient>
    <linearGradient
       id="linearGradient3013">
      <stop
         id="stop3015"
         offset="0"
         style="stop-color:#2d2d2d;stop-opacity:1;" />
      <stop
         id="stop3017"
         offset="1"
         style="stop-color:white;stop-opacity:1" />
    </linearGradient>
    <linearGradient
       id="linearGradient2985"
       inkscape:collect="always">
      <stop
         id="stop2987"
         offset="0"
         style="stop-color:#7b838a;stop-opacity:1" />
      <stop
         id="stop2989"
         offset="1"
         style="stop-color:#7b838a;stop-opacity:0" />
    </linearGradient>
    <radialGradient
       gradientUnits="userSpaceOnUse"
       gradientTransform="matrix(0.551865,-0.07423106,0.05764729,0.428573,10.8571,24.32541)"
       r="12.990843"
       fy="33.735012"
       fx="23.801941"
       cy="33.735012"
       cx="23.801941"
       id="radialGradient2991"
       xlink:href="#linearGradient2985"
       inkscape:collect="always" />
    <linearGradient
       gradientUnits="userSpaceOnUse"
       y2="42.721909"
       x2="23.625"
       y1="15.6875"
       x1="22.625"
       id="linearGradient3011"
       xlink:href="#linearGradient3013"
       inkscape:collect="always" />
    <linearGradient
       gradientUnits="userSpaceOnUse"
       y2="14.403073"
       x2="35.222755"
       y1="1.5140598"
       x1="35.222755"
       id="linearGradient3019"
       xlink:href="#linearGradient3013"
       inkscape:collect="always" />
    <linearGradient
       gradientUnits="userSpaceOnUse"
       y2="12.78336"
       x2="23.113552"
       y1="3.2925007"
       x1="23.113552"
       id="linearGradient3027"
       xlink:href="#linearGradient3013"
       inkscape:collect="always" />
    <linearGradient
       gradientUnits="userSpaceOnUse"
       y2="14.586771"
       x2="15.202796"
       y1="6.2158523"
       x1="15.202796"
       id="linearGradient3035"
       xlink:href="#linearGradient3013"
       inkscape:collect="always" />
    <linearGradient
       gradientUnits="userSpaceOnUse"
       y2="19.071247"
       x2="8.3526993"
       y1="11.509477"
       x1="8.3526993"
       id="linearGradient3043"
       xlink:href="#linearGradient3013"
       inkscape:collect="always" />
    <radialGradient
       r="17.994564"
       fy="21.81378"
       fx="19.450382"
       cy="21.81378"
       cx="19.450382"
       gradientTransform="matrix(1.987042,-0.338101,0.124071,0.729175,-21.555181,15.839709)"
       gradientUnits="userSpaceOnUse"
       id="radialGradient3070"
       xlink:href="#linearGradient1026"
       inkscape:collect="always" />
    <radialGradient
       r="17.994564"
       fy="8.0827875"
       fx="18.107206"
       cy="8.0827875"
       cx="18.107206"
       gradientTransform="matrix(2.140448,-1.450766e-6,0,0.93766,-21.832521,4.7156892)"
       gradientUnits="userSpaceOnUse"
       id="radialGradient3073"
       xlink:href="#linearGradient1026"
       inkscape:collect="always" />
    <radialGradient
       r="17.994564"
       fy="13.681828"
       fx="14.95366"
       cy="13.681828"
       cx="14.95366"
       gradientTransform="matrix(2.140448,-1.450766e-6,0,0.93766,-21.832521,4.7156892)"
       gradientUnits="userSpaceOnUse"
       id="radialGradient3076"
       xlink:href="#linearGradient1026"
       inkscape:collect="always" />
    <radialGradient
       r="17.994564"
       fy="4.3500967"
       fx="21.494347"
       cy="4.3500967"
       cx="21.494347"
       gradientTransform="matrix(2.140448,-1.450766e-6,0,0.93766,-21.832521,4.7156892)"
       gradientUnits="userSpaceOnUse"
       id="radialGradient3079"
       xlink:href="#linearGradient1026"
       inkscape:collect="always" />
    <radialGradient
       r="17.994564"
       fy="3.6835504"
       fx="25.640675"
       cy="3.6835504"
       cx="25.640675"
       gradientTransform="matrix(2.140448,-1.450766e-6,0,0.93766,-21.832521,4.7156892)"
       gradientUnits="userSpaceOnUse"
       id="radialGradient3082"
       xlink:href="#linearGradient1026"
       inkscape:collect="always" />
    <linearGradient
       gradientUnits="userSpaceOnUse"
       y2="41.193676"
       x2="21.678997"
       y1="18.389484"
       x1="23.936737"
       id="linearGradient2802"
       xlink:href="#linearGradient1020"
       inkscape:collect="always" />
    <linearGradient
       y2="12.644369"
       x2="33.305901"
       y1="3.7170186"
       x1="33.305901"
       gradientUnits="userSpaceOnUse"
       id="linearGradient2804"
       xlink:href="#linearGradient1020"
       inkscape:collect="always" />
    <linearGradient
       y2="15.742812"
       x2="33.129124"
       y1="12.426562"
       x1="33.129124"
       gradientUnits="userSpaceOnUse"
       id="linearGradient2806"
       xlink:href="#linearGradient1020"
       inkscape:collect="always" />
    <linearGradient
       inkscape:collect="always"
       xlink:href="#linearGradient1020"
       id="linearGradient994"
       gradientUnits="userSpaceOnUse"
       x1="33.305901"
       y1="3.7170186"
       x2="33.305901"
       y2="12.644369" />
    <linearGradient
       inkscape:collect="always"
       xlink:href="#linearGradient1020"
       id="linearGradient996"
       gradientUnits="userSpaceOnUse"
       x1="33.305901"
       y1="3.7170186"
       x2="33.305901"
       y2="12.644369" />
  </defs>
  <metadata
     id="metadata2413">
    <rdf:RDF>
      <cc:Work
         rdf:about="">
        <dc:format>image/svg+xml</dc:format>
        <dc:type
           rdf:resource="http://purl.org/dc/dcmitype/StillImage" />
        <dc:title />
      </cc:Work>
    </rdf:RDF>
  </metadata>
  <g
     id="layer2"
     style="display:none">
    <rect
       width="86"
       height="85"
       rx="6"
       ry="6"
       x="5"
       y="7"
       id="rect3745"
       style="opacity:0.9;fill:url(#ButtonShadow);fill-opacity:1;fill-rule:nonzero;stroke:none;filter:url(#filter3174)" />
  </g>
  <g
     id="layer3">
    <path
       d="m 12,-95.03125 c -5.5110903,0 -10.03125,4.52016 -10.03125,10.03125 l 0,71 c 0,5.5110902 4.5201598,10.03125 10.03125,10.03125 l 72,0 c 5.51109,0 10.03125,-4.5201597 10.03125,-10.03125 l 0,-71 c 0,-5.51109 -4.52016,-10.03125 -10.03125,-10.03125 l -72,0 z"
       transform="scale(1,-1)"
       id="path3786"
       style="opacity:0.07999998;fill:url(#linearGradient3026);fill-opacity:1;fill-rule:nonzero;stroke:none;display:inline" />
    <path
       d="m 12,-94.03125 c -4.971633,0 -9.03125,4.059617 -9.03125,9.03125 l 0,71 c 0,4.9716329 4.0596171,9.03125 9.03125,9.03125 l 72,0 c 4.971633,0 9.03125,-4.059617 9.03125,-9.03125 l 0,-71 c 0,-4.971633 -4.059617,-9.03125 -9.03125,-9.03125 l -72,0 z"
       transform="scale(1,-1)"
       id="path3778"
       style="opacity:0.1;fill:url(#linearGradient3780);fill-opacity:1;fill-rule:nonzero;stroke:none;display:inline" />
    <path
       d="m 12,-93 c -4.4091333,0 -8,3.590867 -8,8 l 0,71 c 0,4.4091333 3.5908667,8 8,8 l 72,0 c 4.409133,0 8,-3.5908667 8,-8 l 0,-71 c 0,-4.409133 -3.590867,-8 -8,-8 l -72,0 z"
       transform="scale(1,-1)"
       id="path3770"
       style="opacity:0.2;fill:url(#linearGradient3772);fill-opacity:1;fill-rule:nonzero;stroke:none;display:inline" />
    <rect
       width="86"
       height="85"
       rx="7"
       ry="7"
       x="5"
       y="-92"
       transform="scale(1,-1)"
       id="rect3723"
       style="opacity:0.3;fill:url(#linearGradient3725);fill-opacity:1;fill-rule:nonzero;stroke:none;display:inline" />
    <rect
       width="84"
       height="84"
       rx="6"
       ry="6"
       x="6"
       y="-91"
       transform="scale(1,-1)"
       id="rect3716"
       style="opacity:0.45;fill:url(#linearGradient3721);fill-opacity:1;fill-rule:nonzero;stroke:none;display:inline" />
  </g>
  <g
     id="layer1">
    <rect
       width="84"
       height="84"
       rx="6"
       ry="6"
       x="6"
       y="6"
       id="rect2419"
       style="fill:url(#linearGradient3617);fill-opacity:1;fill-rule:nonzero;stroke:none" />
    <path
       d="M 12,6 C 8.676,6 6,8.676 6,12 v 2 68 2 c 0,0.334721 0.04135,0.6507 0.09375,0.96875 0.0487,0.295596 0.09704,0.596915 0.1875,0.875 0.00988,0.03038 0.020892,0.0636 0.03125,0.09375 0.098865,0.287771 0.2348802,0.547452 0.375,0.8125 0.1445918,0.273507 0.3156161,0.535615 0.5,0.78125 0.1843839,0.245635 0.3737765,0.473472 0.59375,0.6875 0.439947,0.428056 0.94291,0.814526 1.5,1.09375 0.278545,0.139612 0.5734731,0.246947 0.875,0.34375 -0.2562018,-0.100222 -0.4867109,-0.236272 -0.71875,-0.375 -0.00741,-0.0044 -0.023866,0.0045 -0.03125,0 -0.031933,-0.0193 -0.062293,-0.04251 -0.09375,-0.0625 -0.120395,-0.0767 -0.2310226,-0.163513 -0.34375,-0.25 -0.1061728,-0.0808 -0.2132809,-0.161112 -0.3125,-0.25 C 8.4783201,88.557317 8.3087904,88.373362 8.15625,88.1875 8.0486711,88.057245 7.9378561,87.922215 7.84375,87.78125 7.818661,87.74287 7.805304,87.69538 7.78125,87.65625 7.716487,87.553218 7.6510225,87.451733 7.59375,87.34375 7.4927417,87.149044 7.3880752,86.928049 7.3125,86.71875 7.30454,86.69694 7.288911,86.6782 7.28125,86.65625 7.2494249,86.5643 7.2454455,86.469419 7.21875,86.375 7.1884177,86.268382 7.1483606,86.171969 7.125,86.0625 7.0521214,85.720988 7,85.364295 7,85 V 83 15 13 C 7,10.218152 9.2181517,8 12,8 h 2 68 2 c 2.781848,0 5,2.218152 5,5 v 2 68 2 c 0,0.364295 -0.05212,0.720988 -0.125,1.0625 -0.04415,0.206893 -0.08838,0.397658 -0.15625,0.59375 -0.0077,0.02195 -0.0233,0.04069 -0.03125,0.0625 -0.06274,0.173739 -0.138383,0.367449 -0.21875,0.53125 -0.04158,0.0828 -0.07904,0.169954 -0.125,0.25 -0.0546,0.09721 -0.126774,0.18835 -0.1875,0.28125 -0.09411,0.140965 -0.204921,0.275995 -0.3125,0.40625 -0.143174,0.17445 -0.303141,0.346998 -0.46875,0.5 -0.01117,0.0102 -0.01998,0.02115 -0.03125,0.03125 -0.138386,0.125556 -0.285091,0.234436 -0.4375,0.34375 -0.102571,0.07315 -0.204318,0.153364 -0.3125,0.21875 -0.0074,0.0045 -0.02384,-0.0044 -0.03125,0 -0.232039,0.138728 -0.462548,0.274778 -0.71875,0.375 0.301527,-0.0968 0.596455,-0.204138 0.875,-0.34375 0.55709,-0.279224 1.060053,-0.665694 1.5,-1.09375 0.219973,-0.214028 0.409366,-0.441865 0.59375,-0.6875 0.184384,-0.245635 0.355408,-0.507743 0.5,-0.78125 0.14012,-0.265048 0.276135,-0.524729 0.375,-0.8125 0.01041,-0.03078 0.02133,-0.06274 0.03125,-0.09375 0.09046,-0.278085 0.1388,-0.579404 0.1875,-0.875 C 89.95865,84.6507 90,84.334721 90,84 V 82 14 12 C 90,8.676 87.324,6 84,6 Z"
       id="rect3728"
       style="opacity:0.43589744;fill:url(#linearGradient3188);fill-opacity:1;fill-rule:nonzero;stroke:none" />
    <path
       d="M 12,90 C 8.676,90 6,87.324 6,84 V 82 14 12 c 0,-0.334721 0.04135,-0.6507 0.09375,-0.96875 0.0487,-0.295596 0.09704,-0.596915 0.1875,-0.875 C 6.29113,10.12587 6.302142,10.09265 6.3125,10.0625 6.411365,9.774729 6.5473802,9.515048 6.6875,9.25 6.8320918,8.976493 7.0031161,8.714385 7.1875,8.46875 7.3718839,8.223115 7.5612765,7.995278 7.78125,7.78125 8.221197,7.353194 8.72416,6.966724 9.28125,6.6875 9.559795,6.547888 9.8547231,6.440553 10.15625,6.34375 9.9000482,6.443972 9.6695391,6.580022 9.4375,6.71875 c -0.00741,0.0044 -0.023866,-0.0045 -0.03125,0 -0.031933,0.0193 -0.062293,0.04251 -0.09375,0.0625 -0.120395,0.0767 -0.2310226,0.163513 -0.34375,0.25 -0.1061728,0.0808 -0.2132809,0.161112 -0.3125,0.25 C 8.4783201,7.442683 8.3087904,7.626638 8.15625,7.8125 8.0486711,7.942755 7.9378561,8.077785 7.84375,8.21875 7.818661,8.25713 7.805304,8.30462 7.78125,8.34375 7.716487,8.446782 7.6510225,8.548267 7.59375,8.65625 7.4927417,8.850956 7.3880752,9.071951 7.3125,9.28125 7.30454,9.30306 7.288911,9.3218 7.28125,9.34375 7.2494249,9.4357 7.2454455,9.530581 7.21875,9.625 7.1884177,9.731618 7.1483606,9.828031 7.125,9.9375 7.0521214,10.279012 7,10.635705 7,11 v 2 68 2 c 0,2.781848 2.2181517,5 5,5 h 2 68 2 c 2.781848,0 5,-2.218152 5,-5 V 81 13 11 C 89,10.635705 88.94788,10.279012 88.875,9.9375 88.83085,9.730607 88.78662,9.539842 88.71875,9.34375 88.71105,9.3218 88.69545,9.30306 88.6875,9.28125 88.62476,9.107511 88.549117,8.913801 88.46875,8.75 88.42717,8.6672 88.38971,8.580046 88.34375,8.5 88.28915,8.40279 88.216976,8.31165 88.15625,8.21875 88.06214,8.077785 87.951329,7.942755 87.84375,7.8125 87.700576,7.63805 87.540609,7.465502 87.375,7.3125 87.36383,7.3023 87.35502,7.29135 87.34375,7.28125 87.205364,7.155694 87.058659,7.046814 86.90625,6.9375 86.803679,6.86435 86.701932,6.784136 86.59375,6.71875 c -0.0074,-0.0045 -0.02384,0.0044 -0.03125,0 -0.232039,-0.138728 -0.462548,-0.274778 -0.71875,-0.375 0.301527,0.0968 0.596455,0.204138 0.875,0.34375 0.55709,0.279224 1.060053,0.665694 1.5,1.09375 0.219973,0.214028 0.409366,0.441865 0.59375,0.6875 0.184384,0.245635 0.355408,0.507743 0.5,0.78125 0.14012,0.265048 0.276135,0.524729 0.375,0.8125 0.01041,0.03078 0.02133,0.06274 0.03125,0.09375 0.09046,0.278085 0.1388,0.579404 0.1875,0.875 C 89.95865,11.3493 90,11.665279 90,12 v 2 68 2 c 0,3.324 -2.676,6 -6,6 z"
       id="path3615"
       style="opacity:0.2;fill:url(#radialGradient3619);fill-opacity:1;fill-rule:nonzero;stroke:none" />
    <g
       id="g992"
       transform="matrix(1.3852022,0,0,1.3852022,10.97241,11.554208)">
      <g
         style="display:inline"
         inkscape:label="incavo"
         id="layer2-3"
         transform="translate(2.5445492,2.5445492)">
        <g
           transform="translate(0,1)"
           style="opacity:0.5"
           id="g3045">
          <path
             sodipodi:type="inkscape:offset"
             inkscape:radius="0.95043164"
             inkscape:original="M 37.84375 1.5 C 28.95865 1.5 27.282885 14.5 32.28125 14.5 C 37.278893 14.5 46.729211 1.5 37.84375 1.5 z "
             style="opacity:1;fill:none;fill-opacity:1;fill-rule:nonzero;stroke:url(#linearGradient3019);stroke-width:1;stroke-linejoin:round;stroke-miterlimit:4;stroke-dasharray:none;stroke-opacity:1"
             id="path2997"
             d="m 37.84375,0.54882812 c -4.906083,0 -7.913346,3.64281208 -8.902344,7.19531248 -0.494499,1.7762502 -0.540876,3.5576814 -0.05078,5.0253904 0.490095,1.46771 1.729045,2.681641 3.390625,2.681641 1.661459,0 3.295515,-0.957447 4.837891,-2.253906 1.542375,-1.29646 2.970916,-2.98779 3.972656,-4.7226566 1.00174,-1.7348671 1.644708,-3.5166892 1.259765,-5.1601563 C 42.159091,2.4927196 41.64072,1.7274922 40.855469,1.2480469 40.070218,0.76860153 39.070311,0.54882813 37.84375,0.54882812 Z" />
          <path
             sodipodi:type="inkscape:offset"
             inkscape:radius="1.9700731"
             inkscape:original="M 27.46875 17.5 C 24.13271 17.445001 20.212818 18.254417 17 19.875 C 13.787182 21.495583 11.357566 23.877774 10.65625 26.9375 C 9.9082662 30.198485 11.481937 34.381621 14.4375 37.71875 C 17.393063 41.055879 21.630577 43.5 25.8125 43.5 C 29.711024 43.5 34.609468 39.812504 35.46875 35.375 C 35.524005 35.090099 35.493476 34.970487 35.4375 34.875 C 35.381524 34.779513 35.252848 34.67825 35 34.5625 C 34.494303 34.331 33.527631 34.215897 32.53125 34.3125 C 31.534869 34.409103 30.507193 34.680657 29.84375 35.03125 C 29.512029 35.206546 29.287309 35.408803 29.1875 35.53125 C 29.087691 35.653697 29.093659 35.65557 29.09375 35.65625 C 29.339341 37.483495 28.602819 39.090615 27.25 39.8125 C 25.897181 40.534385 24.140861 40.303857 22.59375 39.15625 C 21.444374 38.303706 20.691185 37.416899 20.40625 36.40625 C 20.121315 35.395601 20.414919 34.372938 20.96875 33.5625 C 22.076412 31.941623 24.103835 30.748422 26.28125 29.4375 C 28.458665 28.126578 30.780403 26.749835 32.40625 25.28125 C 34.032097 23.812665 34.885195 22.437189 34.59375 20.75 C 34.433192 19.820534 33.782311 19.08795 32.53125 18.5 C 31.280189 17.91205 29.470405 17.533 27.46875 17.5 z "
             style="opacity:1;fill:none;fill-opacity:1;fill-rule:nonzero;stroke:url(#linearGradient3011);stroke-width:0.99999994;stroke-miterlimit:4;stroke-dasharray:none;stroke-opacity:1"
             id="path2995"
             d="m 27.501953,15.529297 c -3.680005,-0.06067 -7.836063,0.79396 -11.388672,2.585937 -3.549362,1.79034 -6.5040153,4.57433 -7.3769529,8.382813 -0.9636585,4.205201 0.9598441,8.838889 4.2265629,12.527344 3.258685,3.679384 7.900081,6.445312 12.849609,6.445312 2.570406,0 5.098005,-1.126586 7.208984,-2.839844 2.11098,-1.713257 3.837751,-4.076138 4.38086,-6.880859 0.100703,-0.519236 -0.0047,-1.425986 -0.265625,-1.871094 -0.414813,-0.70761 -0.898167,-0.915958 -1.316407,-1.107422 -1.144941,-0.524135 -2.210706,-0.54284 -3.478515,-0.419922 -1.219836,0.118268 -2.383035,0.390595 -3.417969,0.9375 -0.560226,0.296049 -0.920149,0.576609 -1.263672,0.998047 -0.06516,0.07994 -0.104421,0.124508 -0.177734,0.230469 -0.03666,0.05298 -0.07968,0.09428 -0.183594,0.324219 -0.103914,0.229934 -0.158226,1.076002 -0.158203,1.076172 0.156008,1.160732 -0.274973,1.86629 -0.818359,2.15625 -0.574304,0.306457 -1.479181,0.297783 -2.554688,-0.5 -0.955107,-0.708446 -1.344279,-1.27549 -1.464844,-1.703125 -0.09484,-0.33638 -0.0083,-0.756449 0.292969,-1.197266 0.729946,-1.068153 2.513358,-2.231645 4.701172,-3.548828 2.169424,-1.306111 4.566015,-2.697452 6.429687,-4.380859 C 34.63933,25.919662 35.427329,25.05557 35.970703,24 c 0.543375,-1.05557 0.780344,-2.336136 0.564453,-3.585938 -0.283022,-1.638406 -1.582884,-2.953255 -3.166015,-3.697265 -1.617983,-0.760389 -3.636491,-1.150724 -5.867188,-1.1875 z" />
          <path
             sodipodi:type="inkscape:offset"
             inkscape:radius="0.93958104"
             inkscape:original="M 23.6875 3.53125 C 18.652699 4.1435932 20.444137 12.346659 23.125 12.5 C 25.804774 12.653342 28.724119 2.9189068 23.6875 3.53125 z "
             style="opacity:1;fill:none;fill-opacity:1;fill-rule:nonzero;stroke:url(#linearGradient3027);stroke-width:1;stroke-linejoin:round;stroke-miterlimit:4;stroke-dasharray:none;stroke-opacity:1"
             id="path2999"
             d="m 23.574219,2.5976562 c -1.51491,0.1842466 -2.662624,1.0212925 -3.289063,2.0996094 -0.626439,1.078317 -0.79583,2.3431573 -0.708984,3.5566406 0.08685,1.2134834 0.432046,2.3886468 0.986328,3.3398438 0.554282,0.951197 1.368684,1.778482 2.509766,1.84375 1.245722,0.07128 2.111668,-0.838537 2.767578,-1.849609 0.65591,-1.011072 1.142593,-2.2818994 1.382812,-3.572266 0.240219,-1.2903666 0.259625,-2.6059975 -0.273437,-3.7246094 -0.533063,-1.1186118 -1.83057,-1.8811285 -3.375,-1.6933594 z" />
          <path
             sodipodi:type="inkscape:offset"
             inkscape:radius="0.97573626"
             inkscape:original="M 8.8125 11.9375 C 8.4606561 11.925184 8.0926115 12.05277 7.6875 12.34375 C 4.4480637 14.671966 8.7815845 20.278527 10.6875 19.40625 C 12.355175 18.642678 11.275407 12.023715 8.8125 11.9375 z "
             style="opacity:1;fill:none;fill-opacity:1;fill-rule:nonzero;stroke:url(#linearGradient3043);stroke-width:1;stroke-linejoin:round;stroke-miterlimit:4;stroke-dasharray:none;stroke-opacity:1"
             id="path3001"
             d="m 8.8457031,10.962891 c -0.6110673,-0.02139 -1.2037865,0.212395 -1.7265625,0.58789 a 0.97583383,0.97583383 0 0 0 -0.00195,0 c -1.0442823,0.750537 -1.5450896,1.89268 -1.5703125,2.978516 -0.025223,1.085836 0.3414284,2.126878 0.8671875,3.035156 0.5257591,0.908278 1.213049,1.688503 1.9824219,2.230469 0.7693728,0.541966 1.7339036,0.938947 2.6972656,0.498047 0.938304,-0.429618 1.204012,-1.35871 1.318359,-2.238281 0.114348,-0.879572 0.04587,-1.864934 -0.158203,-2.837891 C 12.049838,14.24384 11.712847,13.291412 11.195312,12.5 10.677778,11.708588 9.8951786,10.999628 8.8457031,10.962891 Z" />
          <path
             sodipodi:type="inkscape:offset"
             inkscape:radius="0.98042816"
             inkscape:original="M 15.71875 6.5625 C 15.339365 6.4708871 14.912003 6.5187657 14.40625 6.71875 C 10.3595 8.3189717 13.764225 14.912713 16.03125 14.46875 C 18.016485 14.080891 18.374445 7.2037903 15.71875 6.5625 z "
             style="opacity:1;fill:none;fill-opacity:1;fill-rule:nonzero;stroke:url(#linearGradient3035);stroke-width:1;stroke-linejoin:round;stroke-miterlimit:4;stroke-dasharray:none;stroke-opacity:1"
             id="path3003"
             d="m 15.949219,5.609375 c -0.618454,-0.1493425 -1.272674,-0.05249 -1.904297,0.1972656 -1.269521,0.5020115 -2.080677,1.5228213 -2.361328,2.6171875 -0.280651,1.0943663 -0.119372,2.2306249 0.242187,3.2617189 0.36156,1.031094 0.929206,1.966858 1.628907,2.673828 0.6997,0.70697 1.602701,1.280117 2.664062,1.072266 1.025992,-0.20045 1.56126,-1.060578 1.890625,-1.921875 0.329365,-0.861298 0.483171,-1.869914 0.486328,-2.896485 C 18.59886,9.5867109 18.452357,8.5485196 18.072266,7.6367188 17.692174,6.7249179 17.006689,5.8647302 15.949219,5.609375 Z" />
        </g>
      </g>
      <g
         style="display:inline"
         inkscape:label="Layer 1"
         id="layer1-6">
        <path
           style="fill:url(#radialGradient3082);fill-opacity:1;fill-rule:nonzero;stroke:#aab8c5;stroke-width:1.00000048;stroke-miterlimit:4;stroke-dasharray:none;stroke-opacity:1"
           d="m 40.380836,5.0445496 c -8.885099,0 -10.551823,13.0000024 -5.553458,13.0000024 4.997643,0 14.438919,-13.0000024 5.553458,-13.0000024 z"
           id="path4490"
           inkscape:connector-curvature="0" />
        <path
           style="fill:url(#radialGradient3079);fill-opacity:1;fill-rule:nonzero;stroke:#aab8c5;stroke-width:1.00000036;stroke-miterlimit:4;stroke-dasharray:none;stroke-opacity:1"
           d="m 25.66308,16.042756 c 2.679773,0.153342 5.619921,-9.582826 0.583302,-8.9704828 -5.0348,0.6123432 -3.264165,8.8171418 -0.583302,8.9704828 z"
           id="path4492"
           inkscape:connector-curvature="0" />
        <path
           style="fill:url(#radialGradient3076);fill-opacity:1;fill-rule:nonzero;stroke:#aab8c5;stroke-width:1;stroke-miterlimit:4;stroke-dasharray:none;stroke-opacity:1"
           d="m 13.218438,22.953494 c 1.905915,-0.872654 0.245468,-9.408186 -2.995424,-7.080348 -3.2394367,2.328216 1.089509,7.952625 2.995424,7.080348 z"
           id="path4494"
           inkscape:connector-curvature="0" />
        <path
           style="fill:url(#radialGradient3073);fill-opacity:1;fill-rule:nonzero;stroke:#aab8c5;stroke-width:1;stroke-miterlimit:4;stroke-dasharray:none;stroke-opacity:1"
           d="m 18.588528,18.023182 c 2.268841,-0.443268 2.393212,-9.3615811 -1.652812,-7.761707 -4.04675,1.600222 -0.614213,8.20567 1.652812,7.761707 z"
           id="path4496"
           inkscape:connector-curvature="0" />
        <path
           style="fill:url(#radialGradient3070);fill-opacity:1;fill-rule:nonzero;stroke:#aab8c5;stroke-width:0.99999994;stroke-miterlimit:4;stroke-dasharray:none;stroke-opacity:1"
           id="path4498"
           d="m 30.632723,39.331951 c 0.406855,3.027068 -2.279419,4.521983 -4.910198,2.570539 -8.374904,-6.212043 13.866533,-9.310724 12.400456,-17.797902 -1.216891,-7.04454 -23.402831,-4.875749 -25.92923,6.146517 -1.710116,7.455597 7.039299,17.798617 16.16874,17.798617 4.491216,0 9.671549,-3.950871 10.640724,-8.955884 0.740207,-3.816595 -8.710089,-2.287308 -8.370492,0.238113 z"
           inkscape:connector-curvature="0" />
        <path
           transform="translate(2.5445491,3.5445492)"
           d="m 27.490234,17.044922 c -3.416215,-0.05632 -7.414058,0.764767 -10.707031,2.425781 -3.292973,1.661014 -5.853619,4.131549 -6.595703,7.369141 -0.7974855,3.476797 0.862903,7.784521 3.890625,11.203125 3.027722,3.418603 7.375481,5.910156 11.734375,5.910156 4.172531,0 9.211007,-3.794271 10.121094,-8.494141 0.07249,-0.373744 0.01891,-0.611708 -0.09766,-0.810546 -0.116562,-0.198839 -0.323113,-0.377027 -0.638672,-0.521485 -0.631119,-0.288916 -1.661966,-0.390954 -2.712891,-0.289062 -1.050925,0.101891 -2.126147,0.398495 -2.865234,0.789062 -0.369544,0.195283 -0.651101,0.414206 -0.808594,0.607422 -0.157494,0.193216 -0.195455,0.328303 -0.175781,0.474609 0.226098,1.682213 -0.431725,3.079014 -1.597657,3.701172 -1.165931,0.622159 -2.735797,0.44119 -4.175781,-0.626953 -1.101983,-0.81739 -1.765925,-1.625345 -2.009766,-2.490234 -0.24384,-0.864889 -0.0063,-1.727753 0.496094,-2.462891 1.004746,-1.470277 2.997857,-2.684486 5.169922,-3.992187 2.172065,-1.307701 4.530269,-2.675445 6.212891,-4.195313 1.682621,-1.519868 2.652324,-3.098217 2.326172,-4.986328 -0.191814,-1.110407 -0.995587,-1.966708 -2.333985,-2.595703 -1.338398,-0.628996 -3.182676,-0.981832 -5.232422,-1.015625 z"
           id="path2981"
           style="opacity:0.7;fill:url(#radialGradient2991);fill-opacity:1;fill-rule:nonzero;stroke:none;stroke-width:0.99999994;stroke-miterlimit:4;stroke-dasharray:none"
           inkscape:original="M 27.5 16.5 C 20.481073 16.384283 11.235249 19.829834 9.65625 26.71875 C 7.946133 34.174347 16.683059 44.5 25.8125 44.5 C 30.303716 44.5 35.499575 40.567513 36.46875 35.5625 C 37.208955 31.745904 27.754153 33.255829 28.09375 35.78125 C 28.500604 38.808317 25.818279 40.295194 23.1875 38.34375 C 14.812595 32.131707 37.059827 29.049678 35.59375 20.5625 C 35.137417 17.920797 31.711356 16.56943 27.5 16.5 z "
           inkscape:radius="-0.54594553"
           sodipodi:type="inkscape:offset" />
        <g
           style="opacity:0.3;stroke:#2e3436"
           id="g2836">
          <path
             sodipodi:type="inkscape:offset"
             inkscape:radius="-1.0153533"
             inkscape:original="M 27.5 16.5 C 20.481073 16.384283 11.235249 19.829834 9.65625 26.71875 C 7.946133 34.174347 16.683059 44.5 25.8125 44.5 C 30.303716 44.5 35.499575 40.567513 36.46875 35.5625 C 37.208955 31.745904 27.754153 33.255829 28.09375 35.78125 C 28.500604 38.808317 25.818279 40.295194 23.1875 38.34375 C 14.812595 32.131707 37.059827 29.049678 35.59375 20.5625 C 35.137417 17.920797 31.711356 16.56943 27.5 16.5 z "
             style="opacity:1;fill:none;fill-opacity:1;fill-rule:nonzero;stroke:url(#linearGradient2802);stroke-width:0.99999994;stroke-miterlimit:4;stroke-dasharray:none;stroke-opacity:1"
             id="path2853"
             d="m 27.482422,17.515625 c -3.33604,-0.055 -7.27351,0.752463 -10.486328,2.373047 -3.212818,1.620583 -5.648294,3.996914 -6.34961,7.05664 -0.7479834,3.260985 0.82764,7.449981 3.783204,10.78711 2.955563,3.337129 7.200889,5.751953 11.382812,5.751953 3.898524,0 8.800874,-3.67773 9.660156,-8.115234 0.05526,-0.284901 0.01496,-0.386935 -0.04102,-0.482422 -0.05598,-0.09549 -0.17684,-0.216282 -0.429688,-0.332031 -0.505696,-0.2315 -1.476275,-0.346604 -2.472656,-0.25 -0.996381,0.0966 -2.027964,0.387688 -2.691406,0.738281 -0.331722,0.175296 -0.564254,0.365834 -0.664063,0.488281 -0.09981,0.122447 -0.07431,0.114555 -0.07422,0.115234 0.245592,1.827245 -0.488977,3.457803 -1.841797,4.179688 -1.352819,0.721884 -3.128669,0.481592 -4.675781,-0.666016 -1.149376,-0.852543 -1.898659,-1.729585 -2.183593,-2.740234 -0.284935,-1.010649 0.0087,-2.04503 0.5625,-2.855469 1.107662,-1.620877 3.137038,-2.817984 5.314453,-4.128906 2.177415,-1.310922 4.514778,-2.67204 6.140625,-4.140625 1.625846,-1.468585 2.469179,-2.873358 2.177734,-4.560547 -0.160558,-0.929466 -0.819252,-1.660097 -2.070312,-2.248047 -1.251061,-0.58795 -3.039361,-0.937703 -5.041016,-0.970703 z"
             transform="translate(2.5445492,3.5445492)" />
          <path
             sodipodi:type="inkscape:offset"
             inkscape:radius="-1.0151668"
             inkscape:original="M 37.84375 1.5 C 28.95865 1.5 27.282885 14.5 32.28125 14.5 C 37.278893 14.5 46.729211 1.5 37.84375 1.5 z "
             style="color:#000000;display:inline;overflow:visible;visibility:visible;opacity:1;fill:none;fill-opacity:1;fill-rule:nonzero;stroke:url(#linearGradient994);stroke-width:0.99999994;stroke-linecap:butt;stroke-linejoin:miter;stroke-miterlimit:4;stroke-dasharray:none;stroke-dashoffset:0;stroke-opacity:1;marker:none;marker-start:none;marker-mid:none;marker-end:none"
             id="path2920"
             d="m 37.84375,2.515625 c -3.947445,0 -6.194933,2.8289635 -7.009766,5.7558594 -0.407416,1.4634479 -0.396293,2.9221666 -0.07813,3.8749996 0.318168,0.952834 0.715849,1.337891 1.525391,1.337891 0.809298,0 2.22304,-0.657221 3.574219,-1.792969 1.351178,-1.135747 2.662662,-2.6915688 3.533203,-4.1992185 C 40.259213,5.9845378 40.616707,4.5287768 40.4375,3.7636719 40.347896,3.3811194 40.197346,3.1488292 39.832031,2.9257812 39.466716,2.7027333 38.830661,2.515625 37.84375,2.515625 Z"
             transform="translate(2.5445492,3.5445492)" />
          <path
             sodipodi:type="inkscape:offset"
             inkscape:radius="-1.0192616"
             inkscape:original="M 23.6875 3.53125 C 18.652699 4.1435932 20.444137 12.346659 23.125 12.5 C 25.804774 12.653342 28.724119 2.9189068 23.6875 3.53125 z "
             style="color:#000000;display:inline;overflow:visible;visibility:visible;opacity:1;fill:none;fill-opacity:1;fill-rule:nonzero;stroke:url(#linearGradient996);stroke-width:0.99999994;stroke-linecap:butt;stroke-linejoin:miter;stroke-miterlimit:4;stroke-dasharray:none;stroke-dashoffset:0;stroke-opacity:1;marker:none;marker-start:none;marker-mid:none;marker-end:none"
             id="path2922"
             d="m 23.810547,4.5429688 c -0.980763,0.1192824 -1.471028,0.520623 -1.830078,1.1386718 -0.359051,0.6180489 -0.517093,1.5124936 -0.451172,2.4335938 0.06592,0.9211002 0.353805,1.8558543 0.724609,2.4921876 0.370805,0.636333 0.77027,0.865881 0.929688,0.875 0.04534,0.0026 0.533042,-0.218104 1.013672,-0.958984 C 24.677895,9.7825567 25.105733,8.6934849 25.298828,7.65625 25.491923,6.6190151 25.422105,5.6393707 25.181641,5.1347656 24.941176,4.6301605 24.760233,4.4275076 23.810547,4.5429688 Z"
             transform="translate(2.5445492,3.5445492)" />
          <path
             sodipodi:type="inkscape:offset"
             inkscape:radius="-0.98627526"
             inkscape:original="M 8.8125 11.9375 C 8.4606561 11.925184 8.0926115 12.05277 7.6875 12.34375 C 4.4480637 14.671966 8.7815845 20.278527 10.6875 19.40625 C 12.355175 18.642678 11.275407 12.023715 8.8125 11.9375 z "
             style="color:#000000;display:inline;overflow:visible;visibility:visible;opacity:1;fill:none;fill-opacity:1;fill-rule:nonzero;stroke:url(#linearGradient2806);stroke-width:0.99999994;stroke-linecap:butt;stroke-linejoin:miter;stroke-miterlimit:4;stroke-dasharray:none;stroke-dashoffset:0;stroke-opacity:1;marker:none;marker-start:none;marker-mid:none;marker-end:none"
             id="path2926"
             d="m 8.7773438,12.923828 c -0.089821,-0.0031 -0.2274958,0.01515 -0.5136719,0.220703 -0.5729038,0.411752 -0.7421477,0.839403 -0.7558594,1.429688 -0.013712,0.590284 0.2133128,1.333715 0.6035156,2.007812 0.3902029,0.674097 0.9396207,1.273791 1.4160157,1.609375 0.4763952,0.335585 0.7656632,0.311191 0.7500002,0.31836 -0.110099,0.05041 0.1144,-0.129722 0.189453,-0.707032 0.07505,-0.577309 0.03226,-1.394632 -0.132813,-2.18164 C 10.168917,14.834085 9.8771972,14.070386 9.5527344,13.574219 9.2282715,13.078051 8.9546368,12.930034 8.7773438,12.923828 Z"
             transform="translate(2.5445492,3.5445492)" />
          <path
             sodipodi:type="inkscape:offset"
             inkscape:radius="-0.9796893"
             inkscape:original="M 15.71875 6.5625 C 15.339365 6.4708871 14.912003 6.5187657 14.40625 6.71875 C 10.3595 8.3189717 13.764225 14.912713 16.03125 14.46875 C 18.016485 14.080891 18.374445 7.2037903 15.71875 6.5625 z "
             style="color:#000000;display:inline;overflow:visible;visibility:visible;opacity:1;fill:none;fill-opacity:1;fill-rule:nonzero;stroke:url(#linearGradient2804);stroke-width:0.99999994;stroke-linecap:butt;stroke-linejoin:miter;stroke-miterlimit:4;stroke-dasharray:none;stroke-dashoffset:0;stroke-opacity:1;marker:none;marker-start:none;marker-mid:none;marker-end:none"
             id="path2924"
             d="m 15.488281,7.515625 c -0.140497,-0.033927 -0.342678,-0.036969 -0.722656,0.1132812 -0.754048,0.2981763 -1.033324,0.7029068 -1.181641,1.28125 -0.148316,0.5783433 -0.07578,1.3649778 0.191407,2.1269528 0.267191,0.761976 0.721955,1.488766 1.171875,1.94336 0.449919,0.454594 0.82396,0.541546 0.896484,0.527343 -0.03298,0.0064 0.222394,-0.139866 0.435547,-0.697265 0.213153,-0.557399 0.352943,-1.381699 0.355469,-2.203125 0.0025,-0.821426 -0.133374,-1.6465292 -0.371094,-2.216797 -0.237721,-0.5702678 -0.504717,-0.8096384 -0.775391,-0.875 z"
             transform="translate(2.5445492,3.5445492)" />
        </g>
      </g>
    </g>
  </g>
  <path
     d="m 83.949197,89.85964 c 3.324,0 6.000001,-2.676001 6.000001,-6 v -2 -68 -2 c 0,-0.334722 -0.04135,-0.6507 -0.09375,-0.96875 -0.0487,-0.295597 -0.09704,-0.596914 -0.1875,-0.875 -0.0099,-0.03038 -0.02089,-0.0636 -0.03125,-0.09375 -0.09886,-0.287771 -0.234881,-0.547452 -0.375,-0.8125 -0.144593,-0.273507 -0.315617,-0.535615 -0.5,-0.78125 -0.184384,-0.245635 -0.373777,-0.473472 -0.59375,-0.6875 -0.439948,-0.428056 -0.94291,-0.814526 -1.5,-1.09375 -0.278545,-0.139612 -0.573474,-0.246947 -0.875,-0.34375 0.256202,0.100222 0.48671,0.236272 0.71875,0.375 0.0074,0.0044 0.02387,-0.0045 0.03125,0 0.03193,0.0193 0.06229,0.04251 0.09375,0.0625 0.120395,0.0767 0.231022,0.163513 0.34375,0.25 0.106172,0.0808 0.21328,0.161112 0.3125,0.25 0.17793,0.161433 0.347459,0.345388 0.5,0.53125 0.107579,0.130255 0.218394,0.265285 0.3125,0.40625 0.02509,0.03838 0.03845,0.08587 0.0625,0.125 0.06476,0.103032 0.130228,0.204517 0.1875,0.3125 0.101008,0.194706 0.205674,0.415701 0.28125,0.625 0.008,0.02181 0.02359,0.04055 0.03125,0.0625 0.03182,0.09195 0.0358,0.186831 0.0625,0.28125 0.03033,0.106618 0.07039,0.203031 0.09375,0.3125 0.07288,0.3415112 0.125,0.6982052 0.125,1.0625002 v 2 68 2 c 0,2.781847 -2.218153,5 -5.000001,5 h -2 -67.999994 -2 c -2.7818515,0 -5.0000005,-2.218153 -5.0000005,-5 v -2 -68 -2 c 0,-0.364295 0.0521,-0.720989 0.125,-1.0625002 0.0442,-0.206893 0.0884,-0.397658 0.15625,-0.59375 0.008,-0.02195 0.0233,-0.04069 0.0312,-0.0625 0.0627,-0.173739 0.138379,-0.367449 0.21875,-0.53125 0.0416,-0.0828 0.079,-0.169954 0.125,-0.25 0.0546,-0.09721 0.126769,-0.18835 0.1875,-0.28125 0.0941,-0.140965 0.20492,-0.275995 0.3125,-0.40625 0.143169,-0.17445 0.30314,-0.346998 0.46875,-0.5 0.0112,-0.0102 0.02,-0.02115 0.0312,-0.03125 0.13838,-0.125556 0.28509,-0.234436 0.4375,-0.34375 0.10257,-0.07315 0.204311,-0.153364 0.3125,-0.21875 0.007,-0.0045 0.0238,0.0044 0.0312,0 0.23203,-0.138728 0.462541,-0.274778 0.7187505,-0.375 -0.3015305,0.0968 -0.5964595,0.204138 -0.8750005,0.34375 -0.55709,0.279224 -1.060059,0.665694 -1.5,1.09375 -0.21998,0.214028 -0.409369,0.441865 -0.59375,0.6875 -0.184389,0.245635 -0.35541,0.507743 -0.5,0.78125 -0.140119,0.265048 -0.27614,0.524729 -0.375,0.8125 -0.0104,0.03078 -0.0213,0.06274 -0.0312,0.09375 -0.0905,0.278085 -0.1388,0.579403 -0.1875,0.875 -0.0524,0.31805 -0.0937,0.634028 -0.0937,0.96875 v 2 68 2 c 0,3.323999 2.676,6 6.0000005,6 z"
     id="rect3728-6"
     style="opacity:0.084;fill:url(#linearGradient3604);fill-opacity:1;fill-rule:nonzero;stroke:none" />
  <g
     id="layer5">
    <rect
       width="66"
       height="66"
       rx="12"
       ry="12"
       x="15"
       y="15"
       clip-path="url(#clipPath3613)"
       id="rect3171"
       style="opacity:0.1;fill:url(#linearGradient3613);fill-opacity:1;fill-rule:nonzero;stroke:#fefefe;stroke-width:0.5;stroke-linecap:round;stroke-linejoin:miter;stroke-miterlimit:4;stroke-dasharray:none;stroke-dashoffset:0;stroke-opacity:1;filter:url(#filter3794)" />
  </g>
</svg>
