<?xml version="1.0" encoding="UTF-8" standalone="no"?>
<svg
   xmlns:dc="http://purl.org/dc/elements/1.1/"
   xmlns:cc="http://creativecommons.org/ns#"
   xmlns:rdf="http://www.w3.org/1999/02/22-rdf-syntax-ns#"
   xmlns:svg="http://www.w3.org/2000/svg"
   xmlns="http://www.w3.org/2000/svg"
   xmlns:xlink="http://www.w3.org/1999/xlink"
   id="svg2408"
   height="96"
   width="96"
   version="1.0">
  <defs
     id="defs2410">
    <linearGradient
       id="linearGradient4285">
      <stop
         offset="0"
         style="stop-color:#fefefe;stop-opacity:1"
         id="stop4287" />
      <stop
         offset="0.5"
         style="stop-color:#fefefe;stop-opacity:0.70866144"
         id="stop5732" />
      <stop
         offset="1"
         style="stop-color:#fefefe;stop-opacity:0"
         id="stop4289" />
    </linearGradient>
    <linearGradient
       id="linearGradient4239">
      <stop
         offset="0"
         style="stop-color:#e2f39e;stop-opacity:0"
         id="stop5734" />
      <stop
         offset="0.30000001"
         style="stop-color:#e0f298;stop-opacity:0.29133859"
         id="stop5736" />
      <stop
         offset="1"
         style="stop-color:#e0f297;stop-opacity:0.16535433"
         id="stop4243" />
    </linearGradient>
    <linearGradient
       gradientTransform="scale(1.0058652,0.994169)"
       gradientUnits="userSpaceOnUse"
       id="ButtonShadow"
       y2="7.0165396"
       x2="45.447727"
       y1="92.539597"
       x1="45.447727">
      <stop
         offset="0"
         style="stop-color:#000000;stop-opacity:1"
         id="stop3750" />
      <stop
         offset="1"
         style="stop-color:#000000;stop-opacity:0.58823532"
         id="stop3752" />
    </linearGradient>
    <linearGradient
       id="linearGradient3737">
      <stop
         offset="0"
         style="stop-color:#fefefe;stop-opacity:1"
         id="stop3739" />
      <stop
         offset="1"
         style="stop-color:#fefefe;stop-opacity:0"
         id="stop3741" />
    </linearGradient>
    <linearGradient
       id="linearGradient3700">
      <stop
         offset="0"
         style="stop-color:#2276c5;stop-opacity:1"
         id="stop3702" />
      <stop
         offset="1"
         style="stop-color:#68baf4;stop-opacity:1"
         id="stop3704" />
    </linearGradient>
    <filter
       id="filter3174"
       color-interpolation-filters="sRGB">
      <feGaussianBlur
         stdDeviation="1.71"
         id="feGaussianBlur3176" />
    </filter>
    <linearGradient
       gradientUnits="userSpaceOnUse"
       xlink:href="#linearGradient3737"
       id="linearGradient3613"
       y2="138.66119"
       x2="48"
       y1="20.220806"
       x1="48" />
    <clipPath
       id="clipPath3613">
      <rect
         style="fill:#fefefe;fill-opacity:1;fill-rule:nonzero;stroke:none"
         id="rect3615"
         y="6"
         x="6"
         ry="6"
         rx="6"
         height="84"
         width="84" />
    </clipPath>
    <linearGradient
       gradientTransform="translate(-110,0)"
       gradientUnits="userSpaceOnUse"
       xlink:href="#linearGradient3700"
       id="linearGradient3151"
       y2="5.9877172"
       x2="48"
       y1="90"
       x1="48" />
    <linearGradient
       gradientTransform="translate(-110,0)"
       gradientUnits="userSpaceOnUse"
       xlink:href="#linearGradient3737"
       id="linearGradient3153"
       y2="63.893143"
       x2="36.357143"
       y1="6"
       x1="36.357143" />
    <radialGradient
       gradientTransform="matrix(1.1573129,0,0,0.99590774,-117.55102,0.19713193)"
       gradientUnits="userSpaceOnUse"
       xlink:href="#linearGradient3737"
       id="radialGradient3155"
       fy="90.171875"
       fx="48"
       r="42"
       cy="90.171875"
       cx="48" />
    <linearGradient
       gradientUnits="userSpaceOnUse"
       id="ButtonColor"
       y2="0.99929649"
       x2="10.31979"
       y1="21"
       x1="10.31979">
      <stop
         offset="0"
         style="stop-color:#2c67a6;stop-opacity:1"
         id="stop3189" />
      <stop
         offset="1"
         style="stop-color:#6bb5ff;stop-opacity:1"
         id="stop3191" />
    </linearGradient>
    <linearGradient
       gradientUnits="userSpaceOnUse"
       xlink:href="#ButtonColor"
       id="linearGradient3948"
       y2="5.9877172"
       x2="48"
       y1="90"
       x1="48" />
    <linearGradient
       gradientUnits="userSpaceOnUse"
       xlink:href="#linearGradient3737"
       id="linearGradient3967"
       y2="64.215118"
       x2="44"
       y1="6"
       x1="44" />
    <radialGradient
       gradientTransform="matrix(1.1428571,0,0,0.95238095,-6.8571426,3.428571)"
       gradientUnits="userSpaceOnUse"
       xlink:href="#linearGradient3737"
       id="radialGradient3982"
       fy="72"
       fx="48"
       r="42"
       cy="72"
       cx="48" />
    <linearGradient
       gradientTransform="translate(0,1)"
       gradientUnits="userSpaceOnUse"
       xlink:href="#ButtonShadow"
       id="linearGradient3989"
       y2="5.9877172"
       x2="48"
       y1="90"
       x1="48" />
    <linearGradient
       gradientTransform="translate(-1,1)"
       gradientUnits="userSpaceOnUse"
       xlink:href="#ButtonShadow"
       id="linearGradient4001"
       y2="5.9877172"
       x2="48"
       y1="90.868095"
       x1="48" />
    <linearGradient
       gradientTransform="translate(-1,1)"
       gradientUnits="userSpaceOnUse"
       xlink:href="#ButtonShadow"
       id="linearGradient4009"
       y2="5.9877172"
       x2="48"
       y1="90.868095"
       x1="48" />
    <linearGradient
       gradientTransform="translate(-1,1)"
       gradientUnits="userSpaceOnUse"
       xlink:href="#ButtonShadow"
       id="linearGradient4023"
       y2="5.9877172"
       x2="48"
       y1="90.868095"
       x1="48" />
    <linearGradient
       gradientTransform="translate(-1,1)"
       gradientUnits="userSpaceOnUse"
       xlink:href="#ButtonShadow"
       id="linearGradient4031"
       y2="5.9877172"
       x2="48"
       y1="90.868095"
       x1="48" />
    <filter
       id="filter4055"
       color-interpolation-filters="sRGB"
       height="1.388211"
       width="1.388211"
       y="-0.19410552"
       x="-0.19410552">
      <feGaussianBlur
         stdDeviation="5.3379019"
         id="feGaussianBlur4057" />
    </filter>
    <radialGradient
       gradientTransform="matrix(0.5,0,0,0.52380952,12,17.797619)"
       gradientUnits="userSpaceOnUse"
       xlink:href="#linearGradient4285"
       id="radialGradient5730"
       fy="34.75"
       fx="24"
       r="42"
       cy="34.75"
       cx="24" />
    <linearGradient
       gradientUnits="userSpaceOnUse"
       xlink:href="#linearGradient4239"
       id="linearGradient5770"
       y2="24"
       x2="96"
       y1="36"
       x1="44" />
    <linearGradient
       gradientUnits="userSpaceOnUse"
       xlink:href="#linearGradient4239"
       id="linearGradient5774"
       y2="48"
       x2="96"
       y1="45"
       x1="42" />
    <linearGradient
       gradientUnits="userSpaceOnUse"
       xlink:href="#linearGradient4239"
       id="linearGradient5776"
       y2="76"
       x2="82"
       y1="51"
       x1="36" />
    <linearGradient
       gradientUnits="userSpaceOnUse"
       xlink:href="#linearGradient4239"
       id="linearGradient5778"
       y2="72"
       x2="48"
       y1="56"
       x1="32" />
    <linearGradient
       gradientUnits="userSpaceOnUse"
       xlink:href="#linearGradient4239"
       id="linearGradient5780"
       y2="0"
       x2="8"
       y1="16.421875"
       x1="11.46875" />
    <linearGradient
       gradientUnits="userSpaceOnUse"
       xlink:href="#linearGradient4239"
       id="linearGradient5782"
       y2="6"
       x2="39"
       y1="16"
       x1="32" />
    <linearGradient
       gradientUnits="userSpaceOnUse"
       xlink:href="#linearGradient4239"
       id="linearGradient5784"
       y2="1"
       x2="70"
       y1="23"
       x1="42" />
  </defs>
  <metadata
     id="metadata2413">
    <rdf:RDF>
      <cc:Work
         rdf:about="">
        <dc:format>image/svg+xml</dc:format>
        <dc:type
           rdf:resource="http://purl.org/dc/dcmitype/StillImage" />
        <dc:title></dc:title>
      </cc:Work>
    </rdf:RDF>
  </metadata>
  <g
     style="display:none"
     id="layer2">
    <rect
       style="opacity:0.9;fill:url(#ButtonShadow);fill-opacity:1;fill-rule:nonzero;stroke:none;filter:url(#filter3174)"
       id="rect3745"
       y="7"
       x="5"
       ry="6"
       rx="6"
       height="85"
       width="86" />
  </g>
  <g
     id="layer3">
    <path
       style="opacity:0.07999998;fill:url(#linearGradient4031);fill-opacity:1;fill-rule:nonzero;stroke:none"
       id="path4029"
       d="m 12,4.03125 c -6.0701637,-0.1617408 -10.6911509,5.6895113 -9.96875,11.5 7.16e-5,0.04167 -7.01e-5,0.08333 0,0.125 0.030431,18.086218 -0.077787,36.153437 0.03125,54.25 a 0.93232674,0.93232674 0 0 0 0,0.0625 c 0.4297709,5.831518 6.2168912,9.674679 11.71875,9 0.0418,-0.0051 0.08323,0.0056 0.125,0 l 5.3125,0 c -0.679778,4.428501 -1.596836,8.895227 -2.0625,13.40625 a 0.93232674,0.93232674 0 0 0 0.03125,0.28125 c 0.279995,1.294203 1.371731,2.108795 2.46875,2.25 1.023884,0.131791 2.065552,-0.225148 2.84375,-1 l 0,0.03125 22.84375,-14.96875 c 13.185056,-0.02898 26.362788,0.07707 39.5625,-0.03125 a 0.93232674,0.93232674 0 0 0 0.0625,0 c 5.831518,-0.429771 9.674679,-6.216892 9,-11.71875 -0.0051,-0.0418 0.0056,-0.08323 0,-0.125 -0.03043,-18.00176 0.07779,-35.987855 -0.03125,-54 a 0.93232674,0.93232674 0 0 0 0,-0.0625 c -0.429771,-5.8315178 -6.216892,-9.6746792 -11.71875,-9 l -0.125,0 -70.0625,0 -0.03125,0 z" />
    <path
       style="opacity:0.1;fill:url(#linearGradient4023);fill-opacity:1;fill-rule:nonzero;stroke:none"
       id="path4015"
       d="M 12,4.96875 C 6.498217,4.8031106 2.2406967,10.230306 2.96875,15.520213 c 0.031153,18.132768 -0.06237,36.268711 0.046873,54.39949 0.3891125,5.279828 5.7301904,8.791471 10.757959,8.111547 2.17964,0 4.359279,0 6.538918,0 -0.693629,4.811167 -1.723208,9.637038 -2.21875,14.4375 0.399566,1.846889 2.79006,1.976363 3.910163,0.694482 C 29.700525,88.119238 37.397138,83.075244 45.09375,78.03125 58.368678,78.00033 71.646761,78.0933 84.919703,77.98438 90.199531,77.595267 93.711174,72.254189 93.03125,67.226421 93.000098,49.178106 93.093619,31.12662 92.984377,13.080297 92.595264,7.8004692 87.254186,4.2888256 82.226418,4.96875 c -23.408806,0 -46.817612,0 -70.226418,0 z" />
    <path
       style="opacity:0.15;fill:url(#linearGradient4009);fill-opacity:1;fill-rule:nonzero;stroke:none"
       id="path4007"
       d="M 12,6 C 7.5921478,6 4,9.5921478 4,14 l 0,55 c 0,4.407852 3.5921478,8 8,8 l 9.5,0 -2.40625,14.90625 a 0.98733463,0.98733463 0 0 0 1.5,0.96875 L 44.8125,77 84,77 c 4.407852,0 8,-3.592148 8,-8 L 92,14 C 92,9.5921478 88.407852,6 84,6 L 12,6 z" />
    <path
       style="opacity:0.3;fill:url(#linearGradient4001);fill-opacity:1;fill-rule:nonzero;stroke:none"
       id="rect3991"
       d="M 12,7 C 8.122,7 5,10.122 5,14 l 0,55 c 0,3.878 3.122,7 7,7 L 22.65625,76 20.0625,92.0625 44.5625,76 84,76 c 3.878,0 7,-3.122 7,-7 L 91,14 C 91,10.122 87.878,7 84,7 L 12,7 z" />
    <path
       style="opacity:0.45;fill:url(#linearGradient3989);fill-opacity:1;fill-rule:nonzero;stroke:none"
       id="path3984"
       d="M 12,7 C 8.676,7 6,9.676 6,13 l 0,56 c 0,3.324 2.676,6 6,6 l 12,0 -3,16 23,-16 40,0 c 3.324,0 6,-2.676 6,-6 L 90,13 C 90,9.676 87.324,7 84,7 L 12,7 z" />
  </g>
  <g
     id="layer1">
    <path
       style="fill:url(#linearGradient3948);fill-opacity:1;fill-rule:nonzero;stroke:none"
       id="rect2419"
       d="M 12,6 C 8.676,6 6,8.676 6,12 v 56 c 0,3.324 2.676,6 6,6 H 24 L 21,90 44,74 h 40 c 3.324,0 6,-2.676 6,-6 V 12 C 90,8.676 87.324,6 84,6 Z" />
    <path
       style="opacity:0.3;fill:url(#linearGradient3967);fill-opacity:1;fill-rule:nonzero;stroke:none"
       id="path3953"
       d="M 12,6 C 8.676,6 6,8.676 6,12 v 56 c 0,2.9085 2.0422266,5.317352 4.78125,5.875 C 8.5791143,73.33731 6.96875,71.37778 6.96875,69 V 13 C 6.96875,10.202611 9.2026115,7.96875 12,7.96875 h 72 c 2.797388,0 5.03125,2.233861 5.03125,5.03125 v 56 c 0,2.37778 -1.610365,4.33731 -3.8125,4.875 C 87.957773,73.317352 90,70.9085 90,68 V 12 C 90,8.676 87.324,6 84,6 Z M 24,74.03125 21,90 43.96875,74.03125 A 0.98129583,0.98129583 0 0 0 43.4375,74.1875 l -21.03125,14.625 2.5625,-13.625 A 0.98129583,0.98129583 0 0 0 24,74.03125 Z" />
    <path
       style="opacity:0.15;fill:url(#radialGradient3982);fill-opacity:1;fill-rule:nonzero;stroke:none"
       id="path3969"
       d="M 12,6 C 8.676,6 6,8.676 6,12 v 56 c 0,3.324 2.676,6 6,6 H 24 L 21,90 44,74 h 40 c 3.324,0 6,-2.676 6,-6 V 12 C 90,8.676 87.324,6 84,6 Z m 0,2 h 72 c 2.251468,0 4,1.748532 4,4 v 56 c 0,2.251468 -1.748532,4 -4,4 H 44 a 1.9985725,1.9985725 0 0 0 -1.15625,0.375 L 23.875,85.5625 25.96875,74.375 A 1.9985725,1.9985725 0 0 0 24,72 H 12 C 9.7485321,72 8,70.251468 8,68 V 12 C 8,9.748532 9.7485321,8 12,8 Z" />
    <path
       id="rect825-3"
       d="m 39.783022,18.51722 c -0.745315,9.81e-4 -6.910629,0.161192 -13.396589,5.041565 0,0 -6.910719,12.529473 -6.910719,27.984073 0,0 4.054418,6.996785 14.662701,7.322253 0,0 1.757393,-2.133475 3.204856,-3.968839 -6.107804,-1.806502 -8.41561,-5.643295 -8.41561,-5.643295 0,0 0.468177,0.326803 1.324634,0.818751 0.06943,0.04259 0.138508,0.07956 0.211207,0.120234 0.13839,0.07899 0.287887,0.160287 0.445483,0.245909 1.24392,0.687333 2.42631,1.231321 3.528045,1.65326 1.939032,0.783852 4.31892,1.556256 7.048772,2.06573 3.620017,0.673075 7.851366,0.880747 12.446537,0.02645 2.250436,-0.415795 4.584286,-1.085457 6.980122,-2.080737 1.684819,-0.64287 3.554579,-1.548779 5.539567,-2.849596 0,0 -2.376181,3.947496 -8.683839,5.716636 1.435748,1.819806 3.14821,3.895498 3.14821,3.895498 10.607756,-0.325468 14.661576,-7.322253 14.661576,-7.322253 0,-15.4546 -6.914471,-27.984073 -6.914471,-27.984073 -6.914559,-5.205731 -13.47143,-5.041002 -13.47143,-5.041002 l -0.672072,0.772236 c 8.192719,2.485579 11.966726,6.103784 11.966726,6.103784 -4.994399,-2.729659 -9.909124,-4.096423 -14.470062,-4.611086 -3.482155,-0.391205 -6.76074,-0.286642 -9.712861,0.08685 -0.27299,0.03496 -0.537373,0.07586 -0.80656,0.11442 -1.681037,0.162494 -5.743022,0.772416 -10.899629,3.037544 -1.81894,0.774343 -2.851847,1.372277 -2.851847,1.372277 0,0 3.942818,-3.825287 12.607849,-6.310864 l -0.49538,-0.565155 c 0,0 -0.02553,-6.72e-4 -0.07521,-5.81e-4 z m -1.184143,17.913512 c 2.7143,0 4.914204,2.379925 4.914204,5.31467 0,2.936617 -2.199904,5.315982 -4.914204,5.315982 -2.718129,0 -4.917765,-2.379365 -4.917765,-5.315982 0,-2.934745 2.199636,-5.31467 4.917765,-5.31467 z m 17.502731,0 c 2.718084,0 4.917955,2.379925 4.917955,5.31467 0,2.936617 -2.199871,5.315982 -4.917955,5.315982 -2.714337,0 -4.914201,-2.379365 -4.914201,-5.315982 0,-2.934745 2.199864,-5.31467 4.914201,-5.31467 z"
       style="opacity:0.1;fill:#000000;fill-opacity:1;stroke:#000000;stroke-width:2;stroke-linejoin:round;stroke-miterlimit:4;stroke-dasharray:none;stroke-dashoffset:0;stroke-opacity:1;paint-order:stroke fill markers" />
    <path
       id="rect825-3-6"
       d="m 39.783022,18.51722 c -0.745315,9.81e-4 -6.910629,0.161192 -13.396589,5.041565 0,0 -6.910719,12.529472 -6.910719,27.984072 0,0 4.054418,6.996785 14.662701,7.322253 0,0 1.757393,-2.133475 3.204856,-3.968839 -6.107804,-1.806502 -8.41561,-5.643295 -8.41561,-5.643295 0,0 0.468177,0.326803 1.324634,0.818751 0.06943,0.04259 0.138508,0.07956 0.211207,0.120234 0.13839,0.07899 0.287887,0.160287 0.445483,0.245909 1.24392,0.687333 2.42631,1.231321 3.528045,1.65326 1.939032,0.783852 4.31892,1.556256 7.048772,2.06573 3.620017,0.673075 7.851366,0.880747 12.446537,0.02645 2.250436,-0.415795 4.584286,-1.085457 6.980122,-2.080737 1.684819,-0.64287 3.554579,-1.548779 5.539567,-2.849596 0,0 -2.376181,3.947496 -8.683839,5.716636 1.435748,1.819806 3.14821,3.895498 3.14821,3.895498 10.607756,-0.325468 14.661576,-7.322253 14.661576,-7.322253 0,-15.4546 -6.914471,-27.984072 -6.914471,-27.984072 -6.914559,-5.205731 -13.47143,-5.041002 -13.47143,-5.041002 l -0.672072,0.772236 c 8.192719,2.485579 11.966726,6.103784 11.966726,6.103784 -4.994399,-2.729659 -9.909124,-4.096423 -14.470062,-4.611086 -3.482155,-0.391205 -6.76074,-0.286642 -9.712861,0.08685 -0.27299,0.03496 -0.537373,0.07586 -0.80656,0.11442 -1.681037,0.162494 -5.743022,0.772416 -10.899629,3.037544 -1.81894,0.774343 -2.851847,1.372277 -2.851847,1.372277 0,0 3.942818,-3.825287 12.607849,-6.310864 l -0.49538,-0.565155 c 0,0 -0.02553,-6.72e-4 -0.07521,-5.81e-4 z m -1.184143,17.913511 c 2.7143,0 4.914204,2.379925 4.914204,5.31467 0,2.936617 -2.199904,5.315982 -4.914204,5.315982 -2.718129,0 -4.917765,-2.379365 -4.917765,-5.315982 0,-2.934745 2.199636,-5.31467 4.917765,-5.31467 z m 17.502731,0 c 2.718084,0 4.917955,2.379925 4.917955,5.31467 0,2.936617 -2.199871,5.315982 -4.917955,5.315982 -2.714337,0 -4.914201,-2.379365 -4.914201,-5.315982 0,-2.934745 2.199864,-5.31467 4.914201,-5.31467 z"
       style="opacity:0.1;fill:#000000;fill-opacity:1;stroke:#000000;stroke-width:4;stroke-linejoin:round;stroke-miterlimit:4;stroke-dasharray:none;stroke-dashoffset:0;stroke-opacity:1;paint-order:stroke fill markers" />
    <path
       id="rect825-3-6-7"
       d="m 39.783024,18.517219 c -0.745315,9.81e-4 -6.910629,0.161192 -13.396589,5.041565 0,0 -6.910719,12.529473 -6.910719,27.984073 0,0 4.054418,6.996785 14.662701,7.322253 0,0 1.757393,-2.133475 3.204856,-3.968839 -6.107804,-1.806502 -8.41561,-5.643295 -8.41561,-5.643295 0,0 0.468177,0.326803 1.324634,0.818751 0.06943,0.04259 0.138508,0.07956 0.211207,0.120234 0.13839,0.07899 0.287887,0.160287 0.445483,0.245909 1.24392,0.687333 2.42631,1.231321 3.528045,1.65326 1.939032,0.783852 4.31892,1.556256 7.048768,2.06573 3.62002,0.673075 7.85137,0.880747 12.44654,0.02645 2.25044,-0.415795 4.58429,-1.085457 6.98012,-2.080737 1.68482,-0.64287 3.55458,-1.548779 5.53957,-2.849596 0,0 -2.37618,3.947496 -8.68384,5.716636 1.43575,1.819806 3.14821,3.895498 3.14821,3.895498 10.60776,-0.325468 14.66158,-7.322253 14.66158,-7.322253 0,-15.4546 -6.91447,-27.984073 -6.91447,-27.984073 C 61.74895,18.353054 55.19208,18.517783 55.19208,18.517783 L 54.52,19.290019 c 8.19272,2.485579 11.96673,6.103784 11.96673,6.103784 -4.9944,-2.729659 -9.90912,-4.096423 -14.47006,-4.611086 -3.48216,-0.391205 -6.76074,-0.286642 -9.71286,0.08685 -0.27299,0.03496 -0.53738,0.07586 -0.80656,0.11442 -1.68104,0.162494 -5.743025,0.772416 -10.899632,3.037544 -1.81894,0.774343 -2.851847,1.372277 -2.851847,1.372277 0,0 3.942818,-3.825287 12.607849,-6.310864 l -0.49538,-0.565155 c 0,0 -0.02553,-6.72e-4 -0.07521,-5.81e-4 z m -1.184143,17.913512 c 2.714299,0 4.914199,2.379925 4.914199,5.31467 0,2.936617 -2.1999,5.315982 -4.914199,5.315982 -2.718129,0 -4.917765,-2.379365 -4.917765,-5.315982 0,-2.934745 2.199636,-5.31467 4.917765,-5.31467 z m 17.502729,0 c 2.71809,0 4.91796,2.379925 4.91796,5.31467 0,2.936617 -2.19987,5.315982 -4.91796,5.315982 -2.71434,0 -4.9142,-2.379365 -4.9142,-5.315982 0,-2.934745 2.19986,-5.31467 4.9142,-5.31467 z"
       style="opacity:0.1;fill:#000000;fill-opacity:1;stroke:#000000;stroke-width:6;stroke-linejoin:round;stroke-miterlimit:4;stroke-dasharray:none;stroke-dashoffset:0;stroke-opacity:1;paint-order:stroke fill markers" />
    <path
       id="rect825"
       d="m 39.783022,18.51722 c -0.745315,9.81e-4 -6.910629,0.161192 -13.396589,5.041565 0,0 -6.910719,12.529474 -6.910719,27.984074 0,0 4.054418,6.996785 14.662701,7.322253 0,0 1.757393,-2.133475 3.204856,-3.968839 -6.107804,-1.806502 -8.41561,-5.643295 -8.41561,-5.643295 0,0 0.468177,0.326803 1.324634,0.818751 0.06943,0.04259 0.138508,0.07956 0.211207,0.120234 0.13839,0.07899 0.287887,0.160287 0.445483,0.245909 1.24392,0.687333 2.42631,1.231321 3.528045,1.65326 1.939032,0.783852 4.31892,1.556256 7.048772,2.06573 3.620017,0.673075 7.851366,0.880747 12.446537,0.02645 2.250436,-0.415795 4.584286,-1.085457 6.980122,-2.080737 1.684819,-0.64287 3.554579,-1.548779 5.539567,-2.849596 0,0 -2.376181,3.947496 -8.683839,5.716636 1.435748,1.819806 3.14821,3.895498 3.14821,3.895498 10.607756,-0.325468 14.661576,-7.322253 14.661576,-7.322253 0,-15.4546 -6.914471,-27.984074 -6.914471,-27.984074 -6.914559,-5.205731 -13.47143,-5.041002 -13.47143,-5.041002 l -0.672072,0.772236 c 8.192719,2.485579 11.966726,6.103784 11.966726,6.103784 -4.994399,-2.729659 -9.909124,-4.096423 -14.470062,-4.611086 -3.482155,-0.391205 -6.76074,-0.286642 -9.712861,0.08685 -0.27299,0.03496 -0.537373,0.07586 -0.80656,0.11442 -1.681037,0.162494 -5.743022,0.772416 -10.899629,3.037544 -1.81894,0.774343 -2.851847,1.372277 -2.851847,1.372277 0,0 3.942818,-3.825287 12.607849,-6.310864 l -0.49538,-0.565155 c 0,0 -0.02553,-6.72e-4 -0.07521,-5.81e-4 z m -1.184143,17.913513 c 2.7143,0 4.914204,2.379925 4.914204,5.31467 0,2.936617 -2.199904,5.315982 -4.914204,5.315982 -2.718129,0 -4.917765,-2.379365 -4.917765,-5.315982 0,-2.934745 2.199636,-5.31467 4.917765,-5.31467 z m 17.502731,0 c 2.718084,0 4.917955,2.379925 4.917955,5.31467 0,2.936617 -2.199871,5.315982 -4.917955,5.315982 -2.714337,0 -4.914201,-2.379365 -4.914201,-5.315982 0,-2.934745 2.199864,-5.31467 4.914201,-5.31467 z"
       style="opacity:1;fill:#ffffff;fill-opacity:1;stroke:#207c69;stroke-width:0.03876005;stroke-linejoin:round;stroke-miterlimit:4;stroke-dasharray:none;stroke-dashoffset:0;stroke-opacity:1;paint-order:stroke fill markers" />
  </g>
  <g
     id="layer4" />
</svg>
