<?xml version="1.0" encoding="UTF-8" standalone="no"?>
<svg
   xmlns:dc="http://purl.org/dc/elements/1.1/"
   xmlns:cc="http://creativecommons.org/ns#"
   xmlns:rdf="http://www.w3.org/1999/02/22-rdf-syntax-ns#"
   xmlns:svg="http://www.w3.org/2000/svg"
   xmlns="http://www.w3.org/2000/svg"
   xmlns:xlink="http://www.w3.org/1999/xlink"
   id="svg2408"
   height="96"
   width="96"
   version="1.0">
  <defs
     id="defs2410">
    <linearGradient
       gradientUnits="userSpaceOnUse"
       id="linearGradient3853"
       y2="0.99929649"
       x2="10.31979"
       y1="21"
       x1="10.31979">
      <stop
         offset="0"
         style="stop-color:#b259ff;stop-opacity:1"
         id="stop3855" />
      <stop
         offset="1"
         style="stop-color:#bd85ff;stop-opacity:1"
         id="stop3857" />
    </linearGradient>
    <linearGradient
       gradientTransform="scale(1.0058652,0.994169)"
       gradientUnits="userSpaceOnUse"
       id="ButtonShadow"
       y2="7.0165396"
       x2="45.447727"
       y1="92.539597"
       x1="45.447727">
      <stop
         offset="0"
         style="stop-color:#000000;stop-opacity:1"
         id="stop3750" />
      <stop
         offset="1"
         style="stop-color:#000000;stop-opacity:0.58823532"
         id="stop3752" />
    </linearGradient>
    <linearGradient
       id="linearGradient3737">
      <stop
         offset="0"
         style="stop-color:#fefefe;stop-opacity:1"
         id="stop3739" />
      <stop
         offset="1"
         style="stop-color:#fefefe;stop-opacity:0"
         id="stop3741" />
    </linearGradient>
    <filter
       id="filter3174"
       color-interpolation-filters="sRGB">
      <feGaussianBlur
         stdDeviation="1.71"
         id="feGaussianBlur3176" />
    </filter>
    <linearGradient
       gradientUnits="userSpaceOnUse"
       xlink:href="#linearGradient3737"
       id="linearGradient3188"
       y2="63.893143"
       x2="36.357143"
       y1="6"
       x1="36.357143" />
    <filter
       id="filter3794"
       color-interpolation-filters="sRGB"
       height="1.3839999"
       width="1.3839999"
       y="-0.192"
       x="-0.192">
      <feGaussianBlur
         stdDeviation="5.28"
         id="feGaussianBlur3796" />
    </filter>
    <linearGradient
       gradientUnits="userSpaceOnUse"
       xlink:href="#linearGradient3737"
       id="linearGradient3613"
       y2="138.66119"
       x2="48"
       y1="20.220806"
       x1="48" />
    <radialGradient
       gradientTransform="matrix(1.1573129,0,0,0.99590774,-7.5510206,0.19713193)"
       gradientUnits="userSpaceOnUse"
       xlink:href="#linearGradient3737"
       id="radialGradient3619"
       fy="90.171875"
       fx="48"
       r="42"
       cy="90.171875"
       cx="48" />
    <clipPath
       id="clipPath3613">
      <rect
         style="fill:#fefefe;fill-opacity:1;fill-rule:nonzero;stroke:none"
         id="rect3615"
         y="6"
         x="6"
         ry="6"
         rx="6"
         height="84"
         width="84" />
    </clipPath>
    <linearGradient
       gradientUnits="userSpaceOnUse"
       xlink:href="#linearGradient3853"
       id="linearGradient3617"
       y2="5.9877172"
       x2="48"
       y1="90"
       x1="48" />
    <linearGradient
       id="linearGradient3233">
      <stop
         offset="0"
         style="stop-color:#fefefe;stop-opacity:0"
         id="stop3235" />
      <stop
         offset="0.15000001"
         style="stop-color:#fefefe;stop-opacity:0"
         id="stop3297" />
      <stop
         offset="0.5"
         style="stop-color:#fefefe;stop-opacity:1"
         id="stop3241" />
      <stop
         offset="0.85000002"
         style="stop-color:#fefefe;stop-opacity:0"
         id="stop3299" />
      <stop
         offset="1"
         style="stop-color:#fefefe;stop-opacity:0"
         id="stop3237" />
    </linearGradient>
    <linearGradient
       id="linearGradient3362">
      <stop
         offset="0"
         style="stop-color:#4d4d4d;stop-opacity:1"
         id="stop3364" />
      <stop
         offset="1"
         style="stop-color:#fefefe;stop-opacity:1"
         id="stop3366" />
    </linearGradient>
    <linearGradient
       id="linearGradient3342">
      <stop
         offset="0"
         style="stop-color:#000000;stop-opacity:0"
         id="stop3344" />
      <stop
         offset="0.85000002"
         style="stop-color:#000000;stop-opacity:0"
         id="stop3350" />
      <stop
         offset="1"
         style="stop-color:#000000;stop-opacity:1"
         id="stop3346" />
    </linearGradient>
    <linearGradient
       id="linearGradient3330">
      <stop
         offset="0"
         style="stop-color:#fefefe;stop-opacity:0.203125"
         id="stop3332" />
      <stop
         offset="1"
         style="stop-color:#fefefe;stop-opacity:0.6796875"
         id="stop3334" />
    </linearGradient>
    <linearGradient
       gradientTransform="matrix(1.0058652,0,0,0.994169,100,0)"
       gradientUnits="userSpaceOnUse"
       id="ButtonShadow-0"
       y2="7.0165396"
       x2="45.447727"
       y1="92.539597"
       x1="45.447727">
      <stop
         offset="0"
         style="stop-color:#000000;stop-opacity:1"
         id="stop3750-8" />
      <stop
         offset="1"
         style="stop-color:#000000;stop-opacity:0.58823532"
         id="stop3752-5" />
    </linearGradient>
    <linearGradient
       gradientTransform="matrix(1.0238095,0,0,1.0119048,-1.1428571,-98.071429)"
       gradientUnits="userSpaceOnUse"
       xlink:href="#ButtonShadow-0"
       id="linearGradient3780"
       y2="90.238609"
       x2="32.251034"
       y1="6.1317081"
       x1="32.251034" />
    <linearGradient
       gradientTransform="matrix(1.0238095,0,0,1.0119048,-1.1428571,-98.071429)"
       gradientUnits="userSpaceOnUse"
       xlink:href="#ButtonShadow-0"
       id="linearGradient3772"
       y2="90.238609"
       x2="32.251034"
       y1="6.1317081"
       x1="32.251034" />
    <linearGradient
       gradientTransform="matrix(1.0238095,0,0,1.0119048,-1.1428571,-98.071429)"
       gradientUnits="userSpaceOnUse"
       xlink:href="#ButtonShadow-0"
       id="linearGradient3725"
       y2="90.238609"
       x2="32.251034"
       y1="6.1317081"
       x1="32.251034" />
    <linearGradient
       gradientTransform="translate(0,-97)"
       gradientUnits="userSpaceOnUse"
       xlink:href="#ButtonShadow-0"
       id="linearGradient3721"
       y2="90.238609"
       x2="32.251034"
       y1="6.1317081"
       x1="32.251034" />
    <linearGradient
       gradientTransform="matrix(1.0238095,0,0,1.0119048,-1.1428571,-98.071429)"
       gradientUnits="userSpaceOnUse"
       xlink:href="#ButtonShadow-0"
       id="linearGradient3059"
       y2="90.238609"
       x2="32.251034"
       y1="6.1317081"
       x1="32.251034" />
    <clipPath
       id="clipPath4187">
      <path
         style="fill:#bbb1bf;fill-opacity:1;stroke:none"
         id="path4189"
         d="m 48,102 c -19.88225,0 -36,16.11775 -36,36 0,19.88225 16.11775,36 36,36 19.88225,0 36,-16.11775 36,-36 0,-19.88225 -16.11775,-36 -36,-36 z m 0,24 c 6.62742,0 12,5.37258 12,12 0,6.62742 -5.37258,12 -12,12 -6.62742,0 -12,-5.37258 -12,-12 0,-6.62742 5.37258,-12 12,-12 z" />
    </clipPath>
    <filter
       id="filter4195"
       color-interpolation-filters="sRGB"
       height="1.36"
       width="1.36"
       y="-0.18000001"
       x="-0.18000001">
      <feGaussianBlur
         stdDeviation="5.2159999"
         id="feGaussianBlur4197" />
    </filter>
    <linearGradient
       gradientUnits="userSpaceOnUse"
       id="linearGradient3853-7"
       y2="0.99929649"
       x2="10.31979"
       y1="21"
       x1="10.31979">
      <stop
         offset="0"
         style="stop-color:#07416f;stop-opacity:1"
         id="stop3855-5" />
      <stop
         offset="1"
         style="stop-color:#4cdaf0;stop-opacity:1"
         id="stop3857-4" />
    </linearGradient>
    <clipPath
       id="clipPath3916">
      <path
         style="fill:url(#linearGradient3920);fill-opacity:1;fill-rule:nonzero;stroke:none;display:inline"
         id="path3918"
         d="M 12,6 C 8.676,6 6,8.676 6,12 l 0,72 c 0,3.324 2.676,6 6,6 l 72,0 c 3.324,0 6,-2.676 6,-6 L 90,12 C 90,8.676 87.324,6 84,6 L 12,6 z m 36,8.8125 c 18.2148,0 33,14.784477 33,33 0,18.215529 -14.7852,33 -33,33 -18.21479,0 -33,-14.784471 -33,-33 0,-18.215523 14.78521,-33 33,-33 z m 0,21.25 c -6.48323,0 -11.75,5.266509 -11.75,11.75 0,6.483487 5.26677,11.75 11.75,11.75 6.48323,0 11.75,-5.266513 11.75,-11.75 0,-6.483491 -5.26677,-11.750001 -11.75,-11.75 z" />
    </clipPath>
    <linearGradient
       gradientUnits="userSpaceOnUse"
       xlink:href="#linearGradient3853-7"
       id="linearGradient3920"
       y2="5.9877172"
       x2="48"
       y1="90"
       x1="48" />
    <radialGradient
       gradientTransform="matrix(1,0,0,0.8375435,0,10.059672)"
       gradientUnits="userSpaceOnUse"
       xlink:href="#linearGradient3342"
       id="radialGradient3949"
       fy="61.92226"
       fx="59.893993"
       r="33.71384"
       cy="61.92226"
       cx="59.893993" />
    <linearGradient
       gradientUnits="userSpaceOnUse"
       xlink:href="#linearGradient3362"
       id="linearGradient3951"
       y2="61.92226"
       x2="94.567612"
       y1="61.92226"
       x1="25.220379" />
    <linearGradient
       gradientTransform="matrix(0,0.28234448,-0.33916637,0,69.001413,30.890837)"
       gradientUnits="userSpaceOnUse"
       xlink:href="#linearGradient3330"
       id="linearGradient3970"
       y2="61.92226"
       x2="93.607834"
       y1="61.92226"
       x1="26.180153" />
    <linearGradient
       gradientTransform="matrix(0.48435496,0.27965371,-0.27964247,0.48437444,4.897859,-0.89859081)"
       gradientUnits="userSpaceOnUse"
       xlink:href="#linearGradient3233"
       id="linearGradient3997"
       y2="64"
       x2="123"
       y1="64"
       x1="5" />
    <clipPath
       id="clipPath3999">
      <path
         style="fill:#ff00ff;fill-opacity:1;fill-rule:evenodd;stroke:none;display:inline"
         id="path4001"
         d="m 18,14.8125 c -18.21479,0 -33,14.784477 -33,33 0,18.215529 14.78521,33 33,33 18.2148,0 33,-14.784471 33,-33 0,-0.27935 0.007,-0.566055 0,-0.84375 l -21.28125,0 c 0.0194,0.275437 0.0312,0.563419 0.0312,0.84375 0,6.483487 -5.26677,11.75 -11.75,11.75 -6.48323,0 -11.75,-5.266513 -11.75,-11.75 0,-6.483491 5.26677,-11.75 11.75,-11.75 0.0213,0 0.0413,-1.13e-4 0.0625,0 l 0,-21.25 c -0.0211,-4e-5 -0.0414,0 -0.0625,0 z" />
    </clipPath>
    <linearGradient
       gradientUnits="userSpaceOnUse"
       gradientTransform="matrix(1.4995047,0,0,0.66688689,-138.03008,6.9878498)"
       id="linearGradient-7"
       y2="161.32518"
       x2="-13.134784"
       y1="91.749176"
       x1="32.174747">
      <stop
         id="stop36"
         offset="0%"
         stop-color="#FFDC68" />
      <stop
         id="stop38"
         offset="100%"
         stop-color="#CE4300" />
    </linearGradient>
    <linearGradient
       gradientUnits="userSpaceOnUse"
       gradientTransform="matrix(2.146697,0,0,0.46583193,-138.03008,6.9878498)"
       id="linearGradient-6"
       y2="58.199013"
       x2="12.065349"
       y1="54.425884"
       x1="24.437792">
      <stop
         id="stop31"
         offset="0%"
         stop-color="#FFDC68" />
      <stop
         id="stop33"
         offset="100%"
         stop-color="#CE4300" />
    </linearGradient>
    <linearGradient
       gradientUnits="userSpaceOnUse"
       gradientTransform="matrix(1.1637571,0,0,0.85928587,-138.03008,6.9878498)"
       id="linearGradient-5"
       y2="160.96036"
       x2="-14.568147"
       y1="94.823685"
       x1="39.13192">
      <stop
         id="stop26"
         offset="0%"
         stop-color="#FFDC68" />
      <stop
         id="stop28"
         offset="100%"
         stop-color="#CE4300" />
    </linearGradient>
    <linearGradient
       gradientUnits="userSpaceOnUse"
       gradientTransform="matrix(1.3550117,0,0,0.73800101,-138.03008,6.9878498)"
       id="linearGradient-4"
       y2="58.523483"
       x2="39.143341"
       y1="37.282288"
       x1="87.486359">
      <stop
         id="stop21"
         offset="0%"
         stop-color="#D0D0D0" />
      <stop
         id="stop23"
         offset="100%"
         stop-color="#FFFFFF" />
    </linearGradient>
    <linearGradient
       gradientUnits="userSpaceOnUse"
       gradientTransform="matrix(1.1140919,0,0,0.897592,-138.03008,6.9878498)"
       id="linearGradient-3"
       y2="77.337357"
       x2="27.009293"
       y1="119.44328"
       x1="61.021427">
      <stop
         style="stop-color:#ffffff;stop-opacity:1"
         id="stop16"
         offset="0%"
         stop-color="#FFFFFF" />
      <stop
         id="stop18"
         offset="100%"
         stop-color="#DADADA" />
    </linearGradient>
    <linearGradient
       gradientUnits="userSpaceOnUse"
       gradientTransform="matrix(1.2049438,0,0,0.82991423,-138.03008,6.9878498)"
       id="linearGradient-2"
       y2="56.089581"
       x2="95.398071"
       y1="81.097267"
       x1="49.297791">
      <stop
         id="stop11"
         offset="0%"
         stop-color="#FFFFFF" />
      <stop
         id="stop13"
         offset="100%"
         stop-color="#DADADA" />
    </linearGradient>
    <radialGradient
       gradientTransform="matrix(1.1573129,0,0,0.99590774,-7.626021,0.245611)"
       gradientUnits="userSpaceOnUse"
       xlink:href="#linearGradient3737"
       id="radialGradient3619-3"
       fy="90.171875"
       fx="48"
       r="42"
       cy="90.171875"
       cx="48" />
  </defs>
  <metadata
     id="metadata2413">
    <rdf:RDF>
      <cc:Work
         rdf:about="">
        <dc:format>image/svg+xml</dc:format>
        <dc:type
           rdf:resource="http://purl.org/dc/dcmitype/StillImage" />
        <dc:title></dc:title>
      </cc:Work>
    </rdf:RDF>
  </metadata>
  <g
     style="display:none"
     id="layer2">
    <rect
       style="opacity:0.9;fill:url(#ButtonShadow);fill-opacity:1;fill-rule:nonzero;stroke:none;filter:url(#filter3174)"
       id="rect3745"
       y="7"
       x="5"
       ry="6"
       rx="6"
       height="85"
       width="86" />
  </g>
  <g
     style="display:inline"
     id="layer6">
    <path
       style="opacity:0.07999998;fill:url(#linearGradient3059);fill-opacity:1;fill-rule:nonzero;stroke:none;display:inline"
       id="path3786"
       transform="scale(1,-1)"
       d="m 12,-95.03125 c -5.5110903,0 -10.03125,4.52016 -10.03125,10.03125 l 0,71 c 0,5.5110902 4.5201598,10.03125 10.03125,10.03125 l 72,0 c 5.51109,0 10.03125,-4.5201597 10.03125,-10.03125 l 0,-71 c 0,-5.51109 -4.52016,-10.03125 -10.03125,-10.03125 l -72,0 z" />
    <path
       style="opacity:0.1;fill:url(#linearGradient3780);fill-opacity:1;fill-rule:nonzero;stroke:none;display:inline"
       id="path3778"
       transform="scale(1,-1)"
       d="m 12,-94.03125 c -4.971633,0 -9.03125,4.059617 -9.03125,9.03125 l 0,71 c 0,4.9716329 4.0596171,9.03125 9.03125,9.03125 l 72,0 c 4.971633,0 9.03125,-4.059617 9.03125,-9.03125 l 0,-71 c 0,-4.971633 -4.059617,-9.03125 -9.03125,-9.03125 l -72,0 z" />
    <path
       style="opacity:0.2;fill:url(#linearGradient3772);fill-opacity:1;fill-rule:nonzero;stroke:none;display:inline"
       id="path3770"
       transform="scale(1,-1)"
       d="m 12,-93 c -4.4091333,0 -8,3.590867 -8,8 l 0,71 c 0,4.4091333 3.5908667,8 8,8 l 72,0 c 4.409133,0 8,-3.5908667 8,-8 l 0,-71 c 0,-4.409133 -3.590867,-8 -8,-8 l -72,0 z" />
    <rect
       style="opacity:0.3;fill:url(#linearGradient3725);fill-opacity:1;fill-rule:nonzero;stroke:none;display:inline"
       id="rect3723"
       transform="scale(1,-1)"
       y="-92"
       x="5"
       ry="7"
       rx="7"
       height="85"
       width="86" />
    <rect
       style="opacity:0.45;fill:url(#linearGradient3721);fill-opacity:1;fill-rule:nonzero;stroke:none;display:inline"
       id="rect3716"
       transform="scale(1,-1)"
       y="-91"
       x="6"
       ry="6"
       rx="6"
       height="84"
       width="84" />
  </g>
  <g
     style="display:inline"
     id="layer1">
    <rect
       style="fill:url(#linearGradient3617);fill-opacity:1;fill-rule:nonzero;stroke:none"
       id="rect2419"
       y="6"
       x="6"
       ry="6"
       rx="6"
       height="84"
       width="84" />
    <g
       transform="matrix(0.70727772,0,0,0.70727772,99.254526,-3.9466864)"
       id="g978">
      <path
         d="m -115.78968,130.5797 c 0,0 19.878318,-69.558729 97.257448,-60.71395 0,0 -49.177298,-29.193045 -96.918308,10.163443 -14.09942,32.658977 -0.33914,50.550507 -0.33914,50.550507 z"
         id="path4652-2-7-9-7-2-7"
         style="fill:url(#linearGradient-2)" />
      <path
         d="m -109.87168,121.78146 c 0,0 20.741532,-50.006895 76.107185,-50.885714 -42.085714,10.252901 0.069,46.601144 0.069,46.601144 0,0 -33.290562,30.16385 -76.176235,4.28457 z"
         id="path4654-1-7-7-4-4-6"
         style="fill:url(#linearGradient-3)" />
      <path
         d="m -121.41984,83.447338 c 0,0 41.427963,-45.570746 103.293738,-14.085512 -1.10478,-8.561746 -8.423713,-18.22827 -21.542565,-20.990143 -2.899947,-1.380926 -24.166319,-34.247126 -69.875163,-15.328323 14.061813,1.094885 20.095438,3.064591 20.437808,4.557043 -24.317878,-4.179301 -31.526238,30.427841 -32.313818,45.846935 z"
         id="path4656-5-6-43-8-0-8"
         style="fill:url(#linearGradient-4)" />
      <path
         d="m -62.005232,44.790005 c 0,0 10.599208,-3.795987 11.979569,7.493411 -10.451301,0.986024 -11.979569,-7.493411 -11.979569,-7.493411 z"
         id="path4658-6-9-5-0-2-9"
         style="fill:#202020" />
      <path
         d="m -116.06745,130.80598 c 0,0 18.120706,-59.110496 78.704625,-61.397456 0,0 -49.161271,-8.969671 -83.882225,46.031306 -0.1925,7.78133 5.1776,15.36615 5.1776,15.36615 z"
         id="path4660-5-1-6-0-7-6"
         style="fill:url(#linearGradient-5)" />
      <path
         d="m -109.49299,33.049094 c 0,0 15.110824,0.878839 20.505802,4.589406 2.252558,-0.463405 4.165169,-2.005683 4.490297,-4.106216 -1.932942,-0.79996 -19.625529,-2.240828 -24.996099,-0.48319 z"
         id="path4662-0-1-1-1-2-3"
         style="fill:url(#linearGradient-6)" />
      <path
         d="m -121.28359,83.525934 c 0,0 18.91828,-22.722624 57.110777,-25.437234 0,0 -51.991847,2.349729 -56.356507,17.030865 -1.21343,3.530276 -0.75427,8.406369 -0.75427,8.406369 z"
         id="path4442-5-0-9-4-6-0-96"
         style="fill:url(#linearGradient-7)" />
    </g>
    <path
       style="opacity:0.35;fill:url(#linearGradient3188);fill-opacity:1;fill-rule:nonzero;stroke:none"
       id="rect3728"
       d="M 12,6 C 8.676,6 6,8.676 6,12 l 0,2 0,68 0,2 c 0,0.334721 0.04135,0.6507 0.09375,0.96875 0.0487,0.295596 0.09704,0.596915 0.1875,0.875 0.00988,0.03038 0.020892,0.0636 0.03125,0.09375 0.098865,0.287771 0.2348802,0.547452 0.375,0.8125 0.1445918,0.273507 0.3156161,0.535615 0.5,0.78125 0.1843839,0.245635 0.3737765,0.473472 0.59375,0.6875 0.439947,0.428056 0.94291,0.814526 1.5,1.09375 0.278545,0.139612 0.5734731,0.246947 0.875,0.34375 -0.2562018,-0.100222 -0.4867109,-0.236272 -0.71875,-0.375 -0.00741,-0.0044 -0.023866,0.0045 -0.03125,0 -0.031933,-0.0193 -0.062293,-0.04251 -0.09375,-0.0625 -0.120395,-0.0767 -0.2310226,-0.163513 -0.34375,-0.25 -0.1061728,-0.0808 -0.2132809,-0.161112 -0.3125,-0.25 C 8.4783201,88.557317 8.3087904,88.373362 8.15625,88.1875 8.0486711,88.057245 7.9378561,87.922215 7.84375,87.78125 7.818661,87.74287 7.805304,87.69538 7.78125,87.65625 7.716487,87.553218 7.6510225,87.451733 7.59375,87.34375 7.4927417,87.149044 7.3880752,86.928049 7.3125,86.71875 7.30454,86.69694 7.288911,86.6782 7.28125,86.65625 7.2494249,86.5643 7.2454455,86.469419 7.21875,86.375 7.1884177,86.268382 7.1483606,86.171969 7.125,86.0625 7.0521214,85.720988 7,85.364295 7,85 L 7,83 7,15 7,13 C 7,10.218152 9.2181517,8 12,8 l 2,0 68,0 2,0 c 2.781848,0 5,2.218152 5,5 l 0,2 0,68 0,2 c 0,0.364295 -0.05212,0.720988 -0.125,1.0625 -0.04415,0.206893 -0.08838,0.397658 -0.15625,0.59375 -0.0077,0.02195 -0.0233,0.04069 -0.03125,0.0625 -0.06274,0.173739 -0.138383,0.367449 -0.21875,0.53125 -0.04158,0.0828 -0.07904,0.169954 -0.125,0.25 -0.0546,0.09721 -0.126774,0.18835 -0.1875,0.28125 -0.09411,0.140965 -0.204921,0.275995 -0.3125,0.40625 -0.143174,0.17445 -0.303141,0.346998 -0.46875,0.5 -0.01117,0.0102 -0.01998,0.02115 -0.03125,0.03125 -0.138386,0.125556 -0.285091,0.234436 -0.4375,0.34375 -0.102571,0.07315 -0.204318,0.153364 -0.3125,0.21875 -0.0074,0.0045 -0.02384,-0.0044 -0.03125,0 -0.232039,0.138728 -0.462548,0.274778 -0.71875,0.375 0.301527,-0.0968 0.596455,-0.204138 0.875,-0.34375 0.55709,-0.279224 1.060053,-0.665694 1.5,-1.09375 0.219973,-0.214028 0.409366,-0.441865 0.59375,-0.6875 0.184384,-0.245635 0.355408,-0.507743 0.5,-0.78125 0.14012,-0.265048 0.276135,-0.524729 0.375,-0.8125 0.01041,-0.03078 0.02133,-0.06274 0.03125,-0.09375 0.09046,-0.278085 0.1388,-0.579404 0.1875,-0.875 C 89.95865,84.6507 90,84.334721 90,84 l 0,-2 0,-68 0,-2 C 90,8.676 87.324,6 84,6 L 12,6 z" />
    <path
       style="display:inline;opacity:0.2;fill:url(#radialGradient3619-3);fill-opacity:1;fill-rule:nonzero;stroke:none"
       id="path3615"
       d="m 11.925,90.04848 c -3.324,0 -6,-2.676 -6,-6 v -2 -68.000001 -2 c 0,-0.334721 0.04135,-0.6507 0.09375,-0.96875 0.0487,-0.295596 0.09704,-0.596915 0.1875,-0.875 0.0099,-0.03038 0.02089,-0.0636 0.03125,-0.09375 0.09886,-0.287771 0.234881,-0.547452 0.375,-0.8125 0.144592,-0.273507 0.315616,-0.535615 0.5,-0.78125 0.184384,-0.245635 0.373777,-0.473472 0.59375,-0.6875 0.439947,-0.428056 0.94291,-0.814526 1.5,-1.09375 0.278545,-0.139612 0.573473,-0.246947 0.875,-0.34375 -0.256201,0.100222 -0.486711,0.236272 -0.71875,0.375 -0.0074,0.0044 -0.02387,-0.0045 -0.03125,0 -0.03193,0.0193 -0.06229,0.04251 -0.09375,0.0625 -0.120395,0.0767 -0.231022,0.163513 -0.34375,0.25 -0.106172,0.0808 -0.213281,0.161112 -0.3125,0.25 -0.17793,0.161433 -0.347459,0.345388 -0.5,0.53125 -0.107579,0.130255 -0.218394,0.265285 -0.3125,0.40625 -0.02509,0.03838 -0.03845,0.08587 -0.0625,0.125 C 7.64149,8.495261 7.576023,8.596746 7.51875,8.704729 7.417742,8.899435 7.313076,9.12043 7.2375,9.329729 7.2295,9.351539 7.21391,9.370279 7.20625,9.392229 7.17442,9.484179 7.17045,9.57906 7.14375,9.673479 7.11342,9.780097 7.07336,9.87651 7.05,9.985979 c -0.07288,0.341512 -0.125,0.698205 -0.125,1.0625 v 2 68.000001 2 c 0,2.78185 2.218152,5 5,5 h 2 68.000003 2 c 2.78185,0 5,-2.21815 5,-5 v -2 -68.000001 -2 c 0,-0.364295 -0.0521,-0.720988 -0.125,-1.0625 -0.0442,-0.206893 -0.0884,-0.397658 -0.15625,-0.59375 -0.008,-0.02195 -0.0233,-0.04069 -0.0312,-0.0625 -0.0627,-0.173739 -0.13839,-0.367449 -0.21875,-0.53125 -0.0416,-0.0828 -0.079,-0.169954 -0.125,-0.25 -0.0546,-0.09721 -0.12678,-0.18835 -0.1875,-0.28125 -0.0941,-0.140965 -0.20492,-0.275995 -0.3125,-0.40625 -0.14318,-0.17445 -0.30314,-0.346998 -0.46875,-0.5 -0.0112,-0.0102 -0.02,-0.02115 -0.0312,-0.03125 -0.13839,-0.125556 -0.28509,-0.234436 -0.4375,-0.34375 -0.10257,-0.07315 -0.20432,-0.153364 -0.3125,-0.21875 -0.007,-0.0045 -0.0238,0.0044 -0.0312,0 -0.23204,-0.138728 -0.46255,-0.274778 -0.71875,-0.375 0.30152,0.0968 0.59645,0.204138 0.875,0.34375 0.55709,0.279224 1.06005,0.665694 1.5,1.09375 0.21997,0.214028 0.40936,0.441865 0.59375,0.6875 0.18438,0.245635 0.35541,0.507743 0.5,0.78125 0.14012,0.265048 0.27613,0.524729 0.375,0.8125 0.0104,0.03078 0.0213,0.06274 0.0312,0.09375 0.0905,0.278085 0.1388,0.579404 0.1875,0.875 0.0524,0.31805 0.0937,0.634029 0.0937,0.96875 v 2 68.000001 2 c 0,3.324 -2.676,6 -6,6 z" />
  </g>
  <g
     style="display:inline"
     id="layer5">
    <rect
       style="opacity:0.1;fill:url(#linearGradient3613);fill-opacity:1;fill-rule:nonzero;stroke:#fefefe;stroke-width:0.5;stroke-linecap:round;stroke-linejoin:miter;stroke-miterlimit:4;stroke-dasharray:none;stroke-dashoffset:0;stroke-opacity:1;filter:url(#filter3794)"
       id="rect3171"
       clip-path="url(#clipPath3613)"
       y="15"
       x="15"
       ry="12"
       rx="12"
       height="66"
       width="66" />
  </g>
  <g
     id="layer3" />
</svg>
