<?xml version="1.0" encoding="UTF-8" standalone="no"?>
<svg
   xmlns:dc="http://purl.org/dc/elements/1.1/"
   xmlns:cc="http://creativecommons.org/ns#"
   xmlns:rdf="http://www.w3.org/1999/02/22-rdf-syntax-ns#"
   xmlns:svg="http://www.w3.org/2000/svg"
   xmlns="http://www.w3.org/2000/svg"
   xmlns:xlink="http://www.w3.org/1999/xlink"
   version="1.0"
   width="96"
   height="96"
   id="svg2408">
  <defs
     id="defs2410">
    <linearGradient
       id="linearGradient4854">
      <stop
         id="stop4850"
         offset="0"
         style="stop-color:#fefefe;stop-opacity:1" />
      <stop
         id="stop4852"
         offset="1"
         style="stop-color:#fefefe;stop-opacity:0" />
    </linearGradient>
    <linearGradient
       id="linearGradient4798">
      <stop
         offset="0"
         style="stop-color:#000000;stop-opacity:0.82215743"
         id="stop4794" />
      <stop
         offset="1"
         style="stop-color:#000000;stop-opacity:0"
         id="stop4796" />
    </linearGradient>
    <linearGradient
       id="linearGradient4647">
      <stop
         id="stop4643"
         offset="0"
         style="stop-color:#ff9200;stop-opacity:1" />
      <stop
         id="stop4645"
         offset="1"
         style="stop-color:#ff5500;stop-opacity:1" />
    </linearGradient>
    <linearGradient
       id="linearGradient4844">
      <stop
         id="stop4840"
         offset="0"
         style="stop-color:#006cff;stop-opacity:1" />
      <stop
         id="stop4842"
         offset="1"
         style="stop-color:#00b205;stop-opacity:1" />
    </linearGradient>
    <linearGradient
       id="linearGradient4802">
      <stop
         style="stop-color:#ff002c;stop-opacity:1"
         offset="0"
         id="stop4798" />
      <stop
         style="stop-color:#2c33ff;stop-opacity:1"
         offset="1"
         id="stop4800" />
    </linearGradient>
    <linearGradient
       id="linearGradient4724">
      <stop
         id="stop4720"
         offset="0"
         style="stop-color:#ff7200;stop-opacity:1" />
      <stop
         id="stop4722"
         offset="1"
         style="stop-color:#e80000;stop-opacity:1" />
    </linearGradient>
    <linearGradient
       id="linearGradient4692">
      <stop
         style="stop-color:#000000;stop-opacity:1;"
         offset="0"
         id="stop4688" />
      <stop
         style="stop-color:#646464;stop-opacity:1"
         offset="1"
         id="stop4690" />
    </linearGradient>
    <linearGradient
       x1="45.447727"
       y1="92.539597"
       x2="45.447727"
       y2="7.0165396"
       id="ButtonShadow"
       gradientUnits="userSpaceOnUse"
       gradientTransform="scale(1.0058652,0.994169)">
      <stop
         id="stop3750"
         style="stop-color:#000000;stop-opacity:1"
         offset="0" />
      <stop
         id="stop3752"
         style="stop-color:#000000;stop-opacity:0.58823532"
         offset="1" />
    </linearGradient>
    <linearGradient
       id="linearGradient3737">
      <stop
         id="stop3739"
         style="stop-color:#fefefe;stop-opacity:1"
         offset="0" />
      <stop
         id="stop3741"
         style="stop-color:#fefefe;stop-opacity:0"
         offset="1" />
    </linearGradient>
    <linearGradient
       id="linearGradient3700">
      <stop
         id="stop3702"
         style="stop-color:#a5aaaf;stop-opacity:1"
         offset="0" />
      <stop
         id="stop3704"
         style="stop-color:#d4d7d9;stop-opacity:1"
         offset="1" />
    </linearGradient>
    <filter
       color-interpolation-filters="sRGB"
       id="filter3174">
      <feGaussianBlur
         id="feGaussianBlur3176"
         stdDeviation="1.71" />
    </filter>
    <linearGradient
       x1="36.357143"
       y1="6"
       x2="36.357143"
       y2="63.893143"
       id="linearGradient3188"
       xlink:href="#linearGradient3737"
       gradientUnits="userSpaceOnUse" />
    <filter
       x="-0.192"
       y="-0.192"
       width="1.3839999"
       height="1.3839999"
       color-interpolation-filters="sRGB"
       id="filter3794">
      <feGaussianBlur
         id="feGaussianBlur3796"
         stdDeviation="5.28" />
    </filter>
    <linearGradient
       x1="48"
       y1="20.220806"
       x2="48"
       y2="138.66119"
       id="linearGradient3613"
       xlink:href="#linearGradient3737"
       gradientUnits="userSpaceOnUse" />
    <radialGradient
       cx="48"
       cy="90.171875"
       r="42"
       fx="48"
       fy="90.171875"
       id="radialGradient3619"
       xlink:href="#linearGradient3737"
       gradientUnits="userSpaceOnUse"
       gradientTransform="matrix(1.1573129,0,0,0.99590774,-7.5510206,0.19713193)" />
    <clipPath
       id="clipPath3613">
      <rect
         width="84"
         height="84"
         rx="6"
         ry="6"
         x="6"
         y="6"
         id="rect3615"
         style="fill:#fefefe;fill-opacity:1;fill-rule:nonzero;stroke:none" />
    </clipPath>
    <linearGradient
       x1="48"
       y1="90"
       x2="48"
       y2="5.9877172"
       id="linearGradient3617"
       xlink:href="#linearGradient3700"
       gradientUnits="userSpaceOnUse" />
    <linearGradient
       x1="45.447727"
       y1="92.539597"
       x2="45.447727"
       y2="7.0165396"
       id="ButtonShadow-0"
       gradientUnits="userSpaceOnUse"
       gradientTransform="matrix(1.0058652,0,0,0.994169,100,0)">
      <stop
         id="stop3750-8"
         style="stop-color:#000000;stop-opacity:1"
         offset="0" />
      <stop
         id="stop3752-5"
         style="stop-color:#000000;stop-opacity:0.58823532"
         offset="1" />
    </linearGradient>
    <linearGradient
       x1="32.251034"
       y1="6.1317081"
       x2="32.251034"
       y2="90.238609"
       id="linearGradient3780"
       xlink:href="#ButtonShadow-0"
       gradientUnits="userSpaceOnUse"
       gradientTransform="matrix(1.0238095,0,0,1.0119048,-1.1428571,-98.071429)" />
    <linearGradient
       x1="32.251034"
       y1="6.1317081"
       x2="32.251034"
       y2="90.238609"
       id="linearGradient3772"
       xlink:href="#ButtonShadow-0"
       gradientUnits="userSpaceOnUse"
       gradientTransform="matrix(1.0238095,0,0,1.0119048,-1.1428571,-98.071429)" />
    <linearGradient
       x1="32.251034"
       y1="6.1317081"
       x2="32.251034"
       y2="90.238609"
       id="linearGradient3725"
       xlink:href="#ButtonShadow-0"
       gradientUnits="userSpaceOnUse"
       gradientTransform="matrix(1.0238095,0,0,1.0119048,-1.1428571,-98.071429)" />
    <linearGradient
       x1="32.251034"
       y1="6.1317081"
       x2="32.251034"
       y2="90.238609"
       id="linearGradient3721"
       xlink:href="#ButtonShadow-0"
       gradientUnits="userSpaceOnUse"
       gradientTransform="translate(0,-97)" />
    <linearGradient
       x1="32.251034"
       y1="6.1317081"
       x2="32.251034"
       y2="90.238609"
       id="linearGradient3026"
       xlink:href="#ButtonShadow-0"
       gradientUnits="userSpaceOnUse"
       gradientTransform="matrix(1.0238095,0,0,1.0119048,-1.1428571,-98.071429)" />
    <linearGradient
       x1="-41"
       y1="49"
       x2="72"
       y2="49"
       id="linearGradient4111"
       xlink:href="#linearGradient4086"
       gradientUnits="userSpaceOnUse"
       gradientTransform="matrix(0,1,-1,0,97,1)" />
    <linearGradient
       id="linearGradient4086">
      <stop
         id="stop4088"
         style="stop-color:#bebebe;stop-opacity:1"
         offset="0" />
      <stop
         id="stop4098"
         style="stop-color:#ebebeb;stop-opacity:1"
         offset="1" />
    </linearGradient>
    <radialGradient
       cx="48"
       cy="44"
       r="16"
       fx="48"
       fy="44"
       id="radialGradient3847-1"
       xlink:href="#linearGradient3841-9"
       gradientUnits="userSpaceOnUse" />
    <linearGradient
       id="linearGradient3841-9">
      <stop
         id="stop3843-9"
         style="stop-color:#fefefe;stop-opacity:1"
         offset="0" />
      <stop
         id="stop3849-7"
         style="stop-color:#fefefe;stop-opacity:0.33587787"
         offset="0.5" />
      <stop
         id="stop3845-4"
         style="stop-color:#000000;stop-opacity:0.16793893"
         offset="1" />
    </linearGradient>
    <linearGradient
       x1="15"
       y1="48"
       x2="120"
       y2="48"
       id="linearGradient3857-9"
       xlink:href="#linearGradient3851-2"
       gradientUnits="userSpaceOnUse"
       gradientTransform="matrix(0,-1,1,0,0,97)" />
    <linearGradient
       id="linearGradient3851-2">
      <stop
         id="stop3853-9"
         style="stop-color:#000000;stop-opacity:1"
         offset="0" />
      <stop
         id="stop3855-4"
         style="stop-color:#000000;stop-opacity:0"
         offset="1" />
    </linearGradient>
    <linearGradient
       x1="16"
       y1="49"
       x2="80"
       y2="49"
       id="linearGradient4223"
       xlink:href="#linearGradient4086"
       gradientUnits="userSpaceOnUse"
       gradientTransform="matrix(0,-1,1,0,-1,97)" />
    <linearGradient
       xlink:href="#linearGradient4692"
       id="linearGradient4694"
       x1="171.97002"
       y1="79.072037"
       x2="172.45009"
       y2="11.95339"
       gradientUnits="userSpaceOnUse"
       gradientTransform="matrix(0.3712194,0,0,0.42495552,-38.135054,30.218882)" />
    <linearGradient
       xlink:href="#linearGradient4724"
       id="linearGradient4694-3"
       x1="171.97002"
       y1="79.072037"
       x2="172.45009"
       y2="11.95339"
       gradientUnits="userSpaceOnUse"
       gradientTransform="matrix(-0.3712194,0,0,0.42495552,88.515626,30.162565)" />
    <linearGradient
       xlink:href="#linearGradient4692"
       id="linearGradient4694-0"
       x1="171.97002"
       y1="79.072037"
       x2="172.45009"
       y2="11.95339"
       gradientUnits="userSpaceOnUse"
       gradientTransform="matrix(0.3712194,0,0,0.42495552,-14.849866,30.162565)" />
    <linearGradient
       xlink:href="#linearGradient4802"
       id="linearGradient4694-3-6"
       x1="171.97002"
       y1="79.072037"
       x2="172.45009"
       y2="11.95339"
       gradientUnits="userSpaceOnUse"
       gradientTransform="matrix(-0.3712194,0,0,0.42495552,111.80082,30.106247)" />
    <linearGradient
       xlink:href="#linearGradient4692"
       id="linearGradient4694-0-2"
       x1="171.97002"
       y1="79.072037"
       x2="172.45009"
       y2="11.95339"
       gradientUnits="userSpaceOnUse"
       gradientTransform="matrix(0.3712194,0,0,0.42495552,8.4353265,30.106247)" />
    <linearGradient
       xlink:href="#linearGradient4844"
       id="linearGradient4694-3-6-3"
       x1="171.97002"
       y1="79.072037"
       x2="172.45009"
       y2="11.95339"
       gradientUnits="userSpaceOnUse"
       gradientTransform="matrix(-0.3712194,0,0,0.42495552,135.08601,30.04993)" />
    <linearGradient
       gradientTransform="matrix(-3.4919153,0,0,3.0248443,151.27497,38.033625)"
       gradientUnits="userSpaceOnUse"
       xlink:href="#linearGradient3637"
       id="linearGradient3015"
       y2="19.290417"
       x2="10.458337"
       y1="4.3967042"
       x1="10.458337" />
    <linearGradient
       id="linearGradient3637">
      <stop
         offset="0"
         style="stop-color:#303032;stop-opacity:1"
         id="stop3639" />
      <stop
         offset="1"
         style="stop-color:#000000;stop-opacity:1"
         id="stop3641" />
    </linearGradient>
    <filter
       id="Gaussian_Blur">
      <feGaussianBlur
         id="feGaussianBlur2"
         in="SourceGraphic"
         stdDeviation="3" />
    </filter>
    <linearGradient
       gradientTransform="translate(0,-391)"
       y2="416.49271"
       x2="161.3222"
       y1="765.26947"
       x1="240.5625"
       gradientUnits="userSpaceOnUse"
       id="SVGID_1_">
      <stop
         id="stop7"
         style="stop-color:#84420e;stop-opacity:1"
         offset="0" />
      <stop
         id="stop9"
         style="stop-color:#ff9737;stop-opacity:1"
         offset="1" />
    </linearGradient>
    <radialGradient
       gradientUnits="userSpaceOnUse"
       gradientTransform="matrix(0.9774,0.2114,-0.1266,0.5851,0.87089952,-343.1854)"
       fy="598.06873"
       fx="127.5269"
       r="304.65121"
       cy="598.875"
       cx="131.41409"
       id="SVGID_2_">
      <stop
         id="stop14"
         style="stop-color:#FFFFFF;stop-opacity:0"
         offset="0" />
      <stop
         id="stop16"
         style="stop-color:#FFFFFF;stop-opacity:0.0804"
         offset="0.4657" />
      <stop
         id="stop18"
         style="stop-color:#FFFFFF;stop-opacity:0.2143"
         offset="0.9861" />
      <stop
         id="stop20"
         style="stop-color:#FFFFFF;stop-opacity:0"
         offset="1" />
    </radialGradient>
    <radialGradient
       gradientUnits="userSpaceOnUse"
       gradientTransform="matrix(-0.00660775,0.66187881,-0.90906934,-0.00907553,269.08128,-58.026657)"
       r="58.999998"
       fy="73.341217"
       fx="201.08034"
       cy="73.341217"
       cx="201.08034"
       id="radialGradient4649"
       xlink:href="#linearGradient4647" />
    <radialGradient
       gradientUnits="userSpaceOnUse"
       gradientTransform="matrix(1,0,0,1.1872568,113.90412,-155.49251)"
       r="55"
       fy="215.94858"
       fx="199.70432"
       cy="215.94858"
       cx="199.70432"
       id="radialGradient4672"
       xlink:href="#linearGradient4647" />
    <radialGradient
       gradientUnits="userSpaceOnUse"
       gradientTransform="matrix(1,0,0,0.58847712,-14.957106,-49.484989)"
       r="80"
       fy="97.826027"
       fx="370.31201"
       cy="97.826027"
       cx="370.31201"
       id="radialGradient4693"
       xlink:href="#linearGradient4647" />
    <radialGradient
       gradientUnits="userSpaceOnUse"
       gradientTransform="matrix(1,0,0,0.74543131,112.1783,-133.32823)"
       r="67"
       fy="151.93735"
       fx="74.76693"
       cy="151.93735"
       cx="74.76693"
       id="radialGradient4714"
       xlink:href="#linearGradient4647" />
    <linearGradient
       gradientTransform="translate(-155.56035,-54.560677)"
       gradientUnits="userSpaceOnUse"
       y2="64.73082"
       x2="521.46661"
       y1="-148.06779"
       x1="680.67792"
       id="linearGradient4740"
       xlink:href="#linearGradient3851-2" />
    <linearGradient
       gradientUnits="userSpaceOnUse"
       y2="-17.843027"
       x2="169.02202"
       y1="-187.6626"
       x1="58.114719"
       id="linearGradient4766"
       xlink:href="#linearGradient3851-2" />
    <linearGradient
       gradientUnits="userSpaceOnUse"
       y2="105.64561"
       x2="289.39706"
       y1="258.81689"
       x1="319.30521"
       id="linearGradient4792"
       xlink:href="#linearGradient4798" />
    <linearGradient
       gradientUnits="userSpaceOnUse"
       y2="50.806423"
       x2="194.99559"
       y1="211.07761"
       x1="66.419319"
       id="linearGradient4824"
       xlink:href="#linearGradient4798" />
    <linearGradient
       gradientTransform="matrix(1,0,0,0.96415896,277.85701,-22.060535)"
       gradientUnits="userSpaceOnUse"
       y2="-6.6616082"
       x2="-115.26261"
       y1="-22.596527"
       x1="-113.56461"
       id="linearGradient4856"
       xlink:href="#linearGradient4854" />
    <linearGradient
       gradientTransform="matrix(1.0459667,-0.21519389,0.17782191,1.1766839,474.8187,-20.214514)"
       gradientUnits="userSpaceOnUse"
       y2="-6.6616082"
       x2="-115.26261"
       y1="-22.596527"
       x1="-113.56461"
       id="linearGradient4856-0"
       xlink:href="#linearGradient4854" />
    <linearGradient
       gradientTransform="matrix(1.066353,-0.2203871,0.18128773,1.2050804,310.70447,35.042898)"
       gradientUnits="userSpaceOnUse"
       y2="-6.6616082"
       x2="-115.26261"
       y1="-22.596527"
       x1="-113.56461"
       id="linearGradient4856-1"
       xlink:href="#linearGradient4854" />
  </defs>
  <metadata
     id="metadata2413">
    <rdf:RDF>
      <cc:Work
         rdf:about="">
        <dc:format>image/svg+xml</dc:format>
        <dc:type
           rdf:resource="http://purl.org/dc/dcmitype/StillImage" />
        <dc:title></dc:title>
      </cc:Work>
    </rdf:RDF>
  </metadata>
  <g
     id="layer2"
     style="display:none">
    <rect
       width="86"
       height="85"
       rx="6"
       ry="6"
       x="5"
       y="7"
       id="rect3745"
       style="opacity:0.9;fill:url(#ButtonShadow);fill-opacity:1;fill-rule:nonzero;stroke:none;filter:url(#filter3174)" />
  </g>
  <g
     id="layer3">
    <path
       d="m 12,-95.03125 c -5.5110903,0 -10.03125,4.52016 -10.03125,10.03125 l 0,71 c 0,5.5110902 4.5201598,10.03125 10.03125,10.03125 l 72,0 c 5.51109,0 10.03125,-4.5201597 10.03125,-10.03125 l 0,-71 c 0,-5.51109 -4.52016,-10.03125 -10.03125,-10.03125 l -72,0 z"
       transform="scale(1,-1)"
       id="path3786"
       style="opacity:0.07999998;fill:url(#linearGradient3026);fill-opacity:1;fill-rule:nonzero;stroke:none;display:inline" />
    <path
       d="m 12,-94.03125 c -4.971633,0 -9.03125,4.059617 -9.03125,9.03125 l 0,71 c 0,4.9716329 4.0596171,9.03125 9.03125,9.03125 l 72,0 c 4.971633,0 9.03125,-4.059617 9.03125,-9.03125 l 0,-71 c 0,-4.971633 -4.059617,-9.03125 -9.03125,-9.03125 l -72,0 z"
       transform="scale(1,-1)"
       id="path3778"
       style="opacity:0.1;fill:url(#linearGradient3780);fill-opacity:1;fill-rule:nonzero;stroke:none;display:inline" />
    <path
       d="m 12,-93 c -4.4091333,0 -8,3.590867 -8,8 l 0,71 c 0,4.4091333 3.5908667,8 8,8 l 72,0 c 4.409133,0 8,-3.5908667 8,-8 l 0,-71 c 0,-4.409133 -3.590867,-8 -8,-8 l -72,0 z"
       transform="scale(1,-1)"
       id="path3770"
       style="opacity:0.2;fill:url(#linearGradient3772);fill-opacity:1;fill-rule:nonzero;stroke:none;display:inline" />
    <rect
       width="86"
       height="85"
       rx="7"
       ry="7"
       x="5"
       y="-92"
       transform="scale(1,-1)"
       id="rect3723"
       style="opacity:0.3;fill:url(#linearGradient3725);fill-opacity:1;fill-rule:nonzero;stroke:none;display:inline" />
    <rect
       width="84"
       height="84"
       rx="6"
       ry="6"
       x="6"
       y="-91"
       transform="scale(1,-1)"
       id="rect3716"
       style="opacity:0.45;fill:url(#linearGradient3721);fill-opacity:1;fill-rule:nonzero;stroke:none;display:inline" />
  </g>
  <g
     id="layer1"
     transform="translate(0,1)">
    <rect
       width="84"
       height="84"
       rx="6"
       ry="6"
       x="6"
       y="6"
       id="rect2419"
       style="fill:url(#linearGradient3617);fill-opacity:1;fill-rule:nonzero;stroke:none" />
    <path
       d="M 12,6 C 8.676,6 6,8.676 6,12 v 2 68 2 c 0,0.334721 0.04135,0.6507 0.09375,0.96875 0.0487,0.295596 0.09704,0.596915 0.1875,0.875 0.00988,0.03038 0.020892,0.0636 0.03125,0.09375 0.098865,0.287771 0.2348802,0.547452 0.375,0.8125 0.1445918,0.273507 0.3156161,0.535615 0.5,0.78125 0.1843839,0.245635 0.3737765,0.473472 0.59375,0.6875 0.439947,0.428056 0.94291,0.814526 1.5,1.09375 0.278545,0.139612 0.5734731,0.246947 0.875,0.34375 -0.2562018,-0.100222 -0.4867109,-0.236272 -0.71875,-0.375 -0.00741,-0.0044 -0.023866,0.0045 -0.03125,0 -0.031933,-0.0193 -0.062293,-0.04251 -0.09375,-0.0625 -0.120395,-0.0767 -0.2310226,-0.163513 -0.34375,-0.25 -0.1061728,-0.0808 -0.2132809,-0.161112 -0.3125,-0.25 C 8.4783201,88.557317 8.3087904,88.373362 8.15625,88.1875 8.0486711,88.057245 7.9378561,87.922215 7.84375,87.78125 7.818661,87.74287 7.805304,87.69538 7.78125,87.65625 7.716487,87.553218 7.6510225,87.451733 7.59375,87.34375 7.4927417,87.149044 7.3880752,86.928049 7.3125,86.71875 7.30454,86.69694 7.288911,86.6782 7.28125,86.65625 7.2494249,86.5643 7.2454455,86.469419 7.21875,86.375 7.1884177,86.268382 7.1483606,86.171969 7.125,86.0625 7.0521214,85.720988 7,85.364295 7,85 V 83 15 13 C 7,10.218152 9.2181517,8 12,8 h 2 68 2 c 2.781848,0 5,2.218152 5,5 v 2 68 2 c 0,0.364295 -0.05212,0.720988 -0.125,1.0625 -0.04415,0.206893 -0.08838,0.397658 -0.15625,0.59375 -0.0077,0.02195 -0.0233,0.04069 -0.03125,0.0625 -0.06274,0.173739 -0.138383,0.367449 -0.21875,0.53125 -0.04158,0.0828 -0.07904,0.169954 -0.125,0.25 -0.0546,0.09721 -0.126774,0.18835 -0.1875,0.28125 -0.09411,0.140965 -0.204921,0.275995 -0.3125,0.40625 -0.143174,0.17445 -0.303141,0.346998 -0.46875,0.5 -0.01117,0.0102 -0.01998,0.02115 -0.03125,0.03125 -0.138386,0.125556 -0.285091,0.234436 -0.4375,0.34375 -0.102571,0.07315 -0.204318,0.153364 -0.3125,0.21875 -0.0074,0.0045 -0.02384,-0.0044 -0.03125,0 -0.232039,0.138728 -0.462548,0.274778 -0.71875,0.375 0.301527,-0.0968 0.596455,-0.204138 0.875,-0.34375 0.55709,-0.279224 1.060053,-0.665694 1.5,-1.09375 0.219973,-0.214028 0.409366,-0.441865 0.59375,-0.6875 0.184384,-0.245635 0.355408,-0.507743 0.5,-0.78125 0.14012,-0.265048 0.276135,-0.524729 0.375,-0.8125 0.01041,-0.03078 0.02133,-0.06274 0.03125,-0.09375 0.09046,-0.278085 0.1388,-0.579404 0.1875,-0.875 C 89.95865,84.6507 90,84.334721 90,84 V 82 14 12 C 90,8.676 87.324,6 84,6 Z"
       id="rect3728"
       style="opacity:0.5;fill:url(#linearGradient3188);fill-opacity:1;fill-rule:nonzero;stroke:none" />
    <path
       d="M 12,90 C 8.676,90 6,87.324 6,84 V 82 14 12 c 0,-0.334721 0.04135,-0.6507 0.09375,-0.96875 0.0487,-0.295596 0.09704,-0.596915 0.1875,-0.875 C 6.29113,10.12587 6.302142,10.09265 6.3125,10.0625 6.411365,9.774729 6.5473802,9.515048 6.6875,9.25 6.8320918,8.976493 7.0031161,8.714385 7.1875,8.46875 7.3718839,8.223115 7.5612765,7.995278 7.78125,7.78125 8.221197,7.353194 8.72416,6.966724 9.28125,6.6875 9.559795,6.547888 9.8547231,6.440553 10.15625,6.34375 9.9000482,6.443972 9.6695391,6.580022 9.4375,6.71875 c -0.00741,0.0044 -0.023866,-0.0045 -0.03125,0 -0.031933,0.0193 -0.062293,0.04251 -0.09375,0.0625 -0.120395,0.0767 -0.2310226,0.163513 -0.34375,0.25 -0.1061728,0.0808 -0.2132809,0.161112 -0.3125,0.25 C 8.4783201,7.442683 8.3087904,7.626638 8.15625,7.8125 8.0486711,7.942755 7.9378561,8.077785 7.84375,8.21875 7.818661,8.25713 7.805304,8.30462 7.78125,8.34375 7.716487,8.446782 7.6510225,8.548267 7.59375,8.65625 7.4927417,8.850956 7.3880752,9.071951 7.3125,9.28125 7.30454,9.30306 7.288911,9.3218 7.28125,9.34375 7.2494249,9.4357 7.2454455,9.530581 7.21875,9.625 7.1884177,9.731618 7.1483606,9.828031 7.125,9.9375 7.0521214,10.279012 7,10.635705 7,11 v 2 68 2 c 0,2.781848 2.2181517,5 5,5 h 2 68 2 c 2.781848,0 5,-2.218152 5,-5 V 81 13 11 C 89,10.635705 88.94788,10.279012 88.875,9.9375 88.83085,9.730607 88.78662,9.539842 88.71875,9.34375 88.71105,9.3218 88.69545,9.30306 88.6875,9.28125 88.62476,9.107511 88.549117,8.913801 88.46875,8.75 88.42717,8.6672 88.38971,8.580046 88.34375,8.5 88.28915,8.40279 88.216976,8.31165 88.15625,8.21875 88.06214,8.077785 87.951329,7.942755 87.84375,7.8125 87.700576,7.63805 87.540609,7.465502 87.375,7.3125 87.36383,7.3023 87.35502,7.29135 87.34375,7.28125 87.205364,7.155694 87.058659,7.046814 86.90625,6.9375 86.803679,6.86435 86.701932,6.784136 86.59375,6.71875 c -0.0074,-0.0045 -0.02384,0.0044 -0.03125,0 -0.232039,-0.138728 -0.462548,-0.274778 -0.71875,-0.375 0.301527,0.0968 0.596455,0.204138 0.875,0.34375 0.55709,0.279224 1.060053,0.665694 1.5,1.09375 0.219973,0.214028 0.409366,0.441865 0.59375,0.6875 0.184384,0.245635 0.355408,0.507743 0.5,0.78125 0.14012,0.265048 0.276135,0.524729 0.375,0.8125 0.01041,0.03078 0.02133,0.06274 0.03125,0.09375 0.09046,0.278085 0.1388,0.579404 0.1875,0.875 C 89.95865,11.3493 90,11.665279 90,12 v 2 68 2 c 0,3.324 -2.676,6 -6,6 z"
       id="path3615"
       style="opacity:0.2;fill:url(#radialGradient3619);fill-opacity:1;fill-rule:nonzero;stroke:none" />
  </g>
  <g
     id="layer5">
    <rect
       width="66"
       height="66"
       rx="12"
       ry="12"
       x="15"
       y="15"
       clip-path="url(#clipPath3613)"
       id="rect3171"
       style="opacity:0.1;fill:url(#linearGradient3613);fill-opacity:1;fill-rule:nonzero;stroke:#fefefe;stroke-width:0.5;stroke-linecap:round;stroke-linejoin:miter;stroke-miterlimit:4;stroke-dasharray:none;stroke-dashoffset:0;stroke-opacity:1;filter:url(#filter3794)" />
  </g>
  <g
     transform="matrix(0.2122987,0,0,0.2122987,-10.138763,39.297172)"
     id="g4905">
    <path
       style="fill:url(#radialGradient4649);fill-opacity:1;stroke-width:1.02859414"
       d="m 175.99918,137.6978 c -7.61861,-1.04144 -10.44074,-2.28725 -15.46629,-6.82753 -8.15939,-7.37152 -21.20219,-38.148516 -22.32209,-52.673246 -0.50095,-6.4971 -0.16787,-8.87263 2.34777,-16.74432 2.73588,-8.56086 3.28195,-9.43765 8.18183,-13.13709 14.07862,-10.62946 28.68955,-14.7881 57.80177,-16.4518 23.64302,-1.35115 48.37234,0.0172 49.41499,2.73433 0.3027,0.7888 -0.66643,6.37607 -2.15361,12.41614 -1.48718,6.04005 -3.09781,15.61061 -3.57918,21.26788 -0.75667,8.89258 -1.40161,11.32648 -4.76102,17.9674 -5.34806,10.57212 -11.567,23.775956 -16.63375,28.695556 -17.48568,16.97785 -33.60652,23.95287 -42.88691,23.66087 -2.35743,-0.0742 -6.83201,-0.48287 -9.94351,-0.90819 z"
       id="path4641" />
    <path
       style="fill:url(#radialGradient4672);fill-opacity:1;stroke-width:1.05855548"
       d="m 300.4779,163.82178 c -9.18119,-3.72409 -21.74384,-17.16824 -28.70734,-30.72167 -1.3829,-2.69162 -4.43238,-10.45634 -6.77664,-17.25494 -3.5531,-10.30439 -4.45977,-14.6859 -5.44916,-26.333543 -1.8305,-21.5498 -1.09718,-31.57825 3.26848,-44.69708 3.6788,-11.05478 2.87276,-10.75882 17.49716,-6.42453 23.94274,7.09601 49.41862,18.48023 61.98868,27.70047 8.11052,5.94914 20.00687,19.24916 23.00267,25.71683 5.45623,11.779533 4.04659,27.026423 -3.38937,36.659633 -25.32708,32.81092 -42.84791,42.89396 -61.43448,35.35483 z"
       id="path4662" />
    <path
       style="fill:url(#radialGradient4693);fill-opacity:1;stroke-width:1.03104961"
       d="m 357.182,55.014693 c -12.57643,-1.16256 -26.33307,-4.83213 -38.66436,-10.31367 -7.08847,-3.151 -19.61572,-7.93447 -27.83834,-10.62995 -10.09022,-3.30771 -15.05589,-5.43051 -15.27529,-6.53011 -0.52929,-2.65282 3.28375,-10.0656 8.381,-16.29315 9.43568,-11.52805388 43.95606,-31.614144 67.21069,-39.107364 3.96954,-1.27909 8.14529,-2.70021 9.27945,-3.15806 4.0757,-1.64533 18.77333,-4.90401 29.90044,-6.62937 8.46359,-1.31235 14.64757,-1.60286 24.3701,-1.14484 14.43781,0.68016 19.97389,2.39252 20.74303,6.41603 1.15575,6.04589 -12.94341,29.7137701 -33.00173,55.399134 -20.18951,25.85334 -30.71857,33.32123 -45.10499,31.99135 z"
       id="path4685" />
    <path
       style="fill:url(#radialGradient4714);fill-opacity:1;stroke-width:1.03301394"
       d="m 165.62253,27.522979 c -6.85734,-3.29556 -9.50481,-5.83404 -15.70532,-15.05879 -11.36182,-16.9034397 -20.93027,-39.23662 -26.6425,-62.18474 -4.7348,-19.02144 -4.6625,-19.83982 1.7893,-20.2542 4.19469,-0.26941 7.29483,0.74813 21.69329,7.1203 29.58038,13.09106 59.41074,33.69345 83.55846,57.7097603 13.92904,13.85325 23.62947,26.0751397 23.62947,29.7715397 0,1.27841 -1.55726,1.38967 -10.07189,0.71962 -23.26159,-1.83055 -55.61001,-0.11667 -68.43036,3.62558 -4.56883,1.33364 -3.7916,1.44832 -9.82045,-1.44907 z"
       id="path4706" />
    <path
       style="fill:url(#linearGradient4792);fill-opacity:1;stroke-width:1.05855548"
       d="m 300.4779,163.82178 c -9.18119,-3.72409 -21.74384,-17.16824 -28.70734,-30.72166 -1.3829,-2.69162 -4.43238,-10.45634 -6.77664,-17.25494 -3.5531,-10.30439 -4.45977,-14.6859 -5.44916,-26.33355 -1.8305,-21.549795 -1.09718,-31.578245 3.26848,-44.697075 3.6788,-11.05478 2.87276,-10.75882 17.49716,-6.42453 23.94274,7.09601 49.41862,18.48023 61.98868,27.70047 8.11052,5.94914 20.00687,19.249155 23.00267,25.716825 5.45623,11.77954 4.04659,27.02643 -3.38937,36.65964 -25.32708,32.81091 -42.84791,42.89395 -61.43448,35.35482 z"
       id="path4662-7" />
    <path
       style="opacity:0.65;fill:url(#linearGradient4824);fill-opacity:1;stroke-width:1.02859414"
       d="m 175.99918,137.6978 c -7.61861,-1.04144 -10.44074,-2.28725 -15.46629,-6.82753 -8.15939,-7.37152 -21.20219,-38.148518 -22.32209,-52.673248 -0.50095,-6.4971 -0.16787,-8.87263 2.34777,-16.74432 2.73588,-8.56086 3.28195,-9.43765 8.18183,-13.13709 14.07862,-10.62946 28.68955,-14.7881 57.80177,-16.4518 23.64302,-1.35115 48.37234,0.0172 49.41499,2.73433 0.3027,0.7888 -0.66643,6.37607 -2.15361,12.41614 -1.48718,6.04005 -3.09781,15.61061 -3.57918,21.26788 -0.75667,8.89258 -1.40161,11.32648 -4.76102,17.9674 -5.34806,10.57212 -11.567,23.775958 -16.63375,28.695558 -17.48568,16.97785 -33.60652,23.95287 -42.88691,23.66087 -2.35743,-0.0742 -6.83201,-0.48287 -9.94351,-0.90819 z"
       id="path4641-6" />
    <path
       style="fill:#522412;fill-opacity:1"
       d="m 299.96068,172.49974 c -17.74859,-4.76965 -28.86464,-16.44738 -41.08891,-43.16509 l -4.24002,-9.26712 -3.36069,0.63047 c -3.72761,0.6993 -5.63387,-0.40887 -8.34186,-4.84942 l -1.67899,-2.75318 -6.74653,7.99461 c -16.60474,19.67658 -39.40468,30.91374 -56.94729,28.06701 -3.78174,-0.61368 -9.35626,-2.28918 -12.38782,-3.72334 -22.73478,-10.75527 -42.23514,-57.888709 -34.68922,-83.845759 3.02596,-10.408943 12.19857,-21.207763 23.28312,-27.410983 1.15843,-0.64829 0.19945,-2.08862 -4.46123,-6.70049 -7.52334,-7.444542 -11.45183,-13.469204 -20.14599,-30.8955594 -8.16922,-16.3741716 -19.1755,-50.2863566 -19.99461,-61.6067406 -0.46861,-6.476206 -1.37023,-10.349413 3.2174,-12.657275 4.1267,-2.720575 8.78783,-2.890821 13.5284,-2.852924 9.42581,0.07535 11.33949,1.622452 19.89243,4.98209 20.12384,7.90474 40.79332,19.843133 61.57485,35.564732 15.67487,11.858319 35.54212,30.9570656 43.50691,41.8239776 l 5.30134,7.2329745 2.97306,-4.4884915 c 4.40303,-6.647371 10.54516,-7.452228 14.29503,-1.873205 l 2.08649,3.104255 6.80495,-6.44704904 C 303.72155,-20.892355 344.12308,-38.686705 386.4323,-46.482266 c 4.95,-0.912047 16.05732,-1.881747 24.68294,-2.154887 13.96876,-0.442337 16.44131,-0.26627 22.62125,1.610828 10.60517,3.221219 15.73687,9.85187 13.75036,17.766762 -1.11943,4.460166 -12.25786,24.1895426 -20.81047,36.8613316 -19.34593,28.6635094 -38.23317,48.2564124 -53.06334,55.0458824 -4.5108,2.06512 -7.2355,2.6211 -12.59918,2.57088 l -6.84369,-0.0641 6.25761,6.25761 c 9.42069,9.4207 15.35267,22.2902 15.46215,33.545369 0.14201,14.59849 -10.117,33.49833 -26.7331,49.24952 -18.77383,17.79662 -32.31133,22.83031 -49.19615,18.29279 z m 20.97162,-12.12352 c 9.29555,-3.27075 17.23066,-9.95479 29.98781,-25.25982 5.74284,-6.88982 9.61536,-12.58005 10.94848,-16.08755 4.14131,-10.89601 1.90513,-25.181649 -5.44822,-34.805379 -13.09654,-17.14017 -39.21054,-31.827143 -75.95047,-42.715893 -14.06726,-4.16916 -13.18976,-4.58492 -17.08352,8.09419 -2.17093,7.069153 -4.86064,26.966853 -3.86876,28.619973 0.2046,0.34099 0.80783,6.19099 1.34051,13 1.42783,18.251059 8.0185,36.535369 18.42703,51.121619 12.64614,17.72199 26.04383,23.52307 41.64714,18.03286 z M 196.69561,135.63184 c 19.57182,-9.11188 36.53853,-26.36001 47.76982,-48.562149 3.26602,-6.4563 3.89303,-8.82254 4.62866,-17.46792 0.46799,-5.5 2.03385,-14.804493 3.47969,-20.676653 1.44583,-5.87216 2.38724,-11.30612 2.09201,-12.07547 -1.01811,-2.65315 -25.90202,-4.03596 -49.00376,-2.72315 -23.02088,1.30821 -35.44546,4.09702 -46.76977,10.4979 -11.42064,6.45533 -13.52856,8.67518 -16.38643,17.256573 -4.00559,12.0277 -3.61619,19.64981 1.79936,35.2208 6.11331,17.577219 11.81861,28.569949 17.48733,33.693869 4.43712,4.01069 5.74068,4.53403 16.63978,6.68029 6.13046,1.20721 13.25432,0.4879 18.26331,-1.84409 z m 174.8486,-84.111132 c 7.36382,-3.50179 16.85478,-12.66389 28.18953,-27.21278 18.67399,-23.96927144 33.81375,-48.952708 33.00943,-54.471737 -0.17098,-1.173233 -1.74248,-2.96682 -3.49223,-3.985749 -4.14736,-2.415132 -27.26469,-3.545296 -38.31864,-1.873329 -30.81001,5.055557 -61.83321,16.005174 -88.03329,33.1271756 -5.20669,3.49004296 -12.03791,9.001547 -15.18048,12.2477865 -5.85334,6.0464249 -11.22109,15.2977829 -10.62199,18.3070829 0.23934,1.20221 4.49963,3.05149 14.83576,6.43981 7.975,2.61431 20.125,7.25373 27,10.30983 8.90864,3.96009 15.51675,6.14218 23,7.59493 18.01076,3.496483 21.35837,3.441873 29.61191,-0.48302 z M 174.9389,27.082048 c 12.41063,-3.62265 43.72522,-5.28176 66.2434,-3.50971 11.7662,0.92593 11.78923,0.88074 4.88812,-9.592265 -10.82177,-16.4229184 -41.84799,-43.251729 -71.7905,-62.078257 -11.82546,-7.435324 -40.00668,-20.225567 -46.50194,-21.105222 -8.30624,-1.124918 -8.5848,1.884747 -2.31092,24.968376 5.64859,20.782993 14.37553,40.5384446 24.22408,54.836798 6.49064,9.42326 9.02299,11.84885 15.74116,15.07752 5.83618,2.8048 5.08378,2.69378 9.5066,1.40276 z"
       id="path4628" />
    <path
       style="fill:url(#linearGradient4740);fill-opacity:1;stroke-width:1.03104961"
       d="m 357.182,55.014693 c -12.57643,-1.16256 -26.33307,-4.83213 -38.66436,-10.31367 -7.08847,-3.151 -19.61572,-7.93447 -27.83834,-10.62995 -10.09022,-3.30771 -15.05589,-5.43051 -15.27529,-6.53011 -0.52929,-2.65282 3.28375,-10.0656 8.381,-16.29315 9.43568,-11.528054 43.95606,-31.614144 67.21069,-39.107364 3.96954,-1.27909 8.14529,-2.70021 9.27945,-3.15806 4.0757,-1.64533 18.77333,-4.90401 29.90044,-6.62937 8.46359,-1.31235 14.64757,-1.60286 24.3701,-1.14484 14.43781,0.68016 19.97389,2.39252 20.74303,6.41603 1.15575,6.04589 -12.94341,29.71377 -33.00173,55.399134 -20.18951,25.85334 -30.71857,33.32123 -45.10499,31.99135 z"
       id="path4685-5" />
    <path
       style="opacity:0.77300002;fill:url(#linearGradient4766);fill-opacity:1;stroke-width:1.03301394"
       d="m 165.62253,27.522979 c -6.85734,-3.29556 -9.50481,-5.83404 -15.70532,-15.05879 -11.36182,-16.9034396 -20.93027,-39.23662 -26.6425,-62.18474 -4.7348,-19.02144 -4.6625,-19.83982 1.7893,-20.2542 4.19469,-0.26941 7.29483,0.74813 21.69329,7.1203 29.58038,13.09106 59.41074,33.69345 83.55845,57.7097604 13.92904,13.8532496 23.62947,26.0751396 23.62947,29.7715396 0,1.27841 -1.55726,1.38967 -10.07189,0.71962 -23.26159,-1.83055 -55.61,-0.11667 -68.43035,3.62558 -4.56883,1.333637 -3.7916,1.448317 -9.82045,-1.44907 z"
       id="path4706-2" />
    <path
       style="opacity:0.7;fill:url(#linearGradient4856);fill-opacity:1;stroke-width:0.98191595"
       d="m 212.69995,-21.865229 c -0.3392,-0.529175 -1.01374,-0.725567 -1.49897,-0.436427 -1.08289,0.645278 -23.07099,-0.964824 -39.97957,-2.927549 -6.875,-0.79804 -18.35,-2.084328 -25.5,-2.858418 -16.68699,-1.806605 -26.65278,-3.211632 -27.31608,-3.851159 -1.03681,-0.999654 4.10364,-5.201323 8.69158,-7.104265 7.60871,-3.155862 17.25854,-4.315075 31.06566,-3.731846 17.92866,0.757326 31.33543,3.655332 50.06627,10.822314 9.03071,3.455424 20.99257,9.45135 20.99257,10.522605 0,0.753165 -16.03038,0.330846 -16.52146,-0.435255 z"
       id="path4848" />
    <path
       style="opacity:0.7;fill:url(#linearGradient4856-0);fill-opacity:1;stroke-width:1.1265161"
       d="m 406.7026,-5.9547557 c -0.45239,-0.5728248 -1.19416,-0.6673496 -1.64837,-0.2100574 -1.01365,1.0205449 -24.30943,3.7872406 -42.35723,5.0305047 -7.3382,0.50550983 -19.5779,1.40504153 -27.19934,1.99895883 -17.78723,1.38611197 -28.47024,1.81595847 -29.28198,1.17820207 -1.26884,-0.9968866 3.33299,-7.2309028 7.78085,-10.5405982 7.37642,-5.4888413 17.25602,-8.9801583 31.80538,-11.2395793 18.89245,-2.933878 33.44997,-2.282134 54.36362,2.433869 10.08311,2.273733 23.70067,7.017193 23.89824,8.3245791 0.1389,0.9191816 -16.70622,3.8534127 -17.36117,3.0241212 z"
       id="path4848-6" />
    <path
       style="opacity:0.7;fill:url(#linearGradient4856-1);fill-opacity:1;stroke-width:1.15108407"
       d="m 241.26078,49.646782 c -0.46121,-0.586649 -1.21744,-0.683455 -1.6805,-0.215126 -1.0334,1.045172 -24.78323,3.878636 -43.18278,5.151903 -7.48123,0.517709 -19.95949,1.43895 -27.72947,2.047199 -18.13391,1.419563 -29.02514,1.859783 -29.8527,1.206636 -1.29357,-1.020945 3.39795,-7.405405 7.9325,-10.794973 7.52019,-5.621302 17.59235,-9.196874 32.42528,-11.51082 19.26067,-3.004681 34.10192,-2.337208 55.42319,2.492606 10.27964,2.328604 24.16259,7.186538 24.36402,8.525476 0.14161,0.941363 -17.03183,3.946403 -17.69954,3.097099 z"
       id="path4848-9" />
  </g>
</svg>
