<?xml version="1.0" encoding="UTF-8" standalone="no"?>
<svg
   xmlns:dc="http://purl.org/dc/elements/1.1/"
   xmlns:cc="http://creativecommons.org/ns#"
   xmlns:rdf="http://www.w3.org/1999/02/22-rdf-syntax-ns#"
   xmlns:svg="http://www.w3.org/2000/svg"
   xmlns="http://www.w3.org/2000/svg"
   xmlns:xlink="http://www.w3.org/1999/xlink"
   id="svg2408"
   height="96"
   width="96"
   version="1.0">
  <defs
     id="defs2410">
    <linearGradient
       id="linearGradient4645">
      <stop
         id="stop4641"
         offset="0"
         style="stop-color:#3971ff;stop-opacity:1" />
      <stop
         id="stop4643"
         offset="1"
         style="stop-color:#1848a6;stop-opacity:1" />
    </linearGradient>
    <linearGradient
       gradientTransform="scale(1.0058652,0.994169)"
       gradientUnits="userSpaceOnUse"
       id="ButtonShadow"
       y2="7.0165396"
       x2="45.447727"
       y1="92.539597"
       x1="45.447727">
      <stop
         offset="0"
         style="stop-color:#000000;stop-opacity:1"
         id="stop3750" />
      <stop
         offset="1"
         style="stop-color:#000000;stop-opacity:0.58823532"
         id="stop3752" />
    </linearGradient>
    <linearGradient
       id="linearGradient3737">
      <stop
         offset="0"
         style="stop-color:#fefefe;stop-opacity:1"
         id="stop3739" />
      <stop
         offset="1"
         style="stop-color:#fefefe;stop-opacity:0"
         id="stop3741" />
    </linearGradient>
    <linearGradient
       id="linearGradient3700">
      <stop
         offset="0"
         style="stop-color:#a5aaaf;stop-opacity:1"
         id="stop3702" />
      <stop
         offset="1"
         style="stop-color:#d4d7d9;stop-opacity:1"
         id="stop3704" />
    </linearGradient>
    <filter
       id="filter3174"
       color-interpolation-filters="sRGB">
      <feGaussianBlur
         stdDeviation="1.71"
         id="feGaussianBlur3176" />
    </filter>
    <linearGradient
       gradientUnits="userSpaceOnUse"
       xlink:href="#linearGradient3737"
       id="linearGradient3188"
       y2="63.893143"
       x2="36.357143"
       y1="6"
       x1="36.357143" />
    <filter
       id="filter3794"
       color-interpolation-filters="sRGB"
       height="1.3839999"
       width="1.3839999"
       y="-0.192"
       x="-0.192">
      <feGaussianBlur
         stdDeviation="5.28"
         id="feGaussianBlur3796" />
    </filter>
    <linearGradient
       gradientUnits="userSpaceOnUse"
       xlink:href="#linearGradient3737"
       id="linearGradient3613"
       y2="138.66119"
       x2="48"
       y1="20.220806"
       x1="48" />
    <radialGradient
       gradientTransform="matrix(1.1573129,0,0,0.99590774,-7.5510206,0.19713193)"
       gradientUnits="userSpaceOnUse"
       xlink:href="#linearGradient3737"
       id="radialGradient3619"
       fy="90.171875"
       fx="48"
       r="42"
       cy="90.171875"
       cx="48" />
    <clipPath
       id="clipPath3613">
      <rect
         style="fill:#fefefe;fill-opacity:1;fill-rule:nonzero;stroke:none"
         id="rect3615"
         y="6"
         x="6"
         ry="6"
         rx="6"
         height="84"
         width="84" />
    </clipPath>
    <linearGradient
       gradientUnits="userSpaceOnUse"
       xlink:href="#linearGradient3700"
       id="linearGradient3617"
       y2="5.9877172"
       x2="48"
       y1="90"
       x1="48" />
    <linearGradient
       gradientTransform="matrix(1.0058652,0,0,0.994169,100,0)"
       gradientUnits="userSpaceOnUse"
       id="ButtonShadow-0"
       y2="7.0165396"
       x2="45.447727"
       y1="92.539597"
       x1="45.447727">
      <stop
         offset="0"
         style="stop-color:#000000;stop-opacity:1"
         id="stop3750-8" />
      <stop
         offset="1"
         style="stop-color:#000000;stop-opacity:0.58823532"
         id="stop3752-5" />
    </linearGradient>
    <linearGradient
       gradientTransform="matrix(1.0238095,0,0,1.0119048,-1.1428571,-98.071429)"
       gradientUnits="userSpaceOnUse"
       xlink:href="#ButtonShadow-0"
       id="linearGradient3780"
       y2="90.238609"
       x2="32.251034"
       y1="6.1317081"
       x1="32.251034" />
    <linearGradient
       gradientTransform="matrix(1.0238095,0,0,1.0119048,-1.1428571,-98.071429)"
       gradientUnits="userSpaceOnUse"
       xlink:href="#ButtonShadow-0"
       id="linearGradient3772"
       y2="90.238609"
       x2="32.251034"
       y1="6.1317081"
       x1="32.251034" />
    <linearGradient
       gradientTransform="matrix(1.0238095,0,0,1.0119048,-1.1428571,-98.071429)"
       gradientUnits="userSpaceOnUse"
       xlink:href="#ButtonShadow-0"
       id="linearGradient3725"
       y2="90.238609"
       x2="32.251034"
       y1="6.1317081"
       x1="32.251034" />
    <linearGradient
       gradientTransform="translate(0,-97)"
       gradientUnits="userSpaceOnUse"
       xlink:href="#ButtonShadow-0"
       id="linearGradient3721"
       y2="90.238609"
       x2="32.251034"
       y1="6.1317081"
       x1="32.251034" />
    <linearGradient
       gradientTransform="matrix(1.0238095,0,0,1.0119048,-1.1428571,-98.071429)"
       gradientUnits="userSpaceOnUse"
       xlink:href="#ButtonShadow-0"
       id="linearGradient3026"
       y2="90.238609"
       x2="32.251034"
       y1="6.1317081"
       x1="32.251034" />
    <linearGradient
       gradientTransform="matrix(0,1,-1,0,97,1)"
       gradientUnits="userSpaceOnUse"
       xlink:href="#linearGradient4086"
       id="linearGradient4111"
       y2="49"
       x2="72"
       y1="49"
       x1="-41" />
    <linearGradient
       id="linearGradient4086">
      <stop
         offset="0"
         style="stop-color:#bebebe;stop-opacity:1"
         id="stop4088" />
      <stop
         offset="1"
         style="stop-color:#ebebeb;stop-opacity:1"
         id="stop4098" />
    </linearGradient>
    <radialGradient
       gradientUnits="userSpaceOnUse"
       xlink:href="#linearGradient3841-9"
       id="radialGradient3847-1"
       fy="44"
       fx="48"
       r="16"
       cy="44"
       cx="48" />
    <linearGradient
       id="linearGradient3841-9">
      <stop
         offset="0"
         style="stop-color:#fefefe;stop-opacity:1"
         id="stop3843-9" />
      <stop
         offset="0.5"
         style="stop-color:#fefefe;stop-opacity:0.33587787"
         id="stop3849-7" />
      <stop
         offset="1"
         style="stop-color:#000000;stop-opacity:0.16793893"
         id="stop3845-4" />
    </linearGradient>
    <linearGradient
       gradientTransform="matrix(0,-1,1,0,0,97)"
       gradientUnits="userSpaceOnUse"
       xlink:href="#linearGradient3851-2"
       id="linearGradient3857-9"
       y2="48"
       x2="120"
       y1="48"
       x1="15" />
    <linearGradient
       id="linearGradient3851-2">
      <stop
         offset="0"
         style="stop-color:#000000;stop-opacity:1"
         id="stop3853-9" />
      <stop
         offset="1"
         style="stop-color:#000000;stop-opacity:0"
         id="stop3855-4" />
    </linearGradient>
    <linearGradient
       gradientTransform="matrix(0,-1,1,0,-1,97)"
       gradientUnits="userSpaceOnUse"
       xlink:href="#linearGradient4086"
       id="linearGradient4223"
       y2="49"
       x2="80"
       y1="49"
       x1="16" />
    <linearGradient
       xlink:href="#LO"
       id="linearGradient4586"
       gradientUnits="userSpaceOnUse"
       gradientTransform="matrix(0.20915634,0,0,0.20663154,-53.553972,-1.035003)"
       x1="319.20801"
       y1="235.149"
       x2="657.65302"
       y2="269.49399" />
    <linearGradient
       id="LO"
       gradientUnits="userSpaceOnUse"
       x1="319.20801"
       y1="235.149"
       x2="657.65302"
       y2="269.49399">
      <stop
         style="stop-color:#e54c18"
         offset="0"
         id="stop12" />
      <stop
         style="stop-color:#fec350"
         offset="1"
         id="stop14" />
    </linearGradient>
    <linearGradient
       xlink:href="#a-5"
       id="linearGradient4582"
       x1="10.973"
       y1="24"
       x2="36.937"
       y2="24"
       gradientUnits="userSpaceOnUse"
       gradientTransform="matrix(2.3737169,0,0,2.3764532,-8.677101,-8.03491)" />
    <linearGradient
       gradientUnits="userSpaceOnUse"
       x2="0"
       y2="503.79999"
       y1="542.79999"
       id="a-5">
      <stop
         stop-color="#2a2c2f"
         id="stop21" />
      <stop
         stop-color="#424649"
         offset="1"
         id="stop23" />
    </linearGradient>
    <filter
       style="color-interpolation-filters:sRGB"
       id="filter4244">
      <feGaussianBlur
         id="feGaussianBlur4246"
         stdDeviation="1.56844" />
    </filter>
    <linearGradient
       gradientTransform="matrix(0.82189684,0,0,0.82189684,-61.071075,53.380524)"
       gradientUnits="userSpaceOnUse"
       xlink:href="#linearGradient7450"
       id="linearGradient3846"
       y2="5.5969558"
       x2="57.51778"
       y1="90"
       x1="57.51778" />
    <linearGradient
       id="linearGradient7450">
      <stop
         offset="0"
         style="stop-color:#e3e3e3;stop-opacity:1"
         id="stop7452" />
      <stop
         offset="1"
         style="stop-color:#939393;stop-opacity:1"
         id="stop7454" />
    </linearGradient>
    <linearGradient
       gradientUnits="userSpaceOnUse"
       y2="48.215473"
       x2="77.642677"
       y1="48.215473"
       x1="17.659348"
       id="linearGradient4583"
       xlink:href="#linearGradient7450" />
    <linearGradient
       gradientUnits="userSpaceOnUse"
       y2="48.215473"
       x2="77.642677"
       y1="48.215473"
       x1="17.659348"
       id="linearGradient4591"
       xlink:href="#linearGradient3841-9" />
    <linearGradient
       gradientTransform="matrix(0.69545118,0,0,0.69347601,17.631002,13.304688)"
       gradientUnits="userSpaceOnUse"
       xlink:href="#ButtonShadow"
       id="linearGradient2905"
       y2="76.44445"
       x2="36.181816"
       y1="19.555605"
       x1="36.181816" />
    <linearGradient
       gradientUnits="userSpaceOnUse"
       y2="71.915192"
       x2="-27.487747"
       y1="81.471939"
       x1="-27.420044"
       id="linearGradient4647"
       xlink:href="#linearGradient4645" />
    <linearGradient
       xlink:href="#o"
       x1="86.133003"
       y1="105.1"
       gradientTransform="matrix(0.34111185,0,0,0.34111185,34.782781,94.592783)"
       x2="84.639"
       gradientUnits="userSpaceOnUse"
       y2="20.895"
       id="q">
      <stop
         id="stop27"
         offset="0"
         stop-color="#e5e5e5" />
      <stop
         id="stop29"
         offset="1"
         stop-color="#ababab" />
    </linearGradient>
    <linearGradient
       x1="20.759001"
       y1="1"
       gradientTransform="matrix(1.0512882,0,0,1.0512882,31.383416,91.904358)"
       x2="20.759001"
       gradientUnits="userSpaceOnUse"
       y2="45.016998"
       id="p">
      <stop
         id="stop32"
         offset="0"
         stop-color="#f6f6f6" />
      <stop
         id="stop34"
         offset="1"
         stop-color="#d2d2d2" />
    </linearGradient>
    <linearGradient
       x1="37.201"
       y1="1"
       gradientTransform="matrix(1.0512882,0,0,1.0512882,31.383416,91.904358)"
       x2="37.201"
       gradientUnits="userSpaceOnUse"
       y2="45"
       id="o">
      <stop
         id="stop37"
         offset="0"
         stop-color="#aaa" />
      <stop
         id="stop39"
         offset="1"
         stop-color="#8c8c8c" />
    </linearGradient>
    <linearGradient
       y2="45"
       x2="37.201"
       y1="1"
       x1="37.201"
       gradientTransform="matrix(1.0512882,0,0,1.0512882,31.383416,91.904358)"
       gradientUnits="userSpaceOnUse"
       id="linearGradient4765"
       xlink:href="#o" />
  </defs>
  <metadata
     id="metadata2413">
    <rdf:RDF>
      <cc:Work
         rdf:about="">
        <dc:format>image/svg+xml</dc:format>
        <dc:type
           rdf:resource="http://purl.org/dc/dcmitype/StillImage" />
        <dc:title></dc:title>
      </cc:Work>
    </rdf:RDF>
  </metadata>
  <g
     style="display:none"
     id="layer2">
    <rect
       style="opacity:0.9;fill:url(#ButtonShadow);fill-opacity:1;fill-rule:nonzero;stroke:none;filter:url(#filter3174)"
       id="rect3745"
       y="7"
       x="5"
       ry="6"
       rx="6"
       height="85"
       width="86" />
  </g>
  <g
     id="layer3">
    <path
       style="opacity:0.07999998;fill:url(#linearGradient3026);fill-opacity:1;fill-rule:nonzero;stroke:none;display:inline"
       id="path3786"
       transform="scale(1,-1)"
       d="m 12,-95.03125 c -5.5110903,0 -10.03125,4.52016 -10.03125,10.03125 l 0,71 c 0,5.5110902 4.5201598,10.03125 10.03125,10.03125 l 72,0 c 5.51109,0 10.03125,-4.5201597 10.03125,-10.03125 l 0,-71 c 0,-5.51109 -4.52016,-10.03125 -10.03125,-10.03125 l -72,0 z" />
    <path
       style="opacity:0.1;fill:url(#linearGradient3780);fill-opacity:1;fill-rule:nonzero;stroke:none;display:inline"
       id="path3778"
       transform="scale(1,-1)"
       d="m 12,-94.03125 c -4.971633,0 -9.03125,4.059617 -9.03125,9.03125 l 0,71 c 0,4.9716329 4.0596171,9.03125 9.03125,9.03125 l 72,0 c 4.971633,0 9.03125,-4.059617 9.03125,-9.03125 l 0,-71 c 0,-4.971633 -4.059617,-9.03125 -9.03125,-9.03125 l -72,0 z" />
    <path
       style="opacity:0.2;fill:url(#linearGradient3772);fill-opacity:1;fill-rule:nonzero;stroke:none;display:inline"
       id="path3770"
       transform="scale(1,-1)"
       d="m 12,-93 c -4.4091333,0 -8,3.590867 -8,8 l 0,71 c 0,4.4091333 3.5908667,8 8,8 l 72,0 c 4.409133,0 8,-3.5908667 8,-8 l 0,-71 c 0,-4.409133 -3.590867,-8 -8,-8 l -72,0 z" />
    <rect
       style="opacity:0.3;fill:url(#linearGradient3725);fill-opacity:1;fill-rule:nonzero;stroke:none;display:inline"
       id="rect3723"
       transform="scale(1,-1)"
       y="-92"
       x="5"
       ry="7"
       rx="7"
       height="85"
       width="86" />
    <rect
       style="opacity:0.45;fill:url(#linearGradient3721);fill-opacity:1;fill-rule:nonzero;stroke:none;display:inline"
       id="rect3716"
       transform="scale(1,-1)"
       y="-91"
       x="6"
       ry="6"
       rx="6"
       height="84"
       width="84" />
  </g>
  <g
     id="layer1">
    <rect
       style="fill:url(#linearGradient3617);fill-opacity:1;fill-rule:nonzero;stroke:none"
       id="rect2419"
       y="6"
       x="6"
       ry="6"
       rx="6"
       height="84"
       width="84" />
    <path
       style="opacity:0.5;fill:url(#linearGradient3188);fill-opacity:1;fill-rule:nonzero;stroke:none"
       id="rect3728"
       d="M 12,6 C 8.676,6 6,8.676 6,12 l 0,2 0,68 0,2 c 0,0.334721 0.04135,0.6507 0.09375,0.96875 0.0487,0.295596 0.09704,0.596915 0.1875,0.875 0.00988,0.03038 0.020892,0.0636 0.03125,0.09375 0.098865,0.287771 0.2348802,0.547452 0.375,0.8125 0.1445918,0.273507 0.3156161,0.535615 0.5,0.78125 0.1843839,0.245635 0.3737765,0.473472 0.59375,0.6875 0.439947,0.428056 0.94291,0.814526 1.5,1.09375 0.278545,0.139612 0.5734731,0.246947 0.875,0.34375 -0.2562018,-0.100222 -0.4867109,-0.236272 -0.71875,-0.375 -0.00741,-0.0044 -0.023866,0.0045 -0.03125,0 -0.031933,-0.0193 -0.062293,-0.04251 -0.09375,-0.0625 -0.120395,-0.0767 -0.2310226,-0.163513 -0.34375,-0.25 -0.1061728,-0.0808 -0.2132809,-0.161112 -0.3125,-0.25 C 8.4783201,88.557317 8.3087904,88.373362 8.15625,88.1875 8.0486711,88.057245 7.9378561,87.922215 7.84375,87.78125 7.818661,87.74287 7.805304,87.69538 7.78125,87.65625 7.716487,87.553218 7.6510225,87.451733 7.59375,87.34375 7.4927417,87.149044 7.3880752,86.928049 7.3125,86.71875 7.30454,86.69694 7.288911,86.6782 7.28125,86.65625 7.2494249,86.5643 7.2454455,86.469419 7.21875,86.375 7.1884177,86.268382 7.1483606,86.171969 7.125,86.0625 7.0521214,85.720988 7,85.364295 7,85 L 7,83 7,15 7,13 C 7,10.218152 9.2181517,8 12,8 l 2,0 68,0 2,0 c 2.781848,0 5,2.218152 5,5 l 0,2 0,68 0,2 c 0,0.364295 -0.05212,0.720988 -0.125,1.0625 -0.04415,0.206893 -0.08838,0.397658 -0.15625,0.59375 -0.0077,0.02195 -0.0233,0.04069 -0.03125,0.0625 -0.06274,0.173739 -0.138383,0.367449 -0.21875,0.53125 -0.04158,0.0828 -0.07904,0.169954 -0.125,0.25 -0.0546,0.09721 -0.126774,0.18835 -0.1875,0.28125 -0.09411,0.140965 -0.204921,0.275995 -0.3125,0.40625 -0.143174,0.17445 -0.303141,0.346998 -0.46875,0.5 -0.01117,0.0102 -0.01998,0.02115 -0.03125,0.03125 -0.138386,0.125556 -0.285091,0.234436 -0.4375,0.34375 -0.102571,0.07315 -0.204318,0.153364 -0.3125,0.21875 -0.0074,0.0045 -0.02384,-0.0044 -0.03125,0 -0.232039,0.138728 -0.462548,0.274778 -0.71875,0.375 0.301527,-0.0968 0.596455,-0.204138 0.875,-0.34375 0.55709,-0.279224 1.060053,-0.665694 1.5,-1.09375 0.219973,-0.214028 0.409366,-0.441865 0.59375,-0.6875 0.184384,-0.245635 0.355408,-0.507743 0.5,-0.78125 0.14012,-0.265048 0.276135,-0.524729 0.375,-0.8125 0.01041,-0.03078 0.02133,-0.06274 0.03125,-0.09375 0.09046,-0.278085 0.1388,-0.579404 0.1875,-0.875 C 89.95865,84.6507 90,84.334721 90,84 l 0,-2 0,-68 0,-2 C 90,8.676 87.324,6 84,6 L 12,6 z" />
    <path
       style="opacity:0.2;fill:url(#radialGradient3619);fill-opacity:1;fill-rule:nonzero;stroke:none"
       id="path3615"
       d="M 12,90 C 8.676,90 6,87.324 6,84 L 6,82 6,14 6,12 c 0,-0.334721 0.04135,-0.6507 0.09375,-0.96875 0.0487,-0.295596 0.09704,-0.596915 0.1875,-0.875 C 6.29113,10.12587 6.302142,10.09265 6.3125,10.0625 6.411365,9.774729 6.5473802,9.515048 6.6875,9.25 6.8320918,8.976493 7.0031161,8.714385 7.1875,8.46875 7.3718839,8.223115 7.5612765,7.995278 7.78125,7.78125 8.221197,7.353194 8.72416,6.966724 9.28125,6.6875 9.559795,6.547888 9.8547231,6.440553 10.15625,6.34375 9.9000482,6.443972 9.6695391,6.580022 9.4375,6.71875 c -0.00741,0.0044 -0.023866,-0.0045 -0.03125,0 -0.031933,0.0193 -0.062293,0.04251 -0.09375,0.0625 -0.120395,0.0767 -0.2310226,0.163513 -0.34375,0.25 -0.1061728,0.0808 -0.2132809,0.161112 -0.3125,0.25 C 8.4783201,7.442683 8.3087904,7.626638 8.15625,7.8125 8.0486711,7.942755 7.9378561,8.077785 7.84375,8.21875 7.818661,8.25713 7.805304,8.30462 7.78125,8.34375 7.716487,8.446782 7.6510225,8.548267 7.59375,8.65625 7.4927417,8.850956 7.3880752,9.071951 7.3125,9.28125 7.30454,9.30306 7.288911,9.3218 7.28125,9.34375 7.2494249,9.4357 7.2454455,9.530581 7.21875,9.625 7.1884177,9.731618 7.1483606,9.828031 7.125,9.9375 7.0521214,10.279012 7,10.635705 7,11 l 0,2 0,68 0,2 c 0,2.781848 2.2181517,5 5,5 l 2,0 68,0 2,0 c 2.781848,0 5,-2.218152 5,-5 l 0,-2 0,-68 0,-2 C 89,10.635705 88.94788,10.279012 88.875,9.9375 88.83085,9.730607 88.78662,9.539842 88.71875,9.34375 88.71105,9.3218 88.69545,9.30306 88.6875,9.28125 88.62476,9.107511 88.549117,8.913801 88.46875,8.75 88.42717,8.6672 88.38971,8.580046 88.34375,8.5 88.28915,8.40279 88.216976,8.31165 88.15625,8.21875 88.06214,8.077785 87.951329,7.942755 87.84375,7.8125 87.700576,7.63805 87.540609,7.465502 87.375,7.3125 87.36383,7.3023 87.35502,7.29135 87.34375,7.28125 87.205364,7.155694 87.058659,7.046814 86.90625,6.9375 86.803679,6.86435 86.701932,6.784136 86.59375,6.71875 c -0.0074,-0.0045 -0.02384,0.0044 -0.03125,0 -0.232039,-0.138728 -0.462548,-0.274778 -0.71875,-0.375 0.301527,0.0968 0.596455,0.204138 0.875,0.34375 0.55709,0.279224 1.060053,0.665694 1.5,1.09375 0.219973,0.214028 0.409366,0.441865 0.59375,0.6875 0.184384,0.245635 0.355408,0.507743 0.5,0.78125 0.14012,0.265048 0.276135,0.524729 0.375,0.8125 0.01041,0.03078 0.02133,0.06274 0.03125,0.09375 0.09046,0.278085 0.1388,0.579404 0.1875,0.875 C 89.95865,11.3493 90,11.665279 90,12 l 0,2 0,68 0,2 c 0,3.324 -2.676,6 -6,6 l -72,0 z" />
  </g>
  <g
     id="layer5">
    <rect
       style="opacity:0.1;fill:url(#linearGradient3613);fill-opacity:1;fill-rule:nonzero;stroke:#fefefe;stroke-width:0.5;stroke-linecap:round;stroke-linejoin:miter;stroke-miterlimit:4;stroke-dasharray:none;stroke-dashoffset:0;stroke-opacity:1;filter:url(#filter3794)"
       id="rect3171"
       clip-path="url(#clipPath3613)"
       y="15"
       x="15"
       ry="12"
       rx="12"
       height="66"
       width="66" />
  </g>
  <g
     id="layer3-3"
     transform="matrix(1.2166977,0,0,1.2166977,-11.118693,-9.6259261)">
    <g
       transform="matrix(1.999734,0,0,1.999734,-18.993482,-23.501174)"
       id="g4688" />
    <g
       transform="matrix(1.2551618,0,0,1.2551618,-22.601642,-98.978329)"
       id="g4755">
      <path
         style="display:block;opacity:0.05;stroke-width:0.82189685"
         d="m 53.480934,91.426014 c -2.491991,0 -4.469475,2.089262 -4.469475,4.520433 v 1.232845 c -0.33184,0.128668 -0.650317,0.291149 -0.976002,0.436633 l -0.898333,-0.898333 c -0.727379,-0.727379 -1.817707,-1.35013 -3.133482,-1.361226 -1.149094,-0.0098 -2.3069,0.431973 -3.18485,1.309939 l -4.443997,4.442355 c -1.76527,1.76527 -1.647327,4.61947 0.05137,6.31833 l 0.898991,0.89899 c -0.146298,0.32629 -0.308212,0.64437 -0.437249,0.97641 h -1.232846 c -2.431417,0 -4.520432,1.97749 -4.520432,4.46948 v 6.26696 c 0,2.49166 2.089015,4.46907 4.520432,4.46907 h 1.232846 c 0.128668,0.33184 0.291148,0.65031 0.436632,0.976 l -0.89899,0.89899 c -1.698861,1.69886 -1.816803,4.55306 -0.05137,6.31833 l 4.443339,4.44334 c 1.76527,1.76527 4.619389,1.64757 6.318332,-0.0514 l 0.899155,-0.89998 c 0.326293,0.14548 0.644367,0.30739 0.976413,0.43643 v 1.23284 c 0,2.43142 1.977402,4.52044 4.469064,4.52044 h 6.266964 c 2.491662,0 4.469064,-2.08902 4.469064,-4.52044 v -1.23284 c 0.331841,-0.12867 0.650318,-0.29115 0.976002,-0.43663 l 0.898991,0.89899 c 1.698943,1.69894 4.553062,1.81664 6.318332,0.0514 l 4.442353,-4.444 c 1.76527,-1.76527 1.647327,-4.61947 -0.05137,-6.31833 l -0.898333,-0.89916 c 0.145476,-0.32629 0.307389,-0.64436 0.436427,-0.97641 h 1.232845 c 2.431418,0 4.520433,-1.9774 4.520433,-4.46906 v -6.26697 c 0,-2.49117 -2.089262,-4.46865 -4.520433,-4.46865 h -1.232845 c -0.129038,-0.33369 -0.291773,-0.65176 -0.437249,-0.97724 l 0.898991,-0.89899 c 1.69886,-1.69886 1.816803,-4.55306 0.05137,-6.31833 l -4.443996,-4.44235 c -1.76527,-1.76527 -4.619389,-1.647575 -6.318332,0.05137 l -0.899155,0.898333 c -0.326293,-0.145475 -0.644367,-0.307389 -0.976414,-0.436427 v -1.232845 c 0,-2.431418 -1.977401,-4.520433 -4.469064,-4.520433 h -6.266964 z m 3.133071,21.523836 c 2.233176,0 3.955379,1.7222 3.955379,3.95538 0,2.23317 -1.722203,3.95538 -3.955379,3.95538 -2.233176,0 -3.955378,-1.72221 -3.955378,-3.95538 0,-2.23318 1.722202,-3.95538 3.955378,-3.95538 z"
         display="block"
         id="path108" />
      <path
         style="display:block;opacity:0.07999998;stroke-width:0.82189685"
         d="m 53.480934,92.27339 c -2.026386,0 -3.621441,1.690231 -3.621441,3.672892 v 1.7979 c -0.695933,0.25164 -1.375034,0.528069 -2.029099,0.84754 l -1.284625,-1.284625 c -0.599163,-0.599163 -1.484346,-1.095588 -2.542949,-1.104629 -0.936962,-0.0074 -1.8805,0.340265 -2.593906,1.053671 l -4.443175,4.443171 c -1.431004,1.43109 -1.329993,3.75533 0.05137,5.13686 l 1.284214,1.28421 c -0.319513,0.654 -0.595941,1.33312 -0.84754,2.0291 h -1.7979 c -1.982579,0 -3.672892,1.59514 -3.672892,3.62144 v 6.26697 c 0,2.02638 1.69023,3.62144 3.672892,3.62144 h 1.7979 c 0.251648,0.69593 0.528068,1.37503 0.84754,2.0291 l -1.284214,1.28421 c -1.381444,1.38145 -1.482538,3.70585 -0.05137,5.13686 l 4.443175,4.44317 c 1.431004,1.43101 3.755328,1.33016 5.136855,-0.0514 l 1.284214,-1.28421 c 0.653999,0.31951 1.333116,0.59594 2.029099,0.84754 v 1.7979 c 0,1.98258 1.595137,3.67289 3.621441,3.67289 h 6.266964 c 2.026387,0 3.621442,-1.69023 3.621442,-3.67289 v -1.7979 c 0.695933,-0.25164 1.375033,-0.52807 2.029099,-0.84754 l 1.284624,1.2838 c 1.381527,1.38153 3.705851,1.48237 5.136856,0.0514 l 4.443174,-4.44317 c 1.431005,-1.43109 1.329994,-3.75533 -0.05137,-5.13686 l -1.284623,-1.28462 c 0.319512,-0.654 0.595941,-1.33312 0.84754,-2.0291 h 1.797899 c 1.98258,0 3.672893,-1.59514 3.672893,-3.62145 v -6.26696 c 0,-2.02639 -1.690231,-3.62144 -3.672893,-3.62144 h -1.797899 c -0.251501,-0.69615 -0.527658,-1.37586 -0.847376,-2.03009 l 1.284214,-1.28421 c 1.381444,-1.38144 1.482537,-3.70585 0.05137,-5.13685 l -4.443175,-4.443179 c -1.431004,-1.431004 -3.755329,-1.330158 -5.136855,0.05137 l -1.284214,1.284214 c -0.65423,-0.318896 -1.333938,-0.595054 -2.029263,-0.846554 v -1.797899 c 0,-1.98258 -1.595138,-3.672893 -3.621442,-3.672893 h -6.266964 z m 3.133071,19.82826 c 2.676343,0 4.803001,2.12658 4.803001,4.803 0,2.67634 -2.126576,4.803 -4.803001,4.803 -2.676343,0 -4.803001,-2.12657 -4.803001,-4.803 0,-2.67634 2.126576,-4.803 4.803001,-4.803 z"
         display="block"
         id="path110" />
      <path
         style="display:block;opacity:0.2;stroke-width:0.82189685"
         d="m 53.480934,93.095287 c -1.559549,0 -2.799545,1.315281 -2.799545,2.850995 v 2.362954 c -1.054329,0.34444 -2.071262,0.780185 -3.030744,1.284214 l -1.695162,-1.695163 c -0.479512,-0.479511 -1.160272,-0.866525 -1.952005,-0.873265 -0.720377,-0.0062 -1.45147,0.270026 -2.003374,0.821897 l -4.443339,4.443341 c -1.097807,1.0978 -1.017179,2.88675 0.05137,3.95538 l 1.695162,1.69516 c -0.504028,0.95948 -0.939757,1.97641 -1.284214,3.03074 h -2.362954 c -1.535714,0 -2.850996,1.24 -2.850996,2.79955 v 6.26696 c 0,1.55955 1.315282,2.79955 2.850996,2.79955 h 2.362953 c 0.344441,1.05433 0.780186,2.07126 1.284214,3.03074 l -1.695162,1.69516 c -1.06863,1.06863 -1.149259,2.85757 -0.05137,3.95538 l 4.443339,4.44334 c 1.097725,1.09781 2.886748,1.01726 3.955379,-0.0514 l 1.695162,-1.69516 c 0.959482,0.50403 1.976415,0.93976 3.030744,1.28421 v 2.36296 c 0,1.53563 1.239996,2.85099 2.799545,2.85099 h 6.266964 c 1.559549,0 2.799545,-1.31528 2.799545,-2.85099 v -2.36296 c 1.054329,-0.34444 2.071262,-0.78018 3.030744,-1.28421 l 1.695163,1.69516 c 1.06863,1.06863 2.857653,1.14909 3.955378,0.0514 l 4.443339,-4.44334 c 1.097808,-1.09781 1.01718,-2.88675 -0.05137,-3.95538 l -1.695162,-1.69516 c 0.504028,-0.95948 0.939757,-1.97641 1.284214,-3.03074 h 2.362953 c 1.535633,0 2.850996,-1.24 2.850996,-2.79955 v -6.26696 c 0,-1.55955 -1.315281,-2.79955 -2.850996,-2.79955 h -2.362953 c -0.34444,-1.05433 -0.780186,-2.07126 -1.284214,-3.03074 l 1.695162,-1.69516 c 1.068631,-1.06863 1.149259,-2.85758 0.05137,-3.95538 l -4.442352,-4.44482 c -1.097726,-1.097726 -2.886749,-1.017262 -3.955379,0.05137 l -1.695162,1.695162 c -0.958332,-0.504644 -1.975018,-0.94025 -3.029512,-1.284624 v -2.362954 c 0,-1.535714 -1.240078,-2.850996 -2.799545,-2.850996 h -6.266963 z m 3.133071,18.184463 c 3.120578,0 5.624898,2.50432 5.624898,5.6249 0,3.12058 -2.50432,5.6249 -5.624898,5.6249 -3.120578,0 -5.624897,-2.50432 -5.624897,-5.6249 0,-3.12058 2.504319,-5.6249 5.624897,-5.6249 z"
         display="block"
         id="path112" />
      <path
         style="display:block;opacity:0.3;stroke-width:0.82189685"
         d="m 53.480934,93.891705 c -1.120245,0 -2.003784,0.935318 -2.003784,2.054742 v 2.876639 c -1.411937,0.403502 -2.752615,0.992522 -4.006747,1.695164 l -2.080385,-2.054744 c -0.375024,-0.375015 -0.847869,-0.637537 -1.386951,-0.642107 -0.517565,-0.0044 -1.037974,0.190376 -1.43832,0.590738 l -4.443174,4.443173 c -0.789539,0.78955 -0.733708,2.04011 0.05137,2.82527 l 2.054742,2.08039 c -0.701899,1.25421 -1.2912,2.59473 -1.694751,4.00674 h -2.876639 c -1.119752,0 -2.054742,0.88395 -2.054742,2.00338 v 6.26696 c 0,1.11942 0.93499,2.00337 2.054742,2.00337 h 2.876639 c 0.40351,1.41194 0.992523,2.75262 1.695162,4.00675 l -2.054742,2.08039 c -0.78515,0.78515 -0.840965,2.03575 -0.05137,2.82527 l 4.443174,4.44317 c 0.789531,0.78954 2.040112,0.73379 2.82527,-0.0514 l 2.080386,-2.05474 c 1.254132,0.70268 2.59481,1.29169 4.006747,1.69516 v 2.87664 c 0,1.11975 0.88395,2.05474 2.003373,2.05474 h 6.266964 c 1.119423,0 2.003373,-0.93499 2.003373,-2.05474 v -2.87664 c 1.411937,-0.4035 2.752615,-0.99252 4.006748,-1.69516 l 2.080385,2.05474 c 0.785158,0.78517 2.035756,0.84088 2.82527,0.0514 l 4.443175,-4.44317 c 0.789538,-0.78955 0.733707,-2.04011 -0.05137,-2.82527 l -2.054742,-2.08039 c 0.7019,-1.25421 1.2912,-2.59473 1.694751,-4.00675 h 2.876639 c 1.119752,0 2.054742,-0.88395 2.054742,-2.00337 v -6.26696 c 0,-1.11943 -0.935318,-2.00297 -2.054742,-2.00297 h -2.876638 c -0.403502,-1.41193 -0.992522,-2.75261 -1.695162,-4.00674 l 2.054742,-2.08039 c 0.78515,-0.78515 0.840965,-2.03575 0.05137,-2.82527 l -4.443175,-4.443172 c -0.789538,-0.78953 -2.040112,-0.733789 -2.82527,0.05137 l -2.080386,2.054742 C 64.503393,99.817581 63.162879,99.228281 61.75086,98.82473 v -2.876639 c 0,-1.119753 -0.88395,-2.054742 -2.003373,-2.054742 h -6.266964 z m 3.133071,16.592455 c 3.547389,0 6.421069,2.87368 6.421069,6.42107 0,3.54739 -2.87368,6.42107 -6.421069,6.42107 -3.547389,0 -6.421069,-2.87368 -6.421069,-6.42107 0,-3.54739 2.87368,-6.42107 6.421069,-6.42107 z"
         display="block"
         id="path114" />
      <path
         style="display:block;fill:url(#p);stroke:url(#linearGradient4765);stroke-width:0.82189685;stroke-linejoin:round"
         d="m 53.493263,93.480756 c -0.889539,0 -1.609767,0.737883 -1.609767,1.642561 v 3.186659 c -1.590453,0.42377 -3.110222,1.063863 -4.500707,1.872524 l -2.266792,-2.266788 c -0.319866,-0.319866 -0.703026,-0.489275 -1.116958,-0.492777 -0.413932,-0.0035 -0.835293,0.145443 -1.149833,0.459925 l -4.435038,4.43504 c -0.628965,0.62897 -0.606872,1.62702 0.03279,2.26679 l 2.266791,2.26679 c -0.808689,1.39049 -1.448758,2.91017 -1.872528,4.50071 h -3.186662 c -0.904744,0 -1.642561,0.72023 -1.642561,1.60976 v 6.24182 c 0,0.88954 0.737891,1.60977 1.642561,1.60977 h 3.186658 c 0.423779,1.59053 1.063864,3.11022 1.872528,4.5007 l -2.266791,2.26679 c -0.639724,0.63973 -0.661816,1.6378 -0.03279,2.2668 l 4.435038,4.43503 c 0.628964,0.62898 1.627027,0.60688 2.266791,-0.0328 l 2.266792,-2.26679 c 1.390485,0.8087 2.910172,1.44876 4.500707,1.87253 v 3.18666 c 0,0.90474 0.720244,1.64256 1.609767,1.64256 h 6.241813 c 0.889539,0 1.609767,-0.73789 1.609767,-1.64256 v -3.18666 c 1.590453,-0.42377 3.110222,-1.06386 4.500708,-1.87253 l 2.266791,2.26679 c 0.639723,0.63973 1.637794,0.66183 2.266792,0.0328 l 4.435037,-4.43503 c 0.628965,-0.62898 0.606872,-1.62703 -0.03279,-2.2668 l -2.266792,-2.26679 c 0.808689,-1.39048 1.448758,-2.91017 1.872528,-4.5007 h 3.186658 c 0.904662,0 1.642561,-0.72024 1.642561,-1.60977 v -6.24182 c 0,-0.88953 -0.737891,-1.60976 -1.642561,-1.60976 h -3.186649 c -0.422455,-1.58955 -1.062713,-3.10924 -1.871459,-4.49989 l 2.266791,-2.26679 c 0.639724,-0.63972 0.661824,-1.63779 0.03279,-2.26679 l -4.435042,-4.435038 c -0.628973,-0.628973 -1.627027,-0.606872 -2.266791,0.03285 l -2.266792,2.266788 c -1.390485,-0.808694 -2.910172,-1.448754 -4.500707,-1.872524 v -3.186659 c 0,-0.904744 -0.720237,-1.642561 -1.609767,-1.642561 h -6.241814 z"
         display="block"
         id="path116" />
      <path
         style="fill:none;stroke:#555556;stroke-width:1.6437937;stroke-opacity:1"
         d="m 56.614005,101.89123 c -7.825444,0 -14.191693,6.36649 -14.191693,14.19169 0,7.82544 6.366496,14.19169 14.191693,14.19169 7.825444,0 14.191693,-6.36649 14.191693,-14.19169 0,-7.82545 -6.366577,-14.19169 -14.191693,-14.19169 z"
         id="path118" />
      <path
         style="opacity:0.05;stroke-width:0.82189685"
         d="m 56.614005,102.41642 c -7.535808,0 -13.666501,6.13061 -13.666501,13.6665 0,7.53572 6.130611,13.6665 13.666501,13.6665 7.535808,0 13.666501,-6.13061 13.666501,-13.6665 0,-7.53573 -6.130611,-13.6665 -13.666501,-13.6665 z"
         id="path120" />
    </g>
    <g
       transform="matrix(0.58184722,0,0,0.58184722,17.82766,20.193145)"
       id="g4611">
      <path
         d="m 48.725418,68.375997 c -2.133468,-0.709964 -3.374075,-1.41468 -5.46905,-3.106647 -5.623092,-4.54137 -8.549995,-11.236908 -6.956792,-15.914238 0.658205,-1.932349 1.408419,-3.156798 2.765764,-4.514076 2.356826,-2.356711 6.031983,-4.095039 10.625457,-5.025767 7.132568,-1.445202 12.749522,0.356981 13.188759,4.231575 0.3189,2.813082 -1.845539,5.373649 -8.085423,9.56518 -4.429488,2.975426 -6.154876,4.560863 -6.154876,5.655616 0,1.573627 1.914587,3.151451 3.824114,3.151451 1.20489,0 1.82378,-0.649061 2.356629,-2.471499 0.705475,-2.412851 2.147283,-3.263832 5.583581,-3.295526 2.407089,-0.02222 3.154654,0.533924 3.265156,2.429003 0.06471,1.109864 -0.07143,1.669777 -0.728854,2.997554 -1.077652,2.176504 -3.603659,4.675517 -5.825084,5.762859 -1.515841,0.741969 -1.983793,0.841293 -4.333488,0.919721 -2.049678,0.06841 -2.949602,-0.01703 -4.055893,-0.385206 z M 34.922239,41.846226 c -1.81782,-1.586927 -2.599913,-4.755138 -1.45488,-5.893622 1.745304,-1.735303 3.959407,-0.457032 4.663131,2.692175 0.741671,3.319022 -1.038601,5.095515 -3.208251,3.201447 z m 6.127836,-4.422294 c -1.302656,-1.364822 -1.736561,-2.445184 -1.748837,-4.354379 -0.01041,-1.618833 -0.01239,-2.065211 0.839821,-2.912537 1.691164,-1.681483 3.815474,-0.431355 4.470157,3.089877 0.321961,1.731674 -0.04142,3.300452 -0.997314,4.305551 -0.882415,0.927837 -1.589416,0.8924 -2.563827,-0.128512 z m 17.506099,0.0049 c -0.841632,-0.439747 -1.761558,-1.825693 -1.97991,-2.982947 -0.423491,-2.24448 1.19335,-6.312494 3.138931,-7.897621 3.175792,-2.587422 7.862253,-2.897989 9.057322,-0.600219 0.972288,1.869433 -0.309242,5.198338 -3.154759,8.194797 -2.634126,2.773855 -5.494278,4.104759 -7.061584,3.285941 z m -9.502606,-1.794194 c -1.006501,-0.482952 -1.732864,-2.392432 -1.73914,-4.571907 -0.0092,-3.182698 1.259874,-4.880276 3.649884,-4.882413 1.457999,-0.0012 2.306274,0.979101 2.554198,2.952046 0.302927,2.410688 -1.220069,5.996556 -2.77591,6.53582 -0.939285,0.325558 -0.940697,0.325535 -1.689032,-0.03356 z"
         id="path3456"
         style="display:inline;opacity:0.8;fill:url(#linearGradient2905);fill-opacity:1;stroke:none;stroke-width:0.82189685" />
      <path
         d="m 65.627011,24.400341 c -1.852094,-0.04439 -4.121001,0.702054 -5.907384,2.157479 -1.859891,1.515312 -3.421052,5.285667 -3.18485,7.576862 0.127761,-2.290406 1.531226,-5.407705 3.18485,-6.754965 3.175791,-2.587422 7.845797,-2.914193 9.040865,-0.616423 0.157209,0.302268 0.265932,0.656367 0.308212,1.027371 0.06103,-0.701779 -0.0395,-1.332613 -0.308212,-1.849268 -0.522842,-1.005274 -1.692964,-1.506528 -3.133481,-1.541056 z m -14.665722,1.772215 c -2.390011,0.0021 -3.656348,1.697315 -3.647168,4.880012 4.66e-4,0.161866 0.01746,0.329588 0.02569,0.488002 0.08404,-2.95381 1.32192,-4.544061 3.621483,-4.546117 1.457999,-0.0012 2.320504,0.980746 2.568427,2.953692 0.0094,0.0751 -0.0059,0.153902 0,0.231158 0.02284,-0.365473 0.04171,-0.721122 0,-1.053055 -0.247928,-1.972946 -1.110433,-2.954925 -2.568432,-2.953692 z m -9.169287,3.236219 c -0.55502,-0.02696 -1.115305,0.21938 -1.643794,0.744844 -0.809596,0.804959 -0.854656,1.292289 -0.847581,2.722533 0.035,-0.848207 0.208426,-1.265142 0.847581,-1.900636 1.691165,-1.681484 3.814382,-0.439119 4.469064,3.082113 0.0531,0.285616 0.06082,0.572627 0.07705,0.847581 0.04058,-0.523792 0.02971,-1.095248 -0.07705,-1.669478 -0.450094,-2.420847 -1.604227,-3.767646 -2.82527,-3.826957 z m -6.600859,5.753278 c -0.57657,-0.01143 -1.175439,0.253931 -1.720846,0.796212 -0.429388,0.426932 -0.579295,1.144637 -0.513686,1.952005 0.06443,-0.460222 0.237446,-0.855449 0.513686,-1.130108 1.745303,-1.735303 3.945129,-0.452358 4.648854,2.696849 0.07998,0.357917 0.130106,0.682315 0.154105,1.001687 0.04407,-0.536612 -3.1e-4,-1.135341 -0.154105,-1.823584 -0.483811,-2.16508 -1.659554,-3.467902 -2.928008,-3.493061 z m 19.52005,4.160852 c -1.53647,-0.02627 -3.225292,0.126701 -5.008434,0.488002 -4.593474,0.930728 -8.276465,2.677407 -10.63329,5.034118 -1.357346,1.357278 -2.115697,2.588083 -2.773902,4.520433 -0.331917,0.974443 -0.454909,2.021573 -0.410948,3.133481 0.03519,-0.813461 0.16201,-1.580752 0.410948,-2.311585 0.658205,-1.932349 1.416556,-3.163154 2.773902,-4.520432 2.356825,-2.356711 6.039816,-4.10339 10.63329,-5.034118 7.132568,-1.445202 12.736797,0.363312 13.176034,4.237905 0.01814,-0.273365 0.03134,-0.545441 0,-0.821897 -0.329428,-2.905945 -3.55819,-4.647115 -8.1676,-4.725907 z m 5.701909,17.336887 c -3.436297,0.03169 -4.893697,0.874736 -5.599172,3.287587 -0.532849,1.822438 -1.158063,2.465691 -2.362953,2.465691 -1.703886,0 -3.401807,-1.256887 -3.749905,-2.645481 -0.03213,0.113915 -0.05137,0.229656 -0.05137,0.333896 0,1.573627 1.891746,3.133482 3.801273,3.133482 1.20489,0 1.830104,-0.643253 2.362953,-2.465691 0.705475,-2.412851 2.162875,-3.255893 5.599172,-3.287587 2.371496,-0.02189 3.134254,0.509061 3.261904,2.337269 0.01394,-0.229313 0.01617,-0.467378 0,-0.744844 C 63.564502,57.179035 62.82019,56.637576 60.4131,56.659792 Z"
         id="path3873"
         style="display:inline;opacity:0.5;fill:#000000;fill-opacity:1;stroke:none;stroke-width:0.82189685" />
      <path
         d="m 69.068704,27.790665 c -0.159776,1.837495 -1.382592,4.175689 -3.441693,6.344017 -2.634127,2.773855 -5.49587,4.106405 -7.063176,3.287587 -0.841632,-0.439747 -1.759338,-1.822122 -1.97769,-2.979376 -0.01865,-0.09886 -0.04049,-0.202649 -0.05137,-0.308211 -0.02256,0.404385 -0.01218,0.793297 0.05137,1.130108 0.218352,1.157254 1.136058,2.539629 1.97769,2.979376 1.567306,0.818818 4.429049,-0.513732 7.063176,-3.287587 2.385426,-2.511963 3.660899,-5.242369 3.441693,-7.165914 z m -15.538988,2.388638 c -0.143064,2.288799 -1.457972,5.031423 -2.799586,5.496435 -0.939285,0.325559 -0.921142,0.307724 -1.669478,-0.05137 -0.93175,-0.447084 -1.618267,-2.109223 -1.720846,-4.0838 -0.0033,0.116181 -0.02603,0.213449 -0.02569,0.333895 0.0062,2.179475 0.740031,4.088849 1.746531,4.571802 0.748336,0.359092 0.730193,0.376926 1.669478,0.05137 1.507371,-0.522464 2.984538,-3.915775 2.799586,-6.318332 z m -14.229089,2.902323 c -0.0053,0.242558 -0.0021,0.498131 0,0.821897 0.01228,1.909195 0.443875,2.975822 1.746531,4.340643 0.974411,1.020912 1.686012,1.056259 2.568428,0.128421 0.798229,-0.839321 1.160918,-2.075296 1.078739,-3.467377 -0.08179,1.055778 -0.439826,1.973677 -1.078739,2.64548 -0.882416,0.927838 -1.594017,0.892491 -2.568428,-0.128421 -1.302656,-1.364821 -1.734255,-2.431448 -1.746531,-4.340643 z m -6.344016,4.880013 c -0.177887,1.445744 0.614325,3.510028 1.977689,4.700222 1.935679,1.689816 3.537504,0.459054 3.338956,-2.183163 -0.168471,2.051179 -1.619211,2.862575 -3.338956,1.361267 -1.122274,-0.979727 -1.854707,-2.5429 -1.977689,-3.878326 z m 29.922182,7.140229 c -0.28596,2.43196 -2.630649,4.833905 -8.090547,8.501495 -4.429488,2.975425 -6.138542,4.581472 -6.138542,5.676225 0,0.169468 0.0094,0.320413 0.05137,0.488001 0.305319,-1.082436 2.079454,-2.650218 6.087174,-5.342329 6.064824,-4.073939 8.263851,-6.601561 8.090547,-9.323392 z m -26.994174,7.397071 c -0.190012,4.392694 2.626903,9.755202 7.371387,13.586982 2.094975,1.691968 3.337283,2.397834 5.470751,3.107798 1.106291,0.368177 2.008437,0.453671 4.058115,0.385264 2.349696,-0.07842 2.824801,-0.182665 4.340643,-0.924634 2.221424,-1.087342 4.726994,-3.576773 5.804647,-5.753278 0.657422,-1.327777 0.809551,-1.895196 0.744844,-3.00506 -0.05185,0.653877 -0.270303,1.224746 -0.744844,2.183163 -1.077653,2.176505 -3.583223,4.665936 -5.804647,5.753278 -1.515842,0.741969 -1.990947,0.846206 -4.340643,0.924634 -2.049678,0.06841 -2.951824,-0.01709 -4.058115,-0.385264 -2.133468,-0.709963 -3.375776,-1.41583 -5.470751,-3.107797 -4.451615,-3.595252 -7.204337,-8.539837 -7.371387,-12.765086 z"
         id="path3882"
         style="display:inline;opacity:0.5;fill:#fefefe;fill-opacity:1;stroke:none;stroke-width:0.82189685" />
    </g>
  </g>
</svg>
