<?xml version="1.0" encoding="UTF-8" standalone="no"?>
<svg
   xmlns:dc="http://purl.org/dc/elements/1.1/"
   xmlns:cc="http://creativecommons.org/ns#"
   xmlns:rdf="http://www.w3.org/1999/02/22-rdf-syntax-ns#"
   xmlns:svg="http://www.w3.org/2000/svg"
   xmlns="http://www.w3.org/2000/svg"
   xmlns:xlink="http://www.w3.org/1999/xlink"
   id="svg2408"
   height="96"
   width="96"
   version="1.0">
  <defs
     id="defs2410">
    <linearGradient
       id="linearGradient4863">
      <stop
         id="stop4859"
         style="stop-color:#26588a;stop-opacity:1"
         offset="0" />
      <stop
         id="stop4861"
         style="stop-color:#4284ad;stop-opacity:1"
         offset="1" />
    </linearGradient>
    <linearGradient
       id="linearGradient4844">
      <stop
         style="stop-color:#006cff;stop-opacity:1"
         offset="0"
         id="stop4840" />
      <stop
         style="stop-color:#00b205;stop-opacity:1"
         offset="1"
         id="stop4842" />
    </linearGradient>
    <linearGradient
       id="linearGradient4802">
      <stop
         id="stop4798"
         offset="0"
         style="stop-color:#ff002c;stop-opacity:1" />
      <stop
         id="stop4800"
         offset="1"
         style="stop-color:#2c33ff;stop-opacity:1" />
    </linearGradient>
    <linearGradient
       id="linearGradient4724">
      <stop
         style="stop-color:#ff7200;stop-opacity:1"
         offset="0"
         id="stop4720" />
      <stop
         style="stop-color:#e80000;stop-opacity:1"
         offset="1"
         id="stop4722" />
    </linearGradient>
    <linearGradient
       id="linearGradient4692">
      <stop
         id="stop4688"
         offset="0"
         style="stop-color:#000000;stop-opacity:1;" />
      <stop
         id="stop4690"
         offset="1"
         style="stop-color:#646464;stop-opacity:1" />
    </linearGradient>
    <linearGradient
       gradientTransform="scale(1.0058652,0.994169)"
       gradientUnits="userSpaceOnUse"
       id="ButtonShadow"
       y2="7.0165396"
       x2="45.447727"
       y1="92.539597"
       x1="45.447727">
      <stop
         offset="0"
         style="stop-color:#000000;stop-opacity:1"
         id="stop3750" />
      <stop
         offset="1"
         style="stop-color:#000000;stop-opacity:0.58823532"
         id="stop3752" />
    </linearGradient>
    <linearGradient
       id="linearGradient3737">
      <stop
         offset="0"
         style="stop-color:#fefefe;stop-opacity:1"
         id="stop3739" />
      <stop
         offset="1"
         style="stop-color:#fefefe;stop-opacity:0"
         id="stop3741" />
    </linearGradient>
    <linearGradient
       id="linearGradient3700">
      <stop
         offset="0"
         style="stop-color:#80aad1;stop-opacity:1"
         id="stop3702" />
      <stop
         offset="1"
         style="stop-color:#b3d7ff;stop-opacity:1"
         id="stop3704" />
    </linearGradient>
    <filter
       id="filter3174"
       color-interpolation-filters="sRGB">
      <feGaussianBlur
         stdDeviation="1.71"
         id="feGaussianBlur3176" />
    </filter>
    <linearGradient
       gradientUnits="userSpaceOnUse"
       xlink:href="#linearGradient3737"
       id="linearGradient3188"
       y2="63.893143"
       x2="36.357143"
       y1="6"
       x1="36.357143" />
    <filter
       id="filter3794"
       color-interpolation-filters="sRGB"
       height="1.3839999"
       width="1.3839999"
       y="-0.192"
       x="-0.192">
      <feGaussianBlur
         stdDeviation="5.28"
         id="feGaussianBlur3796" />
    </filter>
    <linearGradient
       gradientUnits="userSpaceOnUse"
       xlink:href="#linearGradient3737"
       id="linearGradient3613"
       y2="138.66119"
       x2="48"
       y1="20.220806"
       x1="48" />
    <radialGradient
       gradientTransform="matrix(1.1573129,0,0,0.99590774,-7.5510206,0.19713193)"
       gradientUnits="userSpaceOnUse"
       xlink:href="#linearGradient3737"
       id="radialGradient3619"
       fy="90.171875"
       fx="48"
       r="42"
       cy="90.171875"
       cx="48" />
    <clipPath
       id="clipPath3613">
      <rect
         style="fill:#fefefe;fill-opacity:1;fill-rule:nonzero;stroke:none"
         id="rect3615"
         y="6"
         x="6"
         ry="6"
         rx="6"
         height="84"
         width="84" />
    </clipPath>
    <linearGradient
       gradientUnits="userSpaceOnUse"
       xlink:href="#linearGradient4863"
       id="linearGradient3617"
       y2="5.9877172"
       x2="48"
       y1="90"
       x1="48" />
    <linearGradient
       gradientTransform="matrix(1.0058652,0,0,0.994169,100,0)"
       gradientUnits="userSpaceOnUse"
       id="ButtonShadow-0"
       y2="7.0165396"
       x2="45.447727"
       y1="92.539597"
       x1="45.447727">
      <stop
         offset="0"
         style="stop-color:#000000;stop-opacity:1"
         id="stop3750-8" />
      <stop
         offset="1"
         style="stop-color:#000000;stop-opacity:0.58823532"
         id="stop3752-5" />
    </linearGradient>
    <linearGradient
       gradientTransform="matrix(1.0238095,0,0,1.0119048,-1.1428571,-98.071429)"
       gradientUnits="userSpaceOnUse"
       xlink:href="#ButtonShadow-0"
       id="linearGradient3780"
       y2="90.238609"
       x2="32.251034"
       y1="6.1317081"
       x1="32.251034" />
    <linearGradient
       gradientTransform="matrix(1.0238095,0,0,1.0119048,-1.1428571,-98.071429)"
       gradientUnits="userSpaceOnUse"
       xlink:href="#ButtonShadow-0"
       id="linearGradient3772"
       y2="90.238609"
       x2="32.251034"
       y1="6.1317081"
       x1="32.251034" />
    <linearGradient
       gradientTransform="matrix(1.0238095,0,0,1.0119048,-1.1428571,-98.071429)"
       gradientUnits="userSpaceOnUse"
       xlink:href="#ButtonShadow-0"
       id="linearGradient3725"
       y2="90.238609"
       x2="32.251034"
       y1="6.1317081"
       x1="32.251034" />
    <linearGradient
       gradientTransform="translate(0,-97)"
       gradientUnits="userSpaceOnUse"
       xlink:href="#ButtonShadow-0"
       id="linearGradient3721"
       y2="90.238609"
       x2="32.251034"
       y1="6.1317081"
       x1="32.251034" />
    <linearGradient
       gradientTransform="matrix(1.0238095,0,0,1.0119048,-1.1428571,-98.071429)"
       gradientUnits="userSpaceOnUse"
       xlink:href="#ButtonShadow-0"
       id="linearGradient3026"
       y2="90.238609"
       x2="32.251034"
       y1="6.1317081"
       x1="32.251034" />
    <linearGradient
       gradientTransform="matrix(0,1,-1,0,97,1)"
       gradientUnits="userSpaceOnUse"
       xlink:href="#linearGradient4086"
       id="linearGradient4111"
       y2="49"
       x2="72"
       y1="49"
       x1="-41" />
    <linearGradient
       id="linearGradient4086">
      <stop
         offset="0"
         style="stop-color:#bebebe;stop-opacity:1"
         id="stop4088" />
      <stop
         offset="1"
         style="stop-color:#ebebeb;stop-opacity:1"
         id="stop4098" />
    </linearGradient>
    <radialGradient
       gradientUnits="userSpaceOnUse"
       xlink:href="#linearGradient3841-9"
       id="radialGradient3847-1"
       fy="44"
       fx="48"
       r="16"
       cy="44"
       cx="48" />
    <linearGradient
       id="linearGradient3841-9">
      <stop
         offset="0"
         style="stop-color:#fefefe;stop-opacity:1"
         id="stop3843-9" />
      <stop
         offset="0.5"
         style="stop-color:#fefefe;stop-opacity:0.33587787"
         id="stop3849-7" />
      <stop
         offset="1"
         style="stop-color:#000000;stop-opacity:0.16793893"
         id="stop3845-4" />
    </linearGradient>
    <linearGradient
       gradientTransform="matrix(0,-1,1,0,0,97)"
       gradientUnits="userSpaceOnUse"
       xlink:href="#linearGradient3851-2"
       id="linearGradient3857-9"
       y2="48"
       x2="120"
       y1="48"
       x1="15" />
    <linearGradient
       id="linearGradient3851-2">
      <stop
         offset="0"
         style="stop-color:#000000;stop-opacity:1"
         id="stop3853-9" />
      <stop
         offset="1"
         style="stop-color:#000000;stop-opacity:0"
         id="stop3855-4" />
    </linearGradient>
    <linearGradient
       gradientTransform="matrix(0,-1,1,0,-1,97)"
       gradientUnits="userSpaceOnUse"
       xlink:href="#linearGradient4086"
       id="linearGradient4223"
       y2="49"
       x2="80"
       y1="49"
       x1="16" />
    <linearGradient
       gradientTransform="matrix(0.3712194,0,0,0.42495552,-38.135054,30.218882)"
       gradientUnits="userSpaceOnUse"
       y2="11.95339"
       x2="172.45009"
       y1="79.072037"
       x1="171.97002"
       id="linearGradient4694"
       xlink:href="#linearGradient4692" />
    <linearGradient
       gradientTransform="matrix(-0.3712194,0,0,0.42495552,88.515626,30.162565)"
       gradientUnits="userSpaceOnUse"
       y2="11.95339"
       x2="172.45009"
       y1="79.072037"
       x1="171.97002"
       id="linearGradient4694-3"
       xlink:href="#linearGradient4724" />
    <linearGradient
       gradientTransform="matrix(0.3712194,0,0,0.42495552,-14.849866,30.162565)"
       gradientUnits="userSpaceOnUse"
       y2="11.95339"
       x2="172.45009"
       y1="79.072037"
       x1="171.97002"
       id="linearGradient4694-0"
       xlink:href="#linearGradient4692" />
    <linearGradient
       gradientTransform="matrix(-0.3712194,0,0,0.42495552,111.80082,30.106247)"
       gradientUnits="userSpaceOnUse"
       y2="11.95339"
       x2="172.45009"
       y1="79.072037"
       x1="171.97002"
       id="linearGradient4694-3-6"
       xlink:href="#linearGradient4802" />
    <linearGradient
       gradientTransform="matrix(0.3712194,0,0,0.42495552,8.4353265,30.106247)"
       gradientUnits="userSpaceOnUse"
       y2="11.95339"
       x2="172.45009"
       y1="79.072037"
       x1="171.97002"
       id="linearGradient4694-0-2"
       xlink:href="#linearGradient4692" />
    <linearGradient
       gradientTransform="matrix(-0.3712194,0,0,0.42495552,135.08601,30.04993)"
       gradientUnits="userSpaceOnUse"
       y2="11.95339"
       x2="172.45009"
       y1="79.072037"
       x1="171.97002"
       id="linearGradient4694-3-6-3"
       xlink:href="#linearGradient4844" />
    <linearGradient
       gradientUnits="userSpaceOnUse"
       xlink:href="#linearGradient3700"
       id="linearGradient3617-3"
       y2="5.9877172"
       x2="48"
       y1="90"
       x1="48" />
    <linearGradient
       gradientUnits="userSpaceOnUse"
       xlink:href="#linearGradient3737"
       id="linearGradient3188-2"
       y2="63.893143"
       x2="36.357143"
       y1="6"
       x1="36.357143" />
    <radialGradient
       gradientTransform="matrix(1.1573129,0,0,0.99590774,-7.5510206,0.19713193)"
       gradientUnits="userSpaceOnUse"
       xlink:href="#linearGradient3737"
       id="radialGradient3619-2"
       fy="90.171875"
       fx="48"
       r="42"
       cy="90.171875"
       cx="48" />
    <linearGradient
       gradientTransform="rotate(180,47.974598,47.92982)"
       xlink:href="#linearGradient3737"
       id="linearGradient3604"
       gradientUnits="userSpaceOnUse"
       x1="36.357143"
       y1="6"
       x2="36.357143"
       y2="63.893143" />
  </defs>
  <metadata
     id="metadata2413">
    <rdf:RDF>
      <cc:Work
         rdf:about="">
        <dc:format>image/svg+xml</dc:format>
        <dc:type
           rdf:resource="http://purl.org/dc/dcmitype/StillImage" />
        <dc:title></dc:title>
      </cc:Work>
    </rdf:RDF>
  </metadata>
  <g
     style="display:none"
     id="layer2">
    <rect
       style="opacity:0.9;fill:url(#ButtonShadow);fill-opacity:1;fill-rule:nonzero;stroke:none;filter:url(#filter3174)"
       id="rect3745"
       y="7"
       x="5"
       ry="6"
       rx="6"
       height="85"
       width="86" />
  </g>
  <g
     id="layer3">
    <path
       style="opacity:0.07999998;fill:url(#linearGradient3026);fill-opacity:1;fill-rule:nonzero;stroke:none;display:inline"
       id="path3786"
       transform="scale(1,-1)"
       d="m 12,-95.03125 c -5.5110903,0 -10.03125,4.52016 -10.03125,10.03125 l 0,71 c 0,5.5110902 4.5201598,10.03125 10.03125,10.03125 l 72,0 c 5.51109,0 10.03125,-4.5201597 10.03125,-10.03125 l 0,-71 c 0,-5.51109 -4.52016,-10.03125 -10.03125,-10.03125 l -72,0 z" />
    <path
       style="opacity:0.1;fill:url(#linearGradient3780);fill-opacity:1;fill-rule:nonzero;stroke:none;display:inline"
       id="path3778"
       transform="scale(1,-1)"
       d="m 12,-94.03125 c -4.971633,0 -9.03125,4.059617 -9.03125,9.03125 l 0,71 c 0,4.9716329 4.0596171,9.03125 9.03125,9.03125 l 72,0 c 4.971633,0 9.03125,-4.059617 9.03125,-9.03125 l 0,-71 c 0,-4.971633 -4.059617,-9.03125 -9.03125,-9.03125 l -72,0 z" />
    <path
       style="opacity:0.2;fill:url(#linearGradient3772);fill-opacity:1;fill-rule:nonzero;stroke:none;display:inline"
       id="path3770"
       transform="scale(1,-1)"
       d="m 12,-93 c -4.4091333,0 -8,3.590867 -8,8 l 0,71 c 0,4.4091333 3.5908667,8 8,8 l 72,0 c 4.409133,0 8,-3.5908667 8,-8 l 0,-71 c 0,-4.409133 -3.590867,-8 -8,-8 l -72,0 z" />
    <rect
       style="opacity:0.3;fill:url(#linearGradient3725);fill-opacity:1;fill-rule:nonzero;stroke:none;display:inline"
       id="rect3723"
       transform="scale(1,-1)"
       y="-92"
       x="5"
       ry="7"
       rx="7"
       height="85"
       width="86" />
    <rect
       style="opacity:0.45;fill:url(#linearGradient3721);fill-opacity:1;fill-rule:nonzero;stroke:none;display:inline"
       id="rect3716"
       transform="scale(1,-1)"
       y="-91"
       x="6"
       ry="6"
       rx="6"
       height="84"
       width="84" />
  </g>
  <g
     id="layer1">
    <rect
       style="fill:url(#linearGradient3617);fill-opacity:1;fill-rule:nonzero;stroke:none"
       id="rect2419"
       y="6"
       x="6"
       ry="6"
       rx="6"
       height="84"
       width="84" />
    <path
       style="opacity:0.5;fill:url(#linearGradient3188);fill-opacity:1;fill-rule:nonzero;stroke:none"
       id="rect3728"
       d="M 12,6 C 8.676,6 6,8.676 6,12 v 2 68 2 c 0,0.334721 0.04135,0.6507 0.09375,0.96875 0.0487,0.295596 0.09704,0.596915 0.1875,0.875 0.00988,0.03038 0.020892,0.0636 0.03125,0.09375 0.098865,0.287771 0.2348802,0.547452 0.375,0.8125 0.1445918,0.273507 0.3156161,0.535615 0.5,0.78125 0.1843839,0.245635 0.3737765,0.473472 0.59375,0.6875 0.439947,0.428056 0.94291,0.814526 1.5,1.09375 0.278545,0.139612 0.5734731,0.246947 0.875,0.34375 -0.2562018,-0.100222 -0.4867109,-0.236272 -0.71875,-0.375 -0.00741,-0.0044 -0.023866,0.0045 -0.03125,0 -0.031933,-0.0193 -0.062293,-0.04251 -0.09375,-0.0625 -0.120395,-0.0767 -0.2310226,-0.163513 -0.34375,-0.25 -0.1061728,-0.0808 -0.2132809,-0.161112 -0.3125,-0.25 C 8.4783201,88.557317 8.3087904,88.373362 8.15625,88.1875 8.0486711,88.057245 7.9378561,87.922215 7.84375,87.78125 7.818661,87.74287 7.805304,87.69538 7.78125,87.65625 7.716487,87.553218 7.6510225,87.451733 7.59375,87.34375 7.4927417,87.149044 7.3880752,86.928049 7.3125,86.71875 7.30454,86.69694 7.288911,86.6782 7.28125,86.65625 7.2494249,86.5643 7.2454455,86.469419 7.21875,86.375 7.1884177,86.268382 7.1483606,86.171969 7.125,86.0625 7.0521214,85.720988 7,85.364295 7,85 V 83 15 13 C 7,10.218152 9.2181517,8 12,8 h 2 68 2 c 2.781848,0 5,2.218152 5,5 v 2 68 2 c 0,0.364295 -0.05212,0.720988 -0.125,1.0625 -0.04415,0.206893 -0.08838,0.397658 -0.15625,0.59375 -0.0077,0.02195 -0.0233,0.04069 -0.03125,0.0625 -0.06274,0.173739 -0.138383,0.367449 -0.21875,0.53125 -0.04158,0.0828 -0.07904,0.169954 -0.125,0.25 -0.0546,0.09721 -0.126774,0.18835 -0.1875,0.28125 -0.09411,0.140965 -0.204921,0.275995 -0.3125,0.40625 -0.143174,0.17445 -0.303141,0.346998 -0.46875,0.5 -0.01117,0.0102 -0.01998,0.02115 -0.03125,0.03125 -0.138386,0.125556 -0.285091,0.234436 -0.4375,0.34375 -0.102571,0.07315 -0.204318,0.153364 -0.3125,0.21875 -0.0074,0.0045 -0.02384,-0.0044 -0.03125,0 -0.232039,0.138728 -0.462548,0.274778 -0.71875,0.375 0.301527,-0.0968 0.596455,-0.204138 0.875,-0.34375 0.55709,-0.279224 1.060053,-0.665694 1.5,-1.09375 0.219973,-0.214028 0.409366,-0.441865 0.59375,-0.6875 0.184384,-0.245635 0.355408,-0.507743 0.5,-0.78125 0.14012,-0.265048 0.276135,-0.524729 0.375,-0.8125 0.01041,-0.03078 0.02133,-0.06274 0.03125,-0.09375 0.09046,-0.278085 0.1388,-0.579404 0.1875,-0.875 C 89.95865,84.6507 90,84.334721 90,84 V 82 14 12 C 90,8.676 87.324,6 84,6 Z" />
    <path
       style="opacity:0.2;fill:url(#radialGradient3619);fill-opacity:1;fill-rule:nonzero;stroke:none"
       id="path3615"
       d="M 12,90 C 8.676,90 6,87.324 6,84 V 82 14 12 c 0,-0.334721 0.04135,-0.6507 0.09375,-0.96875 0.0487,-0.295596 0.09704,-0.596915 0.1875,-0.875 C 6.29113,10.12587 6.302142,10.09265 6.3125,10.0625 6.411365,9.774729 6.5473802,9.515048 6.6875,9.25 6.8320918,8.976493 7.0031161,8.714385 7.1875,8.46875 7.3718839,8.223115 7.5612765,7.995278 7.78125,7.78125 8.221197,7.353194 8.72416,6.966724 9.28125,6.6875 9.559795,6.547888 9.8547231,6.440553 10.15625,6.34375 9.9000482,6.443972 9.6695391,6.580022 9.4375,6.71875 c -0.00741,0.0044 -0.023866,-0.0045 -0.03125,0 -0.031933,0.0193 -0.062293,0.04251 -0.09375,0.0625 -0.120395,0.0767 -0.2310226,0.163513 -0.34375,0.25 -0.1061728,0.0808 -0.2132809,0.161112 -0.3125,0.25 C 8.4783201,7.442683 8.3087904,7.626638 8.15625,7.8125 8.0486711,7.942755 7.9378561,8.077785 7.84375,8.21875 7.818661,8.25713 7.805304,8.30462 7.78125,8.34375 7.716487,8.446782 7.6510225,8.548267 7.59375,8.65625 7.4927417,8.850956 7.3880752,9.071951 7.3125,9.28125 7.30454,9.30306 7.288911,9.3218 7.28125,9.34375 7.2494249,9.4357 7.2454455,9.530581 7.21875,9.625 7.1884177,9.731618 7.1483606,9.828031 7.125,9.9375 7.0521214,10.279012 7,10.635705 7,11 v 2 68 2 c 0,2.781848 2.2181517,5 5,5 h 2 68 2 c 2.781848,0 5,-2.218152 5,-5 V 81 13 11 C 89,10.635705 88.94788,10.279012 88.875,9.9375 88.83085,9.730607 88.78662,9.539842 88.71875,9.34375 88.71105,9.3218 88.69545,9.30306 88.6875,9.28125 88.62476,9.107511 88.549117,8.913801 88.46875,8.75 88.42717,8.6672 88.38971,8.580046 88.34375,8.5 88.28915,8.40279 88.216976,8.31165 88.15625,8.21875 88.06214,8.077785 87.951329,7.942755 87.84375,7.8125 87.700576,7.63805 87.540609,7.465502 87.375,7.3125 87.36383,7.3023 87.35502,7.29135 87.34375,7.28125 87.205364,7.155694 87.058659,7.046814 86.90625,6.9375 86.803679,6.86435 86.701932,6.784136 86.59375,6.71875 c -0.0074,-0.0045 -0.02384,0.0044 -0.03125,0 -0.232039,-0.138728 -0.462548,-0.274778 -0.71875,-0.375 0.301527,0.0968 0.596455,0.204138 0.875,0.34375 0.55709,0.279224 1.060053,0.665694 1.5,1.09375 0.219973,0.214028 0.409366,0.441865 0.59375,0.6875 0.184384,0.245635 0.355408,0.507743 0.5,0.78125 0.14012,0.265048 0.276135,0.524729 0.375,0.8125 0.01041,0.03078 0.02133,0.06274 0.03125,0.09375 0.09046,0.278085 0.1388,0.579404 0.1875,0.875 C 89.95865,11.3493 90,11.665279 90,12 v 2 68 2 c 0,3.324 -2.676,6 -6,6 z" />
  </g>
  <path
     style="opacity:0.084;fill:url(#linearGradient3604);fill-opacity:1;fill-rule:nonzero;stroke:none"
     id="rect3728-6"
     d="m 83.949197,89.85964 c 3.324,0 6.000001,-2.676001 6.000001,-6 v -2 -68 -2 c 0,-0.334722 -0.04135,-0.6507 -0.09375,-0.96875 -0.0487,-0.295597 -0.09704,-0.596914 -0.1875,-0.875 -0.0099,-0.03038 -0.02089,-0.0636 -0.03125,-0.09375 -0.09886,-0.287771 -0.234881,-0.547452 -0.375,-0.8125 -0.144593,-0.273507 -0.315617,-0.535615 -0.5,-0.78125 -0.184384,-0.245635 -0.373777,-0.473472 -0.59375,-0.6875 -0.439948,-0.428056 -0.94291,-0.814526 -1.5,-1.09375 -0.278545,-0.139612 -0.573474,-0.246947 -0.875,-0.34375 0.256202,0.100222 0.48671,0.236272 0.71875,0.375 0.0074,0.0044 0.02387,-0.0045 0.03125,0 0.03193,0.0193 0.06229,0.04251 0.09375,0.0625 0.120395,0.0767 0.231022,0.163513 0.34375,0.25 0.106172,0.0808 0.21328,0.161112 0.3125,0.25 0.17793,0.161433 0.347459,0.345388 0.5,0.53125 0.107579,0.130255 0.218394,0.265285 0.3125,0.40625 0.02509,0.03838 0.03845,0.08587 0.0625,0.125 0.06476,0.103032 0.130228,0.204517 0.1875,0.3125 0.101008,0.194706 0.205674,0.415701 0.28125,0.625 0.008,0.02181 0.02359,0.04055 0.03125,0.0625 0.03182,0.09195 0.0358,0.186831 0.0625,0.28125 0.03033,0.106618 0.07039,0.203031 0.09375,0.3125 0.07288,0.3415112 0.125,0.6982052 0.125,1.0625002 v 2 68 2 c 0,2.781847 -2.218153,5 -5.000001,5 h -2 -67.999994 -2 c -2.7818515,0 -5.0000005,-2.218153 -5.0000005,-5 v -2 -68 -2 c 0,-0.364295 0.0521,-0.720989 0.125,-1.0625002 0.0442,-0.206893 0.0884,-0.397658 0.15625,-0.59375 0.008,-0.02195 0.0233,-0.04069 0.0312,-0.0625 0.0627,-0.173739 0.138379,-0.367449 0.21875,-0.53125 0.0416,-0.0828 0.079,-0.169954 0.125,-0.25 0.0546,-0.09721 0.126769,-0.18835 0.1875,-0.28125 0.0941,-0.140965 0.20492,-0.275995 0.3125,-0.40625 0.143169,-0.17445 0.30314,-0.346998 0.46875,-0.5 0.0112,-0.0102 0.02,-0.02115 0.0312,-0.03125 0.13838,-0.125556 0.28509,-0.234436 0.4375,-0.34375 0.10257,-0.07315 0.204311,-0.153364 0.3125,-0.21875 0.007,-0.0045 0.0238,0.0044 0.0312,0 0.23203,-0.138728 0.462541,-0.274778 0.7187505,-0.375 -0.3015305,0.0968 -0.5964595,0.204138 -0.8750005,0.34375 -0.55709,0.279224 -1.060059,0.665694 -1.5,1.09375 -0.21998,0.214028 -0.409369,0.441865 -0.59375,0.6875 -0.184389,0.245635 -0.35541,0.507743 -0.5,0.78125 -0.140119,0.265048 -0.27614,0.524729 -0.375,0.8125 -0.0104,0.03078 -0.0213,0.06274 -0.0312,0.09375 -0.0905,0.278085 -0.1388,0.579403 -0.1875,0.875 -0.0524,0.31805 -0.0937,0.634028 -0.0937,0.96875 v 2 68 2 c 0,3.323999 2.676,6 6.0000005,6 z" />
  <g
     id="layer5">
    <rect
       style="opacity:0.1;fill:url(#linearGradient3613);fill-opacity:1;fill-rule:nonzero;stroke:#fefefe;stroke-width:0.5;stroke-linecap:round;stroke-linejoin:miter;stroke-miterlimit:4;stroke-dasharray:none;stroke-dashoffset:0;stroke-opacity:1;filter:url(#filter3794)"
       id="rect3171"
       clip-path="url(#clipPath3613)"
       y="15"
       x="15"
       ry="12"
       rx="12"
       height="66"
       width="66" />
  </g>
  <path
     id="path4575"
     d="m 38.260951,76.751209 c -11.65088,-2.444531 -19.30353,-8.569093 -19.31635,-15.45923 -0.004,-2.356831 0.17293,-2.482878 2.40041,-1.706373 1.17975,0.411263 1.2942,0.6067 1.2942,2.209954 0,0.967336 0.23117,1.948303 0.5137,2.179927 0.72681,0.595842 5.68311,2.173726 6.07232,1.933184 0.17781,-0.10989 0.45043,-1.124252 0.60583,-2.254138 0.15539,-1.129883 0.44101,-2.054335 0.63471,-2.054335 0.19369,0 1.266,0.195983 2.3829,0.435514 l 2.03074,0.435518 0.27695,2.216655 c 0.19557,1.565211 0.48032,2.27529 0.96894,2.416179 1.59696,0.460463 7.16682,1.119136 7.70789,0.911507 0.41062,-0.15757 0.58684,-0.907825 0.58684,-2.498367 v -2.27317 h 4.05822 4.05822 l 0.25685,1.284247 c 0.14127,0.706335 0.25685,1.712543 0.25685,2.236019 0,0.523475 0.1797,1.06283 0.39932,1.19857 0.47155,0.291431 7.11477,-0.584437 7.84207,-1.033936 0.27554,-0.170293 0.59091,-1.245596 0.70084,-2.389566 l 0.19986,-2.079945 2.20386,-0.457521 c 1.21213,-0.251638 2.39146,-0.34158 2.62074,-0.199878 0.22928,0.141703 0.41687,1.068005 0.41687,2.058448 0,0.990444 0.17556,1.909311 0.39013,2.041924 0.43604,0.269482 5.28182,-1.26344 6.08247,-1.924139 0.28254,-0.233149 0.5137,-1.118342 0.5137,-1.9671 0,-1.693604 0.56995,-2.392706 2.08787,-2.560994 0.85029,-0.09427 1.01307,0.08447 1.12374,1.233928 0.54895,5.701646 -5.21018,11.584222 -14.41222,14.721154 -6.817,2.323878 -17.54122,2.902216 -24.95847,1.345964 z m 1.0221,-10.421482 c -0.22603,-0.0754 -0.9099,-0.246834 -1.51971,-0.380975 -1.01069,-0.222317 -1.11972,-0.434478 -1.23288,-2.39896 l -0.12413,-2.155073 -2.03245,-0.501569 c -1.11785,-0.275863 -2.8747,-0.55326 -3.90411,-0.616438 l -1.87165,-0.11487 -0.12747,1.76896 c -0.14847,2.060553 -0.69043,2.403662 -2.7323,1.729784 -1.37769,-0.454677 -1.4553,-0.578244 -1.4553,-2.316851 0,-1.609888 -0.15184,-1.922962 -1.23028,-2.536623 l -1.23028,-0.700064 -0.0114,-6.986302 -0.0114,-6.986301 -1.84053,-2.841247 c -1.01229,-1.562686 -1.84052,-2.9642 -1.84052,-3.114475 0,-0.419313 2.28612,-3.716694 3.82321,-5.514408 l 1.37413,-1.607116 2.76674,1.469146 2.76674,1.469146 2.60829,-1.916825 2.60829,-1.916824 0.14274,-3.492015 0.14274,-3.492016 2.46575,-0.978012 c 1.35616,-0.537906 3.14961,-1.070035 3.98542,-1.182508 1.51849,-0.204339 1.52071,-0.202387 2.86218,2.517972 l 1.34251,2.72247 h 3.19355 3.19355 l 1.22185,-2.363014 c 1.91446,-3.702513 1.57015,-3.520087 4.77878,-2.532005 1.56575,0.482165 3.38049,1.151267 4.03275,1.486893 l 1.18594,0.61023 -0.26752,3.20774 -0.26751,3.207739 2.64837,1.889839 c 1.4566,1.039411 2.87012,1.889838 3.14115,1.889838 0.27102,0 1.5009,-0.576795 2.73306,-1.281766 l 2.24029,-1.281766 1.43228,1.384506 c 1.85151,1.789756 3.84472,4.800498 3.84472,5.807449 0,0.433884 -0.73973,1.843432 -1.64384,3.132328 l -1.64383,2.343449 v 7.108054 c 0,6.724097 -0.0466,7.145786 -0.86265,7.806582 -0.57152,0.46279 -0.93626,1.351665 -1.08078,2.633866 -0.20612,1.82866 -0.30596,1.961646 -1.81124,2.41264 -0.87621,0.262517 -1.70605,0.364344 -1.84412,0.226283 -0.13806,-0.138066 -0.34778,-1.109454 -0.46604,-2.158644 l -0.21501,-1.907621 -1.89433,0.277045 c -5.86964,0.858434 -6.19032,1.074127 -6.20378,4.172804 -0.006,1.4928 -0.27497,1.640721 -3.67649,2.025559 l -2.49351,0.282107 v -2.32495 -2.324955 l -5.65068,0.114337 -5.65069,0.114337 -0.12421,2.157534 -0.12422,2.157534 -1.51962,-0.03247 c -0.83579,-0.01782 -1.70455,-0.09411 -1.93058,-0.169512 z m 10.89041,-11.71583 c 0.11301,-1.017123 0.11301,-2.773973 0,-3.90411 -0.20353,-2.035225 -0.21918,-2.054794 -1.64384,-2.054794 h -1.43835 l -0.12001,3.430241 c -0.13358,3.818454 0.2443,4.697928 1.93415,4.501495 0.93035,-0.108147 1.08814,-0.353638 1.26805,-1.972832 z m -12.76507,0.892905 c 3.7233,-1.996828 3.89249,-7.670969 0.29502,-9.894326 -4.79916,-2.966041 -10.4195,1.95423 -8.13405,7.120869 1.42812,3.228516 4.77957,4.414262 7.83903,2.773457 z m 27.5514,0.03111 c 1.86442,-0.936717 3.29586,-3.107443 3.29586,-4.998053 0,-5.887047 -7.59419,-7.88614 -10.68715,-2.813283 -1.52707,2.504602 -0.64804,5.819246 2.01505,7.598304 1.67219,1.117098 3.43757,1.187051 5.37624,0.213032 z"
     style="fill:#fefefe;stroke-width:0.41095892;fill-opacity:1" />
  <path
     id="path4579"
     d="m 39.208578,51.155595 a 4,4 0 0 1 -4,4 4,4 0 0 1 -4,-4 4,4 0 0 1 4,-4 4,4 0 0 1 4,4 z"
     style="opacity:1;fill:#000000;fill-opacity:1;stroke:none;stroke-width:1.04972899;stroke-miterlimit:4;stroke-dasharray:none;stroke-opacity:1" />
  <path
     id="path4579-3"
     d="m 65.9857,51.128682 a 4,4 0 0 1 -4,4 4,4 0 0 1 -4,-4 4,4 0 0 1 4,-4 4,4 0 0 1 4,4 z"
     style="opacity:1;fill:#000000;fill-opacity:1;stroke:none;stroke-width:1.04972899;stroke-miterlimit:4;stroke-dasharray:none;stroke-opacity:1" />
</svg>
