<?xml version="1.0" encoding="UTF-8" standalone="no"?>
<!-- Created with Inkscape (http://www.inkscape.org/) -->

<svg
   xmlns:dc="http://purl.org/dc/elements/1.1/"
   xmlns:cc="http://creativecommons.org/ns#"
   xmlns:rdf="http://www.w3.org/1999/02/22-rdf-syntax-ns#"
   xmlns:svg="http://www.w3.org/2000/svg"
   xmlns="http://www.w3.org/2000/svg"
   xmlns:xlink="http://www.w3.org/1999/xlink"
   xmlns:sodipodi="http://sodipodi.sourceforge.net/DTD/sodipodi-0.dtd"
   xmlns:inkscape="http://www.inkscape.org/namespaces/inkscape"
   version="1.0"
   width="96"
   height="96"
   id="svg2408"
   style="display:inline"
   inkscape:version="0.91 r"
   sodipodi:docname="gprename.svg">
  <sodipodi:namedview
     pagecolor="#fefefe"
     bordercolor="#666666"
     borderopacity="1"
     objecttolerance="10"
     gridtolerance="10"
     guidetolerance="10"
     inkscape:pageopacity="0"
     inkscape:pageshadow="2"
     inkscape:window-width="1600"
     inkscape:window-height="849"
     id="namedview119"
     showgrid="false"
     showguides="true"
     inkscape:zoom="2.32"
     inkscape:cx="49.627119"
     inkscape:cy="40.851077"
     inkscape:window-x="0"
     inkscape:window-y="26"
     inkscape:window-maximized="1"
     inkscape:current-layer="svg2408" />
  <defs
     id="defs2410">
    <linearGradient
       id="linearGradient4339">
      <stop
         offset="0"
         style="stop-color:#162850;stop-opacity:1"
         id="stop4341" />
      <stop
         offset="1"
         style="stop-color:#163750;stop-opacity:0"
         id="stop4343" />
    </linearGradient>
    <linearGradient
       id="linearGradient3875">
      <stop
         id="stop3877"
         style="stop-color:#fefefe;stop-opacity:1"
         offset="0" />
      <stop
         id="stop3879"
         style="stop-color:#fefefe;stop-opacity:0.42635658"
         offset="1" />
    </linearGradient>
    <linearGradient
       x1="45.447727"
       y1="92.539597"
       x2="45.447727"
       y2="7.0165396"
       id="ButtonShadow"
       gradientUnits="userSpaceOnUse"
       gradientTransform="scale(1.0058652,0.994169)">
      <stop
         id="stop3750"
         style="stop-color:#000000;stop-opacity:1"
         offset="0" />
      <stop
         id="stop3752"
         style="stop-color:#000000;stop-opacity:0.58823532"
         offset="1" />
    </linearGradient>
    <filter
       color-interpolation-filters="sRGB"
       id="filter3174">
      <feGaussianBlur
         id="feGaussianBlur3176"
         stdDeviation="1.71" />
    </filter>
    <radialGradient
       cx="48"
       cy="90.171875"
       r="42"
       fx="48"
       fy="90.171875"
       id="radialGradient2855-1"
       xlink:href="#linearGradient3737-1-4"
       gradientUnits="userSpaceOnUse"
       gradientTransform="matrix(1.1573129,0,0,0.99590774,-7.551021,0.19713)" />
    <linearGradient
       id="linearGradient3737-1-4">
      <stop
         id="stop3739-7-1"
         style="stop-color:#fefefe;stop-opacity:1"
         offset="0" />
      <stop
         id="stop3741-2-0"
         style="stop-color:#fefefe;stop-opacity:0"
         offset="1" />
    </linearGradient>
    <linearGradient
       x1="36.357143"
       y1="6"
       x2="36.357143"
       y2="63.893143"
       id="linearGradient3188-9"
       xlink:href="#linearGradient3737-5"
       gradientUnits="userSpaceOnUse" />
    <linearGradient
       id="linearGradient3737-5">
      <stop
         id="stop3739-6"
         style="stop-color:#fefefe;stop-opacity:1"
         offset="0" />
      <stop
         id="stop3741-7"
         style="stop-color:#fefefe;stop-opacity:0"
         offset="1" />
    </linearGradient>
    <linearGradient
       x1="45.447727"
       y1="92.539597"
       x2="45.447727"
       y2="7.0165396"
       id="ButtonShadow-0"
       gradientUnits="userSpaceOnUse"
       gradientTransform="matrix(1.0058652,0,0,0.994169,100,0)">
      <stop
         id="stop3750-8"
         style="stop-color:#000000;stop-opacity:1"
         offset="0" />
      <stop
         id="stop3752-5"
         style="stop-color:#000000;stop-opacity:0.58823532"
         offset="1" />
    </linearGradient>
    <linearGradient
       x1="32.251034"
       y1="6.1317081"
       x2="32.251034"
       y2="90.238609"
       id="linearGradient3780"
       xlink:href="#ButtonShadow-0"
       gradientUnits="userSpaceOnUse"
       gradientTransform="matrix(1.0238095,0,0,1.0119048,-1.1428571,-98.071429)" />
    <linearGradient
       x1="32.251034"
       y1="6.1317081"
       x2="32.251034"
       y2="90.238609"
       id="linearGradient3772"
       xlink:href="#ButtonShadow-0"
       gradientUnits="userSpaceOnUse"
       gradientTransform="matrix(1.0238095,0,0,1.0119048,-1.1428571,-98.071429)" />
    <linearGradient
       x1="32.251034"
       y1="6.1317081"
       x2="32.251034"
       y2="90.238609"
       id="linearGradient3725"
       xlink:href="#ButtonShadow-0"
       gradientUnits="userSpaceOnUse"
       gradientTransform="matrix(1.0238095,0,0,1.0119048,-1.1428571,-98.071429)" />
    <linearGradient
       x1="32.251034"
       y1="6.1317081"
       x2="32.251034"
       y2="90.238609"
       id="linearGradient3721"
       xlink:href="#ButtonShadow-0"
       gradientUnits="userSpaceOnUse"
       gradientTransform="translate(0,-97)" />
    <linearGradient
       x1="32.251034"
       y1="6.1317081"
       x2="32.251034"
       y2="90.238609"
       id="linearGradient3071"
       xlink:href="#ButtonShadow-0"
       gradientUnits="userSpaceOnUse"
       gradientTransform="matrix(1.0238095,0,0,1.0119048,-1.1428571,-98.071429)" />
    <linearGradient
       id="linearGradient3700-5-1">
      <stop
         id="stop3702-0-2"
         style="stop-color:#3781c6;stop-opacity:1"
         offset="0" />
      <stop
         id="stop3704-4-9"
         style="stop-color:#88b2db;stop-opacity:1"
         offset="1" />
    </linearGradient>
    <linearGradient
       x1="48"
       y1="90"
       x2="48"
       y2="5.9877172"
       id="linearGradient3345"
       xlink:href="#linearGradient3700-5-1"
       gradientUnits="userSpaceOnUse" />
    <linearGradient
       inkscape:collect="always"
       xlink:href="#linearGradient4339"
       id="linearGradient4337"
       x1="49.181087"
       y1="28.281691"
       x2="50.239437"
       y2="68.32193"
       gradientUnits="userSpaceOnUse" />
    <linearGradient
       id="linearGradient3778">
      <stop
         offset="0"
         style="stop-color:#499119;stop-opacity:1"
         id="stop3780" />
      <stop
         offset="1"
         style="stop-color:#8fd625;stop-opacity:1"
         id="stop3782" />
    </linearGradient>
    <linearGradient
       id="linearGradient5010">
      <stop
         offset="0"
         style="stop-color:#000000;stop-opacity:1"
         id="stop5012" />
      <stop
         offset="1"
         style="stop-color:#000000;stop-opacity:0"
         id="stop5014" />
    </linearGradient>
    <filter
       id="filter3174-8"
       color-interpolation-filters="sRGB">
      <feGaussianBlur
         stdDeviation="1.71"
         id="feGaussianBlur3176-1" />
    </filter>
    <linearGradient
       gradientTransform="matrix(0.625,0,0,0.625,28.5,31.25)"
       gradientUnits="userSpaceOnUse"
       xlink:href="#linearGradient3875"
       id="linearGradient3832"
       y2="50.068527"
       x2="65.262688"
       y1="64.205269"
       x1="65.262688" />
    <linearGradient
       gradientTransform="matrix(0.9375,0,0,0.9375,-140.5,3.5)"
       gradientUnits="userSpaceOnUse"
       xlink:href="#linearGradient3778"
       id="linearGradient3773"
       y2="72"
       x2="88"
       y1="72"
       x1="56" />
    <linearGradient
       gradientTransform="translate(0,4)"
       gradientUnits="userSpaceOnUse"
       xlink:href="#linearGradient3875"
       id="linearGradient3788"
       y2="75.095024"
       x2="70"
       y1="54"
       x1="70" />
    <filter
       id="filter3806"
       color-interpolation-filters="sRGB">
      <feGaussianBlur
         stdDeviation="1.2"
         id="feGaussianBlur3808" />
    </filter>
    <linearGradient
       gradientTransform="matrix(0.625,0,0,0.625,78.5,32.25)"
       gradientUnits="userSpaceOnUse"
       xlink:href="#linearGradient5010"
       id="linearGradient3812"
       y2="50.068527"
       x2="65.262688"
       y1="64.205269"
       x1="65.262688" />
    <clipPath
       id="clipPath3823">
      <path
         style="fill:#fefefe;fill-opacity:1;stroke:none"
         id="path3825"
         inkscape:connector-curvature="0"
         d="M 108.8125,58 C 107.25437,58 106,59.254375 106,60.8125 l 0,24.375 C 106,86.745625 107.25437,88 108.8125,88 l 24.375,0 C 134.74562,88 136,86.745625 136,85.1875 l 0,-24.375 C 136,59.254375 134.74562,58 133.1875,58 l -24.375,0 z m 7.1875,4.5 10,0 0,8.75 5,0 -10,13.75 -10,-13.75 5,0 0,-8.75 z" />
    </clipPath>
    <filter
       id="filter3831"
       color-interpolation-filters="sRGB">
      <feGaussianBlur
         stdDeviation="0.6375"
         id="feGaussianBlur3833" />
    </filter>
    <linearGradient
       id="linearGradient3187">
      <stop
         offset="0"
         style="stop-color:#1e71ac;stop-opacity:1"
         id="stop3189" />
      <stop
         offset="1"
         style="stop-color:#81c1e9;stop-opacity:1"
         id="stop3191" />
    </linearGradient>
    <linearGradient
       id="linearGradient3250">
      <stop
         offset="0"
         style="stop-color:#fefefe;stop-opacity:1"
         id="stop3252" />
      <stop
         offset="0.43290177"
         style="stop-color:#fefefe;stop-opacity:0.49803922"
         id="stop3254" />
      <stop
         offset="1"
         style="stop-color:#fefefe;stop-opacity:0"
         id="stop3256" />
    </linearGradient>
    <clipPath
       id="clipPath4029">
      <path
         style="fill:url(#linearGradient4033);fill-opacity:1;stroke:none;display:inline"
         id="path4031"
         inkscape:connector-curvature="0"
         d="m 118,56 c -9.94112,0 -18,8.05887 -18,18 0,9.94112 8.05888,18 18,18 9.73052,0 17.63723,-7.725264 17.96875,-17.375 l 0,-1.25 C 135.63723,63.725255 127.73052,56 118,56 z m -6,10.75 c 5.9493,0.05747 10.83155,4.941297 11.03125,10.875 l 3.75,0.03125 -6,8.71875 -6.15625,-8.8125 3.96875,0.03125 c -0.25101,-4.905678 -4.48929,-9.950635 -11.71875,-9.625 1.52232,-0.80073 3.27178,-1.236656 5.125,-1.21875 z" />
    </clipPath>
    <linearGradient
       gradientTransform="matrix(0.30997964,0,0,0.31034484,98.14012,54.137931)"
       gradientUnits="userSpaceOnUse"
       xlink:href="#linearGradient3187"
       id="linearGradient4033"
       y2="5.9781809"
       x2="69"
       y1="122"
       x1="69" />
    <linearGradient
       gradientTransform="matrix(-0.30059886,0,0,-0.30318299,-5.285507,65.194794)"
       gradientUnits="userSpaceOnUse"
       xlink:href="#linearGradient3250"
       id="linearGradient4029"
       y2="5.1837206"
       x2="84.35965"
       y1="79.416924"
       x1="84.35965" />
    <linearGradient
       inkscape:collect="always"
       xlink:href="#ButtonShadow"
       id="linearGradient4793"
       gradientUnits="userSpaceOnUse"
       gradientTransform="scale(1.0058652,0.994169)"
       x1="45.447727"
       y1="92.539597"
       x2="45.447727"
       y2="7.0165396" />
    <linearGradient
       inkscape:collect="always"
       xlink:href="#linearGradient5010"
       id="linearGradient4803"
       gradientUnits="userSpaceOnUse"
       x1="120.64606"
       y1="87.489296"
       x2="118.33302"
       y2="67.706047"
       gradientTransform="matrix(-0.70710678,-0.70710678,0.70710678,-0.70710678,-0.204704,181.33044)" />
    <linearGradient
       inkscape:collect="always"
       xlink:href="#linearGradient5010"
       id="linearGradient4805"
       gradientUnits="userSpaceOnUse"
       x1="120.64606"
       y1="87.489296"
       x2="118.33302"
       y2="67.706047" />
    <linearGradient
       inkscape:collect="always"
       xlink:href="#linearGradient5010"
       id="linearGradient4951"
       gradientUnits="userSpaceOnUse"
       gradientTransform="matrix(-0.70710678,-0.70710678,0.70710678,-0.70710678,-0.204704,181.33044)"
       x1="120.64606"
       y1="87.489296"
       x2="118.33302"
       y2="67.706047" />
    <linearGradient
       inkscape:collect="always"
       xlink:href="#linearGradient5010"
       id="linearGradient4953"
       gradientUnits="userSpaceOnUse"
       x1="120.64606"
       y1="87.489296"
       x2="118.33302"
       y2="67.706047" />
    <linearGradient
       inkscape:collect="always"
       xlink:href="#linearGradient3250"
       id="linearGradient4955"
       gradientUnits="userSpaceOnUse"
       gradientTransform="matrix(-0.30059886,0,0,-0.30318299,-5.285507,65.194794)"
       x1="84.35965"
       y1="79.416924"
       x2="84.35965"
       y2="5.1837206" />
  </defs>
  <metadata
     id="metadata2413">
    <rdf:RDF>
      <cc:Work
         rdf:about="">
        <dc:format>image/svg+xml</dc:format>
        <dc:type
           rdf:resource="http://purl.org/dc/dcmitype/StillImage" />
        <dc:title></dc:title>
      </cc:Work>
    </rdf:RDF>
  </metadata>
  <g
     id="layer2"
     style="display:none">
    <rect
       width="86"
       height="85"
       rx="6"
       ry="6"
       x="5"
       y="7"
       id="rect3745"
       style="opacity:0.9;fill:url(#ButtonShadow);fill-opacity:1;fill-rule:nonzero;stroke:none;filter:url(#filter3174)" />
  </g>
  <g
     id="layer5"
     style="display:inline">
    <path
       d="m 12,-95.03125 c -5.5110903,0 -10.03125,4.52016 -10.03125,10.03125 l 0,71 c 0,5.5110902 4.5201598,10.03125 10.03125,10.03125 l 72,0 c 5.51109,0 10.03125,-4.5201597 10.03125,-10.03125 l 0,-71 c 0,-5.51109 -4.52016,-10.03125 -10.03125,-10.03125 l -72,0 z"
       transform="scale(1,-1)"
       id="path3786"
       style="opacity:0.07999998;fill:url(#linearGradient3071);fill-opacity:1;fill-rule:nonzero;stroke:none;display:inline" />
    <path
       d="m 12,-94.03125 c -4.971633,0 -9.03125,4.059617 -9.03125,9.03125 l 0,71 c 0,4.9716329 4.0596171,9.03125 9.03125,9.03125 l 72,0 c 4.971633,0 9.03125,-4.059617 9.03125,-9.03125 l 0,-71 c 0,-4.971633 -4.059617,-9.03125 -9.03125,-9.03125 l -72,0 z"
       transform="scale(1,-1)"
       id="path3778"
       style="opacity:0.1;fill:url(#linearGradient3780);fill-opacity:1;fill-rule:nonzero;stroke:none;display:inline" />
    <path
       d="m 12,-93 c -4.4091333,0 -8,3.590867 -8,8 l 0,71 c 0,4.4091333 3.5908667,8 8,8 l 72,0 c 4.409133,0 8,-3.5908667 8,-8 l 0,-71 c 0,-4.409133 -3.590867,-8 -8,-8 l -72,0 z"
       transform="scale(1,-1)"
       id="path3770"
       style="opacity:0.2;fill:url(#linearGradient3772);fill-opacity:1;fill-rule:nonzero;stroke:none;display:inline" />
    <rect
       width="86"
       height="85"
       rx="7"
       ry="7"
       x="5"
       y="-92"
       transform="scale(1,-1)"
       id="rect3723"
       style="opacity:0.3;fill:url(#linearGradient3725);fill-opacity:1;fill-rule:nonzero;stroke:none;display:inline" />
    <rect
       width="84"
       height="84"
       rx="6"
       ry="6"
       x="6"
       y="-91"
       transform="scale(1,-1)"
       id="rect3716"
       style="opacity:0.45;fill:url(#linearGradient3721);fill-opacity:1;fill-rule:nonzero;stroke:none;display:inline" />
  </g>
  <rect
     style="display:inline;fill:url(#linearGradient3345);fill-opacity:1;fill-rule:nonzero;stroke:none"
     id="rect2419-8"
     y="6"
     x="6"
     ry="6"
     rx="6"
     height="84"
     width="84" />
  <path
     style="opacity:0.35;fill:url(#linearGradient3188-9);fill-opacity:1;fill-rule:nonzero;stroke:none"
     id="rect3728"
     inkscape:connector-curvature="0"
     d="m 12,6.0000002 c -3.324,0 -6,2.676 -6,5.9999998 l 0,2 0,68 0,2 c 0,0.334721 0.04135,0.6507 0.09375,0.96875 0.0487,0.295596 0.09704,0.596915 0.1875,0.875 0.00988,0.03038 0.020892,0.0636 0.03125,0.09375 0.098865,0.287771 0.2348802,0.547452 0.375,0.8125 0.1445918,0.273507 0.3156161,0.535615 0.5,0.78125 0.1843839,0.245635 0.3737765,0.473472 0.59375,0.6875 0.439947,0.428056 0.94291,0.814526 1.5,1.09375 0.278545,0.139612 0.5734731,0.246947 0.875,0.34375 -0.2562018,-0.100222 -0.4867109,-0.236272 -0.71875,-0.375 -0.00741,-0.0044 -0.023866,0.0045 -0.03125,0 -0.031933,-0.0193 -0.062293,-0.04251 -0.09375,-0.0625 -0.120395,-0.0767 -0.2310226,-0.163513 -0.34375,-0.25 -0.1061728,-0.0808 -0.2132809,-0.161112 -0.3125,-0.25 C 8.4783201,88.557317 8.3087904,88.373362 8.15625,88.1875 8.0486711,88.057245 7.9378561,87.922215 7.84375,87.78125 7.818661,87.74287 7.805304,87.69538 7.78125,87.65625 7.716487,87.553218 7.6510225,87.451733 7.59375,87.34375 7.4927417,87.149044 7.3880752,86.928049 7.3125,86.71875 7.30454,86.69694 7.288911,86.6782 7.28125,86.65625 7.249425,86.5643 7.245445,86.469419 7.21875,86.375 7.188418,86.268382 7.148361,86.171969 7.125,86.0625 7.052121,85.720988 7,85.364295 7,85 L 7,83 7,15 7,13 C 7,10.218152 9.2181517,8.0000002 12,8.0000002 l 2,0 68,0 2,0 c 2.781848,0 5,2.2181518 5,4.9999998 l 0,2 0,68 0,2 c 0,0.364295 -0.05212,0.720988 -0.125,1.0625 -0.04415,0.206893 -0.08838,0.397658 -0.15625,0.59375 -0.0077,0.02195 -0.0233,0.04069 -0.03125,0.0625 -0.06274,0.173739 -0.138383,0.367449 -0.21875,0.53125 -0.04158,0.0828 -0.07904,0.169954 -0.125,0.25 -0.0546,0.09721 -0.126774,0.18835 -0.1875,0.28125 -0.09411,0.140965 -0.204921,0.275995 -0.3125,0.40625 -0.143174,0.17445 -0.303141,0.346998 -0.46875,0.5 -0.01117,0.0102 -0.01998,0.02115 -0.03125,0.03125 -0.138386,0.125556 -0.285091,0.234436 -0.4375,0.34375 -0.102571,0.07315 -0.204318,0.153364 -0.3125,0.21875 -0.0074,0.0045 -0.02384,-0.0044 -0.03125,0 -0.232039,0.138728 -0.462548,0.274778 -0.71875,0.375 0.301527,-0.0968 0.596455,-0.204138 0.875,-0.34375 0.55709,-0.279224 1.060053,-0.665694 1.5,-1.09375 0.219973,-0.214028 0.409366,-0.441865 0.59375,-0.6875 0.184384,-0.245635 0.355408,-0.507743 0.5,-0.78125 0.14012,-0.265048 0.276135,-0.524729 0.375,-0.8125 0.01041,-0.03078 0.02133,-0.06274 0.03125,-0.09375 0.09046,-0.278085 0.1388,-0.579404 0.1875,-0.875 C 89.95865,84.6507 90,84.334721 90,84 l 0,-2 0,-68 0,-2 C 90,8.6760002 87.324,6.0000002 84,6.0000002 l -72,0 z" />
  <path
     style="opacity:0.25;fill:url(#radialGradient2855-1);fill-opacity:1;fill-rule:nonzero;stroke:none"
     id="path3615"
     inkscape:connector-curvature="0"
     d="M 12,90 C 8.676,90 6,87.324 6,84 L 6,82 6,14 6,12 c 0,-0.33472 0.04135,-0.6507 0.09375,-0.96875 0.0487,-0.2956 0.09704,-0.59691 0.1875,-0.875 0.00988,-0.0304 0.020892,-0.0636 0.03125,-0.0937 C 6.411365,9.77478 6.5473802,9.5151 6.6875,9.25005 6.8320918,8.97654 7.0031161,8.71443 7.1875,8.4688 7.3718839,8.22317 7.5612765,7.99533 7.78125,7.7813 8.221197,7.35324 8.72416,6.96677 9.28125,6.68755 9.559795,6.54794 9.8547231,6.4406 10.15625,6.3438 9.9000482,6.44402 9.6695391,6.58007 9.4375,6.7188 9.43009,6.7228 9.413634,6.7148 9.40625,6.7188 9.374317,6.7381 9.343957,6.7613 9.3125,6.7813 9.192105,6.858 9.0814774,6.94481 8.96875,7.0313 8.8625772,7.1121 8.7554691,7.19241 8.65625,7.2813 8.4783201,7.44273 8.3087904,7.62669 8.15625,7.81255 8.0486711,7.94281 7.9378561,8.07784 7.84375,8.2188 7.818661,8.2572 7.805304,8.3047 7.78125,8.3438 7.716487,8.44683 7.6510225,8.54832 7.59375,8.6563 7.4927417,8.85101 7.3880752,9.072 7.3125,9.2813 7.30454,9.3031 7.288911,9.3218 7.28125,9.3438 7.249425,9.4357 7.245445,9.53063 7.21875,9.62505 7.188418,9.73167 7.148361,9.82808 7.125,9.93755 7.052121,10.27901 7,10.63571 7,11 l 0,2 0,68 0,2 c 0,2.78185 2.2181517,5 5,5 l 2,0 68,0 2,0 c 2.781848,0 5,-2.21815 5,-5 l 0,-2 0,-68 0,-2 C 89,10.63571 88.94788,10.27901 88.875,9.9375 88.83085,9.73061 88.78662,9.53984 88.71875,9.34375 88.71105,9.32175 88.69545,9.30305 88.6875,9.28125 88.62476,9.10751 88.549117,8.9138 88.46875,8.75 88.42717,8.6672 88.38971,8.58005 88.34375,8.5 88.28915,8.4028 88.216976,8.31165 88.15625,8.21875 88.06214,8.07779 87.951329,7.94276 87.84375,7.8125 87.700576,7.63805 87.540609,7.4655 87.375,7.3125 87.36383,7.3023 87.35502,7.2913 87.34375,7.2813 87.205364,7.15574 87.058659,7.04686 86.90625,6.93755 86.803679,6.86445 86.701932,6.78419 86.59375,6.7188 c -0.0074,-0.004 -0.02384,0.004 -0.03125,0 -0.232039,-0.13873 -0.462548,-0.27478 -0.71875,-0.375 0.301527,0.0968 0.596455,0.20414 0.875,0.34375 0.55709,0.27922 1.060053,0.66569 1.5,1.09375 0.219973,0.21403 0.409366,0.44187 0.59375,0.6875 0.184384,0.24563 0.355408,0.50774 0.5,0.78125 0.14012,0.26505 0.276135,0.52473 0.375,0.8125 0.01041,0.0308 0.02133,0.0627 0.03125,0.0937 0.09046,0.27809 0.1388,0.5794 0.1875,0.875 C 89.95865,11.3493 90,11.66528 90,12 l 0,2 0,68 0,2 c 0,3.324 -2.676,6 -6,6 l -72,0 z" />
  <path
     id="path4347"
     d="m 29.699219,27 c -3.333972,0 -5.955786,1.259461 -7.863281,3.777344 C 19.945028,33.278876 19,36.777219 19,41.273438 c 0,4.36542 0.911767,7.815376 2.736328,10.349609 1.841149,2.534232 4.429701,3.800781 7.763672,3.800781 3.483254,0 6.111918,-1.349144 7.886719,-4.046875 l 0.224609,0 -0.224609,3.361328 0,0.539063 c 0,4.152872 -1.94973,6.228515 -5.847657,6.228515 -3.864752,0 -7.48051,-0.703285 -10.847656,-2.109375 l 0,5.984375 C 23.560944,66.459952 27.028001,67 31.091797,67 35.702962,67 39.170019,65.97733 41.492188,63.933594 43.830943,61.906208 45,58.922745 45,54.982422 l 0,-27.466797 -6.419922,0 -0.621094,3.505859 -0.199218,0 C 35.802509,28.340103 33.116125,27 29.699219,27 Z m 36.791015,0 c -3.48659,0 -6.11803,1.356231 -7.894531,4.070312 l -0.347656,0 -1.072266,-3.554687 -6.175781,0 L 51,67 l 7.595703,0 0,-11.109375 c 0,-0.359698 -0.132793,-1.683672 -0.398437,-3.972656 l 0.398437,0 c 1.859515,2.338033 4.424559,3.505859 7.695313,3.505859 2.174967,0 4.067261,-0.563264 5.677734,-1.691406 1.610473,-1.128142 2.847591,-2.771503 3.710938,-4.929688 C 76.559636,46.644548 77,44.102411 77,41.175781 77,36.728612 76.070452,33.253485 74.210938,30.751953 72.351423,28.25042 69.77759,27 66.490234,27 Z m -2.439453,5.984375 c 1.793104,0 3.103453,0.678116 3.933594,2.035156 0.846743,1.340692 1.269531,3.360863 1.269531,6.058594 0,5.526262 -1.699939,8.289063 -5.103515,8.289063 -1.925926,-10e-7 -3.337824,-0.638772 -4.234375,-1.914063 -0.87995,-1.275291 -1.320313,-3.383193 -1.320313,-6.326172 l 0,-0.810547 c 0.03321,-2.615982 0.482357,-4.487092 1.345703,-5.615234 0.863346,-1.144492 2.233258,-1.716797 4.109375,-1.716797 z m -31.96289,0.09766 c 2.040191,0 3.515453,0.64586 4.427734,1.9375 0.928867,1.275292 1.392578,3.376104 1.392578,6.302735 l 0,0.908203 c 0,2.583282 -0.439253,4.454392 -1.318359,5.615234 -0.879107,1.144492 -2.338714,1.716797 -4.378906,1.716797 -1.874322,0 -3.258604,-0.678116 -4.154297,-2.035156 -0.879108,-1.357041 -1.31836,-3.40947 -1.31836,-6.15625 0,-5.526262 1.783421,-8.289063 5.34961,-8.289063 z"
     style="font-style:normal;font-variant:normal;font-weight:bold;font-stretch:normal;font-size:50px;line-height:125%;font-family:'Noto Sans';-inkscape-font-specification:'Noto Sans Bold';letter-spacing:0px;word-spacing:0px;opacity:0.3;fill:#000000;fill-opacity:1;stroke:none;stroke-width:1px;stroke-linecap:butt;stroke-linejoin:miter;stroke-opacity:1"
     inkscape:connector-curvature="0" />
  <path
     style="font-style:normal;font-variant:normal;font-weight:bold;font-stretch:normal;font-size:50px;line-height:125%;font-family:'Noto Sans';-inkscape-font-specification:'Noto Sans Bold';letter-spacing:0px;word-spacing:0px;fill:#beffaa;fill-opacity:1;stroke:none;stroke-width:1px;stroke-linecap:butt;stroke-linejoin:miter;stroke-opacity:1"
     d="M 29.699219 28 C 26.365247 28 23.743433 29.259461 21.835938 31.777344 C 19.945028 34.278876 19 37.777219 19 42.273438 C 19 46.638858 19.911767 50.088814 21.736328 52.623047 C 23.577477 55.157279 26.166029 56.423828 29.5 56.423828 C 32.983254 56.423828 35.611918 55.074684 37.386719 52.376953 L 37.611328 52.376953 L 37.386719 55.738281 L 37.386719 56.277344 C 37.386719 60.430216 35.436989 62.505859 31.539062 62.505859 C 27.67431 62.505859 24.058552 61.802574 20.691406 60.396484 L 20.691406 66.380859 C 23.560944 67.459952 27.028001 68 31.091797 68 C 35.702962 68 39.170019 66.97733 41.492188 64.933594 C 43.830943 62.906208 45 59.922745 45 55.982422 L 45 28.515625 L 38.580078 28.515625 L 37.958984 32.021484 L 37.759766 32.021484 C 35.802509 29.340103 33.116125 28 29.699219 28 z M 66.490234 28 C 63.003644 28 60.372204 29.356231 58.595703 32.070312 L 58.248047 32.070312 L 57.175781 28.515625 L 51 28.515625 L 51 68 L 58.595703 68 L 58.595703 56.890625 C 58.595703 56.530927 58.46291 55.206953 58.197266 52.917969 L 58.595703 52.917969 C 60.455218 55.256002 63.020262 56.423828 66.291016 56.423828 C 68.465983 56.423828 70.358277 55.860564 71.96875 54.732422 C 73.579223 53.60428 74.816341 51.960919 75.679688 49.802734 C 76.559636 47.644548 77 45.102411 77 42.175781 C 77 37.728612 76.070452 34.253485 74.210938 31.751953 C 72.351423 29.25042 69.77759 28 66.490234 28 z M 64.050781 33.984375 C 65.843885 33.984375 67.154234 34.662491 67.984375 36.019531 C 68.831118 37.360223 69.253906 39.380394 69.253906 42.078125 C 69.253906 47.604387 67.553967 50.367188 64.150391 50.367188 C 62.224465 50.367187 60.812567 49.728416 59.916016 48.453125 C 59.036066 47.177834 58.595703 45.069932 58.595703 42.126953 L 58.595703 41.316406 C 58.628909 38.700424 59.07806 36.829314 59.941406 35.701172 C 60.804752 34.55668 62.174664 33.984375 64.050781 33.984375 z M 32.087891 34.082031 C 34.128082 34.082031 35.603344 34.727891 36.515625 36.019531 C 37.444492 37.294823 37.908203 39.395635 37.908203 42.322266 L 37.908203 43.230469 C 37.908203 45.813751 37.46895 47.684861 36.589844 48.845703 C 35.710737 49.990195 34.25113 50.5625 32.210938 50.5625 C 30.336616 50.5625 28.952334 49.884384 28.056641 48.527344 C 27.177533 47.170303 26.738281 45.117874 26.738281 42.371094 C 26.738281 36.844832 28.521702 34.082031 32.087891 34.082031 z "
     id="path4260" />
  <path
     style="font-style:normal;font-variant:normal;font-weight:bold;font-stretch:normal;font-size:50px;line-height:125%;font-family:'Noto Sans';-inkscape-font-specification:'Noto Sans Bold';letter-spacing:0px;word-spacing:0px;fill:url(#linearGradient4337);fill-opacity:1;stroke:none;stroke-width:1px;stroke-linecap:butt;stroke-linejoin:miter;stroke-opacity:1;opacity:0.25"
     d="M 29.699219 28 C 26.365247 28 23.743433 29.259461 21.835938 31.777344 C 19.945028 34.278876 19 37.777219 19 42.273438 C 19 46.638858 19.911767 50.088814 21.736328 52.623047 C 23.577477 55.157279 26.166029 56.423828 29.5 56.423828 C 32.983254 56.423828 35.611918 55.074684 37.386719 52.376953 L 37.611328 52.376953 L 37.386719 55.738281 L 37.386719 56.277344 C 37.386719 60.430216 35.436989 62.505859 31.539062 62.505859 C 27.67431 62.505859 24.058552 61.802574 20.691406 60.396484 L 20.691406 66.380859 C 23.560944 67.459952 27.028001 68 31.091797 68 C 35.702962 68 39.170019 66.97733 41.492188 64.933594 C 43.830942 62.906208 45 59.922745 45 55.982422 L 45 28.515625 L 38.580078 28.515625 L 37.958984 32.021484 L 37.759766 32.021484 C 35.802509 29.340103 33.116125 28 29.699219 28 z M 66.490234 28 C 63.003644 28 60.372204 29.356232 58.595703 32.070312 L 58.248047 32.070312 L 57.175781 28.515625 L 51 28.515625 L 51 68 L 58.595703 68 L 58.595703 56.890625 C 58.595703 56.530927 58.46291 55.206953 58.197266 52.917969 L 58.595703 52.917969 C 60.455218 55.256002 63.020262 56.423828 66.291016 56.423828 C 68.465983 56.423828 70.358277 55.860564 71.96875 54.732422 C 73.579223 53.60428 74.81634 51.960919 75.679688 49.802734 C 76.559635 47.644548 77 45.102411 77 42.175781 C 77 37.728612 76.070452 34.253485 74.210938 31.751953 C 72.351422 29.25042 69.77759 28 66.490234 28 z M 29.699219 29 C 32.85466 29 35.157272 30.153742 36.951172 32.611328 A 1.0001 1.0001 0 0 0 37.759766 33.021484 L 37.958984 33.021484 A 1.0001 1.0001 0 0 0 38.943359 32.195312 L 39.417969 29.515625 L 44 29.515625 L 44 55.982422 C 44 59.724951 42.934374 62.360365 40.837891 64.177734 A 1.0001 1.0001 0 0 0 40.832031 64.183594 C 38.756272 66.01046 35.555108 67 31.091797 67 C 27.399624 67 24.304176 66.497311 21.691406 65.611328 L 21.691406 61.736328 C 24.796632 62.846484 28.061077 63.505859 31.539062 63.505859 C 33.665526 63.505859 35.451905 62.913352 36.654297 61.632812 C 37.856689 60.352275 38.386719 58.510276 38.386719 56.277344 L 38.386719 55.771484 L 38.609375 52.443359 A 1.0001 1.0001 0 0 0 37.611328 51.376953 L 37.386719 51.376953 A 1.0001 1.0001 0 0 0 36.550781 51.828125 C 34.941022 54.274989 32.725039 55.423828 29.5 55.423828 C 26.421465 55.423828 24.220696 54.337547 22.548828 52.039062 C 20.883412 49.725874 20 46.499616 20 42.273438 C 20 37.91734 20.915695 34.652477 22.632812 32.380859 C 24.3709 30.086595 26.617091 29 29.699219 29 z M 66.490234 29 C 69.524009 29 71.717075 30.072648 73.408203 32.347656 C 75.098372 34.621375 76 37.867959 76 42.175781 C 76 45.002099 75.57424 47.413806 74.753906 49.425781 A 1.0001 1.0001 0 0 0 74.751953 49.431641 C 73.945943 51.446496 72.828339 52.909676 71.394531 53.914062 C 69.957435 54.920755 68.293332 55.423828 66.291016 55.423828 C 63.258296 55.423828 61.060532 54.409288 59.378906 52.294922 A 1.0001 1.0001 0 0 0 58.595703 51.917969 L 58.197266 51.917969 A 1.0001 1.0001 0 0 0 57.203125 53.033203 C 57.468078 55.316233 57.595703 56.777046 57.595703 56.890625 L 57.595703 67 L 52 67 L 52 29.515625 L 56.433594 29.515625 L 57.291016 32.359375 A 1.0001 1.0001 0 0 0 58.248047 33.070312 L 58.595703 33.070312 A 1.0001 1.0001 0 0 0 59.431641 32.617188 C 61.043926 30.15399 63.262968 29 66.490234 29 z M 64.050781 32.984375 C 61.972387 32.984375 60.217783 33.676614 59.144531 35.097656 C 59.144531 35.097656 59.142578 35.099609 59.142578 35.099609 C 58.059543 36.518461 57.630243 38.583622 57.595703 41.304688 A 1.0001 1.0001 0 0 0 57.595703 41.316406 L 57.595703 42.126953 C 57.595703 45.169687 58.009837 47.450595 59.09375 49.021484 A 1.0001 1.0001 0 0 0 59.097656 49.027344 C 60.187933 50.578199 62.003352 51.367186 64.150391 51.367188 C 66.122757 51.367188 67.823583 50.45336 68.830078 48.818359 C 69.836574 47.183359 70.253906 44.943793 70.253906 42.078125 C 70.253906 39.279592 69.837825 37.090692 68.832031 35.494141 C 67.834203 33.867968 66.09341 32.984375 64.050781 32.984375 z M 32.087891 33.082031 C 30.046556 33.082031 28.29267 33.974641 27.236328 35.611328 C 26.179987 37.248016 25.738281 39.50039 25.738281 42.371094 C 25.738281 45.224484 26.170178 47.454693 27.216797 49.070312 A 1.0001 1.0001 0 0 0 27.222656 49.078125 C 28.294918 50.702679 30.09542 51.5625 32.210938 51.5625 C 34.438139 51.5625 36.276075 50.895917 37.382812 49.455078 A 1.0001 1.0001 0 0 0 37.386719 49.449219 C 38.481264 48.003893 38.908203 45.927109 38.908203 43.230469 L 38.908203 42.322266 C 38.908203 39.294209 38.467911 37.00899 37.328125 35.439453 C 36.212989 33.864254 34.336936 33.082031 32.087891 33.082031 z M 64.050781 33.984375 C 65.843885 33.984375 67.154234 34.662491 67.984375 36.019531 C 68.831118 37.360223 69.253906 39.380394 69.253906 42.078125 C 69.253906 47.604387 67.553967 50.367188 64.150391 50.367188 C 62.224465 50.367187 60.812567 49.728416 59.916016 48.453125 C 59.036066 47.177834 58.595703 45.069932 58.595703 42.126953 L 58.595703 41.316406 C 58.628909 38.700424 59.07806 36.829314 59.941406 35.701172 C 60.804752 34.55668 62.174664 33.984375 64.050781 33.984375 z M 32.087891 34.082031 C 34.128082 34.082031 35.603344 34.727891 36.515625 36.019531 C 37.444492 37.294823 37.908203 39.395635 37.908203 42.322266 L 37.908203 43.230469 C 37.908203 45.813751 37.46895 47.684861 36.589844 48.845703 C 35.710737 49.990195 34.25113 50.5625 32.210938 50.5625 C 30.336616 50.5625 28.952334 49.884384 28.056641 48.527344 C 27.177533 47.170303 26.738281 45.117874 26.738281 42.371094 C 26.738281 36.844832 28.521702 34.082031 32.087891 34.082031 z "
     id="path4321" />
  <g
     id="layer2-9"
     style="display:none"
     transform="translate(-90.241379,-2.4013953)">
    <path
       d="M 11,7 48,5 85,7 c 3.324,0 6,2.676 6,6 l 0,73 c 0,3.324 -2.676,6 -6,6 L 11,92 C 7.676,92 5,89.324 5,86 L 5,13 C 5,9.676 7.676,7 11,7 Z"
       inkscape:connector-curvature="0"
       id="rect3745-5"
       style="opacity:0.9;fill:url(#linearGradient4793);fill-opacity:1;fill-rule:nonzero;stroke:none;filter:url(#filter3174-8)" />
  </g>
  <g
     id="layer3"
     transform="translate(-90.241379,-2.4013953)" />
  <g
     id="layer4"
     style="display:none"
     transform="translate(-90.241379,-2.4013953)">
    <rect
       width="30"
       height="30"
       rx="2.8125"
       ry="2.8125"
       x="-86"
       y="56"
       transform="matrix(0,-1,1,0,0,4)"
       id="rect3790"
       style="opacity:0.6;fill:#000000;fill-opacity:1;stroke:none;filter:url(#filter3806)" />
    <rect
       width="30"
       height="30"
       rx="2.8125"
       ry="2.8125"
       x="-88"
       y="56"
       transform="matrix(0,-1,1,0,0,0)"
       id="rect2993"
       style="fill:url(#linearGradient3773);fill-opacity:1;stroke:none" />
    <path
       d="M 58.8125,58 C 57.254375,58 56,59.254375 56,60.8125 l 0,24.375 c 0,0.873066 0.410816,1.641163 1.03125,2.15625 C 57.02841,87.289908 57,87.242129 57,87.1875 l 0,-24.375 C 57,61.254375 58.17075,60 59.625,60 l 22.75,0 C 83.82925,60 85,61.254375 85,62.8125 l 0,24.375 c 0,0.05463 -0.02841,0.102408 -0.03125,0.15625 C 85.589184,86.828663 86,86.060566 86,85.1875 l 0,-24.375 C 86,59.254375 84.745625,58 83.1875,58 l -24.375,0 z"
       inkscape:connector-curvature="0"
       id="rect3775"
       style="opacity:0.5;fill:url(#linearGradient3788);fill-opacity:1;stroke:none" />
    <path
       d="m 116,63.5 0,8.75 -5,0 10,13.75 10,-13.75 -5,0 0,-8.75 -10,0 z"
       inkscape:connector-curvature="0"
       transform="translate(-50,0)"
       clip-path="url(#clipPath3823)"
       id="path3810"
       style="display:inline;opacity:0.6;fill:url(#linearGradient3812);fill-opacity:1;fill-rule:nonzero;stroke:none;filter:url(#filter3831)" />
    <path
       d="m 66,62.5 0,8.75 -5,0 10,13.75 10,-13.75 -5,0 0,-8.75 -10,0 z"
       inkscape:connector-curvature="0"
       id="path4278"
       style="display:inline;fill:url(#linearGradient3832);fill-opacity:1;fill-rule:nonzero;stroke:none" />
  </g>
  <g
     id="g4938"
     transform="translate(47.475941,-19.870614)">
    <path
       inkscape:connector-curvature="0"
       d="m -32.112897,54.846715 c 1.397879,1.425159 3.057357,2.429607 4.839262,2.983106 a 0.87790088,0.87790088 0 0 0 0.861786,-1.480504 c -4.683213,-4.279507 -4.376408,-9.666818 -1.922447,-13.059379 l 2.010835,2.055029 a 0.87790088,0.87790088 0 0 0 1.480505,-0.464038 l 1.878253,-10.584505 a 0.87790088,0.87790088 0 0 0 -1.016466,-1.016466 l -10.407728,1.922446 a 0.87790088,0.87790088 0 0 0 -0.464039,1.480505 l 2.099223,2.143418 c -3.798314,4.692747 -3.655596,11.64016 0.640816,16.020388 z"
       id="path4036"
       style="display:inline;opacity:0.15;fill:url(#linearGradient4803);fill-opacity:1;stroke:none" />
    <path
       d="m 126.77481,78.668776 -5.99211,8.721478 -6.16173,-8.838877 3.96478,0.0383 c -0.25101,-4.905678 -4.4683,-9.938783 -11.69776,-9.613148 1.52232,-0.80073 3.26698,-1.251477 5.1202,-1.233571 5.9493,0.05747 10.83282,4.956046 11.03252,10.889749 l 3.7341,0.03607 z"
       inkscape:connector-curvature="0"
       transform="matrix(-0.70710678,-0.70710678,0.70710678,-0.70710678,-0.204704,181.33044)"
       clip-path="url(#clipPath4029)"
       id="path4022"
       style="display:inline;opacity:0.3;fill:url(#linearGradient4805);fill-opacity:1;stroke:none" />
    <path
       d="m -34.927914,36.766995 10.404078,-1.929954 -1.893029,10.607031 -2.77644,-2.830606 c -3.291347,3.64633 -3.868216,10.187347 1.474043,15.069088 -1.642644,-0.510241 -3.195031,-1.425176 -4.492794,-2.748262 -4.166153,-4.247427 -4.155507,-11.164414 -0.100955,-15.501385 l -2.614902,-2.665912 z"
       inkscape:connector-curvature="0"
       id="path4018"
       style="display:inline;fill:url(#linearGradient4029);fill-opacity:1;stroke:none" />
  </g>
  <g
     transform="matrix(-1,0,0,-1,47.048518,113.26674)"
     id="g4943">
    <path
       style="display:inline;opacity:0.15;fill:url(#linearGradient4951);fill-opacity:1;stroke:none"
       id="path4945"
       d="m -32.112897,54.846715 c 1.397879,1.425159 3.057357,2.429607 4.839262,2.983106 a 0.87790088,0.87790088 0 0 0 0.861786,-1.480504 c -4.683213,-4.279507 -4.376408,-9.666818 -1.922447,-13.059379 l 2.010835,2.055029 a 0.87790088,0.87790088 0 0 0 1.480505,-0.464038 l 1.878253,-10.584505 a 0.87790088,0.87790088 0 0 0 -1.016466,-1.016466 l -10.407728,1.922446 a 0.87790088,0.87790088 0 0 0 -0.464039,1.480505 l 2.099223,2.143418 c -3.798314,4.692747 -3.655596,11.64016 0.640816,16.020388 z"
       inkscape:connector-curvature="0" />
    <path
       style="display:inline;opacity:0.3;fill:url(#linearGradient4953);fill-opacity:1;stroke:none"
       id="path4947"
       clip-path="url(#clipPath4029)"
       transform="matrix(-0.70710678,-0.70710678,0.70710678,-0.70710678,-0.204704,181.33044)"
       inkscape:connector-curvature="0"
       d="m 126.77481,78.668776 -5.99211,8.721478 -6.16173,-8.838877 3.96478,0.0383 c -0.25101,-4.905678 -4.4683,-9.938783 -11.69776,-9.613148 1.52232,-0.80073 3.26698,-1.251477 5.1202,-1.233571 5.9493,0.05747 10.83282,4.956046 11.03252,10.889749 l 3.7341,0.03607 z" />
    <path
       style="display:inline;fill:url(#linearGradient4955);fill-opacity:1;stroke:none"
       id="path4949"
       inkscape:connector-curvature="0"
       d="m -34.927914,36.766995 10.404078,-1.929954 -1.893029,10.607031 -2.77644,-2.830606 c -3.291347,3.64633 -3.868216,10.187347 1.474043,15.069088 -1.642644,-0.510241 -3.195031,-1.425176 -4.492794,-2.748262 -4.166153,-4.247427 -4.155507,-11.164414 -0.100955,-15.501385 l -2.614902,-2.665912 z" />
  </g>
</svg>
