<?xml version="1.0" encoding="UTF-8" standalone="no"?>
<!-- Created with Inkscape (http://www.inkscape.org/) -->

<svg
   xmlns:dc="http://purl.org/dc/elements/1.1/"
   xmlns:cc="http://creativecommons.org/ns#"
   xmlns:rdf="http://www.w3.org/1999/02/22-rdf-syntax-ns#"
   xmlns:svg="http://www.w3.org/2000/svg"
   xmlns="http://www.w3.org/2000/svg"
   xmlns:xlink="http://www.w3.org/1999/xlink"
   xmlns:sodipodi="http://sodipodi.sourceforge.net/DTD/sodipodi-0.dtd"
   xmlns:inkscape="http://www.inkscape.org/namespaces/inkscape"
   version="1.0"
   width="96"
   height="96"
   id="svg2408"
   inkscape:version="0.48.1 r9760"
   sodipodi:docname="1griffith.svg"
   inkscape:export-filename="/media/Daten/projekte/ICONS/Faenza-Fresh/apps v0.2/griffith.png"
   inkscape:export-xdpi="45"
   inkscape:export-ydpi="45">
  <sodipodi:namedview
     pagecolor="#fefefe"
     bordercolor="#666666"
     borderopacity="1"
     objecttolerance="10"
     gridtolerance="10"
     guidetolerance="10"
     inkscape:pageopacity="0"
     inkscape:pageshadow="2"
     inkscape:window-width="517"
     inkscape:window-height="439"
     id="namedview107"
     showgrid="false"
     inkscape:zoom="1.1785113"
     inkscape:cx="-0.056140762"
     inkscape:cy="54.9635"
     inkscape:window-x="738"
     inkscape:window-y="24"
     inkscape:window-maximized="0"
     inkscape:current-layer="svg2408" />
  <defs
     id="defs2410">
    <linearGradient
       id="linearGradient4019">
      <stop
         id="stop4021"
         style="stop-color:#4036aa;stop-opacity:1;"
         offset="0" />
      <stop
         id="stop4023"
         style="stop-color:#2d65e4;stop-opacity:1;"
         offset="1" />
    </linearGradient>
    <linearGradient
       id="linearGradient4001">
      <stop
         style="stop-color:#f6dd81;stop-opacity:1;"
         offset="0"
         id="stop4003" />
      <stop
         style="stop-color:#f8c400;stop-opacity:1;"
         offset="1"
         id="stop4005" />
    </linearGradient>
    <linearGradient
       id="linearGradient3941">
      <stop
         offset="0"
         style="stop-color:#090c46;stop-opacity:1;"
         id="stop3943" />
      <stop
         offset="1"
         style="stop-color:#191f60;stop-opacity:0;"
         id="stop3945" />
    </linearGradient>
    <linearGradient
       id="linearGradient3852">
      <stop
         offset="0"
         style="stop-color:#c4c0eb;stop-opacity:1;"
         id="stop3854" />
      <stop
         offset="1"
         style="stop-color:#10317c;stop-opacity:1;"
         id="stop3856" />
    </linearGradient>
    <linearGradient
       id="linearGradient3921">
      <stop
         id="stop3923"
         style="stop-color:#6b3715;stop-opacity:1"
         offset="0" />
      <stop
         id="stop3925"
         style="stop-color:#6b3715;stop-opacity:0"
         offset="1" />
    </linearGradient>
    <linearGradient
       id="linearGradient3806">
      <stop
         id="stop3808"
         style="stop-color:#f7e0c0;stop-opacity:1"
         offset="0" />
      <stop
         id="stop3810"
         style="stop-color:#b67e35;stop-opacity:1"
         offset="1" />
    </linearGradient>
    <linearGradient
       x1="45.447727"
       y1="92.539597"
       x2="45.447727"
       y2="7.0165396"
       id="ButtonShadow"
       gradientUnits="userSpaceOnUse"
       gradientTransform="scale(1.0058652,0.994169)">
      <stop
         id="stop3750"
         style="stop-color:#000000;stop-opacity:1"
         offset="0" />
      <stop
         id="stop3752"
         style="stop-color:#000000;stop-opacity:0.58823532"
         offset="1" />
    </linearGradient>
    <linearGradient
       id="linearGradient3737">
      <stop
         id="stop3739"
         style="stop-color:#fefefe;stop-opacity:1"
         offset="0" />
      <stop
         id="stop3741"
         style="stop-color:#fefefe;stop-opacity:0"
         offset="1" />
    </linearGradient>
    <filter
       color-interpolation-filters="sRGB"
       id="filter3174">
      <feGaussianBlur
         id="feGaussianBlur3176"
         stdDeviation="1.71" />
    </filter>
    <linearGradient
       x1="36.357143"
       y1="6"
       x2="36.357143"
       y2="63.893143"
       id="linearGradient3188"
       xlink:href="#linearGradient3737"
       gradientUnits="userSpaceOnUse" />
    <filter
       x="-0.192"
       y="-0.192"
       width="1.3839999"
       height="1.3839999"
       color-interpolation-filters="sRGB"
       id="filter3794">
      <feGaussianBlur
         id="feGaussianBlur3796"
         stdDeviation="5.28" />
    </filter>
    <linearGradient
       x1="48"
       y1="20.220806"
       x2="48"
       y2="138.66119"
       id="linearGradient3613"
       xlink:href="#linearGradient3737"
       gradientUnits="userSpaceOnUse" />
    <radialGradient
       cx="48"
       cy="90.171875"
       r="42"
       fx="48"
       fy="90.171875"
       id="radialGradient3619"
       xlink:href="#linearGradient3737"
       gradientUnits="userSpaceOnUse"
       gradientTransform="matrix(1.1573129,0,0,0.99590774,-7.5510206,0.19713193)" />
    <clipPath
       id="clipPath3613">
      <rect
         width="84"
         height="84"
         rx="6"
         ry="6"
         x="6"
         y="6"
         id="rect3615"
         style="fill:#fefefe;fill-opacity:1;fill-rule:nonzero;stroke:none" />
    </clipPath>
    <linearGradient
       x1="45.447727"
       y1="92.539597"
       x2="45.447727"
       y2="7.0165396"
       id="ButtonShadow-0"
       gradientUnits="userSpaceOnUse"
       gradientTransform="matrix(1.0058652,0,0,0.994169,100,0)">
      <stop
         id="stop3750-8"
         style="stop-color:#000000;stop-opacity:1"
         offset="0" />
      <stop
         id="stop3752-5"
         style="stop-color:#000000;stop-opacity:0.58823532"
         offset="1" />
    </linearGradient>
    <linearGradient
       x1="32.251034"
       y1="6.1317081"
       x2="32.251034"
       y2="90.238609"
       id="linearGradient3725"
       xlink:href="#ButtonShadow-0"
       gradientUnits="userSpaceOnUse"
       gradientTransform="matrix(1.0238095,0,0,-1.0119048,-1.1428571,98.071429)" />
    <linearGradient
       x1="32.251034"
       y1="6.1317081"
       x2="32.251034"
       y2="90.238609"
       id="linearGradient3721"
       xlink:href="#ButtonShadow-0"
       gradientUnits="userSpaceOnUse"
       gradientTransform="matrix(1,0,0,-1,0,97)" />
    <linearGradient
       x1="58.650177"
       y1="122"
       x2="58.650177"
       y2="5.4252338"
       id="ButtonColor"
       gradientUnits="userSpaceOnUse"
       gradientTransform="matrix(1.0172414,0,0,1.0172414,-1.1034483,-1.1034483)">
      <stop
         id="stop3189"
         style="stop-color:#000000;stop-opacity:1"
         offset="0" />
      <stop
         id="stop3191"
         style="stop-color:#515151;stop-opacity:1"
         offset="1" />
    </linearGradient>
    <linearGradient
       x1="48"
       y1="90"
       x2="48"
       y2="5.9877172"
       id="linearGradient3686"
       xlink:href="#ButtonColor"
       gradientUnits="userSpaceOnUse"
       gradientTransform="translate(-110,0)" />
    <linearGradient
       x1="32.251034"
       y1="6.1317081"
       x2="32.251034"
       y2="90.238609"
       id="linearGradient3702"
       xlink:href="#ButtonShadow-0"
       gradientUnits="userSpaceOnUse"
       gradientTransform="matrix(1.0238095,0,0,-1.0119048,-1.1428571,98.071429)" />
    <linearGradient
       x1="32.251034"
       y1="6.1317081"
       x2="32.251034"
       y2="90.238609"
       id="linearGradient3711"
       xlink:href="#ButtonShadow-0"
       gradientUnits="userSpaceOnUse"
       gradientTransform="matrix(1.0238095,0,0,-1.0119048,-1.1428571,98.071429)" />
    <linearGradient
       x1="32.251034"
       y1="6.1317081"
       x2="32.251034"
       y2="90.238609"
       id="linearGradient3719"
       xlink:href="#ButtonShadow-0"
       gradientUnits="userSpaceOnUse"
       gradientTransform="matrix(1.0238095,0,0,-1.0119048,-1.1428571,98.071429)" />
    <radialGradient
       cx="48"
       cy="48"
       r="28"
       fx="48"
       fy="48"
       id="radialGradient3804"
       xlink:href="#linearGradient3852"
       gradientUnits="userSpaceOnUse"
       gradientTransform="matrix(1.1428571,0,0,0.85714286,-6.8571431,3.8571432)" />
    <radialGradient
       cx="48"
       cy="48"
       r="28"
       fx="48"
       fy="48"
       id="radialGradient3832"
       xlink:href="#linearGradient3852"
       gradientUnits="userSpaceOnUse"
       gradientTransform="matrix(1.1428571,0,0,-0.85714286,-6.8571431,38.142857)" />
    <radialGradient
       cx="48"
       cy="48"
       r="28"
       fx="48"
       fy="48"
       id="radialGradient3834"
       xlink:href="#linearGradient3806"
       gradientUnits="userSpaceOnUse"
       gradientTransform="matrix(1.1428571,0,0,0.85714286,-6.8571431,57.857143)" />
    <linearGradient
       x1="48"
       y1="90"
       x2="48"
       y2="5.9877172"
       id="linearGradient3885"
       xlink:href="#ButtonColor"
       gradientUnits="userSpaceOnUse" />
    <linearGradient
       x1="48.495441"
       y1="90.434654"
       x2="48.495441"
       y2="52.387913"
       id="linearGradient3968"
       xlink:href="#linearGradient3921"
       gradientUnits="userSpaceOnUse" />
    <clipPath
       id="clipPath3972">
      <path
         d="m 22,24 c -1.108,0 -2,0.93035 -2,2.09375 L 20,36 76,36 76,26.09375 C 76,24.93035 75.108,24 74,24 l -52,0 z"
         inkscape:connector-curvature="0"
         id="path3974"
         style="fill:#ff0000;fill-opacity:1;stroke:none" />
    </clipPath>
    <clipPath
       id="clipPath4000">
      <path
         d="m 22,72 c -1.108,0 -2,-0.93035 -2,-2.09375 L 20,60 l 56,0 0,9.90625 C 76,71.06965 75.108,72 74,72 l -52,0 z"
         inkscape:connector-curvature="0"
         id="path4002"
         style="fill:#ff0000;fill-opacity:1;stroke:none" />
    </clipPath>
    <radialGradient
       inkscape:collect="always"
       xlink:href="#linearGradient3737"
       id="radialGradient3859"
       gradientUnits="userSpaceOnUse"
       gradientTransform="matrix(1.1573129,0,0,0.99590774,-7.5510206,0.19713193)"
       cx="48"
       cy="90.171875"
       fx="48"
       fy="90.171875"
       r="42" />
    <linearGradient
       inkscape:collect="always"
       xlink:href="#linearGradient3737"
       id="linearGradient3862"
       gradientUnits="userSpaceOnUse"
       x1="36.357143"
       y1="6"
       x2="36.357143"
       y2="63.893143" />
    <linearGradient
       inkscape:collect="always"
       xlink:href="#linearGradient3941"
       id="linearGradient3888"
       gradientUnits="userSpaceOnUse"
       x1="48.495441"
       y1="90.434654"
       x2="48.495441"
       y2="52.387913" />
    <radialGradient
       inkscape:collect="always"
       xlink:href="#linearGradient3852"
       id="radialGradient3912"
       gradientUnits="userSpaceOnUse"
       gradientTransform="matrix(1.1428571,0,0,-0.85714286,-6.8571431,38.142857)"
       cx="48"
       cy="48"
       fx="48"
       fy="48"
       r="28" />
    <radialGradient
       inkscape:collect="always"
       xlink:href="#linearGradient3852"
       id="radialGradient3915"
       gradientUnits="userSpaceOnUse"
       gradientTransform="matrix(1.1428571,0,0,0.85714286,-6.8571431,57.857143)"
       cx="48"
       cy="48"
       fx="48"
       fy="48"
       r="28" />
    <radialGradient
       inkscape:collect="always"
       xlink:href="#linearGradient3852"
       id="radialGradient3918"
       gradientUnits="userSpaceOnUse"
       gradientTransform="matrix(1.1428571,0,0,0.85714286,-6.8571431,3.8571432)"
       cx="48"
       cy="48"
       fx="48"
       fy="48"
       r="28" />
    <radialGradient
       inkscape:collect="always"
       xlink:href="#linearGradient3852"
       id="radialGradient3949"
       gradientUnits="userSpaceOnUse"
       gradientTransform="matrix(1.1428571,0,0,-0.85714286,-6.8571431,38.14286)"
       cx="48"
       cy="48"
       fx="48"
       fy="48"
       r="28" />
    <linearGradient
       inkscape:collect="always"
       xlink:href="#linearGradient3737"
       id="linearGradient3955"
       gradientUnits="userSpaceOnUse"
       x1="48"
       y1="20.220806"
       x2="48"
       y2="138.66119" />
    <radialGradient
       inkscape:collect="always"
       xlink:href="#linearGradient4001"
       id="radialGradient4007"
       cx="40.453083"
       cy="49.668861"
       fx="40.453083"
       fy="49.668861"
       r="20.164091"
       gradientTransform="matrix(1.983145,0.12496523,-0.08888774,1.4106105,-33.652911,-25.826419)"
       gradientUnits="userSpaceOnUse" />
    <radialGradient
       inkscape:collect="always"
       xlink:href="#linearGradient4001"
       id="radialGradient4017"
       gradientUnits="userSpaceOnUse"
       gradientTransform="matrix(2.1159623,0,0,1.5050835,-78.057931,-103.44658)"
       cx="40.453083"
       cy="49.668861"
       fx="40.453083"
       fy="49.668861"
       r="20.164091" />
  </defs>
  <metadata
     id="metadata2413">
    <rdf:RDF>
      <cc:Work
         rdf:about="">
        <dc:format>image/svg+xml</dc:format>
        <dc:type
           rdf:resource="http://purl.org/dc/dcmitype/StillImage" />
        <dc:title></dc:title>
      </cc:Work>
    </rdf:RDF>
  </metadata>
  <g
     id="layer2"
     style="display:none">
    <path
       d="M 11,7 C 7.676,7 5,9.676 5,13 l 0,73 c 0,3.324 2.676,6 6,6 l 74,0 c 3.324,0 6,-2.676 6,-6 L 91,13 C 91,9.676 88.324,7 85,7 L 11,7 z m -1,4 6,0 0,4 -6,0 0,-4 z m 70,0 6,0 0,4 -6,0 0,-4 z m -70,8 6,0 0,4 -6,0 0,-4 z m 70,0 6,0 0,4 -6,0 0,-4 z m -70,8 6,0 0,4 -6,0 0,-4 z m 70,0 6,0 0,4 -6,0 0,-4 z m -70,8 6,0 0,4 -6,0 0,-4 z m 70,0 6,0 0,4 -6,0 0,-4 z m -70,8 6,0 0,4 -6,0 0,-4 z m 70,0 6,0 0,4 -6,0 0,-4 z m -70,8 6,0 0,4 -6,0 0,-4 z m 70,0 6,0 0,4 -6,0 0,-4 z m -70,8 6,0 0,4 -6,0 0,-4 z m 70,0 6,0 0,4 -6,0 0,-4 z m -70,8 6,0 0,4 -6,0 0,-4 z m 70,0 6,0 0,4 -6,0 0,-4 z m -70,8 6,0 0,4 -6,0 0,-4 z m 70,0 6,0 0,4 -6,0 0,-4 z m -70,8 6,0 0,4 -6,0 0,-4 z m 70,0 6,0 0,4 -6,0 0,-4 z"
       inkscape:connector-curvature="0"
       id="rect3745"
       style="opacity:0.9;fill:url(#ButtonShadow);fill-opacity:1;fill-rule:nonzero;stroke:none;filter:url(#filter3174)" />
  </g>
  <g
     id="layer3"
     style="display:inline">
    <path
       d="M 12,4 C 6.4912778,4 2,8.4912778 2,14 l 0,71 c 0,5.508722 4.4912778,10 10,10 l 72,0 c 5.508722,0 10,-4.491278 10,-10 L 94,14 C 94,8.4912778 89.508722,4 84,4 L 12,4 z"
       id="path3717"
       style="opacity:0.07999998;fill:url(#linearGradient3719);fill-opacity:1;fill-rule:nonzero;stroke:none;display:inline" />
    <path
       d="M 12,5.03125 C 7.053585,5.03125 3.03125,9.053585 3.03125,14 l 0,71 c 0,4.946415 4.022335,8.96875 8.96875,8.96875 l 72,0 c 4.946415,0 8.96875,-4.022335 8.96875,-8.96875 l 0,-71 C 92.96875,9.053585 88.946415,5.03125 84,5.03125 l -72,0 z m -0.03125,7.9375 2.0625,0 0,0.0625 -2.0625,0 0,-0.0625 z m 70,0 2.0625,0 0,0.0625 -2.0625,0 0,-0.0625 z m -70,8 2.0625,0 0,0.0625 -2.0625,0 0,-0.0625 z m 70,0 2.0625,0 0,0.0625 -2.0625,0 0,-0.0625 z m -70,8 2.0625,0 0,0.0625 -2.0625,0 0,-0.0625 z m 70,0 2.0625,0 0,0.0625 -2.0625,0 0,-0.0625 z m -70,8 2.0625,0 0,0.0625 -2.0625,0 0,-0.0625 z m 70,0 2.0625,0 0,0.0625 -2.0625,0 0,-0.0625 z m -70,8 2.0625,0 0,0.0625 -2.0625,0 0,-0.0625 z m 70,0 2.0625,0 0,0.0625 -2.0625,0 0,-0.0625 z m -70,8 2.0625,0 0,0.0625 -2.0625,0 0,-0.0625 z m 70,0 2.0625,0 0,0.0625 -2.0625,0 0,-0.0625 z m -70,8 2.0625,0 0,0.0625 -2.0625,0 0,-0.0625 z m 70,0 2.0625,0 0,0.0625 -2.0625,0 0,-0.0625 z m -70,8 2.0625,0 0,0.0625 -2.0625,0 0,-0.0625 z m 70,0 2.0625,0 0,0.0625 -2.0625,0 0,-0.0625 z m -70,8 2.0625,0 0,0.0625 -2.0625,0 0,-0.0625 z m 70,0 2.0625,0 0,0.0625 -2.0625,0 0,-0.0625 z m -70,8 2.0625,0 0,0.0625 -2.0625,0 0,-0.0625 z m 70,0 2.0625,0 0,0.0625 -2.0625,0 0,-0.0625 z"
       id="path3709"
       style="opacity:0.1;fill:url(#linearGradient3711);fill-opacity:1;fill-rule:nonzero;stroke:none;display:inline" />
    <path
       d="M 12,6 C 7.5798064,6 4,9.5798064 4,14 l 0,71 c 0,4.420194 3.5798064,8 8,8 l 72,0 c 4.420194,0 8,-3.579806 8,-8 L 92,14 C 92,9.5798064 88.420194,6 84,6 L 12,6 z m -1,6 4,0 0,2 -4,0 0,-2 z m 70,0 4,0 0,2 -4,0 0,-2 z m -70,8 4,0 0,2 -4,0 0,-2 z m 70,0 4,0 0,2 -4,0 0,-2 z m -70,8 4,0 0,2 -4,0 0,-2 z m 70,0 4,0 0,2 -4,0 0,-2 z m -70,8 4,0 0,2 -4,0 0,-2 z m 70,0 4,0 0,2 -4,0 0,-2 z m -70,8 4,0 0,2 -4,0 0,-2 z m 70,0 4,0 0,2 -4,0 0,-2 z m -70,8 4,0 0,2 -4,0 0,-2 z m 70,0 4,0 0,2 -4,0 0,-2 z m -70,8 4,0 0,2 -4,0 0,-2 z m 70,0 4,0 0,2 -4,0 0,-2 z m -70,8 4,0 0,2 -4,0 0,-2 z m 70,0 4,0 0,2 -4,0 0,-2 z m -70,8 4,0 0,2 -4,0 0,-2 z m 70,0 4,0 0,2 -4,0 0,-2 z m -70,8 4,0 0,2 -4,0 0,-2 z m 70,0 4,0 0,2 -4,0 0,-2 z"
       id="path3700"
       style="opacity:0.2;fill:url(#linearGradient3702);fill-opacity:1;fill-rule:nonzero;stroke:none;display:inline" />
    <path
       d="M 12,7 C 8.122,7 5,10.122 5,14 l 0,71 c 0,3.878 3.122,7 7,7 l 72,0 c 3.878,0 7,-3.122 7,-7 L 91,14 C 91,10.122 87.878,7 84,7 L 12,7 z m -2,4 6,0 0,4 -6,0 0,-4 z m 70,0 6,0 0,4 -6,0 0,-4 z m -70,8 6,0 0,4 -6,0 0,-4 z m 70,0 6,0 0,4 -6,0 0,-4 z m -70,8 6,0 0,4 -6,0 0,-4 z m 70,0 6,0 0,4 -6,0 0,-4 z m -70,8 6,0 0,4 -6,0 0,-4 z m 70,0 6,0 0,4 -6,0 0,-4 z m -70,8 6,0 0,4 -6,0 0,-4 z m 70,0 6,0 0,4 -6,0 0,-4 z m -70,8 6,0 0,4 -6,0 0,-4 z m 70,0 6,0 0,4 -6,0 0,-4 z m -70,8 6,0 0,4 -6,0 0,-4 z m 70,0 6,0 0,4 -6,0 0,-4 z m -70,8 6,0 0,4 -6,0 0,-4 z m 70,0 6,0 0,4 -6,0 0,-4 z m -70,8 6,0 0,4 -6,0 0,-4 z m 70,0 6,0 0,4 -6,0 0,-4 z m -70,8 6,0 0,4 -6,0 0,-4 z m 70,0 6,0 0,4 -6,0 0,-4 z"
       inkscape:connector-curvature="0"
       id="rect3723"
       style="opacity:0.3;fill:url(#linearGradient3725);fill-opacity:1;fill-rule:nonzero;stroke:none;display:inline" />
    <path
       d="M 12,7 C 8.676,7 6,9.676 6,13 l 0,72 c 0,3.324 2.676,6 6,6 l 72,0 c 3.324,0 6,-2.676 6,-6 L 90,13 C 90,9.676 87.324,7 84,7 L 12,7 z m -2,4 6,0 0,4 -6,0 0,-4 z m 70,0 6,0 0,4 -6,0 0,-4 z m -70,8 6,0 0,4 -6,0 0,-4 z m 70,0 6,0 0,4 -6,0 0,-4 z m -70,8 6,0 0,4 -6,0 0,-4 z m 70,0 6,0 0,4 -6,0 0,-4 z m -70,8 6,0 0,4 -6,0 0,-4 z m 70,0 6,0 0,4 -6,0 0,-4 z m -70,8 6,0 0,4 -6,0 0,-4 z m 70,0 6,0 0,4 -6,0 0,-4 z m -70,8 6,0 0,4 -6,0 0,-4 z m 70,0 6,0 0,4 -6,0 0,-4 z m -70,8 6,0 0,4 -6,0 0,-4 z m 70,0 6,0 0,4 -6,0 0,-4 z m -70,8 6,0 0,4 -6,0 0,-4 z m 70,0 6,0 0,4 -6,0 0,-4 z m -70,8 6,0 0,4 -6,0 0,-4 z m 70,0 6,0 0,4 -6,0 0,-4 z m -70,8 6,0 0,4 -6,0 0,-4 z m 70,0 6,0 0,4 -6,0 0,-4 z"
       inkscape:connector-curvature="0"
       id="rect3716"
       style="opacity:0.45;fill:url(#linearGradient3721);fill-opacity:1;fill-rule:nonzero;stroke:none;display:inline" />
  </g>
  <g
     id="layer1"
     style="display:inline">
    <path
       d="M 12,6 C 8.676,6 6,8.676 6,12 l 0,72 c 0,3.324 2.676,6 6,6 l 72,0 c 3.324,0 6,-2.676 6,-6 L 90,12 C 90,8.676 87.324,6 84,6 L 12,6 z m -2,4 6,0 0,4 -6,0 0,-4 z m 70,0 6,0 0,4 -6,0 0,-4 z m -70,8 6,0 0,4 -6,0 0,-4 z m 70,0 6,0 0,4 -6,0 0,-4 z m -70,8 6,0 0,4 -6,0 0,-4 z m 70,0 6,0 0,4 -6,0 0,-4 z m -70,8 6,0 0,4 -6,0 0,-4 z m 70,0 6,0 0,4 -6,0 0,-4 z m -70,8 6,0 0,4 -6,0 0,-4 z m 70,0 6,0 0,4 -6,0 0,-4 z m -70,8 6,0 0,4 -6,0 0,-4 z m 70,0 6,0 0,4 -6,0 0,-4 z m -70,8 6,0 0,4 -6,0 0,-4 z m 70,0 6,0 0,4 -6,0 0,-4 z m -70,8 6,0 0,4 -6,0 0,-4 z m 70,0 6,0 0,4 -6,0 0,-4 z m -70,8 6,0 0,4 -6,0 0,-4 z m 70,0 6,0 0,4 -6,0 0,-4 z m -70,8 6,0 0,4 -6,0 0,-4 z m 70,0 6,0 0,4 -6,0 0,-4 z"
       inkscape:connector-curvature="0"
       id="rect2419"
       style="fill:url(#linearGradient3885);fill-opacity:1;fill-rule:nonzero;stroke:none" />
    <rect
       width="84"
       height="84"
       rx="6"
       ry="6"
       x="-104"
       y="6"
       id="rect3684"
       style="fill:url(#linearGradient3686);fill-opacity:1;fill-rule:nonzero;stroke:none" />
    <path
       d="m -100,10 0,4 6,0 0,-4 -6,0 z m 70,0 0,4 6,0 0,-4 -6,0 z m -70,8 0,4 6,0 0,-4 -6,0 z m 70,0 0,4 6,0 0,-4 -6,0 z m -70,8 0,4 6,0 0,-4 -6,0 z m 70,0 0,4 6,0 0,-4 -6,0 z m -70,8 0,4 6,0 0,-4 -6,0 z m 70,0 0,4 6,0 0,-4 -6,0 z m -70,8 0,4 6,0 0,-4 -6,0 z m 70,0 0,4 6,0 0,-4 -6,0 z m -70,8 0,4 6,0 0,-4 -6,0 z m 70,0 0,4 6,0 0,-4 -6,0 z m -70,8 0,4 6,0 0,-4 -6,0 z m 70,0 0,4 6,0 0,-4 -6,0 z m -70,8 0,4 6,0 0,-4 -6,0 z m 70,0 0,4 6,0 0,-4 -6,0 z m -70,8 0,4 6,0 0,-4 -6,0 z m 70,0 0,4 6,0 0,-4 -6,0 z m -70,8 0,4 6,0 0,-4 -6,0 z m 70,0 0,4 6,0 0,-4 -6,0 z"
       inkscape:connector-curvature="0"
       id="path3747"
       style="opacity:0.58874458;fill:#ff0000;fill-opacity:1;stroke:none;display:inline" />
  </g>
  <rect
     style="fill:url(#radialGradient3918);fill-opacity:1.0;stroke:none"
     id="rect3796"
     y="24"
     x="20"
     ry="2.0999999"
     rx="2"
     height="48"
     width="56" />
  <path
     style="fill:url(#radialGradient3915);fill-opacity:1.0;stroke:none"
     id="rect3822"
     inkscape:connector-curvature="0"
     d="m 22,78 c -1.108,0 -2,0.93035 -2,2.09375 L 20,90 76,90 76,80.09375 C 76,78.93035 75.108,78 74,78 l -52,0 z" />
  <path
     style="fill:url(#radialGradient3912);fill-opacity:1;stroke:none"
     id="path3830"
     inkscape:connector-curvature="0"
     d="m 22,18 c -1.108,0 -2,-0.93035 -2,-2.09375 L 20,6 76,6 76,15.90625 C 76,17.06965 75.108,18 74,18 l -52,0 z"
     clip-path="none" />
  <path
     style="opacity:0.59999999999999998;fill:url(#linearGradient3888);fill-opacity:1.0;stroke:none"
     id="rect3912"
     inkscape:connector-curvature="0"
     d="m 20,48 0,21.90625 C 20,71.06965 20.892,72 22,72 l 52,0 c 1.108,0 2,-0.93035 2,-2.09375 L 76,48 20,48 z m 2,30 c -1.108,0 -2,0.93035 -2,2.09375 L 20,90 76,90 76,80.09375 C 76,78.93035 75.108,78 74,78 l -52,0 z" />
  <path
     d="m 22,18 c -1.108,0 -2,-0.93035 -2,-2.09375 L 20,6 76,6 76,15.90625 C 76,17.06965 75.108,18 74,18 l -52,0 z"
     inkscape:connector-curvature="0"
     id="path3947"
     style="fill:url(#radialGradient3949);fill-opacity:1;stroke:none" />
  <g
     id="g2941"
     transform="translate(80,0)">
    <path
       style="opacity:0.1;fill:#000000;fill-opacity:1;stroke:none"
       id="rect3770"
       inkscape:connector-curvature="0"
       d="m 22,24 c -1.108,0 -2,0.93035 -2,2.09375 l 0,43.8125 C 20,71.06965 20.892,72 22,72 l 52,0 c 1.108,0 2,-0.93035 2,-2.09375 l 0,-43.8125 C 76,24.93035 75.108,24 74,24 l -52,0 z m 0.03125,2.03125 51.9375,0 c -0.0018,0.0093 0,0.0198 0,0.0625 l 0,43.8125 c 0,0.0427 -0.0018,0.05324 0,0.0625 l -51.9375,0 c 0.0018,-0.0093 0,-0.0198 0,-0.0625 l 0,-43.8125 c 0,-0.0427 0.0018,-0.05324 0,-0.0625 z" />
    <path
       style="opacity:0.2;fill:#000000;fill-opacity:1;stroke:none"
       id="rect3763"
       inkscape:connector-curvature="0"
       d="m 22,24 c -1.108,0 -2,0.93035 -2,2.09375 l 0,43.8125 C 20,71.06965 20.892,72 22,72 l 52,0 c 1.108,0 2,-0.93035 2,-2.09375 l 0,-43.8125 C 76,24.93035 75.108,24 74,24 l -52,0 z m 0,0.90625 52,0 c 0.60063,0 1.09375,0.487391 1.09375,1.1875 l 0,43.8125 c 0,0.700109 -0.49312,1.1875 -1.09375,1.1875 l -52,0 c -0.60063,0 -1.09375,-0.487391 -1.09375,-1.1875 l 0,-43.8125 c 0,-0.700109 0.49312,-1.1875 1.09375,-1.1875 z" />
    <path
       style="opacity:0.1;fill:#000000;fill-opacity:1;stroke:none"
       id="path3777"
       inkscape:connector-curvature="0"
       d="m 20,6 0,9.90625 C 20,17.06965 20.892,18 22,18 l 52,0 c 1.108,0 2,-0.93035 2,-2.09375 L 76,6 l -2.03125,0 0,9.90625 c 0,0.0427 -0.0018,0.05324 0,0.0625 l -51.9375,0 c 0.0018,-0.0093 0,-0.0198 0,-0.0625 L 22.03125,6 20,6 z" />
    <path
       style="opacity:0.2;fill:#000000;fill-opacity:1;stroke:none"
       id="path3779"
       inkscape:connector-curvature="0"
       d="m 20,6 0,9.90625 C 20,17.06965 20.892,18 22,18 l 52,0 c 1.108,0 2,-0.93035 2,-2.09375 L 76,6 l -0.90625,0 0,9.90625 c 0,0.700109 -0.49312,1.1875 -1.09375,1.1875 l -52,0 c -0.60063,0 -1.09375,-0.487391 -1.09375,-1.1875 L 20.90625,6 20,6 z" />
    <path
       style="opacity:0.1;fill:#000000;fill-opacity:1;stroke:none"
       id="path3787"
       inkscape:connector-curvature="0"
       d="m 20,90 0,-9.90625 C 20,78.93035 20.892,78 22,78 l 52,0 c 1.108,0 2,0.93035 2,2.09375 L 76,90 l -2.03125,0 0,-9.90625 c 0,-0.0427 -0.0018,-0.05324 0,-0.0625 l -51.9375,0 c 0.0018,0.0093 0,0.0198 0,0.0625 L 22.03125,90 20,90 z" />
    <path
       style="opacity:0.2;fill:#000000;fill-opacity:1;stroke:none"
       id="path3789"
       inkscape:connector-curvature="0"
       d="m 20,90 0,-9.90625 C 20,78.93035 20.892,78 22,78 l 52,0 c 1.108,0 2,0.93035 2,2.09375 L 76,90 l -0.90625,0 0,-9.90625 c 0,-0.700109 -0.49312,-1.1875 -1.09375,-1.1875 l -52,0 c -0.60063,0 -1.09375,0.487391 -1.09375,1.1875 L 20.90625,90 20,90 z" />
  </g>
  <rect
     style="opacity:0.1;fill:url(#linearGradient3955);fill-opacity:1;fill-rule:nonzero;stroke:#fefefe;stroke-width:0.5;stroke-linecap:round;stroke-linejoin:miter;stroke-miterlimit:4;stroke-opacity:1;stroke-dasharray:none;stroke-dashoffset:0;filter:url(#filter3794)"
     id="rect3171"
     clip-path="url(#clipPath3613)"
     y="15"
     x="15"
     ry="12"
     rx="12"
     height="66"
     width="66"
     transform="translate(0,97.5)" />
  <g
     id="g3865">
    <path
       d="M 12,6 C 8.676,6 6,8.676 6,12 l 0,2 0,68 0,2 c 0,0.334721 0.04135,0.6507 0.09375,0.96875 0.0487,0.295596 0.09704,0.596915 0.1875,0.875 0.00988,0.03038 0.020892,0.0636 0.03125,0.09375 0.098865,0.287771 0.2348802,0.547452 0.375,0.8125 0.1445918,0.273507 0.3156161,0.535615 0.5,0.78125 0.1843839,0.245635 0.3737765,0.473472 0.59375,0.6875 0.439947,0.428056 0.94291,0.814526 1.5,1.09375 0.278545,0.139612 0.5734731,0.246947 0.875,0.34375 -0.2562018,-0.100222 -0.4867109,-0.236272 -0.71875,-0.375 -0.00741,-0.0044 -0.023866,0.0045 -0.03125,0 -0.031933,-0.0193 -0.062293,-0.04251 -0.09375,-0.0625 -0.120395,-0.0767 -0.2310226,-0.163513 -0.34375,-0.25 -0.1061728,-0.0808 -0.2132809,-0.161112 -0.3125,-0.25 C 8.4783201,88.557317 8.3087904,88.373362 8.15625,88.1875 8.0486711,88.057245 7.9378561,87.922215 7.84375,87.78125 7.818661,87.74287 7.805304,87.69538 7.78125,87.65625 7.716487,87.553218 7.6510225,87.451733 7.59375,87.34375 7.4927417,87.149044 7.3880752,86.928049 7.3125,86.71875 7.30454,86.69694 7.288911,86.6782 7.28125,86.65625 7.2494249,86.5643 7.2454455,86.469419 7.21875,86.375 7.1884177,86.268382 7.1483606,86.171969 7.125,86.0625 7.0521214,85.720988 7,85.364295 7,85 L 7,83 7,15 7,13 C 7,10.218152 9.2181517,8 12,8 l 2,0 68,0 2,0 c 2.781848,0 5,2.218152 5,5 l 0,2 0,68 0,2 c 0,0.364295 -0.05212,0.720988 -0.125,1.0625 -0.04415,0.206893 -0.08838,0.397658 -0.15625,0.59375 -0.0077,0.02195 -0.0233,0.04069 -0.03125,0.0625 -0.06274,0.173739 -0.138383,0.367449 -0.21875,0.53125 -0.04158,0.0828 -0.07904,0.169954 -0.125,0.25 -0.0546,0.09721 -0.126774,0.18835 -0.1875,0.28125 -0.09411,0.140965 -0.204921,0.275995 -0.3125,0.40625 -0.143174,0.17445 -0.303141,0.346998 -0.46875,0.5 -0.01117,0.0102 -0.01998,0.02115 -0.03125,0.03125 -0.138386,0.125556 -0.285091,0.234436 -0.4375,0.34375 -0.102571,0.07315 -0.204318,0.153364 -0.3125,0.21875 -0.0074,0.0045 -0.02384,-0.0044 -0.03125,0 -0.232039,0.138728 -0.462548,0.274778 -0.71875,0.375 0.301527,-0.0968 0.596455,-0.204138 0.875,-0.34375 0.55709,-0.279224 1.060053,-0.665694 1.5,-1.09375 0.219973,-0.214028 0.409366,-0.441865 0.59375,-0.6875 0.184384,-0.245635 0.355408,-0.507743 0.5,-0.78125 0.14012,-0.265048 0.276135,-0.524729 0.375,-0.8125 0.01041,-0.03078 0.02133,-0.06274 0.03125,-0.09375 0.09046,-0.278085 0.1388,-0.579404 0.1875,-0.875 C 89.95865,84.6507 90,84.334721 90,84 l 0,-2 0,-68 0,-2 C 90,8.676 87.324,6 84,6 L 12,6 z"
       inkscape:connector-curvature="0"
       id="rect3728"
       style="opacity:0.25;fill:url(#linearGradient3862);fill-opacity:1;fill-rule:nonzero;stroke:none" />
    <path
       d="M 12,90 C 8.676,90 6,87.324 6,84 L 6,82 6,14 6,12 c 0,-0.334721 0.04135,-0.6507 0.09375,-0.96875 0.0487,-0.295596 0.09704,-0.596915 0.1875,-0.875 C 6.29113,10.12587 6.302142,10.09265 6.3125,10.0625 6.411365,9.774729 6.5473802,9.515048 6.6875,9.25 6.8320918,8.976493 7.0031161,8.714385 7.1875,8.46875 7.3718839,8.223115 7.5612765,7.995278 7.78125,7.78125 8.221197,7.353194 8.72416,6.966724 9.28125,6.6875 9.559795,6.547888 9.8547231,6.440553 10.15625,6.34375 9.9000482,6.443972 9.6695391,6.580022 9.4375,6.71875 c -0.00741,0.0044 -0.023866,-0.0045 -0.03125,0 -0.031933,0.0193 -0.062293,0.04251 -0.09375,0.0625 -0.120395,0.0767 -0.2310226,0.163513 -0.34375,0.25 -0.1061728,0.0808 -0.2132809,0.161112 -0.3125,0.25 C 8.4783201,7.442683 8.3087904,7.626638 8.15625,7.8125 8.0486711,7.942755 7.9378561,8.077785 7.84375,8.21875 7.818661,8.25713 7.805304,8.30462 7.78125,8.34375 7.716487,8.446782 7.6510225,8.548267 7.59375,8.65625 7.4927417,8.850956 7.3880752,9.071951 7.3125,9.28125 7.30454,9.30306 7.288911,9.3218 7.28125,9.34375 7.2494249,9.4357 7.2454455,9.530581 7.21875,9.625 7.1884177,9.731618 7.1483606,9.828031 7.125,9.9375 7.0521214,10.279012 7,10.635705 7,11 l 0,2 0,68 0,2 c 0,2.781848 2.2181517,5 5,5 l 2,0 68,0 2,0 c 2.781848,0 5,-2.218152 5,-5 l 0,-2 0,-68 0,-2 C 89,10.635705 88.94788,10.279012 88.875,9.9375 88.83085,9.730607 88.78662,9.539842 88.71875,9.34375 88.71105,9.3218 88.69545,9.30306 88.6875,9.28125 88.62476,9.107511 88.549117,8.913801 88.46875,8.75 88.42717,8.6672 88.38971,8.580046 88.34375,8.5 88.28915,8.40279 88.216976,8.31165 88.15625,8.21875 88.06214,8.077785 87.951329,7.942755 87.84375,7.8125 87.700576,7.63805 87.540609,7.465502 87.375,7.3125 87.36383,7.3023 87.35502,7.29135 87.34375,7.28125 87.205364,7.155694 87.058659,7.046814 86.90625,6.9375 86.803679,6.86435 86.701932,6.784136 86.59375,6.71875 c -0.0074,-0.0045 -0.02384,0.0044 -0.03125,0 -0.232039,-0.138728 -0.462548,-0.274778 -0.71875,-0.375 0.301527,0.0968 0.596455,0.204138 0.875,0.34375 0.55709,0.279224 1.060053,0.665694 1.5,1.09375 0.219973,0.214028 0.409366,0.441865 0.59375,0.6875 0.184384,0.245635 0.355408,0.507743 0.5,0.78125 0.14012,0.265048 0.276135,0.524729 0.375,0.8125 0.01041,0.03078 0.02133,0.06274 0.03125,0.09375 0.09046,0.278085 0.1388,0.579404 0.1875,0.875 C 89.95865,11.3493 90,11.665279 90,12 l 0,2 0,68 0,2 c 0,3.324 -2.676,6 -6,6 l -72,0 z"
       inkscape:connector-curvature="0"
       id="path3615"
       style="opacity:0.15;fill:url(#radialGradient3859);fill-opacity:1;fill-rule:nonzero;stroke:none" />
  </g>
  <g
     id="g3855"
     transform="translate(0,2)">
    <path
       style="font-size:46.72305679px;font-style:normal;font-variant:normal;font-weight:normal;font-stretch:normal;text-indent:0;text-align:start;text-decoration:none;line-height:125%;letter-spacing:0px;word-spacing:0px;text-transform:none;direction:ltr;block-progression:tb;writing-mode:lr-tb;text-anchor:start;baseline-shift:baseline;opacity:0.2;color:#000000;fill:#000000;fill-opacity:1;fill-rule:nonzero;stroke:#000000;stroke-width:6;stroke-opacity:1;marker:none;visibility:visible;display:inline;overflow:visible;enable-background:accumulate;font-family:Sans;-inkscape-font-specification:Sans"
       d="m 52.272937,27.830918 c -2.327284,-0.195674 -4.72182,-0.05553 -7.170619,0.400886 -5.868786,1.094001 -10.302098,3.717482 -13.052462,7.881326 l -0.0019,0.02929 c -2.739438,4.148144 -3.46692,9.353388 -2.327269,15.467278 1.136709,6.098139 3.707586,10.70534 7.758393,13.603406 4.063248,2.876542 9.137897,3.74484 15.005803,2.651047 2.681209,-0.499788 5.16948,-1.348008 7.420653,-2.502278 2.246833,-1.170572 4.232466,-2.641203 5.953503,-4.417824 L 66.205226,60.5836 66.1176,60.107603 63.19116,44.4857 l -0.177095,-0.922708 -0.922707,0.177095 -12.912359,2.391463 -0.951996,0.175249 0.177095,0.922708 0.774098,4.047825 0.17525,0.951996 0.922706,-0.177095 7.110677,-1.316215 1.540815,8.212805 c -0.807588,0.635318 -1.68905,1.192606 -2.750387,1.649783 -1.233761,0.51492 -2.686264,0.939307 -4.372086,1.253546 -4.277234,0.797293 -7.525027,0.219333 -9.981347,-1.658127 -2.442428,-1.880841 -4.16285,-5.139442 -5.051016,-9.904235 -0.888705,-4.767616 -0.451904,-8.411444 1.136953,-11.043354 0.0046,-0.0076 -0.0028,-0.02166 0.0019,-0.02929 1.616967,-2.624755 4.439142,-4.360724 8.705254,-5.155974 2.150464,-0.400821 4.245047,-0.390636 6.322857,-0.01324 2.079105,0.37771 4.126564,1.113373 6.149614,2.269415 l 1.78796,1.024213 -0.372404,-2.022991 -0.963872,-5.235973 -0.115068,-0.507133 -0.48683,-0.207105 C 56.83409,28.53164 54.614995,28.023353 52.272957,27.830914 z"
       id="path3853"
       inkscape:connector-curvature="0" />
    <path
       inkscape:connector-curvature="0"
       id="path3849"
       d="m 52.272937,27.830918 c -2.327284,-0.195674 -4.72182,-0.05553 -7.170619,0.400886 -5.868786,1.094001 -10.302098,3.717482 -13.052462,7.881326 l -0.0019,0.02929 c -2.739438,4.148144 -3.46692,9.353388 -2.327269,15.467278 1.136709,6.098139 3.707586,10.70534 7.758393,13.603406 4.063248,2.876542 9.137897,3.74484 15.005803,2.651047 2.681209,-0.499788 5.16948,-1.348008 7.420653,-2.502278 2.246833,-1.170572 4.232466,-2.641203 5.953503,-4.417824 L 66.205226,60.5836 66.1176,60.107603 63.19116,44.4857 l -0.177095,-0.922708 -0.922707,0.177095 -12.912359,2.391463 -0.951996,0.175249 0.177095,0.922708 0.774098,4.047825 0.17525,0.951996 0.922706,-0.177095 7.110677,-1.316215 1.540815,8.212805 c -0.807588,0.635318 -1.68905,1.192606 -2.750387,1.649783 -1.233761,0.51492 -2.686264,0.939307 -4.372086,1.253546 -4.277234,0.797293 -7.525027,0.219333 -9.981347,-1.658127 -2.442428,-1.880841 -4.16285,-5.139442 -5.051016,-9.904235 -0.888705,-4.767616 -0.451904,-8.411444 1.136953,-11.043354 0.0046,-0.0076 -0.0028,-0.02166 0.0019,-0.02929 1.616967,-2.624755 4.439142,-4.360724 8.705254,-5.155974 2.150464,-0.400821 4.245047,-0.390636 6.322857,-0.01324 2.079105,0.37771 4.126564,1.113373 6.149614,2.269415 l 1.78796,1.024213 -0.372404,-2.022991 -0.963872,-5.235973 -0.115068,-0.507133 -0.48683,-0.207105 C 56.83409,28.53164 54.614995,28.023353 52.272957,27.830914 z"
       style="font-size:46.72305679px;font-style:normal;font-variant:normal;font-weight:normal;font-stretch:normal;text-indent:0;text-align:start;text-decoration:none;line-height:125%;letter-spacing:0px;word-spacing:0px;text-transform:none;direction:ltr;block-progression:tb;writing-mode:lr-tb;text-anchor:start;baseline-shift:baseline;opacity:0.2;color:#000000;fill:#000000;fill-opacity:1;fill-rule:nonzero;stroke:#000000;stroke-width:4;stroke-opacity:1;marker:none;visibility:visible;display:inline;overflow:visible;enable-background:accumulate;font-family:Sans;-inkscape-font-specification:Sans" />
    <path
       style="font-size:46.72305679px;font-style:normal;font-variant:normal;font-weight:normal;font-stretch:normal;text-indent:0;text-align:start;text-decoration:none;line-height:125%;letter-spacing:0px;word-spacing:0px;text-transform:none;direction:ltr;block-progression:tb;writing-mode:lr-tb;text-anchor:start;baseline-shift:baseline;opacity:0.2;color:#000000;fill:#000000;fill-opacity:1;fill-rule:nonzero;stroke:#000000;stroke-width:2;stroke-opacity:1;marker:none;visibility:visible;display:inline;overflow:visible;enable-background:accumulate;font-family:Sans;-inkscape-font-specification:Sans"
       d="m 52.272937,27.830918 c -2.327284,-0.195674 -4.72182,-0.05553 -7.170619,0.400886 -5.868786,1.094001 -10.302098,3.717482 -13.052462,7.881326 l -0.0019,0.02929 c -2.739438,4.148144 -3.46692,9.353388 -2.327269,15.467278 1.136709,6.098139 3.707586,10.70534 7.758393,13.603406 4.063248,2.876542 9.137897,3.74484 15.005803,2.651047 2.681209,-0.499788 5.16948,-1.348008 7.420653,-2.502278 2.246833,-1.170572 4.232466,-2.641203 5.953503,-4.417824 L 66.205226,60.5836 66.1176,60.107603 63.19116,44.4857 l -0.177095,-0.922708 -0.922707,0.177095 -12.912359,2.391463 -0.951996,0.175249 0.177095,0.922708 0.774098,4.047825 0.17525,0.951996 0.922706,-0.177095 7.110677,-1.316215 1.540815,8.212805 c -0.807588,0.635318 -1.68905,1.192606 -2.750387,1.649783 -1.233761,0.51492 -2.686264,0.939307 -4.372086,1.253546 -4.277234,0.797293 -7.525027,0.219333 -9.981347,-1.658127 -2.442428,-1.880841 -4.16285,-5.139442 -5.051016,-9.904235 -0.888705,-4.767616 -0.451904,-8.411444 1.136953,-11.043354 0.0046,-0.0076 -0.0028,-0.02166 0.0019,-0.02929 1.616967,-2.624755 4.439142,-4.360724 8.705254,-5.155974 2.150464,-0.400821 4.245047,-0.390636 6.322857,-0.01324 2.079105,0.37771 4.126564,1.113373 6.149614,2.269415 l 1.78796,1.024213 -0.372404,-2.022991 -0.963872,-5.235973 -0.115068,-0.507133 -0.48683,-0.207105 C 56.83409,28.53164 54.614995,28.023353 52.272957,27.830914 z"
       id="path3847"
       inkscape:connector-curvature="0" />
  </g>
  <path
     style="font-size:46.72305679px;font-style:normal;font-variant:normal;font-weight:normal;font-stretch:normal;text-indent:0;text-align:start;text-decoration:none;line-height:125%;letter-spacing:0px;word-spacing:0px;text-transform:none;direction:ltr;block-progression:tb;writing-mode:lr-tb;text-anchor:start;baseline-shift:baseline;color:#000000;fill:url(#radialGradient4007);fill-opacity:1;fill-rule:nonzero;stroke:none;stroke-width:2.02725148;marker:none;visibility:visible;display:inline;overflow:visible;enable-background:accumulate;font-family:Sans;-inkscape-font-specification:Sans"
     d="m 52.272937,27.830918 c -2.327284,-0.195674 -4.72182,-0.05553 -7.170619,0.400886 -5.868786,1.094001 -10.302098,3.717482 -13.052462,7.881326 l -0.0019,0.02929 c -2.739438,4.148144 -3.46692,9.353388 -2.327269,15.467278 1.136709,6.098139 3.707586,10.70534 7.758393,13.603406 4.063248,2.876542 9.137897,3.74484 15.005803,2.651047 2.681209,-0.499788 5.16948,-1.348008 7.420653,-2.502278 2.246833,-1.170572 4.232466,-2.641203 5.953503,-4.417824 L 66.205226,60.5836 66.1176,60.107603 63.19116,44.4857 l -0.177095,-0.922708 -0.922707,0.177095 -12.912359,2.391463 -0.951996,0.175249 0.177095,0.922708 0.774098,4.047825 0.17525,0.951996 0.922706,-0.177095 7.110677,-1.316215 1.540815,8.212805 c -0.807588,0.635318 -1.68905,1.192606 -2.750387,1.649783 -1.233761,0.51492 -2.686264,0.939307 -4.372086,1.253546 -4.277234,0.797293 -7.525027,0.219333 -9.981347,-1.658127 -2.442428,-1.880841 -4.16285,-5.139442 -5.051016,-9.904235 -0.888705,-4.767616 -0.451904,-8.411444 1.136953,-11.043354 0.0046,-0.0076 -0.0028,-0.02166 0.0019,-0.02929 1.616967,-2.624755 4.439142,-4.360724 8.705254,-5.155974 2.150464,-0.400821 4.245047,-0.390636 6.322857,-0.01324 2.079105,0.37771 4.126564,1.113373 6.149614,2.269415 l 1.78796,1.024213 -0.372404,-2.022991 -0.963872,-5.235973 -0.115068,-0.507133 -0.48683,-0.207105 c -2.105082,-0.836718 -4.324177,-1.345005 -6.666215,-1.537444 z"
     id="path3993"
     inkscape:connector-curvature="0" />
</svg>
