<?xml version="1.0" encoding="UTF-8" standalone="no"?>
<svg
   xmlns:dc="http://purl.org/dc/elements/1.1/"
   xmlns:cc="http://creativecommons.org/ns#"
   xmlns:rdf="http://www.w3.org/1999/02/22-rdf-syntax-ns#"
   xmlns:svg="http://www.w3.org/2000/svg"
   xmlns="http://www.w3.org/2000/svg"
   xmlns:xlink="http://www.w3.org/1999/xlink"
   xmlns:sodipodi="http://sodipodi.sourceforge.net/DTD/sodipodi-0.dtd"
   xmlns:inkscape="http://www.inkscape.org/namespaces/inkscape"
   version="1.0"
   width="96"
   height="96"
   id="svg2408"
   sodipodi:docname="gtkwave.svg"
   inkscape:version="0.92.1 r">
  <sodipodi:namedview
     pagecolor="#fefefe"
     bordercolor="#666666"
     borderopacity="1"
     objecttolerance="10"
     gridtolerance="10"
     guidetolerance="10"
     inkscape:pageopacity="0"
     inkscape:pageshadow="2"
     inkscape:window-width="1920"
     inkscape:window-height="1011"
     id="namedview210"
     showgrid="false"
     inkscape:zoom="4.9166667"
     inkscape:cx="91.678615"
     inkscape:cy="34.089355"
     inkscape:window-x="0"
     inkscape:window-y="32"
     inkscape:window-maximized="1"
     inkscape:current-layer="layer1" />
  <defs
     id="defs2410">
    <linearGradient
       id="linearGradient4643">
      <stop
         id="stop4639"
         offset="0"
         style="stop-color:#00a9ff;stop-opacity:1" />
      <stop
         id="stop4641"
         offset="1"
         style="stop-color:#00d6ff;stop-opacity:1" />
    </linearGradient>
    <linearGradient
       id="linearGradient4640">
      <stop
         style="stop-color:#ababab;stop-opacity:1"
         offset="0"
         id="stop4636" />
      <stop
         style="stop-color:#fefefe;stop-opacity:1"
         offset="1"
         id="stop4638" />
    </linearGradient>
    <linearGradient
       gradientTransform="scale(1.0058652,0.994169)"
       gradientUnits="userSpaceOnUse"
       id="linearGradient4750"
       y2="7.0165396"
       x2="45.447727"
       y1="92.539597"
       x1="45.447727">
      <stop
         offset="0"
         style="stop-color:#323232;stop-opacity:1"
         id="stop4746" />
      <stop
         offset="1"
         style="stop-color:#505050;stop-opacity:0.96862745"
         id="stop4748" />
    </linearGradient>
    <linearGradient
       id="linearGradient3805">
      <stop
         id="stop3807"
         style="stop-color:#d40000;stop-opacity:1"
         offset="0" />
      <stop
         id="stop3809"
         style="stop-color:#d40000;stop-opacity:0"
         offset="1" />
    </linearGradient>
    <linearGradient
       id="linearGradient3797">
      <stop
         id="stop3799"
         style="stop-color:#ff6600;stop-opacity:1"
         offset="0" />
      <stop
         id="stop3801"
         style="stop-color:#ff6600;stop-opacity:0"
         offset="1" />
    </linearGradient>
    <linearGradient
       id="linearGradient3789">
      <stop
         id="stop3791"
         style="stop-color:#ff992a;stop-opacity:1"
         offset="0" />
      <stop
         id="stop3793"
         style="stop-color:#ff992a;stop-opacity:0"
         offset="1" />
    </linearGradient>
    <linearGradient
       id="linearGradient3781">
      <stop
         id="stop3783"
         style="stop-color:#ffd42a;stop-opacity:1"
         offset="0" />
      <stop
         id="stop3785"
         style="stop-color:#ffd42a;stop-opacity:0"
         offset="1" />
    </linearGradient>
    <linearGradient
       id="linearGradient3773">
      <stop
         id="stop3775"
         style="stop-color:#aad400;stop-opacity:1"
         offset="0" />
      <stop
         id="stop3777"
         style="stop-color:#aad400;stop-opacity:0"
         offset="1" />
    </linearGradient>
    <linearGradient
       id="linearGradient3765">
      <stop
         id="stop3767"
         style="stop-color:#53df53;stop-opacity:1"
         offset="0" />
      <stop
         id="stop3769"
         style="stop-color:#53df53;stop-opacity:0"
         offset="1" />
    </linearGradient>
    <linearGradient
       id="linearGradient3757">
      <stop
         id="stop3759"
         style="stop-color:#70e4cd;stop-opacity:1"
         offset="0" />
      <stop
         id="stop3761"
         style="stop-color:#70e4cd;stop-opacity:0"
         offset="1" />
    </linearGradient>
    <linearGradient
       id="linearGradient3748">
      <stop
         id="stop3751"
         style="stop-color:#37abc8;stop-opacity:1"
         offset="0" />
      <stop
         id="stop3753"
         style="stop-color:#37abc8;stop-opacity:0"
         offset="1" />
    </linearGradient>
    <linearGradient
       id="linearGradient3740">
      <stop
         id="stop3742"
         style="stop-color:#5599ff;stop-opacity:1"
         offset="0" />
      <stop
         id="stop3744"
         style="stop-color:#5599ff;stop-opacity:0"
         offset="1" />
    </linearGradient>
    <linearGradient
       id="linearGradient3732">
      <stop
         id="stop3734"
         style="stop-color:#8d5fd3;stop-opacity:1"
         offset="0" />
      <stop
         id="stop3736"
         style="stop-color:#8d5fd3;stop-opacity:0"
         offset="1" />
    </linearGradient>
    <linearGradient
       id="linearGradient3724">
      <stop
         id="stop3726"
         style="stop-color:#d35fbc;stop-opacity:1"
         offset="0" />
      <stop
         id="stop3728"
         style="stop-color:#d35fbc;stop-opacity:0"
         offset="1" />
    </linearGradient>
    <linearGradient
       id="linearGradient3716">
      <stop
         id="stop3718"
         style="stop-color:#c83771;stop-opacity:1"
         offset="0" />
      <stop
         id="stop3720"
         style="stop-color:#c83771;stop-opacity:0"
         offset="1" />
    </linearGradient>
    <linearGradient
       id="linearGradient3668">
      <stop
         id="stop3670"
         style="stop-color:#000000;stop-opacity:1"
         offset="0" />
      <stop
         id="stop3672"
         style="stop-color:#000000;stop-opacity:0"
         offset="1" />
    </linearGradient>
    <linearGradient
       id="linearGradient3658">
      <stop
         id="stop3660"
         style="stop-color:#373795;stop-opacity:1"
         offset="0" />
      <stop
         id="stop3662"
         style="stop-color:#7343bc;stop-opacity:1"
         offset="0.5" />
      <stop
         id="stop3664"
         style="stop-color:#c83737;stop-opacity:1"
         offset="1" />
    </linearGradient>
    <linearGradient
       id="linearGradient3673">
      <stop
         id="stop3675"
         style="stop-color:#ffeeaa;stop-opacity:1"
         offset="0" />
      <stop
         id="stop3677"
         style="stop-color:#ffeeaa;stop-opacity:0"
         offset="1" />
    </linearGradient>
    <linearGradient
       id="linearGradient3663">
      <stop
         id="stop3665"
         style="stop-color:#f73c00;stop-opacity:1"
         offset="0" />
      <stop
         id="stop3669"
         style="stop-color:#b61100;stop-opacity:1"
         offset="0.71272212" />
      <stop
         id="stop3667"
         style="stop-color:#9c0000;stop-opacity:1"
         offset="1" />
    </linearGradient>
    <linearGradient
       id="linearGradient3630">
      <stop
         id="stop3632"
         style="stop-color:#dedede;stop-opacity:1"
         offset="0" />
      <stop
         id="stop3634"
         style="stop-color:#fefefe;stop-opacity:1"
         offset="1" />
    </linearGradient>
    <linearGradient
       id="linearGradient3655">
      <stop
         id="stop3657"
         style="stop-color:#f73c00;stop-opacity:1"
         offset="0" />
      <stop
         id="stop3659"
         style="stop-color:#9c0000;stop-opacity:1"
         offset="1" />
    </linearGradient>
    <linearGradient
       x1="45.447727"
       y1="92.539597"
       x2="45.447727"
       y2="7.0165396"
       id="ButtonShadow"
       gradientUnits="userSpaceOnUse"
       gradientTransform="scale(1.0058652,0.994169)">
      <stop
         id="stop3750"
         style="stop-color:#000000;stop-opacity:1"
         offset="0" />
      <stop
         id="stop3752"
         style="stop-color:#000000;stop-opacity:0.58823532"
         offset="1" />
    </linearGradient>
    <linearGradient
       id="linearGradient3737">
      <stop
         id="stop3739"
         style="stop-color:#fefefe;stop-opacity:1"
         offset="0" />
      <stop
         id="stop3741"
         style="stop-color:#fefefe;stop-opacity:0"
         offset="1" />
    </linearGradient>
    <linearGradient
       id="linearGradient3700">
      <stop
         id="stop3702"
         style="stop-color:#1f1f1f;stop-opacity:1"
         offset="0" />
      <stop
         id="stop3704"
         style="stop-color:#191919;stop-opacity:1"
         offset="1" />
    </linearGradient>
    <filter
       color-interpolation-filters="sRGB"
       id="filter3174">
      <feGaussianBlur
         id="feGaussianBlur3176"
         stdDeviation="1.71" />
    </filter>
    <linearGradient
       x1="36.357143"
       y1="6"
       x2="36.357143"
       y2="63.893143"
       id="linearGradient3188"
       xlink:href="#linearGradient3737"
       gradientUnits="userSpaceOnUse" />
    <filter
       x="-0.192"
       y="-0.192"
       width="1.3839999"
       height="1.3839999"
       color-interpolation-filters="sRGB"
       id="filter3794">
      <feGaussianBlur
         id="feGaussianBlur3796"
         stdDeviation="5.28" />
    </filter>
    <linearGradient
       x1="48"
       y1="20.220806"
       x2="48"
       y2="138.66119"
       id="linearGradient3613"
       xlink:href="#linearGradient3737"
       gradientUnits="userSpaceOnUse" />
    <radialGradient
       cx="48"
       cy="90.171875"
       r="42"
       fx="48"
       fy="90.171875"
       id="radialGradient3619"
       xlink:href="#linearGradient3737"
       gradientUnits="userSpaceOnUse"
       gradientTransform="matrix(1.1573129,0,0,0.99590774,-7.5510206,0.19713193)" />
    <clipPath
       id="clipPath3613">
      <rect
         width="84"
         height="84"
         rx="6"
         ry="6"
         x="6"
         y="6"
         id="rect3615"
         style="fill:#fefefe;fill-opacity:1;fill-rule:nonzero;stroke:none" />
    </clipPath>
    <linearGradient
       x1="6.5714288"
       y1="48.035713"
       x2="88.898651"
       y2="48.035713"
       id="linearGradient3617"
       xlink:href="#linearGradient3658"
       gradientUnits="userSpaceOnUse"
       gradientTransform="translate(0,-100)" />
    <filter
       color-interpolation-filters="sRGB"
       id="filter3680">
      <feGaussianBlur
         id="feGaussianBlur3682"
         stdDeviation="0.71783716" />
    </filter>
    <radialGradient
       cx="28.125"
       cy="74.094757"
       r="12.053572"
       fx="28.125"
       fy="74.094757"
       id="radialGradient3691"
       xlink:href="#linearGradient3663"
       gradientUnits="userSpaceOnUse"
       gradientTransform="matrix(1.4729191,0,0,1.2638196,-13.300848,-19.750136)" />
    <linearGradient
       x1="55.939182"
       y1="22.032881"
       x2="55.939182"
       y2="76.053574"
       id="linearGradient3636"
       xlink:href="#linearGradient3630"
       gradientUnits="userSpaceOnUse" />
    <radialGradient
       cx="28.125"
       cy="75.058144"
       r="12.053572"
       fx="28.125"
       fy="75.058144"
       id="radialGradient2871"
       xlink:href="#linearGradient3655"
       gradientUnits="userSpaceOnUse"
       gradientTransform="matrix(1.5148225,-8.9895646e-8,6.7407404e-8,1.1024691,-14.479387,-7.7949104)" />
    <linearGradient
       x1="16.071428"
       y1="68.053574"
       x2="40.178574"
       y2="68.053574"
       id="linearGradient2873"
       xlink:href="#linearGradient3737"
       gradientUnits="userSpaceOnUse" />
    <linearGradient
       x1="16.071428"
       y1="68.053574"
       x2="40.178574"
       y2="68.053574"
       id="linearGradient3679"
       xlink:href="#linearGradient3673"
       gradientUnits="userSpaceOnUse" />
    <linearGradient
       x1="48"
       y1="90"
       x2="48"
       y2="5.9877172"
       id="linearGradient2882"
       xlink:href="#linearGradient3700"
       gradientUnits="userSpaceOnUse"
       gradientTransform="translate(100,0)" />
    <linearGradient
       x1="6"
       y1="48"
       x2="90"
       y2="48"
       id="linearGradient3674"
       xlink:href="#linearGradient3668"
       gradientUnits="userSpaceOnUse"
       gradientTransform="translate(4,0)" />
    <linearGradient
       x1="48"
       y1="90"
       x2="48"
       y2="5.9877172"
       id="linearGradient3680"
       xlink:href="#linearGradient4750"
       gradientUnits="userSpaceOnUse" />
    <clipPath
       id="clipPath2926">
      <rect
         width="84"
         height="84"
         rx="6"
         ry="6"
         x="6"
         y="6"
         id="rect2928"
         style="fill:url(#linearGradient2930);fill-opacity:1;fill-rule:nonzero;stroke:none;display:inline" />
    </clipPath>
    <linearGradient
       x1="48"
       y1="90"
       x2="48"
       y2="5.9877172"
       id="linearGradient2930"
       xlink:href="#linearGradient3700"
       gradientUnits="userSpaceOnUse" />
    <linearGradient
       x1="9.2829962"
       y1="54.56599"
       x2="9.2829962"
       y2="30.797007"
       id="linearGradient3839"
       xlink:href="#linearGradient3716"
       gradientUnits="userSpaceOnUse" />
    <linearGradient
       x1="16.535534"
       y1="62.394672"
       x2="16.535534"
       y2="40.421619"
       id="linearGradient3841"
       xlink:href="#linearGradient3724"
       gradientUnits="userSpaceOnUse" />
    <linearGradient
       x1="22.525381"
       y1="66.206116"
       x2="22.525381"
       y2="32.08049"
       id="linearGradient3843"
       xlink:href="#linearGradient3732"
       gradientUnits="userSpaceOnUse" />
    <linearGradient
       x1="29.77792"
       y1="54.060917"
       x2="29.77792"
       y2="23.20402"
       id="linearGradient3845"
       xlink:href="#linearGradient3740"
       gradientUnits="userSpaceOnUse" />
    <linearGradient
       x1="37.030457"
       y1="68.960663"
       x2="37.030457"
       y2="46.717045"
       id="linearGradient3847"
       xlink:href="#linearGradient3748"
       gradientUnits="userSpaceOnUse" />
    <linearGradient
       x1="44.282997"
       y1="64.162437"
       x2="44.282997"
       y2="37.391563"
       id="linearGradient3849"
       xlink:href="#linearGradient3757"
       gradientUnits="userSpaceOnUse" />
    <linearGradient
       x1="51.282997"
       y1="60.879444"
       x2="51.282997"
       y2="12.370317"
       id="linearGradient3851"
       xlink:href="#linearGradient3765"
       gradientUnits="userSpaceOnUse" />
    <linearGradient
       x1="57.525383"
       y1="65.677666"
       x2="57.525383"
       y2="27.464857"
       id="linearGradient3853"
       xlink:href="#linearGradient3773"
       gradientUnits="userSpaceOnUse" />
    <linearGradient
       x1="64.777916"
       y1="63.909901"
       x2="64.777916"
       y2="35.095482"
       id="linearGradient3855"
       xlink:href="#linearGradient3781"
       gradientUnits="userSpaceOnUse" />
    <linearGradient
       x1="72.788071"
       y1="60.12183"
       x2="72.788071"
       y2="18.954224"
       id="linearGradient3857"
       xlink:href="#linearGradient3789"
       gradientUnits="userSpaceOnUse" />
    <linearGradient
       x1="78.272842"
       y1="58.354065"
       x2="78.272842"
       y2="40.421116"
       id="linearGradient3859"
       xlink:href="#linearGradient3797"
       gradientUnits="userSpaceOnUse" />
    <linearGradient
       x1="85.525383"
       y1="60.879444"
       x2="85.525383"
       y2="34.361088"
       id="linearGradient3861"
       xlink:href="#linearGradient3805"
       gradientUnits="userSpaceOnUse" />
    <linearGradient
       x1="48"
       y1="53.929901"
       x2="48"
       y2="39.200184"
       id="linearGradient3869"
       xlink:href="#linearGradient3668"
       gradientUnits="userSpaceOnUse"
       gradientTransform="translate(0,36)" />
    <linearGradient
       x1="45.447727"
       y1="92.539597"
       x2="45.447727"
       y2="7.0165396"
       id="ButtonShadow-0"
       gradientUnits="userSpaceOnUse"
       gradientTransform="matrix(1.0058652,0,0,0.994169,100,0)">
      <stop
         id="stop3750-8"
         style="stop-color:#000000;stop-opacity:1"
         offset="0" />
      <stop
         id="stop3752-5"
         style="stop-color:#000000;stop-opacity:0.58823532"
         offset="1" />
    </linearGradient>
    <linearGradient
       x1="32.251034"
       y1="6.1317081"
       x2="32.251034"
       y2="90.238609"
       id="linearGradient3780"
       xlink:href="#ButtonShadow-0"
       gradientUnits="userSpaceOnUse"
       gradientTransform="matrix(1.0238095,0,0,1.0119048,-1.1428571,-98.071429)" />
    <linearGradient
       x1="32.251034"
       y1="6.1317081"
       x2="32.251034"
       y2="90.238609"
       id="linearGradient3772"
       xlink:href="#ButtonShadow-0"
       gradientUnits="userSpaceOnUse"
       gradientTransform="matrix(1.0238095,0,0,1.0119048,-1.1428571,-98.071429)" />
    <linearGradient
       x1="32.251034"
       y1="6.1317081"
       x2="32.251034"
       y2="90.238609"
       id="linearGradient3725"
       xlink:href="#ButtonShadow-0"
       gradientUnits="userSpaceOnUse"
       gradientTransform="matrix(1.0238095,0,0,1.0119048,-1.1428571,-98.071429)" />
    <linearGradient
       x1="32.251034"
       y1="6.1317081"
       x2="32.251034"
       y2="90.238609"
       id="linearGradient3721"
       xlink:href="#ButtonShadow-0"
       gradientUnits="userSpaceOnUse"
       gradientTransform="translate(0,-97)" />
    <linearGradient
       x1="32.251034"
       y1="6.1317081"
       x2="32.251034"
       y2="90.238609"
       id="linearGradient3020"
       xlink:href="#ButtonShadow-0"
       gradientUnits="userSpaceOnUse"
       gradientTransform="matrix(1.0238095,0,0,1.0119048,-1.1428571,-98.071429)" />
    <linearGradient
       xlink:href="#linearGradient4640"
       id="linearGradient4642"
       x1="125.82489"
       y1="107.08343"
       x2="126.30591"
       y2="-48.713184"
       gradientUnits="userSpaceOnUse"
       gradientTransform="matrix(0.38119876,0,0,0.38119876,-0.20197716,38.061802)" />
    <linearGradient
       gradientUnits="userSpaceOnUse"
       y2="59.909482"
       x2="52.55184"
       y1="59.909482"
       x1="13.307925"
       id="linearGradient4645"
       xlink:href="#linearGradient4643" />
    <linearGradient
       gradientUnits="userSpaceOnUse"
       y2="59.909481"
       x2="52.551842"
       y1="59.909481"
       x1="13.307925"
       id="linearGradient4645-6"
       xlink:href="#linearGradient4643"
       gradientTransform="matrix(0.76444973,0,0,0.76444973,37.538802,-18.031313)" />
    <linearGradient
       x1="78"
       y1="48"
       x2="78"
       y2="60"
       id="linearGradient4059-2"
       xlink:href="#linearGradient4053-8"
       gradientUnits="userSpaceOnUse" />
    <linearGradient
       id="linearGradient4053-8">
      <stop
         id="stop4055-2"
         style="stop-color:#ff0000;stop-opacity:1"
         offset="0" />
      <stop
         id="stop4057-8"
         style="stop-color:#ff006b;stop-opacity:1"
         offset="1" />
    </linearGradient>
    <linearGradient
       x1="71"
       y1="34"
       x2="77"
       y2="45"
       id="linearGradient4051-9"
       xlink:href="#linearGradient4045-8"
       gradientUnits="userSpaceOnUse" />
    <linearGradient
       id="linearGradient4045-8">
      <stop
         id="stop4047-7"
         style="stop-color:#ff8200;stop-opacity:1"
         offset="0" />
      <stop
         id="stop4049-9"
         style="stop-color:#ff4700;stop-opacity:1"
         offset="1" />
    </linearGradient>
    <linearGradient
       x1="58"
       y1="25"
       x2="68"
       y2="31"
       id="linearGradient4043-7"
       xlink:href="#linearGradient4037-7"
       gradientUnits="userSpaceOnUse" />
    <linearGradient
       id="linearGradient4037-7">
      <stop
         id="stop4039-4"
         style="stop-color:#ffd500;stop-opacity:1"
         offset="0" />
      <stop
         id="stop4041-5"
         style="stop-color:#ff9a00;stop-opacity:1"
         offset="1" />
    </linearGradient>
    <linearGradient
       x1="42"
       y1="32"
       x2="54"
       y2="32"
       id="linearGradient4035-4"
       xlink:href="#linearGradient4029-7"
       gradientUnits="userSpaceOnUse" />
    <linearGradient
       id="linearGradient4029-7">
      <stop
         id="stop4031-8"
         style="stop-color:#46cc00;stop-opacity:1"
         offset="0" />
      <stop
         id="stop4033-7"
         style="stop-color:#85cc00;stop-opacity:1"
         offset="1" />
    </linearGradient>
    <linearGradient
       x1="28"
       y1="31"
       x2="38.099506"
       y2="25.169048"
       id="linearGradient4027-3"
       xlink:href="#linearGradient4021-8"
       gradientUnits="userSpaceOnUse" />
    <linearGradient
       id="linearGradient4021-8">
      <stop
         id="stop4023-1"
         style="stop-color:#00b4b4;stop-opacity:1"
         offset="0" />
      <stop
         id="stop4025-7"
         style="stop-color:#00b464;stop-opacity:1"
         offset="1" />
    </linearGradient>
    <linearGradient
       x1="19"
       y1="44"
       x2="25"
       y2="34"
       id="linearGradient4019-7"
       xlink:href="#linearGradient4013-8"
       gradientUnits="userSpaceOnUse" />
    <linearGradient
       id="linearGradient4013-8">
      <stop
         id="stop4015-9"
         style="stop-color:#004bcc;stop-opacity:1"
         offset="0" />
      <stop
         id="stop4017-7"
         style="stop-color:#0e67ff;stop-opacity:1"
         offset="1" />
    </linearGradient>
    <linearGradient
       x1="18"
       y1="60"
       x2="18"
       y2="47.958405"
       id="linearGradient4121-7"
       xlink:href="#linearGradient4005-1"
       gradientUnits="userSpaceOnUse" />
    <linearGradient
       id="linearGradient4005-1">
      <stop
         id="stop4007-6"
         style="stop-color:#661c99;stop-opacity:1"
         offset="0" />
      <stop
         id="stop4009-0"
         style="stop-color:#5e12ac;stop-opacity:1"
         offset="1" />
    </linearGradient>
    <linearGradient
       x1="78"
       y1="48"
       x2="78"
       y2="60"
       id="linearGradient4059-2-3"
       xlink:href="#linearGradient4053-8"
       gradientUnits="userSpaceOnUse" />
    <linearGradient
       x1="71"
       y1="34"
       x2="77"
       y2="45"
       id="linearGradient4051-9-5"
       xlink:href="#linearGradient4045-8"
       gradientUnits="userSpaceOnUse" />
    <linearGradient
       x1="58"
       y1="25"
       x2="68"
       y2="31"
       id="linearGradient4043-7-6"
       xlink:href="#linearGradient4037-7"
       gradientUnits="userSpaceOnUse" />
    <linearGradient
       x1="42"
       y1="32"
       x2="54"
       y2="32"
       id="linearGradient4035-4-1"
       xlink:href="#linearGradient4029-7"
       gradientUnits="userSpaceOnUse" />
    <linearGradient
       x1="28"
       y1="31"
       x2="38.099506"
       y2="25.169048"
       id="linearGradient4027-3-0"
       xlink:href="#linearGradient4021-8"
       gradientUnits="userSpaceOnUse" />
    <linearGradient
       x1="19"
       y1="44"
       x2="25"
       y2="34"
       id="linearGradient4019-7-6"
       xlink:href="#linearGradient4013-8"
       gradientUnits="userSpaceOnUse" />
    <linearGradient
       x1="18"
       y1="60"
       x2="18"
       y2="47.958405"
       id="linearGradient4121-7-2"
       xlink:href="#linearGradient4005-1"
       gradientUnits="userSpaceOnUse" />
    <linearGradient
       x1="78"
       y1="48"
       x2="78"
       y2="60"
       id="linearGradient4059-2-2"
       xlink:href="#linearGradient4053-8"
       gradientUnits="userSpaceOnUse" />
    <linearGradient
       x1="71"
       y1="34"
       x2="77"
       y2="45"
       id="linearGradient4051-9-7"
       xlink:href="#linearGradient4045-8"
       gradientUnits="userSpaceOnUse" />
    <linearGradient
       x1="58"
       y1="25"
       x2="68"
       y2="31"
       id="linearGradient4043-7-1"
       xlink:href="#linearGradient4037-7"
       gradientUnits="userSpaceOnUse" />
    <linearGradient
       x1="42"
       y1="32"
       x2="54"
       y2="32"
       id="linearGradient4035-4-3"
       xlink:href="#linearGradient4029-7"
       gradientUnits="userSpaceOnUse" />
    <linearGradient
       x1="28"
       y1="31"
       x2="38.099506"
       y2="25.169048"
       id="linearGradient4027-3-4"
       xlink:href="#linearGradient4021-8"
       gradientUnits="userSpaceOnUse" />
    <linearGradient
       x1="19"
       y1="44"
       x2="25"
       y2="34"
       id="linearGradient4019-7-4"
       xlink:href="#linearGradient4013-8"
       gradientUnits="userSpaceOnUse" />
    <linearGradient
       x1="18"
       y1="60"
       x2="18"
       y2="47.958405"
       id="linearGradient4121-7-3"
       xlink:href="#linearGradient4005-1"
       gradientUnits="userSpaceOnUse" />
    <filter
       height="1.4853142"
       y="-0.24265714"
       width="1.2831"
       x="-0.14155"
       id="filter4818"
       style="color-interpolation-filters:sRGB">
      <feGaussianBlur
         id="feGaussianBlur4820"
         stdDeviation="4.7838151" />
    </filter>
    <filter
       inkscape:collect="always"
       style="color-interpolation-filters:sRGB"
       id="filter5501"
       x="-0.050683158"
       width="1.1013663"
       y="-0.081163153"
       height="1.1623263">
      <feGaussianBlur
         inkscape:collect="always"
         stdDeviation="1.739726"
         id="feGaussianBlur5503" />
    </filter>
  </defs>
  <metadata
     id="metadata2413">
    <rdf:RDF>
      <cc:Work
         rdf:about="">
        <dc:format>image/svg+xml</dc:format>
        <dc:type
           rdf:resource="http://purl.org/dc/dcmitype/StillImage" />
        <dc:title></dc:title>
      </cc:Work>
    </rdf:RDF>
  </metadata>
  <g
     id="layer2"
     style="display:none">
    <rect
       width="86"
       height="85"
       rx="6"
       ry="6"
       x="5"
       y="7"
       id="rect3745"
       style="opacity:0.9;fill:url(#ButtonShadow);fill-opacity:1;fill-rule:nonzero;stroke:none;filter:url(#filter3174)" />
  </g>
  <g
     id="layer4"
     style="display:inline"
     transform="translate(0,-1)">
    <path
       d="m 12,-95.03125 c -5.5110903,0 -10.03125,4.52016 -10.03125,10.03125 v 71 c 0,5.5110902 4.5201598,10.03125 10.03125,10.03125 h 72 c 5.51109,0 10.03125,-4.5201597 10.03125,-10.03125 v -71 c 0,-5.51109 -4.52016,-10.03125 -10.03125,-10.03125 z"
       transform="scale(1,-1)"
       id="path3786"
       style="display:inline;opacity:0.07999998;fill:url(#linearGradient3020);fill-opacity:1;fill-rule:nonzero;stroke:none"
       inkscape:connector-curvature="0" />
    <path
       d="m 12,-94.03125 c -4.971633,0 -9.03125,4.059617 -9.03125,9.03125 v 71 c 0,4.9716329 4.0596171,9.03125 9.03125,9.03125 h 72 c 4.971633,0 9.03125,-4.059617 9.03125,-9.03125 v -71 c 0,-4.971633 -4.059617,-9.03125 -9.03125,-9.03125 z"
       transform="scale(1,-1)"
       id="path3778"
       style="display:inline;opacity:0.1;fill:url(#linearGradient3780);fill-opacity:1;fill-rule:nonzero;stroke:none"
       inkscape:connector-curvature="0" />
    <path
       d="m 12,-93 c -4.4091333,0 -8,3.590867 -8,8 v 71 c 0,4.4091333 3.5908667,8 8,8 h 72 c 4.409133,0 8,-3.5908667 8,-8 v -71 c 0,-4.409133 -3.590867,-8 -8,-8 z"
       transform="scale(1,-1)"
       id="path3770"
       style="display:inline;opacity:0.2;fill:url(#linearGradient3772);fill-opacity:1;fill-rule:nonzero;stroke:none"
       inkscape:connector-curvature="0" />
    <rect
       width="86"
       height="85"
       rx="7"
       ry="7"
       x="5"
       y="-92"
       transform="scale(1,-1)"
       id="rect3723"
       style="display:inline;opacity:0.3;fill:url(#linearGradient3725);fill-opacity:1;fill-rule:nonzero;stroke:none" />
    <rect
       width="84"
       height="84"
       rx="6"
       ry="6"
       x="6"
       y="-91"
       transform="scale(1,-1)"
       id="rect3716"
       style="display:inline;opacity:0.45;fill:url(#linearGradient3721);fill-opacity:1;fill-rule:nonzero;stroke:none" />
  </g>
  <g
     id="layer1">
    <rect
       width="84"
       height="84"
       rx="6"
       ry="6"
       x="6"
       y="6"
       id="rect3677"
       style="fill:url(#linearGradient3680);fill-opacity:1;fill-rule:nonzero;stroke:none" />
    <path
       d="M 12,6 C 8.676,6 6,8.676 6,12 v 2 68 2 c 0,0.334721 0.04135,0.6507 0.09375,0.96875 0.0487,0.295596 0.09704,0.596915 0.1875,0.875 0.00988,0.03038 0.020892,0.0636 0.03125,0.09375 0.098865,0.287771 0.2348802,0.547452 0.375,0.8125 0.1445918,0.273507 0.3156161,0.535615 0.5,0.78125 0.1843839,0.245635 0.3737765,0.473472 0.59375,0.6875 0.439947,0.428056 0.94291,0.814526 1.5,1.09375 0.278545,0.139612 0.5734731,0.246947 0.875,0.34375 -0.2562018,-0.100222 -0.4867109,-0.236272 -0.71875,-0.375 -0.00741,-0.0044 -0.023866,0.0045 -0.03125,0 -0.031933,-0.0193 -0.062293,-0.04251 -0.09375,-0.0625 -0.120395,-0.0767 -0.2310226,-0.163513 -0.34375,-0.25 -0.1061728,-0.0808 -0.2132809,-0.161112 -0.3125,-0.25 C 8.4783201,88.557317 8.3087904,88.373362 8.15625,88.1875 8.0486711,88.057245 7.9378561,87.922215 7.84375,87.78125 7.818661,87.74287 7.805304,87.69538 7.78125,87.65625 7.716487,87.553218 7.6510225,87.451733 7.59375,87.34375 7.4927417,87.149044 7.3880752,86.928049 7.3125,86.71875 7.30454,86.69694 7.288911,86.6782 7.28125,86.65625 7.2494249,86.5643 7.2454455,86.469419 7.21875,86.375 7.1884177,86.268382 7.1483606,86.171969 7.125,86.0625 7.0521214,85.720988 7,85.364295 7,85 V 83 15 13 C 7,10.218152 9.2181517,8 12,8 h 2 68 2 c 2.781848,0 5,2.218152 5,5 v 2 68 2 c 0,0.364295 -0.05212,0.720988 -0.125,1.0625 -0.04415,0.206893 -0.08838,0.397658 -0.15625,0.59375 -0.0077,0.02195 -0.0233,0.04069 -0.03125,0.0625 -0.06274,0.173739 -0.138383,0.367449 -0.21875,0.53125 -0.04158,0.0828 -0.07904,0.169954 -0.125,0.25 -0.0546,0.09721 -0.126774,0.18835 -0.1875,0.28125 -0.09411,0.140965 -0.204921,0.275995 -0.3125,0.40625 -0.143174,0.17445 -0.303141,0.346998 -0.46875,0.5 -0.01117,0.0102 -0.01998,0.02115 -0.03125,0.03125 -0.138386,0.125556 -0.285091,0.234436 -0.4375,0.34375 -0.102571,0.07315 -0.204318,0.153364 -0.3125,0.21875 -0.0074,0.0045 -0.02384,-0.0044 -0.03125,0 -0.232039,0.138728 -0.462548,0.274778 -0.71875,0.375 0.301527,-0.0968 0.596455,-0.204138 0.875,-0.34375 0.55709,-0.279224 1.060053,-0.665694 1.5,-1.09375 0.219973,-0.214028 0.409366,-0.441865 0.59375,-0.6875 0.184384,-0.245635 0.355408,-0.507743 0.5,-0.78125 0.14012,-0.265048 0.276135,-0.524729 0.375,-0.8125 0.01041,-0.03078 0.02133,-0.06274 0.03125,-0.09375 0.09046,-0.278085 0.1388,-0.579404 0.1875,-0.875 C 89.95865,84.6507 90,84.334721 90,84 V 82 14 12 C 90,8.676 87.324,6 84,6 Z"
       id="rect3728"
       style="opacity:0.2;fill:url(#linearGradient3188);fill-opacity:1;fill-rule:nonzero;stroke:none" />
    <path
       d="M 12,90 C 8.676,90 6,87.324 6,84 V 82 14 12 c 0,-0.334721 0.04135,-0.6507 0.09375,-0.96875 0.0487,-0.295596 0.09704,-0.596915 0.1875,-0.875 C 6.29113,10.12587 6.302142,10.09265 6.3125,10.0625 6.411365,9.774729 6.5473802,9.515048 6.6875,9.25 6.8320918,8.976493 7.0031161,8.714385 7.1875,8.46875 7.3718839,8.223115 7.5612765,7.995278 7.78125,7.78125 8.221197,7.353194 8.72416,6.966724 9.28125,6.6875 9.559795,6.547888 9.8547231,6.440553 10.15625,6.34375 9.9000482,6.443972 9.6695391,6.580022 9.4375,6.71875 c -0.00741,0.0044 -0.023866,-0.0045 -0.03125,0 -0.031933,0.0193 -0.062293,0.04251 -0.09375,0.0625 -0.120395,0.0767 -0.2310226,0.163513 -0.34375,0.25 -0.1061728,0.0808 -0.2132809,0.161112 -0.3125,0.25 C 8.4783201,7.442683 8.3087904,7.626638 8.15625,7.8125 8.0486711,7.942755 7.9378561,8.077785 7.84375,8.21875 7.818661,8.25713 7.805304,8.30462 7.78125,8.34375 7.716487,8.446782 7.6510225,8.548267 7.59375,8.65625 7.4927417,8.850956 7.3880752,9.071951 7.3125,9.28125 7.30454,9.30306 7.288911,9.3218 7.28125,9.34375 7.2494249,9.4357 7.2454455,9.530581 7.21875,9.625 7.1884177,9.731618 7.1483606,9.828031 7.125,9.9375 7.0521214,10.279012 7,10.635705 7,11 v 2 68 2 c 0,2.781848 2.2181517,5 5,5 h 2 68 2 c 2.781848,0 5,-2.218152 5,-5 V 81 13 11 C 89,10.635705 88.94788,10.279012 88.875,9.9375 88.83085,9.730607 88.78662,9.539842 88.71875,9.34375 88.71105,9.3218 88.69545,9.30306 88.6875,9.28125 88.62476,9.107511 88.549117,8.913801 88.46875,8.75 88.42717,8.6672 88.38971,8.580046 88.34375,8.5 88.28915,8.40279 88.216976,8.31165 88.15625,8.21875 88.06214,8.077785 87.951329,7.942755 87.84375,7.8125 87.700576,7.63805 87.540609,7.465502 87.375,7.3125 87.36383,7.3023 87.35502,7.29135 87.34375,7.28125 87.205364,7.155694 87.058659,7.046814 86.90625,6.9375 86.803679,6.86435 86.701932,6.784136 86.59375,6.71875 c -0.0074,-0.0045 -0.02384,0.0044 -0.03125,0 -0.232039,-0.138728 -0.462548,-0.274778 -0.71875,-0.375 0.301527,0.0968 0.596455,0.204138 0.875,0.34375 0.55709,0.279224 1.060053,0.665694 1.5,1.09375 0.219973,0.214028 0.409366,0.441865 0.59375,0.6875 0.184384,0.245635 0.355408,0.507743 0.5,0.78125 0.14012,0.265048 0.276135,0.524729 0.375,0.8125 0.01041,0.03078 0.02133,0.06274 0.03125,0.09375 0.09046,0.278085 0.1388,0.579404 0.1875,0.875 C 89.95865,11.3493 90,11.665279 90,12 v 2 68 2 c 0,3.324 -2.676,6 -6,6 z"
       id="path3615"
       style="opacity:0.2;fill:url(#radialGradient3619);fill-opacity:1;fill-rule:nonzero;stroke:none" />
    <path
       style="fill:#00ff00;fill-opacity:1;stroke:none;stroke-width:1.15068495;stroke-miterlimit:4;stroke-dasharray:none;stroke-opacity:1;filter:url(#filter5501)"
       d="M 7.094768,70.543542 19.861056,70.078772 24.964748,47.25686 C 27.77178,34.7048 30.258244,23.528782 30.490223,22.421242 l 0.421781,-2.013696 H 48.50145 66.090895 l 0.42178,2.013696 c 0.231982,1.10754 2.718443,12.283558 5.525478,24.835618 l 5.103693,22.821912 c 2.046821,-0.0087 12.286731,0.214622 12.286731,0.214622 l 0.0121,1.557969 c 0,0 -8.74878,-0.04661 -13.268439,-0.04661 l -0.42178,-2.013696 C 75.518513,68.683518 73.031889,57.507487 70.224658,44.95544 L 65.1206,22.133529 H 48.50145 31.882299 L 26.778244,44.95544 c -2.807233,12.552047 -5.293857,23.728078 -5.525838,24.835618 l -0.421779,2.013696 -13.771209,-0.0014 z"
       id="path5388-4"
       inkscape:connector-curvature="0"
       sodipodi:nodetypes="ccscccccscccccscccssccc" />
    <path
       style="fill:#5ac800;stroke:#5ac800;stroke-width:1.15068495;stroke-miterlimit:4;stroke-dasharray:none;stroke-opacity:1;fill-opacity:1;"
       d="m 7.0947689,70.543543 12.7662871,-0.46477 5.103692,-22.821912 c 2.807032,-12.55206 5.293496,-23.728079 5.525475,-24.835619 l 0.421781,-2.013696 H 48.50145 66.090895 l 0.42178,2.013696 c 0.231982,1.10754 2.718443,12.283559 5.525478,24.835619 l 5.103693,22.821912 c 2.046817,-0.0087 12.286736,0.214622 12.286736,0.214622 l 0.01214,1.557969 c 0,0 -8.748782,-0.04661 -13.268444,-0.04661 l -0.42178,-2.013696 C 75.518513,68.683519 73.031889,57.507488 70.224658,44.955441 L 65.1206,22.133529 H 48.50145 31.882299 l -5.104055,22.821912 c -2.807233,12.552047 -5.293857,23.728078 -5.525838,24.835618 l -0.421779,2.013696 -13.7712085,-0.0014 z"
       id="path5388"
       inkscape:connector-curvature="0"
       sodipodi:nodetypes="ccscccccscccccscccssccc" />
  </g>
  <g
     id="layer5"
     style="display:none">
    <rect
       width="66"
       height="66"
       rx="12"
       ry="12"
       x="15"
       y="15"
       clip-path="url(#clipPath3613)"
       id="rect3171"
       style="opacity:0.1;fill:url(#linearGradient3613);fill-opacity:1;fill-rule:nonzero;stroke:#fefefe;stroke-width:0.5;stroke-linecap:round;stroke-linejoin:miter;stroke-miterlimit:4;stroke-opacity:1;stroke-dasharray:none;stroke-dashoffset:0;filter:url(#filter3794)" />
  </g>
</svg>
