<?xml version="1.0" encoding="UTF-8" standalone="no"?>
<svg
   xmlns:dc="http://purl.org/dc/elements/1.1/"
   xmlns:cc="http://creativecommons.org/ns#"
   xmlns:rdf="http://www.w3.org/1999/02/22-rdf-syntax-ns#"
   xmlns:svg="http://www.w3.org/2000/svg"
   xmlns="http://www.w3.org/2000/svg"
   xmlns:xlink="http://www.w3.org/1999/xlink"
   id="svg2408"
   height="96"
   width="96"
   version="1.0">
  <defs
     id="defs2410">
    <linearGradient
       id="linearGradient3815">
      <stop
         offset="0"
         style="stop-color:#000000;stop-opacity:1"
         id="stop3817" />
      <stop
         offset="1"
         style="stop-color:#000000;stop-opacity:0"
         id="stop3819" />
    </linearGradient>
    <linearGradient
       id="linearGradient3781">
      <stop
         offset="0"
         style="stop-color:#008df2;stop-opacity:1"
         id="stop3783" />
      <stop
         offset="1"
         style="stop-color:#007cf5;stop-opacity:0"
         id="stop3785" />
    </linearGradient>
    <linearGradient
       id="linearGradient3769">
      <stop
         offset="0"
         style="stop-color:#55d7ff;stop-opacity:1"
         id="stop3771" />
      <stop
         offset="1"
         style="stop-color:#4ce2ff;stop-opacity:0"
         id="stop3773" />
    </linearGradient>
    <linearGradient
       id="linearGradient3744">
      <stop
         offset="0"
         style="stop-color:#000000;stop-opacity:1"
         id="stop3746" />
      <stop
         offset="1"
         style="stop-color:#000000;stop-opacity:0"
         id="stop3748" />
    </linearGradient>
    <linearGradient
       id="linearGradient3738">
      <stop
         offset="0"
         style="stop-color:#000000;stop-opacity:0"
         id="stop3740" />
      <stop
         offset="1"
         style="stop-color:#000000;stop-opacity:0"
         id="stop3742" />
    </linearGradient>
    <linearGradient
       id="linearGradient3701">
      <stop
         offset="0"
         style="stop-color:#fefefe;stop-opacity:1"
         id="stop3703" />
      <stop
         offset="1"
         style="stop-color:#fefefe;stop-opacity:0"
         id="stop3705" />
    </linearGradient>
    <linearGradient
       id="linearGradient3691">
      <stop
         offset="0"
         style="stop-color:#000000;stop-opacity:1"
         id="stop3693" />
      <stop
         offset="1"
         style="stop-color:#000000;stop-opacity:0"
         id="stop3695" />
    </linearGradient>
    <linearGradient
       gradientTransform="scale(1.0058652,0.994169)"
       gradientUnits="userSpaceOnUse"
       id="ButtonShadow"
       y2="7.0165396"
       x2="45.447727"
       y1="92.539597"
       x1="45.447727">
      <stop
         offset="0"
         style="stop-color:#000000;stop-opacity:1"
         id="stop3750" />
      <stop
         offset="1"
         style="stop-color:#000000;stop-opacity:0.58823532"
         id="stop3752" />
    </linearGradient>
    <linearGradient
       id="linearGradient3737">
      <stop
         offset="0"
         style="stop-color:#fefefe;stop-opacity:1"
         id="stop3739" />
      <stop
         offset="1"
         style="stop-color:#fefefe;stop-opacity:0"
         id="stop3741" />
    </linearGradient>
    <linearGradient
       id="linearGradient3700">
      <stop
         offset="0"
         style="stop-color:#333333;stop-opacity:1"
         id="stop3702" />
      <stop
         offset="1"
         style="stop-color:#545454;stop-opacity:1"
         id="stop3704" />
    </linearGradient>
    <filter
       id="filter3174"
       color-interpolation-filters="sRGB">
      <feGaussianBlur
         stdDeviation="1.71"
         id="feGaussianBlur3176" />
    </filter>
    <linearGradient
       gradientUnits="userSpaceOnUse"
       xlink:href="#linearGradient3737"
       id="linearGradient3188"
       y2="63.893143"
       x2="36.357143"
       y1="6"
       x1="36.357143" />
    <filter
       id="filter3794"
       color-interpolation-filters="sRGB"
       height="1.3839999"
       width="1.3839999"
       y="-0.192"
       x="-0.192">
      <feGaussianBlur
         stdDeviation="5.28"
         id="feGaussianBlur3796" />
    </filter>
    <linearGradient
       gradientUnits="userSpaceOnUse"
       xlink:href="#linearGradient3737"
       id="linearGradient3613"
       y2="138.66119"
       x2="48"
       y1="20.220806"
       x1="48" />
    <radialGradient
       gradientTransform="matrix(1.1573129,0,0,0.99590774,-7.5510206,0.19713193)"
       gradientUnits="userSpaceOnUse"
       xlink:href="#linearGradient3737"
       id="radialGradient3619"
       fy="90.171875"
       fx="48"
       r="42"
       cy="90.171875"
       cx="48" />
    <clipPath
       id="clipPath3613">
      <rect
         style="fill:#fefefe;fill-opacity:1;fill-rule:nonzero;stroke:none"
         id="rect3615"
         y="6"
         x="6"
         ry="6"
         rx="6"
         height="84"
         width="84" />
    </clipPath>
    <linearGradient
       gradientUnits="userSpaceOnUse"
       xlink:href="#linearGradient3187"
       id="linearGradient3617"
       y2="5.9877172"
       x2="48"
       y1="90"
       x1="48" />
    <linearGradient
       id="linearGradient3663">
      <stop
         offset="0"
         style="stop-color:#38a3f8;stop-opacity:1"
         id="stop3665" />
      <stop
         offset="1"
         style="stop-color:#0077ff;stop-opacity:1"
         id="stop3667" />
    </linearGradient>
    <linearGradient
       id="linearGradient3681">
      <stop
         offset="0"
         style="stop-color:#41c8ff;stop-opacity:1"
         id="stop3683" />
      <stop
         offset="1"
         style="stop-color:#3edbff;stop-opacity:0.75686276"
         id="stop3685" />
    </linearGradient>
    <linearGradient
       id="linearGradient3673">
      <stop
         offset="0"
         style="stop-color:#3f86cc;stop-opacity:1"
         id="stop3675" />
      <stop
         offset="1"
         style="stop-color:#3f86cc;stop-opacity:1"
         id="stop3677" />
    </linearGradient>
    <linearGradient
       gradientTransform="matrix(1.540312,0,0,1.540312,-25.442733,-30.085246)"
       gradientUnits="userSpaceOnUse"
       xlink:href="#linearGradient3691"
       id="linearGradient3697"
       y2="74.737419"
       x2="61.960495"
       y1="58.322441"
       x1="36.280766" />
    <linearGradient
       gradientTransform="matrix(1.540312,0,0,1.540312,-148.66769,-30.085246)"
       gradientUnits="userSpaceOnUse"
       xlink:href="#linearGradient3701"
       id="linearGradient3707"
       y2="54.953613"
       x2="113.77351"
       y1="38.074066"
       x1="113.77351" />
    <linearGradient
       gradientTransform="matrix(1.540312,0,0,1.540312,-148.66769,-30.085246)"
       gradientUnits="userSpaceOnUse"
       xlink:href="#linearGradient3701"
       id="linearGradient3725"
       y2="47.638947"
       x2="133.59268"
       y1="30.340084"
       x1="137.63329" />
    <linearGradient
       gradientTransform="matrix(1.540312,0,0,1.540312,-25.442733,-30.668728)"
       gradientUnits="userSpaceOnUse"
       xlink:href="#linearGradient3738"
       id="linearGradient3735"
       y2="52.121498"
       x2="41.723381"
       y1="32.676064"
       x1="39.071732" />
    <linearGradient
       gradientTransform="matrix(1.540312,0,0,1.540312,-25.442733,-30.668728)"
       gradientUnits="userSpaceOnUse"
       xlink:href="#linearGradient3744"
       id="linearGradient3750"
       y2="52.121498"
       x2="41.723381"
       y1="34.443829"
       x1="34.783657" />
    <linearGradient
       gradientTransform="matrix(1.540312,0,0,1.540312,-25.442733,-30.085246)"
       gradientUnits="userSpaceOnUse"
       xlink:href="#linearGradient3737"
       id="linearGradient3682"
       y2="80.766785"
       x2="47.34201"
       y1="39.072807"
       x1="47.34201" />
    <linearGradient
       gradientTransform="matrix(1.540312,0,0,1.540312,-25.442733,-30.085246)"
       gradientUnits="userSpaceOnUse"
       xlink:href="#linearGradient3737"
       id="linearGradient3690"
       y2="30.6875"
       x2="76.014435"
       y1="41.125"
       x1="49.125" />
    <linearGradient
       gradientTransform="matrix(1.540312,0,0,1.540312,-25.442733,-30.085246)"
       gradientUnits="userSpaceOnUse"
       xlink:href="#linearGradient3673"
       id="linearGradient3732"
       y2="69.788857"
       x2="40.068321"
       y1="37.444744"
       x1="40.068321" />
    <linearGradient
       gradientTransform="matrix(1.540312,0,0,1.540312,-25.442733,-30.085246)"
       gradientUnits="userSpaceOnUse"
       xlink:href="#linearGradient3681"
       id="linearGradient3749"
       y2="66.137367"
       x2="59.030788"
       y1="37.726826"
       x1="59.030788" />
    <linearGradient
       gradientTransform="matrix(1.4810469,0.42315626,-1.4810469,0.42315626,-25.442733,-30.085246)"
       gradientUnits="userSpaceOnUse"
       xlink:href="#linearGradient3663"
       id="linearGradient3757"
       y2="48.08448"
       x2="96.830086"
       y1="15.625977"
       x1="64.371582" />
    <linearGradient
       gradientUnits="userSpaceOnUse"
       xlink:href="#linearGradient3769"
       id="linearGradient3775"
       y2="89.125"
       x2="78.214287"
       y1="66.089287"
       x1="59.464283" />
    <linearGradient
       gradientTransform="matrix(-1,0,0,1,96.178577,-0.17857143)"
       gradientUnits="userSpaceOnUse"
       xlink:href="#linearGradient3781"
       id="linearGradient3779"
       y2="89.125"
       x2="77.5"
       y1="66.089287"
       x1="59.464283" />
    <filter
       id="filter3791"
       color-interpolation-filters="sRGB"
       height="1.452967"
       width="1.2986956"
       y="-0.22648352"
       x="-0.14934783">
      <feGaussianBlur
         stdDeviation="3.0669643"
         id="feGaussianBlur3793" />
    </filter>
    <filter
       id="filter3795"
       color-interpolation-filters="sRGB"
       height="1.413202"
       width="1.3189354"
       y="-0.20660099"
       x="-0.15946768">
      <feGaussianBlur
         stdDeviation="3.1205357"
         id="feGaussianBlur3797" />
    </filter>
    <clipPath
       id="clipPath3807">
      <rect
         style="fill:url(#linearGradient3811);fill-opacity:1;fill-rule:nonzero;stroke:none;display:inline"
         id="rect3809"
         y="6"
         x="6"
         ry="6"
         rx="6"
         height="84"
         width="84" />
    </clipPath>
    <linearGradient
       gradientUnits="userSpaceOnUse"
       xlink:href="#linearGradient3700"
       id="linearGradient3811"
       y2="5.9877172"
       x2="48"
       y1="90"
       x1="48" />
    <linearGradient
       gradientTransform="matrix(1.0323529,0,0,1.0568182,-0.86659662,-4.1659904)"
       gradientUnits="userSpaceOnUse"
       xlink:href="#linearGradient3815"
       id="linearGradient3821"
       y2="47.968628"
       x2="59.446556"
       y1="90.523804"
       x1="47.773705" />
    <linearGradient
       id="linearGradient3187">
      <stop
         offset="0"
         style="stop-color:#3c393e;stop-opacity:1"
         id="stop3189" />
      <stop
         offset="1"
         style="stop-color:#79727e;stop-opacity:1"
         id="stop3191" />
    </linearGradient>
    <linearGradient
       gradientTransform="translate(0,-97)"
       gradientUnits="userSpaceOnUse"
       xlink:href="#ButtonShadow-0"
       id="linearGradient3721"
       y2="90.238609"
       x2="32.251034"
       y1="6.1317081"
       x1="32.251034" />
    <linearGradient
       gradientTransform="matrix(1.0058652,0,0,0.994169,100,0)"
       gradientUnits="userSpaceOnUse"
       id="ButtonShadow-0"
       y2="7.0165396"
       x2="45.447727"
       y1="92.539597"
       x1="45.447727">
      <stop
         offset="0"
         style="stop-color:#000000;stop-opacity:1"
         id="stop3750-8" />
      <stop
         offset="1"
         style="stop-color:#000000;stop-opacity:0.58823532"
         id="stop3752-5" />
    </linearGradient>
    <linearGradient
       gradientTransform="matrix(1.0238095,0,0,1.0119048,-1.1428571,-98.071429)"
       gradientUnits="userSpaceOnUse"
       xlink:href="#ButtonShadow-0"
       id="linearGradient3725-3"
       y2="90.238609"
       x2="32.251034"
       y1="6.1317081"
       x1="32.251034" />
    <linearGradient
       gradientTransform="matrix(1.0238095,0,0,1.0119048,-1.1428571,-98.071429)"
       gradientUnits="userSpaceOnUse"
       xlink:href="#ButtonShadow-0"
       id="linearGradient3772"
       y2="90.238609"
       x2="32.251034"
       y1="6.1317081"
       x1="32.251034" />
    <linearGradient
       gradientTransform="matrix(1.0238095,0,0,1.0119048,-1.1428571,-98.071429)"
       gradientUnits="userSpaceOnUse"
       xlink:href="#ButtonShadow-0"
       id="linearGradient3780"
       y2="90.238609"
       x2="32.251034"
       y1="6.1317081"
       x1="32.251034" />
    <linearGradient
       gradientTransform="matrix(1.0238095,0,0,1.0119048,-1.1428571,-98.071429)"
       gradientUnits="userSpaceOnUse"
       xlink:href="#ButtonShadow-0"
       id="linearGradient2969"
       y2="90.238609"
       x2="32.251034"
       y1="6.1317081"
       x1="32.251034" />
  </defs>
  <metadata
     id="metadata2413">
    <rdf:RDF>
      <cc:Work
         rdf:about="">
        <dc:format>image/svg+xml</dc:format>
        <dc:type
           rdf:resource="http://purl.org/dc/dcmitype/StillImage" />
        <dc:title></dc:title>
      </cc:Work>
    </rdf:RDF>
  </metadata>
  <g
     style="display:none"
     id="layer2">
    <rect
       style="opacity:0.9;fill:url(#ButtonShadow);fill-opacity:1;fill-rule:nonzero;stroke:none;filter:url(#filter3174)"
       id="rect3745"
       y="7"
       x="5"
       ry="6"
       rx="6"
       height="85"
       width="86" />
  </g>
  <g
     style="display:inline"
     id="layer4">
    <path
       style="opacity:0.07999998;fill:url(#linearGradient2969);fill-opacity:1;fill-rule:nonzero;stroke:none;display:inline"
       id="path3786"
       transform="scale(1,-1)"
       d="m 12,-95.03125 c -5.5110903,0 -10.03125,4.52016 -10.03125,10.03125 l 0,71 c 0,5.5110902 4.5201598,10.03125 10.03125,10.03125 l 72,0 c 5.51109,0 10.03125,-4.5201597 10.03125,-10.03125 l 0,-71 c 0,-5.51109 -4.52016,-10.03125 -10.03125,-10.03125 l -72,0 z" />
    <path
       style="opacity:0.1;fill:url(#linearGradient3780);fill-opacity:1;fill-rule:nonzero;stroke:none;display:inline"
       id="path3778"
       transform="scale(1,-1)"
       d="m 12,-94.03125 c -4.971633,0 -9.03125,4.059617 -9.03125,9.03125 l 0,71 c 0,4.9716329 4.0596171,9.03125 9.03125,9.03125 l 72,0 c 4.971633,0 9.03125,-4.059617 9.03125,-9.03125 l 0,-71 c 0,-4.971633 -4.059617,-9.03125 -9.03125,-9.03125 l -72,0 z" />
    <path
       style="opacity:0.2;fill:url(#linearGradient3772);fill-opacity:1;fill-rule:nonzero;stroke:none;display:inline"
       id="path3770"
       transform="scale(1,-1)"
       d="m 12,-93 c -4.4091333,0 -8,3.590867 -8,8 l 0,71 c 0,4.4091333 3.5908667,8 8,8 l 72,0 c 4.409133,0 8,-3.5908667 8,-8 l 0,-71 c 0,-4.409133 -3.590867,-8 -8,-8 l -72,0 z" />
    <rect
       style="opacity:0.3;fill:url(#linearGradient3725-3);fill-opacity:1;fill-rule:nonzero;stroke:none;display:inline"
       id="rect3723"
       transform="scale(1,-1)"
       y="-92"
       x="5"
       ry="7"
       rx="7"
       height="85"
       width="86" />
    <rect
       style="opacity:0.45;fill:url(#linearGradient3721);fill-opacity:1;fill-rule:nonzero;stroke:none;display:inline"
       id="rect3716"
       transform="scale(1,-1)"
       y="-91"
       x="6"
       ry="6"
       rx="6"
       height="84"
       width="84" />
  </g>
  <g
     style="display:inline"
     id="layer1">
    <rect
       style="fill:url(#linearGradient3617);fill-opacity:1;fill-rule:nonzero;stroke:none"
       id="rect2419"
       y="6"
       x="6"
       ry="6"
       rx="6"
       height="84"
       width="84" />
    <path
       style="opacity:0.2;fill:url(#linearGradient3188);fill-opacity:1;fill-rule:nonzero;stroke:none"
       id="rect3728"
       d="M 12,6 C 8.676,6 6,8.676 6,12 l 0,2 0,68 0,2 c 0,0.334721 0.04135,0.6507 0.09375,0.96875 0.0487,0.295596 0.09704,0.596915 0.1875,0.875 0.00988,0.03038 0.020892,0.0636 0.03125,0.09375 0.098865,0.287771 0.2348802,0.547452 0.375,0.8125 0.1445918,0.273507 0.3156161,0.535615 0.5,0.78125 0.1843839,0.245635 0.3737765,0.473472 0.59375,0.6875 0.439947,0.428056 0.94291,0.814526 1.5,1.09375 0.278545,0.139612 0.5734731,0.246947 0.875,0.34375 -0.2562018,-0.100222 -0.4867109,-0.236272 -0.71875,-0.375 -0.00741,-0.0044 -0.023866,0.0045 -0.03125,0 -0.031933,-0.0193 -0.062293,-0.04251 -0.09375,-0.0625 -0.120395,-0.0767 -0.2310226,-0.163513 -0.34375,-0.25 -0.1061728,-0.0808 -0.2132809,-0.161112 -0.3125,-0.25 C 8.4783201,88.557317 8.3087904,88.373362 8.15625,88.1875 8.0486711,88.057245 7.9378561,87.922215 7.84375,87.78125 7.818661,87.74287 7.805304,87.69538 7.78125,87.65625 7.716487,87.553218 7.6510225,87.451733 7.59375,87.34375 7.4927417,87.149044 7.3880752,86.928049 7.3125,86.71875 7.30454,86.69694 7.288911,86.6782 7.28125,86.65625 7.2494249,86.5643 7.2454455,86.469419 7.21875,86.375 7.1884177,86.268382 7.1483606,86.171969 7.125,86.0625 7.0521214,85.720988 7,85.364295 7,85 L 7,83 7,15 7,13 C 7,10.218152 9.2181517,8 12,8 l 2,0 68,0 2,0 c 2.781848,0 5,2.218152 5,5 l 0,2 0,68 0,2 c 0,0.364295 -0.05212,0.720988 -0.125,1.0625 -0.04415,0.206893 -0.08838,0.397658 -0.15625,0.59375 -0.0077,0.02195 -0.0233,0.04069 -0.03125,0.0625 -0.06274,0.173739 -0.138383,0.367449 -0.21875,0.53125 -0.04158,0.0828 -0.07904,0.169954 -0.125,0.25 -0.0546,0.09721 -0.126774,0.18835 -0.1875,0.28125 -0.09411,0.140965 -0.204921,0.275995 -0.3125,0.40625 -0.143174,0.17445 -0.303141,0.346998 -0.46875,0.5 -0.01117,0.0102 -0.01998,0.02115 -0.03125,0.03125 -0.138386,0.125556 -0.285091,0.234436 -0.4375,0.34375 -0.102571,0.07315 -0.204318,0.153364 -0.3125,0.21875 -0.0074,0.0045 -0.02384,-0.0044 -0.03125,0 -0.232039,0.138728 -0.462548,0.274778 -0.71875,0.375 0.301527,-0.0968 0.596455,-0.204138 0.875,-0.34375 0.55709,-0.279224 1.060053,-0.665694 1.5,-1.09375 0.219973,-0.214028 0.409366,-0.441865 0.59375,-0.6875 0.184384,-0.245635 0.355408,-0.507743 0.5,-0.78125 0.14012,-0.265048 0.276135,-0.524729 0.375,-0.8125 0.01041,-0.03078 0.02133,-0.06274 0.03125,-0.09375 0.09046,-0.278085 0.1388,-0.579404 0.1875,-0.875 C 89.95865,84.6507 90,84.334721 90,84 l 0,-2 0,-68 0,-2 C 90,8.676 87.324,6 84,6 L 12,6 z" />
    <path
       style="opacity:0.1;fill:url(#radialGradient3619);fill-opacity:1;fill-rule:nonzero;stroke:none"
       id="path3615"
       d="M 12,90 C 8.676,90 6,87.324 6,84 L 6,82 6,14 6,12 c 0,-0.334721 0.04135,-0.6507 0.09375,-0.96875 0.0487,-0.295596 0.09704,-0.596915 0.1875,-0.875 C 6.29113,10.12587 6.302142,10.09265 6.3125,10.0625 6.411365,9.774729 6.5473802,9.515048 6.6875,9.25 6.8320918,8.976493 7.0031161,8.714385 7.1875,8.46875 7.3718839,8.223115 7.5612765,7.995278 7.78125,7.78125 8.221197,7.353194 8.72416,6.966724 9.28125,6.6875 9.559795,6.547888 9.8547231,6.440553 10.15625,6.34375 9.9000482,6.443972 9.6695391,6.580022 9.4375,6.71875 c -0.00741,0.0044 -0.023866,-0.0045 -0.03125,0 -0.031933,0.0193 -0.062293,0.04251 -0.09375,0.0625 -0.120395,0.0767 -0.2310226,0.163513 -0.34375,0.25 -0.1061728,0.0808 -0.2132809,0.161112 -0.3125,0.25 C 8.4783201,7.442683 8.3087904,7.626638 8.15625,7.8125 8.0486711,7.942755 7.9378561,8.077785 7.84375,8.21875 7.818661,8.25713 7.805304,8.30462 7.78125,8.34375 7.716487,8.446782 7.6510225,8.548267 7.59375,8.65625 7.4927417,8.850956 7.3880752,9.071951 7.3125,9.28125 7.30454,9.30306 7.288911,9.3218 7.28125,9.34375 7.2494249,9.4357 7.2454455,9.530581 7.21875,9.625 7.1884177,9.731618 7.1483606,9.828031 7.125,9.9375 7.0521214,10.279012 7,10.635705 7,11 l 0,2 0,68 0,2 c 0,2.781848 2.2181517,5 5,5 l 2,0 68,0 2,0 c 2.781848,0 5,-2.218152 5,-5 l 0,-2 0,-68 0,-2 C 89,10.635705 88.94788,10.279012 88.875,9.9375 88.83085,9.730607 88.78662,9.539842 88.71875,9.34375 88.71105,9.3218 88.69545,9.30306 88.6875,9.28125 88.62476,9.107511 88.549117,8.913801 88.46875,8.75 88.42717,8.6672 88.38971,8.580046 88.34375,8.5 88.28915,8.40279 88.216976,8.31165 88.15625,8.21875 88.06214,8.077785 87.951329,7.942755 87.84375,7.8125 87.700576,7.63805 87.540609,7.465502 87.375,7.3125 87.36383,7.3023 87.35502,7.29135 87.34375,7.28125 87.205364,7.155694 87.058659,7.046814 86.90625,6.9375 86.803679,6.86435 86.701932,6.784136 86.59375,6.71875 c -0.0074,-0.0045 -0.02384,0.0044 -0.03125,0 -0.232039,-0.138728 -0.462548,-0.274778 -0.71875,-0.375 0.301527,0.0968 0.596455,0.204138 0.875,0.34375 0.55709,0.279224 1.060053,0.665694 1.5,1.09375 0.219973,0.214028 0.409366,0.441865 0.59375,0.6875 0.184384,0.245635 0.355408,0.507743 0.5,0.78125 0.14012,0.265048 0.276135,0.524729 0.375,0.8125 0.01041,0.03078 0.02133,0.06274 0.03125,0.09375 0.09046,0.278085 0.1388,0.579404 0.1875,0.875 C 89.95865,11.3493 90,11.665279 90,12 l 0,2 0,68 0,2 c 0,3.324 -2.676,6 -6,6 l -72,0 z" />
  </g>
  <g
     style="display:inline"
     id="layer5">
    <rect
       style="opacity:0.1;fill:url(#linearGradient3613);fill-opacity:1;fill-rule:nonzero;stroke:#fefefe;stroke-width:0.5;stroke-linecap:round;stroke-linejoin:miter;stroke-miterlimit:4;stroke-opacity:1;stroke-dasharray:none;stroke-dashoffset:0;filter:url(#filter3794)"
       id="rect3171"
       clip-path="url(#clipPath3613)"
       y="15"
       x="15"
       ry="12"
       rx="12"
       height="66"
       width="66" />
  </g>
  <g
     style="display:inline"
     id="layer3">
    <path
       style="fill:url(#linearGradient3821);fill-opacity:1;stroke:none"
       id="path3813"
       d="M 50.566702,73.321428 89.464287,53.690747 56.995799,33.857143 26.785714,62.375812 50.566702,73.321428 z" />
    <g
       id="g3803"
       clip-path="url(#clipPath3807)">
      <path
         style="opacity:0.2;fill:url(#linearGradient3779);fill-opacity:1;stroke:none;filter:url(#filter3791)"
         id="path3777"
         d="M 49.214287,73.142857 49.214287,96 -0.07142786,96 0.10714357,75.107143 27.07143,63.500001 49.214287,73.142857 z" />
      <path
         style="opacity:0.2;fill:url(#linearGradient3775);fill-opacity:1;stroke:none;filter:url(#filter3795)"
         id="path3759"
         d="m 49.285715,73.321428 0,22.857143 46.964286,0 0,-27.5 -27.142858,-8.749999 -19.821428,13.392856 z" />
    </g>
    <path
       style="opacity:0.8;fill:#004455;fill-opacity:1;stroke:none;stroke-width:1.54031193"
       id="path3717"
       d="M 47.337006,13.861781 15.375534,24.237226 v 0.866427 l 0.770155,-0.09627 30.80624,-10.086638 33.501785,7.198553 1.347772,0.192539 v -0.866425 z" />
    <path
       style="opacity:0.8;fill:url(#linearGradient3757);fill-opacity:1;stroke:none;stroke-width:1.1195662"
       id="rect3659"
       d="M 46.951922,14.924209 80.449801,22.128626 50.616024,39.657507 16.145682,25.014755 Z" />
    <path
       style="fill:url(#linearGradient3697);fill-opacity:1;stroke:none;stroke-width:1.54031193"
       id="rect3661"
       d="M 47.146408,51.308216 77.970006,60.892164 50.567389,78.985204 18.965831,64.97653 Z" />
    <path
       style="opacity:0.8;fill:url(#linearGradient3749);fill-opacity:1;stroke:none;stroke-width:1.54031193"
       id="path3679"
       d="M 50.604325,39.623969 V 81.803357 L 80.361869,61.770501 V 22.148838 Z" />
    <path
       style="opacity:0.8;fill:url(#linearGradient3732);fill-opacity:1;stroke:none;stroke-width:1.54031193"
       id="path3681"
       d="M 50.604325,39.623969 V 81.803357 L 16.43039,66.507115 16.276177,25.017621 Z" />
    <path
       style="opacity:0.2;fill:url(#linearGradient3750);fill-opacity:1;stroke:url(#linearGradient3735);stroke-width:1.54031193"
       id="path3727"
       d="M 20.347383,26.038712 47.187518,16.647951 46.79853,48.933913 20.347383,62.937464 Z" />
    <path
       style="opacity:0.6;fill:url(#linearGradient3707);fill-opacity:1;stroke:none;stroke-width:1.54031193"
       id="path3699"
       d="m 18.305207,28.469883 28.882318,13.682503 -22.269544,25.452927 -6.71003,-3.014652 0.0972,-36.120778 z" />
    <path
       style="opacity:0.4;fill:url(#linearGradient3725);fill-opacity:1;stroke:none;stroke-width:1.54031193"
       id="path3709"
       d="m 48.937961,16.647951 v 33.25843 l 28.785088,8.75222 V 22.926812 Z" />
    <path
       style="color:#000000;font-style:normal;font-variant:normal;font-weight:normal;font-stretch:normal;font-size:medium;line-height:normal;font-family:'Abandoned Bitplane';-inkscape-font-specification:'Abandoned Bitplane';text-indent:0;text-align:start;text-decoration:none;text-decoration-line:none;letter-spacing:normal;word-spacing:normal;text-transform:none;writing-mode:lr-tb;direction:ltr;text-anchor:start;display:inline;overflow:visible;visibility:visible;opacity:0.4;fill:url(#linearGradient3682);fill-opacity:1;stroke:none;stroke-width:3.08062387;marker:none;enable-background:accumulate"
       id="path2889"
       d="m 19.418853,24.140958 -3.273164,0.866425 0.144405,0.04813 v 1.492176 l 32.683494,14.760525 v 39.74967 l 1.636581,0.722022 1.444043,-0.962695 V 40.104849 38.90148 l -1.107099,-0.288808 z" />
    <path
       style="color:#000000;font-style:normal;font-variant:normal;font-weight:normal;font-stretch:normal;font-size:medium;line-height:normal;font-family:'Abandoned Bitplane';-inkscape-font-specification:'Abandoned Bitplane';text-indent:0;text-align:start;text-decoration:none;text-decoration-line:none;letter-spacing:normal;word-spacing:normal;text-transform:none;writing-mode:lr-tb;direction:ltr;text-anchor:start;display:inline;overflow:visible;visibility:visible;opacity:0.4;fill:url(#linearGradient3690);fill-opacity:1;stroke:none;stroke-width:3.08062387;marker:none;enable-background:accumulate"
       id="path2891"
       d="m 77.324954,21.63795 -27.099863,16.734049 1.155235,2.888085 28.977118,-17.552339 v -1.540312 l 0.09627,-0.04813 z" />
    <path
       style="fill:#176bb4;stroke:none;stroke-width:1.54031193;fill-opacity:1"
       id="path3704"
       d="M 15.375534,25.007383 15.519938,67.67643 50.610169,83.368358 V 81.779911 L 16.434498,66.521195 16.290094,24.980628 Z" />
    <path
       style="opacity:0.8;fill:#41b7ff;stroke:none;stroke-width:1.54031193;fill-opacity:1"
       id="path3710"
       d="m 81.897756,22.313303 -1.540312,-0.22467 V 61.755855 L 50.610169,81.779911 v 1.780985 L 81.897756,62.959224 Z" />
    <path
       id="path949"
       d="m 57.443593,57.046571 c -0.178627,-0.825007 -0.236661,-1.738201 -0.199411,-3.928594 0.08151,-4.793176 0.431404,-5.73622 3.195921,-7.158064 C 62.200886,45.054309 62.657006,45 68.501995,45 c 5.042685,0 6.450391,0.122196 7.565261,0.656705 2.496172,1.196755 2.852999,1.8997 2.862623,5.639335 l 0.0086,3.342523 c 0,0 -17.372585,-0.67751 -17.542188,0.783991 0.02709,1.874715 4.923492,2.106035 7.710852,2.107563 V 59.265059 61 C 65.468028,60.93214 58.665657,60.606536 57.443593,57.046571 Z m 17.222385,-5.148055 c 0,0 0.014,-2.726453 -0.780452,-3.183411 -2.021624,-1.184551 -9.069866,-1.479394 -11.463079,0.114415 -0.953001,0.717768 -1.154668,3.045988 -1.154668,3.045988 l 13.398199,0.02301 z"
       style="fill:#f8ffff;fill-opacity:1;stroke-width:0.38554251" />
    <path
       id="path962"
       d="m 20,53.086822 c 0.01374,-4.983462 0.932284,-7.471391 3.11615,-7.8412 0.927244,-0.2613 19.343524,-0.245437 19.343524,-0.245437 v 3.308119 c 0,0 -16.137849,-0.534874 -17.730162,0.600245 -0.968737,0.371739 -1.068556,7.046248 -0.09598,7.854322 0.639869,1.357238 17.826141,0.877526 17.826141,0.877526 v 3.326997 c 0,0 -17.425459,0.201619 -18.943847,-0.397866 C 20.182299,59.576211 20.0087,55.575473 20,53.086822 Z"
       style="fill:#ffffff;fill-opacity:1;stroke-width:0.40835771" />
    <path
       id="rect964"
       d="m 46.829912,17.824833 v 5.128906 h 4.664149 v -5.128906 z m 0,7.13272 v 10.735284 h 4.664149 V 24.957553 Z"
       style="opacity:1;fill:#ffffff;fill-opacity:1;stroke:none;stroke-width:0;stroke-linejoin:round;stroke-miterlimit:4;stroke-dasharray:none;stroke-dashoffset:0;stroke-opacity:1;paint-order:stroke fill markers" />
  </g>
</svg>
