<?xml version="1.0" encoding="UTF-8" standalone="no"?>
<svg
   xmlns:dc="http://purl.org/dc/elements/1.1/"
   xmlns:cc="http://creativecommons.org/ns#"
   xmlns:rdf="http://www.w3.org/1999/02/22-rdf-syntax-ns#"
   xmlns:svg="http://www.w3.org/2000/svg"
   xmlns="http://www.w3.org/2000/svg"
   xmlns:xlink="http://www.w3.org/1999/xlink"
   version="1.0"
   width="96"
   height="96"
   id="svg2408">
  <defs
     id="defs2410">
    <linearGradient
       id="linearGradient4578">
      <stop
         id="stop4574"
         offset="0"
         style="stop-color:#b0ffe6;stop-opacity:1" />
      <stop
         id="stop4576"
         offset="1"
         style="stop-color:#fefefe;stop-opacity:0;" />
    </linearGradient>
    <linearGradient
       id="linearGradient3781">
      <stop
         id="stop3783"
         style="stop-color:#fefefe;stop-opacity:1"
         offset="0" />
      <stop
         id="stop3785"
         style="stop-color:#fefefe;stop-opacity:0"
         offset="1" />
    </linearGradient>
    <linearGradient
       id="linearGradient3754">
      <stop
         id="stop3756"
         style="stop-color:#393939;stop-opacity:1"
         offset="0" />
      <stop
         id="stop3762"
         style="stop-color:#282828;stop-opacity:1"
         offset="0.65625" />
      <stop
         id="stop3758"
         style="stop-color:#161616;stop-opacity:1"
         offset="1" />
    </linearGradient>
    <linearGradient
       id="linearGradient3673">
      <stop
         id="stop3675"
         style="stop-color:#fefefe;stop-opacity:1"
         offset="0" />
      <stop
         id="stop3716"
         style="stop-color:#f2f2f2;stop-opacity:1"
         offset="0.734375" />
      <stop
         id="stop3677"
         style="stop-color:#e5e5e5;stop-opacity:1"
         offset="1" />
    </linearGradient>
    <linearGradient
       x1="45.447727"
       y1="92.539597"
       x2="45.447727"
       y2="7.0165396"
       id="ButtonShadow"
       gradientUnits="userSpaceOnUse"
       gradientTransform="scale(1.0058652,0.994169)">
      <stop
         id="stop3750"
         style="stop-color:#000000;stop-opacity:1"
         offset="0" />
      <stop
         id="stop3752"
         style="stop-color:#000000;stop-opacity:0.58823532"
         offset="1" />
    </linearGradient>
    <linearGradient
       id="linearGradient3737">
      <stop
         id="stop3739"
         style="stop-color:#fefefe;stop-opacity:1"
         offset="0" />
      <stop
         id="stop3741"
         style="stop-color:#fefefe;stop-opacity:0"
         offset="1" />
    </linearGradient>
    <linearGradient
       id="linearGradient3700">
      <stop
         id="stop3702"
         style="stop-color:#bc0000;stop-opacity:1"
         offset="0" />
      <stop
         id="stop3704"
         style="stop-color:#ff3834;stop-opacity:1"
         offset="1" />
    </linearGradient>
    <filter
       color-interpolation-filters="sRGB"
       id="filter3174">
      <feGaussianBlur
         id="feGaussianBlur3176"
         stdDeviation="1.71" />
    </filter>
    <linearGradient
       x1="36.357143"
       y1="6"
       x2="36.357143"
       y2="63.893143"
       id="linearGradient3188"
       xlink:href="#linearGradient3737"
       gradientUnits="userSpaceOnUse" />
    <filter
       x="-0.192"
       y="-0.192"
       width="1.3839999"
       height="1.3839999"
       color-interpolation-filters="sRGB"
       id="filter3794">
      <feGaussianBlur
         id="feGaussianBlur3796"
         stdDeviation="5.28" />
    </filter>
    <linearGradient
       x1="48"
       y1="20.220806"
       x2="48"
       y2="138.66119"
       id="linearGradient3613"
       xlink:href="#linearGradient3737"
       gradientUnits="userSpaceOnUse" />
    <radialGradient
       cx="48"
       cy="90.171875"
       r="42"
       fx="48"
       fy="90.171875"
       id="radialGradient3619"
       xlink:href="#linearGradient3737"
       gradientUnits="userSpaceOnUse"
       gradientTransform="matrix(1.1573129,0,0,0.99590774,-7.5510206,0.19713193)" />
    <clipPath
       id="clipPath3613">
      <rect
         width="84"
         height="84"
         rx="6"
         ry="6"
         x="6"
         y="6"
         id="rect3615"
         style="fill:#fefefe;fill-opacity:1;fill-rule:nonzero;stroke:none" />
    </clipPath>
    <linearGradient
       x1="48"
       y1="90"
       x2="48"
       y2="5.9877172"
       id="linearGradient3617"
       xlink:href="#linearGradient3700"
       gradientUnits="userSpaceOnUse" />
    <linearGradient
       x1="45.447727"
       y1="92.539597"
       x2="45.447727"
       y2="7.0165396"
       id="ButtonShadow-0"
       gradientUnits="userSpaceOnUse"
       gradientTransform="matrix(1.0058652,0,0,0.994169,100,0)">
      <stop
         id="stop3750-8"
         style="stop-color:#000000;stop-opacity:1"
         offset="0" />
      <stop
         id="stop3752-5"
         style="stop-color:#000000;stop-opacity:0.58823532"
         offset="1" />
    </linearGradient>
    <linearGradient
       x1="32.251034"
       y1="6.1317081"
       x2="32.251034"
       y2="90.238609"
       id="linearGradient3780"
       xlink:href="#ButtonShadow-0"
       gradientUnits="userSpaceOnUse"
       gradientTransform="matrix(1.0238095,0,0,1.0119048,-1.1428571,-98.071429)" />
    <linearGradient
       x1="32.251034"
       y1="6.1317081"
       x2="32.251034"
       y2="90.238609"
       id="linearGradient3772"
       xlink:href="#ButtonShadow-0"
       gradientUnits="userSpaceOnUse"
       gradientTransform="matrix(1.0238095,0,0,1.0119048,-1.1428571,-98.071429)" />
    <linearGradient
       x1="32.251034"
       y1="6.1317081"
       x2="32.251034"
       y2="90.238609"
       id="linearGradient3725"
       xlink:href="#ButtonShadow-0"
       gradientUnits="userSpaceOnUse"
       gradientTransform="matrix(1.0238095,0,0,1.0119048,-1.1428571,-98.071429)" />
    <linearGradient
       x1="32.251034"
       y1="6.1317081"
       x2="32.251034"
       y2="90.238609"
       id="linearGradient3721"
       xlink:href="#ButtonShadow-0"
       gradientUnits="userSpaceOnUse"
       gradientTransform="translate(0,-97)" />
    <linearGradient
       x1="32.251034"
       y1="6.1317081"
       x2="32.251034"
       y2="90.238609"
       id="linearGradient3026"
       xlink:href="#ButtonShadow-0"
       gradientUnits="userSpaceOnUse"
       gradientTransform="matrix(1.0238095,0,0,1.0119048,-1.1428571,-98.071429)" />
    <radialGradient
       cx="32"
       cy="26"
       r="16"
       fx="32"
       fy="26"
       id="radialGradient3679"
       xlink:href="#linearGradient3673"
       gradientUnits="userSpaceOnUse"
       gradientTransform="matrix(1.1875,0,0,1.125,-6,-3.25)" />
    <radialGradient
       cx="32"
       cy="40"
       r="16"
       fx="32"
       fy="40"
       id="radialGradient3760"
       xlink:href="#linearGradient3754"
       gradientUnits="userSpaceOnUse"
       gradientTransform="matrix(1.1875,0,0,1.125,-6,-5)" />
    <linearGradient
       x1="61"
       y1="15"
       x2="67.29734"
       y2="38.501991"
       id="linearGradient3787"
       xlink:href="#linearGradient3781"
       gradientUnits="userSpaceOnUse" />
    <linearGradient
       x1="61"
       y1="15"
       x2="67.29734"
       y2="38.501991"
       id="linearGradient3791"
       xlink:href="#linearGradient3781"
       gradientUnits="userSpaceOnUse"
       gradientTransform="translate(-36,0)" />
    <radialGradient
       cx="32"
       cy="26"
       r="16"
       fx="32"
       fy="26"
       id="radialGradient3834"
       xlink:href="#linearGradient3673"
       gradientUnits="userSpaceOnUse"
       gradientTransform="matrix(1.1875,0,0,1.125,-6,-3.25)" />
    <linearGradient
       x1="61"
       y1="15"
       x2="67.29734"
       y2="38.501991"
       id="linearGradient3836"
       xlink:href="#linearGradient3781"
       gradientUnits="userSpaceOnUse"
       gradientTransform="translate(-36,36)" />
    <radialGradient
       cx="32"
       cy="40"
       r="16"
       fx="32"
       fy="40"
       id="radialGradient3838"
       xlink:href="#linearGradient3754"
       gradientUnits="userSpaceOnUse"
       gradientTransform="matrix(1.1875,0,0,1.125,-6,-5)" />
    <linearGradient
       x1="61"
       y1="15"
       x2="67.29734"
       y2="38.501991"
       id="linearGradient3840"
       xlink:href="#linearGradient3781"
       gradientUnits="userSpaceOnUse"
       gradientTransform="translate(0,36)" />
    <linearGradient
       gradientTransform="rotate(180,40.932317,48.644034)"
       gradientUnits="userSpaceOnUse"
       y2="48.644034"
       x2="45.932435"
       y1="48.644034"
       x1="35.9322"
       id="linearGradient4580"
       xlink:href="#linearGradient4578" />
  </defs>
  <metadata
     id="metadata2413">
    <rdf:RDF>
      <cc:Work
         rdf:about="">
        <dc:format>image/svg+xml</dc:format>
        <dc:type
           rdf:resource="http://purl.org/dc/dcmitype/StillImage" />
        <dc:title></dc:title>
      </cc:Work>
    </rdf:RDF>
  </metadata>
  <g
     id="layer2"
     style="display:none">
    <rect
       width="86"
       height="85"
       rx="6"
       ry="6"
       x="5"
       y="7"
       id="rect3745"
       style="opacity:0.9;fill:url(#ButtonShadow);fill-opacity:1;fill-rule:nonzero;stroke:none;filter:url(#filter3174)" />
  </g>
  <g
     id="layer3">
    <path
       d="m 12,-95.03125 c -5.5110903,0 -10.03125,4.52016 -10.03125,10.03125 l 0,71 c 0,5.5110902 4.5201598,10.03125 10.03125,10.03125 l 72,0 c 5.51109,0 10.03125,-4.5201597 10.03125,-10.03125 l 0,-71 c 0,-5.51109 -4.52016,-10.03125 -10.03125,-10.03125 l -72,0 z"
       transform="scale(1,-1)"
       id="path3786"
       style="opacity:0.07999998;fill:url(#linearGradient3026);fill-opacity:1;fill-rule:nonzero;stroke:none;display:inline" />
    <path
       d="m 12,-94.03125 c -4.971633,0 -9.03125,4.059617 -9.03125,9.03125 l 0,71 c 0,4.9716329 4.0596171,9.03125 9.03125,9.03125 l 72,0 c 4.971633,0 9.03125,-4.059617 9.03125,-9.03125 l 0,-71 c 0,-4.971633 -4.059617,-9.03125 -9.03125,-9.03125 l -72,0 z"
       transform="scale(1,-1)"
       id="path3778"
       style="opacity:0.1;fill:url(#linearGradient3780);fill-opacity:1;fill-rule:nonzero;stroke:none;display:inline" />
    <path
       d="m 12,-93 c -4.4091333,0 -8,3.590867 -8,8 l 0,71 c 0,4.4091333 3.5908667,8 8,8 l 72,0 c 4.409133,0 8,-3.5908667 8,-8 l 0,-71 c 0,-4.409133 -3.590867,-8 -8,-8 l -72,0 z"
       transform="scale(1,-1)"
       id="path3770"
       style="opacity:0.2;fill:url(#linearGradient3772);fill-opacity:1;fill-rule:nonzero;stroke:none;display:inline" />
    <rect
       width="86"
       height="85"
       rx="7"
       ry="7"
       x="5"
       y="-92"
       transform="scale(1,-1)"
       id="rect3723"
       style="opacity:0.3;fill:url(#linearGradient3725);fill-opacity:1;fill-rule:nonzero;stroke:none;display:inline" />
    <rect
       width="84"
       height="84"
       rx="6"
       ry="6"
       x="6"
       y="-91"
       transform="scale(1,-1)"
       id="rect3716"
       style="opacity:0.45;fill:url(#linearGradient3721);fill-opacity:1;fill-rule:nonzero;stroke:none;display:inline" />
  </g>
  <g
     id="layer1">
    <rect
       width="84"
       height="84"
       rx="6"
       ry="6"
       x="6"
       y="6"
       id="rect2419"
       style="fill:url(#linearGradient3617);fill-opacity:1;fill-rule:nonzero;stroke:none" />
    <path
       d="M 12,6 C 8.676,6 6,8.676 6,12 l 0,2 0,68 0,2 c 0,0.334721 0.04135,0.6507 0.09375,0.96875 0.0487,0.295596 0.09704,0.596915 0.1875,0.875 0.00988,0.03038 0.020892,0.0636 0.03125,0.09375 0.098865,0.287771 0.2348802,0.547452 0.375,0.8125 0.1445918,0.273507 0.3156161,0.535615 0.5,0.78125 0.1843839,0.245635 0.3737765,0.473472 0.59375,0.6875 0.439947,0.428056 0.94291,0.814526 1.5,1.09375 0.278545,0.139612 0.5734731,0.246947 0.875,0.34375 -0.2562018,-0.100222 -0.4867109,-0.236272 -0.71875,-0.375 -0.00741,-0.0044 -0.023866,0.0045 -0.03125,0 -0.031933,-0.0193 -0.062293,-0.04251 -0.09375,-0.0625 -0.120395,-0.0767 -0.2310226,-0.163513 -0.34375,-0.25 -0.1061728,-0.0808 -0.2132809,-0.161112 -0.3125,-0.25 C 8.4783201,88.557317 8.3087904,88.373362 8.15625,88.1875 8.0486711,88.057245 7.9378561,87.922215 7.84375,87.78125 7.818661,87.74287 7.805304,87.69538 7.78125,87.65625 7.716487,87.553218 7.6510225,87.451733 7.59375,87.34375 7.4927417,87.149044 7.3880752,86.928049 7.3125,86.71875 7.30454,86.69694 7.288911,86.6782 7.28125,86.65625 7.2494249,86.5643 7.2454455,86.469419 7.21875,86.375 7.1884177,86.268382 7.1483606,86.171969 7.125,86.0625 7.0521214,85.720988 7,85.364295 7,85 L 7,83 7,15 7,13 C 7,10.218152 9.2181517,8 12,8 l 2,0 68,0 2,0 c 2.781848,0 5,2.218152 5,5 l 0,2 0,68 0,2 c 0,0.364295 -0.05212,0.720988 -0.125,1.0625 -0.04415,0.206893 -0.08838,0.397658 -0.15625,0.59375 -0.0077,0.02195 -0.0233,0.04069 -0.03125,0.0625 -0.06274,0.173739 -0.138383,0.367449 -0.21875,0.53125 -0.04158,0.0828 -0.07904,0.169954 -0.125,0.25 -0.0546,0.09721 -0.126774,0.18835 -0.1875,0.28125 -0.09411,0.140965 -0.204921,0.275995 -0.3125,0.40625 -0.143174,0.17445 -0.303141,0.346998 -0.46875,0.5 -0.01117,0.0102 -0.01998,0.02115 -0.03125,0.03125 -0.138386,0.125556 -0.285091,0.234436 -0.4375,0.34375 -0.102571,0.07315 -0.204318,0.153364 -0.3125,0.21875 -0.0074,0.0045 -0.02384,-0.0044 -0.03125,0 -0.232039,0.138728 -0.462548,0.274778 -0.71875,0.375 0.301527,-0.0968 0.596455,-0.204138 0.875,-0.34375 0.55709,-0.279224 1.060053,-0.665694 1.5,-1.09375 0.219973,-0.214028 0.409366,-0.441865 0.59375,-0.6875 0.184384,-0.245635 0.355408,-0.507743 0.5,-0.78125 0.14012,-0.265048 0.276135,-0.524729 0.375,-0.8125 0.01041,-0.03078 0.02133,-0.06274 0.03125,-0.09375 0.09046,-0.278085 0.1388,-0.579404 0.1875,-0.875 C 89.95865,84.6507 90,84.334721 90,84 l 0,-2 0,-68 0,-2 C 90,8.676 87.324,6 84,6 L 12,6 z"
       id="rect3728"
       style="opacity:0.4;fill:url(#linearGradient3188);fill-opacity:1;fill-rule:nonzero;stroke:none" />
    <path
       d="M 12,90 C 8.676,90 6,87.324 6,84 L 6,82 6,14 6,12 c 0,-0.334721 0.04135,-0.6507 0.09375,-0.96875 0.0487,-0.295596 0.09704,-0.596915 0.1875,-0.875 C 6.29113,10.12587 6.302142,10.09265 6.3125,10.0625 6.411365,9.774729 6.5473802,9.515048 6.6875,9.25 6.8320918,8.976493 7.0031161,8.714385 7.1875,8.46875 7.3718839,8.223115 7.5612765,7.995278 7.78125,7.78125 8.221197,7.353194 8.72416,6.966724 9.28125,6.6875 9.559795,6.547888 9.8547231,6.440553 10.15625,6.34375 9.9000482,6.443972 9.6695391,6.580022 9.4375,6.71875 c -0.00741,0.0044 -0.023866,-0.0045 -0.03125,0 -0.031933,0.0193 -0.062293,0.04251 -0.09375,0.0625 -0.120395,0.0767 -0.2310226,0.163513 -0.34375,0.25 -0.1061728,0.0808 -0.2132809,0.161112 -0.3125,0.25 C 8.4783201,7.442683 8.3087904,7.626638 8.15625,7.8125 8.0486711,7.942755 7.9378561,8.077785 7.84375,8.21875 7.818661,8.25713 7.805304,8.30462 7.78125,8.34375 7.716487,8.446782 7.6510225,8.548267 7.59375,8.65625 7.4927417,8.850956 7.3880752,9.071951 7.3125,9.28125 7.30454,9.30306 7.288911,9.3218 7.28125,9.34375 7.2494249,9.4357 7.2454455,9.530581 7.21875,9.625 7.1884177,9.731618 7.1483606,9.828031 7.125,9.9375 7.0521214,10.279012 7,10.635705 7,11 l 0,2 0,68 0,2 c 0,2.781848 2.2181517,5 5,5 l 2,0 68,0 2,0 c 2.781848,0 5,-2.218152 5,-5 l 0,-2 0,-68 0,-2 C 89,10.635705 88.94788,10.279012 88.875,9.9375 88.83085,9.730607 88.78662,9.539842 88.71875,9.34375 88.71105,9.3218 88.69545,9.30306 88.6875,9.28125 88.62476,9.107511 88.549117,8.913801 88.46875,8.75 88.42717,8.6672 88.38971,8.580046 88.34375,8.5 88.28915,8.40279 88.216976,8.31165 88.15625,8.21875 88.06214,8.077785 87.951329,7.942755 87.84375,7.8125 87.700576,7.63805 87.540609,7.465502 87.375,7.3125 87.36383,7.3023 87.35502,7.29135 87.34375,7.28125 87.205364,7.155694 87.058659,7.046814 86.90625,6.9375 86.803679,6.86435 86.701932,6.784136 86.59375,6.71875 c -0.0074,-0.0045 -0.02384,0.0044 -0.03125,0 -0.232039,-0.138728 -0.462548,-0.274778 -0.71875,-0.375 0.301527,0.0968 0.596455,0.204138 0.875,0.34375 0.55709,0.279224 1.060053,0.665694 1.5,1.09375 0.219973,0.214028 0.409366,0.441865 0.59375,0.6875 0.184384,0.245635 0.355408,0.507743 0.5,0.78125 0.14012,0.265048 0.276135,0.524729 0.375,0.8125 0.01041,0.03078 0.02133,0.06274 0.03125,0.09375 0.09046,0.278085 0.1388,0.579404 0.1875,0.875 C 89.95865,11.3493 90,11.665279 90,12 l 0,2 0,68 0,2 c 0,3.324 -2.676,6 -6,6 l -72,0 z"
       id="path3615"
       style="opacity:0.2;fill:url(#radialGradient3619);fill-opacity:1;fill-rule:nonzero;stroke:none" />
  </g>
  <g
     transform="translate(144)"
     id="layer5">
    <rect
       transform="translate(-144)"
       width="66"
       height="66"
       rx="12"
       ry="12"
       x="15"
       y="15"
       clip-path="url(#clipPath3613)"
       id="rect3171"
       style="opacity:0.1;fill:url(#linearGradient3613);fill-opacity:1;fill-rule:nonzero;stroke:#fefefe;stroke-width:0.5;stroke-linecap:round;stroke-linejoin:miter;stroke-miterlimit:4;stroke-dasharray:none;stroke-dashoffset:0;stroke-opacity:1;filter:url(#filter3794)" />
  </g>
  <path
     d="m 25.44844,48.638499 c 0,-0.93324 -0.17237,-1.95203 -0.71455,-2.73461 -1.08705,-1.56861 -3.42059,-2.06761 -5.04492,-1.07905 -0.82103,0.50001 -1.27762,1.37294 -1.53507,2.26915 -0.51107,1.7796 -0.27672,3.81049 0.0807,5.59771 0.11423,0.57159 0.2322,1.14402 0.39255,1.70509 0.0579,0.20242 0.0848,0.49652 0.21637,0.6649 0.22977,0.29437 0.79073,0.37963 1.13468,0.32172 1.03203,-0.17346 0.77652,-1.87272 0.74139,-2.59524 -0.0823,-1.69247 -0.58103,-3.3352 -0.0979,-5.01861 0.2046,-0.71234 0.59982,-1.51338 1.31926,-1.82279 0.64942,-0.27962 1.3047,0.0625 1.56186,0.6968 0.41639,1.02711 0.31236,2.21287 0.57352,3.28152 0.0888,0.36327 0.18635,0.72306 0.35019,1.06171 0.0474,0.0978 0.11288,0.30134 0.25043,0.28901 0.33437,-0.0305 0.80977,-0.58848 1.06046,-0.79545 0.80976,-0.66918 1.64176,-1.38577 2.57412,-1.88101 0.43867,-0.23297 1.16051,-0.61019 1.60852,-0.21394 0.1142,0.10108 0.20618,0.22172 0.28795,0.3496 0.52661,0.82494 0.004,1.4676 -0.33863,2.252 -0.44323,1.01525 -0.89742,2.02038 -1.5396,2.92767 -0.55209,0.78018 -1.30663,1.46413 -1.7477,2.31639 -0.28396,0.5488 -0.44457,1.1502 -0.32712,1.76948 0.0952,0.50082 0.48345,0.80323 0.99424,0.68581 0.38235,-0.088 0.64138,-0.41557 0.85937,-0.71798 0.38853,-0.53941 0.74943,-1.0992 1.13555,-1.64081 0.74701,-1.04744 1.62837,-2.02683 2.25662,-3.15283 0.75721,-1.35743 1.12243,-2.89337 1.12156,-4.43952 -4.8e-4,-1.26355 -0.45874,-3.19467 -1.93054,-3.45954 -0.27697,-0.0496 -0.59366,-0.0225 -0.86876,0.0255 -0.34185,0.0595 -0.68506,0.17078 -0.99743,0.32199 -0.83684,0.40483 -1.56051,1.00936 -2.1823,1.6968 -0.38796,0.42843 -0.73547,0.96735 -1.19588,1.31906"
     id="path26"
     style="fill:#ffb400;stroke-width:0.09638757" />
  <path
     d="m 24.06529,17.382349 c -1.16052,0.15255 -2.3403,0.13673 -3.50659,0.31689 -2.23464,0.34506 -4.37465,1.03915 -6.46741,1.87647 -0.76204,0.30478 -1.51386,0.64446 -2.25229,1.00186 -0.2748,0.13301 -0.69394,0.23942 -0.91489,0.45283 -0.115,0.11123 -0.1032,0.37187 -0.11717,0.52058 -0.0389,0.41853 -0.0912,0.83656 -0.13166,1.25478 -0.1563,1.61391 -0.26649,3.2767 -0.0354,4.88964 0.0748,0.52119 0.23677,1.46654 0.87734,1.56649 0.98509,0.15417 1.7504,-1.05794 2.23378,-1.72736 1.12909,-1.5632 2.41374,-3.01876 4.26554,-3.71766 2.17971,-0.82286 4.67615,-1.0167 6.98174,-1.17487 6.4704,-0.44345 13.54149,0.73835 18.30785,5.50412 0.67784,0.67776 1.31945,1.39704 1.8651,2.1877 2.13412,3.09009 3.26263,6.6038 3.80615,10.2942 0.25553,1.73275 0.4301,3.48614 0.0348,5.21157 -0.6859,2.99361 -2.4843,5.59926 -4.55075,7.81752 -1.41439,1.5183 -3.00604,2.89067 -4.66256,4.13811 -0.9248,0.69626 -1.96197,1.28688 -2.83148,2.04805 -1.00147,0.87668 -1.83454,1.97373 -2.46761,3.14348 -1.70376,3.14966 -2.16064,6.93952 -1.65952,10.455161 0.1027,0.72066 0.19548,1.44475 0.35877,2.15552 0.0488,0.2126 0.0574,0.57803 0.19494,0.75175 0.25741,0.32495 0.95992,0.50376 1.35328,0.5228 0.41024,0.0198 0.6832,-0.29544 0.78376,-0.66328 0.17213,-0.6303 0.0692,-1.32841 -0.0305,-1.96245 -0.20432,-1.29863 -0.39148,-2.60652 -0.33356,-3.92471 0.10673,-2.434081 1.04784,-4.702181 2.735,-6.466351 1.7158,-1.79416 4.03325,-2.82869 5.98316,-4.33166 3.92982,-3.02898 7.45038,-7.11562 8.80231,-11.97905 0.48319,-1.73912 0.64325,-3.58205 0.42259,-5.37245 -0.27887,-2.26462 -1.10711,-4.52665 -1.88737,-6.65932 -2.37789,-6.49942 -6.45797,-12.68172 -12.93618,-15.65527 -2.57065,-1.18027 -5.25987,-1.71753 -8.04354,-2.1052 -1.30606,-0.1818 -2.61114,-0.29332 -3.92491,-0.35097 -0.73061,-0.0319 -1.52484,-0.11287 -2.25257,-0.0172"
     id="path28"
     style="fill:#fefefe;fill-opacity:1;stroke-width:0.09638757" />
  <path
     d="m 13.93013,59.461869 c -1.26268,0.18069 -1.62972,1.1928 -1.39646,2.3346 0.2987,1.46114 1.44793,2.57567 2.58666,3.45338 2.91755,2.24881 6.68592,3.46435 10.35973,3.30348 1.43366,-0.0627 2.99563,-0.29973 4.31132,-0.90805 0.70546,-0.32601 1.4434,-1.50057 0.48265,-2.00322 -0.13166,-0.0689 -0.30378,-0.11154 -0.45047,-0.13566 -0.41961,-0.0687 -0.88941,0.10992 -1.28707,0.22413 -0.70117,0.20135 -1.40176,0.40751 -2.12361,0.52332 -2.15658,0.3464 -4.48858,-0.14638 -6.27406,-1.42412 -1.44418,-1.03328 -2.61162,-2.39619 -3.71372,-3.77357 -0.67461,-0.84244 -1.28437,-1.76776 -2.49682,-1.59425"
     id="path30"
     style="fill:#fefefe;fill-opacity:1;stroke-width:0.09638757" />
  <path
     d="m 12.28913,66.603219 c -0.32122,0.0423 -0.68964,0.0303 -0.96474,0.23218 -0.57381,0.42119 0.0582,1.26836 0.3601,1.65228 0.87544,1.11231 2.02819,2.035701 3.17848,2.849601 3.20691,2.26839 6.83956,3.57704 10.74625,3.8448 1.1232,0.077 2.26732,-0.003 3.3782,-0.18793 0.40619,-0.0678 0.91165,-0.0984 1.28705,-0.27373 1.06229,-0.4968 0.75505,-2.50348 -0.19305,-2.94966 -0.414,-0.19464 -1.07819,0.0624 -1.51233,0.12279 -1.02671,0.14317 -2.05633,0.15764 -3.08893,0.13243 -2.70627,-0.0662 -5.58922,-0.89974 -7.94724,-2.215071 -0.92694,-0.51744 -1.77826,-1.14692 -2.57413,-1.84746 -0.48398,-0.42602 -0.98113,-1.12311 -1.60881,-1.33834 -0.29226,-0.10028 -0.75778,-0.0622 -1.06181,-0.0222"
     id="path32"
     style="fill:#fefefe;fill-opacity:1;stroke-width:0.09638757" />
  <path
     d="m 12.93262,72.61974 c -0.45741,0.0512 -0.80223,0.28981 -1.10306,0.62922 -0.20728,0.23378 -0.40408,0.44506 -0.52314,0.73996 -0.65639,1.62365 1.09342,3.1563 2.30193,3.92307 1.34489,0.8531 2.81432,1.48553 4.31132,2.01826 3.37635,1.20166 7.33645,1.97084 10.84264,0.89653 1.04224,-0.31904 2.07243,-0.90243 2.83013,-1.69093 0.42684,-0.44424 0.71992,-1.11694 -0.063,-1.40138 -0.46388,-0.16836 -1.02721,0.26033 -1.44794,0.42977 -0.99318,0.40054 -2.02279,0.70456 -3.08893,0.83352 -1.40418,0.17024 -2.66849,-0.13887 -4.02178,-0.47749 -1.15597,-0.289 -2.32496,-0.57803 -3.44257,-0.99462 -0.95348,-0.35549 -1.90057,-0.77776 -2.73491,-1.36813 -0.24936,-0.1764 -0.54806,-0.33351 -0.75237,-0.56327 -0.66793,-0.75149 -1.16986,-1.63088 -1.88602,-2.34559 -0.30943,-0.30886 -0.74914,-0.68205 -1.22268,-0.62923"
     id="path34"
     style="fill:#fefefe;fill-opacity:1;stroke-width:0.09638757" />
</svg>
