<?xml version="1.0" encoding="UTF-8" standalone="no"?>
<svg
   xmlns:dc="http://purl.org/dc/elements/1.1/"
   xmlns:cc="http://creativecommons.org/ns#"
   xmlns:rdf="http://www.w3.org/1999/02/22-rdf-syntax-ns#"
   xmlns:svg="http://www.w3.org/2000/svg"
   xmlns="http://www.w3.org/2000/svg"
   xmlns:xlink="http://www.w3.org/1999/xlink"
   id="svg2408"
   height="96"
   width="96"
   version="1.0">
  <defs
     id="defs2410">
    <linearGradient
       id="linearGradient903">
      <stop
         id="stop899"
         offset="0"
         style="stop-color:#3c3c3c;stop-opacity:1" />
      <stop
         id="stop901"
         offset="1"
         style="stop-color:#000000;stop-opacity:1" />
    </linearGradient>
    <linearGradient
       gradientUnits="userSpaceOnUse"
       xlink:href="#linearGradient3737"
       id="linearGradient2675"
       y2="69.687508"
       x2="65.15625"
       y1="16.125"
       x1="65.15625" />
    <linearGradient
       id="linearGradient3687">
      <stop
         offset="0"
         style="stop-color:#fefefe;stop-opacity:0.99277979"
         id="stop3689" />
      <stop
         offset="1"
         style="stop-color:#fefefe;stop-opacity:0"
         id="stop3691" />
    </linearGradient>
    <linearGradient
       id="linearGradient3175">
      <stop
         offset="0"
         style="stop-color:#282828;stop-opacity:1"
         id="stop3177" />
      <stop
         offset="1"
         style="stop-color:#000000;stop-opacity:1"
         id="stop3179" />
    </linearGradient>
    <radialGradient
       gradientTransform="matrix(-0.00506833,1.2204755,-1.3843695,-0.00574561,26.241279,-46.842142)"
       gradientUnits="userSpaceOnUse"
       xlink:href="#linearGradient3175"
       id="radialGradient3465"
       fy="-15.894132"
       fx="48"
       r="35.9375"
       cy="-15.894132"
       cx="48" />
    <linearGradient
       gradientTransform="scale(1.0058652,0.994169)"
       gradientUnits="userSpaceOnUse"
       id="ButtonShadow"
       y2="7.0165396"
       x2="45.447727"
       y1="92.539597"
       x1="45.447727">
      <stop
         offset="0"
         style="stop-color:#000000;stop-opacity:1"
         id="stop3750" />
      <stop
         offset="1"
         style="stop-color:#000000;stop-opacity:0.58823532"
         id="stop3752" />
    </linearGradient>
    <linearGradient
       id="linearGradient3737">
      <stop
         offset="0"
         style="stop-color:#fefefe;stop-opacity:1"
         id="stop3739" />
      <stop
         offset="1"
         style="stop-color:#fefefe;stop-opacity:0"
         id="stop3741" />
    </linearGradient>
    <linearGradient
       id="linearGradient3700">
      <stop
         offset="0"
         style="stop-color:#dcdcdc;stop-opacity:1"
         id="stop3702" />
      <stop
         offset="1"
         style="stop-color:#f0f0f0;stop-opacity:1"
         id="stop3704" />
    </linearGradient>
    <filter
       id="filter3174"
       color-interpolation-filters="sRGB">
      <feGaussianBlur
         id="feGaussianBlur3176"
         stdDeviation="1.71" />
    </filter>
    <linearGradient
       gradientUnits="userSpaceOnUse"
       xlink:href="#linearGradient3737"
       id="linearGradient3188"
       y2="63.893143"
       x2="36.357143"
       y1="6"
       x1="36.357143" />
    <linearGradient
       gradientUnits="userSpaceOnUse"
       xlink:href="#linearGradient3737"
       id="linearGradient3507"
       y2="75.716286"
       x2="46.020512"
       y1="-2.75"
       x1="24.995535" />
    <linearGradient
       gradientUnits="userSpaceOnUse"
       xlink:href="#linearGradient3737"
       id="linearGradient3519"
       y2="75.716286"
       x2="46.020512"
       y1="-2.75"
       x1="24.995535" />
    <filter
       id="filter3531"
       color-interpolation-filters="sRGB"
       height="1.84"
       width="1.336"
       y="-0.42000002"
       x="-0.168">
      <feGaussianBlur
         id="feGaussianBlur3533"
         stdDeviation="0.55" />
    </filter>
    <linearGradient
       gradientTransform="translate(-80,0)"
       gradientUnits="userSpaceOnUse"
       xlink:href="#linearGradient3737"
       id="linearGradient3701"
       y2="64.556129"
       x2="67.260826"
       y1="20.867033"
       x1="10.898764" />
    <linearGradient
       gradientUnits="userSpaceOnUse"
       xlink:href="#linearGradient3700"
       id="linearGradient3735"
       y2="5.9877172"
       x2="48"
       y1="90"
       x1="48" />
    <linearGradient
       gradientTransform="translate(-80)"
       gradientUnits="userSpaceOnUse"
       xlink:href="#linearGradient3687"
       id="linearGradient4126"
       y2="64.188072"
       x2="142.47113"
       y1="16.125"
       x1="142.47113" />
    <linearGradient
       gradientUnits="userSpaceOnUse"
       xlink:href="#linearGradient3737"
       id="linearGradient4151"
       y2="87.868492"
       x2="68.517296"
       y1="9.0625"
       x1="68.517296" />
    <filter
       id="filter4161"
       color-interpolation-filters="sRGB">
      <feGaussianBlur
         stdDeviation="0.50332031"
         id="feGaussianBlur4163" />
    </filter>
    <linearGradient
       id="linearGradient3737-1">
      <stop
         offset="0"
         style="stop-color:#fefefe;stop-opacity:1"
         id="stop3739-7" />
      <stop
         offset="1"
         style="stop-color:#fefefe;stop-opacity:0"
         id="stop3741-2" />
    </linearGradient>
    <radialGradient
       gradientTransform="matrix(1.1573129,0,0,0.99590774,-7.551021,0.1971319)"
       gradientUnits="userSpaceOnUse"
       xlink:href="#linearGradient3737-1"
       id="radialGradient2874"
       fy="90.171875"
       fx="48"
       r="42"
       cy="90.171875"
       cx="48" />
    <linearGradient
       gradientTransform="matrix(1.0058652,0,0,0.994169,100,0)"
       gradientUnits="userSpaceOnUse"
       id="ButtonShadow-0"
       y2="7.0165396"
       x2="45.447727"
       y1="92.539597"
       x1="45.447727">
      <stop
         offset="0"
         style="stop-color:#000000;stop-opacity:1"
         id="stop3750-8" />
      <stop
         offset="1"
         style="stop-color:#000000;stop-opacity:0.58823532"
         id="stop3752-5" />
    </linearGradient>
    <linearGradient
       gradientTransform="matrix(1.0238095,0,0,1.0119048,-1.1428571,-98.071429)"
       gradientUnits="userSpaceOnUse"
       xlink:href="#ButtonShadow-0"
       id="linearGradient3780"
       y2="90.238609"
       x2="32.251034"
       y1="6.1317081"
       x1="32.251034" />
    <linearGradient
       gradientTransform="matrix(1.0238095,0,0,1.0119048,-1.1428571,-98.071429)"
       gradientUnits="userSpaceOnUse"
       xlink:href="#ButtonShadow-0"
       id="linearGradient3772"
       y2="90.238609"
       x2="32.251034"
       y1="6.1317081"
       x1="32.251034" />
    <linearGradient
       gradientTransform="matrix(1.0238095,0,0,1.0119048,-1.1428571,-98.071429)"
       gradientUnits="userSpaceOnUse"
       xlink:href="#ButtonShadow-0"
       id="linearGradient3725"
       y2="90.238609"
       x2="32.251034"
       y1="6.1317081"
       x1="32.251034" />
    <linearGradient
       gradientTransform="translate(0,-97)"
       gradientUnits="userSpaceOnUse"
       xlink:href="#ButtonShadow-0"
       id="linearGradient3721"
       y2="90.238609"
       x2="32.251034"
       y1="6.1317081"
       x1="32.251034" />
    <linearGradient
       gradientTransform="matrix(1.0238095,0,0,1.0119048,-1.1428571,-98.071429)"
       gradientUnits="userSpaceOnUse"
       xlink:href="#ButtonShadow-0"
       id="linearGradient2918"
       y2="90.238609"
       x2="32.251034"
       y1="6.1317081"
       x1="32.251034" />
    <radialGradient
       gradientUnits="userSpaceOnUse"
       gradientTransform="matrix(2.6911551,-0.07215544,0.07538566,3.1720409,126.11823,-88.642251)"
       r="15.748107"
       fy="49.614071"
       fx="-30.417578"
       cy="49.614071"
       cx="-30.417578"
       id="radialGradient909"
       xlink:href="#linearGradient903" />
  </defs>
  <metadata
     id="metadata2413">
    <rdf:RDF>
      <cc:Work
         rdf:about="">
        <dc:format>image/svg+xml</dc:format>
        <dc:type
           rdf:resource="http://purl.org/dc/dcmitype/StillImage" />
        <dc:title></dc:title>
      </cc:Work>
    </rdf:RDF>
  </metadata>
  <g
     style="display:none"
     id="layer2">
    <rect
       style="opacity:0.9;fill:url(#ButtonShadow);fill-opacity:1;fill-rule:nonzero;stroke:none;filter:url(#filter3174)"
       id="rect3745"
       y="7"
       x="5"
       ry="6"
       rx="6"
       height="85"
       width="86" />
  </g>
  <g
     style="display:inline"
     id="layer6">
    <path
       style="opacity:0.07999998;fill:url(#linearGradient2918);fill-opacity:1;fill-rule:nonzero;stroke:none;display:inline"
       id="path3786"
       transform="scale(1,-1)"
       d="m 12,-95.03125 c -5.5110903,0 -10.03125,4.52016 -10.03125,10.03125 l 0,71 c 0,5.5110902 4.5201598,10.03125 10.03125,10.03125 l 72,0 c 5.51109,0 10.03125,-4.5201597 10.03125,-10.03125 l 0,-71 c 0,-5.51109 -4.52016,-10.03125 -10.03125,-10.03125 l -72,0 z" />
    <path
       style="opacity:0.1;fill:url(#linearGradient3780);fill-opacity:1;fill-rule:nonzero;stroke:none;display:inline"
       id="path3778"
       transform="scale(1,-1)"
       d="m 12,-94.03125 c -4.971633,0 -9.03125,4.059617 -9.03125,9.03125 l 0,71 c 0,4.9716329 4.0596171,9.03125 9.03125,9.03125 l 72,0 c 4.971633,0 9.03125,-4.059617 9.03125,-9.03125 l 0,-71 c 0,-4.971633 -4.059617,-9.03125 -9.03125,-9.03125 l -72,0 z" />
    <path
       style="opacity:0.2;fill:url(#linearGradient3772);fill-opacity:1;fill-rule:nonzero;stroke:none;display:inline"
       id="path3770"
       transform="scale(1,-1)"
       d="m 12,-93 c -4.4091333,0 -8,3.590867 -8,8 l 0,71 c 0,4.4091333 3.5908667,8 8,8 l 72,0 c 4.409133,0 8,-3.5908667 8,-8 l 0,-71 c 0,-4.409133 -3.590867,-8 -8,-8 l -72,0 z" />
    <rect
       style="opacity:0.3;fill:url(#linearGradient3725);fill-opacity:1;fill-rule:nonzero;stroke:none;display:inline"
       id="rect3723"
       transform="scale(1,-1)"
       y="-92"
       x="5"
       ry="7"
       rx="7"
       height="85"
       width="86" />
    <rect
       style="opacity:0.45;fill:url(#linearGradient3721);fill-opacity:1;fill-rule:nonzero;stroke:none;display:inline"
       id="rect3716"
       transform="scale(1,-1)"
       y="-91"
       x="6"
       ry="6"
       rx="6"
       height="84"
       width="84" />
  </g>
  <g
     transform="translate(0,6)"
     id="layer3">
    <path
       style="fill:url(#radialGradient3465);fill-opacity:1;fill-rule:nonzero;stroke:none"
       id="path3215"
       transform="matrix(-1.0008688,0,0,-1.1558456,96.010447,88.220854)"
       d="m 12.0625,12.0625 v 53.875 h 71.875 v -53.875 z" />
    <path
       style="fill:#000000;fill-opacity:1;fill-rule:nonzero;stroke:none;filter:url(#filter4161)"
       id="path3726"
       d="M 12,12 V 74.28125 H 83.9375 V 12 Z m 3,3 H 81 V 71 H 15 Z" />
  </g>
  <g
     style="display:inline"
     id="layer1">
    <path
       style="fill:url(#linearGradient3735);fill-opacity:1;fill-rule:nonzero;stroke:none"
       id="rect2419"
       d="M 12,6 C 8.676,6 6,8.676 6,12 v 72 c 0,3.324 2.676,6 6,6 h 72 c 3.324,0 6,-2.676 6,-6 V 12 C 90,8.676 87.324,6 84,6 Z m 2,7.494924 H 82.378807 V 72 H 14 Z" />
    <path
       style="fill:url(#linearGradient3188);fill-opacity:1;fill-rule:nonzero;stroke:none"
       id="rect3728"
       d="M 12,6 C 8.676,6 6,8.676 6,12 v 2 68 2 c 0,0.334721 0.04135,0.6507 0.09375,0.96875 0.0487,0.295596 0.09704,0.596915 0.1875,0.875 0.00988,0.03038 0.020892,0.0636 0.03125,0.09375 0.098865,0.287771 0.2348802,0.547452 0.375,0.8125 0.1445918,0.273507 0.3156161,0.535615 0.5,0.78125 0.1843839,0.245635 0.3737765,0.473472 0.59375,0.6875 0.439947,0.428056 0.94291,0.814526 1.5,1.09375 0.278545,0.139612 0.5734731,0.246947 0.875,0.34375 -0.2562018,-0.100222 -0.4867109,-0.236272 -0.71875,-0.375 -0.00741,-0.0044 -0.023866,0.0045 -0.03125,0 -0.031933,-0.0193 -0.062293,-0.04251 -0.09375,-0.0625 -0.120395,-0.0767 -0.2310226,-0.163513 -0.34375,-0.25 -0.1061728,-0.0808 -0.2132809,-0.161112 -0.3125,-0.25 C 8.4783201,88.557317 8.3087904,88.373362 8.15625,88.1875 8.0486711,88.057245 7.9378561,87.922215 7.84375,87.78125 7.818661,87.74287 7.805304,87.69538 7.78125,87.65625 7.716487,87.553218 7.6510225,87.451733 7.59375,87.34375 7.4927417,87.149044 7.3880752,86.928049 7.3125,86.71875 7.30454,86.69694 7.288911,86.6782 7.28125,86.65625 7.2494249,86.5643 7.2454455,86.469419 7.21875,86.375 7.1884177,86.268382 7.1483606,86.171969 7.125,86.0625 7.0521214,85.720988 7,85.364295 7,85 V 83 15 13 C 7,10.218152 9.2181517,8 12,8 h 2 68 2 c 2.781848,0 5,2.218152 5,5 v 2 68 2 c 0,0.364295 -0.05212,0.720988 -0.125,1.0625 -0.04415,0.206893 -0.08838,0.397658 -0.15625,0.59375 -0.0077,0.02195 -0.0233,0.04069 -0.03125,0.0625 -0.06274,0.173739 -0.138383,0.367449 -0.21875,0.53125 -0.04158,0.0828 -0.07904,0.169954 -0.125,0.25 -0.0546,0.09721 -0.126774,0.18835 -0.1875,0.28125 -0.09411,0.140965 -0.204921,0.275995 -0.3125,0.40625 -0.143174,0.17445 -0.303141,0.346998 -0.46875,0.5 -0.01117,0.0102 -0.01998,0.02115 -0.03125,0.03125 -0.138386,0.125556 -0.285091,0.234436 -0.4375,0.34375 -0.102571,0.07315 -0.204318,0.153364 -0.3125,0.21875 -0.0074,0.0045 -0.02384,-0.0044 -0.03125,0 -0.232039,0.138728 -0.462548,0.274778 -0.71875,0.375 0.301527,-0.0968 0.596455,-0.204138 0.875,-0.34375 0.55709,-0.279224 1.060053,-0.665694 1.5,-1.09375 0.219973,-0.214028 0.409366,-0.441865 0.59375,-0.6875 0.184384,-0.245635 0.355408,-0.507743 0.5,-0.78125 0.14012,-0.265048 0.276135,-0.524729 0.375,-0.8125 0.01041,-0.03078 0.02133,-0.06274 0.03125,-0.09375 0.09046,-0.278085 0.1388,-0.579404 0.1875,-0.875 C 89.95865,84.6507 90,84.334721 90,84 V 82 14 12 C 90,8.676 87.324,6 84,6 Z" />
    <path
       style="fill:#e6e6e6;fill-opacity:1;fill-rule:nonzero;stroke:none"
       id="path3174"
       d="M 11.3125,8 C 9.42859,8 8,9.4293755 8,11.3125 v 63.375 C 8,76.570624 9.42859,78 11.3125,78 h 73.375 C 86.57141,78 88,76.570624 88,74.6875 V 11.3125 C 88,9.4293754 86.57141,8 84.6875,8 Z" />
    <path
       style="fill:#000000;fill-opacity:1;fill-rule:nonzero;stroke:none;stroke-width:0.44290054"
       id="rect3535"
       d="m 38.31518,10 c -0.991399,0 -1.789529,0.439999 -1.789529,0.986543 v 1.973087 c 0,0.546545 0.79813,0.986544 1.789529,0.986544 H 56.210471 C 57.20187,13.946174 58,13.506175 58,12.95963 V 10.986543 C 58,10.439999 57.20187,10 56.210471,10 Z" />
    <path
       style="fill:#7f7f7f;fill-opacity:1;fill-rule:nonzero;stroke:none"
       id="rect3483"
       d="m 14,80 h 68 v 1 H 14 Z" />
    <rect
       style="opacity:0.24302787;fill:#ccff00;fill-opacity:1;fill-rule:nonzero;stroke:none;filter:url(#filter3531)"
       id="rect3525"
       transform="matrix(1.2045455,0,0,1.4098656,0.852272,-101.24304)"
       y="79.535713"
       x="50.57143"
       ry="1.5714285"
       rx="1.5714285"
       height="3.1428571"
       width="7.8571429" />
    <rect
       style="fill:#7fff2a;fill-opacity:1;fill-rule:nonzero;stroke:none"
       id="rect3485"
       y="12.197975"
       x="64.053825"
       ry="1"
       rx="1"
       height="2"
       width="5" />
    <path
       style="opacity:0.6;fill:url(#radialGradient2874);fill-opacity:1;fill-rule:nonzero;stroke:none"
       id="path3615"
       d="M 12,90 C 8.676,90 6,87.324 6,84 V 82 14 12 c 0,-0.334721 0.04135,-0.6507 0.09375,-0.96875 0.0487,-0.295596 0.09704,-0.596915 0.1875,-0.875 C 6.29113,10.12587 6.302142,10.09265 6.3125,10.0625 6.411365,9.774729 6.5473802,9.515048 6.6875,9.25 6.8320918,8.976493 7.0031161,8.714385 7.1875,8.46875 7.3718839,8.223115 7.5612765,7.995278 7.78125,7.78125 8.221197,7.353194 8.72416,6.966724 9.28125,6.6875 9.559795,6.547888 9.8547231,6.440553 10.15625,6.34375 9.9000482,6.443972 9.6695391,6.580022 9.4375,6.71875 c -0.00741,0.0044 -0.023866,-0.0045 -0.03125,0 -0.031933,0.0193 -0.062293,0.04251 -0.09375,0.0625 -0.120395,0.0767 -0.2310226,0.163513 -0.34375,0.25 -0.1061728,0.0808 -0.2132809,0.161112 -0.3125,0.25 C 8.4783201,7.442683 8.3087904,7.626638 8.15625,7.8125 8.0486711,7.942755 7.9378561,8.077785 7.84375,8.21875 7.818661,8.25713 7.805304,8.30462 7.78125,8.34375 7.716487,8.446782 7.6510225,8.548267 7.59375,8.65625 7.4927417,8.850956 7.3880752,9.071951 7.3125,9.28125 7.30454,9.30306 7.288911,9.3218 7.28125,9.34375 7.2494249,9.4357 7.2454455,9.530581 7.21875,9.625 7.1884177,9.731618 7.1483606,9.828031 7.125,9.9375 7.0521214,10.279012 7,10.635705 7,11 v 2 68 2 c 0,2.781848 2.2181517,5 5,5 h 2 68 2 c 2.781848,0 5,-2.218152 5,-5 V 81 13 11 C 89,10.635705 88.94788,10.279012 88.875,9.9375 88.83085,9.730607 88.78662,9.539842 88.71875,9.34375 88.71105,9.3218 88.69545,9.30306 88.6875,9.28125 88.62476,9.107511 88.549117,8.913801 88.46875,8.75 88.42717,8.6672 88.38971,8.580046 88.34375,8.5 88.28915,8.40279 88.216976,8.31165 88.15625,8.21875 88.06214,8.077785 87.951329,7.942755 87.84375,7.8125 87.700576,7.63805 87.540609,7.465502 87.375,7.3125 87.36383,7.3023 87.35502,7.29135 87.34375,7.28125 87.205364,7.155694 87.058659,7.046814 86.90625,6.9375 86.803679,6.86435 86.701932,6.784136 86.59375,6.71875 c -0.0074,-0.0045 -0.02384,0.0044 -0.03125,0 -0.232039,-0.138728 -0.462548,-0.274778 -0.71875,-0.375 0.301527,0.0968 0.596455,0.204138 0.875,0.34375 0.55709,0.279224 1.060053,0.665694 1.5,1.09375 0.219973,0.214028 0.409366,0.441865 0.59375,0.6875 0.184384,0.245635 0.355408,0.507743 0.5,0.78125 0.14012,0.265048 0.276135,0.524729 0.375,0.8125 0.01041,0.03078 0.02133,0.06274 0.03125,0.09375 0.09046,0.278085 0.1388,0.579404 0.1875,0.875 C 89.95865,11.3493 90,11.665279 90,12 v 2 68 2 c 0,3.324 -2.676,6 -6,6 z" />
  </g>
  <g
     style="display:none"
     id="layer4">
    <path
       style="opacity:0.4;fill:url(#linearGradient3507);fill-opacity:1;fill-rule:evenodd;stroke:none"
       id="path3488"
       d="m 11.3125,9.15625 c -1.296799,0 -2.15625,0.860159 -2.15625,2.15625 l 0,63.375 c 0,1.296091 0.859451,2.15625 2.15625,2.15625 l 21.40625,0 c 0.426766,-0.0067 0.822797,0.221297 1.03125,0.59375 l 3.28125,6 c 0.294483,0.539885 0.491672,1.007766 0.65625,1.21875 0.164578,0.210984 0.117222,0.1875 0.3125,0.1875 l 7.15625,0 -4.46875,-13.6875 -24.6875,0 C 15.362464,71.153739 14.846261,70.637536 14.84375,70 l 0,-54 c -0.0056,-0.571296 0.405297,-1.061742 0.96875,-1.15625 0.0624,-0.0051 0.125102,-0.0051 0.1875,0 l 6.25,0 -1.875,-5.6875 -9.0625,0 z m 28.6875,0 3.28125,5.6875 36.71875,0 c 0.637536,0.0025 1.153739,0.518714 1.15625,1.15625 l 0,54 C 81.153739,70.637536 80.637536,71.153739 80,71.15625 l -4.21875,0 3.28125,5.6875 5.625,0 c 1.296799,0 2.15625,-0.860159 2.15625,-2.15625 l 0,-63.375 c 0,-1.296091 -0.859451,-2.15625 -2.15625,-2.15625 l -44.6875,0 z" />
    <path
       style="opacity:0.6;fill:url(#linearGradient3519);fill-opacity:1;fill-rule:evenodd;stroke:none"
       id="path3515"
       d="m 17,17 0,52 22.96875,0 -17,-52 L 17,17 z m 27.53125,0 30,52 L 79,69 79,17 44.53125,17 z" />
  </g>
  <path
     id="rect884"
     d="M 14,17.007571 H 82 V 80 H 14 Z"
     style="opacity:1;fill:url(#radialGradient909);fill-opacity:1;stroke:none;stroke-width:4.45016003;stroke-miterlimit:4;stroke-dasharray:none;stroke-opacity:0.16245488;paint-order:stroke fill markers" />
  <path
     style="fill:#b4b4b4;fill-opacity:1;stroke-width:0.24807559"
     d="m 44.421288,68.235335 c -0.129325,-0.170551 -0.41726,-1.177919 -0.639859,-2.238597 -0.60545,-2.884946 -0.791023,-3.153681 -2.906887,-4.209595 -1.023308,-0.510678 -1.986644,-0.882159 -2.140744,-0.82551 -0.154099,0.05666 -1.234839,0.781469 -2.401642,1.610717 -1.166804,0.829245 -2.225514,1.507719 -2.352686,1.507719 -0.334196,0 -2.531797,-2.402109 -2.531797,-2.767403 0,-0.169343 0.48326,-1.039289 1.073918,-1.933213 1.74411,-2.639603 1.801983,-2.903834 1.087701,-4.966026 -0.336452,-0.971348 -0.679958,-1.834316 -0.763348,-1.917709 -0.0834,-0.08339 -1.408921,-0.387082 -2.945612,-0.674863 l -2.793985,-0.523233 v -1.977304 -1.977303 l 2.108643,-0.430124 c 3.214552,-0.65571 3.566915,-0.885113 4.559098,-2.968173 L 34.628383,42.151143 33.038026,39.8701 c -0.874697,-1.25457 -1.590353,-2.38052 -1.590353,-2.502111 0,-0.121589 0.604313,-0.81788 1.342922,-1.547311 l 1.342922,-1.326245 1.904014,1.273484 c 2.216471,1.482464 2.851759,1.688877 4.139818,1.345075 l 0.945273,-0.252307 v 1.166094 c 0,0.974952 -0.09322,1.208567 -0.568721,1.425217 -0.955383,0.435301 -3.380582,2.799139 -4.058355,3.955668 -4.061427,6.930304 0.05006,15.655449 8.007368,16.992707 3.369399,0.566243 7.040592,-0.603679 9.543037,-3.041135 0.687528,-0.66967 1.279074,-1.217586 1.314545,-1.217586 0.0355,0 0.556993,0.679816 1.158927,1.510706 1.05813,1.4606 1.124274,1.505933 1.994138,1.366837 0.859639,-0.137461 0.939931,-0.0864 1.803102,1.146626 l 0.903398,1.290496 -1.295582,1.311876 c -0.712571,0.721532 -1.411027,1.311594 -1.552133,1.311249 -0.1411,-2.48e-4 -1.089204,-0.554765 -2.10689,-1.232043 -1.017694,-0.67728 -2.158169,-1.299024 -2.534402,-1.381657 -0.76738,-0.168546 -3.885335,0.754717 -4.318633,1.278797 -0.147841,0.178817 -0.41363,1.305994 -0.590636,2.504837 -0.498318,3.375006 -0.439558,3.296056 -2.45306,3.296056 -1.079045,0 -1.799254,-0.11468 -1.947437,-0.310095 z m -0.02992,-8.875 c -2.678141,-0.554674 -5.571785,-2.600711 -6.911719,-4.887136 -2.504847,-4.2742 -1.430999,-10.215612 2.37268,-13.127595 1.115514,-0.854005 1.14855,-0.862613 1.230575,-0.320694 0.05993,0.395938 -0.155143,0.740987 -0.744223,1.19397 -2.225061,1.711001 -3.352403,3.677622 -3.594538,6.270588 -0.478191,5.120826 3.492788,10.010825 8.559445,10.540395 2.548248,0.266347 5.515114,-0.671528 7.850733,-2.481738 0.545763,-0.422994 0.837968,-0.574514 0.649343,-0.336709 -0.603309,0.76061 -2.615904,2.114151 -3.890681,2.616622 -1.492798,0.588404 -4.057119,0.835611 -5.521615,0.532297 z M 56.843957,54.953286 C 55.346659,53.069194 52.31402,48.611571 50.407634,45.492634 l -0.974456,-1.59426 -0.06643,5.997601 c -0.03654,3.298679 -0.148169,6.001137 -0.248074,6.005458 -0.09991,0.0043 -1.353803,0.168238 -2.786443,0.364255 -1.432635,0.196017 -2.855971,0.359931 -3.162961,0.364255 l -0.558169,0.0079 V 43.031067 29.424325 l 2.418736,-0.16017 c 1.330306,-0.08809 2.835377,-0.160747 3.344608,-0.161455 l 0.925875,-0.0012 0.06643,5.979256 0.06643,5.979259 1.662245,-2.444182 c 1.652257,-2.429469 5.068599,-6.902767 6.56029,-8.589907 l 0.780274,-0.882507 3.269467,0.824477 c 1.798211,0.453463 3.326583,0.881585 3.396382,0.951387 0.0698,0.0698 -0.679575,1.056874 -1.665273,2.193497 -2.099413,2.420856 -4.862481,5.949378 -6.212166,7.933126 l -0.953324,1.401175 1.377626,2.19592 c 1.68673,2.688616 3.653142,5.436827 5.849316,8.174842 0.913584,1.138982 1.583385,2.117263 1.488453,2.173956 -0.254681,0.152095 -6.206313,1.895885 -6.430773,1.884175 -0.10549,-0.0055 -0.875771,-0.870665 -1.711737,-1.922585 z"
     id="path5898" />
  <g
     transform="translate(2.4449116,0.5214469)"
     style="display:inline"
     id="layer5">
    <path
       style="display:none;fill:#000000;fill-opacity:1;fill-rule:nonzero;stroke:none"
       id="path3691"
       d="M 11.3125,8 C 9.42859,8 8,9.4293755 8,11.3125 v 63.375 C 8,76.570624 9.42859,78 11.3125,78 H 27 c 1.656,0 3,1.344 3,3 v 2 c 0,1.662 1.338,3 3,3 h 30 c 1.662,0 3,-1.338 3,-3 v -2 c 0,-1.656 1.344,-3 3,-3 H 84.6875 C 86.57141,78 88,76.570624 88,74.6875 V 11.3125 C 88,9.4293754 86.57141,8 84.6875,8 Z M 14,14 H 82 V 72 H 14 Z" />
    <path
       style="opacity:0.4;fill:url(#linearGradient2675);fill-opacity:1;fill-rule:evenodd;stroke:none"
       id="path2669"
       d="m 47.65625,16.125 22.03125,63.75 h 1 L 48.65625,16.125 Z" />
    <path
       style="opacity:0.3;fill:url(#linearGradient4126);fill-opacity:1;fill-rule:evenodd;stroke:none"
       id="path3664"
       d="M 47.65625,16.125 69.6875,79.875 H 79 c 0.538805,0 0.875,-0.336196 0.875,-0.875 V 17 c 0,-0.538805 -0.336194,-0.875 -0.875,-0.875 z" />
  </g>
</svg>
