<?xml version="1.0" encoding="UTF-8" standalone="no"?>
<svg
   xmlns:dc="http://purl.org/dc/elements/1.1/"
   xmlns:cc="http://creativecommons.org/ns#"
   xmlns:rdf="http://www.w3.org/1999/02/22-rdf-syntax-ns#"
   xmlns:svg="http://www.w3.org/2000/svg"
   xmlns="http://www.w3.org/2000/svg"
   xmlns:xlink="http://www.w3.org/1999/xlink"
   version="1.0"
   width="96"
   height="96"
   id="svg2408">
  <defs
     id="defs2410">
    <linearGradient
       gradientTransform="scale(1.0058652,0.994169)"
       gradientUnits="userSpaceOnUse"
       id="linearGradient4750"
       y2="7.0165396"
       x2="45.447727"
       y1="92.539597"
       x1="45.447727">
      <stop
         offset="0"
         style="stop-color:#141414;stop-opacity:1"
         id="stop4746" />
      <stop
         offset="1"
         style="stop-color:#25556e;stop-opacity:0.96862745"
         id="stop4748" />
    </linearGradient>
    <linearGradient
       id="linearGradient3805">
      <stop
         id="stop3807"
         style="stop-color:#d40000;stop-opacity:1"
         offset="0" />
      <stop
         id="stop3809"
         style="stop-color:#d40000;stop-opacity:0"
         offset="1" />
    </linearGradient>
    <linearGradient
       id="linearGradient3797">
      <stop
         id="stop3799"
         style="stop-color:#ff6600;stop-opacity:1"
         offset="0" />
      <stop
         id="stop3801"
         style="stop-color:#ff6600;stop-opacity:0"
         offset="1" />
    </linearGradient>
    <linearGradient
       id="linearGradient3789">
      <stop
         id="stop3791"
         style="stop-color:#ff992a;stop-opacity:1"
         offset="0" />
      <stop
         id="stop3793"
         style="stop-color:#ff992a;stop-opacity:0"
         offset="1" />
    </linearGradient>
    <linearGradient
       id="linearGradient3781">
      <stop
         id="stop3783"
         style="stop-color:#ffd42a;stop-opacity:1"
         offset="0" />
      <stop
         id="stop3785"
         style="stop-color:#ffd42a;stop-opacity:0"
         offset="1" />
    </linearGradient>
    <linearGradient
       id="linearGradient3773">
      <stop
         id="stop3775"
         style="stop-color:#aad400;stop-opacity:1"
         offset="0" />
      <stop
         id="stop3777"
         style="stop-color:#aad400;stop-opacity:0"
         offset="1" />
    </linearGradient>
    <linearGradient
       id="linearGradient3765">
      <stop
         id="stop3767"
         style="stop-color:#53df53;stop-opacity:1"
         offset="0" />
      <stop
         id="stop3769"
         style="stop-color:#53df53;stop-opacity:0"
         offset="1" />
    </linearGradient>
    <linearGradient
       id="linearGradient3757">
      <stop
         id="stop3759"
         style="stop-color:#70e4cd;stop-opacity:1"
         offset="0" />
      <stop
         id="stop3761"
         style="stop-color:#70e4cd;stop-opacity:0"
         offset="1" />
    </linearGradient>
    <linearGradient
       id="linearGradient3748">
      <stop
         id="stop3751"
         style="stop-color:#37abc8;stop-opacity:1"
         offset="0" />
      <stop
         id="stop3753"
         style="stop-color:#37abc8;stop-opacity:0"
         offset="1" />
    </linearGradient>
    <linearGradient
       id="linearGradient3740">
      <stop
         id="stop3742"
         style="stop-color:#5599ff;stop-opacity:1"
         offset="0" />
      <stop
         id="stop3744"
         style="stop-color:#5599ff;stop-opacity:0"
         offset="1" />
    </linearGradient>
    <linearGradient
       id="linearGradient3732">
      <stop
         id="stop3734"
         style="stop-color:#8d5fd3;stop-opacity:1"
         offset="0" />
      <stop
         id="stop3736"
         style="stop-color:#8d5fd3;stop-opacity:0"
         offset="1" />
    </linearGradient>
    <linearGradient
       id="linearGradient3724">
      <stop
         id="stop3726"
         style="stop-color:#d35fbc;stop-opacity:1"
         offset="0" />
      <stop
         id="stop3728"
         style="stop-color:#d35fbc;stop-opacity:0"
         offset="1" />
    </linearGradient>
    <linearGradient
       id="linearGradient3716">
      <stop
         id="stop3718"
         style="stop-color:#c83771;stop-opacity:1"
         offset="0" />
      <stop
         id="stop3720"
         style="stop-color:#c83771;stop-opacity:0"
         offset="1" />
    </linearGradient>
    <linearGradient
       id="linearGradient3668">
      <stop
         id="stop3670"
         style="stop-color:#000000;stop-opacity:1"
         offset="0" />
      <stop
         id="stop3672"
         style="stop-color:#000000;stop-opacity:0"
         offset="1" />
    </linearGradient>
    <linearGradient
       id="linearGradient3658">
      <stop
         id="stop3660"
         style="stop-color:#373795;stop-opacity:1"
         offset="0" />
      <stop
         id="stop3662"
         style="stop-color:#7343bc;stop-opacity:1"
         offset="0.5" />
      <stop
         id="stop3664"
         style="stop-color:#c83737;stop-opacity:1"
         offset="1" />
    </linearGradient>
    <linearGradient
       id="linearGradient3673">
      <stop
         id="stop3675"
         style="stop-color:#ffeeaa;stop-opacity:1"
         offset="0" />
      <stop
         id="stop3677"
         style="stop-color:#ffeeaa;stop-opacity:0"
         offset="1" />
    </linearGradient>
    <linearGradient
       id="linearGradient3663">
      <stop
         id="stop3665"
         style="stop-color:#f73c00;stop-opacity:1"
         offset="0" />
      <stop
         id="stop3669"
         style="stop-color:#b61100;stop-opacity:1"
         offset="0.71272212" />
      <stop
         id="stop3667"
         style="stop-color:#9c0000;stop-opacity:1"
         offset="1" />
    </linearGradient>
    <linearGradient
       id="linearGradient3630">
      <stop
         id="stop3632"
         style="stop-color:#dedede;stop-opacity:1"
         offset="0" />
      <stop
         id="stop3634"
         style="stop-color:#fefefe;stop-opacity:1"
         offset="1" />
    </linearGradient>
    <linearGradient
       id="linearGradient3655">
      <stop
         id="stop3657"
         style="stop-color:#f73c00;stop-opacity:1"
         offset="0" />
      <stop
         id="stop3659"
         style="stop-color:#9c0000;stop-opacity:1"
         offset="1" />
    </linearGradient>
    <linearGradient
       x1="45.447727"
       y1="92.539597"
       x2="45.447727"
       y2="7.0165396"
       id="ButtonShadow"
       gradientUnits="userSpaceOnUse"
       gradientTransform="scale(1.0058652,0.994169)">
      <stop
         id="stop3750"
         style="stop-color:#000000;stop-opacity:1"
         offset="0" />
      <stop
         id="stop3752"
         style="stop-color:#000000;stop-opacity:0.58823532"
         offset="1" />
    </linearGradient>
    <linearGradient
       id="linearGradient3737">
      <stop
         id="stop3739"
         style="stop-color:#fefefe;stop-opacity:1"
         offset="0" />
      <stop
         id="stop3741"
         style="stop-color:#fefefe;stop-opacity:0"
         offset="1" />
    </linearGradient>
    <linearGradient
       id="linearGradient3700">
      <stop
         id="stop3702"
         style="stop-color:#1f1f1f;stop-opacity:1"
         offset="0" />
      <stop
         id="stop3704"
         style="stop-color:#191919;stop-opacity:1"
         offset="1" />
    </linearGradient>
    <filter
       color-interpolation-filters="sRGB"
       id="filter3174">
      <feGaussianBlur
         id="feGaussianBlur3176"
         stdDeviation="1.71" />
    </filter>
    <linearGradient
       x1="36.357143"
       y1="6"
       x2="36.357143"
       y2="63.893143"
       id="linearGradient3188"
       xlink:href="#linearGradient3737"
       gradientUnits="userSpaceOnUse" />
    <filter
       x="-0.192"
       y="-0.192"
       width="1.3839999"
       height="1.3839999"
       color-interpolation-filters="sRGB"
       id="filter3794">
      <feGaussianBlur
         id="feGaussianBlur3796"
         stdDeviation="5.28" />
    </filter>
    <linearGradient
       x1="48"
       y1="20.220806"
       x2="48"
       y2="138.66119"
       id="linearGradient3613"
       xlink:href="#linearGradient3737"
       gradientUnits="userSpaceOnUse" />
    <radialGradient
       cx="48"
       cy="90.171875"
       r="42"
       fx="48"
       fy="90.171875"
       id="radialGradient3619"
       xlink:href="#linearGradient3737"
       gradientUnits="userSpaceOnUse"
       gradientTransform="matrix(1.1573129,0,0,0.99590774,-7.5510206,0.19713193)" />
    <clipPath
       id="clipPath3613">
      <rect
         width="84"
         height="84"
         rx="6"
         ry="6"
         x="6"
         y="6"
         id="rect3615"
         style="fill:#fefefe;fill-opacity:1;fill-rule:nonzero;stroke:none" />
    </clipPath>
    <linearGradient
       x1="6.5714288"
       y1="48.035713"
       x2="88.898651"
       y2="48.035713"
       id="linearGradient3617"
       xlink:href="#linearGradient3658"
       gradientUnits="userSpaceOnUse"
       gradientTransform="translate(0,-100)" />
    <filter
       color-interpolation-filters="sRGB"
       id="filter3680">
      <feGaussianBlur
         id="feGaussianBlur3682"
         stdDeviation="0.71783716" />
    </filter>
    <radialGradient
       cx="28.125"
       cy="74.094757"
       r="12.053572"
       fx="28.125"
       fy="74.094757"
       id="radialGradient3691"
       xlink:href="#linearGradient3663"
       gradientUnits="userSpaceOnUse"
       gradientTransform="matrix(1.4729191,0,0,1.2638196,-13.300848,-19.750136)" />
    <linearGradient
       x1="55.939182"
       y1="22.032881"
       x2="55.939182"
       y2="76.053574"
       id="linearGradient3636"
       xlink:href="#linearGradient3630"
       gradientUnits="userSpaceOnUse" />
    <radialGradient
       cx="28.125"
       cy="75.058144"
       r="12.053572"
       fx="28.125"
       fy="75.058144"
       id="radialGradient2871"
       xlink:href="#linearGradient3655"
       gradientUnits="userSpaceOnUse"
       gradientTransform="matrix(1.5148225,-8.9895646e-8,6.7407404e-8,1.1024691,-14.479387,-7.7949104)" />
    <linearGradient
       x1="16.071428"
       y1="68.053574"
       x2="40.178574"
       y2="68.053574"
       id="linearGradient2873"
       xlink:href="#linearGradient3737"
       gradientUnits="userSpaceOnUse" />
    <linearGradient
       x1="16.071428"
       y1="68.053574"
       x2="40.178574"
       y2="68.053574"
       id="linearGradient3679"
       xlink:href="#linearGradient3673"
       gradientUnits="userSpaceOnUse" />
    <linearGradient
       x1="48"
       y1="90"
       x2="48"
       y2="5.9877172"
       id="linearGradient2882"
       xlink:href="#linearGradient3700"
       gradientUnits="userSpaceOnUse"
       gradientTransform="translate(100,0)" />
    <linearGradient
       x1="6"
       y1="48"
       x2="90"
       y2="48"
       id="linearGradient3674"
       xlink:href="#linearGradient3668"
       gradientUnits="userSpaceOnUse"
       gradientTransform="translate(4,0)" />
    <linearGradient
       x1="48"
       y1="90"
       x2="48"
       y2="5.9877172"
       id="linearGradient3680"
       xlink:href="#linearGradient4750"
       gradientUnits="userSpaceOnUse" />
    <clipPath
       id="clipPath2926">
      <rect
         width="84"
         height="84"
         rx="6"
         ry="6"
         x="6"
         y="6"
         id="rect2928"
         style="fill:url(#linearGradient2930);fill-opacity:1;fill-rule:nonzero;stroke:none;display:inline" />
    </clipPath>
    <linearGradient
       x1="48"
       y1="90"
       x2="48"
       y2="5.9877172"
       id="linearGradient2930"
       xlink:href="#linearGradient3700"
       gradientUnits="userSpaceOnUse" />
    <linearGradient
       x1="9.2829962"
       y1="54.56599"
       x2="9.2829962"
       y2="30.797007"
       id="linearGradient3839"
       xlink:href="#linearGradient3716"
       gradientUnits="userSpaceOnUse" />
    <linearGradient
       x1="16.535534"
       y1="62.394672"
       x2="16.535534"
       y2="40.421619"
       id="linearGradient3841"
       xlink:href="#linearGradient3724"
       gradientUnits="userSpaceOnUse" />
    <linearGradient
       x1="22.525381"
       y1="66.206116"
       x2="22.525381"
       y2="32.08049"
       id="linearGradient3843"
       xlink:href="#linearGradient3732"
       gradientUnits="userSpaceOnUse" />
    <linearGradient
       x1="29.77792"
       y1="54.060917"
       x2="29.77792"
       y2="23.20402"
       id="linearGradient3845"
       xlink:href="#linearGradient3740"
       gradientUnits="userSpaceOnUse" />
    <linearGradient
       x1="37.030457"
       y1="68.960663"
       x2="37.030457"
       y2="46.717045"
       id="linearGradient3847"
       xlink:href="#linearGradient3748"
       gradientUnits="userSpaceOnUse" />
    <linearGradient
       x1="44.282997"
       y1="64.162437"
       x2="44.282997"
       y2="37.391563"
       id="linearGradient3849"
       xlink:href="#linearGradient3757"
       gradientUnits="userSpaceOnUse" />
    <linearGradient
       x1="51.282997"
       y1="60.879444"
       x2="51.282997"
       y2="12.370317"
       id="linearGradient3851"
       xlink:href="#linearGradient3765"
       gradientUnits="userSpaceOnUse" />
    <linearGradient
       x1="57.525383"
       y1="65.677666"
       x2="57.525383"
       y2="27.464857"
       id="linearGradient3853"
       xlink:href="#linearGradient3773"
       gradientUnits="userSpaceOnUse" />
    <linearGradient
       x1="64.777916"
       y1="63.909901"
       x2="64.777916"
       y2="35.095482"
       id="linearGradient3855"
       xlink:href="#linearGradient3781"
       gradientUnits="userSpaceOnUse" />
    <linearGradient
       x1="72.788071"
       y1="60.12183"
       x2="72.788071"
       y2="18.954224"
       id="linearGradient3857"
       xlink:href="#linearGradient3789"
       gradientUnits="userSpaceOnUse" />
    <linearGradient
       x1="78.272842"
       y1="58.354065"
       x2="78.272842"
       y2="40.421116"
       id="linearGradient3859"
       xlink:href="#linearGradient3797"
       gradientUnits="userSpaceOnUse" />
    <linearGradient
       x1="85.525383"
       y1="60.879444"
       x2="85.525383"
       y2="34.361088"
       id="linearGradient3861"
       xlink:href="#linearGradient3805"
       gradientUnits="userSpaceOnUse" />
    <linearGradient
       x1="48"
       y1="53.929901"
       x2="48"
       y2="39.200184"
       id="linearGradient3869"
       xlink:href="#linearGradient3668"
       gradientUnits="userSpaceOnUse"
       gradientTransform="translate(0,36)" />
    <linearGradient
       x1="45.447727"
       y1="92.539597"
       x2="45.447727"
       y2="7.0165396"
       id="ButtonShadow-0"
       gradientUnits="userSpaceOnUse"
       gradientTransform="matrix(1.0058652,0,0,0.994169,100,0)">
      <stop
         id="stop3750-8"
         style="stop-color:#000000;stop-opacity:1"
         offset="0" />
      <stop
         id="stop3752-5"
         style="stop-color:#000000;stop-opacity:0.58823532"
         offset="1" />
    </linearGradient>
    <linearGradient
       x1="32.251034"
       y1="6.1317081"
       x2="32.251034"
       y2="90.238609"
       id="linearGradient3780"
       xlink:href="#ButtonShadow-0"
       gradientUnits="userSpaceOnUse"
       gradientTransform="matrix(1.0238095,0,0,1.0119048,-1.1428571,-98.071429)" />
    <linearGradient
       x1="32.251034"
       y1="6.1317081"
       x2="32.251034"
       y2="90.238609"
       id="linearGradient3772"
       xlink:href="#ButtonShadow-0"
       gradientUnits="userSpaceOnUse"
       gradientTransform="matrix(1.0238095,0,0,1.0119048,-1.1428571,-98.071429)" />
    <linearGradient
       x1="32.251034"
       y1="6.1317081"
       x2="32.251034"
       y2="90.238609"
       id="linearGradient3725"
       xlink:href="#ButtonShadow-0"
       gradientUnits="userSpaceOnUse"
       gradientTransform="matrix(1.0238095,0,0,1.0119048,-1.1428571,-98.071429)" />
    <linearGradient
       x1="32.251034"
       y1="6.1317081"
       x2="32.251034"
       y2="90.238609"
       id="linearGradient3721"
       xlink:href="#ButtonShadow-0"
       gradientUnits="userSpaceOnUse"
       gradientTransform="translate(0,-97)" />
    <linearGradient
       x1="32.251034"
       y1="6.1317081"
       x2="32.251034"
       y2="90.238609"
       id="linearGradient3020"
       xlink:href="#ButtonShadow-0"
       gradientUnits="userSpaceOnUse"
       gradientTransform="matrix(1.0238095,0,0,1.0119048,-1.1428571,-98.071429)" />
    <filter
       id="filter3789"
       height="1.2321324"
       width="1.3794198"
       y="-0.11606622"
       x="-0.18970989"
       style="color-interpolation-filters:sRGB">
      <feGaussianBlur
         stdDeviation="1.8477742"
         id="feGaussianBlur3791" />
    </filter>
    <linearGradient
       gradientUnits="userSpaceOnUse"
       xlink:href="#linearGradient3697"
       id="linearGradient3703"
       y2="24.840103"
       x2="46.125015"
       y1="63.048103"
       x1="46.125015" />
    <linearGradient
       id="linearGradient3697">
      <stop
         offset="0"
         style="stop-color:#dcdcdc;stop-opacity:1"
         id="stop3699" />
      <stop
         offset="1"
         style="stop-color:#f0f0f0;stop-opacity:1"
         id="stop3701" />
    </linearGradient>
    <linearGradient
       gradientUnits="userSpaceOnUse"
       xlink:href="#linearGradient3771"
       id="linearGradient3777"
       y2="47.024918"
       x2="106.50636"
       y1="47.277454"
       x1="15"
       gradientTransform="translate(-23.999666,-3.0316911)" />
    <linearGradient
       id="linearGradient3771">
      <stop
         offset="0"
         style="stop-color:#154a99;stop-opacity:1"
         id="stop3773" />
      <stop
         offset="1"
         style="stop-color:#154a99;stop-opacity:0"
         id="stop3775-3" />
    </linearGradient>
  </defs>
  <metadata
     id="metadata2413">
    <rdf:RDF>
      <cc:Work
         rdf:about="">
        <dc:format>image/svg+xml</dc:format>
        <dc:type
           rdf:resource="http://purl.org/dc/dcmitype/StillImage" />
        <dc:title></dc:title>
      </cc:Work>
    </rdf:RDF>
  </metadata>
  <g
     id="layer2"
     style="display:none">
    <rect
       width="86"
       height="85"
       rx="6"
       ry="6"
       x="5"
       y="7"
       id="rect3745"
       style="opacity:0.9;fill:url(#ButtonShadow);fill-opacity:1;fill-rule:nonzero;stroke:none;filter:url(#filter3174)" />
  </g>
  <g
     id="layer4"
     style="display:inline">
    <path
       d="m 12,-95.03125 c -5.5110903,0 -10.03125,4.52016 -10.03125,10.03125 l 0,71 c 0,5.5110902 4.5201598,10.03125 10.03125,10.03125 l 72,0 c 5.51109,0 10.03125,-4.5201597 10.03125,-10.03125 l 0,-71 c 0,-5.51109 -4.52016,-10.03125 -10.03125,-10.03125 l -72,0 z"
       transform="scale(1,-1)"
       id="path3786"
       style="opacity:0.07999998;fill:url(#linearGradient3020);fill-opacity:1;fill-rule:nonzero;stroke:none;display:inline" />
    <path
       d="m 12,-94.03125 c -4.971633,0 -9.03125,4.059617 -9.03125,9.03125 l 0,71 c 0,4.9716329 4.0596171,9.03125 9.03125,9.03125 l 72,0 c 4.971633,0 9.03125,-4.059617 9.03125,-9.03125 l 0,-71 c 0,-4.971633 -4.059617,-9.03125 -9.03125,-9.03125 l -72,0 z"
       transform="scale(1,-1)"
       id="path3778"
       style="opacity:0.1;fill:url(#linearGradient3780);fill-opacity:1;fill-rule:nonzero;stroke:none;display:inline" />
    <path
       d="m 12,-93 c -4.4091333,0 -8,3.590867 -8,8 l 0,71 c 0,4.4091333 3.5908667,8 8,8 l 72,0 c 4.409133,0 8,-3.5908667 8,-8 l 0,-71 c 0,-4.409133 -3.590867,-8 -8,-8 l -72,0 z"
       transform="scale(1,-1)"
       id="path3770"
       style="opacity:0.2;fill:url(#linearGradient3772);fill-opacity:1;fill-rule:nonzero;stroke:none;display:inline" />
    <rect
       width="86"
       height="85"
       rx="7"
       ry="7"
       x="5"
       y="-92"
       transform="scale(1,-1)"
       id="rect3723"
       style="opacity:0.3;fill:url(#linearGradient3725);fill-opacity:1;fill-rule:nonzero;stroke:none;display:inline" />
    <rect
       width="84"
       height="84"
       rx="6"
       ry="6"
       x="6"
       y="-91"
       transform="scale(1,-1)"
       id="rect3716"
       style="opacity:0.45;fill:url(#linearGradient3721);fill-opacity:1;fill-rule:nonzero;stroke:none;display:inline" />
  </g>
  <g
     id="layer1">
    <rect
       width="84"
       height="84"
       rx="6"
       ry="6"
       x="6"
       y="6"
       id="rect3677"
       style="fill:url(#linearGradient3680);fill-opacity:1;fill-rule:nonzero;stroke:none" />
    <path
       d="M 12,6 C 8.676,6 6,8.676 6,12 v 2 68 2 c 0,0.334721 0.04135,0.6507 0.09375,0.96875 0.0487,0.295596 0.09704,0.596915 0.1875,0.875 0.00988,0.03038 0.020892,0.0636 0.03125,0.09375 0.098865,0.287771 0.2348802,0.547452 0.375,0.8125 0.1445918,0.273507 0.3156161,0.535615 0.5,0.78125 0.1843839,0.245635 0.3737765,0.473472 0.59375,0.6875 0.439947,0.428056 0.94291,0.814526 1.5,1.09375 0.278545,0.139612 0.5734731,0.246947 0.875,0.34375 -0.2562018,-0.100222 -0.4867109,-0.236272 -0.71875,-0.375 -0.00741,-0.0044 -0.023866,0.0045 -0.03125,0 -0.031933,-0.0193 -0.062293,-0.04251 -0.09375,-0.0625 -0.120395,-0.0767 -0.2310226,-0.163513 -0.34375,-0.25 -0.1061728,-0.0808 -0.2132809,-0.161112 -0.3125,-0.25 C 8.4783201,88.557317 8.3087904,88.373362 8.15625,88.1875 8.0486711,88.057245 7.9378561,87.922215 7.84375,87.78125 7.818661,87.74287 7.805304,87.69538 7.78125,87.65625 7.716487,87.553218 7.6510225,87.451733 7.59375,87.34375 7.4927417,87.149044 7.3880752,86.928049 7.3125,86.71875 7.30454,86.69694 7.288911,86.6782 7.28125,86.65625 7.2494249,86.5643 7.2454455,86.469419 7.21875,86.375 7.1884177,86.268382 7.1483606,86.171969 7.125,86.0625 7.0521214,85.720988 7,85.364295 7,85 V 83 15 13 C 7,10.218152 9.2181517,8 12,8 h 2 68 2 c 2.781848,0 5,2.218152 5,5 v 2 68 2 c 0,0.364295 -0.05212,0.720988 -0.125,1.0625 -0.04415,0.206893 -0.08838,0.397658 -0.15625,0.59375 -0.0077,0.02195 -0.0233,0.04069 -0.03125,0.0625 -0.06274,0.173739 -0.138383,0.367449 -0.21875,0.53125 -0.04158,0.0828 -0.07904,0.169954 -0.125,0.25 -0.0546,0.09721 -0.126774,0.18835 -0.1875,0.28125 -0.09411,0.140965 -0.204921,0.275995 -0.3125,0.40625 -0.143174,0.17445 -0.303141,0.346998 -0.46875,0.5 -0.01117,0.0102 -0.01998,0.02115 -0.03125,0.03125 -0.138386,0.125556 -0.285091,0.234436 -0.4375,0.34375 -0.102571,0.07315 -0.204318,0.153364 -0.3125,0.21875 -0.0074,0.0045 -0.02384,-0.0044 -0.03125,0 -0.232039,0.138728 -0.462548,0.274778 -0.71875,0.375 0.301527,-0.0968 0.596455,-0.204138 0.875,-0.34375 0.55709,-0.279224 1.060053,-0.665694 1.5,-1.09375 0.219973,-0.214028 0.409366,-0.441865 0.59375,-0.6875 0.184384,-0.245635 0.355408,-0.507743 0.5,-0.78125 0.14012,-0.265048 0.276135,-0.524729 0.375,-0.8125 0.01041,-0.03078 0.02133,-0.06274 0.03125,-0.09375 0.09046,-0.278085 0.1388,-0.579404 0.1875,-0.875 C 89.95865,84.6507 90,84.334721 90,84 V 82 14 12 C 90,8.676 87.324,6 84,6 Z"
       id="rect3728"
       style="opacity:0.2;fill:url(#linearGradient3188);fill-opacity:1;fill-rule:nonzero;stroke:none" />
    <path
       d="M 12,90 C 8.676,90 6,87.324 6,84 L 6,82 6,14 6,12 c 0,-0.334721 0.04135,-0.6507 0.09375,-0.96875 0.0487,-0.295596 0.09704,-0.596915 0.1875,-0.875 C 6.29113,10.12587 6.302142,10.09265 6.3125,10.0625 6.411365,9.774729 6.5473802,9.515048 6.6875,9.25 6.8320918,8.976493 7.0031161,8.714385 7.1875,8.46875 7.3718839,8.223115 7.5612765,7.995278 7.78125,7.78125 8.221197,7.353194 8.72416,6.966724 9.28125,6.6875 9.559795,6.547888 9.8547231,6.440553 10.15625,6.34375 9.9000482,6.443972 9.6695391,6.580022 9.4375,6.71875 c -0.00741,0.0044 -0.023866,-0.0045 -0.03125,0 -0.031933,0.0193 -0.062293,0.04251 -0.09375,0.0625 -0.120395,0.0767 -0.2310226,0.163513 -0.34375,0.25 -0.1061728,0.0808 -0.2132809,0.161112 -0.3125,0.25 C 8.4783201,7.442683 8.3087904,7.626638 8.15625,7.8125 8.0486711,7.942755 7.9378561,8.077785 7.84375,8.21875 7.818661,8.25713 7.805304,8.30462 7.78125,8.34375 7.716487,8.446782 7.6510225,8.548267 7.59375,8.65625 7.4927417,8.850956 7.3880752,9.071951 7.3125,9.28125 7.30454,9.30306 7.288911,9.3218 7.28125,9.34375 7.2494249,9.4357 7.2454455,9.530581 7.21875,9.625 7.1884177,9.731618 7.1483606,9.828031 7.125,9.9375 7.0521214,10.279012 7,10.635705 7,11 l 0,2 0,68 0,2 c 0,2.781848 2.2181517,5 5,5 l 2,0 68,0 2,0 c 2.781848,0 5,-2.218152 5,-5 l 0,-2 0,-68 0,-2 C 89,10.635705 88.94788,10.279012 88.875,9.9375 88.83085,9.730607 88.78662,9.539842 88.71875,9.34375 88.71105,9.3218 88.69545,9.30306 88.6875,9.28125 88.62476,9.107511 88.549117,8.913801 88.46875,8.75 88.42717,8.6672 88.38971,8.580046 88.34375,8.5 88.28915,8.40279 88.216976,8.31165 88.15625,8.21875 88.06214,8.077785 87.951329,7.942755 87.84375,7.8125 87.700576,7.63805 87.540609,7.465502 87.375,7.3125 87.36383,7.3023 87.35502,7.29135 87.34375,7.28125 87.205364,7.155694 87.058659,7.046814 86.90625,6.9375 86.803679,6.86435 86.701932,6.784136 86.59375,6.71875 c -0.0074,-0.0045 -0.02384,0.0044 -0.03125,0 -0.232039,-0.138728 -0.462548,-0.274778 -0.71875,-0.375 0.301527,0.0968 0.596455,0.204138 0.875,0.34375 0.55709,0.279224 1.060053,0.665694 1.5,1.09375 0.219973,0.214028 0.409366,0.441865 0.59375,0.6875 0.184384,0.245635 0.355408,0.507743 0.5,0.78125 0.14012,0.265048 0.276135,0.524729 0.375,0.8125 0.01041,0.03078 0.02133,0.06274 0.03125,0.09375 0.09046,0.278085 0.1388,0.579404 0.1875,0.875 C 89.95865,11.3493 90,11.665279 90,12 l 0,2 0,68 0,2 c 0,3.324 -2.676,6 -6,6 l -72,0 z"
       id="path3615"
       style="opacity:0.2;fill:url(#radialGradient3619);fill-opacity:1;fill-rule:nonzero;stroke:none" />
    <path
       id="path4630"
       d="m 45.214428,79.629359 c -1.17233,-0.189644 -2.89714,-0.727999 -3.83291,-1.196344 -2.32345,-1.162869 -22.87739,-21.632262 -24.24531,-24.145573 -2.0449,-3.757152 -2.0449,-9.194659 0,-12.951811 1.35594,-2.491298 21.92099,-22.982361 24.21959,-24.132454 3.54328,-1.772858 8.84048,-1.772858 12.38376,0 2.2986,1.150093 22.86365,21.641156 24.21959,24.132454 1.96366,3.607891 2.047,8.970102 0.19689,12.667782 -1.1856,2.369563 -21.76768,23.030416 -24.17522,24.26774 -1.62375,0.834505 -2.57819,1.093554 -5.82795,1.581782 -0.44381,0.06668 -1.7661,-0.03393 -2.93844,-0.223576 z m 7.00951,-3.960345 c 1.93056,-0.965099 4.30984,-3.134376 12.50123,-11.397866 6.13162,-6.185595 10.42281,-10.841647 10.89354,-11.819772 0.55409,-1.151358 0.77666,-2.481042 0.77666,-4.639839 0,-3.566442 -0.7191,-5.314519 -3.28997,-7.99763 -1.63494,-1.70632 -1.77556,-1.768388 -3.24417,-1.431973 -1.61152,0.369152 -7.13154,0.410162 -16.26159,0.120811 -5.18581,-0.164349 -5.54218,-0.124295 -7.43824,0.836042 -1.09531,0.554763 -2.17653,1.314961 -2.4027,1.689328 -0.58924,0.97531 0.12294,3.429193 3.63354,12.519729 4.31045,11.161729 5.11093,13.84634 4.78431,16.04545 -0.34542,2.325722 -1.13462,3.870687 -2.93962,5.754679 -1.44641,1.509715 -1.44733,1.512992 -0.42345,1.512992 0.56436,0 2.09906,-0.536378 3.41046,-1.191951 z m -18.39405,-9.112462 c 0,-1.205882 1.60619,-3.747397 3.26636,-5.168438 2.13149,-1.82447 5.15945,-2.594465 7.68336,-1.953833 0.95335,0.24199 1.79729,0.376065 1.8754,0.297947 0.2138,-0.213796 -0.94643,-2.37891 -7.15372,-13.349611 -3.11927,-5.512964 -5.6714,-10.261678 -5.6714,-10.552699 0,-0.76623 6.0742,-5.153693 8.35112,-6.03211 1.19126,-0.459576 2.94707,-0.742853 4.55974,-0.735655 2.89886,0.01294 4.99211,0.811441 9.92243,3.785055 3.48338,2.100923 7.18548,3.263864 10.39016,3.263864 h 2.47518 l -7.66184,-7.675282 c -5.02154,-5.030351 -8.28549,-7.978349 -9.47159,-8.554745 -2.45228,-1.191702 -5.82102,-1.392435 -8.53973,-0.508857 -1.97614,0.642243 -3.07976,1.623165 -13.10181,11.645217 -10.02205,10.022052 -11.00298,11.125669 -11.64522,13.101811 -0.8494,2.613559 -0.68596,6.018109 0.4,8.33216 0.71295,1.519205 13.26224,14.726446 13.99282,14.726446 0.18081,0 0.32874,-0.279572 0.32874,-0.62127 z"
       style="fill:#fefefe;fill-opacity:1;stroke-width:0.40346429" />
  </g>
  <g
     id="layer5"
     style="display:none">
    <rect
       width="66"
       height="66"
       rx="12"
       ry="12"
       x="15"
       y="15"
       clip-path="url(#clipPath3613)"
       id="rect3171"
       style="opacity:0.1;fill:url(#linearGradient3613);fill-opacity:1;fill-rule:nonzero;stroke:#fefefe;stroke-width:0.5;stroke-linecap:round;stroke-linejoin:miter;stroke-miterlimit:4;stroke-opacity:1;stroke-dasharray:none;stroke-dashoffset:0;filter:url(#filter3794)" />
  </g>
</svg>
