<?xml version="1.0" encoding="UTF-8" standalone="no"?>
<svg
   xmlns:dc="http://purl.org/dc/elements/1.1/"
   xmlns:cc="http://creativecommons.org/ns#"
   xmlns:rdf="http://www.w3.org/1999/02/22-rdf-syntax-ns#"
   xmlns:svg="http://www.w3.org/2000/svg"
   xmlns="http://www.w3.org/2000/svg"
   xmlns:xlink="http://www.w3.org/1999/xlink"
   version="1.0"
   width="96"
   height="96"
   id="svg2408">
  <defs
     id="defs2410">
    <linearGradient
       id="linearGradient4565">
      <stop
         id="stop4561"
         offset="0"
         style="stop-color:#6ce200;stop-opacity:1" />
      <stop
         id="stop4563"
         offset="1"
         style="stop-color:#4b9d29;stop-opacity:1" />
    </linearGradient>
    <linearGradient
       id="linearGradient4564">
      <stop
         style="stop-color:#ffcfac;stop-opacity:1;"
         offset="0"
         id="stop4560" />
      <stop
         style="stop-color:#ffcfac;stop-opacity:0;"
         offset="1"
         id="stop4562" />
    </linearGradient>
    <linearGradient
       x1="45.447727"
       y1="92.539597"
       x2="45.447727"
       y2="7.0165396"
       id="ButtonShadow"
       gradientUnits="userSpaceOnUse"
       gradientTransform="scale(1.0058652,0.994169)">
      <stop
         id="stop3750"
         style="stop-color:#000000;stop-opacity:1"
         offset="0" />
      <stop
         id="stop3752"
         style="stop-color:#000000;stop-opacity:0.58823532"
         offset="1" />
    </linearGradient>
    <linearGradient
       id="linearGradient3737">
      <stop
         id="stop3739"
         style="stop-color:#fffac8;stop-opacity:1"
         offset="0" />
      <stop
         id="stop3741"
         style="stop-color:#feff67;stop-opacity:0"
         offset="1" />
    </linearGradient>
    <linearGradient
       id="linearGradient3700">
      <stop
         id="stop3702"
         style="stop-color:#003baa;stop-opacity:1"
         offset="0" />
      <stop
         id="stop3704"
         style="stop-color:#0077e7;stop-opacity:1"
         offset="1" />
    </linearGradient>
    <filter
       color-interpolation-filters="sRGB"
       id="filter3174">
      <feGaussianBlur
         id="feGaussianBlur3176"
         stdDeviation="1.71" />
    </filter>
    <linearGradient
       x1="36.357143"
       y1="6"
       x2="36.357143"
       y2="63.893143"
       id="linearGradient3188"
       xlink:href="#linearGradient3737"
       gradientUnits="userSpaceOnUse" />
    <filter
       x="-0.192"
       y="-0.192"
       width="1.3839999"
       height="1.3839999"
       color-interpolation-filters="sRGB"
       id="filter3794">
      <feGaussianBlur
         id="feGaussianBlur3796"
         stdDeviation="5.28" />
    </filter>
    <linearGradient
       x1="48"
       y1="20.220806"
       x2="48"
       y2="138.66119"
       id="linearGradient3613"
       xlink:href="#linearGradient3737"
       gradientUnits="userSpaceOnUse" />
    <radialGradient
       cx="48"
       cy="90.171875"
       r="42"
       fx="48"
       fy="90.171875"
       id="radialGradient3619"
       xlink:href="#linearGradient3737"
       gradientUnits="userSpaceOnUse"
       gradientTransform="matrix(1.1573129,0,0,0.99590774,-7.5510206,0.19713193)" />
    <clipPath
       id="clipPath3613">
      <rect
         width="84"
         height="84"
         rx="6"
         ry="6"
         x="6"
         y="6"
         id="rect3615"
         style="fill:#fefefe;fill-opacity:1;fill-rule:nonzero;stroke:none" />
    </clipPath>
    <linearGradient
       x1="48"
       y1="90"
       x2="48"
       y2="5.9877172"
       id="linearGradient3617"
       xlink:href="#linearGradient3700"
       gradientUnits="userSpaceOnUse" />
    <linearGradient
       x1="45.447727"
       y1="92.539597"
       x2="45.447727"
       y2="7.0165396"
       id="ButtonShadow-0"
       gradientUnits="userSpaceOnUse"
       gradientTransform="matrix(1.0058652,0,0,0.994169,100,0)">
      <stop
         id="stop3750-8"
         style="stop-color:#000000;stop-opacity:1"
         offset="0" />
      <stop
         id="stop3752-5"
         style="stop-color:#000000;stop-opacity:0.58823532"
         offset="1" />
    </linearGradient>
    <linearGradient
       x1="32.251034"
       y1="6.1317081"
       x2="32.251034"
       y2="90.238609"
       id="linearGradient3780"
       xlink:href="#ButtonShadow-0"
       gradientUnits="userSpaceOnUse"
       gradientTransform="matrix(1.0238095,0,0,1.0119048,-1.1428571,-98.071429)" />
    <linearGradient
       x1="32.251034"
       y1="6.1317081"
       x2="32.251034"
       y2="90.238609"
       id="linearGradient3772"
       xlink:href="#ButtonShadow-0"
       gradientUnits="userSpaceOnUse"
       gradientTransform="matrix(1.0238095,0,0,1.0119048,-1.1428571,-98.071429)" />
    <linearGradient
       x1="32.251034"
       y1="6.1317081"
       x2="32.251034"
       y2="90.238609"
       id="linearGradient3725"
       xlink:href="#ButtonShadow-0"
       gradientUnits="userSpaceOnUse"
       gradientTransform="matrix(1.0238095,0,0,1.0119048,-1.1428571,-98.071429)" />
    <linearGradient
       x1="32.251034"
       y1="6.1317081"
       x2="32.251034"
       y2="90.238609"
       id="linearGradient3721"
       xlink:href="#ButtonShadow-0"
       gradientUnits="userSpaceOnUse"
       gradientTransform="translate(0,-97)" />
    <linearGradient
       x1="32.251034"
       y1="6.1317081"
       x2="32.251034"
       y2="90.238609"
       id="linearGradient3026"
       xlink:href="#ButtonShadow-0"
       gradientUnits="userSpaceOnUse"
       gradientTransform="matrix(1.0238095,0,0,1.0119048,-1.1428571,-98.071429)" />
    <linearGradient
       xlink:href="#linearGradient4564"
       id="linearGradient4566"
       x1="38.525424"
       y1="58.576271"
       x2="53.52504"
       y2="58.576271"
       gradientUnits="userSpaceOnUse"
       gradientTransform="rotate(-180,45.864403,53.779661)" />
    <linearGradient
       gradientTransform="matrix(0.65949659,0,0,0.65949659,12.343454,20.44281)"
       x1="44"
       y1="6"
       x2="44"
       y2="64.215118"
       id="linearGradient3967"
       xlink:href="#linearGradient3781"
       gradientUnits="userSpaceOnUse" />
    <linearGradient
       id="linearGradient3781">
      <stop
         offset="0"
         style="stop-color:#fefefe;stop-opacity:1"
         id="stop3783" />
      <stop
         offset="1"
         style="stop-color:#fefefe;stop-opacity:0"
         id="stop3785" />
    </linearGradient>
    <linearGradient
       gradientTransform="matrix(0.65949659,0,0,0.65949659,12.343454,20.44281)"
       x1="48"
       y1="90"
       x2="48"
       y2="5.9877172"
       id="linearGradient3948"
       xlink:href="#ButtonColor"
       gradientUnits="userSpaceOnUse" />
    <linearGradient
       x1="10.31979"
       y1="21"
       x2="10.31979"
       y2="0.99929649"
       id="ButtonColor"
       gradientUnits="userSpaceOnUse">
      <stop
         id="stop3189"
         style="stop-color:#95c2e6;stop-opacity:1"
         offset="0" />
      <stop
         id="stop3191"
         style="stop-color:#d9ecfd;stop-opacity:1"
         offset="1" />
    </linearGradient>
    <linearGradient
       xlink:href="#ButtonShadow"
       id="linearGradient4626"
       gradientUnits="userSpaceOnUse"
       gradientTransform="translate(-1,1)"
       x1="48"
       y1="90.868095"
       x2="48"
       y2="5.9877172" />
    <linearGradient
       x1="48"
       y1="90"
       x2="48"
       y2="5.9877172"
       id="linearGradient3989"
       xlink:href="#ButtonShadow"
       gradientUnits="userSpaceOnUse"
       gradientTransform="translate(0,1)" />
    <linearGradient
       gradientTransform="matrix(0.43833762,0,0,0.43833762,39.453852,-30.567321)"
       gradientUnits="userSpaceOnUse"
       y2="246.91525"
       x2="16.677965"
       y1="112.67797"
       x1="16.271189"
       id="linearGradient4567"
       xlink:href="#linearGradient4565" />
    <linearGradient
       gradientTransform="matrix(0.43833762,0,0,0.43833762,43.060563,-31.016765)"
       gradientUnits="userSpaceOnUse"
       y2="246.91525"
       x2="16.677965"
       y1="112.67797"
       x1="16.271189"
       id="linearGradient4567-3"
       xlink:href="#linearGradient4565" />
    <linearGradient
       gradientTransform="matrix(0.43833762,0,0,0.43833762,43.060563,-31.016765)"
       gradientUnits="userSpaceOnUse"
       y2="246.91525"
       x2="16.677965"
       y1="112.67797"
       x1="16.271189"
       id="linearGradient4567-35"
       xlink:href="#ButtonShadow-0" />
    <linearGradient
       gradientTransform="rotate(-90,47.921875,48.078123)"
       x1="65"
       y1="6"
       x2="65"
       y2="86"
       id="linearGradient3930"
       xlink:href="#linearGradient3781"
       gradientUnits="userSpaceOnUse" />
    <radialGradient
       cx="32"
       cy="14.5"
       r="26"
       fx="32"
       fy="14.5"
       id="radialGradient3907"
       xlink:href="#linearGradient3781"
       gradientUnits="userSpaceOnUse"
       gradientTransform="matrix(1,0,0,0.05769231,0,13.663462)" />
    <radialGradient
       cx="32"
       cy="14.5"
       r="26"
       fx="32"
       fy="14.5"
       id="radialGradient3911"
       xlink:href="#linearGradient3781"
       gradientUnits="userSpaceOnUse"
       gradientTransform="matrix(1,0,0,0.05769231,0,13.663462)" />
    <radialGradient
       cx="32"
       cy="14.5"
       r="26"
       fx="32"
       fy="14.5"
       id="radialGradient3915"
       xlink:href="#linearGradient3781"
       gradientUnits="userSpaceOnUse"
       gradientTransform="matrix(1,0,0,0.05769231,0,13.663462)" />
    <radialGradient
       cx="32"
       cy="14.5"
       r="26"
       fx="32"
       fy="14.5"
       id="radialGradient3919"
       xlink:href="#linearGradient3781"
       gradientUnits="userSpaceOnUse"
       gradientTransform="matrix(1,0,0,0.05769231,0,13.663462)" />
    <radialGradient
       cx="32"
       cy="14.5"
       r="26"
       fx="32"
       fy="14.5"
       id="radialGradient3923"
       xlink:href="#linearGradient3781"
       gradientUnits="userSpaceOnUse"
       gradientTransform="matrix(1,0,0,0.05769231,0,13.663462)" />
    <radialGradient
       cx="32"
       cy="14.5"
       r="26"
       fx="32"
       fy="14.5"
       id="radialGradient3927"
       xlink:href="#linearGradient3781"
       gradientUnits="userSpaceOnUse"
       gradientTransform="matrix(1,0,0,0.05769231,0,13.663462)" />
    <radialGradient
       cx="32"
       cy="14.5"
       r="26"
       fx="32"
       fy="14.5"
       id="radialGradient3931"
       xlink:href="#linearGradient3781"
       gradientUnits="userSpaceOnUse"
       gradientTransform="matrix(1,0,0,0.05769231,0,13.663462)" />
    <radialGradient
       cx="32"
       cy="14.5"
       r="26"
       fx="32"
       fy="14.5"
       id="radialGradient3935"
       xlink:href="#linearGradient3781"
       gradientUnits="userSpaceOnUse"
       gradientTransform="matrix(1,0,0,0.05769231,0,13.663462)" />
    <radialGradient
       cx="32"
       cy="14.5"
       r="26"
       fx="32"
       fy="14.5"
       id="radialGradient3939"
       xlink:href="#linearGradient3781"
       gradientUnits="userSpaceOnUse"
       gradientTransform="matrix(1,0,0,0.05769231,0,13.663462)" />
    <radialGradient
       cx="32"
       cy="14.5"
       r="26"
       fx="32"
       fy="14.5"
       id="radialGradient3943"
       xlink:href="#linearGradient3781"
       gradientUnits="userSpaceOnUse"
       gradientTransform="matrix(1,0,0,0.05769231,0,13.663462)" />
    <radialGradient
       cx="32"
       cy="14.5"
       r="26"
       fx="32"
       fy="14.5"
       id="radialGradient3947"
       xlink:href="#linearGradient3781"
       gradientUnits="userSpaceOnUse"
       gradientTransform="matrix(1,0,0,0.05769231,0,13.663462)" />
    <radialGradient
       cx="32"
       cy="14.5"
       r="26"
       fx="32"
       fy="14.5"
       id="radialGradient3951"
       xlink:href="#linearGradient3781"
       gradientUnits="userSpaceOnUse"
       gradientTransform="matrix(1,0,0,0.05769231,0,13.663462)" />
    <radialGradient
       cx="32"
       cy="14.5"
       r="26"
       fx="32"
       fy="14.5"
       id="radialGradient3955"
       xlink:href="#linearGradient3781"
       gradientUnits="userSpaceOnUse"
       gradientTransform="matrix(1,0,0,0.05769231,0,13.663462)" />
    <radialGradient
       cx="32"
       cy="14.5"
       r="26"
       fx="32"
       fy="14.5"
       id="radialGradient3959"
       xlink:href="#linearGradient3781"
       gradientUnits="userSpaceOnUse"
       gradientTransform="matrix(1,0,0,0.05769231,0,13.663462)" />
    <radialGradient
       cx="32"
       cy="14.5"
       r="26"
       fx="32"
       fy="14.5"
       id="radialGradient3963"
       xlink:href="#linearGradient3781"
       gradientUnits="userSpaceOnUse"
       gradientTransform="matrix(1,0,0,0.05769231,0,13.663462)" />
    <radialGradient
       cx="32"
       cy="14.5"
       r="26"
       fx="32"
       fy="14.5"
       id="radialGradient3967"
       xlink:href="#linearGradient3781"
       gradientUnits="userSpaceOnUse"
       gradientTransform="matrix(1,0,0,0.05769231,0,13.663462)" />
  </defs>
  <metadata
     id="metadata2413">
    <rdf:RDF>
      <cc:Work
         rdf:about="">
        <dc:format>image/svg+xml</dc:format>
        <dc:type
           rdf:resource="http://purl.org/dc/dcmitype/StillImage" />
        <dc:title></dc:title>
      </cc:Work>
    </rdf:RDF>
  </metadata>
  <g
     id="layer2"
     style="display:none">
    <rect
       width="86"
       height="85"
       rx="6"
       ry="6"
       x="5"
       y="7"
       id="rect3745"
       style="opacity:0.9;fill:url(#ButtonShadow);fill-opacity:1;fill-rule:nonzero;stroke:none;filter:url(#filter3174)" />
  </g>
  <g
     id="layer3">
    <path
       d="m 12,-95.03125 c -5.5110903,0 -10.03125,4.52016 -10.03125,10.03125 l 0,71 c 0,5.5110902 4.5201598,10.03125 10.03125,10.03125 l 72,0 c 5.51109,0 10.03125,-4.5201597 10.03125,-10.03125 l 0,-71 c 0,-5.51109 -4.52016,-10.03125 -10.03125,-10.03125 l -72,0 z"
       transform="scale(1,-1)"
       id="path3786"
       style="opacity:0.07999998;fill:url(#linearGradient3026);fill-opacity:1;fill-rule:nonzero;stroke:none;display:inline" />
    <path
       d="m 12,-94.03125 c -4.971633,0 -9.03125,4.059617 -9.03125,9.03125 l 0,71 c 0,4.9716329 4.0596171,9.03125 9.03125,9.03125 l 72,0 c 4.971633,0 9.03125,-4.059617 9.03125,-9.03125 l 0,-71 c 0,-4.971633 -4.059617,-9.03125 -9.03125,-9.03125 l -72,0 z"
       transform="scale(1,-1)"
       id="path3778"
       style="opacity:0.1;fill:url(#linearGradient3780);fill-opacity:1;fill-rule:nonzero;stroke:none;display:inline" />
    <path
       d="m 12,-93 c -4.4091333,0 -8,3.590867 -8,8 l 0,71 c 0,4.4091333 3.5908667,8 8,8 l 72,0 c 4.409133,0 8,-3.5908667 8,-8 l 0,-71 c 0,-4.409133 -3.590867,-8 -8,-8 l -72,0 z"
       transform="scale(1,-1)"
       id="path3770"
       style="opacity:0.2;fill:url(#linearGradient3772);fill-opacity:1;fill-rule:nonzero;stroke:none;display:inline" />
    <rect
       width="86"
       height="85"
       rx="7"
       ry="7"
       x="5"
       y="-92"
       transform="scale(1,-1)"
       id="rect3723"
       style="opacity:0.3;fill:url(#linearGradient3725);fill-opacity:1;fill-rule:nonzero;stroke:none;display:inline" />
    <rect
       width="84"
       height="84"
       rx="6"
       ry="6"
       x="6"
       y="-91"
       transform="scale(1,-1)"
       id="rect3716"
       style="opacity:0.45;fill:url(#linearGradient3721);fill-opacity:1;fill-rule:nonzero;stroke:none;display:inline" />
  </g>
  <g
     id="layer1">
    <rect
       width="84"
       height="84"
       rx="6"
       ry="6"
       x="6"
       y="6"
       id="rect2419"
       style="fill:url(#linearGradient3617);fill-opacity:1;fill-rule:nonzero;stroke:none" />
    <path
       d="M 12,6 C 8.676,6 6,8.676 6,12 l 0,2 0,68 0,2 c 0,0.334721 0.04135,0.6507 0.09375,0.96875 0.0487,0.295596 0.09704,0.596915 0.1875,0.875 0.00988,0.03038 0.020892,0.0636 0.03125,0.09375 0.098865,0.287771 0.2348802,0.547452 0.375,0.8125 0.1445918,0.273507 0.3156161,0.535615 0.5,0.78125 0.1843839,0.245635 0.3737765,0.473472 0.59375,0.6875 0.439947,0.428056 0.94291,0.814526 1.5,1.09375 0.278545,0.139612 0.5734731,0.246947 0.875,0.34375 -0.2562018,-0.100222 -0.4867109,-0.236272 -0.71875,-0.375 -0.00741,-0.0044 -0.023866,0.0045 -0.03125,0 -0.031933,-0.0193 -0.062293,-0.04251 -0.09375,-0.0625 -0.120395,-0.0767 -0.2310226,-0.163513 -0.34375,-0.25 -0.1061728,-0.0808 -0.2132809,-0.161112 -0.3125,-0.25 C 8.4783201,88.557317 8.3087904,88.373362 8.15625,88.1875 8.0486711,88.057245 7.9378561,87.922215 7.84375,87.78125 7.818661,87.74287 7.805304,87.69538 7.78125,87.65625 7.716487,87.553218 7.6510225,87.451733 7.59375,87.34375 7.4927417,87.149044 7.3880752,86.928049 7.3125,86.71875 7.30454,86.69694 7.288911,86.6782 7.28125,86.65625 7.2494249,86.5643 7.2454455,86.469419 7.21875,86.375 7.1884177,86.268382 7.1483606,86.171969 7.125,86.0625 7.0521214,85.720988 7,85.364295 7,85 L 7,83 7,15 7,13 C 7,10.218152 9.2181517,8 12,8 l 2,0 68,0 2,0 c 2.781848,0 5,2.218152 5,5 l 0,2 0,68 0,2 c 0,0.364295 -0.05212,0.720988 -0.125,1.0625 -0.04415,0.206893 -0.08838,0.397658 -0.15625,0.59375 -0.0077,0.02195 -0.0233,0.04069 -0.03125,0.0625 -0.06274,0.173739 -0.138383,0.367449 -0.21875,0.53125 -0.04158,0.0828 -0.07904,0.169954 -0.125,0.25 -0.0546,0.09721 -0.126774,0.18835 -0.1875,0.28125 -0.09411,0.140965 -0.204921,0.275995 -0.3125,0.40625 -0.143174,0.17445 -0.303141,0.346998 -0.46875,0.5 -0.01117,0.0102 -0.01998,0.02115 -0.03125,0.03125 -0.138386,0.125556 -0.285091,0.234436 -0.4375,0.34375 -0.102571,0.07315 -0.204318,0.153364 -0.3125,0.21875 -0.0074,0.0045 -0.02384,-0.0044 -0.03125,0 -0.232039,0.138728 -0.462548,0.274778 -0.71875,0.375 0.301527,-0.0968 0.596455,-0.204138 0.875,-0.34375 0.55709,-0.279224 1.060053,-0.665694 1.5,-1.09375 0.219973,-0.214028 0.409366,-0.441865 0.59375,-0.6875 0.184384,-0.245635 0.355408,-0.507743 0.5,-0.78125 0.14012,-0.265048 0.276135,-0.524729 0.375,-0.8125 0.01041,-0.03078 0.02133,-0.06274 0.03125,-0.09375 0.09046,-0.278085 0.1388,-0.579404 0.1875,-0.875 C 89.95865,84.6507 90,84.334721 90,84 l 0,-2 0,-68 0,-2 C 90,8.676 87.324,6 84,6 L 12,6 z"
       id="rect3728"
       style="opacity:0.35;fill:url(#linearGradient3188);fill-opacity:1;fill-rule:nonzero;stroke:none" />
    <path
       d="M 12,90 C 8.676,90 6,87.324 6,84 L 6,82 6,14 6,12 c 0,-0.334721 0.04135,-0.6507 0.09375,-0.96875 0.0487,-0.295596 0.09704,-0.596915 0.1875,-0.875 C 6.29113,10.12587 6.302142,10.09265 6.3125,10.0625 6.411365,9.774729 6.5473802,9.515048 6.6875,9.25 6.8320918,8.976493 7.0031161,8.714385 7.1875,8.46875 7.3718839,8.223115 7.5612765,7.995278 7.78125,7.78125 8.221197,7.353194 8.72416,6.966724 9.28125,6.6875 9.559795,6.547888 9.8547231,6.440553 10.15625,6.34375 9.9000482,6.443972 9.6695391,6.580022 9.4375,6.71875 c -0.00741,0.0044 -0.023866,-0.0045 -0.03125,0 -0.031933,0.0193 -0.062293,0.04251 -0.09375,0.0625 -0.120395,0.0767 -0.2310226,0.163513 -0.34375,0.25 -0.1061728,0.0808 -0.2132809,0.161112 -0.3125,0.25 C 8.4783201,7.442683 8.3087904,7.626638 8.15625,7.8125 8.0486711,7.942755 7.9378561,8.077785 7.84375,8.21875 7.818661,8.25713 7.805304,8.30462 7.78125,8.34375 7.716487,8.446782 7.6510225,8.548267 7.59375,8.65625 7.4927417,8.850956 7.3880752,9.071951 7.3125,9.28125 7.30454,9.30306 7.288911,9.3218 7.28125,9.34375 7.2494249,9.4357 7.2454455,9.530581 7.21875,9.625 7.1884177,9.731618 7.1483606,9.828031 7.125,9.9375 7.0521214,10.279012 7,10.635705 7,11 l 0,2 0,68 0,2 c 0,2.781848 2.2181517,5 5,5 l 2,0 68,0 2,0 c 2.781848,0 5,-2.218152 5,-5 l 0,-2 0,-68 0,-2 C 89,10.635705 88.94788,10.279012 88.875,9.9375 88.83085,9.730607 88.78662,9.539842 88.71875,9.34375 88.71105,9.3218 88.69545,9.30306 88.6875,9.28125 88.62476,9.107511 88.549117,8.913801 88.46875,8.75 88.42717,8.6672 88.38971,8.580046 88.34375,8.5 88.28915,8.40279 88.216976,8.31165 88.15625,8.21875 88.06214,8.077785 87.951329,7.942755 87.84375,7.8125 87.700576,7.63805 87.540609,7.465502 87.375,7.3125 87.36383,7.3023 87.35502,7.29135 87.34375,7.28125 87.205364,7.155694 87.058659,7.046814 86.90625,6.9375 86.803679,6.86435 86.701932,6.784136 86.59375,6.71875 c -0.0074,-0.0045 -0.02384,0.0044 -0.03125,0 -0.232039,-0.138728 -0.462548,-0.274778 -0.71875,-0.375 0.301527,0.0968 0.596455,0.204138 0.875,0.34375 0.55709,0.279224 1.060053,0.665694 1.5,1.09375 0.219973,0.214028 0.409366,0.441865 0.59375,0.6875 0.184384,0.245635 0.355408,0.507743 0.5,0.78125 0.14012,0.265048 0.276135,0.524729 0.375,0.8125 0.01041,0.03078 0.02133,0.06274 0.03125,0.09375 0.09046,0.278085 0.1388,0.579404 0.1875,0.875 C 89.95865,11.3493 90,11.665279 90,12 l 0,2 0,68 0,2 c 0,3.324 -2.676,6 -6,6 l -72,0 z"
       id="path3615"
       style="opacity:0.2;fill:url(#radialGradient3619);fill-opacity:1;fill-rule:nonzero;stroke:none" />
    <g
       id="layer7"
       style="opacity:0.80800003;enable-background:new"
       transform="translate(-0.813557,2.864407)">
      <path
         d="m 58,14.5 a 26,1.5 0 1 1 -52,0 26,1.5 0 1 1 52,0 z"
         transform="matrix(1.576923,0,0,1,-2.4615381,-7)"
         id="path3899"
         style="color:#000000;display:inline;overflow:visible;visibility:visible;opacity:0.02000002;fill:url(#radialGradient3907);fill-opacity:1;fill-rule:nonzero;stroke:none;stroke-width:2;marker:none;enable-background:accumulate" />
      <path
         d="m 58,14.5 a 26,1.5 0 1 1 -52,0 26,1.5 0 1 1 52,0 z"
         transform="matrix(1.576923,0,0,1,-2.4615381,-2)"
         id="path3909"
         style="color:#000000;display:inline;overflow:visible;visibility:visible;opacity:0.03999999;fill:url(#radialGradient3911);fill-opacity:1;fill-rule:nonzero;stroke:none;stroke-width:2;marker:none;enable-background:accumulate" />
      <path
         d="m 58,14.5 a 26,1.5 0 1 1 -52,0 26,1.5 0 1 1 52,0 z"
         transform="matrix(1.576923,0,0,1,-2.4615381,3)"
         id="path3913"
         style="color:#000000;display:inline;overflow:visible;visibility:visible;opacity:0.06000001;fill:url(#radialGradient3915);fill-opacity:1;fill-rule:nonzero;stroke:none;stroke-width:2;marker:none;enable-background:accumulate" />
      <path
         d="m 58,14.5 a 26,1.5 0 1 1 -52,0 26,1.5 0 1 1 52,0 z"
         transform="matrix(1.576923,0,0,1,-2.4615381,8)"
         id="path3917"
         style="color:#000000;display:inline;overflow:visible;visibility:visible;opacity:0.07999998;fill:url(#radialGradient3919);fill-opacity:1;fill-rule:nonzero;stroke:none;stroke-width:2;marker:none;enable-background:accumulate" />
      <path
         d="m 58,14.5 a 26,1.5 0 1 1 -52,0 26,1.5 0 1 1 52,0 z"
         transform="matrix(1.576923,0,0,1,-2.4615381,13)"
         id="path3921"
         style="color:#000000;display:inline;overflow:visible;visibility:visible;opacity:0.1;fill:url(#radialGradient3923);fill-opacity:1;fill-rule:nonzero;stroke:none;stroke-width:2;marker:none;enable-background:accumulate" />
      <path
         d="m 58,14.5 a 26,1.5 0 1 1 -52,0 26,1.5 0 1 1 52,0 z"
         transform="matrix(1.576923,0,0,1,-2.4615381,18)"
         id="path3925"
         style="color:#000000;display:inline;overflow:visible;visibility:visible;opacity:0.1;fill:url(#radialGradient3927);fill-opacity:1;fill-rule:nonzero;stroke:none;stroke-width:2;marker:none;enable-background:accumulate" />
      <path
         d="m 58,14.5 a 26,1.5 0 1 1 -52,0 26,1.5 0 1 1 52,0 z"
         transform="matrix(1.576923,0,0,1,-2.4615381,23)"
         id="path3929"
         style="color:#000000;display:inline;overflow:visible;visibility:visible;opacity:0.1;fill:url(#radialGradient3931);fill-opacity:1;fill-rule:nonzero;stroke:none;stroke-width:2;marker:none;enable-background:accumulate" />
      <path
         d="m 58,14.5 a 26,1.5 0 1 1 -52,0 26,1.5 0 1 1 52,0 z"
         transform="matrix(1.576923,0,0,1,-2.4615381,28)"
         id="path3933"
         style="color:#000000;display:inline;overflow:visible;visibility:visible;opacity:0.1;fill:url(#radialGradient3935);fill-opacity:1;fill-rule:nonzero;stroke:none;stroke-width:2;marker:none;enable-background:accumulate" />
      <path
         d="m 58,14.5 a 26,1.5 0 1 1 -52,0 26,1.5 0 1 1 52,0 z"
         transform="matrix(1.576923,0,0,1,-2.4615381,33)"
         id="path3937"
         style="color:#000000;display:inline;overflow:visible;visibility:visible;opacity:0.1;fill:url(#radialGradient3939);fill-opacity:1;fill-rule:nonzero;stroke:none;stroke-width:2;marker:none;enable-background:accumulate" />
      <path
         d="m 58,14.5 a 26,1.5 0 1 1 -52,0 26,1.5 0 1 1 52,0 z"
         transform="matrix(1.576923,0,0,1,-2.4615381,38)"
         id="path3941"
         style="color:#000000;display:inline;overflow:visible;visibility:visible;opacity:0.1;fill:url(#radialGradient3943);fill-opacity:1;fill-rule:nonzero;stroke:none;stroke-width:2;marker:none;enable-background:accumulate" />
      <path
         d="m 58,14.5 a 26,1.5 0 1 1 -52,0 26,1.5 0 1 1 52,0 z"
         transform="matrix(1.576923,0,0,1,-2.4615381,43)"
         id="path3945"
         style="color:#000000;display:inline;overflow:visible;visibility:visible;opacity:0.1;fill:url(#radialGradient3947);fill-opacity:1;fill-rule:nonzero;stroke:none;stroke-width:2;marker:none;enable-background:accumulate" />
      <path
         d="m 58,14.5 a 26,1.5 0 1 1 -52,0 26,1.5 0 1 1 52,0 z"
         transform="matrix(1.576923,0,0,1,-2.4615381,48)"
         id="path3949"
         style="color:#000000;display:inline;overflow:visible;visibility:visible;opacity:0.1;fill:url(#radialGradient3951);fill-opacity:1;fill-rule:nonzero;stroke:none;stroke-width:2;marker:none;enable-background:accumulate" />
      <path
         d="m 58,14.5 a 26,1.5 0 1 1 -52,0 26,1.5 0 1 1 52,0 z"
         transform="matrix(1.576923,0,0,1,-2.4615381,53)"
         id="path3953"
         style="color:#000000;display:inline;overflow:visible;visibility:visible;opacity:0.07999998;fill:url(#radialGradient3955);fill-opacity:1;fill-rule:nonzero;stroke:none;stroke-width:2;marker:none;enable-background:accumulate" />
      <path
         d="m 58,14.5 a 26,1.5 0 1 1 -52,0 26,1.5 0 1 1 52,0 z"
         transform="matrix(1.576923,0,0,1,-2.4615381,58)"
         id="path3957"
         style="color:#000000;display:inline;overflow:visible;visibility:visible;opacity:0.06000001;fill:url(#radialGradient3959);fill-opacity:1;fill-rule:nonzero;stroke:none;stroke-width:2;marker:none;enable-background:accumulate" />
      <path
         d="m 58,14.5 a 26,1.5 0 1 1 -52,0 26,1.5 0 1 1 52,0 z"
         transform="matrix(1.576923,0,0,1,-2.4615381,63)"
         id="path3961"
         style="color:#000000;display:inline;overflow:visible;visibility:visible;opacity:0.03999999;fill:url(#radialGradient3963);fill-opacity:1;fill-rule:nonzero;stroke:none;stroke-width:2;marker:none;enable-background:accumulate" />
      <path
         d="m 58,14.5 a 26,1.5 0 1 1 -52,0 26,1.5 0 1 1 52,0 z"
         transform="matrix(1.576923,0,0,1,-2.4615381,68)"
         id="path3965"
         style="color:#000000;display:inline;overflow:visible;visibility:visible;opacity:0.02000002;fill:url(#radialGradient3967);fill-opacity:1;fill-rule:nonzero;stroke:none;stroke-width:2;marker:none;enable-background:accumulate" />
    </g>
  </g>
  <g
     transform="translate(118)"
     id="layer5"
     style="display:inline">
    <rect
       transform="translate(-120)"
       width="66"
       height="66"
       rx="12"
       ry="12"
       x="15"
       y="15"
       clip-path="url(#clipPath3613)"
       id="rect3171"
       style="opacity:0.1;fill:url(#linearGradient3613);fill-opacity:1;fill-rule:nonzero;stroke:#fefefe;stroke-width:0.5;stroke-linecap:round;stroke-linejoin:miter;stroke-miterlimit:4;stroke-dasharray:none;stroke-dashoffset:0;stroke-opacity:1;filter:url(#filter3794)" />
  </g>
  <path
     d="m 5.843751,47.999997 79.999999,-24 V 6.34375 C 85.21799,6.12361 84.54664,6 83.84375,6 H 11.843752 c -3.324,0 -6.000001,2.676 -6.000001,6 z"
     id="rect3155"
     style="display:inline;opacity:0.15;fill:url(#linearGradient3930);fill-opacity:1;fill-rule:nonzero;stroke:none;enable-background:new" />
  <path
     style="fill:#fefefe;fill-opacity:1;stroke-width:0.36780667"
     d="m 27.744442,73.044645 c -2.24037,-0.6167 -3.78557,-1.77152 -4.62167,-3.45404 -0.64691,-1.3018 -0.69561,-2.75393 -0.79703,-23.76577 l -0.10801,-22.379262 10.0388,0.129354 c 10.01399,0.129035 10.04405,0.13181 12.16516,1.123332 1.16951,0.546687 3.07291,1.883283 4.22978,2.970213 3.65313,3.432267 2.66851,3.203239 13.77115,3.203239 h 9.84894 l -0.009,17.562764 c -0.005,10.63373 -0.15768,18.21577 -0.38587,19.2179 -0.51965,2.28216 -1.84902,4.16708 -3.52623,4.99986 -1.32674,0.65876 -2.54599,0.70577 -20.17024,0.77768 -14.11689,0.0576 -19.17323,-0.0377 -20.43578,-0.38527 z m 38.5543,-20.9321 0.096,-15.35593 -6.90041,0.002 c -7.75795,0.003 -7.38033,-0.10669 -10.60457,3.0725 -0.99712,0.98318 -2.88878,2.30728 -4.20369,2.94245 -2.38738,1.15324 -2.40067,1.15503 -9.47102,1.28066 l -7.08028,0.12579 v 11.49076 c 0,6.31992 0.11184,11.60259 0.24852,11.73927 0.13667,0.13668 8.70197,0.20565 19.03399,0.15326 l 18.78548,-0.0953 z m -23.5254,-14.40691 c 0.54627,-0.28722 1.72843,-1.27758 2.62704,-2.2008 l 1.63382,-1.678586 -1.44992,-1.485584 c -2.85315,-2.923319 -2.91392,-2.940181 -10.59655,-2.940181 h -6.85297 v 4.41368 4.413681 h 6.82269 c 5.18176,0 7.06157,-0.1256 7.81589,-0.52221 z"
     id="path4677" />
</svg>
