<?xml version="1.0" encoding="UTF-8" standalone="no"?>
<svg
   xmlns:dc="http://purl.org/dc/elements/1.1/"
   xmlns:cc="http://creativecommons.org/ns#"
   xmlns:rdf="http://www.w3.org/1999/02/22-rdf-syntax-ns#"
   xmlns:svg="http://www.w3.org/2000/svg"
   xmlns="http://www.w3.org/2000/svg"
   xmlns:xlink="http://www.w3.org/1999/xlink"
   id="svg2408"
   height="96"
   width="96"
   version="1.0">
  <defs
     id="defs2410">
    <linearGradient
       id="linearGradient4704">
      <stop
         style="stop-color:#244c79;stop-opacity:1"
         offset="0"
         id="stop4700" />
      <stop
         style="stop-color:#5e87b4;stop-opacity:1"
         offset="1"
         id="stop4702" />
    </linearGradient>
    <linearGradient
       id="linearGradient4765">
      <stop
         offset="0"
         style="stop-color:#003f41;stop-opacity:1"
         id="stop4761" />
      <stop
         offset="1"
         style="stop-color:#000000;stop-opacity:0"
         id="stop4763" />
    </linearGradient>
    <linearGradient
       id="linearGradient4759">
      <stop
         offset="0"
         style="stop-color:#1f5970;stop-opacity:1"
         id="stop4755" />
      <stop
         offset="1"
         style="stop-color:#2e4256;stop-opacity:0.08641975"
         id="stop4757" />
    </linearGradient>
    <linearGradient
       id="linearGradient4829">
      <stop
         offset="0"
         style="stop-color:#000000;stop-opacity:1"
         id="stop4817" />
      <stop
         offset="0.06588447"
         style="stop-color:#000000;stop-opacity:1"
         id="stop4819" />
      <stop
         offset="0.07"
         style="stop-color:#ad5f1b;stop-opacity:1"
         id="stop4821" />
      <stop
         offset="0.1913653"
         style="stop-color:#ad601a;stop-opacity:1"
         id="stop4823" />
      <stop
         offset="0.20983393"
         style="stop-color:#d13636;stop-opacity:1"
         id="stop4825" />
      <stop
         offset="1"
         style="stop-color:#d13637;stop-opacity:1"
         id="stop4827" />
    </linearGradient>
    <linearGradient
       id="linearGradient899">
      <stop
         style="stop-color:#c8c8c8;stop-opacity:1"
         offset="0"
         id="stop895" />
      <stop
         style="stop-color:#a0a0a0;stop-opacity:0.98823529"
         offset="1"
         id="stop897" />
    </linearGradient>
    <linearGradient
       id="linearGradient867">
      <stop
         id="stop863"
         offset="0"
         style="stop-color:#a0a0a0;stop-opacity:1" />
      <stop
         id="stop865"
         offset="1"
         style="stop-color:#f0f0f0;stop-opacity:0.98823529" />
    </linearGradient>
    <linearGradient
       id="linearGradient4280">
      <stop
         offset="0"
         style="stop-color:#f0f0f0;stop-opacity:1"
         id="stop4284" />
      <stop
         offset="1"
         style="stop-color:#c6c6c6;stop-opacity:1"
         id="stop4282" />
    </linearGradient>
    <linearGradient
       gradientTransform="scale(1.0058652,0.994169)"
       gradientUnits="userSpaceOnUse"
       id="ButtonShadow"
       y2="7.0165396"
       x2="45.447727"
       y1="92.539597"
       x1="45.447727">
      <stop
         offset="0"
         style="stop-color:#000000;stop-opacity:1"
         id="stop3750" />
      <stop
         offset="1"
         style="stop-color:#000000;stop-opacity:0.58823532"
         id="stop3752" />
    </linearGradient>
    <linearGradient
       id="linearGradient3737">
      <stop
         offset="0"
         style="stop-color:#fefefe;stop-opacity:1"
         id="stop3739" />
      <stop
         offset="1"
         style="stop-color:#fefefe;stop-opacity:0"
         id="stop3741" />
    </linearGradient>
    <filter
       id="filter3174"
       color-interpolation-filters="sRGB">
      <feGaussianBlur
         stdDeviation="1.71"
         id="feGaussianBlur3176" />
    </filter>
    <linearGradient
       gradientUnits="userSpaceOnUse"
       xlink:href="#linearGradient3737"
       id="linearGradient3188"
       y2="63.893143"
       x2="36.357143"
       y1="6"
       x1="36.357143" />
    <radialGradient
       gradientTransform="matrix(1.1573129,0,0,0.99590774,-7.5510206,0.19713193)"
       gradientUnits="userSpaceOnUse"
       xlink:href="#linearGradient3737"
       id="radialGradient3619"
       fy="90.171875"
       fx="48"
       r="42"
       cy="90.171875"
       cx="48" />
    <linearGradient
       gradientTransform="translate(0,-96)"
       gradientUnits="userSpaceOnUse"
       xlink:href="#linearGradient4280"
       id="linearGradient3617"
       y2="-32"
       x2="48"
       y1="90"
       x1="48" />
    <linearGradient
       gradientTransform="matrix(1.0058652,0,0,0.994169,100,0)"
       gradientUnits="userSpaceOnUse"
       id="ButtonShadow-0"
       y2="7.0165396"
       x2="45.447727"
       y1="92.539597"
       x1="45.447727">
      <stop
         offset="0"
         style="stop-color:#000000;stop-opacity:1"
         id="stop3750-8" />
      <stop
         offset="1"
         style="stop-color:#000000;stop-opacity:0.58823532"
         id="stop3752-5" />
    </linearGradient>
    <linearGradient
       gradientTransform="matrix(1.0238095,0,0,-1.0119048,-1.1428571,98.071429)"
       gradientUnits="userSpaceOnUse"
       xlink:href="#ButtonShadow-0"
       id="linearGradient3780"
       y2="90.238609"
       x2="32.251034"
       y1="6.1317081"
       x1="32.251034" />
    <linearGradient
       gradientTransform="matrix(1.0238095,0,0,-1.0119048,-1.1428571,98.071429)"
       gradientUnits="userSpaceOnUse"
       xlink:href="#ButtonShadow-0"
       id="linearGradient3772"
       y2="90.238609"
       x2="32.251034"
       y1="6.1317081"
       x1="32.251034" />
    <linearGradient
       gradientTransform="matrix(1.0238095,0,0,1.0119048,-1.1428571,-98.071429)"
       gradientUnits="userSpaceOnUse"
       xlink:href="#ButtonShadow-0"
       id="linearGradient3725"
       y2="90.238609"
       x2="32.251034"
       y1="6.1317081"
       x1="32.251034" />
    <linearGradient
       gradientTransform="translate(0,-97)"
       gradientUnits="userSpaceOnUse"
       xlink:href="#ButtonShadow-0"
       id="linearGradient3721"
       y2="90.238609"
       x2="32.251034"
       y1="6.1317081"
       x1="32.251034" />
    <linearGradient
       gradientTransform="matrix(1.0238095,0,0,-1.0119048,-1.1428571,98.071429)"
       gradientUnits="userSpaceOnUse"
       xlink:href="#ButtonShadow-0"
       id="linearGradient2918"
       y2="90.238609"
       x2="32.251034"
       y1="6.1317081"
       x1="32.251034" />
    <linearGradient
       id="linearGradient4776">
      <stop
         id="stop4778"
         offset="0"
         style="stop-color:#1d99f3;stop-opacity:1" />
      <stop
         style="stop-color:#2972a7;stop-opacity:1"
         offset="1"
         id="stop4780" />
    </linearGradient>
    <linearGradient
       id="linearGradient5617">
      <stop
         style="stop-color:#9559b6;stop-opacity:1;"
         offset="0"
         id="stop5619" />
      <stop
         id="stop5621"
         offset="1"
         style="stop-color:#8e44ad;stop-opacity:1;" />
    </linearGradient>
    <linearGradient
       gradientTransform="matrix(1.1625301,0,0,1.1389522,-14.194804,-8.637483)"
       gradientUnits="userSpaceOnUse"
       y2="61.965019"
       x2="68.9282"
       y1="24.340015"
       x1="68.934395"
       id="linearGradient869"
       xlink:href="#linearGradient867" />
    <linearGradient
       gradientTransform="matrix(1.2838771,0,0,1.2528475,-20.865473,-14.411732)"
       gradientUnits="userSpaceOnUse"
       y2="61.965019"
       x2="68.9282"
       y1="24.340015"
       x1="68.934395"
       id="linearGradient869-3"
       xlink:href="#linearGradient899" />
    <linearGradient
       gradientTransform="translate(-0.00275081,-1.0129998)"
       xlink:href="#linearGradient3912"
       id="linearGradient3937"
       gradientUnits="userSpaceOnUse"
       x1="24"
       y1="12"
       x2="24"
       y2="36" />
    <linearGradient
       id="linearGradient3912">
      <stop
         style="stop-color:#5d5d5d;stop-opacity:1;"
         offset="0"
         id="stop3914" />
      <stop
         style="stop-color:#989898;stop-opacity:1;"
         offset="1"
         id="stop3916" />
    </linearGradient>
    <linearGradient
       x1="61.294735"
       y1="121.32806"
       x2="117.36092"
       y2="18.868103"
       id="linearGradient3593"
       xlink:href="#linearGradient3951"
       gradientUnits="userSpaceOnUse" />
    <linearGradient
       id="linearGradient3951">
      <stop
         id="stop3953"
         style="stop-color:#000000;stop-opacity:1"
         offset="0" />
      <stop
         id="stop3955"
         style="stop-color:#000000;stop-opacity:0"
         offset="1" />
    </linearGradient>
    <filter
       style="color-interpolation-filters:sRGB"
       id="filter3963">
      <feGaussianBlur
         stdDeviation="0.91605611"
         id="feGaussianBlur3965" />
    </filter>
    <linearGradient
       x1="61.294735"
       y1="121.32806"
       x2="104.6299"
       y2="41.346642"
       id="linearGradient3595"
       xlink:href="#linearGradient3951"
       gradientUnits="userSpaceOnUse" />
    <filter
       style="color-interpolation-filters:sRGB"
       id="filter4659">
      <feGaussianBlur
         stdDeviation="0.91605611"
         id="feGaussianBlur4657" />
    </filter>
    <linearGradient
       x1="136.41356"
       y1="115.49392"
       x2="149.52968"
       y2="115.49392"
       id="linearGradient3522"
       xlink:href="#linearGradient3485"
       gradientUnits="userSpaceOnUse" />
    <linearGradient
       id="linearGradient3485">
      <stop
         id="stop3487"
         style="stop-color:#e6605b;stop-opacity:1"
         offset="0" />
      <stop
         id="stop3489"
         style="stop-color:#f08682;stop-opacity:1"
         offset="1" />
    </linearGradient>
    <filter
       style="color-interpolation-filters:sRGB"
       x="-0.42857143"
       y="-0.16666667"
       width="1.8571428"
       height="1.3333333"
       id="filter3495">
      <feGaussianBlur
         stdDeviation="0.55242721"
         id="feGaussianBlur3497" />
    </filter>
    <filter
       style="color-interpolation-filters:sRGB"
       x="-0.18344349"
       y="-0.17668343"
       width="1.366887"
       height="1.3533669"
       id="filter3509">
      <feGaussianBlur
         stdDeviation="0.65925"
         id="feGaussianBlur3511" />
    </filter>
    <linearGradient
       x1="137.40625"
       y1="116.46875"
       x2="148.53125"
       y2="116.46875"
       id="linearGradient3524"
       xlink:href="#linearGradient3339"
       gradientUnits="userSpaceOnUse"
       gradientTransform="matrix(1.0893815,0,0,1,-13.275943,0)" />
    <linearGradient
       id="linearGradient3339">
      <stop
         id="stop3341"
         style="stop-color:#000000;stop-opacity:1"
         offset="0" />
      <stop
         id="stop3347"
         style="stop-color:#000000;stop-opacity:0.49803922"
         offset="0.69999999" />
      <stop
         id="stop3343"
         style="stop-color:#000000;stop-opacity:0"
         offset="1" />
    </linearGradient>
    <linearGradient
       x1="136"
       y1="60"
       x2="150"
       y2="60"
       id="linearGradient3526"
       xlink:href="#linearGradient3278"
       gradientUnits="userSpaceOnUse"
       gradientTransform="translate(-23.73343)" />
    <linearGradient
       id="linearGradient3278">
      <stop
         id="stop3280"
         style="stop-color:#bc3732;stop-opacity:1"
         offset="0" />
      <stop
         id="stop3290"
         style="stop-color:#e2494a;stop-opacity:1"
         offset="0.25" />
      <stop
         id="stop3286"
         style="stop-color:#ff6264;stop-opacity:1"
         offset="0.30000001" />
      <stop
         id="stop3288"
         style="stop-color:#f35455;stop-opacity:1"
         offset="0.69999999" />
      <stop
         id="stop3292"
         style="stop-color:#ff5d5b;stop-opacity:1"
         offset="0.75" />
      <stop
         id="stop3282"
         style="stop-color:#ff363c;stop-opacity:1"
         offset="1" />
    </linearGradient>
    <linearGradient
       x1="143"
       y1="2.4000001e-06"
       x2="143"
       y2="120.01752"
       id="linearGradient3528"
       xlink:href="#linearGradient3254"
       gradientUnits="userSpaceOnUse"
       gradientTransform="translate(-23.73343)" />
    <linearGradient
       id="linearGradient3254">
      <stop
         id="stop3256"
         style="stop-color:#000000;stop-opacity:1"
         offset="0" />
      <stop
         id="stop3266"
         style="stop-color:#000000;stop-opacity:1"
         offset="0.06588447" />
      <stop
         id="stop3264"
         style="stop-color:#ad5f1b;stop-opacity:1"
         offset="0.07" />
      <stop
         id="stop3268"
         style="stop-color:#ad601a;stop-opacity:1"
         offset="0.1913653" />
      <stop
         id="stop3262"
         style="stop-color:#785800;stop-opacity:1"
         offset="0.20983393" />
      <stop
         id="stop3258"
         style="stop-color:#785700;stop-opacity:1"
         offset="1" />
    </linearGradient>
    <linearGradient
       x1="141.25002"
       y1="4.9218717"
       x2="144.81252"
       y2="4.9218717"
       id="linearGradient3530"
       xlink:href="#linearGradient3394"
       gradientUnits="userSpaceOnUse"
       gradientTransform="matrix(0.76097591,-8.0956883e-4,-8.0956883e-4,0.99289372,-19.035847,-36.112031)" />
    <linearGradient
       id="linearGradient3394">
      <stop
         id="stop3396"
         style="stop-color:#000000;stop-opacity:1"
         offset="0" />
      <stop
         id="stop3402"
         style="stop-color:#7d7d7d;stop-opacity:1"
         offset="0.5" />
      <stop
         id="stop3398"
         style="stop-color:#000000;stop-opacity:1"
         offset="1" />
    </linearGradient>
    <linearGradient
       x1="136.98804"
       y1="17.043356"
       x2="148.99513"
       y2="17.043356"
       id="linearGradient3532"
       xlink:href="#linearGradient3308"
       gradientUnits="userSpaceOnUse"
       gradientTransform="translate(-23.73343)" />
    <linearGradient
       id="linearGradient3308">
      <stop
         id="stop3310"
         style="stop-color:#da8539;stop-opacity:1"
         offset="0" />
      <stop
         id="stop3312"
         style="stop-color:#fadfc7;stop-opacity:1"
         offset="1" />
    </linearGradient>
    <linearGradient
       x1="146.10596"
       y1="118.94019"
       x2="146.07562"
       y2="66"
       id="linearGradient3534"
       xlink:href="#linearGradient3737"
       gradientUnits="userSpaceOnUse"
       gradientTransform="matrix(0.76097591,-8.0956883e-4,-0.00102439,1.2563605,-18.991835,-90.08987)" />
    <linearGradient
       x1="146.10596"
       y1="118.94019"
       x2="146.07562"
       y2="66"
       id="linearGradient3536"
       xlink:href="#linearGradient3737"
       gradientUnits="userSpaceOnUse"
       gradientTransform="matrix(0.76097591,-8.0956883e-4,-0.00102439,1.2563605,-23.652812,-90.084916)" />
    <filter
       style="color-interpolation-filters:sRGB"
       x="-0.43161276"
       y="-0.11371106"
       width="1.8632255"
       height="1.2274221"
       id="filter3382">
      <feGaussianBlur
         stdDeviation="0.73914765"
         id="feGaussianBlur3384" />
    </filter>
    <filter
       style="color-interpolation-filters:sRGB"
       x="-0.60979599"
       y="-0.1494"
       width="2.2195919"
       height="1.2988"
       id="filter3390">
      <feGaussianBlur
         stdDeviation="0.77812506"
         id="feGaussianBlur3392" />
    </filter>
    <linearGradient
       x1="136"
       y1="106"
       x2="150"
       y2="106"
       id="linearGradient3538"
       xlink:href="#linearGradient3401"
       gradientUnits="userSpaceOnUse" />
    <linearGradient
       id="linearGradient3401">
      <stop
         id="stop3403"
         style="stop-color:#404040;stop-opacity:1"
         offset="0" />
      <stop
         id="stop3447"
         style="stop-color:#808080;stop-opacity:1"
         offset="0.2" />
      <stop
         id="stop3410"
         style="stop-color:#efefef;stop-opacity:1"
         offset="0.69999999" />
      <stop
         id="stop3405"
         style="stop-color:#dcdcdc;stop-opacity:1"
         offset="1" />
    </linearGradient>
    <linearGradient
       x1="136"
       y1="106"
       x2="150"
       y2="106"
       id="linearGradient3540"
       xlink:href="#linearGradient3461"
       gradientUnits="userSpaceOnUse" />
    <linearGradient
       id="linearGradient3461">
      <stop
         id="stop3463"
         style="stop-color:#444542;stop-opacity:1"
         offset="0" />
      <stop
         id="stop3465"
         style="stop-color:#71746e;stop-opacity:1"
         offset="1" />
    </linearGradient>
    <linearGradient
       x1="142.95775"
       y1="98.950562"
       x2="148.95775"
       y2="98.950562"
       id="linearGradient3542"
       xlink:href="#linearGradient3339"
       gradientUnits="userSpaceOnUse"
       gradientTransform="translate(0.04225159,1.5494389)"
       spreadMethod="reflect" />
    <linearGradient
       x1="142.95775"
       y1="98.950562"
       x2="148.95775"
       y2="98.950562"
       id="linearGradient3544"
       xlink:href="#linearGradient3355"
       gradientUnits="userSpaceOnUse"
       gradientTransform="translate(0.04225159,2.5494389)"
       spreadMethod="reflect" />
    <linearGradient
       id="linearGradient3355">
      <stop
         id="stop3357"
         style="stop-color:#fefefe;stop-opacity:1"
         offset="0" />
      <stop
         id="stop3359"
         style="stop-color:#fefefe;stop-opacity:0.49803922"
         offset="0.69999999" />
      <stop
         id="stop3361"
         style="stop-color:#fefefe;stop-opacity:0"
         offset="1" />
    </linearGradient>
    <linearGradient
       x1="142.95775"
       y1="98.950562"
       x2="148.95775"
       y2="98.950562"
       id="linearGradient3546"
       xlink:href="#linearGradient3339"
       gradientUnits="userSpaceOnUse"
       gradientTransform="translate(0.04225159,3.5494389)"
       spreadMethod="reflect" />
    <linearGradient
       x1="142.95775"
       y1="98.950562"
       x2="148.95775"
       y2="98.950562"
       id="linearGradient3548"
       xlink:href="#linearGradient3355"
       gradientUnits="userSpaceOnUse"
       gradientTransform="translate(0.04225159,4.5494389)"
       spreadMethod="reflect" />
    <linearGradient
       x1="142.95775"
       y1="98.950562"
       x2="148.95775"
       y2="98.950562"
       id="linearGradient3550"
       xlink:href="#linearGradient3339"
       gradientUnits="userSpaceOnUse"
       gradientTransform="translate(0.04225159,9.5494389)"
       spreadMethod="reflect" />
    <linearGradient
       x1="142.95775"
       y1="98.950562"
       x2="148.95775"
       y2="98.950562"
       id="linearGradient3552"
       xlink:href="#linearGradient3355"
       gradientUnits="userSpaceOnUse"
       gradientTransform="translate(0.04225159,10.549439)"
       spreadMethod="reflect" />
    <linearGradient
       x1="142.95775"
       y1="98.950562"
       x2="148.95775"
       y2="98.950562"
       id="linearGradient3554"
       xlink:href="#linearGradient3339"
       gradientUnits="userSpaceOnUse"
       gradientTransform="translate(0.04225159,11.549439)"
       spreadMethod="reflect" />
    <linearGradient
       x1="142.95775"
       y1="98.950562"
       x2="148.95775"
       y2="98.950562"
       id="linearGradient3556"
       xlink:href="#linearGradient3355"
       gradientUnits="userSpaceOnUse"
       gradientTransform="translate(0.04225159,12.549439)"
       spreadMethod="reflect" />
    <linearGradient
       x1="137"
       y1="106"
       x2="139.03125"
       y2="106"
       id="linearGradient3558"
       xlink:href="#linearGradient3439"
       gradientUnits="userSpaceOnUse"
       spreadMethod="repeat" />
    <linearGradient
       id="linearGradient3439">
      <stop
         id="stop3441"
         style="stop-color:#3d3d3d;stop-opacity:1"
         offset="0" />
      <stop
         id="stop3443"
         style="stop-color:#fefefe;stop-opacity:1"
         offset="1" />
    </linearGradient>
    <filter
       style="color-interpolation-filters:sRGB"
       x="-1.0349605"
       y="-0.13573837"
       width="3.069921"
       height="1.2714767"
       id="filter3451">
      <feGaussianBlur
         stdDeviation="0.9498173"
         id="feGaussianBlur3453" />
    </filter>
    <filter
       style="color-interpolation-filters:sRGB"
       x="-0.93333328"
       y="-0.13770492"
       width="2.8666666"
       height="1.2754098"
       id="filter3457">
      <feGaussianBlur
         stdDeviation="0.92807767"
         id="feGaussianBlur3459" />
    </filter>
    <linearGradient
       xlink:href="#linearGradient3308"
       id="linearGradient4809"
       gradientUnits="userSpaceOnUse"
       x1="136.98804"
       y1="17.043356"
       x2="148.99513"
       y2="17.043356"
       gradientTransform="matrix(0.76097591,-8.0956883e-4,-8.0956883e-4,0.99289372,-19.035847,-36.112031)" />
    <linearGradient
       xlink:href="#linearGradient3278"
       id="linearGradient4813"
       gradientUnits="userSpaceOnUse"
       x1="136"
       y1="60"
       x2="150"
       y2="60"
       gradientTransform="matrix(0.76097591,-8.0956883e-4,-8.0956883e-4,0.99289372,-19.035847,-36.112031)" />
    <linearGradient
       xlink:href="#linearGradient4829"
       id="linearGradient4815"
       gradientUnits="userSpaceOnUse"
       x1="143"
       y1="2.4000001e-06"
       x2="143"
       y2="120.01752"
       gradientTransform="matrix(0.76097591,-8.0956883e-4,-8.0956883e-4,0.99289372,-19.035847,-36.112031)" />
    <linearGradient
       xlink:href="#linearGradient3278"
       id="linearGradient4841"
       gradientUnits="userSpaceOnUse"
       gradientTransform="matrix(0.76097591,-8.0956883e-4,-8.0956883e-4,0.99289372,-19.035847,-36.112031)"
       x1="136"
       y1="60"
       x2="150"
       y2="60" />
    <linearGradient
       xlink:href="#linearGradient4829"
       id="linearGradient4843"
       gradientUnits="userSpaceOnUse"
       gradientTransform="matrix(0.76097591,-8.0956883e-4,-8.0956883e-4,0.99289372,-19.035847,-36.112031)"
       x1="143"
       y1="2.4000001e-06"
       x2="143"
       y2="120.01752" />
    <linearGradient
       xlink:href="#linearGradient3737"
       id="linearGradient4845"
       gradientUnits="userSpaceOnUse"
       gradientTransform="matrix(0.76097591,-8.0956883e-4,-0.00102439,1.2563605,-23.652812,-90.084916)"
       x1="146.10596"
       y1="118.94019"
       x2="146.07562"
       y2="66" />
    <linearGradient
       gradientTransform="matrix(2.0500852,0,0,2.0500852,-0.925471,-3.142694)"
       gradientUnits="userSpaceOnUse"
       xlink:href="#linearGradient5421"
       id="linearGradient5427"
       y2="33.946251"
       x2="40.628307"
       y1="33.946251"
       x1="37.330212" />
    <linearGradient
       id="linearGradient5421">
      <stop
         id="stop5423"
         offset="0"
         style="stop-color:#cc0000;stop-opacity:1" />
      <stop
         id="stop5425"
         offset="1"
         style="stop-color:#cc0000;stop-opacity:0" />
    </linearGradient>
    <linearGradient
       gradientTransform="matrix(2.0500852,0,0,2.0500852,-0.925471,-3.142694)"
       gradientUnits="userSpaceOnUse"
       xlink:href="#linearGradient5413"
       id="linearGradient5419"
       y2="24.135145"
       x2="41.688969"
       y1="24.135145"
       x1="37.330212" />
    <linearGradient
       id="linearGradient5413">
      <stop
         id="stop5415"
         offset="0"
         style="stop-color:#204a87;stop-opacity:1" />
      <stop
         id="stop5417"
         offset="1"
         style="stop-color:#204a87;stop-opacity:0" />
    </linearGradient>
    <linearGradient
       gradientTransform="matrix(0.40558412,0,0,0.39999599,1.5499393,2.1179479)"
       gradientUnits="userSpaceOnUse"
       xlink:href="#linearGradient4076"
       id="linearGradient8399"
       y2="120.67539"
       x2="135.83893"
       y1="165.98375"
       x1="114.99662" />
    <linearGradient
       id="linearGradient4076">
      <stop
         offset="0"
         style="stop-color:#ffe45d;stop-opacity:1"
         id="stop4078" />
      <stop
         offset="1"
         style="stop-color:#ffb01c;stop-opacity:1"
         id="stop4080" />
    </linearGradient>
    <linearGradient
       gradientUnits="userSpaceOnUse"
       xlink:href="#linearGradient8403"
       id="linearGradient8409"
       y2="46.1651"
       x2="51.501648"
       y1="65.534477"
       x1="62.684563" />
    <linearGradient
       id="linearGradient8403">
      <stop
         offset="0"
         style="stop-color:#aa6f00;stop-opacity:1"
         id="stop8405" />
      <stop
         offset="1"
         style="stop-color:#d99800;stop-opacity:1"
         id="stop8407" />
    </linearGradient>
    <linearGradient
       id="linearGradient10506">
      <stop
         offset="0"
         style="stop-color:#ffec36;stop-opacity:1"
         id="stop10508" />
      <stop
         offset="0.11528957"
         style="stop-color:#ffd800;stop-opacity:1"
         id="stop10510" />
      <stop
         offset="1"
         style="stop-color:#c71100;stop-opacity:0"
         id="stop10512" />
    </linearGradient>
    <mask
       id="mask10544">
      <path
         style="fill:#fefefe;fill-opacity:1;fill-rule:evenodd;stroke:#000000;stroke-width:0.43428716px;stroke-linecap:butt;stroke-linejoin:miter;stroke-opacity:1"
         id="path10546"
         d="m 305.17331,346.17795 c -22.48188,-41.05523 -46.37825,-121.48619 -63.81147,-121.41449 -17.30965,0.0712 -28.94562,80.14056 -86.09485,105.73891 17.7197,-7.02528 25.5045,5.9156 40.1776,39.61646 29.5245,-2.79833 49.3367,-42.63403 65.79162,-45.25051 20.40638,-3.24479 22.1172,9.94566 43.9371,21.30963 z" />
    </mask>
    <linearGradient
       id="linearGradient10472">
      <stop
         offset="0"
         style="stop-color:#ffec15;stop-opacity:1"
         id="stop10486" />
      <stop
         offset="0.12068965"
         style="stop-color:#ffbc00;stop-opacity:1"
         id="stop10482" />
      <stop
         offset="1"
         style="stop-color:#c71c00;stop-opacity:0"
         id="stop10476" />
    </linearGradient>
    <mask
       id="mask10550">
      <path
         style="fill:#fefefe;fill-opacity:1;fill-rule:evenodd;stroke:#000000;stroke-width:0.33071321px;stroke-linecap:butt;stroke-linejoin:miter;stroke-opacity:1"
         id="path10552"
         d="m 301.18218,151.46152 c -22.16035,-24.15314 -45.71495,-71.471367 -62.89885,-71.429189 -17.06208,0.04188 -28.53164,47.147379 -84.86352,62.207109 17.46627,-4.13303 25.13973,3.4802 39.60298,23.30671 29.10224,-1.64629 48.63109,-25.08197 64.85068,-26.62127 20.11452,-1.90894 21.80088,5.85112 43.30871,12.53664 z" />
    </mask>
    <radialGradient
       r="159.07143"
       fy="234.58305"
       fx="290.4957"
       cy="234.58305"
       cx="290.4957"
       gradientTransform="matrix(0.09732858,0.03563779,-0.05823554,0.15904419,43.604147,2.838123)"
       gradientUnits="userSpaceOnUse"
       id="radialGradient4697"
       xlink:href="#linearGradient10490" />
    <linearGradient
       id="linearGradient10490">
      <stop
         offset="0"
         style="stop-color:#ff4a00;stop-opacity:1"
         id="stop10492" />
      <stop
         offset="1"
         style="stop-color:#6b1600;stop-opacity:1"
         id="stop10494" />
    </linearGradient>
    <linearGradient
       y2="90.643417"
       x2="315.28995"
       y1="125.211"
       x1="313.83264"
       gradientTransform="matrix(1.2447619,0,0,1.2733387,-85.707622,-34.483573)"
       gradientUnits="userSpaceOnUse"
       id="linearGradient4695"
       xlink:href="#linearGradient4759" />
    <mask
       id="mask3304">
      <path
         style="fill:#fefefe;fill-opacity:1;fill-rule:evenodd;stroke:#000000;stroke-width:4.00445318;stroke-linecap:butt;stroke-linejoin:round;stroke-miterlimit:4;stroke-dasharray:none;stroke-opacity:1"
         id="path3306"
         d="m 267.59019,121.12759 c 1.43346,-16.42718 3.0377,-51.984384 13.25919,-63.769456 44.3055,-51.0829371 4.79406,-135.458497 29.84766,-153.411019 l 53.47927,216.589665 z" />
    </mask>
    <radialGradient
       r="69.665276"
       fy="105.80273"
       fx="176.4315"
       cy="106.7001"
       cx="179.31415"
       gradientTransform="matrix(0.05462919,0.2058252,-0.887959,0.2512413,249.64537,45.470856)"
       gradientUnits="userSpaceOnUse"
       id="radialGradient4693"
       xlink:href="#linearGradient4765" />
    <mask
       id="mask3284">
      <path
         style="fill:#fefefe;fill-opacity:1;fill-rule:evenodd;stroke:#000000;stroke-width:0.74455887px;stroke-linecap:butt;stroke-linejoin:miter;stroke-opacity:1"
         id="path3286"
         d="m 125.56276,138.77572 c 9.33342,-8.17016 29.00121,-26.84558 38.97751,-26.62864 43.24273,0.94031 74.52786,-72.702973 93.10883,-66.102571 L 160.34495,202.30881 Z" />
    </mask>
    <radialGradient
       r="95.718376"
       fy="156.7944"
       fx="106.92422"
       cy="126.29572"
       cx="137.02841"
       gradientTransform="matrix(0.9996832,-0.03089122,0.01793072,0.6585654,-2.2211629,47.354703)"
       gradientUnits="userSpaceOnUse"
       id="radialGradient4691"
       xlink:href="#linearGradient3233" />
    <linearGradient
       id="linearGradient3233">
      <stop
         offset="0"
         style="stop-color:#6dd9d0;stop-opacity:1"
         id="stop3241" />
      <stop
         offset="1"
         style="stop-color:#6dd9d0;stop-opacity:0"
         id="stop3237" />
    </linearGradient>
    <mask
       id="mask3269">
      <path
         style="fill:#fefefe;fill-opacity:1;fill-rule:evenodd;stroke:#000000;stroke-width:0.65778244px;stroke-linecap:butt;stroke-linejoin:miter;stroke-opacity:1"
         id="path3271"
         d="m 71.777783,155.77339 c 10.262811,-2.16174 32.252667,-7.82916 40.991767,-3.31727 37.88006,19.55699 83.80934,-22.95127 98.54168,-9.8243 L 86.600457,219.35911 Z" />
    </mask>
    <linearGradient
       id="linearGradient3195">
      <stop
         offset="0"
         style="stop-color:#6dd9d0;stop-opacity:1"
         id="stop3205" />
      <stop
         offset="1"
         style="stop-color:#368061;stop-opacity:1"
         id="stop3199" />
    </linearGradient>
    <linearGradient
       xlink:href="#linearGradient4704"
       id="linearGradient4706"
       x1="17.428837"
       y1="73.616112"
       x2="68.572311"
       y2="17.526964"
       gradientUnits="userSpaceOnUse" />
  </defs>
  <metadata
     id="metadata2413">
    <rdf:RDF>
      <cc:Work
         rdf:about="">
        <dc:format>image/svg+xml</dc:format>
        <dc:type
           rdf:resource="http://purl.org/dc/dcmitype/StillImage" />
        <dc:title></dc:title>
      </cc:Work>
    </rdf:RDF>
  </metadata>
  <g
     style="display:none"
     id="layer2">
    <rect
       style="opacity:0.9;fill:url(#ButtonShadow);fill-opacity:1;fill-rule:nonzero;stroke:none;filter:url(#filter3174)"
       id="rect3745"
       y="7"
       x="5"
       ry="6"
       rx="6"
       height="85"
       width="86" />
  </g>
  <path
     d="M 12,95.03125 C 6.4889097,95.03125 1.96875,90.51109 1.96875,85 l 0,-71 C 1.96875,8.4889098 6.4889098,3.96875 12,3.96875 l 72,0 c 5.51109,0 10.03125,4.5201597 10.03125,10.03125 l 0,71 c 0,5.51109 -4.52016,10.03125 -10.03125,10.03125 l -72,0 z"
     id="path3786"
     style="display:inline;opacity:0.07999998;fill:url(#linearGradient2918);fill-opacity:1;fill-rule:nonzero;stroke:none" />
  <path
     d="M 12,94.03125 C 7.028367,94.03125 2.96875,89.971633 2.96875,85 l 0,-71 C 2.96875,9.0283671 7.0283671,4.96875 12,4.96875 l 72,0 c 4.971633,0 9.03125,4.059617 9.03125,9.03125 l 0,71 c 0,4.971633 -4.059617,9.03125 -9.03125,9.03125 l -72,0 z"
     id="path3778-9"
     style="display:inline;opacity:0.1;fill:url(#linearGradient3780);fill-opacity:1;fill-rule:nonzero;stroke:none" />
  <path
     d="M 12,93 C 7.5908667,93 4,89.409133 4,85 L 4,14 C 4,9.5908667 7.5908667,6 12,6 l 72,0 c 4.409133,0 8,3.5908667 8,8 l 0,71 c 0,4.409133 -3.590867,8 -8,8 l -72,0 z"
     id="path3770"
     style="display:inline;opacity:0.2;fill:url(#linearGradient3772);fill-opacity:1;fill-rule:nonzero;stroke:none" />
  <rect
     width="86"
     height="85"
     rx="7"
     ry="7"
     x="5"
     y="-92"
     transform="scale(1,-1)"
     id="rect3723"
     style="display:inline;opacity:0.3;fill:url(#linearGradient3725);fill-opacity:1;fill-rule:nonzero;stroke:none" />
  <rect
     width="84"
     height="84"
     rx="6"
     ry="6"
     x="6"
     y="-91"
     transform="scale(1,-1)"
     id="rect3716"
     style="display:inline;opacity:0.45;fill:url(#linearGradient3721);fill-opacity:1;fill-rule:nonzero;stroke:none" />
  <rect
     width="84"
     height="84"
     rx="6"
     ry="6"
     x="6"
     y="-90"
     transform="scale(1,-1)"
     id="rect2419"
     style="opacity:1;fill:url(#linearGradient3617);fill-opacity:1;fill-rule:nonzero;stroke:none" />
  <path
     d="M 12,6 C 8.676,6 6,8.676 6,12 l 0,2 0,68 0,2 c 0,0.334721 0.04135,0.6507 0.09375,0.96875 0.0487,0.295596 0.09704,0.596915 0.1875,0.875 0.00988,0.03038 0.020892,0.0636 0.03125,0.09375 0.098865,0.287771 0.2348802,0.547452 0.375,0.8125 0.1445918,0.273507 0.3156161,0.535615 0.5,0.78125 0.1843839,0.245635 0.3737765,0.473472 0.59375,0.6875 0.439947,0.428056 0.94291,0.814526 1.5,1.09375 0.278545,0.139612 0.5734731,0.246947 0.875,0.34375 -0.2562018,-0.100222 -0.4867109,-0.236272 -0.71875,-0.375 -0.00741,-0.0044 -0.023866,0.0045 -0.03125,0 -0.031933,-0.0193 -0.062293,-0.04251 -0.09375,-0.0625 -0.120395,-0.0767 -0.2310226,-0.163513 -0.34375,-0.25 -0.1061728,-0.0808 -0.2132809,-0.161112 -0.3125,-0.25 C 8.4783201,88.557317 8.3087904,88.373362 8.15625,88.1875 8.0486711,88.057245 7.9378561,87.922215 7.84375,87.78125 7.818661,87.74287 7.805304,87.69538 7.78125,87.65625 7.716487,87.553218 7.6510225,87.451733 7.59375,87.34375 7.4927417,87.149044 7.3880752,86.928049 7.3125,86.71875 7.30454,86.69694 7.288911,86.6782 7.28125,86.65625 7.2494249,86.5643 7.2454455,86.469419 7.21875,86.375 7.1884177,86.268382 7.1483606,86.171969 7.125,86.0625 7.0521214,85.720988 7,85.364295 7,85 L 7,83 7,15 7,13 C 7,10.218152 9.2181517,8 12,8 l 2,0 68,0 2,0 c 2.781848,0 5,2.218152 5,5 l 0,2 0,68 0,2 c 0,0.364295 -0.05212,0.720988 -0.125,1.0625 -0.04415,0.206893 -0.08838,0.397658 -0.15625,0.59375 -0.0077,0.02195 -0.0233,0.04069 -0.03125,0.0625 -0.06274,0.173739 -0.138383,0.367449 -0.21875,0.53125 -0.04158,0.0828 -0.07904,0.169954 -0.125,0.25 -0.0546,0.09721 -0.126774,0.18835 -0.1875,0.28125 -0.09411,0.140965 -0.204921,0.275995 -0.3125,0.40625 -0.143174,0.17445 -0.303141,0.346998 -0.46875,0.5 -0.01117,0.0102 -0.01998,0.02115 -0.03125,0.03125 -0.138386,0.125556 -0.285091,0.234436 -0.4375,0.34375 -0.102571,0.07315 -0.204318,0.153364 -0.3125,0.21875 -0.0074,0.0045 -0.02384,-0.0044 -0.03125,0 -0.232039,0.138728 -0.462548,0.274778 -0.71875,0.375 0.301527,-0.0968 0.596455,-0.204138 0.875,-0.34375 0.55709,-0.279224 1.060053,-0.665694 1.5,-1.09375 0.219973,-0.214028 0.409366,-0.441865 0.59375,-0.6875 0.184384,-0.245635 0.355408,-0.507743 0.5,-0.78125 0.14012,-0.265048 0.276135,-0.524729 0.375,-0.8125 0.01041,-0.03078 0.02133,-0.06274 0.03125,-0.09375 0.09046,-0.278085 0.1388,-0.579404 0.1875,-0.875 C 89.95865,84.6507 90,84.334721 90,84 l 0,-2 0,-68 0,-2 C 90,8.676 87.324,6 84,6 L 12,6 Z"
     id="rect3728"
     style="opacity:0.5;fill:url(#linearGradient3188);fill-opacity:1;fill-rule:nonzero;stroke:none" />
  <path
     d="M 12,90 C 8.676,90 6,87.324 6,84 L 6,82 6,14 6,12 c 0,-0.334721 0.04135,-0.6507 0.09375,-0.96875 0.0487,-0.295596 0.09704,-0.596915 0.1875,-0.875 C 6.29113,10.12587 6.302142,10.09265 6.3125,10.0625 6.411365,9.774729 6.5473802,9.515048 6.6875,9.25 6.8320918,8.976493 7.0031161,8.714385 7.1875,8.46875 7.3718839,8.223115 7.5612765,7.995278 7.78125,7.78125 8.221197,7.353194 8.72416,6.966724 9.28125,6.6875 9.559795,6.547888 9.8547231,6.440553 10.15625,6.34375 9.9000482,6.443972 9.6695391,6.580022 9.4375,6.71875 c -0.00741,0.0044 -0.023866,-0.0045 -0.03125,0 -0.031933,0.0193 -0.062293,0.04251 -0.09375,0.0625 -0.120395,0.0767 -0.2310226,0.163513 -0.34375,0.25 -0.1061728,0.0808 -0.2132809,0.161112 -0.3125,0.25 C 8.4783201,7.442683 8.3087904,7.626638 8.15625,7.8125 8.0486711,7.942755 7.9378561,8.077785 7.84375,8.21875 7.818661,8.25713 7.805304,8.30462 7.78125,8.34375 7.716487,8.446782 7.6510225,8.548267 7.59375,8.65625 7.4927417,8.850956 7.3880752,9.071951 7.3125,9.28125 7.30454,9.30306 7.288911,9.3218 7.28125,9.34375 7.2494249,9.4357 7.2454455,9.530581 7.21875,9.625 7.1884177,9.731618 7.1483606,9.828031 7.125,9.9375 7.0521214,10.279012 7,10.635705 7,11 l 0,2 0,68 0,2 c 0,2.781848 2.2181517,5 5,5 l 2,0 68,0 2,0 c 2.781848,0 5,-2.218152 5,-5 l 0,-2 0,-68 0,-2 C 89,10.635705 88.94788,10.279012 88.875,9.9375 88.83085,9.730607 88.78662,9.539842 88.71875,9.34375 88.71105,9.3218 88.69545,9.30306 88.6875,9.28125 88.62476,9.107511 88.549117,8.913801 88.46875,8.75 88.42717,8.6672 88.38971,8.580046 88.34375,8.5 88.28915,8.40279 88.216976,8.31165 88.15625,8.21875 88.06214,8.077785 87.951329,7.942755 87.84375,7.8125 87.700576,7.63805 87.540609,7.465502 87.375,7.3125 87.36383,7.3023 87.35502,7.29135 87.34375,7.28125 87.205364,7.155694 87.058659,7.046814 86.90625,6.9375 86.803679,6.86435 86.701932,6.784136 86.59375,6.71875 c -0.0074,-0.0045 -0.02384,0.0044 -0.03125,0 -0.232039,-0.138728 -0.462548,-0.274778 -0.71875,-0.375 0.301527,0.0968 0.596455,0.204138 0.875,0.34375 0.55709,0.279224 1.060053,0.665694 1.5,1.09375 0.219973,0.214028 0.409366,0.441865 0.59375,0.6875 0.184384,0.245635 0.355408,0.507743 0.5,0.78125 0.14012,0.265048 0.276135,0.524729 0.375,0.8125 0.01041,0.03078 0.02133,0.06274 0.03125,0.09375 0.09046,0.278085 0.1388,0.579404 0.1875,0.875 C 89.95865,11.3493 90,11.665279 90,12 l 0,2 0,68 0,2 c 0,3.324 -2.676,6 -6,6 l -72,0 z"
     id="path3615"
     style="opacity:0.3;fill:url(#radialGradient3619);fill-opacity:1;fill-rule:nonzero;stroke:none" />
  <path
     id="path4711"
     d="M 40.2617,73.25457 C 22.772129,71.227086 12.595471,65.711149 14.385263,59.22906 c 0.48865,-1.769753 3.386469,-4.526548 6.321424,-6.013803 2.064517,-1.04617 7.109649,-2.843102 9.594878,-3.417415 2.121415,-0.490237 1.23442,0.465513 -1.285179,1.384799 -12.406997,4.52676 -10.366153,12.504871 4.143436,16.197611 6.175408,1.57166 13.841979,2.148821 20.489158,1.542484 15.097543,-1.377149 24.305244,-6.739289 21.35829,-12.438071 -1.113024,-2.152349 -3.03694,-3.384966 -9.41865,-6.034363 -2.279427,-0.946315 -0.795389,-0.988072 2.545117,-0.07161 7.173139,1.96793 12.978548,5.676353 13.854937,8.85038 C 84.1467,67.04479 68.007078,73.692725 47.42048,73.467752 44.19,73.432482 40.968549,73.336522 40.2617,73.254582 Z"
     style="fill:#0070ff;fill-opacity:1;stroke-width:0.42839292" />
  <path
     id="path4698"
     d="m 35.246598,63.92974 c -2.197188,-0.998161 -4.497254,-3.536036 -4.910694,-5.418416 -0.178984,-0.814909 0.02807,-3.187484 0.494076,-5.661737 0.940885,-4.995511 0.625286,-6.075518 -2.177008,-7.449949 -2.038012,-0.999576 -2.233846,-2.340178 -0.441399,-3.021663 3.099795,-1.178541 3.634471,-2.939175 2.539861,-8.363492 -0.769937,-3.815407 -0.767694,-3.918831 0.128884,-5.942328 0.50185,-1.132636 1.593528,-2.578816 2.425948,-3.213733 1.707808,-1.302605 5.22828,-2.393046 6.343853,-1.964959 1.248584,0.479126 0.822145,1.555599 -0.832581,2.101709 -1.001835,0.330636 -1.828313,1.014808 -2.279238,1.886802 -0.646392,1.249996 -0.64468,1.711208 0.01991,5.343901 0.561859,3.071094 0.618808,4.379027 0.250284,5.747655 -0.539548,2.003733 -3.030779,4.741366 -4.694625,5.158965 -1.146014,0.287631 -1.543057,1.075081 -0.542072,1.075081 1.259667,0 3.858219,2.308457 4.80868,4.271861 l 1.002211,2.07028 -0.768529,4.375167 c -0.701209,3.992 -0.707204,4.493725 -0.06843,5.728906 0.443619,0.857854 1.275806,1.543752 2.27183,1.872471 1.072858,0.354074 1.57178,0.791426 1.57178,1.377799 0,0.696535 -0.317041,0.857208 -1.675728,0.84925 -0.921642,-0.0054 -2.481791,-0.376005 -3.466991,-0.82357 z m 20.335952,0.03657 c 0,-0.657566 0.449951,-1.069805 1.571772,-1.440042 0.99583,-0.32865 1.828211,-1.01461 2.27157,-1.871958 0.636585,-1.231021 0.634058,-1.71087 -0.02805,-5.313717 -0.567754,-3.08936 -0.62111,-4.356855 -0.242609,-5.762498 0.546508,-2.029573 3.029283,-4.769135 4.702752,-5.189151 1.167686,-0.29307 1.535295,-1.075081 0.505389,-1.075081 -1.398002,0 -4.224906,-2.6461 -5.002706,-4.682727 -0.74186,-1.942534 -0.746218,-2.309939 -0.07188,-6.062913 0.897349,-4.994101 0.548458,-6.317291 -1.957149,-7.422763 -2.382328,-1.05108 -2.423684,-2.391096 -0.07339,-2.377331 3.50514,0.02053 7.697248,3.143959 8.377691,6.241986 0.178984,0.814909 -0.02805,3.187484 -0.494078,5.661738 -0.940871,4.995507 -0.625282,6.075515 2.177019,7.449946 2.038004,0.999576 2.233842,2.340179 0.441394,3.021665 -3.103648,1.180003 -3.652769,3.028201 -2.549817,8.581917 l 0.764129,3.847605 -1.062571,2.139806 c -1.374976,2.768913 -3.887762,4.530333 -6.986348,4.897314 -2.158351,0.255626 -2.343146,0.204853 -2.343146,-0.643798 z"
     style="fill:#000000;stroke-width:0.44685978" />
</svg>
