<?xml version="1.0" encoding="UTF-8" standalone="no"?>
<svg
   xmlns:dc="http://purl.org/dc/elements/1.1/"
   xmlns:cc="http://creativecommons.org/ns#"
   xmlns:rdf="http://www.w3.org/1999/02/22-rdf-syntax-ns#"
   xmlns:svg="http://www.w3.org/2000/svg"
   xmlns="http://www.w3.org/2000/svg"
   xmlns:xlink="http://www.w3.org/1999/xlink"
   id="svg2408"
   height="96"
   width="96"
   version="1.0">
  <defs
     id="defs2410">
    <linearGradient
       id="linearGradient3668">
      <stop
         offset="0"
         style="stop-color:#000000;stop-opacity:1"
         id="stop3670" />
      <stop
         offset="1"
         style="stop-color:#000000;stop-opacity:0"
         id="stop3672" />
    </linearGradient>
    <linearGradient
       id="linearGradient3658">
      <stop
         offset="0"
         style="stop-color:#378b7d;stop-opacity:1"
         id="stop3660" />
      <stop
         offset="1"
         style="stop-color:#b08d37;stop-opacity:1"
         id="stop3664" />
    </linearGradient>
    <linearGradient
       id="linearGradient3673">
      <stop
         offset="0"
         style="stop-color:#ffeeaa;stop-opacity:1"
         id="stop3675" />
      <stop
         offset="1"
         style="stop-color:#ffeeaa;stop-opacity:0"
         id="stop3677" />
    </linearGradient>
    <linearGradient
       id="linearGradient3663">
      <stop
         offset="0"
         style="stop-color:#f73c00;stop-opacity:1"
         id="stop3665" />
      <stop
         offset="0.71272212"
         style="stop-color:#b61100;stop-opacity:1"
         id="stop3669" />
      <stop
         offset="1"
         style="stop-color:#9c0000;stop-opacity:1"
         id="stop3667" />
    </linearGradient>
    <linearGradient
       id="linearGradient3630">
      <stop
         offset="0"
         style="stop-color:#dedede;stop-opacity:1"
         id="stop3632" />
      <stop
         offset="1"
         style="stop-color:#fefefe;stop-opacity:1"
         id="stop3634" />
    </linearGradient>
    <linearGradient
       id="linearGradient3655">
      <stop
         offset="0"
         style="stop-color:#f73c00;stop-opacity:1"
         id="stop3657" />
      <stop
         offset="1"
         style="stop-color:#9c0000;stop-opacity:1"
         id="stop3659" />
    </linearGradient>
    <linearGradient
       gradientTransform="scale(1.0058652,0.994169)"
       gradientUnits="userSpaceOnUse"
       id="ButtonShadow"
       y2="7.0165396"
       x2="45.447727"
       y1="92.539597"
       x1="45.447727">
      <stop
         offset="0"
         style="stop-color:#000000;stop-opacity:1"
         id="stop3750" />
      <stop
         offset="1"
         style="stop-color:#000000;stop-opacity:0.58823532"
         id="stop3752" />
    </linearGradient>
    <linearGradient
       id="linearGradient3737">
      <stop
         offset="0"
         style="stop-color:#fefefe;stop-opacity:1"
         id="stop3739" />
      <stop
         offset="1"
         style="stop-color:#fefefe;stop-opacity:0"
         id="stop3741" />
    </linearGradient>
    <linearGradient
       id="linearGradient3700">
      <stop
         offset="0"
         style="stop-color:#1f1f1f;stop-opacity:1"
         id="stop3702" />
      <stop
         offset="1"
         style="stop-color:#191919;stop-opacity:1"
         id="stop3704" />
    </linearGradient>
    <filter
       id="filter3174"
       color-interpolation-filters="sRGB">
      <feGaussianBlur
         stdDeviation="1.71"
         id="feGaussianBlur3176" />
    </filter>
    <linearGradient
       gradientUnits="userSpaceOnUse"
       xlink:href="#linearGradient3737"
       id="linearGradient3188"
       y2="63.893143"
       x2="36.357143"
       y1="6"
       x1="36.357143" />
    <filter
       id="filter3794"
       color-interpolation-filters="sRGB"
       height="1.3839999"
       width="1.3839999"
       y="-0.192"
       x="-0.192">
      <feGaussianBlur
         stdDeviation="5.28"
         id="feGaussianBlur3796" />
    </filter>
    <linearGradient
       gradientUnits="userSpaceOnUse"
       xlink:href="#linearGradient3737"
       id="linearGradient3613"
       y2="138.66119"
       x2="48"
       y1="20.220806"
       x1="48" />
    <radialGradient
       gradientTransform="matrix(1.1573129,0,0,0.99590774,-7.5510206,0.19713193)"
       gradientUnits="userSpaceOnUse"
       xlink:href="#linearGradient3737"
       id="radialGradient3619"
       fy="90.171875"
       fx="48"
       r="42"
       cy="90.171875"
       cx="48" />
    <clipPath
       id="clipPath3613">
      <rect
         style="fill:#fefefe;fill-opacity:1;fill-rule:nonzero;stroke:none"
         id="rect3615"
         y="6"
         x="6"
         ry="6"
         rx="6"
         height="84"
         width="84" />
    </clipPath>
    <linearGradient
       gradientUnits="userSpaceOnUse"
       xlink:href="#linearGradient3658"
       id="linearGradient3617"
       y2="48"
       x2="90"
       y1="48"
       x1="6" />
    <filter
       id="filter3680"
       color-interpolation-filters="sRGB">
      <feGaussianBlur
         stdDeviation="0.71783716"
         id="feGaussianBlur3682" />
    </filter>
    <radialGradient
       gradientTransform="matrix(1.4729191,0,0,1.2638196,-13.300848,-19.750136)"
       gradientUnits="userSpaceOnUse"
       xlink:href="#linearGradient3663"
       id="radialGradient3691"
       fy="74.094757"
       fx="28.125"
       r="12.053572"
       cy="74.094757"
       cx="28.125" />
    <linearGradient
       gradientTransform="translate(100,0)"
       gradientUnits="userSpaceOnUse"
       xlink:href="#linearGradient3630"
       id="linearGradient3636"
       y2="76.053574"
       x2="55.939182"
       y1="22.032881"
       x1="55.939182" />
    <radialGradient
       gradientTransform="matrix(1.5148225,-8.9895646e-8,6.7407404e-8,1.1024691,-14.479387,-7.7949104)"
       gradientUnits="userSpaceOnUse"
       xlink:href="#linearGradient3655"
       id="radialGradient2871"
       fy="75.058144"
       fx="28.125"
       r="12.053572"
       cy="75.058144"
       cx="28.125" />
    <linearGradient
       gradientUnits="userSpaceOnUse"
       xlink:href="#linearGradient3737"
       id="linearGradient2873"
       y2="68.053574"
       x2="40.178574"
       y1="68.053574"
       x1="16.071428" />
    <linearGradient
       gradientUnits="userSpaceOnUse"
       xlink:href="#linearGradient3673"
       id="linearGradient3679"
       y2="68.053574"
       x2="40.178574"
       y1="68.053574"
       x1="16.071428" />
    <linearGradient
       gradientTransform="translate(100,0)"
       gradientUnits="userSpaceOnUse"
       xlink:href="#linearGradient3700"
       id="linearGradient2882"
       y2="5.9877172"
       x2="48"
       y1="90"
       x1="48" />
    <linearGradient
       gradientTransform="translate(-96)"
       gradientUnits="userSpaceOnUse"
       xlink:href="#linearGradient3668"
       id="linearGradient3674"
       y2="48"
       x2="90"
       y1="48"
       x1="6" />
    <clipPath
       id="clipPath3750">
      <rect
         style="fill:#ff0000;fill-opacity:1;fill-rule:nonzero;stroke:none"
         id="rect3752"
         y="6"
         x="6"
         ry="6"
         rx="6"
         height="84"
         width="84" />
    </clipPath>
    <filter
       id="filter3762"
       color-interpolation-filters="sRGB"
       height="1.2247527"
       width="1.2574666"
       y="-0.11237636"
       x="-0.12873329">
      <feGaussianBlur
         stdDeviation="6.1692057"
         id="feGaussianBlur3764" />
    </filter>
    <linearGradient
       gradientTransform="matrix(1.0058652,0,0,0.994169,100,0)"
       gradientUnits="userSpaceOnUse"
       id="ButtonShadow-0"
       y2="7.0165396"
       x2="45.447727"
       y1="92.539597"
       x1="45.447727">
      <stop
         offset="0"
         style="stop-color:#000000;stop-opacity:1"
         id="stop3750-8" />
      <stop
         offset="1"
         style="stop-color:#000000;stop-opacity:0.58823532"
         id="stop3752-5" />
    </linearGradient>
    <linearGradient
       gradientTransform="matrix(1.0238095,0,0,1.0119048,-1.1428571,-98.071429)"
       gradientUnits="userSpaceOnUse"
       xlink:href="#ButtonShadow-0"
       id="linearGradient3780"
       y2="90.238609"
       x2="32.251034"
       y1="6.1317081"
       x1="32.251034" />
    <linearGradient
       gradientTransform="matrix(1.0238095,0,0,1.0119048,-1.1428571,-98.071429)"
       gradientUnits="userSpaceOnUse"
       xlink:href="#ButtonShadow-0"
       id="linearGradient3772"
       y2="90.238609"
       x2="32.251034"
       y1="6.1317081"
       x1="32.251034" />
    <linearGradient
       gradientTransform="matrix(1.0238095,0,0,1.0119048,-1.1428571,-98.071429)"
       gradientUnits="userSpaceOnUse"
       xlink:href="#ButtonShadow-0"
       id="linearGradient3725"
       y2="90.238609"
       x2="32.251034"
       y1="6.1317081"
       x1="32.251034" />
    <linearGradient
       gradientTransform="translate(0,-97)"
       gradientUnits="userSpaceOnUse"
       xlink:href="#ButtonShadow-0"
       id="linearGradient3721"
       y2="90.238609"
       x2="32.251034"
       y1="6.1317081"
       x1="32.251034" />
    <linearGradient
       gradientTransform="matrix(1.0238095,0,0,1.0119048,-1.1428571,-98.071429)"
       gradientUnits="userSpaceOnUse"
       xlink:href="#ButtonShadow-0"
       id="linearGradient2918"
       y2="90.238609"
       x2="32.251034"
       y1="6.1317081"
       x1="32.251034" />
  </defs>
  <metadata
     id="metadata2413">
    <rdf:RDF>
      <cc:Work
         rdf:about="">
        <dc:format>image/svg+xml</dc:format>
        <dc:type
           rdf:resource="http://purl.org/dc/dcmitype/StillImage" />
        <dc:title></dc:title>
      </cc:Work>
    </rdf:RDF>
  </metadata>
  <g
     style="display:none"
     id="layer2">
    <rect
       style="opacity:0.9;fill:url(#ButtonShadow);fill-opacity:1;fill-rule:nonzero;stroke:none;filter:url(#filter3174)"
       id="rect3745"
       y="7"
       x="5"
       ry="6"
       rx="6"
       height="85"
       width="86" />
  </g>
  <g
     id="layer6">
    <path
       style="opacity:0.07999998;fill:url(#linearGradient2918);fill-opacity:1;fill-rule:nonzero;stroke:none;display:inline"
       id="path3786"
       transform="scale(1,-1)"
       d="m 12,-95.03125 c -5.5110903,0 -10.03125,4.52016 -10.03125,10.03125 l 0,71 c 0,5.5110902 4.5201598,10.03125 10.03125,10.03125 l 72,0 c 5.51109,0 10.03125,-4.5201597 10.03125,-10.03125 l 0,-71 c 0,-5.51109 -4.52016,-10.03125 -10.03125,-10.03125 l -72,0 z" />
    <path
       style="opacity:0.1;fill:url(#linearGradient3780);fill-opacity:1;fill-rule:nonzero;stroke:none;display:inline"
       id="path3778"
       transform="scale(1,-1)"
       d="m 12,-94.03125 c -4.971633,0 -9.03125,4.059617 -9.03125,9.03125 l 0,71 c 0,4.9716329 4.0596171,9.03125 9.03125,9.03125 l 72,0 c 4.971633,0 9.03125,-4.059617 9.03125,-9.03125 l 0,-71 c 0,-4.971633 -4.059617,-9.03125 -9.03125,-9.03125 l -72,0 z" />
    <path
       style="opacity:0.2;fill:url(#linearGradient3772);fill-opacity:1;fill-rule:nonzero;stroke:none;display:inline"
       id="path3770"
       transform="scale(1,-1)"
       d="m 12,-93 c -4.4091333,0 -8,3.590867 -8,8 l 0,71 c 0,4.4091333 3.5908667,8 8,8 l 72,0 c 4.409133,0 8,-3.5908667 8,-8 l 0,-71 c 0,-4.409133 -3.590867,-8 -8,-8 l -72,0 z" />
    <rect
       style="opacity:0.3;fill:url(#linearGradient3725);fill-opacity:1;fill-rule:nonzero;stroke:none;display:inline"
       id="rect3723"
       transform="scale(1,-1)"
       y="-92"
       x="5"
       ry="7"
       rx="7"
       height="85"
       width="86" />
    <rect
       style="opacity:0.45;fill:url(#linearGradient3721);fill-opacity:1;fill-rule:nonzero;stroke:none;display:inline"
       id="rect3716"
       transform="scale(1,-1)"
       y="-91"
       x="6"
       ry="6"
       rx="6"
       height="84"
       width="84" />
  </g>
  <g
     id="layer1">
    <rect
       style="fill:url(#linearGradient3617);fill-opacity:1;fill-rule:nonzero;stroke:none"
       id="rect2419"
       y="6"
       x="6"
       ry="6"
       rx="6"
       height="84"
       width="84" />
    <path
       style="opacity:0.6;fill:#000000;stroke:none;filter:url(#filter3762)"
       id="path3693"
       clip-path="url(#clipPath3750)"
       d="m 34.84375,-16.15625 c -16.609979,-0.06639 -33.1995156,0.599237 -43.71875,1.96875 -10.01651,1.949466 1.429796,23.0641117 1.59375,33.40625 -0.091929,2.166798 0.1419463,4.379686 0.84375,6.4375 6.72137349,-7.94363 17.426308,-11.100323 27.5,-11.5625 5.397142,0.704562 6.96937,7.347415 11.9375,8.78125 5.464488,0.652129 9.424209,-3.897177 13.90625,-6.1875 4.04733,-2.462246 9.365794,-4.767348 13.9375,-2.34375 3.586887,2.573801 5.329771,8.193554 10.40625,8.25 5.577898,0.489396 11.187756,-0.03861 16.71875,-0.78125 7.681898,-3.666665 18.12499,-28.1762524 12.4375,-33.90625 -4.545861,-3.854712 -16.267512,-0.555585 -21.78125,-1.75 -10.556979,-1.460166 -27.171271,-2.246112 -43.78125,-2.3125 z M 71.375,72.90625 c -3.220936,-0.03402 -6.29948,2.152535 -7.9375,5.25 -2.910473,5.049716 -9.486467,2.795005 -12.875,-0.4375 -3.303799,-3.964698 -9.794064,-3.375984 -13.1875,0.15625 -4.451125,1.941529 -8.988498,-0.740655 -13.15625,-2.15625 -5.124475,-2.327773 -10.504003,0.58941 -14.625,3.59375 -5.5905441,3.054257 -10.56199197,7.124109 -15.3125,11.34375 -0.5486284,1.016374 -0.5009574,22.96781 -1.78125,24.9375 34.068682,-7.65641 65.303883,-4.87225 101.5,-2.8125 7.48378,-3.41084 4.30987,-27.848598 -4.28125,-31.875 C 84.73874,79.495505 80.184914,77.055156 75.75,74.4375 74.356413,73.391332 72.839062,72.921713 71.375,72.90625 z" />
    <path
       style="opacity:0.2;fill:url(#linearGradient3188);fill-opacity:1;fill-rule:nonzero;stroke:none"
       id="rect3728"
       d="M 12,6 C 8.676,6 6,8.676 6,12 l 0,2 0,68 0,2 c 0,0.334721 0.04135,0.6507 0.09375,0.96875 0.0487,0.295596 0.09704,0.596915 0.1875,0.875 0.00988,0.03038 0.020892,0.0636 0.03125,0.09375 0.098865,0.287771 0.2348802,0.547452 0.375,0.8125 0.1445918,0.273507 0.3156161,0.535615 0.5,0.78125 0.1843839,0.245635 0.3737765,0.473472 0.59375,0.6875 0.439947,0.428056 0.94291,0.814526 1.5,1.09375 0.278545,0.139612 0.5734731,0.246947 0.875,0.34375 -0.2562018,-0.100222 -0.4867109,-0.236272 -0.71875,-0.375 -0.00741,-0.0044 -0.023866,0.0045 -0.03125,0 -0.031933,-0.0193 -0.062293,-0.04251 -0.09375,-0.0625 -0.120395,-0.0767 -0.2310226,-0.163513 -0.34375,-0.25 -0.1061728,-0.0808 -0.2132809,-0.161112 -0.3125,-0.25 C 8.4783201,88.557317 8.3087904,88.373362 8.15625,88.1875 8.0486711,88.057245 7.9378561,87.922215 7.84375,87.78125 7.818661,87.74287 7.805304,87.69538 7.78125,87.65625 7.716487,87.553218 7.6510225,87.451733 7.59375,87.34375 7.4927417,87.149044 7.3880752,86.928049 7.3125,86.71875 7.30454,86.69694 7.288911,86.6782 7.28125,86.65625 7.2494249,86.5643 7.2454455,86.469419 7.21875,86.375 7.1884177,86.268382 7.1483606,86.171969 7.125,86.0625 7.0521214,85.720988 7,85.364295 7,85 L 7,83 7,15 7,13 C 7,10.218152 9.2181517,8 12,8 l 2,0 68,0 2,0 c 2.781848,0 5,2.218152 5,5 l 0,2 0,68 0,2 c 0,0.364295 -0.05212,0.720988 -0.125,1.0625 -0.04415,0.206893 -0.08838,0.397658 -0.15625,0.59375 -0.0077,0.02195 -0.0233,0.04069 -0.03125,0.0625 -0.06274,0.173739 -0.138383,0.367449 -0.21875,0.53125 -0.04158,0.0828 -0.07904,0.169954 -0.125,0.25 -0.0546,0.09721 -0.126774,0.18835 -0.1875,0.28125 -0.09411,0.140965 -0.204921,0.275995 -0.3125,0.40625 -0.143174,0.17445 -0.303141,0.346998 -0.46875,0.5 -0.01117,0.0102 -0.01998,0.02115 -0.03125,0.03125 -0.138386,0.125556 -0.285091,0.234436 -0.4375,0.34375 -0.102571,0.07315 -0.204318,0.153364 -0.3125,0.21875 -0.0074,0.0045 -0.02384,-0.0044 -0.03125,0 -0.232039,0.138728 -0.462548,0.274778 -0.71875,0.375 0.301527,-0.0968 0.596455,-0.204138 0.875,-0.34375 0.55709,-0.279224 1.060053,-0.665694 1.5,-1.09375 0.219973,-0.214028 0.409366,-0.441865 0.59375,-0.6875 0.184384,-0.245635 0.355408,-0.507743 0.5,-0.78125 0.14012,-0.265048 0.276135,-0.524729 0.375,-0.8125 0.01041,-0.03078 0.02133,-0.06274 0.03125,-0.09375 0.09046,-0.278085 0.1388,-0.579404 0.1875,-0.875 C 89.95865,84.6507 90,84.334721 90,84 l 0,-2 0,-68 0,-2 C 90,8.676 87.324,6 84,6 L 12,6 z" />
    <path
       style="opacity:0.2;fill:url(#radialGradient3619);fill-opacity:1;fill-rule:nonzero;stroke:none"
       id="path3615"
       d="M 12,90 C 8.676,90 6,87.324 6,84 L 6,82 6,14 6,12 c 0,-0.334721 0.04135,-0.6507 0.09375,-0.96875 0.0487,-0.295596 0.09704,-0.596915 0.1875,-0.875 C 6.29113,10.12587 6.302142,10.09265 6.3125,10.0625 6.411365,9.774729 6.5473802,9.515048 6.6875,9.25 6.8320918,8.976493 7.0031161,8.714385 7.1875,8.46875 7.3718839,8.223115 7.5612765,7.995278 7.78125,7.78125 8.221197,7.353194 8.72416,6.966724 9.28125,6.6875 9.559795,6.547888 9.8547231,6.440553 10.15625,6.34375 9.9000482,6.443972 9.6695391,6.580022 9.4375,6.71875 c -0.00741,0.0044 -0.023866,-0.0045 -0.03125,0 -0.031933,0.0193 -0.062293,0.04251 -0.09375,0.0625 -0.120395,0.0767 -0.2310226,0.163513 -0.34375,0.25 -0.1061728,0.0808 -0.2132809,0.161112 -0.3125,0.25 C 8.4783201,7.442683 8.3087904,7.626638 8.15625,7.8125 8.0486711,7.942755 7.9378561,8.077785 7.84375,8.21875 7.818661,8.25713 7.805304,8.30462 7.78125,8.34375 7.716487,8.446782 7.6510225,8.548267 7.59375,8.65625 7.4927417,8.850956 7.3880752,9.071951 7.3125,9.28125 7.30454,9.30306 7.288911,9.3218 7.28125,9.34375 7.2494249,9.4357 7.2454455,9.530581 7.21875,9.625 7.1884177,9.731618 7.1483606,9.828031 7.125,9.9375 7.0521214,10.279012 7,10.635705 7,11 l 0,2 0,68 0,2 c 0,2.781848 2.2181517,5 5,5 l 2,0 68,0 2,0 c 2.781848,0 5,-2.218152 5,-5 l 0,-2 0,-68 0,-2 C 89,10.635705 88.94788,10.279012 88.875,9.9375 88.83085,9.730607 88.78662,9.539842 88.71875,9.34375 88.71105,9.3218 88.69545,9.30306 88.6875,9.28125 88.62476,9.107511 88.549117,8.913801 88.46875,8.75 88.42717,8.6672 88.38971,8.580046 88.34375,8.5 88.28915,8.40279 88.216976,8.31165 88.15625,8.21875 88.06214,8.077785 87.951329,7.942755 87.84375,7.8125 87.700576,7.63805 87.540609,7.465502 87.375,7.3125 87.36383,7.3023 87.35502,7.29135 87.34375,7.28125 87.205364,7.155694 87.058659,7.046814 86.90625,6.9375 86.803679,6.86435 86.701932,6.784136 86.59375,6.71875 c -0.0074,-0.0045 -0.02384,0.0044 -0.03125,0 -0.232039,-0.138728 -0.462548,-0.274778 -0.71875,-0.375 0.301527,0.0968 0.596455,0.204138 0.875,0.34375 0.55709,0.279224 1.060053,0.665694 1.5,1.09375 0.219973,0.214028 0.409366,0.441865 0.59375,0.6875 0.184384,0.245635 0.355408,0.507743 0.5,0.78125 0.14012,0.265048 0.276135,0.524729 0.375,0.8125 0.01041,0.03078 0.02133,0.06274 0.03125,0.09375 0.09046,0.278085 0.1388,0.579404 0.1875,0.875 C 89.95865,11.3493 90,11.665279 90,12 l 0,2 0,68 0,2 c 0,3.324 -2.676,6 -6,6 l -72,0 z" />
    <rect
       style="opacity:0.3;fill:url(#linearGradient3674);fill-opacity:1;fill-rule:nonzero;stroke:none"
       id="rect3666"
       transform="rotate(-90)"
       y="6"
       x="-90"
       ry="6"
       rx="6"
       height="84"
       width="84" />
  </g>
  <g
     style="display:inline"
     id="layer5">
    <rect
       style="opacity:0.1;fill:url(#linearGradient3613);fill-opacity:1;fill-rule:nonzero;stroke:#fefefe;stroke-width:0.5;stroke-linecap:round;stroke-linejoin:miter;stroke-miterlimit:4;stroke-dasharray:none;stroke-dashoffset:0;stroke-opacity:1;filter:url(#filter3794)"
       id="rect3171"
       clip-path="url(#clipPath3613)"
       y="15"
       x="15"
       ry="12"
       rx="12"
       height="66"
       width="66" />
  </g>
  <g
     transform="translate(0,48)"
     id="layer4">
    <path
       style="color:#000000;font-style:normal;font-variant:normal;font-weight:normal;font-stretch:normal;font-size:medium;line-height:normal;font-family:'Abandoned Bitplane';-inkscape-font-specification:'Abandoned Bitplane';text-indent:0;text-align:start;text-decoration:none;text-decoration-line:none;letter-spacing:normal;word-spacing:normal;text-transform:none;writing-mode:lr-tb;direction:ltr;text-anchor:start;display:inline;overflow:visible;visibility:visible;fill:#fefea2;fill-opacity:0.45045046;stroke:none;stroke-width:2;marker:none;enable-background:accumulate"
       id="path2909"
       d="m 15.03125,-27.125 c -0.322375,0 -0.527587,0.19113 -0.65625,0.34375 -0.128665,0.15262 -0.239252,0.310929 -0.3125,0.5 -0.146499,0.378142 -0.244263,0.851505 -0.34375,1.46875 -0.198974,1.234489 -0.329591,2.961401 -0.4375,5.03125 -0.215816,4.139699 -0.304143,9.655989 -0.375,15.15625 -0.07086,5.500261 -0.11798,10.982301 -0.3125,15.09375 -0.09727,2.055725 -0.231626,3.795046 -0.40625,4.96875 -0.0701,0.471163 -0.140019,0.757963 -0.21875,1.03125 -0.03807,-0.09335 -0.0569,-0.128214 -0.09375,-0.25 -0.182835,-0.604219 -0.348965,-1.513131 -0.46875,-2.625 C 11.166681,11.370012 11.069392,8.373568 10.96875,5.375 10.868111,2.376432 10.746862,-0.636166 10.5625,-2.90625 10.470322,-4.041292 10.382678,-4.98817 10.21875,-5.6875 10.136796,-6.037165 10.042036,-6.318383 9.90625,-6.5625 9.8383622,-6.684559 9.75472,-6.798675 9.625,-6.90625 9.4952788,-7.013825 9.2945206,-7.125 9.0625,-7.125 c -0.2813411,0 -0.5094191,0.155402 -0.625,0.28125 -0.1155867,0.125848 -0.1913629,0.235407 -0.25,0.375 -0.1172788,0.279185 -0.1758981,0.635424 -0.25,1.0625 -0.1482027,0.854151 -0.2631401,2.023694 -0.34375,3.4375 C 7.4325328,0.858861 7.3719472,4.62691 7.28125,8.375 7.190553,12.12309 7.0701363,15.867188 6.8125,18.65625 6.6836813,20.050781 6.5170223,21.195306 6.3125,21.96875 6.2477262,22.213674 6.1603663,22.343301 6.09375,22.5 6.0629202,22.410506 6.0329648,22.320095 6,22.21875 V 23.875 c 0.020881,0.0014 0.041181,0 0.0625,0 0.2398318,0 0.4412382,-0.103995 0.59375,-0.21875 0.1525131,-0.114755 0.2854086,-0.230044 0.375,-0.375 C 7.210434,22.991338 7.3228451,22.62109 7.4375,22.1875 7.6668083,21.320319 7.8377666,20.136719 7.96875,18.71875 8.2307166,15.882812 8.3467099,12.12691 8.4375,8.375 8.528291,4.62309 8.5905055,0.891139 8.75,-1.90625 8.829745,-3.304944 8.9260406,-4.463526 9.0625,-5.25 c 0.014489,-0.08344 0.015926,-0.112749 0.03125,-0.1875 0.1391447,0.613069 0.2240579,1.504735 0.3125,2.59375 0.1811006,2.229916 0.3055136,5.248568 0.40625,8.25 0.1007329,3.001432 0.192273,6.004988 0.4375,8.28125 0.122614,1.138131 0.285674,2.072969 0.5,2.78125 0.10716,0.35414 0.231292,0.657989 0.40625,0.90625 0.174958,0.248261 0.479499,0.5 0.90625,0.5 0.333902,0 0.567227,-0.190934 0.6875,-0.34375 0.120274,-0.152816 0.182304,-0.312172 0.25,-0.5 0.135391,-0.375655 0.220811,-0.852477 0.3125,-1.46875 0.183379,-1.232546 0.339599,-2.961975 0.4375,-5.03125 0.195803,-4.138551 0.241649,-9.656511 0.3125,-15.15625 0.07085,-5.499739 0.160716,-10.983449 0.375,-15.09375 0.107149,-2.055151 0.248636,-3.765739 0.4375,-4.9375 0.05848,-0.36281 0.09125,-0.563961 0.15625,-0.8125 0.0571,0.210379 0.134825,0.363134 0.1875,0.65625 0.190587,1.060504 0.319907,2.601664 0.4375,4.46875 0.235186,3.734171 0.373047,8.719467 0.46875,13.71875 0.0957,4.999283 0.187911,10.018572 0.375,13.78125 0.09354,1.881339 0.180414,3.440812 0.34375,4.5625 0.08167,0.560844 0.193166,0.999519 0.3125,1.34375 0.05967,0.172115 0.141174,0.324103 0.25,0.46875 0.108818,0.144647 0.28767,0.34375 0.625,0.34375 0.356027,0 0.672221,-0.177551 0.84375,-0.375 0.171529,-0.197449 0.276233,-0.424859 0.375,-0.6875 0.197535,-0.525282 0.355942,-1.218709 0.46875,-2.03125 0.225616,-1.625082 0.290626,-3.749664 0.40625,-5.875 0.115623,-2.125336 0.230146,-4.24867 0.4375,-5.8125 0.103684,-0.781915 0.260061,-1.437679 0.40625,-1.84375 0.04871,0.157745 0.110924,0.266847 0.15625,0.5 0.153326,0.788665 0.255437,1.968123 0.34375,3.375 0.176627,2.813755 0.262961,6.577721 0.34375,10.34375 0.0808,3.766029 0.135619,7.519655 0.375,10.34375 0.119689,1.412047 0.313624,2.585823 0.53125,3.4375 0.108807,0.425839 0.197543,0.778799 0.375,1.0625 0.08873,0.141851 0.212621,0.262996 0.375,0.375 0.16238,0.112004 0.416376,0.209531 0.65625,0.1875 0.298961,-0.02746 0.492295,-0.192327 0.625,-0.34375 0.132706,-0.151423 0.2316,-0.308692 0.3125,-0.5 0.1618,-0.382616 0.263764,-0.888024 0.375,-1.5 0.222471,-1.223952 0.408306,-2.912366 0.53125,-4.9375 0.24589,-4.050269 0.304137,-9.397321 0.375,-14.75 0.07086,-5.352679 0.147664,-10.713642 0.3125,-14.71875 0.08242,-2.002554 0.19068,-3.661617 0.34375,-4.8125 0.01448,-0.108867 0.01594,-0.150542 0.03125,-0.25 0.0192,0.125121 0.07582,0.172332 0.09375,0.3125 0.156671,1.225702 0.262511,3.004051 0.34375,5.15625 0.16248,4.304399 0.189012,10.077192 0.25,15.84375 0.06098,5.766558 0.162993,11.542223 0.40625,15.875 0.121628,2.166389 0.274377,3.963252 0.5,5.25 0.112813,0.643374 0.239504,1.170139 0.40625,1.5625 0.08336,0.19618 0.16619,0.344966 0.3125,0.5 0.146313,0.155034 0.404035,0.326162 0.71875,0.3125 0.262386,-0.01139 0.505613,-0.117043 0.65625,-0.25 0.150636,-0.132957 0.254154,-0.300707 0.34375,-0.46875 0.179192,-0.336087 0.290953,-0.76345 0.40625,-1.28125 0.230596,-1.035599 0.413677,-2.455297 0.53125,-4.15625 0.235148,-3.401905 0.266494,-7.881777 0.3125,-12.375 0.04601,-4.493223 0.0867,-8.994874 0.25,-12.34375 0.08165,-1.674438 0.212236,-3.054492 0.375,-4 0.06386,-0.370975 0.08562,-0.601714 0.15625,-0.8125 0.03539,0.07282 0.08999,0.08959 0.125,0.1875 0.172928,0.483381 0.32445,1.239164 0.4375,2.15625 0.226099,1.834172 0.346806,4.32127 0.4375,6.8125 0.0907,2.49123 0.150926,4.999528 0.34375,6.90625 0.09641,0.953361 0.226008,1.73622 0.40625,2.34375 0.09012,0.303765 0.158205,0.558234 0.3125,0.78125 0.154296,0.223016 0.450377,0.477348 0.84375,0.5 0.283274,0.01631 0.522668,-0.118958 0.65625,-0.25 0.133582,-0.131042 0.210883,-0.284756 0.28125,-0.4375 0.140737,-0.305488 0.218883,-0.677867 0.3125,-1.15625 0.187233,-0.956765 0.355662,-2.275862 0.46875,-3.875 0.226175,-3.198275 0.326859,-7.460515 0.4375,-11.71875 0.110639,-4.258235 0.23336,-8.505193 0.4375,-11.6875 0.102072,-1.591154 0.246675,-2.943318 0.40625,-3.84375 0.01279,-0.07221 0.01795,-0.08954 0.03125,-0.15625 0.0247,0.123701 0.03938,0.16905 0.0625,0.3125 0.161915,1.004153 0.30825,2.482434 0.40625,4.25 0.195999,3.535131 0.278976,8.260202 0.375,13 0.09602,4.739798 0.210484,9.50743 0.4375,13.09375 0.113506,1.79316 0.211563,3.29138 0.40625,4.375 0.09735,0.54181 0.233142,0.970304 0.375,1.3125 0.07093,0.171098 0.128237,0.32777 0.25,0.46875 0.121763,0.14098 0.360279,0.291033 0.65625,0.3125 0.387274,0.02809 0.717488,-0.181351 0.90625,-0.40625 0.188762,-0.224899 0.334759,-0.502651 0.4375,-0.8125 0.205482,-0.619699 0.307066,-1.417671 0.40625,-2.40625 0.198369,-1.977158 0.252525,-4.593643 0.3125,-7.21875 0.05996,-2.625107 0.106287,-5.258625 0.3125,-7.21875 0.103107,-0.980063 0.261399,-1.811832 0.4375,-2.34375 0.08805,-0.265959 0.178768,-0.439779 0.25,-0.53125 0.01781,-0.02287 0.02278,-0.02076 0.03125,-0.03125 0.0078,0.0052 0.01684,-0.0094 0.03125,0 0.03601,0.02358 0.112208,0.09155 0.1875,0.21875 0.150569,0.254406 0.303578,0.70243 0.40625,1.28125 0.205343,1.15764 0.259577,2.771359 0.3125,4.40625 0.05292,1.634891 0.118929,3.283611 0.3125,4.5625 0.09677,0.639444 0.18321,1.183973 0.40625,1.625 0.11152,0.220513 0.264509,0.429744 0.46875,0.59375 0.20424,0.164006 0.509611,0.28125 0.8125,0.28125 0.227455,0 0.418867,-0.07971 0.5625,-0.1875 0.143631,-0.107793 0.263653,-0.243945 0.34375,-0.375 0.160192,-0.26211 0.247687,-0.558263 0.34375,-0.9375 0.192126,-0.758475 0.33713,-1.801073 0.4375,-3.03125 0.20074,-2.460353 0.269697,-5.719062 0.34375,-8.96875 0.07406,-3.249688 0.132925,-6.492953 0.34375,-8.90625 0.10541,-1.206648 0.26014,-2.213563 0.4375,-2.875 0.03592,-0.133977 0.0871,-0.177889 0.125,-0.28125 0.07115,0.238346 0.122634,0.455936 0.1875,0.84375 0.177561,1.061581 0.302832,2.632502 0.40625,4.5 0.206834,3.734996 0.325159,8.71875 0.40625,13.71875 0.08109,5 0.135253,10.016246 0.34375,13.78125 0.104246,1.882502 0.249179,3.436581 0.4375,4.5625 0.09416,0.562959 0.203801,1.025104 0.34375,1.375 0.06997,0.174948 0.124165,0.323925 0.25,0.46875 0.125836,0.144825 0.377106,0.3125 0.6875,0.3125 0.362466,0 0.599696,-0.21133 0.71875,-0.375 0.119054,-0.16367 0.179118,-0.352841 0.25,-0.5625 0.141764,-0.419319 0.273286,-0.952748 0.375,-1.65625 C 55.578427,19.874246 55.723282,17.869823 55.84375,15.5 56.084687,10.760354 56.154051,4.469664 56.25,-1.8125 56.34595,-8.094664 56.442929,-14.346235 56.625,-19 c 0.09104,-2.326883 0.221587,-4.25318 0.375,-5.5625 0.0298,0.153303 0.06984,0.262887 0.09375,0.46875 0.173807,1.497026 0.325852,3.641692 0.4375,6.1875 0.223299,5.091616 0.352304,11.834977 0.46875,18.5625 0.116445,6.727523 0.227823,13.415614 0.4375,18.4375 0.104835,2.510943 0.238457,4.62169 0.40625,6.09375 0.0839,0.73603 0.167524,1.293781 0.28125,1.71875 0.05687,0.212484 0.12199,0.398573 0.21875,0.5625 0.04838,0.08196 0.106572,0.163328 0.21875,0.25 0.112179,0.08667 0.31726,0.175242 0.53125,0.15625 0.292678,-0.02598 0.452907,-0.180293 0.5625,-0.3125 0.109593,-0.132207 0.218688,-0.282558 0.28125,-0.4375 0.125124,-0.309883 0.194208,-0.702963 0.28125,-1.1875 0.174082,-0.969074 0.327893,-2.307413 0.4375,-3.90625 0.219219,-3.197675 0.314236,-7.427983 0.4375,-11.65625 0.123261,-4.228267 0.251553,-8.458556 0.46875,-11.625 0.108607,-1.583222 0.243462,-2.876068 0.40625,-3.78125 0.04213,-0.23425 0.111294,-0.357883 0.15625,-0.53125 0.135918,0.480543 0.225148,1.165441 0.3125,2.03125 0.18563,1.839868 0.286836,4.331402 0.375,6.84375 0.08817,2.512348 0.203163,5.048501 0.4375,6.96875 0.117173,0.960124 0.250917,1.763246 0.46875,2.375 0.108912,0.305877 0.251021,0.559292 0.4375,0.78125 0.186478,0.221958 0.492961,0.4375 0.875,0.4375 0.442046,0 0.760219,-0.267285 0.9375,-0.53125 0.177279,-0.263965 0.268657,-0.58754 0.375,-0.96875 0.212684,-0.76242 0.358504,-1.799785 0.46875,-3.03125 0.220488,-2.462929 0.307959,-5.718126 0.375,-8.96875 0.06704,-3.250624 0.124186,-6.49148 0.3125,-8.90625 0.09415,-1.207385 0.209636,-2.211655 0.375,-2.875 0.04079,-0.163658 0.05062,-0.22634 0.09375,-0.34375 0.06364,0.181764 0.128391,0.336559 0.1875,0.625 0.176681,0.862144 0.340419,2.15009 0.4375,3.6875 0.194165,3.074821 0.22125,7.187254 0.28125,11.3125 0.06,4.125246 0.164222,8.261246 0.375,11.375 0.105387,1.556877 0.232959,2.868266 0.4375,3.8125 0.102273,0.472117 0.212368,0.846972 0.375,1.15625 0.08132,0.154639 0.167065,0.279641 0.3125,0.40625 0.145435,0.126609 0.366132,0.25 0.625,0.25 0.275635,0 0.510625,-0.113716 0.65625,-0.25 0.145625,-0.136284 0.261605,-0.300657 0.34375,-0.46875 0.164293,-0.336186 0.269508,-0.755737 0.375,-1.28125 0.210984,-1.051027 0.360923,-2.506261 0.46875,-4.25 0.215654,-3.487477 0.290941,-8.124567 0.34375,-12.75 0.0528,-4.625433 0.09546,-9.235576 0.28125,-12.6875 0.09289,-1.725962 0.23054,-3.180765 0.40625,-4.15625 0.05921,-0.328627 0.122078,-0.508675 0.1875,-0.71875 0.04568,0.126626 0.08186,0.201731 0.125,0.375 0.179067,0.719171 0.331943,1.7925 0.4375,3.09375 0.211115,2.602499 0.300945,6.09404 0.375,9.59375 0.07405,3.49971 0.112015,7.010007 0.3125,9.65625 0.100251,1.323121 0.246934,2.439812 0.4375,3.25 0.09529,0.405094 0.187819,0.72524 0.34375,1 0.07797,0.13738 0.170829,0.260499 0.3125,0.375 0.14167,0.114501 0.354448,0.21875 0.59375,0.21875 0.35137,0 0.66288,-0.177824 0.84375,-0.375 0.180869,-0.197176 0.301863,-0.423527 0.40625,-0.6875 0.208774,-0.527946 0.351973,-1.217686 0.46875,-2.03125 0.233551,-1.627128 0.359481,-3.749049 0.46875,-5.875 0.109275,-2.125951 0.178066,-4.248138 0.375,-5.8125 0.09847,-0.782181 0.232747,-1.437388 0.375,-1.84375 0.01561,-0.0446 0.0153,-0.05539 0.03125,-0.09375 0.04082,0.09732 0.115777,0.140732 0.15625,0.28125 0.158915,0.551719 0.268925,1.387227 0.375,2.40625 0.212154,2.038045 0.328281,4.8125 0.4375,7.5625 0.109218,2.75 0.220259,5.475546 0.4375,7.5625 0.10863,1.043477 0.218622,1.942344 0.40625,2.59375 0.09382,0.325703 0.187562,0.579603 0.34375,0.8125 0.156188,0.232897 0.453941,0.5 0.875,0.5 0.244129,0 0.48782,-0.103558 0.625,-0.21875 0.137181,-0.115192 0.205914,-0.238781 0.28125,-0.375 0.150671,-0.272438 0.279497,-0.595942 0.375,-1 0.191008,-0.808116 0.326659,-1.927277 0.4375,-3.25 0.221685,-2.645446 0.304055,-6.155961 0.40625,-9.65625 0.102201,-3.500289 0.201848,-6.987937 0.40625,-9.59375 0.102201,-1.302907 0.24486,-2.368668 0.40625,-3.09375 0.01281,-0.05756 0.01794,-0.07204 0.03125,-0.125 0.03862,0.167759 0.05883,0.253107 0.09375,0.46875 0.158482,0.978717 0.29175,2.42936 0.375,4.15625 0.166516,3.453779 0.221242,8.061404 0.28125,12.6875 0.06,4.626096 0.136095,9.261473 0.375,12.75 0.119452,1.744264 0.274699,3.197473 0.5,4.25 0.112642,0.526264 0.232738,0.943935 0.40625,1.28125 0.08676,0.168658 0.193037,0.334026 0.34375,0.46875 0.15072,0.134724 0.384803,0.25 0.65625,0.25 V 24.53125 C 89.91232,24.315817 89.801317,24.073236 89.71875,23.6875 89.510925,22.71659 89.368103,21.286986 89.25,19.5625 89.01381,16.113527 88.934985,11.498904 88.875,6.875 c -0.06,-4.623904 -0.113295,-9.266279 -0.28125,-12.75 -0.08397,-1.74186 -0.20583,-3.174029 -0.375,-4.21875 -0.08458,-0.52236 -0.18041,-0.951767 -0.3125,-1.28125 -0.066,-0.164742 -0.126445,-0.297611 -0.25,-0.4375 C 87.532687,-11.952389 87.300128,-12.125 87,-12.125 c -0.249842,0 -0.461669,0.101727 -0.59375,0.21875 -0.132082,0.117023 -0.241639,0.270773 -0.3125,0.40625 -0.141719,0.270954 -0.222779,0.596916 -0.3125,1 -0.179438,0.806168 -0.302543,1.896657 -0.40625,3.21875 -0.207413,2.644187 -0.304073,6.156539 -0.40625,9.65625 -0.102178,3.499711 -0.187991,6.989196 -0.40625,9.59375 -0.109123,1.302277 -0.26658,2.370616 -0.4375,3.09375 -0.04793,0.202778 -0.106375,0.298467 -0.15625,0.4375 -0.02696,-0.07321 -0.03652,-0.09727 -0.0625,-0.1875 C 83.747352,14.760781 83.606075,13.925273 83.5,12.90625 83.287894,10.868204 83.17172,8.125 83.0625,5.375 82.953283,2.625 82.842243,-0.131795 82.625,-2.21875 82.516371,-3.262227 82.437629,-4.161094 82.25,-4.8125 82.15618,-5.138203 82.031189,-5.392103 81.875,-5.625 c -0.156188,-0.232897 -0.45394,-0.5 -0.875,-0.5 -0.360964,0 -0.618902,0.207894 -0.78125,0.40625 -0.162349,0.198356 -0.283401,0.425837 -0.375,0.6875 -0.183197,0.523325 -0.335334,1.188431 -0.4375,2 -0.204333,1.623138 -0.26583,3.750951 -0.375,5.875 -0.10917,2.124049 -0.244779,4.252128 -0.46875,5.8125 -0.11199,0.780186 -0.247383,1.442009 -0.40625,1.84375 -0.03442,0.08704 -0.09151,0.09474 -0.125,0.15625 C 77.96645,10.505625 77.93916,10.335305 77.875,10.0625 77.705398,9.341438 77.567384,8.270629 77.46875,6.96875 77.271483,4.364993 77.230316,0.87529 77.15625,-2.625 c -0.07406,-3.50029 -0.160235,-7.008749 -0.375,-9.65625 -0.107373,-1.32375 -0.266552,-2.437921 -0.46875,-3.25 -0.101098,-0.406039 -0.210159,-0.724123 -0.375,-1 -0.08242,-0.137939 -0.166339,-0.262527 -0.3125,-0.375 C 75.47884,-17.018723 75.235236,-17.125 75,-17.125 c -0.285982,0 -0.489876,0.142725 -0.625,0.28125 -0.135122,0.138525 -0.238561,0.302147 -0.3125,0.46875 -0.147879,0.333206 -0.249368,0.726024 -0.34375,1.25 -0.188764,1.047952 -0.312452,2.507212 -0.40625,4.25 -0.187596,3.485576 -0.22845,8.125433 -0.28125,12.75 -0.0528,4.624567 -0.130404,9.237477 -0.34375,12.6875 -0.106668,1.725011 -0.273549,3.152589 -0.46875,4.125 C 72.14621,19.048854 72.078566,19.285827 72,19.5 71.93356,19.319333 71.874631,19.161818 71.8125,18.875 71.626108,18.014546 71.510286,16.724373 71.40625,15.1875 71.198182,12.113754 71.091244,7.999754 71.03125,3.875 70.97126,-0.249754 70.94656,-4.387321 70.75,-7.5 c -0.09828,-1.55634 -0.244345,-2.838707 -0.4375,-3.78125 -0.09659,-0.471272 -0.189679,-0.848349 -0.34375,-1.15625 -0.07703,-0.15395 -0.172063,-0.309353 -0.3125,-0.4375 -0.140436,-0.128147 -0.392746,-0.25 -0.65625,-0.25 -0.227453,0 -0.418904,0.07939 -0.5625,0.1875 -0.143597,0.108112 -0.232859,0.243792 -0.3125,0.375 -0.159281,0.262416 -0.280453,0.558235 -0.375,0.9375 -0.189092,0.75853 -0.310321,1.801135 -0.40625,3.03125 -0.191859,2.46023 -0.245485,5.719374 -0.3125,8.96875 -0.067,3.249376 -0.159063,6.494179 -0.375,8.90625 -0.107973,1.206035 -0.253539,2.215545 -0.4375,2.875 -0.07587,0.271965 -0.178131,0.430235 -0.25,0.5625 C 65.91198,12.62687 65.90707,12.552799 65.84375,12.375 65.668893,11.883936 65.488351,11.116326 65.375,10.1875 65.1483,8.329847 65.056832,5.791224 64.96875,3.28125 64.88067,0.771276 64.784778,-1.731609 64.59375,-3.625 c -0.09551,-0.946695 -0.192842,-1.721172 -0.375,-2.3125 -0.09107,-0.295664 -0.208197,-0.563444 -0.375,-0.78125 -0.166802,-0.217806 -0.514483,-0.439179 -0.90625,-0.40625 -0.292988,0.02463 -0.452478,0.180328 -0.5625,0.3125 -0.110028,0.132172 -0.187368,0.282726 -0.25,0.4375 -0.125261,0.309548 -0.225434,0.703375 -0.3125,1.1875 -0.17413,0.96825 -0.29662,2.307995 -0.40625,3.90625 -0.21926,3.196511 -0.314237,7.427981 -0.4375,11.65625 -0.123263,4.228269 -0.251592,8.426112 -0.46875,11.59375 -0.105058,1.532388 -0.281866,2.784844 -0.4375,3.6875 C 60.03171,25.446566 60.02865,25.345123 60,25.09375 59.837052,23.664266 59.698188,21.563847 59.59375,19.0625 59.384876,14.059807 59.272699,7.352799 59.15625,0.625 59.039801,-6.102799 58.911668,-12.857284 58.6875,-17.96875 c -0.112086,-2.555733 -0.258889,-4.680355 -0.4375,-6.21875 -0.08931,-0.769197 -0.162887,-1.384697 -0.28125,-1.84375 -0.05919,-0.229526 -0.131561,-0.424059 -0.21875,-0.59375 -0.0872,-0.169691 -0.214712,-0.373173 -0.59375,-0.46875 -0.185656,-0.04681 -0.390549,-0.01666 -0.53125,0.0625 -0.1407,0.07916 -0.225564,0.169602 -0.28125,0.25 -0.111379,0.160795 -0.161889,0.304864 -0.21875,0.5 -0.113729,0.390272 -0.201802,0.946938 -0.28125,1.625 -0.158897,1.356124 -0.283568,3.288016 -0.375,5.625 -0.182861,4.673968 -0.27907,10.937891 -0.375,17.21875 -0.09594,6.280859 -0.166611,12.567118 -0.40625,17.28125 -0.119821,2.357066 -0.273135,4.334526 -0.46875,5.6875 -0.06126,0.423762 -0.15092,0.645124 -0.21875,0.9375 -0.0416,-0.179475 -0.08684,-0.27183 -0.125,-0.5 -0.17756,-1.061581 -0.302834,-2.632502 -0.40625,-4.5 C 53.261915,13.358754 53.174843,8.375 53.09375,3.375 c -0.08109,-5 -0.166505,-10.016246 -0.375,-13.78125 -0.104247,-1.882502 -0.24918,-3.436581 -0.4375,-4.5625 -0.09416,-0.562959 -0.17255,-1.025104 -0.3125,-1.375 -0.06997,-0.174948 -0.124165,-0.323925 -0.25,-0.46875 -0.125834,-0.144825 -0.377106,-0.3125 -0.6875,-0.3125 -0.447862,0 -0.737031,0.299521 -0.90625,0.5625 -0.169221,0.262979 -0.304297,0.557281 -0.40625,0.9375 -0.203905,0.760438 -0.361224,1.800398 -0.46875,3.03125 -0.215055,2.461703 -0.269683,5.718438 -0.34375,8.96875 -0.07406,3.250312 -0.14674,6.491603 -0.34375,8.90625 -0.0985,1.207323 -0.206957,2.2116 -0.375,2.875 C 48.11498,8.44252 48.036837,8.617682 47.96875,8.75 47.936,8.70736 47.881,8.69866 47.84375,8.625 47.702664,8.346021 47.589789,7.843257 47.5,7.25 47.32042,6.063487 47.240506,4.41868 47.1875,2.78125 47.1345,1.14382 47.099054,-0.486881 46.875,-1.75 46.762974,-2.381559 46.599497,-2.911632 46.34375,-3.34375 46.215877,-3.559809 46.041387,-3.756403 45.8125,-3.90625 45.583612,-4.056097 45.301807,-4.145057 45,-4.125 c -0.387514,0.02575 -0.692019,0.265034 -0.875,0.5 -0.18298,0.234966 -0.330071,0.488009 -0.4375,0.8125 -0.214859,0.648982 -0.331175,1.520591 -0.4375,2.53125 C 43.037346,1.740068 42.966243,4.374174 42.90625,7 c -0.05999,2.625826 -0.120179,5.239385 -0.3125,7.15625 -0.09616,0.958433 -0.210655,1.754364 -0.375,2.25 -0.02669,0.0805 -0.0661,0.09281 -0.09375,0.15625 C 42.04315,16.325681 41.95137,16.050072 41.875,15.625 41.692141,14.607221 41.550005,13.12107 41.4375,11.34375 41.212487,7.789111 41.127257,3.051422 41.03125,-1.6875 40.93524,-6.426422 40.822559,-11.15548 40.625,-14.71875 c -0.09878,-1.781635 -0.203219,-3.278423 -0.375,-4.34375 -0.08589,-0.532664 -0.185575,-0.949266 -0.3125,-1.28125 -0.06345,-0.165992 -0.133456,-0.328021 -0.25,-0.46875 -0.116539,-0.140729 -0.341036,-0.3125 -0.65625,-0.3125 -0.297127,0 -0.538058,0.148268 -0.65625,0.28125 -0.118191,0.132982 -0.186574,0.283981 -0.25,0.4375 -0.126851,0.307038 -0.19571,0.704822 -0.28125,1.1875 -0.171082,0.965355 -0.303214,2.300039 -0.40625,3.90625 C 37.231428,-12.100078 37.110625,-7.851298 37,-3.59375 36.889372,0.663798 36.786313,4.928863 36.5625,8.09375 36.450591,9.676194 36.329507,10.989654 36.15625,11.875 36.10901,12.116419 36.050165,12.235443 36,12.40625 35.9905,12.37741 35.97792,12.3747 35.96875,12.34375 35.819563,11.840892 35.687532,11.083593 35.59375,10.15625 35.406187,8.301564 35.340779,5.806059 35.25,3.3125 c -0.09078,-2.493559 -0.203681,-4.978187 -0.4375,-6.875 -0.116915,-0.948407 -0.252603,-1.739561 -0.46875,-2.34375 -0.108077,-0.302094 -0.252258,-0.561495 -0.4375,-0.78125 -0.185242,-0.219755 -0.49544,-0.4375 -0.875,-0.4375 -0.285808,0 -0.525365,0.144105 -0.65625,0.28125 -0.130888,0.137145 -0.211246,0.275187 -0.28125,0.4375 -0.140009,0.324627 -0.224979,0.741585 -0.3125,1.25 -0.17504,1.016829 -0.292562,2.434303 -0.375,4.125 -0.164877,3.381395 -0.204018,7.852756 -0.25,12.34375 -0.04599,4.490994 -0.08026,8.983818 -0.3125,12.34375 -0.116128,1.679966 -0.319623,3.080836 -0.53125,4.03125 -0.08391,0.376862 -0.16022,0.631285 -0.25,0.84375 C 29.961015,28.250861 29.842452,27.87101 29.75,27.34375 29.53634,26.125246 29.401971,24.337721 29.28125,22.1875 29.039808,17.887057 28.935966,12.139572 28.875,6.375 28.814035,0.610428 28.788368,-5.172054 28.625,-9.5 c -0.08169,-2.163973 -0.180279,-3.939856 -0.34375,-5.21875 -0.08173,-0.639447 -0.221205,-1.148881 -0.34375,-1.53125 -0.06126,-0.191184 -0.10583,-0.375025 -0.21875,-0.53125 C 27.605832,-16.937475 27.359431,-17.145697 27,-17.125 c -0.34564,0.0199 -0.551784,0.224676 -0.65625,0.375 -0.104471,0.150324 -0.159314,0.316133 -0.21875,0.5 -0.118873,0.367734 -0.201151,0.835253 -0.28125,1.4375 -0.1602,1.204493 -0.260834,2.891579 -0.34375,4.90625 -0.165833,4.029341 -0.241665,9.368208 -0.3125,14.71875 -0.07084,5.350542 -0.131138,10.701858 -0.375,14.71875 -0.121932,2.008446 -0.321138,3.687792 -0.53125,4.84375 C 24.18628,24.89753 24.104057,25.287868 24,25.5625 23.93704,25.413256 23.874215,25.304025 23.8125,25.0625 23.619217,24.306088 23.46151,23.139298 23.34375,21.75 23.108225,18.971405 23.04949,15.232468 22.96875,11.46875 22.888006,7.705032 22.803805,3.910929 22.625,1.0625 22.5356,-0.361714 22.41798,-1.542205 22.25,-2.40625 22.16601,-2.838272 22.071698,-3.183647 21.9375,-3.46875 21.8704,-3.611302 21.784135,-3.750638 21.65625,-3.875 c -0.127886,-0.124362 -0.359791,-0.25 -0.625,-0.25 -0.359815,0 -0.647592,0.208466 -0.8125,0.40625 -0.164909,0.197784 -0.280745,0.425692 -0.375,0.6875 -0.188506,0.523617 -0.267355,1.188165 -0.375,2 -0.215289,1.62367 -0.384412,3.750336 -0.5,5.875 -0.115587,2.124664 -0.189332,4.250082 -0.40625,5.8125 -0.101014,0.727639 -0.235323,1.311786 -0.375,1.71875 C 18.13095,12.142324 18.051197,11.945332 18,11.59375 c -0.1552,-1.065812 -0.250835,-2.631339 -0.34375,-4.5 -0.185831,-3.737322 -0.27927,-8.718033 -0.375,-13.71875 -0.09573,-5.000717 -0.231571,-10.015421 -0.46875,-13.78125 -0.11859,-1.882914 -0.266214,-3.435504 -0.46875,-4.5625 -0.101261,-0.563498 -0.196041,-1.024079 -0.34375,-1.375 -0.07386,-0.175461 -0.15077,-0.324786 -0.28125,-0.46875 -0.13048,-0.143964 -0.38253,-0.3125 -0.6875,-0.3125 z" />
    <path
       style="color:#000000;font-style:normal;font-variant:normal;font-weight:normal;font-stretch:normal;font-size:medium;line-height:normal;font-family:'Abandoned Bitplane';-inkscape-font-specification:'Abandoned Bitplane';text-indent:0;text-align:start;text-decoration:none;text-decoration-line:none;letter-spacing:normal;word-spacing:normal;text-transform:none;writing-mode:lr-tb;direction:ltr;text-anchor:start;display:inline;overflow:visible;visibility:visible;opacity:0.1;fill:#fefefe;fill-opacity:0.45045046;stroke:none;stroke-width:2;marker:none;enable-background:accumulate"
       id="path3732"
       d="m 15.03125,-29.03125 c -1.109835,0 -1.788169,0.66877 -2.09375,1.03125 -0.206668,0.245146 -0.45155,0.583531 -0.625,1.03125 -0.222754,0.574971 -0.359674,1.167015 -0.46875,1.84375 -0.223024,1.3837 -0.359771,3.159626 -0.46875,5.25 -0.169613,3.253444 -0.21627,7.594317 -0.28125,11.8125 -0.09279,-0.101244 -0.133889,-0.216211 -0.25,-0.3125 -0.344004,-0.285276 -0.9668762,-0.65625 -1.78125,-0.65625 -0.9158678,0 -1.6192634,0.491693 -2,0.90625 -0.1965047,0.213949 -0.4499252,0.489462 -0.625,0.90625 -0.2560008,0.609417 -0.2811175,1.139027 -0.34375,1.5 C 6.0584693,-5.515413 6.0337265,-5.258261 6,-5.03125 v 30.8125 c 0.020828,-1.25e-4 0.043329,5e-4 0.0625,0 0.023964,-6.6e-4 0.064041,0.002 0.09375,0 0.014854,-0.001 0.016574,-0.02475 0.0625,-0.03125 0.011481,-0.002 0.062412,2e-5 0.0625,0 0,0 3.074e-4,-0.02965 0,-0.03125 0.015783,-0.002 0.015646,-0.02945 0.03125,-0.03125 0.00138,0.006 0,0.0625 0,0.0625 L 6.375,25.71875 h 0.03125 c 0,0 -0.028674,-0.0549 -0.03125,-0.0625 C 6.9582418,25.56835 7.5205319,25.4072 7.8125,25.1875 8.0351029,25.02 8.3507508,24.72499 8.625,24.28125 8.986634,23.69615 9.1603933,23.11329 9.28125,22.65625 9.557222,21.6126 9.7387485,20.34999 9.875,18.875 c 0.00405,-0.0439 -0.00398,-0.11203 0,-0.15625 0.46248,0.53397 1.160412,1.0625 2.1875,1.0625 1.064318,0 1.795978,-0.59629 2.1875,-1.09375 0.354381,-0.45027 0.487822,-0.91075 0.53125,-1.03125 0.20244,-0.56168 0.306416,-1.14149 0.40625,-1.8125 0.08221,-0.55256 0.122192,-1.45902 0.1875,-2.15625 0.104937,0.3027 0.242496,0.65773 0.5,1 0.313558,0.41682 0.981567,1.09375 2.15625,1.09375 0.811461,0 1.487403,-0.37803 2,-0.84375 0.05701,2.46969 0.08211,5.05062 0.25,7.03125 0.127133,1.49987 0.341973,2.76467 0.59375,3.75 0.101109,0.39571 0.239771,0.97788 0.625,1.59375 0.26297,0.4204 0.6016,0.69612 0.90625,0.90625 0.390681,0.26947 1.059124,0.63742 1.875,0.5625 0.970587,-0.0893 1.58289,-0.63104 1.90625,-1 0.198542,-0.22654 0.352886,-0.52151 0.5,-0.8125 0.03502,0.23999 0.05513,0.62352 0.09375,0.84375 0.118886,0.678 0.221052,1.34363 0.5,2 0.147038,0.34604 0.368723,0.72472 0.6875,1.0625 0.401928,0.42587 1.174571,0.95021 2.1875,0.90625 0.664114,-0.0289 1.322221,-0.286 1.8125,-0.71875 0.398141,-0.35143 0.639239,-0.73365 0.78125,-1 0.343108,-0.64353 0.446001,-1.25805 0.5625,-1.78125 0.261056,-1.1724 0.471434,-2.66793 0.59375,-4.4375 0.172603,-2.49706 0.180009,-5.75989 0.21875,-8.90625 0.435391,0.41271 0.978774,0.79754 1.78125,0.84375 0.89487,0.0515 1.638566,-0.36538 2.0625,-0.78125 0.380114,-0.37288 0.578342,-0.76592 0.6875,-1 0.06717,0.68648 0.115351,1.51824 0.21875,2.09375 0.116546,0.64864 0.259155,1.2444 0.46875,1.75 0.03778,0.0911 0.203928,0.52234 0.5625,0.9375 0.432688,0.50098 1.111672,0.94009 1.9375,1 1.11393,0.0808 1.996912,-0.49434 2.5,-1.09375 0.355097,-0.42307 0.639673,-0.91628 0.8125,-1.4375 0.299019,-0.90179 0.399182,-1.80764 0.5,-2.8125 0.105267,-1.0492 0.110748,-2.41909 0.15625,-3.65625 0.08964,0.0923 0.111736,0.19532 0.21875,0.28125 0.536895,0.43114 1.22806,0.71875 2,0.71875 0.677865,0 1.245786,-0.23098 1.6875,-0.5625 0.2213,-0.16608 0.374752,-0.36728 0.53125,-0.5625 0.04881,2.2347 0.05498,4.76498 0.15625,6.59375 0.106853,1.92959 0.293276,3.5453 0.5,4.78125 0.102318,0.61173 0.20768,1.17541 0.4375,1.75 0.03239,0.081 0.17968,0.55942 0.5625,1 0.426156,0.49044 1.172622,1 2.125,1 1.09554,0 1.85939,-0.61925 2.25,-1.15625 0.325616,-0.44765 0.466612,-0.90256 0.53125,-1.09375 0.04525,0.568 0.07152,1.40578 0.125,1.875 0.08876,0.77866 0.190001,1.39423 0.34375,1.96875 0.08155,0.30468 0.210943,0.67866 0.4375,1.0625 0.126177,0.21386 0.325971,0.50192 0.6875,0.78125 0.414116,0.32006 1.103729,0.62817 1.84375,0.5625 0.977066,-0.0868 1.563198,-0.62385 1.875,-1 0.16279,-0.19638 0.385955,-0.53152 0.5625,-0.96875 0.241414,-0.59788 0.294866,-1.11641 0.375,-1.5625 0.19011,-1.0583 0.386389,-2.4365 0.5,-4.09375 0.141866,-2.06936 0.20389,-4.81501 0.28125,-7.40625 0.46203,0.50232 1.180589,1.03125 2.1875,1.03125 1.058952,0 1.796243,-0.56791 2.28125,-1.15625 0.01315,0.21652 0.01715,0.54165 0.03125,0.75 0.107907,1.59412 0.256982,2.97189 0.5,4.09375 0.112525,0.51945 0.229141,1.08172 0.53125,1.65625 0.174464,0.33177 0.411555,0.64287 0.75,0.9375 0.380654,0.33139 1.045633,0.71875 1.875,0.71875 0.786532,0 1.461496,-0.3358 1.9375,-0.78125 0.33381,-0.31239 0.582974,-0.65822 0.75,-1 0.291529,-0.59656 0.418278,-1.18723 0.53125,-1.75 0.240293,-1.19704 0.420345,-2.7065 0.53125,-4.5 0.03584,-0.57963 0.03393,-1.46038 0.0625,-2.09375 0.129517,0.16024 0.221489,0.31943 0.40625,0.46875 0.397056,0.32091 0.999251,0.65625 1.78125,0.65625 0.943986,0 1.724454,-0.46113 2.21875,-1 0.106251,-0.11583 0.134377,-0.22472 0.21875,-0.34375 0.01994,0.22282 0.0091,0.53731 0.03125,0.75 0.110579,1.0622 0.243816,2.01683 0.5,2.90625 0.109759,0.38103 0.238346,0.86039 0.5625,1.34375 0.41889,0.62464 1.261821,1.34375 2.46875,1.34375 0.700616,0 1.373345,-0.29251 1.84375,-0.6875 0.169851,-0.14262 0.172436,-0.23681 0.28125,-0.375 0.03069,0.61412 0.02387,1.46711 0.0625,2.03125 0.122595,1.79016 0.302995,3.28767 0.5625,4.5 0.124705,0.58262 0.262676,1.16712 0.5625,1.75 0.103764,0.20172 0.307012,0.66651 0.75,1.0625 0.48544,0.4339 1.167993,0.71875 1.9375,0.71875 v -38.5 c -0.07661,-0.444355 -0.159928,-0.885228 -0.34375,-1.34375 -0.07566,-0.188847 -0.219465,-0.611616 -0.5625,-1 -0.367899,-0.416409 -1.085392,-0.96875 -2.09375,-0.96875 -0.726365,0 -1.393246,0.288357 -1.84375,0.6875 -0.319284,0.282881 -0.571998,0.597184 -0.75,0.9375 -0.300117,0.573799 -0.38176,1.109184 -0.46875,1.5 -0.214163,0.962181 -0.361682,2.103813 -0.46875,3.46875 -0.01578,0.201181 -0.01673,0.509332 -0.03125,0.71875 -0.425611,-0.616793 -1.251007,-1.3125 -2.4375,-1.3125 -0.995881,0 -1.678035,0.51515 -2.09375,0.96875 -0.05945,-1.848604 -0.09616,-3.863757 -0.21875,-5.375 -0.113007,-1.393211 -0.29004,-2.593741 -0.53125,-3.5625 -0.12348,-0.495932 -0.29132,-0.993854 -0.59375,-1.5 -0.111995,-0.187438 -0.349115,-0.573716 -0.78125,-0.90625 -0.425054,-0.327087 -1.069831,-0.625 -1.78125,-0.625 -0.960937,0 -1.631299,0.497018 -2,0.875 -0.302343,0.309958 -0.529356,0.643662 -0.6875,1 -0.256774,0.578572 -0.336649,1.158864 -0.4375,1.71875 -0.103564,0.574952 -0.145801,1.439091 -0.21875,2.15625 -0.109649,-0.219141 -0.324711,-0.609195 -0.71875,-0.96875 -0.457119,-0.417118 -1.147309,-0.78125 -1.9375,-0.78125 -0.675063,0 -1.274425,0.227979 -1.71875,0.5625 -0.462469,0.348186 -0.703938,0.778878 -0.78125,0.90625 -0.26742,0.440575 -0.46087,0.935719 -0.59375,1.46875 -0.2379,0.95432 -0.369369,2.069371 -0.46875,3.34375 -0.02204,0.282669 -0.01265,0.701329 -0.03125,1 -0.03019,-0.0433 -0.02957,-0.082 -0.0625,-0.125 -0.513879,-0.671011 -1.437505,-1.250809 -2.5625,-1.15625 -0.990474,0.08326 -1.574838,0.639408 -1.875,1 -0.02977,0.03576 -0.03542,0.05809 -0.0625,0.09375 -0.07853,-3.484694 -0.127354,-7.328436 -0.25,-10.125 -0.113176,-2.580602 -0.249327,-4.722998 -0.4375,-6.34375 -0.09059,-0.780204 -0.178056,-1.451135 -0.34375,-2.09375 -0.08949,-0.34703 -0.217673,-0.662554 -0.375,-0.96875 -0.271052,-0.527466 -0.751197,-1.201135 -1.8125,-1.46875 -0.596296,-0.150345 -1.348627,-0.08131 -1.9375,0.25 -0.453643,0.255227 -0.700265,0.591471 -0.875,0.84375 -0.250512,0.361658 -0.406511,0.710411 -0.5,1.03125 -0.169822,0.582759 -0.290559,1.216823 -0.375,1.9375 -0.169988,1.450788 -0.282603,3.419591 -0.375,5.78125 -0.01837,0.469676 -0.01455,1.219509 -0.03125,1.71875 -0.08424,-0.200349 -0.122825,-0.36602 -0.375,-0.65625 -0.426193,-0.490514 -1.17267,-1 -2.125,-1 -1.321432,0 -2.132454,0.897556 -2.5,1.46875 -0.276048,0.428994 -0.508792,0.918828 -0.65625,1.46875 -0.249509,0.930513 -0.41756,2.042333 -0.53125,3.34375 -0.184818,2.115588 -0.222727,4.791991 -0.28125,7.4375 -0.07553,-0.0601 -0.103457,-0.132479 -0.1875,-0.1875 -0.558954,-0.365932 -1.248024,-0.581224 -2,-0.53125 -0.952258,0.06328 -1.598454,0.584829 -2.03125,1.0625 -0.08141,-3.514056 -0.161424,-7.118866 -0.3125,-9.84375 -0.09934,-1.791771 -0.208652,-3.337061 -0.40625,-4.5625 -0.101696,-0.630686 -0.253096,-1.173923 -0.4375,-1.65625 -0.07306,-0.191126 -0.199237,-0.599087 -0.53125,-1 -0.394151,-0.475964 -1.134634,-1 -2.125,-1 -0.894022,0 -1.644138,0.431626 -2.09375,0.9375 -0.360463,0.405572 -0.507132,0.834735 -0.5625,0.96875 -0.251688,0.609201 -0.297106,1.154218 -0.375,1.59375 -0.190764,1.076415 -0.362773,2.441702 -0.46875,4.09375 -0.133061,2.07426 -0.200253,4.851809 -0.28125,7.46875 -0.456685,-0.507909 -1.190617,-1.0625 -2.21875,-1.0625 -0.885524,0 -1.603931,0.427243 -2.03125,0.875 -0.197483,0.206924 -0.310538,0.43646 -0.4375,0.65625 -0.01707,-0.611487 -0.0098,-1.495156 -0.03125,-2.0625 -0.08229,-2.179938 -0.164308,-4.00241 -0.34375,-5.40625 -0.09993,-0.781818 -0.290296,-1.415686 -0.4375,-1.875 -0.02171,-0.06776 -0.150504,-0.578972 -0.5,-1.0625 -0.406815,-0.562839 -1.2317,-1.189036 -2.34375,-1.125 -1.085087,0.06247 -1.753815,0.729591 -2.09375,1.21875 -0.254233,0.365818 -0.414162,0.703207 -0.5,0.96875 -0.184916,0.572038 -0.259122,1.14495 -0.34375,1.78125 -0.17718,1.332161 -0.291394,3.062314 -0.375,5.09375 -0.06204,1.507508 -0.08388,3.675646 -0.125,5.46875 -0.130108,-0.236053 -0.245223,-0.502241 -0.5,-0.75 -0.435121,-0.423131 -1.13546,-0.78125 -1.9375,-0.78125 -0.790748,0 -1.364676,0.343493 -1.8125,0.71875 -0.01093,-0.473036 -0.02188,-0.854409 -0.03125,-1.34375 -0.09592,-5.010428 -0.227761,-10.048673 -0.46875,-13.875 -0.121181,-1.92405 -0.306544,-3.499635 -0.53125,-4.75 -0.09914,-0.551712 -0.165499,-1.166291 -0.4375,-1.8125 -0.130995,-0.311191 -0.315612,-0.658639 -0.625,-1 -0.404157,-0.445925 -1.157855,-0.9375 -2.09375,-0.9375 z" />
    <path
       style="color:#000000;font-style:normal;font-variant:normal;font-weight:normal;font-stretch:normal;font-size:medium;line-height:normal;font-family:'Abandoned Bitplane';-inkscape-font-specification:'Abandoned Bitplane';text-indent:0;text-align:start;text-decoration:none;text-decoration-line:none;letter-spacing:normal;word-spacing:normal;text-transform:none;writing-mode:lr-tb;direction:ltr;text-anchor:start;display:inline;overflow:visible;visibility:visible;opacity:0.5;fill:#fefe96;fill-opacity:0.45045046;stroke:none;stroke-width:2;marker:none;enable-background:accumulate"
       id="path3728"
       d="m 15.03125,-27.90625 c -0.628901,0 -1.06507,0.405636 -1.25,0.625 -0.15786,0.187251 -0.321945,0.420474 -0.4375,0.71875 -0.183272,0.47306 -0.303974,0.990452 -0.40625,1.625 -0.20857,1.294022 -0.329065,3.045054 -0.4375,5.125 -0.217108,4.164483 -0.304122,9.685617 -0.375,15.1875 -0.05751,4.463595 -0.132972,8.517526 -0.25,12.21875 -0.03037,-0.8091 -0.09723,-1.42257 -0.125,-2.25 -0.100755,-3.002035 -0.219628,-6.014584 -0.40625,-8.3125 -0.09257,-1.139888 -0.189591,-2.115279 -0.375,-2.90625 -0.09118,-0.389042 -0.190736,-0.731228 -0.375,-1.0625 C 10.494143,-7.116589 10.336071,-7.324962 10.125,-7.5 9.8947376,-7.690952 9.5422515,-7.90625 9.0625,-7.90625 c -0.5669179,0 -0.9432551,0.265309 -1.1875,0.53125 -0.1530447,0.166631 -0.3113346,0.367792 -0.40625,0.59375 -0.1727723,0.411289 -0.2077893,0.82662 -0.28125,1.25 C 7.0304586,-4.626158 6.8941111,-3.431366 6.8125,-2 6.6496826,0.855678 6.5905952,4.59988 6.5,8.34375 6.4094024,12.08773 6.2850749,15.84595 6.03125,18.59375 6.0214113,18.700259 6.0102894,18.772463 6,18.875 v 5.78125 c 0.028429,0 0.064455,0 0.0625,0 0.4640053,0 0.8277301,-0.19834 1.0625,-0.375 0.1789425,-0.13465 0.3892646,-0.31345 0.5625,-0.59375 0.2581729,-0.41771 0.3812124,-0.86328 0.5,-1.3125 0.2495396,-0.94369 0.4294673,-2.1536 0.5625,-3.59375 0.2578168,-2.79102 0.3790826,-6.42033 0.46875,-10.0625 0.072088,1.75984 0.097849,3.6502 0.25,5.0625 0.1256128,1.16597 0.2937164,2.12128 0.53125,2.90625 0.119629,0.39535 0.284149,0.77437 0.53125,1.125 0.276861,0.39286 0.799515,0.84375 1.53125,0.84375 0.629536,0 1.084913,-0.36708 1.3125,-0.65625 0.202167,-0.25687 0.272256,-0.52038 0.34375,-0.71875 0.171091,-0.4747 0.281562,-0.96573 0.375,-1.59375 0.189484,-1.27358 0.338722,-3.03719 0.4375,-5.125 0.197071,-4.16535 0.24168,-9.690133 0.3125,-15.1875 0.04511,-3.501896 0.162445,-6.462154 0.25,-9.59375 0.08856,2.552361 0.196832,4.8164 0.25,7.59375 0.09569,4.998883 0.18684,10.02828 0.375,13.8125 0.09367,1.8839 0.171295,3.47194 0.34375,4.65625 0.08786,0.60337 0.237844,1.07311 0.375,1.46875 0.08498,0.24513 0.189867,0.48296 0.34375,0.6875 0.148709,0.19768 0.607518,0.65625 1.25,0.65625 0.613859,0 1.107476,-0.27635 1.4375,-0.65625 0.262398,-0.30205 0.389587,-0.61264 0.5,-0.90625 0.228604,-0.6079 0.413108,-1.36779 0.53125,-2.21875 0.199542,-1.43727 0.255561,-3.24516 0.34375,-5.03125 0.06145,1.90227 0.143198,3.59107 0.1875,5.65625 0.08072,3.7625 0.131576,7.50321 0.375,10.375 0.122589,1.44626 0.329921,2.6523 0.5625,3.5625 0.108398,0.42424 0.19957,0.85091 0.46875,1.28125 0.155568,0.2487 0.367972,0.43802 0.59375,0.59375 0.300309,0.20714 0.659149,0.3894 1.15625,0.34375 0.550063,-0.0506 0.961334,-0.4026 1.15625,-0.625 0.182268,-0.20797 0.32768,-0.4278 0.4375,-0.6875 0.211693,-0.50061 0.293537,-1.06739 0.40625,-1.6875 0.231324,-1.27265 0.438272,-2.95371 0.5625,-5 0.173137,-2.85188 0.193178,-6.68751 0.25,-10.34375 0.06484,4.66811 0.144204,9.41452 0.34375,12.96875 0.12232,2.17871 0.294699,3.99468 0.53125,5.34375 0.117435,0.66973 0.228332,1.25782 0.4375,1.75 0.100477,0.23646 0.252717,0.48984 0.46875,0.71875 0.262794,0.27845 0.699122,0.58912 1.3125,0.5625 0.449189,-0.01952 0.816645,-0.16533 1.125,-0.4375 0.261107,-0.23047 0.425788,-0.4897 0.53125,-0.6875 0.244615,-0.4588 0.35002,-0.96678 0.46875,-1.5 0.24435,-1.09737 0.443155,-2.52341 0.5625,-4.25 0.238051,-3.4439 0.266511,-7.94595 0.3125,-12.4375 0.03224,-3.14806 0.116838,-5.87858 0.1875,-8.625 0.0094,0.240564 0.02246,0.414923 0.03125,0.65625 0.09047,2.48479 0.145702,4.97912 0.34375,6.9375 0.09913,0.98029 0.234419,1.81549 0.4375,2.5 0.08682,0.29266 0.186903,0.63778 0.4375,1 0.261446,0.3779 0.733811,0.80323 1.4375,0.84375 0.553936,0.03187 0.944962,-0.20017 1.21875,-0.46875 0.243251,-0.23862 0.390809,-0.51832 0.46875,-0.6875 0.195302,-0.42393 0.249079,-0.82873 0.34375,-1.3125 0.196199,-1.00259 0.385207,-2.3455 0.5,-3.96875 0.228453,-3.23048 0.326891,-7.492985 0.4375,-11.75 0.01453,-0.559264 0.04739,-0.974885 0.0625,-1.53125 0.02565,1.218181 0.06858,2.164015 0.09375,3.40625 0.09606,4.741747 0.208785,9.51184 0.4375,13.125 0.113564,1.79408 0.228827,3.27604 0.4375,4.4375 0.106963,0.59531 0.243736,1.10797 0.40625,1.5 0.06338,0.1529 0.146138,0.39127 0.375,0.65625 0.271302,0.31412 0.66146,0.55559 1.1875,0.59375 0.696431,0.05053 1.239844,-0.30307 1.5625,-0.6875 0.264304,-0.3149 0.465507,-0.67574 0.59375,-1.0625 0.244045,-0.736 0.337203,-1.59408 0.4375,-2.59375 0.203754,-2.03083 0.25255,-4.626 0.3125,-7.25 0.05242,-2.29518 0.137841,-4.439701 0.28125,-6.25 0.04073,0.702121 0.100088,1.261673 0.125,2.03125 0.05305,1.63888 0.108074,3.30564 0.3125,4.65625 0.09725,0.64259 0.197359,1.24532 0.5,1.84375 0.151269,0.29911 0.34836,0.59651 0.65625,0.84375 0.357813,0.28733 0.80949,0.46875 1.3125,0.46875 0.408615,0 0.769832,-0.14755 1.03125,-0.34375 0.228495,-0.17148 0.396015,-0.37247 0.53125,-0.59375 0.230214,-0.37668 0.337511,-0.76151 0.4375,-1.15625 0.210857,-0.83243 0.366345,-1.90113 0.46875,-3.15625 0.204083,-2.501324 0.269716,-5.751155 0.34375,-9 0.0167,-0.732651 0.04538,-1.278544 0.0625,-2 0.09925,2.907859 0.228154,5.694871 0.28125,8.96875 0.08104,4.99719 0.13356,10.01693 0.34375,13.8125 0.105137,1.8986 0.271955,3.47966 0.46875,4.65625 0.09893,0.59146 0.199477,1.09241 0.375,1.53125 0.06487,0.1622 0.148758,0.42712 0.375,0.6875 0.266691,0.30692 0.691558,0.59375 1.28125,0.59375 0.663901,0 1.123218,-0.38432 1.34375,-0.6875 0.213279,-0.29321 0.306876,-0.57975 0.375,-0.78125 0.159065,-0.47049 0.298933,-1.03899 0.40625,-1.78125 0.210893,-1.45864 0.347807,-3.49584 0.46875,-5.875 0.24232,-4.76686 0.310335,-11.06379 0.40625,-17.34375 0.01486,-0.972665 0.04728,-1.691005 0.0625,-2.65625 0.03585,1.826875 0.0928,3.264741 0.125,5.125 0.116439,6.72718 0.227103,13.42962 0.4375,18.46875 0.105225,2.52028 0.234257,4.64734 0.40625,6.15625 0.08547,0.74984 0.179511,1.31555 0.3125,1.8125 0.06586,0.24607 0.162572,0.52724 0.3125,0.78125 0.07264,0.12312 0.211009,0.3179 0.40625,0.46875 0.271897,0.21014 0.593639,0.35411 1.0625,0.3125 0.537185,-0.04772 0.936329,-0.40384 1.09375,-0.59375 0.132572,-0.15993 0.291711,-0.37258 0.40625,-0.65625 0.173267,-0.42911 0.225737,-0.86076 0.3125,-1.34375 0.181996,-1.01313 0.357777,-2.34998 0.46875,-3.96875 0.221365,-3.22899 0.314337,-7.46269 0.4375,-11.6875 0.06179,-2.11975 0.175241,-3.83008 0.25,-5.8125 0.08271,2.06242 0.145967,4.16054 0.34375,5.78125 0.11947,0.97894 0.275115,1.81193 0.53125,2.53125 0.135016,0.37919 0.31384,0.73528 0.5625,1.03125 0.296623,0.35306 0.795022,0.71875 1.46875,0.71875 0.754653,0 1.312114,-0.45565 1.59375,-0.875 0.27206,-0.40509 0.362031,-0.80494 0.46875,-1.1875 0.236954,-0.84942 0.387788,-1.93406 0.5,-3.1875 0.224275,-2.50523 0.307892,-5.746144 0.375,-9 0.0047,-0.229145 0.02657,-0.396307 0.03125,-0.625 0.0228,1.446544 0.0719,2.591205 0.09375,4.09375 0.06008,4.13077 0.16226,8.29477 0.375,11.4375 0.106253,1.56968 0.24688,2.88202 0.46875,3.90625 0.108671,0.50166 0.221832,0.96486 0.4375,1.375 0.105714,0.20103 0.277762,0.43153 0.5,0.625 0.250283,0.21789 0.619698,0.4375 1.125,0.4375 0.48894,0 0.895125,-0.19514 1.1875,-0.46875 0.222797,-0.2085 0.378994,-0.43989 0.5,-0.6875 0.218697,-0.44752 0.3281,-0.92377 0.4375,-1.46875 0.224216,-1.11695 0.39108,-2.58234 0.5,-4.34375 0.217581,-3.51865 0.290912,-8.18457 0.34375,-12.8125 0.02882,-2.524632 0.108685,-4.582791 0.15625,-6.90625 0.02269,0.874873 0.07489,1.546044 0.09375,2.4375 0.07394,3.49435 0.108669,6.9971 0.3125,9.6875 0.102073,1.34717 0.262127,2.49654 0.46875,3.375 0.100058,0.42536 0.187684,0.80237 0.40625,1.1875 0.11026,0.19427 0.2758,0.41255 0.5,0.59375 0.257935,0.20847 0.629216,0.40625 1.09375,0.40625 0.613017,0 1.082542,-0.2721 1.40625,-0.625 0.264255,-0.28809 0.438503,-0.62394 0.5625,-0.9375 C 80.217869,10.46377 80.379313,9.74705 80.5,8.90625 80.741453,7.22407 80.859271,5.06754 80.96875,2.9375 80.97535,2.809609 80.99367,2.721395 81,2.59375 c 0.04817,1.004623 0.114863,1.80167 0.15625,2.84375 0.109239,2.75052 0.215877,5.49596 0.4375,7.625 0.109463,1.05148 0.219666,1.96247 0.4375,2.71875 0.10218,0.35472 0.216044,0.70103 0.4375,1.03125 0.257362,0.38377 0.782224,0.84375 1.53125,0.84375 0.463446,0 0.816741,-0.14741 1.125,-0.40625 0.24869,-0.20882 0.392877,-0.45656 0.46875,-0.59375 0.185895,-0.33613 0.327401,-0.72168 0.4375,-1.1875 0.20897,-0.88411 0.356552,-2.03609 0.46875,-3.375 0.20044,-2.39193 0.286368,-5.51672 0.375,-8.625 0.01768,1.21943 0.04635,2.16116 0.0625,3.40625 0.06002,4.62788 0.133663,9.28845 0.375,12.8125 0.120575,1.76066 0.29063,3.21965 0.53125,4.34375 0.118677,0.55446 0.242711,1.02931 0.46875,1.46875 0.110277,0.21438 0.249245,0.4946 0.5,0.71875 0.284291,0.25411 0.696485,0.4375 1.1875,0.4375 V 18.9375 C 89.792654,15.587122 89.713142,11.260456 89.65625,6.875 89.59626,2.251872 89.544171,-2.39731 89.375,-5.90625 c -0.08472,-1.757483 -0.228597,-3.215392 -0.40625,-4.3125 -0.08863,-0.5474 -0.173267,-1.012251 -0.34375,-1.4375 -0.07326,-0.182852 -0.173226,-0.427802 -0.375,-0.65625 -0.233643,-0.264514 -0.652526,-0.59375 -1.25,-0.59375 -0.460351,0 -0.820592,0.164234 -1.09375,0.40625 -0.225122,0.199455 -0.388672,0.412155 -0.5,0.625 -0.203818,0.389683 -0.283021,0.80552 -0.375,1.21875 -0.195318,0.877514 -0.332651,1.975851 -0.4375,3.3125 -0.210131,2.678837 -0.304098,6.188657 -0.40625,9.6875 -0.0548,1.87695 -0.150741,3.39687 -0.21875,5.125 C 83.9345,6.70535 83.87481,6.1258 83.84375,5.34375 83.734521,2.593459 83.627957,-0.18266 83.40625,-2.3125 83.298374,-3.348746 83.224175,-4.252963 83,-5.03125 82.885142,-5.429988 82.72606,-5.772015 82.53125,-6.0625 82.273891,-6.446256 81.74903,-6.90625 81,-6.90625 c -0.658732,0 -1.125869,0.383112 -1.375,0.6875 -0.226742,0.27703 -0.384313,0.607027 -0.5,0.9375 -0.206661,0.590353 -0.392476,1.302117 -0.5,2.15625 -0.212415,1.687339 -0.266426,3.825056 -0.375,5.9375 -0.022,0.428136 -0.06903,0.733108 -0.09375,1.15625 -0.08183,-2.108599 -0.167365,-4.196594 -0.21875,-6.625 -0.0741,-3.502053 -0.157122,-7.001628 -0.375,-9.6875 -0.109531,-1.35036 -0.280676,-2.49414 -0.5,-3.375 -0.109749,-0.440783 -0.246533,-0.846848 -0.46875,-1.21875 -0.09584,-0.160408 -0.248176,-0.399968 -0.5,-0.59375 -0.289097,-0.222466 -0.624934,-0.375 -1.09375,-0.375 -0.544006,0 -0.966009,0.304184 -1.1875,0.53125 -0.210125,0.215417 -0.362395,0.447855 -0.46875,0.6875 -0.186185,0.419518 -0.275411,0.884619 -0.375,1.4375 -0.200553,1.113398 -0.342984,2.587626 -0.4375,4.34375 C 72.341994,-7.389827 72.302785,-2.748212 72.25,1.875 72.21526,4.91798 72.118785,7.49198 72.03125,10.1875 71.95871,8.06913 71.846117,6.18623 71.8125,3.875 71.75257,-0.245309 71.73028,-4.410759 71.53125,-7.5625 c -0.09964,-1.577833 -0.263259,-2.872259 -0.46875,-3.875 -0.09993,-0.487573 -0.194731,-0.921043 -0.40625,-1.34375 -0.09779,-0.195446 -0.226389,-0.435099 -0.46875,-0.65625 -0.301258,-0.274896 -0.684913,-0.46875 -1.1875,-0.46875 -0.40791,0 -0.768787,0.146148 -1.03125,0.34375 -0.269303,0.202754 -0.41004,0.445541 -0.5,0.59375 -0.202897,0.334273 -0.359479,0.717923 -0.46875,1.15625 -0.210618,0.84488 -0.340274,1.909508 -0.4375,3.15625 -0.195116,2.50199 -0.24553,5.752785 -0.3125,9 -0.04995,2.422625 -0.16351,4.56867 -0.28125,6.625 C 65.898356,5.71328 65.797851,4.61356 65.75,3.25 65.66186,0.738369 65.570278,-1.751985 65.375,-3.6875 c -0.09655,-0.957021 -0.190887,-1.76963 -0.40625,-2.46875 -0.107359,-0.348546 -0.25319,-0.708973 -0.5,-1.03125 -0.328865,-0.429424 -0.874747,-0.779184 -1.59375,-0.71875 -0.541437,0.04552 -0.939551,0.408507 -1.09375,0.59375 -0.180969,0.21739 -0.294693,0.457797 -0.375,0.65625 -0.157128,0.388297 -0.251311,0.829746 -0.34375,1.34375 -0.184974,1.028549 -0.327196,2.360668 -0.4375,3.96875 -0.221411,3.227874 -0.314338,7.4627 -0.4375,11.6875 C 60.11105,7.089475 59.998993,4.177695 59.9375,0.625 59.821036,-6.103661 59.693661,-12.871581 59.46875,-18 c -0.11256,-2.56655 -0.25507,-4.709959 -0.4375,-6.28125 -0.08947,-0.770589 -0.171692,-1.391399 -0.3125,-1.9375 -0.0709,-0.274939 -0.163677,-0.521174 -0.28125,-0.75 -0.11248,-0.218886 -0.501658,-0.7257 -1.09375,-0.875 -0.393362,-0.09918 -0.745981,-0.07066 -1.09375,0.125 -0.244559,0.137593 -0.420579,0.340216 -0.53125,0.5 -0.172354,0.248823 -0.281062,0.503616 -0.34375,0.71875 -0.139058,0.477191 -0.231052,1.054869 -0.3125,1.75 -0.163347,1.394107 -0.283144,3.339681 -0.375,5.6875 -0.183504,4.690396 -0.279069,10.969097 -0.375,17.25 C 54.24921,2.330717 54.127976,5.87669 54.03125,9.5625 53.981693,7.42614 53.911652,5.63485 53.875,3.375 53.793903,-1.62542 53.709951,-6.646201 53.5,-10.4375 c -0.105138,-1.898597 -0.271956,-3.479665 -0.46875,-4.65625 -0.09432,-0.563921 -0.153439,-1.055445 -0.34375,-1.53125 -0.06487,-0.162203 -0.14877,-0.42713 -0.375,-0.6875 -0.266704,-0.306955 -0.691567,-0.59375 -1.28125,-0.59375 -0.793628,0 -1.320729,0.56177 -1.5625,0.9375 -0.210073,0.326465 -0.379595,0.707218 -0.5,1.15625 -0.22387,0.834897 -0.390063,1.897795 -0.5,3.15625 -0.219225,2.509436 -0.269754,5.752801 -0.34375,9 C 48.07832,-1.607491 47.982757,0.112365 47.90625,1.9375 47.863461,0.595475 47.824186,-0.752077 47.625,-1.875 47.503347,-2.560833 47.323553,-3.203315 47,-3.75 46.819652,-4.054723 46.587836,-4.341326 46.25,-4.5625 45.894739,-4.79508 45.422566,-4.938486 44.9375,-4.90625 44.259661,-4.86121 43.782422,-4.456408 43.5,-4.09375 43.27497,-3.804787 43.073503,-3.4733 42.9375,-3.0625 42.683773,-2.296118 42.576378,-1.398047 42.46875,-0.375 42.250643,1.69815 42.185042,4.34077 42.125,6.96875 42.1205,7.16466 42.0983,7.3046 42.09375,7.5 41.98336,4.57419 41.880597,1.642537 41.8125,-1.71875 41.71645,-6.459511 41.605006,-11.165136 41.40625,-14.75 c -0.09912,-1.787832 -0.19291,-3.308237 -0.375,-4.4375 -0.09079,-0.563026 -0.21916,-1.029886 -0.375,-1.4375 -0.07128,-0.18648 -0.169252,-0.439055 -0.375,-0.6875 -0.230867,-0.278788 -0.653049,-0.59375 -1.25,-0.59375 -0.555118,0 -0.974307,0.252308 -1.25,0.5625 -0.213167,0.239843 -0.304985,0.486784 -0.375,0.65625 -0.179292,0.43397 -0.227256,0.862745 -0.3125,1.34375 -0.180542,1.018735 -0.333509,2.347659 -0.4375,3.96875 -0.207629,3.236695 -0.326842,7.49119 -0.4375,11.75 C 36.16002,-1.364646 36.073461,0.469637 36,2.5625 35.91358,0.328592 35.809069,-1.909514 35.59375,-3.65625 35.474328,-4.624993 35.316299,-5.446814 35.0625,-6.15625 34.928165,-6.53174 34.751265,-6.889421 34.5,-7.1875 c -0.297511,-0.352941 -0.792593,-0.71875 -1.46875,-0.71875 -0.546486,0 -0.94889,0.248483 -1.21875,0.53125 -0.20088,0.210483 -0.34535,0.442588 -0.4375,0.65625 -0.190456,0.441595 -0.254019,0.916244 -0.34375,1.4375 -0.185636,1.078385 -0.323093,2.513303 -0.40625,4.21875 -0.166206,3.408649 -0.204026,7.88477 -0.25,12.375 -0.04179,4.0808 -0.103656,7.95655 -0.28125,11.15625 -0.0076,-0.12954 -0.02382,-0.18012 -0.03125,-0.3125 C 29.822528,17.882 29.717175,12.13571 29.65625,6.375 c -0.06093,-5.76139 -0.08576,-11.555345 -0.25,-15.90625 -0.08197,-2.171497 -0.173803,-3.951694 -0.34375,-5.28125 -0.08923,-0.698126 -0.243551,-1.277347 -0.375,-1.6875 -0.05053,-0.157704 -0.118378,-0.438198 -0.34375,-0.75 -0.235035,-0.325177 -0.697235,-0.695278 -1.375,-0.65625 -0.632763,0.03643 -1.061044,0.446847 -1.25,0.71875 -0.184398,0.265332 -0.28334,0.500619 -0.34375,0.6875 -0.145831,0.451127 -0.230166,0.974697 -0.3125,1.59375 -0.167081,1.256233 -0.260505,2.946093 -0.34375,4.96875 -0.166591,4.047758 -0.241658,9.39896 -0.3125,14.75 -0.06995,5.28314 -0.140819,10.50243 -0.375,14.46875 C 23.907584,16.87175 23.811833,14.31984 23.75,11.4375 23.669252,7.67339 23.586799,3.87621 23.40625,1 23.315864,-0.439919 23.18029,-1.635134 23,-2.5625 c -0.08997,-0.462774 -0.197649,-0.873219 -0.375,-1.25 -0.09325,-0.198101 -0.227019,-0.420317 -0.4375,-0.625 -0.276666,-0.269042 -0.646116,-0.46875 -1.15625,-0.46875 -0.659355,0 -1.128805,0.354744 -1.40625,0.6875 -0.238171,0.285651 -0.385738,0.62012 -0.5,0.9375 -0.235995,0.655528 -0.330617,1.350164 -0.4375,2.15625 -0.157381,1.186935 -0.239076,2.747805 -0.34375,4.25 -0.09978,-3.09132 -0.213053,-6.187564 -0.28125,-9.75 -0.09581,-5.004834 -0.230024,-10.053356 -0.46875,-13.84375 -0.119447,-1.896518 -0.287136,-3.440532 -0.5,-4.625 -0.103149,-0.574007 -0.17918,-1.097279 -0.375,-1.5625 -0.08751,-0.207879 -0.229656,-0.458177 -0.4375,-0.6875 -0.261959,-0.289031 -0.659314,-0.5625 -1.25,-0.5625 z" />
  </g>
  <g
     transform="translate(0,4)"
     id="layer3">
    <path
       style="color:#000000;display:inline;overflow:visible;visibility:visible;opacity:0.05;fill:#000000;fill-opacity:1;fill-rule:nonzero;stroke:none;stroke-width:1.5;marker:none;enable-background:accumulate"
       id="path3777"
       d="m 47.78125,13.9375 c -2.219305,0.02213 -4.544143,0.329696 -6.8125,0.9375 -14.280783,3.826525 -22.768339,18.495537 -19.15625,32.78125 0.0158,0.06248 0.01499,0.125038 0.03125,0.1875 0,0 0,0.0625 0,0.0625 0.0058,0.02191 0.02543,0.04059 0.03125,0.0625 0.0027,0.01013 -0.0027,0.02112 0,0.03125 0.0044,0.0176 -0.0056,0.01162 0,0.03125 0.01566,0.05457 0.01736,0.05925 0.03125,0.09375 8.92e-4,0.0028 0.03022,0.153464 0.03125,0.15625 9.95e-4,0.0017 0.03028,-0.0017 0.03125,0 0.0029,0.005 -0.0026,0.0266 0,0.03125 0.01314,0.02325 0.02625,0.02312 0.03125,0.03125 0.0049,0.01351 -0.0034,0.02194 0,0.03125 0.0038,0.01163 -0.0037,0.02009 0,0.03125 0.0019,0.0056 -0.0025,0.02393 0,0.03125 0.003,0.0083 0.06242,0.124833 0.0625,0.125 3.1e-5,6.4e-5 0.02073,0.01239 0.03125,0.03125 0.0063,0.01131 -0.0066,0.01957 0,0.03125 0.0019,0.0054 -0.0052,0.0173 0,0.03125 0.0028,0.0048 0.03055,-0.0011 0.03125,0 0.002,0.0053 -0.0037,0.02213 0,0.03125 0.0018,0.0044 0.02404,0.01687 0.03125,0.03125 0.01751,0.03492 0.01942,0.07099 0.03125,0.09375 -2.657606,1.8789 -4.141719,5.140812 -3.25,8.46875 l 2.59375,9.65625 c 1.146977,4.28058 5.601179,6.801417 9.875,5.65625 l 4.625,-1.25 c 0.02999,-8.57e-4 0.04948,-0.02354 0.09375,-0.03125 h 0.03125 0.03125 c 0.0176,-0.0044 0.01162,0.0056 0.03125,0 0.05457,-0.01566 0.05925,-0.01736 0.09375,-0.03125 0.0028,-8.92e-4 0.153464,-0.03022 0.15625,-0.03125 0.0014,-5.15e-4 -0.02325,-0.02354 0,-0.03125 0.0055,-0.0018 0.01922,0.0043 0.03125,0 0.02325,-0.01314 0.02312,-0.02625 0.03125,-0.03125 0.02702,-0.0099 0.06186,2.74e-4 0.0625,0 0.0056,-0.0019 0.02393,0.0025 0.03125,0 0.0067,-0.0024 0.06765,-0.05144 0.09375,-0.0625 0.0028,-9.15e-4 0.02634,0.0016 0.03125,0 6.4e-5,-3.1e-5 0.01239,-0.02073 0.03125,-0.03125 0.03017,-0.01684 0.05812,-0.02844 0.0625,-0.03125 0.0071,-0.0046 0.02803,0.0021 0.03125,0 0.0044,-0.0018 0.01687,-0.02404 0.03125,-0.03125 0.04519,-0.02267 0.12494,-0.03121 0.125,-0.03125 5.9e-5,-3.6e-5 0.05329,-0.06387 0.09375,-0.09375 -2.6e-5,1.7e-5 0.01696,-0.02021 0.03125,-0.03125 0.0159,-0.0137 0.02529,0.0055 0.03125,0 0.01658,-0.01288 0.01977,-0.02207 0.03125,-0.03125 0.0087,-0.0085 -0.0047,-0.02656 0,-0.03125 0.0094,-0.0094 0.02354,0.0078 0.03125,0 0.0034,-0.0031 -0.0021,-0.02925 0,-0.03125 0.0031,-0.0032 0.02971,0.0015 0.03125,0 0.0052,-0.0034 0.02553,0.0039 0.03125,0 0.0057,-0.0039 0.09347,-0.06226 0.09375,-0.0625 0.0011,-9.56e-4 0.07826,-0.07819 0.09375,-0.09375 0.0011,-0.001 0.04698,-0.04697 0.0625,-0.0625 0.01552,-0.01553 -0.04612,0.01677 0.03125,-0.0625 -0.09939,0.101835 0.0157,0.01551 0.03125,0 0.01555,-0.01551 0.06152,-0.09264 0.0625,-0.09375 4.1e-5,-4.6e-5 0.02038,-0.01745 0.03125,-0.03125 0.01087,-0.0138 0.01985,-0.0167 0.03125,-0.03125 0.02078,-0.02341 0.03139,-0.06268 0.03125,-0.0625 0.0078,-0.0082 0.09364,-0.0936 0.09375,-0.09375 8.7e-4,-0.0012 0.04704,-0.07054 0.0625,-0.09375 0.01546,-0.02321 -0.04788,0.05938 0.03125,-0.0625 0.0016,-0.0025 0.09226,-0.122432 0.09375,-0.125 1.72e-4,-2.96e-4 -0.0034,-0.02481 0,-0.03125 0.0048,-0.0072 0.02347,-0.01967 0.03125,-0.03125 0.0078,-0.01158 0.02392,-0.02026 0.03125,-0.03125 0.0078,-0.01566 0.05905,-0.145419 0,-0.03125 0.0026,-0.0041 0.02449,-0.0201 0.03125,-0.03125 0.0068,-0.01115 0.06246,-0.09367 0.0625,-0.09375 3.08e-4,-6.76e-4 0.02768,-0.114292 0.03125,-0.125 0.0036,-0.01071 -0.0038,-0.01962 0,-0.03125 0.0011,-0.0028 0.130501,-0.323908 0.0625,-0.125 0.0238,-0.06961 -0.0078,-0.03927 0,-0.0625 0.0078,-0.02323 0.03084,-0.09232 0.03125,-0.09375 0.0078,-0.02323 0.06216,-0.123554 0.0625,-0.125 1e-5,-4.4e-5 -0.006,-0.05568 0,-0.09375 0.0063,-0.04018 0.03052,-0.08338 0.03125,-0.09375 0.0014,-0.0202 -2.75e-4,-0.02352 0,-0.03125 5.5e-4,-0.01546 -7.2e-5,-0.02539 0,-0.03125 1.43e-4,-0.01173 8e-6,-0.02455 0,-0.03125 8.37e-4,-0.01567 -1.4e-4,-0.02581 0,-0.03125 -7.8e-5,-0.01163 1.7e-5,-0.02609 0,-0.03125 0.0025,-0.03213 0.03115,-0.08776 0.03125,-0.09375 4.4e-5,-0.0075 0,-0.02441 0,-0.03125 -9.2e-4,0.01085 -0.03131,7.4e-4 -0.03125,0 1.23e-4,-0.0015 0.03129,-0.132991 0.03125,-0.15625 5e-5,-0.0015 7e-6,-0.07049 0,-0.09375 -7e-6,-0.02326 0.0024,0.09288 0,-0.0625 -3.4e-5,-0.0022 5.98e-4,-0.05315 0,-0.09375 -6.8e-5,0.02326 -9.6e-5,-0.03273 0,-0.03125 1.2e-5,-0.0058 10e-7,-0.02571 0,-0.03125 -1.1e-5,-0.0017 5.82e-4,-0.02098 0,-0.03125 5.3e-5,-0.01163 -5e-6,-0.01918 0,-0.03125 3e-6,-0.006 8.3e-5,-0.02215 0,-0.03125 -4.1e-5,-0.0045 2.85e-4,-0.02009 0,-0.03125 -2.85e-4,-0.01116 -0.03122,-0.124817 -0.03125,-0.125 -3e-5,-1.83e-4 -0.02816,-0.146191 -0.03125,-0.15625 -0.0031,-0.01006 0.0013,-0.02708 0,-0.03125 -0.0039,-0.01164 -0.02733,-0.01964 -0.03125,-0.03125 -0.0039,-0.01161 0.0023,-0.02444 0,-0.03125 -0.01067,-0.04307 -0.03087,-0.09231 -0.03125,-0.09375 L 33.25,48.5 c 0,0 0,-0.03125 0,-0.03125 0,0 -0.03125,-0.09375 -0.03125,-0.09375 v -0.03125 c -0.0013,-0.02899 -0.0147,-0.02683 -0.03125,-0.09375 -0.01045,-0.04226 0.01943,7.63e-4 0,-0.0625 C 33.2569,48.413504 33.15775,48.004164 33.15625,48 33.15445,47.995 33.06471,47.754795 33.0625,47.75 33.061946,47.7488 32.97854,47.641352 32.96875,47.625 32.95895,47.60865 32.94915,47.58184 32.9375,47.5625 32.92585,47.54316 32.91488,47.51431 32.90625,47.5 32.85239,47.40597 32.88395,47.48373 32.875,47.46875 c -0.0089,-0.01498 -0.01965,-0.04313 -0.03125,-0.0625 -0.0232,-0.03873 -0.06099,-0.122833 -0.0625,-0.125 -9.4e-5,-1.35e-4 -0.08349,-0.113593 -0.09375,-0.125 -0.01026,-0.01141 -0.02704,0.0044 -0.03125,0 -0.0084,-0.0089 0.0041,-0.02709 0,-0.03125 -0.0082,-0.0083 -0.02421,0.007 -0.03125,0 -0.01408,-0.01409 -0.01569,-0.04707 -0.03125,-0.0625 -0.0017,-0.002 -0.0081,0.03113 -0.03125,0 C 32.55091,47.04693 32.54186,47.01411 32.53125,47 32.52815,46.9959 32.50652,46.97702 32.5,46.96875 32.4935,46.96045 32.43773,46.87523 32.4375,46.875 32.4393,46.8768 32.254039,46.690903 32.25,46.6875 32.246,46.6841 32.004321,46.503036 32,46.5 c -0.0022,-0.0015 -0.08627,-0.0393 -0.125,-0.0625 -0.03873,-0.0232 0.0433,0.01688 -0.09375,-0.0625 0.001,-0.03397 2.6e-5,-0.08033 0,-0.09375 5e-5,-0.0015 7e-6,-0.07049 0,-0.09375 -7e-6,-0.02326 0.0024,0.09288 0,-0.0625 -3.5e-5,-0.0022 5.98e-4,-0.05315 0,-0.09375 3.4e-5,-0.01163 1e-6,-0.05142 0,-0.0625 -1.1e-5,-0.0017 5.82e-4,-0.02098 0,-0.03125 5.3e-5,-0.01163 -5e-6,-0.01918 0,-0.03125 3e-6,-0.006 8.3e-5,-0.02215 0,-0.03125 -4.1e-5,-0.0045 2.85e-4,-0.02009 0,-0.03125 -2.85e-4,-0.01116 -0.03122,-0.124817 -0.03125,-0.125 -3e-5,-1.83e-4 -0.02816,-0.146191 -0.03125,-0.15625 2.4e-5,1.09e-4 0.0034,-0.01851 0,-0.03125 -0.0039,-0.01164 -0.02733,-0.01964 -0.03125,-0.03125 -0.0039,-0.01161 0.0023,-0.02444 0,-0.03125 C 31.67683,45.42568 31.65663,45.37644 31.65625,45.375 31.265702,43.9219 31.0625,42.486597 31.0625,41 c 0,-9.395378 7.542122,-16.9375 16.9375,-16.9375 9.395378,0 16.9375,7.542122 16.9375,16.9375 0,1.486597 -0.203202,2.9219 -0.59375,4.375 -5e-4,0.0019 -0.0186,0.07388 -0.03125,0.125 -0.0039,0.01161 -0.02736,0.01961 -0.03125,0.03125 -0.0013,0.0042 0.0031,0.02119 0,0.03125 -0.0031,0.01006 -0.03122,0.156067 -0.03125,0.15625 -3e-5,1.83e-4 -0.03096,0.113841 -0.03125,0.125 -2.85e-4,0.01116 4.1e-5,0.0267 0,0.03125 -8.3e-5,0.0091 -3e-6,0.02522 0,0.03125 5e-6,0.01207 -5.3e-5,0.01962 0,0.03125 5.3e-5,0.01163 -1.6e-5,0.02475 0,0.03125 -10e-7,0.01108 -3.4e-5,0.05087 0,0.0625 -5.98e-4,0.0406 3.4e-5,0.09152 0,0.09375 -0.0024,0.155383 7e-6,0.03924 0,0.0625 -7e-6,0.02326 -5e-5,0.09226 0,0.09375 -4.4e-5,0.02326 0.03113,0.15477 0.03125,0.15625 6.2e-5,7.4e-4 -0.03033,0.01085 -0.03125,0 -0.0043,0.0025 0.0033,0.02935 0,0.03125 -0.0065,0.0038 -0.03116,-6.1e-5 -0.03125,0 -0.0019,0.0012 -0.0628,0.0705 -0.09375,0.09375 -0.03095,0.02325 0.02176,-0.05789 -0.09375,0.03125 0.0764,-0.05895 0.01153,0.02263 0,0.03125 -0.01153,0.0086 -0.01575,0.01966 -0.03125,0.03125 -0.031,0.02318 -0.123348,0.09227 -0.125,0.09375 -0.0017,0.0015 -0.07048,0.07045 -0.09375,0.09375 -0.01163,0.01165 -0.02218,0.02215 -0.03125,0.03125 -0.0091,0.0091 0.02995,-0.03233 -0.03125,0.03125 -0.0015,0.0016 -0.03152,3.59e-4 -0.0625,0.03125 -0.03098,0.03089 -0.123583,0.154543 -0.125,0.15625 -7.09e-4,8.54e-4 -0.05515,0.08276 -0.0625,0.09375 -0.0073,0.01099 -0.02349,0.01953 -0.03125,0.03125 -0.0013,0.0018 -0.008,0.03158 -0.03125,0.0625 -0.02328,0.03092 -0.123849,0.154353 -0.125,0.15625 -0.0023,0.0038 -0.196956,0.389768 -0.09375,0.1875 -10e-4,0.002 -0.04709,0.117546 -0.0625,0.15625 -0.01541,0.0387 -0.03039,0.06045 -0.03125,0.0625 -0.0078,0.01548 -0.02414,0.01702 -0.03125,0.03125 -0.0036,0.0071 0.0042,0.02274 0,0.03125 -0.0021,0.0043 0.0043,0.02222 0,0.03125 -0.0043,0.009 -0.06241,0.09349 -0.0625,0.09375 -0.0011,0.0034 -0.04908,0.248228 -0.03125,0.1875 a 1.0503993,1.0503993 0 0 0 0,0.03125 1.0503993,1.0503993 0 0 0 -0.03125,0.15625 L 62.875,48.5 v 0.03125 L 57.78125,67.5625 c -5e-4,0.0019 -0.0186,0.07388 -0.03125,0.125 -0.0039,0.01161 -0.02736,0.01961 -0.03125,0.03125 -0.0013,0.0042 0.0031,0.02119 0,0.03125 -0.0031,0.01006 -0.03122,0.156067 -0.03125,0.15625 -3e-5,1.83e-4 -0.03097,0.113841 -0.03125,0.125 -2.85e-4,0.01116 4.1e-5,0.0267 0,0.03125 -8.3e-5,0.0091 -3e-6,0.02522 0,0.03125 5e-6,0.01207 -5.3e-5,0.01962 0,0.03125 5.3e-5,0.01163 -1.6e-5,0.02475 0,0.03125 -10e-7,0.01108 -3.4e-5,0.05087 0,0.0625 -5.98e-4,0.0406 3.4e-5,0.09152 0,0.09375 -0.0024,0.155383 7e-6,0.03924 0,0.0625 -7e-6,0.02326 -5e-5,0.09226 0,0.09375 -4.4e-5,0.02326 0.03113,0.15477 0.03125,0.15625 6.2e-5,7.4e-4 -0.03033,0.01085 -0.03125,0 0,0.0068 -4.4e-5,0.02371 0,0.03125 1.28e-4,0.0078 0.03122,0.124816 0.03125,0.125 -7.8e-5,0.01163 1.6e-5,0.01785 0,0.03125 -8e-6,0.0067 -1.43e-4,0.01952 0,0.03125 7.2e-5,0.0059 -5.5e-4,0.01579 0,0.03125 2.75e-4,0.0077 -0.0014,0.01105 0,0.03125 7.29e-4,0.01037 0.02494,0.05357 0.03125,0.09375 0.006,0.03807 -1e-5,0.09371 0,0.09375 3.4e-4,0.0014 0.0547,0.101774 0.0625,0.125 4.11e-4,0.0014 0.02349,0.07052 0.03125,0.09375 0.0078,0.02323 -0.0238,-0.0071 0,0.0625 -0.068,-0.198908 0.0614,0.12224 0.0625,0.125 0.0038,0.01163 -0.0036,0.02054 0,0.03125 0.0036,0.01071 0.03094,0.124324 0.03125,0.125 3.9e-5,8.4e-5 0.05574,0.0826 0.0625,0.09375 0.0068,0.01115 0.02861,0.0271 0.03125,0.03125 0.0053,0.0083 -0.0023,0.02769 0,0.03125 0.0078,0.01566 0.06175,0.09247 0.0625,0.09375 0.0015,0.0026 0.09213,0.122508 0.09375,0.125 0.07913,0.121876 0.01579,0.03929 0.03125,0.0625 0.01546,0.02321 0.06163,0.09255 0.0625,0.09375 1.09e-4,1.51e-4 0.08595,0.08552 0.09375,0.09375 -5.4e-5,-6.7e-5 -0.0057,0.02478 0,0.03125 0.0048,0.007 0.09363,0.09361 0.09375,0.09375 9.84e-4,0.0011 0.04695,0.07824 0.0625,0.09375 0.01555,0.01551 0.130642,0.101835 0.03125,0 0.07737,0.07927 0.01573,0.04697 0.03125,0.0625 0.01552,0.01553 0.06141,0.06149 0.0625,0.0625 0.01549,0.01556 0.09261,0.09279 0.09375,0.09375 2.84e-4,2.39e-4 0.08803,0.05864 0.09375,0.0625 0.0057,0.0039 0.02609,-0.0034 0.03125,0 0.01032,0.0069 0.01963,0.02354 0.03125,0.03125 0.0024,0.0018 0.122549,0.09207 0.125,0.09375 0.04046,0.02988 0.09369,0.09371 0.09375,0.09375 6e-5,3.7e-5 0.07981,0.0086 0.125,0.03125 0.01438,0.0072 0.02685,0.02945 0.03125,0.03125 0.0091,0.0037 0.02599,-0.002 0.03125,0 0.0044,0.0028 0.03233,0.01441 0.0625,0.03125 0.01886,0.01052 0.03119,0.03122 0.03125,0.03125 0.0049,0.0016 0.02848,-9.15e-4 0.03125,0 0.0261,0.01106 0.08709,0.06013 0.09375,0.0625 0.0073,0.0025 0.02567,-0.0019 0.03125,0 0.0014,5.83e-4 0.101746,0.02354 0.125,0.03125 0.02325,0.0077 -0.0014,0.03074 0,0.03125 0.0028,0.001 0.153416,0.03036 0.15625,0.03125 0.0345,0.01389 0.03918,0.01559 0.09375,0.03125 0.01963,0.0056 0.01365,-0.0044 0.03125,0 0.05573,0.01407 0.05529,0.02653 0.09375,0.03125 0.02429,0.003 0.04356,-5.41e-4 0.0625,0 0.03945,0.0011 0.100817,0.03405 0.125,0.03125 l 4.5,1.21875 c 4.273821,1.145167 8.728023,-1.37567 9.875,-5.65625 l 2.59375,-9.65625 c 0.900807,-3.361857 -0.601043,-6.695178 -3.3125,-8.5625 0.0043,-0.0087 -0.0013,-0.02811 0,-0.03125 0.0019,-0.0039 -0.0045,-0.02189 0,-0.03125 0.0018,-0.0027 0.02033,-0.01178 0.03125,-0.03125 0.0037,-0.01076 -0.0021,-0.02479 0,-0.03125 0.01052,-0.01886 0.03122,-0.03119 0.03125,-0.03125 0.0016,-0.0049 -9.15e-4,-0.02848 0,-0.03125 0.01106,-0.0261 0.06013,-0.08709 0.0625,-0.09375 0.0025,-0.0073 -0.0019,-0.02567 0,-0.03125 -5.83e-4,0.0014 0.0077,-0.05452 0,-0.03125 0.0034,-0.0093 -0.0049,-0.01774 0,-0.03125 0.005,-0.0081 0.01811,-0.008 0.03125,-0.03125 0.0026,-0.0046 -0.0029,-0.02628 0,-0.03125 0.0077,-0.02325 0.03074,0.0014 0.03125,0 0.01593,-0.02727 0.009,-0.101043 0.03125,-0.15625 0.01389,-0.0345 0.01559,-0.03918 0.03125,-0.09375 0.0056,-0.01963 -0.0044,-0.01365 0,-0.03125 0.01407,-0.05573 0.02653,-0.05529 0.03125,-0.09375 H 74.125 c 0.0056,-0.02135 0.02569,-0.04114 0.03125,-0.0625 0.0011,-0.03945 0.03405,-0.100817 0.03125,-0.125 0,0 -0.02949,-3e-6 -0.03125,0 0.0055,-0.02138 0.02584,-0.04111 0.03125,-0.0625 5e-6,7.5e-5 6.97e-4,-0.02352 0,-0.03125 C 75.312685,43.15414 75.319592,38.427028 74.125,33.96875 70.869155,21.817774 59.841383,13.817223 47.78125,13.9375 Z m -24.5625,35.875 c 0.02889,0.01628 0.05708,0.02867 0.0625,0.03125 0.01083,0.0052 -0.0032,0.02978 0,0.03125 -0.0041,-0.0019 -0.0093,0.0014 -0.0625,-0.03125 z" />
    <path
       style="color:#000000;display:inline;overflow:visible;visibility:visible;opacity:0.1;fill:#000000;fill-opacity:1;fill-rule:nonzero;stroke:none;stroke-width:1.5;marker:none;enable-background:accumulate"
       id="path3773"
       d="m 47.78125,15 c -2.137792,0.02132 -4.356785,0.292354 -6.53125,0.875 -13.84467,3.709669 -22.06702,17.999202 -18.375,31.84375 2.25e-4,8.62e-4 -0.0034,0.01947 0,0.03125 0.0079,0.02748 0.03063,0.06052 0.03125,0.0625 8.92e-4,0.0028 0.03022,0.09096 0.03125,0.09375 0.001,0.0028 0.03008,0.09102 0.03125,0.09375 0.0012,0.0027 0.02995,0.09108 0.03125,0.09375 0.0013,0.0027 0.06107,0.09115 0.0625,0.09375 0.0014,0.0026 0.02969,0.09122 0.03125,0.09375 0.0016,0.0025 0.06082,0.06005 0.0625,0.0625 0.0017,0.0025 0.0607,0.09139 0.0625,0.09375 0.0018,0.0024 0.06059,0.09148 0.0625,0.09375 0.0019,0.0023 0.06048,0.06032 0.0625,0.0625 0.002,0.0022 0.06037,0.06043 0.0625,0.0625 0.0021,0.0021 0.06027,0.06053 0.0625,0.0625 0.0022,0.002 0.09143,0.06065 0.09375,0.0625 0.0023,0.0019 0.06009,0.06076 0.0625,0.0625 0.0024,0.0017 0.09126,0.06088 0.09375,0.0625 0.0015,9.96e-4 0.03856,0.01654 0.0625,0.03125 C 20.779683,50.356398 19.049975,53.687714 19.9375,57 l 2.59375,9.65625 c 0.998087,3.724914 4.870366,5.935178 8.59375,4.9375 l 4.78125,-1.28125 c 8.62e-4,-2.25e-4 0.01947,0.0034 0.03125,0 0.02748,-0.0079 0.06052,-0.03063 0.0625,-0.03125 0.0028,-8.92e-4 0.09096,-0.03022 0.09375,-0.03125 0.0028,-0.001 0.09102,-0.03008 0.09375,-0.03125 0.0027,-0.0012 0.09108,-0.02995 0.09375,-0.03125 0.0027,-0.0013 0.09115,-0.06107 0.09375,-0.0625 0.0026,-0.0014 0.09122,-0.02969 0.09375,-0.03125 0.0025,-0.0016 0.06005,-0.06082 0.0625,-0.0625 0.0025,-0.0017 0.09139,-0.0607 0.09375,-0.0625 0.0024,-0.0018 0.09148,-0.06059 0.09375,-0.0625 0.0023,-0.0019 0.06032,-0.06048 0.0625,-0.0625 0.0022,-0.002 0.06043,-0.06037 0.0625,-0.0625 0.0021,-0.0021 0.06053,-0.06027 0.0625,-0.0625 0.002,-0.0022 0.06065,-0.09143 0.0625,-0.09375 0.0019,-0.0023 0.06076,-0.06009 0.0625,-0.0625 0.0017,-0.0024 0.06088,-0.09126 0.0625,-0.09375 0.0016,-0.0025 0.06101,-0.09118 0.0625,-0.09375 0.0015,-0.0026 0.02989,-0.05986 0.03125,-0.0625 0.0014,-0.0026 0.06127,-0.09105 0.0625,-0.09375 0.0012,-0.0027 0.03015,-0.09099 0.03125,-0.09375 0.0011,-0.0028 0.03029,-0.09094 0.03125,-0.09375 9.61e-4,-0.0028 0.03043,-0.0909 0.03125,-0.09375 8.22e-4,-0.0029 0.03057,-0.09086 0.03125,-0.09375 6.8e-4,-0.0029 -5.37e-4,-0.09083 0,-0.09375 5.37e-4,-0.0029 0.03086,-0.09081 0.03125,-0.09375 3.92e-4,-0.0029 -2.46e-4,-0.122039 0,-0.125 2.46e-4,-0.003 -1e-4,-0.09078 0,-0.09375 1e-4,-0.003 4.6e-5,-0.09078 0,-0.09375 -4.6e-5,-0.003 1.92e-4,-0.09078 0,-0.09375 -1.92e-4,-0.003 3.38e-4,-0.0908 0,-0.09375 -3.38e-4,-0.003 4.83e-4,-0.09082 0,-0.09375 -4.83e-4,-0.0029 -0.03062,-0.09085 -0.03125,-0.09375 -6.27e-4,-0.0029 -0.03048,-0.12213 -0.03125,-0.125 L 32.1875,48.53125 c -2.18e-4,-8.28e-4 0.0023,-0.02368 0,-0.03125 -0.01201,-0.0391 -0.02975,-0.152086 -0.03125,-0.15625 -0.0018,-0.005 -0.06029,-0.151455 -0.0625,-0.15625 C 32.09155,48.1827 32.00263,48.035833 32,48.03125 31.9974,48.02665 31.90927,47.879335 31.90625,47.875 c -0.003,-0.0043 -0.121616,-0.120945 -0.125,-0.125 -0.0034,-0.0041 -0.09002,-0.121257 -0.09375,-0.125 -0.0037,-0.0037 -0.120961,-0.121597 -0.125,-0.125 -0.004,-0.0034 -0.151929,-0.121964 -0.15625,-0.125 -0.0043,-0.003 -0.15168,-0.0911 -0.15625,-0.09375 -0.0046,-0.0026 -0.151466,-0.06026 -0.15625,-0.0625 -0.0048,-0.0022 -0.151288,-0.09194 -0.15625,-0.09375 -0.005,-0.0018 -0.151149,-0.02988 -0.15625,-0.03125 -0.0051,-0.0014 -0.182299,-0.03033 -0.1875,-0.03125 -0.001,-1.76e-4 -0.02076,0.0014 -0.03125,0 0.0035,-0.0073 -2.85e-4,-0.03063 0,-0.03125 0.0012,-0.0027 0.03015,-0.09099 0.03125,-0.09375 0.0011,-0.0028 0.03029,-0.09094 0.03125,-0.09375 9.61e-4,-0.0028 0.03043,-0.0909 0.03125,-0.09375 8.22e-4,-0.0029 0.03057,-0.09086 0.03125,-0.09375 6.8e-4,-0.0029 -5.37e-4,-0.09083 0,-0.09375 5.37e-4,-0.0029 0.03086,-0.09081 0.03125,-0.09375 3.92e-4,-0.0029 -2.46e-4,-0.122039 0,-0.125 2.46e-4,-0.003 -10e-5,-0.09078 0,-0.09375 10e-5,-0.003 4.6e-5,-0.09078 0,-0.09375 -4.6e-5,-0.003 1.92e-4,-0.09078 0,-0.09375 -1.92e-4,-0.003 3.38e-4,-0.0908 0,-0.09375 -3.38e-4,-0.003 4.83e-4,-0.09082 0,-0.09375 -4.83e-4,-0.0029 -0.03062,-0.09085 -0.03125,-0.09375 -6.27e-4,-0.0029 -0.03048,-0.12213 -0.03125,-0.125 C 30.247162,44.134167 30,42.595093 30,41 c 0,-9.960529 8.039471,-18 18,-18 9.960529,0 18,8.039471 18,18 0,1.595093 -0.247162,3.134167 -0.65625,4.65625 -7.69e-4,0.0029 -0.03062,0.122096 -0.03125,0.125 -6.27e-4,0.0029 -0.03077,0.09082 -0.03125,0.09375 -4.83e-4,0.0029 3.38e-4,0.0908 0,0.09375 -3.38e-4,0.003 1.92e-4,0.09078 0,0.09375 -1.92e-4,0.003 4.6e-5,0.09078 0,0.09375 -4.6e-5,0.003 -1e-4,0.09078 0,0.09375 1e-4,0.003 -2.46e-4,0.09079 0,0.09375 2.46e-4,0.003 -3.92e-4,0.122055 0,0.125 3.92e-4,0.0029 0.03071,0.09083 0.03125,0.09375 5.37e-4,0.0029 -6.8e-4,0.09086 0,0.09375 6.8e-4,0.0029 0.03043,0.0909 0.03125,0.09375 8.22e-4,0.0029 0.03029,0.09094 0.03125,0.09375 9.61e-4,0.0028 0.03015,0.09099 0.03125,0.09375 0.0011,0.0028 0.03002,0.09105 0.03125,0.09375 2.85e-4,6.24e-4 -0.0035,0.02399 0,0.03125 -0.0043,9.49e-4 -0.120747,0.02998 -0.125,0.03125 -0.0043,0.0013 -0.152102,0.06092 -0.15625,0.0625 -0.0041,0.0016 -0.120979,0.02937 -0.125,0.03125 -0.004,0.0019 -0.121127,0.09158 -0.125,0.09375 -0.0039,0.0022 -0.121297,0.06005 -0.125,0.0625 -0.0037,0.0024 -0.121487,0.09104 -0.125,0.09375 -0.0035,0.0027 -0.121696,0.09079 -0.125,0.09375 -0.0033,0.003 -0.09067,0.09055 -0.09375,0.09375 -0.0031,0.0032 -0.122166,0.121585 -0.125,0.125 -0.0028,0.0034 -0.05993,0.09014 -0.0625,0.09375 -0.0026,0.0036 -0.09145,0.121207 -0.09375,0.125 -0.0023,0.0038 -0.06048,0.121047 -0.0625,0.125 -0.002,0.004 -0.06078,0.15216 -0.0625,0.15625 -0.0017,0.0041 -0.06108,0.120794 -0.0625,0.125 -0.0011,0.0034 -0.02072,0.08915 -0.03125,0.125 v 0.03125 l -5.15625,19.3125 c -7.69e-4,0.0029 -0.03062,0.122096 -0.03125,0.125 -6.27e-4,0.0029 -0.03077,0.09082 -0.03125,0.09375 -4.83e-4,0.0029 3.38e-4,0.0908 0,0.09375 -3.38e-4,0.003 1.92e-4,0.09078 0,0.09375 -1.92e-4,0.003 4.6e-5,0.09078 0,0.09375 -4.6e-5,0.003 -1e-4,0.09078 0,0.09375 1e-4,0.003 -2.46e-4,0.09079 0,0.09375 2.46e-4,0.003 -3.92e-4,0.122055 0,0.125 3.92e-4,0.0029 0.03071,0.09083 0.03125,0.09375 5.37e-4,0.0029 -6.8e-4,0.09086 0,0.09375 6.8e-4,0.0029 0.03043,0.0909 0.03125,0.09375 8.22e-4,0.0029 0.03029,0.09094 0.03125,0.09375 9.61e-4,0.0028 0.03015,0.09099 0.03125,0.09375 0.0011,0.0028 0.03002,0.09105 0.03125,0.09375 0.0012,0.0027 0.06114,0.09111 0.0625,0.09375 0.0014,0.0026 0.02976,0.05993 0.03125,0.0625 0.0015,0.0026 0.06088,0.09126 0.0625,0.09375 0.0016,0.0025 0.06076,0.09134 0.0625,0.09375 0.0017,0.0024 0.06065,0.06018 0.0625,0.0625 0.0019,0.0023 0.06053,0.09152 0.0625,0.09375 0.002,0.0022 0.06043,0.06037 0.0625,0.0625 0.0021,0.0021 0.06032,0.06048 0.0625,0.0625 0.0022,0.002 0.06023,0.06059 0.0625,0.0625 0.0023,0.0019 0.09139,0.0607 0.09375,0.0625 0.0024,0.0018 0.0913,0.06082 0.09375,0.0625 0.0025,0.0017 0.05997,0.06094 0.0625,0.0625 0.0025,0.0016 0.09115,0.02982 0.09375,0.03125 0.0026,0.0014 0.09108,0.0612 0.09375,0.0625 0.0027,0.0013 0.09102,0.03008 0.09375,0.03125 0.0027,0.0012 0.09096,0.03022 0.09375,0.03125 0.0028,0.001 0.09092,0.03036 0.09375,0.03125 0.002,6.24e-4 0.03502,0.02336 0.0625,0.03125 0.01178,0.0034 0.03039,-2.25e-4 0.03125,0 L 65,71.59375 c 3.723384,0.997678 7.595663,-1.212586 8.59375,-4.9375 L 76.1875,57 c 0.893855,-3.335911 -0.864185,-6.693682 -3.90625,-8.09375 0.0025,-0.0016 0.09134,-0.06076 0.09375,-0.0625 0.0024,-0.0017 0.06018,-0.06065 0.0625,-0.0625 0.0023,-0.0019 0.09152,-0.06053 0.09375,-0.0625 0.0022,-0.002 0.06037,-0.06043 0.0625,-0.0625 0.0021,-0.0021 0.06048,-0.06032 0.0625,-0.0625 0.002,-0.0022 0.06059,-0.06023 0.0625,-0.0625 0.0019,-0.0023 0.0607,-0.09139 0.0625,-0.09375 0.0018,-0.0024 0.06082,-0.0913 0.0625,-0.09375 0.0017,-0.0025 0.06094,-0.05997 0.0625,-0.0625 0.0016,-0.0025 0.02982,-0.09115 0.03125,-0.09375 0.0014,-0.0026 0.0612,-0.09108 0.0625,-0.09375 0.0013,-0.0027 0.03008,-0.09102 0.03125,-0.09375 0.0012,-0.0027 0.03022,-0.09096 0.03125,-0.09375 0.001,-0.0028 0.03036,-0.09092 0.03125,-0.09375 6.24e-4,-0.002 0.02336,-0.03502 0.03125,-0.0625 0.0034,-0.01178 -2.25e-4,-0.03039 0,-0.03125 1.173865,-4.402031 1.179229,-9.067808 0,-13.46875 C 69.993051,22.561409 59.371257,14.884412 47.78125,15 Z" />
    <path
       style="color:#000000;display:inline;overflow:visible;visibility:visible;opacity:0.15;fill:#000000;fill-opacity:1;fill-rule:nonzero;stroke:none;stroke-width:1.5;marker:none;enable-background:accumulate"
       id="path3769"
       d="M 47.78125,15.90625 C 45.714526,15.92686 43.594117,16.188883 41.5,16.75 28.124273,20.334016 20.166141,34.124857 23.75,47.5 a 1.0956098,1.0956098 0 0 0 1.34375,0.78125 L 29,47.25 a 1.0956098,1.0956098 0 0 0 0.78125,-1.34375 C 29.355658,44.322761 29.09375,42.689626 29.09375,41 29.09375,30.546357 37.546357,22.09375 48,22.09375 c 10.453643,0 18.90625,8.452607 18.90625,18.90625 0,1.689626 -0.261908,3.322761 -0.6875,4.90625 A 1.0956098,1.0956098 0 0 0 67,47.25 l 3.90625,1.03125 A 1.0956098,1.0956098 0 0 0 72.25,47.5 c 1.140294,-4.255638 1.140295,-8.744362 0,-13 C 69.22606,23.214502 58.960988,15.794754 47.78125,15.90625 Z m -17.625,32.03125 a 1.0956098,1.0956098 0 0 0 -0.1875,0.03125 l -4.84375,1.3125 c -3.244135,0.869262 -5.181344,4.226182 -4.3125,7.46875 l 2.59375,9.65625 c 0.869263,3.244135 4.226182,5.181344 7.46875,4.3125 l 4.8125,-1.28125 a 1.0956098,1.0956098 0 0 0 0.78125,-1.34375 L 31.3125,48.75 a 1.0956098,1.0956098 0 0 0 -1.15625,-0.8125 z m 35.5625,0 A 1.0956098,1.0956098 0 0 0 64.8125,48.75 l -5.15625,19.34375 a 1.0956098,1.0956098 0 0 0 0.78125,1.34375 l 4.8125,1.28125 c 3.242568,0.868844 6.599487,-1.068365 7.46875,-4.3125 L 75.3125,56.75 C 76.181344,53.507432 74.244135,50.150512 71,49.28125 l -4.84375,-1.3125 a 1.0956098,1.0956098 0 0 0 -0.4375,-0.03125 z" />
    <path
       style="color:#000000;display:inline;overflow:visible;visibility:visible;opacity:0.3;fill:#000000;fill-opacity:1;fill-rule:nonzero;stroke:none;stroke-width:1.5;marker:none;enable-background:accumulate"
       id="path3765"
       d="m 47.78125,17 c -1.979448,0.01974 -3.999502,0.276468 -6,0.8125 C 28.978063,21.243104 21.381896,34.415563 24.8125,47.21875 L 28.71875,46.1875 C 28.272742,44.528051 28,42.800272 28,41 28,29.954305 36.954305,21 48,21 c 11.045695,0 20,8.954305 20,20 0,1.800272 -0.272742,3.528051 -0.71875,5.1875 l 3.90625,1.03125 c 1.090373,-4.069329 1.090374,-8.368171 0,-12.4375 C 68.292928,23.978561 58.47027,16.893398 47.78125,17 Z M 30.25,49.03125 l -4.84375,1.3125 c -2.675615,0.716928 -4.248179,3.449386 -3.53125,6.125 l 2.59375,9.65625 c 0.716929,2.675615 3.449386,4.248179 6.125,3.53125 l 4.8125,-1.28125 z m 35.625,0 -5.15625,19.34375 4.8125,1.28125 c 2.675614,0.716929 5.408071,-0.855635 6.125,-3.53125 L 74.25,56.46875 c 0.716929,-2.675614 -0.855635,-5.408072 -3.53125,-6.125 z" />
    <path
       style="color:#000000;display:inline;overflow:visible;visibility:visible;fill:#fefefe;fill-opacity:1;fill-rule:nonzero;stroke:none;stroke-width:1.5;marker:none;enable-background:accumulate"
       id="path3748"
       d="m 47.78125,16 c -1.979448,0.01974 -3.999502,0.276468 -6,0.8125 C 28.978063,20.243104 21.381896,33.415563 24.8125,46.21875 L 28.71875,45.1875 C 28.272742,43.528051 28,41.800272 28,40 28,28.954305 36.954305,20 48,20 c 11.045695,0 20,8.954305 20,20 0,1.800272 -0.272742,3.528051 -0.71875,5.1875 l 3.90625,1.03125 c 1.090373,-4.069329 1.090374,-8.368171 0,-12.4375 C 68.292928,22.978561 58.47027,15.893398 47.78125,16 Z M 30.25,48.03125 l -4.84375,1.3125 c -2.675615,0.716928 -4.248179,3.449386 -3.53125,6.125 l 2.59375,9.65625 c 0.716929,2.675615 3.449386,4.248179 6.125,3.53125 l 4.8125,-1.28125 z m 35.625,0 -5.15625,19.34375 4.8125,1.28125 c 2.675614,0.716929 5.408071,-0.855635 6.125,-3.53125 L 74.25,55.46875 c 0.716929,-2.675614 -0.855635,-5.408072 -3.53125,-6.125 z" />
  </g>
</svg>
