<?xml version="1.0" encoding="UTF-8" standalone="no"?>
<svg
   xmlns:dc="http://purl.org/dc/elements/1.1/"
   xmlns:cc="http://creativecommons.org/ns#"
   xmlns:rdf="http://www.w3.org/1999/02/22-rdf-syntax-ns#"
   xmlns:svg="http://www.w3.org/2000/svg"
   xmlns="http://www.w3.org/2000/svg"
   xmlns:xlink="http://www.w3.org/1999/xlink"
   version="1.0"
   width="96"
   height="96"
   id="svg2408">
  <defs
     id="defs2410">
    <linearGradient
       id="linearGradient899">
      <stop
         id="stop895"
         offset="0"
         style="stop-color:#c8c8c8;stop-opacity:1" />
      <stop
         id="stop897"
         offset="1"
         style="stop-color:#a0a0a0;stop-opacity:0.98823529" />
    </linearGradient>
    <linearGradient
       id="linearGradient867">
      <stop
         style="stop-color:#a0a0a0;stop-opacity:1"
         offset="0"
         id="stop863" />
      <stop
         style="stop-color:#f0f0f0;stop-opacity:0.98823529"
         offset="1"
         id="stop865" />
    </linearGradient>
    <linearGradient
       id="linearGradient4280">
      <stop
         id="stop4284"
         style="stop-color:#f0f0f0;stop-opacity:1"
         offset="0" />
      <stop
         id="stop4282"
         style="stop-color:#c6c6c6;stop-opacity:1"
         offset="1" />
    </linearGradient>
    <linearGradient
       x1="45.447727"
       y1="92.539597"
       x2="45.447727"
       y2="7.0165396"
       id="ButtonShadow"
       gradientUnits="userSpaceOnUse"
       gradientTransform="scale(1.0058652,0.994169)">
      <stop
         id="stop3750"
         style="stop-color:#000000;stop-opacity:1"
         offset="0" />
      <stop
         id="stop3752"
         style="stop-color:#000000;stop-opacity:0.58823532"
         offset="1" />
    </linearGradient>
    <linearGradient
       id="linearGradient3737">
      <stop
         id="stop3739"
         style="stop-color:#fefefe;stop-opacity:1"
         offset="0" />
      <stop
         id="stop3741"
         style="stop-color:#fefefe;stop-opacity:0"
         offset="1" />
    </linearGradient>
    <filter
       color-interpolation-filters="sRGB"
       id="filter3174">
      <feGaussianBlur
         id="feGaussianBlur3176"
         stdDeviation="1.71" />
    </filter>
    <linearGradient
       x1="36.357143"
       y1="6"
       x2="36.357143"
       y2="63.893143"
       id="linearGradient3188"
       xlink:href="#linearGradient3737"
       gradientUnits="userSpaceOnUse" />
    <radialGradient
       cx="48"
       cy="90.171875"
       r="42"
       fx="48"
       fy="90.171875"
       id="radialGradient3619"
       xlink:href="#linearGradient3737"
       gradientUnits="userSpaceOnUse"
       gradientTransform="matrix(1.1573129,0,0,0.99590774,-7.5510206,0.19713193)" />
    <linearGradient
       x1="48"
       y1="90"
       x2="48"
       y2="-32"
       id="linearGradient3617"
       xlink:href="#linearGradient4280"
       gradientUnits="userSpaceOnUse"
       gradientTransform="translate(0,-96)" />
    <linearGradient
       x1="45.447727"
       y1="92.539597"
       x2="45.447727"
       y2="7.0165396"
       id="ButtonShadow-0"
       gradientUnits="userSpaceOnUse"
       gradientTransform="matrix(1.0058652,0,0,0.994169,100,0)">
      <stop
         id="stop3750-8"
         style="stop-color:#000000;stop-opacity:1"
         offset="0" />
      <stop
         id="stop3752-5"
         style="stop-color:#000000;stop-opacity:0.58823532"
         offset="1" />
    </linearGradient>
    <linearGradient
       x1="32.251034"
       y1="6.1317081"
       x2="32.251034"
       y2="90.238609"
       id="linearGradient3780"
       xlink:href="#ButtonShadow-0"
       gradientUnits="userSpaceOnUse"
       gradientTransform="matrix(1.0238095,0,0,-1.0119048,-1.1428571,98.071429)" />
    <linearGradient
       x1="32.251034"
       y1="6.1317081"
       x2="32.251034"
       y2="90.238609"
       id="linearGradient3772"
       xlink:href="#ButtonShadow-0"
       gradientUnits="userSpaceOnUse"
       gradientTransform="matrix(1.0238095,0,0,-1.0119048,-1.1428571,98.071429)" />
    <linearGradient
       x1="32.251034"
       y1="6.1317081"
       x2="32.251034"
       y2="90.238609"
       id="linearGradient3725"
       xlink:href="#ButtonShadow-0"
       gradientUnits="userSpaceOnUse"
       gradientTransform="matrix(1.0238095,0,0,1.0119048,-1.1428571,-98.071429)" />
    <linearGradient
       x1="32.251034"
       y1="6.1317081"
       x2="32.251034"
       y2="90.238609"
       id="linearGradient3721"
       xlink:href="#ButtonShadow-0"
       gradientUnits="userSpaceOnUse"
       gradientTransform="translate(0,-97)" />
    <linearGradient
       x1="32.251034"
       y1="6.1317081"
       x2="32.251034"
       y2="90.238609"
       id="linearGradient2918"
       xlink:href="#ButtonShadow-0"
       gradientUnits="userSpaceOnUse"
       gradientTransform="matrix(1.0238095,0,0,-1.0119048,-1.1428571,98.071429)" />
    <linearGradient
       id="linearGradient4776">
      <stop
         style="stop-color:#1d99f3;stop-opacity:1"
         offset="0"
         id="stop4778" />
      <stop
         id="stop4780"
         offset="1"
         style="stop-color:#2972a7;stop-opacity:1" />
    </linearGradient>
    <linearGradient
       id="linearGradient5617">
      <stop
         id="stop5619"
         offset="0"
         style="stop-color:#9559b6;stop-opacity:1;" />
      <stop
         style="stop-color:#8e44ad;stop-opacity:1;"
         offset="1"
         id="stop5621" />
    </linearGradient>
    <linearGradient
       xlink:href="#linearGradient867"
       id="linearGradient869"
       x1="68.934395"
       y1="24.340015"
       x2="68.9282"
       y2="61.965019"
       gradientUnits="userSpaceOnUse"
       gradientTransform="matrix(1.1625301,0,0,1.1389522,-14.194804,-8.637483)" />
    <linearGradient
       xlink:href="#linearGradient899"
       id="linearGradient869-3"
       x1="68.934395"
       y1="24.340015"
       x2="68.9282"
       y2="61.965019"
       gradientUnits="userSpaceOnUse"
       gradientTransform="matrix(1.2838771,0,0,1.2528475,-20.865473,-14.411732)" />
    <linearGradient
       y2="36"
       x2="24"
       y1="12"
       x1="24"
       gradientUnits="userSpaceOnUse"
       id="linearGradient3937"
       xlink:href="#linearGradient3912"
       gradientTransform="translate(-0.00275081,-1.0129998)" />
    <linearGradient
       id="linearGradient3912">
      <stop
         id="stop3914"
         offset="0"
         style="stop-color:#5d5d5d;stop-opacity:1;" />
      <stop
         id="stop3916"
         offset="1"
         style="stop-color:#989898;stop-opacity:1;" />
    </linearGradient>
    <linearGradient
       gradientTransform="matrix(-10.879,51.573,-55.925,-10.033,115.314,55.906)"
       y2="0"
       x2="1"
       y1="0"
       x1="0"
       gradientUnits="userSpaceOnUse"
       id="Gradient_1">
      <stop
         id="stop2"
         stop-color="#FF2F00"
         offset="0" />
      <stop
         id="stop4"
         stop-color="#FF2F00"
         offset="0.07" />
      <stop
         id="stop6"
         stop-color="#FF8400"
         offset="1" />
    </linearGradient>
    <linearGradient
       gradientTransform="matrix(24.87,0,0,24.689,97.286,52.662)"
       y2="0"
       x2="1"
       y1="0"
       x1="0"
       gradientUnits="userSpaceOnUse"
       id="Gradient_2">
      <stop
         id="stop9"
         stop-color="#FF2F00"
         offset="0" />
      <stop
         id="stop11"
         stop-color="#FF8900"
         offset="1" />
    </linearGradient>
    <linearGradient
       gradientTransform="matrix(68.978,0,0,70.77,37.204,17.652)"
       y2="0"
       x2="1"
       y1="0"
       x1="0"
       gradientUnits="userSpaceOnUse"
       id="Gradient_3">
      <stop
         id="stop14"
         stop-color="#2147A0"
         offset="0" />
      <stop
         id="stop16"
         stop-color="#00F2A1"
         offset="1" />
    </linearGradient>
    <linearGradient
       gradientTransform="matrix(45.982,0,0,51.587,23.818,17.568)"
       y2="0"
       x2="1"
       y1="0"
       x1="0"
       gradientUnits="userSpaceOnUse"
       id="Gradient_4">
      <stop
         id="stop19"
         stop-color="#204EA0"
         offset="0" />
      <stop
         id="stop21"
         stop-color="#01F0A1"
         offset="1" />
    </linearGradient>
    <linearGradient
       gradientTransform="matrix(20.249,34.848,-33.693,20.943,78.418,93.962)"
       y2="0"
       x2="1"
       y1="0"
       x1="0"
       gradientUnits="userSpaceOnUse"
       id="Gradient_5">
      <stop
         id="stop24"
         stop-color="#F0C209"
         offset="0" />
      <stop
         id="stop26"
         stop-color="#F0C209"
         offset="0.14" />
      <stop
         id="stop28"
         stop-color="#DE920A"
         offset="0.63" />
      <stop
         id="stop30"
         stop-color="#D67C0B"
         offset="1" />
    </linearGradient>
    <linearGradient
       gradientTransform="matrix(26.051,45.434,-43.36,27.297,40.828,90.812)"
       y2="0"
       x2="1"
       y1="0"
       x1="0"
       gradientUnits="userSpaceOnUse"
       id="Gradient_6">
      <stop
         id="stop33"
         stop-color="#F0C209"
         offset="0" />
      <stop
         id="stop35"
         stop-color="#F0C209"
         offset="0.14" />
      <stop
         id="stop37"
         stop-color="#D4760B"
         offset="1" />
    </linearGradient>
    <linearGradient
       gradientTransform="matrix(-35.942,54.407,-51.313,-38.109,41.57,45.214)"
       y2="0"
       x2="1"
       y1="0"
       x1="0"
       gradientUnits="userSpaceOnUse"
       id="Gradient_7">
      <stop
         id="stop40"
         stop-color="#B1115D"
         offset="0" />
      <stop
         id="stop42"
         stop-color="#B1115D"
         offset="0.14" />
      <stop
         id="stop44"
         stop-color="#D72881"
         offset="1" />
    </linearGradient>
    <linearGradient
       gradientTransform="matrix(25.635,0,0,22.663,7.08,62.99)"
       y2="0"
       x2="1"
       y1="0"
       x1="0"
       gradientUnits="userSpaceOnUse"
       id="Gradient_8">
      <stop
         id="stop47"
         stop-color="#B1115D"
         offset="0" />
      <stop
         id="stop49"
         stop-color="#D62881"
         offset="1" />
    </linearGradient>
  </defs>
  <metadata
     id="metadata2413">
    <rdf:RDF>
      <cc:Work
         rdf:about="">
        <dc:format>image/svg+xml</dc:format>
        <dc:type
           rdf:resource="http://purl.org/dc/dcmitype/StillImage" />
        <dc:title></dc:title>
      </cc:Work>
    </rdf:RDF>
  </metadata>
  <g
     id="layer2"
     style="display:none">
    <rect
       width="86"
       height="85"
       rx="6"
       ry="6"
       x="5"
       y="7"
       id="rect3745"
       style="opacity:0.9;fill:url(#ButtonShadow);fill-opacity:1;fill-rule:nonzero;stroke:none;filter:url(#filter3174)" />
  </g>
  <path
     style="display:inline;opacity:0.07999998;fill:url(#linearGradient2918);fill-opacity:1;fill-rule:nonzero;stroke:none"
     id="path3786"
     d="M 12,95.03125 C 6.4889097,95.03125 1.96875,90.51109 1.96875,85 l 0,-71 C 1.96875,8.4889098 6.4889098,3.96875 12,3.96875 l 72,0 c 5.51109,0 10.03125,4.5201597 10.03125,10.03125 l 0,71 c 0,5.51109 -4.52016,10.03125 -10.03125,10.03125 l -72,0 z" />
  <path
     style="display:inline;opacity:0.1;fill:url(#linearGradient3780);fill-opacity:1;fill-rule:nonzero;stroke:none"
     id="path3778-9"
     d="M 12,94.03125 C 7.028367,94.03125 2.96875,89.971633 2.96875,85 l 0,-71 C 2.96875,9.0283671 7.0283671,4.96875 12,4.96875 l 72,0 c 4.971633,0 9.03125,4.059617 9.03125,9.03125 l 0,71 c 0,4.971633 -4.059617,9.03125 -9.03125,9.03125 l -72,0 z" />
  <path
     style="display:inline;opacity:0.2;fill:url(#linearGradient3772);fill-opacity:1;fill-rule:nonzero;stroke:none"
     id="path3770"
     d="M 12,93 C 7.5908667,93 4,89.409133 4,85 L 4,14 C 4,9.5908667 7.5908667,6 12,6 l 72,0 c 4.409133,0 8,3.5908667 8,8 l 0,71 c 0,4.409133 -3.590867,8 -8,8 l -72,0 z" />
  <rect
     style="display:inline;opacity:0.3;fill:url(#linearGradient3725);fill-opacity:1;fill-rule:nonzero;stroke:none"
     id="rect3723"
     transform="scale(1,-1)"
     y="-92"
     x="5"
     ry="7"
     rx="7"
     height="85"
     width="86" />
  <rect
     style="display:inline;opacity:0.45;fill:url(#linearGradient3721);fill-opacity:1;fill-rule:nonzero;stroke:none"
     id="rect3716"
     transform="scale(1,-1)"
     y="-91"
     x="6"
     ry="6"
     rx="6"
     height="84"
     width="84" />
  <rect
     style="opacity:1;fill:url(#linearGradient3617);fill-opacity:1;fill-rule:nonzero;stroke:none"
     id="rect2419"
     transform="scale(1,-1)"
     y="-90"
     x="6"
     ry="6"
     rx="6"
     height="84"
     width="84" />
  <path
     style="opacity:0.5;fill:url(#linearGradient3188);fill-opacity:1;fill-rule:nonzero;stroke:none"
     id="rect3728"
     d="M 12,6 C 8.676,6 6,8.676 6,12 l 0,2 0,68 0,2 c 0,0.334721 0.04135,0.6507 0.09375,0.96875 0.0487,0.295596 0.09704,0.596915 0.1875,0.875 0.00988,0.03038 0.020892,0.0636 0.03125,0.09375 0.098865,0.287771 0.2348802,0.547452 0.375,0.8125 0.1445918,0.273507 0.3156161,0.535615 0.5,0.78125 0.1843839,0.245635 0.3737765,0.473472 0.59375,0.6875 0.439947,0.428056 0.94291,0.814526 1.5,1.09375 0.278545,0.139612 0.5734731,0.246947 0.875,0.34375 -0.2562018,-0.100222 -0.4867109,-0.236272 -0.71875,-0.375 -0.00741,-0.0044 -0.023866,0.0045 -0.03125,0 -0.031933,-0.0193 -0.062293,-0.04251 -0.09375,-0.0625 -0.120395,-0.0767 -0.2310226,-0.163513 -0.34375,-0.25 -0.1061728,-0.0808 -0.2132809,-0.161112 -0.3125,-0.25 C 8.4783201,88.557317 8.3087904,88.373362 8.15625,88.1875 8.0486711,88.057245 7.9378561,87.922215 7.84375,87.78125 7.818661,87.74287 7.805304,87.69538 7.78125,87.65625 7.716487,87.553218 7.6510225,87.451733 7.59375,87.34375 7.4927417,87.149044 7.3880752,86.928049 7.3125,86.71875 7.30454,86.69694 7.288911,86.6782 7.28125,86.65625 7.2494249,86.5643 7.2454455,86.469419 7.21875,86.375 7.1884177,86.268382 7.1483606,86.171969 7.125,86.0625 7.0521214,85.720988 7,85.364295 7,85 L 7,83 7,15 7,13 C 7,10.218152 9.2181517,8 12,8 l 2,0 68,0 2,0 c 2.781848,0 5,2.218152 5,5 l 0,2 0,68 0,2 c 0,0.364295 -0.05212,0.720988 -0.125,1.0625 -0.04415,0.206893 -0.08838,0.397658 -0.15625,0.59375 -0.0077,0.02195 -0.0233,0.04069 -0.03125,0.0625 -0.06274,0.173739 -0.138383,0.367449 -0.21875,0.53125 -0.04158,0.0828 -0.07904,0.169954 -0.125,0.25 -0.0546,0.09721 -0.126774,0.18835 -0.1875,0.28125 -0.09411,0.140965 -0.204921,0.275995 -0.3125,0.40625 -0.143174,0.17445 -0.303141,0.346998 -0.46875,0.5 -0.01117,0.0102 -0.01998,0.02115 -0.03125,0.03125 -0.138386,0.125556 -0.285091,0.234436 -0.4375,0.34375 -0.102571,0.07315 -0.204318,0.153364 -0.3125,0.21875 -0.0074,0.0045 -0.02384,-0.0044 -0.03125,0 -0.232039,0.138728 -0.462548,0.274778 -0.71875,0.375 0.301527,-0.0968 0.596455,-0.204138 0.875,-0.34375 0.55709,-0.279224 1.060053,-0.665694 1.5,-1.09375 0.219973,-0.214028 0.409366,-0.441865 0.59375,-0.6875 0.184384,-0.245635 0.355408,-0.507743 0.5,-0.78125 0.14012,-0.265048 0.276135,-0.524729 0.375,-0.8125 0.01041,-0.03078 0.02133,-0.06274 0.03125,-0.09375 0.09046,-0.278085 0.1388,-0.579404 0.1875,-0.875 C 89.95865,84.6507 90,84.334721 90,84 l 0,-2 0,-68 0,-2 C 90,8.676 87.324,6 84,6 L 12,6 Z" />
  <path
     style="opacity:0.3;fill:url(#radialGradient3619);fill-opacity:1;fill-rule:nonzero;stroke:none"
     id="path3615"
     d="M 12,90 C 8.676,90 6,87.324 6,84 L 6,82 6,14 6,12 c 0,-0.334721 0.04135,-0.6507 0.09375,-0.96875 0.0487,-0.295596 0.09704,-0.596915 0.1875,-0.875 C 6.29113,10.12587 6.302142,10.09265 6.3125,10.0625 6.411365,9.774729 6.5473802,9.515048 6.6875,9.25 6.8320918,8.976493 7.0031161,8.714385 7.1875,8.46875 7.3718839,8.223115 7.5612765,7.995278 7.78125,7.78125 8.221197,7.353194 8.72416,6.966724 9.28125,6.6875 9.559795,6.547888 9.8547231,6.440553 10.15625,6.34375 9.9000482,6.443972 9.6695391,6.580022 9.4375,6.71875 c -0.00741,0.0044 -0.023866,-0.0045 -0.03125,0 -0.031933,0.0193 -0.062293,0.04251 -0.09375,0.0625 -0.120395,0.0767 -0.2310226,0.163513 -0.34375,0.25 -0.1061728,0.0808 -0.2132809,0.161112 -0.3125,0.25 C 8.4783201,7.442683 8.3087904,7.626638 8.15625,7.8125 8.0486711,7.942755 7.9378561,8.077785 7.84375,8.21875 7.818661,8.25713 7.805304,8.30462 7.78125,8.34375 7.716487,8.446782 7.6510225,8.548267 7.59375,8.65625 7.4927417,8.850956 7.3880752,9.071951 7.3125,9.28125 7.30454,9.30306 7.288911,9.3218 7.28125,9.34375 7.2494249,9.4357 7.2454455,9.530581 7.21875,9.625 7.1884177,9.731618 7.1483606,9.828031 7.125,9.9375 7.0521214,10.279012 7,10.635705 7,11 l 0,2 0,68 0,2 c 0,2.781848 2.2181517,5 5,5 l 2,0 68,0 2,0 c 2.781848,0 5,-2.218152 5,-5 l 0,-2 0,-68 0,-2 C 89,10.635705 88.94788,10.279012 88.875,9.9375 88.83085,9.730607 88.78662,9.539842 88.71875,9.34375 88.71105,9.3218 88.69545,9.30306 88.6875,9.28125 88.62476,9.107511 88.549117,8.913801 88.46875,8.75 88.42717,8.6672 88.38971,8.580046 88.34375,8.5 88.28915,8.40279 88.216976,8.31165 88.15625,8.21875 88.06214,8.077785 87.951329,7.942755 87.84375,7.8125 87.700576,7.63805 87.540609,7.465502 87.375,7.3125 87.36383,7.3023 87.35502,7.29135 87.34375,7.28125 87.205364,7.155694 87.058659,7.046814 86.90625,6.9375 86.803679,6.86435 86.701932,6.784136 86.59375,6.71875 c -0.0074,-0.0045 -0.02384,0.0044 -0.03125,0 -0.232039,-0.138728 -0.462548,-0.274778 -0.71875,-0.375 0.301527,0.0968 0.596455,0.204138 0.875,0.34375 0.55709,0.279224 1.060053,0.665694 1.5,1.09375 0.219973,0.214028 0.409366,0.441865 0.59375,0.6875 0.184384,0.245635 0.355408,0.507743 0.5,0.78125 0.14012,0.265048 0.276135,0.524729 0.375,0.8125 0.01041,0.03078 0.02133,0.06274 0.03125,0.09375 0.09046,0.278085 0.1388,0.579404 0.1875,0.875 C 89.95865,11.3493 90,11.665279 90,12 l 0,2 0,68 0,2 c 0,3.324 -2.676,6 -6,6 l -72,0 z" />
  <g
     id="Layer_1"
     transform="matrix(0.62500092,0,0,0.62500092,7.3750518,8.1884645)">
    <path
       id="logo-outline2-0"
       d="m 93.26,97.462 0.388,0.27 13.504,13.504 0.3,0.458 0.094,0.54 -0.13,0.532 -0.33,0.436 c -0.616,0.534 -1.238,1.06 -1.87,1.572 -1.164,0.942 -2.36,1.842 -3.586,2.7 -3.59,2.512 -7.436,4.654 -11.46,6.378 -1.27,0.546 -2.558,1.048 -3.862,1.508 -0.458,0.162 -0.918,0.32 -1.378,0.47 -0.198,0.066 -0.396,0.13 -0.594,0.192 0,0 0,-0.002 0,-0.002 -0.002,0.002 -0.002,0.002 -0.004,0.004 -0.016,0.004 -0.034,0.01 -0.05,0.016 -0.002,0 -0.004,0 -0.006,0 0,0 0.002,0 0.002,0 -0.286,0.092 -0.572,0.178 -0.858,0.264 -0.622,0.188 -1.248,0.366 -1.876,0.534 -1.852,0.494 -3.726,0.906 -5.616,1.23 -3.452,0.596 -6.952,0.904 -10.456,0.93 -2.414,0.018 -4.83,-0.098 -7.232,-0.352 -2.552,-0.268 -5.086,-0.69 -7.588,-1.264 -3.76,-0.862 -7.442,-2.07 -10.986,-3.6 -1.494,-0.646 -2.964,-1.348 -4.406,-2.106 -0.718,-0.378 -1.428,-0.77 -2.13,-1.174 l -0.112,-0.064 -0.108,-0.064 -0.47,-0.292 -0.468,-0.272 c -0.206,-0.114 -0.316,-0.192 -0.49,-0.29 -0.004,-0.002 -0.28,-0.174 -0.282,-0.176 -0.236,-0.146 -0.472,-0.296 -0.706,-0.446 -0.56,-0.36 -1.116,-0.728 -1.664,-1.106 -1.326,-0.91 -2.616,-1.87 -3.87,-2.876 -0.648,-0.52 -1.284,-1.054 -1.912,-1.598 l -0.124,-0.108 -0.33,-0.436 -0.13,-0.53 0.092,-0.54 0.3,-0.458 8.38,-8.398 0.436,-0.292 0.516,-0.104 0.514,0.102 0.438,0.292 0.292,0.436 0.102,0.516 v 13.524 l 16.096,-16.734 0.44,-0.304 0.526,-0.108 20.26,-0.034 h 12.05 l 1.702,-0.062 c 0.512,-0.062 1.026,-0.108 1.538,-0.184 0.244,-0.038 0.486,-0.102 0.728,-0.152 0.704,-0.15 0.706,-0.144 1.39,-0.362 0.156,-0.05 0.844,-0.278 1.072,-0.368 0.158,-0.062 0.62,-0.266 0.78,-0.346 0.27,-0.136 0.49,-0.27 0.748,-0.42 0.132,-0.078 0.264,-0.154 0.396,-0.232 0.114,-0.066 0.23,-0.126 0.338,-0.196 0.106,-0.07 0.206,-0.15 0.308,-0.224 l 0.426,-0.208 0.47,-0.046 c 0.154,0.04 0.306,0.08 0.458,0.12 z M 112.788,22.61 c 0.146,0.11 0.296,0.214 0.436,0.33 0.036,0.03 0.062,0.072 0.094,0.108 0.096,0.11 0.192,0.22 0.286,0.332 0.252,0.294 0.504,0.592 0.75,0.892 0.774,0.936 1.522,1.894 2.242,2.874 2.838,3.862 5.244,8.04 7.15,12.436 1.622,3.74 2.884,7.636 3.76,11.618 0.282,1.282 0.524,2.574 0.726,3.872 0.072,0.452 0.138,0.904 0.198,1.358 0.02,0.152 0.04,0.304 0.06,0.456 0.006,0.05 0.014,0.102 0.018,0.154 0,0 0,-0.002 0,-0.002 0.032,0.244 0.06,0.49 0.088,0.734 0.06,0.534 0.112,1.068 0.16,1.602 0.148,1.702 0.228,3.412 0.242,5.122 0.03,3.874 -0.286,7.75 -0.952,11.566 -0.672,3.846 -1.698,7.63 -3.064,11.288 -1.71,4.582 -3.95,8.964 -6.66,13.036 -1.004,1.51 -2.07,2.976 -3.198,4.394 -0.546,0.686 -1.104,1.358 -1.676,2.022 l -0.116,0.132 -0.112,0.13 -0.436,0.332 -0.532,0.13 -0.54,-0.094 -0.458,-0.3 -14.922,-14.92 c -0.084,-0.116 -0.186,-0.22 -0.25,-0.348 -0.064,-0.128 -0.108,-0.268 -0.13,-0.41 -0.058,-0.398 0.162,-1.302 0.198,-1.51 l 0.124,-1.092 C 96.37,87.674 96.37,87.674 96.4,86.492 V 43.438 C 96.38,42.654 96.37,41.84 96.306,41.056 96.274,40.686 96.23,40.318 96.182,39.95 96.164,39.814 96.018,39.048 95.994,38.918 l -0.01,-0.434 c 0.128,-0.412 0.13,-0.416 0.382,-0.766 l 14.894,-14.848 0.458,-0.298 0.538,-0.092 c 0.178,0.042 0.354,0.086 0.532,0.13 z M 18.282,22.572 18.74,22.87 33.634,37.718 c 0.084,0.118 0.19,0.224 0.256,0.356 0.064,0.132 0.108,0.276 0.128,0.42 0.042,0.328 -0.082,0.768 -0.14,1.068 l -0.094,0.622 C 33.692,40.82 33.692,40.82 33.63,41.46 l -0.064,1.982 v 48.28 l -0.102,0.514 -0.292,0.436 -14.442,14.444 -0.458,0.3 -0.538,0.092 -0.532,-0.13 -0.436,-0.33 c -0.5,-0.574 -0.99,-1.154 -1.468,-1.744 -0.412,-0.506 -0.816,-1.018 -1.21,-1.538 -0.132,-0.172 -0.264,-0.346 -0.394,-0.52 -0.032,-0.044 -0.064,-0.088 -0.098,-0.132 -0.032,-0.042 -0.064,-0.086 -0.096,-0.128 0,0 0.002,0 0.002,0 -0.032,-0.042 -0.064,-0.084 -0.094,-0.126 -0.03,-0.042 -0.062,-0.084 -0.092,-0.126 -0.092,-0.124 -0.182,-0.25 -0.272,-0.376 -0.302,-0.418 -0.6,-0.842 -0.892,-1.268 C 9.51,97.23 7.292,93.082 5.554,88.738 3.88,84.556 2.654,80.196 1.902,75.754 1.308,72.258 1.01,68.712 1,65.166 0.992,62.138 1.196,59.108 1.614,56.108 c 0.36,-2.58 0.876,-5.138 1.55,-7.654 0.692,-2.592 1.55,-5.14 2.566,-7.624 1.712,-4.194 3.876,-8.202 6.436,-11.94 0.924,-1.348 1.9,-2.664 2.926,-3.938 0.51,-0.638 1.036,-1.264 1.57,-1.882 l 0.114,-0.13 0.436,-0.33 0.532,-0.13 c 0.178,0.03 0.358,0.06 0.538,0.092 z m 28.772,7.282 c -0.736,0.018 -1.538,0.028 -2.274,0.094 -0.75,0.066 -1.256,0.154 -1.992,0.306 -0.318,0.066 -0.634,0.13 -0.948,0.214 -0.294,0.078 -0.582,0.172 -0.87,0.27 -0.272,0.092 -0.544,0.19 -0.808,0.3 -0.426,0.176 -0.76,0.34 -1.146,0.558 -0.114,0.064 -0.23,0.128 -0.34,0.198 -0.272,0.168 -0.422,0.286 -0.682,0.474 l -0.424,0.206 c -0.41,0.042 -0.538,0.108 -0.93,-0.072 -0.142,-0.066 -0.258,-0.18 -0.388,-0.27 l -13.384,-13.386 -0.302,-0.458 -0.092,-0.54 0.13,-0.532 0.33,-0.436 c 0.308,-0.268 0.618,-0.532 0.93,-0.796 0.626,-0.526 1.262,-1.04 1.906,-1.54 1.942,-1.508 3.968,-2.906 6.068,-4.182 2.618,-1.59 5.35,-2.992 8.168,-4.19 2.632,-1.118 5.338,-2.06 8.098,-2.814 C 51.562,2.312 55.098,1.662 58.666,1.31 59.96,1.182 61.26,1.094 62.56,1.046 63.248,1.02 63.936,1.006 64.624,1.002 64.8,1 64.978,1 65.154,1 c 0.668,0.002 1.336,0.014 2.002,0.036 0.612,0.02 1.224,0.048 1.834,0.086 0.202,0.014 0.406,0.026 0.608,0.04 0.054,0.004 0.248,0.018 0.302,0.024 0.002,0 0.004,0 0.004,0 0,0 0,0 0,0 0.074,0.006 0.148,0.01 0.222,0.016 0.224,0.018 0.448,0.038 0.672,0.058 3.536,0.318 7.044,0.93 10.476,1.832 2.826,0.742 5.6,1.678 8.298,2.802 2.666,1.11 5.254,2.404 7.746,3.864 2.308,1.354 4.532,2.854 6.652,4.486 1.02,0.784 2.016,1.6 2.988,2.444 l 0.108,0.092 0.33,0.438 0.13,0.53 -0.092,0.54 -0.302,0.458 -13.384,13.386 -0.394,0.272 c -0.154,0.04 -0.304,0.106 -0.462,0.118 -0.436,0.032 -0.532,-0.08 -0.902,-0.266 l -0.036,-0.026 0.042,0.022 -0.106,-0.06 -0.92,-0.572 -0.884,-0.47 c -0.876,-0.346 -1.116,-0.47 -2.05,-0.712 -0.744,-0.194 -1.604,-0.336 -2.364,-0.43 -0.434,-0.052 -0.866,-0.098 -1.302,-0.124 -0.472,-0.026 -0.946,-0.02 -1.42,-0.03 z"
       style="fill:#cccccc" />
    <g
       id="logo-rounded2-0">
      <path
         id="path45-6"
         d="m 127.17,57.172 c 0.32,2.564 0.486,5.176 0.486,7.828 0,15.758 -5.832,30.166 -15.452,41.182 l -14.92,-14.922 0.198,-1.122 0.132,-1.154 0.098,-1.222 0.034,-1.252 v -4.976 c 9.762,-8.17 19.576,-16.286 29.424,-24.362 z"
         style="fill:url(#Gradient_1)" />
      <path
         id="path47-1"
         d="m 112.21,23.824 c 8.006,9.168 13.386,20.688 14.964,33.38 L 97.746,81.566 V 43.42 l -0.034,-1.252 -0.066,-1.222 -0.132,-1.188 -0.098,-0.56 -0.1,-0.528 z"
         style="fill:url(#Gradient_2)" />
      <path
         id="path49-3"
         d="m 69.772,2.524 c 1.262,0.096 2.512,0.228 3.752,0.398 L 92.598,31.048 91.642,30.454 90.652,29.926 89.564,29.498 88.376,29.134 87.154,28.87 85.834,28.674 84.45,28.542 82.964,28.508 H 47.036 l -1.222,0.034 -1.154,0.066 -1.088,0.132 -1.056,0.196 -1.024,0.232 -0.956,0.296 -0.89,0.33 -0.858,0.396 -0.43,0.232 -0.396,0.23 -0.396,0.264 -0.362,0.264 C 47.286,21.554 57.968,11.986 69.772,2.524 Z m 3.752,0.398 C 85.93,4.612 97.188,9.94 106.182,17.796 L 92.796,31.18 92.664,31.082 92.598,31.048 Z"
         style="fill:url(#Gradient_3)" />
      <path
         id="path51-8"
         d="M 23.818,17.796 C 34.834,8.176 49.242,2.344 65,2.344 c 1.614,0 3.216,0.062 4.8,0.182 L 37.204,31.18 Z"
         style="fill:url(#Gradient_4)" />
      <path
         id="path53-9"
         d="m 106.202,112.188 c -6.424,5.614 -14.002,9.938 -22.328,12.57 l -13.018,-23.27 h 12.076 l 1.782,-0.066 1.648,-0.198 0.792,-0.166 0.76,-0.164 0.758,-0.232 0.694,-0.23 0.46,-0.166 0.462,-0.196 0.43,-0.198 0.428,-0.232 0.396,-0.23 0.396,-0.232 0.396,-0.23 0.364,-0.264 z"
         style="fill:url(#Gradient_5)" />
      <path
         id="path55-3"
         d="m 83.928,124.74 c -5.974,1.894 -12.332,2.914 -18.928,2.914 -11.446,0 -22.178,-3.074 -31.416,-8.444 l 17.014,-17.69 20.304,-0.032 z m -51.74,-6.364 c -2.966,-1.83 -5.768,-3.898 -8.38,-6.18 l 8.38,-8.398 z"
         style="fill:url(#Gradient_6)" />
      <path
         id="path57-4"
         d="M 14.536,102.124 C 19.474,80.59 24.722,59.004 32.684,38.67 l -0.132,0.66 -0.1,0.66 -0.098,0.692 -0.066,0.694 -0.066,2.044 V 91.722 L 17.78,106.164 c -1.136,-1.3 -2.218,-2.648 -3.244,-4.04 z"
         style="fill:url(#Gradient_7)" />
      <path
         id="path59-4"
         d="M 32.684,38.67 14.582,102.184 C 6.892,91.78 2.346,78.918 2.346,65 2.346,49.244 8.174,34.838 17.79,23.824 Z"
         style="fill:url(#Gradient_8)" />
    </g>
  </g>
</svg>
