<?xml version="1.0" encoding="UTF-8" standalone="no"?>
<svg
   xmlns:dc="http://purl.org/dc/elements/1.1/"
   xmlns:cc="http://creativecommons.org/ns#"
   xmlns:rdf="http://www.w3.org/1999/02/22-rdf-syntax-ns#"
   xmlns:svg="http://www.w3.org/2000/svg"
   xmlns="http://www.w3.org/2000/svg"
   xmlns:xlink="http://www.w3.org/1999/xlink"
   xmlns:sodipodi="http://sodipodi.sourceforge.net/DTD/sodipodi-0.dtd"
   xmlns:inkscape="http://www.inkscape.org/namespaces/inkscape"
   id="svg83"
   version="1.1"
   width="96"
   height="96"
   sodipodi:docname="postgresql.svg"
   inkscape:version="0.92.1 r">
  <sodipodi:namedview
     pagecolor="#fefefe"
     bordercolor="#666666"
     borderopacity="1"
     objecttolerance="10"
     gridtolerance="10"
     guidetolerance="10"
     inkscape:pageopacity="0"
     inkscape:pageshadow="2"
     inkscape:window-width="1920"
     inkscape:window-height="1011"
     id="namedview43"
     showgrid="false"
     inkscape:zoom="1.2291667"
     inkscape:cx="154.10651"
     inkscape:cy="81.866459"
     inkscape:window-x="0"
     inkscape:window-y="32"
     inkscape:window-maximized="1"
     inkscape:current-layer="Layer_x0020_3" />
  <metadata
     id="metadata87">
    <rdf:RDF>
      <cc:Work
         rdf:about="">
        <dc:format>image/svg+xml</dc:format>
        <dc:type
           rdf:resource="http://purl.org/dc/dcmitype/StillImage" />
        <dc:title></dc:title>
      </cc:Work>
    </rdf:RDF>
  </metadata>
  <defs
     id="defs41">
    <linearGradient
       stop-color="#fff"
       id="a">
      <stop
         id="stop2"
         offset="0" />
      <stop
         id="stop4"
         offset="1"
         stop-opacity="0" />
    </linearGradient>
    <filter
       x="-.192"
       y="-.192"
       color-interpolation-filters="sRGB"
       width="1.384"
       height="1.384"
       id="f">
      <feGaussianBlur
         id="feGaussianBlur7"
         stdDeviation="5.28" />
    </filter>
    <linearGradient
       x1="48"
       y1="20.221"
       x2="48"
       gradientUnits="userSpaceOnUse"
       xlink:href="#a"
       y2="138.66"
       id="p" />
    <clipPath
       id="e">
      <rect
         id="rect11"
         fill="#fff"
         x="6"
         y="6"
         width="84"
         height="84"
         ry="6"
         rx="6" />
    </clipPath>
    <linearGradient
       x1="45.448"
       y1="92.54"
       gradientTransform="matrix(1.0059 0 0 .99417 100 0)"
       x2="45.448"
       gradientUnits="userSpaceOnUse"
       y2="7.0165"
       id="b">
      <stop
         id="stop14"
         offset="0" />
      <stop
         id="stop16"
         offset="1"
         stop-opacity=".58824" />
    </linearGradient>
    <linearGradient
       x1="35.103"
       y1="6.854"
       gradientTransform="matrix(1.0571,0,0,1,11.126,9.5098)"
       x2="35.103"
       gradientUnits="userSpaceOnUse"
       xlink:href="#a"
       y2="34.886"
       id="o" />
    <linearGradient
       x1="62.339"
       y1="48"
       x2="62.339"
       gradientUnits="userSpaceOnUse"
       xlink:href="#a"
       y2="-6.5482"
       id="n" />
    <linearGradient
       x1="48.8"
       y1="16"
       gradientTransform="matrix(-.67083 0 0 -.70833 90.936 93.333)"
       x2="59.752"
       gradientUnits="userSpaceOnUse"
       y2="56.875"
       id="m">
      <stop
         id="stop21"
         offset="0" />
      <stop
         id="stop23"
         offset="1"
         stop-opacity="0" />
    </linearGradient>
    <radialGradient
       r="23"
       gradientTransform="matrix(1.3301,-7.4935e-8,9.5652e-8,1.6979,-15.846,-37.549)"
       cx="48"
       cy="66.45"
       gradientUnits="userSpaceOnUse"
       id="d">
      <stop
         id="stop26"
         offset="0"
         stop-color="#2782e9" />
      <stop
         id="stop28"
         offset="1"
         stop-color="#193693" />
    </radialGradient>
    <radialGradient
       r="42"
       gradientTransform="matrix(1.1573 0 0 .99591 -7.551 .19713)"
       cx="48"
       cy="90.172"
       gradientUnits="userSpaceOnUse"
       xlink:href="#a"
       id="c" />
    <linearGradient
       x1="36.357"
       y1="6"
       x2="36.357"
       gradientUnits="userSpaceOnUse"
       xlink:href="#a"
       y2="63.893"
       id="k" />
    <linearGradient
       x1="48"
       y1="90"
       gradientTransform="matrix(1.0172,0,0,1.0172,-1.1034,-1.1034)"
       x2="48"
       gradientUnits="userSpaceOnUse"
       y2="5.9877"
       id="j">
      <stop
         style="stop-color:#2a5598;stop-opacity:1"
         id="stop33"
         offset="0"
         stop-color="#27429c" />
      <stop
         style="stop-color:#427db6;stop-opacity:1"
         id="stop35"
         offset="1"
         stop-color="#5072e1" />
    </linearGradient>
    <linearGradient
       x1="32.251"
       y1="90"
       gradientTransform="translate(0,1)"
       x2="32.251"
       gradientUnits="userSpaceOnUse"
       xlink:href="#b"
       y2="6"
       id="i" />
    <linearGradient
       x1="32.251"
       y1="90"
       gradientTransform="matrix(1.0238 0 0 1.0119 -1.1429 .929)"
       x2="32.251"
       gradientUnits="userSpaceOnUse"
       xlink:href="#b"
       y2="5.9996"
       id="h" />
    <linearGradient
       x1="32.251"
       y1="6.1317"
       gradientTransform="matrix(1.0238,0,0,-1.0119,-1.1429,98.071)"
       x2="32.251"
       gradientUnits="userSpaceOnUse"
       xlink:href="#b"
       y2="90.239"
       id="g" />
  </defs>
  <g
     id="g49"
     fill="url(#g)">
    <path
       id="path43"
       d="m12 95.031c-5.5111 0-10.031-4.52-10.031-10.031v-71c0-5.5111 4.5202-10.031 10.031-10.031h72c5.5111 0 10.031 4.5202 10.031 10.031v71c0 5.5111-4.5202 10.031-10.031 10.031h-72z"
       opacity="0.08" />
    <path
       id="path45"
       d="m12 94.031c-4.9716 0-9.0312-4.0596-9.0312-9.0312v-71c0-4.9718 4.0596-9.0314 9.0312-9.0314h72c4.9716 0 9.0312 4.0596 9.0312 9.0312v71c0 4.9716-4.0596 9.0312-9.0312 9.0312h-72z"
       opacity=".1" />
    <path
       id="path47"
       d="m12 93c-4.4091 0-8-3.591-8-8v-71c0-4.4091 3.5909-8 8-8h72c4.4091 0 8 3.5909 8 8v71c0 4.4091-3.5909 8-8 8h-72z"
       opacity=".2" />
  </g>
  <rect
     id="rect51"
     fill="url(#h)"
     x="5"
     y="7"
     width="86"
     height="85"
     ry="7"
     rx="7"
     opacity=".3" />
  <rect
     id="rect53"
     fill="url(#i)"
     x="6"
     y="7"
     width="84"
     height="84"
     ry="6"
     rx="6"
     opacity=".45" />
  <rect
     id="rect55"
     fill="url(#j)"
     x="6"
     y="6"
     width="84"
     height="84"
     ry="6"
     rx="6" />
  <path
     id="path57"
     fill="url(#k)"
     d="m12 6c-3.324 0-6 2.676-6 6v72c0 0.33472 0.04135 0.6507 0.09375 0.96875 0.0487 0.2956 0.09704 0.59692 0.1875 0.875 0.00988 0.03038 0.020892 0.0636 0.03125 0.09375 0.098865 0.28777 0.23488 0.54745 0.375 0.8125 0.14459 0.27351 0.31562 0.53562 0.5 0.78125 0.18438 0.24564 0.37378 0.47347 0.59375 0.6875 0.43995 0.42806 0.94291 0.81453 1.5 1.0938 0.27854 0.13961 0.57347 0.24695 0.875 0.34375-0.2562-0.10022-0.48671-0.23627-0.71875-0.375-0.00741-0.0044-0.023866 0.0045-0.03125 0-0.0319-0.019-0.0622-0.042-0.0937-0.062-0.1204-0.077-0.231-0.164-0.3437-0.25-0.1062-0.081-0.2133-0.161-0.3126-0.25-0.1778-0.162-0.3473-0.346-0.4999-0.531-0.1075-0.131-0.2183-0.266-0.3124-0.407-0.0251-0.038-0.0385-0.086-0.0626-0.125-0.0647-0.103-0.1302-0.204-0.1874-0.312-0.1011-0.195-0.2057-0.416-0.2813-0.625-0.008-0.022-0.0236-0.041-0.0313-0.063-0.0318-0.092-0.0358-0.187-0.0624-0.281-0.0304-0.107-0.0704-0.203-0.0938-0.313-0.0729-0.341-0.125-0.698-0.125-1.062v-72c0-2.782 2.2182-5 5-5h72c2.7818 0 5 2.2182 5 5v72c0 0.3643-0.05212 0.72099-0.125 1.0625-0.04415 0.20689-0.08838 0.39766-0.15625 0.59375-0.0077 0.02195-0.0233 0.04069-0.03125 0.0625-0.06274 0.17374-0.13838 0.36745-0.21875 0.53125-0.04158 0.0828-0.07904 0.16995-0.125 0.25-0.0546 0.09721-0.12677 0.18835-0.1875 0.28125-0.09411 0.14096-0.20492 0.276-0.3125 0.40625-0.14317 0.17445-0.30314 0.347-0.46875 0.5-0.01117 0.0102-0.01998 0.02115-0.03125 0.03125-0.13839 0.12556-0.28509 0.23444-0.4375 0.34375-0.10257 0.07315-0.20432 0.15336-0.3125 0.21875-0.0074 0.0045-0.02384-0.0044-0.03125 0-0.23204 0.13873-0.46255 0.27478-0.71875 0.375 0.30153-0.0968 0.59646-0.20414 0.875-0.34375 0.55709-0.27922 1.0601-0.66569 1.5-1.0938 0.21997-0.21403 0.40937-0.44186 0.59375-0.6875s0.35541-0.50774 0.5-0.78125c0.14012-0.26505 0.27614-0.52473 0.375-0.8125 0.01041-0.03078 0.02133-0.06274 0.03125-0.09375 0.09046-0.27808 0.1388-0.5794 0.1875-0.875 0.053-0.318 0.094-0.634 0.094-0.969v-72c0-3.324-2.676-6-6-6h-72z"
     opacity=".25" />
  <path
     id="path59"
     fill="url(#c)"
     d="m12 90c-3.324 0-6-2.676-6-6v-72c0-0.33472 0.04135-0.6507 0.09375-0.96875 0.0487-0.2956 0.09704-0.59692 0.1875-0.875 0.0099-0.03 0.0209-0.063 0.0313-0.094 0.0989-0.2873 0.2349-0.547 0.375-0.812 0.1446-0.2735 0.3156-0.5356 0.5-0.7812 0.1844-0.2457 0.3738-0.4735 0.5937-0.6876 0.44-0.428 0.943-0.8145 1.5-1.0937 0.2786-0.1396 0.5735-0.2469 0.8748-0.3437-0.256 0.1002-0.4865 0.2362-0.7185 0.375-0.00741 0.0044-0.023866-0.0045-0.03125 0-0.031933 0.0193-0.062293 0.04251-0.09375 0.0625-0.1204 0.0767-0.23102 0.16351-0.34375 0.25-0.10617 0.0808-0.21328 0.16111-0.3125 0.25-0.1779 0.1614-0.3474 0.3453-0.5 0.5312-0.1075 0.1303-0.2183 0.2653-0.3124 0.4063-0.0251 0.0383-0.0385 0.0858-0.0626 0.125-0.0647 0.103-0.1302 0.2045-0.1874 0.3124-0.1011 0.1948-0.2057 0.4158-0.2813 0.625-0.008 0.0219-0.0236 0.0406-0.0313 0.0626-0.0318 0.0919-0.0358 0.1868-0.0624 0.2812-0.0304 0.1066-0.0704 0.203-0.0938 0.3125-0.0729 0.3415-0.125 0.6985-0.125 1.0625v72c0 2.7818 2.2182 5 5 5h72c2.7818 0 5-2.2182 5-5v-72c0-0.364-0.052-0.721-0.125-1.0625-0.044-0.2069-0.088-0.3977-0.156-0.5937-0.008-0.022-0.024-0.0407-0.031-0.0626-0.063-0.1737-0.139-0.3674-0.219-0.5312-0.042-0.0828-0.079-0.17-0.125-0.25-0.055-0.0972-0.127-0.1884-0.188-0.2812-0.094-0.141-0.205-0.276-0.312-0.4063-0.143-0.1745-0.303-0.347-0.469-0.5-0.011-0.0102-0.02-0.0211-0.031-0.0313-0.139-0.1255-0.285-0.2344-0.438-0.3437-0.102-0.0731-0.204-0.1534-0.312-0.2187-0.0074-0.0045-0.02384 0.0044-0.03125 0-0.23204-0.13873-0.46255-0.27478-0.71875-0.375 0.30153 0.0968 0.59646 0.20414 0.875 0.34375 0.55709 0.27922 1.0601 0.66569 1.5 1.0938 0.21997 0.21403 0.40937 0.44186 0.59375 0.6875s0.35541 0.50774 0.5 0.78125c0.14012 0.26505 0.27614 0.52473 0.375 0.8125 0.01041 0.03078 0.02133 0.06274 0.03125 0.09375 0.09046 0.27808 0.1388 0.5794 0.1875 0.875 0.053 0.318 0.094 0.634 0.094 0.969v72c0 3.324-2.676 6-6 6h-72z"
     opacity=".15" />
  <rect
     style="opacity:0.1;fill:url(#p);stroke:#fefefe;stroke-width:0.5;stroke-linecap:round;filter:url(#f)"
     id="rect61"
     x="15"
     y="15"
     width="66"
     height="66"
     ry="12"
     rx="12"
     clip-path="url(#e)" />
  <g
     transform="matrix(0.15726235,0,0,0.15726235,14.204197,13.388145)"
     id="Layer_x0020_3"
     style="clip-rule:nonzero;fill:none;fill-rule:nonzero;stroke:#fefefe;stroke-width:12.46510029;stroke-linecap:round;stroke-linejoin:round;stroke-miterlimit:4">
    <path
       inkscape:connector-curvature="0"
       style="fill:#336791;stroke:none"
       d="m 402.395,271.23 c -50.302,10.376 -53.76,-6.655 -53.76,-6.655 53.111,-78.808 75.313,-178.843 56.153,-203.326 -52.27,-66.785 -142.752,-35.2 -144.262,-34.38 l -0.486,0.087 c -9.938,-2.063 -21.06,-3.292 -33.56,-3.496 -22.761,-0.373 -40.026,5.967 -53.127,15.902 0,0 -161.411,-66.495 -153.904,83.63 1.597,31.938 45.776,241.657 98.471,178.312 19.26,-23.163 37.869,-42.748 37.869,-42.748 9.243,6.14 20.308,9.272 31.908,8.147 l 0.901,-0.765 c -0.28,2.876 -0.152,5.689 0.361,9.019 -13.575,15.167 -9.586,17.83 -36.723,23.416 -27.459,5.659 -11.328,15.734 -0.796,18.367 12.768,3.193 42.307,7.716 62.266,-20.224 l -0.796,3.188 c 5.319,4.26 9.054,27.711 8.428,48.969 -0.626,21.259 -1.044,35.854 3.147,47.254 4.191,11.4 8.368,37.05 44.042,29.406 29.809,-6.388 45.256,-22.942 47.405,-50.555 1.525,-19.631 4.976,-16.729 5.194,-34.28 l 2.768,-8.309 c 3.192,-26.611 0.507,-35.196 18.872,-31.203 l 4.463,0.392 c 13.517,0.615 31.208,-2.174 41.591,-7 22.358,-10.376 35.618,-27.7 13.573,-23.148 z"
       id="path5" />
    <path
       inkscape:connector-curvature="0"
       d="m 215.866,286.484 c -1.385,49.516 0.348,99.377 5.193,111.495 4.848,12.118 15.223,35.688 50.9,28.045 29.806,-6.39 40.651,-18.756 45.357,-46.051 3.466,-20.082 10.148,-75.854 11.005,-87.281"
       id="path7" />
    <path
       inkscape:connector-curvature="0"
       d="m 173.104,38.256 c 0,0 -161.521,-66.016 -154.012,84.109 1.597,31.938 45.779,241.664 98.473,178.316 19.256,-23.166 36.671,-41.335 36.671,-41.335"
       id="path9" />
    <path
       inkscape:connector-curvature="0"
       d="m 260.349,26.207 c -5.591,1.753 89.848,-34.889 144.087,34.417 19.159,24.484 -3.043,124.519 -56.153,203.329"
       id="path11" />
    <path
       inkscape:connector-curvature="0"
       style="stroke-linejoin:bevel"
       d="m 348.282,263.953 c 0,0 3.461,17.036 53.764,6.653 22.04,-4.552 8.776,12.774 -13.577,23.155 -18.345,8.514 -59.474,10.696 -60.146,-1.069 -1.729,-30.355 21.647,-21.133 19.96,-28.739 -1.525,-6.85 -11.979,-13.573 -18.894,-30.338 -6.037,-14.633 -82.796,-126.849 21.287,-110.183 3.813,-0.789 -27.146,-99.002 -124.553,-100.599 -97.385,-1.597 -94.19,119.762 -94.19,119.762"
       id="path13" />
    <path
       inkscape:connector-curvature="0"
       d="m 188.604,274.334 c -13.577,15.166 -9.584,17.829 -36.723,23.417 -27.459,5.66 -11.326,15.733 -0.797,18.365 12.768,3.195 42.307,7.718 62.266,-20.229 6.078,-8.509 -0.036,-22.086 -8.385,-25.547 -4.034,-1.671 -9.428,-3.765 -16.361,3.994 z"
       id="path15" />
    <path
       inkscape:connector-curvature="0"
       d="m 187.715,274.069 c -1.368,-8.917 2.93,-19.528 7.536,-31.942 6.922,-18.626 22.893,-37.255 10.117,-96.339 -9.523,-44.029 -73.396,-9.163 -73.436,-3.193 -0.039,5.968 2.889,30.26 -1.067,58.548 -5.162,36.913 23.488,68.132 56.479,64.938"
       id="path17" />
    <path
       inkscape:connector-curvature="0"
       style="fill:#fefefe;stroke-width:4.15500021;stroke-linecap:butt;stroke-linejoin:miter"
       d="m 172.517,141.7 c -0.288,2.039 3.733,7.48 8.976,8.207 5.234,0.73 9.714,-3.522 9.998,-5.559 0.284,-2.039 -3.732,-4.285 -8.977,-5.015 -5.237,-0.731 -9.719,0.333 -9.996,2.367 z"
       id="path19" />
    <path
       inkscape:connector-curvature="0"
       style="fill:#fefefe;stroke-width:2.0775001;stroke-linecap:butt;stroke-linejoin:miter"
       d="m 331.941,137.543 c 0.284,2.039 -3.732,7.48 -8.976,8.207 -5.238,0.73 -9.718,-3.522 -10.005,-5.559 -0.277,-2.039 3.74,-4.285 8.979,-5.015 5.239,-0.73 9.718,0.333 10.002,2.368 z"
       id="path21" />
    <path
       inkscape:connector-curvature="0"
       d="m 350.676,123.432 c 0.863,15.994 -3.445,26.888 -3.988,43.914 -0.804,24.748 11.799,53.074 -7.191,81.435"
       id="path23" />
    <path
       inkscape:connector-curvature="0"
       style="stroke-width:3"
       d="M 0,60.232"
       id="path25" />
  </g>
</svg>
