<?xml version="1.0" encoding="UTF-8" standalone="no"?>
<!-- Created by Chaopale Lamecarlate, based upon Faenza -->

<svg
   xmlns:dc="http://purl.org/dc/elements/1.1/"
   xmlns:cc="http://creativecommons.org/ns#"
   xmlns:rdf="http://www.w3.org/1999/02/22-rdf-syntax-ns#"
   xmlns:svg="http://www.w3.org/2000/svg"
   xmlns="http://www.w3.org/2000/svg"
   xmlns:xlink="http://www.w3.org/1999/xlink"
   xmlns:sodipodi="http://sodipodi.sourceforge.net/DTD/sodipodi-0.dtd"
   xmlns:inkscape="http://www.inkscape.org/namespaces/inkscape"
   version="1.0"
   width="96"
   height="96"
   id="svg2408"
   inkscape:version="0.92.2 5c3e80d, 2017-08-06"
   sodipodi:docname="rednotebook.svg">
  <sodipodi:namedview
     pagecolor="#fefefe"
     bordercolor="#666666"
     borderopacity="1"
     objecttolerance="10"
     gridtolerance="10"
     guidetolerance="10"
     inkscape:pageopacity="0"
     inkscape:pageshadow="2"
     inkscape:window-width="1374"
     inkscape:window-height="854"
     id="namedview116"
     showgrid="false"
     inkscape:snap-center="false"
     inkscape:zoom="3.4766084"
     inkscape:cx="50.241302"
     inkscape:cy="47.0528"
     inkscape:window-x="284"
     inkscape:window-y="71"
     inkscape:window-maximized="0"
     inkscape:current-layer="svg2408" />
  <defs
     id="defs2410">
    <linearGradient
       gradientTransform="matrix(1.0172414,0,0,1.0172414,-1.1034483,-1.1034483)"
       gradientUnits="userSpaceOnUse"
       id="linearGradient944"
       y2="5.4252338"
       x2="58.650177"
       y1="122"
       x1="58.650177">
      <stop
         offset="0"
         style="stop-color:#9e3232;stop-opacity:1;"
         id="stop940" />
      <stop
         offset="1"
         style="stop-color:#db736d;stop-opacity:1"
         id="stop942" />
    </linearGradient>
    <linearGradient
       inkscape:collect="always"
       id="linearGradient936">
      <stop
         style="stop-color:#781b0c;stop-opacity:1;"
         offset="0"
         id="stop932" />
      <stop
         style="stop-color:#9c3526;stop-opacity:0.94223827"
         offset="1"
         id="stop934" />
    </linearGradient>
    <linearGradient
       id="linearGradient930">
      <stop
         offset="0"
         style="stop-color:#9f5b43;stop-opacity:1"
         id="stop926" />
      <stop
         offset="1"
         style="stop-color:#9f5443;stop-opacity:0.53333336"
         id="stop928" />
    </linearGradient>
    <linearGradient
       id="linearGradient3914">
      <stop
         id="stop3916"
         style="stop-color:#9f7043;stop-opacity:1"
         offset="0" />
      <stop
         id="stop3918"
         style="stop-color:#9f7043;stop-opacity:0.53488374"
         offset="1" />
    </linearGradient>
    <linearGradient
       x1="45.447727"
       y1="92.539597"
       x2="45.447727"
       y2="7.0165396"
       id="ButtonShadow"
       gradientUnits="userSpaceOnUse"
       gradientTransform="scale(1.0058652,0.994169)">
      <stop
         id="stop3750"
         style="stop-color:#000000;stop-opacity:1"
         offset="0" />
      <stop
         id="stop3752"
         style="stop-color:#000000;stop-opacity:0.58823532"
         offset="1" />
    </linearGradient>
    <linearGradient
       id="linearGradient3737">
      <stop
         id="stop3739"
         style="stop-color:#fefefe;stop-opacity:1"
         offset="0" />
      <stop
         id="stop3741"
         style="stop-color:#fefefe;stop-opacity:0"
         offset="1" />
    </linearGradient>
    <filter
       color-interpolation-filters="sRGB"
       id="filter3174">
      <feGaussianBlur
         id="feGaussianBlur3176"
         stdDeviation="1.71" />
    </filter>
    <linearGradient
       x1="36.357143"
       y1="6"
       x2="36.357143"
       y2="63.893143"
       id="linearGradient3188"
       xlink:href="#linearGradient3737"
       gradientUnits="userSpaceOnUse" />
    <filter
       x="-0.192"
       y="-0.192"
       width="1.3839999"
       height="1.3839999"
       color-interpolation-filters="sRGB"
       id="filter3794">
      <feGaussianBlur
         id="feGaussianBlur3796"
         stdDeviation="5.28" />
    </filter>
    <linearGradient
       x1="48"
       y1="20.220806"
       x2="48"
       y2="138.66119"
       id="linearGradient3613"
       xlink:href="#linearGradient3737"
       gradientUnits="userSpaceOnUse" />
    <radialGradient
       cx="48"
       cy="90.171875"
       r="42"
       fx="48"
       fy="90.171875"
       id="radialGradient3619"
       xlink:href="#linearGradient3737"
       gradientUnits="userSpaceOnUse"
       gradientTransform="matrix(1.1573129,0,0,0.99590774,-7.5510206,0.19713193)" />
    <clipPath
       id="clipPath3613">
      <rect
         width="84"
         height="84"
         rx="6"
         ry="6"
         x="6"
         y="6"
         id="rect3615"
         style="fill:#fefefe;fill-opacity:1;fill-rule:nonzero;stroke:none" />
    </clipPath>
    <linearGradient
       x1="48"
       y1="90"
       x2="48"
       y2="5.9877172"
       id="linearGradient3617"
       xlink:href="#ButtonColor"
       gradientUnits="userSpaceOnUse" />
    <linearGradient
       x1="58.650177"
       y1="122"
       x2="58.650177"
       y2="5.4252338"
       id="ButtonColor"
       gradientUnits="userSpaceOnUse"
       gradientTransform="matrix(1.0172414,0,0,1.0172414,-1.1034483,-1.1034483)">
      <stop
         id="stop3189"
         style="stop-color:#9e3232;stop-opacity:1;"
         offset="0" />
      <stop
         id="stop3191"
         style="stop-color:#db9a8e;stop-opacity:1;"
         offset="1" />
    </linearGradient>
    <linearGradient
       x1="5"
       y1="64"
       x2="11.227473"
       y2="64"
       id="linearGradient3300"
       xlink:href="#linearGradient3294"
       gradientUnits="userSpaceOnUse"
       gradientTransform="translate(1,-15.321429)" />
    <linearGradient
       id="linearGradient3294">
      <stop
         id="stop3296"
         style="stop-color:#681c1c;stop-opacity:1;"
         offset="0" />
      <stop
         id="stop3298"
         style="stop-color:#72401f;stop-opacity:0"
         offset="1" />
    </linearGradient>
    <linearGradient
       id="linearGradient3238">
      <stop
         id="stop3240"
         style="stop-color:#784421;stop-opacity:1"
         offset="0" />
      <stop
         id="stop3242"
         style="stop-color:#784421;stop-opacity:0"
         offset="1" />
    </linearGradient>
    <linearGradient
       id="linearGradient3250">
      <stop
         id="stop3252"
         style="stop-color:#c4875e;stop-opacity:1"
         offset="0" />
      <stop
         id="stop3254"
         style="stop-color:#c4875e;stop-opacity:0"
         offset="1" />
    </linearGradient>
    <linearGradient
       x1="45.447727"
       y1="92.539597"
       x2="45.447727"
       y2="7.0165396"
       id="ButtonShadow-0"
       gradientUnits="userSpaceOnUse"
       gradientTransform="matrix(1.0058652,0,0,0.994169,100,0)">
      <stop
         id="stop3750-8"
         style="stop-color:#000000;stop-opacity:1"
         offset="0" />
      <stop
         id="stop3752-5"
         style="stop-color:#000000;stop-opacity:0.58823532"
         offset="1" />
    </linearGradient>
    <linearGradient
       x1="32.251034"
       y1="6.1317081"
       x2="32.251034"
       y2="90.238609"
       id="linearGradient3780"
       xlink:href="#ButtonShadow-0"
       gradientUnits="userSpaceOnUse"
       gradientTransform="matrix(1.0238095,0,0,1.0119048,-1.1428571,-98.071429)" />
    <linearGradient
       x1="32.251034"
       y1="6.1317081"
       x2="32.251034"
       y2="90.238609"
       id="linearGradient3772"
       xlink:href="#ButtonShadow-0"
       gradientUnits="userSpaceOnUse"
       gradientTransform="matrix(1.0238095,0,0,1.0119048,-1.1428571,-98.071429)" />
    <linearGradient
       x1="32.251034"
       y1="6.1317081"
       x2="32.251034"
       y2="90.238609"
       id="linearGradient3725"
       xlink:href="#ButtonShadow-0"
       gradientUnits="userSpaceOnUse"
       gradientTransform="matrix(1.0238095,0,0,1.0119048,-1.1428571,-98.071429)" />
    <linearGradient
       x1="32.251034"
       y1="6.1317081"
       x2="32.251034"
       y2="90.238609"
       id="linearGradient3721"
       xlink:href="#ButtonShadow-0"
       gradientUnits="userSpaceOnUse"
       gradientTransform="translate(0,-97)" />
    <linearGradient
       x1="32.251034"
       y1="6.1317081"
       x2="32.251034"
       y2="90.238609"
       id="linearGradient2969"
       xlink:href="#ButtonShadow-0"
       gradientUnits="userSpaceOnUse"
       gradientTransform="matrix(1.0238095,0,0,1.0119048,-1.1428571,-98.071429)" />
    <linearGradient
       x1="32"
       y1="80"
       x2="16"
       y2="80"
       id="linearGradient4089"
       xlink:href="#linearGradient4075"
       gradientUnits="userSpaceOnUse" />
    <linearGradient
       id="linearGradient4075">
      <stop
         id="stop4077"
         style="stop-color:#fefefe;stop-opacity:1"
         offset="0" />
      <stop
         id="stop4079"
         style="stop-color:#fefefe;stop-opacity:0"
         offset="1" />
    </linearGradient>
    <linearGradient
       x1="40"
       y1="88"
       x2="40"
       y2="80"
       id="linearGradient3896"
       xlink:href="#linearGradient3890"
       gradientUnits="userSpaceOnUse" />
    <linearGradient
       id="linearGradient3890">
      <stop
         id="stop3892"
         style="stop-color:#fefefe;stop-opacity:1"
         offset="0" />
      <stop
         id="stop3898"
         style="stop-color:#eceadb;stop-opacity:1"
         offset="0.5" />
      <stop
         id="stop3894"
         style="stop-color:#d8d3a6;stop-opacity:1"
         offset="1" />
    </linearGradient>
    <linearGradient
       x1="88"
       y1="80"
       x2="88"
       y2="88"
       id="linearGradient3118"
       xlink:href="#linearGradient3914"
       gradientUnits="userSpaceOnUse" />
    <linearGradient
       x1="6"
       y1="67"
       x2="24"
       y2="67"
       id="linearGradient3979"
       xlink:href="#linearGradient3250"
       gradientUnits="userSpaceOnUse"
       gradientTransform="translate(0,-1)" />
    <linearGradient
       x1="6"
       y1="67"
       x2="24"
       y2="67"
       id="linearGradient3982"
       xlink:href="#linearGradient3250"
       gradientUnits="userSpaceOnUse"
       gradientTransform="translate(0,-2)" />
    <linearGradient
       x1="6"
       y1="67"
       x2="24"
       y2="67"
       id="linearGradient3984"
       xlink:href="#linearGradient3238"
       gradientUnits="userSpaceOnUse"
       gradientTransform="translate(0,1)" />
    <linearGradient
       x1="6"
       y1="67"
       x2="24"
       y2="67"
       id="linearGradient3986"
       xlink:href="#linearGradient3238"
       gradientUnits="userSpaceOnUse" />
    <linearGradient
       x1="6"
       y1="67"
       x2="24"
       y2="67"
       id="linearGradient4000"
       xlink:href="#linearGradient3250"
       gradientUnits="userSpaceOnUse"
       gradientTransform="translate(0,-1)" />
    <linearGradient
       x1="6"
       y1="67"
       x2="24"
       y2="67"
       id="linearGradient4002"
       xlink:href="#linearGradient3250"
       gradientUnits="userSpaceOnUse"
       gradientTransform="translate(0,-2)" />
    <linearGradient
       x1="6"
       y1="67"
       x2="24"
       y2="67"
       id="linearGradient4004"
       xlink:href="#linearGradient3238"
       gradientUnits="userSpaceOnUse"
       gradientTransform="translate(0,1)" />
    <linearGradient
       x1="6"
       y1="67"
       x2="24"
       y2="67"
       id="linearGradient4006"
       xlink:href="#linearGradient3238"
       gradientUnits="userSpaceOnUse" />
    <linearGradient
       x1="6"
       y1="67"
       x2="24"
       y2="67"
       id="linearGradient4020"
       xlink:href="#linearGradient3250"
       gradientUnits="userSpaceOnUse"
       gradientTransform="translate(0,-1)" />
    <linearGradient
       x1="6"
       y1="67"
       x2="24"
       y2="67"
       id="linearGradient4022"
       xlink:href="#linearGradient3250"
       gradientUnits="userSpaceOnUse"
       gradientTransform="translate(0,-2)" />
    <linearGradient
       x1="6"
       y1="67"
       x2="24"
       y2="67"
       id="linearGradient4024"
       xlink:href="#linearGradient3238"
       gradientUnits="userSpaceOnUse"
       gradientTransform="translate(0,1)" />
    <linearGradient
       x1="6"
       y1="67"
       x2="24"
       y2="67"
       id="linearGradient4026"
       xlink:href="#linearGradient3238"
       gradientUnits="userSpaceOnUse" />
    <linearGradient
       inkscape:collect="always"
       xlink:href="#linearGradient4075"
       id="linearGradient3099"
       gradientUnits="userSpaceOnUse"
       x1="32"
       y1="80"
       x2="16"
       y2="80" />
    <linearGradient
       inkscape:collect="always"
       xlink:href="#linearGradient3890"
       id="linearGradient3103"
       gradientUnits="userSpaceOnUse"
       x1="40"
       y1="88"
       x2="40"
       y2="80" />
    <linearGradient
       inkscape:collect="always"
       xlink:href="#linearGradient930"
       id="linearGradient3106"
       gradientUnits="userSpaceOnUse"
       x1="88"
       y1="80"
       x2="88"
       y2="88" />
    <linearGradient
       inkscape:collect="always"
       xlink:href="#linearGradient3737"
       id="linearGradient3114"
       gradientUnits="userSpaceOnUse"
       x1="36.357143"
       y1="6"
       x2="36.357143"
       y2="63.893143" />
    <linearGradient
       inkscape:collect="always"
       xlink:href="#linearGradient3294"
       id="linearGradient3117"
       gradientUnits="userSpaceOnUse"
       gradientTransform="translate(1,-15.321429)"
       x1="5"
       y1="64"
       x2="11.227473"
       y2="64" />
    <radialGradient
       inkscape:collect="always"
       xlink:href="#linearGradient3737"
       id="radialGradient3120"
       gradientUnits="userSpaceOnUse"
       gradientTransform="matrix(1.1573129,0,0,0.99590774,-7.5510206,0.19713193)"
       cx="48"
       cy="90.171875"
       fx="48"
       fy="90.171875"
       r="42" />
    <linearGradient
       inkscape:collect="always"
       xlink:href="#linearGradient944"
       id="linearGradient3143"
       gradientUnits="userSpaceOnUse"
       x1="48"
       y1="90"
       x2="48"
       y2="5.9877172" />
    <linearGradient
       inkscape:collect="always"
       xlink:href="#linearGradient936"
       id="linearGradient938"
       x1="46.98402"
       y1="75.502945"
       x2="46.306141"
       y2="9.9217854"
       gradientUnits="userSpaceOnUse" />
  </defs>
  <metadata
     id="metadata2413">
    <rdf:RDF>
      <cc:Work
         rdf:about="">
        <dc:format>image/svg+xml</dc:format>
        <dc:type
           rdf:resource="http://purl.org/dc/dcmitype/StillImage" />
        <dc:title />
      </cc:Work>
    </rdf:RDF>
  </metadata>
  <g
     id="layer2"
     style="display:none">
    <rect
       width="86"
       height="85"
       rx="6"
       ry="6"
       x="5"
       y="7"
       id="rect3745"
       style="opacity:0.9;fill:url(#ButtonShadow);fill-opacity:1;fill-rule:nonzero;stroke:none;filter:url(#filter3174)" />
  </g>
  <g
     id="layer3"
     style="display:inline">
    <path
       d="m 12,-95.03125 c -5.5110903,0 -10.03125,4.52016 -10.03125,10.03125 l 0,71 c 0,5.5110902 4.5201598,10.03125 10.03125,10.03125 l 72,0 c 5.51109,0 10.03125,-4.5201597 10.03125,-10.03125 l 0,-71 c 0,-5.51109 -4.52016,-10.03125 -10.03125,-10.03125 l -72,0 z"
       transform="scale(1,-1)"
       id="path3786"
       style="opacity:0.07999998;fill:url(#linearGradient2969);fill-opacity:1;fill-rule:nonzero;stroke:none;display:inline" />
    <path
       d="m 12,-94.03125 c -4.971633,0 -9.03125,4.059617 -9.03125,9.03125 l 0,71 c 0,4.9716329 4.0596171,9.03125 9.03125,9.03125 l 72,0 c 4.971633,0 9.03125,-4.059617 9.03125,-9.03125 l 0,-71 c 0,-4.971633 -4.059617,-9.03125 -9.03125,-9.03125 l -72,0 z"
       transform="scale(1,-1)"
       id="path3778"
       style="opacity:0.1;fill:url(#linearGradient3780);fill-opacity:1;fill-rule:nonzero;stroke:none;display:inline" />
    <path
       d="m 12,-93 c -4.4091333,0 -8,3.590867 -8,8 l 0,71 c 0,4.4091333 3.5908667,8 8,8 l 72,0 c 4.409133,0 8,-3.5908667 8,-8 l 0,-71 c 0,-4.409133 -3.590867,-8 -8,-8 l -72,0 z"
       transform="scale(1,-1)"
       id="path3770"
       style="opacity:0.2;fill:url(#linearGradient3772);fill-opacity:1;fill-rule:nonzero;stroke:none;display:inline" />
    <rect
       width="86"
       height="85"
       rx="7"
       ry="7"
       x="5"
       y="-92"
       transform="scale(1,-1)"
       id="rect3723"
       style="opacity:0.3;fill:url(#linearGradient3725);fill-opacity:1;fill-rule:nonzero;stroke:none;display:inline" />
    <rect
       width="84"
       height="84"
       rx="6"
       ry="6"
       x="6"
       y="-91"
       transform="scale(1,-1)"
       id="rect3716"
       style="opacity:0.45;fill:url(#linearGradient3721);fill-opacity:1;fill-rule:nonzero;stroke:none;display:inline" />
  </g>
  <rect
     style="fill:url(#linearGradient3143);fill-opacity:1;fill-rule:nonzero;stroke:none"
     id="rect2419"
     y="6"
     x="15.87842"
     ry="6"
     rx="6"
     height="84"
     width="74.121559" />
  <path
     style="fill:#a0442c;fill-opacity:1;fill-rule:nonzero;stroke:none;display:inline"
     id="rect3170"
     inkscape:connector-curvature="0"
     d="M 12,6 C 8.676,6 6,8.676 6,12 l 0,72 c 0,3.324 2.676,6 6,6 L 24,90 24,6 12,6 z" />
  <g
     id="g4028">
    <g
       id="g3972"
       transform="translate(0,2)">
      <g
         id="g3958"
         transform="translate(0,-2)">
        <path
           style="opacity:0.5;color:#000000;fill:url(#linearGradient3979);fill-opacity:1;fill-rule:nonzero;stroke:none;stroke-width:2;marker:none;visibility:visible;display:inline;overflow:visible;enable-background:accumulate"
           id="rect3922"
           inkscape:connector-curvature="0"
           d="m 11,63 c -2.77,0 -5,2.23 -5,5 l 0,1 c 0,-2.77 2.23,-5 5,-5 l 13,0 0,-1 -13,0 z" />
        <path
           style="opacity:0.2;color:#000000;fill:url(#linearGradient3982);fill-opacity:1;fill-rule:nonzero;stroke:none;stroke-width:2;marker:none;visibility:visible;display:inline;overflow:visible;enable-background:accumulate"
           id="path3946"
           inkscape:connector-curvature="0"
           d="m 11,62 c -2.77,0 -5,2.23 -5,5 l 0,1 c 0,-2.77 2.23,-5 5,-5 l 13,0 0,-1 -13,0 z" />
        <path
           style="opacity:0.3;color:#000000;fill:url(#linearGradient3984);fill-opacity:1;fill-rule:nonzero;stroke:none;stroke-width:2;marker:none;visibility:visible;display:inline;overflow:visible;enable-background:accumulate"
           id="path3950"
           inkscape:connector-curvature="0"
           d="m 11,65 c -2.77,0 -5,2.23 -5,5 l 0,1 c 0,-2.77 2.23,-5 5,-5 l 13,0 0,-1 -13,0 z" />
        <path
           style="opacity:0.6;color:#000000;fill:url(#linearGradient3986);fill-opacity:1;fill-rule:nonzero;stroke:none;stroke-width:2;marker:none;visibility:visible;display:inline;overflow:visible;enable-background:accumulate"
           id="path3952"
           inkscape:connector-curvature="0"
           d="m 11,64 c -2.77,0 -5,2.23 -5,5 l 0,1 c 0,-2.77 2.23,-5 5,-5 l 13,0 0,-1 -13,0 z" />
      </g>
    </g>
    <g
       id="g3988"
       transform="translate(0,-18)">
      <g
         id="g3990"
         transform="translate(0,-2)">
        <path
           style="opacity:0.5;color:#000000;fill:url(#linearGradient4000);fill-opacity:1;fill-rule:nonzero;stroke:none;stroke-width:2;marker:none;visibility:visible;display:inline;overflow:visible;enable-background:accumulate"
           id="path3992"
           inkscape:connector-curvature="0"
           d="m 11,63 c -2.77,0 -5,2.23 -5,5 l 0,1 c 0,-2.77 2.23,-5 5,-5 l 13,0 0,-1 -13,0 z" />
        <path
           style="opacity:0.2;color:#000000;fill:url(#linearGradient4002);fill-opacity:1;fill-rule:nonzero;stroke:none;stroke-width:2;marker:none;visibility:visible;display:inline;overflow:visible;enable-background:accumulate"
           id="path3994"
           inkscape:connector-curvature="0"
           d="m 11,62 c -2.77,0 -5,2.23 -5,5 l 0,1 c 0,-2.77 2.23,-5 5,-5 l 13,0 0,-1 -13,0 z" />
        <path
           style="opacity:0.3;color:#000000;fill:url(#linearGradient4004);fill-opacity:1;fill-rule:nonzero;stroke:none;stroke-width:2;marker:none;visibility:visible;display:inline;overflow:visible;enable-background:accumulate"
           id="path3996"
           inkscape:connector-curvature="0"
           d="m 11,65 c -2.77,0 -5,2.23 -5,5 l 0,1 c 0,-2.77 2.23,-5 5,-5 l 13,0 0,-1 -13,0 z" />
        <path
           style="opacity:0.6;color:#000000;fill:url(#linearGradient4006);fill-opacity:1;fill-rule:nonzero;stroke:none;stroke-width:2;marker:none;visibility:visible;display:inline;overflow:visible;enable-background:accumulate"
           id="path3998"
           inkscape:connector-curvature="0"
           d="m 11,64 c -2.77,0 -5,2.23 -5,5 l 0,1 c 0,-2.77 2.23,-5 5,-5 l 13,0 0,-1 -13,0 z" />
      </g>
    </g>
    <g
       id="g4008"
       transform="translate(0,-38)">
      <g
         id="g4010"
         transform="translate(0,-2)">
        <path
           style="opacity:0.5;color:#000000;fill:url(#linearGradient4020);fill-opacity:1;fill-rule:nonzero;stroke:none;stroke-width:2;marker:none;visibility:visible;display:inline;overflow:visible;enable-background:accumulate"
           id="path4012"
           inkscape:connector-curvature="0"
           d="m 11,63 c -2.77,0 -5,2.23 -5,5 l 0,1 c 0,-2.77 2.23,-5 5,-5 l 13,0 0,-1 -13,0 z" />
        <path
           style="opacity:0.2;color:#000000;fill:url(#linearGradient4022);fill-opacity:1;fill-rule:nonzero;stroke:none;stroke-width:2;marker:none;visibility:visible;display:inline;overflow:visible;enable-background:accumulate"
           id="path4014"
           inkscape:connector-curvature="0"
           d="m 11,62 c -2.77,0 -5,2.23 -5,5 l 0,1 c 0,-2.77 2.23,-5 5,-5 l 13,0 0,-1 -13,0 z" />
        <path
           style="opacity:0.3;color:#000000;fill:url(#linearGradient4024);fill-opacity:1;fill-rule:nonzero;stroke:none;stroke-width:2;marker:none;visibility:visible;display:inline;overflow:visible;enable-background:accumulate"
           id="path4016"
           inkscape:connector-curvature="0"
           d="m 11,65 c -2.77,0 -5,2.23 -5,5 l 0,1 c 0,-2.77 2.23,-5 5,-5 l 13,0 0,-1 -13,0 z" />
        <path
           style="opacity:0.6;color:#000000;fill:url(#linearGradient4026);fill-opacity:1;fill-rule:nonzero;stroke:none;stroke-width:2;marker:none;visibility:visible;display:inline;overflow:visible;enable-background:accumulate"
           id="path4018"
           inkscape:connector-curvature="0"
           d="m 11,64 c -2.77,0 -5,2.23 -5,5 l 0,1 c 0,-2.77 2.23,-5 5,-5 l 13,0 0,-1 -13,0 z" />
      </g>
    </g>
  </g>
  <path
     style="opacity:0.2;fill:url(#radialGradient3120);fill-opacity:1;fill-rule:nonzero;stroke:none"
     id="path3615"
     inkscape:connector-curvature="0"
     d="M 12,90 C 8.676,90 6,87.324 6,84 L 6,82 6,14 6,12 c 0,-0.334721 0.04135,-0.6507 0.09375,-0.96875 0.0487,-0.295596 0.09704,-0.596915 0.1875,-0.875 C 6.29113,10.12587 6.302142,10.09265 6.3125,10.0625 6.411365,9.774729 6.5473802,9.515048 6.6875,9.25 6.8320918,8.976493 7.0031161,8.714385 7.1875,8.46875 7.3718839,8.223115 7.5612765,7.995278 7.78125,7.78125 8.221197,7.353194 8.72416,6.966724 9.28125,6.6875 9.559795,6.547888 9.8547231,6.440553 10.15625,6.34375 9.9000482,6.443972 9.6695391,6.580022 9.4375,6.71875 c -0.00741,0.0044 -0.023866,-0.0045 -0.03125,0 -0.031933,0.0193 -0.062293,0.04251 -0.09375,0.0625 -0.120395,0.0767 -0.2310226,0.163513 -0.34375,0.25 -0.1061728,0.0808 -0.2132809,0.161112 -0.3125,0.25 C 8.4783201,7.442683 8.3087904,7.626638 8.15625,7.8125 8.0486711,7.942755 7.9378561,8.077785 7.84375,8.21875 7.818661,8.25713 7.805304,8.30462 7.78125,8.34375 7.716487,8.446782 7.6510225,8.548267 7.59375,8.65625 7.4927417,8.850956 7.3880752,9.071951 7.3125,9.28125 7.30454,9.30306 7.288911,9.3218 7.28125,9.34375 7.2494249,9.4357 7.2454455,9.530581 7.21875,9.625 7.1884177,9.731618 7.1483606,9.828031 7.125,9.9375 7.0521214,10.279012 7,10.635705 7,11 l 0,2 0,68 0,2 c 0,2.781848 2.2181517,5 5,5 l 2,0 68,0 2,0 c 2.781848,0 5,-2.218152 5,-5 l 0,-2 0,-68 0,-2 C 89,10.635705 88.94788,10.279012 88.875,9.9375 88.83085,9.730607 88.78662,9.539842 88.71875,9.34375 88.71105,9.3218 88.69545,9.30306 88.6875,9.28125 88.62476,9.107511 88.549117,8.913801 88.46875,8.75 88.42717,8.6672 88.38971,8.580046 88.34375,8.5 88.28915,8.40279 88.216976,8.31165 88.15625,8.21875 88.06214,8.077785 87.951329,7.942755 87.84375,7.8125 87.700576,7.63805 87.540609,7.465502 87.375,7.3125 87.36383,7.3023 87.35502,7.29135 87.34375,7.28125 87.205364,7.155694 87.058659,7.046814 86.90625,6.9375 86.803679,6.86435 86.701932,6.784136 86.59375,6.71875 c -0.0074,-0.0045 -0.02384,0.0044 -0.03125,0 -0.232039,-0.138728 -0.462548,-0.274778 -0.71875,-0.375 0.301527,0.0968 0.596455,0.204138 0.875,0.34375 0.55709,0.279224 1.060053,0.665694 1.5,1.09375 0.219973,0.214028 0.409366,0.441865 0.59375,0.6875 0.184384,0.245635 0.355408,0.507743 0.5,0.78125 0.14012,0.265048 0.276135,0.524729 0.375,0.8125 0.01041,0.03078 0.02133,0.06274 0.03125,0.09375 0.09046,0.278085 0.1388,0.579404 0.1875,0.875 C 89.95865,11.3493 90,11.665279 90,12 l 0,2 0,68 0,2 c 0,3.324 -2.676,6 -6,6 l -72,0 z" />
  <path
     style="display:inline;fill:url(#linearGradient3117);fill-opacity:1;fill-rule:nonzero;stroke:none"
     id="path3292"
     inkscape:connector-curvature="0"
     d="M 12,6 C 8.676,6 6,8.676 6,12 v 72 c 0,3.324 2.676,6 6,6 h 9.125 V 6 Z" />
  <path
     style="opacity:0.4;fill:url(#linearGradient3114);fill-opacity:1;fill-rule:nonzero;stroke:none"
     id="rect3728"
     inkscape:connector-curvature="0"
     d="M 12,6 C 8.676,6 6,8.676 6,12 l 0,2 0,68 0,2 c 0,0.334721 0.04135,0.6507 0.09375,0.96875 0.0487,0.295596 0.09704,0.596915 0.1875,0.875 0.00988,0.03038 0.020892,0.0636 0.03125,0.09375 0.098865,0.287771 0.2348802,0.547452 0.375,0.8125 0.1445918,0.273507 0.3156161,0.535615 0.5,0.78125 0.1843839,0.245635 0.3737765,0.473472 0.59375,0.6875 0.439947,0.428056 0.94291,0.814526 1.5,1.09375 0.278545,0.139612 0.5734731,0.246947 0.875,0.34375 -0.2562018,-0.100222 -0.4867109,-0.236272 -0.71875,-0.375 -0.00741,-0.0044 -0.023866,0.0045 -0.03125,0 -0.031933,-0.0193 -0.062293,-0.04251 -0.09375,-0.0625 -0.120395,-0.0767 -0.2310226,-0.163513 -0.34375,-0.25 -0.1061728,-0.0808 -0.2132809,-0.161112 -0.3125,-0.25 C 8.4783201,88.557317 8.3087904,88.373362 8.15625,88.1875 8.0486711,88.057245 7.9378561,87.922215 7.84375,87.78125 7.818661,87.74287 7.805304,87.69538 7.78125,87.65625 7.716487,87.553218 7.6510225,87.451733 7.59375,87.34375 7.4927417,87.149044 7.3880752,86.928049 7.3125,86.71875 7.30454,86.69694 7.288911,86.6782 7.28125,86.65625 7.2494249,86.5643 7.2454455,86.469419 7.21875,86.375 7.1884177,86.268382 7.1483606,86.171969 7.125,86.0625 7.0521214,85.720988 7,85.364295 7,85 L 7,83 7,15 7,13 C 7,10.218152 9.2181517,8 12,8 l 2,0 68,0 2,0 c 2.781848,0 5,2.218152 5,5 l 0,2 0,68 0,2 c 0,0.364295 -0.05212,0.720988 -0.125,1.0625 -0.04415,0.206893 -0.08838,0.397658 -0.15625,0.59375 -0.0077,0.02195 -0.0233,0.04069 -0.03125,0.0625 -0.06274,0.173739 -0.138383,0.367449 -0.21875,0.53125 -0.04158,0.0828 -0.07904,0.169954 -0.125,0.25 -0.0546,0.09721 -0.126774,0.18835 -0.1875,0.28125 -0.09411,0.140965 -0.204921,0.275995 -0.3125,0.40625 -0.143174,0.17445 -0.303141,0.346998 -0.46875,0.5 -0.01117,0.0102 -0.01998,0.02115 -0.03125,0.03125 -0.138386,0.125556 -0.285091,0.234436 -0.4375,0.34375 -0.102571,0.07315 -0.204318,0.153364 -0.3125,0.21875 -0.0074,0.0045 -0.02384,-0.0044 -0.03125,0 -0.232039,0.138728 -0.462548,0.274778 -0.71875,0.375 0.301527,-0.0968 0.596455,-0.204138 0.875,-0.34375 0.55709,-0.279224 1.060053,-0.665694 1.5,-1.09375 0.219973,-0.214028 0.409366,-0.441865 0.59375,-0.6875 0.184384,-0.245635 0.355408,-0.507743 0.5,-0.78125 0.14012,-0.265048 0.276135,-0.524729 0.375,-0.8125 0.01041,-0.03078 0.02133,-0.06274 0.03125,-0.09375 0.09046,-0.278085 0.1388,-0.579404 0.1875,-0.875 C 89.95865,84.6507 90,84.334721 90,84 l 0,-2 0,-68 0,-2 C 90,8.676 87.324,6 84,6 L 12,6 z" />
  <rect
     style="opacity:0.1;fill:#fefefe;fill-opacity:1;stroke:none"
     id="rect3941"
     y="6"
     x="24"
     height="84"
     width="1" />
  <rect
     style="opacity:0.1;fill:#000000;fill-opacity:1;stroke:none"
     id="rect3943"
     y="6"
     x="23"
     height="84"
     width="1" />
  <path
     style="opacity:0.55870445;fill:url(#linearGradient938);fill-opacity:1;fill-rule:evenodd;stroke:none;display:inline"
     id="path3189"
     inkscape:connector-curvature="0"
     d="m 28,10 0,0.498361 0,5.201639 0,0.498361 0.49948,0 4.557752,0 0,4.142623 -1.498439,0 0,-2.118033 0,-0.498361 -0.49948,0 -2.559833,0 -0.49948,0 0,0.498361 0,2.616393 0,0.498361 0.49948,0 2.060354,0 0,43.32459 -2.060354,0 -0.49948,0 0,0.498361 0,2.647541 0,0.49836 0.49948,0 2.559833,0 0.49948,0 0,-0.49836 0,-2.149181 1.498439,0 0,4.142623 -4.557752,0 -0.49948,0 L 28,70.3 28,75.501639 28,76 l 0.49948,0 5.057232,0 0.499479,0 0,-0.498361 0,-4.703278 4.245578,0 0,1.650819 -2.154006,0 -0.49948,0 0,0.498361 0,2.554098 0,0.498361 0.49948,0 2.653486,0 0.499479,0 0,-0.498361 0,-2.055737 35.398544,0 0,2.055737 0,0.498361 0.499479,0 2.684704,0 0.499479,0 0,-0.498361 0,-2.554098 0,-0.498361 -0.499479,0 -2.185224,0 0,-1.650819 4.245578,0 0,4.703278 0,0.498361 0.499479,0 5.057232,0 L 86,76 86,75.501639 86,70.3 l 0,-0.498361 -0.49948,0 -4.557752,0 0,-4.142623 1.529657,0 0,2.149181 0,0.49836 0.499479,0 2.528616,0 0.49948,0 0,-0.49836 0,-2.647541 0,-0.498361 -0.49948,0 -2.029136,0 0,-43.32459 2.029136,0 0.49948,0 0,-0.498361 0,-2.616393 0,-0.498361 -0.49948,0 -2.528616,0 -0.499479,0 0,0.498361 0,2.118033 -1.529657,0 0,-4.142623 4.557752,0 0.49948,0 L 86,15.7 86,10.498361 86,10 l -0.49948,0 -5.057232,0 -0.499479,0 0,0.498361 0,4.703278 -4.245578,0 0,-1.650819 2.185224,0 0.499479,0 0,-0.467213 0,-2.585246 0,-0.498361 -0.499479,0 -2.684704,0 -0.499479,0 0,0.498361 0,2.086885 -35.398544,0 0,-2.086885 0,-0.498361 -0.499479,0 -2.653486,0 -0.49948,0 0,0.498361 0,2.585246 0,0.467213 0.49948,0 2.154006,0 0,1.650819 -4.245578,0 0,-4.703278 0,-0.498361 -0.499479,0 -5.057232,0 z m 0.998959,0.996721 4.058273,0 0,4.204918 -4.058273,0 z m 7.648283,0 1.654527,0 0,1.588525 -1.654527,0 z m 39.050989,0 1.685744,0 0,1.588525 -1.685744,0 z m 5.244537,0 4.058273,0 0,4.204918 -4.058273,0 z m -41.64204,2.554099 35.398544,0 0,1.650819 -2.091572,0 -0.499479,0 0,0.498361 0,2.585246 0,0.467213 0.499479,0 2.591051,0 0.49948,0 0,-0.467213 0,-2.086885 4.245578,0 0,4.142623 -2.154007,0 -0.499479,0 0,0.49836 0,2.585246 0,0.467213 0.499479,0 2.653486,0 0.49948,0 0,-0.467213 0,-2.086885 1.529657,0 0,43.32459 -1.529657,0 0,-2.055738 0,-0.49836 -0.49948,0 -2.653486,0 -0.499479,0 0,0.49836 0,2.554099 0,0.49836 0.499479,0 2.154007,0 0,4.142623 -4.245578,0 0,-2.055737 0,-0.498361 -0.49948,0 -2.591051,0 -0.499479,0 0,0.498361 0,2.554098 0,0.498361 0.499479,0 2.091572,0 0,1.650819 -35.398544,0 0,-1.650819 2.122789,0 0.49948,0 0,-0.498361 0,-2.554098 0,-0.498361 -0.49948,0 -2.622268,0 -0.49948,0 0,0.498361 0,2.055737 -4.245578,0 0,-4.142623 2.185224,0 0.49948,0 0,-0.49836 0,-2.554099 0,-0.49836 -0.49948,0 -2.684703,0 -0.49948,0 0,0.49836 0,2.055738 -1.498439,0 0,-43.32459 1.498439,0 0,2.086885 0,0.467213 0.49948,0 2.684703,0 0.49948,0 0,-0.467213 0,-2.585246 0,-0.49836 -0.49948,0 -2.185224,0 0,-4.142623 4.245578,0 0,2.086885 0,0.467213 0.49948,0 2.622268,0 0.49948,0 0,-0.467213 0,-2.585246 0,-0.498361 -0.49948,0 -2.122789,0 z m 0,2.647541 1.623309,0 0,1.588524 -1.623309,0 z m 33.806452,0 1.592092,0 0,1.588524 -1.592092,0 z m -44.108221,2.491803 1.560875,0 0,1.65082 -1.560875,0 z m 54.472425,0 1.529657,0 0,1.65082 -1.529657,0 z m -49.415193,2.647541 1.685744,0 0,1.588525 -1.685744,0 z m 44.233091,0 1.654527,0 0,1.588525 -1.654527,0 z m -44.233091,41.767213 1.685744,0 0,1.557377 -1.685744,0 z m 44.233091,0 1.654527,0 0,1.557377 -1.654527,0 z m -49.290323,2.554098 1.560875,0 0,1.65082 -1.560875,0 z m 54.472425,0 1.529657,0 0,1.65082 -1.529657,0 z m -44.170656,2.585246 1.623309,0 0,1.557377 -1.623309,0 z m 33.806452,0 1.592092,0 0,1.557377 -1.592092,0 z m -44.108221,2.554099 4.058273,0 0,4.204918 -4.058273,0 z m 51.943809,0 4.058273,0 0,4.204918 -4.058273,0 z m -44.295526,2.647541 1.654527,0 0,1.557377 -1.654527,0 z m 39.050989,0 1.685744,0 0,1.557377 -1.685744,0 z" />
  <path
     style="fill:url(#linearGradient3106);fill-opacity:1;fill-rule:nonzero;stroke:none;display:inline"
     id="rect3964"
     inkscape:connector-curvature="0"
     d="m 90,76 c 0,2.216 -1.784,4 -4,4 l -4,0 -69,0 c -2.77,0 -5,2.23 -5,5 0,2.42375 1.71748,4.441543 4,4.90625 0.125327,0.02075 0.247127,0.04959 0.375,0.0625 0.04116,0.0052 0.08352,-0.0042 0.125,0 C 12.662806,89.981893 12.833696,90 13,90 L 82.09375,90 84,90 c 3.324,0 6,-2.676 6,-6 z" />
  <path
     style="color:#000000;fill:url(#linearGradient3103);fill-opacity:1;fill-rule:nonzero;stroke:none;stroke-width:2;marker:none;visibility:visible;display:inline;overflow:visible;enable-background:accumulate"
     id="path3073"
     inkscape:connector-curvature="0"
     d="m 13,80.03125 c -2.229947,0 -3.96875,1.738803 -3.96875,3.96875 0,2.229947 1.738803,3.96875 3.96875,3.96875 l 70.3125,0 C 84.821315,87.808459 86,86.552718 86,85 l 0,-4.96875 z" />
  <path
     style="opacity:0.1;color:#000000;fill:#000000;fill-opacity:1;fill-rule:nonzero;stroke:none;stroke-width:2;marker:none;visibility:visible;display:inline;overflow:visible;enable-background:accumulate"
     id="path3853"
     inkscape:connector-curvature="0"
     d="m 90,75 c 0,2.216 -1.784,4 -4,4 l -5,0 0,0.03125 -69,0 c -2.2299467,0 -3.96875,1.738803 -3.96875,3.96875 0,0.171722 0.042447,0.334673 0.0625,0.5 C 8.3340994,81.518422 9.9417755,80.03125 12,80.03125 l 74,0 L 86,80 c 2.216,0 4,-1.784 4,-4 l 0,-1 z" />
  <path
     style="opacity:0.1;color:#000000;fill:url(#linearGradient3099);fill-opacity:1;fill-rule:nonzero;stroke:none;stroke-width:2;marker:none;visibility:visible;display:inline;overflow:visible;enable-background:accumulate"
     id="path3880"
     inkscape:connector-curvature="0"
     d="m 90,74 c 0,2.216 -1.784,4 -4,4 l -5,0 0,0.03125 -69,0 c -2.229947,0 -3.96875,1.738803 -3.96875,3.96875 0,0.171722 0.04245,0.334673 0.0625,0.5 C 8.334099,80.518422 9.941775,79.03125 12,79.03125 l 74,0 L 86,79 c 2.216,0 4,-1.784 4,-4 l 0,-1 z" />
  <path
     style="opacity:0.5;color:#000000;fill:#000000;fill-opacity:1;fill-rule:nonzero;stroke:none;stroke-width:2;marker:none;visibility:visible;display:inline;overflow:visible;enable-background:accumulate"
     id="path3885"
     inkscape:connector-curvature="0"
     d="m 12,80.03125 c -2.2299467,0 -3.96875,1.738803 -3.96875,3.96875 0,2.229947 1.7388033,3.96875 3.96875,3.96875 l 1,0 c -2.229947,0 -3.96875,-1.738803 -3.96875,-3.96875 0,-2.229947 1.738803,-3.96875 3.96875,-3.96875 l -1,0 z" />
  <path
     style="opacity:0.15;fill:#000000;stroke:none"
     id="path3918"
     inkscape:connector-curvature="0"
     d="M 86,80.15625 11.28125,80.4375 86,80.5625 86,80.15625 z m 0,0.65625 -76.4375,1.21875 c -0.0023,0.004 -0.02899,-0.0041 -0.03125,0 -0.0045,0.0081 0.0045,0.02311 0,0.03125 L 86,81.84375 86,80.8125 z m 0,2.03125 -76.84375,0.25 76.84375,0.125 0,-0.375 z m -76.96875,1.25 76.96875,1 C 86.00099,85.06206 86,85.03195 86,85 l 0,-0.53125 -76.96875,-0.375 z M 9.1875,85.0625 c 0.02576,0.09633 0.06124,0.188194 0.09375,0.28125 L 62.4375,85.25 9.1875,85.0625 z m 76.71875,0.625 -76.125,0.65625 c 0.0087,0.01204 0.02244,0.01931 0.03125,0.03125 L 85.71875,86.25 c 0.02323,-0.05009 0.04269,-0.104045 0.0625,-0.15625 0.05145,-0.129933 0.09209,-0.26788 0.125,-0.40625 z M 85.4375,86.75 10.40625,87 l 74.3125,0.125 0.5,-0.125 c 0.07541,-0.0824 0.15293,-0.159508 0.21875,-0.25 z" />
  <path
     style="opacity:0.2;color:#000000;fill:#000000;fill-opacity:1;fill-rule:nonzero;stroke:none;stroke-width:2;marker:none;visibility:visible;display:inline;overflow:visible;enable-background:accumulate"
     id="path4001"
     inkscape:connector-curvature="0"
     d="M 86,80.03125 86,85 c 0,1.552718 -1.178685,2.808459 -2.6875,2.96875 l 1,0 C 85.821315,87.808459 87,86.552718 87,85 l 0,-4.96875 -1,0 z" />
  <path
     style="opacity:0.25;color:#000000;fill:#000000;fill-opacity:1;fill-rule:nonzero;stroke:none;stroke-width:2;marker:none;visibility:visible;display:inline;overflow:visible;enable-background:accumulate"
     id="path4010"
     inkscape:connector-curvature="0"
     d="m 90,76 c 0,2.216 -1.784,4 -4,4 l -5,0 0,0.03125 -68,0 c -2.229947,0 -3.96875,1.738803 -3.96875,3.96875 0,0.171722 0.04245,0.334673 0.0625,0.5 C 9.334099,82.518422 10.941775,81.03125 13,81.03125 l 73,0 L 86,81 c 2.216,0 4,-1.784 4,-4 z" />
  <path
     style="opacity:0.1;color:#000000;fill:#000000;fill-opacity:1;fill-rule:nonzero;stroke:none;stroke-width:2;marker:none;visibility:visible;display:inline;overflow:visible;enable-background:accumulate"
     id="path4093"
     inkscape:connector-curvature="0"
     d="m 90,77 c 0,2.216 -1.784,4 -4,4 l -5,0 0,0.03125 -68,0 c -2.229947,0 -3.96875,1.738803 -3.96875,3.96875 0,0.171722 0.04245,0.334673 0.0625,0.5 C 9.334099,83.518422 10.941775,82.03125 13,82.03125 l 73,0 L 86,82 c 2.216,0 4,-1.784 4,-4 z" />
  <g
     id="layer5"
     style="display:none">
    <rect
       width="66"
       height="66"
       rx="12"
       ry="12"
       x="15"
       y="15"
       clip-path="url(#clipPath3613)"
       id="rect3171"
       style="opacity:0.1;fill:url(#linearGradient3613);fill-opacity:1;fill-rule:nonzero;stroke:#fefefe;stroke-width:0.5;stroke-linecap:round;stroke-linejoin:miter;stroke-miterlimit:4;stroke-opacity:1;stroke-dasharray:none;stroke-dashoffset:0;filter:url(#filter3794)" />
  </g>
</svg>
