<?xml version="1.0" encoding="UTF-8" standalone="no"?>
<!-- Created with Inkscape (http://www.inkscape.org/) -->

<svg
   xmlns:dc="http://purl.org/dc/elements/1.1/"
   xmlns:cc="http://creativecommons.org/ns#"
   xmlns:rdf="http://www.w3.org/1999/02/22-rdf-syntax-ns#"
   xmlns:svg="http://www.w3.org/2000/svg"
   xmlns="http://www.w3.org/2000/svg"
   xmlns:xlink="http://www.w3.org/1999/xlink"
   xmlns:inkscape="http://www.inkscape.org/namespaces/inkscape"
   version="1.0"
   width="96"
   height="96"
   id="svg2408">
  <defs
     id="defs2410">
    <linearGradient
       x1="45.447727"
       y1="92.539597"
       x2="45.447727"
       y2="7.0165396"
       id="ButtonShadow"
       gradientUnits="userSpaceOnUse"
       gradientTransform="scale(1.0058652,0.994169)">
      <stop
         id="stop3750"
         style="stop-color:#000000;stop-opacity:1"
         offset="0" />
      <stop
         id="stop3752"
         style="stop-color:#000000;stop-opacity:0.58823532"
         offset="1" />
    </linearGradient>
    <linearGradient
       id="linearGradient3737">
      <stop
         id="stop3739"
         style="stop-color:#ffffff;stop-opacity:1"
         offset="0" />
      <stop
         id="stop3741"
         style="stop-color:#ffffff;stop-opacity:0"
         offset="1" />
    </linearGradient>
    <linearGradient
       id="linearGradient3700">
      <stop
         id="stop3702"
         style="stop-color:#0a0a0a;stop-opacity:1"
         offset="0" />
      <stop
         id="stop3704"
         style="stop-color:#282828;stop-opacity:1"
         offset="1" />
    </linearGradient>
    <filter
       color-interpolation-filters="sRGB"
       id="filter3174">
      <feGaussianBlur
         id="feGaussianBlur3176"
         stdDeviation="1.71" />
    </filter>
    <linearGradient
       x1="36.357143"
       y1="6"
       x2="36.357143"
       y2="63.893143"
       id="linearGradient3188"
       xlink:href="#linearGradient3737"
       gradientUnits="userSpaceOnUse" />
    <filter
       x="-0.192"
       y="-0.192"
       width="1.3839999"
       height="1.3839999"
       color-interpolation-filters="sRGB"
       id="filter3794">
      <feGaussianBlur
         id="feGaussianBlur3796"
         stdDeviation="5.28" />
    </filter>
    <linearGradient
       x1="48"
       y1="20.220806"
       x2="48"
       y2="138.66119"
       id="linearGradient3613"
       xlink:href="#linearGradient3737"
       gradientUnits="userSpaceOnUse" />
    <radialGradient
       cx="48"
       cy="90.171875"
       r="42"
       fx="48"
       fy="90.171875"
       id="radialGradient3619"
       xlink:href="#linearGradient3737"
       gradientUnits="userSpaceOnUse"
       gradientTransform="matrix(1.1573129,0,0,0.99590774,-7.5510206,0.19713193)" />
    <clipPath
       id="clipPath3613">
      <rect
         width="84"
         height="84"
         rx="6"
         ry="6"
         x="6"
         y="6"
         id="rect3615"
         style="fill:#ffffff;fill-opacity:1;fill-rule:nonzero;stroke:none" />
    </clipPath>
    <linearGradient
       x1="48"
       y1="90"
       x2="48"
       y2="5.9877172"
       id="linearGradient3617"
       xlink:href="#linearGradient3700"
       gradientUnits="userSpaceOnUse" />
    <linearGradient
       x1="45.447727"
       y1="92.539597"
       x2="45.447727"
       y2="7.0165396"
       id="ButtonShadow-0"
       gradientUnits="userSpaceOnUse"
       gradientTransform="matrix(1.0058652,0,0,0.994169,100,0)">
      <stop
         id="stop3750-8"
         style="stop-color:#000000;stop-opacity:1"
         offset="0" />
      <stop
         id="stop3752-5"
         style="stop-color:#000000;stop-opacity:0.58823532"
         offset="1" />
    </linearGradient>
    <linearGradient
       x1="32.251034"
       y1="6.1317081"
       x2="32.251034"
       y2="90.238609"
       id="linearGradient3780"
       xlink:href="#ButtonShadow-0"
       gradientUnits="userSpaceOnUse"
       gradientTransform="matrix(1.0238095,0,0,1.0119048,-1.1428571,-98.071429)" />
    <linearGradient
       x1="32.251034"
       y1="6.1317081"
       x2="32.251034"
       y2="90.238609"
       id="linearGradient3772"
       xlink:href="#ButtonShadow-0"
       gradientUnits="userSpaceOnUse"
       gradientTransform="matrix(1.0238095,0,0,1.0119048,-1.1428571,-98.071429)" />
    <linearGradient
       x1="32.251034"
       y1="6.1317081"
       x2="32.251034"
       y2="90.238609"
       id="linearGradient3725"
       xlink:href="#ButtonShadow-0"
       gradientUnits="userSpaceOnUse"
       gradientTransform="matrix(1.0238095,0,0,1.0119048,-1.1428571,-98.071429)" />
    <linearGradient
       x1="32.251034"
       y1="6.1317081"
       x2="32.251034"
       y2="90.238609"
       id="linearGradient3721"
       xlink:href="#ButtonShadow-0"
       gradientUnits="userSpaceOnUse"
       gradientTransform="translate(0,-97)" />
    <linearGradient
       x1="32.251034"
       y1="6.1317081"
       x2="32.251034"
       y2="90.238609"
       id="linearGradient3026"
       xlink:href="#ButtonShadow-0"
       gradientUnits="userSpaceOnUse"
       gradientTransform="matrix(1.0238095,0,0,1.0119048,-1.1428571,-98.071429)" />
  </defs>
  <metadata
     id="metadata2413">
    <rdf:RDF>
      <cc:Work
         rdf:about="">
        <dc:format>image/svg+xml</dc:format>
        <dc:type
           rdf:resource="http://purl.org/dc/dcmitype/StillImage" />
        <dc:title />
      </cc:Work>
    </rdf:RDF>
  </metadata>
  <g
     id="layer2"
     style="display:none">
    <rect
       width="86"
       height="85"
       rx="6"
       ry="6"
       x="5"
       y="7"
       id="rect3745"
       style="opacity:0.9;fill:url(#ButtonShadow);fill-opacity:1;fill-rule:nonzero;stroke:none;filter:url(#filter3174)" />
  </g>
  <g
     id="layer3">
    <path
       d="m 12,-95.03125 c -5.5110903,0 -10.03125,4.52016 -10.03125,10.03125 l 0,71 c 0,5.5110902 4.5201598,10.03125 10.03125,10.03125 l 72,0 c 5.51109,0 10.03125,-4.5201597 10.03125,-10.03125 l 0,-71 c 0,-5.51109 -4.52016,-10.03125 -10.03125,-10.03125 l -72,0 z"
       transform="scale(1,-1)"
       id="path3786"
       style="opacity:0.07999998;fill:url(#linearGradient3026);fill-opacity:1;fill-rule:nonzero;stroke:none;display:inline" />
    <path
       d="m 12,-94.03125 c -4.971633,0 -9.03125,4.059617 -9.03125,9.03125 l 0,71 c 0,4.9716329 4.0596171,9.03125 9.03125,9.03125 l 72,0 c 4.971633,0 9.03125,-4.059617 9.03125,-9.03125 l 0,-71 c 0,-4.971633 -4.059617,-9.03125 -9.03125,-9.03125 l -72,0 z"
       transform="scale(1,-1)"
       id="path3778"
       style="opacity:0.1;fill:url(#linearGradient3780);fill-opacity:1;fill-rule:nonzero;stroke:none;display:inline" />
    <path
       d="m 12,-93 c -4.4091333,0 -8,3.590867 -8,8 l 0,71 c 0,4.4091333 3.5908667,8 8,8 l 72,0 c 4.409133,0 8,-3.5908667 8,-8 l 0,-71 c 0,-4.409133 -3.590867,-8 -8,-8 l -72,0 z"
       transform="scale(1,-1)"
       id="path3770"
       style="opacity:0.2;fill:url(#linearGradient3772);fill-opacity:1;fill-rule:nonzero;stroke:none;display:inline" />
    <rect
       width="86"
       height="85"
       rx="7"
       ry="7"
       x="5"
       y="-92"
       transform="scale(1,-1)"
       id="rect3723"
       style="opacity:0.3;fill:url(#linearGradient3725);fill-opacity:1;fill-rule:nonzero;stroke:none;display:inline" />
    <rect
       width="84"
       height="84"
       rx="6"
       ry="6"
       x="6"
       y="-91"
       transform="scale(1,-1)"
       id="rect3716"
       style="opacity:0.45;fill:url(#linearGradient3721);fill-opacity:1;fill-rule:nonzero;stroke:none;display:inline" />
  </g>
  <g
     id="layer1">
    <rect
       width="84"
       height="84"
       rx="6"
       ry="6"
       x="6"
       y="6"
       id="rect2419"
       style="fill:url(#linearGradient3617);fill-opacity:1;fill-rule:nonzero;stroke:none" />
    <path
       d="M 12,6 C 8.676,6 6,8.676 6,12 l 0,2 0,68 0,2 c 0,0.334721 0.04135,0.6507 0.09375,0.96875 0.0487,0.295596 0.09704,0.596915 0.1875,0.875 0.00988,0.03038 0.020892,0.0636 0.03125,0.09375 0.098865,0.287771 0.2348802,0.547452 0.375,0.8125 0.1445918,0.273507 0.3156161,0.535615 0.5,0.78125 0.1843839,0.245635 0.3737765,0.473472 0.59375,0.6875 0.439947,0.428056 0.94291,0.814526 1.5,1.09375 0.278545,0.139612 0.5734731,0.246947 0.875,0.34375 -0.2562018,-0.100222 -0.4867109,-0.236272 -0.71875,-0.375 -0.00741,-0.0044 -0.023866,0.0045 -0.03125,0 -0.031933,-0.0193 -0.062293,-0.04251 -0.09375,-0.0625 -0.120395,-0.0767 -0.2310226,-0.163513 -0.34375,-0.25 -0.1061728,-0.0808 -0.2132809,-0.161112 -0.3125,-0.25 C 8.4783201,88.557317 8.3087904,88.373362 8.15625,88.1875 8.0486711,88.057245 7.9378561,87.922215 7.84375,87.78125 7.818661,87.74287 7.805304,87.69538 7.78125,87.65625 7.716487,87.553218 7.6510225,87.451733 7.59375,87.34375 7.4927417,87.149044 7.3880752,86.928049 7.3125,86.71875 7.30454,86.69694 7.288911,86.6782 7.28125,86.65625 7.2494249,86.5643 7.2454455,86.469419 7.21875,86.375 7.1884177,86.268382 7.1483606,86.171969 7.125,86.0625 7.0521214,85.720988 7,85.364295 7,85 L 7,83 7,15 7,13 C 7,10.218152 9.2181517,8 12,8 l 2,0 68,0 2,0 c 2.781848,0 5,2.218152 5,5 l 0,2 0,68 0,2 c 0,0.364295 -0.05212,0.720988 -0.125,1.0625 -0.04415,0.206893 -0.08838,0.397658 -0.15625,0.59375 -0.0077,0.02195 -0.0233,0.04069 -0.03125,0.0625 -0.06274,0.173739 -0.138383,0.367449 -0.21875,0.53125 -0.04158,0.0828 -0.07904,0.169954 -0.125,0.25 -0.0546,0.09721 -0.126774,0.18835 -0.1875,0.28125 -0.09411,0.140965 -0.204921,0.275995 -0.3125,0.40625 -0.143174,0.17445 -0.303141,0.346998 -0.46875,0.5 -0.01117,0.0102 -0.01998,0.02115 -0.03125,0.03125 -0.138386,0.125556 -0.285091,0.234436 -0.4375,0.34375 -0.102571,0.07315 -0.204318,0.153364 -0.3125,0.21875 -0.0074,0.0045 -0.02384,-0.0044 -0.03125,0 -0.232039,0.138728 -0.462548,0.274778 -0.71875,0.375 0.301527,-0.0968 0.596455,-0.204138 0.875,-0.34375 0.55709,-0.279224 1.060053,-0.665694 1.5,-1.09375 0.219973,-0.214028 0.409366,-0.441865 0.59375,-0.6875 0.184384,-0.245635 0.355408,-0.507743 0.5,-0.78125 0.14012,-0.265048 0.276135,-0.524729 0.375,-0.8125 0.01041,-0.03078 0.02133,-0.06274 0.03125,-0.09375 0.09046,-0.278085 0.1388,-0.579404 0.1875,-0.875 C 89.95865,84.6507 90,84.334721 90,84 l 0,-2 0,-68 0,-2 C 90,8.676 87.324,6 84,6 L 12,6 z"
       inkscape:connector-curvature="0"
       id="rect3728"
       style="opacity:0.2;fill:url(#linearGradient3188);fill-opacity:1;fill-rule:nonzero;stroke:none" />
    <path
       d="M 12,90 C 8.676,90 6,87.324 6,84 L 6,82 6,14 6,12 c 0,-0.334721 0.04135,-0.6507 0.09375,-0.96875 0.0487,-0.295596 0.09704,-0.596915 0.1875,-0.875 C 6.29113,10.12587 6.302142,10.09265 6.3125,10.0625 6.411365,9.774729 6.5473802,9.515048 6.6875,9.25 6.8320918,8.976493 7.0031161,8.714385 7.1875,8.46875 7.3718839,8.223115 7.5612765,7.995278 7.78125,7.78125 8.221197,7.353194 8.72416,6.966724 9.28125,6.6875 9.559795,6.547888 9.8547231,6.440553 10.15625,6.34375 9.9000482,6.443972 9.6695391,6.580022 9.4375,6.71875 c -0.00741,0.0044 -0.023866,-0.0045 -0.03125,0 -0.031933,0.0193 -0.062293,0.04251 -0.09375,0.0625 -0.120395,0.0767 -0.2310226,0.163513 -0.34375,0.25 -0.1061728,0.0808 -0.2132809,0.161112 -0.3125,0.25 C 8.4783201,7.442683 8.3087904,7.626638 8.15625,7.8125 8.0486711,7.942755 7.9378561,8.077785 7.84375,8.21875 7.818661,8.25713 7.805304,8.30462 7.78125,8.34375 7.716487,8.446782 7.6510225,8.548267 7.59375,8.65625 7.4927417,8.850956 7.3880752,9.071951 7.3125,9.28125 7.30454,9.30306 7.288911,9.3218 7.28125,9.34375 7.2494249,9.4357 7.2454455,9.530581 7.21875,9.625 7.1884177,9.731618 7.1483606,9.828031 7.125,9.9375 7.0521214,10.279012 7,10.635705 7,11 l 0,2 0,68 0,2 c 0,2.781848 2.2181517,5 5,5 l 2,0 68,0 2,0 c 2.781848,0 5,-2.218152 5,-5 l 0,-2 0,-68 0,-2 C 89,10.635705 88.94788,10.279012 88.875,9.9375 88.83085,9.730607 88.78662,9.539842 88.71875,9.34375 88.71105,9.3218 88.69545,9.30306 88.6875,9.28125 88.62476,9.107511 88.549117,8.913801 88.46875,8.75 88.42717,8.6672 88.38971,8.580046 88.34375,8.5 88.28915,8.40279 88.216976,8.31165 88.15625,8.21875 88.06214,8.077785 87.951329,7.942755 87.84375,7.8125 87.700576,7.63805 87.540609,7.465502 87.375,7.3125 87.36383,7.3023 87.35502,7.29135 87.34375,7.28125 87.205364,7.155694 87.058659,7.046814 86.90625,6.9375 86.803679,6.86435 86.701932,6.784136 86.59375,6.71875 c -0.0074,-0.0045 -0.02384,0.0044 -0.03125,0 -0.232039,-0.138728 -0.462548,-0.274778 -0.71875,-0.375 0.301527,0.0968 0.596455,0.204138 0.875,0.34375 0.55709,0.279224 1.060053,0.665694 1.5,1.09375 0.219973,0.214028 0.409366,0.441865 0.59375,0.6875 0.184384,0.245635 0.355408,0.507743 0.5,0.78125 0.14012,0.265048 0.276135,0.524729 0.375,0.8125 0.01041,0.03078 0.02133,0.06274 0.03125,0.09375 0.09046,0.278085 0.1388,0.579404 0.1875,0.875 C 89.95865,11.3493 90,11.665279 90,12 l 0,2 0,68 0,2 c 0,3.324 -2.676,6 -6,6 l -72,0 z"
       inkscape:connector-curvature="0"
       id="path3615"
       style="opacity:0.1;fill:url(#radialGradient3619);fill-opacity:1;fill-rule:nonzero;stroke:none" />
    <path
       d="m 46.681596,15.005846 c -2.163252,0.04267 -4.321382,0.327157 -6.401406,0.849744 -1.933461,0.485764 -4.706199,1.69563 -5.872679,2.568116 -0.787076,0.588712 -0.479864,0.535329 0.472082,-0.07554 2.077011,-1.33281 4.962756,-2.313613 8.100899,-2.775831 2.591684,-0.381731 7.86031,-0.260052 10.21581,0.245482 2.249307,0.482744 4.130473,1.16615 6.080392,2.171568 0.911844,0.470166 1.69234,0.819125 1.718371,0.793095 0.02604,-0.02604 -0.540156,-0.370191 -1.246291,-0.774212 -3.591344,-2.05481 -8.308024,-3.096319 -13.067178,-3.002429 z m 0.547613,1.170758 c -1.707634,-0.0013 -3.407382,0.08406 -4.456434,0.245482 -6.258866,0.963074 -10.619624,4.097468 -11.953067,8.591858 -0.200102,0.674428 -0.216723,0.868627 -0.05662,0.868627 0.114848,0 0.282124,-0.07441 0.377659,-0.169948 0.26228,-0.262273 0.93132,-0.337125 1.491773,-0.169949 0.365501,0.109022 0.414741,0.150826 0.16995,0.169949 -0.33515,0.02618 -0.33515,0.02593 0,0.169948 0.18434,0.07921 0.562042,0.163472 0.830862,0.169949 0.588563,0.01417 0.494774,0.155826 -0.132183,0.207715 -0.303521,0.02512 -0.453194,0.137293 -0.453194,0.339898 0,0.164233 0.0925,0.300721 0.207718,0.302132 0.139642,0.0017 0.129785,0.06165 -0.03778,0.169948 -0.413134,0.266987 -0.663491,0.185868 -0.86863,-0.264365 l -0.188829,-0.434313 -0.358788,0.434313 c -0.200302,0.250189 -0.559533,0.45796 -0.849741,0.490964 -0.276506,0.03145 -0.554018,0.06503 -0.623145,0.07554 -0.211851,0.03221 -0.128656,0.835268 0.09441,0.925277 0.131687,0.05314 0.09844,0.0861 -0.07555,0.09442 -0.233241,0.01114 -0.2939,0.321008 -0.396548,1.963853 -0.166311,2.66182 0.0043,6.915557 0.3399,8.440793 0.602945,2.738289 1.973895,5.384722 3.663347,7.100085 1.24931,1.268481 3.148061,2.696164 8.006476,5.985975 7.582484,5.134379 8.148376,5.684308 8.761805,8.610739 0.12776,0.609475 0.256969,1.144483 0.302132,1.189641 0.04514,0.04516 0.81379,-0.02744 1.699488,-0.16995 1.685542,-0.271226 3.834282,-0.34901 2.624766,-0.09441 l -0.58538,0.113303 0.736445,0.03778 c 0.50839,0.01659 0.686412,0.07008 0.52873,0.169941 -0.128641,0.08146 -0.188802,0.267882 -0.132183,0.415436 0.145198,0.378379 -0.06614,0.323373 -0.793094,-0.16995 -0.346255,-0.234978 -0.685808,-0.37165 -0.736445,-0.321012 -0.05064,0.05063 0.02049,0.09115 0.151065,0.09441 0.498354,0.0125 -0.636276,0.474618 -1.435123,0.585376 -1.25993,0.174692 -1.554876,0.333951 -1.680605,0.906397 -0.06195,0.282028 -0.1732,0.509841 -0.245482,0.509841 -0.07229,0 -0.159707,0.695875 -0.207715,1.548429 -0.09355,1.661151 -0.470986,2.804722 -1.114109,3.380094 -0.21174,0.189429 -0.288397,0.372779 -0.188832,0.434315 0.194192,0.120016 -0.723931,0.222333 -1.869438,0.207709 -1.362726,-0.01737 -2.126104,-0.646974 -2.379283,-1.963847 -0.05317,-0.276505 -0.149809,-1.113212 -0.207716,-1.850562 -0.05789,-0.737332 -0.116927,-1.345922 -0.132185,-1.359591 -0.09804,-0.08787 -3.450714,0.552533 -3.361206,0.642033 0.0614,0.0614 -0.05202,0.06947 -0.245485,0.01884 -0.263496,-0.06887 -0.354784,-0.0078 -0.358779,0.226597 -0.0052,0.302419 -0.02075,0.296462 -0.245485,0 -0.205226,-0.270791 -0.437363,-0.291442 -2.07715,-0.245476 -1.021341,0.02866 -1.869433,0.09028 -1.869433,0.151062 0,0.06079 -0.384753,0.09039 -0.868629,0.05662 -0.632124,-0.04403 -0.803758,-0.0087 -0.623144,0.113294 0.192112,0.129698 0.119859,0.150054 -0.264365,0.113303 -0.29436,-0.02814 -0.577899,0.06053 -0.698679,0.207717 -0.183376,0.223428 -0.22816,0.223428 -0.377668,0 -0.09251,-0.138261 -0.168543,-0.172312 -0.16995,-0.07555 -8.68e-4,0.09678 0.07824,0.267065 0.188839,0.377667 0.156402,0.156403 0.1512,0.198026 -0.03778,0.207709 -0.13365,0.0069 -0.397302,0.03986 -0.585385,0.07555 -0.196515,0.03734 -0.536068,-0.102821 -0.811974,-0.3399 -0.561599,-0.482564 -0.805165,-0.527062 -0.736446,-0.132183 0.03838,0.22064 -0.09454,0.282402 -0.585377,0.302133 -0.346179,0.01389 -0.671116,0.06687 -0.717567,0.113303 -0.158331,0.158339 0.576579,3.925097 0.981932,5.041817 0.551951,1.520605 0.893153,2.018375 1.302935,1.88832 0.226189,-0.07182 0.32102,-0.02761 0.32102,0.151062 0,0.159946 -0.08928,0.211009 -0.245485,0.151062 -0.535303,-0.205408 -0.211608,0.33475 0.906397,1.472894 0.728918,0.742048 1.252758,1.135148 1.378471,1.057459 0.123151,-0.07607 0.144835,-0.05549 0.07555,0.05662 -0.164452,0.266084 1.395258,1.284742 1.9072,1.246288 0.323478,-0.02432 0.359631,0.01138 0.16995,0.132182 -0.370051,0.235342 1.221287,0.900067 1.850553,0.774215 0.390338,-0.07807 0.463832,-0.03569 0.377668,0.188829 -0.07008,0.182543 -0.03656,0.232043 0.09441,0.151071 0.107841,-0.06669 0.18883,-0.24486 0.18883,-0.377668 0,-0.132816 0.08068,-0.226597 0.16995,-0.226597 0.08927,0 0.109707,0.107233 0.05662,0.245477 -0.08276,0.215559 0.212494,0.245485 2.096038,0.245485 1.64406,0 2.207413,-0.05098 2.209332,-0.207717 0.0017,-0.154684 0.04507,-0.148422 0.151071,0.01884 0.107267,0.16929 0.430849,0.19807 1.284054,0.132183 0.716015,-0.05532 1.038431,-0.01997 0.88751,0.07555 -0.132382,0.0838 -1.102507,0.149655 -2.171564,0.151062 -2.531638,0.0026 -4.685669,0.187892 -4.248724,0.358788 0.18038,0.07052 0.689761,0.125704 1.132995,0.132182 0.475668,0.0069 0.758009,0.0739 0.69867,0.16995 -0.372587,0.60285 6.99508,1.103242 10.045869,0.679792 0.645178,-0.08955 1.851907,-0.339449 2.681415,-0.547609 l 1.510657,-0.377668 -1.00081,-0.09441 -1.00081,-0.09441 1.340707,-0.03778 c 0.737346,-0.02197 1.496269,-0.104748 1.680606,-0.188838 0.210791,-0.09614 -1.042541,-0.141118 -3.361211,-0.113294 -2.027688,0.02432 -3.945019,-0.01572 -4.267604,-0.07555 -0.399684,-0.07416 -0.102483,-0.111844 0.925277,-0.132183 7.393696,-0.146303 8.898491,-0.268733 8.742923,-0.736447 -0.03541,-0.106486 -0.278715,-0.243905 -0.547612,-0.302132 l -0.490963,-0.113294 0.453196,-0.03778 c 0.253458,-0.0224 0.516252,-0.05949 0.585379,-0.07555 0.06913,-0.01598 0.489628,-0.08111 0.925278,-0.151062 0.435643,-0.06991 0.844414,-0.201847 0.906393,-0.302132 0.07513,-0.121562 -0.02947,-0.143976 -0.30213,-0.07555 -0.900551,0.226024 -2.322635,0.31508 -2.322635,0.151071 0,-0.09219 0.185013,-0.1386 0.41543,-0.113303 0.230424,0.02536 0.415431,-0.02927 0.415431,-0.113295 0,-0.08406 0.50749,-0.15107 1.114109,-0.15107 1.019452,0 1.166203,-0.04351 1.850554,-0.604265 0.407224,-0.33369 0.736445,-0.713572 0.736445,-0.830861 0,-0.117281 0.106972,-0.248977 0.245482,-0.302124 0.319087,-0.122447 1.270057,-1.621568 1.151875,-1.812794 -0.04864,-0.07868 8.46e-4,-0.132182 0.09442,-0.132182 0.282862,0 0.962313,-2.496424 1.151876,-4.192068 0.403997,-3.613838 0.421878,-3.518034 0,-3.531164 -0.36063,-0.0112 -0.375942,-0.01381 -0.05665,-0.151062 0.194155,-0.08346 0.249694,-0.163124 0.113299,-0.16995 -0.186391,-0.0094 -0.187376,-0.07225 0.03777,-0.321012 0.226719,-0.250522 0.287061,-0.603934 0.264365,-1.756138 -0.01565,-0.794926 -0.09622,-1.454006 -0.169949,-1.454006 -0.07373,0 -0.08778,-0.384311 -0.03777,-0.868629 0.104242,-1.01 -0.292844,-3.993103 -0.793095,-5.929324 -0.187589,-0.726145 -0.656267,-1.973532 -1.03856,-2.756958 -0.580703,-1.190033 -0.972096,-1.692424 -2.379284,-3.096845 -2.655788,-2.650572 -5.147265,-4.509595 -10.310229,-7.704348 -5.260975,-3.255398 -5.947533,-3.922564 -6.476939,-6.42029 -0.129786,-0.61236 -0.224999,-1.821298 -0.226597,-2.681414 l 0,-1.567306 -1.132994,0.03777 c -1.921581,0.05577 -3.627282,0.0016 -3.512277,-0.113299 0.06027,-0.06032 0.574704,-0.204789 1.151874,-0.321014 1.733177,-0.349007 3.044927,-0.608731 3.43675,-0.679796 0.221186,-0.04011 0.476711,-0.312541 0.642025,-0.660912 0.661902,-1.394856 2.869002,-1.83974 3.83329,-0.774212 0.311533,0.344244 0.793258,0.304031 3.625575,-0.321014 0.873045,-0.192667 2.004544,-0.41992 2.511467,-0.509846 0.506921,-0.08993 1.402529,-0.265889 2.001619,-0.396547 0.59909,-0.13066 1.488033,-0.282838 1.963854,-0.339899 0.756554,-0.09073 0.878621,-0.172519 1.057458,-0.604262 0.192053,-0.463659 0.234733,-0.475234 0.58538,-0.245481 0.466944,0.305956 0.893783,0.253551 1.189642,-0.151067 0.125505,-0.171633 0.226598,-0.223082 0.226598,-0.113298 0,0.233814 0.98968,0.259949 1.340708,0.03777 0.203443,-0.128768 0.182209,-0.246856 -0.05665,-0.868627 -0.15355,-0.399693 -0.419781,-0.982492 -0.604263,-1.284058 l -0.339897,-0.547613 -3.984357,0.07553 c -3.946529,0.08263 -5.638361,-0.07696 -3.153495,-0.302131 0.691089,-0.06262 1.691186,-0.226318 2.228219,-0.377664 0.923603,-0.26029 1.32783,-0.318207 3.021313,-0.415431 0.391712,-0.02249 0.717561,-0.105216 0.717561,-0.169948 0,-0.06473 -0.388419,-0.401851 -0.868628,-0.755328 -2.449825,-1.803288 -5.415787,-2.965623 -8.931755,-3.493394 -1.085824,-0.162988 -2.805452,-0.244228 -4.513086,-0.245482 z m -9.101705,2.681415 c 0.08007,0 0.103299,0.06391 0.03778,0.16995 -0.05697,0.09217 -0.240692,0.152476 -0.396547,0.151065 -0.2442,-0.0023 -0.23549,-0.01107 -0.01884,-0.151065 0.164097,-0.106043 0.297564,-0.16995 0.377668,-0.16995 z m 5.325062,0 c 0.09217,0 0.15107,0.07778 0.15107,0.16995 0,0.09217 -0.05888,0.151065 -0.15107,0.151065 -0.09217,0 -0.16995,-0.0589 -0.16995,-0.151065 0,-0.09217 0.07781,-0.16995 0.16995,-0.16995 z M 33.19899,19.500048 c -0.01225,-0.0049 -0.02649,0.0052 -0.07555,0.03777 -0.196254,0.130331 -0.555164,0.460826 -0.793094,0.736444 -0.237921,0.27562 -0.630247,0.724307 -0.868629,1.00081 -0.803741,0.932303 -2.296713,4.537835 -1.73725,4.192072 0.08224,-0.05081 0.151062,-0.21651 0.151062,-0.358781 0,-0.422735 1.288893,-3.037525 1.869441,-3.795524 0.295827,-0.386252 0.803272,-0.999724 1.132994,-1.359591 0.247291,-0.2699 0.357633,-0.438493 0.321012,-0.453197 z m 19.468582,2.209335 c 0.08672,0 0.169949,0.0589 0.169949,0.151066 0,0.09217 -0.120677,0.169948 -0.264365,0.169948 -0.143694,0 -0.226913,-0.07778 -0.169949,-0.169948 0.05699,-0.09217 0.177636,-0.151066 0.264365,-0.151066 z m 0.52873,0 c 0.03481,-0.0085 0.06721,0 0.113299,0 0.184337,0 0.37735,0.0589 0.434314,0.151066 0.05698,0.09217 -0.04224,0.169948 -0.226598,0.169948 -0.184337,0 -0.37735,-0.07778 -0.434314,-0.169948 -0.04272,-0.06913 0.0089,-0.125536 0.113299,-0.151066 z m 10.83896,0.321014 c -0.192924,0 -0.187854,0.113119 0.01888,0.472081 0.09218,0.160044 0.323208,0.663266 0.509847,1.114109 0.186638,0.450841 0.386431,0.765444 0.434313,0.717562 0.04786,-0.04788 -0.114447,-0.579306 -0.358781,-1.189642 -0.244333,-0.610339 -0.521895,-1.11411 -0.604262,-1.11411 z m -10.895609,2.681416 c 0.08141,0 0.197273,0.155562 0.245481,0.339897 0.08614,0.329407 -0.06352,0.446295 -0.283248,0.226599 -0.162577,-0.162573 -0.135379,-0.566496 0.03777,-0.566496 z m -8.44079,2.020503 c 0.215221,0 0.23892,0.06989 0.09441,0.339897 -0.09865,0.184336 -0.284582,0.322426 -0.396548,0.321014 -0.139485,-0.0017 -0.120476,-0.05085 0.03778,-0.151065 0.127015,-0.08045 0.176628,-0.218541 0.113294,-0.321014 -0.06609,-0.106938 -0.0026,-0.188832 0.151071,-0.188832 z m -4.041006,0.169949 c 0.03621,0 0.11689,0.10723 0.16995,0.245481 0.05306,0.138251 0.01372,0.245481 -0.07555,0.245481 -0.08928,0 -0.151071,-0.10723 -0.151071,-0.245481 0,-0.138251 0.02032,-0.245481 0.05662,-0.245481 z m 2.964659,0.679794 c 0.05818,-0.0024 0.128344,0.01356 0.188829,0.03777 0.133685,0.05349 0.100807,0.08637 -0.09441,0.09442 -0.176655,0.0073 -0.282281,-0.01985 -0.226597,-0.07554 0.02788,-0.02784 0.07399,-0.05425 0.132182,-0.05665 z m 3.738876,0 c -0.337838,0.01784 -0.736445,0.188115 -0.736445,0.358782 0,0.150375 0.05493,0.15281 0.207715,0 0.110604,-0.110602 0.388118,-0.219323 0.623146,-0.226599 0.235028,-0.0073 0.326882,-0.04661 0.207715,-0.09442 -0.08051,-0.0323 -0.18952,-0.04372 -0.302131,-0.03777 z m -15.635296,0.03777 c 0.0851,0.0019 0.15457,0.03785 0.245485,0.1133 0.133424,0.110733 0.242681,0.137059 0.245477,0.05665 0.0026,-0.08041 0.08042,-0.02119 0.16995,0.132182 0.08952,0.153372 0.112747,0.40144 0.05662,0.547612 -0.10237,0.266779 -0.230557,0.293138 -0.774206,0.151066 -0.358258,-0.09362 -0.385918,-0.377664 -0.03778,-0.377664 0.138244,0 0.245476,-0.119901 0.245476,-0.264364 0,-0.191212 -0.103177,-0.244993 -0.377659,-0.169949 -0.333708,0.09123 -0.342844,0.09157 -0.07555,-0.07554 0.11319,-0.07076 0.217001,-0.115257 0.302132,-0.113299 z m -0.830862,0.47208 c 0.06018,-0.02919 0.131245,0.04619 0.207718,0.245482 0.154822,0.403464 0.136307,0.566496 -0.09442,0.566496 -0.115213,0 -0.207717,-0.185011 -0.207717,-0.41543 0,-0.236385 0.03421,-0.367354 0.09441,-0.396548 z m 33.366626,0.09442 c -0.513406,-0.01696 -1.378788,0.085 -1.302941,0.207715 0.04302,0.0696 -0.112272,0.100162 -0.339898,0.05665 -0.322888,-0.06173 -0.41543,-0.0223 -0.41543,0.226599 0,0.211445 -0.108883,0.341597 -0.358781,0.35878 -0.346998,0.02387 -0.364305,-0.0069 -0.09442,-0.207715 0.596668,-0.443978 0.288729,-0.470713 -1.548422,-0.169949 -0.322585,0.05281 -1.451535,0.131818 -2.511466,0.169949 -1.059931,0.03813 -2.500003,0.147623 -3.191262,0.245482 -0.691258,0.09786 -1.990495,0.228182 -2.889131,0.283248 l -1.623954,0.09442 0,3.247912 0,3.247911 7.477748,0 7.477749,0 -0.09442,-3.795524 c -0.05372,-2.08563 -0.15089,-3.843722 -0.226598,-3.908824 -0.04538,-0.03903 -0.187646,-0.05099 -0.358781,-0.05665 z m 1.378474,0.132183 c -0.03031,-0.0113 -0.05665,0.07267 -0.05665,0.245481 0,0.230419 0.04796,0.341808 0.09442,0.226599 0.04647,-0.11521 0.04647,-0.319105 0,-0.434314 -0.01162,-0.02881 -0.02766,-0.034 -0.03777,-0.03777 z m -36.63342,0.339897 c -0.06244,-0.05135 -0.15451,0.954262 -0.245477,3.021313 -0.250417,5.69 0.81101,10.232245 3.172377,13.539257 1.342118,1.879593 2.884494,3.116049 9.082823,7.307801 2.210756,1.495078 4.117842,2.800759 4.229836,2.908013 0.154945,0.14839 -1.569273,0.186802 -7.175616,0.151066 -4.753961,-0.03031 -7.364452,0.0069 -7.364452,0.113299 0,0.10575 2.662283,0.169966 7.421099,0.169949 4.082881,-1.3e-5 7.530351,0.04214 7.666582,0.09442 0.163441,0.06272 0.251349,0.334221 0.245481,0.774211 -0.0049,0.366721 0.06922,0.660915 0.151066,0.660915 0.08183,0 0.09832,-0.262792 0.03777,-0.585382 -0.06052,-0.322587 -0.05444,-0.586774 0.01885,-0.585379 0.0733,0.0013 0.681704,0.457927 1.35959,1.019691 1.296203,1.074158 1.830819,1.917855 2.00162,3.191264 0.04749,0.354203 0.139579,0.642024 0.207715,0.642024 0.06813,0 0.05958,-0.335219 -0.01885,-0.755326 -0.395937,-2.119347 -1.39271,-3.028905 -8.875103,-8.119776 -4.683611,-3.186631 -6.800691,-4.793652 -7.93095,-6.042625 -1.818959,-2.010014 -3.214104,-5.237911 -3.719993,-8.554092 -0.204401,-1.339918 -0.257939,-2.659954 -0.207709,-5.683845 0.03508,-2.113008 0.0061,-3.215442 -0.05662,-3.266794 z m 36.708952,0.566496 c -0.09701,0.01005 -0.132651,0.211752 -0.03777,0.453198 0.118676,0.301986 0.130139,0.310516 0.188832,0.01888 0.03389,-0.168507 0.01644,-0.361199 -0.03777,-0.415431 -0.04506,-0.04505 -0.08096,-0.06 -0.113299,-0.05665 z m -16.636103,0.811978 c -0.02278,-0.02381 -0.03813,0.340911 -0.03777,0.963044 5.01e-4,0.82951 0.022,1.158138 0.05662,0.717561 0.03462,-0.440578 0.03541,-1.121725 0,-1.510656 -0.0088,-0.09723 -0.0113,-0.162011 -0.01885,-0.169949 z m -3.285677,0.03777 c -0.09217,0 -0.171357,0.218618 -0.169949,0.472079 0.0018,0.35911 0.04339,0.403593 0.169949,0.207716 0.08935,-0.138252 0.168541,-0.35687 0.169949,-0.47208 0.0012,-0.115209 -0.07779,-0.207715 -0.169949,-0.207715 z m 20.016197,0.151065 c -0.02748,-0.01581 -0.03777,0.116842 -0.03777,0.358781 0,0.322587 0.0334,0.444542 0.07554,0.283248 0.04212,-0.161293 0.04212,-0.424086 0,-0.585379 -0.01053,-0.04032 -0.0286,-0.05138 -0.03777,-0.05665 z m -31.232822,3.040196 c 0.09217,0 0.132495,0.07778 0.07555,0.169949 -0.05697,0.09217 -0.191078,0.169949 -0.283253,0.169949 -0.09216,0 -0.113606,-0.07778 -0.05662,-0.169949 0.05697,-0.09217 0.172191,-0.169949 0.264365,-0.169949 z m 14.483419,0.698679 c -0.02604,-0.02033 -0.03777,0.161013 -0.03777,0.47208 0,0.414755 0.03559,0.585041 0.07553,0.377664 0.03994,-0.207377 0.03994,-0.547951 0,-0.755328 -0.01,-0.05185 -0.02907,-0.08764 -0.03777,-0.09442 z m -2.756948,1.095225 c -0.01783,0.03325 0.04514,0.174384 0.169949,0.415431 0.26022,0.502493 0.671372,0.981926 0.849744,0.981926 0.07659,0 -0.0983,-0.335133 -0.396547,-0.736445 -0.361367,-0.486231 -0.59347,-0.716336 -0.623146,-0.660912 z M 49.06088,35.4186 c -0.02749,-0.01581 -0.05662,0.11684 -0.05662,0.35878 0,0.322588 0.05227,0.463425 0.09442,0.302131 0.04212,-0.161293 0.04212,-0.442969 0,-0.604262 -0.01052,-0.04032 -0.02858,-0.05138 -0.03777,-0.05665 z m 0.188832,1.057458 c -0.02586,0.0015 -0.04218,0.02331 -0.05662,0.03777 -0.05783,0.0578 0.158589,0.203838 0.47208,0.339897 0.440362,0.191123 1.36576,0.259299 4.059889,0.264366 2.093372,0.0039 3.437559,-0.05809 3.380093,-0.151066 -0.0542,-0.08768 -1.647345,-0.158436 -3.682224,-0.151066 -2.713066,0.0098 -3.65467,-0.04381 -3.852174,-0.207715 -0.107939,-0.08958 -0.243463,-0.136785 -0.321014,-0.132183 z m 16.466154,0 c -0.02564,-0.0082 -0.129406,0.03261 -0.321014,0.132184 -0.561795,0.291948 -0.606402,0.339897 -0.302132,0.339897 0.142329,0 0.364468,-0.129906 0.490964,-0.283249 0.10519,-0.127512 0.157816,-0.180543 0.132182,-0.188832 z M 47.701289,36.66489 c -0.07966,0.07967 1.628059,1.449804 1.812788,1.454008 0.06912,0.0015 0.132182,-0.02383 0.132182,-0.05665 0,-0.115174 -1.877915,-1.46441 -1.94497,-1.397358 z m 10.990026,0.132184 c -0.428453,0.0093 -0.87965,0.08445 -0.944161,0.188832 -0.04665,0.07547 0.337378,0.132182 0.849744,0.132182 0.53858,0 0.925277,-0.06827 0.925277,-0.169949 0,-0.102982 -0.402408,-0.160375 -0.83086,-0.151065 z m 3.021312,0.07554 c -0.925929,2.51e-4 -1.863219,0.03154 -1.94497,0.113299 -0.06856,0.06856 0.75638,0.132183 1.831671,0.132183 1.075291,0 1.944976,-0.06306 1.94497,-0.132183 -6e-6,-0.08174 -0.905741,-0.113551 -1.831671,-0.113299 z m 2.190452,0.09441 c -0.05822,0.0024 -0.104338,0.02882 -0.132183,0.05665 -0.05571,0.05568 0.03104,0.08281 0.207716,0.07553 0.195219,-0.0081 0.24698,-0.04092 0.113299,-0.09442 -0.06048,-0.0242 -0.130617,-0.04016 -0.188832,-0.03777 z m -13.879156,1.321825 c -0.03118,0.0083 -0.03777,0.03507 -0.03777,0.07553 0,0.08092 0.851702,0.58007 1.00081,0.58538 0.0461,0.0016 -0.109481,-0.140778 -0.339898,-0.321014 -0.304089,-0.237863 -0.529649,-0.364791 -0.623146,-0.339899 z m 1.510657,0.906394 c -0.0067,0.0084 0.003,0.03113 0.01885,0.05665 0.06467,0.104635 0.685318,0.543942 1.397357,0.981927 0.712033,0.437987 1.536284,0.97834 1.812788,1.189642 0.484159,0.369995 0.755328,0.47624 0.755328,0.302132 0,-0.04554 -0.636972,-0.474954 -1.397357,-0.963044 -1.906497,-1.22378 -2.540586,-1.626075 -2.587,-1.567306 z m 4.550852,2.983546 c -0.04949,0.04947 2.331608,1.869868 2.568116,1.963853 0.02302,0.0091 0.03777,-0.05152 0.03777,-0.132182 0,-0.169453 -2.506482,-1.931076 -2.605883,-1.831671 z m 2.851364,2.020503 c -0.04532,0.04531 0.353143,0.424715 0.887511,0.849744 0.866899,0.689522 1.208525,0.899395 1.208525,0.717562 0,-0.132659 -2.019965,-1.643374 -2.096036,-1.567306 z m -13.407075,1.47289 c 0.04067,0 0.112985,0.0589 0.169949,0.151066 0.05698,0.09217 0.02206,0.169948 -0.07553,0.169948 -0.09761,0 -0.169948,-0.07778 -0.169948,-0.169948 0,-0.09217 0.03487,-0.151066 0.07554,-0.151066 z m 17.278132,1.850554 c -0.03614,0.03616 0.18575,0.402927 0.509846,0.793094 0.577603,0.695361 0.888653,0.921134 0.623146,0.472081 -0.242551,-0.410228 -1.065888,-1.332282 -1.132992,-1.265175 z m 1.397357,1.661722 c -0.179001,0 0.895342,1.997894 1.076342,2.00162 0.07453,0.0015 -0.101799,-0.447803 -0.396547,-1.00081 -0.294753,-0.553007 -0.602927,-1.00081 -0.679795,-1.00081 z m 1.435124,2.738065 c -0.02639,0.05467 0.01684,0.319783 0.132182,0.774211 0.103788,0.408887 0.208307,0.659125 0.245482,0.547613 0.03716,-0.111515 -0.0045,-0.463528 -0.1133,-0.793095 -0.13591,-0.411818 -0.237977,-0.583398 -0.264364,-0.528729 z m 0.774211,2.624765 c -0.0571,0 0.025,0.773653 0.188832,1.718371 0.16384,0.944727 0.353476,3.046228 0.415431,4.683036 0.125348,3.311706 0.299593,3.921833 0.245481,0.84975 -0.05178,-2.938354 -0.555577,-7.251157 -0.849744,-7.251157 z m -37.086611,1.907203 c -0.249836,0.386342 -0.123854,7.647701 0.132183,7.647701 0.0244,0 0.031,-1.772265 0.01884,-3.927711 -0.01207,-2.155438 -0.08337,-3.824702 -0.15107,-3.71999 z m 24.793645,0.188832 c 0.06146,-0.0076 0.124973,0.04749 0.226599,0.169949 0.158226,0.190655 0.176982,0.356846 0.05662,0.547621 -0.241778,0.383294 -0.520494,0.430007 -0.642029,0.113294 -0.0574,-0.149629 0.007,-0.425405 0.132182,-0.604265 0.103661,-0.147992 0.165145,-0.218952 0.226599,-0.226599 z m -23.755074,0.07554 0,3.663339 c 0,2.690481 0.0535,3.704858 0.207718,3.871065 0.115213,0.124114 0.13629,0.18691 0.03778,0.132182 -0.114614,-0.06365 -0.15774,0.07486 -0.113303,0.377659 0.06522,0.444536 0.100198,0.452126 0.547618,0.283253 0.261985,-0.09889 0.432273,-0.251538 0.377658,-0.3399 -0.05462,-0.08836 -0.01198,-0.103533 0.09442,-0.03778 0.106373,0.06574 0.621876,-0.106746 1.151873,-0.377667 1.491965,-0.762656 2.330703,-0.997043 4.32425,-1.208521 1.013855,-0.107554 2.987846,-0.334055 4.399785,-0.50985 1.41194,-0.175785 2.837296,-0.321011 3.153497,-0.321011 l 0.566498,0 0,-2.75695 0,-2.775831 -7.364453,0 -7.383332,0 z m 6.382529,0.169948 c 0.105461,0.01016 0.192928,0.176527 0.132182,0.358783 -0.05671,0.170288 -0.102143,0.170818 -0.207717,0 -0.07217,-0.116803 -0.09307,-0.246819 -0.03778,-0.302134 0.03743,-0.03749 0.07816,-0.06003 0.113303,-0.05665 z m 9.38495,0.9064 c -0.21113,0.13048 -0.210689,4.286482 0,4.286482 0.100646,0 0.151065,-0.860509 0.151065,-2.190452 0,-1.265264 -0.06326,-2.150297 -0.151065,-2.09603 z m 13.916921,2.624759 c 0.05164,-0.0017 0.08558,0.03092 0.113299,0.113303 0.08732,0.259432 1.038577,0.276427 1.038577,0.01884 0,-0.114754 0.161755,-0.07182 0.41543,0.09441 0.458926,0.300708 0.668357,0.339232 0.52873,0.113303 -0.152347,-0.246492 0.893486,-0.318615 1.095226,-0.07555 0.137246,0.165373 0.107232,0.243635 -0.09442,0.32102 -0.148105,0.0568 -0.220943,0.181856 -0.169949,0.264365 0.051,0.0825 0.0032,0.151062 -0.09442,0.151062 -0.09761,0 -0.169949,-0.126113 -0.169949,-0.264365 0,-0.364893 -0.257748,-0.301681 -0.566496,0.132182 -0.147573,0.207379 -0.216381,0.254812 -0.169949,0.113303 0.05589,-0.170271 -0.03984,-0.247456 -0.264365,-0.264365 -0.186602,-0.01407 -0.339898,0.03317 -0.339898,0.113295 0,0.08015 -0.199738,0.124731 -0.453197,0.09441 -0.315612,-0.03778 -0.557039,0.05575 -0.755328,0.302133 -0.183278,0.22776 -0.299774,0.277147 -0.302131,0.132182 -0.0024,-0.155065 -0.142709,-0.206806 -0.434313,-0.151062 -0.3014,0.05758 -0.485834,-0.0069 -0.623146,-0.226597 -0.107909,-0.17279 -0.323359,-0.32102 -0.490963,-0.32102 -0.167605,0 -0.277593,0.06852 -0.226599,0.15107 0.051,0.0825 -0.02472,0.189733 -0.169948,0.245477 -0.408029,0.156576 -0.757087,0.129525 -0.64203,-0.05662 0.05976,-0.09671 -0.106006,-0.171427 -0.377664,-0.16995 -0.365506,0.0017 -0.402892,0.04386 -0.207715,0.16995 0.218712,0.141344 0.199564,0.167718 -0.03777,0.16995 -0.150007,0.0017 -0.357342,-0.126113 -0.47208,-0.264365 -0.180318,-0.21727 -0.103051,-0.245485 0.566497,-0.245485 0.500921,0 0.784538,-0.07225 0.793095,-0.207709 0.0081,-0.128197 0.02961,-0.148431 0.07554,-0.03778 0.09923,0.239329 1.844264,0.01806 2.209335,-0.283252 0.106114,-0.08758 0.174964,-0.130168 0.226598,-0.132183 z m 4.041006,0 c 0.345632,-0.0017 0.642029,0.05992 0.642029,0.15107 0,0.186442 -0.749086,0.17715 -1.057459,-0.01884 -0.112986,-0.07182 0.06216,-0.130741 0.41543,-0.132183 z m -3.380094,0.50985 c -0.05822,0.0026 -0.104338,0.02883 -0.132182,0.05662 -0.05571,0.05567 0.04998,0.08285 0.226598,0.07555 0.195219,-0.0078 0.228104,-0.0409 0.09442,-0.09441 -0.06048,-0.02423 -0.130617,-0.04021 -0.188832,-0.03778 z m -7.137851,0.660912 c -0.09738,0.01416 -0.06672,0.06583 0.09442,0.16995 0.316253,0.204382 0.339898,0.204382 0.339898,0 0,-0.09217 -0.140842,-0.171357 -0.302131,-0.16995 -0.06266,5.47e-4 -0.09972,-0.0043 -0.132183,0 z m -21.659032,1.944967 c 0.07607,-0.02458 0.130333,-0.0017 0.18883,0.05662 0.09434,0.09435 0.40636,0.169941 0.679791,0.169941 0.766164,0 0.462199,0.135023 -0.52873,0.226606 -0.86763,0.08016 -0.887656,0.06765 -0.604256,-0.245485 0.09906,-0.109464 0.188248,-0.183098 0.264365,-0.207718 z m 32.705707,0.472082 c 0.03757,-0.0087 0.09185,6.08e-4 0.151065,0.03778 0.115209,0.07225 0.329667,0.102065 0.490964,0.07555 0.582183,-0.09578 0.281423,0.468045 -0.415431,0.774206 -0.401859,0.176559 -0.455124,0.158183 -0.47208,-0.09441 -0.01716,-0.255915 -0.02977,-0.243254 -0.09442,0 -0.05705,0.214517 -0.294046,0.272241 -1.076343,0.283252 -0.614794,0.0087 -0.968385,-0.05071 -0.906394,-0.15107 0.05571,-0.09011 0.0072,-0.168535 -0.113299,-0.16995 -0.168577,-0.0017 -0.1626,-0.03613 0.01888,-0.151062 0.277736,-0.175829 0.719845,-0.04759 0.585379,0.16995 -0.051,0.0825 -0.02208,0.151062 0.07553,0.151062 0.09761,0 0.188832,-0.07781 0.188832,-0.16995 0,-0.09217 0.155561,-0.16995 0.339897,-0.16995 0.184337,0 0.321016,-0.05888 0.321016,-0.151062 0,-0.09216 0.203895,-0.16995 0.434312,-0.16995 0.230425,0 0.415431,-0.09123 0.415431,-0.188829 0,-0.0502 0.01908,-0.0673 0.05665,-0.07555 z M 46.1151,64.102201 c -0.11461,0.185443 -0.08608,0.662597 0.1133,2.624768 0.114345,1.125308 0.562151,1.736303 1.284057,1.71837 0.292856,-0.0069 0.469832,-0.04481 0.377664,-0.07555 -0.09217,-0.03074 -0.366599,-0.09913 -0.604262,-0.151061 -0.616619,-0.134753 -0.83842,-0.768483 -0.94416,-2.662535 -0.05052,-0.904869 -0.160468,-1.561004 -0.226599,-1.454006 z m -16.692751,0.18883 c -0.03422,0.01259 -0.04316,0.112999 -0.03778,0.245485 0.0078,0.195221 0.0409,0.228099 0.09441,0.09441 0.04837,-0.120963 0.03682,-0.265329 -0.01884,-0.321012 -0.01398,-0.0139 -0.02631,-0.0231 -0.03778,-0.01885 z m 29.193433,0.03778 c 0.160564,-0.04273 0.49144,0.07694 0.547612,0.245485 0.06744,0.202316 -0.07567,0.220249 -0.434313,0.07555 -0.115209,-0.04646 -0.207715,-0.131392 -0.207715,-0.207718 0,-0.05202 0.04089,-0.09906 0.09442,-0.113303 z m -8.554092,0.245485 c -0.02749,-0.01581 -0.03777,0.116855 -0.03777,0.35878 0,0.322583 0.03342,0.463424 0.07553,0.302132 0.04212,-0.161292 0.04212,-0.424085 0,-0.585377 -0.01052,-0.04029 -0.02858,-0.07026 -0.03777,-0.07555 z m 11.537638,0.01884 c 0.128393,0 0.286844,0.126112 0.339897,0.264365 0.06561,0.170974 -0.0023,0.245476 -0.226598,0.245476 -0.18152,0 -0.339898,-0.107163 -0.339898,-0.245476 0,-0.138253 0.09821,-0.264365 0.226599,-0.264365 z m -3.153495,0.264365 c 0.04134,-0.02076 0.04952,0.0178 0.01888,0.113294 -0.05335,0.166172 -0.0023,0.308775 0.1133,0.32102 0.744632,0.07877 1.114109,0.05905 1.114109,-0.05662 0,-0.07338 0.126563,-0.132182 0.283248,-0.132182 0.210549,0 0.252249,0.04993 0.113299,0.188829 -0.103395,0.103403 -0.158461,0.278859 -0.113299,0.396547 0.04514,0.117697 0.0036,0.260171 -0.09442,0.321021 -0.09845,0.06088 -0.188832,0.01 -0.188832,-0.132183 0,-0.200935 -0.174336,-0.260274 -0.830861,-0.245485 -0.464086,0.01042 -0.888743,-0.02006 -0.925277,-0.05662 -0.03656,-0.03656 0.09664,-0.243036 0.283248,-0.472082 0.110429,-0.135535 0.185255,-0.224704 0.226598,-0.245477 z m 8.742924,0.245476 c -0.0604,-0.04012 -0.178063,0.641546 -0.302132,1.850562 -0.175798,1.71309 -0.622028,3.981901 -0.981927,4.928514 -0.158365,0.416521 -0.155199,0.459065 0.05665,0.283244 0.134938,-0.111991 0.399049,-0.861352 0.585379,-1.661723 0.354715,-1.523636 0.69868,-3.888598 0.69868,-4.871859 0,-0.331589 -0.0292,-0.510492 -0.05665,-0.528738 z m -17.221483,0.50985 c -0.08927,0 -0.151066,0.107224 -0.151066,0.245485 0,0.138244 0.02043,0.245477 0.05662,0.245477 0.03626,0 0.116895,-0.107233 0.16995,-0.245477 0.05305,-0.138261 0.01377,-0.245485 -0.07554,-0.245485 z m -20.393863,0.849741 c -0.125027,0.224739 0.570552,3.71118 0.963044,4.739685 0.332874,0.872303 0.317877,0.364754 -0.01884,-0.830862 -0.181352,-0.643847 -0.437423,-1.749833 -0.566497,-2.473696 -0.129065,-0.723855 -0.279379,-1.375553 -0.339891,-1.435127 -0.01589,-0.01563 -0.02944,-0.01502 -0.03778,0 z m 20.205031,0.302117 c -0.04798,-0.01103 -0.148697,0.156854 -0.283248,0.453202 -0.173563,0.382227 -0.453106,0.788665 -0.623146,0.887509 -0.269338,0.156559 -0.281363,0.165512 -0.03777,0.16995 0.153779,0.0026 0.431292,-0.237192 0.623145,-0.547617 0.191854,-0.310418 0.360806,-0.714051 0.358782,-0.887509 -4.54e-4,-0.04481 -0.02175,-0.07182 -0.03777,-0.07555 z m 14.067988,2.05827 c 0.01532,0.01016 0.01586,0.03821 -0.01888,0.09441 -0.06227,0.100745 0.02562,0.263748 0.188832,0.358788 0.16323,0.09502 0.198343,0.186024 0.09442,0.188829 -0.103922,0.0026 -0.269737,-0.115439 -0.377664,-0.245485 -0.150262,-0.181057 -0.154444,-0.263375 0,-0.358779 0.06188,-0.03821 0.09798,-0.04794 0.113299,-0.03778 z m -6.080393,0.396547 c 0.06088,-0.02275 0.11408,-0.0026 0.151067,0.05662 0.143983,0.232963 -0.02538,0.558681 -0.226599,0.434315 -0.07883,-0.04872 -0.184228,0.04524 -0.226599,0.207717 -0.05928,0.227214 -0.07946,0.238755 -0.09442,0.03778 -0.02163,-0.29067 0.213909,-0.668059 0.396547,-0.736447 z m -21.621268,1.661723 c 0.04559,-0.01198 0.100824,-0.0078 0.16995,0.01884 0.138244,0.05306 0.264365,0.13372 0.264365,0.16995 0,0.03621 -0.126121,0.07555 -0.264365,0.07555 -0.138252,0 -0.245485,-0.08068 -0.245485,-0.16995 0,-0.04464 0.02996,-0.0825 0.07555,-0.09441 z m 2.738062,1.435127 c 0.299544,-0.0061 0.547617,0.07781 0.547617,0.16995 0,0.198938 -0.292362,0.198938 -0.755326,0 -0.280865,-0.120702 -0.24869,-0.160076 0.207709,-0.16995 z m 1.548429,0 c 0.223427,-0.0078 0.223427,0.02553 0,0.16995 -0.138261,0.08934 -0.401045,0.156133 -0.585385,0.151062 -0.335158,-0.0092 -0.335158,-0.0069 0,-0.151062 0.18434,-0.0792 0.447124,-0.164887 0.585385,-0.16995 z m 9.290532,0.07555 c 0.0281,0.01172 0.02937,0.04698 0,0.09442 -0.09841,0.159233 -0.41543,0.23014 -0.41543,0.09441 0,-0.03621 0.121324,-0.115057 0.264365,-0.16995 0.07456,-0.02857 0.122943,-0.03065 0.151065,-0.01884 z m -13.916923,0.264365 c 0.0693,0.02319 -0.04142,0.109508 -0.302132,0.245485 -0.560045,0.292085 -0.458986,0.270305 -0.736438,0.09441 -0.156915,-0.09947 -0.0759,-0.169872 0.302123,-0.245477 0.417789,-0.08354 0.667147,-0.117549 0.736447,-0.09442 z m 29.816582,0.132217 c -0.107866,0.03178 -0.274369,0.256532 -0.377664,0.566497 l -0.16995,0.547609 0.321015,-0.396547 c 0.182977,-0.217583 0.339898,-0.465656 0.339898,-0.547609 0,-0.1353 -0.04858,-0.189038 -0.113299,-0.16995 z m -33.876467,0.774215 c -0.08389,0.08389 0.430546,0.925276 0.566497,0.925276 0.04915,0 -0.04603,-0.217305 -0.207717,-0.49097 -0.161657,-0.273666 -0.318416,-0.474679 -0.35878,-0.434306 z m 14.256817,0.207709 c 0.06091,-0.0094 0.147802,-8.69e-4 0.283248,0.01884 0.279399,0.04099 0.509847,0.126017 0.509847,0.207718 0,0.08172 -0.01475,0.142881 -0.03777,0.132182 -0.02302,-0.01068 -0.193327,-0.05011 -0.377664,-0.09441 -0.42105,-0.101276 -0.560387,-0.236272 -0.377664,-0.264365 z m 2.4737,0.05662 c 0.223438,-0.0078 0.223438,0.0069 0,0.15107 -0.138255,0.08934 -0.401043,0.175013 -0.58538,0.169941 -0.33516,-0.0092 -0.33516,-0.02596 0,-0.169941 0.184337,-0.0792 0.447125,-0.146007 0.58538,-0.15107 z m -4.286488,0.302132 -0.415427,0.3399 c -0.495903,0.4092 -0.513497,0.411432 -0.793094,0.09441 -0.180041,-0.20414 -0.174335,-0.243584 0.07555,-0.245486 0.16493,-8.68e-4 0.487149,-0.04177 0.717567,-0.09441 l 0.415427,-0.09441 z m -4.607503,0.188829 c 0.09217,0 0.16995,0.03482 0.16995,0.07555 0,0.04064 -0.07781,0.112982 -0.16995,0.16995 -0.09217,0.05697 -0.151062,0.04099 -0.151062,-0.05662 0,-0.0976 0.05888,-0.188829 0.151062,-0.188829 z m 12.236318,0.01884 c 0.07594,0 0.150111,0.01459 0.207715,0.03778 0.115209,0.04646 0.02272,0.09442 -0.207715,0.09442 -0.230417,0 -0.322924,-0.04802 -0.207716,-0.09442 0.05758,-0.02319 0.131784,-0.03778 0.207716,-0.03778 z m 12.972762,0.07555 -0.547613,0.490962 c -0.572902,0.530735 -0.598226,0.585376 -0.358782,0.585376 0.08589,0 0.322405,-0.248064 0.528731,-0.547609 l 0.377664,-0.528729 z m -27.361765,0.09443 c 0.09112,-8.69e-4 0.182846,0.0165 0.264365,0.03778 0.163046,0.04247 0.06878,0.07217 -0.207718,0.07555 -0.276496,0.0035 -0.396694,-0.0297 -0.283244,-0.07555 0.05671,-0.02293 0.135474,-0.03665 0.226597,-0.03778 z m -4.947402,0.15107 c -0.09334,0 0.05706,0.21542 0.32102,0.490962 0.263983,0.275541 0.521009,0.479802 0.566497,0.434314 0.0455,-0.04551 -0.104897,-0.279796 -0.32102,-0.509849 -0.216133,-0.230054 -0.473151,-0.415427 -0.566497,-0.415427 z m 4.871867,0.509841 c 0.201942,-0.0092 0.415122,0.05888 0.472082,0.151071 0.05697,0.09216 0.0851,0.160249 0.05662,0.151062 -0.02848,-0.0092 -0.241664,-0.07729 -0.472082,-0.151062 -0.389999,-0.124905 -0.39844,-0.135517 -0.05662,-0.151071 z m -1.284056,0.18883 c 0.0759,0 0.150115,-0.0043 0.207718,0.01884 0.115204,0.04646 0.02275,0.09442 -0.207718,0.09442 -0.230418,0 -0.322922,-0.04802 -0.207718,-0.09442 0.05758,-0.02319 0.131792,-0.01884 0.207718,-0.01884 z m -2.133797,0.736447 c -0.161292,-0.05567 0.009,0.169958 0.377659,0.490961 0.368671,0.321012 0.778756,0.584013 0.906397,0.585386 0.131435,8.68e-4 0.03361,-0.150072 -0.207718,-0.3399 -0.234343,-0.184331 -0.503588,-0.321012 -0.604264,-0.321012 -0.100676,0 -0.18883,-0.06878 -0.18883,-0.151071 0,-0.08233 -0.121952,-0.208629 -0.283244,-0.264364 z m 29.061248,0.283253 c -0.0484,-0.04837 -0.564846,0.22486 -1.132992,0.604255 -1.046722,0.698975 -1.094803,0.981516 -0.05665,0.3399 0.310422,-0.191851 0.566496,-0.412526 0.566496,-0.490961 0,-0.07842 0.167502,-0.184774 0.358781,-0.245486 0.191285,-0.0607 0.312754,-0.159311 0.264365,-0.207708 z m -5.816027,0.01884 c 0.08177,-0.0095 0.246364,-4.95e-4 0.509847,0.03778 0.938661,0.136281 1.072318,0.229957 0.321014,0.226597 -0.314905,-8.69e-4 -0.692606,-0.0779 -0.830861,-0.16995 -0.08782,-0.05853 -0.08177,-0.08502 0,-0.09441 z m -0.925277,0.113294 c 0.230417,0 0.434314,0.05888 0.434314,0.151071 0,0.09216 -0.07041,0.16995 -0.151066,0.16995 -0.08064,0 -0.358164,0.04134 -0.623145,0.07555 -0.264982,0.03421 -0.398457,0.02206 -0.283249,-0.01885 0.115209,-0.04099 0.207716,-0.141188 0.207716,-0.226597 0,-0.08537 0.185013,-0.151062 0.41543,-0.151062 z m 1.907203,0.321021 c 0.244201,0.0026 0.235488,0.02996 0.01885,0.169941 -0.328182,0.212095 -0.546501,0.212095 -0.415431,0 0.05699,-0.09216 0.24069,-0.171357 0.396548,-0.169941 z m -7.949829,0.509841 c 0.04067,0 0.131869,0.07781 0.188833,0.16995 0.05698,0.09217 0.02206,0.16995 -0.07554,0.16995 -0.09761,0 -0.169949,-0.07781 -0.169949,-0.16995 0,-0.09216 0.01601,-0.16995 0.05662,-0.16995 z m -14.237936,0.16995 c -0.04064,0 -0.07555,0.07781 -0.07555,0.16995 0,0.09216 0.09123,0.16995 0.188838,0.16995 0.0976,0 0.113607,-0.07781 0.05662,-0.16995 -0.05697,-0.09216 -0.129299,-0.16995 -0.169941,-0.16995 z m 7.987597,0.01884 c 0.09112,-8.69e-4 0.201725,-0.0026 0.283244,0.01884 0.163055,0.04247 0.06878,0.091 -0.207709,0.09441 -0.276505,0.0035 -0.415591,-0.0297 -0.302132,-0.07555 0.05671,-0.02293 0.135473,-0.03665 0.226597,-0.03778 z m -2.851365,0.3399 c 0.09112,-8.69e-4 0.201717,-0.0026 0.283244,0.01884 0.163055,0.04247 0.06878,0.091 -0.207708,0.09441 -0.276506,0.0035 -0.415592,-0.0297 -0.302133,-0.07555 0.05671,-0.02293 0.135474,-0.03665 0.226597,-0.03778 z m 7.062319,0.207709 c 0.622843,-0.02327 0.76899,0.02214 0.472079,0.113303 -0.529871,0.162863 -1.603905,0.187639 -1.454006,0.03778 0.06195,-0.06192 0.498553,-0.133007 0.981927,-0.151071 z m -0.05662,0.604264 c 0.53786,-0.0035 0.401713,0.09398 -0.321015,0.226597 -0.412645,0.07573 -0.497864,0.05931 -0.321014,-0.05662 0.138255,-0.09063 0.419286,-0.168543 0.642029,-0.16995 z m -10.196929,0.01884 c -0.05818,0.0026 -0.104341,0.0099 -0.132182,0.03778 -0.05567,0.05567 0.04993,0.101692 0.226597,0.09441 0.195221,-0.0078 0.228099,-0.0409 0.09441,-0.09441 -0.06053,-0.02414 -0.130619,-0.04021 -0.188829,-0.03778 z m 11.405454,0 c 0.05819,-0.0026 0.128345,0.01363 0.188832,0.03778 0.133681,0.05349 0.08192,0.08641 -0.1133,0.09441 -0.17665,0.0069 -0.263398,-0.03873 -0.207715,-0.09441 0.02786,-0.02779 0.07396,-0.03534 0.132183,-0.03778 z m -6.382525,0.16995 c 0.0759,0 0.150107,0.01459 0.207718,0.03778 0.115204,0.04646 0.02275,0.07555 -0.207718,0.07555 -0.230418,0 -0.322922,-0.02909 -0.207718,-0.07555 0.05758,-0.02319 0.131792,-0.03778 0.207718,-0.03778 z m 2.360402,0 c 0.334109,-1.13e-4 0.677499,0.0026 0.94416,0.01885 0.533335,0.03335 0.145217,0.05627 -0.868627,0.05662 -1.013852,3.3e-4 -1.462444,-0.02293 -0.981929,-0.05662 0.240257,-0.01685 0.572289,-0.01876 0.906396,-0.01885 z m 9.72482,1.170909 c -0.05819,0.0026 -0.123221,0.0099 -0.151066,0.03778 -0.05571,0.05567 0.04991,0.101692 0.226599,0.09441 0.195219,-0.0078 0.228097,-0.0409 0.09442,-0.09441 -0.06049,-0.02414 -0.111734,-0.04021 -0.169949,-0.03778 z m -13.350424,0.01884 c -0.18434,0.0026 0.04898,0.08926 0.509841,0.207718 0.460845,0.118452 0.98643,0.228698 1.170761,0.226597 0.18434,-0.0026 -0.04898,-0.108136 -0.509841,-0.226597 -0.460845,-0.118453 -0.98643,-0.209811 -1.170761,-0.207718 z m 3.625574,0.642032 c -0.05819,0.0026 -0.104338,0.02883 -0.132183,0.05662 -0.05571,0.05575 0.03106,0.101692 0.207716,0.09442 0.195218,-0.0078 0.24698,-0.05983 0.113299,-0.113303 -0.06049,-0.02414 -0.130618,-0.04021 -0.188832,-0.03778 z m 3.88994,0 c -1.315178,-0.01181 -2.261011,0.05132 -2.322634,0.151062 -0.122333,0.197939 3.244231,0.197939 4.022122,0 0.31432,-0.07998 -0.317431,-0.138669 -1.699488,-0.151062 z"
       inkscape:connector-curvature="0"
       id="path3064"
       style="fill:#ffffff" />
  </g>
  <g
     id="layer5">
    <rect
       width="66"
       height="66"
       rx="12"
       ry="12"
       x="15"
       y="15"
       clip-path="url(#clipPath3613)"
       id="rect3171"
       style="opacity:0.1;fill:url(#linearGradient3613);fill-opacity:1;fill-rule:nonzero;stroke:#ffffff;stroke-width:0.5;stroke-linecap:round;stroke-linejoin:miter;stroke-miterlimit:4;stroke-opacity:1;stroke-dasharray:none;stroke-dashoffset:0;filter:url(#filter3794)" />
  </g>
</svg>
