<?xml version="1.0" encoding="UTF-8" standalone="no"?>
<svg
   xmlns:dc="http://purl.org/dc/elements/1.1/"
   xmlns:cc="http://creativecommons.org/ns#"
   xmlns:rdf="http://www.w3.org/1999/02/22-rdf-syntax-ns#"
   xmlns:svg="http://www.w3.org/2000/svg"
   xmlns="http://www.w3.org/2000/svg"
   xmlns:xlink="http://www.w3.org/1999/xlink"
   version="1.1"
   id="svg2"
   height="92"
   width="92">
  <defs
     id="defs4">
    <linearGradient
       x1="22.406412"
       y1="36.600529"
       x2="57.689129"
       y2="103.0291"
       id="linearGradient3740"
       xlink:href="#linearGradient3656"
       gradientUnits="userSpaceOnUse"
       gradientTransform="translate(10,-10.357143)" />
    <linearGradient
       x1="22.406412"
       y1="36.600529"
       x2="57.689129"
       y2="103.0291"
       id="linearGradient3732"
       xlink:href="#linearGradient3656"
       gradientUnits="userSpaceOnUse"
       gradientTransform="translate(10,-11.428571)" />
    <linearGradient
       gradientTransform="translate(19.285714,-1.7857143)"
       x1="22.406412"
       y1="36.600529"
       x2="57.689129"
       y2="103.0291"
       id="linearGradient3717"
       xlink:href="#linearGradient3656"
       gradientUnits="userSpaceOnUse" />
    <linearGradient
       x1="22.406412"
       y1="36.600529"
       x2="57.689129"
       y2="103.0291"
       id="linearGradient3713"
       xlink:href="#linearGradient3656"
       gradientUnits="userSpaceOnUse" />
    <linearGradient
       x1="32.251034"
       y1="6.1317081"
       x2="32.251034"
       y2="90.238609"
       id="linearGradient3059"
       xlink:href="#ButtonShadow-0"
       gradientUnits="userSpaceOnUse"
       gradientTransform="matrix(1.0238095,0,0,1.0119048,-1.1428571,-98.071429)" />
    <linearGradient
       x1="32.251034"
       y1="6.1317081"
       x2="32.251034"
       y2="90.238609"
       id="linearGradient3721"
       xlink:href="#ButtonShadow-0"
       gradientUnits="userSpaceOnUse"
       gradientTransform="translate(0,-97)" />
    <linearGradient
       x1="32.251034"
       y1="6.1317081"
       x2="32.251034"
       y2="90.238609"
       id="linearGradient3725"
       xlink:href="#ButtonShadow-0"
       gradientUnits="userSpaceOnUse"
       gradientTransform="matrix(1.0238095,0,0,1.0119048,-1.1428571,-98.071429)" />
    <linearGradient
       x1="32.251034"
       y1="6.1317081"
       x2="32.251034"
       y2="90.238609"
       id="linearGradient3772"
       xlink:href="#ButtonShadow-0"
       gradientUnits="userSpaceOnUse"
       gradientTransform="matrix(1.0238095,0,0,1.0119048,-1.1428571,-98.071429)" />
    <linearGradient
       x1="32.251034"
       y1="6.1317081"
       x2="32.251034"
       y2="90.238609"
       id="linearGradient3780"
       xlink:href="#ButtonShadow-0"
       gradientUnits="userSpaceOnUse"
       gradientTransform="matrix(1.0238095,0,0,1.0119048,-1.1428571,-98.071429)" />
    <linearGradient
       x1="45.447727"
       y1="92.539597"
       x2="45.447727"
       y2="7.0165396"
       id="ButtonShadow-0"
       gradientUnits="userSpaceOnUse"
       gradientTransform="matrix(1.0058652,0,0,0.994169,100,0)">
      <stop
         id="stop3750-8"
         style="stop-color:#000000;stop-opacity:1"
         offset="0" />
      <stop
         id="stop3752-5"
         style="stop-color:#000000;stop-opacity:0.58823532"
         offset="1" />
    </linearGradient>
    <linearGradient
       x1="48"
       y1="90"
       x2="48"
       y2="5.9877172"
       id="linearGradient3654"
       xlink:href="#ButtonColor"
       gradientUnits="userSpaceOnUse"
       gradientTransform="translate(0,20)" />
    <clipPath
       id="clipPath3650">
      <rect
         width="84"
         height="84"
         rx="6"
         ry="6"
         x="6"
         y="26"
         id="rect3652"
         style="fill:url(#linearGradient3654);fill-opacity:1;fill-rule:nonzero;stroke:none" />
    </clipPath>
    <filter
       x="-0.15161195"
       y="-0.099296175"
       width="1.3032238"
       height="1.1985924"
       color-interpolation-filters="sRGB"
       id="filter3642">
      <feGaussianBlur
         id="feGaussianBlur3644"
         stdDeviation="2.8961385" />
    </filter>
    <linearGradient
       gradientTransform="translate(-137.12821,4.7982246)"
       x1="76.35714"
       y1="82.500275"
       x2="76.35714"
       y2="24.070036"
       id="linearGradient3699"
       xlink:href="#linearGradient3305"
       gradientUnits="userSpaceOnUse" />
    <linearGradient
       id="linearGradient3305">
      <stop
         id="stop3307"
         style="stop-color:#dcdcdc;stop-opacity:1"
         offset="0" />
      <stop
         id="stop3309"
         style="stop-color:#fefefe;stop-opacity:0"
         offset="1" />
    </linearGradient>
    <linearGradient
       x1="49.847614"
       y1="13.927948"
       x2="49.847614"
       y2="115.20887"
       id="linearGradient2907"
       xlink:href="#linearGradient3282"
       gradientUnits="userSpaceOnUse"
       gradientTransform="matrix(0.67065867,0,0,0.67065867,79.530368,57.172745)" />
    <linearGradient
       id="linearGradient3282">
      <stop
         id="stop3284"
         style="stop-color:#fefefe;stop-opacity:1"
         offset="0" />
      <stop
         id="stop3286"
         style="stop-color:#dcdcdc;stop-opacity:1"
         offset="1" />
    </linearGradient>
    <radialGradient
       cx="108.53934"
       cy="7.457119"
       r="56.542881"
       fx="108.53934"
       fy="7.457119"
       id="radialGradient2888"
       xlink:href="#linearGradient3267"
       gradientUnits="userSpaceOnUse"
       gradientTransform="matrix(-1.3703659,1.180354e-8,-1.2492802e-8,-1.4503877,229.47942,19.744284)" />
    <linearGradient
       id="linearGradient3267">
      <stop
         id="stop3269"
         style="stop-color:#fefefe;stop-opacity:1"
         offset="0" />
      <stop
         id="stop3271"
         style="stop-color:#fefefe;stop-opacity:0"
         offset="1" />
    </linearGradient>
    <linearGradient
       x1="58.650177"
       y1="122"
       x2="58.650177"
       y2="5.4252338"
       id="ButtonColor"
       gradientUnits="userSpaceOnUse"
       gradientTransform="matrix(1.0172414,0,0,1.0172414,-1.1034483,-1.1034483)">
      <stop
         id="stop3189"
         style="stop-color:#037ac0;stop-opacity:1"
         offset="0" />
      <stop
         id="stop3191"
         style="stop-color:#7edafe;stop-opacity:1"
         offset="1" />
    </linearGradient>
    <linearGradient
       gradientTransform="translate(378.74545,431.43362)"
       x1="48"
       y1="90"
       x2="48"
       y2="5.9877172"
       id="linearGradient3617"
       xlink:href="#gradient_blue"
       gradientUnits="userSpaceOnUse" />
    <clipPath
       id="clipPath3613">
      <rect
         width="84"
         height="84"
         rx="6"
         ry="6"
         x="6"
         y="6"
         id="rect3615"
         style="fill:#fefefe;fill-opacity:1;fill-rule:nonzero;stroke:none" />
    </clipPath>
    <radialGradient
       cx="48"
       cy="90.171875"
       r="42"
       fx="48"
       fy="90.171875"
       id="radialGradient3619"
       xlink:href="#linearGradient3737"
       gradientUnits="userSpaceOnUse"
       gradientTransform="matrix(1.1573129,0,0,0.99590774,371.19443,431.63075)" />
    <linearGradient
       x1="48"
       y1="20.220806"
       x2="48"
       y2="138.66119"
       id="linearGradient3613"
       xlink:href="#linearGradient3737"
       gradientUnits="userSpaceOnUse" />
    <filter
       x="-0.192"
       y="-0.192"
       width="1.3839999"
       height="1.3839999"
       color-interpolation-filters="sRGB"
       id="filter3794">
      <feGaussianBlur
         id="feGaussianBlur3796"
         stdDeviation="5.28" />
    </filter>
    <linearGradient
       gradientTransform="translate(378.74545,431.43362)"
       x1="36.357143"
       y1="6"
       x2="36.357143"
       y2="63.893143"
       id="linearGradient3188"
       xlink:href="#linearGradient3737"
       gradientUnits="userSpaceOnUse" />
    <filter
       color-interpolation-filters="sRGB"
       id="filter3174">
      <feGaussianBlur
         id="feGaussianBlur3176"
         stdDeviation="1.71" />
    </filter>
    <linearGradient
       id="linearGradient3737">
      <stop
         id="stop3739"
         style="stop-color:#fefefe;stop-opacity:1"
         offset="0" />
      <stop
         id="stop3741"
         style="stop-color:#fefefe;stop-opacity:0"
         offset="1" />
    </linearGradient>
    <linearGradient
       x1="45.447727"
       y1="92.539597"
       x2="45.447727"
       y2="7.0165396"
       id="ButtonShadow"
       gradientUnits="userSpaceOnUse"
       gradientTransform="scale(1.0058652,0.994169)">
      <stop
         id="stop3750"
         style="stop-color:#000000;stop-opacity:1"
         offset="0" />
      <stop
         id="stop3752"
         style="stop-color:#000000;stop-opacity:0.58823532"
         offset="1" />
    </linearGradient>
    <linearGradient
       id="linearGradient3656">
      <stop
         id="stop3658"
         style="stop-color:#0b70aa;stop-opacity:1"
         offset="0" />
      <stop
         id="stop3660"
         style="stop-color:#0b70aa;stop-opacity:0"
         offset="1" />
    </linearGradient>
    <linearGradient
       x1="37"
       y1="50"
       x2="63"
       y2="50"
       id="gradient_dot"
       xlink:href="#gradient_blue"
       gradientUnits="userSpaceOnUse" />
    <linearGradient
       x1="5"
       y1="50"
       x2="95"
       y2="50"
       id="gradient_rect"
       xlink:href="#gradient_blue"
       gradientUnits="userSpaceOnUse" />
    <linearGradient
       id="gradient_blue">
      <stop
         style="stop-color:#009099;stop-opacity:1"
         offset="0"
         id="stop3143" />
      <stop
         style="stop-color:#00a899;stop-opacity:0.9"
         offset="1"
         id="stop3145" />
    </linearGradient>
    <linearGradient
       x1="48"
       y1="90"
       x2="48"
       y2="5.9877172"
       id="linearGradient3617-9"
       xlink:href="#gradient_blue-1"
       gradientUnits="userSpaceOnUse" />
    <linearGradient
       id="gradient_blue-1">
      <stop
         style="stop-color:#009099;stop-opacity:1"
         offset="0"
         id="stop3143-7" />
      <stop
         style="stop-color:#00a899;stop-opacity:0.9"
         offset="1"
         id="stop3145-6" />
    </linearGradient>
  </defs>
  <metadata
     id="metadata7">
    <rdf:RDF>
      <cc:Work
         rdf:about="">
        <dc:format>image/svg+xml</dc:format>
        <dc:type
           rdf:resource="http://purl.org/dc/dcmitype/StillImage" />
        <dc:title></dc:title>
      </cc:Work>
    </rdf:RDF>
  </metadata>
  <g
     transform="translate(-380.7142,-434.46487)"
     id="layer1">
    <g
       transform="translate(378.74545,431.43362)"
       style="display:none"
       id="layer2">
      <rect
         style="opacity:0.9;fill:url(#ButtonShadow);fill-opacity:1;fill-rule:nonzero;stroke:none;filter:url(#filter3174)"
         id="rect3745"
         y="7"
         x="5"
         ry="6"
         rx="6"
         height="85"
         width="86" />
    </g>
    <g
       transform="translate(378.74545,431.43362)"
       style="display:inline"
       id="layer3">
      <path
         style="display:inline;opacity:0.07999998;fill:url(#linearGradient3059);fill-opacity:1;fill-rule:nonzero;stroke:none"
         id="path3786"
         transform="scale(1,-1)"
         d="m 12,-95.03125 c -5.5110903,0 -10.03125,4.52016 -10.03125,10.03125 v 71 c 0,5.5110902 4.5201598,10.03125 10.03125,10.03125 h 72 c 5.51109,0 10.03125,-4.5201597 10.03125,-10.03125 v -71 c 0,-5.51109 -4.52016,-10.03125 -10.03125,-10.03125 z" />
      <path
         style="display:inline;opacity:0.1;fill:url(#linearGradient3780);fill-opacity:1;fill-rule:nonzero;stroke:none"
         id="path3778"
         transform="scale(1,-1)"
         d="m 12,-94.03125 c -4.971633,0 -9.03125,4.059617 -9.03125,9.03125 v 71 c 0,4.9716329 4.0596171,9.03125 9.03125,9.03125 h 72 c 4.971633,0 9.03125,-4.059617 9.03125,-9.03125 v -71 c 0,-4.971633 -4.059617,-9.03125 -9.03125,-9.03125 z" />
      <path
         style="display:inline;opacity:0.2;fill:url(#linearGradient3772);fill-opacity:1;fill-rule:nonzero;stroke:none"
         id="path3770"
         transform="scale(1,-1)"
         d="m 12,-93 c -4.4091333,0 -8,3.590867 -8,8 v 71 c 0,4.4091333 3.5908667,8 8,8 h 72 c 4.409133,0 8,-3.5908667 8,-8 v -71 c 0,-4.409133 -3.590867,-8 -8,-8 z" />
      <rect
         style="display:inline;opacity:0.3;fill:url(#linearGradient3725);fill-opacity:1;fill-rule:nonzero;stroke:none"
         id="rect3723"
         transform="scale(1,-1)"
         y="-92"
         x="5"
         ry="7"
         rx="7"
         height="85"
         width="86" />
      <rect
         style="display:inline;opacity:0.45;fill:url(#linearGradient3721);fill-opacity:1;fill-rule:nonzero;stroke:none"
         id="rect3716"
         transform="scale(1,-1)"
         y="-91"
         x="6"
         ry="6"
         rx="6"
         height="84"
         width="84" />
    </g>
    <rect
       width="84"
       height="84"
       rx="6"
       ry="6"
       x="384.74545"
       y="437.43362"
       id="rect2419"
       style="fill:url(#linearGradient3617);fill-opacity:1;fill-rule:nonzero;stroke:none" />
    <path
       d="m 390.74545,437.43362 c -3.324,0 -6,2.676 -6,6 v 2 68 2 c 0,0.33472 0.0414,0.6507 0.0937,0.96875 0.0487,0.2956 0.097,0.59691 0.1875,0.875 0.01,0.0304 0.0209,0.0636 0.0312,0.0937 0.0989,0.28777 0.23488,0.54745 0.375,0.8125 0.14459,0.27351 0.31562,0.53562 0.5,0.78125 0.18438,0.24563 0.37378,0.47347 0.59375,0.6875 0.43995,0.42806 0.94291,0.81453 1.5,1.09375 0.27855,0.13961 0.57347,0.24695 0.875,0.34375 -0.2562,-0.10022 -0.48671,-0.23627 -0.71875,-0.375 -0.007,-0.004 -0.0239,0.005 -0.0312,0 -0.0319,-0.0193 -0.0623,-0.0425 -0.0937,-0.0625 -0.12039,-0.0767 -0.23102,-0.16351 -0.34375,-0.25 -0.10617,-0.0808 -0.21328,-0.16111 -0.3125,-0.25 -0.17793,-0.16143 -0.34746,-0.34539 -0.5,-0.53125 -0.10758,-0.13026 -0.21839,-0.26528 -0.3125,-0.40625 -0.0251,-0.0384 -0.0385,-0.0859 -0.0625,-0.125 -0.0648,-0.10303 -0.13023,-0.20452 -0.1875,-0.3125 -0.10101,-0.19471 -0.20567,-0.4157 -0.28125,-0.625 -0.008,-0.0218 -0.0236,-0.0406 -0.0312,-0.0625 -0.0318,-0.0919 -0.0358,-0.18683 -0.0625,-0.28125 -0.0303,-0.10662 -0.0704,-0.20303 -0.0937,-0.3125 -0.0729,-0.34151 -0.125,-0.69821 -0.125,-1.0625 v -2 -68 -2 c 0,-2.78185 2.21815,-5 5,-5 h 2 68 2 c 2.78185,0 5,2.21815 5,5 v 2 68 2 c 0,0.36429 -0.0521,0.72099 -0.125,1.0625 -0.0442,0.20689 -0.0884,0.39766 -0.15625,0.59375 -0.008,0.0219 -0.0233,0.0407 -0.0312,0.0625 -0.0627,0.17374 -0.13838,0.36745 -0.21875,0.53125 -0.0416,0.0828 -0.079,0.16995 -0.125,0.25 -0.0546,0.0972 -0.12677,0.18835 -0.1875,0.28125 -0.0941,0.14097 -0.20492,0.27599 -0.3125,0.40625 -0.14317,0.17445 -0.30314,0.347 -0.46875,0.5 -0.0112,0.0102 -0.02,0.0212 -0.0312,0.0312 -0.13839,0.12556 -0.28509,0.23444 -0.4375,0.34375 -0.10257,0.0731 -0.20432,0.15336 -0.3125,0.21875 -0.007,0.005 -0.0238,-0.004 -0.0312,0 -0.23204,0.13873 -0.46255,0.27478 -0.71875,0.375 0.30153,-0.0968 0.59645,-0.20414 0.875,-0.34375 0.55709,-0.27922 1.06005,-0.66569 1.5,-1.09375 0.21997,-0.21403 0.40937,-0.44187 0.59375,-0.6875 0.18438,-0.24563 0.35541,-0.50774 0.5,-0.78125 0.14012,-0.26505 0.27614,-0.52473 0.375,-0.8125 0.0104,-0.0308 0.0213,-0.0627 0.0312,-0.0937 0.0905,-0.27809 0.1388,-0.5794 0.1875,-0.875 0.0524,-0.31805 0.0937,-0.63403 0.0937,-0.96875 v -2 -68 -2 c 0,-3.324 -2.676,-6 -6,-6 z"
       id="rect3728"
       style="opacity:0.5;fill:url(#linearGradient3188);fill-opacity:1;fill-rule:nonzero;stroke:none" />
    <path
       d="m 390.74545,521.43362 c -3.324,0 -6,-2.676 -6,-6 v -2 -68 -2 c 0,-0.33472 0.0414,-0.6507 0.0937,-0.96875 0.0487,-0.2956 0.097,-0.59692 0.1875,-0.875 0.01,-0.0304 0.0209,-0.0636 0.0312,-0.0937 0.0989,-0.28777 0.23488,-0.54745 0.375,-0.8125 0.14459,-0.27351 0.31562,-0.53562 0.5,-0.78125 0.18438,-0.24563 0.37378,-0.47347 0.59375,-0.6875 0.43995,-0.42806 0.94291,-0.81453 1.5,-1.09375 0.27855,-0.13961 0.57347,-0.24695 0.875,-0.34375 -0.2562,0.10022 -0.48671,0.23627 -0.71875,0.375 -0.007,0.004 -0.0239,-0.005 -0.0312,0 -0.0319,0.0193 -0.0623,0.0425 -0.0937,0.0625 -0.12039,0.0767 -0.23102,0.16351 -0.34375,0.25 -0.10617,0.0808 -0.21328,0.16111 -0.3125,0.25 -0.17793,0.16143 -0.34746,0.34539 -0.5,0.53125 -0.10758,0.13025 -0.21839,0.26529 -0.3125,0.40625 -0.0251,0.0384 -0.0385,0.0859 -0.0625,0.125 -0.0648,0.10303 -0.13023,0.20452 -0.1875,0.3125 -0.10101,0.19471 -0.20567,0.4157 -0.28125,0.625 -0.008,0.0218 -0.0236,0.0405 -0.0312,0.0625 -0.0318,0.0919 -0.0358,0.18683 -0.0625,0.28125 -0.0303,0.10662 -0.0704,0.20303 -0.0937,0.3125 -0.0729,0.34151 -0.125,0.6982 -0.125,1.0625 v 2 68 2 c 0,2.78185 2.21815,5 5,5 h 2 68 2 c 2.78185,0 5,-2.21815 5,-5 v -2 -68 -2 c 0,-0.3643 -0.0521,-0.72099 -0.125,-1.0625 -0.0442,-0.20689 -0.0884,-0.39766 -0.15625,-0.59375 -0.008,-0.022 -0.0233,-0.0407 -0.0312,-0.0625 -0.0627,-0.17374 -0.13838,-0.36745 -0.21875,-0.53125 -0.0416,-0.0828 -0.079,-0.16995 -0.125,-0.25 -0.0546,-0.0972 -0.12677,-0.18835 -0.1875,-0.28125 -0.0941,-0.14096 -0.20492,-0.276 -0.3125,-0.40625 -0.14317,-0.17445 -0.30314,-0.347 -0.46875,-0.5 -0.0112,-0.0102 -0.02,-0.0212 -0.0312,-0.0312 -0.13839,-0.12556 -0.28509,-0.23444 -0.4375,-0.34375 -0.10257,-0.0731 -0.20432,-0.15336 -0.3125,-0.21875 -0.007,-0.005 -0.0238,0.004 -0.0312,0 -0.23204,-0.13873 -0.46255,-0.27478 -0.71875,-0.375 0.30153,0.0968 0.59645,0.20414 0.875,0.34375 0.55709,0.27922 1.06005,0.66569 1.5,1.09375 0.21997,0.21403 0.40937,0.44187 0.59375,0.6875 0.18438,0.24563 0.35541,0.50774 0.5,0.78125 0.14012,0.26505 0.27614,0.52473 0.375,0.8125 0.0104,0.0308 0.0213,0.0627 0.0312,0.0937 0.0905,0.27808 0.1388,0.5794 0.1875,0.875 0.0524,0.31805 0.0937,0.63403 0.0937,0.96875 v 2 68 2 c 0,3.324 -2.676,6 -6,6 z"
       id="path3615"
       style="opacity:0.5;fill:url(#radialGradient3619);fill-opacity:1;fill-rule:nonzero;stroke:none" />
    <path
       id="path3167"
       d="m 409.69189,509.06079 c -2.40625,-1.38541 -4.375,-2.68754 -4.375,-2.89362 0,-0.20608 1.8482,-3.56838 4.10714,-7.47178 2.25892,-3.90341 4.10713,-7.38279 4.10713,-7.73197 0,-0.34917 -0.28125,-1.02524 -0.625,-1.50237 -0.34375,-0.47713 -1.10713,-1.75843 -1.69642,-2.84732 l -1.07144,-1.97982 -8.83927,-0.0955 -8.83929,-0.0955 v -5.16609 -5.16609 l 8.83929,-0.0955 8.83927,-0.0955 1.07144,-1.97982 c 0.58929,-1.0889 1.35267,-2.37019 1.69642,-2.84732 0.34375,-0.47713 0.625,-1.1532 0.625,-1.50238 0,-0.34917 -1.84821,-3.82855 -4.10713,-7.73196 -2.25894,-3.9034 -4.10714,-7.25669 -4.10714,-7.45175 0,-0.19506 1.32589,-1.1207 2.94641,-2.05698 1.62054,-0.93628 3.6114,-2.08765 4.42415,-2.55861 l 1.47771,-0.85629 3.84639,6.70684 c 5.45954,9.51963 4.42182,8.51706 8.79068,8.49306 l 3.69193,-0.0203 4.28636,-7.37039 c 2.35749,-4.05371 4.38941,-7.42426 4.51536,-7.49011 0.34848,-0.18219 8.87815,4.72901 8.87815,5.11186 0,0.18396 -1.91993,3.64699 -4.2665,7.69563 -4.1175,7.10409 -4.24835,7.39355 -3.74683,8.28841 0.2858,0.50998 1.12876,1.97188 1.87325,3.24866 l 1.35359,2.32143 8.8218,0.0955 8.82182,0.0955 v 5.1661 5.16609 l -8.82182,0.0955 -8.8218,0.0955 -1.35359,2.32143 c -0.74449,1.27679 -1.58745,2.73868 -1.87325,3.24867 -0.50151,0.89485 -0.37067,1.18431 3.74684,8.2884 2.34657,4.04865 4.26649,7.50573 4.26649,7.6824 0,0.29376 -7.76592,4.95888 -8.58729,5.15855 -0.19518,0.0474 -2.32086,-3.28428 -4.72373,-7.40384 l -4.36885,-7.49011 -3.69193,-0.0203 c -4.36317,-0.024 -3.30843,-1.04303 -8.77981,8.48264 -2.11546,3.68304 -3.87088,6.69228 -3.90092,6.6872 -0.03,-0.005 -2.02336,-1.14276 -4.42961,-2.52818 z m 22.21985,-18.30389 c 2.58929,-1.18541 4.8381,-3.33582 6.10668,-5.83949 0.952,-1.87885 1.04847,-2.39777 1.04847,-5.64064 0,-3.24287 -0.0965,-3.76179 -1.04847,-5.64064 -1.27961,-2.52544 -3.51208,-4.64685 -6.21042,-5.90148 -1.69235,-0.78689 -2.52781,-0.94189 -5.06255,-0.93921 -3.90445,0.004 -6.65202,1.15856 -9.22015,3.87398 -6.56556,6.94211 -3.08254,18.55941 6.27227,20.9206 2.1635,0.54608 5.95105,0.1572 8.11417,-0.83312 z"
       style="fill:#fefefe;fill-opacity:1;stroke:#000000;stroke-width:1.60000002;stroke-miterlimit:4;stroke-dasharray:none;stroke-opacity:1" />
    <g
       transform="translate(378.74545,431.43362)"
       style="display:none"
       id="layer5">
      <rect
         style="opacity:0.1;fill:url(#linearGradient3613);fill-opacity:1;fill-rule:nonzero;stroke:#fefefe;stroke-width:0.5;stroke-linecap:round;stroke-linejoin:miter;stroke-miterlimit:4;stroke-dasharray:none;stroke-dashoffset:0;stroke-opacity:1;filter:url(#filter3794)"
         id="rect3171"
         clip-path="url(#clipPath3613)"
         y="15"
         x="15"
         ry="12"
         rx="12"
         height="66"
         width="66" />
    </g>
  </g>
</svg>
