<?xml version="1.0" encoding="UTF-8" standalone="no"?>
<!-- Created with Inkscape (http://www.inkscape.org/) -->

<svg
   xmlns:dc="http://purl.org/dc/elements/1.1/"
   xmlns:cc="http://creativecommons.org/ns#"
   xmlns:rdf="http://www.w3.org/1999/02/22-rdf-syntax-ns#"
   xmlns:svg="http://www.w3.org/2000/svg"
   xmlns="http://www.w3.org/2000/svg"
   xmlns:xlink="http://www.w3.org/1999/xlink"
   version="1.0"
   width="96"
   height="96"
   id="svg2408">
  <defs
     id="defs2410">
    <linearGradient
       id="linearGradient4208">
      <stop
         id="stop4210"
         style="stop-color:#f3840c;stop-opacity:1"
         offset="0" />
      <stop
         id="stop4212"
         style="stop-color:#f2b80c;stop-opacity:1"
         offset="1" />
    </linearGradient>
    <linearGradient
       id="linearGradient4084">
      <stop
         id="stop4086"
         style="stop-color:#355b9b;stop-opacity:1"
         offset="0" />
      <stop
         id="stop4088"
         style="stop-color:#6bb2e2;stop-opacity:1"
         offset="1" />
    </linearGradient>
    <linearGradient
       x1="45.447727"
       y1="92.539597"
       x2="45.447727"
       y2="7.0165396"
       id="ButtonShadow"
       gradientUnits="userSpaceOnUse"
       gradientTransform="scale(1.0058652,0.994169)">
      <stop
         id="stop3750"
         style="stop-color:#000000;stop-opacity:1"
         offset="0" />
      <stop
         id="stop3752"
         style="stop-color:#000000;stop-opacity:0.58823532"
         offset="1" />
    </linearGradient>
    <linearGradient
       id="linearGradient3737">
      <stop
         id="stop3739"
         style="stop-color:#ffffff;stop-opacity:1"
         offset="0" />
      <stop
         id="stop3741"
         style="stop-color:#ffffff;stop-opacity:0"
         offset="1" />
    </linearGradient>
    <filter
       color-interpolation-filters="sRGB"
       id="filter3174">
      <feGaussianBlur
         stdDeviation="1.71"
         id="feGaussianBlur3176" />
    </filter>
    <linearGradient
       x1="36.357143"
       y1="6"
       x2="36.357143"
       y2="63.893143"
       id="linearGradient3188"
       xlink:href="#linearGradient3737"
       gradientUnits="userSpaceOnUse" />
    <filter
       x="-0.192"
       y="-0.192"
       width="1.3839999"
       height="1.3839999"
       color-interpolation-filters="sRGB"
       id="filter3794">
      <feGaussianBlur
         stdDeviation="5.28"
         id="feGaussianBlur3796" />
    </filter>
    <linearGradient
       x1="48"
       y1="20.220806"
       x2="48"
       y2="138.66119"
       id="linearGradient3613"
       xlink:href="#linearGradient3737"
       gradientUnits="userSpaceOnUse" />
    <radialGradient
       cx="48"
       cy="90.171875"
       r="42"
       fx="48"
       fy="90.171875"
       id="radialGradient3619"
       xlink:href="#linearGradient3737"
       gradientUnits="userSpaceOnUse"
       gradientTransform="matrix(1.1573129,0,0,0.99590774,-7.5510206,0.19713193)" />
    <clipPath
       id="clipPath3613">
      <rect
         width="84"
         height="84"
         rx="6"
         ry="6"
         x="6"
         y="6"
         id="rect3615"
         style="fill:#ffffff;fill-opacity:1;fill-rule:nonzero;stroke:none" />
    </clipPath>
    <linearGradient
       x1="48"
       y1="6"
       x2="48"
       y2="109.10714"
       id="linearGradient4152"
       xlink:href="#linearGradient3737"
       gradientUnits="userSpaceOnUse" />
    <linearGradient
       x1="48"
       y1="90"
       x2="48"
       y2="5.9877172"
       id="linearGradient4206"
       xlink:href="#linearGradient4084"
       gradientUnits="userSpaceOnUse" />
    <linearGradient
       x1="48"
       y1="90"
       x2="48"
       y2="5.9877172"
       id="linearGradient4214"
       xlink:href="#linearGradient4208"
       gradientUnits="userSpaceOnUse" />
    <linearGradient
       x1="45.447727"
       y1="92.539597"
       x2="45.447727"
       y2="7.0165396"
       id="ButtonShadow-0"
       gradientUnits="userSpaceOnUse"
       gradientTransform="matrix(1.0058652,0,0,0.994169,100,0)">
      <stop
         id="stop3750-8"
         style="stop-color:#000000;stop-opacity:1"
         offset="0" />
      <stop
         id="stop3752-5"
         style="stop-color:#000000;stop-opacity:0.58823532"
         offset="1" />
    </linearGradient>
    <linearGradient
       x1="32.251034"
       y1="6.1317081"
       x2="32.251034"
       y2="90.238609"
       id="linearGradient3780"
       xlink:href="#ButtonShadow-0"
       gradientUnits="userSpaceOnUse"
       gradientTransform="matrix(1.0238095,0,0,1.0119048,-1.1428571,-98.071429)" />
    <linearGradient
       x1="32.251034"
       y1="6.1317081"
       x2="32.251034"
       y2="90.238609"
       id="linearGradient3772"
       xlink:href="#ButtonShadow-0"
       gradientUnits="userSpaceOnUse"
       gradientTransform="matrix(1.0238095,0,0,1.0119048,-1.1428571,-98.071429)" />
    <linearGradient
       x1="32.251034"
       y1="6.1317081"
       x2="32.251034"
       y2="90.238609"
       id="linearGradient3725"
       xlink:href="#ButtonShadow-0"
       gradientUnits="userSpaceOnUse"
       gradientTransform="matrix(1.0238095,0,0,1.0119048,-1.1428571,-98.071429)" />
    <linearGradient
       x1="32.251034"
       y1="6.1317081"
       x2="32.251034"
       y2="90.238609"
       id="linearGradient3721"
       xlink:href="#ButtonShadow-0"
       gradientUnits="userSpaceOnUse"
       gradientTransform="translate(0,-97)" />
    <linearGradient
       x1="32.251034"
       y1="6.1317081"
       x2="32.251034"
       y2="90.238609"
       id="linearGradient3059"
       xlink:href="#ButtonShadow-0"
       gradientUnits="userSpaceOnUse"
       gradientTransform="matrix(1.0238095,0,0,1.0119048,-1.1428571,-98.071429)" />
    <radialGradient
       cx="43.487068"
       cy="66.124741"
       r="31.112698"
       fx="43.487068"
       fy="66.124741"
       id="radialGradient9867"
       xlink:href="#linearGradient3976"
       gradientUnits="userSpaceOnUse"
       gradientTransform="matrix(1.336379,0,0,1.2709865,121.44634,-46.808194)" />
    <linearGradient
       id="linearGradient3976">
      <stop
         id="stop3978"
         style="stop-color:#ffffff;stop-opacity:1"
         offset="0" />
      <stop
         id="stop3980"
         style="stop-color:#ffffff;stop-opacity:0"
         offset="1" />
    </linearGradient>
    <linearGradient
       x1="28.953362"
       y1="57.92268"
       x2="69.828697"
       y2="57.92268"
       id="linearGradient9851"
       xlink:href="#linearGradient3984"
       gradientUnits="userSpaceOnUse"
       gradientTransform="matrix(0.90707767,0,0,0.95110114,134.08493,-10.530512)" />
    <linearGradient
       id="linearGradient3984">
      <stop
         id="stop3986"
         style="stop-color:#000000;stop-opacity:1"
         offset="0" />
      <stop
         id="stop3988"
         style="stop-color:#000000;stop-opacity:1"
         offset="1" />
    </linearGradient>
    <linearGradient
       x1="33.720428"
       y1="72.774193"
       x2="34.064514"
       y2="84.473122"
       id="linearGradient9848"
       xlink:href="#linearGradient3885"
       gradientUnits="userSpaceOnUse"
       gradientTransform="matrix(0.93194513,0,0,0.53981414,134.78473,22.892822)" />
    <linearGradient
       id="linearGradient3885">
      <stop
         id="stop3887"
         style="stop-color:#dddddd;stop-opacity:1"
         offset="0" />
      <stop
         id="stop3889"
         style="stop-color:#3d3d3d;stop-opacity:1"
         offset="1" />
    </linearGradient>
    <radialGradient
       cx="49.876328"
       cy="71.447662"
       r="27.118952"
       fx="49.876328"
       fy="71.447662"
       id="radialGradient9844"
       xlink:href="#linearGradient3981"
       gradientUnits="userSpaceOnUse"
       gradientTransform="matrix(1.1124957,0.01632053,-0.01351916,0.99234799,125.8431,-1.3636274)" />
    <linearGradient
       id="linearGradient3981">
      <stop
         id="stop3983"
         style="stop-color:#f24f4f;stop-opacity:1"
         offset="0" />
      <stop
         id="stop3985"
         style="stop-color:#680c0c;stop-opacity:1"
         offset="1" />
    </linearGradient>
    <radialGradient
       cx="46.894112"
       cy="39.563931"
       r="18.070965"
       fx="46.894112"
       fy="39.563931"
       id="radialGradient9841"
       xlink:href="#linearGradient13441"
       gradientUnits="userSpaceOnUse"
       gradientTransform="matrix(0.99439997,-0.02397387,0.03890677,1.6808198,130.28871,-34.859995)" />
    <linearGradient
       id="linearGradient13441">
      <stop
         id="stop13443"
         style="stop-color:#808080;stop-opacity:1"
         offset="0" />
      <stop
         id="stop13445"
         style="stop-color:#151202;stop-opacity:1"
         offset="1" />
    </linearGradient>
    <linearGradient
       x1="6.4368534"
       y1="76.468338"
       x2="19.058252"
       y2="76.468338"
       id="linearGradient9838"
       xlink:href="#linearGradient3951"
       gradientUnits="userSpaceOnUse"
       gradientTransform="matrix(0.74071399,0,0,0.93611469,135.56019,-7.3394113)" />
    <linearGradient
       id="linearGradient3951">
      <stop
         id="stop3953"
         style="stop-color:#000000;stop-opacity:1"
         offset="0" />
      <stop
         id="stop3959"
         style="stop-color:#4a4a4a;stop-opacity:1"
         offset="0.5" />
      <stop
         id="stop3955"
         style="stop-color:#000000;stop-opacity:1"
         offset="1" />
    </linearGradient>
    <linearGradient
       x1="77.730698"
       y1="76.817924"
       x2="90.352097"
       y2="76.817924"
       id="linearGradient9835"
       xlink:href="#linearGradient3951"
       gradientUnits="userSpaceOnUse"
       gradientTransform="matrix(0.68634925,0,0,0.93611469,156.71442,-7.3394113)" />
    <linearGradient
       x1="46.834476"
       y1="41.657993"
       x2="46.892284"
       y2="35.088745"
       id="linearGradient9827"
       xlink:href="#linearGradient3931"
       gradientUnits="userSpaceOnUse"
       gradientTransform="matrix(0.93194513,0,0,0.95110114,134.55601,-7.7536131)" />
    <linearGradient
       id="linearGradient3931">
      <stop
         id="stop3933"
         style="stop-color:#f8e160;stop-opacity:1"
         offset="0" />
      <stop
         id="stop3935"
         style="stop-color:#e6c60a;stop-opacity:1"
         offset="1" />
    </linearGradient>
    <linearGradient
       x1="33.720428"
       y1="72.774193"
       x2="34.064514"
       y2="84.473122"
       id="linearGradient9822"
       xlink:href="#linearGradient3885"
       gradientUnits="userSpaceOnUse"
       gradientTransform="matrix(0.67643402,0,0,0.16030821,147.16105,42.837147)" />
    <linearGradient
       x1="33.720428"
       y1="72.774193"
       x2="34.064514"
       y2="84.473122"
       id="linearGradient9818"
       xlink:href="#linearGradient3885"
       gradientUnits="userSpaceOnUse"
       gradientTransform="matrix(0.67643402,0,0,0.16030821,147.16105,49.279227)" />
    <linearGradient
       x1="33.720428"
       y1="72.774193"
       x2="34.064514"
       y2="84.473122"
       id="linearGradient9814"
       xlink:href="#linearGradient3885"
       gradientUnits="userSpaceOnUse"
       gradientTransform="matrix(0.67643402,0,0,0.16030821,147.16105,56.526566)" />
    <linearGradient
       id="linearGradient3994">
      <stop
         id="stop3996"
         style="stop-color:#080808;stop-opacity:1"
         offset="0" />
      <stop
         id="stop3998"
         style="stop-color:#080808;stop-opacity:0"
         offset="1" />
    </linearGradient>
    <radialGradient
       cx="49.762642"
       cy="53.838757"
       r="16.351845"
       fx="49.762642"
       fy="53.838757"
       id="radialGradient10039"
       xlink:href="#linearGradient3994"
       gradientUnits="userSpaceOnUse"
       gradientTransform="matrix(1.0722973,0,0,0.10063663,125.60827,43.839032)" />
  </defs>
  <metadata
     id="metadata2413">
    <rdf:RDF>
      <cc:Work
         rdf:about="">
        <dc:format>image/svg+xml</dc:format>
        <dc:type
           rdf:resource="http://purl.org/dc/dcmitype/StillImage" />
        <dc:title></dc:title>
      </cc:Work>
    </rdf:RDF>
  </metadata>
  <g
     id="layer2"
     style="display:none">
    <rect
       width="86"
       height="85"
       rx="6"
       ry="6"
       x="5"
       y="7"
       id="rect3745"
       style="opacity:0.9;fill:url(#ButtonShadow);fill-opacity:1;fill-rule:nonzero;stroke:none;filter:url(#filter3174)" />
  </g>
  <g
     id="g11257">
    <g
       id="layer4"
       style="display:inline">
      <path
         d="m 12,-95.03125 c -5.5110903,0 -10.03125,4.52016 -10.03125,10.03125 l 0,71 c 0,5.5110902 4.5201598,10.03125 10.03125,10.03125 l 72,0 c 5.51109,0 10.03125,-4.5201597 10.03125,-10.03125 l 0,-71 c 0,-5.51109 -4.52016,-10.03125 -10.03125,-10.03125 l -72,0 z"
         transform="scale(1,-1)"
         id="path3786"
         style="opacity:0.07999998;fill:url(#linearGradient3059);fill-opacity:1;fill-rule:nonzero;stroke:none;display:inline" />
      <path
         d="m 12,-94.03125 c -4.971633,0 -9.03125,4.059617 -9.03125,9.03125 l 0,71 c 0,4.9716329 4.0596171,9.03125 9.03125,9.03125 l 72,0 c 4.971633,0 9.03125,-4.059617 9.03125,-9.03125 l 0,-71 c 0,-4.971633 -4.059617,-9.03125 -9.03125,-9.03125 l -72,0 z"
         transform="scale(1,-1)"
         id="path3778"
         style="opacity:0.1;fill:url(#linearGradient3780);fill-opacity:1;fill-rule:nonzero;stroke:none;display:inline" />
      <path
         d="m 12,-93 c -4.4091333,0 -8,3.590867 -8,8 l 0,71 c 0,4.4091333 3.5908667,8 8,8 l 72,0 c 4.409133,0 8,-3.5908667 8,-8 l 0,-71 c 0,-4.409133 -3.590867,-8 -8,-8 l -72,0 z"
         transform="scale(1,-1)"
         id="path3770"
         style="opacity:0.2;fill:url(#linearGradient3772);fill-opacity:1;fill-rule:nonzero;stroke:none;display:inline" />
      <rect
         width="86"
         height="85"
         rx="7"
         ry="7"
         x="5"
         y="-92"
         transform="scale(1,-1)"
         id="rect3723"
         style="opacity:0.3;fill:url(#linearGradient3725);fill-opacity:1;fill-rule:nonzero;stroke:none;display:inline" />
      <rect
         width="84"
         height="84"
         rx="6"
         ry="6"
         x="6"
         y="-91"
         transform="scale(1,-1)"
         id="rect3716"
         style="opacity:0.45;fill:url(#linearGradient3721);fill-opacity:1;fill-rule:nonzero;stroke:none;display:inline" />
    </g>
    <g
       id="layer1">
      <rect
         width="84"
         height="84"
         rx="6"
         ry="6"
         x="6"
         y="6"
         id="rect2419"
         style="fill:url(#linearGradient4214);fill-opacity:1;fill-rule:nonzero;stroke:none" />
      <rect
         width="84"
         height="84"
         rx="6"
         ry="6"
         x="6"
         y="6"
         id="rect4204"
         style="fill:url(#linearGradient4206);fill-opacity:1;fill-rule:nonzero;stroke:none" />
      <path
         d="M 12,6 C 8.676,6 6,8.676 6,12 l 0,2 0,68 0,2 c 0,0.334721 0.04135,0.6507 0.09375,0.96875 0.0487,0.295596 0.09704,0.596915 0.1875,0.875 0.00988,0.03038 0.020892,0.0636 0.03125,0.09375 0.098865,0.287771 0.2348802,0.547452 0.375,0.8125 0.1445918,0.273507 0.3156161,0.535615 0.5,0.78125 0.1843839,0.245635 0.3737765,0.473472 0.59375,0.6875 0.439947,0.428056 0.94291,0.814526 1.5,1.09375 0.278545,0.139612 0.5734731,0.246947 0.875,0.34375 -0.2562018,-0.100222 -0.4867109,-0.236272 -0.71875,-0.375 -0.00741,-0.0044 -0.023866,0.0045 -0.03125,0 -0.031933,-0.0193 -0.062293,-0.04251 -0.09375,-0.0625 -0.120395,-0.0767 -0.2310226,-0.163513 -0.34375,-0.25 -0.1061728,-0.0808 -0.2132809,-0.161112 -0.3125,-0.25 C 8.4783201,88.557317 8.3087904,88.373362 8.15625,88.1875 8.0486711,88.057245 7.9378561,87.922215 7.84375,87.78125 7.818661,87.74287 7.805304,87.69538 7.78125,87.65625 7.716487,87.553218 7.6510225,87.451733 7.59375,87.34375 7.4927417,87.149044 7.3880752,86.928049 7.3125,86.71875 7.30454,86.69694 7.288911,86.6782 7.28125,86.65625 7.2494249,86.5643 7.2454455,86.469419 7.21875,86.375 7.1884177,86.268382 7.1483606,86.171969 7.125,86.0625 7.0521214,85.720988 7,85.364295 7,85 L 7,83 7,15 7,13 C 7,10.218152 9.2181517,8 12,8 l 2,0 68,0 2,0 c 2.781848,0 5,2.218152 5,5 l 0,2 0,68 0,2 c 0,0.364295 -0.05212,0.720988 -0.125,1.0625 -0.04415,0.206893 -0.08838,0.397658 -0.15625,0.59375 -0.0077,0.02195 -0.0233,0.04069 -0.03125,0.0625 -0.06274,0.173739 -0.138383,0.367449 -0.21875,0.53125 -0.04158,0.0828 -0.07904,0.169954 -0.125,0.25 -0.0546,0.09721 -0.126774,0.18835 -0.1875,0.28125 -0.09411,0.140965 -0.204921,0.275995 -0.3125,0.40625 -0.143174,0.17445 -0.303141,0.346998 -0.46875,0.5 -0.01117,0.0102 -0.01998,0.02115 -0.03125,0.03125 -0.138386,0.125556 -0.285091,0.234436 -0.4375,0.34375 -0.102571,0.07315 -0.204318,0.153364 -0.3125,0.21875 -0.0074,0.0045 -0.02384,-0.0044 -0.03125,0 -0.232039,0.138728 -0.462548,0.274778 -0.71875,0.375 0.301527,-0.0968 0.596455,-0.204138 0.875,-0.34375 0.55709,-0.279224 1.060053,-0.665694 1.5,-1.09375 0.219973,-0.214028 0.409366,-0.441865 0.59375,-0.6875 0.184384,-0.245635 0.355408,-0.507743 0.5,-0.78125 0.14012,-0.265048 0.276135,-0.524729 0.375,-0.8125 0.01041,-0.03078 0.02133,-0.06274 0.03125,-0.09375 0.09046,-0.278085 0.1388,-0.579404 0.1875,-0.875 C 89.95865,84.6507 90,84.334721 90,84 l 0,-2 0,-68 0,-2 C 90,8.676 87.324,6 84,6 L 12,6 z"
         id="rect3728"
         style="opacity:0.5;fill:url(#linearGradient3188);fill-opacity:1;fill-rule:nonzero;stroke:none" />
      <path
         d="M 12,90 C 8.676,90 6,87.324 6,84 L 6,82 6,14 6,12 c 0,-0.334721 0.04135,-0.6507 0.09375,-0.96875 0.0487,-0.295596 0.09704,-0.596915 0.1875,-0.875 C 6.29113,10.12587 6.302142,10.09265 6.3125,10.0625 6.411365,9.774729 6.5473802,9.515048 6.6875,9.25 6.8320918,8.976493 7.0031161,8.714385 7.1875,8.46875 7.3718839,8.223115 7.5612765,7.995278 7.78125,7.78125 8.221197,7.353194 8.72416,6.966724 9.28125,6.6875 9.559795,6.547888 9.8547231,6.440553 10.15625,6.34375 9.9000482,6.443972 9.6695391,6.580022 9.4375,6.71875 c -0.00741,0.0044 -0.023866,-0.0045 -0.03125,0 -0.031933,0.0193 -0.062293,0.04251 -0.09375,0.0625 -0.120395,0.0767 -0.2310226,0.163513 -0.34375,0.25 -0.1061728,0.0808 -0.2132809,0.161112 -0.3125,0.25 C 8.4783201,7.442683 8.3087904,7.626638 8.15625,7.8125 8.0486711,7.942755 7.9378561,8.077785 7.84375,8.21875 7.818661,8.25713 7.805304,8.30462 7.78125,8.34375 7.716487,8.446782 7.6510225,8.548267 7.59375,8.65625 7.4927417,8.850956 7.3880752,9.071951 7.3125,9.28125 7.30454,9.30306 7.288911,9.3218 7.28125,9.34375 7.2494249,9.4357 7.2454455,9.530581 7.21875,9.625 7.1884177,9.731618 7.1483606,9.828031 7.125,9.9375 7.0521214,10.279012 7,10.635705 7,11 l 0,2 0,68 0,2 c 0,2.781848 2.2181517,5 5,5 l 2,0 68,0 2,0 c 2.781848,0 5,-2.218152 5,-5 l 0,-2 0,-68 0,-2 C 89,10.635705 88.94788,10.279012 88.875,9.9375 88.83085,9.730607 88.78662,9.539842 88.71875,9.34375 88.71105,9.3218 88.69545,9.30306 88.6875,9.28125 88.62476,9.107511 88.549117,8.913801 88.46875,8.75 88.42717,8.6672 88.38971,8.580046 88.34375,8.5 88.28915,8.40279 88.216976,8.31165 88.15625,8.21875 88.06214,8.077785 87.951329,7.942755 87.84375,7.8125 87.700576,7.63805 87.540609,7.465502 87.375,7.3125 87.36383,7.3023 87.35502,7.29135 87.34375,7.28125 87.205364,7.155694 87.058659,7.046814 86.90625,6.9375 86.803679,6.86435 86.701932,6.784136 86.59375,6.71875 c -0.0074,-0.0045 -0.02384,0.0044 -0.03125,0 -0.232039,-0.138728 -0.462548,-0.274778 -0.71875,-0.375 0.301527,0.0968 0.596455,0.204138 0.875,0.34375 0.55709,0.279224 1.060053,0.665694 1.5,1.09375 0.219973,0.214028 0.409366,0.441865 0.59375,0.6875 0.184384,0.245635 0.355408,0.507743 0.5,0.78125 0.14012,0.265048 0.276135,0.524729 0.375,0.8125 0.01041,0.03078 0.02133,0.06274 0.03125,0.09375 0.09046,0.278085 0.1388,0.579404 0.1875,0.875 C 89.95865,11.3493 90,11.665279 90,12 l 0,2 0,68 0,2 c 0,3.324 -2.676,6 -6,6 l -72,0 z"
         id="path3615"
         style="opacity:0.2;fill:url(#radialGradient3619);fill-opacity:1;fill-rule:nonzero;stroke:none" />
      <path
         d="M 20.875,6 46.65625,46.65625 6,20.5 6,39 46.21875,48 6,56.75 6,75.125 46.65625,49.34375 20.5,90 39,90 48,49.78125 56.75,90 75.125,90 49.34375,49.34375 90,75.5 90,57 49.78125,48 90,39.25 90,20.875 49.34375,46.65625 75.5,6 57,6 48,46.21875 39.25,6 20.875,6 z"
         id="path4141"
         style="opacity:0.45;fill:url(#linearGradient4152);fill-opacity:1;stroke:none" />
    </g>
    <g
       transform="matrix(1.3872362,0,0,1.5325437,-34.854605,-47.92456)"
       id="layer5">
      <rect
         width="66"
         height="66"
         rx="12"
         ry="12"
         x="15"
         y="15"
         transform="matrix(0.72100592,0,0,0.65359676,25.1181,31.168072)"
         clip-path="url(#clipPath3613)"
         id="rect3171"
         style="opacity:0.1;fill:url(#linearGradient3613);fill-opacity:1;fill-rule:nonzero;stroke:#ffffff;stroke-width:0.5;stroke-linecap:round;stroke-linejoin:miter;stroke-miterlimit:4;stroke-opacity:1;stroke-dasharray:none;stroke-dashoffset:0;filter:url(#filter3794)" />
    </g>
    <g
       transform="matrix(1.1222386,0,0,1.1138358,-127.40331,-12.751537)"
       id="g11227"
       style="opacity:0.1">
      <path
         d="m 187.46299,53.640873 a 31.20212,27.285018 0 0 1 -62.40424,0 31.20212,27.285018 0 1 1 62.40424,0 z"
         id="path11229"
         style="opacity:0.02380952;fill:#000000;fill-opacity:1;stroke:none" />
      <path
         d="m 142.24916,45.700053 c 0,0 -12.77803,10.920699 -10.10279,18.124077 1.87819,5.05726 5.36968,14.568173 5.16389,13.275259 -0.20578,-1.292914 2.67524,-17.361986 5.35047,-20.132515 2.67524,-2.77053 -0.41157,-11.266821 -0.41157,-11.266821 z"
         id="path11231"
         style="fill:#000000;fill-opacity:1;stroke:none" />
      <path
         d="m 167.93179,43.114227 c 0,0 14.34556,12.809878 11.38536,20.266376 -2.07825,5.234969 -6.14809,13.574649 -5.92039,12.236305 0.22771,-1.338346 -2.9602,-17.972072 -5.92038,-20.839955 -2.9602,-2.867884 0.45541,-11.662726 0.45541,-11.662726 z"
         id="path11233"
         style="fill:#000000;fill-opacity:1;stroke:none" />
      <path
         d="m 136.43927,64.312104 c 1.50614,-1.154143 3.10848,-9.345627 7.02861,-12.118498 3.25811,-2.304585 22.03737,-2.456822 24.34912,-0.192357 2.53676,2.484865 7.02861,12.887926 7.02861,12.887926 z"
         id="path11235"
         style="fill:#000000;fill-opacity:1;stroke:none" />
      <path
         d="m 170.45466,57.798034 a 15.122635,5.2640067 0 1 1 -30.24527,0 15.122635,5.2640067 0 1 1 30.24527,0 z"
         id="path11237"
         style="fill:#000000;fill-opacity:1;stroke:none" />
      <rect
         width="54.409199"
         height="5.4853692"
         rx="0"
         ry="2.5851655"
         x="127.98874"
         y="71.192604"
         id="rect11239"
         style="fill:#000000;fill-opacity:1;stroke:none" />
      <rect
         width="54.409199"
         height="1.4859529"
         rx="0"
         ry="0.7003054"
         x="127.98874"
         y="71.828873"
         id="rect11241"
         style="opacity:0.68202766;fill:#000000;fill-opacity:1;stroke:none" />
      <rect
         width="39.912464"
         height="19.329393"
         rx="4.377193"
         ry="4.3212347"
         x="135.6862"
         y="62.538296"
         id="rect11243"
         style="fill:#000000;fill-opacity:1;stroke:none" />
      <path
         d="m 142.2177,53.54017 c 0,0 -2.32954,-28.146345 13.69964,-28.052553 14.75103,0.08631 12.82877,27.395563 12.82877,27.395563 4.20861,11.543032 -31.50766,11.469062 -26.52841,0.65699 z"
         id="path11245"
         style="fill:#000000;fill-opacity:1;stroke:none" />
      <rect
         width="7.6262259"
         height="18.806978"
         rx="3.5941169"
         ry="4.8227453"
         x="123.87842"
         y="64.105553"
         id="rect11247"
         style="fill:#000000;fill-opacity:1;stroke:none" />
      <rect
         width="7.0664983"
         height="18.806978"
         rx="3.3303263"
         ry="4.8227453"
         x="180.76549"
         y="64.366753"
         id="rect11249"
         style="fill:#000000;fill-opacity:1;stroke:none" />
      <rect
         width="39.49184"
         height="1.6289859"
         rx="0"
         ry="0.76771468"
         x="135.71791"
         y="65.536568"
         id="rect11251"
         style="fill:#000000;fill-opacity:1;stroke:none" />
      <rect
         width="39.49184"
         height="0.44128227"
         rx="0"
         ry="0.20796919"
         x="135.71791"
         y="65.725525"
         id="rect11253"
         style="opacity:0.68202766;fill:#000000;fill-opacity:1;stroke:none" />
      <rect
         width="39.49184"
         height="1.6289859"
         rx="0"
         ry="0.76771468"
         x="135.71791"
         y="76.46299"
         id="rect11255"
         style="fill:#000000;fill-opacity:1;stroke:none" />
    </g>
    <g
       transform="matrix(1.1002357,0,0,1.0894424,-124.05221,-11.504406)"
       id="g11197"
       style="opacity:0.2">
      <path
         d="m 187.46299,53.640873 a 31.20212,27.285018 0 0 1 -62.40424,0 31.20212,27.285018 0 1 1 62.40424,0 z"
         id="path11199"
         style="opacity:0.02380952;fill:#000000;fill-opacity:1;stroke:none" />
      <path
         d="m 142.24916,45.700053 c 0,0 -12.77803,10.920699 -10.10279,18.124077 1.87819,5.05726 5.36968,14.568173 5.16389,13.275259 -0.20578,-1.292914 2.67524,-17.361986 5.35047,-20.132515 2.67524,-2.77053 -0.41157,-11.266821 -0.41157,-11.266821 z"
         id="path11201"
         style="fill:#000000;fill-opacity:1;stroke:none" />
      <path
         d="m 167.93179,43.114227 c 0,0 14.34556,12.809878 11.38536,20.266376 -2.07825,5.234969 -6.14809,13.574649 -5.92039,12.236305 0.22771,-1.338346 -2.9602,-17.972072 -5.92038,-20.839955 -2.9602,-2.867884 0.45541,-11.662726 0.45541,-11.662726 z"
         id="path11203"
         style="fill:#000000;fill-opacity:1;stroke:none" />
      <path
         d="m 136.43927,64.312104 c 1.50614,-1.154143 3.10848,-9.345627 7.02861,-12.118498 3.25811,-2.304585 22.03737,-2.456822 24.34912,-0.192357 2.53676,2.484865 7.02861,12.887926 7.02861,12.887926 z"
         id="path11205"
         style="fill:#000000;fill-opacity:1;stroke:none" />
      <path
         d="m 170.45466,57.798034 a 15.122635,5.2640067 0 1 1 -30.24527,0 15.122635,5.2640067 0 1 1 30.24527,0 z"
         id="path11207"
         style="fill:#000000;fill-opacity:1;stroke:none" />
      <rect
         width="54.409199"
         height="5.4853692"
         rx="0"
         ry="2.5851655"
         x="127.98874"
         y="71.192604"
         id="rect11209"
         style="fill:#000000;fill-opacity:1;stroke:none" />
      <rect
         width="54.409199"
         height="1.4859529"
         rx="0"
         ry="0.7003054"
         x="127.98874"
         y="71.828873"
         id="rect11211"
         style="opacity:0.68202766;fill:#000000;fill-opacity:1;stroke:none" />
      <rect
         width="39.912464"
         height="19.329393"
         rx="4.377193"
         ry="4.3212347"
         x="135.6862"
         y="62.538296"
         id="rect11213"
         style="fill:#000000;fill-opacity:1;stroke:none" />
      <path
         d="m 142.2177,53.54017 c 0,0 -2.32954,-28.146345 13.69964,-28.052553 14.75103,0.08631 12.82877,27.395563 12.82877,27.395563 4.20861,11.543032 -31.50766,11.469062 -26.52841,0.65699 z"
         id="path11215"
         style="fill:#000000;fill-opacity:1;stroke:none" />
      <rect
         width="7.6262259"
         height="18.806978"
         rx="3.5941169"
         ry="4.8227453"
         x="123.87842"
         y="64.105553"
         id="rect11217"
         style="fill:#000000;fill-opacity:1;stroke:none" />
      <rect
         width="7.0664983"
         height="18.806978"
         rx="3.3303263"
         ry="4.8227453"
         x="180.76549"
         y="64.366753"
         id="rect11219"
         style="fill:#000000;fill-opacity:1;stroke:none" />
      <rect
         width="39.49184"
         height="1.6289859"
         rx="0"
         ry="0.76771468"
         x="135.71791"
         y="65.536568"
         id="rect11221"
         style="fill:#000000;fill-opacity:1;stroke:none" />
      <rect
         width="39.49184"
         height="0.44128227"
         rx="0"
         ry="0.20796919"
         x="135.71791"
         y="65.725525"
         id="rect11223"
         style="opacity:0.68202766;fill:#000000;fill-opacity:1;stroke:none" />
      <rect
         width="39.49184"
         height="1.6289859"
         rx="0"
         ry="0.76771468"
         x="135.71791"
         y="76.46299"
         id="rect11225"
         style="fill:#000000;fill-opacity:1;stroke:none" />
    </g>
    <g
       transform="matrix(1.0782328,0,0,1.0623386,-120.70111,-10.031843)"
       id="g11167"
       style="opacity:0.3">
      <path
         d="m 187.46299,53.640873 a 31.20212,27.285018 0 0 1 -62.40424,0 31.20212,27.285018 0 1 1 62.40424,0 z"
         id="path11169"
         style="opacity:0.02380952;fill:#000000;fill-opacity:1;stroke:none" />
      <path
         d="m 142.24916,45.700053 c 0,0 -12.77803,10.920699 -10.10279,18.124077 1.87819,5.05726 5.36968,14.568173 5.16389,13.275259 -0.20578,-1.292914 2.67524,-17.361986 5.35047,-20.132515 2.67524,-2.77053 -0.41157,-11.266821 -0.41157,-11.266821 z"
         id="path11171"
         style="fill:#000000;fill-opacity:1;stroke:none" />
      <path
         d="m 167.93179,43.114227 c 0,0 14.34556,12.809878 11.38536,20.266376 -2.07825,5.234969 -6.14809,13.574649 -5.92039,12.236305 0.22771,-1.338346 -2.9602,-17.972072 -5.92038,-20.839955 -2.9602,-2.867884 0.45541,-11.662726 0.45541,-11.662726 z"
         id="path11173"
         style="fill:#000000;fill-opacity:1;stroke:none" />
      <path
         d="m 136.43927,64.312104 c 1.50614,-1.154143 3.10848,-9.345627 7.02861,-12.118498 3.25811,-2.304585 22.03737,-2.456822 24.34912,-0.192357 2.53676,2.484865 7.02861,12.887926 7.02861,12.887926 z"
         id="path11175"
         style="fill:#000000;fill-opacity:1;stroke:none" />
      <path
         d="m 170.45466,57.798034 a 15.122635,5.2640067 0 1 1 -30.24527,0 15.122635,5.2640067 0 1 1 30.24527,0 z"
         id="path11177"
         style="fill:#000000;fill-opacity:1;stroke:none" />
      <rect
         width="54.409199"
         height="5.4853692"
         rx="0"
         ry="2.5851655"
         x="127.98874"
         y="71.192604"
         id="rect11179"
         style="fill:#000000;fill-opacity:1;stroke:none" />
      <rect
         width="54.409199"
         height="1.4859529"
         rx="0"
         ry="0.7003054"
         x="127.98874"
         y="71.828873"
         id="rect11181"
         style="opacity:0.68202766;fill:#000000;fill-opacity:1;stroke:none" />
      <rect
         width="39.912464"
         height="19.329393"
         rx="4.377193"
         ry="4.3212347"
         x="135.6862"
         y="62.538296"
         id="rect11183"
         style="fill:#000000;fill-opacity:1;stroke:none" />
      <path
         d="m 142.2177,53.54017 c 0,0 -2.32954,-28.146345 13.69964,-28.052553 14.75103,0.08631 12.82877,27.395563 12.82877,27.395563 4.20861,11.543032 -31.50766,11.469062 -26.52841,0.65699 z"
         id="path11185"
         style="fill:#000000;fill-opacity:1;stroke:none" />
      <rect
         width="7.6262259"
         height="18.806978"
         rx="3.5941169"
         ry="4.8227453"
         x="123.87842"
         y="64.105553"
         id="rect11187"
         style="fill:#000000;fill-opacity:1;stroke:none" />
      <rect
         width="7.0664983"
         height="18.806978"
         rx="3.3303263"
         ry="4.8227453"
         x="180.76549"
         y="64.366753"
         id="rect11189"
         style="fill:#000000;fill-opacity:1;stroke:none" />
      <rect
         width="39.49184"
         height="1.6289859"
         rx="0"
         ry="0.76771468"
         x="135.71791"
         y="65.536568"
         id="rect11191"
         style="fill:#000000;fill-opacity:1;stroke:none" />
      <rect
         width="39.49184"
         height="0.44128227"
         rx="0"
         ry="0.20796919"
         x="135.71791"
         y="65.725525"
         id="rect11193"
         style="opacity:0.68202766;fill:#000000;fill-opacity:1;stroke:none" />
      <rect
         width="39.49184"
         height="1.6289859"
         rx="0"
         ry="0.76771468"
         x="135.71791"
         y="76.46299"
         id="rect11195"
         style="fill:#000000;fill-opacity:1;stroke:none" />
    </g>
    <g
       transform="matrix(1.0464507,0,0,1.0298141,-115.51319,-8.2647672)"
       id="g11121"
       style="opacity:0.45">
      <path
         d="m 187.46299,53.640873 a 31.20212,27.285018 0 0 1 -62.40424,0 31.20212,27.285018 0 1 1 62.40424,0 z"
         id="path11004"
         style="opacity:0.02380952;fill:#000000;fill-opacity:1;stroke:none" />
      <path
         d="m 142.24916,45.700053 c 0,0 -12.77803,10.920699 -10.10279,18.124077 1.87819,5.05726 5.36968,14.568173 5.16389,13.275259 -0.20578,-1.292914 2.67524,-17.361986 5.35047,-20.132515 2.67524,-2.77053 -0.41157,-11.266821 -0.41157,-11.266821 z"
         id="path11014"
         style="fill:#000000;fill-opacity:1;stroke:none" />
      <path
         d="m 167.93179,43.114227 c 0,0 14.34556,12.809878 11.38536,20.266376 -2.07825,5.234969 -6.14809,13.574649 -5.92039,12.236305 0.22771,-1.338346 -2.9602,-17.972072 -5.92038,-20.839955 -2.9602,-2.867884 0.45541,-11.662726 0.45541,-11.662726 z"
         id="path11016"
         style="fill:#000000;fill-opacity:1;stroke:none" />
      <path
         d="m 136.43927,64.312104 c 1.50614,-1.154143 3.10848,-9.345627 7.02861,-12.118498 3.25811,-2.304585 22.03737,-2.456822 24.34912,-0.192357 2.53676,2.484865 7.02861,12.887926 7.02861,12.887926 z"
         id="path11018"
         style="fill:#000000;fill-opacity:1;stroke:none" />
      <path
         d="m 170.45466,57.798034 a 15.122635,5.2640067 0 1 1 -30.24527,0 15.122635,5.2640067 0 1 1 30.24527,0 z"
         id="path11020"
         style="fill:#000000;fill-opacity:1;stroke:none" />
      <rect
         width="54.409199"
         height="5.4853692"
         rx="0"
         ry="2.5851655"
         x="127.98874"
         y="71.192604"
         id="rect11022"
         style="fill:#000000;fill-opacity:1;stroke:none" />
      <rect
         width="54.409199"
         height="1.4859529"
         rx="0"
         ry="0.7003054"
         x="127.98874"
         y="71.828873"
         id="rect11024"
         style="opacity:0.68202766;fill:#000000;fill-opacity:1;stroke:none" />
      <rect
         width="39.912464"
         height="19.329393"
         rx="4.377193"
         ry="4.3212347"
         x="135.6862"
         y="62.538296"
         id="rect11026"
         style="fill:#000000;fill-opacity:1;stroke:none" />
      <path
         d="m 142.2177,53.54017 c 0,0 -2.32954,-28.146345 13.69964,-28.052553 14.75103,0.08631 12.82877,27.395563 12.82877,27.395563 4.20861,11.543032 -31.50766,11.469062 -26.52841,0.65699 z"
         id="path11028"
         style="fill:#000000;fill-opacity:1;stroke:none" />
      <rect
         width="7.6262259"
         height="18.806978"
         rx="3.5941169"
         ry="4.8227453"
         x="123.87842"
         y="64.105553"
         id="rect11030"
         style="fill:#000000;fill-opacity:1;stroke:none" />
      <rect
         width="7.0664983"
         height="18.806978"
         rx="3.3303263"
         ry="4.8227453"
         x="180.76549"
         y="64.366753"
         id="rect11032"
         style="fill:#000000;fill-opacity:1;stroke:none" />
      <rect
         width="39.49184"
         height="1.6289859"
         rx="0"
         ry="0.76771468"
         x="135.71791"
         y="65.536568"
         id="rect11050"
         style="fill:#000000;fill-opacity:1;stroke:none" />
      <rect
         width="39.49184"
         height="0.44128227"
         rx="0"
         ry="0.20796919"
         x="135.71791"
         y="65.725525"
         id="rect11052"
         style="opacity:0.68202766;fill:#000000;fill-opacity:1;stroke:none" />
      <rect
         width="39.49184"
         height="1.6289859"
         rx="0"
         ry="0.76771468"
         x="135.71791"
         y="76.46299"
         id="rect11058"
         style="fill:#000000;fill-opacity:1;stroke:none" />
    </g>
    <g
       transform="matrix(0.81573976,0,0,0.79816526,-98.475484,15.352458)"
       id="g9885">
      <path
         d="m 221.1399,37.235462 a 41.578356,39.54382 0 1 1 -83.15671,0 41.578356,39.54382 0 1 1 83.15671,0 z"
         id="path4073"
         style="opacity:0;fill:url(#radialGradient9867);fill-opacity:1;stroke:none" />
      <path
         d="m 162.84839,29.402578 c 0,0 -15.66435,13.682253 -12.38482,22.707173 2.30244,6.336106 6.58259,18.252076 6.33032,16.632218 -0.25227,-1.619857 3.27952,-21.75237 6.55904,-25.223492 3.27952,-3.471123 -0.50454,-14.115899 -0.50454,-14.115899 z"
         id="path3897"
         style="fill:#0e0e0e;fill-opacity:1;stroke:none" />
      <path
         d="m 194.33224,26.162865 c 0,0 17.58595,16.049155 13.9571,25.391203 -2.54769,6.558753 -7.53683,17.007316 -7.25769,15.330541 0.27914,-1.676779 -3.62885,-22.516731 -7.25769,-26.109825 -3.62885,-3.593096 0.55828,-14.611919 0.55828,-14.611919 z"
         id="path3899"
         style="fill:#0e0e0e;fill-opacity:1;stroke:none" />
      <path
         d="m 155.72616,52.721121 c 1.84634,-1.445995 3.81062,-11.708888 8.61624,-15.182944 3.99405,-2.887353 27.01519,-3.078086 29.84912,-0.240999 3.10977,3.113222 8.61625,16.14694 8.61625,16.14694 z"
         id="path3879"
         style="fill:#a10f0f;fill-opacity:1;stroke:none" />
      <path
         d="m 197.42498,44.559816 a 18.538552,6.5951335 0 1 1 -37.0771,0 18.538552,6.5951335 0 1 1 37.0771,0 z"
         id="path3905"
         style="fill:url(#linearGradient9851);fill-opacity:1;stroke:none" />
      <rect
         width="66.699211"
         height="6.8724732"
         rx="0"
         ry="3.2388852"
         x="145.36681"
         y="61.341515"
         id="rect3883"
         style="fill:url(#linearGradient9848);fill-opacity:1;stroke:none" />
      <rect
         width="66.699211"
         height="1.8617108"
         rx="0"
         ry="0.87739402"
         x="145.36681"
         y="62.13868"
         id="rect3989"
         style="opacity:0.68202766;fill:#ffffff;fill-opacity:1;stroke:none" />
      <rect
         width="48.927937"
         height="24.217283"
         rx="5.3659186"
         ry="5.41396"
         x="154.80299"
         y="50.498764"
         id="rect3871"
         style="fill:url(#radialGradient9844);fill-opacity:1;stroke:none" />
      <path
         d="m 162.80982,39.225251 c 0,0 -2.85574,-35.2638052 16.79413,-35.1462962 18.08302,0.108139 15.72655,34.3231712 15.72655,34.3231712 5.15926,14.461957 -38.62464,14.369283 -32.52068,0.823125 z"
         id="path12893"
         style="fill:url(#radialGradient9841);fill-opacity:1;stroke:none" />
      <rect
         width="9.3488464"
         height="23.562763"
         rx="4.4059601"
         ry="6.0422893"
         x="140.32805"
         y="52.462337"
         id="rect3875"
         style="fill:url(#linearGradient9838);fill-opacity:1;stroke:none" />
      <rect
         width="8.6626873"
         height="23.562763"
         rx="4.0825844"
         ry="6.0422893"
         x="210.06483"
         y="52.789593"
         id="rect3877"
         style="fill:url(#linearGradient9835);fill-opacity:1;stroke:none" />
      <path
         d="m 168.54695,25.954228 c 0,0 5.13071,-0.32726 10.90276,0 6.18362,0.350596 11.31734,-0.542222 11.31734,-0.542222 0,0 -6.7538,9.560392 -12.37327,9.298851 -4.59141,-0.213692 -9.84683,-8.756629 -9.84683,-8.756629 z"
         id="path3895"
         style="fill:#9c8607;fill-opacity:1;stroke:none" />
      <path
         d="m 190.05733,21.089695 a 4.7083583,6.3974645 3.9540091 1 1 -8.83259,-3.979701 4.7083583,6.3974645 3.9540091 1 1 8.83259,3.979701 z"
         id="path3901"
         style="fill:#ffffff;fill-opacity:1;stroke:none" />
      <path
         d="m 176.67923,20.626878 a 4.7083583,6.3974645 3.9540091 1 1 -8.83259,-3.979701 4.7083583,6.3974645 3.9540091 1 1 8.83259,3.979701 z"
         id="path13377"
         style="fill:#ffffff;fill-opacity:1;stroke:none" />
      <path
         d="m 187.33855,22.239431 a 2.0773201,3.7096179 1.2727946 0 1 -3.90292,-2.36262 2.0773201,3.7096179 1.2727946 0 1 3.90292,2.36262 z"
         id="path4048"
         style="fill:#000000;fill-opacity:1;stroke:none" />
      <path
         d="m 174.75195,21.633764 a 2.1914791,3.5959285 1.5128336 1 1 -4.11761,-2.290097 2.1914791,3.5959285 1.5128336 1 1 4.11761,2.290097 z"
         id="path13379"
         style="fill:#000000;fill-opacity:1;stroke:none" />
      <path
         d="m 168.22628,25.954228 c 0,0 5.77205,-2.945345 11.5441,-2.618084 6.18361,0.350595 11.18452,1.980009 11.18452,1.980009 0,0 -5.03008,6.668938 -12.4672,6.776621 -4.8202,0.06979 -10.26142,-6.138546 -10.26142,-6.138546 z"
         id="path3881"
         style="fill:url(#linearGradient9827);fill-opacity:1;stroke:none" />
      <path
         d="m 165.89449,46.720988 c 0,0 1.93772,-7.085719 12.90316,-7.213816 11.28546,-0.131835 13.26128,6.27067 13.26128,6.27067 0,0 -4.75855,3.354069 -13.16671,3.291572 -8.40815,-0.0625 -12.99773,-2.348426 -12.99773,-2.348426 z"
         id="path3927"
         style="fill:#ededed;fill-opacity:1;stroke:none" />
      <rect
         width="37.17894"
         height="12.299141"
         ry="1.4357356"
         x="160.94865"
         y="56.334976"
         id="rect4019"
         style="fill:#0e0e0e;fill-opacity:1;stroke:none" />
      <rect
         width="48.412304"
         height="2.0409131"
         rx="0"
         ry="0.96184927"
         x="154.84186"
         y="54.255222"
         id="rect4001"
         style="fill:url(#linearGradient9822);fill-opacity:1;stroke:none" />
      <rect
         width="48.412304"
         height="0.55287081"
         rx="0"
         ry="0.26055905"
         x="154.84186"
         y="54.491959"
         id="rect4003"
         style="opacity:0.68202766;fill:#ffffff;fill-opacity:1;stroke:none" />
      <rect
         width="48.412304"
         height="2.0409131"
         rx="0"
         ry="0.96184927"
         x="154.84186"
         y="60.697304"
         id="rect4007"
         style="fill:url(#linearGradient9818);fill-opacity:1;stroke:none" />
      <rect
         width="48.412304"
         height="0.55287081"
         rx="0"
         ry="0.26055905"
         x="154.84186"
         y="60.934044"
         id="rect4009"
         style="opacity:0.68202766;fill:#ffffff;fill-opacity:1;stroke:none" />
      <rect
         width="48.412304"
         height="2.0409131"
         rx="0"
         ry="0.96184927"
         x="154.84186"
         y="67.944641"
         id="rect4013"
         style="fill:url(#linearGradient9814);fill-opacity:1;stroke:none" />
      <rect
         width="48.412304"
         height="0.55287081"
         rx="0"
         ry="0.26055905"
         x="154.84186"
         y="68.181381"
         id="rect4015"
         style="opacity:0.68202766;fill:#ffffff;fill-opacity:1;stroke:none" />
      <path
         d="m 196.50265,49.257184 a 17.534039,1.6455945 0 0 1 -35.06807,0 17.534039,1.6455945 0 1 1 35.06807,0 z"
         id="path3992"
         style="opacity:0.5299539;fill:url(#radialGradient10039);fill-opacity:1;stroke:none" />
    </g>
  </g>
</svg>
