<?xml version="1.0" encoding="utf-8"?>
<!-- Generator: Adobe Illustrator 15.0.2, SVG Export Plug-In . SVG Version: 6.00 Build 0)  -->
<!DOCTYPE svg PUBLIC "-//W3C//DTD SVG 1.1//EN" "http://www.w3.org/Graphics/SVG/1.1/DTD/svg11.dtd">
<svg version="1.1" xmlns="http://www.w3.org/2000/svg" xmlns:xlink="http://www.w3.org/1999/xlink" x="0px" y="0px" width="96px"
	 height="96px" viewBox="0 0 96 96" enable-background="new 0 0 96 96" xml:space="preserve">
<filter  id="filter3174" color-interpolation-filters="sRGB">
	<feGaussianBlur  id="feGaussianBlur3176" stdDeviation="1.71"></feGaussianBlur>
</filter>
<g id="svg2408" xmlns:cc="http://creativecommons.org/ns#" xmlns:svg="http://www.w3.org/2000/svg" xmlns:rdf="http://www.w3.org/1999/02/22-rdf-syntax-ns#" xmlns:dc="http://purl.org/dc/elements/1.1/" xmlns:inkscape="http://www.inkscape.org/namespaces/inkscape">
	<g id="layer2" display="none">
		<g id="rect3745" display="inline" opacity="0.5" filter="url(#filter3174)" enable-background="new    ">
			
				<linearGradient id="SVGID_1_" gradientUnits="userSpaceOnUse" x1="45.4146" y1="0.3652" x2="45.4145" y2="85.8638" gradientTransform="matrix(1.0059 0 0 -0.9942 1.4436 92.3627)">
				<stop  offset="0" style="stop-color:#000000"/>
				<stop  offset="1" style="stop-color:#000000;stop-opacity:0.5882"/>
			</linearGradient>
			<path fill="url(#SVGID_1_)" d="M10.125,7h74c3.313,0,6,2.687,6,6v73c0,3.313-2.687,6-6,6h-74c-3.313,0-6-2.687-6-6V13
				C4.125,9.687,6.811,7,10.125,7z"/>
		</g>
	</g>
	<g id="layer3">
		
			<linearGradient id="path3786_1_" gradientUnits="userSpaceOnUse" x1="41.3618" y1="831.3799" x2="41.3618" y2="747.2729" gradientTransform="matrix(1.0238 0 0 1.0119 4.7774 -749.4114)">
			<stop  offset="0" style="stop-color:#000000"/>
			<stop  offset="1" style="stop-color:#000000;stop-opacity:0.5882"/>
		</linearGradient>
		<path id="path3786" opacity="0.08" fill="url(#path3786_1_)" enable-background="new    " d="M11.125,95.031
			c-5.511,0-10.031-4.52-10.031-10.031V14c0-5.511,4.52-10.031,10.031-10.031h72c5.512,0,10.031,4.52,10.031,10.031v71
			c0,5.512-4.52,10.031-10.031,10.031H11.125z"/>
		
			<linearGradient id="path3778_1_" gradientUnits="userSpaceOnUse" x1="41.3618" y1="831.3799" x2="41.3618" y2="747.2729" gradientTransform="matrix(1.0238 0 0 1.0119 4.7774 -749.4114)">
			<stop  offset="0" style="stop-color:#000000"/>
			<stop  offset="1" style="stop-color:#000000;stop-opacity:0.5882"/>
		</linearGradient>
		<path id="path3778" opacity="0.1" fill="url(#path3778_1_)" enable-background="new    " d="M11.125,94.031
			c-4.972,0-9.031-4.06-9.031-9.031V14c0-4.972,4.06-9.031,9.031-9.031h72c4.972,0,9.031,4.06,9.031,9.031v71
			c0,4.972-4.06,9.031-9.031,9.031H11.125z"/>
		
			<linearGradient id="path3770_1_" gradientUnits="userSpaceOnUse" x1="41.3618" y1="831.3809" x2="41.3618" y2="747.2739" gradientTransform="matrix(1.0238 0 0 1.0119 4.7774 -749.4114)">
			<stop  offset="0" style="stop-color:#000000"/>
			<stop  offset="1" style="stop-color:#000000;stop-opacity:0.5882"/>
		</linearGradient>
		<path id="path3770" opacity="0.2" fill="url(#path3770_1_)" enable-background="new    " d="M11.125,93c-4.409,0-8-3.591-8-8V14
			c0-4.409,3.591-8,8-8h72c4.409,0,8,3.591,8,8v71c0,4.409-3.591,8-8,8H11.125z"/>
		
			<linearGradient id="rect3723_1_" gradientUnits="userSpaceOnUse" x1="41.3618" y1="831.3809" x2="41.3618" y2="747.2739" gradientTransform="matrix(1.0238 0 0 1.0119 4.7774 -749.4114)">
			<stop  offset="0" style="stop-color:#000000"/>
			<stop  offset="1" style="stop-color:#000000;stop-opacity:0.5882"/>
		</linearGradient>
		<path id="rect3723" opacity="0.3" fill="url(#rect3723_1_)" enable-background="new    " d="M11.125,92h72c3.866,0,7-3.134,7-7V14
			c0-3.866-3.134-7-7-7h-72c-3.866,0-7,3.134-7,7v71C4.125,88.866,7.258,92,11.125,92z"/>
		
			<linearGradient id="rect3716_1_" gradientUnits="userSpaceOnUse" x1="47.144" y1="835.7734" x2="47.144" y2="751.6665" gradientTransform="matrix(1 0 0 1 -0.02 -744.9053)">
			<stop  offset="0" style="stop-color:#000000"/>
			<stop  offset="1" style="stop-color:#000000;stop-opacity:0.5882"/>
		</linearGradient>
		<path id="rect3716" opacity="0.45" fill="url(#rect3716_1_)" enable-background="new    " d="M11.125,91h72c3.313,0,6-2.687,6-6
			V13c0-3.313-2.687-6-6-6h-72c-3.313,0-6,2.687-6,6v72C5.125,88.313,7.811,91,11.125,91z"/>
	</g>
	<g id="layer1">
		<linearGradient id="rect2419-7_1_" gradientUnits="userSpaceOnUse" x1="47.1245" y1="90" x2="47.1245" y2="6.0005">
			<stop  offset="0" style="stop-color:#CF1507"/>
			<stop  offset="0.2885" style="stop-color:#D11E11"/>
			<stop  offset="0.7697" style="stop-color:#D5362A"/>
			<stop  offset="1" style="stop-color:#D84439"/>
		</linearGradient>
		<path id="rect2419-7" fill="url(#rect2419-7_1_)" d="M11.125,6h72c3.313,0,6,2.687,6,6v72c0,3.313-2.687,6-6,6h-72
			c-3.313,0-6-2.687-6-6V12C5.125,8.687,7.811,6,11.125,6z"/>
		<linearGradient id="rect4377_2_" gradientUnits="userSpaceOnUse" x1="47.1245" y1="86" x2="47.1245" y2="6.0005">
			<stop  offset="0" style="stop-color:#D84236"/>
			<stop  offset="0.3411" style="stop-color:#DA4B40"/>
			<stop  offset="0.9103" style="stop-color:#DF6459"/>
			<stop  offset="1" style="stop-color:#E0685E"/>
		</linearGradient>
		<path id="rect4377" inkscape:connector-curvature="0" fill="url(#rect4377_2_)" d="M11.125,86c-3.324,0-6-2.676-6-6V12
			c0-3.324,2.676-6,6-6h72c3.324,0,6,2.676,6,6v68c0,3.324-2.676,6-6,6H11.125z M11.125,85.031h72c2.805,0,5.031-2.227,5.031-5.031
			V12c0-2.805-2.227-5.031-5.031-5.031h-72C8.32,6.969,6.093,9.195,6.093,12v68C6.093,82.805,8.32,85.031,11.125,85.031z"/>
		<linearGradient id="rect4414_1_" gradientUnits="userSpaceOnUse" x1="47.1245" y1="86" x2="47.1245" y2="78">
			<stop  offset="0" style="stop-color:#CF1507"/>
			<stop  offset="0.2885" style="stop-color:#D11E11"/>
			<stop  offset="0.7697" style="stop-color:#D5362A"/>
			<stop  offset="1" style="stop-color:#D84439"/>
		</linearGradient>
		<path id="rect4414" inkscape:connector-curvature="0" opacity="0.1" fill="url(#rect4414_1_)" enable-background="new    " d="
			M5.125,78v2c0,3.324,2.676,6,6,6h72c3.324,0,6-2.676,6-6v-2c0,3.324-2.676,6-6,6h-72C7.8,84,5.125,81.324,5.125,78z"/>
	</g>
	<g id="layer4">
		
			<radialGradient id="path3888_1_" cx="47.1445" cy="10.0947" r="29.9082" gradientTransform="matrix(1 0 0 -1 -0.02 95.0947)" gradientUnits="userSpaceOnUse">
			<stop  offset="0" style="stop-color:#000000;stop-opacity:0.3137"/>
			<stop  offset="0.2485" style="stop-color:#000000;stop-opacity:0.3922"/>
			<stop  offset="0.7273" style="stop-color:#000000;stop-opacity:0.4706"/>
			<stop  offset="1" style="stop-color:#000000;stop-opacity:0.5882"/>
		</radialGradient>
		<path id="path3888" inkscape:connector-curvature="0" fill="url(#path3888_1_)" d="M5.125,80v4c0,3.324,2.676,6,6,6h72
			c3.324,0,6-2.676,6-6v-4c0,3.324-2.676,6-6,6h-72C7.8,86,5.125,83.324,5.125,80z"/>
		<path id="rect4345" inkscape:connector-curvature="0" opacity="0.1" enable-background="new    " d="M5.125,82v2
			c0,3.324,2.676,6,6,6h72c3.324,0,6-2.676,6-6v-2c0,3.324-2.676,6-6,6h-72C7.8,88,5.125,85.324,5.125,82z"/>
		<path id="rect4336" inkscape:connector-curvature="0" opacity="0.15" enable-background="new    " d="M5.125,83v1
			c0,3.324,2.676,6,6,6h72c3.324,0,6-2.676,6-6v-1c0,3.324-2.676,6-6,6h-72C7.8,89,5.125,86.324,5.125,83z"/>
	</g>
	<g id="layer5">
		<g>
			<defs>
				<path id="SVGID_2_" d="M11.125,6h72c3.313,0,6,2.687,6,6v68c0,3.313-2.687,6-6,6h-72c-3.313,0-6-2.687-6-6V12
					C5.125,8.687,7.811,6,11.125,6z"/>
			</defs>
			<clipPath id="SVGID_3_">
				<use xlink:href="#SVGID_2_"  overflow="visible"/>
			</clipPath>
		</g>
	</g>
</g>
<g id="Layer_2">
	<linearGradient id="rect4377_3_" gradientUnits="userSpaceOnUse" x1="47.1245" y1="80.9746" x2="47.1245" y2="13.0264">
		<stop  offset="0" style="stop-color:#D2D2D2"/>
		<stop  offset="1" style="stop-color:#F5F5F5"/>
	</linearGradient>
	<path id="rect4377_1_" inkscape:connector-curvature="0" fill="url(#rect4377_3_)" enable-background="new    " d="M15.789,80.975
		h62.673c2.439,0,4.378-1.938,4.378-4.379v-59.19c0-2.441-1.938-4.38-4.378-4.38H15.789c-2.441,0-4.38,1.938-4.38,4.38v59.19
		C11.409,79.037,13.348,80.975,15.789,80.975z"/>
</g>
<g id="Layer_3">
	<linearGradient id="SVGID_4_" gradientUnits="userSpaceOnUse" x1="44.5854" y1="82" x2="44.5854" y2="17.7578">
		<stop  offset="0" style="stop-color:#CF1507"/>
		<stop  offset="0.2885" style="stop-color:#D11E11"/>
		<stop  offset="0.7697" style="stop-color:#D5362A"/>
		<stop  offset="1" style="stop-color:#D84439"/>
	</linearGradient>
	<polygon fill="url(#SVGID_4_)" points="52.338,17.757 52.338,38.284 24.427,19.973 24.427,65.164 52.338,47.746 52.338,81.701 
		64.744,82 64.744,17.757 	"/>
</g>
</svg>
