<?xml version="1.0" encoding="UTF-8" standalone="no"?>
<svg
   xmlns:dc="http://purl.org/dc/elements/1.1/"
   xmlns:cc="http://creativecommons.org/ns#"
   xmlns:rdf="http://www.w3.org/1999/02/22-rdf-syntax-ns#"
   xmlns:svg="http://www.w3.org/2000/svg"
   xmlns="http://www.w3.org/2000/svg"
   xmlns:xlink="http://www.w3.org/1999/xlink"
   id="svg2408"
   height="96"
   width="96"
   version="1.0">
  <defs
     id="defs2410">
    <linearGradient
       id="linearGradient4664">
      <stop
         id="stop4660"
         offset="0"
         style="stop-color:#ff0000;stop-opacity:1" />
      <stop
         style="stop-color:#fffe00;stop-opacity:0.98039216"
         offset="0.35186282"
         id="stop4680" />
      <stop
         id="stop4682"
         offset="0.66940868"
         style="stop-color:#09ff14;stop-opacity:0.96862745" />
      <stop
         id="stop4662"
         offset="1"
         style="stop-color:#0061ff;stop-opacity:0.95884776" />
    </linearGradient>
    <linearGradient
       id="linearGradient4230">
      <stop
         offset="0"
         style="stop-color:#000000;stop-opacity:1"
         id="stop4232" />
      <stop
         offset="1"
         style="stop-color:#000000;stop-opacity:0"
         id="stop4234" />
    </linearGradient>
    <linearGradient
       id="linearGradient4156">
      <stop
         offset="0"
         style="stop-color:#fefefe;stop-opacity:1"
         id="stop4158" />
      <stop
         offset="1"
         style="stop-color:#545454;stop-opacity:1"
         id="stop4160" />
    </linearGradient>
    <linearGradient
       id="linearGradient4031">
      <stop
         offset="0"
         style="stop-color:#fefefe;stop-opacity:1"
         id="stop4033" />
      <stop
         offset="1"
         style="stop-color:#fefefe;stop-opacity:0"
         id="stop4035" />
    </linearGradient>
    <linearGradient
       id="linearGradient4314">
      <stop
         offset="0"
         style="stop-color:#fefefe;stop-opacity:1"
         id="stop4316" />
      <stop
         offset="0.30000001"
         style="stop-color:#fefefe;stop-opacity:0.49803922"
         id="stop4322" />
      <stop
         offset="1"
         style="stop-color:#fefefe;stop-opacity:0"
         id="stop4318" />
    </linearGradient>
    <linearGradient
       gradientTransform="scale(1.0058652,0.994169)"
       gradientUnits="userSpaceOnUse"
       id="ButtonShadow"
       y2="7.0165396"
       x2="45.447727"
       y1="92.539597"
       x1="45.447727">
      <stop
         offset="0"
         style="stop-color:#000000;stop-opacity:1"
         id="stop3750" />
      <stop
         offset="1"
         style="stop-color:#000000;stop-opacity:0.58823532"
         id="stop3752" />
    </linearGradient>
    <linearGradient
       id="linearGradient3737">
      <stop
         offset="0"
         style="stop-color:#fefefe;stop-opacity:1"
         id="stop3739" />
      <stop
         offset="1"
         style="stop-color:#fefefe;stop-opacity:0"
         id="stop3741" />
    </linearGradient>
    <filter
       id="filter3174"
       color-interpolation-filters="sRGB">
      <feGaussianBlur
         stdDeviation="1.71"
         id="feGaussianBlur3176" />
    </filter>
    <linearGradient
       gradientUnits="userSpaceOnUse"
       xlink:href="#linearGradient3737"
       id="linearGradient3188"
       y2="63.893143"
       x2="36.357143"
       y1="6"
       x1="36.357143" />
    <filter
       id="filter3794"
       color-interpolation-filters="sRGB"
       height="1.3839999"
       width="1.3839999"
       y="-0.192"
       x="-0.192">
      <feGaussianBlur
         stdDeviation="5.28"
         id="feGaussianBlur3796" />
    </filter>
    <linearGradient
       gradientUnits="userSpaceOnUse"
       xlink:href="#linearGradient3737"
       id="linearGradient3613"
       y2="138.66119"
       x2="48"
       y1="20.220806"
       x1="48" />
    <radialGradient
       gradientTransform="matrix(1.1573129,0,0,0.99590774,-7.5510206,0.19713193)"
       gradientUnits="userSpaceOnUse"
       xlink:href="#linearGradient3737"
       id="radialGradient3619"
       fy="90.171875"
       fx="48"
       r="42"
       cy="90.171875"
       cx="48" />
    <clipPath
       id="clipPath3613">
      <rect
         style="fill:#fefefe;fill-opacity:1;fill-rule:nonzero;stroke:none"
         id="rect3615"
         y="6"
         x="6"
         ry="6"
         rx="6"
         height="84"
         width="84" />
    </clipPath>
    <linearGradient
       gradientUnits="userSpaceOnUse"
       xlink:href="#linearGradient3187"
       id="linearGradient3617"
       y2="5.9877172"
       x2="48"
       y1="90"
       x1="48" />
    <linearGradient
       id="linearGradient3187">
      <stop
         offset="0"
         style="stop-color:#282828;stop-opacity:1"
         id="stop3189" />
      <stop
         offset="1"
         style="stop-color:#5a5a5a;stop-opacity:1"
         id="stop3191" />
    </linearGradient>
    <linearGradient
       id="linearGradient3386">
      <stop
         offset="0"
         style="stop-color:#eeeeec;stop-opacity:1"
         id="stop3388" />
      <stop
         offset="1"
         style="stop-color:#eeeeec;stop-opacity:0"
         id="stop3390" />
    </linearGradient>
    <radialGradient
       gradientTransform="matrix(1.0164118,0,0,1.2415079,-19.337623,-31.113008)"
       gradientUnits="userSpaceOnUse"
       xlink:href="#linearGradient3386"
       id="radialGradient3904"
       fy="66.597893"
       fx="53.419292"
       r="47.724609"
       cy="66.597893"
       cx="53.419292" />
    <radialGradient
       gradientTransform="matrix(1.0220726,0,0,1.2415079,-19.896446,-47.863009)"
       gradientUnits="userSpaceOnUse"
       xlink:href="#linearGradient3386"
       id="radialGradient3929"
       fy="66.597893"
       fx="53.419292"
       r="47.724609"
       cy="66.597893"
       cx="53.419292" />
    <radialGradient
       gradientTransform="matrix(1.4750367,0,0,0.847859,-55.736923,-9.8942437)"
       gradientUnits="userSpaceOnUse"
       xlink:href="#linearGradient3386"
       id="radialGradient3933"
       fy="66.597893"
       fx="53.419292"
       r="47.724609"
       cy="66.597893"
       cx="53.419292" />
    <radialGradient
       gradientTransform="matrix(1.4750367,0,0,0.847859,-77.736923,-9.8942437)"
       gradientUnits="userSpaceOnUse"
       xlink:href="#linearGradient3386"
       id="radialGradient3937"
       fy="66.597893"
       fx="53.419292"
       r="47.724609"
       cy="66.597893"
       cx="53.419292" />
    <radialGradient
       gradientTransform="matrix(1.0199392,0,0,0.85846172,-19.873341,-11.926904)"
       gradientUnits="userSpaceOnUse"
       xlink:href="#linearGradient3386"
       id="radialGradient4114"
       fy="66.597893"
       fx="53.419292"
       r="47.724609"
       cy="66.597893"
       cx="53.419292" />
    <radialGradient
       gradientTransform="matrix(1.0199392,0,0,0.85846172,-19.685841,-9.268213)"
       gradientUnits="userSpaceOnUse"
       xlink:href="#linearGradient3386"
       id="radialGradient4116"
       fy="66.597893"
       fx="53.419292"
       r="47.724609"
       cy="66.597893"
       cx="53.419292" />
    <linearGradient
       id="linearGradient3299">
      <stop
         offset="0"
         style="stop-color:#dfdfdf;stop-opacity:1"
         id="stop3301" />
      <stop
         offset="1"
         style="stop-color:#434343;stop-opacity:1"
         id="stop3303" />
    </linearGradient>
    <linearGradient
       id="linearGradient3273">
      <stop
         offset="0"
         style="stop-color:#5d5d5d;stop-opacity:1"
         id="stop3275" />
      <stop
         offset="1"
         style="stop-color:#171717;stop-opacity:1"
         id="stop3277" />
    </linearGradient>
    <linearGradient
       id="linearGradient3289">
      <stop
         offset="0"
         style="stop-color:#919191;stop-opacity:1"
         id="stop3291" />
      <stop
         offset="1"
         style="stop-color:#232323;stop-opacity:1"
         id="stop3293" />
    </linearGradient>
    <linearGradient
       gradientUnits="userSpaceOnUse"
       id="linearGradient3260">
      <stop
         offset="0"
         style="stop-color:#000000;stop-opacity:1"
         id="stop3262" />
      <stop
         offset="0.2"
         style="stop-color:#000000;stop-opacity:0.3548387"
         id="stop3266" />
      <stop
         offset="0.55254942"
         style="stop-color:#000000;stop-opacity:0"
         id="stop3268" />
      <stop
         offset="1"
         style="stop-color:#000000;stop-opacity:0"
         id="stop3264" />
    </linearGradient>
    <linearGradient
       gradientTransform="matrix(0.72413795,0,0,0.75,1.6551725,4.5)"
       gradientUnits="userSpaceOnUse"
       xlink:href="#linearGradient3260"
       id="linearGradient4262"
       y2="34.001266"
       x2="43.476658"
       y1="26"
       x1="43.476658" />
    <linearGradient
       gradientTransform="matrix(1,0,0,1.25,0,-4.5982122)"
       gradientUnits="userSpaceOnUse"
       xlink:href="#linearGradient3260"
       id="linearGradient4310"
       y2="11.924657"
       x2="48"
       y1="16"
       x1="48" />
    <linearGradient
       gradientTransform="translate(0,-0.67856979)"
       gradientUnits="userSpaceOnUse"
       xlink:href="#linearGradient4314"
       id="linearGradient4320"
       y2="20.329885"
       x2="50.464287"
       y1="16.035713"
       x1="50.464287" />
    <linearGradient
       gradientTransform="matrix(1,0,0,1.25,0,4.4017878)"
       gradientUnits="userSpaceOnUse"
       xlink:href="#linearGradient3260"
       id="linearGradient4326"
       y2="11.924657"
       x2="48"
       y1="16"
       x1="48" />
    <linearGradient
       gradientTransform="matrix(0.81330712,0,0,0.81132563,3.9935431,2.0281849)"
       gradientUnits="userSpaceOnUse"
       xlink:href="#linearGradient3273"
       id="linearGradient4371"
       y2="24"
       x2="16"
       y1="10.441942"
       x1="11" />
    <linearGradient
       gradientTransform="matrix(0.81330712,0,0,0.81132563,3.9935431,2.0281849)"
       gradientUnits="userSpaceOnUse"
       xlink:href="#linearGradient3289"
       id="linearGradient4373"
       y2="24.5"
       x2="19.25"
       y1="9.9419422"
       x1="13.125" />
    <radialGradient
       gradientUnits="userSpaceOnUse"
       xlink:href="#linearGradient3299"
       id="radialGradient4375"
       fy="14.9375"
       fx="11.3125"
       r="1.4375"
       cy="14.9375"
       cx="11.3125" />
    <radialGradient
       gradientUnits="userSpaceOnUse"
       xlink:href="#linearGradient3299"
       id="radialGradient4377"
       fy="14.9375"
       fx="11.3125"
       r="1.4375"
       cy="14.9375"
       cx="11.3125" />
    <radialGradient
       gradientUnits="userSpaceOnUse"
       xlink:href="#linearGradient3299"
       id="radialGradient4379"
       fy="14.9375"
       fx="11.3125"
       r="1.4375"
       cy="14.9375"
       cx="11.3125" />
    <linearGradient
       gradientTransform="matrix(1.0058652,0,0,0.994169,100,0)"
       gradientUnits="userSpaceOnUse"
       id="ButtonShadow-0"
       y2="7.0165396"
       x2="45.447727"
       y1="92.539597"
       x1="45.447727">
      <stop
         offset="0"
         style="stop-color:#000000;stop-opacity:1"
         id="stop3750-8" />
      <stop
         offset="1"
         style="stop-color:#000000;stop-opacity:0.58823532"
         id="stop3752-5" />
    </linearGradient>
    <linearGradient
       gradientTransform="matrix(1.0238095,0,0,1.0119048,-1.1428571,-98.071429)"
       gradientUnits="userSpaceOnUse"
       xlink:href="#ButtonShadow-0"
       id="linearGradient3780"
       y2="90.238609"
       x2="32.251034"
       y1="6.1317081"
       x1="32.251034" />
    <linearGradient
       gradientTransform="matrix(1.0238095,0,0,1.0119048,-1.1428571,-98.071429)"
       gradientUnits="userSpaceOnUse"
       xlink:href="#ButtonShadow-0"
       id="linearGradient3772"
       y2="90.238609"
       x2="32.251034"
       y1="6.1317081"
       x1="32.251034" />
    <linearGradient
       gradientTransform="matrix(1.0238095,0,0,1.0119048,-1.1428571,-98.071429)"
       gradientUnits="userSpaceOnUse"
       xlink:href="#ButtonShadow-0"
       id="linearGradient3725"
       y2="90.238609"
       x2="32.251034"
       y1="6.1317081"
       x1="32.251034" />
    <linearGradient
       gradientTransform="translate(0,-97)"
       gradientUnits="userSpaceOnUse"
       xlink:href="#ButtonShadow-0"
       id="linearGradient3721"
       y2="90.238609"
       x2="32.251034"
       y1="6.1317081"
       x1="32.251034" />
    <linearGradient
       gradientTransform="matrix(1.0238095,0,0,1.0119048,-1.1428571,-98.071429)"
       gradientUnits="userSpaceOnUse"
       xlink:href="#ButtonShadow-0"
       id="linearGradient3811"
       y2="90.238609"
       x2="32.251034"
       y1="6.1317081"
       x1="32.251034" />
    <radialGradient
       gradientUnits="userSpaceOnUse"
       xlink:href="#linearGradient4031"
       id="radialGradient4037"
       fy="55.9258"
       fx="47.988014"
       r="30.644978"
       cy="55.9258"
       cx="47.988014" />
    <linearGradient
       id="linearGradient4015">
      <stop
         offset="0"
         style="stop-color:#a3a3a3;stop-opacity:1"
         id="stop4017" />
      <stop
         offset="0.32695314"
         style="stop-color:#c7c7c7;stop-opacity:1"
         id="stop4166" />
      <stop
         offset="0.67500001"
         style="stop-color:#dedede;stop-opacity:1"
         id="stop4168" />
      <stop
         offset="1"
         style="stop-color:#f5f5f5;stop-opacity:1"
         id="stop4019" />
    </linearGradient>
    <linearGradient
       gradientUnits="userSpaceOnUse"
       xlink:href="#linearGradient4156"
       id="linearGradient4162"
       y2="75.759666"
       x2="46.097668"
       y1="52.770008"
       x1="42.628178" />
    <linearGradient
       gradientUnits="userSpaceOnUse"
       xlink:href="#linearGradient4015"
       id="linearGradient4164"
       y2="4.9502482"
       x2="8.9718256"
       y1="15.022491"
       x1="8.9718256" />
    <linearGradient
       gradientUnits="userSpaceOnUse"
       xlink:href="#linearGradient4015"
       id="linearGradient4190"
       y2="4.9502482"
       x2="8.9718256"
       y1="15.022491"
       x1="8.9718256" />
    <linearGradient
       gradientUnits="userSpaceOnUse"
       xlink:href="#linearGradient4015"
       id="linearGradient4194"
       y2="4.9502482"
       x2="8.9718256"
       y1="15.022491"
       x1="8.9718256" />
    <linearGradient
       gradientUnits="userSpaceOnUse"
       xlink:href="#linearGradient4015"
       id="linearGradient4198"
       y2="4.9502482"
       x2="8.9718256"
       y1="15.022491"
       x1="8.9718256" />
    <linearGradient
       gradientUnits="userSpaceOnUse"
       xlink:href="#linearGradient4015"
       id="linearGradient4206"
       y2="4.9502482"
       x2="8.9718256"
       y1="15.022491"
       x1="8.9718256" />
    <linearGradient
       gradientUnits="userSpaceOnUse"
       xlink:href="#linearGradient4015"
       id="linearGradient4208"
       y2="4.9502482"
       x2="8.9718256"
       y1="15.022491"
       x1="8.9718256" />
    <linearGradient
       gradientUnits="userSpaceOnUse"
       xlink:href="#linearGradient4015"
       id="linearGradient4210"
       y2="4.9502482"
       x2="8.9718256"
       y1="15.022491"
       x1="8.9718256" />
    <linearGradient
       gradientUnits="userSpaceOnUse"
       xlink:href="#linearGradient4230"
       id="linearGradient4236"
       y2="62.337585"
       x2="42.985443"
       y1="52.656303"
       x1="42.985443" />
    <linearGradient
       gradientTransform="translate(-25.887299,-14.395289)"
       gradientUnits="userSpaceOnUse"
       y2="69.105972"
       x2="104.32306"
       y1="69.105972"
       x1="43.522179"
       id="linearGradient4666"
       xlink:href="#linearGradient4664" />
    <filter
       height="1.3116348"
       y="-0.15581739"
       width="1.2015702"
       x="-0.10078511"
       id="filter4676"
       style="color-interpolation-filters:sRGB">
      <feGaussianBlur
         id="feGaussianBlur4678"
         stdDeviation="2.6876033" />
    </filter>
  </defs>
  <metadata
     id="metadata2413">
    <rdf:RDF>
      <cc:Work
         rdf:about="">
        <dc:format>image/svg+xml</dc:format>
        <dc:type
           rdf:resource="http://purl.org/dc/dcmitype/StillImage" />
        <dc:title></dc:title>
      </cc:Work>
    </rdf:RDF>
  </metadata>
  <g
     style="display:none"
     id="layer2">
    <rect
       style="opacity:0.9;fill:url(#ButtonShadow);fill-opacity:1;fill-rule:nonzero;stroke:none;filter:url(#filter3174)"
       id="rect3745"
       y="7"
       x="5"
       ry="6"
       rx="6"
       height="85"
       width="86" />
  </g>
  <g
     style="display:inline"
     id="layer7">
    <path
       style="opacity:0.07999998;fill:url(#linearGradient3811);fill-opacity:1;fill-rule:nonzero;stroke:none;display:inline"
       id="path3786"
       transform="scale(1,-1)"
       d="m 12,-95.03125 c -5.5110903,0 -10.03125,4.52016 -10.03125,10.03125 l 0,71 c 0,5.5110902 4.5201598,10.03125 10.03125,10.03125 l 72,0 c 5.51109,0 10.03125,-4.5201597 10.03125,-10.03125 l 0,-71 c 0,-5.51109 -4.52016,-10.03125 -10.03125,-10.03125 l -72,0 z" />
    <path
       style="opacity:0.1;fill:url(#linearGradient3780);fill-opacity:1;fill-rule:nonzero;stroke:none;display:inline"
       id="path3778"
       transform="scale(1,-1)"
       d="m 12,-94.03125 c -4.971633,0 -9.03125,4.059617 -9.03125,9.03125 l 0,71 c 0,4.9716329 4.0596171,9.03125 9.03125,9.03125 l 72,0 c 4.971633,0 9.03125,-4.059617 9.03125,-9.03125 l 0,-71 c 0,-4.971633 -4.059617,-9.03125 -9.03125,-9.03125 l -72,0 z" />
    <path
       style="opacity:0.2;fill:url(#linearGradient3772);fill-opacity:1;fill-rule:nonzero;stroke:none;display:inline"
       id="path3770"
       transform="scale(1,-1)"
       d="m 12,-93 c -4.4091333,0 -8,3.590867 -8,8 l 0,71 c 0,4.4091333 3.5908667,8 8,8 l 72,0 c 4.409133,0 8,-3.5908667 8,-8 l 0,-71 c 0,-4.409133 -3.590867,-8 -8,-8 l -72,0 z" />
    <rect
       style="opacity:0.3;fill:url(#linearGradient3725);fill-opacity:1;fill-rule:nonzero;stroke:none;display:inline"
       id="rect3723"
       transform="scale(1,-1)"
       y="-92"
       x="5"
       ry="7"
       rx="7"
       height="85"
       width="86" />
    <rect
       style="opacity:0.45;fill:url(#linearGradient3721);fill-opacity:1;fill-rule:nonzero;stroke:none;display:inline"
       id="rect3716"
       transform="scale(1,-1)"
       y="-91"
       x="6"
       ry="6"
       rx="6"
       height="84"
       width="84" />
  </g>
  <g
     id="layer1">
    <rect
       style="fill:url(#linearGradient3617);fill-opacity:1;fill-rule:nonzero;stroke:none"
       id="rect2419"
       y="6"
       x="6"
       ry="6"
       rx="6"
       height="84"
       width="84" />
    <path
       id="path4631-3"
       d="m 24.716907,75.684984 c -3.73698,-1.394392 -5.96318,-3.70577 -7.43845,-7.723048 -0.65612,-1.786659 -0.75604,-3.686156 -0.88628,-16.849153 -0.16936,-17.11512 -0.3191,-16.376444 3.31983,-16.376444 1.13964,0 2.28955,0.217477 2.55535,0.483281 0.3584,0.358391 0.48328,4.316609 0.48328,15.316847 0,16.020405 0.0513,16.45405 2.17615,18.414046 0.84408,0.77857 1.61403,1.023107 3.62445,1.151124 3.38804,0.215733 5.14655,-0.600796 6.26364,-2.908396 0.75171,-1.552835 0.82388,-2.468448 0.83026,-10.534341 0.008,-10.63113 0.46096,-13.412388 2.70921,-16.65027 2.14729,-3.092494 4.86457,-4.549786 8.9171,-4.782286 3.68071,-0.211169 5.54534,0.242227 8.62646,2.09758 l 2.32198,1.398226 2.28824,-1.378416 c 7.18877,-4.330461 15.809054,-1.85149 18.698194,5.377119 0.8767,2.193472 0.91893,2.845955 1.05212,16.252481 0.1359,13.67922 0.12158,13.984448 -0.69447,14.800493 -0.96448,0.964477 -2.75066,1.085257 -3.87745,0.262188 -0.74095,-0.541231 -0.79227,-1.303329 -0.98312,-14.599125 -0.18867,-13.143468 -0.25274,-14.116975 -1.016054,-15.437657 -2.43867,-4.219406 -9.37561,-4.099305 -11.63081,0.201367 -0.79792,1.521638 -0.85591,2.387573 -1.04612,15.621138 -0.22209,15.452062 -0.0925,14.772983 -2.81914,14.772983 -2.72666,0 -2.59705,0.679179 -2.81914,-14.772931 -0.19518,-13.579571 -0.22934,-14.062613 -1.11147,-15.713574 -1.16495,-2.180279 -2.63441,-2.928125 -5.75356,-2.928125 -3.05979,0 -4.54587,0.802191 -5.62829,3.038181 -0.71903,1.485323 -0.7976,2.509513 -0.80391,10.479894 -0.008,10.631131 -0.46096,13.412388 -2.7092,16.650273 -1.02876,1.4816 -2.21528,2.571681 -3.70975,3.408254 -1.92305,1.076473 -2.65177,1.245053 -5.83965,1.350948 -2.35234,0.07814 -4.15846,-0.07156 -5.0994,-0.422657 z"
       style="fill:url(#linearGradient4666);fill-opacity:1;stroke-width:0.40273452;filter:url(#filter4676)" />
    <path
       id="path4631"
       d="m 25.079764,76.725273 c -3.73698,-1.394392 -5.96318,-3.70577 -7.43845,-7.723048 -0.65612,-1.786659 -0.75604,-3.686156 -0.88628,-16.849153 -0.16936,-17.11512 -0.02395,-16.26858 -0.02395,-16.26858 l 6.294626,0.01587 c 0,0 0.08778,4.676155 0.08778,15.676393 0,16.020405 0.0513,16.45405 2.17615,18.414046 0.84408,0.77857 1.61403,1.023107 3.62445,1.151124 3.38804,0.215733 5.14655,-0.600796 6.26364,-2.908396 0.75171,-1.552835 0.82388,-2.468448 0.83026,-10.534341 0.008,-10.63113 0.46096,-13.412388 2.70921,-16.65027 2.14729,-3.092494 4.86457,-4.549786 8.9171,-4.782286 3.68071,-0.211169 5.54534,0.242227 8.62646,2.09758 l 2.32198,1.398226 2.28824,-1.378416 c 7.18877,-4.330461 15.80905,-1.85149 18.69819,5.377119 0.8767,2.193472 0.91893,2.845955 1.05212,16.252481 0.1359,13.67922 0.06824,15.232696 0.06824,15.232696 l -5.402874,0.008 c 0,0 -0.02956,-1.481295 -0.220408,-14.777091 -0.18867,-13.143468 -0.25274,-14.116975 -1.01605,-15.437657 -2.43867,-4.219406 -9.37561,-4.099305 -11.63081,0.201367 -0.79792,1.521638 -0.85591,2.387573 -1.04612,15.621138 -0.22209,15.452062 -0.0925,14.772983 -2.81914,14.772983 -2.72666,0 -2.59705,0.679179 -2.81914,-14.772931 -0.19518,-13.579571 -0.22934,-14.062613 -1.11147,-15.713574 -1.16495,-2.180279 -2.63441,-2.928125 -5.75356,-2.928125 -3.05979,0 -4.54587,0.802191 -5.62829,3.038181 -0.71903,1.485323 -0.7976,2.509513 -0.80391,10.479894 -0.008,10.631131 -0.46096,13.412388 -2.7092,16.650273 -1.02876,1.4816 -2.21528,2.571681 -3.70975,3.408254 -1.92305,1.076473 -2.65177,1.245053 -5.83965,1.350948 -2.35234,0.07814 -4.15846,-0.07156 -5.0994,-0.422657 z"
       style="fill:#fefefe;fill-opacity:1;stroke-width:0.40273452" />
  </g>
  <g
     id="layer5">
    <path
       style="opacity:0.2;fill:url(#radialGradient3619);fill-opacity:1;fill-rule:nonzero;stroke:none"
       id="path3615"
       d="M 12,90 C 8.676,90 6,87.324 6,84 L 6,82 6,14 6,12 c 0,-0.334721 0.04135,-0.6507 0.09375,-0.96875 0.0487,-0.295596 0.09704,-0.596915 0.1875,-0.875 C 6.29113,10.12587 6.302142,10.09265 6.3125,10.0625 6.411365,9.774729 6.5473802,9.515048 6.6875,9.25 6.8320918,8.976493 7.0031161,8.714385 7.1875,8.46875 7.3718839,8.223115 7.5612765,7.995278 7.78125,7.78125 8.221197,7.353194 8.72416,6.966724 9.28125,6.6875 9.559795,6.547888 9.8547231,6.440553 10.15625,6.34375 9.9000482,6.443972 9.6695391,6.580022 9.4375,6.71875 c -0.00741,0.0044 -0.023866,-0.0045 -0.03125,0 -0.031933,0.0193 -0.062293,0.04251 -0.09375,0.0625 -0.120395,0.0767 -0.2310226,0.163513 -0.34375,0.25 -0.1061728,0.0808 -0.2132809,0.161112 -0.3125,0.25 C 8.4783201,7.442683 8.3087904,7.626638 8.15625,7.8125 8.0486711,7.942755 7.9378561,8.077785 7.84375,8.21875 7.818661,8.25713 7.805304,8.30462 7.78125,8.34375 7.716487,8.446782 7.6510225,8.548267 7.59375,8.65625 7.4927417,8.850956 7.3880752,9.071951 7.3125,9.28125 7.30454,9.30306 7.288911,9.3218 7.28125,9.34375 7.2494249,9.4357 7.2454455,9.530581 7.21875,9.625 7.1884177,9.731618 7.1483606,9.828031 7.125,9.9375 7.0521214,10.279012 7,10.635705 7,11 l 0,2 0,68 0,2 c 0,2.781848 2.2181517,5 5,5 l 2,0 68,0 2,0 c 2.781848,0 5,-2.218152 5,-5 l 0,-2 0,-68 0,-2 C 89,10.635705 88.94788,10.279012 88.875,9.9375 88.83085,9.730607 88.78662,9.539842 88.71875,9.34375 88.71105,9.3218 88.69545,9.30306 88.6875,9.28125 88.62476,9.107511 88.549117,8.913801 88.46875,8.75 88.42717,8.6672 88.38971,8.580046 88.34375,8.5 88.28915,8.40279 88.216976,8.31165 88.15625,8.21875 88.06214,8.077785 87.951329,7.942755 87.84375,7.8125 87.700576,7.63805 87.540609,7.465502 87.375,7.3125 87.36383,7.3023 87.35502,7.29135 87.34375,7.28125 87.205364,7.155694 87.058659,7.046814 86.90625,6.9375 86.803679,6.86435 86.701932,6.784136 86.59375,6.71875 c -0.0074,-0.0045 -0.02384,0.0044 -0.03125,0 -0.232039,-0.138728 -0.462548,-0.274778 -0.71875,-0.375 0.301527,0.0968 0.596455,0.204138 0.875,0.34375 0.55709,0.279224 1.060053,0.665694 1.5,1.09375 0.219973,0.214028 0.409366,0.441865 0.59375,0.6875 0.184384,0.245635 0.355408,0.507743 0.5,0.78125 0.14012,0.265048 0.276135,0.524729 0.375,0.8125 0.01041,0.03078 0.02133,0.06274 0.03125,0.09375 0.09046,0.278085 0.1388,0.579404 0.1875,0.875 C 89.95865,11.3493 90,11.665279 90,12 l 0,2 0,68 0,2 c 0,3.324 -2.676,6 -6,6 l -72,0 z" />
  </g>
  <g
     id="layer3">
    <path
       style="fill:#000000;fill-opacity:1;fill-rule:nonzero;stroke:none"
       id="rect4237"
       d="M 12,6 C 8.676,6 6,8.676 6,12 l 0,12 84,0 0,-12 C 90,8.676 87.324,6 84,6 L 12,6 z" />
    <rect
       style="opacity:0.8;fill:url(#linearGradient4262);fill-opacity:1;fill-rule:evenodd;stroke:none"
       id="rect3250"
       y="24"
       x="6"
       height="6"
       width="84" />
    <rect
       style="opacity:0.3;fill:url(#linearGradient4320);fill-opacity:1;fill-rule:evenodd;stroke:none"
       id="rect4289"
       y="15"
       x="6"
       height="5"
       width="84" />
    <g
       id="g4299"
       transform="translate(1,0)">
      <path
         style="fill:#f0f0f0;fill-opacity:1;fill-rule:evenodd;stroke:none"
         id="path4293"
         d="M 28.333333,6 23,15 28.333333,24 39,24 33.666667,15 39,6 28.333333,6 z" />
      <path
         style="fill:#f0f0f0;fill-opacity:1;fill-rule:evenodd;stroke:none"
         id="path4295"
         d="M 50.333333,6 45,15 50.333333,24 61,24 55.666667,15 61,6 50.333333,6 z" />
      <path
         style="fill:#f0f0f0;fill-opacity:1;fill-rule:evenodd;stroke:none"
         id="path4297"
         d="M 72.333333,6 67,15 72.333333,24 83,24 77.666667,15 83,6 72.333333,6 z" />
    </g>
    <rect
       style="opacity:0.7;fill:url(#linearGradient4310);fill-opacity:1;fill-rule:evenodd;stroke:none"
       id="rect4291"
       y="10"
       x="6"
       height="5"
       width="84" />
    <rect
       style="opacity:0.7;fill:url(#linearGradient4326);fill-opacity:1;fill-rule:evenodd;stroke:none"
       id="rect4324"
       y="19"
       x="6"
       height="5"
       width="84" />
    <path
       style="fill:url(#linearGradient4371);fill-opacity:1;fill-rule:evenodd;stroke:url(#linearGradient4373);stroke-width:1;stroke-linecap:butt;stroke-linejoin:round;stroke-miterlimit:4;stroke-opacity:1;stroke-dasharray:none;stroke-dashoffset:0"
       id="path4333"
       d="m 12.005391,10.5 c 1.109513,0 1.770155,0.983693 6.03003,4.302704 4.304387,3.353689 5.477493,3.726472 5.477493,5.074645 0,1.348423 -1.088205,1.622651 -2.439921,1.622651 l -8.133072,0 C 11.588205,21.5 10.5,20.414446 10.5,19.066023 l 0,-6.490605 C 10.5,11.226995 10.967611,10.5 12.005391,10.5 z" />
    <path
       style="fill:url(#radialGradient4379);fill-opacity:1;fill-rule:evenodd;stroke:none"
       id="path4335"
       transform="matrix(0.81330712,0,0,0.81132563,3.5868895,1.0746776)"
       d="m 12.75,14.9375 a 1.4375,1.4375 0 1 1 -2.875,0 1.4375,1.4375 0 1 1 2.875,0 z" />
    <path
       style="fill:url(#radialGradient4377);fill-opacity:1;fill-rule:evenodd;stroke:none"
       id="path4337"
       transform="matrix(0.81330712,0,0,0.81132563,3.5868895,7.09897)"
       d="m 12.75,14.9375 a 1.4375,1.4375 0 1 1 -2.875,0 1.4375,1.4375 0 1 1 2.875,0 z" />
    <path
       style="fill:url(#radialGradient4375);fill-opacity:1;fill-rule:evenodd;stroke:none"
       id="path4339"
       transform="matrix(0.81330712,0,0,0.81132563,11.618297,7.09897)"
       d="m 12.75,14.9375 a 1.4375,1.4375 0 1 1 -2.875,0 1.4375,1.4375 0 1 1 2.875,0 z" />
  </g>
  <g
     id="layer4">
    <path
       style="opacity:0.3;fill:url(#linearGradient3188);fill-opacity:1;fill-rule:nonzero;stroke:none"
       id="rect3728"
       d="M 12,6 C 8.676,6 6,8.676 6,12 l 0,2 0,68 0,2 c 0,0.334721 0.04135,0.6507 0.09375,0.96875 0.0487,0.295596 0.09704,0.596915 0.1875,0.875 0.00988,0.03038 0.020892,0.0636 0.03125,0.09375 0.098865,0.287771 0.2348802,0.547452 0.375,0.8125 0.1445918,0.273507 0.3156161,0.535615 0.5,0.78125 0.1843839,0.245635 0.3737765,0.473472 0.59375,0.6875 0.439947,0.428056 0.94291,0.814526 1.5,1.09375 0.278545,0.139612 0.5734731,0.246947 0.875,0.34375 -0.2562018,-0.100222 -0.4867109,-0.236272 -0.71875,-0.375 -0.00741,-0.0044 -0.023866,0.0045 -0.03125,0 -0.031933,-0.0193 -0.062293,-0.04251 -0.09375,-0.0625 -0.120395,-0.0767 -0.2310226,-0.163513 -0.34375,-0.25 -0.1061728,-0.0808 -0.2132809,-0.161112 -0.3125,-0.25 C 8.4783201,88.557317 8.3087904,88.373362 8.15625,88.1875 8.0486711,88.057245 7.9378561,87.922215 7.84375,87.78125 7.818661,87.74287 7.805304,87.69538 7.78125,87.65625 7.716487,87.553218 7.6510225,87.451733 7.59375,87.34375 7.4927417,87.149044 7.3880752,86.928049 7.3125,86.71875 7.30454,86.69694 7.288911,86.6782 7.28125,86.65625 7.2494249,86.5643 7.2454455,86.469419 7.21875,86.375 7.1884177,86.268382 7.1483606,86.171969 7.125,86.0625 7.0521214,85.720988 7,85.364295 7,85 L 7,83 7,15 7,13 C 7,10.218152 9.2181517,8 12,8 l 2,0 68,0 2,0 c 2.781848,0 5,2.218152 5,5 l 0,2 0,68 0,2 c 0,0.364295 -0.05212,0.720988 -0.125,1.0625 -0.04415,0.206893 -0.08838,0.397658 -0.15625,0.59375 -0.0077,0.02195 -0.0233,0.04069 -0.03125,0.0625 -0.06274,0.173739 -0.138383,0.367449 -0.21875,0.53125 -0.04158,0.0828 -0.07904,0.169954 -0.125,0.25 -0.0546,0.09721 -0.126774,0.18835 -0.1875,0.28125 -0.09411,0.140965 -0.204921,0.275995 -0.3125,0.40625 -0.143174,0.17445 -0.303141,0.346998 -0.46875,0.5 -0.01117,0.0102 -0.01998,0.02115 -0.03125,0.03125 -0.138386,0.125556 -0.285091,0.234436 -0.4375,0.34375 -0.102571,0.07315 -0.204318,0.153364 -0.3125,0.21875 -0.0074,0.0045 -0.02384,-0.0044 -0.03125,0 -0.232039,0.138728 -0.462548,0.274778 -0.71875,0.375 0.301527,-0.0968 0.596455,-0.204138 0.875,-0.34375 0.55709,-0.279224 1.060053,-0.665694 1.5,-1.09375 0.219973,-0.214028 0.409366,-0.441865 0.59375,-0.6875 0.184384,-0.245635 0.355408,-0.507743 0.5,-0.78125 0.14012,-0.265048 0.276135,-0.524729 0.375,-0.8125 0.01041,-0.03078 0.02133,-0.06274 0.03125,-0.09375 0.09046,-0.278085 0.1388,-0.579404 0.1875,-0.875 C 89.95865,84.6507 90,84.334721 90,84 l 0,-2 0,-68 0,-2 C 90,8.676 87.324,6 84,6 L 12,6 z" />
  </g>
</svg>
