<?xml version="1.0" encoding="UTF-8" standalone="no"?>
<svg
   xmlns:dc="http://purl.org/dc/elements/1.1/"
   xmlns:cc="http://creativecommons.org/ns#"
   xmlns:rdf="http://www.w3.org/1999/02/22-rdf-syntax-ns#"
   xmlns:svg="http://www.w3.org/2000/svg"
   xmlns="http://www.w3.org/2000/svg"
   xmlns:xlink="http://www.w3.org/1999/xlink"
   id="svg2408"
   height="96"
   width="96"
   version="1.0">
  <defs
     id="defs2410">
    <linearGradient
       id="linearGradient4240">
      <stop
         id="stop4242"
         offset="0"
         style="stop-color:#1a2f48;stop-opacity:1" />
      <stop
         id="stop4244"
         offset="1"
         style="stop-color:#996300;stop-opacity:1" />
    </linearGradient>
    <linearGradient
       id="linearGradient3865">
      <stop
         offset="0"
         style="stop-color:#a9d5f6;stop-opacity:1"
         id="stop3867" />
      <stop
         offset="1"
         style="stop-color:#a9d5f6;stop-opacity:0"
         id="stop3869" />
    </linearGradient>
    <linearGradient
       id="linearGradient4314">
      <stop
         offset="0"
         style="stop-color:#fefefe;stop-opacity:1"
         id="stop4316" />
      <stop
         offset="0.30000001"
         style="stop-color:#fefefe;stop-opacity:0.49803922"
         id="stop4322" />
      <stop
         offset="1"
         style="stop-color:#fefefe;stop-opacity:0"
         id="stop4318" />
    </linearGradient>
    <linearGradient
       gradientTransform="scale(1.0058652,0.994169)"
       gradientUnits="userSpaceOnUse"
       id="ButtonShadow"
       y2="7.0165396"
       x2="45.447727"
       y1="92.539597"
       x1="45.447727">
      <stop
         offset="0"
         style="stop-color:#000000;stop-opacity:1"
         id="stop3750" />
      <stop
         offset="1"
         style="stop-color:#000000;stop-opacity:0.58823532"
         id="stop3752" />
    </linearGradient>
    <linearGradient
       id="linearGradient3737">
      <stop
         offset="0"
         style="stop-color:#fefefe;stop-opacity:1"
         id="stop3739" />
      <stop
         offset="1"
         style="stop-color:#fefefe;stop-opacity:0"
         id="stop3741" />
    </linearGradient>
    <filter
       id="filter3174"
       color-interpolation-filters="sRGB">
      <feGaussianBlur
         stdDeviation="1.71"
         id="feGaussianBlur3176" />
    </filter>
    <linearGradient
       gradientUnits="userSpaceOnUse"
       xlink:href="#linearGradient3737"
       id="linearGradient3188"
       y2="63.893143"
       x2="36.357143"
       y1="6"
       x1="36.357143" />
    <filter
       id="filter3794"
       color-interpolation-filters="sRGB"
       height="1.3839999"
       width="1.3839999"
       y="-0.192"
       x="-0.192">
      <feGaussianBlur
         stdDeviation="5.28"
         id="feGaussianBlur3796" />
    </filter>
    <linearGradient
       gradientUnits="userSpaceOnUse"
       xlink:href="#linearGradient3737"
       id="linearGradient3613"
       y2="138.66119"
       x2="48"
       y1="20.220806"
       x1="48" />
    <radialGradient
       gradientTransform="matrix(1.1573129,0,0,0.99590774,-7.5510206,0.19713193)"
       gradientUnits="userSpaceOnUse"
       xlink:href="#linearGradient3737"
       id="radialGradient3619"
       fy="90.171875"
       fx="48"
       r="42"
       cy="90.171875"
       cx="48" />
    <clipPath
       id="clipPath3613">
      <rect
         style="fill:#fefefe;fill-opacity:1;fill-rule:nonzero;stroke:none"
         id="rect3615"
         y="6"
         x="6"
         ry="6"
         rx="6"
         height="84"
         width="84" />
    </clipPath>
    <linearGradient
       gradientUnits="userSpaceOnUse"
       xlink:href="#linearGradient3187"
       id="linearGradient3617"
       y2="5.9877172"
       x2="48"
       y1="90"
       x1="48" />
    <linearGradient
       id="linearGradient3187">
      <stop
         offset="0"
         style="stop-color:#282828;stop-opacity:1"
         id="stop3189" />
      <stop
         offset="1"
         style="stop-color:#5a5a5a;stop-opacity:1"
         id="stop3191" />
    </linearGradient>
    <linearGradient
       id="linearGradient3299">
      <stop
         offset="0"
         style="stop-color:#dfdfdf;stop-opacity:1"
         id="stop3301" />
      <stop
         offset="1"
         style="stop-color:#434343;stop-opacity:1"
         id="stop3303" />
    </linearGradient>
    <linearGradient
       id="linearGradient3273">
      <stop
         offset="0"
         style="stop-color:#5d5d5d;stop-opacity:1"
         id="stop3275" />
      <stop
         offset="1"
         style="stop-color:#171717;stop-opacity:1"
         id="stop3277" />
    </linearGradient>
    <linearGradient
       id="linearGradient3289">
      <stop
         offset="0"
         style="stop-color:#919191;stop-opacity:1"
         id="stop3291" />
      <stop
         offset="1"
         style="stop-color:#232323;stop-opacity:1"
         id="stop3293" />
    </linearGradient>
    <linearGradient
       gradientUnits="userSpaceOnUse"
       id="linearGradient3260">
      <stop
         offset="0"
         style="stop-color:#000000;stop-opacity:1"
         id="stop3262" />
      <stop
         offset="0.2"
         style="stop-color:#000000;stop-opacity:0.3548387"
         id="stop3266" />
      <stop
         offset="0.55254942"
         style="stop-color:#000000;stop-opacity:0"
         id="stop3268" />
      <stop
         offset="1"
         style="stop-color:#000000;stop-opacity:0"
         id="stop3264" />
    </linearGradient>
    <linearGradient
       gradientTransform="matrix(0.72413795,0,0,0.75,1.6551725,4.5)"
       gradientUnits="userSpaceOnUse"
       xlink:href="#linearGradient3260"
       id="linearGradient4262"
       y2="34.001266"
       x2="43.476658"
       y1="26"
       x1="43.476658" />
    <linearGradient
       gradientTransform="matrix(1,0,0,1.25,0,-4.5982122)"
       gradientUnits="userSpaceOnUse"
       xlink:href="#linearGradient3260"
       id="linearGradient4310"
       y2="11.924657"
       x2="48"
       y1="16"
       x1="48" />
    <linearGradient
       gradientTransform="translate(0,-0.67856979)"
       gradientUnits="userSpaceOnUse"
       xlink:href="#linearGradient4314"
       id="linearGradient4320"
       y2="20.329885"
       x2="50.464287"
       y1="16.035713"
       x1="50.464287" />
    <linearGradient
       gradientTransform="matrix(1,0,0,1.25,0,4.4017878)"
       gradientUnits="userSpaceOnUse"
       xlink:href="#linearGradient3260"
       id="linearGradient4326"
       y2="11.924657"
       x2="48"
       y1="16"
       x1="48" />
    <linearGradient
       gradientTransform="matrix(0.81330712,0,0,0.81132563,3.9935431,2.0281849)"
       gradientUnits="userSpaceOnUse"
       xlink:href="#linearGradient3273"
       id="linearGradient4371"
       y2="24"
       x2="16"
       y1="10.441942"
       x1="11" />
    <linearGradient
       gradientTransform="matrix(0.81330712,0,0,0.81132563,3.9935431,2.0281849)"
       gradientUnits="userSpaceOnUse"
       xlink:href="#linearGradient3289"
       id="linearGradient4373"
       y2="24.5"
       x2="19.25"
       y1="9.9419422"
       x1="13.125" />
    <radialGradient
       gradientUnits="userSpaceOnUse"
       xlink:href="#linearGradient3299"
       id="radialGradient4375"
       fy="14.9375"
       fx="11.3125"
       r="1.4375"
       cy="14.9375"
       cx="11.3125" />
    <radialGradient
       gradientUnits="userSpaceOnUse"
       xlink:href="#linearGradient3299"
       id="radialGradient4377"
       fy="14.9375"
       fx="11.3125"
       r="1.4375"
       cy="14.9375"
       cx="11.3125" />
    <radialGradient
       gradientUnits="userSpaceOnUse"
       xlink:href="#linearGradient3299"
       id="radialGradient4379"
       fy="14.9375"
       fx="11.3125"
       r="1.4375"
       cy="14.9375"
       cx="11.3125" />
    <linearGradient
       id="linearGradient3224">
      <stop
         offset="0"
         style="stop-color:#44b0ff;stop-opacity:1"
         id="stop3226" />
      <stop
         offset="1"
         style="stop-color:#0a3859;stop-opacity:1"
         id="stop3228" />
    </linearGradient>
    <radialGradient
       gradientTransform="matrix(1.4018647,1.2754473e-8,-1.1111112e-8,1.2212402,-19.289505,-25.867403)"
       gradientUnits="userSpaceOnUse"
       xlink:href="#linearGradient3224"
       id="radialGradient3792"
       fy="85.131531"
       fx="48"
       r="36"
       cy="85.131531"
       cx="48" />
    <linearGradient
       gradientUnits="userSpaceOnUse"
       xlink:href="#linearGradient3865"
       id="linearGradient3871"
       y2="69.410355"
       x2="31.642857"
       y1="25.779018"
       x1="31.642857" />
    <linearGradient
       gradientTransform="matrix(1.0058652,0,0,0.994169,100,0)"
       gradientUnits="userSpaceOnUse"
       id="ButtonShadow-0"
       y2="7.0165396"
       x2="45.447727"
       y1="92.539597"
       x1="45.447727">
      <stop
         offset="0"
         style="stop-color:#000000;stop-opacity:1"
         id="stop3750-8" />
      <stop
         offset="1"
         style="stop-color:#000000;stop-opacity:0.58823532"
         id="stop3752-5" />
    </linearGradient>
    <linearGradient
       gradientTransform="matrix(1.0238095,0,0,1.0119048,-1.1428571,-98.071429)"
       gradientUnits="userSpaceOnUse"
       xlink:href="#ButtonShadow-0"
       id="linearGradient3780"
       y2="90.238609"
       x2="32.251034"
       y1="6.1317081"
       x1="32.251034" />
    <linearGradient
       gradientTransform="matrix(1.0238095,0,0,1.0119048,-1.1428571,-98.071429)"
       gradientUnits="userSpaceOnUse"
       xlink:href="#ButtonShadow-0"
       id="linearGradient3772"
       y2="90.238609"
       x2="32.251034"
       y1="6.1317081"
       x1="32.251034" />
    <linearGradient
       gradientTransform="matrix(1.0238095,0,0,1.0119048,-1.1428571,-98.071429)"
       gradientUnits="userSpaceOnUse"
       xlink:href="#ButtonShadow-0"
       id="linearGradient3725"
       y2="90.238609"
       x2="32.251034"
       y1="6.1317081"
       x1="32.251034" />
    <linearGradient
       gradientTransform="translate(0,-97)"
       gradientUnits="userSpaceOnUse"
       xlink:href="#ButtonShadow-0"
       id="linearGradient3721"
       y2="90.238609"
       x2="32.251034"
       y1="6.1317081"
       x1="32.251034" />
    <linearGradient
       gradientTransform="matrix(1.0238095,0,0,1.0119048,-1.1428571,-98.071429)"
       gradientUnits="userSpaceOnUse"
       xlink:href="#ButtonShadow-0"
       id="linearGradient3071"
       y2="90.238609"
       x2="32.251034"
       y1="6.1317081"
       x1="32.251034" />
    <linearGradient
       gradientUnits="userSpaceOnUse"
       y2="56.352936"
       x2="77.023825"
       y1="56.352936"
       x1="19.933981"
       id="linearGradient4246"
       xlink:href="#linearGradient4240" />
    <radialGradient
       gradientUnits="userSpaceOnUse"
       xlink:href="#linearGradient3737"
       id="radialGradient4037"
       fy="55.9258"
       fx="47.988014"
       r="30.644978"
       cy="55.9258"
       cx="47.988014" />
    <linearGradient
       gradientUnits="userSpaceOnUse"
       xlink:href="#linearGradient4015"
       id="linearGradient4164"
       y2="4.9502482"
       x2="8.9718256"
       y1="15.022491"
       x1="8.9718256" />
    <linearGradient
       id="linearGradient4015">
      <stop
         offset="0"
         style="stop-color:#a3a3a3;stop-opacity:1"
         id="stop4017" />
      <stop
         offset="0.32695314"
         style="stop-color:#c7c7c7;stop-opacity:1"
         id="stop4166" />
      <stop
         offset="0.67500001"
         style="stop-color:#dedede;stop-opacity:1"
         id="stop4168" />
      <stop
         offset="1"
         style="stop-color:#f5f5f5;stop-opacity:1"
         id="stop4019" />
    </linearGradient>
    <linearGradient
       gradientUnits="userSpaceOnUse"
       xlink:href="#linearGradient4156"
       id="linearGradient4162"
       y2="75.759666"
       x2="46.097668"
       y1="52.770008"
       x1="42.628178" />
    <linearGradient
       id="linearGradient4156">
      <stop
         offset="0"
         style="stop-color:#fefefe;stop-opacity:1"
         id="stop4158" />
      <stop
         offset="1"
         style="stop-color:#545454;stop-opacity:1"
         id="stop4160" />
    </linearGradient>
    <linearGradient
       gradientUnits="userSpaceOnUse"
       xlink:href="#linearGradient4230"
       id="linearGradient4236"
       y2="62.337585"
       x2="42.985443"
       y1="52.656303"
       x1="42.985443" />
    <linearGradient
       id="linearGradient4230">
      <stop
         offset="0"
         style="stop-color:#000000;stop-opacity:1"
         id="stop4232" />
      <stop
         offset="1"
         style="stop-color:#000000;stop-opacity:0"
         id="stop4234" />
    </linearGradient>
    <linearGradient
       y2="4.9502482"
       x2="8.9718256"
       y1="15.022491"
       x1="8.9718256"
       gradientUnits="userSpaceOnUse"
       id="linearGradient1017"
       xlink:href="#linearGradient4015" />
    <linearGradient
       y2="4.9502482"
       x2="8.9718256"
       y1="15.022491"
       x1="8.9718256"
       gradientUnits="userSpaceOnUse"
       id="linearGradient1019"
       xlink:href="#linearGradient4015" />
    <linearGradient
       y2="4.9502482"
       x2="8.9718256"
       y1="15.022491"
       x1="8.9718256"
       gradientUnits="userSpaceOnUse"
       id="linearGradient1021"
       xlink:href="#linearGradient4015" />
    <linearGradient
       y2="4.9502482"
       x2="8.9718256"
       y1="15.022491"
       x1="8.9718256"
       gradientUnits="userSpaceOnUse"
       id="linearGradient1023"
       xlink:href="#linearGradient4015" />
    <linearGradient
       y2="4.9502482"
       x2="8.9718256"
       y1="15.022491"
       x1="8.9718256"
       gradientUnits="userSpaceOnUse"
       id="linearGradient1025"
       xlink:href="#linearGradient4015" />
    <linearGradient
       y2="4.9502482"
       x2="8.9718256"
       y1="15.022491"
       x1="8.9718256"
       gradientUnits="userSpaceOnUse"
       id="linearGradient1027"
       xlink:href="#linearGradient4015" />
  </defs>
  <metadata
     id="metadata2413">
    <rdf:RDF>
      <cc:Work
         rdf:about="">
        <dc:format>image/svg+xml</dc:format>
        <dc:type
           rdf:resource="http://purl.org/dc/dcmitype/StillImage" />
        <dc:title></dc:title>
      </cc:Work>
    </rdf:RDF>
  </metadata>
  <g
     style="display:none"
     id="layer2">
    <rect
       style="opacity:0.9;fill:url(#ButtonShadow);fill-opacity:1;fill-rule:nonzero;stroke:none;filter:url(#filter3174)"
       id="rect3745"
       y="7"
       x="5"
       ry="6"
       rx="6"
       height="85"
       width="86" />
  </g>
  <g
     style="display:inline"
     id="layer7">
    <path
       style="opacity:0.07999998;fill:url(#linearGradient3071);fill-opacity:1;fill-rule:nonzero;stroke:none;display:inline"
       id="path3786"
       transform="scale(1,-1)"
       d="m 12,-95.03125 c -5.5110903,0 -10.03125,4.52016 -10.03125,10.03125 l 0,71 c 0,5.5110902 4.5201598,10.03125 10.03125,10.03125 l 72,0 c 5.51109,0 10.03125,-4.5201597 10.03125,-10.03125 l 0,-71 c 0,-5.51109 -4.52016,-10.03125 -10.03125,-10.03125 l -72,0 z" />
    <path
       style="opacity:0.1;fill:url(#linearGradient3780);fill-opacity:1;fill-rule:nonzero;stroke:none;display:inline"
       id="path3778-0"
       transform="scale(1,-1)"
       d="m 12,-94.03125 c -4.971633,0 -9.03125,4.059617 -9.03125,9.03125 l 0,71 c 0,4.9716329 4.0596171,9.03125 9.03125,9.03125 l 72,0 c 4.971633,0 9.03125,-4.059617 9.03125,-9.03125 l 0,-71 c 0,-4.971633 -4.059617,-9.03125 -9.03125,-9.03125 l -72,0 z" />
    <path
       style="opacity:0.2;fill:url(#linearGradient3772);fill-opacity:1;fill-rule:nonzero;stroke:none;display:inline"
       id="path3770"
       transform="scale(1,-1)"
       d="m 12,-93 c -4.4091333,0 -8,3.590867 -8,8 l 0,71 c 0,4.4091333 3.5908667,8 8,8 l 72,0 c 4.409133,0 8,-3.5908667 8,-8 l 0,-71 c 0,-4.409133 -3.590867,-8 -8,-8 l -72,0 z" />
    <rect
       style="opacity:0.3;fill:url(#linearGradient3725);fill-opacity:1;fill-rule:nonzero;stroke:none;display:inline"
       id="rect3723"
       transform="scale(1,-1)"
       y="-92"
       x="5"
       ry="7"
       rx="7"
       height="85"
       width="86" />
    <rect
       style="opacity:0.45;fill:url(#linearGradient3721);fill-opacity:1;fill-rule:nonzero;stroke:none;display:inline"
       id="rect3716"
       transform="scale(1,-1)"
       y="-91"
       x="6"
       ry="6"
       rx="6"
       height="84"
       width="84" />
  </g>
  <g
     id="layer1">
    <rect
       style="fill:url(#linearGradient3617);fill-opacity:1;fill-rule:nonzero;stroke:none"
       id="rect2419"
       y="6"
       x="6"
       ry="6"
       rx="6"
       height="84"
       width="84" />
    <path
       style="fill:url(#radialGradient3792);fill-opacity:1;stroke:none"
       id="rect2980"
       d="m 12,30 0,4 0,36 0,10 c 0,2.216 1.784,4 4,4 l 64,0 c 2.216,0 4,-1.784 4,-4 l 0,-10 0,-36 0,-4 -4,0 -64,0 -4,0 z" />
    <path
       style="opacity:0.7;fill:url(#linearGradient3871);fill-opacity:1;stroke:none"
       id="path3858"
       d="m 12,30 0,4 0,31.84375 C 27.836766,55.890561 54.040184,49.184828 84,48.5625 L 84,34 l 0,-4 -4,0 -64,0 -4,0 z" />
    <path
       style="opacity:0.07999998;fill:#000000;fill-opacity:1;stroke:none"
       id="path3828"
       d="m 12,30 0,4 0,36 0,10 c 0,2.216 1.784,4 4,4 l 64,0 c 2.216,0 4,-1.784 4,-4 l 0,-10 0,-36 0,-4 -4,0 -64,0 -4,0 z m 3.09375,3.09375 0.90625,0 64,0 0.90625,0 0,0.90625 0,36 0,10 c 0,0.550784 -0.355466,0.90625 -0.90625,0.90625 l -64,0 c -0.550784,0 -0.90625,-0.355466 -0.90625,-0.90625 l 0,-10 0,-36 0,-0.90625 z" />
    <path
       style="opacity:0.3;fill:#fefefe;fill-opacity:1;stroke:none"
       id="path3809"
       d="m 12,80 0,1 c 0,2.216 1.784,4 4,4 l 64,0 c 2.216,0 4,-1.784 4,-4 l 0,-1 c 0,2.216 -1.784,4 -4,4 l -64,0 c -2.216,0 -4,-1.784 -4,-4 z" />
    <path
       style="opacity:0.2;fill:#000000;fill-opacity:1;stroke:none"
       id="path3831"
       d="m 12,30 0,4 0,36 0,10 c 0,2.216 1.784,4 4,4 l 64,0 c 2.216,0 4,-1.784 4,-4 l 0,-10 0,-36 0,-4 -4,0 -64,0 -4,0 z m 2.03125,2.03125 1.96875,0 64,0 1.96875,0 0,1.96875 0,36 0,10 c 0,1.118634 -0.850116,1.96875 -1.96875,1.96875 l -64,0 c -1.118634,0 -1.96875,-0.850116 -1.96875,-1.96875 l 0,-10 0,-36 0,-1.96875 z" />
    <path
       style="fill:#0e3857;fill-opacity:1;stroke:none"
       id="path3818"
       d="m 12,30 0,4 0,36 0,10 c 0,2.216 1.784,4 4,4 l 64,0 c 2.216,0 4,-1.784 4,-4 l 0,-10 0,-36 0,-4 -4,0 -64,0 -4,0 z m 1.0625,1.0625 2.9375,0 64,0 2.9375,0 0,2.9375 0,36 0,10 c 0,1.640961 -1.296539,2.9375 -2.9375,2.9375 l -64,0 c -1.640961,0 -2.9375,-1.296539 -2.9375,-2.9375 l 0,-10 0,-36 0,-2.9375 z" />
    <g
       style="display:inline"
       id="layer6-3"
       transform="matrix(0.83333332,0,0,0.83333332,6.285392,10.099888)">
      <path
         style="color:#000000;display:inline;overflow:visible;visibility:visible;opacity:0.05;fill:#000000;fill-opacity:1;fill-rule:nonzero;stroke:none;stroke-width:0.60600001;marker:none;enable-background:accumulate"
         id="path4186"
         d="m 32.09375,32.03125 c -0.152104,-0.011 -0.341451,-0.0247 -0.59375,0.03125 -0.126149,0.02797 -0.270301,0.05727 -0.4375,0.1875 -0.05993,0.04668 -0.07301,0.151007 -0.125,0.21875 -0.345234,0.140185 -0.73198,0.229986 -0.9375,0.46875 -0.323374,0.375682 -0.522208,0.760084 -0.6875,1.09375 a 0.85683777,0.85683777 0 0 0 -0.0625,0.375 v 44.5 0.03125 c -0.04588,1.311193 0.679557,2.350606 1.6875,2.78125 V 81.75 c 0.0075,0.0031 0.02375,-0.0031 0.03125,0 0.479339,0.21182 0.97609,0.286892 1.46875,0.21875 0.413914,-0.05725 0.80566,-0.296869 1.15625,-0.59375 L 33.625,81.40625 33.84375,81.25 69.40625,59.5625 a 0.85683777,0.85683777 0 0 0 0.0625,-0.03125 c 0.667943,-0.467853 1.283543,-1.249379 1.34375,-2.34375 6.05e-4,-0.011 -4.88e-4,-0.02019 0,-0.03125 0.08764,-1.17157 -0.498972,-2.066612 -1.15625,-2.53125 a 0.85683777,0.85683777 0 0 0 -0.0625,-0.03125 C 58.023395,47.437241 46.399001,40.370787 34.8125,33.25 a 0.85683777,0.85683777 0 0 0 0,-0.03125 C 34.176737,32.840021 33.721675,32.548023 33.15625,32.1875 a 0.85683777,0.85683777 0 0 0 -0.6875,-0.09375 C 32.60684,32.05467 32.5228,32.06862 32.4375,32.0625 32.3522,32.0564 32.245854,32.04225 32.09375,32.03125 Z" />
      <path
         style="color:#000000;display:inline;overflow:visible;visibility:visible;opacity:0.07999998;fill:#000000;fill-opacity:1;fill-rule:nonzero;stroke:none;stroke-width:0.60600001;marker:none;enable-background:accumulate"
         id="path4180"
         d="m 32.681093,32.902284 c 0.556845,0.355053 1.040953,0.663626 1.695478,1.053532 11.588866,7.122241 23.213361,14.193357 34.779965,21.347546 0.481487,0.340369 0.903045,0.931586 0.8255,1.832783 -0.039,0.882984 -0.417882,1.286349 -1.005698,1.698078 -11.926916,7.285019 -23.853832,14.570039 -35.780749,21.855058 -0.393795,0.4575 -1.311713,0.554714 -1.929359,0.27229 -0.618617,-0.251714 -1.200524,-1.0757 -1.157615,-2.034755 0,-14.842294 0,-29.684712 0,-44.526934 0.336957,-0.680197 0.608455,-1.303387 1.414863,-1.361453 0.06635,-0.307603 0.862715,-0.05269 1.157615,-0.136145 z" />
      <path
         style="color:#000000;display:inline;overflow:visible;visibility:visible;opacity:0.12000002;fill:#000000;fill-opacity:1;fill-rule:nonzero;stroke:none;stroke-width:0.60600001;marker:none;enable-background:accumulate"
         id="path4176"
         transform="matrix(-4.1159661,0,0,4.3566493,76.927729,13.433507)"
         d="M 10.84375,4.71875 A 0.22121677,0.22121677 0 0 0 10.78125,4.75 l -8.75,5.0625 A 0.22121677,0.22121677 0 0 0 2,9.84375 0.22121677,0.22121677 0 0 0 1.96875,9.875 0.22121677,0.22121677 0 0 0 1.9375,9.9375 a 0.22121677,0.22121677 0 0 0 0,0.0625 0.22121677,0.22121677 0 0 0 0,0.0625 A 0.22121677,0.22121677 0 0 0 1.96875,10.125 0.22121677,0.22121677 0 0 0 2,10.15625 0.22121677,0.22121677 0 0 0 2.03125,10.1875 l 8.75,5.0625 a 0.22121677,0.22121677 0 0 0 0.0625,0.03125 0.22121677,0.22121677 0 0 0 0.09375,0 0.22121677,0.22121677 0 0 0 0.09375,-0.03125 0.22121677,0.22121677 0 0 0 0.03125,-0.03125 0.22121677,0.22121677 0 0 0 0.0625,-0.125 0.22121677,0.22121677 0 0 0 0,-0.03125 V 4.9375 a 0.22121677,0.22121677 0 0 0 0,-0.03125 0.22121677,0.22121677 0 0 0 -0.0625,-0.125 0.22121677,0.22121677 0 0 0 -0.03125,-0.03125 0.22121677,0.22121677 0 0 0 -0.125,-0.03125 0.22121677,0.22121677 0 0 0 -0.0625,0 z" />
      <path
         style="color:#000000;display:inline;overflow:visible;visibility:visible;opacity:0.3;fill:#000000;fill-opacity:1;fill-rule:nonzero;stroke:none;stroke-width:0.60600001;marker:none;enable-background:accumulate"
         id="path4170"
         transform="matrix(-4.1159661,0,0,4.3566493,76.927729,13.433507)"
         d="M 10.915476,15.049752 2.1690483,9.9999997 10.915476,4.9502478 Z" />
      <path
         style="color:#000000;display:inline;overflow:visible;visibility:visible;opacity:0.2;fill:url(#radialGradient4037);fill-opacity:1;fill-rule:nonzero;stroke:none;stroke-width:0.60600001;marker:none;enable-background:accumulate"
         id="path4029"
         d="m 78.632992,55.9258 a 30.644978,30.644978 0 1 1 -61.289955,0 30.644978,30.644978 0 1 1 61.289955,0 z" />
      <path
         style="color:#000000;display:inline;overflow:visible;visibility:visible;fill:url(#linearGradient1017);fill-opacity:1;fill-rule:nonzero;stroke:none;stroke-width:0.60600001;marker:none;enable-background:accumulate"
         id="path4013"
         transform="matrix(-4.1159661,0,0,4.3566493,76.927729,12.433507)"
         d="M 10.915476,15.049752 2.1690483,9.9999997 10.915476,4.9502478 Z" />
      <path
         style="color:#000000;display:inline;overflow:visible;visibility:visible;opacity:0.6;fill:url(#linearGradient4162);fill-opacity:1;fill-rule:nonzero;stroke:none;stroke-width:0.60600001;marker:none;enable-background:accumulate"
         id="path4143"
         d="M 32,34 V 78 L 68,56 Z M 32.9375,35.59375 66.25,56 32.9375,76.40625 Z" />
      <path
         style="color:#000000;display:inline;overflow:visible;visibility:visible;opacity:0.3;fill:url(#linearGradient1019);fill-opacity:1;fill-rule:nonzero;stroke:none;stroke-width:0.60600001;marker:none;enable-background:accumulate"
         id="path4188"
         transform="matrix(-2.2866478,0,0,2.4203606,46.959849,31.796394)"
         d="M 10.915476,15.049752 2.1690483,9.9999997 10.915476,4.9502478 Z" />
      <path
         style="color:#000000;display:inline;overflow:visible;visibility:visible;opacity:0.15;fill:url(#linearGradient1021);fill-opacity:1;fill-rule:nonzero;stroke:none;stroke-width:0.60600001;marker:none;enable-background:accumulate"
         id="path4192"
         transform="matrix(-1.6006535,0,0,1.6942524,31.471894,39.057476)"
         d="M 10.915476,15.049752 2.1690483,9.9999997 10.915476,4.9502478 Z" />
      <path
         style="color:#000000;display:inline;overflow:visible;visibility:visible;opacity:0.07000002;fill:url(#linearGradient1023);fill-opacity:1;fill-rule:nonzero;stroke:none;stroke-width:0.60600001;marker:none;enable-background:accumulate"
         id="path4196"
         transform="matrix(-0.91465913,0,0,0.96814421,17.983939,46.318558)"
         d="M 10.915476,15.049752 2.1690483,9.9999997 10.915476,4.9502478 Z" />
      <path
         style="color:#000000;display:inline;overflow:visible;visibility:visible;opacity:0.2;fill:url(#linearGradient1025);fill-opacity:1;fill-rule:nonzero;stroke:none;stroke-width:0.60600001;marker:none;enable-background:accumulate"
         id="path4200"
         transform="matrix(-2.2866478,0,0,2.4203606,82.959849,31.796394)"
         d="M 10.915476,15.049752 2.1690483,9.9999997 10.915476,4.9502478 Z" />
      <path
         style="color:#000000;display:inline;overflow:visible;visibility:visible;opacity:0.1;fill:url(#linearGradient1027);fill-opacity:1;fill-rule:nonzero;stroke:none;stroke-width:0.60600001;marker:none;enable-background:accumulate"
         id="path4202"
         transform="matrix(-1.6006535,0,0,1.6942524,89.471895,39.057476)"
         d="M 10.915476,15.049752 2.1690483,9.9999997 10.915476,4.9502478 Z" />
      <path
         style="color:#000000;display:inline;overflow:visible;visibility:visible;opacity:0.05;fill:url(#linearGradient4164);fill-opacity:1;fill-rule:nonzero;stroke:none;stroke-width:0.60600001;marker:none;enable-background:accumulate"
         id="path4204"
         transform="matrix(-0.91465913,0,0,0.96814421,93.98394,46.318558)"
         d="M 10.915476,15.049752 2.1690483,9.9999997 10.915476,4.9502478 Z" />
      <path
         style="font-style:normal;font-variant:normal;font-weight:normal;font-stretch:normal;font-size:5.71428585px;line-height:125%;font-family:Ubuntu;-inkscape-font-specification:Ubuntu;text-align:start;letter-spacing:0px;word-spacing:0px;writing-mode:lr-tb;text-anchor:start;opacity:0.6;fill:url(#linearGradient4236);fill-opacity:1;stroke:none"
         id="path4217"
         d="m 41.0625,54 c -0.160002,1e-5 -0.336966,0.01602 -0.53125,0.03125 C 40.340773,54.04269 40.15619,54.05566 40,54.09375 V 58 h 0.5625 V 56.53125 H 41 c 0.278093,0 0.529046,-0.01678 0.75,-0.0625 0.22095,-0.04571 0.410117,-0.1197 0.5625,-0.21875 0.156188,-0.102855 0.26375,-0.246248 0.34375,-0.40625 0.0838,-0.163808 0.124997,-0.365176 0.125,-0.59375 -3e-6,-0.419044 -0.136551,-0.727973 -0.4375,-0.9375 C 42.046604,54.09917 41.618688,54.000004 41.0625,54 Z M 43.5,54.03125 V 58 h 2.375 v -0.46875 h -1.8125 v -3.5 z m 4.28125,0 c -0.137144,0.285718 -0.249287,0.58167 -0.375,0.875 C 47.280534,55.195777 47.129522,55.492503 47,55.8125 46.874284,56.132502 46.758333,56.485656 46.625,56.84375 46.491666,57.198037 46.33988,57.580953 46.1875,58 h 0.59375 L 47.125,57 h 1.8125 c 0.06095,0.17143 0.0991,0.332381 0.15625,0.5 0.05714,0.16381 0.12273,0.328572 0.1875,0.5 h 0.625 c -0.152385,-0.419047 -0.30417,-0.801963 -0.4375,-1.15625 -0.133336,-0.358094 -0.276729,-0.711248 -0.40625,-1.03125 -0.125717,-0.319997 -0.249289,-0.616723 -0.375,-0.90625 -0.125717,-0.29333 -0.23786,-0.589282 -0.375,-0.875 z m 1.78125,0 c 0.205714,0.380956 0.423868,0.791313 0.65625,1.1875 0.23238,0.396193 0.487142,0.779882 0.75,1.1875 V 58 H 51.5 v -1.59375 c 0.259045,-0.403808 0.517616,-0.795116 0.75,-1.1875 0.232378,-0.396187 0.450533,-0.806544 0.65625,-1.1875 h -0.625 C 52.132676,54.343635 51.960295,54.676193 51.78125,55 51.6022,55.320002 51.436664,55.609109 51.25,55.90625 51.059522,55.609109 50.866546,55.320002 50.6875,55 50.508451,54.676193 50.363511,54.343635 50.21875,54.03125 Z m -9,0.46875 c 0.125713,-0.01144 0.295058,4e-6 0.53125,0 0.14857,1e-5 0.304165,0.0084 0.4375,0.03125 0.133331,0.02286 0.24471,0.06406 0.34375,0.125 0.102855,0.05715 0.16161,0.11971 0.21875,0.21875 0.06095,0.09905 0.09375,0.222622 0.09375,0.375 0,0.160002 -0.0054,0.303395 -0.0625,0.40625 -0.05715,0.102859 -0.143335,0.18905 -0.25,0.25 -0.102859,0.05714 -0.222621,0.09833 -0.375,0.125 -0.152383,0.02286 -0.340776,0.03125 -0.53125,0.03125 H 40.5625 Z m 7.46875,0.1875 c 0.129522,0.285717 0.256903,0.562621 0.375,0.875 0.121902,0.308573 0.253093,0.637323 0.375,0.96875 h -1.5 c 0.118094,-0.331427 0.256904,-0.660177 0.375,-0.96875 0.121903,-0.312379 0.241665,-0.589283 0.375,-0.875 z" />
      <path
         style="font-style:normal;font-variant:normal;font-weight:normal;font-stretch:normal;font-size:5.71428585px;line-height:125%;font-family:Ubuntu;-inkscape-font-specification:Ubuntu;text-align:start;letter-spacing:0px;word-spacing:0px;writing-mode:lr-tb;text-anchor:start;opacity:0.8;fill:#fefefe;fill-opacity:1;stroke:none"
         id="path4238"
         d="m 40.5625,54.5 v 0.46875 c 0.125713,-0.01144 0.295058,4e-6 0.53125,0 0.14857,1e-5 0.304165,0.0084 0.4375,0.03125 0.133331,0.02286 0.24471,0.06406 0.34375,0.125 0.102855,0.05715 0.16161,0.11971 0.21875,0.21875 0.03048,0.04953 0.04668,0.125178 0.0625,0.1875 0.01916,-0.08551 0.03125,-0.173249 0.03125,-0.28125 -3e-6,-0.152378 -0.0328,-0.275949 -0.09375,-0.375 -0.05714,-0.09904 -0.115895,-0.161604 -0.21875,-0.21875 -0.09904,-0.06094 -0.210419,-0.102139 -0.34375,-0.125 -0.133335,-0.02285 -0.28893,-0.03124 -0.4375,-0.03125 -0.236192,4e-6 -0.405537,-0.01144 -0.53125,0 z m 9,0 c 0.205714,0.380956 0.423868,0.791313 0.65625,1.1875 0.23238,0.396193 0.487142,0.779882 0.75,1.1875 v -0.46875 c -0.262858,-0.407618 -0.51762,-0.791307 -0.75,-1.1875 C 50.077348,54.977675 49.943768,54.741752 49.8125,54.5 Z m 3.09375,0 c -0.131269,0.241752 -0.264851,0.477675 -0.40625,0.71875 -0.232384,0.392384 -0.490955,0.783692 -0.75,1.1875 V 56.875 c 0.259045,-0.403808 0.517616,-0.795116 0.75,-1.1875 0.232378,-0.396187 0.450533,-0.806544 0.65625,-1.1875 z m -4.625,0.1875 c -0.133335,0.285717 -0.253097,0.562621 -0.375,0.875 -0.118096,0.308573 -0.256906,0.637323 -0.375,0.96875 h 0.1875 c 0.06602,-0.166901 0.126795,-0.341385 0.1875,-0.5 0.121903,-0.312379 0.241665,-0.589283 0.375,-0.875 0.129522,0.285717 0.256903,0.562621 0.375,0.875 0.06266,0.158615 0.122453,0.333099 0.1875,0.5 h 0.1875 c -0.121907,-0.331427 -0.253098,-0.660177 -0.375,-0.96875 -0.118097,-0.312379 -0.245478,-0.589283 -0.375,-0.875 z M 42.75,55.5625 c -0.02077,0.09939 -0.05185,0.199346 -0.09375,0.28125 -0.08,0.160002 -0.187562,0.303395 -0.34375,0.40625 -0.152383,0.09905 -0.34155,0.173037 -0.5625,0.21875 -0.06476,0.0134 -0.148905,0.02252 -0.21875,0.03125 -0.01107,0.0022 -0.01982,-0.002 -0.03125,0 -0.160192,0.01845 -0.314924,0.03125 -0.5,0.03125 -0.01114,5.9e-5 -0.02008,0 -0.03125,0 H 40.5625 V 57 H 41 c 0.278093,0 0.529046,-0.01678 0.75,-0.0625 0.22095,-0.04571 0.410117,-0.1197 0.5625,-0.21875 0.156188,-0.102855 0.26375,-0.246248 0.34375,-0.40625 0.0838,-0.163808 0.124997,-0.365176 0.125,-0.59375 0,-0.05877 -0.0258,-0.101784 -0.03125,-0.15625 z M 47.125,57 46.78125,58 H 46.375 c -0.0608,0.159563 -0.125282,0.29765 -0.1875,0.46875 h 0.59375 l 0.34375,-1 h 1.8125 c 0.06095,0.17143 0.0991,0.332381 0.15625,0.5 0.05714,0.16381 0.12273,0.328572 0.1875,0.5 h 0.625 C 49.84403,58.29765 49.779554,58.159563 49.71875,58 h -0.4375 C 49.21648,57.828572 49.15089,57.66381 49.09375,57.5 49.0366,57.332381 48.99845,57.17143 48.9375,57 h -0.15625 -1.5 z M 40,58 v 0.46875 h 0.5625 V 58 Z m 3.5,0 v 0.46875 h 2.375 V 58 h -1.8125 z m 7.46875,0 v 0.46875 H 51.5 V 58 Z" />
    </g>
  </g>
  <g
     id="layer3">
    <path
       style="fill:#000000;fill-opacity:1;fill-rule:nonzero;stroke:none"
       id="rect4237"
       d="M 12,6 C 8.676,6 6,8.676 6,12 l 0,12 84,0 0,-12 C 90,8.676 87.324,6 84,6 L 12,6 z" />
    <rect
       style="opacity:0.8;fill:url(#linearGradient4262);fill-opacity:1;fill-rule:evenodd;stroke:none"
       id="rect3250"
       y="24"
       x="6"
       height="6"
       width="84" />
    <rect
       style="opacity:0.3;fill:url(#linearGradient4320);fill-opacity:1;fill-rule:evenodd;stroke:none"
       id="rect4289"
       y="15"
       x="6"
       height="5"
       width="84" />
    <g
       id="g4299"
       transform="translate(1,0)">
      <path
         style="fill:#f0f0f0;fill-opacity:1;fill-rule:evenodd;stroke:none"
         id="path4293"
         d="M 28.333333,6 23,15 28.333333,24 39,24 33.666667,15 39,6 28.333333,6 z" />
      <path
         style="fill:#f0f0f0;fill-opacity:1;fill-rule:evenodd;stroke:none"
         id="path4295"
         d="M 50.333333,6 45,15 50.333333,24 61,24 55.666667,15 61,6 50.333333,6 z" />
      <path
         style="fill:#f0f0f0;fill-opacity:1;fill-rule:evenodd;stroke:none"
         id="path4297"
         d="M 72.333333,6 67,15 72.333333,24 83,24 77.666667,15 83,6 72.333333,6 z" />
    </g>
    <rect
       style="opacity:0.7;fill:url(#linearGradient4310);fill-opacity:1;fill-rule:evenodd;stroke:none"
       id="rect4291"
       y="10"
       x="6"
       height="5"
       width="84" />
    <rect
       style="opacity:0.7;fill:url(#linearGradient4326);fill-opacity:1;fill-rule:evenodd;stroke:none"
       id="rect4324"
       y="19"
       x="6"
       height="5"
       width="84" />
    <path
       style="fill:url(#linearGradient4371);fill-opacity:1;fill-rule:evenodd;stroke:url(#linearGradient4373);stroke-width:1;stroke-linecap:butt;stroke-linejoin:round;stroke-miterlimit:4;stroke-opacity:1;stroke-dasharray:none;stroke-dashoffset:0"
       id="path4333"
       d="m 12.005391,10.5 c 1.109513,0 1.770155,0.983693 6.03003,4.302704 4.304387,3.353689 5.477493,3.726472 5.477493,5.074645 0,1.348423 -1.088205,1.622651 -2.439921,1.622651 l -8.133072,0 C 11.588205,21.5 10.5,20.414446 10.5,19.066023 l 0,-6.490605 C 10.5,11.226995 10.967611,10.5 12.005391,10.5 z" />
    <path
       style="fill:url(#radialGradient4379);fill-opacity:1;fill-rule:evenodd;stroke:none"
       id="path4335"
       transform="matrix(0.81330712,0,0,0.81132563,3.5868895,1.0746776)"
       d="m 12.75,14.9375 a 1.4375,1.4375 0 1 1 -2.875,0 1.4375,1.4375 0 1 1 2.875,0 z" />
    <path
       style="fill:url(#radialGradient4377);fill-opacity:1;fill-rule:evenodd;stroke:none"
       id="path4337"
       transform="matrix(0.81330712,0,0,0.81132563,3.5868895,7.09897)"
       d="m 12.75,14.9375 a 1.4375,1.4375 0 1 1 -2.875,0 1.4375,1.4375 0 1 1 2.875,0 z" />
    <path
       style="fill:url(#radialGradient4375);fill-opacity:1;fill-rule:evenodd;stroke:none"
       id="path4339"
       transform="matrix(0.81330712,0,0,0.81132563,11.618297,7.09897)"
       d="m 12.75,14.9375 a 1.4375,1.4375 0 1 1 -2.875,0 1.4375,1.4375 0 1 1 2.875,0 z" />
  </g>
  <g
     id="layer4">
    <path
       style="opacity:0.3;fill:url(#linearGradient3188);fill-opacity:1;fill-rule:nonzero;stroke:none"
       id="rect3728"
       d="M 12,6 C 8.676,6 6,8.676 6,12 l 0,2 0,68 0,2 c 0,0.334721 0.04135,0.6507 0.09375,0.96875 0.0487,0.295596 0.09704,0.596915 0.1875,0.875 0.00988,0.03038 0.020892,0.0636 0.03125,0.09375 0.098865,0.287771 0.2348802,0.547452 0.375,0.8125 0.1445918,0.273507 0.3156161,0.535615 0.5,0.78125 0.1843839,0.245635 0.3737765,0.473472 0.59375,0.6875 0.439947,0.428056 0.94291,0.814526 1.5,1.09375 0.278545,0.139612 0.5734731,0.246947 0.875,0.34375 -0.2562018,-0.100222 -0.4867109,-0.236272 -0.71875,-0.375 -0.00741,-0.0044 -0.023866,0.0045 -0.03125,0 -0.031933,-0.0193 -0.062293,-0.04251 -0.09375,-0.0625 -0.120395,-0.0767 -0.2310226,-0.163513 -0.34375,-0.25 -0.1061728,-0.0808 -0.2132809,-0.161112 -0.3125,-0.25 C 8.4783201,88.557317 8.3087904,88.373362 8.15625,88.1875 8.0486711,88.057245 7.9378561,87.922215 7.84375,87.78125 7.818661,87.74287 7.805304,87.69538 7.78125,87.65625 7.716487,87.553218 7.6510225,87.451733 7.59375,87.34375 7.4927417,87.149044 7.3880752,86.928049 7.3125,86.71875 7.30454,86.69694 7.288911,86.6782 7.28125,86.65625 7.2494249,86.5643 7.2454455,86.469419 7.21875,86.375 7.1884177,86.268382 7.1483606,86.171969 7.125,86.0625 7.0521214,85.720988 7,85.364295 7,85 L 7,83 7,15 7,13 C 7,10.218152 9.2181517,8 12,8 l 2,0 68,0 2,0 c 2.781848,0 5,2.218152 5,5 l 0,2 0,68 0,2 c 0,0.364295 -0.05212,0.720988 -0.125,1.0625 -0.04415,0.206893 -0.08838,0.397658 -0.15625,0.59375 -0.0077,0.02195 -0.0233,0.04069 -0.03125,0.0625 -0.06274,0.173739 -0.138383,0.367449 -0.21875,0.53125 -0.04158,0.0828 -0.07904,0.169954 -0.125,0.25 -0.0546,0.09721 -0.126774,0.18835 -0.1875,0.28125 -0.09411,0.140965 -0.204921,0.275995 -0.3125,0.40625 -0.143174,0.17445 -0.303141,0.346998 -0.46875,0.5 -0.01117,0.0102 -0.01998,0.02115 -0.03125,0.03125 -0.138386,0.125556 -0.285091,0.234436 -0.4375,0.34375 -0.102571,0.07315 -0.204318,0.153364 -0.3125,0.21875 -0.0074,0.0045 -0.02384,-0.0044 -0.03125,0 -0.232039,0.138728 -0.462548,0.274778 -0.71875,0.375 0.301527,-0.0968 0.596455,-0.204138 0.875,-0.34375 0.55709,-0.279224 1.060053,-0.665694 1.5,-1.09375 0.219973,-0.214028 0.409366,-0.441865 0.59375,-0.6875 0.184384,-0.245635 0.355408,-0.507743 0.5,-0.78125 0.14012,-0.265048 0.276135,-0.524729 0.375,-0.8125 0.01041,-0.03078 0.02133,-0.06274 0.03125,-0.09375 0.09046,-0.278085 0.1388,-0.579404 0.1875,-0.875 C 89.95865,84.6507 90,84.334721 90,84 l 0,-2 0,-68 0,-2 C 90,8.676 87.324,6 84,6 L 12,6 z" />
  </g>
  <g
     style="display:inline"
     id="layer6" />
</svg>
