<?xml version="1.0" encoding="UTF-8" standalone="no"?>
<svg
   xmlns:dc="http://purl.org/dc/elements/1.1/"
   xmlns:cc="http://creativecommons.org/ns#"
   xmlns:rdf="http://www.w3.org/1999/02/22-rdf-syntax-ns#"
   xmlns:svg="http://www.w3.org/2000/svg"
   xmlns="http://www.w3.org/2000/svg"
   xmlns:xlink="http://www.w3.org/1999/xlink"
   xmlns:sodipodi="http://sodipodi.sourceforge.net/DTD/sodipodi-0.dtd"
   xmlns:inkscape="http://www.inkscape.org/namespaces/inkscape"
   id="svg2408"
   height="96"
   width="96"
   version="1.0"
   sodipodi:docname="cs-startup-programs.svg"
   inkscape:version="0.92.1 r">
  <sodipodi:namedview
     pagecolor="#ffffff"
     bordercolor="#666666"
     borderopacity="1"
     objecttolerance="10"
     gridtolerance="10"
     guidetolerance="10"
     inkscape:pageopacity="0"
     inkscape:pageshadow="2"
     inkscape:window-width="1920"
     inkscape:window-height="1011"
     id="namedview208"
     showgrid="false"
     inkscape:zoom="2.4583333"
     inkscape:cx="48"
     inkscape:cy="48"
     inkscape:window-x="0"
     inkscape:window-y="32"
     inkscape:window-maximized="1"
     inkscape:current-layer="svg2408" />
  <defs
     id="defs2410">
    <linearGradient
       id="linearGradient3852">
      <stop
         offset="0"
         style="stop-color:#ffffff;stop-opacity:1"
         id="stop3854" />
      <stop
         offset="1"
         style="stop-color:#ffffff;stop-opacity:0"
         id="stop3856" />
    </linearGradient>
    <linearGradient
       id="linearGradient4384">
      <stop
         offset="0"
         style="stop-color:#ffffff;stop-opacity:1"
         id="stop4386" />
      <stop
         offset="1"
         style="stop-color:#ffffff;stop-opacity:0"
         id="stop4388" />
    </linearGradient>
    <linearGradient
       id="linearGradient4367">
      <stop
         offset="0"
         style="stop-color:#ffffff;stop-opacity:0.71755725"
         id="stop4369" />
      <stop
         offset="1"
         style="stop-color:#ffffff;stop-opacity:1"
         id="stop4371" />
    </linearGradient>
    <linearGradient
       gradientTransform="scale(1.0058652,0.994169)"
       gradientUnits="userSpaceOnUse"
       id="ButtonShadow"
       y2="7.0165396"
       x2="45.447727"
       y1="92.539597"
       x1="45.447727">
      <stop
         offset="0"
         style="stop-color:#000000;stop-opacity:1"
         id="stop3750" />
      <stop
         offset="1"
         style="stop-color:#000000;stop-opacity:0.58823532"
         id="stop3752" />
    </linearGradient>
    <linearGradient
       id="linearGradient3737">
      <stop
         offset="0"
         style="stop-color:#ffffff;stop-opacity:1"
         id="stop3739" />
      <stop
         offset="1"
         style="stop-color:#ffffff;stop-opacity:0"
         id="stop3741" />
    </linearGradient>
    <filter
       id="filter3174"
       color-interpolation-filters="sRGB">
      <feGaussianBlur
         stdDeviation="1.71"
         id="feGaussianBlur3176" />
    </filter>
    <filter
       id="filter3794"
       color-interpolation-filters="sRGB"
       height="1.3839999"
       width="1.3839999"
       y="-0.192"
       x="-0.192">
      <feGaussianBlur
         stdDeviation="5.28"
         id="feGaussianBlur3796" />
    </filter>
    <linearGradient
       gradientUnits="userSpaceOnUse"
       xlink:href="#linearGradient3737"
       id="linearGradient3613"
       y2="138.66119"
       x2="48"
       y1="20.220806"
       x1="48" />
    <linearGradient
       gradientTransform="matrix(1.0058652,0,0,0.994169,100,0)"
       gradientUnits="userSpaceOnUse"
       id="ButtonShadow-0"
       y2="7.0165396"
       x2="45.447727"
       y1="92.539597"
       x1="45.447727">
      <stop
         offset="0"
         style="stop-color:#000000;stop-opacity:1"
         id="stop3750-8" />
      <stop
         offset="1"
         style="stop-color:#000000;stop-opacity:0.58823532"
         id="stop3752-5" />
    </linearGradient>
    <linearGradient
       gradientTransform="matrix(1.0238095,0,0,1.0119048,-1.1428571,-98.071429)"
       gradientUnits="userSpaceOnUse"
       xlink:href="#ButtonShadow-0"
       id="linearGradient3780"
       y2="90.238609"
       x2="32.251034"
       y1="6.1317081"
       x1="32.251034" />
    <linearGradient
       gradientTransform="matrix(1.0238095,0,0,1.0119048,-1.1428571,-98.071429)"
       gradientUnits="userSpaceOnUse"
       xlink:href="#ButtonShadow-0"
       id="linearGradient3772"
       y2="90.238609"
       x2="32.251034"
       y1="6.1317081"
       x1="32.251034" />
    <linearGradient
       gradientTransform="matrix(1.0238095,0,0,1.0119048,-1.1428571,-98.071429)"
       gradientUnits="userSpaceOnUse"
       xlink:href="#ButtonShadow-0"
       id="linearGradient3725"
       y2="90.238609"
       x2="32.251034"
       y1="6.1317081"
       x1="32.251034" />
    <linearGradient
       gradientTransform="translate(0,-97)"
       gradientUnits="userSpaceOnUse"
       xlink:href="#ButtonShadow-0"
       id="linearGradient3721"
       y2="90.238609"
       x2="32.251034"
       y1="6.1317081"
       x1="32.251034" />
    <linearGradient
       gradientTransform="matrix(1.0238095,0,0,1.0119048,-1.1428571,-98.071429)"
       gradientUnits="userSpaceOnUse"
       xlink:href="#ButtonShadow-0"
       id="linearGradient3026"
       y2="90.238609"
       x2="32.251034"
       y1="6.1317081"
       x1="32.251034" />
    <clipPath
       id="clipPath4355">
      <rect
         style="fill:#ffffff;fill-opacity:1;fill-rule:nonzero;stroke:none"
         id="rect4357"
         y="6"
         x="6"
         ry="6"
         rx="6"
         height="80"
         width="84" />
    </clipPath>
    <radialGradient
       gradientTransform="matrix(1,-6.7114942e-8,8.4282233e-8,1.2557894,109.99999,-24.505592)"
       gradientUnits="userSpaceOnUse"
       xlink:href="#linearGradient4367"
       id="radialGradient4375"
       fy="87.792389"
       fx="48"
       r="42"
       cy="87.792389"
       cx="48" />
    <linearGradient
       gradientTransform="matrix(1,0,0,-1,0,92)"
       gradientUnits="userSpaceOnUse"
       xlink:href="#linearGradient4384"
       id="linearGradient4390"
       y2="-40"
       x2="48"
       y1="88"
       x1="48" />
    <linearGradient
       spreadMethod="reflect"
       gradientUnits="userSpaceOnUse"
       xlink:href="#linearGradient4384"
       id="linearGradient4429"
       y2="82.454597"
       x2="112.12357"
       y1="82"
       x1="48" />
    <linearGradient
       spreadMethod="reflect"
       gradientTransform="matrix(1,0,0,0.87500001,0,10.75)"
       gradientUnits="userSpaceOnUse"
       xlink:href="#linearGradient3852"
       id="linearGradient3858"
       y2="6"
       x2="49"
       y1="46"
       x1="49" />
    <linearGradient
       spreadMethod="reflect"
       gradientTransform="matrix(1,0,0,0.87500001,6,10.75)"
       gradientUnits="userSpaceOnUse"
       xlink:href="#linearGradient3852"
       id="linearGradient3909"
       y2="6"
       x2="49"
       y1="46"
       x1="49" />
    <linearGradient
       spreadMethod="reflect"
       gradientTransform="matrix(1,0,0,0.87500001,12,10.75)"
       gradientUnits="userSpaceOnUse"
       xlink:href="#linearGradient3852"
       id="linearGradient3913"
       y2="6"
       x2="49"
       y1="46"
       x1="49" />
    <linearGradient
       spreadMethod="reflect"
       gradientTransform="matrix(1,0,0,0.87500001,14,10.75)"
       gradientUnits="userSpaceOnUse"
       xlink:href="#linearGradient3852"
       id="linearGradient3917"
       y2="6"
       x2="49"
       y1="46"
       x1="49" />
    <linearGradient
       spreadMethod="reflect"
       gradientTransform="matrix(1,0,0,0.87500001,18,10.75)"
       gradientUnits="userSpaceOnUse"
       xlink:href="#linearGradient3852"
       id="linearGradient3921"
       y2="6"
       x2="49"
       y1="46"
       x1="49" />
    <linearGradient
       spreadMethod="reflect"
       gradientTransform="matrix(1,0,0,0.87500001,22,10.75)"
       gradientUnits="userSpaceOnUse"
       xlink:href="#linearGradient3852"
       id="linearGradient3925"
       y2="9"
       x2="49"
       y1="46"
       x1="49" />
    <linearGradient
       spreadMethod="reflect"
       gradientTransform="matrix(1,0,0,0.87500001,-4,10.75)"
       gradientUnits="userSpaceOnUse"
       xlink:href="#linearGradient3852"
       id="linearGradient3941"
       y2="6"
       x2="49"
       y1="46"
       x1="49" />
    <linearGradient
       spreadMethod="reflect"
       gradientTransform="matrix(1,0,0,0.87500001,-8,10.75)"
       gradientUnits="userSpaceOnUse"
       xlink:href="#linearGradient3852"
       id="linearGradient3945"
       y2="6"
       x2="49"
       y1="46"
       x1="49" />
    <linearGradient
       spreadMethod="reflect"
       gradientTransform="matrix(1,0,0,0.87500001,-10,10.75)"
       gradientUnits="userSpaceOnUse"
       xlink:href="#linearGradient3852"
       id="linearGradient3949"
       y2="6"
       x2="49"
       y1="46"
       x1="49" />
    <linearGradient
       spreadMethod="reflect"
       gradientTransform="matrix(1,0,0,0.87500001,-16,10.75)"
       gradientUnits="userSpaceOnUse"
       xlink:href="#linearGradient3852"
       id="linearGradient3953"
       y2="6"
       x2="49"
       y1="46"
       x1="49" />
    <linearGradient
       spreadMethod="reflect"
       gradientTransform="matrix(1,0,0,0.87500001,-20,10.75)"
       gradientUnits="userSpaceOnUse"
       xlink:href="#linearGradient3852"
       id="linearGradient3957"
       y2="6"
       x2="49"
       y1="46"
       x1="49" />
    <linearGradient
       spreadMethod="reflect"
       gradientTransform="matrix(1,0,0,0.87500001,-22,10.75)"
       gradientUnits="userSpaceOnUse"
       xlink:href="#linearGradient3852"
       id="linearGradient3961"
       y2="6"
       x2="49"
       y1="46"
       x1="49" />
    <linearGradient
       spreadMethod="reflect"
       gradientTransform="matrix(1,0,0,0.87500001,-24,10.75)"
       gradientUnits="userSpaceOnUse"
       xlink:href="#linearGradient3852"
       id="linearGradient3965"
       y2="6"
       x2="49"
       y1="46"
       x1="49" />
    <linearGradient
       spreadMethod="reflect"
       gradientTransform="matrix(1,0,0,0.87500001,-2,10.75)"
       gradientUnits="userSpaceOnUse"
       xlink:href="#linearGradient3852"
       id="linearGradient3985"
       y2="6"
       x2="49"
       y1="46"
       x1="49" />
    <linearGradient
       id="linearGradient4384-6">
      <stop
         offset="0"
         style="stop-color:#ffffff;stop-opacity:1"
         id="stop4386-3" />
      <stop
         offset="1"
         style="stop-color:#ffffff;stop-opacity:0"
         id="stop4388-7" />
    </linearGradient>
    <linearGradient
       gradientTransform="matrix(1,0,0,-1,0,92)"
       gradientUnits="userSpaceOnUse"
       xlink:href="#linearGradient4384-6"
       id="linearGradient4166"
       y2="-40"
       x2="48"
       y1="88"
       x1="48" />
    <radialGradient
       spreadMethod="pad"
       gradientTransform="matrix(15.000077,-1.2121331e-5,2.7705904e-5,26.250139,-126.0019,-1156.5064)"
       gradientUnits="userSpaceOnUse"
       xlink:href="#linearGradient3852"
       id="radialGradient4236"
       fy="46.000004"
       fx="8.9999952"
       r="0.99999517"
       cy="46.000004"
       cx="8.9999952" />
    <radialGradient
       spreadMethod="pad"
       gradientTransform="matrix(19.000099,-1.212133e-5,2.1873078e-5,26.250139,-1530.0093,-1156.5054)"
       gradientUnits="userSpaceOnUse"
       xlink:href="#linearGradient3852"
       id="radialGradient4238"
       fy="46.000004"
       fx="84.999992"
       r="0.99999517"
       cy="46.000004"
       cx="84.999992" />
    <radialGradient
       spreadMethod="pad"
       gradientTransform="matrix(13.00007,1.6203053e-5,-4.558221e-5,28.000148,-996.00365,-1237.0082)"
       gradientUnits="userSpaceOnUse"
       xlink:href="#linearGradient3852"
       id="radialGradient4240"
       fy="46.000004"
       fx="82.999992"
       r="0.99999517"
       cy="46.000004"
       cx="82.999992" />
    <radialGradient
       spreadMethod="pad"
       gradientTransform="matrix(11.094983,-1.4517317e-5,5.3834e-5,31.500183,-797.50608,-1398.0074)"
       gradientUnits="userSpaceOnUse"
       xlink:href="#linearGradient3852"
       id="radialGradient4242"
       fy="46.000004"
       fx="78.999992"
       r="0.99999517"
       cy="46.000004"
       cx="78.999992" />
    <radialGradient
       spreadMethod="pad"
       gradientTransform="matrix(15.00008,-3.3574445e-5,9.7206e-5,33.250174,-1078.0106,-1478.5054)"
       gradientUnits="userSpaceOnUse"
       xlink:href="#linearGradient3852"
       id="radialGradient4244"
       fy="46.000004"
       fx="76.999992"
       r="0.99999517"
       cy="46.000004"
       cx="76.999992" />
    <radialGradient
       gradientTransform="matrix(27.000135,0,0,28.000178,-338.00163,-1237.0082)"
       gradientUnits="userSpaceOnUse"
       xlink:href="#linearGradient3852"
       id="radialGradient4246"
       fy="46.000004"
       fx="12.999995"
       r="0.99999517"
       cy="46.000004"
       cx="12.999995" />
    <radialGradient
       spreadMethod="pad"
       gradientTransform="matrix(19.000097,1.4939416e-5,-3.1451407e-5,30.625161,-306.0001,-1357.7578)"
       gradientUnits="userSpaceOnUse"
       xlink:href="#linearGradient3852"
       id="radialGradient4248"
       fy="46.000004"
       fx="16.999994"
       r="0.99999517"
       cy="46.000004"
       cx="16.999994" />
    <radialGradient
       spreadMethod="pad"
       gradientTransform="matrix(15.000078,-3.3574446e-5,9.7206015e-5,33.250174,-266.00587,-1478.5075)"
       gradientUnits="userSpaceOnUse"
       xlink:href="#linearGradient3852"
       id="radialGradient4250"
       fy="46.000004"
       fx="18.999994"
       r="0.99999517"
       cy="46.000004"
       cx="18.999994" />
    <linearGradient
       id="linearGradient3843-1">
      <stop
         offset="0"
         style="stop-color:#523823;stop-opacity:1"
         id="stop3845-6" />
      <stop
         offset="0.11780351"
         style="stop-color:#79563a;stop-opacity:1"
         id="stop3847-1" />
      <stop
         offset="0.23809524"
         style="stop-color:#875c38;stop-opacity:1"
         id="stop3849-7" />
      <stop
         offset="1"
         style="stop-color:#a66e40;stop-opacity:1"
         id="stop3851-6" />
    </linearGradient>
    <linearGradient
       spreadMethod="reflect"
       gradientTransform="translate(-2,-956.3622)"
       gradientUnits="userSpaceOnUse"
       xlink:href="#linearGradient3843-1"
       id="linearGradient3082"
       y2="1033.3622"
       x2="50"
       y1="1033.3622"
       x1="8" />
    <clipPath
       id="clipPath4123">
      <rect
         style="opacity:0.55405405;fill:#ff00ff;fill-opacity:1;fill-rule:nonzero;stroke:none"
         id="rect4125"
         y="6"
         x="6"
         ry="6"
         rx="6"
         height="80"
         width="84" />
    </clipPath>
    <linearGradient
       gradientTransform="matrix(1.8576982,0,0,2.1225772,3.9270632,0.57194656)"
       gradientUnits="userSpaceOnUse"
       xlink:href="#linearGradient3852"
       id="linearGradient3308"
       y2="43.810863"
       x2="12.578789"
       y1="2.9137428"
       x1="12.578789" />
    <linearGradient
       gradientTransform="matrix(1.5405634,0,0,1.5027205,-1.1327368,-2.6252319)"
       gradientUnits="userSpaceOnUse"
       xlink:href="#linearGradient3958"
       id="linearGradient3311"
       y2="16.323294"
       x2="33.579403"
       y1="5.7086449"
       x1="33.579403" />
    <linearGradient
       id="linearGradient3958">
      <stop
         offset="0"
         style="stop-color:#262626;stop-opacity:1"
         id="stop3960" />
      <stop
         offset="1"
         style="stop-color:#303030;stop-opacity:1"
         id="stop3962" />
    </linearGradient>
    <linearGradient
       gradientTransform="matrix(1.890625,0,0,2.2781495,3.1390782,-9.9927076)"
       gradientUnits="userSpaceOnUse"
       xlink:href="#linearGradient3958"
       id="linearGradient3313"
       y2="14"
       x2="16.91585"
       y1="7.0006418"
       x1="16.91585" />
    <linearGradient
       gradientTransform="matrix(1.8338353,0,0,0.79955926,4.5145172,13.800151)"
       gradientUnits="userSpaceOnUse"
       xlink:href="#linearGradient3282"
       id="linearGradient3316"
       y2="13.523027"
       x2="24.682861"
       y1="9.2416716"
       x1="24.682861" />
    <linearGradient
       id="linearGradient3282">
      <stop
         offset="0"
         style="stop-color:#000000;stop-opacity:1"
         id="stop3284" />
      <stop
         offset="1"
         style="stop-color:#000000;stop-opacity:0"
         id="stop3286" />
    </linearGradient>
    <radialGradient
       gradientTransform="matrix(-3.4387076e-8,-2.4357554,2.6407402,0,71.136419,123.79768)"
       gradientUnits="userSpaceOnUse"
       xlink:href="#linearGradient2867-449-88-871-390-598-476-591-434-148-895-534-212-357-729"
       id="radialGradient3322"
       fy="-2.0644982"
       fx="26.616697"
       r="23"
       cy="-2.0644982"
       cx="26.616697" />
    <linearGradient
       id="linearGradient2867-449-88-871-390-598-476-591-434-148-895-534-212-357-729">
      <stop
         offset="0"
         style="stop-color:#dcb2ff;stop-opacity:1"
         id="stop8022" />
      <stop
         offset="1"
         style="stop-color:#734f9d;stop-opacity:1"
         id="stop8028" />
    </linearGradient>
    <radialGradient
       gradientTransform="matrix(-0.10165992,0,0,0.04572559,172.22776,68.562216)"
       gradientUnits="userSpaceOnUse"
       xlink:href="#linearGradient3282"
       id="radialGradient3327"
       fy="486.64789"
       fx="605.71429"
       r="117.14286"
       cy="486.64789"
       cx="605.71429" />
    <radialGradient
       gradientTransform="matrix(0.10165999,0,0,0.04572559,114.38241,68.562216)"
       gradientUnits="userSpaceOnUse"
       xlink:href="#linearGradient3282"
       id="radialGradient3330"
       fy="486.64789"
       fx="605.71429"
       r="117.14286"
       cy="486.64789"
       cx="605.71429" />
    <linearGradient
       gradientTransform="matrix(0.13396816,0,0,0.04572559,94.885147,68.562216)"
       gradientUnits="userSpaceOnUse"
       xlink:href="#linearGradient5048-7"
       id="linearGradient3333"
       y2="609.50507"
       x2="302.85715"
       y1="366.64789"
       x1="302.85715" />
    <linearGradient
       id="linearGradient5048-7">
      <stop
         offset="0"
         style="stop-color:#000000;stop-opacity:0"
         id="stop5050-5" />
      <stop
         offset="0.5"
         style="stop-color:#000000;stop-opacity:1"
         id="stop5056-9" />
      <stop
         offset="1"
         style="stop-color:#000000;stop-opacity:0"
         id="stop5052-6" />
    </linearGradient>
    <linearGradient
       gradientTransform="translate(0,-62)"
       gradientUnits="userSpaceOnUse"
       xlink:href="#linearGradient3852"
       id="linearGradient4242"
       y2="-24"
       x2="32"
       y1="46"
       x1="32" />
    <linearGradient
       gradientTransform="translate(0,-62)"
       gradientUnits="userSpaceOnUse"
       xlink:href="#linearGradient3852"
       id="linearGradient4240"
       y2="-24"
       x2="32"
       y1="46"
       x1="32" />
    <linearGradient
       gradientTransform="translate(0,-62)"
       gradientUnits="userSpaceOnUse"
       xlink:href="#linearGradient3852"
       id="linearGradient4214"
       y2="-24"
       x2="32"
       y1="46"
       x1="32" />
    <linearGradient
       gradientTransform="translate(0,-62)"
       gradientUnits="userSpaceOnUse"
       xlink:href="#linearGradient3852"
       id="linearGradient3550"
       y2="-24"
       x2="32"
       y1="46"
       x1="32" />
    <linearGradient
       gradientTransform="translate(0,4)"
       gradientUnits="userSpaceOnUse"
       xlink:href="#linearGradient4159"
       id="linearGradient4165"
       y2="32"
       x2="48"
       y1="64"
       x1="48" />
    <linearGradient
       id="linearGradient4159">
      <stop
         offset="0"
         style="stop-color:#cecece;stop-opacity:1"
         id="stop4161" />
      <stop
         offset="1"
         style="stop-color:#f2f2f2;stop-opacity:1"
         id="stop4163" />
    </linearGradient>
    <clipPath
       id="clipPath4403">
      <path
         style="display:block;overflow:visible;visibility:visible;fill:url(#linearGradient3282);fill-opacity:1;fill-rule:nonzero;stroke:none;stroke-width:1;marker:none;enable-background:accumulate"
         id="path4405"
         d="m 30.916245,135.971 c -0.937266,0.54113 -1.228304,1.74752 -0.677924,2.7008 l 1.9375,3.35585 c -1.418086,1.4141 -2.622273,3.01198 -3.595451,4.71 l -3.783634,-0.99095 c -0.531629,-0.14245 -1.037926,-0.11751 -1.476221,0.13061 -0.438159,0.24835 -0.796545,0.66758 -0.936598,1.19027 l -1.978825,7.38507 c -0.280102,1.04538 0.365953,2.06538 1.429126,2.35032 l 3.772195,1.03363 c -0.0062,1.95711 0.237711,3.94301 0.758755,5.87671 l -3.355849,1.9375 c -0.95328,0.55037 -1.304431,1.74066 -0.763301,2.67792 l 3.8125,6.60344 c 0.54113,0.93727 1.747521,1.2283 2.700801,0.67793 l 3.355849,-1.9375 c 1.414106,1.41808 3.011983,2.62227 4.709995,3.59545 l -0.990945,3.78363 c -0.284894,1.06325 0.275431,2.13275 1.320874,2.41282 l 7.385075,1.97883 c 1.045371,0.28011 2.065425,-0.36588 2.35032,-1.42913 l 1.033633,-3.77219 c 1.957118,0.006 3.943015,-0.23771 5.876701,-0.75876 l 1.9375,3.35585 c 0.550375,0.95328 1.740658,1.30443 2.677924,0.7633 l 6.603444,-3.8125 c 0.937258,-0.54113 1.228299,-1.74752 0.677924,-2.7008 l -1.9375,-3.35585 c 1.418087,-1.4141 2.622272,-3.01197 3.595452,-4.70999 l 3.783633,0.99094 c 1.063244,0.2849 2.132709,-0.27549 2.41282,-1.32087 l 1.978825,-7.38508 c 0.280102,-1.04537 -0.365953,-2.06538 -1.429127,-2.35032 l -3.772195,-1.03363 c 0.0062,-1.95711 -0.237701,-3.94301 -0.758754,-5.8767 l 3.355848,-1.9375 c 0.953272,-0.55037 1.304431,-1.74066 0.763301,-2.67793 l -3.8125,-6.60344 c -0.54113,-0.93726 -1.747529,-1.2283 -2.700801,-0.67792 l -3.355849,1.9375 c -1.414093,-1.4181 -3.011984,-2.62228 -4.709995,-3.59546 l 0.990945,-3.78363 c 0.284894,-1.06324 -0.275422,-2.13275 -1.320874,-2.41282 l -7.385074,-1.97882 c -1.045381,-0.28011 -2.065426,0.36588 -2.35032,1.42912 l -1.033633,3.7722 c -1.95712,-0.006 -3.943015,0.2377 -5.876702,0.75875 l -1.9375,-3.35585 c -0.55038,-0.95328 -1.740666,-1.30442 -2.677924,-0.7633 l -6.603444,3.8125 z m 10.051722,9.7851 c 6.696096,-3.866 15.258361,-1.57175 19.124356,5.12435 3.865995,6.6961 1.57174,15.25836 -5.124356,19.12436 -6.696096,3.86599 -15.258361,1.57174 -19.124356,-5.12436 -3.865995,-6.6961 -1.57174,-15.25836 5.124356,-19.12435 z" />
    </clipPath>
    <linearGradient
       gradientUnits="userSpaceOnUse"
       xlink:href="#linearGradient3282"
       id="linearGradient4213"
       y2="66.232674"
       x2="126.13924"
       y1="48.047016"
       x1="48.233639" />
    <linearGradient
       gradientUnits="userSpaceOnUse"
       xlink:href="#linearGradient3282"
       id="linearGradient4215"
       y2="62.838562"
       x2="126.67282"
       y1="48.031517"
       x1="48.055065" />
    <linearGradient
       gradientUnits="userSpaceOnUse"
       xlink:href="#linearGradient3282"
       id="linearGradient4217"
       y2="60.289631"
       x2="127.05216"
       y1="48.028725"
       x1="47.997307" />
    <linearGradient
       gradientUnits="userSpaceOnUse"
       xlink:href="#linearGradient3282"
       id="linearGradient4219"
       y2="57.664623"
       x2="127.41583"
       y1="48.028797"
       x1="47.99826" />
    <linearGradient
       gradientUnits="userSpaceOnUse"
       xlink:href="#linearGradient3852"
       id="linearGradient4221"
       y2="66.232674"
       x2="126.13924"
       y1="48.04702"
       x1="48.233643" />
    <linearGradient
       gradientUnits="userSpaceOnUse"
       xlink:href="#linearGradient3852"
       id="linearGradient4223"
       y2="62.838566"
       x2="126.67282"
       y1="48.031521"
       x1="48.055069" />
    <linearGradient
       gradientUnits="userSpaceOnUse"
       xlink:href="#linearGradient3852"
       id="linearGradient4225"
       y2="60.289635"
       x2="127.05216"
       y1="48.028728"
       x1="47.997311" />
    <linearGradient
       gradientUnits="userSpaceOnUse"
       xlink:href="#linearGradient3852"
       id="linearGradient4227"
       y2="57.664627"
       x2="127.41583"
       y1="48.028801"
       x1="47.998264" />
    <linearGradient
       gradientUnits="userSpaceOnUse"
       xlink:href="#linearGradient3282"
       id="linearGradient4229"
       y2="66.232674"
       x2="126.13924"
       y1="48.047016"
       x1="48.233639" />
    <linearGradient
       gradientUnits="userSpaceOnUse"
       xlink:href="#linearGradient3282"
       id="linearGradient4231"
       y2="62.838562"
       x2="126.67282"
       y1="48.031517"
       x1="48.055065" />
    <linearGradient
       gradientUnits="userSpaceOnUse"
       xlink:href="#linearGradient3282"
       id="linearGradient4233"
       y2="60.289631"
       x2="127.05216"
       y1="48.028725"
       x1="47.997307" />
    <linearGradient
       gradientUnits="userSpaceOnUse"
       xlink:href="#linearGradient3282"
       id="linearGradient4235"
       y2="57.664623"
       x2="127.41583"
       y1="48.028797"
       x1="47.99826" />
    <linearGradient
       gradientUnits="userSpaceOnUse"
       xlink:href="#linearGradient3282"
       id="linearGradient4237"
       y2="66.232674"
       x2="126.13924"
       y1="48.047016"
       x1="48.233639" />
    <linearGradient
       gradientUnits="userSpaceOnUse"
       xlink:href="#linearGradient3282"
       id="linearGradient4239"
       y2="62.838562"
       x2="126.67282"
       y1="48.031517"
       x1="48.055065" />
    <linearGradient
       gradientUnits="userSpaceOnUse"
       xlink:href="#linearGradient3282"
       id="linearGradient4241"
       y2="60.289631"
       x2="127.05216"
       y1="48.028725"
       x1="47.997307" />
    <linearGradient
       gradientUnits="userSpaceOnUse"
       xlink:href="#linearGradient3282"
       id="linearGradient4243"
       y2="57.664623"
       x2="127.41583"
       y1="48.028797"
       x1="47.99826" />
    <linearGradient
       gradientUnits="userSpaceOnUse"
       xlink:href="#linearGradient3852"
       id="linearGradient4245"
       y2="66.232674"
       x2="126.13924"
       y1="48.04702"
       x1="48.233643" />
    <linearGradient
       gradientUnits="userSpaceOnUse"
       xlink:href="#linearGradient3852"
       id="linearGradient4247"
       y2="62.838566"
       x2="126.67282"
       y1="48.031521"
       x1="48.055069" />
    <linearGradient
       gradientUnits="userSpaceOnUse"
       xlink:href="#linearGradient3852"
       id="linearGradient4249"
       y2="60.289635"
       x2="127.05216"
       y1="48.028728"
       x1="47.997311" />
    <linearGradient
       gradientUnits="userSpaceOnUse"
       xlink:href="#linearGradient3852"
       id="linearGradient4251"
       y2="57.664627"
       x2="127.41583"
       y1="48.028801"
       x1="47.998264" />
    <linearGradient
       gradientTransform="matrix(1.2790652,0,0,1.2790652,15.184722,22.918546)"
       gradientUnits="userSpaceOnUse"
       xlink:href="#linearGradient3309"
       id="linearGradient3141"
       y2="45.017357"
       x2="20.758585"
       y1="1"
       x1="20.758585" />
    <linearGradient
       gradientUnits="userSpaceOnUse"
       id="linearGradient3309"
       y2="122.8994"
       x2="63.9995"
       y1="3.1001"
       x1="63.9995">
      <stop
         offset="0"
         style="stop-color:#f0f0f0;stop-opacity:1"
         id="stop3311" />
      <stop
         offset="1"
         style="stop-color:#aaaaaa;stop-opacity:1"
         id="stop3313" />
    </linearGradient>
  </defs>
  <metadata
     id="metadata2413">
    <rdf:RDF>
      <cc:Work
         rdf:about="">
        <dc:format>image/svg+xml</dc:format>
        <dc:type
           rdf:resource="http://purl.org/dc/dcmitype/StillImage" />
        <dc:title />
      </cc:Work>
    </rdf:RDF>
  </metadata>
  <g
     style="display:none"
     id="layer2">
    <rect
       style="opacity:0.9;fill:url(#ButtonShadow);fill-opacity:1;fill-rule:nonzero;stroke:none;filter:url(#filter3174)"
       id="rect3745"
       y="7"
       x="5"
       ry="6"
       rx="6"
       height="85"
       width="86" />
  </g>
  <g
     style="display:inline"
     id="layer3">
    <path
       style="opacity:0.07999998;fill:url(#linearGradient3026);fill-opacity:1;fill-rule:nonzero;stroke:none;display:inline"
       id="path3786"
       transform="scale(1,-1)"
       d="m 12,-95.03125 c -5.5110903,0 -10.03125,4.52016 -10.03125,10.03125 l 0,71 c 0,5.5110902 4.5201598,10.03125 10.03125,10.03125 l 72,0 c 5.51109,0 10.03125,-4.5201597 10.03125,-10.03125 l 0,-71 c 0,-5.51109 -4.52016,-10.03125 -10.03125,-10.03125 l -72,0 z" />
    <path
       style="opacity:0.1;fill:url(#linearGradient3780);fill-opacity:1;fill-rule:nonzero;stroke:none;display:inline"
       id="path3778"
       transform="scale(1,-1)"
       d="m 12,-94.03125 c -4.971633,0 -9.03125,4.059617 -9.03125,9.03125 l 0,71 c 0,4.9716329 4.0596171,9.03125 9.03125,9.03125 l 72,0 c 4.971633,0 9.03125,-4.059617 9.03125,-9.03125 l 0,-71 c 0,-4.971633 -4.059617,-9.03125 -9.03125,-9.03125 l -72,0 z" />
    <path
       style="opacity:0.2;fill:url(#linearGradient3772);fill-opacity:1;fill-rule:nonzero;stroke:none;display:inline"
       id="path3770"
       transform="scale(1,-1)"
       d="m 12,-93 c -4.4091333,0 -8,3.590867 -8,8 l 0,71 c 0,4.4091333 3.5908667,8 8,8 l 72,0 c 4.409133,0 8,-3.5908667 8,-8 l 0,-71 c 0,-4.409133 -3.590867,-8 -8,-8 l -72,0 z" />
    <rect
       style="opacity:0.3;fill:url(#linearGradient3725);fill-opacity:1;fill-rule:nonzero;stroke:none;display:inline"
       id="rect3723"
       transform="scale(1,-1)"
       y="-92"
       x="5"
       ry="7"
       rx="7"
       height="85"
       width="86" />
  </g>
  <g
     style="opacity:0.8;display:none"
     id="layer7">
    <rect
       style="opacity:0.15;color:#000000;fill:url(#linearGradient3858);fill-opacity:1;fill-rule:nonzero;stroke:none;stroke-width:2;marker:none;visibility:visible;display:inline;overflow:visible;enable-background:accumulate"
       id="rect3082"
       y="16"
       x="48"
       height="70.000008"
       width="1.9999903" />
    <rect
       style="opacity:0.2;color:#000000;fill:url(#linearGradient3909);fill-opacity:1;fill-rule:nonzero;stroke:none;stroke-width:2;marker:none;visibility:visible;display:inline;overflow:visible;enable-background:accumulate"
       id="rect3907"
       y="16"
       x="54"
       height="70.000008"
       width="1.9999903" />
    <rect
       style="opacity:0.12000002;color:#000000;fill:url(#linearGradient3913);fill-opacity:1;fill-rule:nonzero;stroke:none;stroke-width:2;marker:none;visibility:visible;display:inline;overflow:visible;enable-background:accumulate"
       id="rect3911"
       y="16"
       x="60"
       height="70.000008"
       width="1.9999903" />
    <rect
       style="opacity:0.16000001;color:#000000;fill:url(#linearGradient3917);fill-opacity:1;fill-rule:nonzero;stroke:none;stroke-width:2;marker:none;visibility:visible;display:inline;overflow:visible;enable-background:accumulate"
       id="rect3915"
       y="16"
       x="62"
       height="70.000008"
       width="1.9999903" />
    <rect
       style="opacity:0.07999998;color:#000000;fill:url(#linearGradient3921);fill-opacity:1;fill-rule:nonzero;stroke:none;stroke-width:2;marker:none;visibility:visible;display:inline;overflow:visible;enable-background:accumulate"
       id="rect3919"
       y="16"
       x="66"
       height="70.000008"
       width="1.9999903" />
    <rect
       style="opacity:0.2;color:#000000;fill:url(#linearGradient3925);fill-opacity:1;fill-rule:nonzero;stroke:none;stroke-width:2;marker:none;visibility:visible;display:inline;overflow:visible;enable-background:accumulate"
       id="rect3923"
       y="16"
       x="70"
       height="70.000008"
       width="1.9999903" />
    <rect
       style="opacity:0.15;color:#000000;fill:url(#radialGradient4244);fill-opacity:1;fill-rule:nonzero;stroke:none;stroke-width:2;marker:none;visibility:visible;display:inline;overflow:visible;enable-background:accumulate"
       id="rect3927"
       y="16"
       x="76"
       height="70.000008"
       width="1.9999903" />
    <rect
       style="opacity:0.12000002;color:#000000;fill:url(#radialGradient4240);fill-opacity:1;fill-rule:nonzero;stroke:none;stroke-width:2;marker:none;visibility:visible;display:inline;overflow:visible;enable-background:accumulate"
       id="rect3931"
       y="16"
       x="82"
       height="70.000008"
       width="1.9999903" />
    <rect
       style="opacity:0.06000001;color:#000000;fill:url(#radialGradient4238);fill-opacity:1;fill-rule:nonzero;stroke:none;stroke-width:2;marker:none;visibility:visible;display:inline;overflow:visible;enable-background:accumulate"
       id="rect3935"
       y="16"
       x="84"
       height="70.000008"
       width="1.9999903" />
    <rect
       style="opacity:0.1;color:#000000;fill:url(#linearGradient3941);fill-opacity:1;fill-rule:nonzero;stroke:none;stroke-width:2;marker:none;visibility:visible;display:inline;overflow:visible;enable-background:accumulate"
       id="rect3939"
       y="16"
       x="44"
       height="70.000008"
       width="1.9999903" />
    <rect
       style="opacity:0.2;color:#000000;fill:url(#linearGradient3945);fill-opacity:1;fill-rule:nonzero;stroke:none;stroke-width:2;marker:none;visibility:visible;display:inline;overflow:visible;enable-background:accumulate"
       id="rect3943"
       y="16"
       x="40"
       height="70.000008"
       width="1.9999903" />
    <rect
       style="opacity:0.15;color:#000000;fill:url(#linearGradient3949);fill-opacity:1;fill-rule:nonzero;stroke:none;stroke-width:2;marker:none;visibility:visible;display:inline;overflow:visible;enable-background:accumulate"
       id="rect3947"
       y="16"
       x="38"
       height="70.000008"
       width="1.9999903" />
    <rect
       style="opacity:0.1;color:#000000;fill:url(#linearGradient3953);fill-opacity:1;fill-rule:nonzero;stroke:none;stroke-width:2;marker:none;visibility:visible;display:inline;overflow:visible;enable-background:accumulate"
       id="rect3951"
       y="16"
       x="32"
       height="70.000008"
       width="1.9999903" />
    <rect
       style="opacity:0.16000001;color:#000000;fill:url(#linearGradient3957);fill-opacity:1;fill-rule:nonzero;stroke:none;stroke-width:2;marker:none;visibility:visible;display:inline;overflow:visible;enable-background:accumulate"
       id="rect3955"
       y="16"
       x="28"
       height="70.000008"
       width="1.9999903" />
    <rect
       style="opacity:0.1;color:#000000;fill:url(#linearGradient3961);fill-opacity:1;fill-rule:nonzero;stroke:none;stroke-width:2;marker:none;visibility:visible;display:inline;overflow:visible;enable-background:accumulate"
       id="rect3959"
       y="16"
       x="26"
       height="70.000008"
       width="1.9999903" />
    <rect
       style="opacity:0.06000001;color:#000000;fill:url(#linearGradient3965);fill-opacity:1;fill-rule:nonzero;stroke:none;stroke-width:2;marker:none;visibility:visible;display:inline;overflow:visible;enable-background:accumulate"
       id="rect3963"
       y="16"
       x="24"
       height="70.000008"
       width="1.9999903" />
    <rect
       style="opacity:0.2;color:#000000;fill:url(#radialGradient4250);fill-opacity:1;fill-rule:nonzero;stroke:none;stroke-width:2;marker:none;visibility:visible;display:inline;overflow:visible;enable-background:accumulate"
       id="rect3967"
       y="16"
       x="18"
       height="70.000008"
       width="1.9999903" />
    <rect
       style="opacity:0.15;color:#000000;fill:url(#radialGradient4248);fill-opacity:1;fill-rule:nonzero;stroke:none;stroke-width:2;marker:none;visibility:visible;display:inline;overflow:visible;enable-background:accumulate"
       id="rect3971"
       y="16"
       x="16"
       height="70.000008"
       width="1.9999903" />
    <rect
       style="opacity:0.15;color:#000000;fill:url(#radialGradient4246);fill-opacity:1;fill-rule:nonzero;stroke:none;stroke-width:2;marker:none;visibility:visible;display:inline;overflow:visible;enable-background:accumulate"
       id="rect3975"
       y="16"
       x="12"
       height="70.000008"
       width="1.9999903" />
    <rect
       style="opacity:0.1;color:#000000;fill:url(#radialGradient4236);fill-opacity:1;fill-rule:nonzero;stroke:none;stroke-width:2;marker:none;visibility:visible;display:inline;overflow:visible;enable-background:accumulate"
       id="rect3979"
       y="16"
       x="8"
       height="70.000008"
       width="1.9999903" />
    <rect
       style="opacity:0.05;color:#000000;fill:url(#linearGradient3985);fill-opacity:1;fill-rule:nonzero;stroke:none;stroke-width:2;marker:none;visibility:visible;display:inline;overflow:visible;enable-background:accumulate"
       id="rect3983"
       y="16"
       x="46"
       height="70.000008"
       width="1.9999903" />
    <rect
       style="opacity:0.05;color:#000000;fill:url(#radialGradient4242);fill-opacity:1;fill-rule:nonzero;stroke:none;stroke-width:2;marker:none;visibility:visible;display:inline;overflow:visible;enable-background:accumulate"
       id="rect3987"
       y="16"
       x="78"
       height="70.000008"
       width="1.9999903" />
  </g>
  <rect
     style="fill:url(#radialGradient3322);fill-opacity:1;fill-rule:evenodd;stroke:#505050;stroke-width:0.77664948;stroke-linecap:round;stroke-linejoin:round;stroke-miterlimit:4;stroke-dasharray:none;stroke-dashoffset:0;stroke-opacity:1"
     id="rect2573"
     y="7.0957837"
     x="5.9757686"
     ry="5.9795022"
     rx="4.921875"
     height="84.565414"
     width="85.076622" />
  <rect
     style="display:inline;overflow:visible;visibility:visible;opacity:0.2;fill:url(#linearGradient3316);fill-opacity:1;fill-rule:evenodd;stroke:none;stroke-width:1.00000012;stroke-linecap:butt;stroke-linejoin:miter;stroke-miterlimit:4;stroke-dasharray:none;stroke-dashoffset:0;stroke-opacity:1;marker:none;marker-start:none;marker-mid:none;marker-end:none"
     id="rect1436"
     y="21.189417"
     x="6.326591"
     ry="0"
     rx="0"
     height="3.4168584"
     width="84.375" />
  <path
     style="display:inline;overflow:visible;visibility:visible;fill:url(#linearGradient3311);fill-opacity:1;fill-rule:evenodd;stroke:url(#linearGradient3313);stroke-width:0.77499652;stroke-linecap:butt;stroke-linejoin:miter;stroke-miterlimit:4;stroke-dasharray:none;stroke-dashoffset:0;stroke-opacity:1;marker:none;marker-start:none;marker-mid:none;marker-end:none"
     id="rect2311"
     d="m 11.646889,7.0948754 c 0,0 74.37007,0.019572 74.37007,0.019572 2.95868,0 5.03619,2.8731724 5.03619,6.0525416 0,0 0,7.595324 0,7.595324 0,0 -85.0781298,0 -85.0781298,0 0,0 -1e-5,-7.595324 -1e-5,-7.595324 0,-3.3887953 2.28536,-6.0721073 5.6718798,-6.0721073 z" />
  <rect
     style="opacity:0.4;fill:none;fill-opacity:1;fill-rule:evenodd;stroke:url(#linearGradient3308);stroke-width:0.77788836;stroke-linecap:round;stroke-linejoin:round;stroke-miterlimit:4;stroke-dasharray:none;stroke-dashoffset:0;stroke-opacity:1"
     id="rect2601"
     y="7.9507256"
     x="6.6794581"
     ry="5.1252875"
     rx="4.21875"
     height="82.855606"
     width="83.669243" />
  <g
     style="display:inline"
     id="layer6"
     transform="translate(-0.04523781,3.9280908)">
    <g
       style="display:inline"
       id="layer3-0"
       transform="matrix(0.30769231,0,0,0.30769231,81.637095,7.3395455)">
      <path
         style="display:inline;fill:#bebebe;fill-opacity:1;stroke:none"
         id="path2892"
         transform="translate(0.4642613,2.999982)"
         d="M 8,2 C 4.1340071,2 1,4.4101491 1,8 c 0,3.589851 3.1340071,6 7,6 1.064957,0 2.065093,-0.229965 2.96875,-0.625 L 15,15 13.5625,11.4375 C 14.465672,10.342799 15,9.485565 15,8 15,4.4101491 11.865993,2 8,2 Z" />
    </g>
    <path
       style="display:inline;fill:#bebebe;fill-opacity:1"
       id="f-script-path"
       d="m 17.724579,9.1678378 c -0.750941,-0.781137 -1.968366,-0.781097 -2.719282,1.6e-5 -2.64e-4,2.72e-4 -5.89e-4,6.24e-4 -9.23e-4,8e-4 L 14.284755,9.9172116 13.567361,9.1709738 c -1.06e-4,-1.12e-4 -1.06e-4,-1.12e-4 -1.77e-4,-1.84e-4 -0.750918,-0.781121 -1.965381,-0.784161 -2.71625,-0.0032 -0.750986,0.7811848 -0.750979,2.0475702 -8.4e-5,2.8286592 0.750825,0.781025 1.968251,0.781033 2.719236,-1.52e-4 2.88e-4,-3.04e-4 5.27e-4,-5.52e-4 9.23e-4,-8e-4 l 0.722603,-0.751662 0.717371,0.746222 c 1.63e-4,1.68e-4 2.25e-4,2.32e-4 3e-4,3.12e-4 0.750826,0.781017 1.962328,0.787185 2.713197,0.0064 0.750917,-0.781121 0.750932,-2.0475304 1.07e-4,-2.8285472 z M 12.926811,11.32993 c -0.396231,0.410986 -1.03812,0.41061 -1.434002,-8e-4 -0.396298,-0.412235 -0.399252,-1.083723 -0.0029,-1.4959734 0.396445,-0.4123858 1.047924,-0.4154978 1.444221,-0.0032 3.14e-4,3.36e-4 6.42e-4,6.72e-4 9.23e-4,8e-4 l 0.614894,0.6396214 c 2e-4,2.08e-4 3.12e-4,3.28e-4 4.62e-4,4.88e-4 0.05598,0.05824 0.05607,0.152581 1.76e-4,0.210714 -1.06e-4,1.12e-4 -1.76e-4,4e-5 -3.26e-4,2e-4 l -0.623405,0.648478 -2.2e-5,-2.4e-5 z m 2.717492,0.0016 c -2.25e-4,-2.32e-4 -4.63e-4,-4.8e-4 -7.06e-4,-7.28e-4 L 15.02832,10.690725 c -1.38e-4,-1.44e-4 -3.01e-4,-3.12e-4 -3.62e-4,-3.84e-4 -0.05598,-0.05824 -0.05598,-0.152437 4.8e-5,-0.210714 l 2.3e-5,-2.4e-5 0.620397,-0.6453504 c 0.396567,-0.4111138 1.038235,-0.4107218 1.434141,8e-4 0.396297,0.4122354 0.399297,1.0838274 0.0029,1.4961414 -0.39633,0.412274 -1.044894,0.41221 -1.44119,-2.4e-5 z" />
    <path
       style="font-style:normal;font-variant:normal;font-weight:bold;font-stretch:normal;font-size:5.21092367px;line-height:125%;font-family:Ubuntu;-inkscape-font-specification:'Ubuntu Bold';text-align:start;letter-spacing:0px;word-spacing:0px;writing-mode:lr-tb;text-anchor:start;fill:#bebebe;fill-opacity:1;stroke:none"
       id="path4195"
       d="m 37.389571,11.961902 c 0.114639,10e-7 0.208435,-0.0087 0.28139,-0.02605 0.07643,-0.02084 0.137219,-0.0469 0.182382,-0.07816 0.04516,-0.03474 0.07643,-0.07469 0.0938,-0.119852 0.01737,-0.04516 0.02605,-0.09553 0.02605,-0.151116 -2e-6,-0.118114 -0.05559,-0.215384 -0.166749,-0.291812 -0.111168,-0.0799 -0.302235,-0.165011 -0.573202,-0.255335 -0.118115,-0.04169 -0.236229,-0.08858 -0.354343,-0.140695 -0.118115,-0.05558 -0.22407,-0.123324 -0.317866,-0.203226 -0.0938,-0.08337 -0.170224,-0.182381 -0.229281,-0.297023 -0.05906,-0.118112 -0.08859,-0.260544 -0.08859,-0.4272964 -10e-7,-0.166747 0.03126,-0.316126 0.0938,-0.4481392 0.06253,-0.1354808 0.151116,-0.250121 0.265757,-0.343921 0.11464,-0.093793 0.253598,-0.165009 0.416874,-0.2136478 0.163275,-0.052106 0.347394,-0.07816 0.552358,-0.078164 0.243175,3.7e-6 0.453348,0.026058 0.630522,0.078164 0.177169,0.052113 0.323075,0.1094329 0.437717,0.1719605 l -0.234491,0.6409435 c -0.100747,-0.05211 -0.21365,-0.09727 -0.33871,-0.135484 -0.12159,-0.04168 -0.269233,-0.062528 -0.442929,-0.062531 -0.194542,3e-6 -0.335237,0.027795 -0.422084,0.083375 -0.08338,0.05211 -0.125064,0.13375 -0.125063,0.244913 -10e-7,0.06601 0.01563,0.1215914 0.0469,0.1667504 0.03126,0.04516 0.07469,0.08685 0.130273,0.125062 0.05906,0.03474 0.125061,0.06774 0.198015,0.09901 0.07643,0.02779 0.1598,0.05732 0.250124,0.08859 0.187592,0.06948 0.350867,0.13896 0.489827,0.208437 0.138956,0.06601 0.253596,0.144171 0.343921,0.234492 0.09379,0.09032 0.163273,0.196279 0.208437,0.317866 0.04516,0.12159 0.06774,0.269232 0.06774,0.442929 -3e-6,0.336973 -0.118117,0.599256 -0.354343,0.786849 -0.236231,0.184119 -0.59231,0.276179 -1.068239,0.276179 -0.159803,0 -0.303972,-0.01042 -0.432507,-0.03127 -0.128537,-0.01737 -0.243177,-0.03995 -0.343921,-0.06774 -0.09727,-0.02779 -0.182383,-0.05732 -0.255335,-0.08859 -0.06948,-0.03127 -0.128536,-0.06079 -0.177172,-0.08859 l 0.229281,-0.646155 c 0.107692,0.05906 0.239702,0.112905 0.39603,0.161539 0.159801,0.04516 0.354342,0.06774 0.583624,0.06774" />
    <path
       style="font-style:normal;font-variant:normal;font-weight:bold;font-stretch:normal;font-size:5.21092367px;line-height:125%;font-family:Ubuntu;-inkscape-font-specification:'Ubuntu Bold';text-align:start;letter-spacing:0px;word-spacing:0px;writing-mode:lr-tb;text-anchor:start;fill:#bebebe;fill-opacity:1;stroke:none"
       id="path4197"
       d="m 41.725222,12.488205 c -0.132013,0.03821 -0.302236,0.07295 -0.51067,0.104219 -0.208439,0.03474 -0.427298,0.05211 -0.656577,0.05211 -0.232756,0 -0.427297,-0.03126 -0.583623,-0.0938 -0.152855,-0.06253 -0.274443,-0.149379 -0.364765,-0.260546 -0.09032,-0.11464 -0.154591,-0.250124 -0.192804,-0.406452 -0.03821,-0.156327 -0.05732,-0.328287 -0.05732,-0.515881 l 0,-1.5268014 0.776427,0 0,1.4330044 c -1e-6,0.250126 0.033,0.430771 0.09901,0.541936 0.066,0.111167 0.189329,0.16675 0.369975,0.16675 0.05558,0 0.114639,-0.0017 0.177172,-0.0052 0.06253,-0.0069 0.118112,-0.01389 0.166749,-0.02084 l 0,-2.1156354 0.776428,0 0,2.6471494" />
    <path
       style="font-style:normal;font-variant:normal;font-weight:bold;font-stretch:normal;font-size:5.21092367px;line-height:125%;font-family:Ubuntu;-inkscape-font-specification:'Ubuntu Bold';text-align:start;letter-spacing:0px;word-spacing:0px;writing-mode:lr-tb;text-anchor:start;fill:#bebebe;fill-opacity:1;stroke:none"
       id="path4199"
       d="m 42.459148,9.9348526 c 0.13201,-0.03821 0.302233,-0.07295 0.510671,-0.104219 0.208436,-0.03474 0.427294,-0.05211 0.656576,-0.05211 0.232753,3e-6 0.425557,0.03127 0.578413,0.0938 0.156325,0.05906 0.27965,0.1441714 0.369975,0.2553354 0.09032,0.111169 0.154588,0.243179 0.192804,0.39603 0.03821,0.152856 0.05732,0.323079 0.05732,0.510671 l 0,1.547644 -0.776427,0 0,-1.453848 c -2e-6,-0.250122 -0.03301,-0.427294 -0.09901,-0.531514 -0.06601,-0.104216 -0.189332,-0.156325 -0.369975,-0.156328 -0.05559,3e-6 -0.114642,0.0035 -0.177172,0.01042 -0.06253,0.0035 -0.118115,0.0087 -0.166749,0.01563 l 0,2.115635 -0.776428,0 0,-2.6471494" />
    <g
       id="g4219"
       transform="translate(1.2876367,-0.41799839)">
      <path
         style="font-style:normal;font-variant:normal;font-weight:bold;font-stretch:normal;font-size:5.21092367px;line-height:125%;font-family:Ubuntu;-inkscape-font-specification:'Ubuntu Bold';text-align:start;letter-spacing:0px;word-spacing:0px;writing-mode:lr-tb;text-anchor:start;fill:#bebebe;fill-opacity:1;stroke:none"
         id="path4201"
         d="m 46.496985,10.139203 c 0.100744,-0.04168 0.204962,-0.08858 0.312655,-0.140695 0.111166,-0.05558 0.218858,-0.1146372 0.323078,-0.1771714 0.104217,-0.066002 0.203224,-0.1337438 0.297022,-0.2032261 0.09727,-0.072949 0.184118,-0.1493762 0.260546,-0.2292806 l 0.541937,0 0,3.6111701 -0.776428,0 0,-2.600251 c -0.10422,0.06948 -0.220597,0.13375 -0.349132,0.192804 -0.128537,0.05559 -0.253599,0.104221 -0.375187,0.145906 l -0.234491,-0.599256" />
      <path
         style="font-style:normal;font-variant:normal;font-weight:bold;font-stretch:normal;font-size:5.21092367px;line-height:125%;font-family:Ubuntu;-inkscape-font-specification:'Ubuntu Bold';text-align:start;letter-spacing:0px;word-spacing:0px;writing-mode:lr-tb;text-anchor:start;fill:#bebebe;fill-opacity:1;stroke:none"
         id="path4203"
         d="m 50.281988,13.078164 c -0.0938,0 -0.192805,-0.0069 -0.297022,-0.02084 -0.104219,-0.01042 -0.204964,-0.02605 -0.302234,-0.0469 -0.09727,-0.02084 -0.185856,-0.04342 -0.265757,-0.06774 -0.0799,-0.02432 -0.142432,-0.0469 -0.187593,-0.06774 l 0.151117,-0.646155 c 0.09032,0.03821 0.204962,0.0799 0.343921,0.125062 0.142431,0.04169 0.317865,0.06253 0.526303,0.06253 0.239701,0 0.415135,-0.04516 0.526303,-0.135484 0.111165,-0.09032 0.166748,-0.21191 0.16675,-0.364765 -2e-6,-0.0938 -0.02085,-0.171959 -0.06253,-0.234492 -0.03822,-0.066 -0.09206,-0.118113 -0.161539,-0.156327 -0.06948,-0.04169 -0.152855,-0.06948 -0.250124,-0.08338 -0.0938,-0.01737 -0.194543,-0.02605 -0.302234,-0.02605 l -0.302233,0 0,-0.625311 0.34392,0 c 0.07643,3e-6 0.149379,-0.0069 0.218859,-0.02084 0.07295,-0.01389 0.13722,-0.03647 0.192804,-0.06774 0.05558,-0.03474 0.09901,-0.0799 0.130274,-0.135484 0.03474,-0.05906 0.05211,-0.132008 0.05211,-0.218859 -2e-6,-0.066 -0.0139,-0.123323 -0.04169,-0.171961 -0.02779,-0.04863 -0.06427,-0.08858 -0.109429,-0.119851 -0.04169,-0.03126 -0.09206,-0.05384 -0.151117,-0.067742 -0.05558,-0.017367 -0.112904,-0.026052 -0.17196,-0.026055 -0.149381,3e-6 -0.288339,0.022584 -0.416874,0.067742 -0.125063,0.04516 -0.239703,0.100747 -0.343921,0.166749 L 49.291913,9.6285324 c 0.05558,-0.034736 0.119851,-0.071212 0.192804,-0.1094294 0.07643,-0.03821 0.159801,-0.072949 0.250124,-0.1042185 0.09032,-0.031262 0.185856,-0.057316 0.286601,-0.078164 0.104218,-0.02084 0.213647,-0.031262 0.328288,-0.031266 0.21191,3.7e-6 0.394292,0.026058 0.547147,0.078164 0.156326,0.048639 0.284862,0.1198547 0.385609,0.2136478 0.100742,0.090326 0.175432,0.1980183 0.224069,0.3230773 0.04863,0.1215904 0.07295,0.2553384 0.07295,0.4012404 -2e-6,0.142435 -0.03995,0.281393 -0.119851,0.416874 -0.0799,0.132012 -0.187595,0.232757 -0.323077,0.302234 0.187591,0.07643 0.33176,0.191069 0.432507,0.343921 0.104215,0.149381 0.156325,0.330026 0.156327,0.541936 -2e-6,0.16675 -0.02779,0.321341 -0.08338,0.463772 -0.05558,0.138958 -0.142434,0.260546 -0.260546,0.364765 -0.118116,0.100745 -0.269233,0.180645 -0.45335,0.239702 -0.180647,0.05558 -0.396032,0.08337 -0.646155,0.08337" />
      <path
         style="font-style:normal;font-variant:normal;font-weight:bold;font-stretch:normal;font-size:5.21092367px;line-height:125%;font-family:Ubuntu;-inkscape-font-specification:'Ubuntu Bold';text-align:start;letter-spacing:0px;word-spacing:0px;writing-mode:lr-tb;text-anchor:start;fill:#bebebe;fill-opacity:1;stroke:none"
         id="path4205"
         d="m 53.181134,10.738459 c -10e-7,0.15633 -0.05037,0.276181 -0.151117,0.359554 -0.09727,0.0799 -0.208438,0.119853 -0.333499,0.119851 -0.125063,2e-6 -0.237966,-0.03995 -0.33871,-0.119851 -0.09727,-0.08337 -0.145906,-0.203224 -0.145906,-0.359554 0,-0.156325 0.04863,-0.274439 0.145906,-0.354343 0.100744,-0.08337 0.213647,-0.125059 0.33871,-0.125062 0.125061,3e-6 0.236228,0.04169 0.333499,0.125062 0.100744,0.0799 0.151116,0.198018 0.151117,0.354343 m 0,1.849878 c -10e-7,0.156328 -0.05037,0.276179 -0.151117,0.359554 -0.09727,0.0799 -0.208438,0.119851 -0.333499,0.119851 -0.125063,0 -0.237966,-0.03995 -0.33871,-0.119851 -0.09727,-0.08338 -0.145906,-0.203226 -0.145906,-0.359554 0,-0.156327 0.04863,-0.274441 0.145906,-0.354343 0.100744,-0.08337 0.213647,-0.125061 0.33871,-0.125062 0.125061,1e-6 0.236228,0.04169 0.333499,0.125062 0.100744,0.0799 0.151116,0.198016 0.151117,0.354343" />
      <path
         style="font-style:normal;font-variant:normal;font-weight:bold;font-stretch:normal;font-size:5.21092367px;line-height:125%;font-family:Ubuntu;-inkscape-font-specification:'Ubuntu Bold';text-align:start;letter-spacing:0px;word-spacing:0px;writing-mode:lr-tb;text-anchor:start;fill:#bebebe;fill-opacity:1;stroke:none"
         id="path4207"
         d="m 54.52604,13.078164 c -0.0938,0 -0.192805,-0.0069 -0.297022,-0.02084 -0.10422,-0.01042 -0.204964,-0.02605 -0.302234,-0.0469 -0.09727,-0.02084 -0.185857,-0.04342 -0.265757,-0.06774 -0.0799,-0.02432 -0.142432,-0.0469 -0.187593,-0.06774 l 0.151117,-0.646155 c 0.09032,0.03821 0.204962,0.0799 0.343921,0.125062 0.142431,0.04169 0.317865,0.06253 0.526303,0.06253 0.239701,0 0.415135,-0.04516 0.526303,-0.135484 0.111165,-0.09032 0.166748,-0.21191 0.16675,-0.364765 -2e-6,-0.0938 -0.02085,-0.171959 -0.06253,-0.234492 -0.03822,-0.066 -0.09206,-0.118113 -0.161539,-0.156327 -0.06948,-0.04169 -0.152855,-0.06948 -0.250124,-0.08338 -0.0938,-0.01737 -0.194543,-0.02605 -0.302234,-0.02605 l -0.302234,0 0,-0.625311 0.343921,0 c 0.07643,3e-6 0.149379,-0.0069 0.218859,-0.02084 0.07295,-0.01389 0.13722,-0.03647 0.192804,-0.06774 0.05558,-0.03474 0.09901,-0.0799 0.130273,-0.135484 0.03474,-0.05906 0.05211,-0.132008 0.05211,-0.218859 -2e-6,-0.066 -0.0139,-0.123323 -0.04169,-0.171961 -0.02779,-0.04863 -0.06427,-0.08858 -0.109429,-0.119851 -0.04169,-0.03126 -0.09206,-0.05384 -0.151117,-0.067742 -0.05558,-0.017367 -0.112904,-0.026052 -0.17196,-0.026055 -0.149381,3e-6 -0.288339,0.022584 -0.416874,0.067742 -0.125063,0.04516 -0.239703,0.100747 -0.343921,0.166749 L 53.535965,9.6285324 c 0.05558,-0.034736 0.119851,-0.071212 0.192804,-0.1094294 0.07643,-0.03821 0.159801,-0.072949 0.250124,-0.1042185 0.09032,-0.031262 0.185856,-0.057316 0.286601,-0.078164 0.104218,-0.02084 0.213647,-0.031262 0.328288,-0.031266 0.21191,3.7e-6 0.394292,0.026058 0.547147,0.078164 0.156326,0.048639 0.284862,0.1198547 0.385609,0.2136478 0.100742,0.090326 0.175432,0.1980183 0.224069,0.3230773 0.04863,0.1215904 0.07295,0.2553384 0.07295,0.4012404 -2e-6,0.142435 -0.03995,0.281393 -0.119851,0.416874 -0.0799,0.132012 -0.187595,0.232757 -0.323077,0.302234 0.187591,0.07643 0.33176,0.191069 0.432506,0.343921 0.104216,0.149381 0.156326,0.330026 0.156328,0.541936 -2e-6,0.16675 -0.02779,0.321341 -0.08337,0.463772 -0.05559,0.138958 -0.142434,0.260546 -0.260546,0.364765 -0.118116,0.100745 -0.269233,0.180645 -0.45335,0.239702 -0.180647,0.05558 -0.396032,0.08337 -0.646155,0.08337" />
      <path
         style="font-style:normal;font-variant:normal;font-weight:bold;font-stretch:normal;font-size:5.21092367px;line-height:125%;font-family:Ubuntu;-inkscape-font-specification:'Ubuntu Bold';text-align:start;letter-spacing:0px;word-spacing:0px;writing-mode:lr-tb;text-anchor:start;fill:#bebebe;fill-opacity:1;stroke:none"
         id="path4209"
         d="m 57.039578,13 c 0.02084,-0.253598 0.06427,-0.517618 0.130274,-0.79206 0.066,-0.274441 0.145904,-0.543672 0.239702,-0.807694 0.09727,-0.264018 0.204962,-0.512405 0.323077,-0.745162 0.118113,-0.236226 0.237964,-0.439451 0.359554,-0.609678 l -1.568488,0 0,-0.661787 2.527298,0 0,0.5627797 c -0.111169,0.1215913 -0.234494,0.2900773 -0.369976,0.5054593 -0.132012,0.215388 -0.258811,0.460301 -0.380397,0.734741 -0.118116,0.270969 -0.222335,0.562781 -0.312655,0.875435 C 57.901116,12.37469 57.84727,12.687345 57.826428,13 l -0.78685,0" />
    </g>
    <g
       id="layer8"
       transform="translate(2.4859117,0.76682445)">
      <path
         style="display:block;overflow:visible;visibility:visible;opacity:0.05;fill:#000000;fill-opacity:1;fill-rule:nonzero;stroke:none;stroke-width:1;marker:none;enable-background:accumulate"
         id="path4367"
         d="m 42.069782,22.743296 c -2.81213,0 -5.03125,2.349265 -5.03125,5.09375 l 0,1.875 c -0.55805,0.208065 -1.11431,0.409088 -1.65625,0.65625 l -1.3125,-1.3125 c -0.81542,-0.815417 -2.04598,-1.518664 -3.53125,-1.53125 -1.30326,-0.01113 -2.60958,0.484578 -3.59375,1.46875 l -5.40625,5.40625 c -1.98399,1.98401 -1.84621,5.216073 0.0625,7.125 l 1.3125,1.3125 c -0.24716,0.541936 -0.44818,1.098196 -0.65625,1.65625 l -1.875,0 c -2.74449,0 -5.09375,2.219124 -5.09375,5.03125 l 0,7.625 c 0,2.812126 2.34926,5.03125 5.09375,5.03125 l 1.875,0 c 0.20807,0.558055 0.40909,1.114314 0.65625,1.65625 l -1.3125,1.3125 c -1.90889,1.908901 -2.04666,5.141029 -0.0625,7.125 l 5.40625,5.40625 c 1.98395,1.983966 5.21605,1.846454 7.125,-0.0625 l 1.3125,-1.3125 c 0.54194,0.247162 1.0982,0.448185 1.65625,0.65625 l 0,1.875 c 0,2.744481 2.21912,5.093751 5.03125,5.093751 l 7.625003,0 c 2.812123,0 5.03125,-2.34926 5.03125,-5.093751 l 0,-1.875 c 0.558055,-0.208065 1.114314,-0.409088 1.65625,-0.65625 l 1.3125,1.3125 c 1.908959,1.908964 5.141053,2.046443 7.125,0.0625 l 5.40625,-5.40625 c 1.983992,-1.984009 1.846223,-5.216074 -0.0625,-7.125 l -1.3125,-1.3125 c 0.247162,-0.541935 0.448185,-1.098194 0.65625,-1.65625 l 1.875,0 c 2.744481,0 5.09375,-2.219118 5.09375,-5.03125 l 0,-7.625 c 0,-2.812131 -2.349267,-5.03125 -5.09375,-5.03125 l -1.875,0 c -0.208065,-0.558056 -0.409088,-1.114314 -0.65625,-1.65625 l 1.3125,-1.3125 c 1.908886,-1.908892 2.046695,-5.141025 0.0625,-7.125 l -5.40625,-5.40625 c -1.983947,-1.983938 -5.21604,-1.846464 -7.125,0.0625 l -1.3125,1.3125 c -0.541936,-0.247162 -1.098195,-0.448185 -1.65625,-0.65625 l 0,-1.875 c 0,-2.744491 -2.219127,-5.09375 -5.03125,-5.09375 l -7.625003,0 z m 3.812503,19.6875 c 6.075308,0 10.90625,4.830942 10.90625,10.90625 0,6.075308 -4.830942,10.90625 -10.90625,10.90625 -6.075313,0 -10.906253,-4.830942 -10.906253,-10.90625 0,-6.075308 4.83094,-10.90625 10.906253,-10.90625 z" />
      <path
         style="display:block;overflow:visible;visibility:visible;opacity:0.07999998;fill:#000000;fill-opacity:1;fill-rule:nonzero;stroke:none;stroke-width:1;marker:none;enable-background:accumulate"
         id="path4363"
         d="m 42.069782,23.774546 c -2.2266,0 -4,1.88144 -4,4.0625 l 0,2.5625 c -1.01664,0.349685 -1.98732,0.744874 -2.9375,1.21875 l -1.8125,-1.8125 c -0.67148,-0.671474 -1.63482,-1.240285 -2.78125,-1.25 -1.02212,-0.0087 -2.05346,0.397209 -2.84375,1.1875 l -5.40625,5.40625 c -1.57033,1.570351 -1.45543,4.106901 0.0625,5.625 l 1.8125,1.8125 c -0.47387,0.950174 -0.86906,1.920858 -1.21875,2.9375 l -2.5625,0 c -2.18106,0 -4.0625,1.773399 -4.0625,4 l 0,7.625 c 0,2.226601 1.88144,4 4.0625,4 l 2.5625,0 c 0.34969,1.016643 0.74488,1.987326 1.21875,2.9375 l -1.8125,1.8125 c -1.51807,1.518078 -1.63297,4.054679 -0.0625,5.625 l 5.40625,5.40625 c 1.57031,1.570322 4.10688,1.455615 5.625,-0.0625 l 1.8125,-1.8125 c 0.95018,0.473877 1.92086,0.869066 2.9375,1.21875 l 0,2.5625 c 0,2.181061 1.7734,4.062501 4,4.062501 l 7.625003,0 c 2.226598,0 4,-1.88144 4,-4.062501 l 0,-2.5625 c 1.016644,-0.349684 1.987325,-0.744873 2.9375,-1.21875 l 1.8125,1.8125 c 1.518117,1.518121 4.054691,1.632806 5.625,0.0625 l 5.40625,-5.40625 c 1.570337,-1.570351 1.455437,-4.106902 -0.0625,-5.625 l -1.8125,-1.8125 c 0.473875,-0.950173 0.869065,-1.920855 1.21875,-2.9375 l 2.5625,0 c 2.181056,0 4.0625,-1.773393 4.0625,-4 l 0,-7.625 c 0,-2.226606 -1.881442,-4 -4.0625,-4 l -2.5625,0 C 68.4701,44.5079 68.074911,43.537219 67.601035,42.587046 l 1.8125,-1.8125 c 1.518067,-1.518072 1.632997,-4.054677 0.0625,-5.625 l -5.40625,-5.40625 c -1.570309,-1.570302 -4.106883,-1.45562 -5.625,0.0625 l -1.8125,1.8125 c -0.950175,-0.473876 -1.920856,-0.869065 -2.9375,-1.21875 l 0,-2.5625 c 0,-2.181066 -1.773402,-4.0625 -4,-4.0625 l -7.625003,0 z m 3.812503,17.625 c 6.630024,0 11.9375,5.307476 11.9375,11.9375 0,6.630024 -5.307476,11.9375 -11.9375,11.9375 -6.630023,0 -11.937503,-5.307476 -11.937503,-11.9375 0,-6.630024 5.30748,-11.9375 11.937503,-11.9375 z" />
      <path
         style="display:block;overflow:visible;visibility:visible;opacity:0.2;fill:#000000;fill-opacity:1;fill-rule:nonzero;stroke:none;stroke-width:1;marker:none;enable-background:accumulate"
         id="path4359"
         d="m 42.069782,24.805796 c -1.64964,0 -2.96875,1.39995 -2.96875,3.03125 l 0,3.21875 c -1.46185,0.450067 -2.86523,1.039291 -4.1875,1.75 l -2.3125,-2.28125 c -0.52527,-0.525266 -1.25012,-0.930616 -2.0625,-0.9375 -0.75932,-0.0065 -1.53048,0.280476 -2.125,0.875 l -5.40625,5.40625 c -1.16146,1.16147 -1.07458,3.050296 0.0625,4.1875 l 2.28125,2.3125 c -0.7107,1.322265 -1.29993,2.725645 -1.75,4.1875 l -3.21875,0 c -1.6313,0 -3.03125,1.319113 -3.03125,2.96875 l 0,7.625 c 0,1.649637 1.39995,2.96875 3.03125,2.96875 l 3.21875,0 c 0.45007,1.461856 1.0393,2.865236 1.75,4.1875 l -2.28125,2.3125 c -1.13718,1.137186 -1.22406,3.026052 -0.0625,4.1875 l 5.40625,5.40625 c 1.16145,1.161455 3.05029,1.074709 4.1875,-0.0625 l 2.3125,-2.28125 c 1.32227,0.71071 2.72565,1.299933 4.1875,1.75 l 0,3.21875 c 0,1.631301 1.31911,3.031251 2.96875,3.031251 l 7.625003,0 c 1.649634,0 2.96875,-1.39995 2.96875,-3.031251 l 0,-3.21875 c 1.461857,-0.450067 2.865233,-1.03929 4.1875,-1.75 l 2.3125,2.28125 c 1.137207,1.13721 3.026053,1.223945 4.1875,0.0625 l 5.40625,-5.40625 c 1.16146,-1.16147 1.074582,-3.050297 -0.0625,-4.1875 l -2.28125,-2.3125 c 0.710707,-1.322263 1.299931,-2.72564 1.75,-4.1875 l 3.21875,0 c 1.631297,0 3.03125,-1.319107 3.03125,-2.96875 l 0,-7.625 c 0,-1.649642 -1.399951,-2.96875 -3.03125,-2.96875 l -3.21875,0 c -0.450068,-1.461861 -1.039293,-2.865237 -1.75,-4.1875 l 2.28125,-2.3125 c 1.137179,-1.137183 1.224077,-3.026052 0.0625,-4.1875 l -5.40625,-5.40625 c -1.161447,-1.161442 -3.050293,-1.074709 -4.1875,0.0625 l -2.3125,2.28125 c -1.322266,-0.710709 -2.725643,-1.299933 -4.1875,-1.75 l 0,-3.21875 c 0,-1.631306 -1.319116,-3.03125 -2.96875,-3.03125 l -7.625003,0 z m 3.812503,15.5625 c 7.178426,0 12.96875,5.790324 12.96875,12.96875 0,7.178426 -5.790324,12.96875 -12.96875,12.96875 -7.178423,0 -12.968753,-5.790324 -12.968753,-12.96875 0,-7.178426 5.79033,-12.96875 12.968753,-12.96875 z" />
      <path
         style="display:block;overflow:visible;visibility:visible;opacity:0.3;fill:#000000;fill-opacity:1;fill-rule:nonzero;stroke:none;stroke-width:1;marker:none;enable-background:accumulate"
         id="path4353"
         d="m 42.069782,25.837046 c -1.08226,0 -1.9375,0.899245 -1.9375,2 l 0,3.875 c -1.93514,0.515597 -3.77694,1.297312 -5.46875,2.28125 l -2.78125,-2.75 c -0.38918,-0.389176 -0.84011,-0.620732 -1.34375,-0.625 -0.50363,-0.0043 -1.02362,0.179866 -1.40625,0.5625 l -5.40625,5.40625 c -0.76526,0.76527 -0.71576,1.971648 0.0625,2.75 l 2.75,2.78125 c -0.98393,1.691803 -1.76564,3.533599 -2.28125,5.46875 l -3.875,0 c -1.10075,0 -2,0.855244 -2,1.9375 l 0,7.625 c 0,1.082256 0.89925,1.9375 2,1.9375 l 3.875,0 c 0.51561,1.935152 1.29732,3.776947 2.28125,5.46875 l -2.75,2.78125 c -0.77835,0.77835 -0.82784,1.984729 -0.0625,2.75 l 5.40625,5.40625 c 0.76526,0.76527 1.97165,0.715847 2.75,-0.0625 l 2.78125,-2.75 c 1.69181,0.983939 3.53361,1.765652 5.46875,2.28125 l 0,3.875 c 0,1.100754 0.85524,2.000001 1.9375,2.000001 l 7.625003,0 c 1.082252,0 1.9375,-0.899247 1.9375,-2.000001 l 0,-3.875 c 1.935147,-0.515598 3.776941,-1.297311 5.46875,-2.28125 l 2.78125,2.75 c 0.778348,0.77835 1.984727,0.827772 2.75,0.0625 l 5.40625,-5.40625 c 0.765263,-0.76527 0.715767,-1.97165 -0.0625,-2.75 l -2.75,-2.78125 c 0.983933,-1.691803 1.765651,-3.533598 2.28125,-5.46875 l 3.875,0 c 1.100744,0 2,-0.855243 2,-1.9375 l 0,-7.625 c 0,-1.082255 -0.899256,-1.9375 -2,-1.9375 l -3.875,0 c -0.515595,-1.935151 -1.297317,-3.776947 -2.28125,-5.46875 l 2.75,-2.78125 c 0.778348,-0.778351 0.827855,-1.98473 0.0625,-2.75 l -5.40625,-5.40625 c -0.765273,-0.76527 -1.971652,-0.715849 -2.75,0.0625 l -2.78125,2.75 c -1.691809,-0.983938 -3.533603,-1.765653 -5.46875,-2.28125 l 0,-3.875 c 0,-1.100755 -0.855248,-2 -1.9375,-2 l -7.625003,0 z m 3.812503,13.5 c 7.731986,0 14,6.268014 14,14 0,7.731986 -6.268014,14 -14,14 -7.731983,0 -14.000003,-6.268014 -14.000003,-14 0,-7.731986 6.26802,-14 14.000003,-14 z" />
      <path
         style="display:block;overflow:visible;visibility:visible;fill:url(#linearGradient3141);fill-opacity:1;fill-rule:nonzero;stroke:none;stroke-width:1;marker:none;enable-background:accumulate"
         id="rect3267"
         d="m 42.069782,24.837046 c -1.08226,0 -1.9375,0.899245 -1.9375,2 l 0,3.875 c -1.93514,0.515597 -3.77694,1.297312 -5.46875,2.28125 l -2.78125,-2.75 c -0.38918,-0.389176 -0.84011,-0.620732 -1.34375,-0.625 -0.50363,-0.0043 -1.02362,0.179866 -1.40625,0.5625 l -5.40625,5.40625 c -0.76526,0.76527 -0.71576,1.971648 0.0625,2.75 l 2.75,2.78125 c -0.98393,1.691803 -1.76564,3.533599 -2.28125,5.46875 l -3.875,0 c -1.10075,0 -2,0.855244 -2,1.9375 l 0,7.625 c 0,1.082256 0.89925,1.9375 2,1.9375 l 3.875,0 c 0.51561,1.935152 1.29732,3.776947 2.28125,5.46875 l -2.75,2.78125 c -0.77835,0.77835 -0.82784,1.984729 -0.0625,2.75 l 5.40625,5.40625 c 0.76526,0.76527 1.97165,0.715847 2.75,-0.0625 l 2.78125,-2.75 c 1.69181,0.983939 3.53361,1.765652 5.46875,2.28125 l 0,3.875 c 0,1.100754 0.85524,2 1.9375,2 l 7.625003,0 c 1.082252,0 1.9375,-0.899246 1.9375,-2 l 0,-3.875 c 1.935147,-0.515598 3.776941,-1.297311 5.46875,-2.28125 l 2.78125,2.75 c 0.778348,0.77835 1.984727,0.827772 2.75,0.0625 l 5.40625,-5.40625 c 0.765263,-0.76527 0.715767,-1.97165 -0.0625,-2.75 l -2.75,-2.78125 c 0.983933,-1.691803 1.765651,-3.533598 2.28125,-5.46875 l 3.875,0 c 1.100744,0 2,-0.855243 2,-1.9375 l 0,-7.625 c 0,-1.082255 -0.899256,-1.9375 -2,-1.9375 l -3.875,0 c -0.515595,-1.935151 -1.297317,-3.776947 -2.28125,-5.46875 l 2.75,-2.78125 c 0.778348,-0.778351 0.827855,-1.98473 0.0625,-2.75 l -5.40625,-5.40625 c -0.765273,-0.76527 -1.971652,-0.715849 -2.75,0.0625 l -2.78125,2.75 c -1.691809,-0.983938 -3.533603,-1.765653 -5.46875,-2.28125 l 0,-3.875 c 0,-1.100755 -0.855248,-2 -1.9375,-2 l -7.625003,0 z m 3.812503,13.5 c 7.731986,0 14,6.268014 14,14 0,7.731986 -6.268014,14 -14,14 -7.731983,0 -14.000003,-6.268014 -14.000003,-14 0,-7.731986 6.26802,-14 14.000003,-14 z" />
      <g
         style="display:inline"
         id="g4176"
         clip-path="url(#clipPath4403)"
         transform="matrix(0.8660254,0.5,-0.5,0.8660254,83.281035,-108.37543)">
        <g
           style="opacity:0.9"
           id="g4011"
           transform="matrix(0.1413721,0.99271966,-1.1651755,0.12044784,96.937266,104.80532)">
          <path
             style="color:#000000;display:inline;overflow:visible;visibility:visible;opacity:0.05;fill:url(#linearGradient4213);fill-opacity:1;fill-rule:nonzero;stroke:none;stroke-width:2;marker:none;enable-background:accumulate"
             id="path4009"
             transform="matrix(0.99411049,-0.1083712,0.1083712,0.99411049,-5.1582185,5.4918915)"
             d="m 108.8959,48 a 60.895905,60.895905 0 0 1 -6.54616,27.466658 L 48,48 Z" />
          <path
             style="color:#000000;display:inline;overflow:visible;visibility:visible;opacity:0.07000002;fill:url(#linearGradient4215);fill-opacity:1;fill-rule:nonzero;stroke:none;stroke-width:2;marker:none;enable-background:accumulate"
             id="path4007"
             transform="matrix(0.99786084,-0.06537382,0.06537382,0.99786084,-3.0940115,3.2415713)"
             d="m 108.8959,48 a 60.895905,60.895905 0 0 1 -4.45721,22.86887 L 48,48 Z" />
          <path
             style="color:#000000;display:inline;overflow:visible;visibility:visible;opacity:0.1;fill:url(#linearGradient4217);fill-opacity:1;fill-rule:nonzero;stroke:none;stroke-width:2;marker:none;enable-background:accumulate"
             id="path4005"
             transform="matrix(0.99945136,-0.0331207,0.0331207,0.99945136,-1.5634586,1.6161281)"
             d="m 108.8959,48 a 60.895905,60.895905 0 0 1 -3.12994,19.271878 L 48,48 Z" />
          <path
             style="color:#000000;display:inline;overflow:visible;visibility:visible;opacity:0.05;fill:url(#linearGradient4219);fill-opacity:1;fill-rule:nonzero;stroke:none;stroke-width:2;marker:none;enable-background:accumulate"
             id="path4003"
             d="m 108.8959,48 a 60.895905,60.895905 0 0 1 -2.07497,15.76102 L 48,48 Z" />
        </g>
        <g
           style="opacity:0.9;fill:#ffffff"
           id="g4027"
           transform="matrix(1.062807,-0.13087531,-0.74010065,3.227468,32.525111,9.33226)">
          <path
             style="color:#000000;display:inline;overflow:visible;visibility:visible;opacity:0.2;fill:url(#linearGradient4221);fill-opacity:1;fill-rule:nonzero;stroke:none;stroke-width:2;marker:none;enable-background:accumulate"
             id="path4029"
             transform="matrix(0.99411049,-0.1083712,0.1083712,0.99411049,-5.1582185,5.4918915)"
             d="m 108.8959,48 a 60.895905,60.895905 0 0 1 -6.54616,27.466658 L 48,48 Z" />
          <path
             style="color:#000000;display:inline;overflow:visible;visibility:visible;opacity:0.4;fill:url(#linearGradient4223);fill-opacity:1;fill-rule:nonzero;stroke:none;stroke-width:2;marker:none;enable-background:accumulate"
             id="path4031"
             transform="matrix(0.99786084,-0.06537382,0.06537382,0.99786084,-3.0940115,3.2415713)"
             d="m 108.8959,48 a 60.895905,60.895905 0 0 1 -4.45721,22.86887 L 48,48 Z" />
          <path
             style="color:#000000;display:inline;overflow:visible;visibility:visible;opacity:0.6;fill:url(#linearGradient4225);fill-opacity:1;fill-rule:nonzero;stroke:none;stroke-width:2;marker:none;enable-background:accumulate"
             id="path4033"
             transform="matrix(0.99945136,-0.0331207,0.0331207,0.99945136,-1.5634586,1.6161281)"
             d="m 108.8959,48 a 60.895905,60.895905 0 0 1 -3.12994,19.271878 L 48,48 Z" />
          <path
             style="color:#000000;display:inline;overflow:visible;visibility:visible;opacity:0.8;fill:url(#linearGradient4227);fill-opacity:1;fill-rule:nonzero;stroke:none;stroke-width:2;marker:none;enable-background:accumulate"
             id="path4035"
             d="m 108.8959,48 a 60.895905,60.895905 0 0 1 -2.07497,15.76102 L 48,48 Z" />
        </g>
        <g
           style="opacity:0.5"
           id="g4079"
           transform="matrix(-0.61678932,0.78712829,-0.78712829,-0.61678932,115.00148,150.01193)">
          <path
             style="color:#000000;display:inline;overflow:visible;visibility:visible;opacity:0.05;fill:url(#linearGradient4229);fill-opacity:1;fill-rule:nonzero;stroke:none;stroke-width:2;marker:none;enable-background:accumulate"
             id="path4081"
             transform="matrix(0.99411049,-0.1083712,0.1083712,0.99411049,-5.1582185,5.4918915)"
             d="m 108.8959,48 a 60.895905,60.895905 0 0 1 -6.54616,27.466658 L 48,48 Z" />
          <path
             style="color:#000000;display:inline;overflow:visible;visibility:visible;opacity:0.07000002;fill:url(#linearGradient4231);fill-opacity:1;fill-rule:nonzero;stroke:none;stroke-width:2;marker:none;enable-background:accumulate"
             id="path4083"
             transform="matrix(0.99786084,-0.06537382,0.06537382,0.99786084,-3.0940115,3.2415713)"
             d="m 108.8959,48 a 60.895905,60.895905 0 0 1 -4.45721,22.86887 L 48,48 Z" />
          <path
             style="color:#000000;display:inline;overflow:visible;visibility:visible;opacity:0.1;fill:url(#linearGradient4233);fill-opacity:1;fill-rule:nonzero;stroke:none;stroke-width:2;marker:none;enable-background:accumulate"
             id="path4085"
             transform="matrix(0.99945136,-0.0331207,0.0331207,0.99945136,-1.5634586,1.6161281)"
             d="m 108.8959,48 a 60.895905,60.895905 0 0 1 -3.12994,19.271878 L 48,48 Z" />
          <path
             style="color:#000000;display:inline;overflow:visible;visibility:visible;opacity:0.1;fill:url(#linearGradient4235);fill-opacity:1;fill-rule:nonzero;stroke:none;stroke-width:2;marker:none;enable-background:accumulate"
             id="path4087"
             d="m 108.8959,48 a 60.895905,60.895905 0 0 1 -2.07497,15.76102 L 48,48 Z" />
        </g>
        <g
           style="opacity:0.8"
           id="g4097"
           transform="matrix(-0.06817198,-1.0460056,2.710673,0.60162586,-79.095447,179.08013)">
          <path
             style="color:#000000;display:inline;overflow:visible;visibility:visible;opacity:0.05;fill:url(#linearGradient4237);fill-opacity:1;fill-rule:nonzero;stroke:none;stroke-width:2;marker:none;enable-background:accumulate"
             id="path4099"
             transform="matrix(0.99411049,-0.1083712,0.1083712,0.99411049,-5.1582185,5.4918915)"
             d="m 108.8959,48 a 60.895905,60.895905 0 0 1 -6.54616,27.466658 L 48,48 Z" />
          <path
             style="color:#000000;display:inline;overflow:visible;visibility:visible;opacity:0.07000002;fill:url(#linearGradient4239);fill-opacity:1;fill-rule:nonzero;stroke:none;stroke-width:2;marker:none;enable-background:accumulate"
             id="path4101"
             transform="matrix(0.99786084,-0.06537382,0.06537382,0.99786084,-3.0940115,3.2415713)"
             d="m 108.8959,48 a 60.895905,60.895905 0 0 1 -4.45721,22.86887 L 48,48 Z" />
          <path
             style="color:#000000;display:inline;overflow:visible;visibility:visible;opacity:0.1;fill:url(#linearGradient4241);fill-opacity:1;fill-rule:nonzero;stroke:none;stroke-width:2;marker:none;enable-background:accumulate"
             id="path4103"
             transform="matrix(0.99945136,-0.0331207,0.0331207,0.99945136,-1.5634586,1.6161281)"
             d="m 108.8959,48 a 60.895905,60.895905 0 0 1 -3.12994,19.271878 L 48,48 Z" />
          <path
             style="color:#000000;display:inline;overflow:visible;visibility:visible;opacity:0.1;fill:url(#linearGradient4243);fill-opacity:1;fill-rule:nonzero;stroke:none;stroke-width:2;marker:none;enable-background:accumulate"
             id="path4105"
             d="m 108.8959,48 a 60.895905,60.895905 0 0 1 -2.07497,15.76102 L 48,48 Z" />
        </g>
        <g
           style="opacity:0.9;fill:#ffffff"
           id="g4147"
           transform="matrix(-1.062807,0.1308753,0.74010064,-3.227468,62.996694,306.66774)">
          <path
             style="color:#000000;display:inline;overflow:visible;visibility:visible;opacity:0.2;fill:url(#linearGradient4245);fill-opacity:1;fill-rule:nonzero;stroke:none;stroke-width:2;marker:none;enable-background:accumulate"
             id="path4149"
             transform="matrix(0.99411049,-0.1083712,0.1083712,0.99411049,-5.1582185,5.4918915)"
             d="m 108.8959,48 a 60.895905,60.895905 0 0 1 -6.54616,27.466658 L 48,48 Z" />
          <path
             style="color:#000000;display:inline;overflow:visible;visibility:visible;opacity:0.4;fill:url(#linearGradient4247);fill-opacity:1;fill-rule:nonzero;stroke:none;stroke-width:2;marker:none;enable-background:accumulate"
             id="path4151"
             transform="matrix(0.99786084,-0.06537382,0.06537382,0.99786084,-3.0940115,3.2415713)"
             d="m 108.8959,48 a 60.895905,60.895905 0 0 1 -4.45721,22.86887 L 48,48 Z" />
          <path
             style="color:#000000;display:inline;overflow:visible;visibility:visible;opacity:0.6;fill:url(#linearGradient4249);fill-opacity:1;fill-rule:nonzero;stroke:none;stroke-width:2;marker:none;enable-background:accumulate"
             id="path4153"
             transform="matrix(0.99945136,-0.0331207,0.0331207,0.99945136,-1.5634586,1.6161281)"
             d="m 108.8959,48 a 60.895905,60.895905 0 0 1 -3.12994,19.271878 L 48,48 Z" />
          <path
             style="color:#000000;display:inline;overflow:visible;visibility:visible;opacity:0.8;fill:url(#linearGradient4251);fill-opacity:1;fill-rule:nonzero;stroke:none;stroke-width:2;marker:none;enable-background:accumulate"
             id="path4155"
             d="m 108.8959,48 a 60.895905,60.895905 0 0 1 -2.07497,15.76102 L 48,48 Z" />
        </g>
      </g>
      <path
         style="display:block;overflow:visible;visibility:visible;opacity:0.7;fill:#ffffff;fill-opacity:1;fill-rule:nonzero;stroke:none;stroke-width:1;marker:none;enable-background:accumulate"
         id="path4382"
         d="m 42.069782,24.837046 c -1.08226,0 -1.9375,0.899245 -1.9375,2 l 0,1 c 0,-1.100755 0.85524,-2 1.9375,-2 l 7.625003,0 c 1.082252,0 1.9375,0.899245 1.9375,2 l 0,-1 c 0,-1.100755 -0.855248,-2 -1.9375,-2 l -7.625003,0 z m -11.53125,4.78125 c -0.50363,-0.0043 -1.02362,0.179866 -1.40625,0.5625 l -5.40625,5.40625 c -0.49644,0.496448 -0.6346,1.182061 -0.46875,1.8125 0.0841,-0.291632 0.23476,-0.578504 0.46875,-0.8125 l 5.40625,-5.40625 c 0.38263,-0.382634 0.90262,-0.5668 1.40625,-0.5625 0.50364,0.0043 0.95457,0.235824 1.34375,0.625 l 2.78125,2.75 c 1.69181,-0.983938 3.53361,-1.765653 5.46875,-2.28125 l 0,-1 c -1.93514,0.515597 -3.77694,1.297312 -5.46875,2.28125 l -2.78125,-2.75 c -0.38918,-0.389176 -0.84011,-0.620732 -1.34375,-0.625 z m 30.718753,0 c -0.494547,0.01399 -0.985826,0.235826 -1.375,0.625 l -2.78125,2.75 c -1.691809,-0.983938 -3.533603,-1.765653 -5.46875,-2.28125 l 0,1 c 1.935147,0.515597 3.776941,1.297312 5.46875,2.28125 l 2.78125,-2.75 c 0.778348,-0.778349 1.984727,-0.82777 2.75,-0.0625 l 5.40625,5.40625 c 0.234022,0.233996 0.38464,0.520868 0.46875,0.8125 0.165867,-0.630439 0.02775,-1.316052 -0.46875,-1.8125 l -5.40625,-5.40625 c -0.382637,-0.382635 -0.880453,-0.57649 -1.375,-0.5625 z m -35.062503,12.15625 c -0.81275,1.508863 -1.48756,3.123824 -1.9375,4.8125 l -3.875,0 c -1.10075,0 -2,0.855244 -2,1.9375 l 0,1 c 0,-1.082256 0.89925,-1.9375 2,-1.9375 l 3.875,0 c 0.51561,-1.935151 1.29732,-3.776947 2.28125,-5.46875 l -0.34375,-0.34375 z m 39.375003,0 -0.34375,0.34375 c 0.983933,1.691803 1.765655,3.533599 2.28125,5.46875 l 3.875,0 c 1.100744,0 2,0.855245 2,1.9375 l 0,-1 c 0,-1.082255 -0.899256,-1.9375 -2,-1.9375 l -3.875,0 c -0.449925,-1.688676 -1.124742,-3.303637 -1.9375,-4.8125 z m -33.656253,11.0625 c -0.006,0.16679 -0.0312,0.331775 -0.0312,0.5 0,7.731986 6.26802,14 14.000003,14 7.731986,0 14,-6.268014 14,-14 0,-0.168225 -0.02537,-0.33321 -0.03125,-0.5 -0.264589,7.499218 -6.404989,13.5 -13.96875,13.5 -7.563763,0 -13.704163,-6.000782 -13.968753,-13.5 z m -5.71875,11.0625 -2.40625,2.4375 c -0.54035,0.540355 -0.72221,1.275367 -0.53125,1.9375 0.0898,-0.341377 0.25784,-0.664083 0.53125,-0.9375 l 2.75,-2.78125 c -0.12532,-0.21548 -0.22512,-0.43602 -0.34375,-0.65625 z m 39.375003,0 c -0.118628,0.22023 -0.218429,0.44077 -0.34375,0.65625 l 2.75,2.78125 c 0.273388,0.273417 0.441444,0.596123 0.53125,0.9375 0.190945,-0.662133 0.009,-1.397145 -0.53125,-1.9375 l -2.40625,-2.4375 z" />
      <path
         style="display:block;overflow:visible;visibility:visible;opacity:0.2;fill:#000000;fill-opacity:1;fill-rule:nonzero;stroke:none;stroke-width:1;marker:none;enable-background:accumulate"
         id="path4391"
         d="m 23.257282,36.399546 c -0.19094,0.662133 -0.009,1.397144 0.53125,1.9375 l 2.40625,2.4375 c 0.11863,-0.22023 0.21843,-0.44077 0.34375,-0.65625 l -2.75,-2.78125 c -0.27338,-0.273417 -0.44144,-0.596123 -0.53125,-0.9375 z m 45.250003,0 c -0.08982,0.341377 -0.257834,0.664083 -0.53125,0.9375 l -2.75,2.78125 c 0.125321,0.21548 0.225122,0.43602 0.34375,0.65625 l 2.40625,-2.4375 c 0.540353,-0.540355 0.722218,-1.275367 0.53125,-1.9375 z m -22.625,0.9375 c -7.731983,0 -14.000003,6.268014 -14.000003,14 0,0.168225 0.0254,0.33321 0.0312,0.5 0.26459,-7.499218 6.40499,-13.5 13.968753,-13.5 7.563761,0 13.704161,6.000782 13.96875,13.5 0.0059,-0.16679 0.03125,-0.331775 0.03125,-0.5 0,-7.731986 -6.268014,-14 -14,-14 z m -27.500003,17.8125 0,1 c 0,1.082256 0.89925,1.9375 2,1.9375 l 3.875,0 c 0.44994,1.688677 1.12475,3.303637 1.9375,4.8125 l 0.34375,-0.34375 c -0.98393,-1.691803 -1.76564,-3.533598 -2.28125,-5.46875 l -3.875,0 c -1.10075,0 -2,-0.855244 -2,-1.9375 z m 55.000003,0 c 0,1.082257 -0.899256,1.9375 -2,1.9375 l -3.875,0 c -0.515599,1.935152 -1.297317,3.776947 -2.28125,5.46875 l 0.34375,0.34375 c 0.812757,-1.508863 1.487571,-3.123823 1.9375,-4.8125 l 3.875,0 c 1.100744,0 2,-0.855243 2,-1.9375 l 0,-1 z m -50.125003,12.125 c -0.16586,0.630439 -0.0277,1.316051 0.46875,1.8125 l 5.40625,5.40625 c 0.76526,0.76527 1.97165,0.715847 2.75,-0.0625 l 2.78125,-2.75 c 1.69181,0.983939 3.53361,1.765652 5.46875,2.28125 l 0,-1 c -1.93514,-0.515598 -3.77694,-1.297311 -5.46875,-2.28125 l -2.78125,2.75 c -0.77835,0.778347 -1.98474,0.82777 -2.75,0.0625 l -5.40625,-5.40625 c -0.23402,-0.233996 -0.38464,-0.520868 -0.46875,-0.8125 z m 45.250003,0 c -0.0841,0.291632 -0.234756,0.578504 -0.46875,0.8125 l -5.40625,5.40625 c -0.765273,0.765272 -1.971652,0.71585 -2.75,-0.0625 l -2.78125,-2.75 c -1.691809,0.983939 -3.533603,1.765652 -5.46875,2.28125 l 0,1 c 1.935147,-0.515598 3.776941,-1.297311 5.46875,-2.28125 l 2.78125,2.75 c 0.778348,0.77835 1.984727,0.827772 2.75,0.0625 l 5.40625,-5.40625 c 0.496443,-0.496448 0.634599,-1.182061 0.46875,-1.8125 z m -28.375003,9.5625 0,1 c 0,1.100754 0.85524,2 1.9375,2 l 7.625003,0 c 1.082252,0 1.9375,-0.899246 1.9375,-2 l 0,-1 c 0,1.100754 -0.855248,2 -1.9375,2 l -7.625003,0 c -1.08226,0 -1.9375,-0.899246 -1.9375,-2 z" />
    </g>
  </g>
</svg>
