<?xml version="1.0" encoding="UTF-8" standalone="no"?>
<svg
   xmlns:dc="http://purl.org/dc/elements/1.1/"
   xmlns:cc="http://creativecommons.org/ns#"
   xmlns:rdf="http://www.w3.org/1999/02/22-rdf-syntax-ns#"
   xmlns:svg="http://www.w3.org/2000/svg"
   xmlns="http://www.w3.org/2000/svg"
   xmlns:sodipodi="http://sodipodi.sourceforge.net/DTD/sodipodi-0.dtd"
   xmlns:inkscape="http://www.inkscape.org/namespaces/inkscape"
   width="16"
   height="16"
   version="1.1"
   id="svg7"
   sodipodi:docname="desktop-symbolic.svg"
   inkscape:version="0.92.2 2405546, 2018-03-11">
  <metadata
     id="metadata11">
    <rdf:RDF>
      <cc:Work
         rdf:about="">
        <dc:format>image/svg+xml</dc:format>
        <dc:type
           rdf:resource="http://purl.org/dc/dcmitype/StillImage" />
        <dc:title />
      </cc:Work>
    </rdf:RDF>
  </metadata>
  <sodipodi:namedview
     pagecolor="#ffffff"
     bordercolor="#666666"
     borderopacity="1"
     objecttolerance="10"
     gridtolerance="10"
     guidetolerance="10"
     inkscape:pageopacity="0"
     inkscape:pageshadow="2"
     inkscape:window-width="1920"
     inkscape:window-height="1010"
     id="namedview9"
     showgrid="false"
     inkscape:zoom="22.627416"
     inkscape:cx="-3.9766901"
     inkscape:cy="3.0773455"
     inkscape:window-x="0"
     inkscape:window-y="32"
     inkscape:window-maximized="1"
     inkscape:current-layer="svg7" />
  <defs
     id="defs3">
    <style
       id="current-color-scheme"
       type="text/css">
   .ColorScheme-Text { color:#5c616c; } .ColorScheme-Highlight { color:#5294e2; }
  </style>
  </defs>
  <path
     style="color:#5c616c;fill:#bebebe;fill-opacity:1"
     d="M 1,1 C 0.46125376,1 0,1.4483959 0,2 V 3 H 16 V 2 C 16,1.4930492 15.531139,1 15,1 Z m 2,10 v 3 1 h 10 v -1 -3 z m 1,1 h 2 v 2 H 4 Z m 3,0 h 2 v 1 1 H 7 v -1 z m 3,0 h 2 v 1 1 h -2 v -1 z"
     id="path5"
     inkscape:connector-curvature="0"
     sodipodi:nodetypes="ssccssscccccccccccccccccccccccacc" />
  <path
     inkscape:connector-curvature="0"
     style="color:#5c616c;fill:#bebebe;fill-opacity:1"
     d="M 0,3.9999998 V 14 c 0.01273,0.57189 0.439827,1 1,1 H 2 V 9.9999998 h 1 10 1 V 15 h 1 c 0.523046,0 0.995785,-0.498079 1,-1 V 3.9999998 Z"
     id="path5-3"
     sodipodi:nodetypes="ccsccccccsccc" />
</svg>
