<?xml version="1.0" encoding="UTF-8" standalone="no"?>
<svg
   xmlns:dc="http://purl.org/dc/elements/1.1/"
   xmlns:cc="http://creativecommons.org/ns#"
   xmlns:rdf="http://www.w3.org/1999/02/22-rdf-syntax-ns#"
   xmlns:svg="http://www.w3.org/2000/svg"
   xmlns="http://www.w3.org/2000/svg"
   xmlns:xlink="http://www.w3.org/1999/xlink"
   version="1.0"
   width="16"
   height="16"
   id="svg2408"
   style="display:inline">
  <defs
     id="defs2410">
    <linearGradient
       id="linearGradient1054">
      <stop
         offset="0"
         style="stop-color:#162d50;stop-opacity:1"
         id="stop1048" />
      <stop
         offset="0.2"
         style="stop-color:#78aaf5;stop-opacity:1"
         id="stop1050" />
      <stop
         offset="1"
         style="stop-color:#2d5da5;stop-opacity:0"
         id="stop1052" />
    </linearGradient>
    <linearGradient
       id="linearGradient3329">
      <stop
         id="stop3331"
         style="stop-color:#3a73c9;stop-opacity:1"
         offset="0" />
      <stop
         id="stop3333"
         style="stop-color:#aac3e7;stop-opacity:1"
         offset="1" />
    </linearGradient>
    <linearGradient
       id="linearGradient3321">
      <stop
         id="stop3323"
         style="stop-color:#162d50;stop-opacity:1"
         offset="0" />
      <stop
         id="stop3325"
         style="stop-color:#78aaf5;stop-opacity:1"
         offset="0.2" />
      <stop
         id="stop3327"
         style="stop-color:#2d5da5;stop-opacity:0"
         offset="1" />
    </linearGradient>
    <linearGradient
       id="linearGradient3315">
      <stop
         id="stop3317"
         style="stop-color:#264f8d;stop-opacity:1"
         offset="0" />
      <stop
         id="stop3319"
         style="stop-color:#4a7fce;stop-opacity:1"
         offset="1" />
    </linearGradient>
    <linearGradient
       id="linearGradient3604">
      <stop
         id="stop3606"
         style="stop-color:#2f2f2f;stop-opacity:1"
         offset="0" />
      <stop
         id="stop3608"
         style="stop-color:#ffffff;stop-opacity:1"
         offset="0.43731192" />
      <stop
         id="stop3610"
         style="stop-color:#979797;stop-opacity:1"
         offset="0.62138397" />
      <stop
         id="stop3612"
         style="stop-color:#505050;stop-opacity:1"
         offset="0.7723214" />
      <stop
         id="stop3614"
         style="stop-color:#e6e6e6;stop-opacity:1"
         offset="1" />
    </linearGradient>
    <linearGradient
       id="linearGradient3435">
      <stop
         id="stop3437"
         style="stop-color:#ededed;stop-opacity:1"
         offset="0" />
      <stop
         id="stop3439"
         style="stop-color:#b0b0b0;stop-opacity:1"
         offset="1" />
    </linearGradient>
    <linearGradient
       id="linearGradient3354">
      <stop
         id="stop3356"
         style="stop-color:#b4b4b4;stop-opacity:1"
         offset="0" />
      <stop
         id="stop3362"
         style="stop-color:#646464;stop-opacity:1"
         offset="0.20467032" />
      <stop
         id="stop3364"
         style="stop-color:#ffffff;stop-opacity:1"
         offset="0.49567693" />
      <stop
         id="stop3358"
         style="stop-color:#3c3c3c;stop-opacity:1"
         offset="1" />
    </linearGradient>
    <linearGradient
       id="linearGradient3290">
      <stop
         id="stop3292"
         style="stop-color:#ffffff;stop-opacity:1"
         offset="0" />
      <stop
         id="stop3304"
         style="stop-color:#8c8c8c;stop-opacity:1"
         offset="0.48973215" />
      <stop
         id="stop3306"
         style="stop-color:#cfcfcf;stop-opacity:1"
         offset="0.50044644" />
      <stop
         id="stop3298"
         style="stop-color:#ffffff;stop-opacity:1"
         offset="0.62276787" />
      <stop
         id="stop3300"
         style="stop-color:#c8c8c8;stop-opacity:1"
         offset="0.81696427" />
      <stop
         id="stop3294"
         style="stop-color:#505050;stop-opacity:1"
         offset="1" />
    </linearGradient>
    <linearGradient
       id="linearGradient3199">
      <stop
         id="stop3201"
         style="stop-color:#3771c8;stop-opacity:1"
         offset="0" />
      <stop
         id="stop3203"
         style="stop-color:#afc6e9;stop-opacity:1"
         offset="1" />
    </linearGradient>
    <linearGradient
       x1="45.447727"
       y1="92.539597"
       x2="45.447727"
       y2="7.0165396"
       id="ButtonShadow"
       gradientUnits="userSpaceOnUse"
       gradientTransform="scale(1.0058652,0.994169)">
      <stop
         id="stop3750"
         style="stop-color:#000000;stop-opacity:1"
         offset="0" />
      <stop
         id="stop3752"
         style="stop-color:#000000;stop-opacity:0.58823532"
         offset="1" />
    </linearGradient>
    <linearGradient
       id="linearGradient3737">
      <stop
         id="stop3739"
         style="stop-color:#73a5ee;stop-opacity:1"
         offset="0" />
      <stop
         id="stop3741"
         style="stop-color:#abc3e7;stop-opacity:0"
         offset="1" />
    </linearGradient>
    <filter
       id="filter3174"
       style="color-interpolation-filters:sRGB">
      <feGaussianBlur
         id="feGaussianBlur3176"
         stdDeviation="1.71" />
    </filter>
    <linearGradient
       x1="19.035713"
       y1="74"
       x2="87.5"
       y2="27.428572"
       id="linearGradient3220"
       xlink:href="#linearGradient3737"
       gradientUnits="userSpaceOnUse"
       gradientTransform="translate(0,-1.2553978)" />
    <linearGradient
       x1="6"
       y1="73"
       x2="24"
       y2="73"
       id="linearGradient3234"
       xlink:href="#linearGradient3321"
       gradientUnits="userSpaceOnUse"
       gradientTransform="translate(0,-1.2553978)" />
    <linearGradient
       x1="6"
       y1="73"
       x2="24"
       y2="73"
       id="linearGradient3246"
       xlink:href="#linearGradient1054"
       gradientUnits="userSpaceOnUse"
       gradientTransform="matrix(-1,0,0,1,96,-1.2553978)" />
    <linearGradient
       x1="38.748035"
       y1="72.409348"
       x2="38.748035"
       y2="5.8331571"
       id="linearGradient3223"
       xlink:href="#linearGradient3199"
       gradientUnits="userSpaceOnUse"
       gradientTransform="translate(0,-1.2553978)" />
    <radialGradient
       cx="90"
       cy="90"
       r="42"
       fx="90"
       fy="90"
       id="radialGradient3229"
       xlink:href="#linearGradient3315"
       gradientUnits="userSpaceOnUse"
       gradientTransform="matrix(0,-1.085034,2,0,-90,186.39766)" />
    <clipPath
       id="clipPath3235">
      <path
         d="m 66,6 v 55 c 0,1.662 1.338,3 3,3 h 6 c 1.662,0 3,-1.338 3,-3 V 6 H 74 V 8 H 70 V 6 Z"
         id="path3237"
         style="fill:#ffffff;fill-opacity:1;fill-rule:nonzero;stroke:none" />
    </clipPath>
    <filter
       x="-0.16615385"
       y="-0.036610167"
       width="1.3323077"
       height="1.0732203"
       id="filter3243"
       style="color-interpolation-filters:sRGB">
      <feGaussianBlur
         id="feGaussianBlur3245"
         stdDeviation="0.9" />
    </filter>
    <linearGradient
       x1="68.75"
       y1="59"
       x2="75.25"
       y2="59"
       id="linearGradient3360"
       xlink:href="#linearGradient3354"
       gradientUnits="userSpaceOnUse"
       gradientTransform="matrix(0.49408989,0,0,0.70361229,2.1700948,30.047972)" />
    <linearGradient
       x1="69"
       y1="54"
       x2="73"
       y2="54"
       id="linearGradient3372"
       xlink:href="#linearGradient3290"
       gradientUnits="userSpaceOnUse"
       gradientTransform="translate(0,-1)" />
    <linearGradient
       x1="63.484772"
       y1="64.163078"
       x2="79"
       y2="65"
       id="linearGradient3393"
       xlink:href="#linearGradient3329"
       gradientUnits="userSpaceOnUse"
       gradientTransform="matrix(0.50000003,0,0,0.39766823,1.7445652,49.119427)" />
    <filter
       x="-0.16182838"
       y="-0.095353596"
       width="1.3236568"
       height="1.1907072"
       id="filter3429"
       style="color-interpolation-filters:sRGB">
      <feGaussianBlur
         id="feGaussianBlur3431"
         stdDeviation="0.53551312" />
    </filter>
    <linearGradient
       x1="68.96875"
       y1="17.5"
       x2="75.0625"
       y2="17.5"
       id="linearGradient3489"
       xlink:href="#linearGradient3435"
       gradientUnits="userSpaceOnUse"
       gradientTransform="matrix(-0.43495657,0,0,0.5232543,69.067063,47.346436)" />
    <linearGradient
       x1="68.02903"
       y1="17.763245"
       x2="75.97097"
       y2="17.763245"
       id="linearGradient3516"
       xlink:href="#linearGradient3435"
       gradientUnits="userSpaceOnUse"
       gradientTransform="matrix(0.43495657,0,0,0.5232543,6.419721,47.346436)" />
    <linearGradient
       x1="68.75"
       y1="59"
       x2="72.250572"
       y2="59"
       id="linearGradient3530"
       xlink:href="#linearGradient3354"
       gradientUnits="userSpaceOnUse"
       gradientTransform="matrix(0.56313458,0,0,0.50000003,-1.9564196,22.997622)" />
    <linearGradient
       x1="69"
       y1="54"
       x2="73"
       y2="54"
       id="linearGradient3602"
       xlink:href="#linearGradient3604"
       gradientUnits="userSpaceOnUse"
       gradientTransform="matrix(-1,0,0,1,144,-4)" />
    <clipPath
       id="clipPath3352">
      <path
         d="m 11.6875,64.375 c -2.216,0 -4,1.784 -4,4 v 33.6875 c 0,2.216 1.7839995,4 4,4 h 36.09375 c 2.216,0 4.000001,-1.784 4,-4 V 68.375 c 0,-2.216 -1.783999,-4 -4,-4 z M 18.5625,80 h 7.28125 v 1.90625 c -0.205135,0.352212 -0.433858,0.778115 -0.71875,1.28125 -0.273511,0.490577 -0.575773,1.015144 -0.90625,1.59375 -0.33049,0.578625 -0.697833,1.202249 -1.0625,1.84375 -0.364677,0.641516 -0.717686,1.295995 -1.09375,1.9375 -0.364676,0.641514 -0.748935,1.258652 -1.125,1.875 -0.376071,0.616355 -0.740476,1.177874 -1.09375,1.71875 H 26 V 94 h -8 v -1.96875 l 5,-8.71875 c 0.159539,-0.26414 0.289347,-0.498418 0.4375,-0.75 0.159538,-0.251561 0.329054,-0.529665 0.5,-0.78125 h -5.375 z M 28,80 h 1.8125 V 94 H 28 Z m 4,0 h 4.21875 c 0.440246,1.4e-5 0.847477,0.0122 1.25,0.0625 0.402509,0.03775 0.785371,0.130319 1.125,0.28125 0.339615,0.150957 0.64209,0.398204 0.90625,0.6875 0.276721,0.289321 0.498811,0.665695 0.6875,1.15625 0.125777,0.314476 0.230925,0.641715 0.28125,0.96875 0.05031,0.314475 0.06249,0.641717 0.0625,0.96875 -9e-6,0.528311 -0.06782,1.034206 -0.21875,1.5625 -0.138374,0.515731 -0.360463,0.997257 -0.6875,1.4375 -0.188688,0.264157 -0.466793,0.492735 -0.78125,0.65625 -0.314473,0.163528 -0.647806,0.274379 -1,0.375 -0.352208,0.08806 -0.697724,0.149768 -1.0625,0.1875 -0.352206,0.02516 -0.660776,0.06251 -0.9375,0.0625 H 33.8125 V 94 H 32 Z m 1.84375,1.78125 v 4.78125 h 2.09375 c 0.85534,7e-6 1.509425,-0.222477 2,-0.625 0.503137,-0.415086 0.781243,-1.020037 0.78125,-1.8125 -8e-6,-0.226406 -0.02477,-0.461073 -0.0625,-0.6875 -0.03774,-0.238983 -0.09946,-0.45498 -0.1875,-0.65625 C 38.380692,82.580003 38.263356,82.400955 38.125,82.25 37.986628,82.08649 37.826253,81.981733 37.625,81.90625 37.461472,81.843369 37.251566,81.812514 37,81.8125 36.761,81.79993 36.551095,81.78126 36.375,81.78125 Z"
         id="path3354"
         style="fill:#ffffff;fill-opacity:1;fill-rule:nonzero;stroke:none" />
    </clipPath>
    <linearGradient
       x1="45.447727"
       y1="92.539597"
       x2="45.447727"
       y2="7.0165396"
       id="ButtonShadow-0"
       gradientUnits="userSpaceOnUse"
       gradientTransform="matrix(1.0058652,0,0,0.994169,100,0)">
      <stop
         id="stop3750-8"
         style="stop-color:#000000;stop-opacity:1"
         offset="0" />
      <stop
         id="stop3752-5"
         style="stop-color:#000000;stop-opacity:0.58823532"
         offset="1" />
    </linearGradient>
    <linearGradient
       x1="32.251034"
       y1="6.1317081"
       x2="32.251034"
       y2="90.238609"
       id="linearGradient3780"
       xlink:href="#ButtonShadow-0"
       gradientUnits="userSpaceOnUse"
       gradientTransform="matrix(1.0238095,0,0,-1.0119048,-9.5121754,98.071429)" />
    <linearGradient
       x1="32.251034"
       y1="6.1317081"
       x2="32.251034"
       y2="90.238609"
       id="linearGradient3772"
       xlink:href="#ButtonShadow-0"
       gradientUnits="userSpaceOnUse"
       gradientTransform="matrix(1.0238095,0,0,-1.0119048,-9.5121754,98.071429)" />
    <linearGradient
       x1="32.251034"
       y1="6.1317081"
       x2="32.251034"
       y2="90.238609"
       id="linearGradient3725"
       xlink:href="#ButtonShadow-0"
       gradientUnits="userSpaceOnUse"
       gradientTransform="matrix(1.0238095,0,0,1.0119048,-9.5121754,-98.071429)" />
    <linearGradient
       x1="32.251034"
       y1="6.1317081"
       x2="32.251034"
       y2="90.238609"
       id="linearGradient3721"
       xlink:href="#ButtonShadow-0"
       gradientUnits="userSpaceOnUse"
       gradientTransform="translate(-16.738637,-97)" />
    <linearGradient
       x1="32.251034"
       y1="6.1317081"
       x2="32.251034"
       y2="90.238609"
       id="linearGradient3760"
       xlink:href="#ButtonShadow-0"
       gradientUnits="userSpaceOnUse"
       gradientTransform="matrix(1.0238095,0,0,1.0119048,-1.1428571,-98.071429)" />
    <linearGradient
       xlink:href="#linearGradient3604"
       id="linearGradient976"
       gradientUnits="userSpaceOnUse"
       gradientTransform="matrix(-0.53315586,0,0,0.68002831,76.13179,31.824214)"
       x1="69"
       y1="54"
       x2="73"
       y2="54" />
    <linearGradient
       xlink:href="#linearGradient3604"
       id="linearGradient980"
       gradientUnits="userSpaceOnUse"
       gradientTransform="matrix(-0.53315586,0,0,0.68002831,76.200149,27.800991)"
       x1="69"
       y1="54"
       x2="73"
       y2="54" />
    <linearGradient
       xlink:href="#linearGradient3290"
       id="linearGradient990"
       gradientUnits="userSpaceOnUse"
       gradientTransform="matrix(0.53315586,0,0,0.68002831,-0.6426526,29.784131)"
       x1="69"
       y1="54"
       x2="73"
       y2="54" />
    <linearGradient
       xlink:href="#linearGradient3290"
       id="linearGradient994"
       gradientUnits="userSpaceOnUse"
       gradientTransform="matrix(0.53315586,0,0,0.68002831,-0.5742937,25.760908)"
       x1="69"
       y1="54"
       x2="73"
       y2="54" />
  </defs>
  <metadata
     id="metadata2413">
    <rdf:RDF>
      <cc:Work
         rdf:about="">
        <dc:format>image/svg+xml</dc:format>
        <dc:type
           rdf:resource="http://purl.org/dc/dcmitype/StillImage" />
        <dc:title></dc:title>
      </cc:Work>
    </rdf:RDF>
  </metadata>
  <g
     id="layer2"
     style="display:none"
     transform="translate(0,-80)">
    <rect
       width="86"
       height="85"
       rx="6"
       ry="6"
       x="5"
       y="7"
       id="rect3745"
       style="opacity:0.9;fill:url(#ButtonShadow);fill-opacity:1;fill-rule:nonzero;stroke:none;filter:url(#filter3174)" />
  </g>
  <g
     id="layer4"
     style="display:inline"
     transform="matrix(0.23896809,0,0,0.23896809,0.52953157,-6.7094363)" />
  <g
     id="layer1"
     style="display:inline"
     transform="matrix(0.19047135,0,0,0.19047135,-1.142557,-0.90330381)">
    <path
       d="m 12,4.7446022 c -3.324,0 -6,2.676 -6,5.9999998 v 72 c 0,3.324 2.676,6 6,6 h 72 c 3.324,0 6,-2.676 6,-6 v -72 C 90,7.4206022 87.324,4.7446022 84,4.7446022 h -9 v 3 h -6 v -3 z"
       id="rect2419"
       style="fill:url(#radialGradient3229);fill-opacity:1;fill-rule:nonzero;stroke:none" />
    <path
       d="m 6,54.744602 v 28 c 0,3.324 2.676,6 6,6 h 12 v -34 z"
       id="rect3222"
       style="fill:url(#linearGradient3234);fill-opacity:1;fill-rule:nonzero;stroke:none" />
    <path
       d="m 90,54.744602 v 28 c 0,3.324 -2.676,6 -6,6 H 72 v -34 z"
       id="path3244"
       style="fill:url(#linearGradient3246);fill-opacity:1;fill-rule:nonzero;stroke:none" />
    <path
       d="m 12,4.7446022 c -3.324,0 -6,2.676 -6,5.9999998 v 45.615001 c 0,3.324 2.676,6 6,6 h 72 c 3.324,0 6,-2.676 6,-6 V 10.744602 c 0,-3.3239998 -2.676,-5.9999998 -6,-5.9999998 0,0 -43.401445,0 -72,0 z"
       id="rect3195"
       style="fill:url(#linearGradient3223);fill-opacity:1;fill-rule:nonzero;stroke:none" />
    <path
       d="m 12,4.7446022 c -3.324,0 -6,2.676 -6,5.9999998 l 5e-7,45.476507 c 0,3.324 2.676,6.276988 5.9999995,6.276988 h 72 c 3.324,0 6,-2.952988 6,-6.276988 V 10.744602 C 90,7.4206022 87.324,4.7446022 84,4.7446022 h -9 v 2 h 9 c 2.245802,0 4,1.7541975 4,3.9999998 v 41.792302 c 0,2.245802 -1.754198,4.184659 -4,4.184659 H 12 c -2.245802,0 -3.9999995,-1.938857 -3.9999995,-4.184659 L 8,10.744602 C 8,8.4987997 9.7541975,6.7446022 12,6.7446022 h 57 v -2 z"
       id="rect3207"
       style="opacity:0.5;fill:url(#linearGradient3220);fill-opacity:1;fill-rule:nonzero;stroke:none" />
    <path
       d="M 6.0007106,77.496641 V 82.7446 c 0,3.324 2.676,6 6.0000004,6 h 72 c 3.324,0 6.000002,-2.676 6.000002,-6 v -5.247959 c 0,3.324 -2.676002,5.999999 -6.000002,5.999999 h -72 c -3.3240004,0 -6.0000004,-2.675999 -6.0000004,-5.999999 z"
       id="path3193-6"
       style="display:inline;opacity:0.3;fill:#214478;fill-opacity:1;fill-rule:nonzero;stroke:none;stroke-width:1" />
    <path
       d="m 5.9992876,72.241258 v 5.253208 c 0,3.324001 2.676,6.000001 6.0000004,6.000001 h 72 c 3.324,0 6.000002,-2.676 6.000002,-6.000001 v -5.253208 c 0,3.324 -2.676002,5.999999 -6.000002,5.999999 h -72 c -3.3240004,0 -6.0000004,-2.675999 -6.0000004,-5.999999 z"
       id="path3193-3-7"
       style="display:inline;opacity:0.3;fill:#76a7ef;fill-opacity:1;fill-rule:nonzero;stroke:none;stroke-width:1" />
    <path
       d="m 5.9999996,66.996373 v 5.24796 c 0,3.324 2.676023,6 6.0000504,6 h 72.000611 c 3.324028,0 6.00005,-2.676 6.00005,-6 v -5.24796 c 0,3.324 -2.676022,6 -6.00005,6 H 12.00005 c -3.3240274,0 -6.0000504,-2.676 -6.0000504,-6 z"
       id="path3193-6-3"
       style="display:inline;opacity:0.3;fill:#214478;fill-opacity:1;fill-rule:nonzero;stroke:none;stroke-width:1.00000417" />
    <path
       d="m 5.9985766,61.740993 v 5.25321 c 0,3.324 2.676023,6 6.0000514,6 h 72.000603 c 3.324028,0 6.00006,-2.676 6.00006,-6 v -5.25321 c 0,3.324 -2.676032,6 -6.00006,6 H 11.998628 c -3.3240284,0 -6.0000514,-2.676 -6.0000514,-6 z"
       id="path3193-3-7-6"
       style="display:inline;opacity:0.3;fill:#76a7ef;fill-opacity:1;fill-rule:nonzero;stroke:none;stroke-width:1.00000417" />
    <path
       d="m 5.9985766,56.496108 v 5.24796 c 0,3.324 2.676023,5.999999 6.0000514,5.999999 h 72.000611 c 3.32403,0 6.00005,-2.675999 6.00005,-5.999999 v -5.24796 c 0,3.324 -2.67602,6 -6.00005,6 H 11.998628 c -3.3240284,0 -6.0000514,-2.676 -6.0000514,-6 z"
       id="path3193-6-3-7"
       style="display:inline;opacity:0.3;fill:#214478;fill-opacity:1;fill-rule:nonzero;stroke:none;stroke-width:1.00000417" />
  </g>
  <g
     id="g1038"
     transform="matrix(1.1956169,0,0,0.77343504,-11.204546,-1.7087104)">
    <g
       transform="matrix(0.47793618,0,0,0.47793618,0.53212905,-22.391938)"
       id="layer3">
      <path
         style="fill:#252525;fill-opacity:1;fill-rule:nonzero;stroke:none;stroke-width:0.5"
         id="rect3201"
         d="m 34.744566,51.505433 v 21.276908 c 0,0.830999 0.669,1.499999 1.499999,1.499999 h 3 c 0.831001,0 1.500001,-0.669 1.500001,-1.499999 V 51.505433 h -2 v 1.000001 h -2 v -1.000001 z" />
      <rect
         style="fill:#4d4d4d;fill-opacity:1;fill-rule:nonzero;stroke:none;stroke-width:0.44572735"
         id="rect3247"
         y="52.505436"
         x="36.744564"
         height="19.46994"
         width="2" />
      <rect
         style="fill:url(#linearGradient3360);fill-opacity:1;fill-rule:nonzero;stroke:#000000;stroke-width:0.29480827;stroke-linecap:square;stroke-linejoin:miter;stroke-miterlimit:4;stroke-dasharray:none;stroke-dashoffset:0;stroke-opacity:0.56363639"
         id="rect3211"
         y="70.153877"
         x="36.262299"
         ry="0.70361227"
         rx="0.49408987"
         height="2.8144491"
         width="2.9645393" />
      <path
         transform="matrix(0.50000001,0,0,0.50000001,1.7445652,48.505434)"
         style="fill:none;stroke:#000000;stroke-width:2;stroke-linecap:square;stroke-linejoin:miter;stroke-miterlimit:4;stroke-dasharray:none;stroke-dashoffset:0;stroke-opacity:1;filter:url(#filter3243)"
         id="path3231"
         clip-path="url(#clipPath3235)"
         d="m 66,6 v 41.471714 c 0,1.662 1.338,3 3,3 h 6 c 1.662,0 3,-1.338 3,-3 V 6 H 74 V 8 H 70 V 6 Z" />
      <path
         d="m 36.411677,65.145594 c -0.143832,0 -0.266578,0.148219 -0.266578,0.340012 v 2.040087 c 0,0.191793 0.122748,0.340013 0.266578,0.340013 h 0.533157 c 0.143831,0 0.266578,-0.14822 0.266578,-0.340013 v -0.340017 h 0.799732 c 0.147686,0 0.266579,-0.151646 0.266579,-0.340013 v -0.68003 c 0,-0.188366 -0.118893,-0.340013 -0.266579,-0.340013 h -0.799732 v -0.340014 c 0,-0.191793 -0.122749,-0.340012 -0.266578,-0.340012 z"
         id="use3312"
         style="fill:url(#linearGradient990);fill-opacity:1;fill-rule:nonzero;stroke:#000000;stroke-width:0.30106518;stroke-linecap:square;stroke-linejoin:miter;stroke-miterlimit:4;stroke-dasharray:none;stroke-dashoffset:0;stroke-opacity:0.56363639" />
      <path
         style="fill:url(#linearGradient976);fill-opacity:1;fill-rule:nonzero;stroke:#000000;stroke-width:0.30106518;stroke-linecap:square;stroke-linejoin:miter;stroke-miterlimit:4;stroke-dasharray:none;stroke-dashoffset:0;stroke-opacity:0.56363639"
         id="use3342"
         d="m 39.077458,67.185676 c 0.14383,0 0.266576,0.148223 0.266576,0.340017 v 2.040082 c 0,0.191793 -0.122747,0.340015 -0.266576,0.340015 h -0.533157 c -0.143831,0 -0.266578,-0.148223 -0.266578,-0.340015 v -0.340012 h -0.799735 c -0.147683,0 -0.266576,-0.151646 -0.266576,-0.340014 v -0.68003 c 0,-0.188367 0.118893,-0.340013 0.266576,-0.340013 h 0.799735 v -0.340013 c 0,-0.191794 0.122748,-0.340017 0.266578,-0.340017 z" />
      <path
         style="fill:url(#linearGradient3393);fill-opacity:1;fill-rule:nonzero;stroke:none;stroke-width:0.44590816"
         id="path3376"
         d="m 34.244566,51.505433 v 21.871753 c 0,0.875782 0.898853,1.590672 1.999999,1.590672 h 3 c 1.101148,0 2.000001,-0.71489 2.000001,-1.590672 V 51.505433 h -0.5 v 21.330312 c 0,0.660924 -0.669,1.193003 -1.500001,1.193003 h -3 c -0.830999,0 -1.499999,-0.532079 -1.499999,-1.193003 V 51.505433 Z" />
      <path
         style="fill:url(#linearGradient3516);fill-opacity:1;fill-rule:nonzero;stroke:none;stroke-width:0.47706693"
         id="rect3403"
         d="m 36.531437,53.113439 c -0.298876,0 -0.534671,0.252401 -0.534671,0.565924 l -0.0022,5.659252 c 9e-6,0.313524 0.235804,0.565926 0.53468,0.565926 h 2.428458 c 0.298875,0 0.53467,-0.252402 0.53467,-0.565926 l 0.0022,-5.659252 c 0,-0.313523 -0.235796,-0.565924 -0.53467,-0.565924 z" />
      <path
         style="fill:url(#linearGradient3489);fill-opacity:1;fill-rule:nonzero;stroke:none;stroke-width:0.47706693"
         id="rect3470"
         d="m 38.851169,53.609136 c 0.120483,0 0.217478,0.116686 0.217478,0.261627 v 5.265247 c 0,0.144942 -0.09699,0.261627 -0.217478,0.261627 h -2.21556 c -0.120483,0 -0.217478,-0.116685 -0.217478,-0.261627 v -5.265247 c 0,-0.144941 0.09699,-0.261627 0.217478,-0.261627 z" />
      <rect
         style="fill:url(#linearGradient3530);fill-opacity:1;fill-rule:nonzero;stroke:#000000;stroke-width:0.5;stroke-linecap:square;stroke-linejoin:miter;stroke-miterlimit:4;stroke-dasharray:none;stroke-dashoffset:0;stroke-opacity:0.56363639"
         id="rect3399"
         y="51.49762"
         x="36.899864"
         ry="0.25"
         rx="0.28156728"
         height="2.5"
         width="1.6894037" />
      <path
         d="m 36.480036,61.12237 c -0.143832,0 -0.266578,0.148219 -0.266578,0.340012 v 2.040087 c 0,0.191793 0.122748,0.340013 0.266578,0.340013 h 0.533157 c 0.143831,0 0.266578,-0.14822 0.266578,-0.340013 v -0.340017 h 0.799732 c 0.147686,0 0.266579,-0.151645 0.266579,-0.340013 V 62.14241 c 0,-0.188366 -0.118893,-0.340013 -0.266579,-0.340013 h -0.799732 v -0.340015 c 0,-0.191793 -0.122749,-0.340012 -0.266578,-0.340012 z"
         id="use3312-3"
         style="fill:url(#linearGradient994);fill-opacity:1;fill-rule:nonzero;stroke:#000000;stroke-width:0.30106518;stroke-linecap:square;stroke-linejoin:miter;stroke-miterlimit:4;stroke-dasharray:none;stroke-dashoffset:0;stroke-opacity:0.56363639" />
      <path
         style="fill:url(#linearGradient980);fill-opacity:1;fill-rule:nonzero;stroke:#000000;stroke-width:0.30106518;stroke-linecap:square;stroke-linejoin:miter;stroke-miterlimit:4;stroke-dasharray:none;stroke-dashoffset:0;stroke-opacity:0.56363639"
         id="use3342-7"
         d="m 39.145817,63.162453 c 0.14383,0 0.266576,0.148223 0.266576,0.340016 v 2.040083 c 0,0.191792 -0.122747,0.340015 -0.266576,0.340015 H 38.61266 c -0.143831,0 -0.266578,-0.148223 -0.266578,-0.340015 v -0.340013 h -0.799735 c -0.147683,0 -0.266576,-0.151646 -0.266576,-0.340014 v -0.680029 c 0,-0.188368 0.118893,-0.340014 0.266576,-0.340014 h 0.799735 v -0.340013 c 0,-0.191793 0.122748,-0.340016 0.266578,-0.340016 z" />
    </g>
  </g>
</svg>
