<?xml version="1.0" encoding="UTF-8" standalone="no"?>
<svg
   xmlns:dc="http://purl.org/dc/elements/1.1/"
   xmlns:cc="http://creativecommons.org/ns#"
   xmlns:rdf="http://www.w3.org/1999/02/22-rdf-syntax-ns#"
   xmlns:svg="http://www.w3.org/2000/svg"
   xmlns="http://www.w3.org/2000/svg"
   xmlns:xlink="http://www.w3.org/1999/xlink"
   version="1.0"
   width="24"
   height="24"
   id="svg2408"
   style="display:inline">
  <defs
     id="defs2410">
    <linearGradient
       id="linearGradient974">
      <stop
         offset="0"
         style="stop-color:#ffffff;stop-opacity:1"
         id="stop970" />
      <stop
         offset="1"
         style="stop-color:#ffffff;stop-opacity:0"
         id="stop972" />
    </linearGradient>
    <linearGradient
       id="linearGradient1523">
      <stop
         offset="0"
         style="stop-color:#555a2a;stop-opacity:1"
         id="stop1517" />
      <stop
         offset="0.2"
         style="stop-color:#78982c;stop-opacity:1"
         id="stop1519" />
      <stop
         offset="1"
         style="stop-color:#78982c;stop-opacity:0"
         id="stop1521" />
    </linearGradient>
    <linearGradient
       id="linearGradient3329">
      <stop
         id="stop3331"
         style="stop-color:#4f5927;stop-opacity:1"
         offset="0" />
      <stop
         id="stop3333"
         style="stop-color:#779f29;stop-opacity:1"
         offset="1" />
    </linearGradient>
    <linearGradient
       id="linearGradient3321">
      <stop
         id="stop3323"
         style="stop-color:#555a2a;stop-opacity:1"
         offset="0" />
      <stop
         id="stop3325"
         style="stop-color:#78982c;stop-opacity:1"
         offset="0.2" />
      <stop
         id="stop3327"
         style="stop-color:#78982c;stop-opacity:0"
         offset="1" />
    </linearGradient>
    <linearGradient
       id="linearGradient3315">
      <stop
         id="stop3317"
         style="stop-color:#6f842e;stop-opacity:1"
         offset="0" />
      <stop
         id="stop3319"
         style="stop-color:#86a135;stop-opacity:1"
         offset="1" />
    </linearGradient>
    <linearGradient
       id="linearGradient3604">
      <stop
         id="stop3606"
         style="stop-color:#2f2f2f;stop-opacity:1"
         offset="0" />
      <stop
         id="stop3608"
         style="stop-color:#ffffff;stop-opacity:1"
         offset="0.43731192" />
      <stop
         id="stop3610"
         style="stop-color:#979797;stop-opacity:1"
         offset="0.62138397" />
      <stop
         id="stop3612"
         style="stop-color:#505050;stop-opacity:1"
         offset="0.7723214" />
      <stop
         id="stop3614"
         style="stop-color:#e6e6e6;stop-opacity:1"
         offset="1" />
    </linearGradient>
    <linearGradient
       id="linearGradient3435">
      <stop
         id="stop3437"
         style="stop-color:#ededed;stop-opacity:1"
         offset="0" />
      <stop
         id="stop3439"
         style="stop-color:#b0b0b0;stop-opacity:1"
         offset="1" />
    </linearGradient>
    <linearGradient
       id="linearGradient3354">
      <stop
         id="stop3356"
         style="stop-color:#b4b4b4;stop-opacity:1"
         offset="0" />
      <stop
         id="stop3362"
         style="stop-color:#646464;stop-opacity:1"
         offset="0.20467032" />
      <stop
         id="stop3364"
         style="stop-color:#ffffff;stop-opacity:1"
         offset="0.49567693" />
      <stop
         id="stop3358"
         style="stop-color:#3c3c3c;stop-opacity:1"
         offset="1" />
    </linearGradient>
    <linearGradient
       id="linearGradient3290">
      <stop
         id="stop3292"
         style="stop-color:#ffffff;stop-opacity:1"
         offset="0" />
      <stop
         id="stop3304"
         style="stop-color:#8c8c8c;stop-opacity:1"
         offset="0.48973215" />
      <stop
         id="stop3306"
         style="stop-color:#cfcfcf;stop-opacity:1"
         offset="0.50044644" />
      <stop
         id="stop3298"
         style="stop-color:#ffffff;stop-opacity:1"
         offset="0.62276787" />
      <stop
         id="stop3300"
         style="stop-color:#c8c8c8;stop-opacity:1"
         offset="0.81696427" />
      <stop
         id="stop3294"
         style="stop-color:#505050;stop-opacity:1"
         offset="1" />
    </linearGradient>
    <linearGradient
       id="linearGradient3199">
      <stop
         id="stop3201"
         style="stop-color:#627626;stop-opacity:1"
         offset="0" />
      <stop
         id="stop3203"
         style="stop-color:#80b228;stop-opacity:1"
         offset="1" />
    </linearGradient>
    <linearGradient
       x1="45.447727"
       y1="92.539597"
       x2="45.447727"
       y2="7.0165396"
       id="ButtonShadow"
       gradientUnits="userSpaceOnUse"
       gradientTransform="scale(1.0058652,0.994169)">
      <stop
         id="stop3750"
         style="stop-color:#000000;stop-opacity:1"
         offset="0" />
      <stop
         id="stop3752"
         style="stop-color:#000000;stop-opacity:0.58823532"
         offset="1" />
    </linearGradient>
    <linearGradient
       id="linearGradient3737">
      <stop
         id="stop3739"
         style="stop-color:#ffffff;stop-opacity:1"
         offset="0" />
      <stop
         id="stop3741"
         style="stop-color:#ffffff;stop-opacity:0"
         offset="1" />
    </linearGradient>
    <filter
       id="filter3174"
       style="color-interpolation-filters:sRGB">
      <feGaussianBlur
         id="feGaussianBlur3176"
         stdDeviation="1.71" />
    </filter>
    <linearGradient
       x1="19.035713"
       y1="74"
       x2="87.5"
       y2="27.428572"
       id="linearGradient3220"
       xlink:href="#linearGradient974"
       gradientUnits="userSpaceOnUse"
       gradientTransform="translate(0,-1.2553978)" />
    <linearGradient
       x1="6"
       y1="73"
       x2="24"
       y2="73"
       id="linearGradient3234"
       xlink:href="#linearGradient1523"
       gradientUnits="userSpaceOnUse"
       gradientTransform="translate(0,-1.2553978)" />
    <linearGradient
       x1="6"
       y1="73"
       x2="24"
       y2="73"
       id="linearGradient3246"
       xlink:href="#linearGradient3321"
       gradientUnits="userSpaceOnUse"
       gradientTransform="matrix(-1,0,0,1,96,-1.2553978)" />
    <linearGradient
       x1="38.748035"
       y1="72.409348"
       x2="38.748035"
       y2="5.8331571"
       id="linearGradient3223"
       xlink:href="#linearGradient3199"
       gradientUnits="userSpaceOnUse"
       gradientTransform="translate(0,-1.2553978)" />
    <radialGradient
       cx="90"
       cy="90"
       r="42"
       fx="90"
       fy="90"
       id="radialGradient3229"
       xlink:href="#linearGradient3315"
       gradientUnits="userSpaceOnUse"
       gradientTransform="matrix(0,-1.085034,2,0,-90,186.39766)" />
    <clipPath
       id="clipPath3235">
      <path
         d="m 66,6 v 55 c 0,1.662 1.338,3 3,3 h 6 c 1.662,0 3,-1.338 3,-3 V 6 H 74 V 8 H 70 V 6 Z"
         id="path3237"
         style="fill:#ffffff;fill-opacity:1;fill-rule:nonzero;stroke:none" />
    </clipPath>
    <filter
       x="-0.16615385"
       y="-0.036610167"
       width="1.3323077"
       height="1.0732203"
       id="filter3243"
       style="color-interpolation-filters:sRGB">
      <feGaussianBlur
         id="feGaussianBlur3245"
         stdDeviation="0.9" />
    </filter>
    <linearGradient
       x1="68.75"
       y1="59"
       x2="75.25"
       y2="59"
       id="linearGradient3360"
       xlink:href="#linearGradient3354"
       gradientUnits="userSpaceOnUse"
       gradientTransform="matrix(0.49408989,0,0,0.70361229,2.1700948,35.873957)" />
    <linearGradient
       x1="69"
       y1="54"
       x2="73"
       y2="54"
       id="linearGradient3372"
       xlink:href="#linearGradient3290"
       gradientUnits="userSpaceOnUse"
       gradientTransform="translate(0,-1)" />
    <linearGradient
       x1="63.484772"
       y1="64.163078"
       x2="79"
       y2="65"
       id="linearGradient3393"
       xlink:href="#linearGradient3329"
       gradientUnits="userSpaceOnUse"
       gradientTransform="matrix(0.50000003,0,0,0.50000003,1.7445652,47.964387)" />
    <filter
       x="-0.16182838"
       y="-0.095353596"
       width="1.3236568"
       height="1.1907072"
       id="filter3429"
       style="color-interpolation-filters:sRGB">
      <feGaussianBlur
         id="feGaussianBlur3431"
         stdDeviation="0.53551312" />
    </filter>
    <linearGradient
       x1="68.96875"
       y1="17.5"
       x2="75.0625"
       y2="17.5"
       id="linearGradient3489"
       xlink:href="#linearGradient3435"
       gradientUnits="userSpaceOnUse"
       gradientTransform="matrix(-0.43495657,0,0,0.5232543,69.067063,46.805387)" />
    <linearGradient
       x1="68.02903"
       y1="17.763245"
       x2="75.97097"
       y2="17.763245"
       id="linearGradient3516"
       xlink:href="#linearGradient3435"
       gradientUnits="userSpaceOnUse"
       gradientTransform="matrix(0.43495657,0,0,0.5232543,6.419721,46.805387)" />
    <linearGradient
       x1="68.75"
       y1="59"
       x2="72.250572"
       y2="59"
       id="linearGradient3530"
       xlink:href="#linearGradient3354"
       gradientUnits="userSpaceOnUse"
       gradientTransform="matrix(0.56313458,0,0,0.50000003,-1.9564196,22.456573)" />
    <linearGradient
       x1="69"
       y1="54"
       x2="73"
       y2="54"
       id="linearGradient3602"
       xlink:href="#linearGradient3604"
       gradientUnits="userSpaceOnUse"
       gradientTransform="matrix(-1,0,0,1,144,-4)" />
    <clipPath
       id="clipPath3352">
      <path
         d="m 11.6875,64.375 c -2.216,0 -4,1.784 -4,4 v 33.6875 c 0,2.216 1.7839995,4 4,4 h 36.09375 c 2.216,0 4.000001,-1.784 4,-4 V 68.375 c 0,-2.216 -1.783999,-4 -4,-4 z M 18.5625,80 h 7.28125 v 1.90625 c -0.205135,0.352212 -0.433858,0.778115 -0.71875,1.28125 -0.273511,0.490577 -0.575773,1.015144 -0.90625,1.59375 -0.33049,0.578625 -0.697833,1.202249 -1.0625,1.84375 -0.364677,0.641516 -0.717686,1.295995 -1.09375,1.9375 -0.364676,0.641514 -0.748935,1.258652 -1.125,1.875 -0.376071,0.616355 -0.740476,1.177874 -1.09375,1.71875 H 26 V 94 h -8 v -1.96875 l 5,-8.71875 c 0.159539,-0.26414 0.289347,-0.498418 0.4375,-0.75 0.159538,-0.251561 0.329054,-0.529665 0.5,-0.78125 h -5.375 z M 28,80 h 1.8125 V 94 H 28 Z m 4,0 h 4.21875 c 0.440246,1.4e-5 0.847477,0.0122 1.25,0.0625 0.402509,0.03775 0.785371,0.130319 1.125,0.28125 0.339615,0.150957 0.64209,0.398204 0.90625,0.6875 0.276721,0.289321 0.498811,0.665695 0.6875,1.15625 0.125777,0.314476 0.230925,0.641715 0.28125,0.96875 0.05031,0.314475 0.06249,0.641717 0.0625,0.96875 -9e-6,0.528311 -0.06782,1.034206 -0.21875,1.5625 -0.138374,0.515731 -0.360463,0.997257 -0.6875,1.4375 -0.188688,0.264157 -0.466793,0.492735 -0.78125,0.65625 -0.314473,0.163528 -0.647806,0.274379 -1,0.375 -0.352208,0.08806 -0.697724,0.149768 -1.0625,0.1875 -0.352206,0.02516 -0.660776,0.06251 -0.9375,0.0625 H 33.8125 V 94 H 32 Z m 1.84375,1.78125 v 4.78125 h 2.09375 c 0.85534,7e-6 1.509425,-0.222477 2,-0.625 0.503137,-0.415086 0.781243,-1.020037 0.78125,-1.8125 -8e-6,-0.226406 -0.02477,-0.461073 -0.0625,-0.6875 -0.03774,-0.238983 -0.09946,-0.45498 -0.1875,-0.65625 C 38.380692,82.580003 38.263356,82.400955 38.125,82.25 37.986628,82.08649 37.826253,81.981733 37.625,81.90625 37.461472,81.843369 37.251566,81.812514 37,81.8125 36.761,81.79993 36.551095,81.78126 36.375,81.78125 Z"
         id="path3354"
         style="fill:#ffffff;fill-opacity:1;fill-rule:nonzero;stroke:none" />
    </clipPath>
    <linearGradient
       x1="45.447727"
       y1="92.539597"
       x2="45.447727"
       y2="7.0165396"
       id="ButtonShadow-0"
       gradientUnits="userSpaceOnUse"
       gradientTransform="matrix(1.0058652,0,0,0.994169,100,0)">
      <stop
         id="stop3750-8"
         style="stop-color:#000000;stop-opacity:1"
         offset="0" />
      <stop
         id="stop3752-5"
         style="stop-color:#000000;stop-opacity:0.58823532"
         offset="1" />
    </linearGradient>
    <linearGradient
       x1="32.251034"
       y1="6.1317081"
       x2="32.251034"
       y2="90.238609"
       id="linearGradient3780"
       xlink:href="#ButtonShadow-0"
       gradientUnits="userSpaceOnUse"
       gradientTransform="matrix(1.0238095,0,0,1.0119048,-1.1428571,-98.071429)" />
    <linearGradient
       x1="32.251034"
       y1="6.1317081"
       x2="32.251034"
       y2="90.238609"
       id="linearGradient3772"
       xlink:href="#ButtonShadow-0"
       gradientUnits="userSpaceOnUse"
       gradientTransform="matrix(1.0238095,0,0,1.0119048,-1.1428571,-98.071429)" />
    <linearGradient
       x1="32.251034"
       y1="6.1317081"
       x2="32.251034"
       y2="90.238609"
       id="linearGradient3725"
       xlink:href="#ButtonShadow-0"
       gradientUnits="userSpaceOnUse"
       gradientTransform="matrix(1.0238095,0,0,1.0119048,-1.1428571,-98.071429)" />
    <linearGradient
       x1="32.251034"
       y1="6.1317081"
       x2="32.251034"
       y2="90.238609"
       id="linearGradient3721"
       xlink:href="#ButtonShadow-0"
       gradientUnits="userSpaceOnUse"
       gradientTransform="translate(0,-97)" />
    <linearGradient
       x1="32.251034"
       y1="6.1317081"
       x2="32.251034"
       y2="90.238609"
       id="linearGradient3760"
       xlink:href="#ButtonShadow-0"
       gradientUnits="userSpaceOnUse"
       gradientTransform="matrix(1.0238095,0,0,1.0119048,-1.1428571,-98.071429)" />
    <linearGradient
       xlink:href="#linearGradient3290"
       id="linearGradient1494"
       gradientUnits="userSpaceOnUse"
       gradientTransform="matrix(0.53315586,0,0,0.68002831,-2.3926526,37.944471)"
       x1="69"
       y1="54"
       x2="73"
       y2="54" />
    <linearGradient
       xlink:href="#linearGradient3604"
       id="linearGradient1496"
       gradientUnits="userSpaceOnUse"
       gradientTransform="matrix(-0.53315586,0,0,0.68002831,74.38179,35.904384)"
       x1="69"
       y1="54"
       x2="73"
       y2="54" />
    <linearGradient
       x1="25.975256"
       y1="40"
       x2="25.975256"
       y2="64.019806"
       id="linearGradient3318"
       xlink:href="#linearGradient3312"
       gradientUnits="userSpaceOnUse"
       gradientTransform="matrix(0.50514756,0,0,0.50514756,-29.381734,-35.623605)" />
    <linearGradient
       id="linearGradient3312">
      <stop
         id="stop3314"
         style="stop-color:#323232;stop-opacity:1"
         offset="0" />
      <stop
         id="stop3316"
         style="stop-color:#141414;stop-opacity:1"
         offset="1" />
    </linearGradient>
    <linearGradient
       x1="19.472399"
       y1="40"
       x2="28.056534"
       y2="54.86816"
       id="linearGradient3333"
       xlink:href="#linearGradient3737"
       gradientUnits="userSpaceOnUse"
       gradientTransform="matrix(0.50514756,0,0,0.50514756,-29.381734,-35.623605)" />
    <linearGradient
       x1="32"
       y1="68.071426"
       x2="32"
       y2="45.192421"
       id="linearGradient3350"
       xlink:href="#linearGradient3344"
       gradientUnits="userSpaceOnUse"
       gradientTransform="matrix(0.50514756,0,0,0.50514756,-29.381734,-35.623605)" />
    <linearGradient
       id="linearGradient3344">
      <stop
         id="stop3346"
         style="stop-color:#000000;stop-opacity:1"
         offset="0" />
      <stop
         id="stop3348"
         style="stop-color:#000000;stop-opacity:0"
         offset="1" />
    </linearGradient>
    <linearGradient
       y2="54"
       x2="73"
       y1="54"
       x1="69"
       gradientTransform="matrix(-0.53315586,0,0,0.68002831,76.13179,35.363335)"
       gradientUnits="userSpaceOnUse"
       id="linearGradient1007"
       xlink:href="#linearGradient3604" />
    <linearGradient
       y2="54"
       x2="73"
       y1="54"
       x1="69"
       gradientTransform="matrix(0.53315586,0,0,0.68002831,-0.6426526,37.403422)"
       gradientUnits="userSpaceOnUse"
       id="linearGradient1011"
       xlink:href="#linearGradient3290" />
  </defs>
  <metadata
     id="metadata2413">
    <rdf:RDF>
      <cc:Work
         rdf:about="">
        <dc:format>image/svg+xml</dc:format>
        <dc:type
           rdf:resource="http://purl.org/dc/dcmitype/StillImage" />
        <dc:title></dc:title>
      </cc:Work>
    </rdf:RDF>
  </metadata>
  <g
     id="layer2"
     style="display:none"
     transform="translate(0,-72)">
    <rect
       width="86"
       height="85"
       rx="6"
       ry="6"
       x="5"
       y="7"
       id="rect3745"
       style="opacity:0.9;fill:url(#ButtonShadow);fill-opacity:1;fill-rule:nonzero;stroke:none;filter:url(#filter3174)" />
  </g>
  <g
     id="layer4"
     style="display:inline"
     transform="matrix(0.23896809,0,0,0.23896809,0.52953157,1.2905637)">
    <path
       d="m 12,-95.03125 c -5.5110903,0 -10.03125,4.52016 -10.03125,10.03125 v 71 c 0,5.5110902 4.5201598,10.03125 10.03125,10.03125 h 72 c 5.51109,0 10.03125,-4.5201597 10.03125,-10.03125 v -71 c 0,-5.51109 -4.52016,-10.03125 -10.03125,-10.03125 z"
       transform="scale(1,-1)"
       id="path3786"
       style="display:inline;opacity:0.07999998;fill:url(#linearGradient3760);fill-opacity:1;fill-rule:nonzero;stroke:none" />
    <path
       d="m 12,-94.03125 c -4.971633,0 -9.03125,4.059617 -9.03125,9.03125 v 71 c 0,4.9716329 4.0596171,9.03125 9.03125,9.03125 h 72 c 4.971633,0 9.03125,-4.059617 9.03125,-9.03125 v -71 c 0,-4.971633 -4.059617,-9.03125 -9.03125,-9.03125 z"
       transform="scale(1,-1)"
       id="path3778"
       style="display:inline;opacity:0.1;fill:url(#linearGradient3780);fill-opacity:1;fill-rule:nonzero;stroke:none" />
    <path
       d="m 12,-93 c -4.4091333,0 -8,3.590867 -8,8 v 71 c 0,4.4091333 3.5908667,8 8,8 h 72 c 4.409133,0 8,-3.5908667 8,-8 v -71 c 0,-4.409133 -3.590867,-8 -8,-8 z"
       transform="scale(1,-1)"
       id="path3770"
       style="display:inline;opacity:0.2;fill:url(#linearGradient3772);fill-opacity:1;fill-rule:nonzero;stroke:none" />
    <rect
       width="86"
       height="85"
       rx="7"
       ry="7"
       x="5"
       y="-92"
       transform="scale(1,-1)"
       id="rect3723"
       style="display:inline;opacity:0.3;fill:url(#linearGradient3725);fill-opacity:1;fill-rule:nonzero;stroke:none" />
    <rect
       width="84"
       height="84"
       rx="6"
       ry="6"
       x="6"
       y="-91"
       transform="scale(1,-1)"
       id="rect3716"
       style="display:inline;opacity:0.45;fill:url(#linearGradient3721);fill-opacity:1;fill-rule:nonzero;stroke:none" />
  </g>
  <g
     id="layer1"
     style="display:inline"
     transform="matrix(0.23896809,0,0,0.23896809,0.52953157,0.79287196)">
    <path
       d="m 12,4.7446022 c -3.324,0 -6,2.676 -6,5.9999998 v 72 c 0,3.324 2.676,6 6,6 h 72 c 3.324,0 6,-2.676 6,-6 v -72 C 90,7.4206022 87.324,4.7446022 84,4.7446022 h -9 v 3 h -6 v -3 z"
       id="rect2419"
       style="fill:url(#radialGradient3229);fill-opacity:1;fill-rule:nonzero;stroke:none" />
    <path
       d="m 6,54.744602 v 28 c 0,3.324 2.676,6 6,6 h 12 v -34 z"
       id="rect3222"
       style="fill:url(#linearGradient3234);fill-opacity:1;fill-rule:nonzero;stroke:none" />
    <path
       d="m 90,54.744602 v 28 c 0,3.324 -2.676,6 -6,6 H 72 v -34 z"
       id="path3244"
       style="fill:url(#linearGradient3246);fill-opacity:1;fill-rule:nonzero;stroke:none" />
    <path
       d="m 5.9999996,57.645594 v 4.185372 c 0,3.324 2.6760002,6 6.0000004,6 h 72.000004 c 3.324,0 6,-2.676 6,-6 v -4.185372 c 0,3.324 -2.676,6 -6,6 H 12 c -3.3240002,0 -6.0000004,-2.676 -6.0000004,-6 z"
       id="path3193"
       style="opacity:0.3;fill:#565f31;fill-opacity:1;fill-rule:nonzero;stroke:none" />
    <path
       d="m 12,4.7446022 c -3.324,0 -6,2.676 -6,5.9999998 v 42.787784 c 0,3.324 2.676,6 6,6 h 72 c 3.324,0 6,-2.676 6,-6 V 10.744602 C 90,7.4206022 87.324,4.7446022 84,4.7446022 h -9 v 3 h -6 v -3 z"
       id="rect3195"
       style="fill:url(#linearGradient3223);fill-opacity:1;fill-rule:nonzero;stroke:none" />
    <path
       d="m 12,4.7446022 c -3.324,0 -6,2.676 -6,5.9999998 l 5e-7,42.440057 c 0,3.324 2.676,6.276988 5.9999995,6.276988 h 72 c 3.324,0 6,-2.952988 6,-6.276988 V 10.744602 C 90,7.4206022 87.324,4.7446022 84,4.7446022 h -9 v 2 h 9 c 2.245802,0 4,1.7541975 4,3.9999998 v 40.347727 c 0,2.245802 -1.754198,4.184659 -4,4.184659 H 12 c -2.245802,0 -3.9999995,-1.938857 -3.9999995,-4.184659 L 8,10.744602 C 8,8.4987997 9.7541975,6.7446022 12,6.7446022 h 57 v -2 z"
       id="rect3207"
       style="opacity:0.5;fill:url(#linearGradient3220);fill-opacity:1;fill-rule:nonzero;stroke:none" />
    <path
       d="m 5.9985766,61.830253 v 4.185372 c 0,3.324 2.6760002,6 6.0000004,6 h 72 c 3.324,0 6.000002,-2.676 6.000002,-6 v -4.185372 c 0,3.324 -2.676002,5.999999 -6.000002,5.999999 h -72 c -3.3240002,0 -6.0000004,-2.675999 -6.0000004,-5.999999 z"
       id="path3193-3"
       style="display:inline;opacity:0.3;fill:#ffffff;fill-opacity:1;fill-rule:nonzero;stroke:none;stroke-width:1" />
    <path
       d="m 6.0007106,70.199571 v 4.185372 c 0,3.324 2.6760002,6 6.0000004,6 h 72 c 3.324,0 6.000002,-2.676 6.000002,-6 v -4.185372 c 0,3.324 -2.676002,5.999999 -6.000002,5.999999 h -72 c -3.3240002,0 -6.0000004,-2.675999 -6.0000004,-5.999999 z"
       id="path3193-6"
       style="display:inline;opacity:0.3;fill:#565f31;fill-opacity:1;fill-rule:nonzero;stroke:none;stroke-width:1" />
    <path
       d="m 5.9992876,74.38423 v 4.185371 c 0,3.324001 2.6760002,6.000001 6.0000004,6.000001 h 72 c 3.324,0 6.000002,-2.676 6.000002,-6.000001 V 74.38423 c 0,3.324 -2.676002,5.999999 -6.000002,5.999999 h -72 c -3.3240002,0 -6.0000004,-2.675999 -6.0000004,-5.999999 z"
       id="path3193-3-7"
       style="display:inline;opacity:0.3;fill:#ffffff;fill-opacity:1;fill-rule:nonzero;stroke:none;stroke-width:1" />
  </g>
  <g
     id="g1038"
     transform="matrix(1.1956169,0,0,0.77343504,-5.204546,0.377149)">
    <g
       transform="matrix(0.47793618,0,0,0.47793618,0.53212905,-22.391938)"
       id="layer3">
      <path
         style="fill:#252525;fill-opacity:1;fill-rule:nonzero;stroke:none;stroke-width:0.5"
         id="rect3201"
         d="m 34.744566,50.964384 v 27.500002 c 0,0.830999 0.669,1.499999 1.499999,1.499999 h 3 c 0.831001,0 1.500001,-0.669 1.500001,-1.499999 V 50.964384 h -2 v 1.000001 h -2 v -1.000001 z" />
      <rect
         style="fill:#4d4d4d;fill-opacity:1;fill-rule:nonzero;stroke:none;stroke-width:0.5"
         id="rect3247"
         y="51.964386"
         x="36.744564"
         height="24.5"
         width="2" />
      <rect
         style="fill:url(#linearGradient3360);fill-opacity:1;fill-rule:nonzero;stroke:#000000;stroke-width:0.29480827;stroke-linecap:square;stroke-linejoin:miter;stroke-miterlimit:4;stroke-dasharray:none;stroke-dashoffset:0;stroke-opacity:0.56363639"
         id="rect3211"
         y="75.979866"
         x="36.262299"
         ry="0.70361227"
         rx="0.49408987"
         height="2.8144491"
         width="2.9645393" />
      <path
         transform="matrix(0.50000001,0,0,0.50000001,1.7445652,47.964385)"
         style="fill:none;stroke:#000000;stroke-width:2;stroke-linecap:square;stroke-linejoin:miter;stroke-miterlimit:4;stroke-dasharray:none;stroke-dashoffset:0;stroke-opacity:1;filter:url(#filter3243)"
         id="path3231"
         clip-path="url(#clipPath3235)"
         d="m 66,6 v 55 c 0,1.662 1.338,3 3,3 h 6 c 1.662,0 3,-1.338 3,-3 V 6 H 74 V 8 H 70 V 6 Z" />
      <path
         d="m 36.411677,72.764883 c -0.143832,0 -0.266578,0.14822 -0.266578,0.340013 v 2.040087 c 0,0.191792 0.122748,0.340012 0.266578,0.340012 h 0.533157 c 0.143831,0 0.266578,-0.14822 0.266578,-0.340012 v -0.340017 h 0.799732 c 0.147686,0 0.266579,-0.151645 0.266579,-0.340013 v -0.680029 c 0,-0.188366 -0.118893,-0.340013 -0.266579,-0.340013 h -0.799732 v -0.340015 c 0,-0.191793 -0.122749,-0.340013 -0.266578,-0.340013 z"
         id="use3308"
         style="fill:url(#linearGradient1011);fill-opacity:1;fill-rule:nonzero;stroke:#000000;stroke-width:0.30106518;stroke-linecap:square;stroke-linejoin:miter;stroke-miterlimit:4;stroke-dasharray:none;stroke-dashoffset:0;stroke-opacity:0.56363639" />
      <use
         xlink:href="#use3308"
         height="96"
         width="96"
         y="0"
         x="0"
         id="use3310"
         transform="translate(0,-4.0801695)" />
      <use
         xlink:href="#use3310"
         height="96"
         width="96"
         y="0"
         x="0"
         id="use3312"
         transform="translate(0,-4.0801695)" />
      <path
         d="m 39.077458,70.724797 c 0.14383,0 0.266576,0.148223 0.266576,0.340016 v 2.040083 c 0,0.191792 -0.122747,0.340015 -0.266576,0.340015 h -0.533157 c -0.143831,0 -0.266578,-0.148223 -0.266578,-0.340015 v -0.340013 h -0.799735 c -0.147683,0 -0.266576,-0.151646 -0.266576,-0.340014 V 71.74484 c 0,-0.188368 0.118893,-0.340014 0.266576,-0.340014 h 0.799735 v -0.340013 c 0,-0.191793 0.122748,-0.340016 0.266578,-0.340016 z"
         id="use3340"
         style="fill:url(#linearGradient1007);fill-opacity:1;fill-rule:nonzero;stroke:#000000;stroke-width:0.30106518;stroke-linecap:square;stroke-linejoin:miter;stroke-miterlimit:4;stroke-dasharray:none;stroke-dashoffset:0;stroke-opacity:0.56363639" />
      <use
         xlink:href="#use3340"
         height="96"
         width="96"
         y="0"
         x="0"
         id="use3342"
         transform="translate(0,-4.0801695)" />
      <path
         style="fill:url(#linearGradient3393);fill-opacity:1;fill-rule:nonzero;stroke:none;stroke-width:0.5"
         id="path3376"
         d="m 34.244566,50.964384 v 27.500002 c 0,1.101147 0.898853,2 1.999999,2 h 3 c 1.101148,0 2.000001,-0.898853 2.000001,-2 V 50.964384 h -0.5 v 27.500002 c 0,0.830999 -0.669,1.499999 -1.500001,1.499999 h -3 c -0.830999,0 -1.499999,-0.669 -1.499999,-1.499999 V 50.964384 Z" />
      <path
         style="fill:url(#linearGradient3516);fill-opacity:1;fill-rule:nonzero;stroke:none;stroke-width:0.47706693"
         id="rect3403"
         d="m 36.531437,52.57239 c -0.298876,0 -0.534671,0.252401 -0.534671,0.565924 l -0.0022,5.659252 c 9e-6,0.313524 0.235804,0.565926 0.53468,0.565926 h 2.428458 c 0.298875,0 0.53467,-0.252402 0.53467,-0.565926 l 0.0022,-5.659252 c 0,-0.313523 -0.235796,-0.565924 -0.53467,-0.565924 z" />
      <path
         style="fill:url(#linearGradient3489);fill-opacity:1;fill-rule:nonzero;stroke:none;stroke-width:0.47706693"
         id="rect3470"
         d="m 38.851169,53.068087 c 0.120483,0 0.217478,0.116686 0.217478,0.261627 v 5.265247 c 0,0.144942 -0.09699,0.261627 -0.217478,0.261627 h -2.21556 c -0.120483,0 -0.217478,-0.116685 -0.217478,-0.261627 v -5.265247 c 0,-0.144941 0.09699,-0.261627 0.217478,-0.261627 z" />
      <rect
         style="fill:url(#linearGradient3530);fill-opacity:1;fill-rule:nonzero;stroke:#000000;stroke-width:0.5;stroke-linecap:square;stroke-linejoin:miter;stroke-miterlimit:4;stroke-dasharray:none;stroke-dashoffset:0;stroke-opacity:0.56363639"
         id="rect3399"
         y="50.95657"
         x="36.899864"
         ry="0.25"
         rx="0.28156728"
         height="2.5"
         width="1.6894037" />
      <use
         style="display:inline"
         xlink:href="#use3310"
         height="96"
         width="96"
         y="0"
         x="0"
         id="use3312-3"
         transform="translate(0.0683589,-8.1033929)" />
      <use
         style="display:inline"
         xlink:href="#use3340"
         height="96"
         width="96"
         y="0"
         x="0"
         id="use3342-7"
         transform="translate(0.0683589,-8.1033929)" />
      <path
         id="ellipse4291"
         d="m 23.558519,55.495643 c -2.865138,-0.0011 -5.216355,2.896433 -5.188315,8.072362 h 10.375101 c 0.05619,-5.26208 -2.322244,-8.072218 -5.186786,-8.072362 z m -2.351097,3.296529 c 0.01121,-6.27e-4 0.02242,-6.27e-4 0.03363,0 0.256557,3.69e-4 0.464477,0.321783 0.464717,0.718384 -2.4e-4,0.396599 -0.20816,0.838721 -0.464717,0.839091 -0.256559,-3.7e-4 -0.542857,-0.442492 -0.543097,-0.839091 -4.27e-4,-0.377177 0.266127,-0.690763 0.509465,-0.718384 z m 4.28181,0 h 0.0015 c 0.01067,-5.82e-4 0.02141,-5.82e-4 0.0321,0 0.256559,3.69e-4 0.542438,0.321783 0.542676,0.718384 -2.38e-4,0.396599 -0.286117,0.838721 -0.542676,0.839091 -0.256557,-3.7e-4 -0.464477,-0.442492 -0.464716,-0.839091 -4.29e-4,-0.377177 0.187747,-0.690763 0.431086,-0.718384 z m -7.119028,5.985742 v 10.366933 c 0,1.073921 0.560329,1.937745 1.255041,1.937745 h 7.866549 c 0.694712,0 1.253511,-0.863824 1.253511,-1.937745 V 64.777914 Z"
         style="display:inline;fill:#ebf9d3;fill-opacity:1;stroke:none;stroke-width:7.07863188" />
      <use
         style="display:inline;fill:#77c159;stroke:none"
         id="use8"
         transform="matrix(-1,0,0,1,47.116242,2.3978622e-7)"
         xlink:href="#a"
         x="0"
         y="0"
         width="100%"
         height="100%" />
      <g
         style="display:inline;fill:#77c159;stroke:none;stroke-width:7.19999981;stroke-opacity:1"
         id="a"
         transform="matrix(0.05699965,0,0,0.0881131,23.558122,59.284734)">
        <rect
           style="fill:#ebf9d3;fill-opacity:1;stroke:none;stroke-opacity:1"
           id="rect11"
           x="14"
           y="-86"
           width="14.053626"
           height="58.80109"
           transform="rotate(29)"
           rx="4.7652445" />
        <rect
           style="fill:#ebf9d3;fill-opacity:1;stroke:none;stroke-opacity:1"
           x="-150.23874"
           y="41.498787"
           width="48"
           height="133"
           rx="24"
           id="c" />
        <use
           style="stroke:none;stroke-opacity:1"
           id="use14"
           xlink:href="#c"
           x="85"
           y="97"
           width="100%"
           height="100%"
           transform="translate(7.2387516,-0.49878655)" />
      </g>
    </g>
  </g>
</svg>
