<?xml version="1.0" encoding="UTF-8" standalone="no"?>
<svg
   xmlns:dc="http://purl.org/dc/elements/1.1/"
   xmlns:cc="http://creativecommons.org/ns#"
   xmlns:rdf="http://www.w3.org/1999/02/22-rdf-syntax-ns#"
   xmlns:svg="http://www.w3.org/2000/svg"
   xmlns="http://www.w3.org/2000/svg"
   xmlns:xlink="http://www.w3.org/1999/xlink"
   xmlns:sodipodi="http://sodipodi.sourceforge.net/DTD/sodipodi-0.dtd"
   xmlns:inkscape="http://www.inkscape.org/namespaces/inkscape"
   version="1.0"
   width="96"
   height="96"
   id="svg2408"
   style="display:inline"
   sodipodi:docname="application-pgp-keys.svg"
   inkscape:version="0.92.1 r">
  <sodipodi:namedview
     pagecolor="#ffffff"
     bordercolor="#666666"
     borderopacity="1"
     objecttolerance="10"
     gridtolerance="10"
     guidetolerance="10"
     inkscape:pageopacity="0"
     inkscape:pageshadow="2"
     inkscape:window-width="1920"
     inkscape:window-height="1011"
     id="namedview234"
     showgrid="false"
     inkscape:zoom="3.4766083"
     inkscape:cx="-18.889014"
     inkscape:cy="4.2247715"
     inkscape:window-x="0"
     inkscape:window-y="32"
     inkscape:window-maximized="1"
     inkscape:current-layer="layer7" />
  <defs
     id="defs2410">
    <linearGradient
       id="linearGradient3668">
      <stop
         id="stop3670"
         style="stop-color:#dacaef;stop-opacity:1"
         offset="0" />
      <stop
         id="stop3672"
         style="stop-color:#ece3f7;stop-opacity:1"
         offset="1" />
    </linearGradient>
    <linearGradient
       id="linearGradient3712">
      <stop
         id="stop3714"
         style="stop-color:#5e4389;stop-opacity:1"
         offset="0" />
      <stop
         id="stop3716"
         style="stop-color:#8568b5;stop-opacity:1"
         offset="1" />
    </linearGradient>
    <linearGradient
       x1="45.447727"
       y1="92.539597"
       x2="45.447727"
       y2="7.0165396"
       id="ButtonShadow"
       gradientUnits="userSpaceOnUse"
       gradientTransform="scale(1.0058652,0.994169)">
      <stop
         id="stop3750"
         style="stop-color:#000000;stop-opacity:1"
         offset="0" />
      <stop
         id="stop3752"
         style="stop-color:#000000;stop-opacity:0.58823532"
         offset="1" />
    </linearGradient>
    <linearGradient
       id="linearGradient3700">
      <stop
         id="stop3702"
         style="stop-color:#ebebeb;stop-opacity:1"
         offset="0" />
      <stop
         id="stop3704"
         style="stop-color:#fafafa;stop-opacity:1"
         offset="1" />
    </linearGradient>
    <linearGradient
       x1="48"
       y1="90"
       x2="48"
       y2="5.9877172"
       id="linearGradient3706"
       xlink:href="#linearGradient3700"
       gradientUnits="userSpaceOnUse" />
    <filter
       color-interpolation-filters="sRGB"
       id="filter3174">
      <feGaussianBlur
         id="feGaussianBlur3176"
         stdDeviation="1.71" />
    </filter>
    <linearGradient
       x1="45.447727"
       y1="92.539597"
       x2="45.447727"
       y2="7.0165396"
       id="ButtonShadow-0"
       gradientUnits="userSpaceOnUse"
       gradientTransform="matrix(1.0058652,0,0,0.994169,100,0)">
      <stop
         id="stop3750-8"
         style="stop-color:#000000;stop-opacity:1"
         offset="0" />
      <stop
         id="stop3752-5"
         style="stop-color:#000000;stop-opacity:0.58823532"
         offset="1" />
    </linearGradient>
    <linearGradient
       x1="32.251034"
       y1="6.1317081"
       x2="32.251034"
       y2="90.238609"
       id="linearGradient3780"
       xlink:href="#ButtonShadow-0"
       gradientUnits="userSpaceOnUse"
       gradientTransform="matrix(1.0238095,0,0,1.0119048,-1.1428571,-98.071429)" />
    <linearGradient
       x1="32.251034"
       y1="6.1317081"
       x2="32.251034"
       y2="90.238609"
       id="linearGradient3772"
       xlink:href="#ButtonShadow-0"
       gradientUnits="userSpaceOnUse"
       gradientTransform="matrix(1.0238095,0,0,1.0119048,-1.1428571,-98.071429)" />
    <linearGradient
       x1="32.251034"
       y1="6.1317081"
       x2="32.251034"
       y2="90.238609"
       id="linearGradient3725"
       xlink:href="#ButtonShadow-0"
       gradientUnits="userSpaceOnUse"
       gradientTransform="matrix(1.0238095,0,0,1.0119048,-1.1428571,-98.071429)" />
    <linearGradient
       x1="32.251034"
       y1="6.1317081"
       x2="32.251034"
       y2="90.238609"
       id="linearGradient3721"
       xlink:href="#ButtonShadow-0"
       gradientUnits="userSpaceOnUse"
       gradientTransform="translate(0,-97)" />
    <linearGradient
       x1="32.251034"
       y1="6.1317081"
       x2="32.251034"
       y2="90.238609"
       id="linearGradient3760"
       xlink:href="#ButtonShadow-0"
       gradientUnits="userSpaceOnUse"
       gradientTransform="matrix(1.0238095,0,0,1.0119048,-1.1428571,-98.071429)" />
    <linearGradient
       id="linearGradient3737-1">
      <stop
         id="stop3739-9"
         style="stop-color:#ffffff;stop-opacity:1"
         offset="0" />
      <stop
         id="stop3741-3"
         style="stop-color:#ffffff;stop-opacity:0"
         offset="1" />
    </linearGradient>
    <radialGradient
       cx="48"
       cy="90.171875"
       r="42"
       fx="48"
       fy="90.171875"
       id="radialGradient2886"
       xlink:href="#linearGradient3737-0"
       gradientUnits="userSpaceOnUse"
       gradientTransform="matrix(1.1573129,0,0,0.99590774,-7.551021,0.1971319)" />
    <linearGradient
       id="linearGradient3737-0">
      <stop
         id="stop3739-6"
         style="stop-color:#ffffff;stop-opacity:1"
         offset="0" />
      <stop
         id="stop3741-0"
         style="stop-color:#ffffff;stop-opacity:0"
         offset="1" />
    </linearGradient>
    <linearGradient
       x1="36.357143"
       y1="6"
       x2="36.357143"
       y2="63.893143"
       id="linearGradient3923"
       xlink:href="#linearGradient3737-1"
       gradientUnits="userSpaceOnUse" />
    <linearGradient
       x1="48.810036"
       y1="78.173363"
       x2="48.810036"
       y2="18.129204"
       id="linearGradient3718"
       xlink:href="#linearGradient3712"
       gradientUnits="userSpaceOnUse" />
    <linearGradient
       x1="61.40464"
       y1="60.062107"
       x2="34.5369"
       y2="44.550011"
       id="linearGradient3674"
       xlink:href="#linearGradient3668"
       gradientUnits="userSpaceOnUse" />
    <linearGradient
       id="linearGradient3737-9">
      <stop
         id="stop3739-2"
         style="stop-color:#ffffff;stop-opacity:1"
         offset="0" />
      <stop
         id="stop3741-1"
         style="stop-color:#ffffff;stop-opacity:0"
         offset="1" />
    </linearGradient>
    <clipPath
       id="clipPath3613">
      <rect
         width="84"
         height="84"
         rx="6"
         ry="6"
         x="6"
         y="6"
         id="rect3615"
         style="fill:#ffffff;fill-opacity:1;fill-rule:nonzero;stroke:none" />
    </clipPath>
    <filter
       x="-0.192"
       y="-0.192"
       width="1.3839999"
       height="1.3839999"
       color-interpolation-filters="sRGB"
       id="filter3794">
      <feGaussianBlur
         id="feGaussianBlur3796"
         stdDeviation="5.28" />
    </filter>
    <linearGradient
       x1="48"
       y1="20.220806"
       x2="48"
       y2="138.66119"
       id="linearGradient3707"
       xlink:href="#linearGradient3737-9"
       gradientUnits="userSpaceOnUse" />
    <clipPath
       id="clipPath4009">
      <path
         inkscape:connector-curvature="0"
         style="fill:#ff0000;fill-opacity:1;stroke:none"
         id="path4011"
         transform="matrix(1.4145804,-0.81670835,0.81670835,1.4145804,-56.163288,21.858899)"
         d="m 67.427683,45.744911 a 20.203051,20.203051 0 1 1 -40.406101,0 20.203051,20.203051 0 1 1 40.406101,0 z" />
    </clipPath>
    <filter
       id="filter4021"
       height="1.2173285"
       width="1.171959"
       y="-0.10866432"
       x="-0.085979491"
       style="color-interpolation-filters:sRGB">
      <feGaussianBlur
         stdDeviation="2.3558157"
         id="feGaussianBlur4023" />
    </filter>
    <linearGradient
       gradientTransform="matrix(0,-1.1877564,1.1877564,0,-4.766241,102.52193)"
       gradientUnits="userSpaceOnUse"
       xlink:href="#linearGradient3737-1"
       id="linearGradient4050"
       y2="45.744911"
       x2="94.365082"
       y1="45.744911"
       x1="27.021582" />
    <linearGradient
       gradientTransform="matrix(0,-1.1402464,1.1402464,0,-2.5928881,100.27825)"
       gradientUnits="userSpaceOnUse"
       xlink:href="#linearGradient3954"
       id="linearGradient3960"
       y2="45.744911"
       x2="67.427681"
       y1="45.744911"
       x1="27.021582" />
    <linearGradient
       id="linearGradient3954">
      <stop
         offset="0"
         style="stop-color:#1a1a1a;stop-opacity:1"
         id="stop3956" />
      <stop
         offset="1"
         style="stop-color:#3a3a3a;stop-opacity:1"
         id="stop3958" />
    </linearGradient>
    <radialGradient
       gradientTransform="matrix(0.50713316,0,0,0.50713316,25.618405,23.544534)"
       gradientUnits="userSpaceOnUse"
       xlink:href="#linearGradient3840"
       id="radialGradient3838"
       fy="45.744911"
       fx="47.224632"
       r="20.203051"
       cy="45.744911"
       cx="47.224632" />
    <linearGradient
       id="linearGradient3840">
      <stop
         offset="0"
         style="stop-color:#000000;stop-opacity:0"
         id="stop3842" />
      <stop
         offset="0.82844269"
         style="stop-color:#000000;stop-opacity:1"
         id="stop3844" />
      <stop
         offset="1"
         style="stop-color:#000000;stop-opacity:0"
         id="stop3846" />
    </linearGradient>
    <radialGradient
       gradientTransform="matrix(0.85320208,0,0,-0.85320208,8.6138848,87.384253)"
       gradientUnits="userSpaceOnUse"
       xlink:href="#linearGradient3971"
       id="radialGradient4046"
       fy="48"
       fx="48"
       r="27"
       cy="48"
       cx="48" />
    <linearGradient
       id="linearGradient3971">
      <stop
         offset="0"
         style="stop-color:#000000;stop-opacity:0"
         id="stop3973" />
      <stop
         offset="0.87387264"
         style="stop-color:#000000;stop-opacity:0"
         id="stop3979" />
      <stop
         offset="1"
         style="stop-color:#000000;stop-opacity:1"
         id="stop3975" />
    </linearGradient>
    <linearGradient
       gradientTransform="matrix(0.75232925,0,0,0.75232925,13.455777,10.318753)"
       gradientUnits="userSpaceOnUse"
       xlink:href="#linearGradient3737-1"
       id="linearGradient4170"
       y2="48"
       x2="60"
       y1="48"
       x1="36" />
    <linearGradient
       gradientTransform="matrix(0.75232925,0,0,0.75232925,13.455777,10.318753)"
       gradientUnits="userSpaceOnUse"
       xlink:href="#linearGradient3737-1"
       id="linearGradient4262"
       y2="59.90625"
       x2="53.529663"
       y1="36.09375"
       x1="41.712723" />
  </defs>
  <metadata
     id="metadata2413">
    <rdf:RDF>
      <cc:Work
         rdf:about="">
        <dc:format>image/svg+xml</dc:format>
        <dc:type
           rdf:resource="http://purl.org/dc/dcmitype/StillImage" />
        <dc:title></dc:title>
      </cc:Work>
    </rdf:RDF>
  </metadata>
  <g
     id="layer7"
     style="display:inline">
    <path
       style="display:inline;opacity:0.07999998;fill:#000000;fill-opacity:1;fill-rule:nonzero;stroke:none"
       id="path3786"
       d="M 12,95.03125 C 6.48891,95.03125 1.96875,90.51109 1.96875,85 l 0,-71 C 1.96875,8.4889098 6.48891,3.96875 12,3.96875 l 46,0 L 94.03125,40 l 0,45 c 0,5.51109 -4.52016,10.03125 -10.03125,10.03125 z" />
    <path
       d="M 12,94.03125 C 7.028367,94.03125 2.96875,89.971633 2.96875,85 l 0,-71 C 2.96875,9.0283671 7.0283671,4.96875 12,4.96875 l 46,0 L 93.03125,40 l 0,45 c 0,4.971633 -4.059617,9.03125 -9.03125,9.03125 z"
       id="path3778"
       style="display:inline;opacity:0.1;fill:#000000;fill-opacity:1;fill-rule:nonzero;stroke:none" />
    <path
       style="display:inline;opacity:1;fill:#bed1ea;fill-opacity:1;fill-rule:nonzero;stroke:none"
       id="path3770"
       d="M 12,93 C 7.5908667,93 4,89.409133 4,85 L 4,14 C 4,9.5908667 7.5908667,6 12,6 l 46,0 34,34 0,45 c 0,4.409133 -3.590867,8 -8,8 z" />
  </g>
  <g
     id="layer5" />
  <g
     id="layer2"
     style="display:none">
    <rect
       width="86"
       height="85"
       rx="6"
       ry="6"
       x="5"
       y="7"
       id="rect3745"
       style="opacity:0.9;fill:url(#ButtonShadow);fill-opacity:1;fill-rule:nonzero;stroke:none;filter:url(#filter3174)" />
  </g>
  <g
     id="layer1"
     style="display:inline"
     transform="matrix(1,0,0,1.013697,0,0.76727147)" />
  <g
     id="layer3">
    <path
       style="opacity:1;fill:#d2eaff;fill-opacity:1"
       d="M 57.995739,5.9954837 91.997421,39.983051 57.871247,39.980672 Z"
       id="rect4263" />
    <g
       id="layer4-1"
       style="display:inline"
       transform="matrix(0.70368362,0,0,0.70368362,-2.2179247,14.215163)">
      <path
         inkscape:connector-curvature="0"
         style="display:inline;fill:#8c9ab6;fill-opacity:1;stroke:none"
         id="path3870"
         d="M 76.017183,31.165154 A 30.541373,30.541373 0 1 1 23.117978,61.70653 30.541373,30.541373 0 1 1 76.017183,31.165154 Z" />
      <g
         style="display:inline;filter:url(#filter4021)"
         id="g3999"
         clip-path="url(#clipPath4009)"
         transform="matrix(0.93108669,0,0,0.93108669,4.8754212,1.7436846)">
        <path
           inkscape:connector-curvature="0"
           style="opacity:0.2;fill:#ffffff;fill-opacity:1;stroke:none"
           id="path3993"
           transform="matrix(1.3223889e-8,-1.6334168,1.6334168,1.3223889e-8,-26.773438,125.16807)"
           d="M 67.328442,47.744933 A 20.203051,20.203051 0 0 1 49.376819,65.833001 l -2.152187,-20.08809 z" />
        <path
           inkscape:connector-curvature="0"
           style="opacity:0.2;fill:#ffffff;fill-opacity:1;stroke:none"
           id="path3995"
           transform="matrix(1.6334168,1.3223889e-8,-1.3223889e-8,1.6334168,-29.106939,-26.712314)"
           d="m 66.786077,50.795965 a 20.203051,20.203051 0 0 1 -3.136879,6.713167 L 47.224632,45.744911 Z" />
      </g>
      <path
         inkscape:connector-curvature="0"
         style="display:inline;opacity:0.6;fill:url(#linearGradient4050);fill-opacity:1;stroke:none"
         id="path4040"
         d="m 49.567578,22.434252 a 23.996307,23.996307 0 0 1 0,47.992614 23.996307,23.996307 0 1 1 0,-47.992614 z" />
      <path
         inkscape:connector-curvature="0"
         style="display:inline;fill:url(#linearGradient3960);fill-opacity:1;stroke:none"
         id="path3898"
         d="m 49.567581,23.394098 a 23.036457,23.036457 0 0 1 0,46.072913 23.036457,23.036457 0 1 1 0,-46.072913 z" />
      <path
         inkscape:connector-curvature="0"
         style="display:inline;opacity:0.1;fill:#000000;fill-opacity:1;stroke:none"
         id="path4031"
         d="m 49.327619,28.883253 c -1.335773,0.194927 -1.85607,1.573527 -2.653629,2.484406 -0.625223,0.831612 -1.25045,1.663221 -1.875674,2.494832 -5.547969,1.862765 -9.687601,7.345013 -9.715519,13.233618 -0.209801,6.097093 3.909068,12.002101 9.68144,13.959923 5.457461,2.002772 12.009674,0.265039 15.748713,-4.19595 4.015096,-4.486043 4.7196,-11.572657 1.550438,-16.713577 -1.727348,-2.968557 -4.615913,-5.152209 -7.779315,-6.354213 -1.132941,-1.455147 -2.178801,-3.002206 -3.366698,-4.399115 -0.430675,-0.401871 -1.00868,-0.553288 -1.589756,-0.509924 z" />
      <path
         inkscape:connector-curvature="0"
         style="display:inline;opacity:0.15;fill:#000000;fill-opacity:1;stroke:none"
         id="path4027"
         d="m 49.597577,29.933093 a 1.0059971,1.0059971 0 0 0 -0.839869,0.419936 l -3.239503,4.319337 c -5.422066,1.724524 -9.388554,6.735334 -9.388554,12.718041 0,7.400776 6.037159,13.437933 13.43793,13.437933 7.400773,0 13.437933,-6.037157 13.437933,-13.437933 0,-5.982707 -3.96649,-10.993517 -9.388555,-12.718041 l -3.239502,-4.319337 a 1.0059971,1.0059971 0 0 0 -0.77988,-0.419936 z" />
      <path
         inkscape:connector-curvature="0"
         style="display:inline;opacity:0.3;fill:#000000;fill-opacity:1;stroke:none"
         id="path4021"
         d="m 49.567581,30.965728 -3.362531,4.483375 c -5.226102,1.464212 -9.052972,6.247633 -9.052972,11.941304 0,6.856898 5.558609,12.415508 12.415503,12.415508 6.856897,0 12.415508,-5.55861 12.415508,-12.415508 0,-5.693671 -3.826875,-10.477092 -9.052973,-11.941304 z" />
      <path
         inkscape:connector-curvature="0"
         style="display:inline;fill:#a4b4cb;fill-opacity:1;stroke:none"
         id="path3848"
         d="m 49.567581,30.005877 -3.362531,4.483375 c -5.226102,1.464209 -9.052972,6.247633 -9.052972,11.941304 0,6.856895 5.558609,12.415506 12.415503,12.415506 6.856897,0 12.415508,-5.558611 12.415508,-12.415506 0,-5.693671 -3.826875,-10.477095 -9.052973,-11.941304 z" />
      <path
         inkscape:connector-curvature="0"
         style="display:inline;fill:url(#radialGradient3838);fill-opacity:1;stroke:none"
         id="path4144"
         d="m 59.813218,46.743295 a 10.245638,10.245638 0 1 1 -20.491275,0 10.245638,10.245638 0 1 1 20.491275,0 z" />
      <path
         inkscape:connector-curvature="0"
         style="display:inline;fill:#b2c7e2;fill-opacity:1;stroke:none"
         id="path3904"
         d="m 58.595534,46.430558 a 9.0279516,9.0279516 0 0 1 -18.055903,0 9.0279516,9.0279516 0 1 1 18.055903,0 z" />
      <path
         inkscape:connector-curvature="0"
         style="display:inline;opacity:0.7;fill:#ffffff;fill-opacity:1;stroke:none"
         id="rect3893"
         d="m 37.934241,27.660516 1.19468,-0.689752 2.759001,4.77873 -1.194685,0.689753 z m -9.8651,13.723633 0.357042,-1.332494 5.329979,1.428164 -0.357041,1.332497 z m 2.728401,16.679752 -0.689749,-1.19468 4.778731,-2.759004 0.689746,1.194683 z m 13.723633,9.865094 -1.332493,-0.357042 1.428164,-5.329979 1.332494,0.35704 z m 16.679751,-2.7284 -1.194687,0.689753 -2.758999,-4.778731 1.194684,-0.689751 z M 71.066024,51.476967 70.70898,52.80946 65.379001,51.381296 65.73604,50.048803 Z m -2.728395,-16.679755 0.689751,1.194683 -4.778729,2.759003 -0.689752,-1.194684 z m -13.723638,-9.865101 1.332497,0.357042 -1.428164,5.329979 -1.332499,-0.357041 z" />
      <path
         inkscape:connector-curvature="0"
         style="display:inline;fill:url(#radialGradient4046);fill-opacity:1;stroke:none"
         id="path3962"
         d="m 49.567582,69.46701 c -12.722682,0 -23.036456,-10.313775 -23.036456,-23.036457 0,-12.722684 10.313774,-23.03645 23.036456,-23.03645 12.722687,0 23.036459,10.313766 23.036459,23.03645 0,12.722682 -10.313772,23.036457 -23.036459,23.036457 z m 0,-3.732759 c 10.654558,0 19.303698,-8.649137 19.303698,-19.303698 0,-10.65456 -8.64914,-19.303701 -19.303698,-19.303701 -10.654557,0 -19.303698,8.649143 -19.303698,19.303701 0,10.654561 8.649141,19.303698 19.303698,19.303698 z" />
      <path
         inkscape:connector-curvature="0"
         style="display:inline;opacity:0.2;fill:url(#linearGradient4170);fill-opacity:1;stroke:none"
         id="path4072"
         d="m 49.567581,37.402608 c -0.394481,0 -0.787566,0.01927 -1.175512,0.07059 l 1.175512,2.938776 1.175516,-2.938788 c -0.388,-0.05085 -0.781033,-0.07059 -1.175516,-0.07059 z m 1.175516,0.07059 0.376165,3.150379 1.904331,-2.539112 C 52.661987,37.934868 52.27614,37.810372 51.895101,37.708278 51.514062,37.606179 51.131094,37.524055 50.743097,37.473172 Z m 2.280496,0.611267 -0.446695,3.12687 2.492093,-1.951354 c -0.310576,-0.238087 -0.6458,-0.461067 -0.987434,-0.658308 -0.341632,-0.197242 -0.696355,-0.367653 -1.057964,-0.517227 z m 2.045398,1.175516 -1.246047,2.915274 2.915276,-1.246046 c -0.238375,-0.310341 -0.4969,-0.614454 -0.775841,-0.893398 h -0.02352 c -0.27894,-0.27895 -0.559303,-0.537787 -0.869878,-0.775849 z m 1.669229,1.669228 -1.974863,2.492089 h 0.02353 l 3.126871,-0.446693 c -0.149927,-0.361489 -0.319979,-0.71636 -0.51722,-1.057991 h -0.02351 C 57.17578,41.574978 56.97662,41.239516 56.738243,40.929175 Z m 1.175516,2.045392 -2.539113,1.904337 2.915276,-0.799356 c -0.102094,-0.381056 -0.226232,-0.74354 -0.376163,-1.105002 z m -2.539113,1.904337 3.150378,0.376161 c -0.05126,-0.387946 -0.132998,-0.77096 -0.235102,-1.152001 l -2.915276,0.775838 z m 3.150378,0.376161 -2.938786,1.175515 2.938786,1.175514 c 0.05086,-0.387998 0.07058,-0.781031 0.07058,-1.175514 0,-0.394482 -0.01928,-0.787564 -0.07058,-1.175515 z m 0,2.351029 -3.150378,0.376166 2.539113,1.904331 c 0.14957,-0.361607 0.274066,-0.747451 0.376163,-1.128491 0.102096,-0.381042 0.184221,-0.764007 0.235102,-1.152006 z m -0.611265,2.280497 -3.12687,-0.446692 1.951354,2.49209 c 0.238066,-0.310573 0.461046,-0.645802 0.658288,-0.987431 0.197245,-0.341633 0.367654,-0.696358 0.517228,-1.057967 z m -1.175516,2.045398 -2.915276,-1.246045 1.246047,2.915275 c 0.310334,-0.238378 0.614446,-0.496899 0.893388,-0.775844 v -0.02352 c 0.278939,-0.278941 0.537775,-0.559308 0.775841,-0.869879 z m -1.669229,1.66923 -2.492093,-1.974864 v 0.02351 l 0.446695,3.126868 c 0.36146,-0.149933 0.716332,-0.319985 1.057964,-0.517226 v -0.02353 c 0.341634,-0.197242 0.677096,-0.396403 0.987434,-0.634778 z m -2.045398,1.175512 -1.904331,-2.539109 0.79935,2.915273 c 0.381039,-0.102095 0.743524,-0.226231 1.104981,-0.376164 z m -1.904331,-2.539109 -0.376165,3.150378 c 0.387947,-0.05126 0.770964,-0.132997 1.152004,-0.235105 l -0.775839,-2.915291 z m -0.376165,3.150362 -1.175516,-2.938783 -1.175512,2.938783 c 0.387998,0.05086 0.781031,0.07059 1.175512,0.07059 0.394483,0 0.787567,-0.01924 1.175516,-0.07059 z m -2.351028,0 -0.376168,-3.150376 -1.90433,2.53911 c 0.361607,0.149572 0.747452,0.274063 1.128492,0.376163 0.381038,0.102099 0.764006,0.184219 1.152006,0.235103 z m -2.280498,-0.611266 0.446696,-3.126871 -2.492092,1.951355 c 0.310575,0.238068 0.6458,0.461048 0.98743,0.658291 0.341631,0.19724 0.696357,0.367653 1.057966,0.517225 z m -2.045396,-1.175516 1.246044,-2.915273 -2.915277,1.246045 c 0.238379,0.310337 0.4969,0.614447 0.775843,0.893388 h 0.02352 c 0.278939,0.278942 0.559305,0.537775 0.869881,0.77584 z m -1.669233,-1.669228 1.974867,-2.492092 h -0.02353 l -3.126869,0.446696 c 0.149934,0.361456 0.319982,0.716331 0.517225,1.057964 h 0.02351 c 0.197242,0.341631 0.396402,0.677095 0.634777,0.987432 z m -1.175511,-2.045396 2.53911,-1.904332 -2.915275,0.799348 c 0.102096,0.38104 0.226231,0.743523 0.376165,1.104984 z m 2.53911,-1.904336 -3.150378,-0.376167 c 0.05126,0.38795 0.133009,0.770962 0.235103,1.152005 z m -3.150378,-0.376171 2.938783,-1.175514 -2.938783,-1.175512 c -0.05084,0.388 -0.07058,0.781028 -0.07058,1.175512 0,0.394483 0.01926,0.787566 0.07058,1.175514 z m 0,-2.351026 3.150378,-0.376164 -2.53911,-1.904338 c -0.149576,0.361609 -0.274065,0.747454 -0.376165,1.128496 -0.102097,0.381041 -0.184222,0.764004 -0.235103,1.152006 z m 0.611268,-2.280502 3.126868,0.446697 -1.951357,-2.492093 c -0.238066,0.310576 -0.461046,0.645802 -0.658288,0.987435 -0.197241,0.34163 -0.367654,0.696354 -0.517223,1.057961 z m 1.175511,-2.045396 2.915277,1.246047 -1.246044,-2.915275 c -0.310337,0.238377 -0.614451,0.496898 -0.89339,0.775839 v 0.02351 c -0.278942,0.278938 -0.537775,0.559304 -0.775843,0.869878 z m 1.669233,-1.669228 2.492092,1.974865 v -0.02353 l -0.446696,-3.126871 c -0.361462,0.149936 -0.716333,0.319986 -1.057966,0.517228 v 0.02355 c -0.34163,0.197226 -0.677093,0.396388 -0.98743,0.634765 z m 2.045396,-1.175516 1.90433,2.539112 -0.799347,-2.915272 c -0.381044,0.102091 -0.743525,0.226231 -1.104983,0.37616 z m 1.90433,2.539112 0.376168,-3.150378 c -0.38795,0.05126 -0.770966,0.132999 -1.152006,0.235106 z" />
      <path
         inkscape:connector-curvature="0"
         style="display:inline;fill:#a4b4cb;fill-opacity:1;stroke:none"
         id="path3825"
         d="m 58.577447,46.430556 c 0,-4.986 -4.023866,-9.009864 -9.009866,-9.009864 -4.985997,0 -9.009863,4.023864 -9.009863,9.009864 0,4.985999 4.023866,9.009864 9.009863,9.009864 4.986,0 9.009866,-4.023865 9.009866,-9.009864 z m -2.931439,0 c 0,3.350574 -2.727852,6.078423 -6.078427,6.078423 -3.350573,0 -6.078425,-2.727849 -6.078425,-6.078423 0,-3.350575 2.727852,-6.078426 6.078425,-6.078426 3.350575,0 6.078427,2.727851 6.078427,6.078426 z" />
      <path
         inkscape:connector-curvature="0"
         style="display:inline;opacity:0.7;fill:url(#linearGradient4262);fill-opacity:1;stroke:none"
         id="path4079"
         d="m 48.392069,37.473136 -0.376168,3.150379 c 0.518215,-0.138856 1.039438,-0.210689 1.55168,-0.211593 z m 1.175512,2.938786 c 0.536495,0 1.05666,0.07987 1.551681,0.211593 l -0.376165,-3.150379 z m 1.551681,0.211593 c 0.518214,0.138858 1.01357,0.332417 1.457636,0.587759 l 0.446695,-3.126871 z m 1.457636,0.587759 c 0.46462,0.268247 0.883197,0.602349 1.246046,0.963919 l 1.246047,-2.915274 z m 1.246046,0.963919 c 0.37936,0.379359 0.68351,0.802883 0.940413,1.246046 l 1.974863,-2.492092 z m -5.807043,-1.551678 -1.90433,-2.539112 0.446696,3.126871 c 0.464616,-0.26825 0.963085,-0.454309 1.457634,-0.587759 z m -3.949726,-1.363596 1.246044,2.915274 c 0.379358,-0.379358 0.802884,-0.683509 1.246048,-0.94041 z m 1.246044,2.915274 -2.915277,-1.246046 1.951357,2.492092 c 0.268248,-0.464614 0.602351,-0.883197 0.96392,-1.246046 z m -0.96392,1.246046 -3.126868,-0.446695 2.53911,1.904336 c 0.138853,-0.518213 0.332417,-1.013575 0.587758,-1.457641 z m -0.587758,1.457641 -3.150378,0.376163 2.938783,1.175514 c 0,-0.536491 0.07984,-1.056659 0.211595,-1.551677 z m -0.211595,1.551677 -2.938783,1.175513 3.150378,0.376166 c -0.138857,-0.518214 -0.21069,-1.039439 -0.211595,-1.551679 z m 0.211595,1.551679 -2.53911,1.904335 3.126868,-0.446696 C 44.080051,48.975254 43.89399,48.476788 43.760541,47.982236 Z m 14.153195,-5.007692 -3.12687,0.446695 c 0.268248,0.464618 0.454309,0.963085 0.587757,1.457641 z m -2.539113,1.904336 c 0.138856,0.518211 0.210692,1.039435 0.211592,1.551677 l 2.938786,-1.175514 z m 0.211592,1.551677 c 0,0.536491 -0.07987,1.05666 -0.211592,1.551679 l 3.150378,-0.376166 z m -0.211592,1.551679 c -0.138857,0.518213 -0.332418,1.013573 -0.587757,1.457639 l 3.12687,0.446696 z m -0.587757,1.457639 c -0.268248,0.464616 -0.602352,0.883196 -0.963922,1.246046 l 2.915276,1.246045 z m -0.963922,1.246046 c -0.379361,0.379358 -0.802879,0.683509 -1.246046,0.94041 l 2.492093,1.974863 z m -9.451135,-1.246046 -1.974867,2.492091 2.915277,-1.246045 c -0.379357,-0.379361 -0.683511,-0.802883 -0.94041,-1.246046 z m 0.94041,1.246046 -1.246044,2.915273 2.492092,-1.951355 c -0.46462,-0.268245 -0.883199,-0.602349 -1.246048,-0.963918 z m 1.246048,0.963918 -0.446696,3.126869 1.90433,-2.53911 c -0.518213,-0.138856 -1.013569,-0.332417 -1.457634,-0.587759 z m 1.457634,0.587759 0.376168,3.150379 1.175512,-2.938785 c -0.536493,0 -1.056659,-0.07987 -1.55168,-0.211594 z m 1.55168,0.211594 1.175516,2.938785 0.376165,-3.150379 c -0.518216,0.138854 -1.03944,0.210693 -1.551681,0.211594 z m 1.551681,-0.211594 1.904331,2.53911 -0.446695,-3.126869 c -0.464616,0.268249 -0.963082,0.45431 -1.457636,0.587759 z" />
      <path
         inkscape:connector-curvature="0"
         style="display:inline;opacity:0.3;fill:#000000;fill-opacity:1;stroke:none"
         id="path4176"
         d="m 48.392069,37.473136 1.175512,2.938786 1.175516,-2.938786 -1.175516,1.434126 z m 0,0 -0.775841,1.669229 v 0.02355 l -1.504657,-1.081472 1.90433,2.539112 0.376168,-3.150378 z m -2.280498,0.611267 -0.305637,1.833807 -1.739759,-0.658291 2.492092,1.974864 v -0.02354 l -0.446696,-3.12687 z m -2.045396,1.175516 0.188081,1.857312 -1.857314,-0.188084 2.915277,1.246046 z m -1.669233,1.669228 0.658289,1.739766 -1.8338,0.305631 3.126868,0.446695 z m -1.175511,2.045397 1.081472,1.504658 -1.69274,0.775841 3.150378,-0.376163 z m -0.611268,2.280499 1.434127,1.175514 -1.434127,1.175513 2.938783,-1.175513 z m 0,2.351027 1.669229,0.775842 h 0.02353 l -1.081474,1.504659 2.539111,-1.904335 -3.150379,-0.376166 z m 0.611268,2.280501 1.8338,0.305634 -0.658289,1.739761 1.974867,-2.492091 h -0.02353 l -3.126869,0.446696 z m 1.175511,2.045395 1.857314,-0.188085 -0.188081,1.857313 1.246044,-2.915273 z m 1.669233,1.669228 1.739759,-0.658285 0.305637,1.833799 0.446696,-3.126869 z m 2.045396,1.175514 1.504657,-1.081471 0.775841,1.69274 -0.376168,-3.150379 z m 2.280498,0.611269 1.175512,-1.434126 1.175516,1.434126 -1.175516,-2.938785 z m 2.351028,0 0.77584,-1.669232 v -0.02354 l 1.504656,1.081473 -1.904331,-2.539111 -0.376165,3.150379 z m 2.280496,-0.611269 0.305635,-1.833799 1.739763,0.658285 -2.492093,-1.974863 v 0.02352 l 0.446695,3.126869 z m 2.045398,-1.175514 -0.188084,-1.857313 1.857313,0.188085 -2.915276,-1.246045 z m 1.669229,-1.669228 -0.658287,-1.739761 1.833803,-0.305634 -3.12687,-0.446696 z m 1.175516,-2.045395 -1.081473,-1.504659 1.692738,-0.775842 -3.150378,0.376166 z m 0.611265,-2.280501 -1.434127,-1.175513 1.434127,-1.175514 -2.938786,1.175514 z m 0,-2.351027 -1.66923,-0.775841 h -0.02351 l 1.081474,-1.504658 -2.539114,1.904336 3.150378,0.376163 z m -0.611265,-2.280499 -1.833803,-0.305631 0.658287,-1.739766 -1.974863,2.492092 h 0.02353 l 3.126871,-0.446695 z m -1.175516,-2.045397 -1.857313,0.188084 0.188084,-1.857312 -1.246047,2.915274 z m -1.669229,-1.669228 -1.739763,0.658291 -0.305635,-1.833807 -0.446695,3.126871 z m -2.045398,-1.175516 -1.504656,1.081475 -0.77584,-1.692742 0.376165,3.150379 z" />
      <path
         inkscape:connector-curvature="0"
         style="display:inline;opacity:0.8;fill:#ffffff;fill-opacity:1;stroke:none"
         id="path4012"
         d="m 49.567581,29.993082 -3.359483,4.49931 c -5.226099,1.464214 -9.058603,6.244493 -9.058603,11.938164 0,0.173555 0.023,0.338097 0.02999,0.509922 0.19793,-5.491914 3.942573,-10.063265 9.028611,-11.488232 l 3.359483,-4.49931 3.359484,4.49931 c 5.086038,1.424967 8.830682,5.996318 9.028615,11.488232 0.0073,-0.171825 0.02999,-0.336367 0.02999,-0.509922 0,-5.693671 -3.832508,-10.47395 -9.058607,-11.938164 l -3.359482,-4.49931 z" />
      <path
         inkscape:connector-curvature="0"
         style="display:inline;opacity:0.3;fill:#ffffff;fill-opacity:1;stroke:none"
         id="path4037"
         d="m 44.528356,24.923864 -1.349792,0.359943 0.749886,2.789572 c 0.442148,-0.135856 0.894675,-0.225806 1.349791,-0.32995 z m 15.477621,2.039685 -1.439778,2.519614 c 0.407705,0.217074 0.810284,0.444937 1.199815,0.689893 l 1.439779,-2.519612 z m -29.215506,7.828797 -0.689895,1.199814 2.519614,1.439782 c 0.217072,-0.407711 0.444935,-0.810287 0.689895,-1.199818 z m 39.923857,5.249195 -2.789569,0.74988 c 0.135853,0.44215 0.225809,0.894678 0.329951,1.349794 l 2.819566,-0.749883 z m -39.833872,10.678353 -2.819566,0.749885 0.359945,1.349796 2.789572,-0.749886 c -0.135855,-0.442152 -0.22581,-0.894675 -0.329951,-1.349795 z m 35.634519,4.709276 c -0.217073,0.407708 -0.444935,0.810285 -0.689894,1.199817 l 2.519614,1.43978 0.689893,-1.199818 z m -27.145823,7.258886 -1.439779,2.519614 1.199815,0.689891 1.439779,-2.519613 c -0.407708,-0.217072 -0.810284,-0.444937 -1.199815,-0.689892 z m 15.837564,2.099674 c -0.442148,0.135857 -0.894678,0.225809 -1.349792,0.329951 l 0.749884,2.819566 1.349793,-0.359943 z" />
      <path
         inkscape:connector-curvature="0"
         style="display:inline;opacity:0.3;fill:#ffffff;fill-opacity:1;stroke:none"
         id="path4044"
         d="m 50.266408,24.352438 -1.396961,-0.0017 0.0024,2.888604 c 0.462239,-0.01677 0.92263,0.01347 1.389192,0.03067 l 0.0057,-2.917579 z m 14.422321,5.976092 -2.042841,2.061114 c 0.337632,0.315197 0.667514,0.639494 0.980373,0.976922 l 2.042846,-2.061115 z m -30.246252,5.04e-4 -0.976925,0.980375 2.06112,2.042841 c 0.315198,-0.337635 0.639492,-0.667514 0.976923,-0.980375 z m 37.204894,15.403386 -2.888601,0.0024 c 0.01677,0.462245 -0.01347,0.922632 -0.03067,1.389196 l 2.917573,0.0057 0.0017,-1.396959 z m -41.240327,0.0049 -2.917578,-0.0057 -0.0017,1.39696 2.888601,-0.0024 c -0.01677,-0.462247 0.01347,-0.922635 0.03067,-1.389196 z m 33.201452,13.771702 c -0.315199,0.337632 -0.639494,0.667514 -0.976924,0.980375 l 2.061117,2.042843 0.976922,-0.980376 z m -28.099591,-0.01437 -2.042844,2.061121 0.980376,0.976921 2.042843,-2.061119 c -0.337631,-0.315239 -0.667514,-0.63953 -0.980375,-0.97696 z m 14.754476,6.127195 c -0.462246,0.01677 -0.922635,-0.01347 -1.389198,-0.03067 l -0.0057,2.917575 1.396957,0.0017 -0.0024,-2.888604 z" />
    </g>
  </g>
  <g
     id="layer4">
    <path
       d="m 12.030853,92.9176 c -4.409133,0 -8,-3.59086 -8,-8 v -9 H 92.03085 v 9 c 0,4.40914 -3.59086,8 -7.999997,8 z"
       id="path3770-3"
       style="display:inline;opacity:0.3;fill:#000000;fill-opacity:1;fill-rule:nonzero;stroke:none"
       inkscape:connector-curvature="0" />
    <g
       transform="translate(0.53021025,-0.00398573)"
       style="display:inline"
       id="layer9">
      <g
         id="text4342"
         style="font-style:normal;font-weight:normal;font-size:40px;line-height:125%;font-family:sans-serif;letter-spacing:0px;word-spacing:0px;display:inline;fill:#000000;fill-opacity:1;stroke:none;stroke-width:1px;stroke-linecap:butt;stroke-linejoin:miter;stroke-opacity:1">
        <path
           inkscape:connector-curvature="0"
           id="path4377"
           style="font-style:normal;font-variant:normal;font-weight:bold;font-stretch:normal;font-size:15.00000095px;font-family:sans-serif;-inkscape-font-specification:'sans-serif Bold';fill:#ffffff"
           d="m 31.571852,78.716445 h 2.819824 v 3.9917 l 4.064942,-3.9917 h 3.273926 l -5.266114,5.178223 5.808106,5.756837 h -3.530274 l -4.350586,-4.306641 v 4.306641 h -2.819824 z" />
        <path
           inkscape:connector-curvature="0"
           id="path4379"
           style="font-style:normal;font-variant:normal;font-weight:bold;font-stretch:normal;font-size:15.00000095px;font-family:sans-serif;-inkscape-font-specification:'sans-serif Bold';fill:#ffffff"
           d="m 43.202712,78.716445 h 7.609864 v 2.131348 h -4.790039 v 2.036133 h 4.504394 v 2.131348 h -4.504394 v 2.504883 h 4.951172 v 2.131348 h -7.770997 z" />
        <path
           inkscape:connector-curvature="0"
           id="path4381"
           style="font-style:normal;font-variant:normal;font-weight:bold;font-stretch:normal;font-size:15.00000095px;font-family:sans-serif;-inkscape-font-specification:'sans-serif Bold';fill:#ffffff"
           d="m 51.933182,78.716445 h 3.083496 l 2.490235,3.896485 2.490234,-3.896485 h 3.090821 l -4.167481,6.328126 v 4.606934 h -2.819825 v -4.606934 z" />
      </g>
    </g>
    <path
       style="display:inline;opacity:0.3;fill:#000000;fill-opacity:1"
       d="m 66.20203,39.974967 25.797379,10e-4 -0.187492,22.640398 z"
       id="rect4263-5" />
  </g>
</svg>
