<?xml version="1.0" encoding="UTF-8" standalone="no"?>
<svg
   xmlns:dc="http://purl.org/dc/elements/1.1/"
   xmlns:cc="http://creativecommons.org/ns#"
   xmlns:rdf="http://www.w3.org/1999/02/22-rdf-syntax-ns#"
   xmlns:svg="http://www.w3.org/2000/svg"
   xmlns="http://www.w3.org/2000/svg"
   xmlns:xlink="http://www.w3.org/1999/xlink"
   xmlns:sodipodi="http://sodipodi.sourceforge.net/DTD/sodipodi-0.dtd"
   xmlns:inkscape="http://www.inkscape.org/namespaces/inkscape"
   version="1.0"
   width="96"
   height="96"
   id="svg2408"
   style="display:inline"
   sodipodi:docname="phatch-actionlist.svg"
   inkscape:version="0.92.1 r">
  <sodipodi:namedview
     pagecolor="#ffffff"
     bordercolor="#666666"
     borderopacity="1"
     objecttolerance="10"
     gridtolerance="10"
     guidetolerance="10"
     inkscape:pageopacity="0"
     inkscape:pageshadow="2"
     inkscape:window-width="755"
     inkscape:window-height="480"
     id="namedview102"
     showgrid="false"
     inkscape:zoom="2.4583333"
     inkscape:cx="48"
     inkscape:cy="48"
     inkscape:window-x="0"
     inkscape:window-y="32"
     inkscape:window-maximized="0"
     inkscape:current-layer="layer3" />
  <defs
     id="defs2410">
    <linearGradient
       id="linearGradient3668">
      <stop
         id="stop3670"
         style="stop-color:#dacaef;stop-opacity:1"
         offset="0" />
      <stop
         id="stop3672"
         style="stop-color:#ece3f7;stop-opacity:1"
         offset="1" />
    </linearGradient>
    <linearGradient
       id="linearGradient3712">
      <stop
         id="stop3714"
         style="stop-color:#5e4389;stop-opacity:1"
         offset="0" />
      <stop
         id="stop3716"
         style="stop-color:#8568b5;stop-opacity:1"
         offset="1" />
    </linearGradient>
    <linearGradient
       x1="45.447727"
       y1="92.539597"
       x2="45.447727"
       y2="7.0165396"
       id="ButtonShadow"
       gradientUnits="userSpaceOnUse"
       gradientTransform="scale(1.0058652,0.994169)">
      <stop
         id="stop3750"
         style="stop-color:#000000;stop-opacity:1"
         offset="0" />
      <stop
         id="stop3752"
         style="stop-color:#000000;stop-opacity:0.58823532"
         offset="1" />
    </linearGradient>
    <linearGradient
       id="linearGradient3700">
      <stop
         id="stop3702"
         style="stop-color:#ebebeb;stop-opacity:1"
         offset="0" />
      <stop
         id="stop3704"
         style="stop-color:#fafafa;stop-opacity:1"
         offset="1" />
    </linearGradient>
    <linearGradient
       x1="48"
       y1="90"
       x2="48"
       y2="5.9877172"
       id="linearGradient3706"
       xlink:href="#linearGradient3700"
       gradientUnits="userSpaceOnUse" />
    <filter
       color-interpolation-filters="sRGB"
       id="filter3174">
      <feGaussianBlur
         id="feGaussianBlur3176"
         stdDeviation="1.71" />
    </filter>
    <linearGradient
       x1="45.447727"
       y1="92.539597"
       x2="45.447727"
       y2="7.0165396"
       id="ButtonShadow-0"
       gradientUnits="userSpaceOnUse"
       gradientTransform="matrix(1.0058652,0,0,0.994169,100,0)">
      <stop
         id="stop3750-8"
         style="stop-color:#000000;stop-opacity:1"
         offset="0" />
      <stop
         id="stop3752-5"
         style="stop-color:#000000;stop-opacity:0.58823532"
         offset="1" />
    </linearGradient>
    <linearGradient
       x1="32.251034"
       y1="6.1317081"
       x2="32.251034"
       y2="90.238609"
       id="linearGradient3780"
       xlink:href="#ButtonShadow-0"
       gradientUnits="userSpaceOnUse"
       gradientTransform="matrix(1.0238095,0,0,1.0119048,-1.1428571,-98.071429)" />
    <linearGradient
       x1="32.251034"
       y1="6.1317081"
       x2="32.251034"
       y2="90.238609"
       id="linearGradient3772"
       xlink:href="#ButtonShadow-0"
       gradientUnits="userSpaceOnUse"
       gradientTransform="matrix(1.0238095,0,0,1.0119048,-1.1428571,-98.071429)" />
    <linearGradient
       x1="32.251034"
       y1="6.1317081"
       x2="32.251034"
       y2="90.238609"
       id="linearGradient3725"
       xlink:href="#ButtonShadow-0"
       gradientUnits="userSpaceOnUse"
       gradientTransform="matrix(1.0238095,0,0,1.0119048,-1.1428571,-98.071429)" />
    <linearGradient
       x1="32.251034"
       y1="6.1317081"
       x2="32.251034"
       y2="90.238609"
       id="linearGradient3721"
       xlink:href="#ButtonShadow-0"
       gradientUnits="userSpaceOnUse"
       gradientTransform="translate(0,-97)" />
    <linearGradient
       x1="32.251034"
       y1="6.1317081"
       x2="32.251034"
       y2="90.238609"
       id="linearGradient3760"
       xlink:href="#ButtonShadow-0"
       gradientUnits="userSpaceOnUse"
       gradientTransform="matrix(1.0238095,0,0,1.0119048,-1.1428571,-98.071429)" />
    <linearGradient
       id="linearGradient3737-1">
      <stop
         id="stop3739-9"
         style="stop-color:#ffffff;stop-opacity:1"
         offset="0" />
      <stop
         id="stop3741-3"
         style="stop-color:#ffffff;stop-opacity:0"
         offset="1" />
    </linearGradient>
    <radialGradient
       cx="48"
       cy="90.171875"
       r="42"
       fx="48"
       fy="90.171875"
       id="radialGradient2886"
       xlink:href="#linearGradient3737-0"
       gradientUnits="userSpaceOnUse"
       gradientTransform="matrix(1.1573129,0,0,0.99590774,-7.551021,0.1971319)" />
    <linearGradient
       id="linearGradient3737-0">
      <stop
         id="stop3739-6"
         style="stop-color:#ffffff;stop-opacity:1"
         offset="0" />
      <stop
         id="stop3741-0"
         style="stop-color:#ffffff;stop-opacity:0"
         offset="1" />
    </linearGradient>
    <linearGradient
       x1="36.357143"
       y1="6"
       x2="36.357143"
       y2="63.893143"
       id="linearGradient3923"
       xlink:href="#linearGradient3737-1"
       gradientUnits="userSpaceOnUse" />
    <linearGradient
       x1="48.810036"
       y1="78.173363"
       x2="48.810036"
       y2="18.129204"
       id="linearGradient3718"
       xlink:href="#linearGradient3712"
       gradientUnits="userSpaceOnUse" />
    <linearGradient
       x1="61.40464"
       y1="60.062107"
       x2="34.5369"
       y2="44.550011"
       id="linearGradient3674"
       xlink:href="#linearGradient3668"
       gradientUnits="userSpaceOnUse" />
    <linearGradient
       id="linearGradient3737-9">
      <stop
         id="stop3739-2"
         style="stop-color:#ffffff;stop-opacity:1"
         offset="0" />
      <stop
         id="stop3741-1"
         style="stop-color:#ffffff;stop-opacity:0"
         offset="1" />
    </linearGradient>
    <clipPath
       id="clipPath3613">
      <rect
         width="84"
         height="84"
         rx="6"
         ry="6"
         x="6"
         y="6"
         id="rect3615"
         style="fill:#ffffff;fill-opacity:1;fill-rule:nonzero;stroke:none" />
    </clipPath>
    <filter
       x="-0.192"
       y="-0.192"
       width="1.3839999"
       height="1.3839999"
       color-interpolation-filters="sRGB"
       id="filter3794">
      <feGaussianBlur
         id="feGaussianBlur3796"
         stdDeviation="5.28" />
    </filter>
    <linearGradient
       x1="48"
       y1="20.220806"
       x2="48"
       y2="138.66119"
       id="linearGradient3707"
       xlink:href="#linearGradient3737-9"
       gradientUnits="userSpaceOnUse" />
    <clipPath
       id="clipPath3720">
      <path
         d="m -100,-74 0,96 96,0 0,-96 -96,0 z m 48.25,20.375 c 5.310324,0 10.282712,1.532132 14.5,4.125 l -4.75,7.875 c -2.817244,-1.742827 -6.188048,-2.749999 -9.75,-2.75 -9.630238,0 -17.522742,7.344919 -18.375,16.75 l 9.875,0 -13.875,20.75 -13.875,-20.75 8.625,0 c 0.894193,-14.496311 12.90481,-26.000003 27.625,-26 z m 21.875,8 13.875,20.75 -8.625,0 c -0.894192,14.496312 -12.904808,26.000004 -27.625,26 -5.310324,0 -10.282712,-1.532132 -14.5,-4.125 l 4.75,-7.875 c 2.817244,1.742828 6.188048,2.75 9.75,2.75 9.63024,0 17.52274,-7.34492 18.375,-16.75 l -9.875,0 13.875,-20.75 z"
         id="path3722"
         style="color:#000000;display:inline;overflow:visible;visibility:visible;opacity:0.3;fill:#ff0000;fill-opacity:1;fill-rule:nonzero;stroke:none;stroke-width:4;marker:none;enable-background:accumulate" />
    </clipPath>
    <filter
       style="color-interpolation-filters:sRGB"
       id="filter3724">
      <feGaussianBlur
         id="feGaussianBlur3726"
         stdDeviation="0.950625" />
    </filter>
    <linearGradient
       x1="10"
       y1="4"
       x2="10"
       y2="18"
       id="linearGradient3760-6"
       xlink:href="#linearGradient3904"
       gradientUnits="userSpaceOnUse"
       gradientTransform="matrix(4,0,0,4,-4.75,0)" />
    <linearGradient
       x1="11"
       y1="3.9374998"
       x2="11"
       y2="18.083122"
       id="linearGradient3904"
       gradientUnits="userSpaceOnUse">
      <stop
         id="stop3906"
         style="stop-color:#323232;stop-opacity:1"
         offset="0" />
      <stop
         id="stop3908"
         style="stop-color:#787878;stop-opacity:1"
         offset="1" />
    </linearGradient>
    <linearGradient
       gradientTransform="matrix(0.7525584,0,0,0.8008702,-9.1523261,-7.3234914)"
       gradientUnits="userSpaceOnUse"
       xlink:href="#linearGradient4360"
       id="linearGradient3759-6"
       y2="24.043467"
       x2="62.136082"
       y1="103.95654"
       x1="62.136082" />
    <linearGradient
       id="linearGradient4360">
      <stop
         offset="0"
         style="stop-color:#4f821e;stop-opacity:1"
         id="stop4362" />
      <stop
         offset="1"
         style="stop-color:#639632;stop-opacity:1"
         id="stop4364" />
    </linearGradient>
    <linearGradient
       x1="75.078453"
       y1="50.524475"
       x2="75.078453"
       y2="16.595808"
       id="linearGradient4331"
       xlink:href="#linearGradient4553"
       gradientUnits="userSpaceOnUse"
       gradientTransform="matrix(0.88275862,0,0,0.88275862,-10.582343,18.462746)" />
    <linearGradient
       id="linearGradient4553">
      <stop
         id="stop4555"
         style="stop-color:#418c18;stop-opacity:1"
         offset="0" />
      <stop
         id="stop4557"
         style="stop-color:#74b21c;stop-opacity:1"
         offset="1" />
    </linearGradient>
    <linearGradient
       gradientTransform="matrix(0.86235199,0,0,0.86235199,-56.761207,-553.47746)"
       gradientUnits="userSpaceOnUse"
       xlink:href="#linearGradient4560-8"
       id="linearGradient2997"
       y2="675.35034"
       x2="141"
       y1="723.34747"
       x1="141.70711" />
    <linearGradient
       id="linearGradient4560-8">
      <stop
         offset="0"
         style="stop-color:#444444;stop-opacity:1"
         id="stop4562-3" />
      <stop
         offset="1"
         style="stop-color:#888888;stop-opacity:1"
         id="stop4564-4" />
    </linearGradient>
    <linearGradient
       gradientTransform="matrix(0.84593847,0,0,0.84536615,-55.143485,-540.96251)"
       gradientUnits="userSpaceOnUse"
       xlink:href="#linearGradient3833-2"
       id="linearGradient3282-3"
       y2="678.83179"
       x2="120.5"
       y1="706.87787"
       x1="120.5" />
    <linearGradient
       id="linearGradient3833-2">
      <stop
         offset="0"
         style="stop-color:#8fd400;stop-opacity:1"
         id="stop3835-2" />
      <stop
         offset="1"
         style="stop-color:#daff31;stop-opacity:1"
         id="stop3837-2" />
    </linearGradient>
  </defs>
  <metadata
     id="metadata2413">
    <rdf:RDF>
      <cc:Work
         rdf:about="">
        <dc:format>image/svg+xml</dc:format>
        <dc:type
           rdf:resource="http://purl.org/dc/dcmitype/StillImage" />
        <dc:title />
      </cc:Work>
    </rdf:RDF>
  </metadata>
  <g
     id="layer7"
     style="display:inline">
    <path
       style="display:inline;opacity:0.07999998;fill:#000000;fill-opacity:1;fill-rule:nonzero;stroke:none"
       id="path3786"
       d="M 12,95.03125 C 6.48891,95.03125 1.96875,90.51109 1.96875,85 l 0,-71 C 1.96875,8.4889098 6.48891,3.96875 12,3.96875 l 46,0 L 94.03125,40 l 0,45 c 0,5.51109 -4.52016,10.03125 -10.03125,10.03125 z" />
    <path
       d="M 12,94.03125 C 7.028367,94.03125 2.96875,89.971633 2.96875,85 l 0,-71 C 2.96875,9.0283671 7.0283671,4.96875 12,4.96875 l 46,0 L 93.03125,40 l 0,45 c 0,4.971633 -4.059617,9.03125 -9.03125,9.03125 z"
       id="path3778"
       style="display:inline;opacity:0.1;fill:#000000;fill-opacity:1;fill-rule:nonzero;stroke:none" />
    <path
       style="display:inline;opacity:1;fill:#d3dcea;fill-opacity:1;fill-rule:nonzero;stroke:none"
       id="path3770"
       d="M 12,93 C 7.5908667,93 4,89.409133 4,85 L 4,14 C 4,9.5908667 7.5908667,6 12,6 l 46,0 34,34 0,45 c 0,4.409133 -3.590867,8 -8,8 z" />
  </g>
  <g
     id="layer5" />
  <g
     id="layer2"
     style="display:none">
    <rect
       width="86"
       height="85"
       rx="6"
       ry="6"
       x="5"
       y="7"
       id="rect3745"
       style="opacity:0.9;fill:url(#ButtonShadow);fill-opacity:1;fill-rule:nonzero;stroke:none;filter:url(#filter3174)" />
  </g>
  <g
     id="layer1"
     style="display:inline"
     transform="matrix(1,0,0,1.013697,0,0.76727147)" />
  <g
     id="layer3">
    <path
       style="opacity:1;fill:#daeaff;fill-opacity:1"
       d="M 57.995739,5.9954837 91.997421,39.983051 57.871247,39.980672 Z"
       id="rect4263" />
  </g>
  <g
     id="layer4">
    <path
       d="m 12.030853,92.9176 c -4.409133,0 -8,-3.59086 -8,-8 l 0,-9 87.999997,0 0,9 c 0,4.40914 -3.59086,8 -7.999997,8 z"
       id="path3770-3"
       style="display:inline;opacity:1;fill:#7fa73a;fill-opacity:1;fill-rule:nonzero;stroke:none" />
    <path
       style="display:inline;opacity:0.3;fill:#000000;fill-opacity:1"
       d="m 66.20203,39.974967 25.797379,10e-4 -0.187492,22.640398 z"
       id="rect4263-5" />
  </g>
  <g
     id="layer6">
    <g
       id="layer4-4"
       style="display:inline"
       transform="matrix(0.64280851,0,0,0.64280851,6.012593,18.637446)">
      <path
         style="display:inline;fill:url(#linearGradient2997);fill-opacity:1;stroke:none"
         id="path3610"
         d="m 6.4202507,59.900538 c 1.9255727,2.506443 18.3442843,14.178061 39.9248403,14.178061 21.580554,0 43.341443,-9.986838 48.545913,-15.024382 C 91.666057,54.226091 73.110417,28.533532 46.485648,28.993112 17.865478,29.487099 6.8303572,58.06717 6.4202507,59.900538 Z" />
      <path
         style="display:inline;opacity:0.05;fill:#000000;fill-opacity:1;stroke:none"
         id="path4159"
         d="M 46.472177,28.97859 C 17.852024,29.472578 6.8303572,58.066326 6.4202507,59.899695 8.3458234,62.406138 24.782495,74.08703 46.363051,74.08703 c 21.580547,0 43.323483,-9.986472 48.527953,-15.024022 C 91.666057,54.234883 73.096955,28.519007 46.472177,28.97859 Z m 0.07274,3.492267 c 12.177994,-0.210213 22.682438,5.608685 30.666465,12.259304 6.280302,5.231438 10.251724,10.219441 12.659467,13.496161 -2.916052,1.951796 -7.648625,4.595035 -14.260086,6.948152 -8.483751,3.019495 -18.994509,5.420295 -29.247735,5.420295 -10.162111,0 -19.209786,-2.750367 -25.900981,-5.820454 -3.345596,-1.535033 -6.090115,-3.136825 -8.07587,-4.474462 -1.126023,-0.758515 -1.251603,-0.928213 -1.818888,-1.418729 0.34851,-0.810996 0.735043,-1.740006 1.345983,-2.910223 1.438803,-2.755926 3.606985,-6.279775 6.58437,-9.749251 5.954778,-6.938949 14.888447,-13.523674 28.047273,-13.750793 z" />
      <path
         style="display:inline;overflow:visible;visibility:visible;opacity:0.07999998;fill:#000000;fill-opacity:1;fill-rule:nonzero;stroke:none;stroke-width:1;marker:none;enable-background:accumulate"
         id="path4080"
         d="m 45.999267,31.743298 c -1.502085,0.169288 -3.246708,-0.04872 -4.56929,0.798673 -1.346624,1.000041 -0.818549,2.821664 -0.923749,4.257836 -1.058166,0.479842 -2.048588,1.099395 -2.740847,-0.158027 -0.741376,-0.857447 -1.742521,-1.792916 -2.978248,-1.423108 -1.699813,0.5764 -2.9216,2.155867 -4.195398,3.361687 -0.939398,1.163929 -2.607992,2.532706 -1.944669,4.221783 0.50243,1.019119 1.522841,1.662007 2.255433,2.510062 -0.446883,1.078566 -0.710547,2.261935 -2.104159,1.855274 -1.199539,-0.114239 -2.629994,0.07429 -3.195227,1.302106 -0.772508,2.707068 -0.700574,5.680195 -0.04823,8.410761 0.521279,1.190486 1.873289,1.520866 3.058154,1.382347 1.164961,-0.223916 1.876723,0.153774 2.070871,1.402604 0.502795,0.779413 -0.826299,1.247748 -1.206347,1.877512 -1.147963,0.813089 -1.307074,2.56544 -0.308957,3.564376 1.500819,1.941598 3.255565,3.802722 5.407961,5.014669 1.152729,0.417901 2.259714,-0.278314 2.951261,-1.168742 0.658008,-0.77624 1.303152,-1.507168 2.267736,-0.597321 1.167844,0.08793 0.564469,1.383374 0.710584,2.171085 -0.214097,1.422279 0.906972,2.846256 2.38276,2.829959 2.479948,0.386877 5.145553,0.491796 7.548368,-0.324764 1.160496,-0.616786 1.253472,-2.021865 1.164089,-3.186083 -0.406732,-1.35148 0.740769,-1.574808 1.782512,-1.97955 1.075883,0.958563 2.007864,2.566824 3.674153,2.328174 1.773625,-0.552033 3.031393,-2.146762 4.368025,-3.355972 0.970718,-1.155744 2.664122,-2.539671 1.998085,-4.246981 -0.491663,-1.005883 -1.49768,-1.638498 -2.21904,-2.473689 0.44688,-1.078556 0.710536,-2.26194 2.104154,-1.855277 1.17,0.120988 2.539703,-0.121418 3.086095,-1.302107 0.768661,-2.70732 0.704533,-5.680491 0.04823,-8.41075 -0.521292,-1.190484 -1.873304,-1.520877 -3.058161,-1.382357 -1.291009,0.339284 -1.74607,-0.477926 -2.069855,-1.629737 -0.06565,-0.666659 0.996023,-1.145493 1.398274,-1.734194 1.077388,-0.815726 1.121084,-2.499858 0.189906,-3.445127 -1.501508,-1.950619 -3.251833,-3.829996 -5.409096,-5.0501 -1.152728,-0.417905 -2.259719,0.27831 -2.951256,1.168741 -0.68119,0.974474 -1.448844,1.276671 -2.466032,0.465324 -0.90627,-0.214227 -0.300752,-1.473725 -0.475915,-2.193987 0.188668,-1.384074 -0.933445,-2.695708 -2.335425,-2.716183 -1.079962,-0.173489 -2.172033,-0.288478 -3.266754,-0.288917 z m 0,14.69662 c 3.718005,-0.139774 6.875908,3.569069 6.185668,7.21673 -0.427736,3.689723 -4.565474,6.221426 -8.05846,5.018484 -3.686913,-0.999389 -5.536969,-5.690889 -3.635595,-8.973861 1.053728,-1.999385 3.251613,-3.288685 5.508387,-3.261353 z" />
      <path
         style="display:inline;overflow:visible;visibility:visible;opacity:0.15;fill:#000000;fill-opacity:1;fill-rule:nonzero;stroke:none;stroke-width:1;marker:none;enable-background:accumulate"
         id="path4076"
         d="m 45.999267,32.907384 c -1.161388,0 -2.27018,0.143094 -3.34675,0.327401 a 1.1542305,1.1542305 0 0 0 -0.982202,1.127716 l 0,3.164861 c -1.147998,0.335999 -2.218218,0.813883 -3.237617,1.382362 L 36.10452,36.617918 a 1.1542305,1.1542305 0 0 0 -1.455114,-0.109187 c -1.88297,1.320121 -3.490663,2.981353 -4.801863,4.83824 a 1.1542305,1.1542305 0 0 0 0.145512,1.455116 l 2.255419,2.255417 c -0.576278,1.028199 -1.043314,2.115487 -1.382362,3.27401 l -3.201244,0 a 1.1542305,1.1542305 0 0 0 -1.127703,0.982202 c -0.190685,1.096096 -0.3274,2.211366 -0.3274,3.383134 0,1.171773 0.135944,2.318934 0.3274,3.419502 a 1.1542305,1.1542305 0 0 0 1.127703,0.982201 l 3.201244,0 c 0.339048,1.158535 0.806082,2.245817 1.382362,3.274006 l -2.255419,2.255417 a 1.1542305,1.1542305 0 0 0 -0.145512,1.455118 c 1.323039,1.873624 2.96631,3.491047 4.838237,4.801864 a 1.1542305,1.1542305 0 0 0 1.455113,-0.145516 l 2.255421,-2.255411 c 1.027783,0.575881 2.115051,1.043154 3.274001,1.382357 l 0,3.164863 a 1.1542305,1.1542305 0 0 0 0.982202,1.127712 c 1.07655,0.184292 2.185343,0.327399 3.34675,0.327399 1.182776,-1.5e-5 2.372894,-0.130282 3.492271,-0.327399 a 1.1542305,1.1542305 0 0 0 0.94582,-1.127712 l 0,-3.164863 c 1.148006,-0.335994 2.218218,-0.81388 3.237621,-1.382357 l 2.182671,2.219046 a 1.1542305,1.1542305 0 0 0 1.491488,0.145503 c 1.855192,-1.308237 3.54727,-2.908881 4.87462,-4.801866 a 1.1542305,1.1542305 0 0 0 -0.14551,-1.455083 l -2.219047,-2.219046 c 0.576277,-1.028189 1.043305,-2.115478 1.382357,-3.274007 l 3.09211,0 a 1.1542305,1.1542305 0 0 0 1.127713,-0.982202 c 0.191451,-1.100569 0.327401,-2.247758 0.327401,-3.419501 0,-1.171755 -0.136751,-2.287059 -0.327401,-3.383134 a 1.1542305,1.1542305 0 0 0 -1.127713,-0.982198 l -3.09211,0 c -0.339052,-1.15853 -0.806078,-2.245816 -1.382357,-3.274004 l 2.219047,-2.219044 a 1.1542305,1.1542305 0 0 0 0.14551,-1.455103 C 60.908057,39.507022 59.252,37.862779 57.385512,36.545143 a 1.1542305,1.1542305 0 0 0 -1.455108,0.145515 l -2.219042,2.219047 C 52.68357,38.333821 51.596313,37.866547 50.437358,37.527344 l 0,-3.164863 a 1.1542305,1.1542305 0 0 0 -0.94582,-1.127699 c -1.119359,-0.197113 -2.309477,-0.3274 -3.492271,-0.3274 z m 0,12.368447 c 4.109329,1.7e-5 7.421068,3.314858 7.421068,7.421069 0,4.106217 -3.311743,7.421069 -7.421068,7.421069 -4.109312,1.7e-5 -7.421065,-3.314862 -7.421065,-7.421069 0,-4.106188 3.311751,-7.421069 7.421065,-7.421069 z" />
      <path
         style="display:inline;overflow:visible;visibility:visible;opacity:0.3;fill:#000000;fill-opacity:1;fill-rule:nonzero;stroke:none;stroke-width:1;marker:none;enable-background:accumulate"
         id="path4061"
         d="m 46.011881,34.071475 c -1.079584,0 -2.148457,0.101047 -3.1778,0.277235 l 0,3.956959 c -1.696461,0.376653 -3.269284,1.060886 -4.691028,1.965877 l -2.824711,-2.822798 c -1.764129,1.2368 -3.297372,2.777281 -4.539716,4.536641 l 2.824719,2.822788 c -0.9056,1.420809 -1.59032,2.992561 -1.967209,4.687864 l -3.984869,0 c -0.181414,1.042897 -0.277414,2.106132 -0.277414,3.200859 0,1.094748 0.09598,2.183145 0.277414,3.226041 l 3.984869,0 c 0.376889,1.695332 1.061609,3.267098 1.967209,4.687863 l -2.824719,2.822799 c 1.244335,1.762162 2.797271,3.273632 4.564938,4.511451 l 2.799489,-2.797603 c 1.421744,0.904952 2.994567,1.589239 4.691028,1.965878 l 0,3.931739 c 1.029343,0.176218 2.098203,0.277258 3.1778,0.277258 1.11006,-2.6e-5 2.196729,-0.09112 3.253464,-0.277258 l 0,-3.931739 c 1.69646,-0.376639 3.269286,-1.060884 4.691027,-1.965878 l 2.749051,2.772387 c 1.76336,-1.24348 3.32629,-2.770168 4.564928,-4.536638 l -2.774259,-2.772396 c 0.905588,-1.420782 1.590298,-2.992531 1.967193,-4.687863 l 3.883981,0 c 0.181422,-1.042888 0.277427,-2.131321 0.277427,-3.226041 0,-1.0947 -0.096,-2.157949 -0.277427,-3.200859 l -3.883981,0 C 60.08639,47.800713 59.40168,46.228961 58.496092,44.808177 l 2.774259,-2.772386 C 60.03354,40.271928 58.49072,38.716477 56.730632,37.473954 l -2.77426,2.797592 c -1.421741,-0.90498 -2.994567,-1.589235 -4.691027,-1.965877 l 0,-3.931756 C 48.20861,34.187828 47.121941,34.071475 46.011881,34.071475 Z m -0.02529,10.05622 c 4.735362,1.9e-5 8.600228,3.837044 8.600228,8.569205 0,4.732172 -3.864866,8.569207 -8.600228,8.569207 -4.735363,2e-5 -8.575008,-3.837045 -8.575008,-8.569207 0,-4.732141 3.839645,-8.569205 8.575008,-8.569205 z" />
      <path
         style="display:inline;overflow:visible;visibility:visible;fill:url(#linearGradient3282-3);fill-opacity:1;fill-rule:nonzero;stroke:none;stroke-width:1;marker:none;enable-background:accumulate"
         id="path3614"
         d="m 46.011881,32.907384 c -1.079584,0 -2.148457,0.101047 -3.1778,0.277235 l 0,3.956962 c -1.696461,0.376651 -3.269284,1.060888 -4.691028,1.965874 l -2.824711,-2.822793 c -1.764129,1.236797 -3.297372,2.777279 -4.539716,4.536641 l 2.824719,2.822787 c -0.9056,1.420802 -1.59032,2.992558 -1.967209,4.687864 l -3.984869,0 c -0.181414,1.042896 -0.277414,2.106132 -0.277414,3.200859 0,1.094749 0.09598,2.183146 0.277414,3.226041 l 3.984869,0 c 0.376889,1.695332 1.061609,3.267099 1.967209,4.687863 l -2.824719,2.822799 c 1.244335,1.762159 2.797271,3.273632 4.564938,4.51145 l 2.799489,-2.797601 c 1.421744,0.904951 2.994567,1.589239 4.691028,1.965876 l 0,3.931738 c 1.029343,0.17622 2.098203,0.277243 3.1778,0.277243 1.11006,-9e-6 2.196729,-0.09106 3.253464,-0.277243 l 0,-3.931738 c 1.69646,-0.376637 3.269286,-1.060896 4.691027,-1.965876 l 2.749051,2.772386 c 1.76336,-1.24348 3.32629,-2.77018 4.564928,-4.536637 l -2.774259,-2.772397 c 0.905588,-1.420781 1.590298,-2.992531 1.967193,-4.687863 l 3.883981,0 c 0.181422,-1.042888 0.277427,-2.131321 0.277427,-3.226041 0,-1.0947 -0.096,-2.157953 -0.277427,-3.200859 l -3.883981,0 C 60.08639,46.636621 59.40168,45.064874 58.496092,43.64409 l 2.774259,-2.772387 C 60.03354,39.107842 58.49072,37.55238 56.730632,36.309868 l -2.77426,2.797587 c -1.421741,-0.904976 -2.994567,-1.589231 -4.691027,-1.965874 l 0,-3.931755 c -1.056735,-0.18609 -2.143404,-0.302442 -3.253464,-0.302442 z m -0.02529,10.056223 c 4.735362,2e-5 8.600228,3.837044 8.600228,8.569206 0,4.732168 -3.864866,8.569207 -8.600228,8.569207 -4.735363,2e-5 -8.575008,-3.83705 -8.575008,-8.569207 0,-4.732141 3.839645,-8.569206 8.575008,-8.569206 z" />
      <path
         style="display:inline;opacity:0.07999998;fill:#000000;fill-opacity:1;stroke:none"
         id="path4149"
         d="M 46.472177,28.97859 C 17.852024,29.472578 6.8303572,58.066326 6.4202507,59.899695 8.3458234,62.406138 24.782495,74.08703 46.363051,74.08703 c 21.580547,0 43.323483,-9.986472 48.527953,-15.024022 C 91.666057,54.234883 73.096955,28.519007 46.472177,28.97859 Z m 0.03644,2.255422 c 12.574639,-0.217063 23.382943,5.786279 31.503146,12.550332 7.003847,5.834142 11.397172,11.621893 13.605291,14.732992 -2.800147,2.093233 -8.196683,5.18412 -15.606064,7.821225 -8.588689,3.056848 -19.206881,5.493052 -29.647889,5.493052 -10.381749,0 -19.594504,-2.83873 -26.410267,-5.965968 -3.407874,-1.5636 -6.21496,-3.207522 -8.257756,-4.583589 C 10.162982,60.25 9.5852924,59.675992 9.0758754,59.208525 c 0.06042,-0.15987 0.03672,-0.115851 0.109199,-0.291033 0.370406,-0.895188 0.9002266,-2.08104 1.6369936,-3.49226 1.473544,-2.822459 3.71381,-6.446931 6.766264,-10.003884 6.104906,-7.113928 15.358931,-13.953267 28.920316,-14.187336 z" />
      <path
         style="display:inline;overflow:visible;visibility:visible;opacity:0.4;fill:#ffffff;fill-opacity:1;fill-rule:nonzero;stroke:none;stroke-width:1;marker:none;enable-background:accumulate"
         id="path4065"
         d="m 45.999267,32.907384 c -1.079578,0 -2.135513,0.114797 -3.164866,0.291027 l 0,1.16409 c 1.029353,-0.176231 2.085288,-0.291026 3.164866,-0.291026 1.11006,0 2.217263,0.104891 3.274001,0.291026 l 0,-1.16409 c -1.056738,-0.18609 -2.163941,-0.291027 -3.274001,-0.291027 z m -10.695061,3.383133 c -1.764118,1.2368 -3.268508,2.787864 -4.510851,4.547221 l 0.509291,0.509289 c 1.148505,-1.486894 2.460886,-2.81228 4.00156,-3.892418 l 2.83746,2.801085 c 1.421747,-0.904974 2.996276,-1.587747 4.692735,-1.9644 l 0,-1.164086 c -1.696459,0.376652 -3.270988,1.05942 -4.692735,1.9644 l -2.83746,-2.801091 z m 21.426505,0.03644 -2.764707,2.764707 c -1.421742,-0.904978 -2.996276,-1.587766 -4.692736,-1.964411 l 0,1.164091 c 1.69646,0.376641 3.270994,1.059432 4.692736,1.964396 l 2.764707,-2.764704 c 1.533101,1.082278 2.893168,2.404375 4.037935,3.892422 l 0.50929,-0.509288 c -1.236808,-1.7639 -2.787129,-3.304737 -4.547225,-4.547252 z m -23.572793,8.039462 c -0.688392,1.222371 -1.2147,2.556456 -1.527871,3.965177 l -3.965179,0 c -0.181413,1.042888 -0.291015,2.106522 -0.291015,3.201249 0,0.194774 0.03027,0.387879 0.03632,0.582043 0.02789,-0.891039 0.105427,-1.761863 0.254643,-2.619204 l 3.965178,0 c 0.376894,-1.695312 1.058806,-3.271928 1.964403,-4.692736 l -0.436501,-0.436536 z m 25.791839,0 -0.436532,0.436529 c 0.905586,1.420788 1.587501,2.997403 1.9644,4.692736 l 3.856043,0 c 0.149125,0.857349 0.226834,1.728179 0.25465,2.619204 0.0056,-0.194162 0.03638,-0.387273 0.03638,-0.582043 0,-1.0947 -0.109655,-2.158351 -0.29102,-3.201249 l -3.856044,0 c -0.313197,-1.408777 -0.839501,-2.742851 -1.527881,-3.965212 z m -21.499262,7.748455 c -0.01313,0.194017 -0.03644,0.384694 -0.03644,0.582045 0,4.732163 3.849798,8.585174 8.585156,8.585155 4.735364,0 8.585156,-3.852984 8.585156,-8.585155 0,-0.197352 -0.02316,-0.388027 -0.03636,-0.582045 -0.303918,4.458377 -4.010897,8.003113 -8.548782,8.003113 -4.53788,1.8e-5 -8.24679,-3.544743 -8.548772,-8.003113 z m -4.256205,7.748471 -2.400935,2.400931 c 0.160486,0.227247 0.33875,0.435923 0.509291,0.654801 l 2.291799,-2.291805 C 33.442675,60.389159 33.333251,60.109825 33.19429,59.86335 Z m 25.719092,0 c -0.138957,0.246476 -0.248383,0.525805 -0.400157,0.763927 l 2.255421,2.255416 c 0.170263,-0.219734 0.349549,-0.426978 0.50929,-0.654801 l -2.364554,-2.364551 z" />
      <path
         style="display:inline;opacity:0.3;fill:#000000;fill-opacity:1;stroke:none"
         id="path4136"
         d="M 46.472177,28.97859 C 17.852024,29.472578 6.8303572,58.066326 6.4202507,59.899695 c 0.066101,0.08605 0.1912269,0.22069 0.2910317,0.3274 C 8.5516454,55.202545 19.922579,30.600931 46.472177,30.142678 72.204373,29.6985 90.279321,53.532317 94.381711,59.499537 94.549699,59.353693 94.747754,59.20166 94.891004,59.063008 91.666057,54.234883 73.096955,28.519007 46.472177,28.97859 Z" />
      <path
         style="display:inline;opacity:0.15;fill:#000000;fill-opacity:1;stroke:none"
         id="path4145"
         d="M 46.472177,28.97859 C 17.852024,29.472578 6.8303572,58.066326 6.4202507,59.899695 8.3458234,62.406138 24.782495,74.08703 46.363051,74.08703 c 21.580547,0 43.323483,-9.986472 48.527953,-15.024022 C 91.666057,54.234883 73.096955,28.519007 46.472177,28.97859 Z m 0.03644,1.127708 c 12.949426,-0.223525 23.981831,5.933736 32.23071,12.804975 7.704319,6.417626 12.615247,13.081247 14.551106,15.897093 -2.68356,2.273967 -8.751419,5.728696 -16.879288,8.621525 -8.687835,3.092143 -19.429597,5.529422 -30.04804,5.529422 -10.589292,0 -19.94972,-2.857474 -26.883183,-6.038709 -3.466727,-1.590616 -6.30656,-3.243971 -8.403271,-4.656347 -1.8517456,-1.247374 -2.8821786,-2.202522 -3.3467486,-2.691963 0.09634,-0.287541 0.150171,-0.487183 0.400159,-1.091329 0.383675,-0.927239 0.920197,-2.158742 1.673372,-3.601407 1.5063506,-2.885311 3.7883716,-6.582524 6.9117826,-10.222146 6.246781,-7.279251 15.851663,-14.310476 29.793388,-14.551114 z" />
      <g
         id="text4260"
         style="font-style:normal;font-weight:normal;font-size:62.22692871px;line-height:125%;font-family:sans-serif;letter-spacing:0px;word-spacing:0px;fill:#000000;fill-opacity:1;stroke:none;stroke-width:1px;stroke-linecap:butt;stroke-linejoin:miter;stroke-opacity:1">
        <path
           id="path4280"
           style="font-style:normal;font-variant:normal;font-weight:bold;font-stretch:normal;font-size:23.33509827px;font-family:sans-serif;-inkscape-font-specification:'sans-serif Bold';fill:#ffffff"
           d="m 14.714422,93.942625 7.280825,0 q 3.247315,0 4.979217,1.447049 1.743296,1.435656 1.743296,4.101873 0,2.677613 -1.743296,4.124663 -1.731902,1.43565 -4.979217,1.43565 l -2.8941,0 0,5.90214 -4.386725,0 0,-17.011375 z m 4.386725,3.178951 0,4.751334 2.426942,0 q 1.276138,0 1.971178,-0.61528 0.695039,-0.62667 0.695039,-1.766083 0,-1.139409 -0.695039,-1.75469 -0.69504,-0.615281 -1.971178,-0.615281 l -2.426942,0 z" />
        <path
           id="path4282"
           style="font-style:normal;font-variant:normal;font-weight:bold;font-stretch:normal;font-size:23.33509827px;font-family:sans-serif;-inkscape-font-specification:'sans-serif Bold';fill:#ffffff"
           d="m 31.805559,93.942625 4.386725,0 0,6.483235 6.471844,0 0,-6.483235 4.386725,0 0,17.011375 -4.386725,0 0,-7.21246 -6.471844,0 0,7.21246 -4.386725,0 0,-17.011375 z" />
        <path
           id="path4284"
           style="font-style:normal;font-variant:normal;font-weight:bold;font-stretch:normal;font-size:23.33509827px;font-family:sans-serif;-inkscape-font-specification:'sans-serif Bold';fill:#ffffff"
           d="m 61.680863,107.85481 -6.859242,0 -1.082439,3.09919 -4.409513,0 6.300932,-17.011375 5.229888,0 6.300932,17.011375 -4.409513,0 -1.071045,-3.09919 z m -5.76541,-3.15616 4.660183,0 -2.324394,-6.768094 -2.335789,6.768094 z" />
        <path
           id="path4286"
           style="font-style:normal;font-variant:normal;font-weight:bold;font-stretch:normal;font-size:23.33509827px;font-family:sans-serif;-inkscape-font-specification:'sans-serif Bold';fill:#ffffff"
           d="m 65.554858,93.942625 15.678269,0 0,3.31568 -5.640075,0 0,13.695695 -4.386725,0 0,-13.695695 -5.651469,0 0,-3.31568 z" />
        <path
           id="path4288"
           style="font-style:normal;font-variant:normal;font-weight:bold;font-stretch:normal;font-size:23.33509827px;font-family:sans-serif;-inkscape-font-specification:'sans-serif Bold';fill:#ffffff"
           d="m 96.979761,110.01969 q -1.207774,0.62667 -2.518094,0.94571 -1.310321,0.31903 -2.734582,0.31903 -4.249996,0 -6.733908,-2.36997 -2.483912,-2.38136 -2.483912,-6.44906 0,-4.07908 2.483912,-6.449051 2.483912,-2.381365 6.733908,-2.381365 1.424261,0 2.734582,0.319035 1.31032,0.319034 2.518094,0.945709 l 0,3.520774 q -1.219168,-0.831768 -2.404154,-1.219167 -1.184985,-0.387399 -2.495305,-0.387399 -2.347183,0 -3.691686,1.50402 -1.344503,1.50402 -1.344503,4.147444 0,2.63204 1.344503,4.13606 1.344503,1.50402 3.691686,1.50402 1.31032,0 2.495305,-0.3874 1.184986,-0.3874 2.404154,-1.21917 l 0,3.52078 z" />
        <path
           id="path4290"
           style="font-style:normal;font-variant:normal;font-weight:bold;font-stretch:normal;font-size:23.33509827px;font-family:sans-serif;-inkscape-font-specification:'sans-serif Bold';fill:#ffffff"
           d="m 100.62587,93.942625 4.38672,0 0,6.483235 6.47185,0 0,-6.483235 4.38672,0 0,17.011375 -4.38672,0 0,-7.21246 -6.47185,0 0,7.21246 -4.38672,0 0,-17.011375 z" />
      </g>
    </g>
  </g>
</svg>
