<?xml version="1.0" encoding="UTF-8" standalone="no"?>
<svg
   xmlns:dc="http://purl.org/dc/elements/1.1/"
   xmlns:cc="http://creativecommons.org/ns#"
   xmlns:rdf="http://www.w3.org/1999/02/22-rdf-syntax-ns#"
   xmlns:svg="http://www.w3.org/2000/svg"
   xmlns="http://www.w3.org/2000/svg"
   xmlns:xlink="http://www.w3.org/1999/xlink"
   xmlns:sodipodi="http://sodipodi.sourceforge.net/DTD/sodipodi-0.dtd"
   xmlns:inkscape="http://www.inkscape.org/namespaces/inkscape"
   version="1.0"
   width="96"
   height="96"
   id="svg2408"
   style="display:inline"
   sodipodi:docname="svg.svg"
   inkscape:version="0.92.1 r">
  <sodipodi:namedview
     pagecolor="#ffffff"
     bordercolor="#666666"
     borderopacity="1"
     objecttolerance="10"
     gridtolerance="10"
     guidetolerance="10"
     inkscape:pageopacity="0"
     inkscape:pageshadow="2"
     inkscape:window-width="1920"
     inkscape:window-height="1011"
     id="namedview68"
     showgrid="false"
     inkscape:zoom="0.61458333"
     inkscape:cx="73.564526"
     inkscape:cy="-1.5560479"
     inkscape:window-x="0"
     inkscape:window-y="32"
     inkscape:window-maximized="1"
     inkscape:current-layer="layer7" />
  <defs
     id="defs2410">
    <linearGradient
       id="linearGradient3668">
      <stop
         id="stop3670"
         style="stop-color:#dacaef;stop-opacity:1"
         offset="0" />
      <stop
         id="stop3672"
         style="stop-color:#ece3f7;stop-opacity:1"
         offset="1" />
    </linearGradient>
    <linearGradient
       id="linearGradient3712">
      <stop
         id="stop3714"
         style="stop-color:#5e4389;stop-opacity:1"
         offset="0" />
      <stop
         id="stop3716"
         style="stop-color:#8568b5;stop-opacity:1"
         offset="1" />
    </linearGradient>
    <linearGradient
       x1="45.447727"
       y1="92.539597"
       x2="45.447727"
       y2="7.0165396"
       id="ButtonShadow"
       gradientUnits="userSpaceOnUse"
       gradientTransform="scale(1.0058652,0.994169)">
      <stop
         id="stop3750"
         style="stop-color:#000000;stop-opacity:1"
         offset="0" />
      <stop
         id="stop3752"
         style="stop-color:#000000;stop-opacity:0.58823532"
         offset="1" />
    </linearGradient>
    <linearGradient
       id="linearGradient3700">
      <stop
         id="stop3702"
         style="stop-color:#ebebeb;stop-opacity:1"
         offset="0" />
      <stop
         id="stop3704"
         style="stop-color:#fafafa;stop-opacity:1"
         offset="1" />
    </linearGradient>
    <linearGradient
       x1="48"
       y1="90"
       x2="48"
       y2="5.9877172"
       id="linearGradient3706"
       xlink:href="#linearGradient3700"
       gradientUnits="userSpaceOnUse" />
    <filter
       color-interpolation-filters="sRGB"
       id="filter3174">
      <feGaussianBlur
         id="feGaussianBlur3176"
         stdDeviation="1.71" />
    </filter>
    <linearGradient
       x1="45.447727"
       y1="92.539597"
       x2="45.447727"
       y2="7.0165396"
       id="ButtonShadow-0"
       gradientUnits="userSpaceOnUse"
       gradientTransform="matrix(1.0058652,0,0,0.994169,100,0)">
      <stop
         id="stop3750-8"
         style="stop-color:#000000;stop-opacity:1"
         offset="0" />
      <stop
         id="stop3752-5"
         style="stop-color:#000000;stop-opacity:0.58823532"
         offset="1" />
    </linearGradient>
    <linearGradient
       x1="32.251034"
       y1="6.1317081"
       x2="32.251034"
       y2="90.238609"
       id="linearGradient3780"
       xlink:href="#ButtonShadow-0"
       gradientUnits="userSpaceOnUse"
       gradientTransform="matrix(1.0238095,0,0,1.0119048,-1.1428571,-98.071429)" />
    <linearGradient
       x1="32.251034"
       y1="6.1317081"
       x2="32.251034"
       y2="90.238609"
       id="linearGradient3772"
       xlink:href="#ButtonShadow-0"
       gradientUnits="userSpaceOnUse"
       gradientTransform="matrix(1.0238095,0,0,1.0119048,-1.1428571,-98.071429)" />
    <linearGradient
       x1="32.251034"
       y1="6.1317081"
       x2="32.251034"
       y2="90.238609"
       id="linearGradient3725"
       xlink:href="#ButtonShadow-0"
       gradientUnits="userSpaceOnUse"
       gradientTransform="matrix(1.0238095,0,0,1.0119048,-1.1428571,-98.071429)" />
    <linearGradient
       x1="32.251034"
       y1="6.1317081"
       x2="32.251034"
       y2="90.238609"
       id="linearGradient3721"
       xlink:href="#ButtonShadow-0"
       gradientUnits="userSpaceOnUse"
       gradientTransform="translate(0,-97)" />
    <linearGradient
       x1="32.251034"
       y1="6.1317081"
       x2="32.251034"
       y2="90.238609"
       id="linearGradient3760"
       xlink:href="#ButtonShadow-0"
       gradientUnits="userSpaceOnUse"
       gradientTransform="matrix(1.0238095,0,0,1.0119048,-1.1428571,-98.071429)" />
    <linearGradient
       id="linearGradient3737-1">
      <stop
         id="stop3739-9"
         style="stop-color:#ffffff;stop-opacity:1"
         offset="0" />
      <stop
         id="stop3741-3"
         style="stop-color:#ffffff;stop-opacity:0"
         offset="1" />
    </linearGradient>
    <radialGradient
       cx="48"
       cy="90.171875"
       r="42"
       fx="48"
       fy="90.171875"
       id="radialGradient2886"
       xlink:href="#linearGradient3737-0"
       gradientUnits="userSpaceOnUse"
       gradientTransform="matrix(1.1573129,0,0,0.99590774,-7.551021,0.1971319)" />
    <linearGradient
       id="linearGradient3737-0">
      <stop
         id="stop3739-6"
         style="stop-color:#ffffff;stop-opacity:1"
         offset="0" />
      <stop
         id="stop3741-0"
         style="stop-color:#ffffff;stop-opacity:0"
         offset="1" />
    </linearGradient>
    <linearGradient
       x1="36.357143"
       y1="6"
       x2="36.357143"
       y2="63.893143"
       id="linearGradient3923"
       xlink:href="#linearGradient3737-1"
       gradientUnits="userSpaceOnUse" />
    <linearGradient
       x1="48.810036"
       y1="78.173363"
       x2="48.810036"
       y2="18.129204"
       id="linearGradient3718"
       xlink:href="#linearGradient3712"
       gradientUnits="userSpaceOnUse" />
    <linearGradient
       x1="61.40464"
       y1="60.062107"
       x2="34.5369"
       y2="44.550011"
       id="linearGradient3674"
       xlink:href="#linearGradient3668"
       gradientUnits="userSpaceOnUse" />
    <linearGradient
       id="linearGradient3737-9">
      <stop
         id="stop3739-2"
         style="stop-color:#ffffff;stop-opacity:1"
         offset="0" />
      <stop
         id="stop3741-1"
         style="stop-color:#ffffff;stop-opacity:0"
         offset="1" />
    </linearGradient>
    <clipPath
       id="clipPath3613">
      <rect
         width="84"
         height="84"
         rx="6"
         ry="6"
         x="6"
         y="6"
         id="rect3615"
         style="fill:#ffffff;fill-opacity:1;fill-rule:nonzero;stroke:none" />
    </clipPath>
    <filter
       x="-0.192"
       y="-0.192"
       width="1.3839999"
       height="1.3839999"
       color-interpolation-filters="sRGB"
       id="filter3794">
      <feGaussianBlur
         id="feGaussianBlur3796"
         stdDeviation="5.28" />
    </filter>
    <linearGradient
       x1="48"
       y1="20.220806"
       x2="48"
       y2="138.66119"
       id="linearGradient3707"
       xlink:href="#linearGradient3737-9"
       gradientUnits="userSpaceOnUse" />
    <linearGradient
       gradientUnits="userSpaceOnUse"
       xlink:href="#linearGradient3174"
       id="linearGradient3203"
       y2="6.398416"
       x2="56.633896"
       y1="89.164001"
       x1="56.633896"
       gradientTransform="matrix(0.73901746,0,0,0.83200915,-0.18317923,1.0487057)" />
    <linearGradient
       id="linearGradient3174">
      <stop
         offset="0"
         style="stop-color:#ff4436;stop-opacity:1"
         id="stop3176" />
      <stop
         offset="1"
         style="stop-color:#ff432b;stop-opacity:1"
         id="stop3178" />
    </linearGradient>
  </defs>
  <metadata
     id="metadata2413">
    <rdf:RDF>
      <cc:Work
         rdf:about="">
        <dc:format>image/svg+xml</dc:format>
        <dc:type
           rdf:resource="http://purl.org/dc/dcmitype/StillImage" />
        <dc:title />
      </cc:Work>
    </rdf:RDF>
  </metadata>
  <g
     id="layer7"
     style="display:inline">
    <path
       style="display:inline;opacity:0.07999998;fill:#000000;fill-opacity:1;fill-rule:nonzero;stroke:none"
       id="path3786"
       d="M 12,95.03125 C 6.48891,95.03125 1.96875,90.51109 1.96875,85 l 0,-71 C 1.96875,8.4889098 6.48891,3.96875 12,3.96875 l 46,0 L 94.03125,40 l 0,45 c 0,5.51109 -4.52016,10.03125 -10.03125,10.03125 z" />
    <path
       d="M 12,94.03125 C 7.028367,94.03125 2.96875,89.971633 2.96875,85 l 0,-71 C 2.96875,9.0283671 7.0283671,4.96875 12,4.96875 l 46,0 L 93.03125,40 l 0,45 c 0,4.971633 -4.059617,9.03125 -9.03125,9.03125 z"
       id="path3778"
       style="display:inline;opacity:0.1;fill:#000000;fill-opacity:1;fill-rule:nonzero;stroke:none" />
    <path
       style="display:inline;opacity:1;fill:#e7e0d6;fill-opacity:1;fill-rule:nonzero;stroke:none"
       id="path3770"
       d="M 12,93 C 7.5908667,93 4,89.409133 4,85 L 4,14 C 4,9.5908667 7.5908667,6 12,6 l 46,0 34,34 0,45 c 0,4.409133 -3.590867,8 -8,8 z" />
  </g>
  <g
     id="layer5" />
  <g
     id="layer2"
     style="display:none">
    <rect
       width="86"
       height="85"
       rx="6"
       ry="6"
       x="5"
       y="7"
       id="rect3745"
       style="opacity:0.9;fill:url(#ButtonShadow);fill-opacity:1;fill-rule:nonzero;stroke:none;filter:url(#filter3174)" />
  </g>
  <g
     id="layer1"
     style="display:inline"
     transform="matrix(1,0,0,1.013697,0,0.76727147)" />
  <g
     id="layer3"
     transform="translate(0.004261,0.0045163)">
    <path
       style="opacity:1;fill:#f4ead6;fill-opacity:1"
       d="M 57.995739,5.9954837 91.997421,39.983051 57.871247,39.980672 Z"
       id="rect4263"
       inkscape:connector-curvature="0" />
  </g>
  <g
     id="layer4">
    <path
       d="m 12.030853,92.9176 c -4.409133,0 -8,-3.59086 -8,-8 l 0,-9 87.999997,0 0,9 c 0,4.40914 -3.59086,8 -7.999997,8 z"
       id="path3770-3"
       style="display:inline;opacity:1;fill:#e99200;fill-opacity:1;fill-rule:nonzero;stroke:none" />
    <path
       style="display:inline;opacity:0.3;fill:#000000;fill-opacity:1"
       d="M 66.202621,39.999 92,40 v 22.640398 z"
       id="rect4263-5"
       inkscape:connector-curvature="0"
       sodipodi:nodetypes="cccc" />
    <g
       style="font-style:normal;font-weight:normal;font-size:40px;line-height:125%;font-family:sans-serif;letter-spacing:0px;word-spacing:0px;display:inline;fill:#000000;fill-opacity:1;stroke:none;stroke-width:1px;stroke-linecap:butt;stroke-linejoin:miter;stroke-opacity:1"
       id="text4269"
       transform="translate(0.19842579,-0.00489493)">
      <path
         d="m 41.489758,79.081177 v 2.314453 q -0.900879,-0.402832 -1.757813,-0.60791 -0.856934,-0.205078 -1.618652,-0.205078 -1.010742,0 -1.494141,0.27832 -0.483398,0.27832 -0.483398,0.864258 0,0.439453 0.322265,0.688476 0.32959,0.2417 1.186524,0.417481 l 1.201172,0.241699 q 1.82373,0.366211 2.592773,1.113281 0.769043,0.747071 0.769043,2.124024 0,1.809082 -1.07666,2.695312 -1.069336,0.878906 -3.273926,0.878906 -1.040039,0 -2.087402,-0.197753 -1.047364,-0.197754 -2.094727,-0.585938 v -2.380371 q 1.047363,0.556641 2.021485,0.842285 0.981445,0.27832 1.889648,0.27832 0.922852,0 1.413574,-0.307617 0.490723,-0.307617 0.490723,-0.878906 0,-0.512695 -0.336914,-0.791016 -0.32959,-0.27832 -1.325684,-0.498047 L 36.73634,85.123657 q -1.640625,-0.351562 -2.402344,-1.120605 -0.754395,-0.769043 -0.754395,-2.072754 0,-1.633301 1.054688,-2.512207 1.054687,-0.878906 3.032226,-0.878906 0.900879,0 1.853028,0.13916 0.952148,0.131836 1.970215,0.402832 z"
         style="font-style:normal;font-variant:normal;font-weight:bold;font-stretch:normal;font-size:15px;font-family:sans-serif;-inkscape-font-specification:'sans-serif Bold';fill:#ffffff"
         id="path4274" />
      <path
         d="m 43.38673,78.736938 h 2.834473 l 2.90039,8.07129 2.893067,-8.07129 h 2.834473 L 50.79884,89.671997 h -3.361817 z"
         style="font-style:normal;font-variant:normal;font-weight:bold;font-stretch:normal;font-size:15px;font-family:sans-serif;-inkscape-font-specification:'sans-serif Bold';fill:#ffffff"
         id="path4276" />
      <path
         d="m 66.121105,88.859009 q -1.054687,0.512695 -2.189941,0.769043 -1.135254,0.256347 -2.34375,0.256347 -2.731934,0 -4.328613,-1.523437 -1.59668,-1.530762 -1.59668,-4.145508 0,-2.644043 1.625976,-4.160156 1.625977,-1.516113 4.453125,-1.516113 1.091309,0 2.087403,0.205078 1.003418,0.205078 1.889648,0.60791 v 2.263183 q -0.915527,-0.520019 -1.82373,-0.776367 -0.900879,-0.256347 -1.809082,-0.256347 -1.684571,0 -2.600098,0.944824 -0.908203,0.9375 -0.908203,2.687988 0,1.73584 0.878906,2.680664 0.878906,0.944824 2.497559,0.944824 0.439453,0 0.812988,-0.05127 0.380859,-0.05859 0.681152,-0.175781 v -2.124024 h -1.721191 v -1.889648 h 4.394531 v 5.258789 z"
         style="font-style:normal;font-variant:normal;font-weight:bold;font-stretch:normal;font-size:15px;font-family:sans-serif;-inkscape-font-specification:'sans-serif Bold';fill:#ffffff"
         id="path4278" />
    </g>
  </g>
  <path
     id="path11"
     d="m 46.487757,18.239417 c -1.532035,0 -2.915156,1.035559 -3.631507,2.227138 H 28.330175 c 0,0 -3.532217,-0.276595 -6.610507,1.212895 -3.092451,1.482367 -6.362242,4.894036 -6.362242,10.568252 0,5.674265 3.269791,9.085899 6.362242,10.5683 1.454027,0.709263 2.893873,1.000095 4.021631,1.191585 v 0.872429 l -5.709707,5.504009 c -0.170206,-0.04277 -0.326283,-0.12043 -0.517774,-0.12043 -1.156122,0 -2.078209,0.886575 -2.078209,2.000172 0,1.106457 0.922087,2.000158 2.078209,2.000158 1.141928,0 2.064007,-0.893701 2.064007,-2.000158 0,-0.191529 -0.07805,-0.326264 -0.12043,-0.503608 l 5.702604,-5.50403 h 6.880029 v -2.000154 h 2.063992 c 0,0 2.191694,0.04957 4.284056,1.063921 2.113677,1.014289 4.02165,2.610148 4.02165,6.943871 0,4.333687 -1.907973,5.922486 -4.02165,6.943844 -2.092356,1.014273 -4.794705,1.205781 -4.794705,1.205781 H 21.067294 c -0.71639,-1.191582 -2.099458,-2.149134 -3.631523,-2.149134 -2.298053,5e-6 -4.156388,1.801573 -4.156388,4.00747 0,2.205844 1.858335,4.000328 4.156388,4.000328 1.532065,0 2.915133,-1.035553 3.631521,-2.227136 h 14.526076 c 0,0 3.532211,0.276599 6.61048,-1.212895 3.092476,-1.482368 6.362244,-4.894037 6.362244,-10.56825 0,-5.674262 -3.269768,-9.085894 -6.362244,-10.5683 -3.078273,-1.489493 -6.099829,-1.439826 -6.099829,-1.439826 h -2.063993 v -0.624194 l 5.709694,-5.504009 c 0.170224,0.04277 0.326278,0.12043 0.517782,0.12043 1.141964,0 2.078211,-0.886575 2.078211,-2.000172 0,-1.106456 -0.936247,-2.000158 -2.078211,-2.000158 -1.141927,0 -2.085272,0.893702 -2.085272,2.000158 0,0.191529 0.07796,0.326265 0.141918,0.503608 l -5.723903,5.50403 h -6.858738 v 1.68807 c -0.688029,-0.155995 -1.43988,-0.375934 -2.205881,-0.751844 -2.113672,-1.014287 -4.02162,-2.610146 -4.02162,-6.943874 0,-4.33369 1.907948,-5.922481 4.02162,-6.943839 2.092391,-1.014273 4.794745,-1.205781 4.794745,-1.205781 h 14.526055 c 0.716375,1.19158 2.09948,2.149131 3.631536,2.149131 2.29806,0 4.156378,-1.801567 4.156378,-4.007464 0,-2.205844 -1.858318,-4.00033 -4.156378,-4.00033 z m 0,0"
     style="display:inline;fill:#6b4e2e;fill-opacity:1;fill-rule:nonzero;stroke:none;stroke-width:1.25565696" />
</svg>
