<?xml version="1.0" encoding="UTF-8" standalone="no"?>
<svg
   xmlns:dc="http://purl.org/dc/elements/1.1/"
   xmlns:cc="http://creativecommons.org/ns#"
   xmlns:rdf="http://www.w3.org/1999/02/22-rdf-syntax-ns#"
   xmlns:svg="http://www.w3.org/2000/svg"
   xmlns="http://www.w3.org/2000/svg"
   id="svg4"
   version="1.1"
   height="16"
   width="16">
  <metadata
     id="metadata10">
    <rdf:RDF>
      <cc:Work
         rdf:about="">
        <dc:format>image/svg+xml</dc:format>
        <dc:type
           rdf:resource="http://purl.org/dc/dcmitype/StillImage" />
        <dc:title></dc:title>
      </cc:Work>
    </rdf:RDF>
  </metadata>
  <defs
     id="defs8" />
  <path
     id="path2"
     fill="#bebebe"
     overflow="visible"
     color="#bebebe"
     style="marker:none;fill:#bebebe;fill-opacity:1"
     d="M8 .031c-.4 0-.815.16-1.125.469L.5 6.875c-.62.62-.62 1.63 0 2.25L6.875 15.5c.62.62 1.63.62 2.25 0L15.5 9.125c.62-.62.62-1.63 0-2.25L9.125.5A1.604 1.604 0 008 .031zm.152 2.975a3.001 3.001 0 011.97.873 3.006 3.006 0 01.65 3.27A2.998 2.998 0 019 8.82V10H7V8a1 1 0 011-1c.407 0 .768-.24.924-.617a.994.994 0 00-.217-1.09.994.994 0 00-1.09-.217A.994.994 0 007 6H5c0-1.21.733-2.308 1.852-2.771.419-.174.864-.246 1.3-.223zM8 11a1 1 0 011 1 1 1 0 01-1 1 1 1 0 01-1-1 1 1 0 011-1z" />
</svg>
