<?xml version="1.0" encoding="UTF-8" standalone="no"?>
<svg
   xmlns:dc="http://purl.org/dc/elements/1.1/"
   xmlns:cc="http://creativecommons.org/ns#"
   xmlns:rdf="http://www.w3.org/1999/02/22-rdf-syntax-ns#"
   xmlns:svg="http://www.w3.org/2000/svg"
   xmlns="http://www.w3.org/2000/svg"
   xmlns:xlink="http://www.w3.org/1999/xlink"
   id="svg2408"
   height="32"
   width="32"
   version="1.0">
  <defs
     id="defs2410">
    <linearGradient
       id="linearGradient1041">
      <stop
         id="stop1037"
         style="stop-color:#5a250b;stop-opacity:1"
         offset="0" />
      <stop
         id="stop1039"
         style="stop-color:#573115;stop-opacity:1"
         offset="1" />
    </linearGradient>
    <linearGradient
       id="linearGradient956">
      <stop
         id="stop952"
         style="stop-color:#ff2319;stop-opacity:1"
         offset="0" />
      <stop
         id="stop954"
         style="stop-color:#ff3733;stop-opacity:1"
         offset="1" />
    </linearGradient>
    <linearGradient
       id="linearGradient3814">
      <stop
         offset="0"
         style="stop-color:#0092ff;stop-opacity:1"
         id="stop3816" />
      <stop
         offset="1"
         style="stop-color:#0085ff;stop-opacity:1"
         id="stop3818" />
    </linearGradient>
    <linearGradient
       id="linearGradient3806">
      <stop
         offset="0"
         style="stop-color:#4baa0c;stop-opacity:1"
         id="stop3808" />
      <stop
         offset="1"
         style="stop-color:#66d819;stop-opacity:1"
         id="stop3810" />
    </linearGradient>
    <linearGradient
       id="linearGradient3785">
      <stop
         offset="0"
         style="stop-color:#ff8e00;stop-opacity:1"
         id="stop3787" />
      <stop
         offset="1"
         style="stop-color:#ffcc0a;stop-opacity:1"
         id="stop3789" />
    </linearGradient>
    <linearGradient
       id="linearGradient3766">
      <stop
         offset="0"
         style="stop-color:#d9d9d9;stop-opacity:1"
         id="stop3768" />
      <stop
         offset="1"
         style="stop-color:#ffffff;stop-opacity:1"
         id="stop3770" />
    </linearGradient>
    <linearGradient
       id="linearGradient3746">
      <stop
         offset="0"
         style="stop-color:#8b4217;stop-opacity:1"
         id="stop3748" />
      <stop
         offset="1"
         style="stop-color:#b85c30;stop-opacity:1"
         id="stop3751" />
    </linearGradient>
    <linearGradient
       id="linearGradient3778">
      <stop
         offset="0"
         style="stop-color:#000000;stop-opacity:1"
         id="stop3780" />
      <stop
         offset="0.5"
         style="stop-color:#000000;stop-opacity:0"
         id="stop3786" />
      <stop
         offset="1"
         style="stop-color:#ffffff;stop-opacity:1"
         id="stop3782" />
    </linearGradient>
    <linearGradient
       id="linearGradient3761">
      <stop
         offset="0"
         style="stop-color:#000000;stop-opacity:1"
         id="stop3763" />
      <stop
         offset="0.5"
         style="stop-color:#000000;stop-opacity:0.19379845"
         id="stop3769" />
      <stop
         offset="1"
         style="stop-color:#000000;stop-opacity:0"
         id="stop3765" />
    </linearGradient>
    <linearGradient
       id="linearGradient3745">
      <stop
         offset="0"
         style="stop-color:#8a8a8a;stop-opacity:1"
         id="stop3747" />
      <stop
         offset="0.40964222"
         style="stop-color:#d5d5d5;stop-opacity:1"
         id="stop3753" />
      <stop
         offset="0.72741055"
         style="stop-color:#6f6f6f;stop-opacity:1"
         id="stop3755" />
      <stop
         offset="1"
         style="stop-color:#373737;stop-opacity:1"
         id="stop3749" />
    </linearGradient>
    <linearGradient
       id="linearGradient3640">
      <stop
         offset="0"
         style="stop-color:#1a1a1a;stop-opacity:1"
         id="stop3642" />
      <stop
         offset="1"
         style="stop-color:#2a2a2a;stop-opacity:1"
         id="stop3644" />
    </linearGradient>
    <linearGradient
       id="linearGradient3627">
      <stop
         offset="0"
         style="stop-color:#793c1c;stop-opacity:1"
         id="stop3629" />
      <stop
         offset="1"
         style="stop-color:#bd6332;stop-opacity:1"
         id="stop3631" />
    </linearGradient>
    <linearGradient
       gradientTransform="scale(1.0058652,0.994169)"
       gradientUnits="userSpaceOnUse"
       id="ButtonShadow"
       y2="7.0165396"
       x2="45.447727"
       y1="92.539597"
       x1="45.447727">
      <stop
         offset="0"
         style="stop-color:#000000;stop-opacity:1"
         id="stop3750" />
      <stop
         offset="1"
         style="stop-color:#000000;stop-opacity:0.58823532"
         id="stop3752" />
    </linearGradient>
    <linearGradient
       id="linearGradient3737">
      <stop
         offset="0"
         style="stop-color:#ffffff;stop-opacity:1"
         id="stop3739" />
      <stop
         offset="1"
         style="stop-color:#ffffff;stop-opacity:0"
         id="stop3741" />
    </linearGradient>
    <filter
       style="color-interpolation-filters:sRGB"
       id="filter3174">
      <feGaussianBlur
         stdDeviation="1.71"
         id="feGaussianBlur3176" />
    </filter>
    <filter
       style="color-interpolation-filters:sRGB"
       id="filter3794"
       height="1.3839999"
       width="1.3839999"
       y="-0.192"
       x="-0.192">
      <feGaussianBlur
         stdDeviation="5.28"
         id="feGaussianBlur3796" />
    </filter>
    <linearGradient
       gradientUnits="userSpaceOnUse"
       xlink:href="#linearGradient3737"
       id="linearGradient3613"
       y2="138.66119"
       x2="48"
       y1="20.220806"
       x1="48" />
    <clipPath
       id="clipPath3613">
      <rect
         style="fill:#ffffff;fill-opacity:1;fill-rule:nonzero;stroke:none"
         id="rect3615"
         y="6"
         x="6"
         ry="6"
         rx="6"
         height="84"
         width="84" />
    </clipPath>
    <linearGradient
       gradientUnits="userSpaceOnUse"
       xlink:href="#linearGradient3627"
       id="linearGradient3633"
       y2="5.9794726"
       x2="54.75"
       y1="90"
       x1="54.75" />
    <linearGradient
       gradientUnits="userSpaceOnUse"
       xlink:href="#linearGradient3640"
       id="linearGradient3646"
       y2="8"
       x2="16"
       y1="88"
       x1="16" />
    <linearGradient
       gradientUnits="userSpaceOnUse"
       xlink:href="#linearGradient3745"
       id="linearGradient3751"
       y2="26"
       x2="9"
       y1="22"
       x1="9" />
    <linearGradient
       spreadMethod="reflect"
       gradientUnits="userSpaceOnUse"
       xlink:href="#linearGradient3761"
       id="linearGradient3767"
       y2="24"
       x2="12"
       y1="24"
       x1="4" />
    <linearGradient
       gradientTransform="matrix(0,1,1,0,-10,10)"
       gradientUnits="userSpaceOnUse"
       xlink:href="#linearGradient3778"
       id="linearGradient3784"
       y2="24"
       x2="18"
       y1="24"
       x1="10" />
    <linearGradient
       gradientTransform="matrix(1.0058652,0,0,0.994169,100,0)"
       gradientUnits="userSpaceOnUse"
       id="ButtonShadow-0"
       y2="7.0165396"
       x2="45.447727"
       y1="92.539597"
       x1="45.447727">
      <stop
         offset="0"
         style="stop-color:#000000;stop-opacity:1"
         id="stop3750-8" />
      <stop
         offset="1"
         style="stop-color:#000000;stop-opacity:0.58823532"
         id="stop3752-5" />
    </linearGradient>
    <linearGradient
       gradientTransform="matrix(1.0238095,0,0,1.0119048,-1.1428571,-98.071429)"
       gradientUnits="userSpaceOnUse"
       xlink:href="#ButtonShadow-0"
       id="linearGradient3780"
       y2="90.238609"
       x2="32.251034"
       y1="6.1317081"
       x1="32.251034" />
    <linearGradient
       gradientTransform="matrix(1.0238095,0,0,1.0119048,-1.1428571,-98.071429)"
       gradientUnits="userSpaceOnUse"
       xlink:href="#ButtonShadow-0"
       id="linearGradient3772"
       y2="90.238609"
       x2="32.251034"
       y1="6.1317081"
       x1="32.251034" />
    <linearGradient
       gradientTransform="matrix(1.0238095,0,0,1.0119048,-1.1428571,-98.071429)"
       gradientUnits="userSpaceOnUse"
       xlink:href="#ButtonShadow-0"
       id="linearGradient3725"
       y2="90.238609"
       x2="32.251034"
       y1="6.1317081"
       x1="32.251034" />
    <linearGradient
       gradientTransform="translate(0,-97)"
       gradientUnits="userSpaceOnUse"
       xlink:href="#ButtonShadow-0"
       id="linearGradient3721"
       y2="90.238609"
       x2="32.251034"
       y1="6.1317081"
       x1="32.251034" />
    <linearGradient
       gradientTransform="matrix(1.0238095,0,0,1.0119048,-1.1428571,-98.071429)"
       gradientUnits="userSpaceOnUse"
       xlink:href="#ButtonShadow-0"
       id="linearGradient3059"
       y2="90.238609"
       x2="32.251034"
       y1="6.1317081"
       x1="32.251034" />
    <linearGradient
       gradientUnits="userSpaceOnUse"
       xlink:href="#linearGradient3737"
       id="linearGradient3741"
       y2="63.893143"
       x2="36.357143"
       y1="6"
       x1="36.357143" />
    <radialGradient
       gradientTransform="matrix(1.1573129,0,0,0.99590774,-7.5510206,0.19713193)"
       gradientUnits="userSpaceOnUse"
       xlink:href="#linearGradient3737"
       id="radialGradient3744"
       fy="90.171875"
       fx="48"
       r="42"
       cy="90.171875"
       cx="48" />
    <linearGradient
       gradientUnits="userSpaceOnUse"
       xlink:href="#linearGradient3746"
       id="linearGradient3755"
       y2="5.9794726"
       x2="54.75"
       y1="90"
       x1="54.75" />
    <linearGradient
       gradientUnits="userSpaceOnUse"
       xlink:href="#linearGradient3766"
       id="linearGradient3773"
       y2="8"
       x2="88"
       y1="88"
       x1="88" />
    <linearGradient
       gradientTransform="translate(0,36)"
       gradientUnits="userSpaceOnUse"
       xlink:href="#linearGradient3785"
       id="linearGradient3791"
       y2="9.9687805"
       x2="83"
       y1="26"
       x1="83" />
    <linearGradient
       gradientUnits="userSpaceOnUse"
       xlink:href="#linearGradient3806"
       id="linearGradient3812"
       y2="28"
       x2="84"
       y1="44"
       x1="84" />
    <linearGradient
       gradientTransform="translate(0,-36)"
       gradientUnits="userSpaceOnUse"
       xlink:href="#linearGradient3814"
       id="linearGradient3820"
       y2="45.968781"
       x2="84"
       y1="62"
       x1="84" />
    <filter
       style="color-interpolation-filters:sRGB"
       id="filter3850">
      <feGaussianBlur
         stdDeviation="0.46499996"
         id="feGaussianBlur3852" />
    </filter>
    <linearGradient
       gradientTransform="translate(-3e-6,54)"
       gradientUnits="userSpaceOnUse"
       xlink:href="#linearGradient956"
       id="linearGradient3791-3"
       y2="9.9687805"
       x2="83"
       y1="26"
       x1="83" />
    <linearGradient
       gradientTransform="matrix(0.58779071,0,0,0.59976762,-134.7309,31.722715)"
       gradientUnits="userSpaceOnUse"
       xlink:href="#linearGradient3853-5"
       id="linearGradient3996"
       y2="80"
       x2="56"
       y1="16"
       x1="56" />
    <linearGradient
       id="linearGradient3853-5">
      <stop
         offset="0"
         style="stop-color:#000000;stop-opacity:1"
         id="stop3855-0" />
      <stop
         offset="1"
         style="stop-color:#313131;stop-opacity:1"
         id="stop3857-4" />
    </linearGradient>
    <linearGradient
       gradientTransform="matrix(0.88281208,0,0,0.89965143,-71.968201,7.7916979)"
       gradientUnits="userSpaceOnUse"
       xlink:href="#linearGradient3853-5"
       id="linearGradient3111"
       y2="80"
       x2="56"
       y1="16"
       x1="56" />
    <linearGradient
       gradientTransform="matrix(0.58779071,0,0,0.59976762,-91.730903,31.722715)"
       gradientUnits="userSpaceOnUse"
       xlink:href="#linearGradient3853-5"
       id="linearGradient4004"
       y2="80"
       x2="56"
       y1="16"
       x1="56" />
    <linearGradient
       gradientTransform="matrix(0.94215318,0,0,0.9352293,7.254283,9.7372981)"
       gradientUnits="userSpaceOnUse"
       xlink:href="#linearGradient1041"
       id="linearGradient3111-5"
       y2="80"
       x2="56"
       y1="16"
       x1="56" />
    <linearGradient
       y2="24"
       x2="18"
       y1="24"
       x1="10"
       gradientTransform="matrix(0,1,1,0,-10,10)"
       gradientUnits="userSpaceOnUse"
       id="linearGradient1034"
       xlink:href="#linearGradient3778" />
    <linearGradient
       y2="26"
       x2="9"
       y1="22"
       x1="9"
       gradientUnits="userSpaceOnUse"
       id="linearGradient1036"
       xlink:href="#linearGradient3745" />
    <linearGradient
       spreadMethod="reflect"
       y2="24"
       x2="12"
       y1="24"
       x1="4"
       gradientUnits="userSpaceOnUse"
       id="linearGradient1038"
       xlink:href="#linearGradient3761" />
  </defs>
  <metadata
     id="metadata2413">
    <rdf:RDF>
      <cc:Work
         rdf:about="">
        <dc:format>image/svg+xml</dc:format>
        <dc:type
           rdf:resource="http://purl.org/dc/dcmitype/StillImage" />
        <dc:title></dc:title>
      </cc:Work>
    </rdf:RDF>
  </metadata>
  <g
     transform="translate(0,-64)"
     style="display:none"
     id="layer2">
    <rect
       style="opacity:0.9;fill:url(#ButtonShadow);fill-opacity:1;fill-rule:nonzero;stroke:none;filter:url(#filter3174)"
       id="rect3745"
       y="7"
       x="5"
       ry="6"
       rx="6"
       height="85"
       width="86" />
  </g>
  <g
     transform="matrix(0.32944406,0,0,0.32944406,0.351407,0.19251924)"
     style="display:inline"
     id="layer6">
    <path
       style="display:inline;opacity:0.07999998;fill:url(#linearGradient3059);fill-opacity:1;fill-rule:nonzero;stroke:none"
       id="path3786"
       transform="scale(1,-1)"
       d="m 12,-95.03125 c -5.5110903,0 -10.03125,4.52016 -10.03125,10.03125 v 71 c 0,5.5110902 4.5201598,10.03125 10.03125,10.03125 h 72 c 5.51109,0 10.03125,-4.5201597 10.03125,-10.03125 v -71 c 0,-5.51109 -4.52016,-10.03125 -10.03125,-10.03125 z" />
    <path
       style="display:inline;opacity:0.1;fill:url(#linearGradient3780);fill-opacity:1;fill-rule:nonzero;stroke:none"
       id="path3778"
       transform="scale(1,-1)"
       d="m 12,-94.03125 c -4.971633,0 -9.03125,4.059617 -9.03125,9.03125 v 71 c 0,4.9716329 4.0596171,9.03125 9.03125,9.03125 h 72 c 4.971633,0 9.03125,-4.059617 9.03125,-9.03125 v -71 c 0,-4.971633 -4.059617,-9.03125 -9.03125,-9.03125 z" />
    <path
       style="display:inline;opacity:0.2;fill:url(#linearGradient3772);fill-opacity:1;fill-rule:nonzero;stroke:none"
       id="path3770"
       transform="scale(1,-1)"
       d="m 12,-93 c -4.4091333,0 -8,3.590867 -8,8 v 71 c 0,4.4091333 3.5908667,8 8,8 h 72 c 4.409133,0 8,-3.5908667 8,-8 v -71 c 0,-4.409133 -3.590867,-8 -8,-8 z" />
    <rect
       style="display:inline;opacity:0.3;fill:url(#linearGradient3725);fill-opacity:1;fill-rule:nonzero;stroke:none"
       id="rect3723"
       transform="scale(1,-1)"
       y="-92"
       x="5"
       ry="7"
       rx="7"
       height="85"
       width="86" />
    <rect
       style="display:inline;opacity:0.45;fill:url(#linearGradient3721);fill-opacity:1;fill-rule:nonzero;stroke:none"
       id="rect3716"
       transform="scale(1,-1)"
       y="-91"
       x="6"
       ry="6"
       rx="6"
       height="84"
       width="84" />
  </g>
  <g
     transform="matrix(0.32944406,0,0,0.32944406,0.351407,0.19251924)"
     id="layer1">
    <path
       style="fill:url(#linearGradient3755);fill-opacity:1;fill-rule:nonzero;stroke:none"
       id="rect3717"
       d="m 72,6 v 84 h 12 c 3.324,0 6,-2.676 6,-6 V 12 C 90,8.676 87.324,6 84,6 Z" />
    <path
       style="fill:url(#linearGradient3773);fill-opacity:1;fill-rule:nonzero;stroke:none"
       id="path3729"
       d="m 74.09375,8.09375 v 79.8125 H 84 c 2.197065,0 3.90625,-1.709185 3.90625,-3.90625 V 12 C 87.90625,9.8029353 86.197065,8.09375 84,8.09375 Z" />
    <path
       style="opacity:0.1;fill:#000000;fill-opacity:1;fill-rule:nonzero;stroke:none"
       id="path3764"
       d="m 66,6 v 84 h 12 c 3.324,0 6,-2.676 6,-6 V 12 C 84,8.676 81.324,6 78,6 Z" />
    <rect
       style="color:#000000;display:inline;overflow:visible;visibility:visible;fill:url(#linearGradient3820);fill-opacity:1;fill-rule:nonzero;stroke:none;stroke-width:1;marker:none;enable-background:accumulate"
       id="rect3779"
       y="10"
       x="79"
       ry="2"
       rx="2"
       height="16"
       width="8" />
    <path
       style="color:#000000;display:inline;overflow:visible;visibility:visible;opacity:0.2;fill:#000000;fill-opacity:1;fill-rule:nonzero;stroke:none;stroke-width:1;marker:none;enable-background:accumulate"
       id="path3804"
       d="m 79,23 v 1 c 0,1.108 0.892,2 2,2 h 4 c 1.108,0 2,-0.892 2,-2 v -1 c 0,1.108 -0.892,2 -2,2 h -4 c -1.108,0 -2,-0.892 -2,-2 z" />
    <rect
       style="color:#000000;display:inline;overflow:visible;visibility:visible;fill:url(#linearGradient3791);fill-opacity:1;fill-rule:nonzero;stroke:none;stroke-width:1;marker:none;enable-background:accumulate"
       id="rect3775"
       y="46"
       x="79"
       ry="2"
       rx="2"
       height="16"
       width="8" />
    <path
       style="color:#000000;display:inline;overflow:visible;visibility:visible;opacity:0.2;fill:#000000;fill-opacity:1;fill-rule:nonzero;stroke:none;stroke-width:1;marker:none;enable-background:accumulate"
       id="rect3793"
       d="m 79,59 v 1 c 0,1.108 0.892,2 2,2 h 4 c 1.108,0 2,-0.892 2,-2 v -1 c 0,1.108 -0.892,2 -2,2 h -4 c -1.108,0 -2,-0.892 -2,-2 z" />
    <rect
       style="color:#000000;display:inline;overflow:visible;visibility:visible;fill:url(#linearGradient3812);fill-opacity:1;fill-rule:nonzero;stroke:none;stroke-width:1;marker:none;enable-background:accumulate"
       id="rect3777"
       y="28"
       x="79"
       ry="2"
       rx="2"
       height="16"
       width="8" />
    <path
       style="color:#000000;display:inline;overflow:visible;visibility:visible;opacity:0.2;fill:#000000;fill-opacity:1;fill-rule:nonzero;stroke:none;stroke-width:1;marker:none;enable-background:accumulate"
       id="path3802"
       d="m 79,41 v 1 c 0,1.108 0.892,2 2,2 h 4 c 1.108,0 2,-0.892 2,-2 v -1 c 0,1.108 -0.892,2 -2,2 h -4 c -1.108,0 -2,-0.892 -2,-2 z" />
    <rect
       style="color:#000000;display:inline;overflow:visible;visibility:visible;fill:url(#linearGradient3791-3);fill-opacity:1;fill-rule:nonzero;stroke:none;stroke-width:1;marker:none;enable-background:accumulate"
       id="rect3775-5"
       y="64"
       x="79"
       ry="2"
       rx="2"
       height="16"
       width="8" />
    <path
       style="opacity:0.3;fill:#000000;fill-opacity:1;fill-rule:nonzero;stroke:none"
       id="path3759"
       d="m 65,6 v 84 h 12 c 3.324,0 6,-2.676 6,-6 V 12 C 83,8.676 80.324,6 77,6 Z" />
    <path
       style="color:#000000;display:inline;overflow:visible;visibility:visible;opacity:0.2;fill:#000000;fill-opacity:1;fill-rule:nonzero;stroke:none;stroke-width:1;marker:none;enable-background:accumulate"
       id="rect3793-3"
       d="m 79,77 v 1 c 0,1.108 0.892,2 2,2 h 4 c 1.108,0 2,-0.892 2,-2 v -1 c 0,1.108 -0.892,2 -2,2 h -4 c -1.108,0 -2,-0.892 -2,-2 z" />
    <rect
       style="fill:url(#linearGradient3633);fill-opacity:1;fill-rule:nonzero;stroke:none"
       id="rect2419"
       y="6"
       x="6"
       ry="6"
       rx="6"
       height="84"
       width="76" />
    <rect
       style="opacity:0.15;fill:#ffffff;fill-opacity:1;stroke:none"
       id="rect3650"
       y="6"
       x="24"
       height="84"
       width="1" />
    <path
       style="fill:url(#linearGradient3646);fill-opacity:1;stroke:none"
       id="rect3635"
       d="M 12,6 C 8.676,6 6,8.676 6,12 v 72 c 0,3.324 2.676,6 6,6 H 24 V 6 Z" />
    <rect
       style="opacity:0.4;fill:#000000;fill-opacity:1;stroke:none"
       id="rect3648"
       y="6"
       x="23"
       height="84"
       width="1" />
    <path
       style="opacity:0.3;fill:url(#linearGradient3741);fill-opacity:1;fill-rule:nonzero;stroke:none"
       id="rect3728"
       d="M 12,6 C 8.149748,5.8646483 5.4313382,9.7428302 6,13.356285 6.0181568,37.06748 5.9636901,60.780689 6.027225,84.490627 5.1685254,86.788986 10.52047,90.299743 9.3125,89.21875 6.1072859,87.229909 7.1904421,83.196362 7,80.061382 7.0170642,57.536271 6.9658737,35.009464 7.02559,12.485413 7.2344879,9.2262489 10.63885,7.5433157 13.582333,8 34.559537,8.01712 55.538443,7.965797 76.514587,8.02559 79.773751,8.234488 81.456684,11.63885 81,14.582333 c -0.02345,23.652105 0.0469,47.307263 -0.03517,70.957461 0.412935,2.431244 -5.152855,5.528097 -1.087717,2.991175 C 82.940872,86.014204 81.766242,81.819853 82,78.38324 81.979435,56.050697 82.041139,33.716092 81.969136,11.384839 81.718193,7.6506332 77.867802,5.4852044 74.417667,6 53.611778,6 32.805889,6 12,6 Z" />
    <path
       style="opacity:0.2;fill:url(#radialGradient3744);fill-opacity:1;fill-rule:nonzero;stroke:none"
       id="path3615"
       d="M 12,90 C 8.149748,90.135352 5.4313382,86.25717 6,82.643715 6.0181568,58.93252 5.9636901,35.219311 6.027225,11.509373 5.1685254,9.2110136 10.52047,5.7002575 9.3125,6.78125 6.1072859,8.7700911 7.1904421,12.803638 7,15.938618 7.0170642,38.463729 6.9658737,60.990536 7.02559,83.514587 7.2344879,86.773751 10.63885,88.456684 13.582333,88 34.559537,87.98288 55.538443,88.034203 76.514587,87.97441 79.773751,87.765512 81.456684,84.36115 81,81.417667 80.976551,57.765562 81.046897,34.110404 80.96483,10.460206 81.377765,8.0289616 75.811975,4.932109 79.877113,7.4690313 82.940872,9.9857956 81.766242,14.180147 82,17.61676 81.979435,39.949303 82.041139,62.283908 81.969136,84.615161 81.718193,88.349367 77.867802,90.514796 74.417667,90 53.611778,90 32.805889,90 12,90 Z" />
    <path
       style="display:inline;opacity:1;fill:url(#linearGradient3111-5);fill-opacity:1;stroke:none;stroke-width:1.05329263;enable-background:new"
       id="path3798-8-9"
       d="m 52.47763,24.745342 c -6.575712,0 -11.901975,4.907404 -11.901975,10.946256 0.016,0.692057 0.02052,1.464871 0.09368,2.325683 -1.040665,0.545868 -1.178172,2.685407 -0.24992,4.837434 0.357941,0.829835 0.849956,1.500521 1.343273,2.046606 0.01641,0.01824 0.04594,0.04429 0.06239,0.06207 0.117771,0.568592 0.201217,1.002139 0.34364,1.64349 0.441172,1.302284 2.268233,3.754939 3.873601,5.860741 0.160085,1.624479 0.165911,3.237708 -0.156193,5.085514 -4.620776,3.772139 -16.449311,5.459663 -16.431608,9.364778 l -0.218664,1.488445 h 46.483292 l -0.218627,-1.488455 c -0.01886,-3.342261 -11.89871,-5.459657 -16.46283,-9.364782 -0.184804,-1.495878 -0.219021,-2.960966 -0.124962,-4.434323 1.459571,-2.215334 3.385208,-5.070221 3.8736,-6.511931 0.179519,-0.746624 0.266698,-1.250453 0.406111,-1.891545 0.431005,-0.518363 0.837664,-1.122944 1.155844,-1.860568 0.881506,-2.043647 0.773482,-4.01885 -0.124963,-4.68238 0.06278,-0.887989 0.129934,-1.721808 0.156194,-2.480738 1.5e-5,-6.038848 -5.326248,-10.946255 -11.901969,-10.946255 z" />
  </g>
  <g
     transform="matrix(0.32944406,0,0,0.32944406,0.351407,0.19251924)"
     id="layer5">
    <rect
       style="opacity:0.1;fill:url(#linearGradient3613);fill-opacity:1;fill-rule:nonzero;stroke:#ffffff;stroke-width:0.5;stroke-linecap:round;stroke-linejoin:miter;stroke-miterlimit:4;stroke-dasharray:none;stroke-dashoffset:0;stroke-opacity:1;filter:url(#filter3794)"
       id="rect3171"
       clip-path="url(#clipPath3613)"
       y="15"
       x="15"
       ry="12"
       rx="12"
       height="66"
       width="66" />
  </g>
  <g
     transform="matrix(0.32944406,0,0,0.32944406,0.351407,0.19251924)"
     id="layer4">
    <g
       id="g3799">
      <path
         style="opacity:0.3;fill:url(#linearGradient1034);fill-opacity:1;stroke:none"
         id="path3773"
         d="m 10,24 c 0,-2.209139 1.790861,-4 4,-4 2.209139,0 4,1.790861 4,4 0,2.209139 -1.790861,4 -4,4 -2.209139,0 -4,-1.790861 -4,-4 z m 1,0 c 0,1.656854 1.343146,3 3,3 1.656854,0 3,-1.343146 3,-3 0,-1.656854 -1.343146,-3 -3,-3 -1.656854,0 -3,1.343146 -3,3 z" />
      <path
         style="opacity:0.3;fill:#000000;fill-opacity:1;stroke:none"
         id="path3792"
         d="m 6,21 v 7 h 8 c 1.646385,0 3,-1.579217 3,-3.5 C 17,22.579218 15.646385,21 14,21 Z" />
      <path
         style="opacity:0.6;fill:#000000;fill-opacity:1;stroke:none"
         id="path3771"
         d="m 17,24 a 3,3 0 1 1 -6,0 3,3 0 1 1 6,0 z" />
      <rect
         style="fill:url(#linearGradient1036);fill-opacity:1;stroke:none"
         id="rect3733"
         y="22"
         x="4"
         ry="2"
         rx="2"
         height="4"
         width="12" />
      <rect
         style="opacity:0.6;fill:url(#linearGradient1038);fill-opacity:1;stroke:none"
         id="rect3759"
         y="22"
         x="4"
         ry="2"
         rx="2"
         height="4"
         width="12" />
    </g>
    <use
       xlink:href="#g3799"
       height="96"
       width="96"
       y="0"
       x="0"
       id="use3806"
       transform="translate(0,12)" />
    <use
       xlink:href="#g3799"
       height="96"
       width="96"
       y="0"
       x="0"
       id="use3808"
       transform="translate(0,24)" />
    <use
       xlink:href="#g3799"
       height="96"
       width="96"
       y="0"
       x="0"
       id="use3810"
       transform="translate(0,36)" />
    <use
       xlink:href="#g3799"
       height="96"
       width="96"
       y="0"
       x="0"
       id="use3812"
       transform="translate(0,48)" />
  </g>
</svg>
