<?xml version="1.0" encoding="UTF-8" standalone="no"?>
<!-- Created with Inkscape (http://www.inkscape.org/) -->
<svg id="svg7384" xmlns:rdf="http://www.w3.org/1999/02/22-rdf-syntax-ns#" xmlns="http://www.w3.org/2000/svg" height="16" width="16" version="1.1" xmlns:cc="http://creativecommons.org/ns#" xmlns:dc="http://purl.org/dc/elements/1.1/">
 <metadata id="metadata90">
  <rdf:RDF>
   <cc:Work rdf:about="">
    <dc:format>image/svg+xml</dc:format>
    <dc:type rdf:resource="http://purl.org/dc/dcmitype/StillImage"/>
    <dc:title>Gnome Symbolic Icon Theme</dc:title>
   </cc:Work>
  </rdf:RDF>
 </metadata>
 <title id="title9167">Gnome Symbolic Icon Theme</title>
 <g id="layer11" transform="translate(-43 -649)">
  <path id="path9137" style="fill:#bebebe" d="m56.289 658.69c-0.49379 0.47964-1.0774 0.69712-1.7883 0.69712-0.71086 0-1.2972-0.22349-1.791-0.70313-0.77657 0.27945-1.7052 0.99058-1.7063 2.2326l-0.0027 2.3167c0 0.42 0.313 0.76 0.7 0.76h5.6c0.3878 0 0.7-0.34309 0.7-0.76924v-2.3077c0-1.0667-0.77162-1.966-1.7117-2.2356z"/>
  <path id="path9139" style="color:#bebebe;fill:#bebebe" d="m52 342.5a2.5 2.5 0 1 1 -5 0 2.5 2.5 0 1 1 5 0z" transform="matrix(.92307 0 0 .92307 8.8082 340.15)"/>
  <path id="path9178" style="fill:#bebebe" d="m49.289 654.69c-0.49379 0.47964-1.0774 0.69712-1.7883 0.69712-0.71086 0-1.2972-0.22349-1.791-0.70313-0.77657 0.27945-1.7052 0.99058-1.7063 2.2326l-0.0027 2.3167c0 0.42 0.313 0.76 0.7 0.76h5.7354c0.06219-0.3952 0.26162-0.72266 0.56465-1v-2.0769c0-1.0667-0.77162-1.966-1.7117-2.2356z"/>
  <path id="path9180" style="color:#bebebe;fill:#bebebe" d="m52 342.5a2.5 2.5 0 1 1 -5 0 2.5 2.5 0 1 1 5 0z" transform="matrix(.92307 0 0 .92307 1.8082 336.15)"/>
 </g>
</svg>
