<?xml version="1.0" encoding="UTF-8" standalone="no"?>
<svg
   xmlns:dc="http://purl.org/dc/elements/1.1/"
   xmlns:cc="http://creativecommons.org/ns#"
   xmlns:rdf="http://www.w3.org/1999/02/22-rdf-syntax-ns#"
   xmlns:svg="http://www.w3.org/2000/svg"
   xmlns="http://www.w3.org/2000/svg"
   xmlns:xlink="http://www.w3.org/1999/xlink"
   version="1.0"
   width="32"
   height="32"
   id="svg2408"
   style="display:inline">
  <defs
     id="defs2410">
    <linearGradient
       id="linearGradient3604">
      <stop
         id="stop3606"
         style="stop-color:#2f2f2f;stop-opacity:1"
         offset="0" />
      <stop
         id="stop3608"
         style="stop-color:#ffffff;stop-opacity:1"
         offset="0.43731192" />
      <stop
         id="stop3610"
         style="stop-color:#979797;stop-opacity:1"
         offset="0.62138397" />
      <stop
         id="stop3612"
         style="stop-color:#505050;stop-opacity:1"
         offset="0.7723214" />
      <stop
         id="stop3614"
         style="stop-color:#e6e6e6;stop-opacity:1"
         offset="1" />
    </linearGradient>
    <linearGradient
       id="linearGradient3435">
      <stop
         id="stop3437"
         style="stop-color:#ededed;stop-opacity:1"
         offset="0" />
      <stop
         id="stop3439"
         style="stop-color:#b0b0b0;stop-opacity:1"
         offset="1" />
    </linearGradient>
    <linearGradient
       id="linearGradient3387">
      <stop
         id="stop3389"
         style="stop-color:#a2a2a2;stop-opacity:1"
         offset="0" />
      <stop
         id="stop3391"
         style="stop-color:#ffffff;stop-opacity:1"
         offset="1" />
    </linearGradient>
    <linearGradient
       id="linearGradient3354">
      <stop
         id="stop3356"
         style="stop-color:#b4b4b4;stop-opacity:1"
         offset="0" />
      <stop
         id="stop3362"
         style="stop-color:#646464;stop-opacity:1"
         offset="0.20467032" />
      <stop
         id="stop3364"
         style="stop-color:#ffffff;stop-opacity:1"
         offset="0.49567693" />
      <stop
         id="stop3358"
         style="stop-color:#3c3c3c;stop-opacity:1"
         offset="1" />
    </linearGradient>
    <linearGradient
       id="linearGradient3290">
      <stop
         id="stop3292"
         style="stop-color:#ffffff;stop-opacity:1"
         offset="0" />
      <stop
         id="stop3304"
         style="stop-color:#8c8c8c;stop-opacity:1"
         offset="0.48973215" />
      <stop
         id="stop3306"
         style="stop-color:#cfcfcf;stop-opacity:1"
         offset="0.50044644" />
      <stop
         id="stop3298"
         style="stop-color:#ffffff;stop-opacity:1"
         offset="0.62276787" />
      <stop
         id="stop3300"
         style="stop-color:#c8c8c8;stop-opacity:1"
         offset="0.81696427" />
      <stop
         id="stop3294"
         style="stop-color:#505050;stop-opacity:1"
         offset="1" />
    </linearGradient>
    <linearGradient
       id="linearGradient3236">
      <stop
         id="stop3238"
         style="stop-color:#818181;stop-opacity:1"
         offset="0" />
      <stop
         id="stop3242"
         style="stop-color:#f9f9f9;stop-opacity:1"
         offset="0.2" />
      <stop
         id="stop3240"
         style="stop-color:#dcdcdc;stop-opacity:0"
         offset="1" />
    </linearGradient>
    <linearGradient
       id="linearGradient3199">
      <stop
         id="stop3201"
         style="stop-color:#dcdcdc;stop-opacity:1"
         offset="0" />
      <stop
         id="stop3203"
         style="stop-color:#fafafa;stop-opacity:1"
         offset="1" />
    </linearGradient>
    <linearGradient
       x1="45.447727"
       y1="92.539597"
       x2="45.447727"
       y2="7.0165396"
       id="ButtonShadow"
       gradientUnits="userSpaceOnUse"
       gradientTransform="scale(1.0058652,0.994169)">
      <stop
         id="stop3750"
         style="stop-color:#000000;stop-opacity:1"
         offset="0" />
      <stop
         id="stop3752"
         style="stop-color:#000000;stop-opacity:0.58823532"
         offset="1" />
    </linearGradient>
    <linearGradient
       id="linearGradient3737">
      <stop
         id="stop3739"
         style="stop-color:#ffffff;stop-opacity:1"
         offset="0" />
      <stop
         id="stop3741"
         style="stop-color:#ffffff;stop-opacity:0"
         offset="1" />
    </linearGradient>
    <linearGradient
       id="linearGradient3700">
      <stop
         id="stop3702"
         style="stop-color:#b4b4b4;stop-opacity:1"
         offset="0" />
      <stop
         id="stop3704"
         style="stop-color:#dcdcdc;stop-opacity:1"
         offset="1" />
    </linearGradient>
    <filter
       id="filter3174"
       style="color-interpolation-filters:sRGB">
      <feGaussianBlur
         id="feGaussianBlur3176"
         stdDeviation="1.71" />
    </filter>
    <linearGradient
       x1="19.035713"
       y1="74"
       x2="87.5"
       y2="27.428572"
       id="linearGradient3220"
       xlink:href="#linearGradient3737"
       gradientUnits="userSpaceOnUse" />
    <linearGradient
       x1="6"
       y1="73"
       x2="24"
       y2="73"
       id="linearGradient3234"
       xlink:href="#linearGradient3236"
       gradientUnits="userSpaceOnUse" />
    <linearGradient
       x1="6"
       y1="73"
       x2="24"
       y2="73"
       id="linearGradient3246"
       xlink:href="#linearGradient3236"
       gradientUnits="userSpaceOnUse"
       gradientTransform="matrix(-1,0,0,1,96,0)" />
    <linearGradient
       x1="38.748035"
       y1="65.59034"
       x2="38.748035"
       y2="5.8331571"
       id="linearGradient3223"
       xlink:href="#linearGradient3199"
       gradientUnits="userSpaceOnUse" />
    <radialGradient
       cx="90"
       cy="90"
       r="42"
       fx="90"
       fy="90"
       id="radialGradient3229"
       xlink:href="#linearGradient3700"
       gradientUnits="userSpaceOnUse"
       gradientTransform="matrix(0,-1.085034,2,0,-90,187.65306)" />
    <clipPath
       id="clipPath3235">
      <path
         d="m 66,6 v 55 c 0,1.662 1.338,3 3,3 h 6 c 1.662,0 3,-1.338 3,-3 V 6 H 74 V 8 H 70 V 6 Z"
         id="path3237"
         style="fill:#ffffff;fill-opacity:1;fill-rule:nonzero;stroke:none" />
    </clipPath>
    <filter
       x="-0.16615385"
       y="-0.036610167"
       width="1.3323077"
       height="1.0732203"
       id="filter3243"
       style="color-interpolation-filters:sRGB">
      <feGaussianBlur
         id="feGaussianBlur3245"
         stdDeviation="0.9" />
    </filter>
    <linearGradient
       x1="68.75"
       y1="59"
       x2="75.25"
       y2="59"
       id="linearGradient3360"
       xlink:href="#linearGradient3354"
       gradientUnits="userSpaceOnUse"
       gradientTransform="matrix(0.5,0,0,0.5,-0.48590492,47.72705)" />
    <linearGradient
       x1="69"
       y1="54"
       x2="73"
       y2="54"
       id="linearGradient3372"
       xlink:href="#linearGradient3290"
       gradientUnits="userSpaceOnUse"
       gradientTransform="translate(0,-1)" />
    <linearGradient
       gradientTransform="matrix(0.5,0,0,0.5,-0.48590492,48.22705)"
       x1="63.484772"
       y1="64.163078"
       x2="79"
       y2="65"
       id="linearGradient3393"
       xlink:href="#linearGradient3387"
       gradientUnits="userSpaceOnUse" />
    <filter
       x="-0.16182838"
       y="-0.095353596"
       width="1.3236568"
       height="1.1907072"
       id="filter3429"
       style="color-interpolation-filters:sRGB">
      <feGaussianBlur
         id="feGaussianBlur3431"
         stdDeviation="0.53551312" />
    </filter>
    <linearGradient
       x1="68.96875"
       y1="17.5"
       x2="75.0625"
       y2="17.5"
       id="linearGradient3489"
       xlink:href="#linearGradient3435"
       gradientUnits="userSpaceOnUse"
       gradientTransform="matrix(-0.5,0,0,0.5,71.52972,47.22705)" />
    <linearGradient
       x1="68.02903"
       y1="17.763245"
       x2="75.97097"
       y2="17.763245"
       id="linearGradient3516"
       xlink:href="#linearGradient3435"
       gradientUnits="userSpaceOnUse"
       gradientTransform="matrix(0.5,0,0,0.5,-0.48590492,47.22705)" />
    <linearGradient
       x1="68.75"
       y1="59"
       x2="72.250572"
       y2="59"
       id="linearGradient3530"
       xlink:href="#linearGradient3354"
       gradientUnits="userSpaceOnUse"
       gradientTransform="matrix(0.56313455,0,0,0.5,-4.1868895,23.47705)" />
    <linearGradient
       x1="69"
       y1="54"
       x2="73"
       y2="54"
       id="linearGradient3602"
       xlink:href="#linearGradient3604"
       gradientUnits="userSpaceOnUse"
       gradientTransform="matrix(-1,0,0,1,144,-4)" />
    <linearGradient
       x1="45.447727"
       y1="92.539597"
       x2="45.447727"
       y2="7.0165396"
       id="ButtonShadow-0"
       gradientUnits="userSpaceOnUse"
       gradientTransform="matrix(1.0058652,0,0,0.994169,100,0)">
      <stop
         id="stop3750-8"
         style="stop-color:#000000;stop-opacity:1"
         offset="0" />
      <stop
         id="stop3752-5"
         style="stop-color:#000000;stop-opacity:0.58823532"
         offset="1" />
    </linearGradient>
    <linearGradient
       x1="32.251034"
       y1="6.1317081"
       x2="32.251034"
       y2="90.238609"
       id="linearGradient3780"
       xlink:href="#ButtonShadow-0"
       gradientUnits="userSpaceOnUse"
       gradientTransform="matrix(1.0238095,0,0,1.0119048,-1.1428571,-98.071429)" />
    <linearGradient
       x1="32.251034"
       y1="6.1317081"
       x2="32.251034"
       y2="90.238609"
       id="linearGradient3772"
       xlink:href="#ButtonShadow-0"
       gradientUnits="userSpaceOnUse"
       gradientTransform="matrix(1.0238095,0,0,1.0119048,-1.1428571,-98.071429)" />
    <linearGradient
       x1="32.251034"
       y1="6.1317081"
       x2="32.251034"
       y2="90.238609"
       id="linearGradient3725"
       xlink:href="#ButtonShadow-0"
       gradientUnits="userSpaceOnUse"
       gradientTransform="matrix(1.0238095,0,0,1.0119048,-1.1428571,-98.071429)" />
    <linearGradient
       x1="32.251034"
       y1="6.1317081"
       x2="32.251034"
       y2="90.238609"
       id="linearGradient3721"
       xlink:href="#ButtonShadow-0"
       gradientUnits="userSpaceOnUse"
       gradientTransform="translate(0,-97)" />
    <linearGradient
       x1="32.251034"
       y1="6.1317081"
       x2="32.251034"
       y2="90.238609"
       id="linearGradient3760"
       xlink:href="#ButtonShadow-0"
       gradientUnits="userSpaceOnUse"
       gradientTransform="matrix(1.0238095,0,0,1.0119048,-1.1428571,-98.071429)" />
    <linearGradient
       xlink:href="#linearGradient3290"
       id="linearGradient942"
       gradientUnits="userSpaceOnUse"
       gradientTransform="translate(0,-1)"
       x1="69"
       y1="54"
       x2="73"
       y2="54" />
    <linearGradient
       xlink:href="#linearGradient3604"
       id="linearGradient944"
       gradientUnits="userSpaceOnUse"
       gradientTransform="matrix(-1,0,0,1,144,-4)"
       x1="69"
       y1="54"
       x2="73"
       y2="54" />
    <linearGradient
       y2="54"
       x2="73"
       y1="54"
       x1="69"
       gradientTransform="matrix(-0.5,0,0,0.5,71.514095,46.22705)"
       gradientUnits="userSpaceOnUse"
       id="linearGradient963"
       xlink:href="#linearGradient3604" />
    <linearGradient
       y2="54"
       x2="73"
       y1="54"
       x1="69"
       gradientTransform="matrix(0.5,0,0,0.5,-0.48590492,47.72705)"
       gradientUnits="userSpaceOnUse"
       id="linearGradient967"
       xlink:href="#linearGradient3290" />
  </defs>
  <metadata
     id="metadata2413">
    <rdf:RDF>
      <cc:Work
         rdf:about="">
        <dc:format>image/svg+xml</dc:format>
        <dc:type
           rdf:resource="http://purl.org/dc/dcmitype/StillImage" />
        <dc:title></dc:title>
      </cc:Work>
    </rdf:RDF>
  </metadata>
  <g
     id="layer2"
     style="display:none"
     transform="translate(0,-64)">
    <rect
       width="86"
       height="85"
       rx="6"
       ry="6"
       x="5"
       y="7"
       id="rect3745"
       style="opacity:0.9;fill:url(#ButtonShadow);fill-opacity:1;fill-rule:nonzero;stroke:none;filter:url(#filter3174)" />
  </g>
  <g
     id="layer4"
     style="display:inline"
     transform="matrix(0.32944406,0,0,0.32944406,0.35140701,0.19251917)">
    <path
       d="m 12,-95.03125 c -5.5110903,0 -10.03125,4.52016 -10.03125,10.03125 v 71 c 0,5.5110902 4.5201598,10.03125 10.03125,10.03125 h 72 c 5.51109,0 10.03125,-4.5201597 10.03125,-10.03125 v -71 c 0,-5.51109 -4.52016,-10.03125 -10.03125,-10.03125 z"
       transform="scale(1,-1)"
       id="path3786"
       style="display:inline;opacity:0.07999998;fill:url(#linearGradient3760);fill-opacity:1;fill-rule:nonzero;stroke:none" />
    <path
       d="m 12,-94.03125 c -4.971633,0 -9.03125,4.059617 -9.03125,9.03125 v 71 c 0,4.9716329 4.0596171,9.03125 9.03125,9.03125 h 72 c 4.971633,0 9.03125,-4.059617 9.03125,-9.03125 v -71 c 0,-4.971633 -4.059617,-9.03125 -9.03125,-9.03125 z"
       transform="scale(1,-1)"
       id="path3778"
       style="display:inline;opacity:0.1;fill:url(#linearGradient3780);fill-opacity:1;fill-rule:nonzero;stroke:none" />
    <path
       d="m 12,-93 c -4.4091333,0 -8,3.590867 -8,8 v 71 c 0,4.4091333 3.5908667,8 8,8 h 72 c 4.409133,0 8,-3.5908667 8,-8 v -71 c 0,-4.409133 -3.590867,-8 -8,-8 z"
       transform="scale(1,-1)"
       id="path3770"
       style="display:inline;opacity:0.2;fill:url(#linearGradient3772);fill-opacity:1;fill-rule:nonzero;stroke:none" />
    <rect
       width="86"
       height="85"
       rx="7"
       ry="7"
       x="5"
       y="-92"
       transform="scale(1,-1)"
       id="rect3723"
       style="display:inline;opacity:0.3;fill:url(#linearGradient3725);fill-opacity:1;fill-rule:nonzero;stroke:none" />
    <rect
       width="84"
       height="84"
       rx="6"
       ry="6"
       x="6"
       y="-91"
       transform="scale(1,-1)"
       id="rect3716"
       style="display:inline;opacity:0.45;fill:url(#linearGradient3721);fill-opacity:1;fill-rule:nonzero;stroke:none" />
  </g>
  <g
     id="layer1"
     style="display:inline"
     transform="matrix(0.32944406,0,0,0.32944406,0.35140701,0.19251917)">
    <path
       d="M 12,6 C 8.676,6 6,8.676 6,12 v 72 c 0,3.324 2.676,6 6,6 h 72 c 3.324,0 6,-2.676 6,-6 V 12 C 90,8.676 87.324,6 84,6 H 75 V 9 H 69 V 6 Z"
       id="rect2419"
       style="fill:url(#radialGradient3229);fill-opacity:1;fill-rule:nonzero;stroke:none" />
    <path
       d="m 6,56 v 28 c 0,3.324 2.676,6 6,6 H 24 V 56 Z"
       id="rect3222"
       style="fill:url(#linearGradient3234);fill-opacity:1;fill-rule:nonzero;stroke:none" />
    <path
       d="m 90,56 v 28 c 0,3.324 -2.676,6 -6,6 H 72 V 56 Z"
       id="path3244"
       style="fill:url(#linearGradient3246);fill-opacity:1;fill-rule:nonzero;stroke:none" />
    <path
       d="m 6,82 v 2 c 0,3.324 2.676,6 6,6 h 72 c 3.324,0 6,-2.676 6,-6 v -2 c 0,3.324 -2.676,6 -6,6 H 12 C 8.676,88 6,85.324 6,82 Z"
       id="rect2412"
       style="opacity:0.15;fill:#000000;fill-opacity:1;fill-rule:nonzero;stroke:none" />
    <path
       d="m 6,78 v 2 c 0,3.324 2.676,6 6,6 h 72 c 3.324,0 6,-2.676 6,-6 v -2 c 0,3.324 -2.676,6 -6,6 H 12 C 8.676,84 6,81.324 6,78 Z"
       id="path3187"
       style="opacity:0.8;fill:#ffffff;fill-opacity:1;fill-rule:nonzero;stroke:none" />
    <path
       d="m 6,76 v 2 c 0,3.324 2.676,6 6,6 h 72 c 3.324,0 6,-2.676 6,-6 v -2 c 0,3.324 -2.676,6 -6,6 H 12 C 8.676,82 6,79.324 6,76 Z"
       id="path3189"
       style="opacity:0.15;fill:#000000;fill-opacity:1;fill-rule:nonzero;stroke:none" />
    <path
       d="m 6,72 v 2 c 0,3.324 2.676,6 6,6 h 72 c 3.324,0 6,-2.676 6,-6 v -2 c 0,3.324 -2.676,6 -6,6 H 12 C 8.676,78 6,75.324 6,72 Z"
       id="path3191"
       style="opacity:0.8;fill:#ffffff;fill-opacity:1;fill-rule:nonzero;stroke:none" />
    <path
       d="m 6,70 v 2 c 0,3.324 2.676,6 6,6 h 72 c 3.324,0 6,-2.676 6,-6 v -2 c 0,3.324 -2.676,6 -6,6 H 12 C 8.676,76 6,73.324 6,70 Z"
       id="path3193"
       style="opacity:0.15;fill:#000000;fill-opacity:1;fill-rule:nonzero;stroke:none" />
    <path
       d="M 12,6 C 8.676,6 6,8.676 6,12 v 56 c 0,3.324 2.676,6 6,6 h 72 c 3.324,0 6,-2.676 6,-6 V 12 C 90,8.676 87.324,6 84,6 H 75 V 9 H 69 V 6 Z"
       id="rect3195"
       style="fill:url(#linearGradient3223);fill-opacity:1;fill-rule:nonzero;stroke:none" />
    <path
       d="M 12,6 C 8.676,6 6,8.676 6,12 v 56 c 0,3.324 2.676,6 6,6 h 72 c 3.324,0 6,-2.676 6,-6 V 12 C 90,8.676 87.324,6 84,6 h -9 v 2 h 9 c 2.245802,0 4,1.7541975 4,4 v 56 c 0,2.245802 -1.754198,4 -4,4 H 12 C 9.7541975,72 8,70.245802 8,68 V 12 C 8,9.7541975 9.7541975,8 12,8 H 69 V 6 Z"
       id="rect3207"
       style="fill:url(#linearGradient3220);fill-opacity:1;fill-rule:nonzero;stroke:none" />
  </g>
  <g
     id="layer3"
     transform="matrix(0.65888813,0,0,0.65888813,0.671564,-31.583712)">
    <path
       d="m 32.514095,51.22705 v 27.5 c 0,0.831 0.669,1.5 1.5,1.5 h 3 c 0.831,0 1.5,-0.669 1.5,-1.5 v -27.5 h -2 v 1 h -2 v -1 z"
       id="rect3201"
       style="fill:#252525;fill-opacity:1;fill-rule:nonzero;stroke:none;stroke-width:0.5" />
    <rect
       width="2"
       height="24.5"
       x="34.514095"
       y="52.227051"
       id="rect3247"
       style="fill:#4d4d4d;fill-opacity:1;fill-rule:nonzero;stroke:none;stroke-width:0.5" />
    <rect
       width="3"
       height="2"
       rx="0.5"
       ry="0.5"
       x="34.014095"
       y="76.227051"
       id="rect3211"
       style="fill:url(#linearGradient3360);fill-opacity:1;fill-rule:nonzero;stroke:#000000;stroke-width:0.25;stroke-linecap:square;stroke-linejoin:miter;stroke-miterlimit:4;stroke-dasharray:none;stroke-dashoffset:0;stroke-opacity:0.56363639" />
    <path
       transform="matrix(0.5,0,0,0.5,-0.48590492,48.22705)"
       d="m 66,6 v 55 c 0,1.662 1.338,3 3,3 h 6 c 1.662,0 3,-1.338 3,-3 V 6 H 74 V 8 H 70 V 6 Z"
       clip-path="url(#clipPath3235)"
       id="path3231"
       style="fill:none;stroke:#000000;stroke-width:2;stroke-linecap:square;stroke-linejoin:miter;stroke-miterlimit:4;stroke-dasharray:none;stroke-dashoffset:0;stroke-opacity:1;filter:url(#filter3243)" />
    <path
       d="m 34.264095,73.72705 c -0.134887,0 -0.25,0.108982 -0.25,0.25 v 1.5 c 0,0.141018 0.115114,0.25 0.25,0.25 h 0.5 c 0.134887,0 0.25,-0.108982 0.25,-0.25 v -0.25 h 0.75 c 0.1385,0 0.25,-0.1115 0.25,-0.25 v -0.5 c 0,-0.1385 -0.1115,-0.25 -0.25,-0.25 h -0.75 v -0.25 c 0,-0.141018 -0.115115,-0.25 -0.25,-0.25 z"
       id="rect3249"
       style="fill:url(#linearGradient967);fill-opacity:1;fill-rule:nonzero;stroke:#000000;stroke-width:0.25;stroke-linecap:square;stroke-linejoin:miter;stroke-miterlimit:4;stroke-dasharray:none;stroke-dashoffset:0;stroke-opacity:0.56363639" />
    <use
       transform="translate(2.9196782e-8,-3)"
       id="use3308"
       x="0"
       y="0"
       width="96"
       height="96"
       xlink:href="#rect3249" />
    <use
       transform="translate(2.9196782e-8,-3)"
       id="use3310"
       x="0"
       y="0"
       width="96"
       height="96"
       xlink:href="#use3308" />
    <use
       transform="translate(2.9196782e-8,-3)"
       id="use3312"
       x="0"
       y="0"
       width="96"
       height="96"
       xlink:href="#use3310" />
    <use
       transform="translate(2.9196782e-8,-3)"
       id="use3314"
       x="0"
       y="0"
       width="96"
       height="96"
       xlink:href="#use3312" />
    <use
       transform="translate(2.9196782e-8,-3)"
       id="use3316"
       x="0"
       y="0"
       width="96"
       height="96"
       xlink:href="#use3314" />
    <use
       transform="translate(2.9196782e-8,-3)"
       id="use3318"
       x="0"
       y="0"
       width="96"
       height="96"
       xlink:href="#use3316" />
    <use
       transform="translate(2.9196782e-8,-3)"
       id="use3320"
       x="0"
       y="0"
       width="96"
       height="96"
       xlink:href="#use3318" />
    <path
       d="m 36.764095,72.22705 c 0.134887,0 0.25,0.108982 0.25,0.25 v 1.5 c 0,0.141018 -0.115115,0.25 -0.25,0.25 h -0.5 c -0.134887,0 -0.25,-0.108982 -0.25,-0.25 v -0.25 h -0.75 c -0.1385,0 -0.25,-0.1115 -0.25,-0.25 v -0.5 c 0,-0.1385 0.1115,-0.25 0.25,-0.25 h 0.75 v -0.25 c 0,-0.141018 0.115114,-0.25 0.25,-0.25 z"
       id="path3322"
       style="fill:url(#linearGradient963);fill-opacity:1;fill-rule:nonzero;stroke:#000000;stroke-width:0.25;stroke-linecap:square;stroke-linejoin:miter;stroke-miterlimit:4;stroke-dasharray:none;stroke-dashoffset:0;stroke-opacity:0.56363639" />
    <use
       transform="translate(2.9196782e-8,-3)"
       id="use3340"
       x="0"
       y="0"
       width="96"
       height="96"
       xlink:href="#path3322" />
    <use
       transform="translate(2.9196782e-8,-3)"
       id="use3342"
       x="0"
       y="0"
       width="96"
       height="96"
       xlink:href="#use3340" />
    <use
       transform="translate(2.9196782e-8,-3)"
       id="use3344"
       x="0"
       y="0"
       width="96"
       height="96"
       xlink:href="#use3342" />
    <use
       transform="translate(2.9196782e-8,-3)"
       id="use3346"
       x="0"
       y="0"
       width="96"
       height="96"
       xlink:href="#use3344" />
    <use
       transform="translate(2.9196782e-8,-3)"
       id="use3348"
       x="0"
       y="0"
       width="96"
       height="96"
       xlink:href="#use3346" />
    <use
       transform="translate(2.9196782e-8,-3)"
       id="use3350"
       x="0"
       y="0"
       width="96"
       height="96"
       xlink:href="#use3348" />
    <path
       d="m 32.014095,51.22705 v 27.5 c 0,1.101148 0.898852,2 2,2 h 3 c 1.101147,0 2,-0.898852 2,-2 v -27.5 h -0.5 v 27.5 c 0,0.831 -0.669,1.5 -1.5,1.5 h -3 c -0.831,0 -1.5,-0.669 -1.5,-1.5 v -27.5 z"
       id="path3376"
       style="fill:url(#linearGradient3393);fill-opacity:1;fill-rule:nonzero;stroke:none;stroke-width:0.5" />
    <path
       d="m 69.5,10.53125 c -1.027701,0 -1.96875,0.765203 -1.96875,1.8125 v 10.8125 C 67.531245,24.203555 68.449331,25 69.5,25 h 5 c 1.050668,0 1.96875,-0.796448 1.96875,-1.84375 v -10.8125 c -3e-6,-1.047297 -0.941051,-1.8125 -1.96875,-1.8125 z m 1.0625,9.0625 h 2.875 v 1.75 h -2.875 z"
       transform="matrix(0.5,0,0,0.5,-0.48590492,47.22705)"
       id="path3433"
       style="fill:#000000;fill-opacity:1;fill-rule:nonzero;stroke:#000000;stroke-width:0.49999994;stroke-linecap:square;stroke-linejoin:miter;stroke-miterlimit:4;stroke-dasharray:none;stroke-dashoffset:0;stroke-opacity:0.56363639;" />
    <path
       d="m 34.128719,52.737758 c -0.343569,0 -0.614624,0.241185 -0.614624,0.540774 l -0.0025,5.407744 c 1.1e-5,0.299589 0.271067,0.540774 0.614635,0.540774 h 2.791611 c 0.343569,0 0.614624,-0.241185 0.614624,-0.540774 l 0.0025,-5.407744 c 0,-0.299589 -0.271056,-0.540774 -0.614624,-0.540774 H 34.12873 Z m 0.352152,3.974824 h 2.050662 v 1.559189 h -2.050662 z"
       id="rect3403"
       style="fill:url(#linearGradient3516);fill-opacity:1;fill-rule:nonzero;stroke:none;stroke-width:0.5" />
    <path
       d="m 36.795345,53.211425 c 0.1385,0 0.25,0.1115 0.25,0.25 v 5.03125 c 0,0.1385 -0.1115,0.25 -0.25,0.25 H 34.24847 c -0.1385,0 -0.25,-0.1115 -0.25,-0.25 v -5.03125 c 0,-0.1385 0.1115,-0.25 0.25,-0.25 z m -0.21875,3.484375 h -2.0625 v 1.5625 h 2.0625 z"
       id="rect3470"
       style="fill:url(#linearGradient3489);fill-opacity:1;fill-rule:nonzero;stroke:none;stroke-width:0.5" />
    <rect
       width="1.6894037"
       height="2.5"
       rx="0.28156728"
       ry="0.25"
       x="34.669395"
       y="51.977051"
       id="rect3399"
       style="fill:url(#linearGradient3530);fill-opacity:1;fill-rule:nonzero;stroke:#000000;stroke-width:0.5;stroke-linecap:square;stroke-linejoin:miter;stroke-miterlimit:4;stroke-dasharray:none;stroke-dashoffset:0;stroke-opacity:0.56363639" />
    <rect
       width="2"
       height="0.5"
       x="34.506413"
       y="56.227051"
       id="rect3518"
       style="opacity:0.3;fill:#000000;fill-opacity:1;fill-rule:nonzero;stroke:none;stroke-width:0.5" />
    <g
       transform="matrix(0.06218291,0,0,0.06218291,19.712815,66.399814)"
       id="g2681">
      <path
         d="m -116.65759,144.30809 c 0,0 -17.265,10.049 12.301,13.44 35.823999,4.09 54.129999,3.501 93.595999,-3.959 0,0 10.39700015,6.504 24.892,12.137 -88.501,37.917 -200.295999,-2.197 -130.788999,-21.618 z"
         id="path2627"
         style="fill:#0074bd;fill-rule:evenodd" />
      <path
         d="m -127.47759,94.820089 c 0,0 -19.367,14.339001 10.221,17.397001 38.270999,3.951 68.482999,4.275 120.7919992,-5.792 0,0 7.2179998,7.332 18.5849998,11.339 -106.986,31.294 -226.146999,2.462 -149.597999,-22.944001 z"
         id="path2629"
         style="fill:#0074bd;fill-rule:evenodd" />
      <path
         d="m -36.314591,10.861089 c 21.818,25.115 -5.721,47.697 -5.721,47.697 0,0 55.367,-28.577 29.945,-64.3800003 -23.752,-33.3729997 -41.962,-49.9509997 56.623,-107.1239987 10e-4,0 -154.753999,38.640999 -80.847,123.806999 z"
         id="path2631"
         style="fill:#ea2d2e;fill-rule:evenodd" />
      <path
         d="m 80.733409,180.91809 c 0,0 12.781,10.536 -14.077,18.684 -51.071,15.469 -212.603999,20.135 -257.469999,0.619 -16.117,-7.02 14.121,-16.75 23.635,-18.805 9.92,-2.146 15.584,-1.754 15.584,-1.754 -17.937,-12.631 -115.935,24.807 -49.772,35.544 180.428999,29.246 328.895,-13.173 282.099999,-34.288 z"
         id="path2633"
         style="fill:#0074bd;fill-rule:evenodd" />
      <path
         d="m -108.34859,43.538089 c 0,0 -82.155,19.519 -29.092,26.613 22.412,2.999 67.062999,2.309 108.684999,-1.183 34.0060002,-2.854 68.133,-8.958 68.133,-8.958 0,0 -11.982,5.14 -20.657,11.06 -83.444,21.947 -244.611999,11.726 -198.206999,-10.712 39.227,-18.977 71.138,-16.82 71.138,-16.82 z"
         id="path2635"
         style="fill:#0074bd;fill-rule:evenodd" />
      <path
         d="m 39.037409,125.91409 c 84.818001,-44.063001 45.597,-86.412001 18.223,-80.708001 -6.694,1.397 -9.697,2.607 -9.697,2.607 0,0 2.494,-3.907 7.243,-5.588 54.155001,-19.03 95.794001,56.146 -17.464,85.919001 -0.001,0 1.302,-1.18 1.695,-2.23 z"
         id="path2637"
         style="fill:#0074bd;fill-rule:evenodd" />
      <path
         d="m -12.089591,-205.28391 c 0,0 46.963,46.99 -44.557,119.226999 -73.392999,57.969 -16.734,91.0089997 -0.026,128.778 -42.845,-38.6530003 -74.270999,-72.684 -53.191999,-104.352 30.953999,-46.478999 116.7189992,-69.020999 97.774999,-143.652999 z"
         id="path2639"
         style="fill:#ea2d2e;fill-rule:evenodd" />
      <path
         d="m -100.00959,245.35309 c 81.396999,5.204 206.426,-2.896 209.385,-41.415 0,0 -5.688,14.602 -67.276001,26.188 -69.481,13.081 -155.196999,11.558 -206.015999,3.167 0,0 10.411,8.617 63.907,12.06 z"
         id="path2641"
         style="fill:#0074bd;fill-rule:evenodd" />
    </g>
  </g>
</svg>
