<?xml version="1.0" encoding="UTF-8" standalone="no"?>
<svg
   xmlns:dc="http://purl.org/dc/elements/1.1/"
   xmlns:cc="http://creativecommons.org/ns#"
   xmlns:rdf="http://www.w3.org/1999/02/22-rdf-syntax-ns#"
   xmlns:svg="http://www.w3.org/2000/svg"
   xmlns="http://www.w3.org/2000/svg"
   xmlns:xlink="http://www.w3.org/1999/xlink"
   width="32"
   height="32"
   id="svg18157"
   version="1.1">
  <defs
     id="defs18159">
    <linearGradient
       xlink:href="#linearGradient3454-2-5-0-3"
       id="linearGradient12489"
       gradientUnits="userSpaceOnUse"
       gradientTransform="matrix(0.89189031,0,0,1.0580283,3.1206609,5.3536023)"
       x1="42.470848"
       y1="11.952797"
       x2="42.470848"
       y2="35.581654" />
    <linearGradient
       id="linearGradient3454-2-5-0-3">
      <stop
         offset="0"
         style="stop-color:#ffffff;stop-opacity:1"
         id="stop3456-4-9-38-1" />
      <stop
         offset="0.0097359"
         style="stop-color:#ffffff;stop-opacity:0.23529412"
         id="stop3458-39-80-3-5" />
      <stop
         offset="0.99001008"
         style="stop-color:#ffffff;stop-opacity:0.15686275"
         id="stop3460-7-0-2-4" />
      <stop
         offset="1"
         style="stop-color:#ffffff;stop-opacity:0.39215687"
         id="stop3462-0-9-8-7" />
    </linearGradient>
    <linearGradient
       xlink:href="#linearGradient6129-963-697-142-998-580-273-44-2-2"
       id="linearGradient12487"
       gradientUnits="userSpaceOnUse"
       gradientTransform="matrix(1.1446925,0,0,0.9977536,-3.466138,1.0988397)"
       x1="22.934725"
       y1="49.629246"
       x2="22.809399"
       y2="36.657963" />
    <linearGradient
       id="linearGradient6129-963-697-142-998-580-273-44-2-2">
      <stop
         id="stop2661-01-6-2"
         style="stop-color:#0a0a0a;stop-opacity:0.498"
         offset="0" />
      <stop
         id="stop2663-64-5-5"
         style="stop-color:#0a0a0a;stop-opacity:0"
         offset="1" />
    </linearGradient>
    <linearGradient
       xlink:href="#linearGradient4632-0-6-4-7"
       id="linearGradient12481"
       gradientUnits="userSpaceOnUse"
       gradientTransform="matrix(1,0,0,1.0357143,2.0849371e-6,-1.5890903)"
       x1="35.792694"
       y1="17.118193"
       x2="35.792694"
       y2="43.761127" />
    <linearGradient
       id="linearGradient4632-0-6-4">
      <stop
         style="stop-color:#aacb7d;stop-opacity:1;"
         offset="0"
         id="stop4634-4-4-7" />
      <stop
         style="stop-color:#709937;stop-opacity:1;"
         offset="1"
         id="stop4636-3-1-5" />
    </linearGradient>
    <radialGradient
       xlink:href="#linearGradient5060-820-91-9-0"
       id="radialGradient12475"
       gradientUnits="userSpaceOnUse"
       gradientTransform="matrix(-0.03079083,0,0,0.02470588,23.389752,31.94164)"
       cx="605.71429"
       cy="486.64789"
       fx="605.71429"
       fy="486.64789"
       r="117.14286" />
    <linearGradient
       id="linearGradient5060-820-91-9-0">
      <stop
         id="stop2681-778-5-1"
         style="stop-color:#000000;stop-opacity:1"
         offset="0" />
      <stop
         id="stop2683-2-86-2"
         style="stop-color:#000000;stop-opacity:0"
         offset="1" />
    </linearGradient>
    <radialGradient
       xlink:href="#linearGradient5060-179-37-4-0"
       id="radialGradient12471"
       gradientUnits="userSpaceOnUse"
       gradientTransform="matrix(0.03079083,0,0,0.02470588,24.610252,31.94164)"
       cx="605.71429"
       cy="486.64789"
       fx="605.71429"
       fy="486.64789"
       r="117.14286" />
    <linearGradient
       id="linearGradient5060-179-37-4-0">
      <stop
         id="stop2675-91-9-2"
         style="stop-color:#000000;stop-opacity:1"
         offset="0" />
      <stop
         id="stop2677-09-0-9"
         style="stop-color:#000000;stop-opacity:0"
         offset="1" />
    </linearGradient>
    <linearGradient
       xlink:href="#linearGradient5048-585-73-1-5"
       id="linearGradient12467"
       gradientUnits="userSpaceOnUse"
       gradientTransform="matrix(0.07938856,0,0,0.02470588,-4.6932879,31.94164)"
       x1="302.85715"
       y1="366.64789"
       x2="302.85715"
       y2="609.50507" />
    <linearGradient
       id="linearGradient5048-585-73-1-5">
      <stop
         id="stop2667-99-4-6"
         style="stop-color:#000000;stop-opacity:0"
         offset="0" />
      <stop
         id="stop2669-5-9-4"
         style="stop-color:#000000;stop-opacity:1"
         offset="0.5" />
      <stop
         id="stop2671-56-4-2"
         style="stop-color:#000000;stop-opacity:0"
         offset="1" />
    </linearGradient>
    <linearGradient
       xlink:href="#linearGradient4507-0-4-7"
       id="linearGradient12463"
       gradientUnits="userSpaceOnUse"
       gradientTransform="matrix(0.89189031,0,0,1.0580283,3.1206621,5.3535997)"
       x1="21.37039"
       y1="4.2476678"
       x2="21.37039"
       y2="34.143417" />
    <linearGradient
       id="linearGradient4507-0-4-7">
      <stop
         id="stop4509-35-6-1"
         style="stop-color:#ffffff;stop-opacity:1"
         offset="0" />
      <stop
         id="stop4511-46-3-8"
         style="stop-color:#ffffff;stop-opacity:0.23529412"
         offset="0.07395859" />
      <stop
         id="stop4513-15-5-9"
         style="stop-color:#ffffff;stop-opacity:0.15686275"
         offset="0.99001008" />
      <stop
         id="stop4515-1-1-8"
         style="stop-color:#ffffff;stop-opacity:0.39215687"
         offset="1" />
    </linearGradient>
    <linearGradient
       id="linearGradient4646-7-4-3">
      <stop
         offset="0"
         style="stop-color:#f9f9f9;stop-opacity:1"
         id="stop4648-8-0-3" />
      <stop
         offset="1"
         style="stop-color:#d8d8d8;stop-opacity:1"
         id="stop4650-1-7-3" />
    </linearGradient>
    <linearGradient
       id="linearGradient3104-8-8-97-4-6-11-5-5">
      <stop
         offset="0"
         style="stop-color:#000000;stop-opacity:0.32173914"
         id="stop3106-5-4-3-5-0-2-1-0" />
      <stop
         offset="1"
         style="stop-color:#000000;stop-opacity:0.27826086"
         id="stop3108-4-3-7-8-2-0-7-9" />
    </linearGradient>
    <linearGradient
       y2="3.6336823"
       x2="-51.786404"
       y1="53.514328"
       x1="-51.786404"
       gradientTransform="matrix(0.80749834,0,0,0.83374395,106.87672,-0.06984031)"
       gradientUnits="userSpaceOnUse"
       id="linearGradient18155"
       xlink:href="#linearGradient3104-8-8-97-4-6-11-5-5" />
    <linearGradient
       gradientUnits="userSpaceOnUse"
       y2="44.376751"
       x2="22.559322"
       y1="16.466301"
       x1="22.559322"
       id="linearGradient3840"
       xlink:href="#linearGradient7012-661-145-733-759-865-745" />
    <radialGradient
       r="21"
       fy="5.01718"
       fx="3"
       cy="5.01718"
       cx="3"
       gradientTransform="matrix(-1.274898e-8,1.7142916,-2.159331,-1.4599595e-8,12.809361,2.8570011)"
       gradientUnits="userSpaceOnUse"
       id="radialGradient3070"
       xlink:href="#linearGradient3484" />
    <linearGradient
       y2="16.19013"
       x2="62.988873"
       y1="13.182598"
       x1="62.988873"
       gradientTransform="translate(-50.940898)"
       gradientUnits="userSpaceOnUse"
       id="linearGradient3068"
       xlink:href="#linearGradient6404" />
    <linearGradient
       y2="15.943953"
       x2="65.340263"
       y1="45.114193"
       x1="82.453476"
       gradientTransform="translate(-53.765393,-0.1141929)"
       gradientUnits="userSpaceOnUse"
       id="linearGradient3061"
       xlink:href="#linearGradient3390" />
    <linearGradient
       y2="36.657963"
       x2="22.809399"
       y1="49.629246"
       x1="22.934725"
       gradientTransform="matrix(1.1446925,0,0,0.9977536,-3.4661413,1.0988425)"
       gradientUnits="userSpaceOnUse"
       id="linearGradient3056"
       xlink:href="#linearGradient6129-963-697-142-998-580-273" />
    <radialGradient
       r="20.979567"
       fy="8.3021259"
       fx="7.2646537"
       cy="8.3021259"
       cx="7.2646537"
       gradientTransform="matrix(0,1.2079744,-1.6271642,0,26.371748,8.2664685)"
       gradientUnits="userSpaceOnUse"
       id="radialGradient3053"
       xlink:href="#linearGradient6087-437-184-795-110-662-495" />
    <linearGradient
       y2="33.95525"
       x2="15.214532"
       y1="22.292103"
       x1="11.566265"
       gradientUnits="userSpaceOnUse"
       id="linearGradient3050"
       xlink:href="#linearGradient8265-821-176-38-919-66-249" />
    <linearGradient
       gradientUnits="userSpaceOnUse"
       xlink:href="#linearGradient8265-821-176-38-919-66-249"
       id="linearGradient3466"
       y2="33.95525"
       x2="15.214532"
       y1="22.292103"
       x1="11.566265" />
    <linearGradient
       id="linearGradient8265-821-176-38-919-66-249">
      <stop
         offset="0"
         style="stop-color:#ffffff;stop-opacity:0.2"
         id="stop2687" />
      <stop
         offset="1"
         style="stop-color:#ffffff;stop-opacity:0"
         id="stop2689" />
    </linearGradient>
    <radialGradient
       gradientTransform="matrix(0,1.2079744,-1.6271642,0,26.371748,8.2664685)"
       gradientUnits="userSpaceOnUse"
       xlink:href="#linearGradient6087-437-184-795-110-662-495"
       id="radialGradient2442-940-759"
       fy="8.3021259"
       fx="7.2646537"
       r="20.979567"
       cy="8.3021259"
       cx="7.2646537" />
    <linearGradient
       id="linearGradient6087-437-184-795-110-662-495">
      <stop
         offset="0"
         style="stop-color:#ffffff;stop-opacity:0.40000001"
         id="stop2693" />
      <stop
         offset="1"
         style="stop-color:#ffffff;stop-opacity:0"
         id="stop2695" />
    </linearGradient>
    <linearGradient
       gradientTransform="matrix(1.1446925,0,0,0.9977536,-3.4661413,1.0988425)"
       gradientUnits="userSpaceOnUse"
       xlink:href="#linearGradient6129-963-697-142-998-580-273"
       id="linearGradient6462-657-405"
       y2="36.657963"
       x2="22.809399"
       y1="49.629246"
       x1="22.934725" />
    <linearGradient
       id="linearGradient6129-963-697-142-998-580-273">
      <stop
         offset="0"
         style="stop-color:#0a0a0a;stop-opacity:0.498"
         id="stop2661" />
      <stop
         offset="1"
         style="stop-color:#0a0a0a;stop-opacity:0"
         id="stop2663" />
    </linearGradient>
    <radialGradient
       gradientTransform="matrix(1.5646925,-9.5143002e-8,6.1772287e-8,1.015888,-86.212573,8.1461173)"
       gradientUnits="userSpaceOnUse"
       xlink:href="#linearGradient7012-661-145-733-759-865-745"
       id="radialGradient3404"
       fy="14.113381"
       fx="63.969177"
       r="23.097054"
       cy="14.113381"
       cx="63.969177" />
    <linearGradient
       id="linearGradient7012-661-145-733-759-865-745">
      <stop
         offset="0"
         style="stop-color:#aacb7d;stop-opacity:1"
         id="stop2699" />
      <stop
         offset="1"
         style="stop-color:#709937;stop-opacity:1"
         id="stop2701" />
    </linearGradient>
    <linearGradient
       gradientTransform="translate(-53.765393,-0.1141929)"
       gradientUnits="userSpaceOnUse"
       xlink:href="#linearGradient3390"
       id="linearGradient3412"
       y2="15.943953"
       x2="65.340263"
       y1="45.114193"
       x1="82.453476" />
    <linearGradient
       id="linearGradient3390">
      <stop
         offset="0"
         style="stop-color:#51751e;stop-opacity:1"
         id="stop3392" />
      <stop
         offset="1"
         style="stop-color:#51751e;stop-opacity:1"
         id="stop3394" />
    </linearGradient>
    <linearGradient
       gradientTransform="matrix(0.08284024,0,0,0.03705882,-5.9408285,25.412461)"
       gradientUnits="userSpaceOnUse"
       xlink:href="#linearGradient5048-585"
       id="linearGradient7596-975"
       y2="609.50507"
       x2="302.85715"
       y1="366.64789"
       x1="302.85715" />
    <linearGradient
       id="linearGradient5048-585">
      <stop
         offset="0"
         style="stop-color:#000000;stop-opacity:0"
         id="stop2667" />
      <stop
         offset="0.5"
         style="stop-color:#000000;stop-opacity:1"
         id="stop2669" />
      <stop
         offset="1"
         style="stop-color:#000000;stop-opacity:0"
         id="stop2671" />
    </linearGradient>
    <radialGradient
       gradientTransform="matrix(0.03212956,0,0,0.03705882,24.636785,25.412461)"
       gradientUnits="userSpaceOnUse"
       xlink:href="#linearGradient5060-179"
       id="radialGradient7598-526"
       fy="486.64789"
       fx="605.71429"
       r="117.14286"
       cy="486.64789"
       cx="605.71429" />
    <linearGradient
       id="linearGradient5060-179">
      <stop
         offset="0"
         style="stop-color:#000000;stop-opacity:1"
         id="stop2675" />
      <stop
         offset="1"
         style="stop-color:#000000;stop-opacity:0"
         id="stop2677" />
    </linearGradient>
    <radialGradient
       gradientTransform="matrix(-0.03212956,0,0,0.03705882,23.363215,25.412461)"
       gradientUnits="userSpaceOnUse"
       xlink:href="#linearGradient5060-820"
       id="radialGradient7600-312"
       fy="486.64789"
       fx="605.71429"
       r="117.14286"
       cy="486.64789"
       cx="605.71429" />
    <linearGradient
       id="linearGradient5060-820">
      <stop
         offset="0"
         style="stop-color:#000000;stop-opacity:1"
         id="stop2681" />
      <stop
         offset="1"
         style="stop-color:#000000;stop-opacity:0"
         id="stop2683" />
    </linearGradient>
    <linearGradient
       gradientTransform="translate(-50.940898)"
       gradientUnits="userSpaceOnUse"
       xlink:href="#linearGradient6404"
       id="linearGradient3482"
       y2="16.19013"
       x2="62.988873"
       y1="13.182598"
       x1="62.988873" />
    <linearGradient
       id="linearGradient6404">
      <stop
         offset="0"
         style="stop-color:#f9f9f9;stop-opacity:1"
         id="stop6406" />
      <stop
         offset="1"
         style="stop-color:#c9c9c9;stop-opacity:1"
         id="stop6408" />
    </linearGradient>
    <radialGradient
       gradientTransform="matrix(-1.274898e-8,1.7142916,-2.159331,-1.4599595e-8,12.809361,2.8570011)"
       gradientUnits="userSpaceOnUse"
       xlink:href="#linearGradient3484"
       id="radialGradient3470"
       fy="5.01718"
       fx="3"
       r="21"
       cy="5.01718"
       cx="3" />
    <linearGradient
       id="linearGradient3484">
      <stop
         offset="0"
         style="stop-color:#bdbdbd;stop-opacity:1"
         id="stop3486" />
      <stop
         offset="1"
         style="stop-color:#d0d0d0;stop-opacity:1"
         id="stop3488" />
    </linearGradient>
    <linearGradient
       gradientTransform="matrix(0.2014014,0,0,0.2014015,18.110304,20.311705)"
       gradientUnits="userSpaceOnUse"
       xlink:href="#linearGradient5128"
       id="linearGradient2606"
       y2="20.895"
       x2="84.63858"
       y1="105.105"
       x1="86.132919" />
    <linearGradient
       id="linearGradient5128">
      <stop
         offset="0"
         style="stop-color:#ffffff;stop-opacity:1"
         id="stop5130" />
      <stop
         offset="1"
         style="stop-color:#959595;stop-opacity:1"
         id="stop5132" />
    </linearGradient>
    <linearGradient
       gradientUnits="userSpaceOnUse"
       xlink:href="#linearGradient3309"
       id="linearGradient3413"
       y2="47.012184"
       x2="32.036148"
       y1="19"
       x1="32.036148" />
    <linearGradient
       gradientUnits="userSpaceOnUse"
       id="linearGradient3309"
       y2="122.8994"
       x2="63.9995"
       y1="3.1001"
       x1="63.9995">
      <stop
         offset="0"
         style="stop-color:#f6f6f6;stop-opacity:1"
         id="stop3311" />
      <stop
         offset="1"
         style="stop-color:#d2d2d2;stop-opacity:1"
         id="stop3313" />
    </linearGradient>
    <linearGradient
       gradientUnits="userSpaceOnUse"
       xlink:href="#linearGradient3397"
       id="linearGradient3415"
       y2="47.044857"
       x2="25.922546"
       y1="19"
       x1="25.922546" />
    <linearGradient
       id="linearGradient3397">
      <stop
         offset="0"
         style="stop-color:#a0a0a0;stop-opacity:1"
         id="stop3399" />
      <stop
         offset="1"
         style="stop-color:#787878;stop-opacity:1"
         id="stop3401" />
    </linearGradient>
    <linearGradient
       xlink:href="#linearGradient6129-963-697-142-998-580-273-44-2-2"
       id="linearGradient5887"
       gradientUnits="userSpaceOnUse"
       gradientTransform="matrix(2.2041262,0,0,1.9531236,44.81525,2.9681362)"
       x1="22.934725"
       y1="49.629246"
       x2="22.934725"
       y2="36.599415" />
    <linearGradient
       xlink:href="#linearGradient4632-0-6-4-7"
       id="linearGradient5883"
       gradientUnits="userSpaceOnUse"
       gradientTransform="matrix(0.72580649,0,0,0.74516186,116.81336,18.325446)"
       x1="-91"
       y1="43.999817"
       x2="-91"
       y2="119.05979" />
    <linearGradient
       id="linearGradient4632-0-6-4-7">
      <stop
         style="stop-color:#55a7f3;stop-opacity:1;"
         offset="0"
         id="stop4634-4-4-7-5" />
      <stop
         style="stop-color:#1374cf;stop-opacity:1;"
         offset="1"
         id="stop4636-3-1-5-3" />
    </linearGradient>
    <linearGradient
       x1="32.891998"
       y1="8.059"
       gradientTransform="matrix(1.1538423,0,0,1.1746103,-5.728901,4.7207932)"
       x2="36.358002"
       gradientUnits="userSpaceOnUse"
       y2="5.4565001"
       id="linearGradient3225">
      <stop
         offset="0"
         style="stop-color:#6bc2e2;stop-opacity:1"
         id="stop8591" />
      <stop
         offset="1"
         style="stop-color:#3a90bb;stop-opacity:1"
         id="stop8593" />
    </linearGradient>
    <radialGradient
       cx="48"
       cy="90.171875"
       r="42"
       fx="48"
       fy="90.171875"
       id="radialGradient3619-6"
       xlink:href="#linearGradient3737"
       gradientUnits="userSpaceOnUse"
       gradientTransform="matrix(0.49599117,0,0,0.42857136,0.1924192,4.3549156)" />
    <linearGradient
       id="linearGradient3737">
      <stop
         offset="0"
         style="stop-color:#ffffff;stop-opacity:1"
         id="stop3739" />
      <stop
         offset="1"
         style="stop-color:#ffffff;stop-opacity:0"
         id="stop3741" />
    </linearGradient>
    <linearGradient
       x1="7.3709002"
       y1="51.470146"
       x2="23.76619"
       y2="51.433136"
       id="linearGradient3748"
       xlink:href="#linearGradient3742"
       gradientUnits="userSpaceOnUse"
       gradientTransform="matrix(0,-0.54642861,0.42857142,0,3.428572,46.278573)" />
    <linearGradient
       id="linearGradient3742">
      <stop
         id="stop3744"
         style="stop-color:#185185;stop-opacity:1"
         offset="0" />
      <stop
         id="stop3746"
         style="stop-color:#286699;stop-opacity:1"
         offset="1" />
    </linearGradient>
    <linearGradient
       x1="48"
       y1="90"
       x2="48"
       y2="5.9877172"
       id="linearGradient3617"
       xlink:href="#ButtonColor-7"
       gradientUnits="userSpaceOnUse"
       gradientTransform="matrix(0.42857142,0,0,0.42857142,227.50536,-101.23132)" />
    <linearGradient
       x1="10.31979"
       y1="21"
       x2="10.31979"
       y2="0.99929649"
       id="ButtonColor-7"
       gradientUnits="userSpaceOnUse">
      <stop
         id="stop3189"
         style="stop-color:#347ba6;stop-opacity:1"
         offset="0" />
      <stop
         id="stop3191"
         style="stop-color:#4fa6c9;stop-opacity:1"
         offset="1" />
    </linearGradient>
    <linearGradient
       xlink:href="#linearGradient3737"
       id="linearGradient2015"
       gradientUnits="userSpaceOnUse"
       x1="36.357143"
       y1="6"
       x2="36.357143"
       y2="63.893143"
       gradientTransform="matrix(0.4285717,0,0,0.43033246,3.42857,4.41801)" />
    <linearGradient
       xlink:href="#ButtonShadow-0"
       id="linearGradient1974"
       gradientUnits="userSpaceOnUse"
       gradientTransform="matrix(0.88966473,0,0,-0.88897608,103.82866,91.764071)"
       x1="32.251034"
       y1="6.1317081"
       x2="32.251034"
       y2="90.238609" />
    <linearGradient
       gradientTransform="matrix(1.0058652,0,0,0.994169,100,0)"
       gradientUnits="userSpaceOnUse"
       id="ButtonShadow-0"
       y2="7.0165396"
       x2="45.447727"
       y1="92.539597"
       x1="45.447727">
      <stop
         offset="0"
         style="stop-color:#000000;stop-opacity:1"
         id="stop3750-8" />
      <stop
         offset="1"
         style="stop-color:#000000;stop-opacity:0.58823532"
         id="stop3752-5-4" />
    </linearGradient>
    <linearGradient
       xlink:href="#ButtonShadow-0"
       id="linearGradient1976"
       gradientUnits="userSpaceOnUse"
       gradientTransform="matrix(0.88668581,0,0,-0.88621557,103.97166,91.631566)"
       x1="32.251034"
       y1="6.1317081"
       x2="32.251034"
       y2="90.238609" />
    <linearGradient
       xlink:href="#ButtonShadow-0"
       id="linearGradient1978"
       gradientUnits="userSpaceOnUse"
       gradientTransform="matrix(0.90932204,0,0,-0.90907903,8.9451063,90.567956)"
       x1="32.251034"
       y1="6.1317081"
       x2="32.251034"
       y2="90.238609" />
    <linearGradient
       gradientTransform="matrix(0.88394566,0,0,-0.88394572,10.163169,89.361561)"
       gradientUnits="userSpaceOnUse"
       xlink:href="#ButtonShadow-0"
       id="linearGradient3780"
       y2="90.238609"
       x2="32.251034"
       y1="6.1317081"
       x1="32.251034" />
    <linearGradient
       gradientTransform="matrix(0.83742219,0,0,-0.8374222,12.396274,87.12843)"
       gradientUnits="userSpaceOnUse"
       xlink:href="#ButtonShadow-0"
       id="linearGradient3721-0"
       y2="90.238609"
       x2="32.251034"
       y1="6.1317081"
       x1="32.251034" />
    <linearGradient
       x1="32.891998"
       y1="8.059"
       gradientTransform="matrix(1.1538423,0,0,1.1746103,-7.1476824,6.2923109)"
       x2="36.358002"
       gradientUnits="userSpaceOnUse"
       y2="5.4565001"
       id="linearGradient3225-6">
      <stop
         offset="0"
         style="stop-color:#497db8;stop-opacity:1"
         id="stop8591-7" />
      <stop
         offset="1"
         style="stop-color:#276096;stop-opacity:1"
         id="stop8593-5" />
    </linearGradient>
    <linearGradient
       gradientTransform="matrix(0.31589071,0,0,0.31589071,4.1106942,5.1106327)"
       gradientUnits="userSpaceOnUse"
       xlink:href="#linearGradient3174"
       id="linearGradient3203"
       y2="6.398416"
       x2="56.633896"
       y1="89.164001"
       x1="56.633896" />
    <linearGradient
       id="linearGradient3174">
      <stop
         offset="0"
         style="stop-color:#ff6e6e;stop-opacity:1"
         id="stop3176" />
      <stop
         offset="1"
         style="stop-color:#ff8c8c;stop-opacity:1"
         id="stop3178" />
    </linearGradient>
    <linearGradient
       xlink:href="#linearGradient3174-3"
       id="linearGradient1038"
       gradientUnits="userSpaceOnUse"
       gradientTransform="matrix(0.57374646,0,0,0.59481605,98.255656,10.931016)"
       x1="62.336792"
       y1="79.015236"
       x2="62.336792"
       y2="12.797539" />
    <linearGradient
       id="linearGradient3174-3">
      <stop
         id="stop3176-6"
         style="stop-color:#c3c3c3;stop-opacity:1"
         offset="0" />
      <stop
         id="stop3178-7"
         style="stop-color:#ffffff;stop-opacity:1"
         offset="1" />
    </linearGradient>
    <radialGradient
       id="radialGradient7057"
       gradientUnits="userSpaceOnUse"
       cy="399.14001"
       cx="416.79999"
       gradientTransform="matrix(-0.68434476,-0.11784438,0.05201977,-0.30208009,320.90908,232.38496)"
       r="20.131001">
      <stop
         id="stop9170"
         style="stop-color:#8ae234"
         offset="0" />
      <stop
         id="stop9166"
         style="stop-color:#4db07d;stop-opacity:.88235"
         offset="1" />
    </radialGradient>
    <radialGradient
       id="radialGradient7065"
       gradientUnits="userSpaceOnUse"
       cy="392.07999"
       cx="416.64999"
       gradientTransform="matrix(0.50495097,-0.55051743,0.57013949,0.52295392,-381.30372,83.382266)"
       r="27.077">
      <stop
         id="stop7210"
         style="stop-color:#fce94f"
         offset="0" />
      <stop
         id="stop8189"
         style="stop-color:#66d09a"
         offset=".5" />
      <stop
         id="stop8187"
         style="stop-color:#66c6d0"
         offset="1" />
    </radialGradient>
    <linearGradient
       id="linearGradient7067"
       y2="15.299"
       gradientUnits="userSpaceOnUse"
       x2="27.559999"
       gradientTransform="matrix(1.9275147,0,0,1.9275147,-3.1265495,6.7806552)"
       y1="21.986"
       x1="32.027">
      <stop
         id="stop7607"
         style="stop-color:#bcae3e"
         offset="0" />
      <stop
         id="stop7609"
         style="stop-color:#3b9a6a"
         offset=".5" />
      <stop
         id="stop7611"
         style="stop-color:#3d8891"
         offset="1" />
    </linearGradient>
    <linearGradient
       id="linearGradient7060"
       y2="374.92001"
       gradientUnits="userSpaceOnUse"
       x2="393.42999"
       gradientTransform="matrix(0.4428657,-0.07397026,0.07397026,0.4428657,-162.50579,-89.255584)"
       y1="311.79001"
       x1="375.63">
      <stop
         id="stop7178"
         style="stop-color:#204a87"
         offset="0" />
      <stop
         id="stop7180"
         style="stop-color:#97bcd4"
         offset="1" />
    </linearGradient>
    <linearGradient
       id="linearGradient7062"
       y2="21.767"
       gradientUnits="userSpaceOnUse"
       x2="20.403999"
       gradientTransform="matrix(1.9275147,0,0,1.9275147,-3.1265495,6.7806552)"
       y1="7.2514"
       x1="13.113">
      <stop
         id="stop7615"
         style="stop-color:#304456"
         offset="0" />
      <stop
         id="stop7617"
         style="stop-color:#6394be"
         offset="1" />
    </linearGradient>
  </defs>
  <metadata
     id="metadata18162">
    <rdf:RDF>
      <cc:Work
         rdf:about="">
        <dc:format>image/svg+xml</dc:format>
        <dc:type
           rdf:resource="http://purl.org/dc/dcmitype/StillImage" />
        <dc:title></dc:title>
      </cc:Work>
    </rdf:RDF>
  </metadata>
  <g
     transform="matrix(0.7,0,0,0.7,-0.79999983,-1.5000001)"
     id="layer1">
    <g
       transform="matrix(0.51177463,0,0,0.51177463,-2.915536,0.9813072)"
       id="layer5"
       style="display:inline">
      <path
         d="m 20.618253,86.01187 c -3.916074,0 -7.105399,-3.225978 -7.105399,-7.187076 V 15.039542 c 0,-3.961099 3.189325,-7.1870759 7.105399,-7.1870759 H 61.848275 L 91.672258,37.676449 v 41.148345 c 0,3.961098 -3.189315,7.187076 -7.1054,7.187076 z"
         id="path3770"
         style="display:inline;opacity:0.2;fill:url(#linearGradient1978);fill-opacity:1;fill-rule:nonzero;stroke:none;stroke-width:0.89326495" />
      <path
         style="display:inline;opacity:0.3;fill:url(#linearGradient3780);fill-opacity:1;fill-rule:nonzero;stroke:none;stroke-width:0.86845267"
         d="m 21.510559,84.057885 h 62.16399 c 3.34823,0 6.04372,-2.727212 6.04372,-6.114824 V 38.904982 L 60.619729,9.8064506 h -39.10917 c -3.34822,0 -6.04372,2.7272114 -6.04372,6.1148244 v 62.021786 c 0,3.387612 2.6955,6.114824 6.04372,6.114824 z"
         id="rect3723" />
    </g>
    <g
       style="opacity:1"
       transform="translate(-224.07679,105.6599)"
       id="layer1-3">
      <path
         style="fill:url(#linearGradient3617);fill-opacity:1;fill-rule:nonzero;stroke:none;stroke-width:0.42857143"
         d="m 232.64822,-98.6599 h 19.54285 l 13.88572,13.885715 v 19.542857 c 0,1.424571 -1.14685,2.571428 -2.57143,2.571428 h -30.85714 c -1.42458,0 -2.57143,-1.146857 -2.57143,-2.571428 v -30.857144 c 0,-1.424571 1.14685,-2.571428 2.57143,-2.571428 z"
         id="rect2419-1" />
    </g>
    <g
       id="g1064"
       transform="matrix(0.43478261,0,0,0.43478261,3.4409936,3.012423)">
      <path
         d="m 40.760316,57.865839 c 2.873541,3.688501 6.566272,4.256149 11.053146,4.20179 -0.307798,0.710488 -0.615576,1.420955 -0.92336,2.131441 0.859846,-1.027077 1.500823,-2.142999 2.922499,-2.000169 -0.879551,1.265614 -1.023974,2.084605 -1.356816,3.018119 1.701379,-1.535366 4.368705,-2.062465 6.520398,-2.677919 -0.572381,-0.873628 -1.442285,-1.504371 -2.01464,-2.377965 0.99566,-1.697826 1.420388,-3.998262 1.502307,-6.035822 -0.385175,1.061494 -0.950557,1.911603 -1.484659,2.659948 1.089072,-2.704668 0.262612,-4.49437 -0.662461,-6.751465 0.101073,1.068628 0.20193,2.137392 0.302888,3.206017 -0.8585,3.147622 -1.843377,3.521375 -3.739568,5.434636 -3.129512,0.777781 -7.924981,1.480266 -12.119632,-0.808406 z"
         style="display:inline;opacity:1;fill:url(#radialGradient7057);fill-rule:evenodd;stroke:#4b8748;stroke-width:1.44563639"
         id="path8191" />
      <path
         d="m 28.403018,41.208261 c 0.208058,8.363699 7.355398,13.317004 13.979878,17.168178 3.745551,1.405067 7.122171,1.020564 10.977005,0.547734 2.38144,-4.871225 1.386024,-8.902037 -0.70354,-13.716207 -1.302113,-1.878031 -1.627252,-3.830736 -1.914333,-6.030217 -1.502381,1.401288 -0.716395,3.703128 -0.751843,5.681719 C 49.091772,41.49827 47.007737,38.713022 45.18797,35.796491 43.835453,30.716132 38.81252,27.607835 34.813895,24.60265 c 6.561263,10.252247 8.120234,10.775963 5.321871,23.035711 -6.030234,2.187545 -9.87794,-0.860155 -11.732986,-6.431143 z"
         style="display:inline;opacity:1;fill:url(#radialGradient7065);fill-rule:evenodd;stroke:url(#linearGradient7067);stroke-width:1.44563639"
         id="path27337" />
      <path
         d="m 22.296653,34.517863 c 1.497253,5.700998 5.571673,10.344001 11.054876,12.554085 2.455072,0.520199 4.901476,1.02106 6.876794,0.438863 -0.467906,-3.625458 0.31808,-7.086699 0.630774,-11.051991 0.161523,-3.417862 0.336838,-6.449455 -1.672672,-9.252053 -3.093658,-4.174438 -7.100964,-5.745929 -11.763628,-5.450448 -1.135304,1.584617 -2.272541,2.908625 -3.136061,4.271377 -1.436007,2.2681 -2.544323,6.063373 -0.73824,8.509393 1.776492,1.661004 4.104258,3.416334 5.480498,3.620268 -2.087303,0.142219 -3.499978,-0.920169 -5.204092,-1.965489 -0.508904,-0.557555 -1.017786,-1.115104 -1.526689,-1.672643 z"
         style="display:inline;opacity:1;fill:url(#linearGradient7060);fill-rule:evenodd;stroke:url(#linearGradient7062);stroke-width:1.44563639"
         id="path24402" />
      <path
         d="m 66.799114,66.360404 c -3.042963,-1.249463 -10.074349,-4.724736 -12.033665,-5.947731 -1.464453,-0.914046 -2.34636,-1.132856 -3.799131,-0.942591 -1.329427,0.174188 -1.539027,0.132486 -0.704913,-0.140107 0.652892,-0.213357 1.169417,-0.493518 1.147857,-0.622572 C 51.3877,58.578394 50.092669,57.425512 48.531478,56.145514 38.41781,47.855261 30.796414,36.791333 28.660731,27.302163 28.254018,25.4932 28.113311,24.595175 28.346543,25.307189 c 3.337103,10.150105 6.970275,16.363832 13.774991,23.560021 4.015002,4.245921 10.32338,9.11097 11.168594,8.613666 0.401579,-0.2363 0.550439,-0.123393 0.455013,0.345335 -0.173556,0.85224 4.524061,3.706023 10.225657,6.211973 2.199289,0.966673 4.164394,2.039117 4.366978,2.382996 0.45928,0.780424 0.511984,0.782474 -1.538645,-0.05967 z"
         style="display:inline;opacity:1;fill:#2a6a28;stroke-width:1.9275142"
         id="path24368" />
    </g>
    <path
       d="m 23.095,7.0007336 c 3.179734,0 1.245573,14.2927244 1.245573,14.2927244 0,0 17.662844,-1.870813 17.662844,3.984542 C 42.003417,23.851681 42,20.885715 42,20.885715 L 28.11428,7 Z"
       style="opacity:0.2;fill:#000000;fill-opacity:1;fill-rule:evenodd;stroke-width:0.95571315"
       id="path4474-3-5" />
    <path
       d="M 8.57143,7 C 7.14686,7 6,8.151568 6,9.581998 v 0.860662 28.234034 c 1.98322,4.185183 0.51348,2.977317 0.42857,0.430332 v -28.09486 -0.860668 c 0,-1.197119 0.95064,-2.151664 2.14286,-2.151664 h 0.85715 17.82858 0.85715 l 13.45714,13.326778 v 0.860667 16.919747 C 40.36515,42.272174 42,42.691989 42,38.676693 V 21.756946 20.896278 L 28.11429,7 Z"
       id="rect3728-7"
       style="opacity:0.3;fill:url(#linearGradient2015);fill-opacity:1;fill-rule:nonzero;stroke:none;stroke-width:0.4294512" />
    <path
       d="M 6,39.721429 C 6,41.537756 7.146857,43 8.571429,43 H 39.428571 C 40.853143,43 42,41.537756 42,39.721429 v -6.15 H 6 Z"
       id="rect3736"
       style="color:#000000;display:inline;overflow:visible;visibility:visible;opacity:1;fill:url(#linearGradient3748);fill-opacity:1;fill-rule:nonzero;stroke:none;stroke-width:0.72588795;marker:none;enable-background:accumulate" />
    <path
       d="M 8.5714282,43 C 7.146857,43 6,41.848431 6,40.418006 V 39.418194 C 6.017537,34.185733 6.4285697,34.07415 6.4285697,38.987836 v 0.860665 c 0,1.197119 0.9506364,2.151662 2.1428585,2.151662 h 0.8571448 29.142844 0.857145 c 1.192222,0 2.142858,-0.954543 2.142858,-2.151662 V 38.987836 C 41.61349,33.154382 42,35.150526 42,39.418169 v 0.999812 C 41.99999,41.848431 40.853133,43 39.428562,43 Z"
       id="path3615-2"
       style="opacity:0.2;fill:url(#radialGradient3619-6);fill-opacity:1;fill-rule:nonzero;stroke:none;stroke-width:0.42945099" />
    <g
       id="text1540"
       style="font-style:normal;font-weight:normal;font-size:39.83179474px;line-height:1.25;font-family:sans-serif;letter-spacing:0px;word-spacing:0px;fill:#000000;fill-opacity:1;stroke:none;stroke-width:0.99579489"
       transform="matrix(1.0042229,0,0,0.9957949,-16.0339,-23.152542)"
       aria-label="DOC" />
    <path
       d="m 24.277,7 c 3.0062,0 1.165566,13.240168 1.165566,13.240168 0,0 5.861339,-0.69769 10.60943,-0.09698 3.232358,0.408943 5.948783,1.419626 5.948783,3.661816 C 42.000779,22.456522 42,20.885715 42,20.885715 L 28.11428,7 Z"
       style="opacity:0.2;fill:#000000;fill-opacity:1;fill-rule:evenodd;stroke-width:0.90355515"
       id="path4474-3" />
    <path
       d="m 25.695529,7.0086975 c 2.832447,0 1.020233,12.2306245 1.020233,12.2306245 0,0 15.288338,-1.878262 15.288338,3.337578 C 42.0041,21.306362 42,20.885715 42,20.885715 L 28.11428,7 Z"
       style="fill:url(#linearGradient3225);fill-rule:evenodd;stroke-width:0.85133129"
       id="path4474" />
    <path
       style="opacity:0.5;fill:#000000;fill-opacity:0.31372549;fill-rule:nonzero;stroke:none;stroke-width:0.55555558"
       id="rect3362"
       d="m 8.57143,7 v 9.965278 L 13.067958,7 Z m 5.503472,0 4.496529,9.965278 V 7 Z m -0.503472,3.90625 -1.684027,3.888888 h 1.626988 L 14.469252,17 h 1.79315 l -1.319444,-2.934027 -0.03472,-0.06944 z" />
  </g>
  <path
     id="rect1270"
     d="M 3.4000001,22 H 28.6 v 1 H 3.4000001 Z"
     style="opacity:0.3;fill:#000000;fill-opacity:1;stroke:none;stroke-width:0.19975244;stroke-linejoin:round;stroke-miterlimit:4;stroke-dasharray:none;stroke-dashoffset:0;stroke-opacity:1;paint-order:stroke fill markers" />
  <path
     id="rect1270-3"
     d="M 3.4000001,21 H 28.6 v 1 H 3.4000001 Z"
     style="opacity:0.1;fill:#ffffff;fill-opacity:1;stroke:none;stroke-width:0.19975244;stroke-linejoin:round;stroke-miterlimit:4;stroke-dasharray:none;stroke-dashoffset:0;stroke-opacity:1;paint-order:stroke fill markers" />
  <g
     id="text4413"
     style="font-style:normal;font-weight:normal;font-size:40px;line-height:125%;font-family:sans-serif;letter-spacing:0px;word-spacing:0px;display:inline;fill:#000000;fill-opacity:1;stroke:none;stroke-width:1px;stroke-linecap:butt;stroke-linejoin:miter;stroke-opacity:1"
     transform="matrix(0.35257155,0,0,0.35257155,-0.60539604,-4.2580481)">
    <path
       id="path5026"
       style="font-style:normal;font-variant:normal;font-weight:bold;font-stretch:normal;font-size:15px;font-family:sans-serif;-inkscape-font-specification:'sans-serif Bold';fill:#ffffff;fill-opacity:1"
       d="m 32.916428,78.928009 h 4.680175 q 2.087403,0 3.200684,0.930176 1.120605,0.922851 1.120605,2.636719 0,1.721191 -1.120605,2.651367 -1.113281,0.922851 -3.200684,0.922851 h -1.860351 v 3.793946 h -2.819824 z m 2.819824,2.043457 v 3.054199 h 1.560058 q 0.820313,0 1.26709,-0.395508 0.446778,-0.402832 0.446778,-1.135253 0,-0.732422 -0.446778,-1.12793 -0.446777,-0.395508 -1.26709,-0.395508 z" />
    <path
       id="path5028"
       style="font-style:normal;font-variant:normal;font-weight:bold;font-stretch:normal;font-size:15px;font-family:sans-serif;-inkscape-font-specification:'sans-serif Bold';fill:#ffffff;fill-opacity:1"
       d="M 51.512619,79.272247 V 81.5867 q -0.900879,-0.402832 -1.757812,-0.60791 -0.856934,-0.205078 -1.618653,-0.205078 -1.010742,0 -1.49414,0.27832 -0.483399,0.278321 -0.483399,0.864258 0,0.439453 0.322266,0.688477 0.32959,0.241699 1.186523,0.41748 l 1.201172,0.2417 q 1.823731,0.36621 2.592773,1.113281 0.769043,0.74707 0.769043,2.124023 0,1.809082 -1.07666,2.695313 -1.069336,0.878906 -3.273925,0.878906 -1.04004,0 -2.087403,-0.197754 -1.047363,-0.197754 -2.094726,-0.585937 v -2.380372 q 1.047363,0.556641 2.021484,0.842286 0.981445,0.27832 1.889648,0.27832 0.922852,0 1.413575,-0.307617 0.490722,-0.307617 0.490722,-0.878906 0,-0.512696 -0.336914,-0.791016 -0.32959,-0.27832 -1.325683,-0.498047 l -1.091309,-0.241699 q -1.640625,-0.351563 -2.402344,-1.120606 -0.754394,-0.769043 -0.754394,-2.072754 0,-1.6333 1.054687,-2.512207 1.054688,-0.878906 3.032227,-0.878906 0.900879,0 1.853027,0.13916 0.952149,0.131836 1.970215,0.402832 z" />
    <path
       id="path5030"
       style="font-style:normal;font-variant:normal;font-weight:bold;font-stretch:normal;font-size:15px;font-family:sans-serif;-inkscape-font-specification:'sans-serif Bold';fill:#ffffff;fill-opacity:1"
       d="m 57.533127,81.059357 v 6.672363 h 1.010742 q 1.728516,0 2.636719,-0.856934 0.915527,-0.856933 0.915527,-2.490234 0,-1.625977 -0.908203,-2.475586 -0.908203,-0.849609 -2.644043,-0.849609 z m -2.819824,-2.131348 h 2.973632 q 2.490235,0 3.706055,0.358887 1.223145,0.351562 2.094727,1.201172 0.769043,0.739746 1.142578,1.706543 0.373535,0.966796 0.373535,2.189941 0,1.237793 -0.373535,2.211914 -0.373535,0.966797 -1.142578,1.706543 -0.878907,0.849609 -2.109375,1.208496 -1.230469,0.351563 -3.691407,0.351563 h -2.973632 z" />
  </g>
</svg>
