<?xml version="1.0" encoding="UTF-8" standalone="no"?>
<!-- Created with Inkscape (http://www.inkscape.org/) -->

<svg
   xmlns:svg="http://www.w3.org/2000/svg"
   xmlns="http://www.w3.org/2000/svg"
   xmlns:xlink="http://www.w3.org/1999/xlink"
   version="1.0"
   width="96"
   height="96"
   id="svg2408"
   style="display:inline">
  <defs
     id="defs2410">
    <linearGradient
       x1="45.447727"
       y1="92.539597"
       x2="45.447727"
       y2="7.0165396"
       id="ButtonShadow"
       gradientUnits="userSpaceOnUse"
       gradientTransform="scale(1.0058652,0.994169)">
      <stop
         id="stop3750"
         style="stop-color:#000000;stop-opacity:1"
         offset="0" />
      <stop
         id="stop3752"
         style="stop-color:#000000;stop-opacity:0.58823532"
         offset="1" />
    </linearGradient>
    <linearGradient
       id="linearGradient3700">
      <stop
         id="stop3702"
         style="stop-color:#e6e6e6;stop-opacity:1"
         offset="0" />
      <stop
         id="stop3704"
         style="stop-color:#f5f5f5;stop-opacity:1"
         offset="1" />
    </linearGradient>
    <filter
       color-interpolation-filters="sRGB"
       id="filter3174">
      <feGaussianBlur
         id="feGaussianBlur3176"
         stdDeviation="1.71" />
    </filter>
    <linearGradient
       x1="45.447727"
       y1="92.539597"
       x2="45.447727"
       y2="7.0165396"
       id="ButtonShadow-0"
       gradientUnits="userSpaceOnUse"
       gradientTransform="matrix(1.0058652,0,0,0.994169,100,0)">
      <stop
         id="stop3750-8"
         style="stop-color:#000000;stop-opacity:1"
         offset="0" />
      <stop
         id="stop3752-5"
         style="stop-color:#000000;stop-opacity:0.58823532"
         offset="1" />
    </linearGradient>
    <linearGradient
       x1="32.251034"
       y1="6.1317081"
       x2="32.251034"
       y2="90.238609"
       id="linearGradient3780"
       xlink:href="#ButtonShadow-0"
       gradientUnits="userSpaceOnUse"
       gradientTransform="matrix(1.0238095,0,0,1.0119048,-1.1428571,-98.071429)" />
    <linearGradient
       x1="32.251034"
       y1="6.1317081"
       x2="32.251034"
       y2="90.238609"
       id="linearGradient3772"
       xlink:href="#ButtonShadow-0"
       gradientUnits="userSpaceOnUse"
       gradientTransform="matrix(1.0238095,0,0,1.0119048,-1.1428571,-98.071429)" />
    <linearGradient
       x1="32.251034"
       y1="6.1317081"
       x2="32.251034"
       y2="90.238609"
       id="linearGradient3725"
       xlink:href="#ButtonShadow-0"
       gradientUnits="userSpaceOnUse"
       gradientTransform="matrix(1.0238095,0,0,1.0119048,-1.1428571,-98.071429)" />
    <linearGradient
       x1="32.251034"
       y1="6.1317081"
       x2="32.251034"
       y2="90.238609"
       id="linearGradient3721"
       xlink:href="#ButtonShadow-0"
       gradientUnits="userSpaceOnUse"
       gradientTransform="translate(0,-97)" />
    <linearGradient
       x1="32.251034"
       y1="6.1317081"
       x2="32.251034"
       y2="90.238609"
       id="linearGradient3760"
       xlink:href="#ButtonShadow-0"
       gradientUnits="userSpaceOnUse"
       gradientTransform="matrix(1.0238095,0,0,1.0119048,-1.1428571,-98.071429)" />
    <linearGradient
       id="linearGradient3737-1">
      <stop
         id="stop3739-9"
         style="stop-color:#ffffff;stop-opacity:1"
         offset="0" />
      <stop
         id="stop3741-3"
         style="stop-color:#ffffff;stop-opacity:0"
         offset="1" />
    </linearGradient>
    <radialGradient
       cx="48"
       cy="90.171875"
       r="42"
       fx="48"
       fy="90.171875"
       id="radialGradient2886"
       xlink:href="#linearGradient3737-0"
       gradientUnits="userSpaceOnUse"
       gradientTransform="matrix(1.1573129,0,0,0.99590774,-7.551021,0.1971319)" />
    <linearGradient
       id="linearGradient3737-0">
      <stop
         id="stop3739-6"
         style="stop-color:#ffffff;stop-opacity:1"
         offset="0" />
      <stop
         id="stop3741-0"
         style="stop-color:#ffffff;stop-opacity:0"
         offset="1" />
    </linearGradient>
    <linearGradient
       id="linearGradient3317">
      <stop
         id="stop3319"
         style="stop-color:#6ab300;stop-opacity:1"
         offset="0" />
      <stop
         id="stop3321"
         style="stop-color:#9dcf00;stop-opacity:1"
         offset="1" />
    </linearGradient>
    <linearGradient
       x1="80"
       y1="48"
       x2="80"
       y2="8"
       id="linearGradient4011"
       xlink:href="#linearGradient3317"
       gradientUnits="userSpaceOnUse" />
    <linearGradient
       x1="64"
       y1="88"
       x2="64"
       y2="40"
       id="linearGradient4019"
       xlink:href="#linearGradient3700"
       gradientUnits="userSpaceOnUse" />
    <linearGradient
       x1="24"
       y1="88"
       x2="24"
       y2="40"
       id="linearGradient4084"
       xlink:href="#linearGradient3700"
       gradientUnits="userSpaceOnUse" />
    <linearGradient
       id="linearGradient3929-4">
      <stop
         id="stop3931-4"
         style="stop-color:#000000;stop-opacity:1"
         offset="0" />
      <stop
         id="stop3933-1"
         style="stop-color:#000000;stop-opacity:0.58823532"
         offset="1" />
    </linearGradient>
    <radialGradient
       cx="49.809036"
       cy="48.003178"
       r="39.062233"
       fx="49.809036"
       fy="48.003178"
       id="radialGradient4128"
       xlink:href="#linearGradient3929-4"
       gradientUnits="userSpaceOnUse"
       gradientTransform="matrix(0.72056804,0,0,0.70331597,1.867718,2.5695198)" />
    <linearGradient
       x1="32"
       y1="72"
       x2="32"
       y2="7.6009951"
       id="linearGradient4162"
       xlink:href="#linearGradient3700"
       gradientUnits="userSpaceOnUse" />
    <linearGradient
       x1="36.357143"
       y1="6"
       x2="36.357143"
       y2="63.893143"
       id="linearGradient3722"
       xlink:href="#linearGradient3737-1"
       gradientUnits="userSpaceOnUse" />
    <linearGradient
       x1="36.357143"
       y1="6"
       x2="36.357143"
       y2="63.893143"
       id="linearGradient3729"
       xlink:href="#linearGradient3737-1"
       gradientUnits="userSpaceOnUse" />
  </defs>
  <g
     id="layer2"
     style="display:none">
    <rect
       width="86"
       height="85"
       rx="6"
       ry="6"
       x="5"
       y="7"
       id="rect3745"
       style="opacity:0.9;fill:url(#ButtonShadow);fill-opacity:1;fill-rule:nonzero;stroke:none;filter:url(#filter3174)" />
  </g>
  <g
     id="layer6"
     style="display:inline">
    <path
       d="m 12,-95.03125 c -5.5110903,0 -10.03125,4.52016 -10.03125,10.03125 l 0,71 c 0,5.5110902 4.5201598,10.03125 10.03125,10.03125 l 72,0 c 5.51109,0 10.03125,-4.5201597 10.03125,-10.03125 l 0,-71 c 0,-5.51109 -4.52016,-10.03125 -10.03125,-10.03125 l -72,0 z"
       transform="scale(1,-1)"
       id="path3786"
       style="opacity:0.07999998;fill:url(#linearGradient3760);fill-opacity:1;fill-rule:nonzero;stroke:none;display:inline" />
    <path
       d="m 12,-94.03125 c -4.971633,0 -9.03125,4.059617 -9.03125,9.03125 l 0,71 c 0,4.9716329 4.0596171,9.03125 9.03125,9.03125 l 72,0 c 4.971633,0 9.03125,-4.059617 9.03125,-9.03125 l 0,-71 c 0,-4.971633 -4.059617,-9.03125 -9.03125,-9.03125 l -72,0 z"
       transform="scale(1,-1)"
       id="path3778"
       style="opacity:0.1;fill:url(#linearGradient3780);fill-opacity:1;fill-rule:nonzero;stroke:none;display:inline" />
    <path
       d="m 12,-93 c -4.4091333,0 -8,3.590867 -8,8 l 0,71 c 0,4.4091333 3.5908667,8 8,8 l 72,0 c 4.409133,0 8,-3.5908667 8,-8 l 0,-71 c 0,-4.409133 -3.590867,-8 -8,-8 l -72,0 z"
       transform="scale(1,-1)"
       id="path3770"
       style="opacity:0.2;fill:url(#linearGradient3772);fill-opacity:1;fill-rule:nonzero;stroke:none;display:inline" />
    <rect
       width="86"
       height="85"
       rx="7"
       ry="7"
       x="5"
       y="-92"
       transform="scale(1,-1)"
       id="rect3723"
       style="opacity:0.3;fill:url(#linearGradient3725);fill-opacity:1;fill-rule:nonzero;stroke:none;display:inline" />
    <rect
       width="84"
       height="84"
       rx="6"
       ry="6"
       x="6"
       y="-91"
       transform="scale(1,-1)"
       id="rect3716"
       style="opacity:0.45;fill:url(#linearGradient3721);fill-opacity:1;fill-rule:nonzero;stroke:none;display:inline" />
  </g>
  <g
     id="layer1"
     style="display:inline">
    <rect
       width="84"
       height="84"
       rx="6"
       ry="6"
       x="-94"
       y="6"
       id="rect3654"
       style="fill:#ff00ff;fill-opacity:1;fill-rule:nonzero;stroke:none" />
    <rect
       width="16"
       height="16"
       x="112"
       y="8"
       id="rect3797"
       style="color:#000000;fill:#ffffff;stroke:#000000;stroke-width:0.5;stroke-linecap:round;stroke-linejoin:miter;stroke-miterlimit:4;stroke-opacity:1;stroke-dasharray:none;stroke-dashoffset:8.6;marker:none;visibility:visible;display:inline;overflow:visible;enable-background:accumulate" />
    <text
       x="131.39261"
       y="11.969256"
       id="text3799"
       xml:space="preserve"
       style="font-size:4px;font-style:normal;font-variant:normal;font-weight:normal;font-stretch:normal;text-align:start;line-height:125%;writing-mode:lr-tb;text-anchor:start;fill:#000000;fill-opacity:1;stroke:none;display:inline;font-family:Liberation Sans;-inkscape-font-specification:Liberation Sans"><tspan
         x="131.39261"
         y="11.969256"
         id="tspan3801">Width: 2px</tspan><tspan
         x="131.39261"
         y="16.969257"
         id="tspan3803">Blur: 12</tspan><tspan
         x="131.39261"
         y="21.969257"
         id="tspan3807">Opacity: 60</tspan></text>
    <path
       d="m -28.40625,123.96875 c -0.20819,0.003 -0.424193,0.0126 -0.65625,0.0312 -11.210257,0.90452 -0.795533,7.17324 -2.71875,13.46875 -1.844987,3.24896 -10.364762,-0.36983 -20.75,1.53125 -0.473746,-2.99999 -0.396164,-2.9207 -0.75,-5.3125 -0.06785,-0.0905 -0.153803,-0.18866 -0.21875,-0.28125 1.081369,5.91235 2.044213,12.2299 1.78125,18.1875 -0.471291,10.67738 6.964475,-2.19869 12.0625,1.375 5.749685,4.0305 1.767674,13.91859 -5.75,9.4375 -12.120657,-7.22482 -10.862542,7.74143 -10.65625,15.3125 0.02361,0.86681 -0.08473,1.62157 -0.28125,2.28125 L -24,180 l 7.46875,0 0.53125,0 c 3.324,0 6,-2.676 6,-6 l 0,-0.53125 0,-5.46875 0,-30.78125 c -0.784444,0.16808 -1.675604,0.29954 -2.75,0.3125 -4.049843,0.0489 -13.945958,4.30552 -13.9375,-2.21875 0.0051,-3.92784 4.735201,-11.42366 -1.71875,-11.34375 z"
       id="path3270"
       style="fill:#cccccc;fill-opacity:1;fill-rule:evenodd;stroke:none" />
    <path
       d="m -55.4375,96 c -0.794474,5.56261 -0.247018,13.7956 3.9375,14.0625 4.366074,0.27848 9.714766,-4.47726 11.9375,0.90625 1.888689,4.57446 -0.180223,8.40684 -5.96875,7.9375 -3.715262,-0.30124 -9.251697,-7.1751 -9.53125,1.71875 -0.132293,4.20892 0.749178,7.93779 1.4375,12.5625 0.114718,0.15755 0.226918,0.34422 0.34375,0.5 0.353836,2.3918 0.276254,2.31251 0.75,5.3125 10.385238,-1.90108 18.905013,1.71771 20.75,-1.53125 1.923217,-6.29551 -8.491507,-12.56423 2.71875,-13.46875 7.42581,-0.59916 2.380257,7.25796 2.375,11.3125 -0.0085,6.52427 9.887657,2.2676 13.9375,2.21875 1.074396,-0.013 1.965556,-0.14442 2.75,-0.3125 L -10,112 -10,102.53125 -10,102 c 0,-3.324 -2.676,-6 -6,-6 L -16.53125,96 -24,96 -55.4375,96 z"
       id="path3260"
       style="fill:#999999;fill-opacity:1;fill-rule:evenodd;stroke:none" />
    <path
       d="m -54.25,129.4375 c 0.217003,1.29506 0.448423,2.63346 0.65625,4.0625 -4.090735,-0.34231 -9.343021,-1.88248 -12.84375,-0.5625 -4.591331,1.73121 -2.470381,7.36527 -2.21875,11.34375 0.338816,5.35697 -4.255519,6.0483 -8.71875,5.21875 -5.836093,-1.08473 -2.521863,-4.99629 -0.03125,-8.625 2.108683,-3.07225 0.157587,-7.1982 -5.03125,-7.9375 -3.80157,-0.54164 -7.75642,0.0766 -11.5625,-0.6875 l 0,35.75 0,5.46875 0,0.53125 c 0,3.324 2.676,6 6,6 l 0.53125,0 7.15625,0 23.9375,0 c 0.201028,-0.66427 0.336324,-1.407 0.3125,-2.28125 -0.206292,-7.57107 -1.464407,-22.53732 10.65625,-15.3125 7.517674,4.48109 11.499685,-5.407 5.75,-9.4375 -5.098025,-3.57369 -12.533791,9.30238 -12.0625,-1.375 0.322582,-7.30828 -1.218011,-15.18467 -2.53125,-22.15625 z"
       id="path3265"
       style="fill:#333333;fill-opacity:1;fill-rule:evenodd;stroke:none" />
    <path
       d="m -88,96 c -3.324,0 -6,2.676 -6,6 l 0,0.53125 0,9.46875 0,20.25 c 3.80569,0.76339 7.76093,0.14586 11.5625,0.6875 5.188837,0.7393 7.139933,4.86525 5.03125,7.9375 -2.490614,3.62871 -5.804844,7.54027 0.03125,8.625 4.463231,0.82955 9.057566,0.13822 8.71875,-5.21875 -0.251631,-3.97848 -2.372581,-9.61254 2.21875,-11.34375 3.500729,-1.31998 8.753015,0.22019 12.84375,0.5625 -0.693297,-4.76719 -1.603954,-8.57357 -1.46875,-12.875 0.279553,-8.89385 5.815988,-2.01999 9.53125,-1.71875 5.788527,0.46934 7.857439,-3.36304 5.96875,-7.9375 -2.222734,-5.38351 -7.571426,-0.62777 -11.9375,-0.90625 -4.184192,-0.26688 -4.763253,-8.50026 -3.96875,-14.0625 L -80.3125,96 -87.46875,96 -88,96 z"
       id="path2481"
       style="fill:#666666;fill-opacity:1;fill-rule:evenodd;stroke:none" />
    <path
       d="m 71.59375,33.96875 c -0.20819,0.003 -0.424193,0.0126 -0.65625,0.0312 -11.210257,0.90452 -0.795533,7.17324 -2.71875,13.46875 -1.844987,3.24896 -10.364762,-0.36983 -20.75,1.53125 -0.473746,-2.99999 -0.396164,-2.9207 -0.75,-5.3125 C 46.6509,43.59695 46.564947,43.49879 46.5,43.4062 c 1.081369,5.91235 2.044213,12.2299 1.78125,18.1875 -0.471291,10.67738 6.964475,-2.19869 12.0625,1.375 5.749685,4.0305 1.767674,13.91859 -5.75,9.4375 -12.120657,-7.22482 -10.862542,7.74143 -10.65625,15.3125 0.02361,0.86681 -0.08473,1.62157 -0.28125,2.28125 L 76,90 83.46875,90 84,90 c 3.324,0 6,-2.676 6,-6 L 90,83.46875 90,78 90,47.21875 c -0.78444,0.16808 -1.6756,0.29954 -2.75,0.3125 -4.04984,0.0489 -13.945958,4.30552 -13.9375,-2.21875 0.0051,-3.92784 4.735201,-11.42366 -1.71875,-11.34375 z"
       id="path3965"
       style="fill:url(#linearGradient4019);fill-opacity:1;fill-rule:evenodd;stroke:none" />
    <path
       d="m 44.5625,6 c -0.794474,5.56261 -0.247018,13.7956 3.9375,14.0625 4.366074,0.27848 9.714766,-4.47726 11.9375,0.90625 1.888689,4.57446 -0.180223,8.40684 -5.96875,7.9375 -3.715262,-0.30124 -9.251697,-7.1751 -9.53125,1.71875 -0.132293,4.20892 0.749178,7.93779 1.4375,12.5625 0.114718,0.15755 0.226918,0.34422 0.34375,0.5 0.353836,2.3918 0.276254,2.31251 0.75,5.3125 10.385238,-1.90108 18.905013,1.71771 20.75,-1.53125 C 70.141967,41.17324 59.727243,34.90452 70.9375,34 c 7.42581,-0.59916 2.380257,7.25796 2.375,11.3125 -0.0085,6.52427 9.88766,2.2676 13.9375,2.21875 1.0744,-0.013 1.96556,-0.14442 2.75,-0.3125 L 90,22 90,12.53125 90,12 C 90,8.676 87.324,6 84,6 L 83.46875,6 76,6 44.5625,6 z"
       id="path3967"
       style="fill:url(#linearGradient4011);fill-opacity:1;fill-rule:evenodd;stroke:none" />
    <path
       d="m 45.75,39.4375 c 0.217003,1.29506 0.448423,2.63346 0.65625,4.0625 C 42.315515,43.15769 37.063229,41.61752 33.5625,42.9375 28.971169,44.66871 31.092119,50.30277 31.34375,54.28125 31.682566,59.63822 27.088231,60.32955 22.625,59.5 16.788907,58.41527 20.103137,54.50371 22.59375,50.875 24.702433,47.80275 22.751337,43.6768 17.5625,42.9375 13.76093,42.39586 9.80608,43.0141 6,42.25 L 6,78 6,83.46875 6,84 c 0,3.324 2.676,6 6,6 l 0.53125,0 7.15625,0 23.9375,0 c 0.201028,-0.66427 0.336324,-1.407 0.3125,-2.28125 -0.206292,-7.57107 -1.464407,-22.53732 10.65625,-15.3125 7.517674,4.48109 11.499685,-5.407 5.75,-9.4375 -5.098025,-3.57369 -12.533791,9.30238 -12.0625,-1.375 C 48.603832,54.28547 47.063239,46.40908 45.75,39.4375 z"
       id="path3969"
       style="fill:url(#linearGradient4084);fill-opacity:1;fill-rule:evenodd;stroke:none" />
    <path
       d="M 12,6 C 8.676,6 6,8.676 6,12 L 6,12.53125 6,22 6,42.25 c 3.80569,0.76339 7.76093,0.14586 11.5625,0.6875 5.188837,0.7393 7.139933,4.86525 5.03125,7.9375 -2.490614,3.62871 -5.804844,7.54027 0.03125,8.625 4.463231,0.82955 9.057566,0.13822 8.71875,-5.21875 -0.251631,-3.97848 -2.372581,-9.61254 2.21875,-11.34375 3.500729,-1.31998 8.753015,0.22019 12.84375,0.5625 -0.693297,-4.76719 -1.603954,-8.57357 -1.46875,-12.875 0.279553,-8.89385 5.815988,-2.01999 9.53125,-1.71875 5.788527,0.46934 7.857439,-3.36304 5.96875,-7.9375 C 58.214766,15.58524 52.866074,20.34098 48.5,20.0625 44.315808,19.79562 43.736747,11.56224 44.53125,6 L 19.6875,6 12.53125,6 12,6 z"
       id="path3971"
       style="fill:url(#linearGradient4162);fill-opacity:1;fill-rule:evenodd;stroke:none" />
    <path
       d="m 43.53125,5.999999 c -0.410066,2.8697666 -0.473884,6.396702 0.125,9.340275 0.299443,1.471787 0.749874,2.80691 1.5,3.873559 0.750126,1.06665 1.90995,1.849347 3.28125,1.93678 2.566659,0.163649 5.016202,-1.026896 7,-1.468204 0.991899,-0.220654 1.812432,-0.274483 2.40625,-0.06248 0.593817,0.212007 1.08491,0.624281 1.5625,1.780588 0.851081,2.060571 0.754326,3.769475 0,4.873187 -0.754326,1.10371 -2.259102,1.838952 -4.90625,1.624395 -0.633429,-0.05135 -1.578281,-0.43766 -2.59375,-0.968389 -1.01547,-0.530729 -2.095128,-1.158148 -3.1875,-1.530681 C 48.172564,25.212763 47.59965,25.110182 47,25.149122 c -0.59965,0.03895 -1.208222,0.252135 -1.6875,0.718483 -0.958556,0.932694 -1.333248,2.426528 -1.40625,4.748233 -0.125242,3.983098 0.632558,7.5608 1.28125,11.620677 -1.666149,-0.211252 -3.398914,-0.471806 -5.25,-0.687244 -2.311853,-0.269064 -4.634032,-0.356116 -6.65625,0.406099 -1.337704,0.504207 -2.324646,1.336245 -2.875,2.374117 -0.550354,1.037871 -0.712257,2.219295 -0.71875,3.373744 -0.01299,2.3089 0.60303,4.731119 0.71875,6.56006 0.150107,2.372438 -0.607974,3.317026 -1.9375,3.904797 -1.329527,0.587772 -3.452581,0.610681 -5.5625,0.218669 -1.32674,-0.246502 -1.950438,-0.679616 -2.1875,-0.96839 -0.237063,-0.288773 -0.278471,-0.53401 -0.125,-1.124581 0.306942,-1.181144 1.707334,-3.067282 2.96875,-4.904426 1.252465,-1.824104 1.299021,-4.118019 0.25,-5.935292 C 22.76348,43.636799 20.670283,42.295467 17.84375,41.892896 13.854545,41.324729 9.922969,41.917079 6.375,41.205652 L 6,43.236146 c 4.025873,0.807253 7.98605,0.146628 11.5625,0.656006 2.336725,0.33281 3.784544,1.407498 4.46875,2.592786 0.684207,1.185287 0.689569,2.516743 -0.15625,3.748605 -1.216919,1.772337 -2.747212,3.594413 -3.25,5.529193 -0.251393,0.967389 -0.171807,2.111233 0.53125,2.967646 0.703057,0.856413 1.829328,1.362649 3.40625,1.655634 2.331308,0.433145 4.739628,0.531329 6.71875,-0.343622 1.979121,-0.874951 3.34329,-2.979149 3.15625,-5.935292 -0.13467,-2.128451 -0.698306,-4.48277 -0.6875,-6.403868 0.0054,-0.960548 0.137901,-1.781434 0.46875,-2.405355 0.330848,-0.623922 0.803356,-1.080156 1.75,-1.436965 1.46125,-0.550773 3.492818,-0.536573 5.6875,-0.281146 1.962667,0.228424 4.031185,0.604959 5.96875,0.812198 0.746513,4.463064 1.646984,11.545365 1.625,17.024917 -7.8e-5,0.01953 1.02e-4,0.04298 0,0.06248 -0.0554,1.342298 0.01543,2.399348 0.21875,3.217553 0.207327,0.834332 0.610155,1.527681 1.3125,1.874303 0.702346,0.346622 1.433821,0.243924 2.0625,0.03124 0.628679,-0.212681 1.247459,-0.567438 1.875,-0.937151 1.255084,-0.739426 2.604932,-1.61997 3.84375,-2.092971 1.238818,-0.473002 2.218879,-0.563131 3.15625,0.09371 2.448838,1.715984 2.743505,4.627636 1.75,6.591298 -0.496752,0.981831 -1.312055,1.691685 -2.34375,1.968018 -1.031696,0.276332 -2.368127,0.134922 -4.0625,-0.874675 -3.141395,-1.871809 -5.63397,-2.445274 -7.625,-1.811826 -1.991029,0.633448 -3.145031,2.42107 -3.78125,4.467088 -1.272438,4.092036 -0.8516,9.705057 -0.75,13.432503 0.02096,0.768803 -0.05763,1.458611 -0.21875,1.999256 L 44.625,90 c 0.229977,-0.771728 0.369798,-1.637145 0.34375,-2.592785 -0.103673,-3.803499 -0.441583,-9.346469 0.625,-12.776497 0.533293,-1.715014 1.339646,-2.785909 2.5,-3.155076 1.160354,-0.369168 3.017192,-0.09706 5.90625,1.624395 2.045935,1.219077 4.016048,1.501421 5.65625,1.062105 1.640202,-0.439316 2.906155,-1.546847 3.625,-2.967646 1.437691,-2.841595 0.835003,-6.890928 -2.4375,-9.184083 -1.599073,-1.120526 -3.470842,-0.939412 -5.03125,-0.343622 -1.560408,0.595789 -2.955084,1.559913 -4.125,2.249163 -0.584958,0.344625 -1.097925,0.624271 -1.46875,0.749721 -0.370824,0.125449 -0.495465,0.09596 -0.5,0.09371 -0.0045,-0.0022 -0.153944,-0.08123 -0.28125,-0.593529 -0.127305,-0.512302 -0.212466,-1.382107 -0.15625,-2.655258 l 0,-0.03124 c 0.01934,-3.701005 -0.367658,-7.779043 -0.84375,-11.589437 4.692277,-0.735203 9.007853,-0.437721 12.46875,-0.18743 1.828885,0.132263 3.415718,0.225661 4.78125,0.06248 1.365533,-0.163186 2.646867,-0.671339 3.3125,-1.843064 l 0.0625,-0.124953 0.03125,-0.09372 c 1.134821,-3.713368 -1.276031,-7.112605 -2.15625,-9.371513 -0.220055,-0.564727 -0.324474,-1.029751 -0.34375,-1.374489 -0.01928,-0.344738 0.03633,-0.554177 0.1875,-0.749721 0.302343,-0.391087 1.411975,-0.970756 4.09375,-1.187058 0.184199,-0.01487 0.413513,0.0027 0.625,0 1.409982,-0.01745 1.820675,0.29366 2.0625,0.687244 0.241825,0.393584 0.329859,1.179524 0.15625,2.249163 -0.347217,2.139277 -1.590729,4.946202 -1.59375,7.309781 -0.0024,1.87993 0.867892,3.294036 2.15625,3.967274 1.288357,0.673236 2.804699,0.727867 4.375,0.593529 3.140601,-0.268675 6.70719,-1.32314 8.375,-1.34325 C 88.165015,48.470524 89.154538,48.352898 90,48.17181 l -0.4375,-1.999256 c -0.715692,0.153293 -1.558066,0.269033 -2.5625,0.281145 -2.362068,0.02848 -5.710499,1.104611 -8.5,1.343251 -1.394751,0.119318 -2.599265,0.01274 -3.28125,-0.343623 -0.681986,-0.356374 -1.064269,-0.821771 -1.0625,-2.186686 0.0019,-1.543439 1.149847,-4.42372 1.5625,-6.966159 0.206326,-1.271219 0.271436,-2.583161 -0.40625,-3.686128 -0.677686,-1.102967 -2.042665,-1.677926 -3.84375,-1.655634 -0.202838,0.0024 -0.472372,0.0089 -0.75,0.03124 -2.895719,0.233559 -4.611435,0.769031 -5.5625,1.999256 -0.475533,0.615113 -0.632674,1.365595 -0.59375,2.061733 0.03893,0.696138 0.241026,1.36589 0.5,2.030495 1.014811,2.60431 2.7228,5.363608 2.0625,7.872071 -0.261098,0.403267 -0.678091,0.660332 -1.6875,0.78096 -1.063534,0.127095 -2.594182,0.03733 -4.40625,-0.09371 -3.378173,-0.244308 -7.819517,-0.548373 -12.71875,0.18743 -0.270746,-1.548757 -0.405582,-2.03109 -0.6875,-3.936036 l -0.03125,0 c -0.0014,-0.0086 0.0014,-0.02271 0,-0.03124 L 47.5,43.892159 47.40625,43.329868 c -0.69755,-4.794646 -1.598054,-8.539297 -1.46875,-12.65155 0.06608,-2.101647 0.509659,-3.078243 0.78125,-3.342506 0.135795,-0.132132 0.232275,-0.174104 0.4375,-0.187431 0.205225,-0.01333 0.51307,0.05334 0.90625,0.187431 0.78636,0.268172 1.805628,0.846826 2.875,1.405727 1.069373,0.558901 2.191206,1.119815 3.40625,1.218296 3.112839,0.252303 5.502135,-0.704463 6.75,-2.530308 1.247865,-1.825846 1.24705,-4.289085 0.21875,-6.778728 C 60.684203,19.129615 59.695207,18.129952 58.53125,17.714391 57.367293,17.298831 56.160903,17.424902 55,17.683151 52.678194,18.19965 50.340393,19.233473 48.5625,19.120116 47.852018,19.074816 47.346351,18.741452 46.84375,18.026773 46.341149,17.312094 45.920338,16.20095 45.65625,14.902935 45.128075,12.306907 45.181979,8.9753837 45.5625,6.3123828 L 43.53125,5.999999 z"
       id="path3335"
       style="font-size:medium;font-style:normal;font-variant:normal;font-weight:normal;font-stretch:normal;text-indent:0;text-align:start;text-decoration:none;line-height:normal;letter-spacing:normal;word-spacing:normal;text-transform:none;direction:ltr;block-progression:tb;writing-mode:lr-tb;text-anchor:start;opacity:0.3;color:#000000;fill:url(#radialGradient4128);fill-opacity:1;stroke:none;stroke-width:2;marker:none;visibility:visible;display:inline;overflow:visible;enable-background:accumulate;font-family:Abandoned Bitplane;-inkscape-font-specification:Abandoned Bitplane" />
    <path
       d="m 71.59375,34.96875 c -0.187322,0.0027 -0.352186,0.01439 -0.5625,0.03125 -2.698194,0.217709 -3.875243,0.815733 -4.1875,1.21875 -0.156129,0.201508 -0.206967,0.368917 -0.1875,0.71875 0.0073,0.131187 0.05565,0.301681 0.09375,0.46875 0.02883,-0.06016 0.04691,-0.127048 0.09375,-0.1875 0.312257,-0.403017 1.489306,-1.001041 4.1875,-1.21875 0.210314,-0.01686 0.375178,-0.02855 0.5625,-0.03125 1.422021,-0.01761 1.905373,0.31174 2.15625,0.71875 0.101798,0.165152 0.153967,0.401437 0.1875,0.6875 0.06944,-0.772675 0.01385,-1.360848 -0.1875,-1.6875 -0.250877,-0.40701 -0.734229,-0.736357 -2.15625,-0.71875 z M 72.34375,46 c -0.0045,0.103711 -0.03112,0.210414 -0.03125,0.3125 -0.0024,1.883007 0.869828,3.327251 2.15625,4 1.286422,0.672749 2.799513,0.69721 4.375,0.5625 3.150974,-0.269421 6.720801,-1.323399 8.40625,-1.34375 0.676678,-0.0082 1.190294,-0.109095 1.75,-0.1875 l 0,-1 c -0.559706,0.0784 -1.073322,0.179338 -1.75,0.1875 -1.685449,0.02035 -5.255276,1.074329 -8.40625,1.34375 -1.575487,0.13471 -3.088578,0.110249 -4.375,-0.5625 C 73.343131,48.723845 72.52666,47.547103 72.34375,46 z m -2.875,0.375 c -0.04116,0.453632 -0.139305,0.910353 -0.28125,1.375 a 0.99724394,0.99724394 0 0 1 -0.09375,0.21875 c -0.663223,1.167914 -1.944429,1.678602 -3.3125,1.84375 -1.368071,0.165148 -2.974813,0.06856 -4.8125,-0.0625 -3.45878,-0.246682 -7.778659,-0.567904 -12.46875,0.15625 0.04481,0.322597 0.08228,0.645864 0.125,0.96875 4.640879,-0.698897 8.916327,-0.369446 12.34375,-0.125 1.837687,0.131065 3.444429,0.227648 4.8125,0.0625 1.368071,-0.165148 2.649277,-0.675836 3.3125,-1.84375 A 0.99724394,0.99724394 0 0 0 69.1875,48.75 c 0.246798,-0.807877 0.317067,-1.604115 0.28125,-2.375 z M 49.3125,60.15625 c -0.0041,0.485617 -0.0099,0.985069 -0.03125,1.46875 -0.01707,0.386833 -0.0059,0.680347 0,1 0.0362,-0.820155 0.04288,-1.643392 0.03125,-2.46875 z m 14.75,8.5 c -0.0646,0.932015 -0.3111,1.846749 -0.71875,2.65625 -0.71657,1.422947 -1.986244,2.591406 -3.625,3.03125 -1.638756,0.439844 -3.573784,0.128927 -5.625,-1.09375 -2.906623,-1.732565 -4.823107,-2.000668 -6,-1.625 -1.176893,0.375668 -1.962836,1.456873 -2.5,3.1875 -0.600642,1.935138 -0.769213,4.539654 -0.78125,7.125 0.04958,-2.242625 0.258716,-4.44151 0.78125,-6.125 0.537164,-1.730627 1.323107,-2.811832 2.5,-3.1875 1.176893,-0.375668 3.093377,-0.107565 6,1.625 2.051216,1.222677 3.986244,1.533594 5.625,1.09375 1.638756,-0.439844 2.90843,-1.608303 3.625,-3.03125 0.555164,-1.102432 0.809995,-2.37112 0.71875,-3.65625 z M 44.90625,87.9375 C 44.8845,88.310821 44.82776,88.642924 44.78125,89 l 0.125,0 c 0.0079,-0.102413 0.03428,-0.201384 0.03125,-0.3125 -0.0063,-0.22945 -0.02383,-0.508654 -0.03125,-0.75 z"
       id="path4132"
       style="fill:#ffffff;fill-opacity:1;fill-rule:evenodd;stroke:none" />
    <path
       d="m 7.03125,43.375 0,1 c 3.6111,0.484459 7.15717,0.13528 10.375,0.59375 2.344507,0.334043 3.814053,1.408635 4.5,2.59375 0.234145,0.404534 0.368947,0.82584 0.4375,1.25 0.125657,-0.765575 -0.02002,-1.52871 -0.4375,-2.25 -0.685947,-1.185115 -2.155493,-2.259707 -4.5,-2.59375 -3.21783,-0.45847 -6.7639,-0.109291 -10.375,-0.59375 z m 29.5,0.09375 c -0.971403,0.03328 -1.861637,0.161451 -2.59375,0.4375 -0.948483,0.357635 -1.450793,0.846606 -1.78125,1.46875 -0.330457,0.622144 -0.46321,1.444468 -0.46875,2.40625 -5.67e-4,0.09837 0.02895,0.211874 0.03125,0.3125 0.05516,-0.666193 0.189657,-1.252142 0.4375,-1.71875 0.330457,-0.622144 0.832767,-1.111115 1.78125,-1.46875 1.464226,-0.552099 3.516703,-0.537117 5.71875,-0.28125 1.944149,0.2259 3.950467,0.599894 5.875,0.8125 0.868819,4.844761 1.683804,9.862478 1.75,14.6875 0.04461,-5.130157 -0.820834,-10.506225 -1.75,-15.6875 -1.924533,-0.212606 -3.930851,-0.5866 -5.875,-0.8125 -1.101023,-0.127933 -2.153597,-0.189534 -3.125,-0.15625 z M 32.375,55.28125 c -0.159344,2.403753 -1.410177,4.099865 -3.15625,4.875 -1.995512,0.885868 -4.435362,0.811014 -6.78125,0.375 C 20.850449,60.236271 19.709351,59.742268 19,58.875 c -0.348013,-0.425488 -0.545889,-0.928148 -0.625,-1.4375 -0.09762,0.834538 0.04865,1.732845 0.625,2.4375 0.709351,0.867268 1.850449,1.361271 3.4375,1.65625 2.345888,0.436014 4.785738,0.510868 6.78125,-0.375 1.980839,-0.879354 3.320784,-2.932702 3.15625,-5.875 z m 25.9375,8.0625 c -0.508937,-7.67e-4 -1.066354,0.137542 -1.6875,0.375 -1.242293,0.474916 -2.612894,1.380546 -3.875,2.125 -0.631053,0.372227 -1.241033,0.691328 -1.875,0.90625 -0.633967,0.214922 -1.381616,0.351027 -2.09375,0 -0.712134,-0.351027 -1.134642,-1.096022 -1.34375,-1.9375 -0.104554,-0.420739 -0.159092,-0.872729 -0.1875,-1.40625 -0.0089,0.948765 0.02624,1.757314 0.1875,2.40625 0.209108,0.841478 0.631616,1.586473 1.34375,1.9375 0.712134,0.351027 1.459783,0.214922 2.09375,0 0.633967,-0.214922 1.243947,-0.534023 1.875,-0.90625 1.262106,-0.744454 2.632707,-1.650084 3.875,-2.125 1.242293,-0.474916 2.188792,-0.562527 3.125,0.09375 1.467993,1.029055 2.142601,2.483407 2.25,3.90625 0.199774,-1.71249 -0.431143,-3.631241 -2.25,-4.90625 -0.468104,-0.328139 -0.928563,-0.467983 -1.4375,-0.46875 z M 42.75,81.875 c -0.04772,2.184126 0.06369,4.287531 0.125,6.09375 C 42.8802,87.89213 42.90852,87.833103 42.90625,87.75 42.86068,86.07736 42.744455,84.003732 42.75,81.875 z"
       id="path4139"
       style="fill:#ffffff;fill-opacity:1;fill-rule:evenodd;stroke:none" />
    <path
       d="m 43.15625,11.375 c -0.0176,1.660542 0.09177,3.333246 0.40625,4.875 0.3035,1.487923 0.766556,2.850022 1.53125,3.9375 0.764694,1.087478 1.938083,1.879092 3.34375,1.96875 2.611658,0.166579 5.085664,-1.028525 7.0625,-1.46875 0.988418,-0.220112 1.802834,-0.267152 2.375,-0.0625 0.572166,0.204652 1.057364,0.633488 1.53125,1.78125 0.318078,0.770395 0.496761,1.503143 0.5625,2.15625 0.09213,-0.898568 -0.0676,-1.957594 -0.5625,-3.15625 C 58.932364,20.258488 58.447166,19.829652 57.875,19.625 57.302834,19.420348 56.488418,19.467388 55.5,19.6875 53.523164,20.127725 51.049158,21.322829 48.4375,21.15625 47.031833,21.066592 45.858444,20.274978 45.09375,19.1875 44.329056,18.100022 43.866,16.737923 43.5625,15.25 43.311659,14.020239 43.186887,12.699172 43.15625,11.375 z m 0.6875,20.6875 c -0.05129,3.458299 0.492269,6.650609 1.0625,10.125 0.06146,0.0081 0.126215,0.02335 0.1875,0.03125 -0.564865,-3.549308 -1.185537,-6.741431 -1.25,-10.15625 z M 29.5625,48.15625 c -0.01069,0.196689 -0.03011,0.395698 -0.03125,0.59375 -0.01323,2.296707 0.58977,4.68375 0.71875,6.5 0.01386,-0.279451 0.02119,-0.571272 0,-0.90625 -0.108802,-1.720246 -0.634784,-3.980839 -0.6875,-6.1875 z M 24.5,48.71875 c -0.08447,0.959963 -0.413268,1.92641 -1,2.78125 -1.269957,1.85027 -2.634155,3.779129 -2.9375,4.9375 -0.128339,0.49008 -0.103685,0.71684 0.03125,0.9375 0.334169,-1.164339 1.658517,-3.05711 2.90625,-4.875 0.790864,-1.15225 1.118633,-2.49542 1,-3.78125 z"
       id="path4148"
       style="fill:#ffffff;fill-opacity:1;fill-rule:evenodd;stroke:none" />
    <path
       d="m 62.09375,24.5625 c -0.07311,1.039137 -0.370107,2.012893 -0.9375,2.84375 -1.250824,1.831634 -3.655273,2.753458 -6.78125,2.5 -1.218748,-0.09882 -2.333362,-0.656777 -3.40625,-1.21875 -1.072888,-0.561973 -2.085925,-1.136284 -2.875,-1.40625 -0.394538,-0.134983 -0.731205,-0.200905 -0.9375,-0.1875 -0.206295,0.0134 -0.300283,0.05359 -0.4375,0.1875 -0.274435,0.267829 -0.714799,1.260885 -0.78125,3.375 -0.01064,0.338684 -0.0027,0.665742 0,1 0.06645,-2.114115 0.506815,-3.107171 0.78125,-3.375 0.137217,-0.133914 0.231205,-0.174095 0.4375,-0.1875 0.206295,-0.0134 0.542962,0.05252 0.9375,0.1875 0.789075,0.269966 1.802112,0.844277 2.875,1.40625 1.072888,0.561973 2.187502,1.119932 3.40625,1.21875 3.125977,0.253458 5.530426,-0.668366 6.78125,-2.5 0.748303,-1.095772 1.037673,-2.418218 0.9375,-3.84375 z m 13.875,12.75 c -0.0177,0.247745 -0.0282,0.503768 -0.0625,0.75 -0.366253,2.62902 -1.560417,5.643266 -1.5625,7.25 -2.88e-4,0.220636 0.01367,0.384557 0.03125,0.5625 0.170858,-1.676374 1.195449,-4.402073 1.53125,-6.8125 0.08124,-0.583126 0.109158,-1.176499 0.0625,-1.75 z M 64.6875,37.34375 c -0.03623,0.245232 -0.04438,0.482875 -0.03125,0.71875 0.03882,0.697676 0.240065,1.364609 0.5,2.03125 0.80587,2.066774 2.057533,4.241337 2.21875,6.3125 0.270331,-2.358023 -1.283015,-4.912669 -2.21875,-7.3125 -0.225558,-0.578476 -0.399356,-1.151188 -0.46875,-1.75 z"
       id="path4157"
       style="opacity:0.6;fill:#d4ff2a;fill-opacity:1;fill-rule:evenodd;stroke:none" />
  </g>
  <g
     id="layer3"
     style="display:inline">
    <path
       d="M 12,90 C 8.676,90 6,87.324 6,84 L 6,82 6,14 6,12 c 0,-0.334721 0.04135,-0.6507 0.09375,-0.96875 0.0487,-0.295596 0.09704,-0.596915 0.1875,-0.875 C 6.29113,10.12587 6.302142,10.09265 6.3125,10.0625 6.411365,9.774729 6.5473802,9.515048 6.6875,9.25 6.8320918,8.976493 7.0031161,8.714385 7.1875,8.46875 7.3718839,8.223115 7.5612765,7.995278 7.78125,7.78125 8.221197,7.353194 8.72416,6.966724 9.28125,6.6875 9.559795,6.547888 9.8547231,6.440553 10.15625,6.34375 9.9000482,6.443972 9.6695391,6.580022 9.4375,6.71875 c -0.00741,0.0044 -0.023866,-0.0045 -0.03125,0 -0.031933,0.0193 -0.062293,0.04251 -0.09375,0.0625 -0.120395,0.0767 -0.2310226,0.163513 -0.34375,0.25 -0.1061728,0.0808 -0.2132809,0.161112 -0.3125,0.25 C 8.4783201,7.442683 8.3087904,7.626638 8.15625,7.8125 8.0486711,7.942755 7.9378561,8.077785 7.84375,8.21875 7.818661,8.25713 7.805304,8.30462 7.78125,8.34375 7.716487,8.446782 7.6510225,8.548267 7.59375,8.65625 7.4927417,8.850956 7.3880752,9.071951 7.3125,9.28125 7.30454,9.30306 7.288911,9.3218 7.28125,9.34375 7.2494249,9.4357 7.2454455,9.530581 7.21875,9.625 7.1884177,9.731618 7.1483606,9.828031 7.125,9.9375 7.0521214,10.279012 7,10.635705 7,11 l 0,2 0,68 0,2 c 0,2.781848 2.2181517,5 5,5 l 2,0 68,0 2,0 c 2.781848,0 5,-2.218152 5,-5 l 0,-2 0,-68 0,-2 C 89,10.635705 88.94788,10.279012 88.875,9.9375 88.83085,9.730607 88.78662,9.539842 88.71875,9.34375 88.71105,9.3218 88.69545,9.30306 88.6875,9.28125 88.62476,9.107511 88.549117,8.913801 88.46875,8.75 88.42717,8.6672 88.38971,8.580046 88.34375,8.5 88.28915,8.40279 88.216976,8.31165 88.15625,8.21875 88.06214,8.077785 87.951329,7.942755 87.84375,7.8125 87.700576,7.63805 87.540609,7.465502 87.375,7.3125 87.36383,7.3023 87.35502,7.29135 87.34375,7.28125 87.205364,7.155694 87.058659,7.046814 86.90625,6.9375 86.803679,6.86435 86.701932,6.784136 86.59375,6.71875 c -0.0074,-0.0045 -0.02384,0.0044 -0.03125,0 -0.232039,-0.138728 -0.462548,-0.274778 -0.71875,-0.375 0.301527,0.0968 0.596455,0.204138 0.875,0.34375 0.55709,0.279224 1.060053,0.665694 1.5,1.09375 0.219973,0.214028 0.409366,0.441865 0.59375,0.6875 0.184384,0.245635 0.355408,0.507743 0.5,0.78125 0.14012,0.265048 0.276135,0.524729 0.375,0.8125 0.01041,0.03078 0.02133,0.06274 0.03125,0.09375 0.09046,0.278085 0.1388,0.579404 0.1875,0.875 C 89.95865,11.3493 90,11.665279 90,12 l 0,2 0,68 0,2 c 0,3.324 -2.676,6 -6,6 l -72,0 z"
       id="path3615"
       style="opacity:0.4;fill:url(#radialGradient2886);fill-opacity:1;fill-rule:nonzero;stroke:none;display:inline" />
    <path
       d="M 44.5625,6 C 44.471759,6.6353335 44.42731,7.3108437 44.375,8 L 82,8 84,8 c 2.781848,0 5,2.218152 5,5 l 0,2 0,32.375 c 0.342251,-0.0495 0.694613,-0.09081 1,-0.15625 L 90,22 90,14 90,12.53125 90,12 C 90,11.79225 89.989161,11.577192 89.96875,11.375 89.662583,8.3421143 87.11625,6 84,6 L 44.5625,6 z"
       id="rect3728"
       style="opacity:0.35;fill:url(#linearGradient3729);fill-opacity:1;fill-rule:nonzero;stroke:none;display:inline" />
    <path
       d="M 12,6 C 8.676,6 6,8.676 6,12 l 0,2 0,68 0,2 c 0,0.334721 0.04135,0.6507 0.09375,0.96875 0.0487,0.295596 0.09704,0.596915 0.1875,0.875 0.0099,0.03038 0.02089,0.0636 0.03125,0.09375 0.09886,0.287771 0.23488,0.547452 0.375,0.8125 0.144592,0.273507 0.315616,0.535615 0.5,0.78125 0.184384,0.245635 0.373776,0.473472 0.59375,0.6875 0.439947,0.428056 0.94291,0.814526 1.5,1.09375 0.278545,0.139612 0.573473,0.246947 0.875,0.34375 -0.256202,-0.100222 -0.486711,-0.236272 -0.71875,-0.375 -0.0074,-0.0044 -0.02387,0.0045 -0.03125,0 -0.03193,-0.0193 -0.06229,-0.04251 -0.09375,-0.0625 -0.120395,-0.0767 -0.231023,-0.163513 -0.34375,-0.25 -0.106173,-0.0808 -0.213281,-0.161112 -0.3125,-0.25 C 8.47832,88.557317 8.30879,88.373362 8.15625,88.1875 8.048671,88.057245 7.937856,87.922215 7.84375,87.78125 7.81866,87.74287 7.8053,87.69538 7.78125,87.65625 7.71649,87.553218 7.651022,87.451733 7.59375,87.34375 7.492742,87.149044 7.388075,86.928049 7.3125,86.71875 7.3045,86.69694 7.28891,86.6782 7.28125,86.65625 7.24942,86.5643 7.24545,86.469419 7.21875,86.375 7.188418,86.268382 7.148361,86.171969 7.125,86.0625 7.052121,85.720988 7,85.364295 7,85 L 7,83 7,15 7,13 C 7,10.218152 9.218152,8 12,8 l 2,0 30.375,0 C 44.42731,7.3108437 44.47176,6.6353335 44.5625,6 L 12,6 z m 78,41.21875 c -0.305387,0.06544 -0.657749,0.106752 -1,0.15625 L 89,83 l 0,2 c 0,0.364295 -0.05212,0.720988 -0.125,1.0625 -0.04415,0.206893 -0.08838,0.397658 -0.15625,0.59375 -0.0077,0.02195 -0.0233,0.04069 -0.03125,0.0625 -0.06274,0.173739 -0.138383,0.367449 -0.21875,0.53125 -0.04158,0.0828 -0.07904,0.169954 -0.125,0.25 -0.0546,0.09721 -0.126774,0.18835 -0.1875,0.28125 -0.09411,0.140965 -0.204921,0.275995 -0.3125,0.40625 -0.143174,0.17445 -0.303141,0.346998 -0.46875,0.5 -0.01117,0.0102 -0.01998,0.02115 -0.03125,0.03125 -0.138386,0.125556 -0.285091,0.234436 -0.4375,0.34375 -0.102571,0.07315 -0.204318,0.153364 -0.3125,0.21875 -0.0074,0.0045 -0.02384,-0.0044 -0.03125,0 -0.232039,0.138728 -0.462548,0.274778 -0.71875,0.375 0.301527,-0.0968 0.596455,-0.204138 0.875,-0.34375 0.55709,-0.279224 1.060053,-0.665694 1.5,-1.09375 0.219973,-0.214028 0.409366,-0.441865 0.59375,-0.6875 0.184384,-0.245635 0.355408,-0.507743 0.5,-0.78125 0.14012,-0.265048 0.276135,-0.524729 0.375,-0.8125 0.01041,-0.03078 0.02133,-0.06274 0.03125,-0.09375 0.09046,-0.278085 0.1388,-0.579404 0.1875,-0.875 C 89.95865,84.6507 90,84.334721 90,84 l 0,-2 0,-34.78125 z"
       id="path3717"
       style="opacity:0.5;fill:url(#linearGradient3722);fill-opacity:1;fill-rule:nonzero;stroke:none;display:inline" />
  </g>
</svg>
