<?xml version="1.0" encoding="UTF-8" standalone="no"?>
<!-- Created with Inkscape (http://www.inkscape.org/) -->

<svg
   xmlns:dc="http://purl.org/dc/elements/1.1/"
   xmlns:cc="http://creativecommons.org/ns#"
   xmlns:rdf="http://www.w3.org/1999/02/22-rdf-syntax-ns#"
   xmlns:svg="http://www.w3.org/2000/svg"
   xmlns="http://www.w3.org/2000/svg"
   xmlns:xlink="http://www.w3.org/1999/xlink"
   version="1.0"
   width="96"
   height="96"
   id="svg2408">
  <defs
     id="defs2410">
    <linearGradient
       id="linearGradient4229">
      <stop
         id="stop4231"
         style="stop-color:#123565;stop-opacity:1"
         offset="0" />
      <stop
         id="stop4233"
         style="stop-color:#1c54a0;stop-opacity:1"
         offset="1" />
    </linearGradient>
    <linearGradient
       id="linearGradient4213">
      <stop
         id="stop4215"
         style="stop-color:#ffffff;stop-opacity:1"
         offset="0" />
      <stop
         id="stop4217"
         style="stop-color:#ffffff;stop-opacity:0"
         offset="1" />
    </linearGradient>
    <linearGradient
       id="linearGradient4208">
      <stop
         id="stop4210"
         style="stop-color:#f3840c;stop-opacity:1"
         offset="0" />
      <stop
         id="stop4212"
         style="stop-color:#f2b80c;stop-opacity:1"
         offset="1" />
    </linearGradient>
    <linearGradient
       x1="45.447727"
       y1="92.539597"
       x2="45.447727"
       y2="7.0165396"
       id="ButtonShadow"
       gradientUnits="userSpaceOnUse"
       gradientTransform="scale(1.0058652,0.994169)">
      <stop
         id="stop3750"
         style="stop-color:#000000;stop-opacity:1"
         offset="0" />
      <stop
         id="stop3752"
         style="stop-color:#000000;stop-opacity:0.58823532"
         offset="1" />
    </linearGradient>
    <linearGradient
       id="linearGradient3737">
      <stop
         id="stop3739"
         style="stop-color:#ffffff;stop-opacity:1"
         offset="0" />
      <stop
         id="stop3741"
         style="stop-color:#ffffff;stop-opacity:0"
         offset="1" />
    </linearGradient>
    <filter
       color-interpolation-filters="sRGB"
       id="filter3174">
      <feGaussianBlur
         stdDeviation="1.71"
         id="feGaussianBlur3176" />
    </filter>
    <linearGradient
       x1="45.447727"
       y1="92.539597"
       x2="45.447727"
       y2="7.0165396"
       id="ButtonShadow-0"
       gradientUnits="userSpaceOnUse"
       gradientTransform="matrix(1.0058652,0,0,0.994169,100,0)">
      <stop
         id="stop3750-8"
         style="stop-color:#000000;stop-opacity:1"
         offset="0" />
      <stop
         id="stop3752-5"
         style="stop-color:#000000;stop-opacity:0.58823532"
         offset="1" />
    </linearGradient>
    <linearGradient
       x1="32.251034"
       y1="6.1317081"
       x2="32.251034"
       y2="90.238609"
       id="linearGradient3780"
       xlink:href="#ButtonShadow-0"
       gradientUnits="userSpaceOnUse"
       gradientTransform="matrix(1.0238095,0,0,1.0119048,-1.1428571,-98.071429)" />
    <linearGradient
       x1="32.251034"
       y1="6.1317081"
       x2="32.251034"
       y2="90.238609"
       id="linearGradient3772"
       xlink:href="#ButtonShadow-0"
       gradientUnits="userSpaceOnUse"
       gradientTransform="matrix(1.0238095,0,0,1.0119048,-1.1428571,-98.071429)" />
    <linearGradient
       x1="32.251034"
       y1="6.1317081"
       x2="32.251034"
       y2="90.238609"
       id="linearGradient3725"
       xlink:href="#ButtonShadow-0"
       gradientUnits="userSpaceOnUse"
       gradientTransform="matrix(1.0238095,0,0,1.0119048,-1.1428571,-98.071429)" />
    <linearGradient
       x1="32.251034"
       y1="6.1317081"
       x2="32.251034"
       y2="90.238609"
       id="linearGradient3721"
       xlink:href="#ButtonShadow-0"
       gradientUnits="userSpaceOnUse"
       gradientTransform="translate(0,-97)" />
    <linearGradient
       x1="32.251034"
       y1="6.1317081"
       x2="32.251034"
       y2="90.238609"
       id="linearGradient3059"
       xlink:href="#ButtonShadow-0"
       gradientUnits="userSpaceOnUse"
       gradientTransform="matrix(1.0238095,0,0,1.0119048,-1.1428571,-98.071429)" />
    <radialGradient
       cx="48"
       cy="90.171875"
       r="42"
       fx="48"
       fy="90.171875"
       id="radialGradient3424"
       xlink:href="#linearGradient3737"
       gradientUnits="userSpaceOnUse"
       gradientTransform="matrix(1.1573129,0,0,0.99590774,-7.5510206,0.19713193)" />
    <linearGradient
       x1="36.357143"
       y1="6"
       x2="36.357143"
       y2="63.893143"
       id="linearGradient3427"
       xlink:href="#linearGradient3737"
       gradientUnits="userSpaceOnUse" />
    <linearGradient
       x1="48"
       y1="90"
       x2="48"
       y2="5.9877172"
       id="linearGradient3433"
       xlink:href="#linearGradient4208"
       gradientUnits="userSpaceOnUse" />
    <linearGradient
       x1="39.078926"
       y1="58.664307"
       x2="39.091385"
       y2="53.714558"
       id="linearGradient4219"
       xlink:href="#linearGradient4213"
       gradientUnits="userSpaceOnUse"
       gradientTransform="matrix(1.0075619,0,0,1,-0.6794906,0)" />
    <linearGradient
       x1="40.294678"
       y1="89.365746"
       x2="40.148972"
       y2="54.36396"
       id="linearGradient4235"
       xlink:href="#linearGradient4229"
       gradientUnits="userSpaceOnUse" />
  </defs>
  <metadata
     id="metadata2413">
    <rdf:RDF>
      <cc:Work
         rdf:about="">
        <dc:format>image/svg+xml</dc:format>
        <dc:type
           rdf:resource="http://purl.org/dc/dcmitype/StillImage" />
        <dc:title></dc:title>
      </cc:Work>
    </rdf:RDF>
  </metadata>
  <g
     id="layer2"
     style="display:none">
    <rect
       width="86"
       height="85"
       rx="6"
       ry="6"
       x="5"
       y="7"
       id="rect3745"
       style="opacity:0.9;fill:url(#ButtonShadow);fill-opacity:1;fill-rule:nonzero;stroke:none;filter:url(#filter3174)" />
  </g>
  <g
     transform="matrix(1.3872362,0,0,1.5325437,-34.854605,-47.92456)"
     id="layer5" />
  <g
     id="g4262">
    <g
       id="layer4"
       style="display:inline">
      <path
         d="m 12,-95.03125 c -5.5110903,0 -10.03125,4.52016 -10.03125,10.03125 l 0,71 c 0,5.5110902 4.5201598,10.03125 10.03125,10.03125 l 72,0 c 5.51109,0 10.03125,-4.5201597 10.03125,-10.03125 l 0,-71 c 0,-5.51109 -4.52016,-10.03125 -10.03125,-10.03125 l -72,0 z"
         transform="scale(1,-1)"
         id="path3786"
         style="opacity:0.07999998;fill:url(#linearGradient3059);fill-opacity:1;fill-rule:nonzero;stroke:none;display:inline" />
      <path
         d="m 12,-94.03125 c -4.971633,0 -9.03125,4.059617 -9.03125,9.03125 l 0,71 c 0,4.9716329 4.0596171,9.03125 9.03125,9.03125 l 72,0 c 4.971633,0 9.03125,-4.059617 9.03125,-9.03125 l 0,-71 c 0,-4.971633 -4.059617,-9.03125 -9.03125,-9.03125 l -72,0 z"
         transform="scale(1,-1)"
         id="path3778"
         style="opacity:0.1;fill:url(#linearGradient3780);fill-opacity:1;fill-rule:nonzero;stroke:none;display:inline" />
      <path
         d="m 12,-93 c -4.4091333,0 -8,3.590867 -8,8 l 0,71 c 0,4.4091333 3.5908667,8 8,8 l 72,0 c 4.409133,0 8,-3.5908667 8,-8 l 0,-71 c 0,-4.409133 -3.590867,-8 -8,-8 l -72,0 z"
         transform="scale(1,-1)"
         id="path3770"
         style="opacity:0.2;fill:url(#linearGradient3772);fill-opacity:1;fill-rule:nonzero;stroke:none;display:inline" />
      <rect
         width="86"
         height="85"
         rx="7"
         ry="7"
         x="5"
         y="-92"
         transform="scale(1,-1)"
         id="rect3723"
         style="opacity:0.3;fill:url(#linearGradient3725);fill-opacity:1;fill-rule:nonzero;stroke:none;display:inline" />
      <rect
         width="84"
         height="84"
         rx="6"
         ry="6"
         x="6"
         y="-91"
         transform="scale(1,-1)"
         id="rect3716"
         style="opacity:0.45;fill:url(#linearGradient3721);fill-opacity:1;fill-rule:nonzero;stroke:none;display:inline" />
    </g>
    <rect
       width="84"
       height="84"
       rx="6"
       ry="6"
       x="6"
       y="6"
       id="rect2419"
       style="fill:url(#linearGradient3433);fill-opacity:1;fill-rule:nonzero;stroke:none" />
    <rect
       width="84"
       height="84"
       rx="6"
       ry="6"
       x="6"
       y="6"
       id="rect4204"
       style="fill:url(#linearGradient4235);fill-opacity:1;fill-rule:nonzero;stroke:none" />
    <rect
       width="83.688499"
       height="50.972286"
       rx="4.2486868"
       ry="5.7945895"
       x="6.168129"
       y="6.8384337"
       id="rect4209"
       style="fill:#000000;fill-opacity:1;stroke:none" />
    <path
       d="M 12,6 C 8.676,6 6,8.676 6,12 l 0,2 0,68 0,2 c 0,0.334721 0.04135,0.6507 0.09375,0.96875 0.0487,0.295596 0.09704,0.596915 0.1875,0.875 0.00988,0.03038 0.020892,0.0636 0.03125,0.09375 0.098865,0.287771 0.2348802,0.547452 0.375,0.8125 0.1445918,0.273507 0.3156161,0.535615 0.5,0.78125 0.1843839,0.245635 0.3737765,0.473472 0.59375,0.6875 0.439947,0.428056 0.94291,0.814526 1.5,1.09375 0.278545,0.139612 0.5734731,0.246947 0.875,0.34375 -0.2562018,-0.100222 -0.4867109,-0.236272 -0.71875,-0.375 -0.00741,-0.0044 -0.023866,0.0045 -0.03125,0 -0.031933,-0.0193 -0.062293,-0.04251 -0.09375,-0.0625 -0.120395,-0.0767 -0.2310226,-0.163513 -0.34375,-0.25 -0.1061728,-0.0808 -0.2132809,-0.161112 -0.3125,-0.25 C 8.4783201,88.557317 8.3087904,88.373362 8.15625,88.1875 8.0486711,88.057245 7.9378561,87.922215 7.84375,87.78125 7.818661,87.74287 7.805304,87.69538 7.78125,87.65625 7.716487,87.553218 7.6510225,87.451733 7.59375,87.34375 7.4927417,87.149044 7.3880752,86.928049 7.3125,86.71875 7.30454,86.69694 7.288911,86.6782 7.28125,86.65625 7.2494249,86.5643 7.2454455,86.469419 7.21875,86.375 7.1884177,86.268382 7.1483606,86.171969 7.125,86.0625 7.0521214,85.720988 7,85.364295 7,85 L 7,83 7,15 7,13 C 7,10.218152 9.2181517,8 12,8 l 2,0 68,0 2,0 c 2.781848,0 5,2.218152 5,5 l 0,2 0,68 0,2 c 0,0.364295 -0.05212,0.720988 -0.125,1.0625 -0.04415,0.206893 -0.08838,0.397658 -0.15625,0.59375 -0.0077,0.02195 -0.0233,0.04069 -0.03125,0.0625 -0.06274,0.173739 -0.138383,0.367449 -0.21875,0.53125 -0.04158,0.0828 -0.07904,0.169954 -0.125,0.25 -0.0546,0.09721 -0.126774,0.18835 -0.1875,0.28125 -0.09411,0.140965 -0.204921,0.275995 -0.3125,0.40625 -0.143174,0.17445 -0.303141,0.346998 -0.46875,0.5 -0.01117,0.0102 -0.01998,0.02115 -0.03125,0.03125 -0.138386,0.125556 -0.285091,0.234436 -0.4375,0.34375 -0.102571,0.07315 -0.204318,0.153364 -0.3125,0.21875 -0.0074,0.0045 -0.02384,-0.0044 -0.03125,0 -0.232039,0.138728 -0.462548,0.274778 -0.71875,0.375 0.301527,-0.0968 0.596455,-0.204138 0.875,-0.34375 0.55709,-0.279224 1.060053,-0.665694 1.5,-1.09375 0.219973,-0.214028 0.409366,-0.441865 0.59375,-0.6875 0.184384,-0.245635 0.355408,-0.507743 0.5,-0.78125 0.14012,-0.265048 0.276135,-0.524729 0.375,-0.8125 0.01041,-0.03078 0.02133,-0.06274 0.03125,-0.09375 0.09046,-0.278085 0.1388,-0.579404 0.1875,-0.875 C 89.95865,84.6507 90,84.334721 90,84 l 0,-2 0,-68 0,-2 C 90,8.676 87.324,6 84,6 L 12,6 z"
       id="rect3728"
       style="opacity:0.5;fill:url(#linearGradient3427);fill-opacity:1;fill-rule:nonzero;stroke:none" />
    <path
       d="M 12,90 C 8.676,90 6,87.324 6,84 L 6,82 6,14 6,12 c 0,-0.334721 0.04135,-0.6507 0.09375,-0.96875 0.0487,-0.295596 0.09704,-0.596915 0.1875,-0.875 C 6.29113,10.12587 6.302142,10.09265 6.3125,10.0625 6.411365,9.774729 6.5473802,9.515048 6.6875,9.25 6.8320918,8.976493 7.0031161,8.714385 7.1875,8.46875 7.3718839,8.223115 7.5612765,7.995278 7.78125,7.78125 8.221197,7.353194 8.72416,6.966724 9.28125,6.6875 9.559795,6.547888 9.8547231,6.440553 10.15625,6.34375 9.9000482,6.443972 9.6695391,6.580022 9.4375,6.71875 c -0.00741,0.0044 -0.023866,-0.0045 -0.03125,0 -0.031933,0.0193 -0.062293,0.04251 -0.09375,0.0625 -0.120395,0.0767 -0.2310226,0.163513 -0.34375,0.25 -0.1061728,0.0808 -0.2132809,0.161112 -0.3125,0.25 C 8.4783201,7.442683 8.3087904,7.626638 8.15625,7.8125 8.0486711,7.942755 7.9378561,8.077785 7.84375,8.21875 7.818661,8.25713 7.805304,8.30462 7.78125,8.34375 7.716487,8.446782 7.6510225,8.548267 7.59375,8.65625 7.4927417,8.850956 7.3880752,9.071951 7.3125,9.28125 7.30454,9.30306 7.288911,9.3218 7.28125,9.34375 7.2494249,9.4357 7.2454455,9.530581 7.21875,9.625 7.1884177,9.731618 7.1483606,9.828031 7.125,9.9375 7.0521214,10.279012 7,10.635705 7,11 l 0,2 0,68 0,2 c 0,2.781848 2.2181517,5 5,5 l 2,0 68,0 2,0 c 2.781848,0 5,-2.218152 5,-5 l 0,-2 0,-68 0,-2 C 89,10.635705 88.94788,10.279012 88.875,9.9375 88.83085,9.730607 88.78662,9.539842 88.71875,9.34375 88.71105,9.3218 88.69545,9.30306 88.6875,9.28125 88.62476,9.107511 88.549117,8.913801 88.46875,8.75 88.42717,8.6672 88.38971,8.580046 88.34375,8.5 88.28915,8.40279 88.216976,8.31165 88.15625,8.21875 88.06214,8.077785 87.951329,7.942755 87.84375,7.8125 87.700576,7.63805 87.540609,7.465502 87.375,7.3125 87.36383,7.3023 87.35502,7.29135 87.34375,7.28125 87.205364,7.155694 87.058659,7.046814 86.90625,6.9375 86.803679,6.86435 86.701932,6.784136 86.59375,6.71875 c -0.0074,-0.0045 -0.02384,0.0044 -0.03125,0 -0.232039,-0.138728 -0.462548,-0.274778 -0.71875,-0.375 0.301527,0.0968 0.596455,0.204138 0.875,0.34375 0.55709,0.279224 1.060053,0.665694 1.5,1.09375 0.219973,0.214028 0.409366,0.441865 0.59375,0.6875 0.184384,0.245635 0.355408,0.507743 0.5,0.78125 0.14012,0.265048 0.276135,0.524729 0.375,0.8125 0.01041,0.03078 0.02133,0.06274 0.03125,0.09375 0.09046,0.278085 0.1388,0.579404 0.1875,0.875 C 89.95865,11.3493 90,11.665279 90,12 l 0,2 0,68 0,2 c 0,3.324 -2.676,6 -6,6 l -72,0 z"
       id="path3615"
       style="opacity:0.2;fill:url(#radialGradient3424);fill-opacity:1;fill-rule:nonzero;stroke:none" />
    <rect
       width="83.965118"
       height="50.972286"
       rx="3.1985664"
       ry="5.7945895"
       x="5.8915081"
       y="6.8384337"
       id="rect4211"
       style="fill:none;stroke:url(#linearGradient4219);stroke-width:1.00377381;stroke-opacity:1" />
    <g
       id="text4221"
       style="font-size:12px;font-style:normal;font-variant:normal;font-weight:normal;font-stretch:normal;line-height:125%;letter-spacing:0px;word-spacing:0px;fill:#b0b0b0;fill-opacity:1;stroke:none;font-family:Cantarell;-inkscape-font-specification:Cantarell">
      <path
         d="m 13.005846,23.610139 c -0.504,-0.288 -0.888001,-0.684001 -1.164,-1.188 -0.276,-0.504 -0.42,-1.104001 -0.42,-1.764 0,-0.959999 0.288,-1.740001 0.864,-2.364 0.263999,-0.288 0.6,-0.528 0.996,-0.696 0.395999,-0.168 0.816,-0.264 1.236,-0.264 0.419999,0 0.768,0.036 1.044,0.084 0.275999,0.048 0.6,0.144 0.984,0.276 l 0.276,-0.816 c -0.384,-0.144 -0.756001,-0.252 -1.128,-0.324 -0.372,-0.072 -0.828001,-0.108 -1.356,-0.108 -0.528,0 -1.056001,0.096 -1.572,0.312 -0.516,0.215999 -0.960001,0.504 -1.32,0.876 -0.36,0.371999 -0.636001,0.828 -0.84,1.344 -0.204,0.515999 -0.312,1.092 -0.312,1.692 0,1.259998 0.384,2.28 1.128,3.072 0.359999,0.371999 0.804,0.66 1.32,0.876 0.515999,0.215999 1.08,0.312 1.704,0.312 0.923999,0 1.752,-0.168001 2.484,-0.504 l -0.252,-0.792 c -0.648,0.263999 -1.296001,0.396 -1.944,0.396 -0.648,0 -1.224001,-0.132001 -1.728,-0.42"
         id="path4238" />
      <path
         d="m 18.350721,23.574139 0,1.236 1.224,0 0,-1.236 -1.224,0 m 0,-4.584 0,1.236 1.224,0 0,-1.236 -1.224,0"
         id="path4240" />
      <path
         d="m 20.742846,16.482139 2.904,8.856 0.996,0 -2.904,-8.856 -0.996,0"
         id="path4242" />
      <path
         d="m 25.453033,18.198139 0,0.912 4.092,2.064 -4.092,1.968 0,0.96 5.112,-2.412 0,-0.972 -5.112,-2.52"
         id="path4244" />
      <path
         d="m 34.698283,18.918139 c -0.971999,0.012 -1.692,0.3 -2.172,0.876 -0.479999,0.575999 -0.72,1.332001 -0.708,2.292 0.012,0.755999 0.18,1.38 0.516,1.848 0.48,0.671999 1.236001,1.008 2.28,0.996 0.504,0 1.020001,-0.108001 1.572,-0.324 l -0.228,-0.66 c -0.479999,0.168 -0.924,0.228 -1.32,0.18 -0.395999,-0.048 -0.72,-0.144 -0.972,-0.288 -0.563999,-0.324 -0.852,-0.912001 -0.9,-1.74 -0.084,-1.523999 0.564002,-2.304 1.968,-2.364 0.372,-0.012 0.804001,0.06 1.284,0.228 l 0.24,-0.696 c -0.551999,-0.24 -1.068,-0.36 -1.56,-0.348"
         id="path4246" />
      <path
         d="m 41.619846,19.926139 0,3.816 c -0.216,0.12 -0.420001,0.204 -0.612,0.264 -0.192,0.06 -0.420001,0.096 -0.696,0.096 -0.6,0 -1.068001,-0.192001 -1.392,-0.588 -0.324,-0.396 -0.48,-0.936001 -0.48,-1.62 0,-0.684 0.156,-1.224001 0.492,-1.632 0.335999,-0.408 0.804,-0.612 1.392,-0.612 0.455999,0 0.876,0.096 1.296,0.276 m 0,-0.768 c -0.456,-0.192 -0.924001,-0.276 -1.392,-0.276 -0.792,0 -1.452001,0.252 -1.98,0.768 -0.552,0.551999 -0.828,1.332001 -0.828,2.328 0,1.199999 0.408,2.064 1.212,2.568 0.407999,0.251999 0.888,0.372 1.464,0.372 0.575999,0 1.128,-0.180001 1.644,-0.516 l 0.168,0.408 0.708,0 0,-8.052 -0.996,0 0,2.4"
         id="path4248" />
      <path
         d="m 11.517846,33.822163 0,13.86 3.94,0 c 2.499997,0 4.380001,-0.580002 5.68,-1.78 1.299998,-1.199999 1.94,-2.920003 1.94,-5.16 0,-2.239998 -0.620002,-3.980002 -1.84,-5.16 -1.219999,-1.179999 -2.940003,-1.76 -5.14,-1.76 l -4.58,0 m 1.84,1.46 2.32,0 c 1.339998,0 2.440001,0.26 3.3,0.74 1.459998,0.799999 2.18,2.320002 2.18,4.58 0,1.639998 -0.340001,2.9 -1,3.8 -0.879999,1.199998 -2.360002,1.8 -4.46,1.8 l -2.34,0 0,-10.92"
         id="path4250"
         style="font-size:20px;fill:#b0b0b0" />
      <path
         d="m 28.512221,37.882163 c 0.399999,-0.84 0.94,-1.520001 1.66,-2 0.719999,-0.48 1.540001,-0.72 2.44,-0.72 0.899999,0 1.72,0.24 2.44,0.72 0.719999,0.479999 1.26,1.14 1.66,2 0.399999,0.859999 0.6,1.800001 0.6,2.88 0,1.079998 -0.200001,2.04 -0.6,2.88 -0.4,0.839999 -0.940001,1.52 -1.66,2 -0.72,0.479999 -1.540001,0.72 -2.44,0.72 -0.899999,0 -1.720001,-0.240001 -2.44,-0.72 -0.72,-0.48 -1.260001,-1.160001 -1.66,-2 -0.4,-0.84 -0.6,-1.800002 -0.6,-2.88 0,-1.079999 0.2,-2.040001 0.6,-2.88 m -2.48,2.88 c 0,1.399998 0.26,2.660001 0.8,3.72 0.539999,1.059998 1.300001,1.9 2.3,2.48 0.999999,0.579999 2.160001,0.88 3.48,0.88 1.319998,0 2.460001,-0.300001 3.46,-0.88 0.999999,-0.58 1.76,-1.420002 2.3,-2.48 0.539999,-1.059999 0.82,-2.320002 0.82,-3.72 0,-1.399999 -0.280001,-2.640002 -0.82,-3.72 -0.54,-1.079999 -1.300001,-1.900001 -2.3,-2.48 -0.999999,-0.58 -2.140002,-0.88 -3.46,-0.88 -1.319999,0 -2.480001,0.3 -3.48,0.88 -0.999999,0.579999 -1.760001,1.400001 -2.3,2.48 -0.54,1.079998 -0.8,2.320001 -0.8,3.72"
         id="path4252"
         style="font-size:20px;fill:#b0b0b0" />
      <path
         d="m 45.103158,34.002163 c -0.679999,0.219999 -1.26,0.52 -1.72,0.88 -0.459999,0.359999 -0.8,0.8 -1.06,1.28 -0.26,0.479999 -0.4,1.02 -0.4,1.58 0,0.559999 0.14,1.08 0.42,1.52 0.28,0.439999 0.640001,0.8 1.08,1.06 0.44,0.259999 0.920001,0.48 1.46,0.68 0.54,0.199999 1.040001,0.38 1.58,0.56 0.54,0.179999 1.040001,0.36 1.48,0.56 0.979999,0.439999 1.48,1.08 1.48,1.92 0,0.659999 -0.32,1.2 -0.94,1.6 -0.619999,0.399999 -1.420001,0.6 -2.38,0.6 -0.959999,0 -2.260001,-0.320001 -3.88,-0.92 l -0.58,1.62 c 0.779999,0.299999 1.500001,0.54 2.14,0.7 0.64,0.159999 1.320001,0.22 2.08,0.22 0.759999,0 1.440001,-0.08 2.06,-0.24 1.119999,-0.32 1.960001,-0.860001 2.54,-1.62 0.5,-0.68 0.76,-1.420001 0.76,-2.2 0,-1.059999 -0.380001,-1.880001 -1.16,-2.46 -0.359999,-0.26 -0.76,-0.520001 -1.2,-0.74 -0.439999,-0.22 -1.040001,-0.440001 -1.78,-0.66 -0.739999,-0.22 -1.480001,-0.520001 -2.18,-0.88 -0.779999,-0.4 -1.16,-0.940001 -1.16,-1.64 0,-0.64 0.340001,-1.180001 1,-1.58 0.659999,-0.4 1.440001,-0.6 2.36,-0.6 0.919999,0 1.940001,0.16 3.12,0.5 l 0.54,-1.5 c -1.239999,-0.38 -2.300001,-0.56 -3.24,-0.56 -0.939999,0 -1.740001,0.1 -2.42,0.32"
         id="path4254"
         style="font-size:20px;fill:#b0b0b0" />
      <path
         d="m 55.895346,35.082163 2.66,0 c 0.459999,0 0.86,0.04 1.2,0.14 1.059999,0.299999 1.58,0.960001 1.58,2 0,1.579998 -1.220003,2.4 -3.68,2.46 l -1.76,0.06 0,-4.66 m 0,5.94 2.42,-0.12 c 1.239998,-0.06 2.26,0.14 3,0.64 0.739999,0.499999 1.12,1.18 1.12,2.1 0,0.679999 -0.200001,1.24 -0.62,1.66 -0.18,0.179999 -0.400001,0.34 -0.68,0.46 -0.28,0.119999 -0.520001,0.2 -0.74,0.26 -0.22,0.06 -0.460001,0.1 -0.76,0.14 -0.3,0.04 -0.520001,0.06 -0.68,0.06 l -0.54,0 -2.52,0 0,-5.2 m -1.66,-7.22 0,13.88 4.5,0 c 1.739998,0 3.080001,-0.420001 4.02,-1.26 0.879999,-0.8 1.32,-1.780002 1.32,-2.94 0,-0.86 -0.260001,-1.620001 -0.82,-2.3 -0.56,-0.68 -1.260001,-1.100001 -2.12,-1.26 0.419999,-0.16 0.84,-0.520001 1.22,-1.08 0.379999,-0.56 0.58,-1.140001 0.58,-1.7 0,-0.88 -0.280001,-1.620001 -0.86,-2.24 -0.68,-0.72 -1.660002,-1.1 -2.96,-1.1 l -4.88,0"
         id="path4256"
         style="font-size:20px;fill:#b0b0b0" />
      <path
         d="m 68.491596,40.182163 c 0.539999,-0.68 1.260001,-1.02 2.16,-1.02 0.899999,0 1.64,0.34 2.18,1.02 0.539999,0.679999 0.8,1.580001 0.8,2.7 0,1.119998 -0.260001,2.02 -0.8,2.7 -0.54,0.679999 -1.280001,1 -2.18,1 -0.899999,0 -1.620001,-0.320001 -2.16,-1 -0.54,-0.68 -0.82,-1.580002 -0.82,-2.7 0,-1.119999 0.28,-2.020001 0.82,-2.7 m -1.26,6.36 c 0.819999,0.879999 1.940001,1.34 3.38,1.34 1.439998,0 2.6,-0.460001 3.44,-1.36 0.839999,-0.9 1.24,-2.120002 1.24,-3.66 0,-1.539999 -0.400001,-2.780001 -1.22,-3.66 -0.82,-0.88 -1.960002,-1.32 -3.4,-1.32 -1.439999,0 -2.580001,0.44 -3.42,1.34 -0.84,0.899999 -1.24,2.100001 -1.24,3.66 0,1.559998 0.4,2.78 1.22,3.66"
         id="path4258"
         style="font-size:20px;fill:#b0b0b0" />
      <path
         d="m 84.298783,38.042163 -2.62,3.82 -2.72,-3.82 -1.86,0 3.5,4.9 -3.38,4.74 1.7,0 2.46,-3.62 2.58,3.62 1.86,0 -3.36,-4.72 3.56,-4.92 -1.72,0"
         id="path4260"
         style="font-size:20px;fill:#b0b0b0" />
    </g>
  </g>
</svg>
