<?xml version="1.0" encoding="UTF-8" standalone="no"?>
<!-- Created with Inkscape (http://www.inkscape.org/) -->

<svg
   xmlns:osb="http://www.openswatchbook.org/uri/2009/osb"
   xmlns:dc="http://purl.org/dc/elements/1.1/"
   xmlns:cc="http://creativecommons.org/ns#"
   xmlns:rdf="http://www.w3.org/1999/02/22-rdf-syntax-ns#"
   xmlns:svg="http://www.w3.org/2000/svg"
   xmlns="http://www.w3.org/2000/svg"
   xmlns:xlink="http://www.w3.org/1999/xlink"
   xmlns:sodipodi="http://sodipodi.sourceforge.net/DTD/sodipodi-0.dtd"
   xmlns:inkscape="http://www.inkscape.org/namespaces/inkscape"
   version="1.0"
   width="96"
   height="96"
   id="svg2408"
   inkscape:version="0.48.4 r9939"
   sodipodi:docname="rossetastone.svg">
  <sodipodi:namedview
     pagecolor="#ffffff"
     bordercolor="#666666"
     borderopacity="1"
     objecttolerance="10"
     gridtolerance="10"
     guidetolerance="10"
     inkscape:pageopacity="0"
     inkscape:pageshadow="2"
     inkscape:window-width="1920"
     inkscape:window-height="1024"
     id="namedview101"
     showgrid="false"
     inkscape:object-paths="true"
     inkscape:zoom="2.8284272"
     inkscape:cx="98.752398"
     inkscape:cy="22.752994"
     inkscape:window-x="0"
     inkscape:window-y="0"
     inkscape:window-maximized="1"
     inkscape:current-layer="layer1" />
  <defs
     id="defs2410">
    <linearGradient
       id="linearGradient5545"
       osb:paint="gradient">
      <stop
         style="stop-color:#ffffff;stop-opacity:1;"
         offset="0"
         id="stop5547" />
      <stop
         style="stop-color:#ffffff;stop-opacity:0;"
         offset="1"
         id="stop5549" />
    </linearGradient>
    <linearGradient
       id="linearGradient5539"
       osb:paint="solid">
      <stop
         style="stop-color:#000000;stop-opacity:1;"
         offset="0"
         id="stop5541" />
    </linearGradient>
    <linearGradient
       id="linearGradient4087">
      <stop
         id="stop4095"
         offset="0"
         style="stop-color:#4fb7ff;stop-opacity:1;" />
      <stop
         style="stop-color:#2c659e;stop-opacity:1;"
         offset="1"
         id="stop4091" />
    </linearGradient>
    <inkscape:path-effect
       effect="spiro"
       id="path-effect4025"
       is_visible="true" />
    <linearGradient
       id="linearGradient3719">
      <stop
         id="stop3721"
         style="stop-color:#eaedf1;stop-opacity:1"
         offset="0" />
      <stop
         id="stop3723"
         style="stop-color:#c1ccdb;stop-opacity:1"
         offset="1" />
    </linearGradient>
    <linearGradient
       x1="45.447727"
       y1="92.539597"
       x2="45.447727"
       y2="7.0165396"
       id="ButtonShadow"
       gradientUnits="userSpaceOnUse"
       gradientTransform="scale(1.0058652,0.994169)">
      <stop
         id="stop3750"
         style="stop-color:#000000;stop-opacity:1"
         offset="0" />
      <stop
         id="stop3752"
         style="stop-color:#000000;stop-opacity:0.58823532"
         offset="1" />
    </linearGradient>
    <linearGradient
       id="linearGradient3737">
      <stop
         id="stop3739"
         style="stop-color:#ffffff;stop-opacity:1"
         offset="0" />
      <stop
         id="stop3741"
         style="stop-color:#ffffff;stop-opacity:0"
         offset="1" />
    </linearGradient>
    <filter
       color-interpolation-filters="sRGB"
       id="filter3174">
      <feGaussianBlur
         id="feGaussianBlur3176"
         stdDeviation="1.71" />
    </filter>
    <linearGradient
       x1="36.357143"
       y1="6"
       x2="36.357143"
       y2="63.893143"
       id="linearGradient3188"
       xlink:href="#linearGradient3737"
       gradientUnits="userSpaceOnUse" />
    <filter
       x="-0.192"
       y="-0.192"
       width="1.3839999"
       height="1.3839999"
       color-interpolation-filters="sRGB"
       id="filter3794">
      <feGaussianBlur
         id="feGaussianBlur3796"
         stdDeviation="5.28" />
    </filter>
    <linearGradient
       x1="48"
       y1="20.220806"
       x2="48"
       y2="138.66119"
       id="linearGradient3613"
       xlink:href="#linearGradient3737"
       gradientUnits="userSpaceOnUse" />
    <radialGradient
       cx="48"
       cy="90.171875"
       r="42"
       fx="48"
       fy="90.171875"
       id="radialGradient3619"
       xlink:href="#linearGradient3737"
       gradientUnits="userSpaceOnUse"
       gradientTransform="matrix(1.1573129,0,0,0.99590774,-7.5510206,0.19713193)" />
    <clipPath
       id="clipPath3613">
      <rect
         width="84"
         height="84"
         rx="6"
         ry="6"
         x="6"
         y="6"
         id="rect3615"
         style="fill:#ffffff;fill-opacity:1;fill-rule:nonzero;stroke:none" />
    </clipPath>
    <linearGradient
       x1="48"
       y1="90"
       x2="48"
       y2="5.9877172"
       id="linearGradient3617"
       xlink:href="#linearGradient7668"
       gradientUnits="userSpaceOnUse"
       gradientTransform="translate(0.20338956,-97.01695)" />
    <linearGradient
       x1="45.447727"
       y1="92.539597"
       x2="45.447727"
       y2="7.0165396"
       id="ButtonShadow-0"
       gradientUnits="userSpaceOnUse"
       gradientTransform="matrix(1.0058652,0,0,0.994169,100,0)">
      <stop
         id="stop3750-8"
         style="stop-color:#000000;stop-opacity:1"
         offset="0" />
      <stop
         id="stop3752-5"
         style="stop-color:#000000;stop-opacity:0.58823532"
         offset="1" />
    </linearGradient>
    <linearGradient
       x1="32.251034"
       y1="6.1317081"
       x2="32.251034"
       y2="90.238609"
       id="linearGradient3780"
       xlink:href="#ButtonShadow-0"
       gradientUnits="userSpaceOnUse"
       gradientTransform="matrix(1.0238095,0,0,1.0119048,-1.1428571,-98.071429)" />
    <linearGradient
       x1="32.251034"
       y1="6.1317081"
       x2="32.251034"
       y2="90.238609"
       id="linearGradient3772"
       xlink:href="#ButtonShadow-0"
       gradientUnits="userSpaceOnUse"
       gradientTransform="matrix(1.0238095,0,0,1.0119048,-1.1428571,-98.071429)" />
    <linearGradient
       x1="32.251034"
       y1="6.1317081"
       x2="32.251034"
       y2="90.238609"
       id="linearGradient3725"
       xlink:href="#ButtonShadow-0"
       gradientUnits="userSpaceOnUse"
       gradientTransform="matrix(1.0238095,0,0,1.0119048,-1.1428571,-98.071429)" />
    <linearGradient
       x1="32.251034"
       y1="6.1317081"
       x2="32.251034"
       y2="90.238609"
       id="linearGradient3721"
       xlink:href="#ButtonShadow-0"
       gradientUnits="userSpaceOnUse"
       gradientTransform="translate(0,-97)" />
    <linearGradient
       x1="32.251034"
       y1="6.1317081"
       x2="32.251034"
       y2="90.238609"
       id="linearGradient3026"
       xlink:href="#ButtonShadow-0"
       gradientUnits="userSpaceOnUse"
       gradientTransform="matrix(1.0238095,0,0,1.0119048,-1.1428571,-98.071429)" />
    <radialGradient
       cx="5.4549971"
       cy="20.123863"
       r="4.3310289"
       fx="5.4549971"
       fy="20.123863"
       id="radialGradient10960"
       xlink:href="#linearGradient10950"
       gradientUnits="userSpaceOnUse"
       gradientTransform="matrix(0.941776,0,0,0.274284,0.317611,14.4024)" />
    <linearGradient
       id="linearGradient10950">
      <stop
         id="stop10952"
         style="stop-color:#000000;stop-opacity:1"
         offset="0" />
      <stop
         id="stop10954"
         style="stop-color:#000000;stop-opacity:0"
         offset="1" />
    </linearGradient>
    <linearGradient
       id="linearGradient7668">
      <stop
         id="stop7670"
         style="stop-color:#faff82;stop-opacity:1;"
         offset="0" />
      <stop
         id="stop7672"
         style="stop-color:#ffc14f;stop-opacity:1;"
         offset="1" />
    </linearGradient>
    <linearGradient
       id="linearGradient8568">
      <stop
         id="stop8570"
         style="stop-color:#ffffff;stop-opacity:1"
         offset="0" />
      <stop
         id="stop8572"
         style="stop-color:#ffffff;stop-opacity:0"
         offset="1" />
    </linearGradient>
    <linearGradient
       x1="24.898985"
       y1="-0.12132034"
       x2="25"
       y2="68.068893"
       id="linearGradient3712"
       xlink:href="#linearGradient8568"
       gradientUnits="userSpaceOnUse"
       gradientTransform="translate(-45.02195,3.8774041)" />
    <linearGradient
       x1="25.071428"
       y1="4.7142863"
       x2="35.09507"
       y2="44.5"
       id="linearGradient3715"
       xlink:href="#linearGradient3719"
       gradientUnits="userSpaceOnUse"
       gradientTransform="matrix(1.5026823,0,0,1.5189631,11.130641,11.16563)" />
    <linearGradient
       id="linearGradient11508">
      <stop
         id="stop11510"
         style="stop-color:#000000;stop-opacity:1"
         offset="0" />
      <stop
         id="stop11512"
         style="stop-color:#000000;stop-opacity:0"
         offset="1" />
    </linearGradient>
    <linearGradient
       x1="43.700191"
       y1="82.473648"
       x2="87.732079"
       y2="6.208179"
       id="linearGradient10454"
       xlink:href="#linearGradient11508"
       gradientUnits="userSpaceOnUse"
       gradientTransform="matrix(0.84442773,0.12130865,-0.12943075,0.79143776,26.341674,12.197185)" />
    <linearGradient
       x1="60.899021"
       y1="35.60585"
       x2="68.2229"
       y2="39.53442"
       id="linearGradient10400"
       xlink:href="#linearGradient10394"
       gradientUnits="userSpaceOnUse"
       gradientTransform="matrix(0.81423351,0,0,0.81423351,16.895076,15.45345)" />
    <linearGradient
       id="linearGradient10394">
      <stop
         id="stop10396"
         style="stop-color:#1a1a1a;stop-opacity:1"
         offset="0" />
      <stop
         id="stop10404"
         style="stop-color:#636363;stop-opacity:1"
         offset="0.35185185" />
      <stop
         id="stop10402"
         style="stop-color:#c7c7c7;stop-opacity:1"
         offset="0.5" />
      <stop
         id="stop10406"
         style="stop-color:#636363;stop-opacity:1"
         offset="0.64999998" />
      <stop
         id="stop10398"
         style="stop-color:#000000;stop-opacity:1"
         offset="1" />
    </linearGradient>
    <linearGradient
       x1="24.248737"
       y1="77.502068"
       x2="13.405647"
       y2="67.6745"
       id="linearGradient8183"
       xlink:href="#linearGradient6531"
       gradientUnits="userSpaceOnUse"
       gradientTransform="matrix(0.59071981,-0.15821626,0.15862362,0.59174222,38.27202,30.327666)" />
    <linearGradient
       id="linearGradient6531">
      <stop
         id="stop6533"
         style="stop-color:#c38125;stop-opacity:1"
         offset="0" />
      <stop
         id="stop10377"
         style="stop-color:#c68d31;stop-opacity:1"
         offset="0.62962961" />
      <stop
         id="stop6535"
         style="stop-color:#fffce6;stop-opacity:1"
         offset="1" />
    </linearGradient>
    <linearGradient
       x1="58.651787"
       y1="68.171875"
       x2="47.450871"
       y2="57.993305"
       id="linearGradient10392"
       xlink:href="#linearGradient10386"
       gradientUnits="userSpaceOnUse"
       gradientTransform="matrix(0.81423351,0,0,0.81423351,16.895076,15.45345)" />
    <linearGradient
       id="linearGradient10386">
      <stop
         id="stop10388"
         style="stop-color:#ffffff;stop-opacity:1"
         offset="0" />
      <stop
         id="stop10390"
         style="stop-color:#ffffff;stop-opacity:0"
         offset="1" />
    </linearGradient>
    <radialGradient
       cx="59.85154"
       cy="41.7043"
       r="18.182745"
       fx="59.85154"
       fy="41.7043"
       id="radialGradient10416"
       xlink:href="#linearGradient10410"
       gradientUnits="userSpaceOnUse"
       gradientTransform="matrix(1,0,0,0.125,0,36.491262)" />
    <linearGradient
       id="linearGradient10410">
      <stop
         id="stop10412"
         style="stop-color:#ffffff;stop-opacity:1"
         offset="0" />
      <stop
         id="stop10414"
         style="stop-color:#ffffff;stop-opacity:0"
         offset="1" />
    </linearGradient>
    <linearGradient
       x1="43.700191"
       y1="82.473648"
       x2="77.923637"
       y2="16.211916"
       id="linearGradient3010"
       xlink:href="#linearGradient11508"
       gradientUnits="userSpaceOnUse"
       gradientTransform="matrix(0.8665485,0.18119434,-0.27628685,0.56829955,37.568198,28.213422)" />
    <linearGradient
       inkscape:collect="always"
       xlink:href="#linearGradient7668"
       id="linearGradient3950"
       x1="6.2033916"
       y1="-49.016953"
       x2="90.203392"
       y2="-49.016953"
       gradientUnits="userSpaceOnUse"
       gradientTransform="translate(0.81803685,97.215792)" />
    <linearGradient
       inkscape:collect="always"
       xlink:href="#linearGradient4087"
       id="linearGradient4093"
       x1="21.716021"
       y1="48.5"
       x2="72.783981"
       y2="48.5"
       gradientUnits="userSpaceOnUse"
       gradientTransform="translate(-2.25,-1)" />
    <filter
       inkscape:collect="always"
       id="filter4245">
      <feGaussianBlur
         inkscape:collect="always"
         stdDeviation="0.26184392"
         id="feGaussianBlur4247" />
    </filter>
  </defs>
  <metadata
     id="metadata2413">
    <rdf:RDF>
      <cc:Work
         rdf:about="">
        <dc:format>image/svg+xml</dc:format>
        <dc:type
           rdf:resource="http://purl.org/dc/dcmitype/StillImage" />
        <dc:title />
      </cc:Work>
    </rdf:RDF>
  </metadata>
  <g
     id="layer2"
     style="display:none">
    <rect
       width="86"
       height="85"
       rx="6"
       ry="6"
       x="5"
       y="7"
       id="rect3745"
       style="opacity:0.9;fill:url(#ButtonShadow);fill-opacity:1;fill-rule:nonzero;stroke:none;filter:url(#filter3174)" />
  </g>
  <g
     id="layer3">
    <path
       d="m 12,-95.03125 c -5.5110903,0 -10.03125,4.52016 -10.03125,10.03125 l 0,71 c 0,5.5110902 4.5201598,10.03125 10.03125,10.03125 l 72,0 c 5.51109,0 10.03125,-4.5201597 10.03125,-10.03125 l 0,-71 c 0,-5.51109 -4.52016,-10.03125 -10.03125,-10.03125 l -72,0 z"
       transform="scale(1,-1)"
       id="path3786"
       style="opacity:0.07999998;fill:url(#linearGradient3026);fill-opacity:1;fill-rule:nonzero;stroke:none;display:inline" />
    <path
       d="m 12,-94.03125 c -4.971633,0 -9.03125,4.059617 -9.03125,9.03125 l 0,71 c 0,4.9716329 4.0596171,9.03125 9.03125,9.03125 l 72,0 c 4.971633,0 9.03125,-4.059617 9.03125,-9.03125 l 0,-71 c 0,-4.971633 -4.059617,-9.03125 -9.03125,-9.03125 l -72,0 z"
       transform="scale(1,-1)"
       id="path3778"
       style="opacity:0.1;fill:url(#linearGradient3780);fill-opacity:1;fill-rule:nonzero;stroke:none;display:inline" />
    <path
       d="m 12,-93 c -4.4091333,0 -8,3.590867 -8,8 l 0,71 c 0,4.4091333 3.5908667,8 8,8 l 72,0 c 4.409133,0 8,-3.5908667 8,-8 l 0,-71 c 0,-4.409133 -3.590867,-8 -8,-8 l -72,0 z"
       transform="scale(1,-1)"
       id="path3770"
       style="opacity:0.2;fill:url(#linearGradient3772);fill-opacity:1;fill-rule:nonzero;stroke:none;display:inline" />
    <rect
       width="86"
       height="85"
       rx="7"
       ry="7"
       x="5"
       y="-92"
       transform="scale(1,-1)"
       id="rect3723"
       style="opacity:0.3;fill:url(#linearGradient3725);fill-opacity:1;fill-rule:nonzero;stroke:none;display:inline" />
    <rect
       width="84"
       height="84"
       rx="6"
       ry="6"
       x="6"
       y="-91"
       transform="scale(1,-1)"
       id="rect3716"
       style="opacity:0.45;fill:url(#linearGradient3721);fill-opacity:1;fill-rule:nonzero;stroke:none;display:inline" />
  </g>
  <g
     id="layer1"
     style="display:inline"
     transform="translate(-0.24999994,-0.24999999)">
    <rect
       width="84"
       height="84"
       rx="6"
       ry="6"
       x="7.0214286"
       y="6.1988397"
       transform="matrix(9.2858605e-5,1,1,-9.2858605e-5,0,0)"
       id="rect2419"
       style="fill:url(#linearGradient3950);fill-opacity:1;fill-rule:nonzero;stroke:none" />
    <path
       d="M 12,6 C 8.676,6 6,8.676 6,12 l 0,2 0,68 0,2 c 0,0.334721 0.04135,0.6507 0.09375,0.96875 0.0487,0.295596 0.09704,0.596915 0.1875,0.875 0.00988,0.03038 0.020892,0.0636 0.03125,0.09375 0.098865,0.287771 0.2348802,0.547452 0.375,0.8125 0.1445918,0.273507 0.3156161,0.535615 0.5,0.78125 0.1843839,0.245635 0.3737765,0.473472 0.59375,0.6875 0.439947,0.428056 0.94291,0.814526 1.5,1.09375 0.278545,0.139612 0.5734731,0.246947 0.875,0.34375 -0.2562018,-0.100222 -0.4867109,-0.236272 -0.71875,-0.375 -0.00741,-0.0044 -0.023866,0.0045 -0.03125,0 -0.031933,-0.0193 -0.062293,-0.04251 -0.09375,-0.0625 -0.120395,-0.0767 -0.2310226,-0.163513 -0.34375,-0.25 -0.1061728,-0.0808 -0.2132809,-0.161112 -0.3125,-0.25 C 8.4783201,88.557317 8.3087904,88.373362 8.15625,88.1875 8.0486711,88.057245 7.9378561,87.922215 7.84375,87.78125 7.818661,87.74287 7.805304,87.69538 7.78125,87.65625 7.716487,87.553218 7.6510225,87.451733 7.59375,87.34375 7.4927417,87.149044 7.3880752,86.928049 7.3125,86.71875 7.30454,86.69694 7.288911,86.6782 7.28125,86.65625 7.2494249,86.5643 7.2454455,86.469419 7.21875,86.375 7.1884177,86.268382 7.1483606,86.171969 7.125,86.0625 7.0521214,85.720988 7,85.364295 7,85 L 7,83 7,15 7,13 C 7,10.218152 9.2181517,8 12,8 l 2,0 68,0 2,0 c 2.781848,0 5,2.218152 5,5 l 0,2 0,68 0,2 c 0,0.364295 -0.05212,0.720988 -0.125,1.0625 -0.04415,0.206893 -0.08838,0.397658 -0.15625,0.59375 -0.0077,0.02195 -0.0233,0.04069 -0.03125,0.0625 -0.06274,0.173739 -0.138383,0.367449 -0.21875,0.53125 -0.04158,0.0828 -0.07904,0.169954 -0.125,0.25 -0.0546,0.09721 -0.126774,0.18835 -0.1875,0.28125 -0.09411,0.140965 -0.204921,0.275995 -0.3125,0.40625 -0.143174,0.17445 -0.303141,0.346998 -0.46875,0.5 -0.01117,0.0102 -0.01998,0.02115 -0.03125,0.03125 -0.138386,0.125556 -0.285091,0.234436 -0.4375,0.34375 -0.102571,0.07315 -0.204318,0.153364 -0.3125,0.21875 -0.0074,0.0045 -0.02384,-0.0044 -0.03125,0 -0.232039,0.138728 -0.462548,0.274778 -0.71875,0.375 0.301527,-0.0968 0.596455,-0.204138 0.875,-0.34375 0.55709,-0.279224 1.060053,-0.665694 1.5,-1.09375 0.219973,-0.214028 0.409366,-0.441865 0.59375,-0.6875 0.184384,-0.245635 0.355408,-0.507743 0.5,-0.78125 0.14012,-0.265048 0.276135,-0.524729 0.375,-0.8125 0.01041,-0.03078 0.02133,-0.06274 0.03125,-0.09375 0.09046,-0.278085 0.1388,-0.579404 0.1875,-0.875 C 89.95865,84.6507 90,84.334721 90,84 l 0,-2 0,-68 0,-2 C 90,8.676 87.324,6 84,6 L 12,6 z"
       inkscape:connector-curvature="0"
       id="rect3728"
       style="opacity:0.4;fill:url(#linearGradient3188);fill-opacity:1;fill-rule:nonzero;stroke:none" />
    <path
       d="M 12,90 C 8.676,90 6,87.324 6,84 L 6,82 6,14 6,12 c 0,-0.334721 0.04135,-0.6507 0.09375,-0.96875 0.0487,-0.295596 0.09704,-0.596915 0.1875,-0.875 C 6.29113,10.12587 6.302142,10.09265 6.3125,10.0625 6.411365,9.774729 6.5473802,9.515048 6.6875,9.25 6.8320918,8.976493 7.0031161,8.714385 7.1875,8.46875 7.3718839,8.223115 7.5612765,7.995278 7.78125,7.78125 8.221197,7.353194 8.72416,6.966724 9.28125,6.6875 9.559795,6.547888 9.8547231,6.440553 10.15625,6.34375 9.9000482,6.443972 9.6695391,6.580022 9.4375,6.71875 c -0.00741,0.0044 -0.023866,-0.0045 -0.03125,0 -0.031933,0.0193 -0.062293,0.04251 -0.09375,0.0625 -0.120395,0.0767 -0.2310226,0.163513 -0.34375,0.25 -0.1061728,0.0808 -0.2132809,0.161112 -0.3125,0.25 C 8.4783201,7.442683 8.3087904,7.626638 8.15625,7.8125 8.0486711,7.942755 7.9378561,8.077785 7.84375,8.21875 7.818661,8.25713 7.805304,8.30462 7.78125,8.34375 7.716487,8.446782 7.6510225,8.548267 7.59375,8.65625 7.4927417,8.850956 7.3880752,9.071951 7.3125,9.28125 7.30454,9.30306 7.288911,9.3218 7.28125,9.34375 7.2494249,9.4357 7.2454455,9.530581 7.21875,9.625 7.1884177,9.731618 7.1483606,9.828031 7.125,9.9375 7.0521214,10.279012 7,10.635705 7,11 l 0,2 0,68 0,2 c 0,2.781848 2.2181517,5 5,5 l 2,0 68,0 2,0 c 2.781848,0 5,-2.218152 5,-5 l 0,-2 0,-68 0,-2 C 89,10.635705 88.94788,10.279012 88.875,9.9375 88.83085,9.730607 88.78662,9.539842 88.71875,9.34375 88.71105,9.3218 88.69545,9.30306 88.6875,9.28125 88.62476,9.107511 88.549117,8.913801 88.46875,8.75 88.42717,8.6672 88.38971,8.580046 88.34375,8.5 88.28915,8.40279 88.216976,8.31165 88.15625,8.21875 88.06214,8.077785 87.951329,7.942755 87.84375,7.8125 87.700576,7.63805 87.540609,7.465502 87.375,7.3125 87.36383,7.3023 87.35502,7.29135 87.34375,7.28125 87.205364,7.155694 87.058659,7.046814 86.90625,6.9375 86.803679,6.86435 86.701932,6.784136 86.59375,6.71875 c -0.0074,-0.0045 -0.02384,0.0044 -0.03125,0 -0.232039,-0.138728 -0.462548,-0.274778 -0.71875,-0.375 0.301527,0.0968 0.596455,0.204138 0.875,0.34375 0.55709,0.279224 1.060053,0.665694 1.5,1.09375 0.219973,0.214028 0.409366,0.441865 0.59375,0.6875 0.184384,0.245635 0.355408,0.507743 0.5,0.78125 0.14012,0.265048 0.276135,0.524729 0.375,0.8125 0.01041,0.03078 0.02133,0.06274 0.03125,0.09375 0.09046,0.278085 0.1388,0.579404 0.1875,0.875 C 89.95865,11.3493 90,11.665279 90,12 l 0,2 0,68 0,2 c 0,3.324 -2.676,6 -6,6 l -72,0 z"
       inkscape:connector-curvature="0"
       id="path3615"
       style="opacity:0.2;fill:url(#radialGradient3619);fill-opacity:1;fill-rule:nonzero;stroke:none" />
    <path
       style="opacity:0.23206751;fill:#000000;fill-opacity:1;fill-rule:nonzero;stroke:none"
       d="m 51.335016,11.263013 9.961463,-0.205472 c 1.89423,-0.03907 4.117628,1.128826 5.206775,3.509814 3.409841,7.454267 8.536946,21.612651 8.539182,22.121121 0.04612,10.488451 0.542868,20.300947 0.100828,31.521631 -0.07354,1.866737 -7.55903,18.452625 -13.776007,18.495873 l -28.813021,0.200436 c -3.68308,0.02562 -8.30255,-6.940333 -8.29703,-10.380608 l 0.0623,-38.81458 c 0.005,-3.00325 4.99291,-10.92239 12.55068,-17.214843 5.61275,-4.673064 9.425336,-9.054509 14.46487,-9.233372 z"
       id="rect3976"
       inkscape:connector-curvature="0"
       sodipodi:nodetypes="cssssssssscc" />
    <path
       style="fill:url(#linearGradient4093);fill-opacity:1;fill-rule:nonzero;stroke:none"
       d="M 46.543835,9.781472 56.505305,9.576 c 1.89423,-0.03907 4.11762,1.128826 5.20677,3.509814 3.40984,7.454267 8.53695,21.612652 8.53918,22.121122 0.0461,10.488451 0.54287,20.300947 0.10083,31.521631 -0.0735,1.866737 -7.55903,18.452622 -13.77601,18.495872 l -28.81302,0.20044 c -3.68308,0.0256 -8.30255,-6.940336 -8.29703,-10.380611 l 0.0623,-38.81458 c 0.005,-3.00325 4.99291,-10.92239 12.55068,-17.214844 5.61275,-4.673064 9.42534,-9.054509 14.46487,-9.233372 z"
       id="rect3976-5"
       inkscape:connector-curvature="0"
       sodipodi:nodetypes="cssssssssscc" />
  </g>
  <g
     id="layer5" />
</svg>
